<?xml version="1.0" encoding="UTF-8"?>
<svg id="Layer_1" data-name="Layer 1" xmlns="http://www.w3.org/2000/svg" viewBox="0 0 446.47 114.99">
  <defs>
    <style>
      .cls-1 {
        fill: #06a8ef;
      }

      .cls-2 {
        fill: #014a66;
      }

      .cls-3 {
        fill: #11698c;
      }

      .cls-4 {
        fill: #038fdd;
      }

      .cls-5 {
        fill: #022d3a;
      }
    </style>
  </defs>
  <g>
    <path class="cls-5" d="M132.3,64.52c-.5.55-.85.7-1.3.7-.8,0-1.45-.65-1.45-1.45,0-.35.1-.6.25-.85,1.4-2.2,4.1-3.95,8.3-3.95,5.8,0,9,3.4,9,8.5v13.75c0,.85-.7,1.55-1.55,1.55s-1.55-.7-1.55-1.55v-1.8c-1.25,2.35-4.15,3.6-7.15,3.6-5.3,0-8.65-2.55-8.65-7.15s3.35-7.05,8.75-7.05h7.05v-1.35c0-3.4-2.25-5.5-5.9-5.5-2.65,0-4.25.8-5.8,2.55ZM144,73.72v-2.1h-7.05c-3.25,0-5.5,1.35-5.5,4.25,0,2.6,1.8,4.25,5.7,4.25,3.5,0,6.85-2.15,6.85-6.4Z"/>
    <path class="cls-5" d="M163.95,71.12h-10c-.75,0-1.35-.6-1.35-1.35s.6-1.35,1.35-1.35h10c.75,0,1.35.6,1.35,1.35s-.6,1.35-1.35,1.35Z"/>
    <path class="cls-5" d="M172.55,54.42c0-.85.75-1.6,1.6-1.6.9,0,1.6.75,1.6,1.6v5.25h3.25c.85,0,1.5.65,1.5,1.5s-.65,1.5-1.5,1.5h-3.25v13.8c0,2.15,1.2,3.3,2.9,3.3.85,0,1.55.65,1.55,1.5s-.7,1.5-1.55,1.5c-3.95,0-6.1-2.65-6.1-6.3v-13.8h-1.95c-.85,0-1.5-.65-1.5-1.5s.65-1.5,1.5-1.5h1.95v-5.25Z"/>
    <path class="cls-5" d="M194.05,58.97c8,0,9.55,6.35,9.55,9.75,0,1.45,0,3.2-2,3.2h-14.6c0,4.95,2.85,8.15,7.55,8.15,2.9,0,4.6-1.1,6-2.15.3-.2.5-.3.9-.3.8,0,1.45.65,1.45,1.45,0,.55-.25.85-.55,1.15-.75.75-3.35,2.8-7.8,2.8-6.65,0-10.8-3.65-10.8-12.05,0-7.7,3.8-12,10.3-12ZM194.05,61.87c-4.35,0-6.75,2.8-7.05,7.25h13.45c0-3.6-1.25-7.25-6.4-7.25Z"/>
    <path class="cls-5" d="M211.1,64.52c-.5.55-.85.7-1.3.7-.8,0-1.45-.65-1.45-1.45,0-.35.1-.6.25-.85,1.4-2.2,4.1-3.95,8.3-3.95,5.8,0,9,3.4,9,8.5v13.75c0,.85-.7,1.55-1.55,1.55s-1.55-.7-1.55-1.55v-1.8c-1.25,2.35-4.15,3.6-7.15,3.6-5.3,0-8.65-2.55-8.65-7.15s3.35-7.05,8.75-7.05h7.05v-1.35c0-3.4-2.25-5.5-5.9-5.5-2.65,0-4.25.8-5.8,2.55ZM222.8,73.72v-2.1h-7.05c-3.25,0-5.5,1.35-5.5,4.25,0,2.6,1.8,4.25,5.7,4.25,3.5,0,6.85-2.15,6.85-6.4Z"/>
    <path class="cls-5" d="M266.3,67.82v13.35c0,.9-.7,1.6-1.6,1.6s-1.6-.7-1.6-1.6v-12.7c0-3.95-1.4-6.65-6.25-6.65-4.3,0-6.25,2.3-6.25,6v13.35c0,.9-.7,1.6-1.6,1.6s-1.6-.7-1.6-1.6v-12.7c0-3.95-1.25-6.65-6.15-6.65s-6.15,2.8-6.15,7v12.35c0,.9-.7,1.6-1.6,1.6s-1.6-.7-1.6-1.6v-20.3c0-.9.7-1.6,1.6-1.6s1.6.7,1.6,1.6v1.6c.85-1.85,3.25-3.5,6.5-3.5,4.1,0,6.75,1.5,7.95,3.5,1.25-1.95,3.45-3.5,7.3-3.5,7.7,0,9.45,4.6,9.45,8.85Z"/>
    <path class="cls-5" d="M286.85,65.07c0,5.25,13.15,3.3,13.15,11.3,0,4.55-3.75,6.6-8.5,6.6-4.1,0-7.25-1.95-8.55-3.6-.25-.35-.35-.6-.35-.95,0-.8.65-1.45,1.45-1.45.3,0,.7.1,1.1.5,1.55,1.55,3.55,2.45,6.35,2.45s5.3-.95,5.3-3.55c0-5.15-13.15-3.1-13.15-11.3,0-4.15,3.4-6.05,7.65-6.05,3.4,0,6.05,1.15,7.6,3.2.15.2.35.5.35.95,0,.8-.65,1.45-1.45,1.45-.25,0-.65-.05-1.05-.45-1.35-1.3-2.85-2.1-5.45-2.1-2.25,0-4.45.7-4.45,3Z"/>
    <path class="cls-5" d="M311.45,81.42l-8.35-19.85c-.05-.15-.15-.35-.15-.7,0-.9.7-1.6,1.6-1.6s1.3.55,1.5,1.05l7.05,17.25,7.05-17.25c.2-.5.6-1.05,1.5-1.05s1.6.7,1.6,1.6c0,.35-.1.55-.15.7l-9.85,23.45c-2.05,4.9-4.6,7.4-9.35,7.4-.85,0-1.5-.65-1.5-1.5s.65-1.5,1.5-1.5c4.35,0,5.5-2.95,7.55-8Z"/>
    <path class="cls-5" d="M329.95,65.07c0,5.25,13.15,3.3,13.15,11.3,0,4.55-3.75,6.6-8.5,6.6-4.1,0-7.25-1.95-8.55-3.6-.25-.35-.35-.6-.35-.95,0-.8.65-1.45,1.45-1.45.3,0,.7.1,1.1.5,1.55,1.55,3.55,2.45,6.35,2.45s5.3-.95,5.3-3.55c0-5.15-13.15-3.1-13.15-11.3,0-4.15,3.4-6.05,7.65-6.05,3.4,0,6.05,1.15,7.6,3.2.15.2.35.5.35.95,0,.8-.65,1.45-1.45,1.45-.25,0-.65-.05-1.05-.45-1.35-1.3-2.85-2.1-5.45-2.1-2.25,0-4.45.7-4.45,3Z"/>
    <path class="cls-5" d="M349.75,54.42c0-.85.75-1.6,1.6-1.6.9,0,1.6.75,1.6,1.6v5.25h3.25c.85,0,1.5.65,1.5,1.5s-.65,1.5-1.5,1.5h-3.25v13.8c0,2.15,1.2,3.3,2.9,3.3.85,0,1.55.65,1.55,1.5s-.7,1.5-1.55,1.5c-3.95,0-6.1-2.65-6.1-6.3v-13.8h-1.95c-.85,0-1.5-.65-1.5-1.5s.65-1.5,1.5-1.5h1.95v-5.25Z"/>
    <path class="cls-5" d="M371.25,58.97c8,0,9.55,6.35,9.55,9.75,0,1.45,0,3.2-2,3.2h-14.6c0,4.95,2.85,8.15,7.55,8.15,2.9,0,4.6-1.1,6-2.15.3-.2.5-.3.9-.3.8,0,1.45.65,1.45,1.45,0,.55-.25.85-.55,1.15-.75.75-3.35,2.8-7.8,2.8-6.65,0-10.8-3.65-10.8-12.05,0-7.7,3.8-12,10.3-12ZM371.25,61.87c-4.35,0-6.75,2.8-7.05,7.25h13.45c0-3.6-1.25-7.25-6.4-7.25Z"/>
    <path class="cls-5" d="M420.15,67.82v13.35c0,.9-.7,1.6-1.6,1.6s-1.6-.7-1.6-1.6v-12.7c0-3.95-1.4-6.65-6.25-6.65-4.3,0-6.25,2.3-6.25,6v13.35c0,.9-.7,1.6-1.6,1.6s-1.6-.7-1.6-1.6v-12.7c0-3.95-1.25-6.65-6.15-6.65s-6.15,2.8-6.15,7v12.35c0,.9-.7,1.6-1.6,1.6s-1.6-.7-1.6-1.6v-20.3c0-.9.7-1.6,1.6-1.6s1.6.7,1.6,1.6v1.6c.85-1.85,3.25-3.5,6.5-3.5,4.1,0,6.75,1.5,7.95,3.5,1.25-1.95,3.45-3.5,7.3-3.5,7.7,0,9.45,4.6,9.45,8.85Z"/>
    <path class="cls-5" d="M428.8,65.07c0,5.25,13.15,3.3,13.15,11.3,0,4.55-3.75,6.6-8.5,6.6-4.1,0-7.25-1.95-8.55-3.6-.25-.35-.35-.6-.35-.95,0-.8.65-1.45,1.45-1.45.3,0,.7.1,1.1.5,1.55,1.55,3.55,2.45,6.35,2.45s5.3-.95,5.3-3.55c0-5.15-13.15-3.1-13.15-11.3,0-4.15,3.4-6.05,7.65-6.05,3.4,0,6.05,1.15,7.6,3.2.15.2.35.5.35.95,0,.8-.65,1.45-1.45,1.45-.25,0-.65-.05-1.05-.45-1.35-1.3-2.85-2.1-5.45-2.1-2.25,0-4.45.7-4.45,3Z"/>
  </g>
  <g>
    <g>
      <polygon class="cls-2" points="55.96 4.63 4.72 22.96 55 41.39 55 41.62 55.47 41.65 106.27 22.89 55.96 4.63"/>
      <polygon class="cls-2" points="5 50.97 16 54.87 16 44.61 36.61 52.01 36.26 62.33 55 68.1 55 41.69 55 40.81 5 22.96 5 50.97"/>
    </g>
    <polygon class="cls-4" points="36.33 84.07 36.37 73.75 16 66.36 16 76.62 5 72.72 5 81.29 5 93.41 55 111.67 55 95.82 55 95.51 55 89.84 36.33 84.07"/>
    <polygon class="cls-3" points="55 41.69 55 68.1 74.06 62.33 74.18 52.67 96 44.61 96 54.87 106 50.97 106 22.89 55 41.69"/>
    <polygon class="cls-1" points="96 76.62 96 66.36 74.38 74.41 74.19 84.07 55 89.84 55 95.51 55 95.82 55 111.67 106 93.41 106 81.59 106 72.72 96 76.62"/>
  </g>
</svg>