<svg version="1.1" id="Layer_1" xmlns="http://www.w3.org/2000/svg" xmlns:xlink="http://www.w3.org/1999/xlink" x="0px" y="0px"
	 width="100%" viewBox="0 0 736 145" enable-background="new 0 0 736 145" xml:space="preserve">
<path fill="#FEFEFE" opacity="1.000000" stroke="none" 
	d="
M328.000000,1.000000 
	C464.282684,1.000000 600.565369,1.000000 736.924072,1.000000 
	C736.924072,49.264637 736.924072,97.529427 736.924072,145.897110 
	C491.666718,145.897110 246.333359,145.897110 1.000000,145.897110 
	C1.000000,143.313614 1.000000,140.647858 1.382074,137.282516 
	C11.067623,136.197067 9.773223,137.769211 13.066912,128.200821 
	C16.204943,119.084618 19.529531,110.028488 22.445381,100.842239 
	C23.442759,97.700050 24.972242,96.886581 28.120859,96.904236 
	C51.783051,97.036957 75.446564,97.026390 99.108955,96.913139 
	C102.046333,96.899086 103.480194,97.647873 104.431290,100.613319 
	C107.578056,110.424591 111.083191,120.121109 114.464340,129.856949 
	C116.945267,137.000656 117.342308,137.217728 125.698746,135.982254 
	C125.172058,134.402237 124.685753,132.869263 124.151985,131.352982 
	C110.242401,91.839058 96.309555,52.333305 82.443207,12.804225 
	C81.088425,8.942115 80.138069,4.938131 79.000000,1.000000 
	C100.020897,1.000000 121.041786,1.000000 142.529083,1.373229 
	C142.066391,4.275980 140.357132,6.797504 140.331116,9.336285 
	C140.114258,30.493174 140.207336,51.653240 140.207199,72.812347 
	C140.207077,91.472343 140.238480,110.132439 140.184998,128.792282 
	C140.172119,133.282745 141.709717,136.436920 146.633667,136.438309 
	C168.122589,136.444321 189.626740,136.791443 211.095230,136.091125 
	C225.669327,135.615677 236.854950,123.268562 236.951096,108.739990 
	C237.127502,82.084030 237.099701,55.425621 236.965652,28.769196 
	C236.903625,16.432308 228.403244,5.621841 216.550949,2.071407 
	C215.672485,1.808254 214.849030,1.361434 214.000000,1.000000 
	C242.354233,1.000000 270.708466,1.000000 299.517883,1.353070 
	C298.273224,4.065640 295.908051,6.188787 294.973297,8.820070 
	C280.839569,48.606758 266.893219,88.460007 252.904587,128.298233 
	C252.001465,130.870209 251.111969,133.446976 250.171783,136.149048 
	C259.084106,136.938202 259.096130,136.942368 261.635376,129.614563 
	C264.955444,120.033485 268.405396,110.493057 271.475586,100.832214 
	C272.477264,97.680283 274.012634,96.887352 277.152557,96.904785 
	C300.815033,97.036171 324.478790,97.027740 348.141449,96.911476 
	C351.094116,96.896965 352.509827,97.675354 353.458618,100.626984 
	C356.611877,110.436371 360.119537,120.131920 363.496918,129.869171 
	C365.974518,137.012222 366.327972,137.209366 374.740387,135.988754 
	C374.206299,134.406540 373.708923,132.876190 373.174713,131.358780 
	C358.601593,89.963707 344.015778,48.573078 329.475861,7.166325 
	C328.779358,5.182713 328.482819,3.058653 328.000000,1.000000 
M444.963135,76.503693 
	C444.964539,89.823280 444.890472,103.143433 444.990906,116.462273 
	C445.072723,127.314751 452.711884,134.886429 463.597961,134.996063 
	C472.421295,135.084930 481.246979,135.087479 490.070251,134.996155 
	C500.654114,134.886612 508.536163,127.531532 508.712189,116.909355 
	C508.996277,99.765228 508.964172,82.610428 508.718292,65.465118 
	C508.584595,56.142830 502.361023,48.523983 493.479462,47.912868 
	C482.396454,47.150276 471.182922,47.168083 460.097504,47.914604 
	C451.385651,48.501278 445.278473,56.218742 444.994537,65.017708 
	C444.881836,68.510582 444.967712,72.009865 444.963135,76.503693 
M571.155273,47.300919 
	C559.833069,47.301590 548.509338,47.188313 537.189026,47.334724 
	C525.694153,47.483387 517.978271,54.460064 517.857727,65.110184 
	C517.659790,82.590492 517.663635,100.076500 517.872375,117.556641 
	C517.986755,127.137985 525.484497,134.676605 534.975525,134.943970 
	C543.959412,135.197067 552.960754,135.177780 561.945801,134.945786 
	C570.189392,134.732956 578.048889,128.538437 578.651855,120.486000 
	C579.452393,109.794388 578.849304,98.997696 578.849304,88.129272 
	C569.218445,88.129272 559.962402,88.129272 550.653015,88.129272 
	C549.694702,91.685379 550.624268,93.187401 554.395691,93.046188 
	C560.500000,92.817635 566.619019,92.984673 573.016052,92.984673 
	C573.016052,101.885124 573.219482,110.342606 572.947998,118.784821 
	C572.750977,124.914627 567.888489,129.633545 561.549500,129.834625 
	C552.900269,130.109009 544.230713,130.098175 535.579956,129.854324 
	C528.760010,129.662048 523.962097,124.845634 523.903198,118.049461 
	C523.747375,100.068977 523.756470,82.085381 523.909973,64.104813 
	C523.963501,57.833321 528.061707,53.536560 534.262207,52.638607 
	C536.388123,52.330734 538.575195,52.382492 540.734497,52.378151 
	C552.021179,52.355453 563.307922,52.367558 574.935059,52.367558 
	C574.760010,49.773815 576.326416,46.928028 571.155273,47.300919 
M682.532959,129.403137 
	C679.868896,129.403412 677.200012,129.505096 674.541809,129.380341 
	C670.489746,129.190140 670.295410,131.190033 671.376221,134.336060 
	C686.603760,134.336060 701.586365,134.534805 716.560547,134.265610 
	C726.408691,134.088562 733.642273,126.469597 733.963440,116.608185 
	C734.098877,112.449738 733.837646,108.275780 734.042297,104.122940 
	C734.240173,100.106697 732.377930,98.105270 728.689453,96.913284 
	C715.900574,92.780342 703.169861,88.467140 690.424561,84.199867 
	C677.784363,79.967819 677.788452,79.955833 677.908691,66.903496 
	C677.995789,57.446476 682.478943,53.020466 692.106445,52.990597 
	C704.594543,52.951847 717.082703,52.971413 729.570801,52.942802 
	C730.016907,52.941784 730.462524,52.695591 731.131470,52.497639 
	C731.131470,51.041527 731.131470,49.645126 731.131470,48.027443 
	C716.731506,48.027443 702.593811,47.772408 688.470947,48.119427 
	C679.444580,48.341213 672.316040,55.995003 671.946045,65.025162 
	C671.762146,69.513763 672.011597,74.019753 671.841064,78.509384 
	C671.698120,82.271255 673.307190,84.155998 676.917175,85.303185 
	C689.885193,89.424171 702.756653,93.848358 715.672302,98.134850 
	C728.062073,102.246834 728.066345,102.234238 727.975098,115.194603 
	C727.907593,124.779068 723.531311,129.299576 713.992859,129.382736 
	C703.836548,129.471283 693.678772,129.402985 682.532959,129.403137 
M612.620422,83.500244 
	C612.620789,78.173058 612.586426,72.845596 612.628967,67.518745 
	C612.711182,57.227825 616.944885,53.017559 627.231873,52.997810 
	C638.697327,52.975796 650.162842,52.992764 661.876831,52.992764 
	C661.876831,51.103134 661.876831,49.554043 661.876831,47.916859 
	C649.077698,47.916859 636.592590,47.783298 624.111877,47.961086 
	C614.897827,48.092342 607.084412,54.913456 606.861755,64.015831 
	C606.418335,82.145256 606.413574,100.301743 606.880310,118.430244 
	C607.114990,127.542931 614.778748,134.084885 624.240723,134.312637 
	C633.557922,134.536911 642.884460,134.374023 652.206909,134.379761 
	C655.466309,134.381775 658.725769,134.380096 661.796265,134.380096 
	C662.856873,130.533081 661.758545,129.273514 658.288269,129.328690 
	C648.135925,129.490097 637.979370,129.403671 627.824524,129.380737 
	C616.521790,129.355194 612.645386,125.419853 612.624451,113.966042 
	C612.606567,104.144135 612.620483,94.322166 612.620422,83.500244 
M383.576721,108.453026 
	C383.666107,111.946510 383.507843,115.467781 383.896149,118.927727 
	C384.723755,126.302345 390.694275,133.493073 397.890533,133.836243 
	C411.444580,134.482574 425.051361,134.022720 438.607208,134.022720 
	C439.585327,130.574570 438.447449,129.283707 435.011261,129.326996 
	C424.853455,129.454987 414.692902,129.401917 404.533630,129.363281 
	C393.896515,129.322845 389.708374,125.163803 389.687683,114.529182 
	C389.648163,94.210434 389.676117,73.891556 389.676056,53.572731 
	C389.676056,51.785610 389.676056,49.998486 389.676056,48.223900 
	C387.421173,48.223900 385.686096,48.223900 383.576782,48.223900 
	C383.576782,68.195641 383.576782,87.831062 383.576721,108.453026 
M589.185852,49.866009 
	C589.185852,78.141502 589.185852,106.417000 589.185852,135.025467 
	C591.246765,135.025467 592.984680,135.025467 594.872864,135.025467 
	C594.872864,106.402794 594.872864,77.860619 594.872864,49.107983 
	C592.971497,49.107983 591.353455,49.107983 589.185852,49.866009 
z"/>
<path fill="#840784" opacity="1.000000" stroke="none" 
	d="
M213.531342,1.000000 
	C214.849030,1.361434 215.672485,1.808254 216.550949,2.071407 
	C228.403244,5.621841 236.903625,16.432308 236.965652,28.769196 
	C237.099701,55.425621 237.127502,82.084030 236.951096,108.739990 
	C236.854950,123.268562 225.669327,135.615677 211.095230,136.091125 
	C189.626740,136.791443 168.122589,136.444321 146.633667,136.438309 
	C141.709717,136.436920 140.172119,133.282745 140.184998,128.792282 
	C140.238480,110.132439 140.207077,91.472343 140.207199,72.812347 
	C140.207336,51.653240 140.114258,30.493174 140.331116,9.336285 
	C140.357132,6.797504 142.066391,4.275980 142.997742,1.373229 
	C166.354233,1.000000 189.708450,1.000000 213.531342,1.000000 
M202.391953,128.743668 
	C204.223953,128.743073 206.056992,128.782745 207.887787,128.735275 
	C219.256699,128.440552 227.449966,121.098465 227.584412,109.788536 
	C227.909027,82.478806 227.905258,55.160370 227.600342,27.850283 
	C227.473831,16.518295 219.210602,9.043403 207.909027,8.997651 
	C190.255234,8.926183 172.600037,9.070726 154.947540,8.902700 
	C151.170090,8.866744 149.681900,9.707890 149.698914,13.855311 
	C149.849365,50.495255 149.844971,87.136292 149.705658,123.776321 
	C149.690109,127.867722 151.147369,128.853912 154.953186,128.812943 
	C170.440353,128.646225 185.930359,128.743591 202.391953,128.743668 
z"/>
<path fill="#FEFEFE" opacity="1.000000" stroke="none" 
	d="
M0.999999,135.000000 
	C1.000000,90.439766 1.000000,45.879536 1.000000,1.000000 
	C17.352842,1.000000 33.707764,1.000000 50.513729,1.351815 
	C49.262115,4.059587 46.898933,6.179183 45.958302,8.807822 
	C35.824135,37.128258 25.960989,65.545494 15.922546,93.900444 
	C11.058600,107.639320 5.980915,121.302528 0.999999,135.000000 
z"/>
<path fill="#840784" opacity="1.000000" stroke="none" 
	d="
M0.999999,135.333328 
	C5.980915,121.302528 11.058600,107.639320 15.922546,93.900444 
	C25.960989,65.545494 35.824135,37.128258 45.958302,8.807822 
	C46.898933,6.179183 49.262115,4.059587 50.982388,1.351815 
	C60.020893,1.000000 69.041786,1.000000 78.531342,1.000000 
	C80.138069,4.938131 81.088425,8.942115 82.443207,12.804225 
	C96.309555,52.333305 110.242401,91.839058 124.151985,131.352982 
	C124.685753,132.869263 125.172058,134.402237 125.698746,135.982254 
	C117.342308,137.217728 116.945267,137.000656 114.464340,129.856949 
	C111.083191,120.121109 107.578056,110.424591 104.431290,100.613319 
	C103.480194,97.647873 102.046333,96.899086 99.108955,96.913139 
	C75.446564,97.026390 51.783051,97.036957 28.120859,96.904236 
	C24.972242,96.886581 23.442759,97.700050 22.445381,100.842239 
	C19.529531,110.028488 16.204943,119.084618 13.066912,128.200821 
	C9.773223,137.769211 11.067623,136.197067 1.382074,136.791473 
	C1.000000,136.555557 1.000000,136.111099 0.999999,135.333328 
M36.090466,61.683437 
	C33.012012,70.670845 29.933563,79.658257 26.782061,88.858932 
	C51.613438,88.858932 75.673080,88.858932 100.095184,88.858932 
	C99.514915,86.980347 99.079102,85.404427 98.544266,83.862869 
	C91.307182,63.003239 84.051720,42.149986 76.810623,21.291750 
	C72.495468,8.861779 72.501595,9.016953 59.291424,8.881186 
	C55.362724,8.840809 53.832748,10.336967 52.646805,13.877633 
	C47.374657,29.617735 41.801147,45.256897 36.090466,61.683437 
z"/>
<path fill="#840784" opacity="1.000000" stroke="none" 
	d="
M327.531342,1.000000 
	C328.482819,3.058653 328.779358,5.182713 329.475861,7.166325 
	C344.015778,48.573078 358.601593,89.963707 373.174713,131.358780 
	C373.708923,132.876190 374.206299,134.406540 374.740387,135.988754 
	C366.327972,137.209366 365.974518,137.012222 363.496918,129.869171 
	C360.119537,120.131920 356.611877,110.436371 353.458618,100.626984 
	C352.509827,97.675354 351.094116,96.896965 348.141449,96.911476 
	C324.478790,97.027740 300.815033,97.036171 277.152557,96.904785 
	C274.012634,96.887352 272.477264,97.680283 271.475586,100.832214 
	C268.405396,110.493057 264.955444,120.033485 261.635376,129.614563 
	C259.096130,136.942368 259.084106,136.938202 250.171783,136.149048 
	C251.111969,133.446976 252.001465,130.870209 252.904587,128.298233 
	C266.893219,88.460007 280.839569,48.606758 294.973297,8.820070 
	C295.908051,6.188787 298.273224,4.065640 299.986511,1.353070 
	C309.020905,1.000000 318.041779,1.000000 327.531342,1.000000 
M287.527557,89.108139 
	C307.940338,89.108139 328.353149,89.108139 349.375549,89.108139 
	C339.927948,61.949638 330.728241,35.503872 321.500763,8.978176 
	C316.756805,8.978176 312.419556,9.202771 308.117554,8.909817 
	C304.422882,8.658221 302.918152,10.226707 301.766907,13.604425 
	C293.669647,37.360947 285.352509,61.042484 277.130035,84.756447 
	C276.679962,86.054482 276.448608,87.428337 276.030518,89.108154 
	C279.894318,89.108154 283.216644,89.108154 287.527557,89.108139 
z"/>
<path fill="#090909" opacity="1.000000" stroke="none" 
	d="
M444.963135,76.004959 
	C444.967712,72.009865 444.881836,68.510582 444.994537,65.017708 
	C445.278473,56.218742 451.385651,48.501278 460.097504,47.914604 
	C471.182922,47.168083 482.396454,47.150276 493.479462,47.912868 
	C502.361023,48.523983 508.584595,56.142830 508.718292,65.465118 
	C508.964172,82.610428 508.996277,99.765228 508.712189,116.909355 
	C508.536163,127.531532 500.654114,134.886612 490.070251,134.996155 
	C481.246979,135.087479 472.421295,135.084930 463.597961,134.996063 
	C452.711884,134.886429 445.072723,127.314751 444.990906,116.462273 
	C444.890472,103.143433 444.964539,89.823280 444.963135,76.004959 
M451.039795,118.888725 
	C452.878510,126.678101 456.750916,129.879333 464.617004,129.936844 
	C472.600372,129.995209 480.584625,129.980621 488.568237,129.941605 
	C497.962585,129.895691 502.723083,125.251114 502.764313,115.883919 
	C502.836761,99.417686 502.835541,82.950668 502.762878,66.484436 
	C502.722260,57.280334 498.192902,52.668571 488.985596,52.500729 
	C480.838196,52.352207 472.683167,52.334282 464.536591,52.504372 
	C455.324036,52.696720 451.008789,57.277077 450.994537,66.605827 
	C450.968353,83.737602 450.996582,100.869461 451.039795,118.888725 
z"/>
<path fill="#0B0B0B" opacity="1.000000" stroke="none" 
	d="
M571.613525,47.301094 
	C576.326416,46.928028 574.760010,49.773815 574.935059,52.367558 
	C563.307922,52.367558 552.021179,52.355453 540.734497,52.378151 
	C538.575195,52.382492 536.388123,52.330734 534.262207,52.638607 
	C528.061707,53.536560 523.963501,57.833321 523.909973,64.104813 
	C523.756470,82.085381 523.747375,100.068977 523.903198,118.049461 
	C523.962097,124.845634 528.760010,129.662048 535.579956,129.854324 
	C544.230713,130.098175 552.900269,130.109009 561.549500,129.834625 
	C567.888489,129.633545 572.750977,124.914627 572.947998,118.784821 
	C573.219482,110.342606 573.016052,101.885124 573.016052,92.984673 
	C566.619019,92.984673 560.500000,92.817635 554.395691,93.046188 
	C550.624268,93.187401 549.694702,91.685379 550.653015,88.129272 
	C559.962402,88.129272 569.218445,88.129272 578.849304,88.129272 
	C578.849304,98.997696 579.452393,109.794388 578.651855,120.486000 
	C578.048889,128.538437 570.189392,134.732956 561.945801,134.945786 
	C552.960754,135.177780 543.959412,135.197067 534.975525,134.943970 
	C525.484497,134.676605 517.986755,127.137985 517.872375,117.556641 
	C517.663635,100.076500 517.659790,82.590492 517.857727,65.110184 
	C517.978271,54.460064 525.694153,47.483387 537.189026,47.334724 
	C548.509338,47.188313 559.833069,47.301590 571.613525,47.301094 
z"/>
<path fill="#0A0A0A" opacity="1.000000" stroke="none" 
	d="
M683.027344,129.403152 
	C693.678772,129.402985 703.836548,129.471283 713.992859,129.382736 
	C723.531311,129.299576 727.907593,124.779068 727.975098,115.194603 
	C728.066345,102.234238 728.062073,102.246834 715.672302,98.134850 
	C702.756653,93.848358 689.885193,89.424171 676.917175,85.303185 
	C673.307190,84.155998 671.698120,82.271255 671.841064,78.509384 
	C672.011597,74.019753 671.762146,69.513763 671.946045,65.025162 
	C672.316040,55.995003 679.444580,48.341213 688.470947,48.119427 
	C702.593811,47.772408 716.731506,48.027443 731.131470,48.027443 
	C731.131470,49.645126 731.131470,51.041527 731.131470,52.497639 
	C730.462524,52.695591 730.016907,52.941784 729.570801,52.942802 
	C717.082703,52.971413 704.594543,52.951847 692.106445,52.990597 
	C682.478943,53.020466 677.995789,57.446476 677.908691,66.903496 
	C677.788452,79.955833 677.784363,79.967819 690.424561,84.199867 
	C703.169861,88.467140 715.900574,92.780342 728.689453,96.913284 
	C732.377930,98.105270 734.240173,100.106697 734.042297,104.122940 
	C733.837646,108.275780 734.098877,112.449738 733.963440,116.608185 
	C733.642273,126.469597 726.408691,134.088562 716.560547,134.265610 
	C701.586365,134.534805 686.603760,134.336060 671.376221,134.336060 
	C670.295410,131.190033 670.489746,129.190140 674.541809,129.380341 
	C677.200012,129.505096 679.868896,129.403412 683.027344,129.403152 
z"/>
<path fill="#0F0F0F" opacity="1.000000" stroke="none" 
	d="
M612.620361,84.000237 
	C612.620483,94.322166 612.606567,104.144135 612.624451,113.966042 
	C612.645386,125.419853 616.521790,129.355194 627.824524,129.380737 
	C637.979370,129.403671 648.135925,129.490097 658.288269,129.328690 
	C661.758545,129.273514 662.856873,130.533081 661.796265,134.380096 
	C658.725769,134.380096 655.466309,134.381775 652.206909,134.379761 
	C642.884460,134.374023 633.557922,134.536911 624.240723,134.312637 
	C614.778748,134.084885 607.114990,127.542931 606.880310,118.430244 
	C606.413574,100.301743 606.418335,82.145256 606.861755,64.015831 
	C607.084412,54.913456 614.897827,48.092342 624.111877,47.961086 
	C636.592590,47.783298 649.077698,47.916859 661.876831,47.916859 
	C661.876831,49.554043 661.876831,51.103134 661.876831,52.992764 
	C650.162842,52.992764 638.697327,52.975796 627.231873,52.997810 
	C616.944885,53.017559 612.711182,57.227825 612.628967,67.518745 
	C612.586426,72.845596 612.620789,78.173058 612.620361,84.000237 
z"/>
<path fill="#131313" opacity="1.000000" stroke="none" 
	d="
M383.576752,107.959755 
	C383.576782,87.831062 383.576782,68.195641 383.576782,48.223900 
	C385.686096,48.223900 387.421173,48.223900 389.676056,48.223900 
	C389.676056,49.998486 389.676056,51.785610 389.676056,53.572731 
	C389.676117,73.891556 389.648163,94.210434 389.687683,114.529182 
	C389.708374,125.163803 393.896515,129.322845 404.533630,129.363281 
	C414.692902,129.401917 424.853455,129.454987 435.011261,129.326996 
	C438.447449,129.283707 439.585327,130.574570 438.607208,134.022720 
	C425.051361,134.022720 411.444580,134.482574 397.890533,133.836243 
	C390.694275,133.493073 384.723755,126.302345 383.896149,118.927727 
	C383.507843,115.467781 383.666107,111.946510 383.576752,107.959755 
z"/>
<path fill="#0A0A0A" opacity="1.000000" stroke="none" 
	d="
M589.460693,49.486996 
	C591.353455,49.107983 592.971497,49.107983 594.872864,49.107983 
	C594.872864,77.860619 594.872864,106.402794 594.872864,135.025467 
	C592.984680,135.025467 591.246765,135.025467 589.185852,135.025467 
	C589.185852,106.417000 589.185852,78.141502 589.460693,49.486996 
z"/>
<path fill="#FEFDFE" opacity="1.000000" stroke="none" 
	d="
M201.905640,128.743652 
	C185.930359,128.743591 170.440353,128.646225 154.953186,128.812943 
	C151.147369,128.853912 149.690109,127.867722 149.705658,123.776321 
	C149.844971,87.136292 149.849365,50.495255 149.698914,13.855311 
	C149.681900,9.707890 151.170090,8.866744 154.947540,8.902700 
	C172.600037,9.070726 190.255234,8.926183 207.909027,8.997651 
	C219.210602,9.043403 227.473831,16.518295 227.600342,27.850283 
	C227.905258,55.160370 227.909027,82.478806 227.584412,109.788536 
	C227.449966,121.098465 219.256699,128.440552 207.887787,128.735275 
	C206.056992,128.782745 204.223953,128.743073 201.905640,128.743652 
z"/>
<path fill="#FEFEFE" opacity="1.000000" stroke="none" 
	d="
M36.213531,61.307995 
	C41.801147,45.256897 47.374657,29.617735 52.646805,13.877633 
	C53.832748,10.336967 55.362724,8.840809 59.291424,8.881186 
	C72.501595,9.016953 72.495468,8.861779 76.810623,21.291750 
	C84.051720,42.149986 91.307182,63.003239 98.544266,83.862869 
	C99.079102,85.404427 99.514915,86.980347 100.095184,88.858932 
	C75.673080,88.858932 51.613438,88.858932 26.782061,88.858932 
	C29.933563,79.658257 33.012012,70.670845 36.213531,61.307995 
z"/>
<path fill="#FEFEFE" opacity="1.000000" stroke="none" 
	d="
M287.033264,89.108147 
	C283.216644,89.108154 279.894318,89.108154 276.030518,89.108154 
	C276.448608,87.428337 276.679962,86.054482 277.130035,84.756447 
	C285.352509,61.042484 293.669647,37.360947 301.766907,13.604425 
	C302.918152,10.226707 304.422882,8.658221 308.117554,8.909817 
	C312.419556,9.202771 316.756805,8.978176 321.500763,8.978176 
	C330.728241,35.503872 339.927948,61.949638 349.375549,89.108139 
	C328.353149,89.108139 307.940338,89.108139 287.033264,89.108147 
z"/>
<path fill="#FCFCFC" opacity="1.000000" stroke="none" 
	d="
M451.020935,118.445007 
	C450.996582,100.869461 450.968353,83.737602 450.994537,66.605827 
	C451.008789,57.277077 455.324036,52.696720 464.536591,52.504372 
	C472.683167,52.334282 480.838196,52.352207 488.985596,52.500729 
	C498.192902,52.668571 502.722260,57.280334 502.762878,66.484436 
	C502.835541,82.950668 502.836761,99.417686 502.764313,115.883919 
	C502.723083,125.251114 497.962585,129.895691 488.568237,129.941605 
	C480.584625,129.980621 472.600372,129.995209 464.617004,129.936844 
	C456.750916,129.879333 452.878510,126.678101 451.020935,118.445007 
z"/>
</svg>