<?xml version="1.0" encoding="UTF-8" standalone="no"?>
<!-- Created with Inkscape (http://www.inkscape.org/) -->

<svg
   version="1.1"
   id="svg1"
   width="1230.0977"
   height="208.77283"
   viewBox="0 0 1230.0976 208.77283"
   xmlns="http://www.w3.org/2000/svg"
   xmlns:svg="http://www.w3.org/2000/svg">
  <defs
     id="defs1" />
  <g
     id="g1"
     transform="translate(-0.26695973,-0.0658576)">
    <g
       id="g2">
      <path
         style="fill:#8f9c9f"
         d="M 99.360002,208.76992 C 79.78069,207.26858 64.128347,202.24782 49.236989,192.69208 l -2.763012,-1.77302 -0.522023,-4.65953 c -0.736653,-6.5753 -1.084701,-10.69868 -1.338677,-15.85952 l -0.22047,-4.48 7.963597,-0.013 c 4.379979,-0.007 9.718527,-0.1947 11.863442,-0.41674 l 3.899845,-0.4037 1.246607,0.78695 c 4.52498,2.85649 11.653025,5.81654 17.845112,7.41051 6.566338,1.6903 10.64021,2.19591 17.74859,2.20276 11.67965,0.0113 21.40231,-2.25017 31.66598,-7.36532 16.98863,-8.46669 29.57608,-22.82868 35.66604,-40.69413 2.89309,-8.48713 3.86504,-15.1927 3.62237,-24.99115 -0.1814,-7.324638 -0.7313,-11.026614 -2.60305,-17.524063 -6.47047,-22.46105 -23.53169,-40.243475 -45.70283,-47.63477 -8.27646,-2.759162 -15.23225,-3.795987 -24.31501,-3.624378 -5.618637,0.106158 -5.662541,0.101655 -5.196593,-0.532938 0.258455,-0.352 0.813617,-1.144 1.233693,-1.76 1.11912,-1.64107 6.16562,-7.025244 10.20327,-10.88599 l 3.52023,-3.365991 -3.96705,-3.647 C 104.44115,9.18994 99.223926,4.8808542 95.827189,2.5092525 93.594876,0.95065147 93.468546,0.80321828 94.146711,0.54805745 95.454821,0.05587906 108.96968,-0.11532008 113.76,0.29960651 131.9425,1.8745312 148.12244,7.5010584 163.04,17.436589 c 26.42964,17.602902 43.10732,45.34998 46.23198,76.917319 0.42059,4.249031 0.42211,15.180382 0.003,19.726092 -1.97426,21.40049 -10.73453,42.08354 -24.66746,58.24001 -17.65406,20.47145 -41.46342,33.01938 -68.28728,35.98854 -3.37563,0.37365 -14.24712,0.66939 -16.959998,0.46137 z M 37.440001,185.83484 c -4.314616,-3.6655 -10.89804,-10.38755 -14.192266,-14.49113 -2.967629,-3.69673 -7.134304,-9.65033 -6.90393,-9.86474 0.07491,-0.0697 2.152195,0.29333 4.616195,0.80677 4.80907,1.00211 12.824163,2.34062 16.080001,2.68535 l 2,0.21175 0.0033,2.92859 c 0.0037,3.30964 0.406048,8.54895 1.150071,14.97721 0.2781,2.40275 0.45636,4.58468 0.396132,4.84873 -0.07559,0.3314 -1.051103,-0.31983 -3.149503,-2.10253 z M 1216.6491,167.03612 c -3.1933,-1.49147 -5.1159,-3.7639 -5.9548,-7.03849 -1.0853,-4.23636 1.0137,-8.8449 5.0222,-11.02659 2.2203,-1.20846 5.4968,-1.47004 8.0022,-0.63886 2.4091,0.7992 5.373,3.78688 6.1354,6.18457 1.5067,4.73827 -0.4083,9.74674 -4.5989,12.02776 -1.4578,0.7935 -2.17,0.96173 -4.4552,1.05221 -2.2402,0.0887 -2.9724,-0.0102 -4.1509,-0.5606 z m 5.9328,-2.06692 c 7.0224,-2.09508 7.5383,-11.92549 0.7781,-14.82687 -1.6338,-0.70121 -4.7064,-0.60634 -6.2747,0.19375 -1.6964,0.86547 -3.418,2.80748 -4.1213,4.649 -1.5831,4.14538 1.1939,9.04506 5.756,10.1557 1.4972,0.36449 2.1645,0.33485 3.8619,-0.17158 z m -5.6219,-6.98519 c 0,-3.38134 0.1188,-5.0148 0.384,-5.28001 0.6536,-0.65353 5.0387,-0.48974 6.223,0.23244 1.9585,1.19417 2.1048,4.45278 0.2544,5.66518 l -0.7615,0.49895 0.7721,1.52366 c 0.8309,1.63974 0.6611,2.26041 -0.616,2.25088 -1.0232,-0.008 -1.3672,-0.36511 -2.002,-2.08032 -0.4882,-1.3189 -0.7411,-1.6123 -1.4621,-1.69604 -0.8436,-0.098 -0.8719,-0.0507 -0.8719,1.456 0,1.64369 -0.3939,2.32526 -1.344,2.32526 -0.5295,0 -0.576,-0.39467 -0.576,-4.896 z m 5.2182,-1.86051 c 0.6339,-1.01155 0.038,-1.5635 -1.6881,-1.5635 h -1.6101 v 1.13754 1.13753 l 1.4872,-0.0975 c 0.9385,-0.0615 1.6067,-0.28812 1.811,-0.61404 z m -747.67203,9.87651 c -0.27288,-0.22 -16.24841,-17.67798 -35.50116,-38.79551 l -35.005,-38.395499 -0.16,36.635499 c -0.12639,28.9388 -0.24603,36.78607 -0.56949,37.35219 -0.88937,1.55659 -1.67762,1.68332 -10.47051,1.68332 -6.69634,0 -8.36315,-0.0886 -9.13048,-0.48542 -2.04944,-1.05981 -1.90952,3.32223 -1.90952,-59.80364 0,-43.852692 0.0904,-57.639321 0.3823,-58.27989 0.5879,-1.290311 1.82532,-1.751059 4.70276,-1.751059 h 2.55684 l 35.29905,37.467057 35.29905,37.467052 0.16,-35.734803 0.16,-35.734807 0.89784,-0.772249 0.89785,-0.77225 h 8.9176 8.91761 l 0.98455,0.828446 0.98455,0.828446 v 58.140357 c 0,64.58767 0.19239,59.11391 -2.11154,60.07656 -1.32741,0.55462 -4.63589,0.58345 -5.3023,0.0462 z m 188.59508,0.0397 c -28.61248,-2.35244 -51.56114,-23.90758 -55.58458,-52.20927 -0.61603,-4.33328 -0.60625,-12.54094 0.02,-16.829399 1.97388,-13.515832 7.89591,-25.376376 17.43195,-34.91242 11.56509,-11.56509 26.98203,-17.92865 43.43557,-17.92865 14.94564,0 27.2847,4.444842 38.63578,13.917584 2.84852,2.37715 3.33215,3.038842 3.34866,4.58154 0.01,0.931848 -0.55976,1.662489 -4.74111,6.080001 -6.35419,6.713084 -7.16085,7.420876 -8.4575,7.420876 -1.04235,0 -1.44391,-0.232497 -4.74978,-2.750056 -6.74552,-5.137003 -14.78161,-7.809944 -23.48027,-7.809944 -10.21562,0 -18.46953,3.352894 -25.60196,10.4 -6.31415,6.238617 -10.22405,13.92378 -11.49851,22.601069 -1.47321,10.030479 0.58848,19.694039 5.97968,28.027989 6.87974,10.63499 18.66443,17.02297 31.44079,17.04272 8.97668,0.0139 17.93093,-3.16724 25.19474,-8.95078 1.30343,-1.0378 1.86505,-1.281 2.9583,-1.281 1.28692,0 1.48949,0.14454 4.37274,3.12 5.99173,6.18337 8.1983,8.57202 8.55316,9.25897 0.93129,1.80281 0.18784,3.2253 -3.23808,6.1956 -9.5262,8.25929 -21.0716,12.99154 -34.28733,14.05377 -4.54301,0.36515 -4.958,0.36393 -9.73229,-0.0286 z m 111.48801,0.01 c -25.60511,-2.10888 -47.17477,-20.14403 -53.63423,-44.84545 -2.577,-9.85463 -2.63571,-21.17757 -0.16043,-30.942496 5.91052,-23.316865 24.43615,-40.78733 47.88477,-45.157397 4.60222,-0.857705 13.0143,-1.173788 17.41769,-0.654468 24.43232,2.881464 44.27206,19.056716 51.6506,42.110514 2.26042,7.062531 3.0488,12.95413 2.80107,20.932557 -0.23095,7.43811 -1.24354,12.76469 -3.65517,19.22744 -8.31024,22.27004 -28.56681,37.38525 -52.73127,39.34746 -4.48782,0.36443 -4.93823,0.36357 -9.57303,-0.0182 z m 12.8788,-22.81953 c 16.66783,-3.63987 28.90259,-17.24379 30.78883,-34.23432 1.90946,-17.199679 -9.09119,-34.180148 -26.00891,-40.14707 -7.58145,-2.673993 -16.64999,-2.803283 -24.27806,-0.346129 -7.46778,2.405524 -14.91418,7.882637 -19.54724,14.377752 -12.1776,17.071833 -8.61318,40.782877 8.01074,53.288677 5.54927,4.1746 11.25809,6.49619 18.7666,7.63176 1.9779,0.29914 9.9921,-0.0737 12.26804,-0.57067 z m 129.13695,-15.6595 -35.48499,-38.893411 -0.16,36.934361 -0.16,36.93436 -0.88728,0.88721 -0.88727,0.88722 h -8.94657 -8.94658 l -1.04615,-1.04616 -1.04615,-1.04615 V 104.1276 46.027503 l 1.04505,-0.933751 c 0.98908,-0.883745 1.19472,-0.932996 3.84,-0.919651 l 2.79495,0.0141 35.2,37.392061 35.2,37.392058 0.16,-35.67392 0.16,-35.673924 0.89784,-0.772237 0.89785,-0.772237 h 8.899 c 8.49195,0 8.93721,0.03006 9.73445,0.657168 0.4595,0.361442 0.98948,1.189442 1.17774,1.84 0.23895,0.825748 0.31373,18.449057 0.2477,58.37671 l -0.0946,57.19387 -1.04396,1.04394 c -0.97249,0.97245 -1.21589,1.05174 -3.55501,1.15796 l -2.51105,0.11404 z m 168.95759,37.04308 c -1.0333,-0.50972 -1.7226,-1.60485 -1.7226,-2.73666 0,-1.1655 53.0241,-115.56086 53.9332,-116.356689 0.6591,-0.57696 1.2077,-0.72 2.7615,-0.72 1.7071,0 2.0352,0.105259 2.7429,0.88 0.9136,1.000155 53.1769,114.584229 53.4284,116.116079 0.1299,0.79108 -0.036,1.21914 -0.8044,2.08 l -0.968,1.08393 -7.6268,0.10062 c -4.1947,0.0553 -8.2449,0.01 -9.0003,-0.10164 -2.5679,-0.37813 -3.0703,-1.12615 -7.9432,-11.82552 l -4.4433,-9.7563 -25.2989,-0.009 -25.299,-0.009 -4.4116,9.68 c -2.4264,5.32401 -4.7651,10.05536 -5.197,10.51412 -1.3046,1.38574 -2.6022,1.56646 -11.1906,1.5586 -6.5084,-0.006 -8.1451,-0.0972 -8.9603,-0.49937 z M 1148.965,105.52 c -4.6204,-10.075997 -8.5277,-18.302526 -8.6829,-18.281172 -0.2034,0.028 -15.2151,32.802402 -16.5812,36.201172 -0.1274,0.31699 3.3494,0.4 16.7521,0.4 h 16.9128 z m -889.60499,58.97749 c -1.06184,-0.4346 -1.82045,-1.51471 -1.8521,-2.63704 -0.0388,-1.37441 52.5833,-115.895657 53.75206,-116.980449 0.62324,-0.578469 1.14864,-0.72 2.67283,-0.72 1.62993,0 2.02858,0.123936 2.83064,0.88 1.24791,1.176347 54.22605,115.494829 54.18543,116.923599 -0.015,0.52843 -0.21667,1.1891 -0.44809,1.46816 -1.00392,1.21057 -2.23006,1.36846 -10.57049,1.36122 -7.23508,-0.006 -8.2308,-0.0708 -9.41957,-0.6106 -1.70045,-0.77211 -1.98687,-1.27304 -7.01257,-12.26429 l -4.06122,-8.88192 -25.2954,0.0819 -25.2954,0.0819 -4.38957,9.6 c -2.41426,5.28001 -4.76791,9.99014 -5.23033,10.46697 -0.46242,0.47683 -1.37749,1.01603 -2.03349,1.19822 -1.40886,0.39127 -16.88718,0.41931 -17.83273,0.0323 z m 71.14666,-40.92902 c -0.80511,-2.04947 -16.7974,-36.528467 -16.9429,-36.528467 -0.16101,0 -15.68766,34.181587 -16.46167,36.239997 -0.19888,0.52892 0.72545,0.56 16.65034,0.56 9.27349,0 16.8129,-0.12218 16.75423,-0.27153 z m 165.91854,40.76505 c -1.29004,-0.56115 -1.82115,-1.55517 -1.61344,-3.01964 0.09,-0.63463 12.09972,-27.0525 26.68824,-58.70638 21.07115,-45.71976 26.68653,-57.642178 27.31229,-57.988662 0.43324,-0.239887 1.58877,-0.441261 2.56784,-0.447497 1.54381,-0.0098 1.89521,0.108778 2.64699,0.893467 0.96999,1.012452 54.29288,115.763162 54.29288,116.838132 0,0.35583 -0.41997,1.11724 -0.93326,1.69202 l -0.93326,1.04505 -8.42674,0.1009 c -5.47009,0.0655 -8.84436,-0.0222 -9.61701,-0.24993 -0.69844,-0.20587 -1.60312,-0.84259 -2.18943,-1.54095 -0.54954,-0.65457 -2.90557,-5.3661 -5.23562,-10.47007 L 576.74822,143.2 551.44909,143.1181 c -20.06203,-0.065 -25.33449,0.001 -25.46991,0.32 -1.17584,2.76729 -8.61161,18.70481 -9.01189,19.31571 -0.29544,0.45091 -1.13795,1.0926 -1.87223,1.42599 -1.1996,0.54466 -2.16291,0.6056 -9.49505,0.60066 -6.22285,-0.004 -8.40091,-0.11029 -9.1748,-0.44693 z m 71.2548,-40.67978 c 0,-0.42535 -16.63663,-36.452449 -16.8678,-36.527696 -0.17802,-0.05795 -15.47431,33.362616 -16.67887,36.441336 -0.0587,0.14994 7.46534,0.27262 16.72,0.27262 9.25467,0 16.82667,-0.0838 16.82667,-0.18626 z m 414.48203,40.49704 c -0.39489,-0.15876 -1.00702,-0.76163 -1.36031,-1.33971 -0.63756,-1.04327 -0.64173,-1.47317 -0.56202,-57.95733 l 0.0803,-56.906274 1.04505,-0.933732 1.04505,-0.933733 23.11499,0.0059 c 18.4409,0.0047 23.7741,0.09957 26.3747,0.469305 26.6442,3.787959 47.341,24.611249 50.8584,51.169346 0.6094,4.600718 0.4502,12.492648 -0.3427,16.995488 -3.8273,21.73498 -19.016,39.53247 -39.6955,46.5135 -4.4022,1.4861 -8.797,2.43007 -13.5539,2.91127 -4.0843,0.41317 -45.97803,0.41852 -47.00407,0.006 z m 45.89766,-20.96699 c 15.8672,-2.35605 27.8427,-14.07126 30.7267,-30.05882 0.6934,-3.84382 0.6935,-11.52614 3e-4,-15.364967 -2.4665,-13.659311 -11.6106,-24.585941 -24.2267,-28.949676 -5.183,-1.792719 -6.9847,-1.988217 -19.92,-2.161474 l -12.08,-0.1618 V 105.08353 143.68 h 11.079 c 8.3587,0 11.8994,-0.12183 14.4207,-0.49621 z m -982.10921,17.21779 -2.209511,-0.11307 0.213609,-5.02425 c 0.200479,-4.7154 0.96569,-12.4512 1.260847,-12.74636 0.320874,-0.32087 1.077761,0.30606 1.715999,1.42136 2.211713,3.86492 8.591444,11.02301 13.548567,15.20156 l 1.76,1.48357 -7.04,-0.0549 c -3.872,-0.0302 -8.03428,-0.10575 -9.249511,-0.16794 z m -11.870489,-0.73641 c -2.464,-0.32049 -5.776,-0.81598 -7.36,-1.10109 -3.585792,-0.64542 -12.020438,-2.65568 -12.563096,-2.99421 -0.89848,-0.5605 8.038285,-23.08987 9.1591,-23.08987 0.147378,0 1.621568,0.73988 3.275978,1.64416 4.027378,2.20134 12.498964,6.35584 12.960389,6.35584 0.953039,0 1.017617,0.8412 0.417626,5.44 -0.332952,2.552 -0.700953,6.836 -0.817781,9.52 -0.116828,2.68401 -0.29787,4.86378 -0.402315,4.84395 -0.104446,-0.0198 -2.205901,-0.29828 -4.669901,-0.61878 z M 7.9253773,145.20237 c -2.2027507,-5.19766 -3.8346868,-10.057 -5.052899,-15.04576 -1.0596809,-4.33956 -2.42956628,-12.62618 -2.13582852,-12.91992 0.10875143,-0.10875 0.88749452,0.37157 1.73054012,1.06738 3.7074424,3.05995 10.3946601,7.8177 15.7328681,11.19346 0.160287,0.10136 -0.483075,1.63 -2.938727,6.98247 -1.130455,2.464 -2.735196,6.28 -3.566092,8.48 -0.830897,2.2 -1.6145,4.10907 -1.7413419,4.24237 -0.1268415,0.1333 -1.0396754,-1.6667 -2.0285198,-4 z M 33.680001,131.53542 c -4.268,-2.11799 -7.76,-3.97993 -7.76,-4.13765 0,-0.39295 4.517986,-7.81165 7.123226,-11.69659 1.284562,-1.91554 2.192058,-2.99648 2.283556,-2.72 0.08351,0.25235 0.323059,1.53882 0.532327,2.85882 0.894978,5.64527 3.273476,13.6604 5.158759,17.38414 1.252136,2.47317 0.873034,2.38592 -7.337868,-1.68872 z M 18.217005,123.26265 C 14.214718,120.63906 6.1493373,114.5018 2.12901,111.02067 c -0.3732398,-0.32318 8.038708,-8.91875 12.904897,-13.186593 3.500014,-3.069653 4.034231,-3.433244 4.32,-2.94022 1.131075,1.951397 6.041196,8.207483 10.933382,13.930453 0.372854,0.43617 0.12553,0.93335 -1.830648,3.68 -1.888556,2.6517 -4.901172,7.34648 -7.332069,11.4261 l -0.530563,0.89041 z M 0.4379188,98.720003 C 0.61181192,93.132915 1.204079,88.320057 2.4415964,82.437797 3.1614576,79.016098 5.2659027,71.260583 5.6377912,70.658855 c 0.081177,-0.131347 1.4263268,2.312679 2.9892223,5.431168 1.5628955,3.118489 3.7913345,7.247528 4.9520865,9.175644 1.160752,1.928115 2.072307,3.601965 2.025679,3.719666 C 15.558151,89.103035 14.368,90.110787 12.96,91.224784 10.254258,93.365541 4.760785,98.703964 1.9541476,101.92 l -1.67558423,1.92 z m 33.8020822,4.714447 c 0,-0.19372 -0.98344,-1.54972 -2.185421,-3.01333 -1.201982,-1.463615 -3.236067,-4.101117 -4.520191,-5.861117 -1.284123,-1.76 -2.61818,-3.4268 -2.96457,-3.703999 -0.60176,-0.481559 -0.453934,-0.618902 3.32019,-3.084728 4.804884,-3.139272 10.276144,-6.511788 10.385965,-6.401967 0.0443,0.0443 -0.345601,1.513885 -0.866438,3.265753 -1.234854,4.153509 -2.063981,8.857897 -2.538803,14.404941 -0.210917,2.463997 -0.439116,4.539997 -0.507109,4.613337 -0.06799,0.0733 -0.123623,-0.0252 -0.123623,-0.21889 z M 18.966901,82.335536 C 14.90153,75.228658 12.537218,70.162191 10.722032,64.667669 9.8803191,62.119826 9.8629392,61.95314 10.398187,61.561757 c 1.366993,-0.99957 13.355079,-4.425494 20.112141,-5.747595 3.168512,-0.619958 3.395646,-0.529205 3.404773,1.360409 0.0075,1.550204 1.458247,9.781478 2.38201,13.514971 0.990503,4.003229 1.006371,4.409097 0.182604,4.670551 -0.969705,0.307773 -8.618482,4.994265 -12.007758,7.357288 -1.647939,1.148954 -3.198354,2.166561 -3.445366,2.261348 -0.306618,0.11766 -0.960115,-0.720969 -2.05969,-2.643193 z M 43.744209,68.26002 c -0.500925,-0.822768 -2.653612,-13.137281 -2.349651,-13.441242 0.187426,-0.187426 8.306323,-0.714491 11.206125,-0.727483 l 2.520681,-0.01129 -2.286902,2.407513 c -2.395279,2.521606 -5.832654,7.014187 -7.783212,10.172504 -0.631804,1.02301 -1.219973,1.74301 -1.307041,1.600001 z M 15.36,51.070738 c 0,-0.48698 3.562441,-5.838783 6.410724,-9.630737 3.224342,-4.292605 9.10231,-11.04 9.617455,-11.04 0.16637,0 0.314749,3.370351 0.345155,7.84 0.02933,4.312 0.06533,8.082048 0.08,8.377883 0.02026,0.408762 -0.472642,0.645407 -2.053333,0.985806 -2.889173,0.622178 -13.158341,3.178779 -13.840001,3.445591 -0.308,0.120557 -0.56,0.130212 -0.56,0.02146 z M 40.688973,35.753391 c 0.06107,-5.555281 0.201441,-10.190821 0.311946,-10.301202 0.607743,-0.607057 20.119082,3.698462 20.119082,4.439628 0,0.217847 -0.36739,1.465308 -0.816423,2.772135 -0.449033,1.306827 -1.378792,4.517808 -2.06613,7.135512 -0.687339,2.617705 -1.339341,4.849098 -1.448895,4.958652 -0.109553,0.109553 -2.671795,0.292856 -5.69387,0.407339 -3.022075,0.114483 -6.624645,0.316218 -8.00571,0.448299 l -2.511028,0.240147 z m 26.707425,5.76661 c 0.672301,-2.518259 2.039955,-7.116709 2.522169,-8.480266 0.104443,-0.295333 0.794308,-0.161568 2.631493,0.510246 3.180644,1.163085 8.729942,3.634234 8.729942,3.887516 0,0.106665 -0.54,0.383433 -1.2,0.61504 -1.812541,0.636057 -8.651761,3.929265 -10.915538,5.256028 -1.099314,0.64429 -2.12465,1.171436 -2.278526,1.171436 -0.153875,0 0.07583,-1.332 0.51046,-2.96 z M 84.480002,28.206515 c -1.496,-0.670092 -4.448,-1.915024 -6.56,-2.766517 -2.112,-0.851492 -3.974872,-1.6659 -4.139714,-1.809796 C 73.442546,23.335378 74.699366,20.27703 77.376159,14.88 78.853506,11.901332 81.761623,6.517139 82.106708,6.1216933 82.384135,5.8037797 97.269444,16.84217 97.525802,17.555919 c 0.04719,0.131386 -1.224792,1.671053 -2.826629,3.421483 -1.601836,1.750429 -3.865444,4.370599 -5.030241,5.822599 -1.164797,1.452 -2.196814,2.636594 -2.293372,2.632432 -0.09656,-0.0042 -1.399558,-0.555826 -2.895558,-1.225918 z M 59.520001,19.323884 c -2.2,-0.589972 -5.548,-1.383391 -7.44,-1.763154 -1.892,-0.379763 -3.44,-0.789189 -3.44,-0.909836 0,-0.322714 6.046337,-3.848347 9.92,-5.784374 3.3849,-1.6917464 12.519138,-5.4940487 12.718759,-5.2944277 0.05909,0.059094 -1.019005,2.3935477 -2.395776,5.1876757 -1.37677,2.794128 -2.958448,6.124233 -3.514841,7.400233 -0.558494,1.280819 -1.19897,2.301312 -1.429882,2.278279 -0.230043,-0.02295 -2.21826,-0.524424 -4.41826,-1.114396 z"
         id="path4" />
      <path
         style="fill:#39ad29"
         d="m 100,208.59414 c -10.765474,-0.43286 -21.576098,-2.65306 -31.999999,-6.57188 -8.13686,-3.05902 -20.992008,-10.09014 -21.385612,-11.69685 -0.466065,-1.9025 -1.526664,-13.05633 -1.985958,-20.8854 l -0.206501,-3.52 9.069036,-0.0342 c 4.987969,-0.0188 10.293035,-0.18708 11.789035,-0.37391 l 2.72,-0.33971 1.806433,1.0967 c 0.993538,0.60318 3.441539,1.88158 5.44,2.84089 16.870031,8.09802 38.025626,8.74312 55.793566,1.70132 35.46312,-14.05474 53.61555,-53.18457 41.38526,-89.211077 C 170.04775,74.596617 165.34187,66.012724 160.67139,60.160002 158.19345,57.054817 152.85779,51.728098 149.6,49.107172 140.19457,41.540382 128.94268,36.48417 116.89997,34.412908 112.82459,33.71197 105.29975,33.27852 101.2187,33.509627 l -3.415658,0.193426 0.754291,-1.091526 c 1.526417,-2.208864 3.796467,-4.739261 9.077357,-10.118416 l 5.40629,-5.50689 -2.52049,-2.361584 C 104.93132,9.3878416 100.87585,6.0075257 96.005365,2.5259893 L 93.438457,0.69110555 95.59923,0.43155027 C 96.787654,0.28879487 101.288,0.1802344 105.6,0.19030478 c 8.41109,0.0196435 12.82942,0.43987382 20.16,1.91742882 31.65161,6.3797131 58.44539,26.8466494 72.89337,55.6809764 5.10512,10.188473 8.4723,21.230171 10.1888,33.411293 0.80831,5.736125 0.80814,20.265827 -3.1e-4,26.079997 -2.37721,17.09655 -7.64187,31.2367 -16.67993,44.80001 -10.22683,15.34726 -23.40993,27.0993 -39.68193,35.37434 -16.27721,8.27769 -33.37889,11.90782 -52.48,11.13979 z M 37.600001,185.83399 c -4.355271,-3.79812 -9.988702,-9.49719 -13.393391,-13.54943 -3.407375,-4.05544 -7.80793,-10.2299 -7.506036,-10.53179 0.09676,-0.0968 3.038714,0.39823 6.537676,1.09998 3.498963,0.70175 8.465162,1.53215 11.035999,1.84533 l 4.674248,0.56941 0.185122,5.60626 c 0.101818,3.08344 0.420274,7.71054 0.707681,10.28244 0.287407,2.57191 0.47669,5.17887 0.42063,5.79326 l -0.101929,1.11706 z M 1217.76,167.25173 c -2.1665,-0.71792 -3.2199,-1.40191 -4.7077,-3.05672 -5.5843,-6.21106 -1.1199,-16.15393 7.2677,-16.18635 4.74,-0.0183 8.4366,2.87213 9.6298,7.52963 1.1314,4.41629 -1.2738,9.41498 -5.3802,11.18152 -2.0367,0.87613 -5.0585,1.11218 -6.8096,0.53192 z m 5.4502,-2.27534 c 1.8309,-0.76501 3.1937,-1.99759 4.1737,-3.775 0.759,-1.37661 0.9258,-2.05841 0.9198,-3.76138 -0.01,-2.54683 -0.782,-4.18079 -2.8314,-5.98471 -3.076,-2.70767 -7.1192,-2.68547 -10.368,0.0569 -3.4091,2.87765 -3.494,8.60679 -0.1741,11.74893 2.0925,1.98049 5.8047,2.74949 8.28,1.71525 z m -6.1786,-7.27431 0.088,-4.90208 2.9725,-0.0922 c 2.9204,-0.0906 2.989,-0.0756 3.92,0.85539 1.3558,1.35579 1.3366,3.21691 -0.047,4.60088 l -0.9949,0.99487 0.693,1.42639 c 0.7768,1.59885 0.5777,2.08196 -0.7909,1.91966 -0.7412,-0.0879 -0.9894,-0.37903 -1.5219,-1.78501 -0.5596,-1.4779 -0.7445,-1.68 -1.5366,-1.68 -0.8606,0 -0.9047,0.0743 -0.9972,1.68 -0.09,1.57111 -0.1543,1.68661 -0.9851,1.78207 l -0.8885,0.10207 z m 5.314,-1.98735 c 0.13,-1.13829 -0.3358,-1.46345 -2.1056,-1.46982 l -1.36,-0.005 v 1.29673 1.29672 l 1.68,-0.0967 c 1.5884,-0.0914 1.6858,-0.14718 1.7856,-1.022 z M 439.33754,127.36 C 419.9121,106.064 403.90638,88.640003 403.76928,88.640003 c -0.1371,0 -0.24927,16.571077 -0.24927,36.824617 v 36.82462 l -0.93539,0.93538 -0.93538,0.93539 h -8.81957 -8.81957 l -1.04504,-0.93373 -1.04505,-0.93373 -0.0834,-57.46831 c -0.0727,-50.052249 -0.0225,-57.614059 0.38849,-58.597788 0.63984,-1.531354 2.10981,-2.122105 4.97668,-2.000022 l 2.19732,0.09357 35.11051,37.280002 c 19.31078,20.503998 35.232,37.327998 35.38048,37.386668 0.14848,0.0587 0.26997,-15.73856 0.26997,-35.104945 0,-26.618235 0.0933,-35.416382 0.3823,-36.050666 0.74596,-1.637213 1.42847,-1.751059 10.4977,-1.751059 9.06923,0 9.75174,0.113846 10.4977,1.751059 0.52936,1.161814 0.55633,114.774221 0.0276,116.290921 -0.49876,1.43074 -1.72166,1.95803 -4.54116,1.95803 h -2.36763 z m 221.88655,38.36946 c -11.54445,-1.34515 -23.14165,-6.21463 -31.94408,-13.4128 -3.32918,-2.72243 -8.66935,-8.41117 -11.12162,-11.84756 -4.37762,-6.13438 -8.30166,-15.22609 -9.82914,-22.77338 -1.34883,-6.66453 -1.58391,-14.28902 -0.64428,-20.895717 1.42285,-10.004288 5.71363,-20.235579 11.91858,-28.419684 14.71779,-19.412218 40.4469,-28.303976 64.39646,-22.254861 8.50787,2.148893 16.56058,6.494547 24.06872,12.988713 2.19667,1.900007 2.73987,3.192457 1.9602,4.664003 -0.70094,1.322965 -11.42462,12.038518 -12.25663,12.247339 -1.10288,0.276806 -1.86402,-0.04736 -3.78459,-1.611838 -15.61086,-12.716519 -37.31116,-12.015285 -51.01585,1.648551 -7.58958,7.56696 -11.63436,17.561698 -11.64172,28.766954 -0.007,10.57739 3.57114,19.68656 10.69053,27.21614 8.05118,8.51505 18.69709,12.56685 30.51699,11.61465 7.79598,-0.62803 14.47591,-3.23334 21.21099,-8.27272 2.05856,-1.54027 2.58424,-1.78725 3.80407,-1.78725 1.37411,0 1.49878,0.0887 4.27189,3.04 8.32213,8.85683 8.5754,9.16893 8.5754,10.56721 0,1.10922 -0.22328,1.53946 -1.52,2.92886 -4.67836,5.01278 -13.19338,10.16425 -21.26407,12.86448 -7.97971,2.66979 -18.00379,3.70627 -26.39185,2.72891 z m 110.53464,-0.14089 c -23.04795,-3.14183 -41.84155,-18.39709 -49.30967,-40.02595 -4.01582,-11.63046 -4.44916,-23.92064 -1.27365,-36.122617 5.99629,-23.040869 25.03438,-40.446828 48.42461,-44.273169 7.80256,-1.276399 14.26365,-1.189671 21.95554,0.294709 19.84878,3.83042 37.12473,18.157468 44.56663,36.959372 3.08819,7.802282 4.28556,14.163164 4.30301,22.859085 0.0135,6.72592 -0.37303,9.91215 -1.92152,15.84 -5.6065,21.46257 -22.9815,38.28192 -44.80736,43.37445 -6.60897,1.54204 -15.4259,1.98178 -21.93759,1.09412 z m 14.87815,-22.06301 c 5.37574,-0.93746 11.39363,-3.54635 15.91755,-6.90063 10.03213,-7.43837 16.00559,-19.13663 16.00559,-31.34493 0,-21.125206 -17.66609,-38.717424 -38.88,-38.717424 -17.6382,0 -32.94779,12.008202 -37.50996,29.421244 -1.09573,4.18224 -1.3769,11.94069 -0.58622,16.17618 2.62891,14.08252 12.12228,25.17097 25.60061,29.90204 1.57544,0.553 3.95144,1.20234 5.28,1.44299 3.30222,0.59815 10.79786,0.609 14.17243,0.0205 z M 916.5422,127.37035 c -19.4138,-21.30169 -35.4338,-38.730347 -35.6,-38.730347 -0.18783,0 -0.30218,13.969997 -0.30218,36.916367 v 36.91636 l -0.84364,0.84364 -0.84364,0.84364 h -8.94097 -8.94098 l -0.93539,-0.93539 -0.93538,-0.93538 v -57.80051 c 0,-63.610699 -0.14264,-59.241739 1.95803,-59.974035 0.55961,-0.195081 1.9856,-0.354694 3.16887,-0.354694 h 2.1514 l 35.32085,37.491781 35.32085,37.491778 0.16,-35.564571 0.16,-35.564573 0.88676,-0.887207 0.88677,-0.887208 8.81067,-0.09456 8.81068,-0.09456 1.10513,1.105131 1.10513,1.105131 -0.0826,58.100557 -0.0826,58.10057 -0.72854,0.72887 c -0.62884,0.62912 -1.11056,0.74123 -3.52,0.81921 l -2.79146,0.0903 z m 168.4033,36.6442 c -0.5638,-0.56373 -0.7827,-1.12831 -0.7755,-2 0.01,-0.92201 6.4008,-15.04943 26.5438,-58.65455 22.0018,-47.629095 26.6869,-57.538603 27.43,-58.017299 1.3032,-0.839468 4.0336,-0.598571 5.0477,0.445351 1.1699,1.20426 53.2885,114.984818 53.2885,116.334628 0,0.74805 -0.2544,1.36082 -0.7854,1.89187 l -0.7855,0.78546 h -8.5262 c -9.3139,0 -10.0825,-0.12787 -11.2254,-1.86757 -0.308,-0.46884 -2.4715,-5.02843 -4.8077,-10.13244 l -4.2477,-9.28 h -25.5058 -25.5059 l -4.0807,8.96 c -2.2445,4.92801 -4.3727,9.48024 -4.7295,10.11608 -1.1755,2.09494 -1.7542,2.20393 -11.7031,2.20393 h -8.8462 z M 1157.4417,123.92 c 0,-0.6678 -16.8365,-36.879997 -17.1517,-36.879997 -0.3412,0 -16.77,36.035487 -16.77,36.783827 0,0.23067 5.3229,0.33617 16.96,0.33617 9.328,0 16.9608,-0.108 16.9617,-0.24 z m -898.44519,40.18574 c -0.75872,-0.36738 -1.3965,-1.53913 -1.3965,-2.56567 0,-0.95634 52.76023,-115.463114 53.62532,-116.384305 0.50842,-0.541389 1.1771,-0.808378 2.29319,-0.915621 2.36466,-0.227214 3.33652,0.417551 4.57447,3.034886 4.2987,9.088452 52.03328,112.20893 52.41662,113.23502 0.40802,1.09214 0.42173,1.47347 0.0825,2.29255 -0.67264,1.62389 -1.30665,1.7154 -11.1678,1.61195 l -9.01294,-0.0945 -0.96945,-0.96995 c -0.63621,-0.63653 -2.48465,-4.26643 -5.37742,-10.56 l -4.40797,-9.59006 -25.4558,-0.0819 -25.45579,-0.0819 -4.40902,9.6819 c -2.42496,5.32505 -4.64456,9.95378 -4.93245,10.28607 -1.16744,1.34752 -2.15981,1.4769 -11.15315,1.45418 -5.20225,-0.0131 -8.83888,-0.15172 -9.25377,-0.35261 z m 71.66352,-40.46665 c -0.10994,-0.2865 -3.9048,-8.6025 -8.43303,-18.48 -4.94084,-10.777548 -8.40561,-17.959087 -8.66446,-17.959087 -0.26047,0 -3.69117,7.22509 -8.66092,18.239997 -4.52628,10.032 -8.2368,18.348 -8.24561,18.48 -0.009,0.132 7.68348,0.24 17.09395,0.24 15.67459,0 17.09319,-0.0437 16.91007,-0.52091 z m 165.1251,40.07488 c -0.70069,-0.60271 -0.88517,-1.02914 -0.86521,-2 0.0191,-0.92701 6.61233,-15.52231 26.50531,-58.67397 14.56396,-31.591998 26.75727,-57.727999 27.09625,-58.079999 0.89812,-0.93264 4.45755,-0.923207 5.39505,0.0143 0.97882,0.978814 54.08348,115.751459 54.08348,116.888109 0,0.52068 -0.2751,1.28665 -0.61133,1.70214 l -0.61133,0.75546 -9.13749,0.094 c -9.99523,0.10282 -10.37908,0.0445 -11.64887,-1.76917 -0.34072,-0.48665 -2.53977,-5.09682 -4.88679,-10.24483 l -4.2673,-9.36 -25.45845,0.006 -25.45844,0.006 -1.02514,2.3139 c -3.55204,8.01746 -7.80836,17.02052 -8.30738,17.57193 -1.33351,1.47351 -1.8269,1.54197 -11.11374,1.54197 H 496.6757 Z M 567.85569,123.6 c -0.11703,-0.308 -3.91244,-8.65909 -8.43424,-18.55797 -5.3919,-11.803696 -8.36917,-17.971143 -8.65069,-17.920004 -0.31537,0.05729 -15.3254,32.698374 -16.78255,36.495634 -0.19403,0.50563 0.95235,0.54234 16.93608,0.54234 16.19553,0 17.13242,-0.031 16.9314,-0.56 z m 413.57618,39.64109 -0.95185,-0.95185 0.007,-57.06462 c 0.007,-53.584575 0.0408,-57.106243 0.56,-57.747166 0.30409,-0.375401 0.86742,-0.843401 1.25185,-1.04 0.92946,-0.475327 42.50463,-0.49558 47.18713,-0.02299 23.4111,2.362842 43.2894,18.229589 50.6359,40.417384 7.302,22.053252 0.4551,47.106102 -17.082,62.502642 -7.6605,6.72553 -17.1786,11.46499 -27.6695,13.77782 l -3.8505,0.84888 -24.5681,0.11588 -24.56818,0.11588 z M 1029.76,143.09342 c 14.9246,-3.11307 25.7312,-13.86496 29,-28.85342 0.8368,-3.83684 0.8439,-13.73415 0.013,-17.534739 -1.7671,-8.078324 -4.9388,-13.855919 -10.7516,-19.585259 -5.8831,-5.798528 -12.5499,-9.047095 -20.9704,-10.218275 -1.358,-0.188882 -7.4559,-0.341725 -13.6337,-0.341725 H 1002.24 v 38.506668 c 0,21.17867 0.108,38.61856 0.24,38.75531 0.132,0.13675 5.64,0.17144 12.24,0.0771 10.2768,-0.14691 12.4366,-0.26261 15.04,-0.80565 z m -983.008045,17.30753 -3.008046,-0.10623 0.217775,-4.38736 c 0.202654,-4.08271 1.082472,-13.21818 1.293321,-13.42903 0.193405,-0.1934 1.144996,0.32318 1.144996,0.62158 0,0.62048 3.867323,5.92599 6.342226,8.70079 2.439143,2.7347 8.282936,8.19173 8.777774,8.19683 0.132,10e-4 0.24,0.14648 0.24,0.32248 0,0.30486 -7.519156,0.34541 -15.008046,0.0809 z M 32.628688,159.3646 c -4.855039,-0.64389 -8.241889,-1.28428 -12.948688,-2.44833 -6.12451,-1.51466 -5.685933,-1.32967 -5.444719,-2.29657 0.870821,-3.49066 7.892869,-21.00272 8.792961,-21.92848 0.143734,-0.14784 1.999057,0.68691 4.12294,1.85499 4.338557,2.38609 12.26067,6.25379 12.809478,6.25379 0.476337,0 0.439446,1.40713 -0.138428,5.28 -0.262611,1.76 -0.567996,5.612 -0.678632,8.56 l -0.201157,5.36001 -0.991221,-0.0305 c -0.545172,-0.0168 -2.940312,-0.28897 -5.322534,-0.60492 z M 8.3265864,145.84268 C 5.0274077,138.08509 2.5730774,129.64064 1.292952,121.64251 0.91640751,119.28988 0.65215923,117.32118 0.70573358,117.2676 c 0.0535744,-0.0536 1.75270112,1.19324 3.77583722,2.7707 4.5494643,3.54725 12.7455632,9.2417 13.3017022,9.2417 0.579608,0 0.221007,1.04212 -1.871949,5.44 -0.963223,2.024 -2.65902,5.984 -3.768437,8.8 -1.109418,2.816 -2.107822,5.22921 -2.2186771,5.36268 -0.1108548,0.13347 -0.8297854,-1.23453 -1.5976235,-3.04 z M 36.160001,132.68715 c -3.960359,-1.864 -9.550084,-4.71665 -10.193874,-5.20232 -0.161028,-0.12148 3.398385,-5.9668 6.458975,-10.60703 1.537163,-2.33052 2.667646,-3.75898 2.785733,-3.52 0.109305,0.22121 0.381811,1.5542 0.605567,2.9622 0.842647,5.3024 2.795594,11.79096 5.273226,17.52 0.285429,0.66 0.409029,1.19587 0.274667,1.19083 -0.134362,-0.005 -2.476294,-1.05971 -5.204294,-2.34368 z M 15.2,121.03607 C 9.9139375,117.25098 2.24,111.16304 2.24,110.75455 c 0,-0.46174 9.328462,-9.77601 13.100821,-13.080882 l 3.66082,-3.207157 0.942477,1.486746 c 1.312687,2.070747 3.33013,4.668833 7.221348,9.299723 3.167815,3.76998 3.315297,4.00989 2.886461,4.69548 -0.248559,0.39738 -1.983793,3.00154 -3.856074,5.78703 -1.872281,2.78548 -3.866027,5.89251 -4.430546,6.90451 -0.56452,1.012 -1.192654,1.83845 -1.395853,1.83655 C 20.166254,124.47466 17.84,122.92644 15.2,121.03607 Z M 0.44730085,99.040003 C 0.78995245,90.527916 2.4921212,80.851555 4.985149,73.243585 l 0.7983808,-2.436418 3.1356624,6.116418 c 1.7246148,3.36403 3.9627348,7.472305 4.9736018,9.129501 1.599629,2.622404 1.769659,3.051296 1.311335,3.307786 C 13.318197,90.416293 6.9468233,96.265925 2.918986,100.64 l -2.65202626,2.88 z M 34.295907,103.18913 c -0.03075,-0.18198 -0.958076,-1.41599 -2.060729,-2.74224 -1.102652,-1.326261 -3.000834,-3.769369 -4.218182,-5.429133 -1.217348,-1.659765 -2.560988,-3.400047 -2.985865,-3.867295 l -0.772505,-0.849541 2.362,-1.593861 c 3.834757,-2.587667 11.23681,-7.116289 11.386666,-6.966432 0.07617,0.07617 -0.162666,1.047691 -0.53075,2.158934 -1.284336,3.877406 -2.482764,11.100997 -3.016221,18.180438 -0.05968,0.792 -0.133666,1.29111 -0.164414,1.10913 z M 18.249619,80.849497 c -4.3093,-7.589266 -8.8553012,-18.552916 -7.938254,-19.144788 0.762268,-0.491976 9.028702,-3.095012 13.022642,-4.10073 3.221968,-0.811326 9.681855,-2.243977 10.118193,-2.243977 0.05596,0 0.196081,0.828 0.311375,1.84 0.403599,3.542587 1.480887,9.554375 2.414563,13.474426 0.518024,2.174935 0.941863,3.993532 0.941863,4.041327 0,0.04779 -1.257364,0.788304 -2.794142,1.645574 -1.536778,0.85727 -5.100778,3.080728 -7.92,4.941017 -2.819222,1.860289 -5.269896,3.466561 -5.445942,3.569495 -0.176046,0.102933 -1.395681,-1.707122 -2.710298,-4.022344 z M 43.53769,66.99329 C 43.205718,65.826112 41.790045,57.95081 41.525456,55.799352 l -0.123061,-1.000649 2.898803,-0.194072 c 1.594342,-0.106739 4.670392,-0.28929 6.835667,-0.405669 l 3.936864,-0.211597 -1.825508,1.886318 c -2.547878,2.632752 -5.355801,6.187422 -7.519774,9.519606 l -1.839981,2.833288 z M 15.68,50.700846 c 0,-0.504977 5.422943,-8.376777 7.956247,-11.549077 1.426667,-1.786527 3.712149,-4.437785 5.078847,-5.891684 l 2.484907,-2.643452 0.200956,4.451684 c 0.110526,2.448426 0.218526,6.140941 0.24,8.205588 0.03793,3.64663 0.01847,3.758504 -0.680956,3.914896 -1.46882,0.32843 -13.865824,3.358056 -14.560001,3.558227 -0.396,0.11419 -0.72,0.09341 -0.72,-0.04618 z M 40.641919,38.362135 c 0.0011,-4.115174 0.0958,-8.688271 0.210537,-10.162438 l 0.20862,-2.680304 1.789462,0.189088 c 3.541829,0.374255 17.460702,3.47201 17.996721,4.005313 0.113992,0.113414 -0.267305,1.646207 -0.847327,3.406207 -0.580021,1.76 -1.529163,5.08476 -2.109203,7.388354 l -1.05462,4.188355 -6.738054,0.381068 c -3.70593,0.209587 -7.350054,0.467788 -8.098054,0.57378 l -1.36,0.192712 z m 26.238082,5.93053 c 0,-1.13902 3.141847,-11.332664 3.492911,-11.332664 0.858019,0 10.58709,4.099849 10.58709,4.46142 0,0.115506 -0.54,0.398796 -1.2,0.629533 -1.613195,0.563974 -9.105983,4.208524 -11.200001,5.447767 -0.924,0.546825 -1.68,0.904099 -1.68,0.793944 z M 84.842505,28.267128 c -1.296623,-0.614433 -4.320623,-1.913719 -6.72,-2.887301 -2.399377,-0.973583 -4.403864,-1.807687 -4.454415,-1.853566 -0.132041,-0.119837 2.177932,-5.309208 3.933357,-8.836317 2.377692,-4.7774056 4.403996,-8.2907367 4.775811,-8.2805956 0.461485,0.012587 7.350886,4.9573966 11.709956,8.4047226 l 3.525068,2.787763 -3.546771,3.919083 c -1.950724,2.155496 -4.221487,4.812511 -5.04614,5.904478 -0.824653,1.091967 -1.571369,1.97943 -1.659369,1.97214 -0.088,-0.0073 -1.220874,-0.515973 -2.517497,-1.130407 z M 59.680001,19.192714 c -2.464,-0.646943 -5.884,-1.440371 -7.6,-1.763173 -1.716,-0.322801 -3.12,-0.690492 -3.12,-0.817089 0,-0.342684 5.406143,-3.487195 9.6,-5.583891 3.274039,-1.6368373 11.848049,-5.2685608 12.438363,-5.2685608 0.124629,0 -0.792689,2.0520001 -2.038485,4.5599998 -1.245796,2.508 -2.835413,5.795019 -3.532481,7.304487 l -1.267397,2.744486 z"
         id="path3" />
      <path
         style="fill:#08252c"
         d="m 1217.76,167.25173 c -2.1665,-0.71792 -3.2199,-1.40191 -4.7077,-3.05672 -5.5843,-6.21106 -1.1199,-16.15393 7.2677,-16.18635 4.74,-0.0183 8.4366,2.87213 9.6298,7.52963 1.1314,4.41629 -1.2738,9.41498 -5.3802,11.18152 -2.0367,0.87613 -5.0585,1.11218 -6.8096,0.53192 z m 5.4502,-2.27534 c 1.8309,-0.76501 3.1937,-1.99759 4.1737,-3.775 0.759,-1.37661 0.9258,-2.05841 0.9198,-3.76138 -0.01,-2.54683 -0.782,-4.18079 -2.8314,-5.98471 -3.076,-2.70767 -7.1192,-2.68547 -10.368,0.0569 -3.4091,2.87765 -3.494,8.60679 -0.1741,11.74893 2.0925,1.98049 5.8047,2.74949 8.28,1.71525 z m -6.1786,-7.27431 0.088,-4.90208 2.9725,-0.0922 c 2.9204,-0.0906 2.989,-0.0756 3.92,0.85539 1.3558,1.35579 1.3366,3.21691 -0.047,4.60088 l -0.9949,0.99487 0.693,1.42639 c 0.7768,1.59885 0.5777,2.08196 -0.7909,1.91966 -0.7412,-0.0879 -0.9894,-0.37903 -1.5219,-1.78501 -0.5596,-1.4779 -0.7445,-1.68 -1.5366,-1.68 -0.8606,0 -0.9047,0.0743 -0.9972,1.68 -0.09,1.57111 -0.1543,1.68661 -0.9851,1.78207 l -0.8885,0.10207 z m 5.314,-1.98735 c 0.13,-1.13829 -0.3358,-1.46345 -2.1056,-1.46982 l -1.36,-0.005 v 1.29673 1.29672 l 1.68,-0.0967 c 1.5884,-0.0914 1.6858,-0.14718 1.7856,-1.022 z M 439.33754,127.36 C 419.9121,106.064 403.90638,88.640003 403.76928,88.640003 c -0.1371,0 -0.24927,16.571077 -0.24927,36.824617 v 36.82462 l -0.93539,0.93538 -0.93538,0.93539 h -8.81957 -8.81957 l -1.04504,-0.93373 -1.04505,-0.93373 -0.0834,-57.46831 c -0.0727,-50.052249 -0.0225,-57.614059 0.38849,-58.597788 0.63984,-1.531354 2.10981,-2.122105 4.97668,-2.000022 l 2.19732,0.09357 35.11051,37.280002 c 19.31078,20.503998 35.232,37.327998 35.38048,37.386668 0.14848,0.0587 0.26997,-15.73856 0.26997,-35.104945 0,-26.618235 0.0933,-35.416382 0.3823,-36.050666 0.74596,-1.637213 1.42847,-1.751059 10.4977,-1.751059 9.06923,0 9.75174,0.113846 10.4977,1.751059 0.52936,1.161814 0.55633,114.774221 0.0276,116.290921 -0.49876,1.43074 -1.72166,1.95803 -4.54116,1.95803 h -2.36763 z m 221.88655,38.36946 c -11.54445,-1.34515 -23.14165,-6.21463 -31.94408,-13.4128 -3.32918,-2.72243 -8.66935,-8.41117 -11.12162,-11.84756 -4.37762,-6.13438 -8.30166,-15.22609 -9.82914,-22.77338 -1.34883,-6.66453 -1.58391,-14.28902 -0.64428,-20.895717 1.42285,-10.004288 5.71363,-20.235579 11.91858,-28.419684 14.71779,-19.412218 40.4469,-28.303976 64.39646,-22.254861 8.50787,2.148893 16.56058,6.494547 24.06872,12.988713 2.19667,1.900007 2.73987,3.192457 1.9602,4.664003 -0.70094,1.322965 -11.42462,12.038518 -12.25663,12.247339 -1.10288,0.276806 -1.86402,-0.04736 -3.78459,-1.611838 -15.61086,-12.716519 -37.31116,-12.015285 -51.01585,1.648551 -7.58958,7.56696 -11.63436,17.561698 -11.64172,28.766954 -0.007,10.57739 3.57114,19.68656 10.69053,27.21614 8.05118,8.51505 18.69709,12.56685 30.51699,11.61465 7.79598,-0.62803 14.47591,-3.23334 21.21099,-8.27272 2.05856,-1.54027 2.58424,-1.78725 3.80407,-1.78725 1.37411,0 1.49878,0.0887 4.27189,3.04 8.32213,8.85683 8.5754,9.16893 8.5754,10.56721 0,1.10922 -0.22328,1.53946 -1.52,2.92886 -4.67836,5.01278 -13.19338,10.16425 -21.26407,12.86448 -7.97971,2.66979 -18.00379,3.70627 -26.39185,2.72891 z m 110.53464,-0.14089 c -23.04795,-3.14183 -41.84155,-18.39709 -49.30967,-40.02595 -4.01582,-11.63046 -4.44916,-23.92064 -1.27365,-36.122617 5.99629,-23.040869 25.03438,-40.446828 48.42461,-44.273169 7.80256,-1.276399 14.26365,-1.189671 21.95554,0.294709 19.84878,3.83042 37.12473,18.157468 44.56663,36.959372 3.08819,7.802282 4.28556,14.163164 4.30301,22.859085 0.0135,6.72592 -0.37303,9.91215 -1.92152,15.84 -5.6065,21.46257 -22.9815,38.28192 -44.80736,43.37445 -6.60897,1.54204 -15.4259,1.98178 -21.93759,1.09412 z m 14.87815,-22.06301 c 5.37574,-0.93746 11.39363,-3.54635 15.91755,-6.90063 10.03213,-7.43837 16.00559,-19.13663 16.00559,-31.34493 0,-21.125206 -17.66609,-38.717424 -38.88,-38.717424 -17.6382,0 -32.94779,12.008202 -37.50996,29.421244 -1.09573,4.18224 -1.3769,11.94069 -0.58622,16.17618 2.62891,14.08252 12.12228,25.17097 25.60061,29.90204 1.57544,0.553 3.95144,1.20234 5.28,1.44299 3.30222,0.59815 10.79786,0.609 14.17243,0.0205 z M 916.5422,127.37035 c -19.4138,-21.30169 -35.4338,-38.730347 -35.6,-38.730347 -0.18783,0 -0.30218,13.969997 -0.30218,36.916367 v 36.91636 l -0.84364,0.84364 -0.84364,0.84364 h -8.94097 -8.94098 l -0.93539,-0.93539 -0.93538,-0.93538 v -57.80051 c 0,-63.610699 -0.14264,-59.241739 1.95803,-59.974035 0.55961,-0.195081 1.9856,-0.354694 3.16887,-0.354694 h 2.1514 l 35.32085,37.491781 35.32085,37.491778 0.16,-35.564571 0.16,-35.564573 0.88676,-0.887207 0.88677,-0.887208 8.81067,-0.09456 8.81068,-0.09456 1.10513,1.105131 1.10513,1.105131 -0.0826,58.100557 -0.0826,58.10057 -0.72854,0.72887 c -0.62884,0.62912 -1.11056,0.74123 -3.52,0.81921 l -2.79146,0.0903 z m 168.4033,36.6442 c -0.5638,-0.56373 -0.7827,-1.12831 -0.7755,-2 0.01,-0.92201 6.4008,-15.04943 26.5438,-58.65455 22.0018,-47.629095 26.6869,-57.538603 27.43,-58.017299 1.3032,-0.839468 4.0336,-0.598571 5.0477,0.445351 1.1699,1.20426 53.2885,114.984818 53.2885,116.334628 0,0.74805 -0.2544,1.36082 -0.7854,1.89187 l -0.7855,0.78546 h -8.5262 c -9.3139,0 -10.0825,-0.12787 -11.2254,-1.86757 -0.308,-0.46884 -2.4715,-5.02843 -4.8077,-10.13244 l -4.2477,-9.28 h -25.5058 -25.5059 l -4.0807,8.96 c -2.2445,4.92801 -4.3727,9.48024 -4.7295,10.11608 -1.1755,2.09494 -1.7542,2.20393 -11.7031,2.20393 h -8.8462 z M 1157.4417,123.92 c 0,-0.6678 -16.8365,-36.879997 -17.1517,-36.879997 -0.3412,0 -16.77,36.035487 -16.77,36.783827 0,0.23067 5.3229,0.33617 16.96,0.33617 9.328,0 16.9608,-0.108 16.9617,-0.24 z m -898.44519,40.18574 c -0.75872,-0.36738 -1.3965,-1.53913 -1.3965,-2.56567 0,-0.95634 52.76023,-115.463114 53.62532,-116.384305 0.50842,-0.541389 1.1771,-0.808378 2.29319,-0.915621 2.36466,-0.227214 3.33652,0.417551 4.57447,3.034886 4.2987,9.088452 52.03328,112.20893 52.41662,113.23502 0.40802,1.09214 0.42173,1.47347 0.0825,2.29255 -0.67264,1.62389 -1.30665,1.7154 -11.1678,1.61195 l -9.01294,-0.0945 -0.96945,-0.96995 c -0.63621,-0.63653 -2.48465,-4.26643 -5.37742,-10.56 l -4.40797,-9.59006 -25.4558,-0.0819 -25.45579,-0.0819 -4.40902,9.6819 c -2.42496,5.32505 -4.64456,9.95378 -4.93245,10.28607 -1.16744,1.34752 -2.15981,1.4769 -11.15315,1.45418 -5.20225,-0.0131 -8.83888,-0.15172 -9.25377,-0.35261 z m 71.66352,-40.46665 c -0.10994,-0.2865 -3.9048,-8.6025 -8.43303,-18.48 -4.94084,-10.777548 -8.40561,-17.959087 -8.66446,-17.959087 -0.26047,0 -3.69117,7.22509 -8.66092,18.239997 -4.52628,10.032 -8.2368,18.348 -8.24561,18.48 -0.009,0.132 7.68348,0.24 17.09395,0.24 15.67459,0 17.09319,-0.0437 16.91007,-0.52091 z m 165.1251,40.07488 c -0.70069,-0.60271 -0.88517,-1.02914 -0.86521,-2 0.0191,-0.92701 6.61233,-15.52231 26.50531,-58.67397 14.56396,-31.591998 26.75727,-57.727999 27.09625,-58.079999 0.89812,-0.93264 4.45755,-0.923207 5.39505,0.0143 0.97882,0.978814 54.08348,115.751459 54.08348,116.888109 0,0.52068 -0.2751,1.28665 -0.61133,1.70214 l -0.61133,0.75546 -9.13749,0.094 c -9.99523,0.10282 -10.37908,0.0445 -11.64887,-1.76917 -0.34072,-0.48665 -2.53977,-5.09682 -4.88679,-10.24483 l -4.2673,-9.36 -25.45845,0.006 -25.45844,0.006 -1.02514,2.3139 c -3.55204,8.01746 -7.80836,17.02052 -8.30738,17.57193 -1.33351,1.47351 -1.8269,1.54197 -11.11374,1.54197 H 496.6757 Z M 567.85569,123.6 c -0.11703,-0.308 -3.91244,-8.65909 -8.43424,-18.55797 -5.3919,-11.803696 -8.36917,-17.971143 -8.65069,-17.920004 -0.31537,0.05729 -15.3254,32.698374 -16.78255,36.495634 -0.19403,0.50563 0.95235,0.54234 16.93608,0.54234 16.19553,0 17.13242,-0.031 16.9314,-0.56 z m 413.57618,39.64109 -0.95185,-0.95185 0.007,-57.06462 c 0.007,-53.584575 0.0408,-57.106243 0.56,-57.747166 0.30409,-0.375401 0.86742,-0.843401 1.25185,-1.04 0.92946,-0.475327 42.50463,-0.49558 47.18713,-0.02299 23.4111,2.362842 43.2894,18.229589 50.6359,40.417384 7.302,22.053252 0.4551,47.106102 -17.082,62.502642 -7.6605,6.72553 -17.1786,11.46499 -27.6695,13.77782 l -3.8505,0.84888 -24.5681,0.11588 -24.56818,0.11588 z M 1029.76,143.09342 c 14.9246,-3.11307 25.7312,-13.86496 29,-28.85342 0.8368,-3.83684 0.8439,-13.73415 0.013,-17.534739 -1.7671,-8.078324 -4.9388,-13.855919 -10.7516,-19.585259 -5.8831,-5.798528 -12.5499,-9.047095 -20.9704,-10.218275 -1.358,-0.188882 -7.4559,-0.341725 -13.6337,-0.341725 H 1002.24 v 38.506668 c 0,21.17867 0.108,38.61856 0.24,38.75531 0.132,0.13675 5.64,0.17144 12.24,0.0771 10.2768,-0.14691 12.4366,-0.26261 15.04,-0.80565 z"
         id="path2" />
    </g>
  </g>
</svg>
