<?xml version="1.0" encoding="utf-8"?>
<!-- Generator: Adobe Illustrator 19.0.0, SVG Export Plug-In . SVG Version: 6.00 Build 0)  -->
<svg version="1.1" id="layer" xmlns="http://www.w3.org/2000/svg" xmlns:xlink="http://www.w3.org/1999/xlink" x="0px" y="0px"
	 viewBox="-153 -46 652 652" style="enable-background:new -153 -46 652 652;" xml:space="preserve">
<style type="text/css">
	.st0{fill:#44A833;}
</style>
<path d="M32.5,253.5c-0.2-0.6-0.8-0.9-1.4-0.9h-0.8c-0.6,0-1.1,0.3-1.4,0.9L3.8,307.8c-0.5,1,0.3,2.2,1.4,2.1h7c1,0,2-0.6,2.3-1.6
	l4-8.8h24.1l4,8.8c0.3,1,1.3,1.7,2.4,1.6h7c1.1,0.1,1.9-1.1,1.4-2.1L32.5,253.5z M22.5,290.6l8-17.8l8.1,17.9L22.5,290.6z
	 M109.5,253.4h-7.4c-0.9,0-1.6,0.7-1.6,1.6v33.4l-33.7-35.8h-2c-0.8,0-1.5,0.7-1.5,1.5v54.3c0,0.8,0.7,1.5,1.5,1.6h7.4
	c0.9,0,1.6-0.7,1.6-1.6v-34.7l33.7,37.1h1.9c0.8,0,1.6-0.6,1.6-1.5v-54.3C111,254.1,110.3,253.4,109.5,253.4L109.5,253.4z
	 M145.8,253.5c-0.2-0.6-0.8-0.9-1.4-0.9h-0.8c-0.6,0-1.1,0.3-1.4,0.9L117,307.8c-0.5,1,0.2,2.2,1.4,2.1h7c1,0,2-0.6,2.3-1.6l4.2-8.8
	h23.9l4,8.8c0.3,1,1.3,1.7,2.3,1.6h7c1.1,0.1,1.9-1.1,1.4-2.1L145.8,253.5z M135.7,290.6l7.9-17.9h0.2l8.1,17.9H135.7z M214.8,295.5
	c-0.6-0.5-1.5-0.5-2,0c-3.4,2.9-7.7,4.5-12.2,4.6c-10.2-0.1-18.3-8.5-18.1-18.6c-0.3-10.1,7.8-18.6,17.9-18.8
	c4.6,0.1,9,1.8,12.4,4.8c0.5,0.7,1.5,0.7,2,0l4.9-5.1c0.7-0.6,0.7-1.7,0-2.3c-5.3-5-12.3-7.8-19.6-7.6c-7.9-0.3-15.5,2.7-21.2,8.2
	c-5.7,5.5-8.9,13-8.9,20.9c0,7.9,3.2,15.4,8.9,20.9c5.7,5.5,13.3,8.4,21.2,8.2c7.3,0.1,14.4-2.7,19.6-7.8c0.6-0.6,0.6-1.6,0-2.2
	L214.8,295.5z M252.9,252.6c-7.7,0-15.1,3.1-20.6,8.5c-5.4,5.5-8.5,12.9-8.4,20.6c0,16,13,29,29,29c16,0,29-13,29-29
	c0-7.7-3-15.2-8.5-20.6C268.1,255.6,260.7,252.5,252.9,252.6L252.9,252.6z M252.9,300.3c-16.6,0-24.9-20-13.1-31.7
	c11.7-11.7,31.8-3.3,31.7,13.3C271.4,292,263.2,300.3,252.9,300.3L252.9,300.3z M337,253.4h-7.4c-0.9,0-1.6,0.7-1.6,1.6v33.4
	l-33.7-35.8h-2c-0.8,0-1.5,0.6-1.6,1.5v54.3c0,0.9,0.7,1.5,1.6,1.6h7.3c0.9,0,1.6-0.7,1.6-1.6v-34.7l33.8,37.1h1.9
	c0.8,0,1.5-0.6,1.5-1.5v-54.3C338.5,254.1,337.9,253.4,337,253.4L337,253.4z M369.4,253.4h-19.2c-0.8,0-1.5,0.7-1.5,1.6v53.4
	c0,0.8,0.6,1.5,1.5,1.6h19.2c7.7,0.2,15.1-2.6,20.6-7.9c5.5-5.3,8.6-12.7,8.6-20.3c0-7.7-3.1-15-8.6-20.3
	C384.5,256,377.1,253.1,369.4,253.4L369.4,253.4z M368.4,300.1h-9.2v-36.9h9.2c10.2-0.2,18.4,8.2,18.2,18.4
	C386.9,291.8,378.7,300.2,368.4,300.1L368.4,300.1z M451.7,307.8l-24.8-54.4c-0.2-0.6-0.8-0.9-1.4-0.9h-0.8c-0.6,0-1.1,0.3-1.4,0.9
	l-25.1,54.4c-0.5,1,0.3,2.2,1.4,2.1h7c1.1,0,2-0.6,2.4-1.6l3.9-8.8h24.2l3.9,8.8c0.3,1,1.3,1.7,2.4,1.6h7
	C451.5,310,452.3,308.8,451.7,307.8L451.7,307.8z M416.9,290.6l7.9-17.9h0.3l8.1,17.9H416.9z M461.8,309h0.5c0.1,0,0.2-0.1,0.2-0.2
	v-1.5h0.8l0.7,1.6c0,0.1,0.1,0.2,0.2,0.2h0.6c0.2,0,0.3-0.2,0.2-0.4c-0.2-0.5-0.4-1-0.7-1.5c0.6-0.2,1-0.8,1-1.5
	c0-0.9-0.7-1.6-1.6-1.5h-2c-0.1,0-0.2,0.1-0.2,0.2v4.4C461.6,308.9,461.7,309,461.8,309L461.8,309z M462.5,305.1h1.2
	c0.4,0,0.7,0.3,0.7,0.7c0,0.4-0.3,0.7-0.7,0.6h-1.2V305.1z M462.5,305.1"/>
<path d="M463.3,311.4c2.8,0.2,5.2-2,5.2-4.8c0-2.8-2.4-5-5.2-4.8C457.4,302.3,457.4,310.9,463.3,311.4L463.3,311.4z M463.3,302.8
	c2.3-0.2,4.2,1.6,4.2,3.8c0,2.3-1.9,4-4.2,3.8c-2.3,0.2-4.2-1.6-4.2-3.8C459.1,304.3,461,302.6,463.3,302.8L463.3,302.8z
	 M463.3,302.8"/>
<path class="st0" d="M-113.1,301v-0.4c0.1-2.9,0.3-5.7,0.7-8.6v-0.3h-0.3c-2.6-1.1-5.2-2.3-7.7-3.7l-0.3-0.2l-0.2,0.3
	c-1.6,3.3-3,6.8-4.1,10.3v0.3h0.4c3.7,1,7.4,1.7,11.2,2.1L-113.1,301z M-105.3,250.5c-2.2,0-4.3,0.2-6.5,0.4
	c0.3,2.2,0.7,4.3,1.1,6.5C-109.2,254.8-107.4,252.5-105.3,250.5L-105.3,250.5z M-113.1,303.6v-0.3h-0.3c-3.2-0.3-6.4-0.8-9.6-1.6
	l-0.8-0.2l0.5,0.7c2.9,4.3,6.4,8.2,10.4,11.4l0.7,0.5v-0.8C-112.7,310.1-112.9,306.8-113.1,303.6L-113.1,303.6z M-97.6,227.4
	c-3.8,1.3-7.5,3.1-10.9,5.3c2.5,0.4,5.1,1,7.5,1.8C-99.9,232.1-98.8,229.7-97.6,227.4L-97.6,227.4z M-81.4,224.7
	c-1.9,0-3.8,0.1-5.7,0.3c2.6,1.8,5.2,3.8,7.5,6l2,1.8l-1.9,1.9c-1.6,1.6-3.2,3.3-4.7,5l-0.7,0.9c1.2-0.1,2.4-0.2,3.6-0.2
	c10.6,0.1,20.5,5.2,26.8,13.6c6.3,8.5,8.3,19.4,5.5,29.6c-2.9,10.2-10.3,18.4-20.1,22.3c-9.8,3.9-20.9,3-30-2.4
	c-2.5,0.3-5.1,0.4-7.7,0.4h-3.6c0.1,4,0.5,8,1.1,11.9c13.1,8.8,29.6,10.9,44.5,5.6c14.9-5.3,26.4-17.3,31-32.4
	c4.6-15.1,1.8-31.5-7.6-44.2C-50.8,232.2-65.6,224.7-81.4,224.7L-81.4,224.7z M-81.4,224.7 M-88,236.6c1-1.2,2-2.3,3-3.4
	c-2.3-2-4.7-3.9-7.3-5.5c-1.6,2.7-3,5.5-4.1,8.3c2.3,0.8,4.5,1.7,6.7,2.7C-89.3,238-88.6,237.3-88,236.6L-88,236.6z M-121.8,264.9
	l0.2,0.3l0.3-0.2c2.3-1.6,4.7-3.2,7.2-4.5l0.2-0.2v-0.2c-0.8-2.9-1.3-5.8-1.7-8.7V251h-0.4c-3.7,0.7-7.3,1.7-10.8,3h-0.3v0.3
	C-125.7,258-123.9,261.5-121.8,264.9L-121.8,264.9z M-122.4,269.7l-0.3,0.2c-2.7,2.2-5.2,4.6-7.6,7.2l-0.2,0.3l0.3,0.2
	c2.6,2.3,5.4,4.3,8.3,6.2l0.3,0.2l0.2-0.3c1.3-2.4,2.8-4.6,4.4-6.8v-0.2l-0.2-0.2c-1.8-2-3.4-4.2-5-6.4L-122.4,269.7z M-102.9,301.2
	h0.9l-0.7-0.5c-2.7-2.2-5-4.8-6.8-7.6l-0.5-0.2v0.5c-0.3,2.5-0.5,5.1-0.6,7.6v0.3h3.9C-105.6,301.2-104.2,301.2-102.9,301.2
	L-102.9,301.2z M-104.5,246.1c0.5-2.5,1.2-4.9,2-7.3c-3.1-0.9-6.3-1.6-9.5-2c-0.3,3.2-0.3,6.5,0,9.7
	C-109.7,246.3-107.1,246.2-104.5,246.1L-104.5,246.1z M-99.7,245.9c2.2-1.4,4.5-2.5,6.9-3.3c-1.8-0.8-3.5-1.6-5.4-2.3
	C-98.8,242.2-99.3,244-99.7,245.9L-99.7,245.9z M-122.9,286.4l-0.3-0.2c-2.6-1.6-5-3.4-7.4-5.3l-0.7-0.5v0.8c0.6,4.8,2,9.5,3.9,13.8
	l0.3,0.8l0.3-0.8c1-2.8,2.2-5.6,3.5-8.3L-122.9,286.4z M-116.5,239.1c-3,3-5.6,6.3-7.7,9.9c2.6-0.8,5.2-1.4,7.8-1.8
	C-116.6,244.5-116.6,241.8-116.5,239.1L-116.5,239.1z M-115,274.1v-0.9c0.1-3,0.6-6,1.5-8.9l0.3-0.8l-0.7,0.4
	c-1.9,1.1-3.9,2.4-5.7,3.7l-0.3,0.2l0.2,0.3c1.3,1.8,2.7,3.6,4.1,5.3L-115,274.1z M-114.7,279.2v-0.9l-0.5,0.7
	c-1.4,1.9-2.7,3.9-3.8,6l-0.2,0.3l0.3,0.2c2.1,1.2,4.3,2.2,6.5,3.2l0.8,0.4l-0.4-0.8C-113.3,285.4-114.2,282.4-114.7,279.2
	L-114.7,279.2z M-124.4,267.3l0.2-0.2l-0.2-0.3c-1.6-2.5-3-5.1-4.3-7.8l-0.3-0.8l-0.3,0.8c-1.5,4.5-2.3,9.2-2.4,14v0.9l0.6-0.6
	C-128.9,271.2-126.7,269.2-124.4,267.3L-124.4,267.3z M-124.4,267.3"/>
</svg>
