<svg xmlns="http://www.w3.org/2000/svg" viewBox="0 0 609.03 422.15"><defs><style>.cls-1{fill:#00979d;}</style></defs><g id="Layer_2" data-name="Layer 2"><g id="Layer_1-2" data-name="Layer 1"><path class="cls-1" d="M608.16,149.75C608.16,70.07,541,5.26,458.35,5.26a161.12,161.12,0,0,0-23,1.63c-64.19,9.16-107.15,55.33-131.19,90.74C280,62.22,237,16.05,172.87,6.89a161.53,161.53,0,0,0-23-1.63C67.18,5.26,0,70.07,0,149.75S67.18,294.2,149.76,294.2a163.18,163.18,0,0,0,23.11-1.58c64.17-9.2,107.12-55.4,131.25-90.84,24,35.44,67,81.64,131.19,90.84a162.74,162.74,0,0,0,23.1,1.58c82.58,0,149.75-64.77,149.75-144.45M165.6,241.89A112.32,112.32,0,0,1,149.76,243c-54.32,0-98.54-41.89-98.54-93.29s44.22-93.33,98.61-93.33a117.07,117.07,0,0,1,15.79,1.15c60.47,8.63,97.5,68.27,110.05,92.15-12.57,23.93-49.58,83.54-110.07,92.17m166.93-92.14c12.55-23.91,49.56-83.55,110-92.18a117,117,0,0,1,15.79-1.15c54.36,0,98.58,41.9,98.58,93.33S512.71,243,458.41,243a113.22,113.22,0,0,1-15.85-1.15c-60.47-8.63-97.52-68.29-110-92.14"/><rect class="cls-1" x="108.54" y="135.63" width="89.96" height="28.99"/><polygon class="cls-1" points="468.32 164.62 498.73 164.62 498.73 135.63 468.32 135.63 468.32 105.12 439.25 105.12 439.25 135.63 408.81 135.63 408.81 164.62 439.25 164.62 439.25 195.12 468.32 195.12 468.32 164.62"/><path class="cls-1" d="M42.56,337.17,16.29,420.86h21.2l4.28-17.13H65.83l4.64,17.13h22L65.83,337.17Zm3.18,50.49L53.34,357l8.25,30.65Z"/><path class="cls-1" d="M171.35,365.12c0-16.08-8.72-27.95-31.89-27.95H105.73v83.69h20.72V394.34h10.43l12.57,26.52h24.48L157.6,390.22c9.12-4.9,13.75-13.6,13.75-25.1m-33.93,12.61h-11V354.11H137c9.67,0,12.31,3.71,12.31,11.13,0,9.3-4.72,12.49-11.89,12.49"/><path class="cls-1" d="M215.51,337.17H188.1v83.69h27.54c35.51,0,41.54-22.82,41.54-42.6,0-26.28-10.39-41.09-41.67-41.09m1.15,66.56h-7.84V354.1h6.05c18.51,0,20.2,8.72,20.2,25.07,0,14.14-1.27,24.56-18.41,24.56"/><path class="cls-1" d="M318.5,388.28c0,12.75-3.49,17-12.9,17-7.84,0-12.76-3.2-12.76-17.08v-51h-20.7V392c0,25.34,18.29,30.12,32.58,30.12,14.8,0,33.71-5.26,33.71-30v-55H318.5Z"/><polygon class="cls-1" points="356.94 354.3 378.58 354.3 378.58 403.73 356.94 403.73 356.94 420.86 421.07 420.86 421.07 403.73 399.29 403.73 399.29 354.3 421.07 354.3 421.07 337.17 356.94 337.17 356.94 354.3"/><polygon class="cls-1" points="487.86 387.41 460.74 337.17 438.15 337.17 438.15 420.86 457.77 420.86 457.62 367.31 486.2 420.86 507.16 420.86 507.16 337.17 487.86 337.17 487.86 387.41"/><path class="cls-1" d="M556,336.08c-25.38,0-35,18.62-35,43.86,0,27.68,11.08,42.21,35.12,42.21,26.91,0,35.76-18.9,35.76-43.11,0-31.94-12.05-43-35.86-43m.1,69.17c-12,0-13.13-8.46-13.13-25.31,0-20.45,1.95-27,13-27,12.22,0,13.88,5.69,13.88,26.13,0,19.29-1.66,26.21-13.78,26.21"/><path class="cls-1" d="M607.76,9.8a15.64,15.64,0,0,0-3.43-5.1,16.17,16.17,0,0,0-5-3.43,15.92,15.92,0,0,0-12.46,0,16.13,16.13,0,0,0-9.73,15,16.16,16.16,0,0,0,1.27,6.36,16.11,16.11,0,0,0,8.46,8.59,15.92,15.92,0,0,0,12.46,0,15.86,15.86,0,0,0,5-3.44,15.44,15.44,0,0,0,3.43-5.15A16.52,16.52,0,0,0,609,16.23,16.28,16.28,0,0,0,607.76,9.8Zm-3.51,11.34a12.1,12.1,0,0,1-2.64,4,13.42,13.42,0,0,1-3.86,2.73,10.93,10.93,0,0,1-4.66,1,11.36,11.36,0,0,1-4.74-1,12.42,12.42,0,0,1-3.86-2.73,13,13,0,0,1-2.58-4,12.81,12.81,0,0,1-.93-4.91,13.37,13.37,0,0,1,.93-5,12.78,12.78,0,0,1,2.58-4,11.72,11.72,0,0,1,3.86-2.65,12,12,0,0,1,4.74-.95,11.52,11.52,0,0,1,4.66.95,12.61,12.61,0,0,1,3.86,2.65,12,12,0,0,1,2.64,4,13.37,13.37,0,0,1,.93,5A12.81,12.81,0,0,1,604.25,21.14Z"/><path class="cls-1" d="M596.56,17.8a5.06,5.06,0,0,0,2.1-1.88,5.19,5.19,0,0,0,.73-2.68,5.5,5.5,0,0,0-1.62-4c-1.06-1.11-2.89-1.68-5.49-1.68-1,0-1.85,0-2.62.07s-1.49.11-2.2.21V23.82h4V18.6h1.62l2.81,5.22h4.57Zm-4-2.16a3.7,3.7,0,0,1-1.21-.13V11.22a5,5,0,0,1,1.33-.13c1.71,0,2.56.74,2.56,2.27S594.34,15.64,592.55,15.64Z"/></g></g></svg>