<svg xmlns="http://www.w3.org/2000/svg" viewBox="0 0 996.65 563.27"><polygon points="996.65 440.99 960.41 440.99 917.01 489.45 917.01 440.99 886.59 440.99 886.74 560.29 917.01 560.29 917.01 514.96 958.17 560.29 996.65 560.29 941.17 501.38 996.65 440.99"/><path d="M986.2,637.41l-27.74-3.13c-16.25-1.79-20.28-5.81-20.28-11.33,0-6.12,8.35-11.63,24.61-11.63,15.66,0,23.86,5.81,25.35,14.61H1018c-1.5-25.2-22.67-40.86-53.54-40.86-36.69,0-55.18,14.61-55.18,40.41,0,21,12.23,30.87,37.58,33.56L975,662c10.73,1.19,15.65,5.37,15.65,10.74,0,6.11-7.15,11.63-24.45,11.63-20,0-28-5.07-29.38-15.21H907.61c1.34,27.44,19.24,41.46,57.56,41.46,35.05,0,54.59-15.36,54.59-38.48C1019.76,652,1008.12,640,986.2,637.41Z" transform="translate(-148.68 -147.36)"/><polygon points="649.47 560.29 745.51 560.29 745.51 534.49 679.89 534.49 679.89 512.87 732.68 512.87 732.68 486.92 679.89 486.92 679.89 466.79 745.51 466.79 745.51 440.99 649.47 440.99 649.47 560.29"/><path d="M726.56,588.35H670.79v119.3h55.77c42.8,0,54.58-15.95,54.58-60.54C781.14,605.2,769.81,588.35,726.56,588.35Zm-1.19,93.5H701.21v-67.7h24.16c19.09,0,24.76,5.22,24.76,33C750.13,672.46,743.71,681.85,725.37,681.85Z" transform="translate(-148.68 -147.36)"/><path d="M588.17,585.07c-43.4,0-65.92,26.69-65.92,62.63s22.52,62.94,65.92,62.94,66.06-26.85,66.06-62.94S631.71,585.07,588.17,585.07Zm0,98.72c-22.52,0-34.9-13.72-34.9-36.09,0-21.92,12.38-35.79,34.9-35.79,22.67,0,34.9,13.87,34.9,35.79C623.07,670.07,610.84,683.79,588.17,683.79Z" transform="translate(-148.68 -147.36)"/><polygon points="261.43 466.79 299.9 466.79 299.9 560.29 330.33 560.29 330.33 466.79 368.65 466.79 368.65 440.99 261.43 440.99 261.43 466.79"/><path d="M365.81,662c0,15.51-9.54,21.77-25.8,21.77-15.81,0-26.1-6.56-26.1-21.77V588.35H283.49v77.1c0,34.45,30.72,45.19,56.52,45.19s56.22-10.74,56.22-45.19v-77.1H365.81Z" transform="translate(-148.68 -147.36)"/><path d="M194.46,588.35l-45.78,119.3h31.46l8-22.36h51.11l7.86,22.36h32.51l-46.38-119.3Zm2.73,71.58,16.71-46.77,16.43,46.77Z" transform="translate(-148.68 -147.36)"/><path d="M410,482.2,709.81,295.71H865.33a9.08,9.08,0,0,1,9.09,9.09c0,4.31-1.91,6.22-4.3,7.66L722.86,400.72c-9.57,5.74-12.92,17.23-12.92,25.84l-.15,55.64H896.91V158.85c0-6.22-4.78-11.49-12-11.49H706.46L407.38,333V482.2Z" transform="translate(-148.68 -147.36)"/></svg>