<?xml version="1.0" encoding="UTF-8"?><svg xmlns="http://www.w3.org/2000/svg" version="1.2" baseProfile="tiny" viewBox="0 0 151 38" width="151px" height="38px"><g fill="#dcdcdc"><rect x="5" width="1" height="1"/><rect width="1" height="1" x="32"/><rect x="59" y="6" width="1" height="1"/><rect height="23" x="37" y="7" width="1"/><rect x="49" y="11" width="1" height="1"/><rect width="1" height="1" x="64" y="11"/><rect x="149" y="16" width="1" height="1"/><rect width="1" height="1" x="135" y="17"/><rect height="1" x="55" y="19" width="1"/><rect width="1" height="1" x="71" y="20"/><rect width="1" height="1" x="111" y="20"/><rect height="1" x="71" y="23" width="1"/><rect x="147" y="26" width="1" height="1"/><rect x="63" y="29" width="1" height="1"/><rect y="30" width="1" height="1" x="37"/><rect x="53" y="30" width="1" height="1"/><rect x="5" y="37" width="1" height="1"/></g><g fill="#898989"><rect x="2" y="2" width="1" height="1"/><rect x="61" y="7" width="1" height="1"/><rect x="126" y="15" width="1" height="1"/><rect x="144" y="15" width="1" height="1"/><rect height="1" x="59" y="17" width="1"/><rect x="116" y="19" width="1" height="1"/><rect x="138" y="20" width="8" height="1"/><rect x="146" y="20" width="1" height="1"/><rect width="1" height="1" x="68" y="21"/><rect y="22" width="1" height="1" x="68"/><rect x="63" y="24" width="1" height="1"/><rect x="144" y="28" width="1" height="1"/><rect x="60" y="30" width="1" height="1"/><rect x="140" y="30" width="1" height="1"/><rect height="1" x="145" y="30" width="1"/><rect x="2" y="35" width="1" height="1"/></g><g fill="#f0f0f0"><rect x="37" y="5" width="1" height="1"/><rect y="7" width="1" height="1" x="52"/><rect width="1" height="1" x="88" y="13"/><rect x="119" y="15" width="1" height="1"/><rect x="129" y="16" width="1" height="1"/><rect x="81" y="20" width="1" height="1"/><rect x="81" y="23" width="1" height="1"/><rect y="29" width="1" height="1" x="148"/><rect height="1" x="72" y="30" width="1"/><rect x="37" y="32" width="1" height="1"/></g><g fill="#1f1f1f"><rect y="7" width="1" height="1" x="60"/><rect x="72" y="14" width="1" height="1"/><rect x="23" y="15" width="1" height="1"/><rect x="126" y="16" width="1" height="1"/><rect x="135" y="19" width="1" height="1"/><rect x="23" y="22" width="1" height="1"/><rect width="1" height="1" x="106" y="25"/><rect x="57" y="30" width="1" height="1"/></g><g fill="#979797"><rect width="1" height="1" x="7" y="8"/><rect height="1" x="63" y="8" width="1"/><rect height="1" x="75" y="15" width="1"/><rect x="84" y="15" width="1" height="19"/><rect y="16" width="1" height="1" x="119"/><rect x="53" y="18" width="1" height="1"/><rect x="113" y="20" width="1" height="1"/><rect y="23" width="1" height="1" x="137"/><rect y="25" width="1" height="1" x="50"/><rect width="1" height="1" x="77" y="28"/><rect width="1" height="1" x="7" y="29"/><rect x="54" y="30" width="1" height="1"/><rect y="30" width="1" height="1" x="101"/><rect x="118" y="30" width="1" height="1"/><rect x="125" y="30" width="1" height="1"/><rect x="84" y="34" width="1" height="1"/></g><g fill="#0e0e0e"><rect y="14" width="1" height="1" x="146"/><rect x="65" y="22" width="1" height="1"/><rect x="135" y="24" width="1" height="1"/><rect width="1" height="1" x="79" y="29"/></g><g fill="#fff"><rect width="4" height="1" fill="#fff"/><rect x="4" width="1" height="1" fill="#fff"/><rect x="33" width="117" height="1" fill="#fff"/><rect x="150" width="1" height="17" fill="#fff"/><rect height="1" fill="#fff" y="1" width="2"/><rect x="2" y="1" width="1" height="1" fill="#fff"/><rect x="35" y="1" width="115" height="1" fill="#fff"/><rect y="2" width="1" height="2" fill="#fff"/><rect x="1" y="2" width="1" height="1" fill="#fff"/><rect height="1" fill="#fff" x="36" y="2" width="114"/><rect y="3" width="113" height="1" fill="#fff" x="37"/><rect y="4" width="1" height="1" fill="#fff"/><rect x="37" y="4" width="113" height="1" fill="#fff"/><rect x="38" y="5" width="112" height="1" fill="#fff"/><rect x="38" y="6" width="16" height="1" fill="#fff"/><rect y="6" width="1" height="1" fill="#fff" x="54"/><rect height="1" fill="#fff" x="60" y="6" width="90"/><rect height="1" fill="#fff" x="38" y="7" width="13"/><rect height="1" fill="#fff" x="51" y="7" width="1"/><rect fill="#fff" x="63" y="7" width="87" height="1"/><rect x="8" y="8" width="21" height="5" fill="#fff"/><rect x="29" y="8" width="1" height="21" fill="#fff"/><rect x="38" y="8" width="12" height="2" fill="#fff"/><rect fill="#fff" x="50" y="8" width="1" height="1"/><rect height="1" fill="#fff" x="64" y="8" width="86"/><rect fill="#fff" x="65" y="9" width="85" height="3"/><rect fill="#fff" x="38" y="10" width="11" height="27"/><rect fill="#fff" x="49" y="10" width="1" height="1"/><rect height="4" fill="#fff" x="54" y="10" width="6"/><rect x="60" y="10" width="1" height="6" fill="#fff"/><rect y="11" width="8" height="3" fill="#fff" x="53"/><rect width="1" height="6" fill="#fff" x="61" y="11"/><rect x="62" y="12" width="88" height="1" fill="#fff"/><rect x="8" y="13" width="21" height="1" fill="#fff"/><rect x="62" y="13" width="10" height="1" fill="#fff"/><rect width="1" height="1" fill="#fff" x="72" y="13"/><rect x="79" y="13" width="2" height="1" fill="#fff"/><rect y="13" width="1" height="1" fill="#fff" x="81"/><rect x="85" y="13" width="2" height="24" fill="#fff"/><rect fill="#fff" x="87" y="13" width="1" height="24"/><rect x="92" y="13" width="7" height="13" fill="#fff"/><rect x="99" y="13" width="1" height="11" fill="#fff"/><rect y="13" width="5" height="1" fill="#fff" x="103"/><rect height="1" fill="#fff" x="108" y="13" width="1"/><rect height="1" fill="#fff" x="117" y="13" width="6"/><rect height="24" fill="#fff" x="123" y="13" width="1"/><rect x="127" y="13" width="1" height="1" fill="#fff"/><rect x="128" y="13" width="1" height="1" fill="#fff"/><rect height="1" fill="#fff" x="134" y="13" width="4"/><rect x="138" y="13" width="1" height="1" fill="#fff"/><rect x="146" y="13" width="4" height="1" fill="#fff"/><rect x="8" y="14" width="5" height="15" fill="#fff"/><rect y="14" width="1" height="1" fill="#fff" x="13"/><rect y="14" width="5" height="15" fill="#fff" x="24"/><rect x="53" y="14" width="17" height="1" fill="#fff"/><rect fill="#fff" x="70" y="14" width="1" height="1"/><rect fill="#fff" x="81" y="14" width="1" height="1"/><rect x="103" y="14" width="3" height="23" fill="#fff"/><rect x="106" y="14" width="1" height="8" fill="#fff"/><rect x="119" y="14" width="4" height="1" fill="#fff"/><rect height="1" fill="#fff" x="127" y="14" width="1"/><rect fill="#fff" x="134" y="14" width="3" height="1"/><rect x="137" y="14" width="1" height="1" fill="#fff"/><rect x="148" y="14" width="2" height="1" fill="#fff"/><rect height="10" fill="#fff" x="49" y="15" width="1"/><rect x="55" y="15" width="14" height="1" fill="#fff"/><rect y="15" width="1" height="1" fill="#fff" x="69"/><rect width="3" height="22" fill="#fff" x="120" y="15"/><rect x="134" y="15" width="2" height="1" fill="#fff"/><rect y="15" width="1" height="1" fill="#fff" x="136"/><rect x="149" y="15" width="1" height="1" fill="#fff"/><rect x="58" y="16" width="10" height="1" fill="#fff"/><rect y="16" width="1" height="1" fill="#fff" x="68"/><rect fill="#fff" x="74" y="16" width="4" height="11"/><rect x="78" y="16" width="1" height="11" fill="#fff"/><rect x="110" y="16" width="5" height="3" fill="#fff"/><rect x="115" y="16" width="1" height="3" fill="#fff"/><rect width="5" height="3" fill="#fff" x="130" y="16"/><rect x="135" y="16" width="1" height="1" fill="#fff"/><rect x="140" y="16" width="4" height="3" fill="#fff"/><rect x="144" y="16" width="1" height="3" fill="#fff"/><rect width="1" height="7" fill="#fff" x="50" y="17"/><rect fill="#fff" x="61" y="17" width="7" height="1"/><rect y="17" width="1" height="1" fill="#fff" x="68"/><rect fill="#fff" x="73" y="17" width="6" height="9"/><rect width="1" height="9" fill="#fff" x="79" y="17"/><rect x="107" y="17" width="9" height="2" fill="#fff"/><rect width="1" height="1" fill="#fff" x="116" y="17"/><rect x="128" y="17" width="6" height="20" fill="#fff"/><rect fill="#fff" x="139" y="17" width="7" height="2"/><rect x="146" y="17" width="1" height="2" fill="#fff"/><rect x="150" y="17" width="1" height="1" fill="#fff"/><rect x="51" y="18" width="1" height="6" fill="#fff"/><rect width="1" height="7" fill="#fff" x="52" y="18"/><rect x="63" y="18" width="4" height="1" fill="#fff"/><rect fill="#fff" x="67" y="18" width="1" height="19"/><rect fill="#fff" x="72" y="18" width="8" height="7"/><rect x="80" y="18" width="1" height="7" fill="#fff"/><rect x="116" y="18" width="1" height="1" fill="#fff"/><rect height="1" fill="#fff" x="138" y="18" width="8"/><rect x="53" y="19" width="1" height="7" fill="#fff"/><rect x="54" y="19" width="1" height="7" fill="#fff"/><rect width="2" height="1" fill="#fff" x="65" y="19"/><rect fill="#fff" x="107" y="19" width="8" height="1"/><rect y="19" width="1" height="1" fill="#fff" x="115"/><rect x="127" y="19" width="7" height="18" fill="#fff"/><rect fill="#fff" x="134" y="19" width="1" height="1"/><rect fill="#fff" x="138" y="19" width="8" height="1"/><rect x="146" y="19" width="1" height="1" fill="#fff"/><rect height="7" fill="#fff" x="55" y="20" width="3"/><rect x="58" y="20" width="1" height="7" fill="#fff"/><rect x="66" y="20" width="1" height="2" fill="#fff"/><rect x="107" y="20" width="3" height="1" fill="#fff"/><rect fill="#fff" x="110" y="20" width="1" height="1"/><rect height="6" fill="#fff" x="59" y="21" width="1"/><rect y="21" width="1" height="6" fill="#fff" x="60"/><rect width="1" height="1" fill="#fff" x="107" y="21"/><rect height="4" fill="#fff" x="61" y="22" width="1"/><rect fill="#fff" x="66" y="22" width="1" height="1"/><rect x="106" y="22" width="1" height="1" fill="#fff"/><rect x="115" y="22" width="1" height="4" fill="#fff"/><rect x="116" y="22" width="1" height="3" fill="#fff"/><rect x="13" y="23" width="1" height="6" fill="#fff"/><rect width="1" height="2" fill="#fff" x="62" y="23"/><rect x="111" y="23" width="5" height="3" fill="#fff"/><rect x="138" y="23" width="12" height="1" fill="#fff"/><rect y="23" width="1" height="14" fill="#fff" x="150"/><rect x="14" y="24" width="15" height="5" fill="#fff"/><rect width="12" height="1" fill="#fff" x="50" y="24"/><rect height="1" fill="#fff" x="99" y="24" width="1"/><rect fill="#fff" x="109" y="24" width="7" height="2"/><rect x="134" y="24" width="1" height="13" fill="#fff"/><rect x="138" y="24" width="12" height="1" fill="#fff"/><rect x="49" y="25" width="1" height="1" fill="#fff"/><rect x="52" y="25" width="10" height="1" fill="#fff"/><rect x="62" y="25" width="1" height="1" fill="#fff"/><rect fill="#fff" x="66" y="25" width="1" height="12"/><rect x="72" y="25" width="8" height="1" fill="#fff"/><rect x="80" y="25" width="1" height="1" fill="#fff"/><rect fill="#fff" x="116" y="25" width="1" height="1"/><rect width="11" height="1" fill="#fff" x="139" y="25"/><rect fill="#fff" x="53" y="26" width="8" height="1"/><rect height="1" fill="#fff" x="61" y="26" width="1"/><rect y="26" width="1" height="11" fill="#fff" x="68"/><rect x="73" y="26" width="6" height="1" fill="#fff"/><rect height="1" fill="#fff" x="79" y="26" width="1"/><rect x="92" y="26" width="6" height="1" fill="#fff"/><rect width="1" height="1" fill="#fff" x="98" y="26"/><rect y="26" width="6" height="1" fill="#fff" x="109"/><rect height="1" fill="#fff" x="115" y="26" width="1"/><rect y="26" width="7" height="1" fill="#fff" x="139"/><rect x="146" y="26" width="1" height="1" fill="#fff"/><rect x="149" y="26" width="1" height="1" fill="#fff"/><rect fill="#fff" x="55" y="27" width="5" height="1"/><rect height="1" fill="#fff" x="60" y="27" width="1"/><rect x="74" y="27" width="4" height="1" fill="#fff"/><rect x="78" y="27" width="1" height="1" fill="#fff"/><rect y="27" width="1" height="10" fill="#fff" x="88"/><rect x="93" y="27" width="3" height="1" fill="#fff"/><rect fill="#fff" x="96" y="27" width="1" height="1"/><rect fill="#fff" x="110" y="27" width="4" height="1"/><rect x="114" y="27" width="1" height="1" fill="#fff"/><rect fill="#fff" x="135" y="27" width="1" height="10"/><rect x="141" y="27" width="4" height="1" fill="#fff"/><rect x="145" y="27" width="1" height="1" fill="#fff"/><rect x="49" y="28" width="1" height="9" fill="#fff"/><rect x="65" y="28" width="4" height="9" fill="#fff"/><rect height="9" fill="#fff" x="69" y="28" width="1"/><rect height="1" fill="#fff" x="8" y="29" width="21"/><rect width="1" height="1" fill="#fff" x="29" y="29"/><rect y="29" width="1" height="8" fill="#fff" x="50"/><rect y="29" width="6" height="8" fill="#fff" x="64"/><rect y="29" width="1" height="8" fill="#fff" x="70"/><rect height="1" fill="#fff" x="81" y="29" width="1"/><rect x="89" y="29" width="1" height="8" fill="#fff"/><rect fill="#fff" x="99" y="29" width="1" height="8"/><rect x="106" y="29" width="1" height="8" fill="#fff"/><rect height="8" fill="#fff" x="136" y="29" width="1"/><rect fill="#fff" x="149" y="29" width="1" height="8"/><rect width="1" height="7" fill="#fff" x="51" y="30"/><rect x="52" y="30" width="1" height="7" fill="#fff"/><rect width="9" height="7" fill="#fff" x="62" y="30"/><rect x="71" y="30" width="1" height="7" fill="#fff"/><rect x="90" y="30" width="1" height="7" fill="#fff"/><rect width="1" height="7" fill="#fff" x="98" y="30"/><rect x="107" y="30" width="1" height="7" fill="#fff"/><rect x="115" y="30" width="1" height="7" fill="#fff"/><rect height="7" fill="#fff" x="116" y="30" width="1"/><rect fill="#fff" x="137" y="30" width="1" height="7"/><rect height="7" fill="#fff" x="138" y="30" width="1"/><rect y="30" width="3" height="7" fill="#fff" x="147"/><rect x="53" y="31" width="27" height="6" fill="#fff"/><rect x="80" y="31" width="1" height="6" fill="#fff"/><rect x="91" y="31" width="59" height="6" fill="#fff"/><rect y="33" width="1" height="4" fill="#fff"/><rect x="37" y="33" width="43" height="4" fill="#fff"/><rect y="35" width="1" height="2" fill="#fff" x="1"/><rect width="44" height="2" fill="#fff" x="36" y="35"/><rect height="1" fill="#fff" x="2" y="36" width="1"/><rect x="35" y="36" width="46" height="1" fill="#fff"/><rect x="81" y="36" width="1" height="1" fill="#fff"/><rect y="37" width="4" height="1" fill="#fff"/><rect x="4" y="37" width="1" height="1" fill="#fff"/><rect width="117" height="1" fill="#fff" x="33" y="37"/><rect y="37" width="1" height="1" fill="#fff" x="150"/></g><g fill="#909090"><rect x="29" y="7" width="1" height="1"/><rect width="1" height="1" x="53" y="7"/><rect x="140" y="13" width="1" height="1"/><rect x="84" y="14" width="1" height="1"/><rect x="77" y="15" width="1" height="1"/><rect y="22" width="1" height="1" x="107"/><rect height="1" x="112" y="22" width="1"/><rect x="57" y="28" width="1" height="1"/><rect x="58" y="28" width="1" height="1"/><rect y="30" width="1" height="1" x="29"/><rect x="109" y="30" width="1" height="1"/><rect x="84" y="35" width="1" height="1"/></g><g fill="#616161"><rect x="60" y="9" width="1" height="1"/><rect x="64" y="9" width="1" height="1"/><rect x="100" y="14" width="1" height="1"/><rect x="128" y="14" width="1" height="2"/><rect x="115" y="15" width="1" height="1"/><rect x="128" y="16" width="1" height="1"/><rect y="17" width="1" height="1" x="119"/><rect width="1" height="1" x="149" y="17"/><rect x="126" y="20" width="1" height="1"/><rect height="1" x="109" y="21" width="1"/><rect x="106" y="24" width="1" height="1"/><rect x="81" y="25" width="1" height="1"/><rect height="1" x="91" y="26" width="1"/><rect width="1" height="1" x="136" y="27"/><rect x="55" y="30" width="1" height="1"/><rect x="77" y="30" width="1" height="1"/><rect x="113" y="30" width="1" height="1"/></g><g fill="#3e3e3e"><rect width="1" height="1" x="50" y="10"/><rect height="1" x="75" y="13" width="1"/><rect x="76" y="13" width="1" height="1"/><rect x="142" y="13" width="1" height="1"/><rect x="143" y="13" width="1" height="1"/><rect x="74" y="15" width="1" height="1"/><rect height="1" x="78" y="15" width="1"/><rect x="107" y="15" width="1" height="1"/><rect x="132" y="15" width="1" height="1"/><rect x="117" y="18" width="1" height="1"/><rect x="106" y="26" width="1" height="1"/><rect y="29" width="1" height="1" x="62"/></g><g fill="#747474"><rect x="52" y="11" width="1" height="1"/><rect x="111" y="13" width="1" height="1"/><rect y="13" width="1" height="1" x="115"/><rect x="144" y="13" width="1" height="1"/><rect x="23" y="14" width="1" height="1"/><rect height="1" x="126" y="14" width="1"/><rect y="18" width="1" height="1" x="135"/><rect x="60" y="20" width="1" height="1"/><rect x="126" y="21" width="1" height="1"/><rect width="1" height="1" x="126" y="22"/><rect x="137" y="22" width="1" height="1"/><rect width="1" height="1" x="23" y="23"/><rect width="1" height="1" x="63" y="23"/><rect x="138" y="26" width="1" height="1"/><rect height="1" x="53" y="27" width="1"/><rect y="27" width="1" height="1" x="98"/><rect width="1" height="1" x="139" y="27"/><rect x="56" y="28" width="1" height="1"/><rect x="96" y="28" width="1" height="1"/><rect height="1" x="100" y="28" width="1"/><rect x="141" y="28" width="1" height="1"/><rect height="1" x="126" y="29" width="1"/></g><g fill="#5b5b5b"><rect x="141" y="13" width="1" height="1"/><rect x="133" y="14" width="1" height="1"/><rect x="130" y="15" width="1" height="1"/><rect x="55" y="16" width="1" height="1"/><rect x="81" y="18" width="1" height="1"/><rect x="119" y="18" width="1" height="2"/><rect x="57" y="19" width="1" height="1"/><rect y="20" width="1" height="1" x="119"/><rect height="1" x="137" y="20" width="1"/><rect x="71" y="25" width="1" height="1"/><rect x="99" y="26" width="1" height="1"/><rect width="1" height="1" x="89" y="27"/><rect x="74" y="28" width="1" height="2"/><rect width="1" height="1" x="93" y="28"/><rect x="52" y="29" width="1" height="1"/><rect width="1" height="1" x="74" y="30"/></g><g fill="#000"><rect x="5" y="1" width="27" height="5" fill="#000"/><rect x="32" y="1" width="1" height="35" fill="#000"/><rect y="2" width="31" height="4" fill="#000" x="3"/><rect x="34" y="2" width="1" height="33" fill="#000"/><rect x="2" y="3" width="33" height="3" fill="#000"/><rect x="35" y="3" width="1" height="31" fill="#000"/><rect height="1" fill="#000" x="1" y="5" width="35"/><rect x="36" y="5" width="1" height="27" fill="#000"/><rect x="1" y="6" width="35" height="1" fill="#000"/><rect fill="#000" x="1" y="7" width="6" height="25"/><rect fill="#000" x="7" y="7" width="1" height="1"/><rect x="30" y="7" width="6" height="1" fill="#000"/><rect height="1" fill="#000" x="55" y="7" width="4"/><rect x="59" y="7" width="1" height="1" fill="#000"/><rect y="8" width="5" height="26" fill="#000" x="31"/><rect x="52" y="8" width="10" height="1" fill="#000"/><rect y="8" width="1" height="1" fill="#000" x="62"/><rect width="2" height="1" fill="#000" x="51" y="9"/><rect width="1" height="1" fill="#000" x="53" y="9"/><rect width="2" height="1" fill="#000" x="61" y="9"/><rect height="1" fill="#000" x="63" y="9" width="1"/><rect x="51" y="10" width="1" height="6" fill="#000"/><rect fill="#000" x="52" y="10" width="1" height="1"/><rect y="10" width="1" height="1" fill="#000" x="63"/><rect fill="#000" x="64" y="10" width="1" height="1"/><rect fill="#000" x="50" y="11" width="1" height="3"/><rect x="15" y="14" width="7" height="9" fill="#000"/><rect height="9" fill="#000" x="22" y="14" width="1"/><rect x="50" y="14" width="1" height="1" fill="#000"/><rect height="1" fill="#000" x="73" y="14" width="5"/><rect x="78" y="14" width="1" height="1" fill="#000"/><rect x="82" y="14" width="1" height="1" fill="#000"/><rect x="83" y="14" width="1" height="21" fill="#000"/><rect width="1" height="12" fill="#000" x="89" y="14"/><rect x="90" y="14" width="1" height="14" fill="#000"/><rect x="101" y="14" width="1" height="15" fill="#000"/><rect width="7" height="1" fill="#000" x="109" y="14"/><rect x="116" y="14" width="1" height="1" fill="#000"/><rect width="1" height="15" fill="#000" x="125" y="14"/><rect fill="#000" x="129" y="14" width="3" height="1"/><rect x="132" y="14" width="1" height="1" fill="#000"/><rect x="139" y="14" width="6" height="1" fill="#000"/><rect x="145" y="14" width="1" height="1" fill="#000"/><rect height="7" fill="#000" x="14" y="15" width="8"/><rect x="52" y="15" width="1" height="2" fill="#000"/><rect width="2" height="1" fill="#000" x="71" y="15"/><rect x="73" y="15" width="1" height="1" fill="#000"/><rect x="79" y="15" width="1" height="1" fill="#000"/><rect x="80" y="15" width="1" height="1" fill="#000"/><rect x="108" y="15" width="1" height="1" fill="#000"/><rect x="109" y="15" width="1" height="1" fill="#000"/><rect width="2" height="1" fill="#000" x="116" y="15"/><rect fill="#000" x="118" y="15" width="1" height="14"/><rect x="129" y="15" width="1" height="1" fill="#000"/><rect fill="#000" x="138" y="15" width="1" height="1"/><rect x="139" y="15" width="1" height="1" fill="#000"/><rect fill="#000" x="145" y="15" width="2" height="1"/><rect x="147" y="15" width="1" height="1" fill="#000"/><rect x="51" y="16" width="3" height="1" fill="#000"/><rect fill="#000" x="54" y="16" width="1" height="1"/><rect x="70" y="16" width="2" height="1" fill="#000"/><rect height="1" fill="#000" x="72" y="16" width="1"/><rect x="80" y="16" width="1" height="1" fill="#000"/><rect fill="#000" x="117" y="16" width="1" height="1"/><rect x="127" y="16" width="1" height="1" fill="#000"/><rect height="1" fill="#000" x="137" y="16" width="1"/><rect x="138" y="16" width="1" height="1" fill="#000"/><rect height="1" fill="#000" x="147" y="16" width="1"/><rect height="5" fill="#000" x="148" y="16" width="1"/><rect width="5" height="1" fill="#000" x="52" y="17"/><rect x="57" y="17" width="1" height="1" fill="#000"/><rect fill="#000" x="70" y="17" width="1" height="10"/><rect width="1" height="1" fill="#000" x="71" y="17"/><rect fill="#000" x="81" y="17" width="2" height="1"/><rect y="17" width="1" height="1" fill="#000" x="126"/><rect x="136" y="17" width="1" height="9" fill="#000"/><rect x="137" y="17" width="1" height="1" fill="#000"/><rect fill="#000" x="55" y="18" width="5" height="1"/><rect x="60" y="18" width="1" height="1" fill="#000"/><rect x="69" y="18" width="1" height="7" fill="#000"/><rect x="82" y="18" width="1" height="8" fill="#000"/><rect x="126" y="18" width="1" height="1" fill="#000"/><rect x="149" y="18" width="1" height="3" fill="#000"/><rect height="1" fill="#000" x="58" y="19" width="4"/><rect x="62" y="19" width="1" height="1" fill="#000"/><rect x="117" y="19" width="1" height="1" fill="#000"/><rect x="61" y="20" width="3" height="1" fill="#000"/><rect y="20" width="1" height="7" fill="#000" x="64"/><rect width="3" height="1" fill="#000" x="115" y="20"/><rect width="1" height="3" fill="#000" x="135" y="20"/><rect height="1" fill="#000" x="63" y="21" width="1"/><rect x="110" y="21" width="4" height="1" fill="#000"/><rect x="114" y="21" width="1" height="1" fill="#000"/><rect height="1" fill="#000" x="137" y="21" width="12"/><rect x="149" y="21" width="1" height="1" fill="#000"/><rect width="8" height="1" fill="#000" x="14" y="22"/><rect x="63" y="22" width="1" height="1" fill="#000"/><rect x="108" y="22" width="2" height="1" fill="#000"/><rect x="110" y="22" width="1" height="1" fill="#000"/><rect width="7" height="1" fill="#000" x="15" y="23"/><rect x="22" y="23" width="1" height="1" fill="#000"/><rect x="65" y="23" width="1" height="1" fill="#000"/><rect width="1" height="5" fill="#000" x="107" y="23"/><rect x="108" y="23" width="1" height="1" fill="#000"/><rect x="135" y="23" width="1" height="1" fill="#000"/><rect width="1" height="1" fill="#000" x="65" y="24"/><rect height="1" fill="#000" x="69" y="25" width="1"/><rect x="100" y="25" width="1" height="1" fill="#000"/><rect y="25" width="1" height="2" fill="#000" x="137"/><rect width="1" height="1" fill="#000" x="50" y="26"/><rect y="26" width="1" height="2" fill="#000" x="51"/><rect x="63" y="26" width="1" height="2" fill="#000"/><rect x="71" y="26" width="1" height="2" fill="#000"/><rect y="26" width="2" height="1" fill="#000" x="81"/><rect y="26" width="1" height="1" fill="#000" x="89"/><rect x="100" y="26" width="1" height="1" fill="#000"/><rect x="117" y="26" width="1" height="1" fill="#000"/><rect fill="#000" x="136" y="26" width="1" height="1"/><rect x="50" y="27" width="2" height="1" fill="#000"/><rect x="52" y="27" width="1" height="1" fill="#000"/><rect x="62" y="27" width="2" height="1" fill="#000"/><rect x="64" y="27" width="1" height="1" fill="#000"/><rect x="70" y="27" width="2" height="1" fill="#000"/><rect x="72" y="27" width="1" height="2" fill="#000"/><rect width="1" height="1" fill="#000" x="80" y="27"/><rect width="2" height="1" fill="#000" x="81" y="27"/><rect x="91" y="27" width="1" height="2" fill="#000"/><rect y="27" width="2" height="1" fill="#000" x="99"/><rect y="27" width="1" height="2" fill="#000" x="108"/><rect x="116" y="27" width="2" height="1" fill="#000"/><rect height="1" fill="#000" x="137" y="27" width="1"/><rect x="138" y="27" width="1" height="1" fill="#000"/><rect x="147" y="27" width="1" height="1" fill="#000"/><rect x="148" y="27" width="1" height="1" fill="#000"/><rect x="51" y="28" width="3" height="1" fill="#000"/><rect x="54" y="28" width="1" height="1" fill="#000"/><rect width="2" height="1" fill="#000" x="61" y="28"/><rect height="1" fill="#000" x="63" y="28" width="1"/><rect x="71" y="28" width="2" height="1" fill="#000"/><rect fill="#000" x="73" y="28" width="1" height="1"/><rect x="79" y="28" width="1" height="1" fill="#000"/><rect x="80" y="28" width="1" height="1" fill="#000"/><rect x="90" y="28" width="2" height="1" fill="#000"/><rect x="92" y="28" width="1" height="1" fill="#000"/><rect x="98" y="28" width="1" height="1" fill="#000"/><rect x="107" y="28" width="2" height="1" fill="#000"/><rect fill="#000" x="109" y="28" width="1" height="1"/><rect x="115" y="28" width="1" height="1" fill="#000"/><rect x="138" y="28" width="1" height="1" fill="#000"/><rect y="28" width="1" height="1" fill="#000" x="139"/><rect width="2" height="1" fill="#000" x="146" y="28"/><rect x="148" y="28" width="1" height="1" fill="#000"/><rect fill="#000" x="53" y="29" width="8" height="1"/><rect y="29" width="1" height="1" fill="#000" x="61"/><rect width="6" height="1" fill="#000" x="72" y="29"/><rect x="78" y="29" width="1" height="1" fill="#000"/><rect width="1" height="6" fill="#000" x="82" y="29"/><rect y="29" width="6" height="1" fill="#000" x="91"/><rect x="97" y="29" width="1" height="1" fill="#000"/><rect x="101" y="29" width="1" height="1" fill="#000"/><rect x="108" y="29" width="6" height="1" fill="#000"/><rect width="1" height="1" fill="#000" x="114" y="29"/><rect height="1" fill="#000" x="118" y="29" width="1"/><rect x="125" y="29" width="1" height="1" fill="#000"/><rect x="139" y="29" width="7" height="1" fill="#000"/><rect y="29" width="1" height="1" fill="#000" x="146"/><rect x="7" y="30" width="1" height="6" fill="#000"/><rect x="30" y="30" width="6" height="4" fill="#000"/><rect height="3" fill="#000" x="8" y="31" width="28"/><rect height="1" fill="#000" x="1" y="32" width="35"/><rect x="36" y="32" width="1" height="1" fill="#000"/><rect x="2" y="33" width="33" height="1" fill="#000"/><rect y="34" width="33" height="1" fill="#000" x="2"/><rect y="34" width="1" height="1" fill="#000" x="35"/><rect x="3" y="35" width="31" height="1" fill="#000"/><rect x="34" y="35" width="1" height="1" fill="#000"/><rect width="1" height="1" fill="#000" x="82" y="35"/><rect x="83" y="35" width="1" height="1" fill="#000"/><rect y="36" width="27" height="1" fill="#000" x="5"/><rect height="1" fill="#000" x="32" y="36" width="1"/></g><g fill="#a3a3a3"><rect x="35" y="2" width="1" height="1"/><rect width="1" height="1" x="8" y="7"/><rect x="82" y="13" width="1" height="1"/><rect x="83" y="13" width="1" height="1"/><rect x="89" y="13" width="1" height="1"/><rect x="90" y="13" width="1" height="1"/><rect width="1" height="1" x="101" y="13"/><rect height="1" x="125" y="13" width="1"/><rect x="76" y="15" width="1" height="1"/><rect x="112" y="15" width="1" height="1"/><rect x="147" y="18" width="1" height="1"/><rect x="56" y="19" width="1" height="1"/><rect x="116" y="21" width="1" height="1"/><rect y="23" width="1" height="1" x="68"/><rect x="51" y="25" width="1" height="1"/><rect width="1" height="1" x="75" y="28"/><rect x="94" y="28" width="1" height="1"/><rect height="1" x="8" y="30" width="1"/><rect x="73" y="30" width="1" height="1"/><rect x="78" y="30" width="1" height="1"/><rect y="30" width="1" height="1" x="102"/><rect x="124" y="30" width="1" height="1"/><rect x="35" y="35" width="1" height="1"/></g><g fill="#1a1a1a"><rect height="1" x="117" y="14" width="1"/><rect height="1" x="50" y="15" width="1"/><rect x="81" y="16" width="1" height="1"/><rect y="16" width="1" height="1" x="82"/><rect height="1" x="61" y="18" width="1"/><rect x="115" y="21" width="1" height="1"/><rect x="108" y="24" width="1" height="1"/><rect x="65" y="25" width="1" height="1"/><rect x="82" y="28" width="1" height="1"/></g><g fill="#303030"><rect width="1" height="1" x="110" y="15"/><rect width="1" height="1" x="63" y="19"/><rect width="1" height="1" x="126" y="19"/><rect y="30" width="1" height="1" x="56"/><rect x="75" y="30" width="1" height="1"/><rect height="1" x="111" y="30" width="1"/><rect y="30" width="1" height="1" x="112"/><rect y="30" width="1" height="1" x="142"/><rect y="30" width="1" height="1" x="143"/></g><g fill="#b2b2b2"><rect x="3" y="1" width="1" height="1"/><rect x="49" y="12" width="1" height="1"/><rect x="49" y="13" width="1" height="1"/><rect height="1" x="73" y="13" width="1"/><rect x="102" y="13" width="1" height="1"/><rect x="145" y="13" width="1" height="1"/><rect x="56" y="16" width="1" height="1"/><rect x="138" y="17" width="1" height="1"/><rect x="150" y="20" width="1" height="1"/><rect x="139" y="22" width="9" height="1"/><rect x="148" y="22" width="1" height="1"/><rect x="71" y="24" width="1" height="1"/><rect x="52" y="26" width="1" height="1"/><rect width="1" height="1" x="149" y="27"/><rect height="1" x="50" y="28" width="1"/><rect x="76" y="28" width="1" height="1"/><rect y="28" width="1" height="1" x="143"/><rect x="71" y="29" width="1" height="1"/><rect y="36" width="1" height="1" x="3"/></g><g fill="#161616"><rect x="4" y="1" width="1" height="1"/><rect x="82" y="15" width="1" height="1"/><rect y="17" width="1" height="1" x="147"/><rect x="54" y="18" width="1" height="1"/><rect height="1" x="117" y="25" width="1"/><rect x="97" y="28" width="1" height="1"/><rect width="1" height="1" x="140" y="28"/><rect x="4" y="36" width="1" height="1"/></g><g fill="#b9b9b9"><rect width="1" height="1" x="1" y="3"/><rect y="9" width="1" height="1" x="59"/><rect height="1" x="53" y="10" width="1"/><rect x="52" y="13" width="1" height="1"/><rect x="78" y="13" width="1" height="1"/><rect height="1" x="116" y="13" width="1"/><rect y="13" width="1" height="1" x="133"/><rect y="15" width="1" height="1" x="143"/><rect width="1" height="1" x="79" y="16"/><rect height="1" x="81" y="19" width="1"/><rect x="113" y="22" width="1" height="1"/><rect y="22" width="1" height="1" x="138"/><rect height="1" x="91" y="24" width="1"/><rect x="62" y="26" width="1" height="1"/><rect x="116" y="26" width="1" height="1"/><rect x="49" y="27" width="1" height="1"/><rect width="1" height="1" x="92" y="27"/><rect y="28" width="1" height="1" x="113"/><rect width="1" height="1" x="107" y="29"/><rect x="100" y="30" width="1" height="1"/><rect x="117" y="30" width="1" height="1"/><rect x="1" y="34" width="1" height="1"/></g><g fill="#eaeaea"><rect y="5" width="1" height="1"/><rect height="1" x="109" y="13" width="1"/><rect width="1" height="1" x="107" y="14"/><rect width="1" height="1" x="54" y="15"/><rect x="57" y="16" width="1" height="1"/><rect width="1" height="1" x="134" y="20"/><rect x="65" y="27" width="1" height="1"/><rect x="51" y="29" width="1" height="1"/><rect height="1" x="116" y="29" width="1"/><rect x="108" y="30" width="1" height="1"/><rect width="1" height="1" y="32"/></g><g fill="#d8d8d8"><rect x="50" y="9" width="1" height="1"/><rect x="61" y="10" width="1" height="1"/><rect x="49" y="14" width="1" height="1"/><rect y="14" width="1" height="1" x="80"/><rect x="88" y="14" width="1" height="10"/><rect height="1" x="118" y="14" width="1"/><rect height="1" x="109" y="16" width="1"/><rect x="60" y="17" width="1" height="1"/><rect x="127" y="18" width="1" height="1"/><rect x="134" y="21" width="1" height="1"/><rect height="1" x="134" y="22" width="1"/><rect x="88" y="24" width="1" height="1"/><rect x="149" y="28" width="1" height="1"/><rect width="1" height="1" x="97" y="30"/><rect x="139" y="30" width="1" height="1"/><rect x="146" y="30" width="1" height="1"/></g><g fill="#292929"><rect x="33" y="1" width="1" height="1"/><rect x="1" y="4" width="1" height="1"/><rect x="54" y="7" width="1" height="1"/><rect x="62" y="10" width="1" height="1"/><rect x="79" y="14" width="1" height="1"/><rect y="14" width="1" height="1" x="102"/><rect x="124" y="14" width="1" height="1"/><rect x="23" y="16" width="1" height="5"/><rect height="1" x="58" y="17" width="1"/><rect x="137" y="18" width="1" height="1"/><rect x="23" y="21" width="1" height="1"/><rect width="1" height="1" x="100" y="24"/><rect x="60" y="28" width="1" height="1"/><rect y="28" width="1" height="1" x="116"/><rect x="137" y="28" width="1" height="1"/><rect x="102" y="29" width="1" height="1"/><rect x="115" y="29" width="1" height="1"/><rect x="124" y="29" width="1" height="1"/><rect x="58" y="30" width="1" height="1"/><rect y="33" width="1" height="1" x="1"/><rect x="33" y="36" width="1" height="1"/></g><g fill="#cecece"><rect y="3" width="1" height="1" x="36"/><rect width="2" height="1" x="56" y="6"/><rect y="6" width="1" height="1" x="58"/><rect x="9" y="7" width="19" height="1"/><rect x="28" y="7" width="1" height="1"/><rect width="1" height="1" x="84" y="13"/><rect x="129" y="13" width="1" height="1"/><rect x="71" y="14" width="1" height="1"/><rect height="1" x="50" y="16" width="1"/><rect y="16" width="1" height="1" x="107"/><rect x="108" y="21" width="1" height="1"/><rect x="135" y="26" width="1" height="1"/><rect height="1" x="115" y="27" width="1"/><rect width="1" height="1" x="89" y="28"/><rect x="9" y="30" width="19" height="1"/><rect x="28" y="30" width="1" height="1"/><rect width="1" height="1" x="36" y="34"/><rect x="82" y="36" width="1" height="1"/></g><g fill="#525252"><rect height="1" x="131" y="13" width="1"/><rect x="14" y="14" width="1" height="1"/><rect height="1" x="53" y="15" width="1"/><rect y="15" width="1" height="1" x="140"/><rect width="1" height="1" x="71" y="18"/><rect x="62" y="21" width="1" height="1"/><rect x="117" y="21" width="2" height="1"/><rect x="119" y="21" width="1" height="7"/><rect x="111" y="22" width="1" height="1"/><rect x="117" y="22" width="2" height="1"/><rect width="1" height="1" x="14" y="23"/><rect x="117" y="23" width="2" height="1"/><rect y="26" width="1" height="1" x="49"/><rect x="78" y="28" width="1" height="1"/><rect x="119" y="28" width="1" height="1"/><rect x="147" y="29" width="1" height="1"/><rect height="1" x="59" y="30" width="1"/><rect x="110" y="30" width="1" height="1"/><rect x="141" y="30" width="1" height="1"/><rect width="1" height="1" x="144" y="30"/><rect height="1" x="36" y="33" width="1"/></g><g fill="#ababab"><rect height="19" x="30" y="9" width="1"/><rect x="110" y="13" width="1" height="1"/><rect x="124" y="13" width="1" height="1"/><rect x="113" y="15" width="1" height="1"/><rect width="1" height="1" x="114" y="15"/><rect x="133" y="15" width="1" height="1"/><rect x="141" y="15" width="1" height="1"/><rect x="148" y="15" width="1" height="1"/><rect x="62" y="18" width="1" height="1"/><rect x="71" y="19" width="1" height="1"/><rect x="68" y="20" width="1" height="1"/><rect x="150" y="21" width="1" height="1"/><rect y="22" width="1" height="1" x="149"/><rect y="25" width="1" height="1" x="91"/><rect x="61" y="27" width="1" height="1"/><rect x="30" y="28" width="1" height="1"/><rect x="70" y="28" width="1" height="1"/><rect width="1" height="1" x="95" y="28"/><rect x="142" y="28" width="1" height="1"/><rect x="90" y="29" width="1" height="1"/><rect x="114" y="30" width="1" height="1"/><rect y="30" width="1" height="1" x="119"/></g><g fill="#f3f3f3"><rect x="62" y="11" width="1" height="1"/><rect width="1" height="7" x="13" y="15"/><rect x="69" y="16" width="1" height="1"/><rect x="145" y="16" width="1" height="1"/><rect x="68" y="18" width="1" height="1"/><rect x="150" y="18" width="1" height="1"/><rect x="65" y="20" width="1" height="1"/><rect width="1" height="1" x="61" y="21"/><rect y="21" width="1" height="1" x="81"/><rect width="1" height="1" x="13" y="22"/><rect width="1" height="1" x="62" y="22"/><rect x="81" y="22" width="1" height="1"/><rect y="23" width="1" height="1" x="66"/><rect y="23" width="1" height="1" x="110"/><rect x="66" y="24" width="1" height="1"/><rect height="1" x="68" y="25" width="1"/><rect x="138" y="25" width="1" height="1"/><rect y="26" width="1" height="1" x="88"/><rect x="97" y="27" width="1" height="1"/><rect y="27" width="1" height="1" x="140"/><rect width="1" height="1" x="136" y="28"/><rect height="1" x="137" y="29" width="1"/><rect x="79" y="30" width="2" height="1"/><rect x="81" y="30" width="1" height="5"/><rect x="81" y="35" width="1" height="1"/></g><g fill="#c6c6c6"><rect x="6" width="25" height="1"/><rect height="1" x="31" width="1"/><rect x="34" y="1" width="1" height="1"/><rect x="7" y="9" width="1" height="19"/><rect y="13" width="1" height="1" x="126"/><rect x="91" y="14" width="1" height="5"/><rect x="147" y="14" width="1" height="1"/><rect height="1" x="70" y="15" width="1"/><rect y="16" width="1" height="1" x="116"/><rect x="80" y="17" width="1" height="1"/><rect height="1" x="91" y="19" width="1"/><rect x="112" y="20" width="1" height="1"/><rect x="91" y="23" width="1" height="1"/><rect x="106" y="23" width="1" height="1"/><rect y="24" width="1" height="1" x="68"/><rect width="1" height="1" x="73" y="27"/><rect y="27" width="1" height="1" x="109"/><rect height="1" x="146" y="27" width="1"/><rect x="7" y="28" width="1" height="1"/><rect x="112" y="28" width="1" height="1"/><rect height="1" x="80" y="29" width="1"/><rect x="34" y="36" width="1" height="1"/><rect width="25" height="1" x="6" y="37"/><rect x="31" y="37" width="1" height="1"/></g><g fill="#e4e4e4"><rect x="37" y="6" width="1" height="1"/><rect x="55" y="6" width="1" height="1"/><rect x="62" y="7" width="1" height="1"/><rect x="56" y="9" width="2" height="1"/><rect y="9" width="1" height="1" x="58"/><rect x="91" y="13" width="1" height="1"/><rect x="139" y="13" width="1" height="1"/><rect x="64" y="19" width="1" height="1"/><rect x="147" y="19" width="1" height="1"/><rect height="1" x="71" y="21" width="1"/><rect height="1" x="71" y="22" width="1"/><rect y="22" width="1" height="1" x="114"/><rect x="150" y="22" width="1" height="1"/><rect height="1" x="134" y="23" width="1"/><rect x="88" y="25" width="1" height="1"/><rect x="99" y="25" width="1" height="1"/><rect x="54" y="27" width="1" height="1"/><rect height="1" x="69" y="27" width="1"/><rect x="106" y="28" width="1" height="1"/><rect x="91" y="30" width="1" height="1"/><rect x="37" y="31" width="1" height="1"/><rect x="84" y="36" width="1" height="1"/><rect x="32" y="37" width="1" height="1"/></g><g fill="#494949"><rect x="36" y="4" width="1" height="1"/><rect x="63" y="11" width="1" height="1"/><rect x="112" y="13" width="2" height="1"/><rect x="114" y="13" width="1" height="1"/><rect x="52" y="14" width="1" height="1"/><rect x="146" y="16" width="1" height="1"/><rect width="1" height="1" x="117" y="17"/><rect x="127" y="17" width="1" height="1"/><rect x="117" y="24" width="1" height="1"/><rect x="108" y="26" width="1" height="1"/><rect x="55" y="28" width="1" height="1"/><rect x="117" y="28" width="1" height="1"/><rect y="28" width="1" height="1" x="145"/><rect width="1" height="1" x="119" y="29"/><rect y="30" width="2" height="1" x="93"/><rect x="95" y="30" width="1" height="1"/></g><g fill="#cacaca"><rect y="6" width="1" height="25"/><rect x="81" y="15" width="1" height="1"/><rect x="51" y="17" width="1" height="1"/><rect y="19" width="1" height="1" x="68"/><rect width="1" height="1" x="150" y="19"/><rect width="1" height="1" x="59" y="20"/><rect y="20" width="1" height="2" x="91"/><rect x="91" y="22" width="1" height="1"/><rect x="61" y="30" width="1" height="1"/><rect y="31" width="1" height="1"/><rect height="1" x="83" y="36" width="1"/></g><g fill="#7f7f7f"><rect x="30" y="8" width="1" height="1"/><rect x="130" y="13" width="1" height="1"/><rect x="138" y="14" width="1" height="1"/><rect x="111" y="15" width="1" height="1"/><rect width="1" height="1" x="136" y="16"/><rect width="1" height="1" x="69" y="17"/><rect x="137" y="19" width="1" height="1"/><rect y="20" width="1" height="1" x="147"/><rect y="21" width="1" height="1" x="65"/><rect x="126" y="23" width="1" height="5"/><rect y="26" width="1" height="1" x="65"/><rect width="1" height="1" x="106" y="27"/><rect x="99" y="28" width="1" height="1"/><rect width="1" height="1" x="110" y="28"/><rect width="1" height="1" x="126" y="28"/><rect x="30" y="29" width="1" height="1"/><rect x="98" y="29" width="1" height="1"/><rect x="92" y="30" width="1" height="1"/><rect x="96" y="30" width="1" height="1"/></g><g fill="#bfbfbf"><rect x="51" y="8" width="1" height="1"/><rect x="55" y="9" width="1" height="1"/><rect x="52" y="12" width="1" height="1"/><rect x="100" y="13" width="1" height="1"/><rect y="15" width="1" height="1" x="142"/><rect x="73" y="16" width="1" height="1"/><rect x="139" y="16" width="1" height="1"/><rect x="72" y="17" width="1" height="1"/><rect y="24" width="1" height="1" x="81"/><rect y="26" width="1" height="1" x="72"/><rect height="1" x="80" y="26" width="1"/><rect width="1" height="1" x="148" y="26"/><rect x="79" y="27" width="1" height="1"/><rect height="1" x="64" y="28" width="1"/><rect x="81" y="28" width="1" height="1"/><rect width="1" height="1" x="111" y="28"/><rect x="126" y="30" width="1" height="1"/></g><g fill="#6c6c6c"><rect height="1" x="54" y="9" width="1"/><rect x="74" y="13" width="1" height="1"/><rect x="77" y="13" width="1" height="1"/><rect x="132" y="13" width="1" height="1"/><rect x="108" y="14" width="1" height="1"/><rect x="100" y="15" width="1" height="8"/><rect x="127" y="15" width="1" height="1"/><rect y="15" width="1" height="1" x="131"/><rect x="114" y="20" width="1" height="1"/><rect x="100" y="23" width="1" height="1"/><rect x="109" y="23" width="1" height="1"/><rect x="137" y="24" width="1" height="1"/><rect height="1" x="108" y="25" width="1"/><rect x="135" y="25" width="1" height="1"/><rect width="1" height="1" x="69" y="26"/><rect x="59" y="28" width="1" height="1"/><rect width="1" height="1" x="114" y="28"/><rect y="29" width="1" height="1" x="100"/><rect height="1" x="117" y="29" width="1"/><rect x="138" y="29" width="1" height="1"/></g><g fill="#373737"><rect x="102" y="15" width="1" height="13"/><rect x="124" y="15" width="1" height="13"/><rect x="137" y="15" width="1" height="1"/><rect x="108" y="16" width="1" height="1"/><rect y="25" width="1" height="1" x="63"/><rect x="102" y="28" width="1" height="1"/><rect x="124" y="28" width="1" height="1"/><rect x="76" y="30" width="1" height="1"/></g></svg>