<?xml version="1.0" encoding="UTF-8"?>
<svg id="Layer_1" xmlns="http://www.w3.org/2000/svg" version="1.1" viewBox="0 0 790.313 172.75">
  <!-- Generator: Adobe Illustrator 30.0.0, SVG Export Plug-In . SVG Version: 2.1.1 Build 123)  -->
  <g id="grid">
    <rect x="0" y="0" width="46.398" height="46.398" rx="9.175" ry="9.175"/>
    <rect x="61.864" y="0" width="46.398" height="46.398" rx="9.175" ry="9.175"/>
    <rect x="123.728" y="0" width="46.398" height="46.398" rx="9.175" ry="9.175"/>
    <rect x="0" y="61.864" width="46.398" height="46.398" rx="9.175" ry="9.175"/>
    <rect x="61.864" y="61.864" width="46.398" height="46.398" rx="9.175" ry="9.175"/>
    <rect x="123.728" y="61.864" width="46.398" height="46.398" rx="9.175" ry="9.175"/>
    <rect x="0" y="123.728" width="46.398" height="46.398" rx="9.175" ry="9.175"/>
    <rect x="61.864" y="123.728" width="46.398" height="46.398" rx="9.175" ry="9.175"/>
    <rect x="123.728" y="123.728" width="46.398" height="46.398" rx="9.175" ry="9.175"/>
  </g>
  <path d="M280.509,172.734c-16.046,0-27.862-6.393-35.646-15.643v7.52c0,3.042-2.462,5.513-5.493,5.513h-17.354c-3.031,0-5.492-2.471-5.492-5.513V5.513c0-3.042,2.461-5.513,5.492-5.513h17.354c3.031,0,5.493,2.471,5.493,5.513v53.491c7.784-9.234,19.6-15.643,35.646-15.643,34.708,0,54.54,29.386,54.54,64.687s-19.831,64.687-54.54,64.687ZM244.14,104.496v7.351c0,22.993,13.216,36.026,30.693,36.026,20.539,0,31.631-16.106,31.631-39.809s-11.093-39.809-31.631-39.809c-17.477,0-30.693,12.801-30.693,36.258v-.015ZM387.62,5.513v159.115c0,3.042-2.463,5.513-5.494,5.513h-17.354c-3.031,0-5.492-2.471-5.492-5.513V5.513c0-3.042,2.462-5.513,5.492-5.513h17.354c3.031,0,5.494,2.471,5.494,5.513ZM531.423,108.048c0,38.621-24.788,64.687-59.726,64.687s-59.726-26.066-59.726-64.687,24.788-64.687,59.726-64.687,59.726,26.066,59.726,64.687ZM440.529,108.048c0,25.356,12.044,40.751,31.168,40.751s31.172-15.396,31.172-40.751-12.048-40.751-31.172-40.751-31.168,15.411-31.168,40.751ZM576.359,108.048c0,25.356,13.216,40.041,32.587,40.041,12.891,0,21.494-7.242,25.94-17.913,1.245-2.996,4.69-4.37,7.582-2.903l14.264,7.227c2.614,1.328,3.723,4.478,2.552,7.165-7.721,17.743-25.646,31.085-50.322,31.085-35.417,0-60.909-26.298-60.909-64.687s25.492-64.687,60.909-64.687c24.475,0,42.002,12.771,49.831,30.251,1.183,2.641.17,5.76-2.37,7.15l-13.985,7.644c-2.846,1.56-6.322.232-7.598-2.764-4.462-10.501-13.034-17.866-25.878-17.866-19.356,0-32.587,14.932-32.587,40.288l-.015-.031Z"/>
  <path d="M708.903,91.787V5.513c0-3.042-2.459-5.513-5.49-5.513h-17.353c-3.031,0-5.494,2.471-5.494,5.513v159.084c0,3.042,2.463,5.513,5.494,5.513h17.353c3.031,0,5.49-2.471,5.49-5.513v-33.061c0-.633.263-1.251.708-1.714l13.479-13.728c1.094-1.112,2.908-.927,3.77.37l33.77,51.175c1.013,1.544,2.722,2.471,4.57,2.471h19.615c4.385,0,6.998-4.91,4.57-8.57l-43.742-65.845c-.646-.957-.522-2.224.278-3.058l36.337-37.57c3.387-3.49.909-9.343-3.936-9.343h-19.309c-1.539,0-3,.649-4.044,1.791l-41.816,45.925c-1.508,1.652-4.249.587-4.249-1.653Z"/>
</svg>