<svg xmlns="http://www.w3.org/2000/svg" role="img" viewBox="-37.96 -37.96 1973.92 328.92"><path d="M207.74547 148.54682c40.83765 0 52.91335 3.86817 52.91335 23.93007v1.39743c0 19.36352-11.71838 23.93007-52.91335 23.93007H69.60346v-49.25757zM69.60346 55.62128h138.49667c35.15779 0 45.45486 4.92788 45.45486 21.47013v1.40796c0 15.83694-10.29707 20.76348-43.6789 20.76348H69.60346zm260.65762 127.06216v-5.29054c-.70932-37.30573-21.6608-51.03046-53.268-53.49333v-1.75942c28.7646-3.87244 46.16684-19.00406 46.16684-55.96047V62.6611c0-45.40153-30.54057-59.12785-107.60264-59.12785H0v246.3751h223.01576c79.19135 0 107.24532-17.61829 107.24532-67.22491m332.58635 67.2249v-57.01836h-202.4176V3.53325H390.8249v246.3751h272.02253m232.24886-49.63309h-16.69025c-87.71514-.34959-102.98676-17.24237-102.98676-69.3364v-8.095c0-52.44028 15.27162-69.3332 102.98676-69.68519h16.69025c87.35781.352 103.33742 17.2449 103.33742 69.6852v8.095c0 52.09402-15.9796 68.9868-103.33742 69.3364zm11.00906 53.15174c118.25437 0 162.99992-30.61803 162.99992-117.91425v-17.59703C1069.10527 30.63257 1024.35972.012 906.10535.012h-39.0657c-117.89705 0-162.6426 30.62057-162.6426 117.90372v17.59703c0 87.29622 44.74555 117.91425 162.6426 117.91425h39.0657m410.82306 0c100.50282 0 146.315-22.8833 155.90144-89.0603h-71.38489c-8.87978 25.70202-29.47926 35.90856-96.59225 35.90856h-13.84765c-84.16457 0-99.79084-17.24237-99.79084-69.3364v-8.095c0-52.44028 15.62627-69.68519 99.79084-69.68519h13.84765c67.11299 0 87.71247 10.20641 96.59225 35.89777h71.38488C1463.24342 22.8901 1417.43123.012 1316.92841.012h-38.35238c-115.05979 0-158.38404 30.62057-158.38404 117.90372v17.59703c0 87.29622 43.32425 117.91425 158.38404 117.91425h38.35238m284.36489-3.51866V172.4769l56.46525-32.73918h2.11995l135.66328 110.17063h102.98409l-179.34218-145.01363L1893.55266 3.53325h-106.18401l-184.30206 108.0493h-1.77329V3.53325h-69.6116v246.3751h69.6116" fill="#100f0d"/></svg>