<svg xmlns="http://www.w3.org/2000/svg" fill="none" viewBox="0 0 480 460"><g clip-path="url(#a)"><path fill="#14CC80" d="M320 160v160l160-80V80l-160 80Z"/><path fill="#30F2A2" d="M320 0v160l160-80L320 0Z"/><path fill="#14CC80" d="M160 80v160l160-80V0L160 80Z"/><path fill="#30F2A2" d="M0 0v160l160 80V80L0 0Z"/></g><path fill="#140D30" d="M0 458.345h38.543c19.106 0 28.602-7.826 28.602-23.591 0-8.377-4.197-14.994-11.154-17.968v-.22c5.19-2.757 8.284-8.267 8.284-14.883 0-12.017-9.607-20.504-22.862-20.504H0v77.166Zm14.248-45.639v-18.96h24.626c7.177 0 11.153 3.308 11.153 9.37 0 6.392-3.756 9.59-11.154 9.59H14.248Zm0 32.961v-21.606h25.4c8.945 0 13.253 3.529 13.253 10.693s-4.087 10.913-13.363 10.913h-25.29ZM75.957 433.875c0 16.314 9.94 26.125 26.173 26.125 8.724 0 15.681-2.757 20.539-7.716h.224v6.062h13.252v-58.424h-13.697v31.748c0 9.37-6.956 15.986-16.783 15.986-9.827 0-16.016-5.841-16.016-15.986v-31.748H75.958v33.953ZM148.238 458.346h13.696v-58.424h-13.696v58.424Zm-.552-68.348h14.579V376h-14.579v14.001-.003ZM174.234 458.346h13.693v-80.472h-13.693v80.472ZM198.126 429.134c0 18.078 13.142 30.866 31.583 30.866 8.725 0 15.905-2.867 20.433-7.826h.22v6.172h12.921v-80.472H249.59v27.558h-.22c-4.752-4.521-11.929-7.164-20.212-7.164-17.78 0-31.032 13.339-31.032 30.866Zm51.464 3.749c0 8.267-8.283 15.104-18.554 15.104-11.595 0-19.217-7.385-19.217-18.85 0-11.465 7.622-18.85 19.106-18.85 10.162 0 18.665 6.613 18.665 14.884v7.715-.003ZM275.393 458.346h13.696v-16.755l11.154-9.48h.22l21.315 26.235h17.007l-28.936-34.726 27.72-23.701h-19.547l-28.712 25.025h-.221v-47.07h-13.696v80.472ZM346.359 458.346h13.693v-58.424h-13.693v58.424Zm-.551-68.348h14.578V376h-14.578v14.001-.003ZM413.432 411.608v-11.686h-18.885v-14.111h-13.693v14.111h-13.473v11.686h13.473v29.873c0 11.796 5.413 16.865 18.775 16.865h11.264v-12.567h-10.161c-4.859 0-6.185-1.103-6.185-4.963v-29.208h18.885ZM417.272 429.355c0 18.519 12.48 30.645 32.248 30.645 12.036 0 21.425-4.411 28.161-13.119l-9.165-8.157c-5.413 6.724-11.267 9.921-19.106 9.921-10.713 0-18.114-5.951-18.555-15.103H480v-4.08c0-17.747-12.48-31.197-31.255-31.197s-31.473 12.898-31.473 31.086v.004Zm13.804-5.731c.885-8.267 8.062-14.001 17.893-14.001 9.83 0 16.783 5.734 17.559 14.001h-35.452Z"/><defs><clipPath id="a"><path fill="#fff" d="M0 0h480v320H0z"/></clipPath></defs></svg>