<svg xmlns="http://www.w3.org/2000/svg" role="img" viewBox="-5.99 -5.99 311.74 311.74"><defs><style>.cls-1{fill:#fff}</style></defs><g id="Layer_1-2"><path fill="#c41230" d="M0 0H300V300H0z"/><g><path d="M221.39 113.15L221.39 89.49 210.44 89.49 210.44 91.16 213.5 91.16 213.5 113.15 209.56 113.15 209.56 114.71 225.33 114.71 225.33 113.15 221.39 113.15zM65.66 74.21h-1.43c-.06 1.22-.7 1.74-1.91 1.74-2.44 0-5.99-2.96-10.16-2.96-11.88 0-19.06 11.7-19.06 22.02s6.84 20.63 18.31 20.63c6.95 0 9.56-3.3 11.41-3.3 1.22 0 1.44 1.07 1.44 2.38h1.57v-14.2h-1.57l-.35 1.97c-.81 4.69-4.46 11.63-11.93 11.63-6.61 0-9.15-5.71-9.15-19.79 0-14.78 3.48-19.75 9.33-19.75 6.61 0 11.15 7.4 12.08 13.31h1.43v-13.67zM85.98 107.91c-.11 3.03-1.83 5.51-4.52 5.51-3.89 0-4.06-3.28-4.06-5.79 0-3.03.34-5.03 4.06-5.43l4.52-.46v6.16zm10.43 1.89c0 1.49-.98 3.2-1.63 3.2-1.03 0-1.26-1.09-1.26-2.86v-13.15c0-6.51-6.12-8.11-12-8.11s-9.89 2.8-9.89 6c0 2 1.14 3.71 3.72 3.71 2.17 0 3.48-1.43 3.48-3.43 0-2.91-3.02-2.94-3.02-3.01 0-1.3 3.36-1.71 5.31-1.71 4.28 0 4.86 1.58 4.86 5.01v4.8l-5.6.46c-5.2.4-10.86 1.77-10.86 7.72 0 4.97 4.46 6.97 8.86 6.97 2.23 0 6.17-.86 7.66-3.6 1.03 2.4 3.14 3.6 5.72 3.6 3.71 0 6.11-2.23 6.11-5.6h-1.45zM227.51 211.39L227.51 187.73 215.68 187.73 215.68 189.4 219.63 189.4 219.63 211.39 215.68 211.39 215.68 212.96 231.46 212.96 231.46 211.39 227.51 211.39zM79.14 125.8l.04-1.62h-13.06l-9.47 27.09-9.21-27.12h-14.34v1.65h3.87v32.64c0 2.46-.6 4.36-3.87 4.36v1.58h9.88v-1.58h-.17c-3.08 0-4.29-.25-4.29-4.88v-32.4h.11l13.66 38.86h1.54l13.31-38.18h.11v36.6h-3.81v1.58h15.69v-1.58h-3.74v-37h3.74zM88.28 149v-3.84c0-3.83 1.66-5.03 3.6-5.03 2.75 0 3.6 1.89 3.6 5.03v3.84h-7.2zm0 1.55h15.77c-.06-6.17-5.77-12.12-11.77-12-6.74 0-12.57 5.83-12.57 13.54s5.43 12.97 12.74 12.97 10.52-4.34 11.77-10h-1.56c-1.26 5.31-4.04 8.33-8.5 8.33-5.31 0-5.89-4.16-5.89-8.05v-4.8zM153.93 197.57v-3.84c0-3.83 1.66-5.03 3.6-5.03 2.75 0 3.6 1.89 3.6 5.03v3.84h-7.2zm0 1.55h15.77c-.06-6.17-5.77-12.12-11.77-12-6.74 0-12.57 5.83-12.57 13.54s5.43 12.97 12.74 12.97 10.52-4.34 11.77-10h-1.56c-1.26 5.31-4.04 8.33-8.5 8.33-5.31 0-5.89-4.16-5.89-8.05v-4.8z" class="cls-1"/><path d="M104.15 124.24L104.15 125.69 108.09 125.69 108.09 162.77 104.15 162.77 104.15 164.38 119.92 164.38 119.92 162.77 115.98 162.77 115.98 124.24 104.15 124.24zM121.03 124.24L121.03 125.69 124.97 125.69 124.97 162.77 121.03 162.77 121.03 164.38 136.8 164.38 136.8 162.77 132.86 162.77 132.86 124.24 121.03 124.24zM154.93 157.46c0 4.29-1.77 6.06-4.69 6.06s-4.69-1.77-4.69-6.06v-11.25c0-4.29 1.77-6.06 4.69-6.06s4.69 1.77 4.69 6.06v11.25zm8.92-5.65c0-7.83-6.06-13.26-13.6-13.26s-13.6 5.43-13.6 13.26 6.06 13.26 13.6 13.26 13.6-5.43 13.6-13.26M33.1 174.21h4v25.39c0 8.86 6.11 14.23 15.43 14.23 10.52 0 15.09-5.54 15.09-13.94v-21.71c0-3.31.91-3.97 2.97-3.97h1.16v-1.53h-10.05v1.53h.72c2.91 0 3.32.88 3.32 4.2v22.05c0 7.77-4.82 11.32-9.72 11.32-8.34 0-10-5.6-10.5-12.92v-24.64h3.75v-1.53h-16.16v1.53zM132.11 213.6h1.54l8.46-20c1.71-3.73 2.63-4.21 3.94-4.27h.51v-1.56h-8.92v1.58h1.09c1.66 0 2.42-.11 2.42 1.38 0 .92-.29 1.82-.97 3.47l-3.88 9.15-6.22-14h3.17v-1.58h-14.34v1.58h2.69l10.52 24.25zM195.79 213.6h1.36c.28-.91.87-1.37 2.02-1.37 1.49 0 3.26 1.37 6.46 1.37 5.43 0 9.14-4.68 9.14-9.37 0-6.97-4.8-7.49-10.91-8.35-3.2-.46-5.01-.91-5.01-3.43 0-2.69 2.34-3.81 5.43-3.81 4.29 0 5.95 2.84 7.38 6.56h1.35v-8.12h-1.29c0 .69-.59 1.26-1.68 1.26-1.83 0-3.32-1.26-5.95-1.26-5.71 0-8.52 4.86-8.52 8.52 0 7.37 5.6 8 9.94 8.52 4.12.51 5.6.78 5.6 3.41 0 3.03-2.51 4.41-5.6 4.41-4.34 0-7.33-3.75-8.36-7.93h-1.36v9.6zM116.82 211.39L116.82 187.73 104.99 187.73 104.99 189.4 108.93 189.4 108.93 211.39 104.99 211.39 104.99 212.96 120.77 212.96 120.77 211.39 116.82 211.39zM108.94 179.85c0 2.19 1.75 3.94 3.94 3.94s3.94-1.75 3.94-3.94-1.75-3.94-3.94-3.94-3.94 1.75-3.94 3.94M219.61 179.85c0 2.19 1.75 3.94 3.94 3.94s3.94-1.75 3.94-3.94-1.75-3.94-3.94-3.94-3.94 1.75-3.94 3.94M165.18 99.33v-3.84c0-3.83 1.66-5.03 3.6-5.03 2.75 0 3.6 1.89 3.6 5.03v3.84h-7.2zm0 1.55h15.77c-.06-6.17-5.77-12.12-11.77-12-6.74 0-12.57 5.83-12.57 13.54s5.43 12.97 12.74 12.97 10.52-4.34 11.77-10h-1.56c-1.26 5.31-4.04 8.33-8.5 8.33-5.31 0-5.89-4.16-5.89-8.05v-4.8zM234.18 99.33v-3.84c0-3.83 1.66-5.03 3.6-5.03 2.05 0 3.6 1.18 3.6 5.03v3.84h-7.2zm0 1.55h15.77c-.06-6.17-5.77-12.12-11.77-12-6.74 0-12.57 5.83-12.57 13.54s5.43 12.97 12.74 12.97 10.52-4.34 11.77-10h-1.56c-1.26 5.31-4.04 8.33-8.5 8.33-5.31 0-5.89-4.16-5.89-8.05v-4.8zM99.93 211.41v-15.43c0-6.17-2.63-9.06-8.06-9.06-3.83 0-7.71 2.2-9.26 5.51h0v-4.63h-11.83v1.54h3.94v22.06h-3.94v1.54h15.2v-1.54h-3.37v-15.08c.49-2.12 3.18-7.02 6.3-7.02 2.08 0 3.13.72 3.13 4.55v17.55h-3.26v1.54h15.09v-1.54h-3.94z" class="cls-1"/><path d="M192.98 162.84v-15.43c0-6.17-2.63-9.06-8.06-9.06-3.83 0-7.71 2.2-9.26 5.51h0v-4.63h-11.83v1.54h3.94v22.06h-3.94v1.54h15.2v-1.54h-3.37v-15.08c.49-2.12 3.18-7.02 6.3-7.02 2.08 0 3.13.72 3.13 4.55v17.55h-3.26v1.54h15.09v-1.54h-3.94zM152.6 113.17v-15.43c0-6.17-2.63-9.06-8.06-9.06-3.83 0-7.71 2.2-9.26 5.51h0v-4.63h-11.83v1.54h3.94v22.06h-3.94v1.54h15.2v-1.54h-3.37v-15.08c.49-2.12 3.18-7.02 6.3-7.02 2.08 0 3.13.72 3.13 4.55v17.55h-3.26v1.54h15.09v-1.54h-3.94zM213.52 81.67c0 2.19 1.75 3.94 3.94 3.94s3.94-1.75 3.94-3.94-1.75-3.94-3.94-3.94-3.94 1.75-3.94 3.94M265.87 187.74v1.66c2.43 0 3.5.22 3.5 1.33 0 .92-.29 1.82-.97 3.47l-3.88 9.15-6.2-13.94h3.25v-1.66h-19.7v-12.26h-1.03c0 6.06-4.11 12.29-9.89 12.29v1.63h3.03v17.68c0 5.43 4.68 6.51 6.28 6.51 3.49 0 5.83-1.43 7.6-4.4l-1.22-.67c-.69 1.03-1.6 2.4-3.03 2.4-1.14 0-1.75-.81-1.75-2.7v-18.83h7.97l10.44 24.08-3.61 8.51v.02s-.01 0-.01 0h0c-.08.16-.24.27-.43.27-.21 0-.38-.14-.45-.32 0 0 0-.02 0-.02-.47-1.65-1.96-2.86-3.77-2.86-2.19 0-3.94 1.75-3.94 3.94 0 1.54.87 2.85 2.15 3.49 0 0-.01 0-.02 0 .04.02.08.04.12.06.08.04.15.07.23.1.44.18.92.29 1.43.3 3.32.28 5.01-2.17 6.19-4.66.27-.57.5-1.14.73-1.68.5-1.21 1.38-3.29 2.41-5.71h0s.99-2.33.99-2.33h0s8.04-19 8.04-19c1.71-3.73 2.37-4.21 4.45-4.21h0v-1.64h-8.92zM117.69 88.61c-3.66 0-6.46 2.51-7.54 5.37h-.11v-4.35h-11.72v1.6h3.94v21.99h-3.94v1.56h17.09v-1.56h-5.26v-12.31c0-3.68.96-7.44 3.38-9.51.14-.1.33-.13.49-.05.19.09.28.29.26.49h0c-.16.45-.28.99-.31 1.64-.08 2.07 1.66 3.71 3.89 3.71 2.74 0 4.34-2 4.34-4.17 0-2.74-1.83-4.4-4.51-4.4zM203.71 90.47c.11-.03.26-.09.34 0s.08.2.02.31h0c-.35.59-.48 1.32-.21 2.11.26.77.93 1.38 1.73 1.56 1.63.37 3.06-.83 3.06-2.4 0-1.01-.63-1.77-1.35-2.23-.72-.45-1.58-.66-2.52-.66-1.52 0-3.08.82-4.2 1.79 0 0 0 0 0 0-.26-.19-.53-.36-.81-.53-1.57-.92-3.62-1.53-6.33-1.53-4.8 0-9.94 3.14-9.94 8.34 0 3.14 1.72 5.6 4.74 6.97v.11c-2.23.28-5.72 1.83-5.72 6.57 0 2.86 1.31 5.03 3.72 5.72v.11c-2.29.63-4.92 2.92-4.92 5.66 0 4.23 4.97 7.49 11.32 7.49 7.94 0 13.14-5.37 13.14-12.34 0-5.54-2.74-8.06-8.34-7.94h-9.49c-1.43 0-2.38-.06-2.38-1.6 0-1.43 2.19-2.97 4.36-2.97.38 0 1 .29 1.16.34.69.22 1.43.34 2.35.34 4.91 0 10.17-2.8 10.17-8.23 0-1.68-.73-3.97-2.09-5.4-.08-.09-.08-.22.02-.29.55-.44 1.19-.8 1.49-.97.25-.14.44-.24.67-.31h.02zm-7.59 26.29c5.72 0 7.23.24 7.23 3.73 0 4.17-5.11 8-10.88 8-5.15 0-7.61-3.15-7.73-5.9 0-2.51 1.25-4.17 2.79-5.83h8.58zm.97-19.52c0 6.64-1.54 6.86-3.6 6.86-2.29 0-3.49-.44-3.49-7.04 0-4.63.51-6.6 3.49-6.6 2.68 0 3.54.18 3.6 6.75v.02zM189.72 186.71c-3.66 0-6.46 2.51-7.54 5.37h-.11v-4.35h-11.72v1.6h3.94v21.99h-3.94v1.56h17.09v-1.56h-5.26v-12.31c0-3.67.96-7.43 3.37-9.51.14-.1.33-.13.49-.05.19.09.28.29.26.49v.02c-.14.44-.27.97-.29 1.61-.08 2.07 1.66 3.71 3.89 3.71 2.74 0 4.34-2 4.34-4.17 0-2.74-1.83-4.4-4.52-4.4z" class="cls-1"/></g></g></svg>