<?xml version="1.0" encoding="UTF-8" standalone="no"?>
<svg
   xmlns:dc="http://purl.org/dc/elements/1.1/"
   xmlns:cc="http://creativecommons.org/ns#"
   xmlns:rdf="http://www.w3.org/1999/02/22-rdf-syntax-ns#"
   xmlns:svg="http://www.w3.org/2000/svg"
   xmlns="http://www.w3.org/2000/svg"
   xmlns:sodipodi="http://sodipodi.sourceforge.net/DTD/sodipodi-0.dtd"
   xmlns:inkscape="http://www.inkscape.org/namespaces/inkscape"
   version="1.1"
   id="svg2"
   xml:space="preserve"
   width="1122.52"
   height="793.70667"
   viewBox="0 0 1122.52 793.70667"
   sodipodi:docname="Catanacyber_vert_noir_V5.ai"><metadata
     id="metadata8"><rdf:RDF><cc:Work
         rdf:about=""><dc:format>image/svg+xml</dc:format><dc:type
           rdf:resource="http://purl.org/dc/dcmitype/StillImage" /></cc:Work></rdf:RDF></metadata><defs
     id="defs6"><clipPath
       clipPathUnits="userSpaceOnUse"
       id="clipPath18"><path
         d="M 0,0 H 841.89 V 595.281 H 0 Z"
         id="path16" /></clipPath></defs><sodipodi:namedview
     pagecolor="#ffffff"
     bordercolor="#666666"
     borderopacity="1"
     objecttolerance="10"
     gridtolerance="10"
     guidetolerance="10"
     inkscape:pageopacity="0"
     inkscape:pageshadow="2"
     inkscape:window-width="640"
     inkscape:window-height="480"
     id="namedview4" /><g
     id="g10"
     inkscape:groupmode="layer"
     inkscape:label="Catanacyber_vert_noir_V5"
     transform="matrix(1.3333333,0,0,-1.3333333,0,793.70667)"><g
       id="g12"><g
         id="g14"
         clip-path="url(#clipPath18)"><g
           id="g20"
           transform="translate(627.8447,229.9121)"><path
             d="m 0,0 c -12.508,-7.235 -27.027,-11.376 -42.518,-11.376 -46.964,0 -85.039,38.073 -85.039,85.039 0,46.966 38.075,85.04 85.039,85.04 15.491,0 30.01,-4.14 42.517,-11.375"
             style="fill:none;stroke:#66c430;stroke-width:20;stroke-linecap:square;stroke-linejoin:miter;stroke-miterlimit:4;stroke-dasharray:none;stroke-opacity:1"
             id="path22" /></g><g
           id="g24"
           transform="translate(463.4619,203.6748)"><path
             d="m 0,0 c -16.677,-9.647 -36.041,-15.169 -56.693,-15.169 -62.621,0 -113.386,50.765 -113.386,113.386 0,62.621 50.765,113.387 113.386,113.387 20.652,0 40.016,-5.522 56.693,-15.17"
             style="fill:none;stroke:#231f20;stroke-width:20;stroke-linecap:square;stroke-linejoin:miter;stroke-miterlimit:4;stroke-dasharray:none;stroke-opacity:1"
             id="path26" /></g><g
           id="g28"
           transform="translate(346.6362,363.7065)"><path
             d="m 0,0 c -11.07,-11.07 -29.018,-11.069 -40.088,0 -11.07,11.07 -11.07,29.018 0,40.088 11.069,11.07 29.018,11.07 40.088,0 C 11.069,29.018 11.069,11.07 0,0"
             style="fill:#ffffff;fill-opacity:1;fill-rule:nonzero;stroke:#231f20;stroke-width:1;stroke-linecap:butt;stroke-linejoin:miter;stroke-miterlimit:4;stroke-dasharray:none;stroke-opacity:1"
             id="path30" /></g><g
           id="g32"
           transform="translate(346.6362,363.7065)"><path
             d="m 0,0 c -11.07,-11.07 -29.018,-11.069 -40.088,0 -11.07,11.07 -11.07,29.018 0,40.088 11.069,11.07 29.018,11.07 40.088,0 C 11.069,29.018 11.069,11.07 0,0 Z"
             style="fill:none;stroke:#231f20;stroke-width:10;stroke-linecap:butt;stroke-linejoin:miter;stroke-miterlimit:4;stroke-dasharray:none;stroke-opacity:1"
             id="path34" /></g><g
           id="g36"
           transform="translate(321.73,303.5752)"><path
             d="m 0,0 c -0.001,-15.655 -12.691,-28.346 -28.348,-28.347 -15.655,0 -28.345,12.692 -28.345,28.347 -0.001,15.655 12.69,28.346 28.345,28.347 C -12.692,28.346 -0.001,15.655 0,0"
             style="fill:#ffffff;fill-opacity:1;fill-rule:nonzero;stroke:#231f20;stroke-width:1;stroke-linecap:butt;stroke-linejoin:miter;stroke-miterlimit:4;stroke-dasharray:none;stroke-opacity:1"
             id="path38" /></g><g
           id="g40"
           transform="translate(321.73,303.5752)"><path
             d="m 0,0 c -0.001,-15.655 -12.691,-28.346 -28.348,-28.347 -15.655,0 -28.345,12.692 -28.345,28.347 -0.001,15.655 12.69,28.346 28.345,28.347 C -12.692,28.346 -0.001,15.655 0,0 Z"
             style="fill:none;stroke:#231f20;stroke-width:10;stroke-linecap:butt;stroke-linejoin:miter;stroke-miterlimit:4;stroke-dasharray:none;stroke-opacity:1"
             id="path42" /></g><g
           id="g44"
           transform="translate(208.3442,303.5752)"><path
             d="m 0,0 c -0.001,-15.655 -12.691,-28.346 -28.348,-28.347 -15.655,0 -28.345,12.692 -28.345,28.347 -0.001,15.655 12.69,28.346 28.345,28.347 C -12.692,28.346 -0.001,15.655 0,0"
             style="fill:#66c430;fill-opacity:1;fill-rule:nonzero;stroke:none"
             id="path46" /></g><g
           id="g48"
           transform="translate(732.7529,303.5752)"><path
             d="m 0,0 c -0.002,-15.655 -12.691,-28.346 -28.348,-28.347 -15.656,0 -28.345,12.692 -28.345,28.347 0,15.655 12.689,28.346 28.345,28.347 C -12.691,28.346 -0.002,15.655 0,0"
             style="fill:#231f20;fill-opacity:1;fill-rule:nonzero;stroke:none"
             id="path50" /></g><g
           id="g52"
           transform="translate(346.6362,243.4434)"><path
             d="m 0,0 c 11.069,-11.07 11.069,-29.018 0,-40.09 -11.07,-11.07 -29.019,-11.068 -40.088,0.002 -11.07,11.068 -11.07,29.016 -10e-4,40.086 C -29.018,11.068 -11.07,11.068 0,0"
             style="fill:#ffffff;fill-opacity:1;fill-rule:nonzero;stroke:#231f20;stroke-width:1;stroke-linecap:butt;stroke-linejoin:miter;stroke-miterlimit:4;stroke-dasharray:none;stroke-opacity:1"
             id="path54" /></g><g
           id="g56"
           transform="translate(346.6362,243.4434)"><path
             d="m 0,0 c 11.069,-11.07 11.069,-29.018 0,-40.09 -11.07,-11.07 -29.019,-11.068 -40.088,0.002 -11.07,11.068 -11.07,29.016 -10e-4,40.086 C -29.018,11.068 -11.07,11.068 0,0 Z"
             style="fill:none;stroke:#231f20;stroke-width:10;stroke-linecap:butt;stroke-linejoin:miter;stroke-miterlimit:4;stroke-dasharray:none;stroke-opacity:1"
             id="path58" /></g><g
           id="g60"
           transform="translate(406.7676,218.5381)"><path
             d="m 0,0 c 15.655,-0.002 28.347,-12.691 28.349,-28.349 0,-15.655 -12.694,-28.345 -28.348,-28.345 -15.655,-10e-4 -28.346,12.69 -28.347,28.344 C -28.345,-12.693 -15.654,-0.002 0,0"
             style="fill:#ffffff;fill-opacity:1;fill-rule:nonzero;stroke:#231f20;stroke-width:1;stroke-linecap:butt;stroke-linejoin:miter;stroke-miterlimit:4;stroke-dasharray:none;stroke-opacity:1"
             id="path62" /></g><g
           id="g64"
           transform="translate(406.7676,218.5381)"><path
             d="m 0,0 c 15.655,-0.002 28.347,-12.691 28.349,-28.349 0,-15.655 -12.694,-28.345 -28.348,-28.345 -15.655,-10e-4 -28.346,12.69 -28.347,28.344 C -28.345,-12.693 -15.654,-0.002 0,0 Z"
             style="fill:none;stroke:#231f20;stroke-width:10;stroke-linecap:butt;stroke-linejoin:miter;stroke-miterlimit:4;stroke-dasharray:none;stroke-opacity:1"
             id="path66" /></g><g
           id="g68"
           transform="translate(585.3252,358.5845)"><path
             d="m 0,0 c -15.654,0 -28.346,12.691 -28.346,28.346 0,15.655 12.692,28.347 28.346,28.347 15.656,0 28.349,-12.692 28.349,-28.347 C 28.349,12.691 15.656,0 0,0"
             style="fill:#ffffff;fill-opacity:1;fill-rule:nonzero;stroke:#66c430;stroke-width:1;stroke-linecap:butt;stroke-linejoin:miter;stroke-miterlimit:4;stroke-dasharray:none;stroke-opacity:1"
             id="path70" /></g><g
           id="g72"
           transform="translate(585.3252,358.5845)"><path
             d="m 0,0 c -15.654,0 -28.346,12.691 -28.346,28.346 0,15.655 12.692,28.347 28.346,28.347 15.656,0 28.349,-12.692 28.349,-28.347 C 28.349,12.691 15.656,0 0,0 Z"
             style="fill:none;stroke:#66c430;stroke-width:10;stroke-linecap:butt;stroke-linejoin:miter;stroke-miterlimit:4;stroke-dasharray:none;stroke-opacity:1"
             id="path74" /></g><g
           id="g76"
           transform="translate(536.2275,330.2368)"><path
             d="m 0,0 c -7.826,-13.559 -25.163,-18.203 -38.721,-10.375 -13.557,7.828 -18.205,25.163 -10.376,38.721 7.827,13.558 25.163,18.203 38.722,10.376 C 3.183,30.895 7.829,13.558 0,0"
             style="fill:#ffffff;fill-opacity:1;fill-rule:nonzero;stroke:#231f20;stroke-width:1;stroke-linecap:butt;stroke-linejoin:miter;stroke-miterlimit:4;stroke-dasharray:none;stroke-opacity:1"
             id="path78" /></g><g
           id="g80"
           transform="translate(536.2275,330.2368)"><path
             d="m 0,0 c -7.826,-13.559 -25.163,-18.203 -38.721,-10.375 -13.557,7.828 -18.205,25.163 -10.376,38.721 7.827,13.558 25.163,18.203 38.722,10.376 C 3.183,30.895 7.829,13.558 0,0 Z"
             style="fill:none;stroke:#66c430;stroke-width:10;stroke-linecap:butt;stroke-linejoin:miter;stroke-miterlimit:4;stroke-dasharray:none;stroke-opacity:1"
             id="path82" /></g><g
           id="g84"
           transform="translate(536.2275,273.5449)"><path
             d="m 0,0 c 7.829,-13.561 3.183,-30.895 -10.375,-38.721 -13.559,-7.828 -30.895,-3.184 -38.722,10.374 -7.829,13.557 -3.181,30.894 10.375,38.722 C -25.166,18.202 -7.826,13.557 0,0"
             style="fill:#ffffff;fill-opacity:1;fill-rule:nonzero;stroke:#231f20;stroke-width:1;stroke-linecap:butt;stroke-linejoin:miter;stroke-miterlimit:4;stroke-dasharray:none;stroke-opacity:1"
             id="path86" /></g><g
           id="g88"
           transform="translate(536.2275,273.5449)"><path
             d="m 0,0 c 7.829,-13.561 3.183,-30.895 -10.375,-38.721 -13.559,-7.828 -30.895,-3.184 -38.722,10.374 -7.829,13.557 -3.181,30.894 10.375,38.722 C -25.166,18.202 -7.826,13.557 0,0 Z"
             style="fill:none;stroke:#66c430;stroke-width:10;stroke-linecap:butt;stroke-linejoin:miter;stroke-miterlimit:4;stroke-dasharray:none;stroke-opacity:1"
             id="path90" /></g><g
           id="g92"
           transform="translate(585.3271,245.2002)"><path
             d="M 0,0 C 15.656,0 28.347,-12.691 28.347,-28.344 28.347,-44 15.656,-56.691 0,-56.693 c -15.653,0 -28.346,12.691 -28.346,28.347 C -28.346,-12.693 -15.653,0 0,0"
             style="fill:#ffffff;fill-opacity:1;fill-rule:nonzero;stroke:#231f20;stroke-width:1;stroke-linecap:butt;stroke-linejoin:miter;stroke-miterlimit:4;stroke-dasharray:none;stroke-opacity:1"
             id="path94" /></g><g
           id="g96"
           transform="translate(585.3271,245.2002)"><path
             d="M 0,0 C 15.656,0 28.347,-12.691 28.347,-28.344 28.347,-44 15.656,-56.691 0,-56.693 c -15.653,0 -28.346,12.691 -28.346,28.347 C -28.346,-12.693 -15.653,0 0,0 Z"
             style="fill:none;stroke:#66c430;stroke-width:10;stroke-linecap:butt;stroke-linejoin:miter;stroke-miterlimit:4;stroke-dasharray:none;stroke-opacity:1"
             id="path98" /></g><g
           id="g100"
           transform="translate(406.7681,385.2476)"><path
             d="m 0,0 c -15.656,0 -28.345,12.691 -28.345,28.347 0,15.655 12.689,28.346 28.345,28.346 15.656,0 28.346,-12.691 28.346,-28.346 C 28.346,12.691 15.656,0 0,0"
             style="fill:#ffffff;fill-opacity:1;fill-rule:nonzero;stroke:#231f20;stroke-width:1;stroke-linecap:butt;stroke-linejoin:miter;stroke-miterlimit:4;stroke-dasharray:none;stroke-opacity:1"
             id="path102" /></g><g
           id="g104"
           transform="translate(406.7681,385.2476)"><path
             d="m 0,0 c -15.656,0 -28.345,12.691 -28.345,28.347 0,15.655 12.689,28.346 28.345,28.346 15.656,0 28.346,-12.691 28.346,-28.346 C 28.346,12.691 15.656,0 0,0 Z"
             style="fill:none;stroke:#231f20;stroke-width:10;stroke-linecap:butt;stroke-linejoin:miter;stroke-miterlimit:4;stroke-dasharray:none;stroke-opacity:1"
             id="path106" /></g></g></g></g></svg>
