<svg width="473" height="77" viewBox="0 0 473 77" fill="none" xmlns="http://www.w3.org/2000/svg">
<g style="mix-blend-mode:plus-lighter">
<path d="M123.786 61.2857C108.928 61.2857 99.428 51.6426 99.428 34.6421C99.428 18.5702 110.143 8.71279 124.286 8.71279C136.501 8.71279 145.286 15.713 146.572 27.5705H136.858C135.929 21.0703 131.643 16.6416 124.286 16.6416C115.428 16.6416 109.071 23.4275 109.071 34.6421C109.071 46.2853 115.357 53.3569 124.072 53.3569C131.5 53.3569 136.429 48.5711 137.429 41.928H146.787C145.572 53.4998 137.215 61.2857 123.786 61.2857ZM153.598 60V9.99854H162.312V26.7133C162.312 27.7133 162.241 28.7848 162.026 30.142C163.955 26.6419 167.241 23.9989 172.741 23.9989C180.455 23.9989 185.027 29.4277 185.027 37.9993V60H176.312V39.2851C176.312 34.1421 173.812 30.9277 169.741 30.9277C165.455 30.9277 162.312 34.7135 162.312 39.5708V60H153.598ZM203.781 61.2857C197.709 61.2857 191.781 57.2856 191.781 50.4283C191.781 42.5709 197.852 39.8565 205.352 38.8565L210.352 38.2136C213.21 37.8565 214.21 36.785 214.21 35.0707C214.21 32.642 212.21 30.4991 208.495 30.4991C204.424 30.4991 201.852 32.7849 201.495 36.4279H192.495C193.066 29.1419 198.995 23.9989 207.995 23.9989C218.638 23.9989 222.924 29.7134 222.924 39.4994V60H214.853V58.5714C214.853 57.4285 214.995 56.357 215.21 55.2141C213.353 58.6428 209.781 61.2857 203.781 61.2857ZM206.138 54.857C210.781 54.857 214.495 51.4283 214.495 46.4996V42.7138C213.71 43.4281 212.495 43.7852 210.352 44.2138L207.495 44.7853C203.424 45.571 200.638 46.9282 200.638 50.0711C200.638 53.1426 203.067 54.857 206.138 54.857ZM231.446 60V25.1418H240.16V60H231.446ZM231.231 19.856V10.7128H240.303V19.856H231.231ZM249.164 60V25.1418H257.878V26.7133C257.878 27.7133 257.807 28.7848 257.593 30.142C259.521 26.6419 262.807 23.9989 268.307 23.9989C276.022 23.9989 280.593 29.4277 280.593 37.9993V60H271.879V39.2851C271.879 34.1421 269.379 30.9277 265.307 30.9277C261.021 30.9277 257.878 34.7135 257.878 39.5708V60H249.164ZM304.776 75.8576C294.49 75.8576 288.633 70.3574 288.633 62.4286H297.49C297.633 66.5716 300.276 69.0002 304.99 69.0002C309.562 69.0002 313.419 66.2859 313.419 61.0714V57.2856C313.419 55.7141 313.49 54.2855 313.705 52.9283C311.633 56.0713 308.276 58.7142 302.847 58.7142C293.776 58.7142 287.204 52.3569 287.204 41.3566C287.204 30.4991 294.776 23.9989 302.419 23.9989C308.562 23.9989 311.633 26.499 313.705 30.142C313.49 28.9277 313.419 27.9991 313.419 26.7133V25.1418H322.134V58.9285C322.134 70.3574 315.062 75.8576 304.776 75.8576ZM305.062 51.7854C310.205 51.7854 313.919 47.4282 313.919 41.3566C313.919 35.285 310.205 30.9277 305.062 30.9277C299.776 30.9277 296.061 35.285 296.061 41.3566C296.061 47.4282 299.776 51.7854 305.062 51.7854ZM343.201 61.2857C336.201 61.2857 330.701 56.4999 330.701 47.2853V25.1418H339.487V45.9281C339.487 50.7854 341.63 54.2855 345.844 54.2855C350.273 54.2855 353.416 50.9997 353.416 45.8567V25.1418H362.13V60H353.487V58.5714C353.487 57.4999 353.63 56.2856 353.844 55.2141C352.059 58.5714 348.987 61.2857 343.201 61.2857ZM381.241 61.2857C375.17 61.2857 369.241 57.2856 369.241 50.4283C369.241 42.5709 375.313 39.8565 382.813 38.8565L387.813 38.2136C390.67 37.8565 391.67 36.785 391.67 35.0707C391.67 32.642 389.67 30.4991 385.956 30.4991C381.884 30.4991 379.313 32.7849 378.956 36.4279H369.955C370.527 29.1419 376.455 23.9989 385.456 23.9989C396.099 23.9989 400.385 29.7134 400.385 39.4994V60H392.313V58.5714C392.313 57.4285 392.456 56.357 392.67 55.2141C390.813 58.6428 387.241 61.2857 381.241 61.2857ZM383.599 54.857C388.241 54.857 391.956 51.4283 391.956 46.4996V42.7138C391.17 43.4281 389.956 43.7852 387.813 44.2138L384.956 44.7853C380.884 45.571 378.098 46.9282 378.098 50.0711C378.098 53.1426 380.527 54.857 383.599 54.857ZM408.906 60V25.1418H417.621V27.7848C417.621 29.0705 417.549 30.142 417.335 31.4277C419.192 27.499 422.335 23.9989 427.55 23.9989C428.264 23.9989 428.835 24.0704 429.407 24.2132V32.642C428.835 32.4992 428.05 32.3563 426.907 32.3563C421.549 32.3563 417.621 35.0707 417.621 42.7138V60H408.906ZM447.878 61.2857C438.663 61.2857 431.949 54.9998 431.949 42.7138C431.949 30.2134 439.877 23.9989 448.021 23.9989C453.449 23.9989 456.806 26.7847 458.807 30.142C458.521 28.8562 458.521 27.7848 458.521 26.7133V9.99854H467.235V60H458.521V58.5714C458.521 57.357 458.521 56.4284 458.807 55.2141C457.449 57.7856 454.306 61.2857 447.878 61.2857ZM449.949 54.4284C455.164 54.4284 459.021 49.6425 459.021 42.6423C459.021 35.4993 455.164 30.9277 449.949 30.9277C444.735 30.9277 440.806 35.7136 440.806 42.6423C440.806 49.8568 444.735 54.4284 449.949 54.4284Z" fill="#14003D"/>
<path fill-rule="evenodd" clip-rule="evenodd" d="M63.8117 43.4161C64.4209 41.3148 64.7521 39.0121 64.7521 36.5076C64.7521 20.8425 51.7979 3.21051 38.86 3.21051C25.9221 3.21051 12.9679 20.8425 12.9679 36.5076C12.9679 39.9231 13.5837 42.9631 14.6809 45.629L6.9039 45.1916C3.73633 45.0135 0.81806 47.2718 1.3121 50.4058C1.50372 51.6213 1.86889 52.8654 2.52107 53.94C0.319426 55.4887 -0.57993 58.3356 1.20401 60.5669C2.99486 62.8068 5.6243 64.8708 9.23358 64.8708C13.1484 64.8708 15.5044 63.859 16.9352 62.5884C17.0396 63.1434 17.2551 63.6897 17.5952 64.206C19.3522 66.8734 22.2622 69.806 26.5644 69.806C33.8828 69.806 34.699 65.2093 35.1086 62.9027C35.1406 62.7222 35.1701 62.5558 35.2001 62.4067L40.0908 59.9608L44.9814 62.4067C45.0114 62.5557 45.0409 62.722 45.0729 62.9022L45.073 62.9027C45.4826 65.2093 46.2988 69.806 53.6172 69.806C57.9193 69.806 60.8293 66.8734 62.5864 64.206C62.6555 64.1011 62.7194 63.9949 62.7784 63.8877C64.157 64.4837 65.9821 64.8708 68.4036 64.8708C72.0129 64.8708 74.6423 62.8068 76.4331 60.5669C78.6266 57.8234 76.7635 54.1494 73.4108 53.1018L72.303 52.7556C75.5561 51.0697 76.0348 47.8899 75.6863 45.1037C75.2926 41.9555 71.8629 40.5945 68.8689 41.6438L63.8117 43.4161ZM40.0954 59.9152C40.0925 59.9153 40.0896 59.9154 40.0867 59.9155L40.0908 59.9177L40.0954 59.9152Z" fill="#14003D"/>
</g>
</svg>
