<svg width="722" height="94" viewBox="0 0 722 94" fill="none" xmlns="http://www.w3.org/2000/svg">
<path d="M0.0160522 49.2869C0.0160522 18.3869 10.0161 4.78691 32.8161 4.78691C53.3161 4.78691 63.1161 15.8869 64.0161 39.0869H47.1161C46.5161 26.1869 42.0161 20.2869 32.8161 20.2869C22.0161 20.2869 17.6161 28.2869 17.6161 49.2869C17.6161 70.8869 21.7161 78.2869 32.8161 78.2869C42.3161 78.2869 46.6161 72.9869 47.3161 59.2869H64.4161C63.4161 82.6869 53.2161 93.7869 32.7161 93.7869C10.0161 93.7869 0.0160522 80.1869 0.0160522 49.2869ZM79.3161 0.586914H95.9161V22.1869L94.4161 32.7869L97.9161 33.6869L101.516 30.0869C104.616 26.9869 108.916 25.7869 114.716 25.7869C128.616 25.7869 135.316 33.0869 135.316 47.6869V91.7869H118.716V52.0869C118.716 44.0869 115.216 40.4869 107.916 40.4869C100.016 40.4869 96.1161 44.3869 96.1161 52.0869V91.7869H79.3161V0.586914ZM151.816 59.3869C151.816 36.5869 162.516 25.7869 182.916 25.7869C204.016 25.7869 213.716 37.0869 211.416 62.2869H168.316C168.916 75.0869 173.516 80.4869 183.116 80.4869C190.116 80.4869 194.816 77.6869 195.916 71.8869H211.216C209.716 85.2869 199.516 93.0869 182.616 93.0869C162.416 92.9869 151.816 82.0869 151.816 59.3869ZM196.116 51.7869C195.916 42.8869 191.516 38.0869 182.916 38.0869C174.616 38.0869 170.116 42.3869 168.616 51.7869H196.116ZM226.316 59.3869C226.316 36.5869 236.916 25.7869 257.116 25.7869C275.616 25.7869 285.316 34.8869 285.816 51.7869H269.716C269.016 43.4869 264.816 39.7869 257.116 39.7869C247.616 39.7869 243.416 45.4869 243.416 59.3869C243.416 73.2869 247.616 78.9869 257.116 78.9869C264.916 78.9869 269.216 75.2869 269.816 66.2869H286.216C285.716 83.7869 275.716 92.9869 257.116 92.9869C236.816 92.9869 226.316 82.0869 226.316 59.3869ZM327.116 64.5869H319.816V91.7869H303.216V0.586914H319.816V49.7869H327.316L344.316 26.9869H363.316L341.216 57.1869L364.016 91.7869H344.416L327.116 64.5869ZM486.716 74.2869C486.716 61.4869 495.216 54.6869 510.016 54.6869H526.916V49.8869C526.916 41.8869 523.316 38.5869 515.916 38.5869C509.616 38.5869 505.216 41.0869 504.716 47.0869H489.716C490.216 33.6869 499.616 25.7869 517.316 25.7869C535.016 25.7869 543.516 33.3869 543.516 49.1869V91.7869H530.716L529.116 85.0869H525.516L521.916 88.6869C518.916 91.6869 514.316 92.9869 508.016 92.9869C494.116 92.9869 486.716 86.3869 486.716 74.2869ZM513.516 80.5869C522.016 80.5869 526.816 76.1869 526.816 68.3869V64.2869H514.116C507.116 64.2869 503.516 67.2869 503.516 72.6869C503.616 77.4869 506.416 80.5869 513.516 80.5869ZM559.516 77.7869H577.416V40.8869H561.616V26.9869H589.316L590.916 33.6869H594.616L598.216 30.0869C601.216 26.9869 605.816 25.7869 611.916 25.7869H622.416V40.6869H606.016C598.116 40.6869 594.016 44.4869 594.016 51.4869V77.6869H614.716V91.6869H559.516V77.7869ZM452.916 25.7869C447.016 25.7869 442.316 26.9869 439.216 30.0869L435.616 33.6869H434.516H431.116C427.816 28.3869 421.916 25.7869 413.416 25.7869C407.516 25.7869 402.816 26.9869 399.716 30.0869L396.116 33.6869H392.516L390.816 26.9869H378.516V91.7869H395.116V52.0869C395.116 44.4869 399.016 40.4869 406.916 40.4869C414.316 40.4869 417.716 44.0869 417.716 52.0869V91.7869H434.316V51.8869L434.416 51.9869C434.416 44.3869 438.416 40.4869 446.216 40.4869C453.616 40.4869 457.016 44.0869 457.016 52.0869V91.7869H473.616V47.6869C473.916 32.9869 467.016 25.7869 452.916 25.7869Z" fill="#1D2F7B"/>
<mask id="mask0_3142:5749" style="mask-type:alpha" maskUnits="userSpaceOnUse" x="634" y="6" width="88" height="89">
<path d="M719.616 9.68697C718.116 7.88697 715.916 6.78697 713.616 6.68697C711.316 6.58697 709.016 7.48697 707.316 9.18697L670.316 49.287C669.516 50.087 668.116 50.087 667.416 49.387L648.416 27.287L648.316 27.187C646.716 25.587 644.416 24.687 642.116 24.787C639.816 24.887 637.616 25.987 636.116 27.787C634.816 29.387 634.116 31.487 634.316 33.587C634.516 35.687 635.416 37.587 636.916 39.087L658.816 57.887C659.216 58.287 659.416 58.787 659.416 59.387C659.416 59.987 659.216 60.487 658.916 60.787L637.016 79.587L636.916 79.687C635.316 81.287 634.416 83.487 634.416 85.687C634.416 88.087 635.316 90.187 636.916 91.787C637.716 92.487 638.616 93.087 639.616 93.487C641.516 94.187 643.816 94.187 645.716 93.387C646.716 92.987 647.616 92.387 648.516 91.487L667.516 69.387C668.316 68.587 669.616 68.587 670.316 69.287L689.316 91.387L689.416 91.487C690.216 92.287 691.116 92.887 692.116 93.287C693.116 93.687 694.116 93.887 695.216 93.887C696.216 93.887 697.216 93.687 698.216 93.287C699.216 92.887 700.116 92.387 700.916 91.587C702.616 89.987 703.516 87.887 703.416 85.487C703.416 83.287 702.416 81.087 700.816 79.387L678.916 60.587C678.516 60.187 678.316 59.687 678.316 59.087C678.316 58.487 678.516 57.987 678.816 57.687L718.816 20.687C720.316 19.187 721.216 17.287 721.316 15.187C721.616 13.387 721.016 11.287 719.616 9.68697Z" fill="#231F20"/>
</mask>
<g mask="url(#mask0_3142:5749)">
<path d="M639.003 58.7333H739.891L733.441 -18.3459L640.084 -0.745474L624.778 23.7419L639.003 58.7333Z" fill="#E0617F"/>
<path d="M636.109 101.326L705.118 95.0329L699.411 58.5166L639.977 58.5159L624.762 87.7124L636.109 101.326Z" fill="url(#paint0_linear_3142:5749)"/>
</g>
<defs>
<linearGradient id="paint0_linear_3142:5749" x1="684.78" y1="47.201" x2="682.623" y2="128.542" gradientUnits="userSpaceOnUse">
<stop stop-color="#797AB8"/>
<stop offset="1" stop-color="#409CEF"/>
</linearGradient>
</defs>
</svg>
