<svg xmlns="http://www.w3.org/2000/svg" role="img" viewBox="15.38 27.38 58.11 34.23"><g clip-path="url(#clip0_383_492)"><path fill="#255BE3" d="M16.5485 50.2744C16.5485 44.5 21.2765 40.0045 27.4384 40.0045 31.0038 40.0045 34.2592 41.5934 36.1194 43.9962L33.4453 46.6702C32.7361 45.7621 31.8311 45.0257 30.7978 44.5157 29.7645 44.0058 28.6294 43.7355 27.4772 43.7249 23.7955 43.7249 20.8502 46.4765 20.8502 50.2744 20.8502 54.1111 23.7955 56.8626 27.4772 56.8626 28.6707 56.8612 29.8477 56.5841 30.9165 56.0531 31.9853 55.522 32.9171 54.7513 33.6391 53.801L36.2744 56.3976C34.4917 58.9166 31.0813 60.583 27.4384 60.583 21.2765 60.583 16.5485 56.0875 16.5485 50.2744zM39.7623 40.7021H43.9865V59.8855H39.7623V40.7021zM51.8537 54.7311V44.2675H47.2419V40.7021H52.0474V36.5941L56.0004 34.6564V40.7021H62.2786V44.2675H56.0004V54.0336C56.0004 55.9713 57.0855 56.8239 59.1395 56.8239 60.2082 56.8294 61.2656 56.6047 62.2398 56.165V59.808C61.0192 60.3435 59.697 60.608 58.3644 60.583 54.6052 60.583 51.8537 58.5291 51.8537 54.7311zM65.6115 40.7021H69.8357V59.8855H65.6115V40.7021z"/><path fill="#FF3C28" d="M54.7602 28.4945C58.2295 28.4862 61.6499 29.3129 64.7324 30.9047C67.815 32.4966 70.4692 34.8069 72.471 37.6405H67.5492C65.9359 35.8474 63.9637 34.4136 61.7605 33.4321C59.5572 32.4506 57.1722 31.9434 54.7602 31.9434C52.3483 31.9434 49.9632 32.4506 47.76 33.4321C45.5567 34.4136 43.5845 35.8474 41.9713 37.6405H37.0495C39.0512 34.8069 41.7055 32.4966 44.788 30.9047C47.8706 29.3129 51.2909 28.4862 54.7602 28.4945Z"/></g><defs><clipPath id="clip0_383_492"><path fill="#fff" d="M0 0H56V32.36H0z" transform="translate(16.5 28.32)"/></clipPath></defs></svg>