<svg xmlns="http://www.w3.org/2000/svg" viewBox="0 0 1670 420"><defs><style>.cls-1{fill:#45b6ee;}.cls-2{fill:#12577e;}.cls-3{fill:#021f2f;}</style></defs><g id="text"><path class="cls-1" d="M165,162.06a53,53,0,0,1,22.44-11.76c8.71-2,11.92-.2,23.52-1.07a117.81,117.81,0,0,0,25.66-5.34c12.5-4.22,35.16-16.58,44.9-41.69a71,71,0,0,0-13.9-72.69C241.21.67,203.16,7.63,201.22,8c-28.68,5.77-44.63,27.64-50,38.79-1.93,4-5.1,13.36-6.71,25.07-1.86,13.6.45,17.19-2.54,26.58-3.86,12.12-12,19.61-15.37,22.61a59,59,0,0,1-31.66,14.27c-3.7.5-4.23.22-10.16.53-14.63.78-28.72,3.42-35.42,5.48-16.32,5-32.49,20-40.17,38.44-10.52,25.26-4.9,56.55,15.74,77.06,17.75,17.62,44.39,25.06,68.87,18,25.67-7.45,41.84-28.92,46-43.27a228.52,228.52,0,0,0,6.12-32.38c.62-5.24.41-5,.83-7.17C150,175.12,161.75,164.81,165,162.06Z"/><ellipse class="cls-2" cx="217.33" cy="340.58" rx="70.02" ry="70.55"/><path class="cls-3" d="M287.68,207.27a82.07,82.07,0,0,1,4.91-28.52,66.72,66.72,0,0,1,36.75-39.14q13.26-5.84,30.25-5.84a97.45,97.45,0,0,1,20.43,2,99.52,99.52,0,0,1,18,5.71L389.84,173a100.81,100.81,0,0,0-12.21-3.71,63.89,63.89,0,0,0-14.86-1.59q-17.5,0-26.13,10.87T328,207.27q0,18.84,8.09,29.19t28.26,10.35a96.27,96.27,0,0,0,15.39-1.33,65.11,65.11,0,0,0,15.13-4.25l5.57,32.38a93.61,93.61,0,0,1-17.25,5,114.12,114.12,0,0,1-22.82,2.12q-19.1,0-32.9-5.7a62.06,62.06,0,0,1-22.69-15.53,60.56,60.56,0,0,1-13-23.21A98.65,98.65,0,0,1,287.68,207.27Z"/><path class="cls-3" d="M482.71,279.71q-17.26-.27-28-3.72t-17-9.68a32,32,0,0,1-8.49-15.13,81.23,81.23,0,0,1-2.26-20V77.52l39.54-6.37v152a52,52,0,0,0,.8,9.55,16.39,16.39,0,0,0,3.05,7.17,16,16,0,0,0,6.5,4.77,35.45,35.45,0,0,0,11.41,2.39Z"/><path class="cls-3" d="M641.38,207a90.56,90.56,0,0,1-4.78,30.11,65.24,65.24,0,0,1-13.8,23.35,61.9,61.9,0,0,1-21.62,15,72.15,72.15,0,0,1-28.26,5.31,71.39,71.39,0,0,1-28-5.31,61.85,61.85,0,0,1-21.63-15,68.63,68.63,0,0,1-14.06-23.35,86.39,86.39,0,0,1-5-30.11,83.35,83.35,0,0,1,5.17-30,68.06,68.06,0,0,1,14.33-23.08,64.26,64.26,0,0,1,21.76-14.86,70,70,0,0,1,27.46-5.31,70.76,70.76,0,0,1,27.73,5.31,62.92,62.92,0,0,1,21.62,14.86A67.51,67.51,0,0,1,636.34,177,85.58,85.58,0,0,1,641.38,207Zm-40.33,0q0-18.31-7.3-28.79t-20.83-10.48q-13.53,0-21,10.48T544.53,207q0,18.3,7.43,29.05t21,10.75q13.53,0,20.83-10.75T601.05,207Z"/><path class="cls-3" d="M791,272.28a219.84,219.84,0,0,1-26,5.44,213.84,213.84,0,0,1-33.44,2.52q-17.77,0-29.58-4.78a44.83,44.83,0,0,1-18.71-13.4,52.27,52.27,0,0,1-9.82-20.56,110.41,110.41,0,0,1-2.92-26.27V137.49H710.1v73q0,19.1,5,27.59T734,246.54q4.24,0,9-.4c3.19-.26,6-.57,8.49-.93V137.49H791Z"/><path class="cls-3" d="M951.29,272.54q-5.31,1.6-12.2,3.06t-14.46,2.52q-7.57,1-15.39,1.72t-15,.66q-17.25,0-30.78-5A61.57,61.57,0,0,1,840.65,261a62.48,62.48,0,0,1-14.2-22.82,86.88,86.88,0,0,1-4.91-30.11,102.8,102.8,0,0,1,4.25-30.65A66.49,66.49,0,0,1,838,154.2a52.21,52.21,0,0,1,19.51-14.59,65.36,65.36,0,0,1,26.4-5,62.11,62.11,0,0,1,14.72,1.59,80.55,80.55,0,0,1,13.14,4.51V77.52l39.53-6.37Zm-89.42-66.33q0,18.31,8.23,29.45t24.41,11.15c3.54,0,6.81-.14,9.82-.4s5.48-.57,7.43-.93V173.57a34.46,34.46,0,0,0-9.69-4A46.69,46.69,0,0,0,890,168Q861.88,168,861.87,206.21Z"/><path class="cls-3" d="M1028.5,248.66q10.88,0,15.39-2.12t4.51-8.22q0-4.78-5.83-8.36t-17.78-8.1a177.59,177.59,0,0,1-16.85-7.16,49.42,49.42,0,0,1-12.87-8.89,36,36,0,0,1-8.23-12.34,45.75,45.75,0,0,1-2.91-17.24q0-19.64,14.59-31t40.07-11.41A128.82,128.82,0,0,1,1063,136a113.15,113.15,0,0,1,18.57,4.91l-6.9,30.78a143.29,143.29,0,0,0-15-4.25,81.35,81.35,0,0,0-18.17-1.86q-18.59,0-18.58,10.35a10.74,10.74,0,0,0,.8,4.25,9,9,0,0,0,3.18,3.58,45.46,45.46,0,0,0,6.5,3.73q4.11,2,10.48,4.41a161.89,161.89,0,0,1,21.5,9.5,51.51,51.51,0,0,1,13.4,10.11,31.12,31.12,0,0,1,6.89,12.05,53.33,53.33,0,0,1,2,15.35q0,20.66-15.52,31.24t-43.91,10.59q-18.59,0-30.91-3.18t-17.12-5.31l6.63-32.11a128.82,128.82,0,0,0,20.7,6.24A100.81,100.81,0,0,0,1028.5,248.66Z"/><path class="cls-3" d="M1193.81,203q0-19.11-4.91-27.07t-16.85-8a76.15,76.15,0,0,0-7.7.4c-2.65.26-5.22.57-7.69.93V277.06h-39.54V142.26q5-1.32,11.81-2.78t14.33-2.66q7.56-1.19,15.52-1.85c5.31-.44,10.52-.67,15.66-.67q15.12,0,24.54,3.85a55.68,55.68,0,0,1,15.52,9.15,74,74,0,0,1,39.8-13q16.73,0,27.47,4.65a41.31,41.31,0,0,1,17.11,13.13,49.59,49.59,0,0,1,8.76,20.17,130.24,130.24,0,0,1,2.39,26v78.81h-39.54V203q0-19.11-4.91-27.07t-16.85-8a35.73,35.73,0,0,0-8.89,1.59,34.79,34.79,0,0,0-9.42,4,60,60,0,0,1,2.39,12.87q.54,6.76.53,14.46v76.16h-39.53Z"/><path class="cls-3" d="M1389.1,97.15q0,10.89-7,17.12a25.19,25.19,0,0,1-33.17,0q-7-6.24-7-17.12t7-17.11a25.16,25.16,0,0,1,33.17,0Q1389.09,86.28,1389.1,97.15Zm-3.72,179.91h-39.53V137.49h39.53Z"/><path class="cls-3" d="M1421.2,102.73l39.54-6.37v41.13h47.49v32.9h-47.49v49.09q0,12.47,4.37,19.9t17.65,7.43a75.17,75.17,0,0,0,13.13-1.2,67.56,67.56,0,0,0,12.34-3.31l5.57,30.78a113.52,113.52,0,0,1-15.92,5,93,93,0,0,1-21.49,2.12q-16.19,0-26.8-4.38a42,42,0,0,1-17-12.2,45.42,45.42,0,0,1-8.89-19A112,112,0,0,1,1421.2,220Z"/><path class="cls-3" d="M1540.33,277.06V77.52l39.54-6.37V138a79.77,79.77,0,0,1,10.22-2.52,63.78,63.78,0,0,1,12.07-1.2q17,0,28.26,4.65a43.86,43.86,0,0,1,18,13.13,50.66,50.66,0,0,1,9.55,20.17,112,112,0,0,1,2.79,26v78.81h-39.54V203q0-19.11-4.91-27.07t-18.17-8a50.58,50.58,0,0,0-10,.93c-3.1.62-5.88,1.28-8.36,2V277.06Z"/></g></svg>