<?xml version="1.0" standalone="no"?>
<!DOCTYPE svg PUBLIC "-//W3C//DTD SVG 20010904//EN"
 "http://www.w3.org/TR/2001/REC-SVG-20010904/DTD/svg10.dtd">
<svg version="1.0" xmlns="http://www.w3.org/2000/svg"
 width="1572.000000pt" height="1228.000000pt" viewBox="0 0 1572.000000 1228.000000"
 preserveAspectRatio="xMidYMid meet">

<g transform="translate(0.000000,1228.000000) scale(0.100000,-0.100000)"
fill="#000000" stroke="none">
<path d="M8250 11316 l0 -968 88 84 c49 45 233 223 410 393 l322 310 0 527 c0
290 -4 529 -8 532 -34 21 -460 74 -664 83 l-148 6 0 -967z"/>
<path d="M7232 12249 c-894 -50 -1707 -363 -2427 -935 -133 -106 -502 -473
-607 -604 -522 -653 -817 -1347 -925 -2175 -14 -112 -18 -209 -18 -490 0 -281
4 -378 18 -490 108 -830 415 -1547 933 -2183 102 -126 370 -399 504 -515 616
-534 1398 -883 2205 -987 172 -22 526 -43 538 -31 4 4 6 1020 5 2258 l-3 2251
-402 -390 -403 -390 0 -1409 c0 -1164 -2 -1409 -13 -1409 -29 0 -239 64 -367
112 -444 165 -876 443 -1215 783 -538 539 -869 1213 -972 1980 -24 183 -24
657 0 840 117 872 529 1622 1202 2191 337 285 808 535 1229 653 60 17 115 31
123 31 11 0 13 -223 15 -1262 l3 -1262 403 389 402 388 -2 1331 -3 1331 -40 1
c-22 1 -104 -2 -183 -7z"/>
<path d="M10415 11176 c-160 -151 -291 -279 -292 -283 -1 -4 30 -30 70 -58 40
-27 128 -95 197 -150 721 -578 1172 -1430 1251 -2364 15 -176 6 -549 -16 -711
-127 -927 -596 -1727 -1340 -2285 -172 -129 -302 -210 -500 -310 -217 -111
-515 -224 -682 -260 l-33 -7 -2 2568 -3 2567 -407 -389 -408 -389 0 -2632 c0
-1447 4 -2634 8 -2637 13 -8 364 13 507 30 531 64 1086 246 1550 508 1387 785
2215 2273 2144 3856 -48 1082 -512 2109 -1286 2849 -70 68 -168 156 -218 195
-95 76 -234 176 -245 176 -3 0 -136 -124 -295 -274z"/>
<path d="M2990 2080 l0 -281 -37 37 c-21 20 -63 49 -93 63 -48 23 -68 26 -160
26 -94 0 -111 -3 -165 -28 -104 -49 -162 -124 -195 -252 -18 -69 -20 -111 -20
-354 0 -209 4 -291 15 -339 50 -210 192 -322 394 -310 90 5 166 36 225 91 21
20 40 37 41 37 1 0 5 -22 9 -50 l7 -50 59 0 60 0 0 845 0 845 -70 0 -70 0 0
-280z m-154 -303 c43 -22 90 -73 113 -122 35 -76 43 -160 39 -417 -4 -218 -6
-248 -25 -296 -31 -77 -66 -117 -128 -148 -48 -23 -64 -26 -123 -22 -116 9
-194 68 -229 173 -21 65 -31 521 -13 622 21 123 80 200 172 224 48 12 159 4
194 -14z"/>
<path d="M8730 1515 l0 -845 70 0 70 0 0 845 0 845 -70 0 -70 0 0 -845z"/>
<path d="M9250 1515 l0 -845 70 0 70 0 0 845 0 845 -70 0 -70 0 0 -845z"/>
<path d="M5160 2332 c-40 -20 -60 -53 -60 -100 0 -75 53 -120 131 -109 48 6
68 21 86 65 27 66 -11 142 -78 156 -42 8 -39 8 -79 -12z"/>
<path d="M9780 2332 c-40 -20 -60 -53 -60 -100 0 -75 53 -120 131 -109 48 6
68 21 86 65 27 66 -11 142 -78 156 -42 8 -39 8 -79 -12z"/>
<path d="M6900 2040 l0 -140 -95 0 -95 0 0 -65 0 -65 95 0 94 0 3 -427 c3
-425 3 -428 27 -487 35 -87 100 -149 186 -175 40 -13 94 -21 136 -21 l69 0 0
64 0 63 -74 6 c-80 6 -106 15 -149 55 -53 50 -57 87 -57 524 l0 398 125 0 125
0 0 65 0 65 -125 0 -125 0 0 140 0 140 -70 0 -70 0 0 -140z"/>
<path d="M379 1911 c-112 -36 -186 -109 -232 -229 -21 -54 -22 -72 -22 -392 0
-322 1 -337 22 -393 62 -161 189 -247 369 -247 87 0 184 28 242 70 86 62 146
179 159 308 l6 62 -71 0 -70 0 -7 -52 c-17 -120 -59 -187 -142 -225 -46 -21
-66 -25 -132 -22 -134 7 -205 70 -231 208 -13 70 -13 512 0 582 26 138 97 201
231 208 66 3 86 -1 132 -22 78 -35 124 -107 135 -210 l7 -62 74 -3 74 -3 -7
60 c-28 244 -174 382 -405 380 -44 0 -99 -8 -132 -18z"/>
<path d="M1468 1911 c-137 -45 -218 -135 -253 -283 -21 -91 -21 -596 0 -687
31 -129 112 -228 223 -273 48 -19 76 -22 172 -22 96 0 124 3 172 22 111 45
192 144 223 273 21 92 21 596 0 688 -31 130 -112 229 -223 272 -80 31 -235 36
-314 10z m273 -148 c70 -36 113 -98 128 -186 14 -83 14 -501 0 -584 -24 -138
-115 -213 -259 -213 -144 0 -235 75 -259 213 -14 83 -14 501 0 584 24 138 115
213 259 213 64 0 86 -5 131 -27z"/>
<path d="M3737 1919 c-138 -32 -245 -151 -277 -306 -7 -33 -10 -163 -8 -355 3
-282 5 -307 25 -361 65 -173 200 -255 402 -244 134 6 198 33 277 111 66 66 96
129 112 231 l9 55 -72 0 -72 0 -7 -48 c-3 -27 -20 -72 -39 -102 -45 -75 -102
-104 -215 -109 -106 -4 -157 14 -210 74 -51 58 -62 98 -69 238 l-6 117 338 0
337 0 -4 198 c-4 170 -8 205 -27 257 -60 165 -199 257 -386 254 -38 -1 -87 -5
-108 -10z m214 -141 c57 -17 113 -69 139 -130 18 -43 24 -77 28 -175 l5 -123
-268 0 -268 0 5 123 c4 97 9 132 27 172 45 101 112 144 225 145 38 0 86 -5
107 -12z"/>
<path d="M5983 1911 c-67 -23 -126 -64 -162 -113 l-29 -39 -12 70 -12 71 -59
0 -59 0 0 -615 0 -615 69 0 70 0 3 433 c4 475 6 485 68 579 73 110 233 151
332 85 44 -29 85 -115 98 -202 5 -38 10 -256 10 -482 l0 -413 70 0 70 0 0 438
c-1 486 -7 550 -60 658 -55 113 -143 164 -279 164 -37 -1 -89 -9 -118 -19z"/>
<path d="M7857 1919 c-138 -32 -245 -151 -277 -306 -7 -33 -10 -163 -8 -355 3
-282 5 -307 25 -361 65 -173 200 -255 402 -244 134 6 198 33 277 111 66 66 96
129 112 231 l9 55 -72 0 -72 0 -7 -48 c-3 -27 -20 -72 -39 -102 -45 -75 -102
-104 -215 -109 -106 -4 -157 14 -210 74 -51 58 -62 98 -69 238 l-6 117 338 0
337 0 -4 198 c-4 170 -8 205 -27 257 -60 165 -199 257 -386 254 -38 -1 -87 -5
-108 -10z m214 -141 c57 -17 113 -69 139 -130 18 -43 24 -77 28 -175 l5 -123
-268 0 -268 0 5 123 c4 97 9 132 27 172 45 101 112 144 225 145 38 0 86 -5
107 -12z"/>
<path d="M10515 1917 c-150 -50 -231 -148 -265 -322 -8 -40 -10 -147 -8 -320
4 -236 6 -265 26 -318 62 -169 200 -255 391 -245 98 5 166 30 219 80 l32 32 0
-133 c0 -154 -10 -205 -52 -255 -51 -62 -99 -81 -203 -81 -99 0 -145 17 -197
72 -27 29 -58 100 -58 134 0 17 -8 19 -71 19 l-71 0 7 -42 c15 -89 46 -151
104 -209 82 -82 142 -104 292 -104 113 0 116 1 192 38 95 47 147 107 177 204
19 63 20 91 20 749 l0 684 -59 0 c-58 0 -59 -1 -65 -31 -3 -17 -6 -43 -6 -57
0 -24 -2 -22 -50 22 -71 67 -126 89 -230 93 -52 2 -101 -2 -125 -10z m210
-128 c52 -13 119 -67 144 -118 31 -61 41 -144 41 -356 0 -315 -23 -389 -140
-451 -43 -23 -165 -25 -224 -5 -55 19 -110 73 -137 134 -22 48 -24 67 -27 275
-4 245 4 326 43 403 52 101 175 150 300 118z"/>
<path d="M11677 1919 c-138 -32 -245 -151 -277 -306 -7 -33 -10 -163 -8 -355
3 -282 5 -307 25 -361 65 -173 200 -255 402 -244 134 6 198 33 277 111 66 66
96 129 112 231 l9 55 -72 0 -72 0 -7 -48 c-3 -27 -20 -72 -39 -102 -45 -75
-102 -104 -215 -109 -106 -4 -157 14 -210 74 -51 58 -62 98 -69 238 l-6 117
338 0 337 0 -4 198 c-4 170 -8 205 -27 257 -60 165 -199 257 -386 254 -38 -1
-87 -5 -108 -10z m214 -141 c57 -17 113 -69 139 -130 18 -43 24 -77 28 -175
l5 -123 -268 0 -268 0 5 123 c4 97 9 132 27 172 45 101 112 144 225 145 38 0
86 -5 107 -12z"/>
<path d="M12883 1911 c-67 -23 -126 -64 -162 -113 l-29 -39 -12 70 -12 71 -59
0 -59 0 0 -615 0 -615 69 0 70 0 3 433 c4 475 6 485 68 579 73 110 233 151
332 85 44 -29 85 -115 98 -202 5 -38 10 -256 10 -482 l0 -413 70 0 70 0 0 438
c-1 486 -7 550 -60 658 -55 113 -143 164 -279 164 -37 -1 -89 -9 -118 -19z"/>
<path d="M13929 1911 c-112 -36 -186 -109 -232 -229 -21 -54 -22 -72 -22 -392
0 -322 1 -337 22 -393 62 -161 189 -247 369 -247 87 0 184 28 242 70 86 62
146 179 159 308 l6 62 -71 0 -70 0 -7 -52 c-17 -120 -59 -187 -142 -225 -46
-21 -66 -25 -132 -22 -134 7 -205 70 -231 208 -5 29 -10 161 -10 291 0 130 5
262 10 291 26 138 97 201 231 208 66 3 86 -1 132 -22 78 -35 124 -107 135
-210 l7 -62 74 -3 74 -3 -7 60 c-28 244 -174 382 -405 380 -44 0 -99 -8 -132
-18z"/>
<path d="M15067 1919 c-138 -32 -245 -151 -277 -306 -7 -33 -10 -163 -8 -355
3 -282 5 -307 25 -361 65 -173 200 -255 402 -244 134 6 198 33 277 111 66 66
96 129 112 231 l9 55 -72 0 -72 0 -7 -48 c-3 -27 -20 -72 -39 -102 -45 -75
-102 -104 -215 -109 -106 -4 -157 14 -210 74 -51 58 -62 98 -69 238 l-6 117
338 0 337 0 -4 198 c-4 170 -8 205 -27 257 -60 165 -199 257 -386 254 -38 -1
-87 -5 -108 -10z m214 -141 c57 -17 113 -69 139 -130 18 -43 24 -77 28 -175
l5 -123 -268 0 -268 0 5 123 c4 97 9 132 27 172 45 101 112 144 225 145 38 0
86 -5 107 -12z"/>
<path d="M5140 1285 l0 -615 70 0 70 0 0 615 0 615 -70 0 -70 0 0 -615z"/>
<path d="M9760 1285 l0 -615 70 0 70 0 0 615 0 615 -70 0 -70 0 0 -615z"/>
</g>
</svg>
