

<?xml version="1.0" encoding="utf-8"?>
<!-- Generator: Adobe Illustrator 26.3.1, SVG Export Plug-In . SVG Version: 6.00 Build 0)  -->
<svg version="1.1" id="Layer_1" xmlns="http://www.w3.org/2000/svg" xmlns:xlink="http://www.w3.org/1999/xlink" x="0px" y="0px"
	 viewBox="0 0 395 125" style="enable-background:new 0 0 395 125;" xml:space="preserve">
<style type="text/css">
	.st0{fill:#FFFFFF;}
	.st1{fill:#2E2F71;}
	.st2{fill:#8C5CA6;}
	.st3{fill:#42BFB9;}
	.st4{fill:#A9CB38;}
	.st5{fill:#5A9ECC;}
</style>
<g>
	<path class="st0" d="M82.8357162,7.7510881c0.7650146,0.3911133,1.5079346,0.8112793,2.2207642,1.2709961
		C84.3437119,8.5623674,83.6007309,8.1422014,82.8357162,7.7510881z"/>
	<path class="st0" d="M79.7141953,6.3538713c-0.6212158-0.239502-1.2473755-0.4553223-1.876709-0.6557617
		c0.9625854,0.3063965,1.9129028,0.6713867,2.855957,1.0712891C80.3670273,6.630971,80.0430527,6.4808245,79.7141953,6.3538713z"/>
	<path class="st0" d="M86.1020737,9.7425432c-0.340332-0.2509766-0.689209-0.4904785-1.0455933-0.720459
		c0.7127686,0.4597168,1.3955078,0.9589844,2.039978,1.5080566C86.7741928,10.2554827,86.4424057,9.9935198,86.1020737,9.7425432z"
		/>
	<path class="st0" d="M88.0336533,11.3922014c0.6043701,0.6013184,1.1665649,1.2580566,1.6785278,1.9799805
		C89.2002182,12.6502581,88.6380234,11.9935198,88.0336533,11.3922014z"/>
	<path class="st0" d="M72.0433578,4.3709612c0.3962402,0.0600586,0.7912598,0.1259766,1.1852417,0.1972656
		C72.8346786,4.4969378,72.4395981,4.4310198,72.0433578,4.3709612z"/>
	<path class="st0" d="M74.0053329,4.7151995c0.3984985,0.0800781,0.795166,0.1699219,1.19104,0.2629395
		C74.800499,4.8851213,74.4038925,4.7955217,74.0053329,4.7151995z"/>
	<path class="st0" d="M75.9361801,5.1551409c0.4302368,0.1103516,0.857666,0.2348633,1.2844849,0.3618164
		C76.7938461,5.3900042,76.3664169,5.2654924,75.9361801,5.1551409z"/>
	<path class="st0" d="M110.189476,39.8795052c0.1099854,0.2021484,0.2172852,0.4060059,0.3223877,0.6105957
		C110.4067612,40.2852669,110.2994003,40.0816536,110.189476,39.8795052z"/>
	<path class="st0" d="M113.0663681,47.801136c0.0369873,0.1655273,0.0728149,0.3312988,0.1079102,0.4970703
		C113.139183,48.1324348,113.1033554,47.9666634,113.0663681,47.801136z"/>
	<path class="st0" d="M93.9927597,21.4549465c-0.4537354-0.7016602-0.8673096-1.4335938-1.2372437-2.1972656
		c-0.1849976-0.3818359-0.3590698-0.7717285-0.5218506-1.1699219c0.5614014,1.3735352,1.2649536,2.6425781,2.0782471,3.8305664
		C94.2059555,21.7635403,94.0946884,21.6126614,93.9927597,21.4549465z"/>
	<path class="st0" d="M113.8002548,52.2811165c0.0166016,0.1669922,0.0316772,0.3347168,0.0456543,0.5021973
		C113.8319321,52.6155891,113.8168564,52.4483528,113.8002548,52.2811165z"/>
	<path class="st0" d="M111.107933,41.7320442c0.0857544,0.1899414,0.1754761,0.3774414,0.2570801,0.5695801
		C111.2834091,42.1094856,111.1937485,41.9217415,111.107933,41.7320442z"/>
	<path class="st0" d="M70.0373154,4.1143694c0.409668,0.0432129,0.8186035,0.0900879,1.2260742,0.1442871
		C70.8559189,4.2044573,70.4469833,4.1575823,70.0373154,4.1143694z"/>
	<path class="st0" d="M95.4729843,23.4761868c0.3540649,0.4301758,0.7301025,0.8439941,1.1157837,1.2504883
		C96.2030258,24.3201809,95.8269882,23.9063625,95.4729843,23.4761868z"/>
	<path class="st0" d="M109.182457,38.1585579c0.1099243,0.1733398,0.2124634,0.3510742,0.3187866,0.5263672
		C109.3949203,38.5096321,109.2924423,38.3318977,109.182457,38.1585579z"/>
	<path class="st0" d="M30.429039,19.9305325c0.6131592-0.5507812,1.2313843-1.0961914,1.8563232-1.6347656
		C31.6604233,18.834341,31.0421371,19.3797512,30.429039,19.9305325z"/>
	<path class="st0" d="M27.2407455,22.9256496c0.7915649-0.7880859,1.6051636-1.5534668,2.4283447-2.3085938
		C28.8459702,21.372427,28.0322495,22.1375637,27.2407455,22.9256496z"/>
	<path class="st0" d="M33.0304794,17.6544094c0.826355-0.7023926,1.6578979-1.3991699,2.4955444-2.088624
		C34.6883774,16.2552395,33.8568954,16.9520168,33.0304794,17.6544094z"/>
	<path class="st0" d="M67.937767,3.9361467c0.4533691,0.0290527,0.906311,0.060791,1.3573608,0.1013184
		C68.8440781,3.9969378,68.3911362,3.9651995,67.937767,3.9361467z"/>
	<path class="st0" d="M6.3715434,41.2047005c0.1217651-0.2219238,0.2512817-0.4406738,0.388855-0.6564941
		C6.6228251,40.7640266,6.4932475,40.9827766,6.3715434,41.2047005z"/>
	<path class="st0" d="M5.1685405,44.5711555c-0.0690308,0.3774414-0.1199951,0.762207-0.1528931,1.1542969
		c0.0987549-1.1765137,0.3602295-2.2856445,0.7826538-3.331543C5.516685,43.0911751,5.306541,43.8165169,5.1685405,44.5711555z"/>
	<path class="st0" d="M37.3395004,14.0818987c-0.3013916,0.2431641-0.5998535,0.4902344-0.8994751,0.7358398
		c0.8988037-0.7368164,1.8008423-1.46875,2.7280884-2.1660156C38.5499496,13.1165667,37.9422836,13.5958147,37.3395004,14.0818987z"
		/>
	<path class="st0" d="M5.7983012,42.3939095c0.126709-0.3139648,0.2727661-0.6201172,0.4284058-0.9226074
		C6.0710673,41.7737923,5.9250102,42.0799446,5.7983012,42.3939095z"/>
	<path class="st0" d="M60.7995834,4.0457659c0.7113647-0.078125,1.4242554-0.144043,2.1403198-0.1816406
		C62.2238388,3.901967,61.5109482,3.9676409,60.7995834,4.0457659z"/>
	<path class="st0" d="M65.3272934,3.8209124c0.6650391,0.0131836,1.3276367,0.0388184,1.9884033,0.0734863
		C66.6549301,3.8597307,65.9923325,3.834096,65.3272934,3.8209124z"/>
	<path class="st0" d="M5.0412211,48.4456673c-0.0383301-0.505127-0.0657959-1.0114746-0.0699463-1.5212402
		C4.9754252,47.4341927,5.0028911,47.9405403,5.0412211,48.4456673z"/>
	<path class="st0" d="M48.4608994,7.3753557c0.1937256-0.0859375,0.3866577-0.1740723,0.5814209-0.2575684
		C48.8475571,7.2012835,48.6546249,7.2894182,48.4608994,7.3753557z"/>
	<path class="st0" d="M46.5739365,8.2537737c0.2108765-0.1030273,0.4224243-0.2045898,0.6343384-0.3051758
		C46.9962997,8.0491838,46.7848129,8.1507463,46.5739365,8.2537737z"/>
	<path class="st0" d="M53.0614853,5.6285295c0.1848145-0.0576172,0.3703613-0.1135254,0.5563354-0.168457
		C53.4318466,5.5150042,53.2462997,5.5709124,53.0614853,5.6285295z"/>
	<path class="st0" d="M44.7860947,9.1580706c0.1807861-0.0947266,0.362915-0.1865234,0.5443115-0.2797852
		C45.1490097,8.9715471,44.9668198,9.063344,44.7860947,9.1580706z"/>
	<path class="st0" d="M58.5949326,4.3511858c0.5203247-0.0852051,1.0419922-0.1604004,1.5647583-0.2263184
		C59.6368637,4.1907854,59.1152573,4.2659807,58.5949326,4.3511858z"/>
	<path class="st0" d="M62.0130844,40.323597c-0.7070923-0.942627-2.1212769-1.1789551-3.0641479-0.4716797l-1.4141235,0.9428711
		c-0.9428711,0.7072754-1.1786499,2.1213379-0.4713135,3.0644531l13.6706543,18.855957
		c0.7070923,0.942627,2.1212769,1.1787109,3.0641479,0.4714355l1.4141846-0.942627
		c0.9428711-0.7072754,1.1784058-2.1213379,0.4715576-3.0639648L62.0130844,40.323597z"/>
	<path class="st0" d="M39.1497421,72.3790207c2.3572998,0.9431152,4.4785767,1.4143066,6.3640747,1.4143066
		c0.4715576,0,0.9428711,0,1.4141235,0c2.121521-0.2358398,3.7714844-0.7070312,5.6572266-1.4143066
		c4.0067749-1.1782227,7.3066406-2.3566895,12.2565308,0.2358398c1.1784058,0.7072754,2.8283691,0.2358398,3.5354614-1.1784668
		c0.4712524-1.1787109,0-2.8286133-1.1786499-3.2998047c-6.5996094-3.5356445-11.5491943-1.8857422-16.027771-0.7072754
		c-1.6497192,0.4714355-3.0641479,0.9431152-4.7140503,1.1784668c-1.4141846,0.236084-3.2996826-0.2353516-5.4212036-0.9428711
		c-1.4141846-0.4709473-2.8283691,0.2358398-3.2999268,1.4143066
		C37.2642441,70.4940109,37.9713364,71.9075851,39.1497421,72.3790207z"/>
	<path class="st0" d="M75.6840439,70.4940109l4.2424927,2.1208496c0.7070923,0.4714355,1.4141846,0,1.4141846-0.942627
		l-0.4713135-4.7141113c0-0.9431152-0.7070923-1.1789551-1.4141846-0.7072754l-3.7711792,2.5930176
		C74.9767075,69.3150558,74.9767075,70.0223312,75.6840439,70.4940109z"/>
	<path class="st0" d="M25.5276108,88.3594894c-0.7158203-0.9099121-1.3696289-1.8825684-2.1755981-2.7062988
		c-1.7265015-1.763916-2.9742432-3.8378906-4.1078491-5.9956055c-0.3163452-0.6025391-0.7285767-1.1591797-0.9115601-1.8305664
		c-0.7401123-2.7131348-1.4472046-5.4414062-1.6234131-8.2548828c-0.1384277-2.2109375-0.6868286-4.3481445-1.0142221-6.5219765
		c-0.3178711-2.1130371-0.7088623-4.2089844-0.8494873-6.3486328c-0.1086426-1.6555176-0.0811157-3.300293,0.1010742-4.9448242
		c0.1779785-1.6040039,0.3894653-3.2038574,0.8259888-4.7626953c0.7979746-2.8474121,2.0159311-5.5209961,3.3464975-8.1520996
		c1.328064-2.626709,3.0095215-5.0085449,4.8875122-7.2600079c1.1671753-1.3999023,2.4146118-2.7319336,3.5179443-4.1860352
		c0.3583984-0.4726562,0.6547852-0.9746094,0.9295654-1.6535645c-0.680542,0.2106934-1.2414551,0.375-1.6824951,0.842041
		c-2.1925659,2.3217773-4.3421021,4.6879883-6.6132812,6.9301739c-2.6444092,2.611084-4.2800913,5.7734375-5.4319468,9.2370605
		c-1.0587769,3.1843262-1.5213013,6.4689941-1.5032959,9.8129883c0.0155029,2.8908691,0.4500122,5.7507324,0.8169556,8.6118164
		c0.2390137,1.8625488,0.5131226,3.7287636,0.6763306,5.5910683c0.1762085,2.013916,0.4332275,3.9973145,0.8642578,5.9650879
		c0.7926645,3.6184082,2.0722055,7.0632324,3.7902231,10.3371582c0.7233887,1.3786621,1.7075195,2.5810547,2.8008423,3.7099609
		c0.6795654,0.701416,1.4211426,1.3100586,2.1685791,1.9204102c0.274292,0.2236328,0.6199341,0.362793,0.9415894,0.5239258
		c0.1391602,0.0695801,0.302124,0.0661621,0.4295044-0.0439453c0.1444092-0.1242676,0.0861206-0.2802734,0.0275269-0.4204102
		C25.6805649,88.6204758,25.6194687,88.4761887,25.5276108,88.3594894z"/>
	<path class="st0" d="M108.0996933,76.1585617c0.2147217-0.8999023,0.4569092-1.7946777,0.7285767-2.6835938
		c0.0722656-0.2363281,0.1605835-0.4667969,0.237793-0.701416c-0.0772095,0.2346191-0.1655273,0.4650879-0.237793,0.701416
		C108.5566025,74.363884,108.314415,75.2584152,108.0996933,76.1585617z"/>
	<path class="st0" d="M111.7677841,65.8799973c0.0939941-0.2282715,0.1906738-0.4555664,0.2830811-0.6843262
		c0.2384033-0.5905762,0.4532471-1.185791,0.6453857-1.7861366c-0.1920776,0.6001015-0.4069824,1.1955605-0.6453857,1.7861366
		C111.9584579,65.4244308,111.8617783,65.6517258,111.7677841,65.8799973z"/>
	<path class="st0" d="M62.6175766,7.299428c0.1080933,0.0275879,0.2262573,0.020752,0.3399048,0.0195312
		c0.6669922-0.0053711,1.3270264,0.0766602,1.984314,0.1743164c4.1929932,0.6257324,8.3291016,1.5378418,12.4217529,2.6230469
		c2.8478394,0.7548828,5.3478394,2.2602539,7.6347656,4.0939941c1.5936279,1.277832,2.8268433,2.9138193,4.1877441,4.4216318
		c0.1812134,0.2006836,0.335144,0.5441895,0.6807861,0.3659668c0.3338623-0.171875,0.2365112-0.5227051,0.2032471-0.8215332
		c-0.0102539-0.092041-0.0550537-0.1806641-0.0861206-0.270752c-0.7393799-2.1501474-1.7911377-4.0644541-3.5834961-5.5742197
		c-2.0001221-1.6855469-4.1687012-3.0751953-6.5940552-3.9931641c-3.8768311-1.4672852-7.9534302-1.932373-12.0703125-2.0935059
		c-0.3994751,0-0.8016968-0.0319824-1.1973877,0.0056152c-1.3195801,0.1254883-2.6661987,0.0510254-3.9442139,0.4975586
		c-0.1271362,0.0444336-0.3491211,0.0375977-0.3363647,0.2336426C62.2696152,7.1644182,62.4478378,7.2564592,62.6175766,7.299428z"
		/>
	<path class="st0" d="M109.3088608,39.3760872c-2.3127441-4.2111816-5.5345459-7.6481915-9.3049927-10.5895977
		c-0.137207-0.1071777-0.2661133-0.2983398-0.5756836-0.2067871c0.3609009,0.2172852,0.5516357,0.5036621,0.7588501,0.7744141
		c1.822937,2.3847656,3.6403198,4.7736797,5.4692383,7.1545391c2.1057739,2.7412109,3.8668213,5.6606445,4.9706421,8.9675293
		c0.9934692,2.9750977,1.5518799,6.0161133,1.7205811,9.1379395c0.0287476,0.5305176,0.0517578,1.0632324,0.0455322,1.5942383
		c-0.0205078,1.7192383,0.1066284,3.4382324-0.2242432,5.152832c-0.2800903,1.4501953-0.5762329,2.8952675-0.8610229,4.3540077
		c0.0344849-0.0424805,0.0810547-0.0800781,0.1016235-0.1286621c1.9242554-4.5683632,2.559021-9.2905312,1.8486328-14.2158241
		C112.6463242,47.129261,111.3658066,43.1209602,109.3088608,39.3760872z"/>
	<path class="st0" d="M109.125145,63.7308235c0.9561157-3.171875,1.1240845-6.4316406,0.9065552-9.6984863
		c-0.21875-3.2814941-0.8847656-6.4755859-2.640625-9.3571777c0.7474365,3.1176758,1.4127197,6.2475586,1.6394653,9.4443359
		C109.2572861,57.316761,108.9231796,60.5211067,109.125145,63.7308235z"/>
	<path class="st0" d="M102.2339706,46.3240852c-0.7536011-2.3352051-1.5753784-4.638916-2.7004395-6.8178711
		c-1.9650879-3.8056641-4.6855469-7.0559082-7.7121582-10.0410137c-2.208313-2.1784668-4.6274414-4.1171875-7.3218994-5.692627
		c-2.1069946-1.2314453-4.355896-2.1130371-6.6318359-2.9785156c-2.2942505-0.8725586-4.6247559-1.6101074-6.9642944-2.3327637
		c-1.4359131-0.4436035-2.9019165-0.7895508-4.388916-0.9812012c-7.1657715-0.9245605-14.0093384,0.2092285-20.5321045,3.3049316
		l0.4966431,0.2272949c0.1210938,0.2231445,0.3806763,0.5290527,0.2322388,0.7148438
		c-0.3196411,0.4003906,0.0004883,0.2893066,0.1734619,0.2678223c0.1859741-0.0229492,0.3654175-0.0991211,0.5463867-0.1567383
		c2.2201538-0.7038574,4.4144897-1.5092773,6.7354736-1.8366699c1.2592773-0.1777344,2.4859619-0.5576172,3.7589722-0.630127
		c1.1743774-0.0671387,2.3557739-0.0251465,3.5279541-0.1142578c3.5704346-0.2714844,7.0422974,0.3774414,10.4931641,1.1323242
		c1.5528564,0.3393555,3.0465698,0.9174805,4.5368652,1.4997559c3.616272,1.4128418,7.0042725,3.2106934,10.12146,5.5305176
		c2.3122559,1.7207031,4.3822021,3.7038574,6.4121094,5.7363262c0.1687012,0.1691895,0.3411865,0.2792969,0.6052246,0.348877
		c0.5088501,0.1333008,1.109314,0.1376953,1.4802856,0.6018066c1.5082397,1.8842773,2.5625,4.0307617,3.5244141,6.2233887
		c0.838501,1.9111328,1.5430908,3.8764648,2.2061157,5.8547363c1.4509277,4.3288574,2.3805542,8.7590332,2.4846802,13.3388672
		c0.0280151,1.2314453,0.0040283,2.4638672,0.0040283,3.6960449l0.1676636-0.001709
		c0.1791992-1.6113281,0.4182739-3.21875,0.517395-4.8344727c0.0705566-1.1513672-0.0545654-2.315918-0.1068726-3.4716797
		C103.7668076,51.9734993,103.1385727,49.1255989,102.2339706,46.3240852z"/>
	<path class="st0" d="M100.7858505,107.905632c0.4523926-0.6137695,0.8734741-1.2578125,1.2619019-1.9335938
		c0.0007324-0.0012207,0.0013428-0.0026855,0.0020752-0.0039062c-0.0007324,0.0012207-0.0013428,0.0024414-0.0020752,0.0039062
		C101.6593246,106.6478195,101.2383041,107.2916183,100.7858505,107.905632z"/>
	<path class="st0" d="M65.0497055,106.4378586c-0.923584-0.0854492-1.8482056-0.1115723-2.7763062-0.1325684
		c-1.4024048-0.0319824-2.8000488-0.2463379-4.2027588-0.2849121c-2.7391968-0.0754395-5.4456787-0.5109863-8.1606445-0.7944336
		c-2.1410522-0.2231445-4.3151245-0.6777344-6.2328491-1.8291016c-0.1292114-0.0776367-0.2748413-0.130127-0.4175415-0.1816406
		c-0.3729248-0.1342773-0.5869141-0.0080566-0.6292114,0.3945312c-0.0510864,0.4858398,0.0272827,0.956543,0.2542725,1.3820801
		c0.3218994,0.6020508,0.6307373,1.2233887,1.0397339,1.7648926c0.9385986,1.2426758,2.1262817,2.107666,3.7709961,2.0825195
		c1.1378174-0.0170898,2.2756958-0.0654297,3.4120483-0.1269531c0.5103149-0.0280762,1.0219116-0.0732422,1.5215454-0.2133789
		c1.3548584-0.3789062,2.7389526-0.6147461,4.1283569-0.8234863c0.2505493-0.0375977,0.4903564-0.0004883,0.736145,0.0270996
		c1.2439575,0.1391602,2.4889526,0.2702637,3.6072388,0.3903809c1.5493774-0.0385742,2.9277344-0.2316895,4.1369019-1.064209
		c0.15271-0.1052246,0.3987427-0.1918945,0.3484497-0.4030762C65.5229721,106.3629074,65.2461777,106.455925,65.0497055,106.4378586
		z"/>
	<path class="st0" d="M102.9748764,85.6111984c-1.0752563,1.9453125-2.0401611,3.9743652-3.4285889,5.7104492
		c-2.4331055,3.0429688-4.5718994,6.3232422-7.3251343,9.1101074c-1.0167236,1.0288086-2.0912476,1.9772949-3.2789307,2.8093262
		c-0.6958008,0.487793-1.3865967,1.0021973-1.9570312,1.6464844c-0.5358887,0.6052246-0.4738159,0.8549805,0.2780762,1.1738281
		c0.1030884,0.0437012,0.2192383,0.0817871,0.3288574,0.0805664c1.005188-0.0078125,2.008667,0.0561523,3.0150757-0.0930176
		c1.5548706-0.2307129,3.0163574-0.7548828,4.4522705-1.3491211c1.2174683-0.5036621,2.303772-1.2775879,3.2961426-2.1130371
		c1.0180054-0.8569336,1.8029175-1.9572754,2.3360596-3.2197266c0.5618896-1.3305664,1.0026855-2.7011719,1.4526978-4.0688477
		c0.5221558-1.5878906,0.7539062-3.2468262,1.1018066-4.8776855c0.3173828-1.4858398,0.5561523-2.9836426,0.6998291-4.4919434
		c0.0408325-0.4284668,0.1629639-0.9506836-0.2387695-1.380127
		C103.3548203,84.8685226,103.175621,85.2479172,102.9748764,85.6111984z"/>
	<path class="st0" d="M33.7052841,97.8653488c-1.0599976-0.534668-2.0148926-1.1970215-2.8651123-2.0349121
		c-0.7529297-0.7424316-1.4169312-0.5322266-1.7854004,0.4699707c-0.2102051,0.5717773-0.0487671,1.1223145,0.0078125,1.6855469
		c0.1574097,1.564209,1.0244141,2.2756348,2.5707397,2.0168457c1.4417114-0.2407227,2.8588867-0.6186523,4.3166504-0.7783203
		c0.1987305-0.0214844,0.4174805-0.0537109,0.6387329-0.2558594c-0.460022-0.3239746-0.9075317-0.5476074-1.4226685-0.6428223
		C34.6621933,98.2327805,34.172081,98.1009445,33.7052841,97.8653488z"/>
	<path class="st0" d="M112.5916977,45.8455696c-0.0001831-0.0007324-0.0002441-0.0014648-0.0004272-0.0019531
		c-0.1523438-0.5712891-0.3226929-1.1328125-0.5102539-1.6853027c-0.0003052-0.0007324-0.0006714-0.001709-0.0009766-0.0024414
		c0.1878662,0.5532227,0.3586426,1.1154785,0.5112305,1.6877441
		C112.5914536,45.8443489,112.5915146,45.8448372,112.5916977,45.8455696z"/>
	<path class="st0" d="M80.3080063,97.0413742c-0.7979126,0.0500488-1.413147,0.388916-2.0358887,0.6767578
		c-3.9677124,1.8325195-8.1551514,2.7802734-12.4983521,3.0205078c-3.4448242,0.1904297-6.8706055-0.0585938-10.2736206-0.6638184
		c-6.7084961-1.1933594-12.7371216-3.869873-17.9730835-8.2441406c-5.1826172-4.3295898-8.9938965-9.706543-11.7994385-15.8137207
		c-1.3989258-3.0456543-2.3410645-6.2509766-3.2085571-9.4997559c0.0705566,1.0383301-0.0765991,2.0759277-0.0195312,3.092041
		c0.0580444,1.0444336,0.4450073,2.0700684,0.6853027,3.104248c0.2838135,1.2209473,0.7398682,2.3813477,1.1859131,3.550293
		c0.9776611,2.5629883,2.1690674,4.9848633,3.8600464,7.1784668c1.47229,1.909668,2.9217529,3.8205566,4.5934448,5.5695801
		c1.9693604,2.0603027,4.1674805,3.8330078,6.4837036,5.4643555c0.7919312,0.557373,1.46875,1.2805176,2.350769,1.6989746
		c1.4367065,0.6809082,2.8654175,1.3913574,4.3461914,1.9643555c1.8336182,0.7094727,3.678833,1.3833008,5.611145,1.8356934
		c1.6809692,0.3935547,3.3884888,0.6408691,5.0617065,1.0578613c0.2005005,0.0500488,0.4152832,0.0715332,0.6217651,0.0629883
		c1.1060181-0.0463867,2.1990967,0.1313477,3.2993774,0.1748047c1.5883789,0.0625,3.1660156,0.2988281,4.7694092-0.0136719
		c0.8787842-0.1711426,1.7991333-0.2145996,2.7156982-0.203125c0.8875732,0.0114746,1.7921753-0.0566406,2.6626587-0.2258301
		c3.1742554-0.6166992,6.175354-1.7275391,8.9942017-3.3188477C79.9283066,97.4036789,80.1385727,97.3157883,80.3080063,97.0413742z
		"/>
	<path class="st0" d="M10.1209936,36.7952766c-0.6099854,0.559082-1.2026367,1.140625-1.7797241,1.7426758
		c-0.2826538,0.2949219-0.547729,0.5961914-0.7951045,0.9038086c-0.2227173,0.2770996-0.4263306,0.5615234-0.6203613,0.8493652
		c0.4096069-0.607666,0.8783569-1.1931152,1.4154658-1.7531738C8.9183569,37.9359016,9.5110083,37.3543587,10.1209936,36.7952766z"
		/>
	<path class="st0" d="M24.6761093,25.6246243c0.2750854-0.307373,0.5699463-0.5944824,0.8509521-0.8959961
		C25.2460556,25.0301418,24.9511948,25.3172512,24.6761093,25.6246243
		c-2.4799194,2.7712402-5.2955322,5.0380859-8.5506592,6.8215313c-0.7294931,0.3999023-1.4364634,0.8300781-2.1226816,1.2880859
		c0.6862183-0.4580078,1.3931885-0.8881836,2.1226816-1.2880859C19.3805771,30.6627102,22.1961899,28.3958645,24.6761093,25.6246243
		z"/>
	<path class="st0" d="M5.2751689,50.4471321c0.0777588,0.4951172,0.1646118,0.9885254,0.2680664,1.4794922
		c0.1154785,0.5478516,0.2459717,1.0935059,0.3891602,1.6367188c0.2216187,0.8413086,0.4707642,1.6738281,0.7371216,2.5004883
		c-0.2663574-0.8266602-0.5155029-1.6591797-0.7371216-2.5004883C5.6609721,52.5333138,5.4396586,51.4944954,5.2751689,50.4471321z"
		/>
	<path class="st0" d="M10.3864355,67.3734055c0.0718994,0.4023438,0.1295776,0.8078613,0.1557617,1.2202148
		c0.0161743,0.2548828,0.0224609,0.512207,0.0172119,0.7719727l0,0
		C10.5731421,68.6859055,10.5028296,68.0247726,10.3864355,67.3734055z"/>
	<path class="st0" d="M84.3962021,118.5106125c0.5934448-0.1796875,1.1797485-0.3745117,1.7590332-0.5844727
		c1.1586304-0.4196777,2.2893066-0.8984375,3.3947144-1.4313965c2.2106934-1.065918,4.3198853-2.348877,6.3465576-3.8098145
		c0.6306763-0.4545898,1.2333374-0.9326172,1.8068848-1.4360352c-0.5735474,0.503418-1.1762085,0.9814453-1.8068848,1.4360352
		C92.3498154,115.2415695,88.55056,117.2530441,84.3962021,118.5106125z"/>
	<path class="st0" d="M98.0945663,26.198843c0.3380737,0.3034668,0.673645,0.609375,1.0106812,0.9138184
		C98.7681503,26.808218,98.4327011,26.5023098,98.0945663,26.198843c-0.4207153-0.3776855-0.8218384-0.7700195-1.2136841-1.1691895
		C97.272728,25.4290676,97.673851,25.8211575,98.0945663,26.198843z"/>
	<path class="st0" d="M58.3736191,113.6524582c0.5023193,0.2121582,0.9824219,0.4777832,1.4540405,0.7641602
		c-1.1791382-0.7155762-2.4359131-1.2426758-3.8469849-1.3999023
		C56.8273544,113.1111984,57.6201401,113.334343,58.3736191,113.6524582z"/>
	<path class="st0" d="M105.8938217,33.7957649c0.7770386,0.8813477,1.5079956,1.7893066,2.1863403,2.7270508
		C107.4018173,35.5850716,106.6708603,34.6771126,105.8938217,33.7957649
		c-0.6015625-0.6821289-1.2207642-1.3464355-1.8534546-1.9970684c-0.9489746-0.9758301-1.9337158-1.9150391-2.9293823-2.8435059
		C102.7703476,30.5025539,104.3898544,32.0901985,105.8938217,33.7957649z"/>
	<path class="st0" d="M18.2986679,97.0667648c0.1231079,0.0488281,0.243042,0.1044922,0.3685303,0.1489258
		c0.2509766,0.0883789,0.5048828,0.1708984,0.7546997,0.2612305c0.1065674,0.0383301,0.1965332,0.0810547,0.2770996,0.1257324
		c-0.0805664-0.0446777-0.1704712-0.0874023-0.2770996-0.1257324
		C19.0472031,97.3411789,18.6680527,97.2139816,18.2986679,97.0667648z"/>
	<path class="st0" d="M54.837059,113.0613937c0.1503296-0.0285645,0.3013916-0.0544434,0.4578247-0.0632324
		C55.1381454,113.0057297,54.9877548,113.0345383,54.837059,113.0613937z"/>
	<path class="st0" d="M31.9148178,113.5538254c0.0265503,0.0549316,0.0531006,0.1101074,0.0794678,0.1652832
		c0.0059814,0.0126953,0.0117188,0.0251465,0.0177002,0.0378418c-0.0059814-0.0126953-0.0116577-0.0253906-0.0177002-0.0378418
		C31.9679184,113.6639328,31.9410019,113.6090012,31.9148178,113.5538254z"/>
	<path class="st0" d="M34.8959579,118.8626633c0.2026978,0.2336426,0.4120483,0.4487305,0.6279907,0.645752
		c0.2034302,0.1855469,0.4138184,0.3520508,0.6287842,0.5058594
		C35.7095566,119.6973801,35.2895737,119.3165207,34.8959579,118.8626633z"/>
	<path class="st0" d="M19.7657089,97.6458664c0.0509644,0.0327148,0.0966187,0.0668945,0.1346436,0.1027832
		C19.8622665,97.7127609,19.8166733,97.6785812,19.7657089,97.6458664z"/>
	<path class="st0" d="M20.0514145,97.9739914c0.0185547,0.0595703,0.027771,0.121582,0.0202026,0.1872559
		C20.0791245,98.0955734,20.0699692,98.0335617,20.0514145,97.9739914z"/>
	<path class="st0" d="M25.4829941,111.0594406c0.2520752-0.0925293,0.5028076-0.2021484,0.7509766-0.3293457
		c0.4674072-0.2397461,0.961853-0.373291,1.4553833-0.4094238c-0.4935303,0.0361328-0.9879761,0.1694336-1.4553833,0.4094238
		C25.9858017,110.8572922,25.7350693,110.9669113,25.4829941,111.0594406z"/>
	<path class="st0" d="M57.9717026,4.4542131c-0.6989746,0.1242676-1.3964844,0.2587891-2.0911255,0.4123535
		c-0.0015259,0.0004883-0.0029907,0.0007324-0.0045166,0.0012207c0.0015259-0.0004883,0.0029907-0.0007324,0.0045166-0.0012207
		C56.5752182,4.7130022,57.272728,4.5784807,57.9717026,4.4542131z"/>
	<path class="st0" d="M38.2547836,120.9791183c-0.1502686-0.0373535-0.298584-0.0800781-0.4449463-0.1281738
		C37.9561386,120.8990402,38.104454,120.9417648,38.2547836,120.9791183z"/>
	<path class="st0" d="M37.5179062,120.7481613c-0.1468506-0.0566406-0.2907104-0.1218262-0.4332886-0.1901855
		C37.2272568,120.6263351,37.3710556,120.6915207,37.5179062,120.7481613z"/>
	<path class="st0" d="M36.8174667,120.4271164c-0.1522827-0.0825195-0.300293-0.1765137-0.4474487-0.2729492
		C36.5171738,120.2506027,36.665184,120.3445969,36.8174667,120.4271164z"/>
	<path class="st0" d="M40.9693832,121.1180344c-0.2804565,0.0341797-0.5552368,0.0532227-0.8258057,0.0605469
		C40.4141464,121.171257,40.6889267,121.1522141,40.9693832,121.1180344z"/>
	<path class="st0" d="M34.0060043,117.6675949c-0.2459717-0.3815918-0.4661255-0.7773438-0.6772461-1.1779785
		C33.5399399,116.8904953,33.7600327,117.2860031,34.0060043,117.6675949z"/>
	<path class="st0" d="M39.0354233,121.1216965c-0.1602783-0.0195312-0.319458-0.0424805-0.475708-0.0732422
		C38.7159653,121.079216,38.875145,121.1021652,39.0354233,121.1216965z"/>
	<path class="st0" d="M19.5955429,110.1890793c-0.0770874-0.0583496-0.15271-0.1186523-0.2270508-0.1806641
		C19.4430771,110.0706711,19.5183334,110.1304855,19.5955429,110.1890793z"/>
	<path class="st0" d="M22.9833603,111.4305344c-0.0985718-0.005127-0.1967773-0.0126953-0.2944946-0.0227051
		C22.7868271,111.4178391,22.8845444,111.4254074,22.9833603,111.4305344z"/>
	<path class="st0" d="M42.1886215,120.8790207c0.1312256-0.0354004,0.2560425-0.0883789,0.3853149-0.1289062
		c-0.3232422,0.1015625-0.6542969,0.1813965-0.9901733,0.2480469
		C41.7853012,120.9583664,41.9917831,120.9319992,42.1886215,120.8790207z"/>
	<path class="st0" d="M22.1019516,111.3172531c-0.0844727-0.0168457-0.1699829-0.0302734-0.253479-0.0507812
		C21.9321518,111.2869797,22.0172348,111.3004074,22.1019516,111.3172531z"/>
	<path class="st0" d="M20.298851,110.6544113c-0.074707-0.0419922-0.1456299-0.0900879-0.2185669-0.1350098
		C20.1533432,110.5643234,20.2240219,110.6124191,20.298851,110.6544113z"/>
	<path class="st0" d="M33.1323471,116.1055832c-0.1529541-0.3039551-0.3032227-0.6096191-0.4481201-0.9179688
		C32.8291245,115.4959641,32.979393,115.8016281,33.1323471,116.1055832z"/>
	<path class="st0" d="M30.4159775,111.2010422c-0.3781738-0.317627-0.8130493-0.5556641-1.2767944-0.7055664
		C29.6029282,110.6453781,30.0378647,110.8834152,30.4159775,111.2010422z"/>
	<path class="st0" d="M23.8539047,111.419548c-0.0903931,0.0080566-0.1799316,0.0080566-0.2699585,0.0119629
		C23.6740952,111.4276047,23.7633896,111.4276047,23.8539047,111.419548z"/>
	<path class="st0" d="M24.7237778,111.2864914c0.2536621-0.059082,0.5070801-0.1345215,0.7592163-0.2270508
		c-0.253418,0.0930176-0.5081787,0.168457-0.7631226,0.2275391
		C24.7211533,111.2867355,24.722496,111.2867355,24.7237778,111.2864914z"/>
	<path class="st0" d="M39.8781967,121.1751633c-0.1821899-0.0012207-0.3635864-0.0046387-0.5410767-0.0185547
		C39.5146103,121.1705246,39.6960068,121.1739426,39.8781967,121.1751633z"/>
	<path class="st0" d="M76.7369614,119.7044601c-0.4094849,0.001709-0.8186035-0.0056152-1.227356-0.0224609
		C75.9183578,119.6988449,76.3274765,119.7061691,76.7369614,119.7044601z"/>
	<path class="st0" d="M49.4857407,116.747673c0.2102051-0.1604004,0.4155273-0.3273926,0.6240234-0.4899902
		c-0.5709839,0.4455566-1.152832,0.8762207-1.7401123,1.2993164
		C48.7425156,117.2884445,49.1202011,117.0262375,49.4857407,116.747673z"/>
	<path class="st0" d="M78.8905869,119.6141281c0.4103394-0.036377,0.8215942-0.0986328,1.232666-0.1557617
		c-0.9675903,0.1342773-1.9333496,0.2199707-2.8967896,0.2424316
		C77.7806015,119.6878586,78.3351059,119.6632004,78.8905869,119.6141281z"/>
	<path class="st0" d="M102.918602,104.2757492c-0.0531006,0.1142578-0.1074219,0.2280273-0.1624756,0.3417969
		C102.8111801,104.5037766,102.8655014,104.390007,102.918602,104.2757492z"/>
	<path class="st0" d="M69.5323105,118.8199387c-0.5418701-0.1311035-1.083313-0.2712402-1.6240234-0.4279785
		C68.4489975,118.5486984,68.9904404,118.6888351,69.5323105,118.8199387z"/>
	<path class="st0" d="M73.3577499,119.5176926c-0.5454102-0.0644531-1.0898438-0.1484375-1.6339722-0.2424316
		C72.2679062,119.3692551,72.8124619,119.4534836,73.3577499,119.5176926z"/>
	<path class="st0" d="M71.2336655,119.1839523c-0.4052124-0.076416-0.8101196-0.1606445-1.2146606-0.2524414
		C70.4235458,119.0235519,70.8284531,119.1075363,71.2336655,119.1839523z"/>
	<path class="st0" d="M75.0205917,119.6605148c-0.5446777-0.0322266-1.0888062-0.0756836-1.6322021-0.1391602
		C73.9317245,119.5848312,74.475975,119.6282883,75.0205917,119.6605148z"/>
	<path class="st0" d="M113.772728,58.2991829c-0.1027222,0.9016113-0.2510376,1.7900391-0.4402466,2.6677246
		C113.5216904,60.089222,113.6699448,59.2007942,113.772728,58.2991829z"/>
	<path class="st0" d="M54.6732407,113.0884933c-0.1866455,0.0424805-0.3682861,0.1064453-0.546936,0.1806641
		C54.3047714,113.1932297,54.4869003,113.1331711,54.6732407,113.0884933z"/>
	<path class="st0" d="M53.5357285,113.5836105c0.1827393-0.1188965,0.3687744-0.2189941,0.5585938-0.302002
		c-0.2398071,0.1025391-0.4743652,0.2329102-0.7027588,0.3959961
		C53.4399033,113.6478195,53.4876938,113.6148605,53.5357285,113.5836105z"/>
	<path class="st0" d="M104.4900742,99.9969406c-0.0420532,0.1455078-0.085144,0.2907715-0.1288452,0.435791
		C104.4049301,100.2877121,104.4479599,100.1424484,104.4900742,99.9969406z"/>
	<path class="st0" d="M104.088829,101.2925949c-0.0429077,0.130127-0.0843506,0.2607422-0.1288452,0.3901367
		C104.0044785,101.553093,104.0459213,101.4227219,104.088829,101.2925949z"/>
	<path class="st0" d="M104.8354721,98.7386398c-0.0332642,0.1289062-0.0689087,0.2570801-0.1032104,0.3857422
		C104.7665634,98.9957199,104.8021469,98.8675461,104.8354721,98.7386398z"/>
	<path class="st0" d="M107.1241684,81.6190109c0.1131592-0.9196777,0.2496948-1.8347168,0.4115601-2.744873
		c0.1619263-0.9104004,0.3492432-1.8156738,0.5639648-2.7155762c-0.5726318,2.3999023-0.9353027,4.8405762-1.1564941,7.3078613
		C106.998497,82.8497238,107.0487289,82.232048,107.1241684,81.6190109z"/>
	<path class="st0" d="M19.9117661,98.53405c-0.0466919,0.0668945-0.1034546,0.1359863-0.1702271,0.2072754
		c0.133606-0.1428223,0.2269287-0.276123,0.2802124-0.4006348C19.9951401,98.4029465,19.958519,98.4673996,19.9117661,98.53405z"/>
	<path class="st0" d="M20.0264511,97.9202805c-0.0187988-0.0405273-0.0427246-0.0795898-0.0742798-0.1171875
		C19.9837875,97.8404465,20.0077133,97.8797531,20.0264511,97.9202805z"/>
	<path class="st0" d="M5.2126689,50.0071907c-0.0517578-0.3691406-0.0949707-0.7397461-0.130249-1.1115723
		C5.1176982,49.2674446,5.1609111,49.6380501,5.2126689,50.0071907z"/>
	<path class="st0" d="M10.3576269,67.2047043c-0.0734863-0.3815918-0.1643066-0.7595215-0.2662354-1.1350098
		C10.1933203,66.4451828,10.2841406,66.8231125,10.3576269,67.2047043z"/>
	<path class="st0" d="M19.0046005,99.6224289c0.1690674-0.2265625,0.3446045-0.4506836,0.5316162-0.6711426
		C19.349144,99.1717453,19.1737289,99.3961105,19.0046005,99.6224289z"/>
	<polygon class="st0" points="9.9263525,78.5784836 9.9263525,78.580925 9.9263525,78.5784836 	"/>
	<path class="st0" d="M14.302146,94.3690109c-0.5855713-0.5878906-1.1029053-1.2307129-1.5521851-1.9289551
		C13.1991796,93.138298,13.7165747,93.7811203,14.302146,94.3690109z"/>
	<path class="st0" d="M18.9366074,109.6090012c-0.0614624-0.0622559-0.1254272-0.1213379-0.1843872-0.1862793
		C18.8113022,109.4876633,18.8750229,109.5467453,18.9366074,109.6090012z"/>
	<path class="st0" d="M18.5063705,100.3472824c0.1107178-0.1740723,0.2268066-0.3464355,0.3485107-0.5166016
		C18.7331772,100.0008469,18.6170883,100.1732101,18.5063705,100.3472824z"/>
	<path class="st0" d="M11.9424047,90.9710617c-0.178894-0.3847656-0.3463745-0.7788086-0.4915771-1.1911621
		C11.5960302,90.1922531,11.7635107,90.5862961,11.9424047,90.9710617z"/>
	<path class="st0" d="M12.5585546,92.1248703c-0.1592407-0.2651367-0.3091431-0.5375977-0.449707-0.8181152
		C12.2494116,91.5872726,12.3992529,91.8597336,12.5585546,92.1248703z"/>
	<path class="st0" d="M16.621788,96.202507c-0.37146-0.2290039-0.7203379-0.4758301-1.0577402-0.7321777
		C15.9014502,95.7266769,16.250267,95.9735031,16.621788,96.202507z"/>
	<path class="st0" d="M15.2715673,95.2361984c-0.2433472-0.1965332-0.4772949-0.4006348-0.7018433-0.6123047
		C14.7942724,94.8355637,15.0282202,95.0396652,15.2715673,95.2361984z"/>
	<path class="st0" d="M17.3817368,102.8528976c0.0526123-0.1953125,0.1120605-0.3886719,0.178833-0.5791016
		C17.4937973,102.4642258,17.434288,102.6575851,17.3817368,102.8528976z"/>
	<path class="st0" d="M9.2568579,63.4420052c-0.8338623-2.4689941-1.7882686-4.8981934-2.5873408-7.3781738
		C7.4685893,58.5438118,8.4229956,60.9732552,9.2568579,63.4420052z"/>
	<path class="st0" d="M17.1667099,103.9083176c0.0351562-0.2775879,0.0891724-0.5488281,0.1522827-0.8166504
		C17.2558823,103.3597336,17.2018051,103.6307297,17.1667099,103.9083176z"/>
	<path class="st0" d="M17.522789,107.4046555c0.1806641,0.4882812,0.416626,0.9414062,0.6984863,1.3540039
		c-0.352356-0.5158691-0.6220703-1.1010742-0.8126831-1.7333984
		C17.4466782,107.1517258,17.477623,107.2825851,17.522789,107.4046555z"/>
	<path class="st0" d="M17.6418076,102.0447922c0.09729-0.2539062,0.2029419-0.505127,0.3240967-0.7509766
		C17.8447495,101.5396652,17.7391586,101.7908859,17.6418076,102.0447922z"/>
	<path class="st0" d="M10.0327368,65.8568039c-0.1051025-0.3710938-0.2182007-0.7407227-0.3383789-1.1088867
		C9.8144751,65.1160812,9.9276342,65.4857101,10.0327368,65.8568039z"/>
	<path class="st0" d="M17.9678574,101.2899094c0.1217041-0.246582,0.2585449-0.487793,0.4025879-0.7268066
		C18.2264023,100.8021164,18.0895615,101.0433273,17.9678574,101.2899094z"/>
	<path class="st0" d="M9.614646,64.5069504c-0.1178589-0.3552246-0.237915-0.7099648-0.3577881-1.0649452
		C9.3767309,63.7969856,9.4967871,64.1517258,9.614646,64.5069504z"/>
	<path class="st5" d="M113.9547958,54.806263c-0.0103149-0.677002-0.0528564-1.3508301-0.1088867-2.0229492
		c-0.0139771-0.1674805-0.0290527-0.3352051-0.0456543-0.5021973c-0.1328125-1.3361816-0.3469238-2.6633301-0.6259766-3.9829102
		c-0.0350952-0.1657715-0.0709229-0.331543-0.1079102-0.4970703c-0.1460571-0.6533203-0.3013916-1.3056641-0.4746704-1.9555664
		c-0.0001831-0.0007324-0.0002441-0.0012207-0.0004272-0.0019531c-0.1525879-0.5722656-0.3233643-1.1345215-0.5112305-1.6877441
		c-0.2143555-0.6311035-0.4570312-1.2468262-0.7150269-1.854248c-0.081604-0.1921387-0.1713257-0.3796387-0.2570801-0.5695801
		c-0.1894531-0.4189453-0.3867188-0.8337402-0.5960693-1.2419434c-0.1051025-0.2045898-0.2124023-0.4084473-0.3223877-0.6105957
		c-0.2194824-0.4035645-0.4499512-0.8012695-0.6882324-1.1945801c-0.1063232-0.175293-0.2088623-0.3530273-0.3187866-0.5263672
		c-0.3512573-0.5541992-0.7156372-1.1013184-1.1022949-1.6357422c-0.6783447-0.9377441-1.4093018-1.8457031-2.1863403-2.7270508
		c-1.5039673-1.7055664-3.1234741-3.293211-4.7828369-4.8405743c-0.6637573-0.6188965-1.331604-1.2338867-2.0057373-1.8425293
		c-0.3370361-0.3044434-0.6726074-0.6103516-1.0106812-0.9138184c-0.4207153-0.3776855-0.8218384-0.7697754-1.2136841-1.1691895
		c-0.0983276-0.1003418-0.1956787-0.201416-0.2921143-0.3029785c-0.3856812-0.4064941-0.7617188-0.8203125-1.1157837-1.2504883
		c-0.4121094-0.5007324-0.7947998-1.0231934-1.1610718-1.5578613c-0.8132935-1.1879883-1.5168457-2.4570312-2.0782471-3.8305664
		c-0.6750488-1.6518555-1.4812622-3.2478037-2.5214844-4.7155771c-0.5119629-0.7219238-1.0741577-1.3786621-1.6785278-1.9799805
		c-0.3021851-0.3007812-0.6149292-0.5876465-0.9371948-0.8620605c-0.6444702-0.5490723-1.3272095-1.0483398-2.039978-1.5080566
		c-0.7128296-0.4597168-1.4557495-0.8798828-2.2207642-1.2709961c-0.3825073-0.1955566-0.7705078-0.3840332-1.1630859-0.5661621
		c-0.3239136-0.1503906-0.652771-0.2770996-0.979187-0.4155273c-0.9430542-0.3999023-1.8933716-0.7648926-2.855957-1.0712891
		c-0.2045898-0.0649414-0.411377-0.1201172-0.6168213-0.1811523c-0.4268188-0.1269531-0.854248-0.2514648-1.2844849-0.3618164
		c-0.2457275-0.0632324-0.492981-0.1191406-0.7398071-0.177002c-0.395874-0.0930176-0.7925415-0.1828613-1.19104-0.2629395
		c-0.2583008-0.0522461-0.517395-0.1000977-0.7767334-0.1469727c-0.3939819-0.0712891-0.7890015-0.137207-1.1852417-0.1972656
		c-0.2596436-0.0390625-0.5194092-0.0778809-0.7799683-0.1123047c-0.4074707-0.0541992-0.8164062-0.1010742-1.2260742-0.1442871
		c-0.2473145-0.026123-0.4941406-0.0544434-0.7421875-0.0769043c-0.4510498-0.0405273-0.9039917-0.0722656-1.3573608-0.1013184
		c-0.2074585-0.0131836-0.4141235-0.0307617-0.6220703-0.041748c-0.6607666-0.034668-1.3233643-0.0603027-1.9884033-0.0734863
		c-0.7987671-0.013916-1.5945435,0.0014648-2.3873901,0.0432129c-0.7160645,0.0375977-1.4289551,0.1035156-2.1403198,0.1816406
		c-0.2136841,0.0236816-0.4266357,0.052002-0.6398926,0.0791016c-0.5227661,0.065918-1.0444336,0.1411133-1.5647583,0.2263184
		c-0.2078247,0.0339355-0.4158325,0.0661621-0.62323,0.1030273c-0.6989746,0.1242676-1.3964844,0.2587891-2.0911255,0.4123535
		c-0.0015259,0.0004883-0.0029907,0.0007324-0.0045166,0.0012207c-0.7639771,0.1689453-1.5140381,0.373291-2.2582397,0.5922852
		c-0.1859741,0.0549316-0.371521,0.1108398-0.5563354,0.168457c-1.3674316,0.4267578-2.7059937,0.9262695-4.019165,1.4892578
		c-0.1947632,0.0834961-0.3876953,0.1716309-0.5814209,0.2575684c-0.4195557,0.1860352-0.8374634,0.3764648-1.2526245,0.5732422
		c-0.2119141,0.1005859-0.4234619,0.2021484-0.6343384,0.3051758c-0.4164429,0.2036133-0.8307495,0.4121094-1.2435303,0.6245117
		c-0.1813965,0.0932617-0.3635254,0.1850586-0.5443115,0.2797852c-0.5824585,0.3059082-1.1627197,0.6174316-1.739502,0.9367676
		c-1.3639526,0.755127-2.6421509,1.6271973-3.878479,2.5568848c-0.9272461,0.6972656-1.8292847,1.4291992-2.7280884,2.1660156
		c-0.2996216,0.2456055-0.6003418,0.4897461-0.8995361,0.736084c-0.0048828,0.0039062-0.0095825,0.0080566-0.0144653,0.0119629
		c-0.8376465,0.6894541-1.6691895,1.3862314-2.4955444,2.088624c-0.2498169,0.2121582-0.4968262,0.4274902-0.7451172,0.6413574
		c-0.624939,0.5385742-1.2431641,1.0839844-1.8563232,1.6347656c-0.2539062,0.2282715-0.5084839,0.4555664-0.7599487,0.6865234
		c-0.8231812,0.755127-1.6367798,1.5205078-2.4283447,2.3085938c-0.5870972,0.5847168-1.1480103,1.1962891-1.7136841,1.8029785
		c-0.2810059,0.3015137-0.5758667,0.588623-0.8509521,0.8959961c-2.4799194,2.7712402-5.2955322,5.0380859-8.5506592,6.8215313
		c-0.7294931,0.3999023-1.4364634,0.8300781-2.1226816,1.2880859c-1.3724365,0.9160156-2.6617432,1.9431152-3.8817749,3.0610352
		c-0.6099854,0.559082-1.2026367,1.140625-1.7797241,1.7426758c-0.5371089,0.5600586-1.0058589,1.1455078-1.4154658,1.7531738
		c-0.0571899,0.0847168-0.1106567,0.1711426-0.1654053,0.2570801c-0.1375732,0.2158203-0.2670898,0.4345703-0.388855,0.6564941
		c-0.048645,0.088623-0.0986938,0.1767578-0.1448364,0.2666016c-0.1556396,0.3024902-0.3016968,0.6086426-0.4284058,0.9226074
		c-0.4224243,1.0458984-0.6838989,2.1550293-0.7826538,3.331543c-0.0328979,0.3920898-0.0477295,0.791748-0.0443726,1.1989746
		c0.0041504,0.5097656,0.0316162,1.0161133,0.0699463,1.5212402c0.0114136,0.1501465,0.0269165,0.2998047,0.0411987,0.4499512
		c0.0352783,0.3718262,0.0784912,0.7424316,0.130249,1.1115723c0.0205078,0.1467285,0.0394897,0.2937012,0.0625,0.4399414
		c0.1644897,1.0473633,0.3858032,2.0861816,0.6572266,3.1162109c0.2216187,0.8413086,0.4707642,1.6738281,0.7371216,2.5004883
		c0.7990723,2.4799805,1.7534785,4.9091797,2.5873408,7.3781738c0.119873,0.3549805,0.2399292,0.7097206,0.3577881,1.0649452
		c0.0266113,0.0803223,0.0534668,0.1606445,0.0797119,0.2409668c0.1201782,0.3681641,0.2332764,0.737793,0.3383789,1.1088867
		c0.0200195,0.0708008,0.0394287,0.1418457,0.0586548,0.2128906c0.1019287,0.3754883,0.192749,0.753418,0.2662354,1.1350098
		c0.0108032,0.0559082,0.0187988,0.1125488,0.0288086,0.1687012c0.116394,0.6513672,0.1867065,1.3125,0.1729736,1.9921875l0,0
		c-0.0401001,1.9772949-0.1647339,3.9521484-0.3989868,5.9150391c-0.1317749,1.1032715-0.2088623,2.2023926-0.2340698,3.2978516
		c0,0.0007324,0.000061,0.0014648,0,0.0024414c-0.0626831,2.7375488,0.1987915,5.4516602,0.7417603,8.1496582
		c0.1086426,0.5397949,0.2285156,1.0788574,0.359314,1.6174316c0.1201172,0.4943848,0.2613525,0.9716797,0.4234009,1.4318848
		c0.1452026,0.4123535,0.3126831,0.8063965,0.4915771,1.1911621c0.0529785,0.1140137,0.1105347,0.2241211,0.1664429,0.3356934
		c0.140564,0.2805176,0.2904663,0.5529785,0.449707,0.8181152c0.0633545,0.1054688,0.1251221,0.2121582,0.1914062,0.3151855
		c0.4492798,0.6982422,0.9666138,1.3410645,1.5521851,1.9289551c0.0866699,0.0869141,0.1779175,0.170166,0.2675781,0.2548828
		c0.2245483,0.2116699,0.4584961,0.4157715,0.7018433,0.6123047c0.0970459,0.0786133,0.1924438,0.1582031,0.2924805,0.2341309
		c0.3374023,0.2563477,0.6862803,0.5031738,1.0577402,0.7321777c0.414917,0.2553711,0.8508911,0.4938965,1.3083496,0.7150879
		c0.1190186,0.057373,0.2453613,0.0998535,0.3685303,0.1491699c0.3693848,0.1472168,0.7485352,0.2744141,1.12323,0.4101562
		c0.1066284,0.0383301,0.1965332,0.0810547,0.2770996,0.1257324c0.0247192,0.013916,0.0444946,0.0288086,0.0667114,0.0432129
		c0.0509644,0.0327148,0.0965576,0.0668945,0.1346436,0.1027832c0.0188599,0.0178223,0.0361328,0.0358887,0.0518188,0.0544434
		c0.0315552,0.0375977,0.055481,0.0766602,0.0742798,0.1171875c0.0083008,0.0180664,0.019165,0.0351562,0.0249634,0.0537109
		c0.0185547,0.0595703,0.02771,0.121582,0.0202026,0.1872559c-0.0065918,0.057373-0.0232544,0.1174316-0.0498657,0.1794434
		c-0.0532837,0.1245117-0.1466064,0.2578125-0.2802124,0.4006348c-0.0648804,0.0690918-0.138916,0.1311035-0.2000122,0.2033691
		c-0.0018921,0.0019531-0.003418,0.0043945-0.0053101,0.0065918c-0.1870117,0.220459-0.3625488,0.4445801-0.5316162,0.6711426
		c-0.0513916,0.0688477-0.1000366,0.1386719-0.1497192,0.208252c-0.1217041,0.170166-0.237793,0.3425293-0.3485107,0.5166016
		c-0.0456543,0.0717773-0.0922241,0.1433105-0.1359253,0.2158203c-0.144043,0.2390137-0.2808838,0.4802246-0.4025879,0.7268066
		c-0.0006714,0.0014648-0.0012817,0.0026855-0.0019531,0.0039062c-0.1211548,0.2458496-0.2268066,0.4970703-0.3240967,0.7509766
		c-0.0289917,0.0756836-0.0545044,0.1525879-0.0812378,0.2290039c-0.0667725,0.1904297-0.1262207,0.3837891-0.178833,0.5791016
		c-0.0213013,0.0795898-0.0438232,0.1586914-0.0627441,0.2387695c-0.0631104,0.2678223-0.1171265,0.5390625-0.1522827,0.8166504
		c-0.0389404,0.3085938-0.0601807,0.6235352-0.0623779,0.9453125c-0.0021973,0.3215332,0.0145264,0.6496582,0.0513916,0.9851074
		c0.0456543,0.4155273,0.1384888,0.807373,0.2528687,1.1865234c0.1906128,0.6323242,0.4603271,1.2175293,0.8126831,1.7333984
		c0.1613159,0.2363281,0.3413086,0.4550781,0.5309448,0.6640625c0.05896,0.0649414,0.1229248,0.1240234,0.1843872,0.1862793
		c0.1385498,0.1401367,0.2814331,0.2739258,0.4318848,0.3994141c0.0743408,0.0620117,0.1499634,0.1223145,0.2270508,0.1806641
		c0.156311,0.1184082,0.3182373,0.2272949,0.4847412,0.3303223c0.072937,0.0449219,0.1438599,0.0930176,0.2185669,0.1350098
		c0.4851074,0.2724609,1.0054932,0.4785156,1.5496216,0.6120605c0.0834961,0.0205078,0.1690063,0.0339355,0.253479,0.0507812
		c0.1937256,0.0390625,0.3887329,0.0703125,0.5869141,0.0905762c0.0977173,0.0100098,0.1959229,0.0175781,0.2944946,0.0227051
		c0.1989746,0.0107422,0.3990479,0.0097656,0.6005859,0.0009766c0.0900269-0.0039062,0.1795654-0.0039062,0.2699585-0.0119629
		c0.2879028-0.0253906,0.5767822-0.0654297,0.8659668-0.1325684c0.2549438-0.059082,0.5097046-0.1345215,0.7631226-0.2275391
		c0.2520752-0.0925293,0.5028076-0.2021484,0.7509766-0.3293457c0.4674072-0.2399902,0.961853-0.373291,1.4553833-0.4094238
		s0.986084,0.0251465,1.4498291,0.1748047c0.4637451,0.1499023,0.8986206,0.3879395,1.2767944,0.7055664
		c0.1890869,0.1586914,0.3639526,0.3374023,0.5211792,0.5349121s0.2967529,0.4138184,0.4151001,0.6474609
		c0.1954346,0.3859863,0.3770752,0.7792969,0.562561,1.1704102c0.0261841,0.0551758,0.0531006,0.1101074,0.0794678,0.1652832
		c0.0060425,0.0124512,0.0117188,0.0251465,0.0177002,0.0378418c0.2271118,0.4753418,0.4481812,0.9538574,0.6722412,1.4306641
		c0.1448975,0.3083496,0.295166,0.6140137,0.4481201,0.9179688c0.0646362,0.128418,0.1293945,0.2568359,0.1964111,0.3840332
		c0.2111206,0.4006348,0.4312744,0.7963867,0.6772461,1.1779785c0.2672729,0.4145508,0.5602417,0.8149414,0.8899536,1.1950684
		c0.3936157,0.4538574,0.8135986,0.8347168,1.2567749,1.1516113c0.0709839,0.0505371,0.1450806,0.0925293,0.2172852,0.1398926
		c0.1471558,0.0964355,0.295166,0.1904297,0.4474487,0.2729492c0.0877075,0.0473633,0.1777954,0.0878906,0.2671509,0.1308594
		c0.1425781,0.0683594,0.286438,0.1335449,0.4332886,0.1901855c0.0962524,0.0371094,0.1939087,0.0705566,0.2919312,0.1027832
		c0.1463623,0.0480957,0.2946777,0.0908203,0.4449463,0.1281738c0.1009521,0.0251465,0.2022095,0.0490723,0.3049316,0.0693359
		c0.15625,0.0307617,0.3154297,0.0537109,0.475708,0.0732422c0.1003418,0.0124512,0.1998291,0.0268555,0.3016968,0.0349121
		c0.1774902,0.013916,0.3588867,0.017334,0.5410767,0.0185547c0.0886841,0.0004883,0.1755981,0.0058594,0.2653809,0.003418
		c0.2705688-0.0073242,0.5453491-0.0263672,0.8258057-0.0605469c0.0032349-0.0004883,0.0062866-0.0002441,0.0095215-0.0007324
		c0.2067261-0.0253906,0.4033203-0.0791016,0.6048584-0.1191406c0.3358765-0.0666504,0.6669312-0.1464844,0.9901733-0.2480469
		c1.0343628-0.3251953,2.0150146-0.7980957,2.9666138-1.3393555c0.9849243-0.5600586,1.9154053-1.1953125,2.8291016-1.8537598
		c0.5872803-0.4230957,1.1691284-0.8537598,1.7401123-1.2993164c1.0424805-0.8132324,2.0703125-1.6464844,3.1071777-2.4665527
		c0.0570068-0.045166,0.1170044-0.0725098,0.1746216-0.1135254c0.2283936-0.1630859,0.4629517-0.293457,0.7027588-0.3959961
		c0.0105591-0.0043945,0.0213623-0.0080566,0.0319824-0.0124512c0.1786499-0.0742188,0.3602905-0.1381836,0.546936-0.1806641
		c0.0536499-0.012207,0.109375-0.0175781,0.1638184-0.0270996c0.1506958-0.0268555,0.3010864-0.0556641,0.4578247-0.0632324
		c0.2225342-0.0107422,0.4495239-0.0078125,0.685791,0.0185547c1.4110718,0.1572266,2.6678467,0.6843262,3.8469849,1.3999023
		c0.2358398,0.1430664,0.4731445,0.2824707,0.7029419,0.4401855c1.1368408,0.7807617,2.315918,1.4716797,3.5424194,2.0634766
		c0.6132202,0.2961426,1.2382812,0.5673828,1.8757935,0.8125s1.2874756,0.4645996,1.9505005,0.6567383
		c0.0029907,0.0009766,0.0059814,0.0014648,0.0089722,0.0024414c0.5407104,0.1567383,1.0821533,0.296875,1.6240234,0.4279785
		c0.1621704,0.0393066,0.3244629,0.074707,0.4866943,0.1115723c0.404541,0.0917969,0.8094482,0.1760254,1.2146606,0.2524414
		c0.1633301,0.0310059,0.3266602,0.0629883,0.4901123,0.0913086c0.5441284,0.0939941,1.088562,0.1779785,1.6339722,0.2424316
		c0.0101929,0.0012207,0.0204468,0.0024414,0.0306396,0.0036621c0.543396,0.0634766,1.0875244,0.1069336,1.6322021,0.1391602
		c0.1628418,0.0095215,0.3259888,0.0146484,0.4890137,0.0214844c0.4087524,0.0168457,0.8178711,0.0241699,1.227356,0.0224609
		c0.163147-0.0007324,0.3262329,0,0.489502-0.0036621c0.9634399-0.0224609,1.9291992-0.1081543,2.8967896-0.2424316
		c0.8221436-0.1137695,1.6452637-0.2543945,2.470459-0.4555664c0.6082764-0.1481934,1.2089844-0.3125,1.8024902-0.4921875
		c4.1543579-1.2575684,7.9536133-3.269043,11.5003052-5.8256836c0.6306763-0.4545898,1.2333374-0.9326172,1.8068848-1.4360352
		s1.117981-1.0322266,1.6320801-1.588623c0.5141602-0.5563965,0.9979248-1.140625,1.4503784-1.7546387
		s0.8734741-1.2578125,1.2619019-1.9335938c0.0007324-0.0014648,0.0013428-0.0026855,0.0020752-0.0039062
		c0.2547607-0.4433594,0.4855347-0.8952637,0.7062988-1.3505859c0.0550537-0.1137695,0.109375-0.2275391,0.1624756-0.3417969
		c0.394043-0.8479004,0.7388916-1.7128906,1.0413818-2.5930176c0.0444946-0.1293945,0.0859375-0.2600098,0.1288452-0.3901367
		c0.0940552-0.2854004,0.1855469-0.5720215,0.2723999-0.8598633c0.0437012-0.1450195,0.086792-0.2902832,0.1288452-0.435791
		c0.0837402-0.2897949,0.1643066-0.5805664,0.2421875-0.8725586c0.0343018-0.1286621,0.0699463-0.2568359,0.1032104-0.3857422
		c0.1069336-0.4140625,0.2102051-0.8293457,0.3084717-1.2463379c1.0147095-4.3076172,1.3838501-8.704834,1.7087402-13.1020508
		c0.0228271-0.3093262,0.0628662-0.6154785,0.0905151-0.9238281c0.2211914-2.4672852,0.5838623-4.907959,1.1564941-7.3078613
		c0.2147217-0.9001465,0.4569092-1.7946777,0.7285767-2.6835938c0.0722656-0.2363281,0.1605835-0.4667969,0.237793-0.701416
		c0.7723999-2.3449707,1.7617188-4.6105957,2.7017212-6.8935547c0.0939941-0.2282715,0.1906738-0.4555664,0.2830811-0.6843262
		c0.2384033-0.5905762,0.4533081-1.1860352,0.6453857-1.7861366c0.2571411-0.8037109,0.4588623-1.6201172,0.6362305-2.442627
		c0.189209-0.8776855,0.3375244-1.7661133,0.4402466-2.6677246c0.0168457-0.1474609,0.0436401-0.2919922,0.0582275-0.4404297
		c0.100769-1.0239258,0.1392212-2.0410156,0.1238403-3.0522461
		C113.9547958,54.8065071,113.9547958,54.8065071,113.9547958,54.806263z M62.5945053,6.7479143
		c1.2780151-0.4465332,2.6246338-0.3720703,3.9442139-0.4975586c0.3956909-0.0375977,0.7979126-0.0056152,1.1973877-0.0056152
		c4.1168823,0.1611328,8.1934814,0.6262207,12.0703125,2.0935059c2.425354,0.9179688,4.5939331,2.3076172,6.5940552,3.9931641
		c1.7923584,1.5097656,2.8441162,3.4240723,3.5834961,5.5742197c0.0310669,0.0900879,0.0758667,0.1787109,0.0861206,0.270752
		c0.0332642,0.2988281,0.1306152,0.6496582-0.2032471,0.8215332c-0.3456421,0.1782227-0.4995728-0.1652832-0.6807861-0.3659668
		c-1.3609009-1.5078125-2.5941162-3.1437998-4.1877441-4.4216318c-2.2869263-1.8337402-4.7869263-3.3391113-7.6347656-4.0939941
		c-4.0926514-1.0852051-8.2287598-1.9973145-12.4217529-2.6230469c-0.6572876-0.0976562-1.3173218-0.1796875-1.984314-0.1743164
		c-0.1136475,0.0012207-0.2318115,0.0080566-0.3399048-0.0195312c-0.1697388-0.0429688-0.3479614-0.1350098-0.359436-0.3178711
		C62.2453842,6.785512,62.4673691,6.7923479,62.5945053,6.7479143z M37.7355576,69.079216
		c0.4715576-1.1784668,1.8857422-1.8852539,3.2999268-1.4143066c2.121521,0.7075195,4.007019,1.1789551,5.4212036,0.9428711
		c1.6499023-0.2353516,3.0643311-0.7070312,4.7140503-1.1784668c4.4785767-1.1784668,9.4281616-2.8283691,16.027771,0.7072754
		c1.1786499,0.4711914,1.6499023,2.1210938,1.1786499,3.2998047c-0.7070923,1.4143066-2.3570557,1.8857422-3.5354614,1.1784668
		c-4.9498901-2.5925293-8.2497559-1.4140625-12.2565308-0.2358398c-1.8857422,0.7072754-3.5357056,1.1784668-5.6572266,1.4143066
		c-0.4712524,0-0.9425659,0-1.4141235,0c-1.885498,0-4.0067749-0.4711914-6.3640747-1.4143066
		C37.9713364,71.9075851,37.2642441,70.4940109,37.7355576,69.079216z M75.2124863,62.2440071l-1.4141846,0.942627
		c-0.9428711,0.7072754-2.3570557,0.4711914-3.0641479-0.4714355l-13.6706543-18.855957
		c-0.7073364-0.9431152-0.4715576-2.3571777,0.4713135-3.0644531l1.4141235-0.9428711
		c0.9428711-0.7072754,2.3570557-0.4709473,3.0641479,0.4716797l13.6709595,18.8564453
		C76.390892,60.1226692,76.1553574,61.5367317,75.2124863,62.2440071z M79.4552231,66.2508469
		c0.7070923-0.4716797,1.4141846-0.2358398,1.4141846,0.7072754l0.4713135,4.7141113
		c0,0.942627-0.7070923,1.4140625-1.4141846,0.942627l-4.2424927-2.1208496c-0.7073364-0.4716797-0.7073364-1.1789551,0-1.6501465
		L79.4552231,66.2508469z M25.7113266,89.1800461c-0.1273804,0.1101074-0.2903442,0.1135254-0.4295044,0.0439453
		c-0.3216553-0.1611328-0.6672974-0.300293-0.9415894-0.5239258c-0.7474365-0.6103516-1.4890137-1.2189941-2.1685791-1.9204102
		c-1.0933228-1.1289062-2.0774536-2.3312988-2.8008423-3.7099609c-1.7180176-3.2739258-2.9975586-6.71875-3.7902231-10.3371582
		c-0.4310303-1.9677734-0.6880493-3.9511719-0.8642578-5.9650879c-0.163208-1.8623047-0.4373169-3.7285194-0.6763306-5.5910683
		c-0.3669434-2.861084-0.8014526-5.7209473-0.8169556-8.6118164c-0.0180054-3.3439941,0.444519-6.6286621,1.5032959-9.8129883
		c1.1518555-3.463623,2.7875376-6.6259766,5.4319468-9.2370605c2.2711792-2.2421856,4.4207153-4.6083965,6.6132812-6.9301739
		c0.44104-0.467041,1.0019531-0.6313477,1.6824951-0.842041c-0.2747803,0.6789551-0.571167,1.1809082-0.9295654,1.6535645
		c-1.1033325,1.4541016-2.350769,2.7861328-3.5179443,4.1860352c-1.8779907,2.2514629-3.5594482,4.6332989-4.8875122,7.2600079
		c-1.3305664,2.6311035-2.5485229,5.3046875-3.3464975,8.1520996c-0.4365234,1.5588379-0.6480103,3.1586914-0.8259888,4.7626953
		c-0.1821899,1.6445312-0.2097168,3.2893066-0.1010742,4.9448242c0.140625,2.1396484,0.5316162,4.2355957,0.8494873,6.3486328
		c0.3273935,2.1738319,0.8757944,4.311039,1.0142221,6.5219765c0.1762085,2.8134766,0.8833008,5.541748,1.6234131,8.2548828
		c0.1829834,0.6713867,0.5952148,1.2280273,0.9115601,1.8305664c1.133606,2.1577148,2.3813477,4.2316895,4.1078491,5.9956055
		c0.8059692,0.8237305,1.4597778,1.7963867,2.1755981,2.7062988c0.0918579,0.1166992,0.1529541,0.2609863,0.2112427,0.4001465
		C25.7974472,88.8997726,25.8557358,89.0557785,25.7113266,89.1800461z M35.9499741,99.2244797
		c-1.4577637,0.159668-2.874939,0.5375977-4.3166504,0.7783203c-1.5463257,0.2587891-2.4133301-0.4526367-2.5707397-2.0168457
		c-0.0565796-0.5632324-0.2180176-1.1137695-0.0078125-1.6855469c0.3684692-1.0021973,1.0324707-1.2124023,1.7854004-0.4699707
		c0.8502197,0.8378906,1.8051147,1.5002441,2.8651123,2.0349121c0.4667969,0.2355957,0.9569092,0.3674316,1.4607544,0.4604492
		c0.5151367,0.0952148,0.9626465,0.3188477,1.4226685,0.6428223C36.3674545,99.1707687,36.1487045,99.2029953,35.9499741,99.2244797
		z M65.2376328,107.0286789c-1.2091675,0.8325195-2.5875244,1.0256348-4.1369019,1.064209
		c-1.1182861-0.1201172-2.3632812-0.2512207-3.6072388-0.3903809c-0.2457886-0.0275879-0.4855957-0.0646973-0.736145-0.0270996
		c-1.3894043,0.2087402-2.7734985,0.4445801-4.1283569,0.8234863c-0.4996338,0.1401367-1.0112305,0.1853027-1.5215454,0.2133789
		c-1.1363525,0.0615234-2.274231,0.1098633-3.4120483,0.1269531c-1.6447144,0.0251465-2.8323975-0.8398438-3.7709961-2.0825195
		c-0.4089966-0.5415039-0.7178345-1.1628418-1.0397339-1.7648926c-0.2269897-0.4255371-0.3053589-0.8962402-0.2542725-1.3820801
		c0.0422974-0.4025879,0.2562866-0.5288086,0.6292114-0.3945312c0.1427002,0.0515137,0.2883301,0.1040039,0.4175415,0.1816406
		c1.9177246,1.1513672,4.0917969,1.605957,6.2328491,1.8291016c2.7149658,0.2834473,5.4214478,0.7189941,8.1606445,0.7944336
		c1.40271,0.0385742,2.800354,0.2529297,4.2027588,0.2849121c0.9281006,0.0209961,1.8527222,0.0471191,2.7763062,0.1325684
		c0.1964722,0.0180664,0.4732666-0.0749512,0.536377,0.1877441
		C65.6363754,106.8367844,65.3903427,106.9234543,65.2376328,107.0286789z M70.746666,100.8282394
		c-0.8704834,0.1691895-1.7750854,0.2373047-2.6626587,0.2258301c-0.9165649-0.0114746-1.8369141,0.0319824-2.7156982,0.203125
		c-1.6033936,0.3125-3.1810303,0.0761719-4.7694092,0.0136719c-1.1002808-0.043457-2.1933594-0.2211914-3.2993774-0.1748047
		c-0.2064819,0.0085449-0.4212646-0.0129395-0.6217651-0.0629883c-1.6732178-0.4169922-3.3807373-0.6643066-5.0617065-1.0578613
		c-1.932312-0.4523926-3.7775269-1.1262207-5.611145-1.8356934c-1.4807739-0.572998-2.9094849-1.2834473-4.3461914-1.9643555
		c-0.882019-0.418457-1.5588379-1.1416016-2.350769-1.6989746c-2.3162231-1.6313477-4.5143433-3.4040527-6.4837036-5.4643555
		c-1.6716919-1.7490234-3.1211548-3.6599121-4.5934448-5.5695801c-1.690979-2.1936035-2.8823853-4.6154785-3.8600464-7.1784668
		c-0.4460449-1.1689453-0.9020996-2.3293457-1.1859131-3.550293c-0.2402954-1.0341797-0.6272583-2.0598145-0.6853027-3.104248
		c-0.0570679-1.0161133,0.0900879-2.0537109,0.0195312-3.092041c0.8674927,3.2487793,1.8096313,6.4541016,3.2085571,9.4997559
		c2.805542,6.1071777,6.6168213,11.4841309,11.7994385,15.8137207c5.2359619,4.3742676,11.2645874,7.0507812,17.9730835,8.2441406
		c3.4030151,0.6052246,6.8287964,0.854248,10.2736206,0.6638184c4.3432007-0.2402344,8.5306396-1.1879883,12.4983521-3.0205078
		c0.6227417-0.2878418,1.2379761-0.626709,2.0358887-0.6767578c-0.1694336,0.2744141-0.3796997,0.3623047-0.5671387,0.4680176
		C76.92202,99.1007004,73.9209213,100.2115402,70.746666,100.8282394z M103.9460068,85.9285812
		c-0.1436768,1.5083008-0.3824463,3.0061035-0.6998291,4.4919434c-0.3479004,1.6308594-0.5796509,3.2897949-1.1018066,4.8776855
		c-0.4500122,1.3676758-0.8908081,2.7382812-1.4526978,4.0688477c-0.5331421,1.2624512-1.3180542,2.362793-2.3360596,3.2197266
		c-0.9923706,0.8354492-2.0786743,1.609375-3.2961426,2.1130371c-1.4359131,0.5942383-2.8973999,1.1184082-4.4522705,1.3491211
		c-1.0064087,0.1491699-2.0098877,0.0852051-3.0150757,0.0930176c-0.1096191,0.0012207-0.225769-0.0368652-0.3288574-0.0805664
		c-0.7518921-0.3188477-0.8139648-0.5686035-0.2780762-1.1738281c0.5704346-0.6442871,1.2612305-1.1586914,1.9570312-1.6464844
		c1.1876831-0.8320312,2.262207-1.7805176,3.2789307-2.8093262c2.7532349-2.7868652,4.8920288-6.0671387,7.3251343-9.1101074
		c1.3884277-1.736084,2.3533325-3.7651367,3.4285889-5.7104492c0.2007446-0.3632812,0.3799438-0.7426758,0.7323608-1.0627441
		C104.1089706,84.9778976,103.9868393,85.5001144,103.9460068,85.9285812z M104.0068588,58.3836555
		c-0.0991211,1.6157227-0.3381958,3.2231445-0.517395,4.8344727l-0.1676636,0.001709
		c0-1.2321777,0.0239868-2.4645996-0.0040283-3.6960449c-0.104126-4.579834-1.0337524-9.0100098-2.4846802-13.3388672
		c-0.6630249-1.9782715-1.3676147-3.9436035-2.2061157-5.8547363c-0.9619141-2.192627-2.0161743-4.3391113-3.5244141-6.2233887
		c-0.3709717-0.4641113-0.9714355-0.4685059-1.4802856-0.6018066c-0.2640381-0.0695801-0.4365234-0.1796875-0.6052246-0.348877
		c-2.0299072-2.0324688-4.0998535-4.0156231-6.4121094-5.7363262c-3.1171875-2.3198242-6.505188-4.1176758-10.12146-5.5305176
		c-1.4902954-0.5822754-2.9840088-1.1604004-4.5368652-1.4997559c-3.4508667-0.7548828-6.9227295-1.4038086-10.4931641-1.1323242
		c-1.1721802,0.0891113-2.3535767,0.0471191-3.5279541,0.1142578c-1.2730103,0.0725098-2.4996948,0.4523926-3.7589722,0.630127
		c-2.3209839,0.3273926-4.5153198,1.1328125-6.7354736,1.8366699c-0.1809692,0.0576172-0.3604126,0.1337891-0.5463867,0.1567383
		c-0.1729736,0.0214844-0.493103,0.1325684-0.1734619-0.2678223c0.1484375-0.185791-0.111145-0.4916992-0.2322388-0.7148438
		l-0.4966431-0.2272949c6.5227661-3.0957031,13.366333-4.2294922,20.5321045-3.3049316
		c1.4869995,0.1916504,2.9530029,0.5375977,4.388916,0.9812012c2.3395386,0.7226562,4.6700439,1.4602051,6.9642944,2.3327637
		c2.2759399,0.8654785,4.5248413,1.7470703,6.6318359,2.9785156c2.694458,1.5754395,5.1135864,3.5141602,7.3218994,5.692627
		c3.0266113,2.9851055,5.7470703,6.2353497,7.7121582,10.0410137c1.125061,2.1789551,1.9468384,4.482666,2.7004395,6.8178711
		c0.9046021,2.8015137,1.5328369,5.6494141,1.6660156,8.5878906
		C103.9522934,56.0677376,104.0774155,57.2322884,104.0068588,58.3836555z M109.0305405,54.1194954
		c-0.2267456-3.1967773-0.8920288-6.3266602-1.6394653-9.4443359c1.7558594,2.8815918,2.421875,6.0756836,2.640625,9.3571777
		c0.2175293,3.2668457,0.0495605,6.5266113-0.9065552,9.6984863
		C108.9231796,60.5211067,109.2572861,57.316761,109.0305405,54.1194954z M111.4093857,65.5865402
		c-0.0205688,0.048584-0.0671387,0.0861816-0.1016235,0.1286621c0.28479-1.4587402,0.5809326-2.9038124,0.8610229-4.3540077
		c0.3308716-1.7145996,0.2037354-3.4335938,0.2242432-5.152832c0.0062256-0.5310059-0.0167847-1.0637207-0.0455322-1.5942383
		c-0.1687012-3.1218262-0.7271118-6.1628418-1.7205811-9.1379395c-1.1038208-3.3068848-2.8648682-6.2263184-4.9706421-8.9675293
		c-1.8289185-2.3808594-3.6463013-4.7697735-5.4692383-7.1545391c-0.2072144-0.270752-0.3979492-0.5571289-0.7588501-0.7744141
		c0.3095703-0.0915527,0.4384766,0.0996094,0.5756836,0.2067871c3.7704468,2.9414062,6.9922485,6.3784161,9.3049927,10.5895977
		c2.0569458,3.744873,3.3374634,7.7531738,3.9491577,11.9946289
		C113.9684067,56.2960091,113.3336411,61.018177,111.4093857,65.5865402z"/>
</g>
<g>
	<path class="st1" d="M168.602829,15.724c-2.8586426,1.1103163-3.8052673,4.6475058-1.8394318,6.9542379
		c0.2813263,0.3303928,0.3271332,0.5386391-0.0625763,0.8119621c-1.3455963,0.9446201-1.357605,2.9479923-0.3874512,4.0588093
		c0.2608032,0.2988529,0.3000946,0.4004745-0.0723419,0.6637859c-2.0952301,1.4812546-1.7918701,4.1509171,0.5639191,5.2191811
		c1.9665833,0.8920593,4.0583038,0.9080772,6.1482849,0.8399963c1.843689-0.06007,3.6598358-0.3183784,5.2244415-1.4246864
		c1.2414703-0.8780422,1.7598267-2.0954838,1.5856171-3.6012669c-0.169693-1.4697418-1.0442352-2.3612976-2.3943329-2.8318558
		c-1.4334412-0.4990902-2.9274597-0.3258858-4.1964722-0.3649311c-1.1233215,0-2.0411682,0-2.9589996,0
		c-0.3794556-0.0005016-0.7528992-0.042551-1.0840302-0.2422867c-0.4320221-0.2598095-0.4885864-0.6617851-0.348175-1.0993023
		c0.1556854-0.4855766,0.5026093-0.4054813,0.9013214-0.3123703c1.9405518,0.4500332,3.8733368,0.4295082,5.7665863-0.2362804
		c2.2271423-0.7834282,3.6475677-2.8558826,3.0946655-4.9563713c-0.3233795-1.2279549-0.1734619-1.9608231,0.7959442-2.7392445
		c0.7248535-0.5816898,0.7123413-1.3786335,0.221756-1.9222775c-0.4600372-0.5091038-1.3075409-0.5516539-1.9998627-0.0635757
		c-0.4588013,0.323884-0.8985596,0.6788044-1.3195648,1.050745c-0.224762,0.1982346-0.3929596,0.2112503-0.6813049,0.1101303
		C173.2355652,14.8224325,170.9143219,14.8259363,168.602829,15.724z M169.4075317,28.74893
		c0.8670197,0.0325394,1.7355499,0.0085106,2.6035767,0.0085106v0.0220261l0,0c0.8675385,0,1.7353058-0.0010014,2.6030884,0.0004997
		c0.3804474,0.0005016,0.7458801,0.0825977,1.0797729,0.2623119c0.7509003,0.4039783,0.8445129,1.433197,0.1622009,1.9302864
		c-0.2588043,0.1882229-0.5356293,0.3614273-0.8647766,0.4450264c-1.7580872,0.4480305-3.531189,0.4560413-5.2937775,0.1026211
		c-1.250473-0.2502956-1.7665863-1.0977993-1.354599-2.0399151C168.5429993,29.0227547,168.8418579,28.7274036,169.4075317,28.74893
		z M173.9634247,17.8029633c0.887558,0.3569221,1.3861389,1.3085499,1.2945404,2.2942181
		c-0.0916138,0.9871693-0.8352509,1.7545776-1.9748383,2.0053749c-0.318634,0.0700836-0.6507721,0.0780926-1.0222168,0.1191406
		c-0.933609-0.0350399-1.8922424-0.1631927-2.5970764-0.9285984c-0.9846649-1.0687675-0.5696716-2.837862,0.8119659-3.466608
		C171.624649,17.3038712,172.8105621,17.3394146,173.9634247,17.8029633z"/>
	<path class="st1" d="M248.1075134,24.9964848c0.3383942,1.7110271,1.0770264,3.2163105,2.495697,4.2685566
		c2.9309845,2.1745758,6.1122437,2.2962208,9.3826294,0.9000664c1.1418457-0.4875774,2.0476685-1.3325787,2.4699097-2.5610332
		c0.2042542-0.5932026,0.1256714-1.1733913-0.3849487-1.6028996c-0.4935913-0.415493-1.0537415-0.3273869-1.5793762-0.0770912
		c-0.3123779,0.1491776-0.6304932,0.3464108-0.8610229,0.5992107c-1.1621094,1.2765121-2.6456299,1.5293102-4.2500305,1.3551044
		c-2.1159973-0.2307739-3.7018738-1.5798721-3.9792023-3.2989082c-0.0593262-0.3684368-0.0330505-0.523119,0.4104767-0.51511
		c1.5523376,0.0285339,3.1051788,0.011013,4.6577759,0.011013c1.5525818,0,3.1051636,0.011013,4.6577759-0.0035038
		c1.1498413-0.0115147,1.6754761-0.4830723,1.795105-1.6234226c0.0941162-0.8970642-0.03479-1.78862-0.3203735-2.6346226
		c-0.9338684-2.7642746-2.9084473-4.3061008-5.772583-4.6685295c-3.0598755-0.3874598-5.718277,0.4134893-7.5376892,3.0431042
		C247.8704834,20.2428532,247.6286926,22.5751171,248.1075134,24.9964848z M251.4815063,20.5141754
		c0.5929565-1.8481903,2.2519226-2.8608894,4.4059753-2.6906872c1.8681946,0.1481743,3.1677551,1.1939144,3.5809937,2.8408642
		c0.1233826,0.4925842,0.0843506,0.709341-0.5166321,0.6843109c-1.1495972-0.0470562-2.3024597-0.0135155-3.454071-0.0135155
		c-1.1516266,0-2.3029785,0.0025024-3.4546051-0.0010014C251.2980347,21.3316441,251.245224,21.2505474,251.4815063,20.5141754z"/>
	<path class="st1" d="M222.0919342,15.058712c-4.6114502,0.0215254-7.8983459,3.3865128-7.8545532,8.0400238
		c0.0443115,4.7020702,3.3377075,7.9594307,8.0272675,7.9399071c4.9168243-0.020525,8.1421356-3.2453442,8.1228638-8.1211205
		C230.3687439,18.1859169,227.0433044,15.0351839,222.0919342,15.058712z M222.229599,27.9084339
		c-2.6734161-0.0260296-4.5999451-2.1225147-4.5466309-4.9478607c0.0528107-2.7963123,2.0236511-4.8287201,4.6462555-4.7916775
		c2.7527618,0.0385475,4.6855469,2.1165085,4.6124573,4.9578743
		C226.8675995,26.0081825,224.9693451,27.9344654,222.229599,27.9084339z"/>
	<path class="st1" d="M184.5594788,28.9942207c1.5550995,1.5858784,3.5431976,2.0053749,5.0787659,2.0379143
		c1.8164062-0.0010014,3.014328-0.1772099,4.1424103-0.7073383c2.8471222-1.3380852,3.5584564-5.2216854,1.3273163-7.3011494
		c-0.6112213-0.5691738-1.3621063-0.8910561-2.1590576-1.1268349c-1.3761292-0.4079838-2.8268433-0.4880772-4.1852112-0.9656429
		c-0.7949371-0.2793312-1.2121735-0.8299847-1.1956635-1.5428276c0.0155182-0.6657887,0.4500427-1.2269535,1.2624969-1.4091702
		c1.3823853-0.3098679,2.6936951-0.1491756,3.852066,0.7754192c0.4925842,0.393465,0.9123383,0.8875504,1.5152893,1.1373463
		c0.532135,0.2197609,1.0387421,0.2427883,1.5092926-0.15168c0.4730682-0.3969688,0.5559082-0.9125805,0.4119873-1.4692402
		c-0.1304016-0.5045967-0.378952-0.9556313-0.7436218-1.3400879c-1.003952-1.0577517-2.2924652-1.5288105-3.6866302-1.7335529
		c-2.0394135-0.2993546-4.0427856-0.2392836-5.8228912,0.9791603c-2.2624359,1.5488338-2.4146118,4.8717709-0.3103638,6.6123333
		c0.9293518,0.7684097,2.0654449,1.0672646,3.2193146,1.321064c1.005188,0.221262,2.0491791,0.2958508,3.0035553,0.71735
		c0.8229675,0.3634319,1.2231903,1.0137005,1.1290894,1.7575817c-0.0973663,0.7704144-0.6014709,1.2980385-1.4982758,1.4617329
		c-1.7443237,0.3183765-3.3106689-0.042551-4.5997009-1.3250694c-0.3509216-0.3494148-0.7038422-0.6958256-1.1458588-0.9265976
		c-0.4915771-0.2573051-1.0109406-0.2603092-1.4772491,0.0200233c-0.4880829,0.2928467-0.6515198,0.7884331-0.5901947,1.3435917
		C183.6779327,27.8919144,184.0616455,28.4861183,184.5594788,28.9942207z"/>
	<path class="st1" d="M147.2878265,28.0145607c-1.5873871,0.3368988-3.0778961,0.1351604-4.3581696-0.9611397
		c-0.4099731-0.3514156-0.805954-0.7198524-1.2199402-1.0662632c-0.5206146-0.4355145-1.3178101-0.5086021-1.8391724-0.1491756
		c-0.584198,0.4014759-0.6577911,0.9906731-0.4940948,1.6234226c0.1371613,0.5296268,0.4119873,0.9876709,0.7844391,1.3956528
		c1.5896301,1.7415638,3.6798553,2.1200123,5.8887177,2.1370316c0.3053589,0,0.6139832,0.0300369,0.9153442-0.0045052
		c1.9948578-0.2297726,3.7534332-0.8640232,4.7200775-2.8198395c0.9561462-1.9342918,0.4375305-4.2570438-1.2704926-5.4814949
		c-0.9348602-0.6707935-2.0509338-0.8965607-3.1549988-1.1323414c-1.0059357-0.2152538-2.0466614-0.2793293-3.0028076-0.7138443
		c-0.649765-0.295351-0.9901733-0.7819271-0.9551239-1.4927692c0.0365448-0.7328682,0.4915771-1.1548672,1.1576233-1.3365822
		c1.1741333-0.3208809,2.3049774-0.222765,3.3910065,0.3819523c0.6470184,0.3599262,1.1180878,0.9306011,1.7263031,1.3295746
		c0.574173,0.3764458,1.1869049,0.4770641,1.7776031,0.0740871c0.5881958-0.4009743,0.6345062-1.0157032,0.4560394-1.635437
		c-0.2590485-0.9015675-0.8657684-1.543829-1.6664734-2.00037c-2.2056122-1.2574892-4.5591431-1.4066658-6.9512329-0.7548943
		c-2.6175995,0.7138462-3.9902191,3.1962872-3.1682587,5.6086445c0.5656738,1.6609669,1.9242859,2.4208679,3.5019073,2.8428669
		c1.2922821,0.3454094,2.6168518,0.5701771,3.9053802,0.9270992c0.8109589,0.2247658,1.2254486,0.91959,1.1889038,1.7125282
		C148.5858612,27.2411442,148.1067963,27.840353,147.2878265,28.0145607z"/>
	<path class="st1" d="M200.0543365,18.4582386c0.6044617,0.0685825,1.219696,0.0750904,1.8289185,0.0600719
		c0.3959656-0.0095119,0.5283661,0.1096306,0.5208588,0.5156116c-0.0235291,1.2695026-0.0084991,2.5395069-0.0084991,3.8095112
		c0.0002441,1.22295-0.0200348,2.4463997,0.0057526,3.6683464c0.0282745,1.3435917,0.4612885,2.5470181,1.5202942,3.4180489
		c1.6617279,1.3666191,3.5204315,1.3511009,5.4396973,0.6332512c0.9751587-0.364933,1.7811127-0.9456215,2.2201385-1.9247799
		c0.2843323-0.6347523,0.2377777-1.272007-0.2938538-1.7465706c-0.5341339-0.4770641-1.1563721-0.4310093-1.7530823-0.0570679
		c-0.3559113,0.2232647-0.6928101,0.4815712-1.0642548,0.6732979c-1.4632416,0.7558956-2.6846771,0.0490589-2.6994476-1.5783691
		c-0.0205231-2.2812023,0.0097656-4.5629063-0.0172729-6.8436069c-0.006012-0.5025959,0.1967316-0.5756817,0.6204834-0.56567
		c1.0109558,0.0220261,2.0229034,0.008009,3.0343475,0.0065079c0.4520416-0.0005016,0.9095764-0.0380459,1.2742615-0.3248844
		c0.496582-0.3904629,0.7205963-0.911581,0.5814362-1.5553436c-0.1406708-0.6512709-0.5571594-1.0562515-1.1974182-1.1213284
		c-0.7458801-0.0765905-1.5022736-0.0415487-2.2539215-0.0690813c-0.6532745-0.0235281-1.4932709,0.271822-1.9095154-0.1141357
		c-0.4244995-0.3944674-0.0886078-1.2449751-0.1366577-1.8932428c-0.0207672-0.2808323-0.0077515-0.56567-0.0467987-0.8434992
		c-0.1324158-0.9426165-0.8407593-1.5468321-1.7255554-1.4917669c-0.947113,0.0595703-1.5823669,0.7333689-1.5966339,1.7115278
		c-0.0100098,0.7053356-0.0215302,1.4121723,0.0055084,2.1165066c0.0152588,0.3914642-0.0946198,0.5411415-0.508606,0.526124
		c-0.6092224-0.0210257-1.2244568-0.0140171-1.8301697,0.049058c-0.7701569,0.0800943-1.340332,0.737874-1.335083,1.4527216
		C198.7352753,17.7423916,199.2576447,18.3671322,200.0543365,18.4582386z"/>
	<path class="st1" d="M235.3726807,30.6546879c0.5581512,0.3724403,1.1496124,0.3769455,1.7375488,0.0891056
		c0.6442719-0.3153744,0.8780365-0.8850479,0.8795471-1.5648537c0.0045013-2.1405354,0.0014954-4.2815723,0.0017548-6.4221077
		c0-0.8039532,0.0853424-1.5953903,0.3621674-2.3557911c0.2793427-0.76791,0.6948242-1.4482155,1.4437103-1.8346729
		c1.0512543-0.5426426,1.8892517-0.3263874,2.9615173,0.6988277c0.525116,0.5020943,1.1053009,0.7338696,1.8546906,0.4955864
		c0.6592865-0.2107487,0.9321136-0.6823082,1.0382385-1.2900276c0.1364136-0.7799244-0.0620728-1.4857597-0.5621643-2.1059952
		c-0.6980896-0.8660259-1.6439514-1.2074308-2.7132263-1.2940331c-1.7395477-0.140667-3.1662445,0.4690561-4.2975922,1.8717175
		c-0.0470428-0.1291523-0.0750885-0.1827164-0.0865936-0.2397842c-0.2327728-1.1423531-0.8399963-1.6339359-1.8872375-1.5268087
		c-0.9028168,0.0926094-1.4782562,0.7809248-1.4799957,1.8266649c-0.0072632,4.0227642-0.0047607,8.0455303-0.0012665,12.0682964
		C234.6242828,29.7110691,234.8095093,30.2787418,235.3726807,30.6546879z"/>
	<path class="st1" d="M158.4933472,15.1638365c-0.9411163-0.0085096-1.6807404,0.6392574-1.6857452,1.6079054
		c-0.022522,4.1634312-0.0187683,8.3268642-0.0012512,12.4902954c0.0037537,0.8475037,0.5634155,1.494772,1.2847748,1.6299324
		c1.1568756,0.2172565,2.0499268-0.4815712,2.0654449-1.6829948c0.0260315-2.0464249,0.0070038-4.0928478,0.0070038-6.1392727
		c-0.0004883-2.069952,0.0205231-4.1404037-0.0090027-6.209856
		C160.1395569,15.7980881,159.4827728,15.1728477,158.4933472,15.1638365z"/>
	<path class="st1" d="M158.5136261,9.152215c-1.1844025-0.011013-2.1300201,0.9145842-2.1220093,2.0774612
		c0.0080109,1.1793976,0.9113312,2.0634441,2.1179962,2.0724554c1.1516266,0.0090103,2.0709534-0.8870516,2.0779724-2.0243988
		C160.5950928,10.0903263,159.6905212,9.163228,158.5136261,9.152215z"/>
</g>
<g>
	<path class="st1" d="M135.9930573,79.2752609c0-12.1455078,8.6704102-20.7802773,20.4580078-20.7802773
		c6.4130859,0,11.3212891,1.9707031,14.2592773,5.0517578c2.0419922,2.1142616,3.3676758,4.8007851,3.3676758,6.807621
		c0,2.1855469-1.5405273,3.7978516-3.6904297,3.7978516c-1.8984375,0-3.0810547-0.7890625-4.3706055-2.4726562
		c-1.8632812-3.0449219-5.1235352-5.0878906-9.2792969-5.0878906c-6.8076172,0-11.7514648,5.1601562-11.7514648,12.6835938
		c0,7.4882812,4.9438477,12.6826172,11.7514648,12.6826172c4.5859375,0,7.7026367-2.4365234,9.5297852-5.5527344
		c1.1826172-1.6845703,2.2216797-2.4365234,4.0844727-2.4365234c2.1137695,0,3.8696289,1.6123047,3.8696289,3.8691406
		c0,1.9345703-1.3618164,4.6582031-3.2963867,6.7001953c-3.0810547,3.2246094-8.2402344,5.5175781-14.4741211,5.5175781
		C144.6634674,100.0555344,135.9930573,91.4207687,135.9930573,79.2752609z"/>
	<path class="st1" d="M182.7137604,79.2752609c0-12.5039062,8.777832-20.7802773,20.9951172-20.7802773
		c12.2529297,0,21.0307617,8.276371,21.0307617,20.7802773c0,12.4677734-8.777832,20.7802734-21.0307617,20.7802734
		C191.4915924,100.0555344,182.7137604,91.7430344,182.7137604,79.2752609z M203.7088776,91.9578781
		c7.0224609,0,12.0024414-5.1230469,12.0024414-12.6826172s-4.9799805-12.6835938-12.0024414-12.6835938
		c-7.0219727,0-12.0019531,5.1240234-12.0019531,12.6835938S196.6869049,91.9578781,203.7088776,91.9578781z"/>
	<path class="st1" d="M236.3133698,95.1463547c-1.7553711-1.6113281-2.9736328-3.8691406-2.9736328-5.6962891
		c0-2.078125,1.3974609-3.546875,3.5825195-3.546875c1.4692383,0,2.5083008,0.609375,4.2636719,2.4365234
		c2.7944336,3.0097656,5.9116211,4.2636719,9.7807617,4.2636719c4.15625,0,6.6640778-1.6123047,6.6640778-4.5507812
		c0-2.5429688-1.683609-4.2275391-5.1230621-4.8720703l-6.1625977-1.2539062
		c-7.703125-1.5410156-11.6796875-5.5175781-11.6796875-11.3935547c0-7.4882851,5.9829102-12.0380898,15.3701172-12.0380898
		c5.0512695,0,9.5659332,1.2539062,12.5034332,3.5107422c2.1855469,1.6484375,3.5830078,3.9052773,3.5830078,6.0556679
		c0,2.0058594-1.5048828,3.4746094-3.4750977,3.4746094c-1.5405273,0-2.8305664-0.9306641-4.5859375-2.5429688
		c-2.292984-2.3652344-5.1591949-3.296875-8.2046051-3.296875c-3.762207,0-6.1625977,1.5771484-6.1625977,4.1923828
		c0,2.4003906,1.8271484,3.9404297,5.4458008,4.5859375l6.4848633,1.2890625
		c7.4165192,1.5048828,11.070816,5.3027344,11.070816,11.4296875c0,8.0605469-6.0908203,12.8623047-16.0507965,12.8623047
		C244.5536041,100.0555344,239.2152252,98.1561203,236.3133698,95.1463547z"/>
	<path class="st1" d="M283.344635,43.1971321c3.1523438,0,5.409668,2.328125,5.409668,5.3740234
		c0,3.0810547-2.2573242,5.4091797-5.409668,5.4091797c-3.1533203,0-5.4819336-2.328125-5.4819336-5.4091797
		C277.8627014,45.5252571,280.1913147,43.1971321,283.344635,43.1971321z M278.9017639,95.2537766V63.2957649
		c0-2.6865234,1.8271484-4.5498047,4.4067383-4.5498047c2.5439453,0,4.3349609,1.8632812,4.3349609,4.5498047v31.9580116
		c0,2.6513672-1.7910156,4.5507812-4.3349609,4.5507812C280.7289124,99.8045578,278.9017639,97.9051437,278.9017639,95.2537766z"/>
	<path class="st1" d="M299.5570374,99.0164719c0-3.2246094,1.9707031-5.6611328,4.8725586-7.0224609
		c-1.7915039-1.4335938-2.8300781-3.4755859-2.8300781-5.9121094c0-2.7578125,1.2177734-4.9082031,3.9765625-6.5917969
		c-2.4003906-2.1142578-3.7260742-5.015625-3.7260742-8.4550781c0-7.666996,6.5566406-12.5400429,16.8032227-12.5400429
		c3.8334961,0,7.1655273,0.6806641,9.7807617,1.9345703l3.5473633-2.9736328
		c1.0029297-0.8242188,2.2211914-1.3613281,3.3676758-1.3613281c1.8989258,0,3.3320312,1.5048828,3.3320312,3.1533203
		c0,1.2539062-0.7167969,2.5078125-1.9350586,3.6181641l-2.7944336,2.4365273
		c0.9672852,1.6474609,1.4692383,3.5820312,1.4692383,5.7324219c0,7.703125-6.4848633,12.5390625-16.7675781,12.5390625
		c-2.9736328,0-5.6606445-0.3935547-7.9179688-1.1816406c-0.7880859,0.5732422-1.1821289,1.2177734-1.1821289,2.0419922
		c0,1.6123047,1.2895508,2.6513672,3.5112305,2.6513672h12.6826172c8.2045898,0,12.6831055,3.4394531,12.6831055,9.6728516
		c0,7.5595703-7.3447266,11.7880859-20.421875,11.7880859C306.0775452,108.5467453,299.5570374,105.2860031,299.5570374,99.0164719z
		 M318.4022522,101.9178391c7.2373047,0,10.9990234-1.5761719,10.9990234-4.3710938
		c0-2.2568359-1.7553711-3.4033203-5.3740234-3.4033203H311.809967c-0.5371094,0-1.0385742-0.0361328-1.5405273-0.0712891
		c-1.3256836,0.8955078-2.0063477,2.0419922-2.0063477,3.5107422
		C308.263092,100.5213547,311.5233459,101.9178391,318.4022522,101.9178391z M318.7606506,77.1258469
		c4.8725586,0,7.9179688-2.3652344,7.9179688-6.1630859c0-3.8330078-3.0454102-6.1982422-7.9179688-6.1982422
		c-4.9443359,0-8.0610352,2.4013672-8.0610352,6.1982422C310.6996155,74.7606125,313.8163147,77.1258469,318.7606506,77.1258469z"/>
	<path class="st1" d="M350.419342,95.2537766V63.2957649c0-2.6865234,1.8271484-4.5498047,4.4067383-4.5498047
		c2.5439453,0,4.3349609,1.8632812,4.3349609,4.5498047v0.7880898c2.4365234-3.6181679,6.8789062-5.588871,12.2890625-5.588871
		c9.7094727,0,16.0864258,6.0546913,16.0864258,16.838871v19.9199219c0,2.6162109-1.8271484,4.5507812-4.3706055,4.5507812
		c-2.5795898,0-4.3710938-1.9707031-4.3710938-4.5507812V76.8748703c0-6.9863281-3.546875-10.3544922-9.2792969-10.3544922
		c-6.4130859,0-10.3544922,4.4072266-10.3544922,10.9638672v17.7695312c0,2.6513672-1.7910156,4.5507812-4.3349609,4.5507812
		C352.2464905,99.8045578,350.419342,97.9051437,350.419342,95.2537766z"/>
</g>
</svg>

