<svg xmlns="http://www.w3.org/2000/svg" role="img" viewBox="126.96 131.96 600.08 376.08"><defs><clipPath id="a" clipPathUnits="userSpaceOnUse"><path d="M0 480h640V0H0z"/></clipPath></defs><path fill="#fff" d="M0 640h853.3312V.0016H0z"/><g clip-path="url(#a)" transform="matrix(1.33333 0 0 -1.33333 0 640)"><path fill="#7b888f" d="M144.632 172.52c0-3.267-2.214-5.587-5.38-5.587-3.478 0-5.489 3.373-5.489 6.647 0 3.686-3.689 5.272-7.169 5.272-9.703 0-13.713-10.017-13.713-18.243 0-10.027 5.277-21.527 16.667-21.527 6.645 0 12.235 4.438 15.084 10.028l2.109-1.158c-5.274-10.447-10.967-16.883-21.62-16.883-6.858 0-20.887 3.798-20.887 26.367 0 14.027 10.232 25.313 24.469 25.313 5.698 0 15.929-2.948 15.929-10.229"/><path fill="#7b888f" d="M166.843 183.052v-2.114c-4.636 0-6.217-2.563-6.217-4.772 0-1.374.631-3.172 1.581-5.494l11.179-26.891 11.096 25.417c1.58 4.217 1.683 5.699 1.683 6.968 0 2.947-2.221 4.772-4.753 4.772v2.114h16.781v-2.114c-4.221-.637-7.07-5.938-8.652-10.155l-17.629-41.345c-2.85-7.705-6.225-15.726-10.969-19.514-2.214-1.797-4.957-2.536-7.913-2.536-3.269 0-6.432 1.894-6.432 5.167 0 2.957 2.002 4.956 4.958 4.956 3.689 0 4.216-2.11 7.49-2.11 4.005 0 6.431 7.07 8.435 12.34l1.262 3.386-17.928 41.764c-1.475 3.376-2.846 7.728-6.642 8.047v2.114z"/><path fill="#7b888f" d="M201.387 197.858c0 3.621-3.186 4.276-6.258 4.276h-1.205v2.203c5.813 1.196 12.21 3.854 17.115 7.041v-35.681c5.927 4.716 10.318 7.878 18.114 7.878 12.506 0 19.638-11.833 19.638-23.246 0-20.185-14.599-30.837-28.748-30.837-6.698 0-13.39 2.529-18.656 6.801zm9.652-58.159c0-2.526 4.724-6.91 12.073-6.91 11.747 0 16.026 11.627 16.026 21.724 0 10.2-5.053 21.952-16.901 21.952-6.252 0-11.198-4.169-11.198-5.048z"/><path fill="#7b888f" d="M260.168 162.46v-1.369c0-11.811 5.484-22.152 16.979-22.152 9.174 0 14.662 5.595 18.25 11.08l1.794-1.16c-4.112-8.756-11.919-17.932-22.468-17.932-14.24 0-22.571 10.231-22.571 23.941 0 14.029 7.909 28.183 23.311 28.183 11.496 0 18.986-9.2 19.088-20.591zm24.254 3.171c0 7.696-2.742 13.812-11.387 13.812-6.96 0-12.552-7.171-12.658-13.812z"/><path fill="#7b888f" d="M297.132 133.177c8.016.422 8.332 1.904 8.332 9.71v24.006c0 7.6-.95 8.544-8.332 8.544v2.115c5.804 1.465 11.705 3.601 17.09 5.5h.528v-9.827c3.055 3.367 8.016 9.827 13.184 9.827 3.161 0 6.221-2.346 6.221-5.817 0-2.742-2.426-4.756-5.064-4.756-1.682 0-2.743.746-3.584 1.481-.843.739-1.584 1.477-2.852 1.477-3.797 0-7.905-6.745-7.905-7.279v-25.485c0-8.337 1.157-9.496 8.959-9.496v-2.108h-26.577z"/><path fill="#7b888f" d="M305.54 314.96v2.3c11.826 4.603 19.661 14.858 24.031 25.322h4.53v-23.024h16.167v-4.598h-16.167v-45.056c0-11.395 4.529-12.956 8.276-12.956 3.585 0 7.844 2.647 10.188 5.301l1.627-1.607c-5.16-6.715-9.949-12.438-18.841-12.438-13.425 0-17.293 10.464-17.293 21.544v45.212z"/><path fill="#0a0c13" d="M337.175 179.137v1.475c9.201 3.186 12.438 7.537 15.39 14.597h2.846v-12.434h11.701v-3.638h-11.701v-34.841c0-7.694 3.06-8.749 5.588-8.749 2.423 0 5.063 1.895 6.642 3.687l1.794-1.158c-3.485-4.54-7.168-8.44-13.184-8.44-9.067 0-10.13 7.067-10.13 14.559v34.942z"/><path fill="#0a0c13" d="M503.606 179.137v1.475c9.202 3.186 14.004 7.528 16.96 14.597h2.116v-12.536h11.701v-3.536h-11.701v-34.841c0-7.694 3.05-8.749 5.588-8.749 2.424 0 5.06 1.895 6.641 3.687l1.799-1.158c-3.488-4.54-7.172-8.44-13.187-8.44-9.072 0-10.128 7.067-10.128 14.559v34.942z"/><path fill="#0a0c13" d="M372.518 133.177c8.016.422 8.333 1.904 8.333 9.71v24.473c0 7.6-.952 8.544-8.333 8.544v2.116c5.795 1.473 11.71 3.595 17.083 5.499h.53v-9.827c3.06 3.376 8.989 9.827 14.156 9.827 3.165 0 6.224-2.346 6.224-5.819 0-2.74-2.428-4.745-5.058-4.745-1.689 0-2.744.737-3.592 1.475-.841.744-1.577 1.474-2.844 1.474-3.795 0-8.886-6.746-8.886-7.275v-25.956c0-8.337 1.159-9.496 8.968-9.496v-2.108h-26.581z"/><path fill="#0a0c13" d="M460.538 142.783c0-4.326 3.692-6.104 7.598-6.205v-2.117c-5.49-1.371-11.077-1.489-16.14-3.393h-.421v8.655c-4.541-4.429-8.757-8.655-15.608-8.655-8.547 0-14.45 4.329-14.45 13.077v29.849c0 5.069-3.195 5.594-6.675 5.594v2.118l15.956 1.488v-35.671c0-5.7 2.95-9.915 9.176-9.915 5.484 0 10.024 4.215 11.286 6.64v29.746c0 5.069-3.195 5.594-6.673 5.594v2.552l15.951 1.054z"/><path fill="#0a0c13" d="M500.756 168.103h-1.898c-2.005 6.43-4.956 11.811-12.553 11.811-4.217 0-8.012-2.214-8.012-6.328 0-10.965 26.157-11.6 26.157-27 0-9.92-7.484-15.191-15.403-15.191-5.587 0-11.492 2.528-13.286 2.528-1.479 0-1.265-2.117-1.479-2.855h-2.109l-.735 17.935h2.529c.213-7.378 6.33-14.437 14.026-14.437 4.534 0 9.074 2.424 9.074 7.378 0 12.021-26.162 11.815-26.162 28.054 0 8.647 7.704 13.077 15.613 13.077 1.797 0 3.48-.412 5.169-.839 1.586-.422 3.272-.85 4.747-.85 1.156 0 1.902.872 2.108 2.132h1.903z"/><path fill="#0a0c13" d="M279.13 349.856c-14.971-14.639-23.218-34.024-23.218-54.581 0-20.559 8.247-39.935 23.218-54.575 14.851-14.519 34.392-22.514 55.025-22.514v16.112c-16.399 0-31.936 6.364-43.764 17.927-11.843 11.579-18.371 26.865-18.371 43.05 0 16.192 6.528 31.478 18.371 43.057 11.828 11.563 27.365 17.927 43.764 17.927v16.113c-20.633 0-40.174-7.997-55.025-22.516"/></g></svg>