<?xml version="1.0" encoding="utf-8"?>
<!-- Generator: Adobe Illustrator 24.3.0, SVG Export Plug-In . SVG Version: 6.00 Build 0)  -->
<!DOCTYPE svg PUBLIC "-//W3C//DTD SVG 1.1//EN" "http://www.w3.org/Graphics/SVG/1.1/DTD/svg11.dtd" [
	<!ENTITY ns_extend "http://ns.adobe.com/Extensibility/1.0/">
	<!ENTITY ns_ai "http://ns.adobe.com/AdobeIllustrator/10.0/">
	<!ENTITY ns_graphs "http://ns.adobe.com/Graphs/1.0/">
	<!ENTITY ns_vars "http://ns.adobe.com/Variables/1.0/">
	<!ENTITY ns_imrep "http://ns.adobe.com/ImageReplacement/1.0/">
	<!ENTITY ns_sfw "http://ns.adobe.com/SaveForWeb/1.0/">
	<!ENTITY ns_custom "http://ns.adobe.com/GenericCustomNamespace/1.0/">
	<!ENTITY ns_adobe_xpath "http://ns.adobe.com/XPath/1.0/">
]>
<svg version="1.1" id="DB_SCHENKER_logo" xmlns:x="&ns_extend;" xmlns:i="&ns_ai;" xmlns:graph="&ns_graphs;"
	 xmlns="http://www.w3.org/2000/svg" xmlns:xlink="http://www.w3.org/1999/xlink" x="0px" y="0px" viewBox="0 0 418.7999878 70"
	 style="enable-background:new 0 0 418.7999878 70;" xml:space="preserve">
<style type="text/css">
	.st0{fill:#EC0016;}
</style>
<metadata>
	<sfw  xmlns="&ns_sfw;">
		<slices></slices>
		<sliceSourceBounds  bottomLeftOrigin="true" height="70" width="418.7101746" x="0" y="-70"></sliceSourceBounds>
	</sfw>
</metadata>
<path d="M141.7785187,34.635685c0.0083008,0.0027504-0.6256104-0.2645836-0.6256104-0.2645836
	c-4.0376587-1.7308044-4.1975403-1.7914467-5.1538849-2.46945c-1.3229218-0.9289722-1.7638855-1.6482868-1.7638855-2.8554592
	c0-2.1277142,1.7776794-3.2136002,5.2971802-3.2136002c3.1088562,0,5.3826141,0.5291672,8.9985962,2.1166706l0.5650177,0.2425346
	v-8.12216l-0.267334-0.1019878c-3.4726868-1.256773-6.3803253-1.7969475-9.71521-1.7969475
	c-8.9710541,0-14.1111374,4.3049908-14.1111374,11.8125401c0,5.655674,2.5631866,8.8995781,9.1419296,11.5729675
	c6.9949341,2.9021683,7.6563873,3.6297722,7.6563873,5.7491951c0,2.4722023-2.0891113,3.7317276-6.1956635,3.7317276
	c-3.5470886,0-6.2287292-0.7028084-10.2305756-2.6761436l-0.5870285-0.2893829v8.1276627l0.2342453,0.1129951
	c3.7207184,1.6977463,6.9673767,2.3867912,11.2117615,2.3867912c9.8116455,0,15.2190704-4.3077774,15.2190704-12.1267586
	C151.4523773,40.6467133,149.0077362,37.6343002,141.7785187,34.635685z"/>
<path d="M184.7756653,49.1244011c-3.7014313,1.375309-6.1130219,1.8576241-9.2328949,1.8576241
	c-6.4850464,0-9.0123901-3.4616356-9.0123901-12.3610382c0-9.2881622,2.4528961-12.7360077,9.0675049-12.7360077
	c3.0647583,0,5.7464447,0.5429249,8.9572906,1.7996998l0.5512085,0.2204857v-8.0422554l-0.2618256-0.0992012
	c-3.0124054-1.0914268-6.0303192-1.5930061-9.5084686-1.5930061c-5.4019318,0-9.9990845,1.5158176-13.2981262,4.3931847
	c-4.1286011,3.5884285-6.0495911,8.7037163-6.0495911,16.1094532c0,6.2811127,1.3091278,10.7762871,4.1203461,14.1276817
	c3.2714539,3.8612671,8.4253387,5.8980331,14.9104004,5.8980331c3.6297607,0,7.1107025-0.7358932,10.0652161-2.1304626
	l0.2342529-0.1047401v-7.5406418L184.7756653,49.1244011z"/>
<path d="M215.8611603,19.0636539c0,0,0,14.3042507,0,15.0676632h-13.8439789c0-0.7634125,0-15.0676632,0-15.0676632H191.996048
	v38.8526535h10.0211334c0,0,0-15.246624,0-16.0155754h13.8439789c0,0.7689514,0,16.0155754,0,16.0155754h10.0214539V19.0636539
	H215.8611603z"/>
<path d="M244.3617706,50.0366859v-8.135952c0.7552032,0,13.3477325,0,13.3477325,0v-7.5075836c0,0-12.5925293,0-13.3477325,0
	v-7.4581261c0.7662048,0,16.9030609,0,16.9030609,0v-7.8713703H234.340683v38.8526535h27.7289276l0.6972961-7.8796234
	C262.7669067,50.0366859,245.130722,50.0366859,244.3617706,50.0366859z"/>
<path d="M293.7449036,19.0636539c0,0,0,19.0888081,0,21.2330303c-1.3229065-1.7418442-16.1368408-21.2330303-16.1368408-21.2330303
	h-8.4060669v38.8526535h8.4997864c0,0,0-21.3293037,0-23.4873199c1.3366699,1.7528534,17.8731689,23.4873199,17.8731689,23.4873199
	h6.6724854V19.0636539H293.7449036z"/>
<path d="M329.2649841,37.3669662c0.3830566-0.4823189,14.6705933-18.3033123,14.6705933-18.3033123h-10.4124756
	c0,0-11.5011292,14.9133205-12.7965088,16.5862675c0-2.0477715,0-16.5862675,0-16.5862675h-10.0155945v38.8526535h10.0155945
	c0,0,0-14.3646774,0-16.4317474c1.2953796,1.6894913,12.5897827,16.4317474,12.5897827,16.4317474h11.9062805
	C345.2226562,57.9163094,329.6452942,37.8547859,329.2649841,37.3669662z"/>
<path d="M359.8268127,50.0366859v-8.135952c0.7634583,0,13.3476868,0,13.3476868,0v-7.5075836c0,0-12.5842285,0-13.3476868,0
	v-7.4581261c0.7771912,0,16.9030762,0,16.9030762,0v-7.8713703h-26.9159241v38.8526535h27.7234192l0.7055664-7.8796234
	C378.2429504,50.0366859,360.6040039,50.0366859,359.8268127,50.0366859z"/>
<path d="M410.282074,43.9099121c-1.1024475-1.7914429-2.2462158-2.9131737-3.5029907-3.6766205
	c5.0987549-1.6646576,7.3835449-4.5668259,7.3835449-9.6712456c0-7.7390785-4.7763062-11.4983921-14.5906982-11.4983921h-14.9048767
	v38.8526535h10.0238342c0,0,0-14.5658684,0-15.3293152c0.4685669,0,1.2733154,0,1.2733154,0
	c2.2572632,0,3.0730591,0.5980644,4.8369446,3.5691299l6.9728699,11.7601852h10.9361572L410.282074,43.9099121z
	 M394.6908875,26.5629482c0.678009,0,4.566864,0,4.566864,0c3.8998108,0,5.1483459,1.1024323,5.1483459,4.5227261
	c0,3.401207-1.3945923,4.6689873-5.1483459,4.6689873c0,0-3.888855,0-4.566864,0V26.5629482z"/>
<g>
	<path class="st0" d="M89.9506683,0H10.0493526C4.5509658,0,0,4.3477407,0,9.9667025v49.9594955
		C0,65.5451355,4.5509658,70,10.0493526,70h79.9013138C95.4490356,70,100,65.5451355,100,59.9261971V9.9667025
		C100,4.3477407,95.4490356,0,89.9506683,0z M92.6998291,59.9261971c0,1.5916176-1.1644363,2.8663254-2.7491608,2.8663254
		H10.0493526c-1.5847416,0-2.7491827-1.2747078-2.7491827-2.8663254V9.9667025c0-1.5916376,1.1644411-2.8628802,2.7491827-2.8628802
		h79.9013138c1.5847244,0,2.7491608,1.2712426,2.7491608,2.8628802V59.9261971z"/>
	<g>
		<path class="st0" d="M30.5820923,57.9108047H13.7562704V12.088871h16.8258209
			c11.8510971,0,18.3967743,7.4248943,18.3967743,22.6973801C48.9788666,48.0471191,44.5484772,57.8040199,30.5820923,57.9108047z
			 M37.8856773,35.740551c0-9.2297783-0.9577217-16.4369373-10.9002571-16.4369373h-2.2255306V50.482811h3.9136066
			C34.495697,50.482811,37.8856773,45.8178101,37.8856773,35.740551z"/>
	</g>
	<path class="st0" d="M78.0423584,33.938736c3.2445984-0.8585243,8.0125961-4.5609684,8.0125961-10.6677399
		c0-0.9543018-0.1998138-11.1655798-13.0823975-11.1655798H53.7999229v45.8053894H69.998085
		c4.2898026,0,17.6588287,0,17.6588287-12.8826218C87.6569138,41.809433,86.3443375,35.7522621,78.0423584,33.938736z
		 M64.6967545,19.1734047h3.4678421c4.9271622,0,6.8839874,1.7197933,6.8839874,5.5121632
		c0,3.0133972-2.1545868,5.5424671-5.9848328,5.5424671h-4.3669968V19.1734047z M69.2057114,50.482811h-4.5089569V38.7085114
		h4.80867c5.7167969,0,7.11203,3.3358727,7.11203,5.887661C76.6174545,50.482811,70.9509659,50.482811,69.2057114,50.482811z"/>
</g>
</svg>
