<svg version="1.1" id="Layer_1" xmlns="http://www.w3.org/2000/svg" xmlns:xlink="http://www.w3.org/1999/xlink" x="0px" y="0px"
	 width="100%" viewBox="0 0 1346 780" enable-background="new 0 0 1346 780" xml:space="preserve">
<path fill="#FEFFFF" opacity="1.000000" stroke="none" 
	d="
M0.999997,536.000000 
	C1.000000,500.639801 1.000000,465.279602 1.438882,429.277588 
	C53.537086,428.606598 105.196609,428.643494 156.855530,428.485382 
	C165.828369,428.457947 174.871719,428.178925 183.758545,427.044708 
	C252.144440,418.316864 303.094513,383.441071 336.461426,323.355774 
	C343.798981,310.142731 348.577271,295.508423 354.661774,281.228912 
	C428.554504,338.953674 503.029846,397.133575 577.593994,455.382843 
	C652.102661,397.181030 726.273193,339.243347 801.635620,280.374634 
	C801.635620,330.766144 801.635620,379.483673 801.635620,428.251709 
	C887.165527,428.251709 972.081299,428.251709 1057.168457,428.251709 
	C1057.168457,401.908417 1057.168457,375.872589 1057.168457,349.246460 
	C1001.907898,349.246460 947.032288,349.246460 891.720337,349.246460 
	C891.720337,243.240646 891.720337,137.826416 891.720337,32.206322 
	C861.514648,32.206322 831.750854,32.206322 801.443970,32.206322 
	C801.443970,34.340443 801.443970,36.299881 801.443970,38.259319 
	C801.443909,83.922813 801.407410,129.586395 801.515320,175.249634 
	C801.523621,178.755371 800.487305,180.960495 797.671875,183.154358 
	C734.477966,232.396179 671.371765,281.750519 608.244934,331.078522 
	C601.077454,336.679260 593.885864,342.249115 586.692932,347.843018 
	C570.554016,335.222076 554.894409,322.975983 538.985901,310.535248 
	C610.814697,254.410034 682.153259,198.667862 753.849731,142.646027 
	C732.692505,126.124702 712.123840,109.991348 691.373962,94.094635 
	C690.442627,93.381119 687.453003,94.282417 686.116760,95.323349 
	C625.281067,142.714493 564.524597,190.207428 503.754242,237.682480 
	C494.085999,245.235474 484.395996,252.760590 474.667419,260.336487 
	C458.640625,247.789627 442.993042,235.539642 426.986389,223.008545 
	C498.900116,166.815872 570.111389,111.172119 641.822266,55.137924 
	C620.125854,38.179001 598.911743,21.597057 577.604797,4.942520 
	C502.944794,63.264793 428.456482,121.452934 354.957916,178.867935 
	C347.874329,163.050629 342.406281,146.784348 333.823456,132.373138 
	C295.283630,67.661827 238.011948,33.505054 162.485580,32.182716 
	C108.672485,31.240541 54.829594,31.999949 1.000000,32.000000 
	C1.000000,21.667826 1.000000,11.335651 1.000000,1.002608 
	C449.615204,1.001739 898.230408,1.001739 1346.922852,1.001739 
	C1346.922852,260.919342 1346.922852,520.838684 1346.922852,780.879028 
	C898.333374,780.879028 449.666687,780.879028 1.000005,780.885986 
	C1.000000,702.568481 1.000000,624.243958 1.358997,545.626465 
	C3.670078,545.942383 5.617866,547.063293 7.574921,547.079651 
	C24.232426,547.219421 40.892361,547.245361 57.549816,547.101868 
	C62.222324,547.061584 64.116440,548.790955 64.063644,553.558105 
	C63.893955,568.882263 64.000916,584.209412 64.000931,599.535400 
	C64.000969,636.850891 63.980595,674.166382 64.061592,711.481689 
	C64.065582,713.320496 64.646919,716.572449 65.482536,716.753662 
	C69.400352,717.603088 73.575180,718.132629 77.490471,717.582581 
	C78.614624,717.424622 79.888588,713.279236 79.894646,710.959045 
	C80.030693,658.817627 79.997734,606.675903 80.001030,554.534180 
	C80.001465,547.694153 80.530045,547.168213 87.468895,547.163696 
	C103.794403,547.153076 120.119926,547.165710 136.445435,547.153259 
	C142.485062,547.148621 143.143219,546.489380 143.156937,540.639282 
	C143.171082,534.611023 142.487518,533.847961 136.722321,533.846313 
	C93.576324,533.834045 50.430244,533.809021 7.284585,533.930847 
	C5.187791,533.936768 3.094771,535.279663 0.999997,536.000000 
M1087.840454,374.500000 
	C1087.840454,392.409088 1087.840454,410.318146 1087.840454,428.076721 
	C1173.583374,428.076721 1258.497314,428.076721 1343.515625,428.076721 
	C1343.515625,401.794281 1343.515625,375.883575 1343.515625,349.491821 
	C1288.256592,349.491821 1233.319336,349.491821 1177.894043,349.491821 
	C1177.894043,243.442139 1177.894043,137.874146 1177.894043,32.295441 
	C1147.656982,32.295441 1117.912109,32.295441 1087.840454,32.295441 
	C1087.840454,146.226395 1087.840454,259.863190 1087.840454,374.500000 
M1037.091675,731.426941 
	C1030.274536,754.342590 1014.659058,763.701721 991.063416,759.357666 
	C978.950439,757.127625 970.739014,751.007812 967.594666,738.644470 
	C967.125916,736.801392 964.846497,734.239014 963.233215,734.107117 
	C959.631226,733.812622 955.890259,734.702393 952.287964,735.486511 
	C951.754822,735.602539 951.240112,737.845947 951.442383,738.975220 
	C953.105713,748.263123 957.122253,756.304565 964.488403,762.445862 
	C973.449585,769.916870 984.126343,772.454773 995.434631,773.477539 
	C1025.210938,776.170654 1045.979370,761.805054 1052.905640,732.850098 
	C1054.942261,724.336365 1056.307495,715.454346 1056.412964,706.722168 
	C1056.874146,668.588745 1056.741577,630.448364 1056.879883,592.310730 
	C1056.892944,588.710999 1055.589600,586.518127 1051.795044,586.446716 
	C1048.001831,586.375305 1043.826904,585.666992 1042.908081,591.153809 
	C1042.132690,595.784363 1041.261597,600.398987 1040.328247,605.604553 
	C1039.008545,604.719482 1038.149414,604.446533 1037.804810,603.867493 
	C1030.655762,591.856262 1019.391357,586.674561 1006.198120,584.437317 
	C978.187744,579.687378 954.928467,593.071167 945.678772,619.914185 
	C938.939941,639.470459 938.835327,659.430420 943.955933,679.382080 
	C951.288330,707.951965 972.619019,723.251831 1001.937134,720.781738 
	C1016.609802,719.545471 1029.503174,714.546570 1037.661621,701.159180 
	C1038.002197,700.600342 1038.834351,700.341003 1039.548584,699.868652 
	C1041.218506,706.245300 1040.268555,718.629456 1037.091675,731.426941 
M144.112000,692.332764 
	C138.088455,684.715515 134.569656,676.005798 133.117371,666.472046 
	C132.009521,659.199402 133.252197,657.856018 140.449844,657.855286 
	C168.930939,657.852173 197.412018,657.860168 225.893112,657.849243 
	C231.859177,657.846924 232.944305,656.851318 232.817139,650.872620 
	C232.707626,645.722717 232.474243,640.559021 231.947723,635.437195 
	C229.112183,607.853210 211.563583,588.450684 184.551758,584.568298 
	C151.668915,579.842102 125.740349,596.010559 118.703934,628.122192 
	C114.795654,645.958191 115.438934,663.850281 120.962425,681.360657 
	C123.955917,690.850525 128.838898,699.314941 136.216995,706.164490 
	C154.595459,723.226440 188.694458,726.198364 209.758972,712.490845 
	C219.979813,705.839722 226.507019,696.444885 229.282211,684.592163 
	C229.652863,683.009277 229.168060,680.404907 228.062515,679.445374 
	C224.129044,676.031860 215.464966,678.999390 212.940643,683.584656 
	C209.939148,689.036743 206.811493,694.702698 202.540894,699.117493 
	C191.561661,710.467224 160.249878,712.419128 144.112000,692.332764 
M1135.550049,598.037170 
	C1127.808716,605.282654 1122.830322,614.178955 1119.982788,624.310669 
	C1115.944092,638.680664 1116.220825,653.286865 1118.087891,667.889709 
	C1123.442749,709.771057 1163.647095,732.777771 1202.693237,716.385132 
	C1216.672729,710.516113 1225.371460,699.983276 1229.591187,685.558960 
	C1230.461426,682.583862 1230.660156,679.829224 1227.063965,678.611450 
	C1220.556396,676.407959 1215.565552,678.807861 1212.864014,685.228638 
	C1208.414429,695.803589 1201.169189,703.482971 1189.688843,706.026001 
	C1154.392822,713.844482 1135.719971,689.235413 1133.078979,663.009705 
	C1132.749146,659.734497 1134.291016,657.990723 1137.591553,657.866638 
	C1138.755737,657.822815 1139.922852,657.853516 1141.088623,657.853455 
	C1169.566528,657.853088 1198.044312,657.836975 1226.522217,657.875671 
	C1229.771606,657.880066 1232.796997,657.569153 1232.965942,653.497131 
	C1233.668945,636.546021 1231.487549,620.210266 1221.350464,605.948120 
	C1202.798462,579.846924 1162.212646,575.901306 1135.550049,598.037170 
M400.648468,598.171387 
	C398.597900,600.631287 396.547302,603.091125 394.496735,605.551025 
	C394.055756,605.225037 393.614777,604.899048 393.173798,604.573120 
	C393.173798,602.759216 393.173828,600.945374 393.173798,599.131531 
	C393.173553,579.468384 393.204987,559.805115 393.117249,540.142334 
	C393.109650,538.441406 392.579163,535.413879 391.841095,535.267029 
	C387.905853,534.484131 383.746368,533.870605 379.846497,534.441589 
	C378.650482,534.616699 377.266235,538.717468 377.258331,541.025024 
	C377.105804,585.516541 377.145386,630.008728 377.145416,674.500732 
	C377.145447,686.998474 377.029388,699.498474 377.265198,711.991760 
	C377.302643,713.976257 378.402252,716.971558 379.901276,717.722961 
	C387.191162,721.376953 393.118530,717.399414 393.183441,709.341370 
	C393.381958,684.694031 392.861755,660.009277 394.075256,635.410767 
	C395.214844,612.310547 408.288452,599.846191 431.193817,597.312256 
	C449.302887,595.308838 463.361511,604.676147 467.597412,621.936218 
	C468.656525,626.251892 469.055786,630.825012 469.079468,635.283508 
	C469.214935,660.778198 469.214233,686.274353 469.083801,711.769104 
	C469.059601,716.499573 470.819550,718.632690 475.553467,718.179260 
	C476.048828,718.131775 476.552673,718.172668 477.052582,718.172974 
	C485.569153,718.177917 485.575562,718.173279 485.576355,709.889832 
	C485.577698,695.392456 485.648926,680.894531 485.554962,666.397766 
	C485.472931,653.742432 485.783264,641.046753 484.880768,628.443359 
	C483.546417,609.808472 476.197357,594.024109 457.522247,587.349426 
	C437.205933,580.088257 417.838440,582.738159 400.648468,598.171387 
M635.149109,656.337280 
	C635.436401,659.483337 635.627197,662.641602 636.025940,665.773499 
	C639.687683,694.532715 657.043335,716.921631 687.757812,720.512085 
	C714.528625,723.641541 740.790466,712.257507 751.343750,683.448975 
	C758.320557,664.403381 758.627319,644.864929 752.806885,625.604492 
	C745.646606,601.910156 729.531677,587.378662 704.718933,584.403442 
	C680.722961,581.526123 660.122742,588.394104 646.254150,609.541260 
	C637.160522,623.407410 634.923096,639.147278 635.149109,656.337280 
M879.809631,584.527039 
	C846.130005,579.694031 819.620605,597.187744 811.486938,629.793213 
	C808.346863,642.380859 808.281433,655.149963 810.056396,667.968140 
	C814.103333,697.195435 832.324524,716.323364 861.255371,720.368347 
	C887.273071,724.006042 914.547485,712.933228 925.143616,683.213379 
	C932.609497,662.273010 932.586914,640.948364 924.636780,620.197571 
	C916.964600,600.172119 902.045227,588.217651 879.809631,584.527039 
M569.481750,597.184387 
	C588.042053,597.756958 598.478333,606.306091 602.359558,624.417725 
	C603.118835,627.961121 603.351196,631.674805 603.364136,635.311646 
	C603.449402,659.298096 603.548218,683.286133 603.350281,707.271240 
	C603.247681,719.707214 604.187500,718.135498 615.302490,718.150024 
	C618.649292,718.154419 619.897888,716.084351 619.876343,712.930298 
	C619.833069,706.600708 619.920471,700.270081 619.853455,693.940979 
	C619.615540,671.468445 619.988159,648.964111 618.879089,626.533630 
	C617.862488,605.972717 605.732483,591.015747 588.165161,585.943054 
	C566.908508,579.804932 543.854858,586.291504 531.947266,601.749329 
	C531.009155,602.967102 530.001770,604.131531 528.009277,606.561279 
	C526.952759,600.724121 526.234314,596.416138 525.382629,592.134705 
	C524.318542,586.784973 522.887146,585.995422 516.426392,586.383118 
	C511.773773,586.662292 511.377045,589.645203 511.381134,593.317444 
	C511.424835,632.629028 511.403107,671.940613 511.410461,711.252258 
	C511.411652,717.669678 512.016113,718.179260 519.287476,718.182861 
	C527.125000,718.186768 527.584167,717.821350 527.587830,711.180054 
	C527.600037,688.692505 527.476807,666.204163 527.620911,643.717529 
	C527.812683,613.789062 541.330566,598.548828 569.481750,597.184387 
M1318.322021,607.337524 
	C1319.590820,611.059753 1321.264526,614.703308 1322.007446,618.527710 
	C1322.668091,621.928650 1324.129395,623.580261 1327.522217,623.575012 
	C1329.187744,623.572449 1330.860596,623.473267 1332.517578,623.592468 
	C1336.933105,623.910156 1338.436646,621.755127 1338.203125,617.562744 
	C1337.586182,606.490479 1333.165161,597.223755 1323.428833,591.938599 
	C1316.857910,588.371582 1309.340698,585.794006 1301.955566,584.644348 
	C1288.303345,582.519104 1274.664429,583.392212 1262.274536,590.672607 
	C1240.400635,603.525879 1240.139893,633.266174 1262.093018,645.890015 
	C1268.468384,649.555908 1275.788696,651.793335 1282.908691,653.897583 
	C1293.082642,656.904419 1303.694580,658.532532 1313.706299,661.957275 
	C1324.165527,665.535095 1327.937256,673.033936 1327.425537,685.330017 
	C1327.015503,695.182983 1322.008789,702.498291 1311.882935,704.785522 
	C1303.743408,706.624146 1295.099854,707.232422 1286.744019,706.878052 
	C1274.230469,706.347351 1260.583740,698.447266 1259.579346,680.909851 
	C1259.380127,677.431885 1257.598633,675.828674 1254.116943,675.976624 
	C1252.121826,676.061401 1250.119507,675.960754 1248.121582,675.999512 
	C1244.620483,676.067566 1243.046021,677.735535 1243.348022,681.362854 
	C1244.486694,695.041626 1250.283813,706.195251 1262.342896,712.944092 
	C1282.877563,724.436462 1304.243530,723.721558 1325.174805,714.317871 
	C1338.101685,708.510193 1343.783569,697.215454 1343.679321,683.169678 
	C1343.570312,668.488831 1338.006226,656.749573 1323.943604,650.764221 
	C1316.968872,647.795654 1309.451050,646.067322 1302.123169,643.973022 
	C1292.402100,641.194763 1282.416382,639.187561 1272.939575,635.757324 
	C1265.114990,632.925049 1261.829468,626.083313 1262.031494,617.809631 
	C1262.235596,609.456604 1266.408569,603.492554 1274.010620,600.421326 
	C1278.105591,598.766785 1282.649780,597.627808 1287.044556,597.428101 
	C1298.307983,596.916016 1309.482056,597.449158 1318.322021,607.337524 
M356.211578,688.626526 
	C357.086639,685.250610 358.261169,681.912537 358.695801,678.480835 
	C358.881073,677.018066 357.963043,674.733826 356.784271,673.899414 
	C351.976837,670.496033 343.601746,673.734741 342.223785,679.339233 
	C340.127045,687.867310 336.060822,695.110046 328.838623,700.342407 
	C308.634705,714.979553 277.002045,707.599243 266.014313,685.251038 
	C256.908020,666.729492 256.818207,647.207458 262.588928,627.804626 
	C268.015869,609.557617 280.541504,598.857361 299.819855,597.413574 
	C318.777313,595.993896 335.390839,603.046509 341.620605,622.966675 
	C344.475861,632.096680 344.783234,632.306641 354.049194,631.575378 
	C357.808502,631.278748 359.424164,629.472412 358.755432,625.662231 
	C356.263885,611.467041 349.281921,600.211365 336.962585,592.518433 
	C325.046143,585.077087 311.872711,583.346497 298.116608,583.957153 
	C274.735077,584.995117 255.796356,598.326965 248.099335,620.436340 
	C240.690445,641.718140 240.955048,663.291016 248.145126,684.639832 
	C251.109207,693.440735 256.160889,701.054688 263.252228,707.199951 
	C276.723297,718.873901 292.801331,722.206238 309.901611,720.722229 
	C330.889191,718.900940 347.444489,709.847534 356.211578,688.626526 
M774.831238,587.500000 
	C774.831055,628.791077 774.807800,670.082275 774.902039,711.373108 
	C774.906555,713.349670 775.615723,716.823547 776.566895,717.034973 
	C780.329285,717.871094 784.471558,718.359253 788.145081,717.527771 
	C789.510193,717.218750 790.732056,712.932190 790.738403,710.456177 
	C790.882996,654.180725 790.849609,597.904907 790.849182,541.629089 
	C790.849121,540.463623 791.300964,538.968445 790.747070,538.200623 
	C789.554993,536.548462 788.047852,534.868408 786.278442,533.971741 
	C784.952454,533.299744 783.015442,533.821533 781.350525,533.832458 
	C775.501099,533.870911 774.841431,534.529480 774.835938,540.546997 
	C774.821960,555.864685 774.831238,571.182312 774.831238,587.500000 
M1098.851196,688.500000 
	C1098.851318,656.864746 1098.854980,625.229492 1098.848389,593.594238 
	C1098.847046,587.231628 1097.971313,586.439880 1091.082153,586.426331 
	C1083.374878,586.411194 1082.833740,586.852722 1082.832275,593.468140 
	C1082.823608,632.762451 1082.822754,672.056702 1082.830200,711.351013 
	C1082.831421,717.599609 1083.411743,718.146362 1089.746094,718.169250 
	C1090.911621,718.173462 1092.079834,718.118713 1093.242188,718.179932 
	C1097.279907,718.392517 1098.938599,716.449951 1098.882568,712.476746 
	C1098.774536,704.819214 1098.851196,697.159058 1098.851196,688.500000 
M1093.151245,544.133606 
	C1091.991333,544.133972 1090.831421,544.129150 1089.671509,544.135559 
	C1083.510010,544.169312 1082.842773,544.835449 1082.818726,551.028992 
	C1082.805908,554.343018 1082.792236,557.657349 1082.825439,560.971130 
	C1082.857544,564.175049 1084.454834,565.867126 1087.721924,565.863220 
	C1089.710327,565.860779 1091.698975,565.880188 1093.687256,565.861816 
	C1097.128296,565.829956 1098.851440,564.067871 1098.861572,560.636780 
	C1098.872314,556.991272 1098.824951,553.345215 1098.878784,549.700500 
	C1098.928223,546.347595 1097.512207,544.359375 1093.151245,544.133606 
z"/>
<path fill="#0176CE" opacity="1.000000" stroke="none" 
	d="
M1.000000,32.468658 
	C54.829594,31.999949 108.672485,31.240541 162.485580,32.182716 
	C238.011948,33.505054 295.283630,67.661827 333.823456,132.373138 
	C342.406281,146.784348 347.874329,163.050629 354.957916,178.867935 
	C428.456482,121.452934 502.944794,63.264793 577.604797,4.942520 
	C598.911743,21.597057 620.125854,38.179001 641.822266,55.137924 
	C570.111389,111.172119 498.900116,166.815872 426.986389,223.008545 
	C442.993042,235.539642 458.640625,247.789627 474.667419,260.336487 
	C484.395996,252.760590 494.085999,245.235474 503.754242,237.682480 
	C564.524597,190.207428 625.281067,142.714493 686.116760,95.323349 
	C687.453003,94.282417 690.442627,93.381119 691.373962,94.094635 
	C712.123840,109.991348 732.692505,126.124702 753.849731,142.646027 
	C682.153259,198.667862 610.814697,254.410034 538.985901,310.535248 
	C554.894409,322.975983 570.554016,335.222076 586.692932,347.843018 
	C593.885864,342.249115 601.077454,336.679260 608.244934,331.078522 
	C671.371765,281.750519 734.477966,232.396179 797.671875,183.154358 
	C800.487305,180.960495 801.523621,178.755371 801.515320,175.249634 
	C801.407410,129.586395 801.443909,83.922813 801.443970,38.259319 
	C801.443970,36.299881 801.443970,34.340443 801.443970,32.206322 
	C831.750854,32.206322 861.514648,32.206322 891.720337,32.206322 
	C891.720337,137.826416 891.720337,243.240646 891.720337,349.246460 
	C947.032288,349.246460 1001.907898,349.246460 1057.168457,349.246460 
	C1057.168457,375.872589 1057.168457,401.908417 1057.168457,428.251709 
	C972.081299,428.251709 887.165527,428.251709 801.635620,428.251709 
	C801.635620,379.483673 801.635620,330.766144 801.635620,280.374634 
	C726.273193,339.243347 652.102661,397.181030 577.593994,455.382843 
	C503.029846,397.133575 428.554504,338.953674 354.661774,281.228912 
	C348.577271,295.508423 343.798981,310.142731 336.461426,323.355774 
	C303.094513,383.441071 252.144440,418.316864 183.758545,427.044708 
	C174.871719,428.178925 165.828369,428.457947 156.855530,428.485382 
	C105.196609,428.643494 53.537086,428.606598 1.438882,428.817902 
	C1.000000,296.979095 1.000000,164.958206 1.000000,32.468658 
M126.500000,110.999626 
	C114.884125,110.999626 103.268250,110.999626 91.464890,110.999626 
	C91.464890,190.666916 91.464890,269.845734 91.464890,349.219971 
	C92.547020,349.349945 93.352249,349.530518 94.157600,349.531128 
	C116.646858,349.548157 139.138885,349.769348 161.624664,349.490387 
	C187.634583,349.167755 210.431305,340.108337 229.692612,322.646332 
	C275.023315,281.550232 282.981567,208.893738 247.661606,158.217224 
	C229.113098,131.604126 204.093170,114.814850 171.436478,111.595467 
	C156.912567,110.163658 142.152740,111.124680 126.500000,110.999626 
z"/>
<path fill="#0076CE" opacity="1.000000" stroke="none" 
	d="
M0.999997,536.449951 
	C3.094771,535.279663 5.187791,533.936768 7.284585,533.930847 
	C50.430244,533.809021 93.576324,533.834045 136.722321,533.846313 
	C142.487518,533.847961 143.171082,534.611023 143.156937,540.639282 
	C143.143219,546.489380 142.485062,547.148621 136.445435,547.153259 
	C120.119926,547.165710 103.794403,547.153076 87.468895,547.163696 
	C80.530045,547.168213 80.001465,547.694153 80.001030,554.534180 
	C79.997734,606.675903 80.030693,658.817627 79.894646,710.959045 
	C79.888588,713.279236 78.614624,717.424622 77.490471,717.582581 
	C73.575180,718.132629 69.400352,717.603088 65.482536,716.753662 
	C64.646919,716.572449 64.065582,713.320496 64.061592,711.481689 
	C63.980595,674.166382 64.000969,636.850891 64.000931,599.535400 
	C64.000916,584.209412 63.893955,568.882263 64.063644,553.558105 
	C64.116440,548.790955 62.222324,547.061584 57.549816,547.101868 
	C40.892361,547.245361 24.232426,547.219421 7.574921,547.079651 
	C5.617866,547.063293 3.670078,545.942383 1.358997,545.166748 
	C1.000000,542.299988 1.000000,539.599976 0.999997,536.449951 
z"/>
<path fill="#0076CE" opacity="1.000000" stroke="none" 
	d="
M1087.840454,374.000000 
	C1087.840454,259.863190 1087.840454,146.226395 1087.840454,32.295441 
	C1117.912109,32.295441 1147.656982,32.295441 1177.894043,32.295441 
	C1177.894043,137.874146 1177.894043,243.442139 1177.894043,349.491821 
	C1233.319336,349.491821 1288.256592,349.491821 1343.515625,349.491821 
	C1343.515625,375.883575 1343.515625,401.794281 1343.515625,428.076721 
	C1258.497314,428.076721 1173.583374,428.076721 1087.840454,428.076721 
	C1087.840454,410.318146 1087.840454,392.409088 1087.840454,374.000000 
z"/>
<path fill="#0579CF" opacity="1.000000" stroke="none" 
	d="
M1037.207275,731.033569 
	C1040.268555,718.629456 1041.218506,706.245300 1039.548584,699.868652 
	C1038.834351,700.341003 1038.002197,700.600342 1037.661621,701.159180 
	C1029.503174,714.546570 1016.609802,719.545471 1001.937134,720.781738 
	C972.619019,723.251831 951.288330,707.951965 943.955933,679.382080 
	C938.835327,659.430420 938.939941,639.470459 945.678772,619.914185 
	C954.928467,593.071167 978.187744,579.687378 1006.198120,584.437317 
	C1019.391357,586.674561 1030.655762,591.856262 1037.804810,603.867493 
	C1038.149414,604.446533 1039.008545,604.719482 1040.328247,605.604553 
	C1041.261597,600.398987 1042.132690,595.784363 1042.908081,591.153809 
	C1043.826904,585.666992 1048.001831,586.375305 1051.795044,586.446716 
	C1055.589600,586.518127 1056.892944,588.710999 1056.879883,592.310730 
	C1056.741577,630.448364 1056.874146,668.588745 1056.412964,706.722168 
	C1056.307495,715.454346 1054.942261,724.336365 1052.905640,732.850098 
	C1045.979370,761.805054 1025.210938,776.170654 995.434631,773.477539 
	C984.126343,772.454773 973.449585,769.916870 964.488403,762.445862 
	C957.122253,756.304565 953.105713,748.263123 951.442383,738.975220 
	C951.240112,737.845947 951.754822,735.602539 952.287964,735.486511 
	C955.890259,734.702393 959.631226,733.812622 963.233215,734.107117 
	C964.846497,734.239014 967.125916,736.801392 967.594666,738.644470 
	C970.739014,751.007812 978.950439,757.127625 991.063416,759.357666 
	C1014.659058,763.701721 1030.274536,754.342590 1037.207275,731.033569 
M1009.704163,598.522705 
	C986.588013,594.016663 969.039124,602.182190 961.774353,622.068420 
	C954.408020,642.232605 954.399292,662.898071 961.906799,683.089172 
	C968.069153,699.662598 981.262878,707.707703 999.758301,707.426819 
	C1017.177124,707.162415 1030.314941,698.266968 1035.857178,681.943542 
	C1042.464478,662.483093 1042.505249,642.715454 1035.962036,623.215881 
	C1031.806641,610.832397 1023.517944,602.193787 1009.704163,598.522705 
z"/>
<path fill="#0679CF" opacity="1.000000" stroke="none" 
	d="
M144.340927,692.607788 
	C160.249878,712.419128 191.561661,710.467224 202.540894,699.117493 
	C206.811493,694.702698 209.939148,689.036743 212.940643,683.584656 
	C215.464966,678.999390 224.129044,676.031860 228.062515,679.445374 
	C229.168060,680.404907 229.652863,683.009277 229.282211,684.592163 
	C226.507019,696.444885 219.979813,705.839722 209.758972,712.490845 
	C188.694458,726.198364 154.595459,723.226440 136.216995,706.164490 
	C128.838898,699.314941 123.955917,690.850525 120.962425,681.360657 
	C115.438934,663.850281 114.795654,645.958191 118.703934,628.122192 
	C125.740349,596.010559 151.668915,579.842102 184.551758,584.568298 
	C211.563583,588.450684 229.112183,607.853210 231.947723,635.437195 
	C232.474243,640.559021 232.707626,645.722717 232.817139,650.872620 
	C232.944305,656.851318 231.859177,657.846924 225.893112,657.849243 
	C197.412018,657.860168 168.930939,657.852173 140.449844,657.855286 
	C133.252197,657.856018 132.009521,659.199402 133.117371,666.472046 
	C134.569656,676.005798 138.088455,684.715515 144.340927,692.607788 
M199.555069,604.867859 
	C185.298416,595.323914 170.077087,594.440125 154.991074,601.730286 
	C140.280533,608.839050 134.431030,622.285400 132.867172,637.904846 
	C132.476959,641.802246 133.408264,644.236267 138.170563,644.209717 
	C162.498398,644.073853 186.827576,644.102722 211.155853,644.190735 
	C215.047745,644.204773 216.709076,642.619690 216.422943,638.814575 
	C215.420929,625.489014 210.854446,613.897522 199.555069,604.867859 
z"/>
<path fill="#0579CF" opacity="1.000000" stroke="none" 
	d="
M1135.802368,597.784912 
	C1162.212646,575.901306 1202.798462,579.846924 1221.350464,605.948120 
	C1231.487549,620.210266 1233.668945,636.546021 1232.965942,653.497131 
	C1232.796997,657.569153 1229.771606,657.880066 1226.522217,657.875671 
	C1198.044312,657.836975 1169.566528,657.853088 1141.088623,657.853455 
	C1139.922852,657.853516 1138.755737,657.822815 1137.591553,657.866638 
	C1134.291016,657.990723 1132.749146,659.734497 1133.078979,663.009705 
	C1135.719971,689.235413 1154.392822,713.844482 1189.688843,706.026001 
	C1201.169189,703.482971 1208.414429,695.803589 1212.864014,685.228638 
	C1215.565552,678.807861 1220.556396,676.407959 1227.063965,678.611450 
	C1230.660156,679.829224 1230.461426,682.583862 1229.591187,685.558960 
	C1225.371460,699.983276 1216.672729,710.516113 1202.693237,716.385132 
	C1163.647095,732.777771 1123.442749,709.771057 1118.087891,667.889709 
	C1116.220825,653.286865 1115.944092,638.680664 1119.982788,624.310669 
	C1122.830322,614.178955 1127.808716,605.282654 1135.802368,597.784912 
M1216.921631,641.090027 
	C1216.443970,627.181396 1212.320801,614.620728 1201.060425,605.880371 
	C1187.153564,595.085938 1171.414062,594.249146 1155.853149,601.527954 
	C1140.209351,608.845703 1134.492798,623.068726 1133.073364,639.366760 
	C1132.718140,643.444946 1135.556519,644.180054 1138.969238,644.173462 
	C1162.958984,644.127502 1186.948975,644.199585 1210.937744,644.051331 
	C1212.833374,644.039612 1214.720581,642.647888 1216.921631,641.090027 
z"/>
<path fill="#0679CF" opacity="1.000000" stroke="none" 
	d="
M400.899811,597.916504 
	C417.838440,582.738159 437.205933,580.088257 457.522247,587.349426 
	C476.197357,594.024109 483.546417,609.808472 484.880768,628.443359 
	C485.783264,641.046753 485.472931,653.742432 485.554962,666.397766 
	C485.648926,680.894531 485.577698,695.392456 485.576355,709.889832 
	C485.575562,718.173279 485.569153,718.177917 477.052582,718.172974 
	C476.552673,718.172668 476.048828,718.131775 475.553467,718.179260 
	C470.819550,718.632690 469.059601,716.499573 469.083801,711.769104 
	C469.214233,686.274353 469.214935,660.778198 469.079468,635.283508 
	C469.055786,630.825012 468.656525,626.251892 467.597412,621.936218 
	C463.361511,604.676147 449.302887,595.308838 431.193817,597.312256 
	C408.288452,599.846191 395.214844,612.310547 394.075256,635.410767 
	C392.861755,660.009277 393.381958,684.694031 393.183441,709.341370 
	C393.118530,717.399414 387.191162,721.376953 379.901276,717.722961 
	C378.402252,716.971558 377.302643,713.976257 377.265198,711.991760 
	C377.029388,699.498474 377.145447,686.998474 377.145416,674.500732 
	C377.145386,630.008728 377.105804,585.516541 377.258331,541.025024 
	C377.266235,538.717468 378.650482,534.616699 379.846497,534.441589 
	C383.746368,533.870605 387.905853,534.484131 391.841095,535.267029 
	C392.579163,535.413879 393.109650,538.441406 393.117249,540.142334 
	C393.204987,559.805115 393.173553,579.468384 393.173798,599.131531 
	C393.173828,600.945374 393.173798,602.759216 393.173798,604.573120 
	C393.614777,604.899048 394.055756,605.225037 394.496735,605.551025 
	C396.547302,603.091125 398.597900,600.631287 400.899811,597.916504 
z"/>
<path fill="#0478CF" opacity="1.000000" stroke="none" 
	d="
M635.148926,655.859009 
	C634.923096,639.147278 637.160522,623.407410 646.254150,609.541260 
	C660.122742,588.394104 680.722961,581.526123 704.718933,584.403442 
	C729.531677,587.378662 745.646606,601.910156 752.806885,625.604492 
	C758.627319,644.864929 758.320557,664.403381 751.343750,683.448975 
	C740.790466,712.257507 714.528625,723.641541 687.757812,720.512085 
	C657.043335,716.921631 639.687683,694.532715 636.025940,665.773499 
	C635.627197,662.641602 635.436401,659.483337 635.148926,655.859009 
M740.147766,659.316284 
	C741.006104,647.913513 740.081543,636.724426 735.979736,625.950745 
	C729.270996,608.329468 714.978271,597.478333 697.200623,597.241821 
	C678.524292,596.993225 664.746033,605.588440 657.310425,622.664368 
	C648.511719,642.870728 648.507568,663.613586 658.007263,683.573059 
	C670.441406,709.698059 704.155762,715.840332 724.775330,696.121704 
	C734.913269,686.426819 738.836914,673.859436 740.147766,659.316284 
z"/>
<path fill="#0478CF" opacity="1.000000" stroke="none" 
	d="
M880.243042,584.614075 
	C902.045227,588.217651 916.964600,600.172119 924.636780,620.197571 
	C932.586914,640.948364 932.609497,662.273010 925.143616,683.213379 
	C914.547485,712.933228 887.273071,724.006042 861.255371,720.368347 
	C832.324524,716.323364 814.103333,697.195435 810.056396,667.968140 
	C808.281433,655.149963 808.346863,642.380859 811.486938,629.793213 
	C819.620605,597.187744 846.130005,579.694031 880.243042,584.614075 
M867.743591,597.174927 
	C849.684021,598.450256 837.042664,607.670776 830.332275,624.205750 
	C822.766357,642.848938 822.683350,662.004883 830.368469,680.616882 
	C837.412354,697.675964 850.418335,707.191284 869.326782,707.403259 
	C887.363708,707.605591 901.871277,698.120056 908.863953,680.728699 
	C916.507324,661.719299 916.572693,642.278015 908.545471,623.403870 
	C901.198486,606.129089 887.565186,597.342834 867.743591,597.174927 
z"/>
<path fill="#0A7BD0" opacity="1.000000" stroke="none" 
	d="
M569.040649,597.184570 
	C541.330566,598.548828 527.812683,613.789062 527.620911,643.717529 
	C527.476807,666.204163 527.600037,688.692505 527.587830,711.180054 
	C527.584167,717.821350 527.125000,718.186768 519.287476,718.182861 
	C512.016113,718.179260 511.411652,717.669678 511.410461,711.252258 
	C511.403107,671.940613 511.424835,632.629028 511.381134,593.317444 
	C511.377045,589.645203 511.773773,586.662292 516.426392,586.383118 
	C522.887146,585.995422 524.318542,586.784973 525.382629,592.134705 
	C526.234314,596.416138 526.952759,600.724121 528.009277,606.561279 
	C530.001770,604.131531 531.009155,602.967102 531.947266,601.749329 
	C543.854858,586.291504 566.908508,579.804932 588.165161,585.943054 
	C605.732483,591.015747 617.862488,605.972717 618.879089,626.533630 
	C619.988159,648.964111 619.615540,671.468445 619.853455,693.940979 
	C619.920471,700.270081 619.833069,706.600708 619.876343,712.930298 
	C619.897888,716.084351 618.649292,718.154419 615.302490,718.150024 
	C604.187500,718.135498 603.247681,719.707214 603.350281,707.271240 
	C603.548218,683.286133 603.449402,659.298096 603.364136,635.311646 
	C603.351196,631.674805 603.118835,627.961121 602.359558,624.417725 
	C598.478333,606.306091 588.042053,597.756958 569.040649,597.184570 
z"/>
<path fill="#0579CF" opacity="1.000000" stroke="none" 
	d="
M1318.103027,607.037659 
	C1309.482056,597.449158 1298.307983,596.916016 1287.044556,597.428101 
	C1282.649780,597.627808 1278.105591,598.766785 1274.010620,600.421326 
	C1266.408569,603.492554 1262.235596,609.456604 1262.031494,617.809631 
	C1261.829468,626.083313 1265.114990,632.925049 1272.939575,635.757324 
	C1282.416382,639.187561 1292.402100,641.194763 1302.123169,643.973022 
	C1309.451050,646.067322 1316.968872,647.795654 1323.943604,650.764221 
	C1338.006226,656.749573 1343.570312,668.488831 1343.679321,683.169678 
	C1343.783569,697.215454 1338.101685,708.510193 1325.174805,714.317871 
	C1304.243530,723.721558 1282.877563,724.436462 1262.342896,712.944092 
	C1250.283813,706.195251 1244.486694,695.041626 1243.348022,681.362854 
	C1243.046021,677.735535 1244.620483,676.067566 1248.121582,675.999512 
	C1250.119507,675.960754 1252.121826,676.061401 1254.116943,675.976624 
	C1257.598633,675.828674 1259.380127,677.431885 1259.579346,680.909851 
	C1260.583740,698.447266 1274.230469,706.347351 1286.744019,706.878052 
	C1295.099854,707.232422 1303.743408,706.624146 1311.882935,704.785522 
	C1322.008789,702.498291 1327.015503,695.182983 1327.425537,685.330017 
	C1327.937256,673.033936 1324.165527,665.535095 1313.706299,661.957275 
	C1303.694580,658.532532 1293.082642,656.904419 1282.908691,653.897583 
	C1275.788696,651.793335 1268.468384,649.555908 1262.093018,645.890015 
	C1240.139893,633.266174 1240.400635,603.525879 1262.274536,590.672607 
	C1274.664429,583.392212 1288.303345,582.519104 1301.955566,584.644348 
	C1309.340698,585.794006 1316.857910,588.371582 1323.428833,591.938599 
	C1333.165161,597.223755 1337.586182,606.490479 1338.203125,617.562744 
	C1338.436646,621.755127 1336.933105,623.910156 1332.517578,623.592468 
	C1330.860596,623.473267 1329.187744,623.572449 1327.522217,623.575012 
	C1324.129395,623.580261 1322.668091,621.928650 1322.007446,618.527710 
	C1321.264526,614.703308 1319.590820,611.059753 1318.103027,607.037659 
z"/>
<path fill="#0579CF" opacity="1.000000" stroke="none" 
	d="
M356.092712,688.997437 
	C347.444489,709.847534 330.889191,718.900940 309.901611,720.722229 
	C292.801331,722.206238 276.723297,718.873901 263.252228,707.199951 
	C256.160889,701.054688 251.109207,693.440735 248.145126,684.639832 
	C240.955048,663.291016 240.690445,641.718140 248.099335,620.436340 
	C255.796356,598.326965 274.735077,584.995117 298.116608,583.957153 
	C311.872711,583.346497 325.046143,585.077087 336.962585,592.518433 
	C349.281921,600.211365 356.263885,611.467041 358.755432,625.662231 
	C359.424164,629.472412 357.808502,631.278748 354.049194,631.575378 
	C344.783234,632.306641 344.475861,632.096680 341.620605,622.966675 
	C335.390839,603.046509 318.777313,595.993896 299.819855,597.413574 
	C280.541504,598.857361 268.015869,609.557617 262.588928,627.804626 
	C256.818207,647.207458 256.908020,666.729492 266.014313,685.251038 
	C277.002045,707.599243 308.634705,714.979553 328.838623,700.342407 
	C336.060822,695.110046 340.127045,687.867310 342.223785,679.339233 
	C343.601746,673.734741 351.976837,670.496033 356.784271,673.899414 
	C357.963043,674.733826 358.881073,677.018066 358.695801,678.480835 
	C358.261169,681.912537 357.086639,685.250610 356.092712,688.997437 
z"/>
<path fill="#0478CF" opacity="1.000000" stroke="none" 
	d="
M774.831177,587.000000 
	C774.831238,571.182312 774.821960,555.864685 774.835938,540.546997 
	C774.841431,534.529480 775.501099,533.870911 781.350525,533.832458 
	C783.015442,533.821533 784.952454,533.299744 786.278442,533.971741 
	C788.047852,534.868408 789.554993,536.548462 790.747070,538.200623 
	C791.300964,538.968445 790.849121,540.463623 790.849182,541.629089 
	C790.849609,597.904907 790.882996,654.180725 790.738403,710.456177 
	C790.732056,712.932190 789.510193,717.218750 788.145081,717.527771 
	C784.471558,718.359253 780.329285,717.871094 776.566895,717.034973 
	C775.615723,716.823547 774.906555,713.349670 774.902039,711.373108 
	C774.807800,670.082275 774.831055,628.791077 774.831177,587.000000 
z"/>
<path fill="#0579CF" opacity="1.000000" stroke="none" 
	d="
M1098.851196,689.000000 
	C1098.851196,697.159058 1098.774536,704.819214 1098.882568,712.476746 
	C1098.938599,716.449951 1097.279907,718.392517 1093.242188,718.179932 
	C1092.079834,718.118713 1090.911621,718.173462 1089.746094,718.169250 
	C1083.411743,718.146362 1082.831421,717.599609 1082.830200,711.351013 
	C1082.822754,672.056702 1082.823608,632.762451 1082.832275,593.468140 
	C1082.833740,586.852722 1083.374878,586.411194 1091.082153,586.426331 
	C1097.971313,586.439880 1098.847046,587.231628 1098.848389,593.594238 
	C1098.854980,625.229492 1098.851318,656.864746 1098.851196,689.000000 
z"/>
<path fill="#0A7BD0" opacity="1.000000" stroke="none" 
	d="
M1093.587402,544.134766 
	C1097.512207,544.359375 1098.928223,546.347595 1098.878784,549.700500 
	C1098.824951,553.345215 1098.872314,556.991272 1098.861572,560.636780 
	C1098.851440,564.067871 1097.128296,565.829956 1093.687256,565.861816 
	C1091.698975,565.880188 1089.710327,565.860779 1087.721924,565.863220 
	C1084.454834,565.867126 1082.857544,564.175049 1082.825439,560.971130 
	C1082.792236,557.657349 1082.805908,554.343018 1082.818726,551.028992 
	C1082.842773,544.835449 1083.510010,544.169312 1089.671509,544.135559 
	C1090.831421,544.129150 1091.991333,544.133972 1093.587402,544.134766 
z"/>
<path fill="#FEFEFF" opacity="1.000000" stroke="none" 
	d="
M127.000000,110.999626 
	C142.152740,111.124680 156.912567,110.163658 171.436478,111.595467 
	C204.093170,114.814850 229.113098,131.604126 247.661606,158.217224 
	C282.981567,208.893738 275.023315,281.550232 229.692612,322.646332 
	C210.431305,340.108337 187.634583,349.167755 161.624664,349.490387 
	C139.138885,349.769348 116.646858,349.548157 94.157600,349.531128 
	C93.352249,349.530518 92.547020,349.349945 91.464890,349.219971 
	C91.464890,269.845734 91.464890,190.666916 91.464890,110.999626 
	C103.268250,110.999626 114.884125,110.999626 127.000000,110.999626 
z"/>
<path fill="#FEFEFF" opacity="1.000000" stroke="none" 
	d="
M1010.098633,598.647705 
	C1023.517944,602.193787 1031.806641,610.832397 1035.962036,623.215881 
	C1042.505249,642.715454 1042.464478,662.483093 1035.857178,681.943542 
	C1030.314941,698.266968 1017.177124,707.162415 999.758301,707.426819 
	C981.262878,707.707703 968.069153,699.662598 961.906799,683.089172 
	C954.399292,662.898071 954.408020,642.232605 961.774353,622.068420 
	C969.039124,602.182190 986.588013,594.016663 1010.098633,598.647705 
z"/>
<path fill="#FEFEFF" opacity="1.000000" stroke="none" 
	d="
M199.847687,605.079163 
	C210.854446,613.897522 215.420929,625.489014 216.422943,638.814575 
	C216.709076,642.619690 215.047745,644.204773 211.155853,644.190735 
	C186.827576,644.102722 162.498398,644.073853 138.170563,644.209717 
	C133.408264,644.236267 132.476959,641.802246 132.867172,637.904846 
	C134.431030,622.285400 140.280533,608.839050 154.991074,601.730286 
	C170.077087,594.440125 185.298416,595.323914 199.847687,605.079163 
z"/>
<path fill="#FEFEFF" opacity="1.000000" stroke="none" 
	d="
M1216.766602,641.493774 
	C1214.720581,642.647888 1212.833374,644.039612 1210.937744,644.051331 
	C1186.948975,644.199585 1162.958984,644.127502 1138.969238,644.173462 
	C1135.556519,644.180054 1132.718140,643.444946 1133.073364,639.366760 
	C1134.492798,623.068726 1140.209351,608.845703 1155.853149,601.527954 
	C1171.414062,594.249146 1187.153564,595.085938 1201.060425,605.880371 
	C1212.320801,614.620728 1216.443970,627.181396 1216.766602,641.493774 
z"/>
<path fill="#FEFEFF" opacity="1.000000" stroke="none" 
	d="
M740.129333,659.789917 
	C738.836914,673.859436 734.913269,686.426819 724.775330,696.121704 
	C704.155762,715.840332 670.441406,709.698059 658.007263,683.573059 
	C648.507568,663.613586 648.511719,642.870728 657.310425,622.664368 
	C664.746033,605.588440 678.524292,596.993225 697.200623,597.241821 
	C714.978271,597.478333 729.270996,608.329468 735.979736,625.950745 
	C740.081543,636.724426 741.006104,647.913513 740.129333,659.789917 
z"/>
<path fill="#FEFEFF" opacity="1.000000" stroke="none" 
	d="
M868.183838,597.172485 
	C887.565186,597.342834 901.198486,606.129089 908.545471,623.403870 
	C916.572693,642.278015 916.507324,661.719299 908.863953,680.728699 
	C901.871277,698.120056 887.363708,707.605591 869.326782,707.403259 
	C850.418335,707.191284 837.412354,697.675964 830.368469,680.616882 
	C822.683350,662.004883 822.766357,642.848938 830.332275,624.205750 
	C837.042664,607.670776 849.684021,598.450256 868.183838,597.172485 
z"/>
</svg>