<svg xmlns="http://www.w3.org/2000/svg" role="img" viewBox="-9.95 -9.95 517.40 140.90"><g fill="#231f20" fill-opacity="1" fill-rule="nonzero" stroke="none" transform="matrix(1.33333 0 0 -1.33333 0 121.067) scale(.1)"><path d="M644.109 376.141c0-41.453-4.339-75.758-28.734-102.411-20.039-22.011-50.711-24.296-84.148-24.296H278.344v413.187h241.058c44.832 0 86.559-6.297 109.364-44.637 12.601-21.66 15.343-47.398 15.343-78.043zm238.946 433.707c-57.465 84.242-162.625 98.136-275.586 98.136H0V0h637.215c84.305 0 161.574 4.98828 212.109 53.4766 61.442 58.5354 72.375 133.8864 72.375 225.0194v359.883c0 67.363-6.933 123.894-38.644 171.469"/><path d="M2790.24 907.973V657.891h-530.31V247.117h530.43V.01172h-496.72c-112.99 0-216.1 16.77348-272.58 101.16828-32.74 47.597-41.64 101.23-41.64 168.695v360.219c0 89.324 13.87 159.804 75.29 218.332 50.59 48.601 124.94 59.547 209.2 59.547h526.33"/><path d="M3728.44 907.973V657.891h-528.85V247.117h531.84V.01172h-498.12c-113.03 0-216.1 16.77348-272.58 101.16828-32.74 47.597-41.68 101.23-41.68 168.695v360.219c0 89.324 13.9 159.804 75.31 218.332 50.61 48.601 124.9 59.547 209.22 59.547h524.86"/><path d="M1596.77.01172V661.422h279.25v.301h2.05v245.781h-4.05v.469h-850.57V661.598h284.18V.32031l289.14-.3086"/></g></svg>