<svg xmlns="http://www.w3.org/2000/svg" role="img" viewBox="-6.70 58.05 413.14 128.89"><style>svg {enable-background:new 0 0 400 245}</style><style>.st0{fill:#050107}</style><g id="XMLID_122_"><path id="XMLID_117_" d="M389.3 165.1c0 .7.5.9 1.1.9.4 0 1-.1 1-.6s-.7-.6-1.5-.8c-.7-.2-1.5-.5-1.5-1.4 0-1 1-1.5 1.9-1.5 1 0 2 .5 2 1.6h-1.1c0-.6-.5-.8-1-.8-.3 0-.8.1-.8.6 0 .4.2.4 1.5.8.4.1 1.5.3 1.5 1.5 0 .9-.7 1.6-2.1 1.6-1.1 0-2.1-.6-2.1-1.8h1.1z" class="st0"/></g><path id="XMLID_116_" d="M393.3 161.7h1.6l1.1 3.5 1.1-3.5h1.6v5.1h-1.1v-3.6l-1.2 3.6h-.8l-1.2-3.5h-.1v3.5h-1z" class="st0"/><g id="XMLID_121_"><path id="XMLID_115_" d="M208.2 66v18.9h-39.3V116h39.3v18.7h-36.8c-8.4 0-16-1.3-20.2-7.7-2.4-3.6-3.1-7.7-3.1-12.8V87c0-6.8 1-12.1 5.6-16.5 3.7-3.7 9.3-4.5 15.5-4.5h39z" class="st0"/><path id="XMLID_114_" d="M277.9 66v18.9h-39.3V116h39.3v18.7H241c-8.4 0-16-1.3-20.2-7.7-2.4-3.6-3.1-7.7-3.1-12.8V87c0-6.8 1-12.1 5.6-16.5 3.7-3.7 9.3-4.5 15.5-4.5h39.1z" class="st0"/><path d="M49.1 106.2c0 3.1-.3 5.7-2.1 7.8-1.5 1.7-3.8 1.8-6.2 1.8H22V84.5h17.9c3.3 0 6.4.5 8.1 3.4.9 1.6 1.1 3.6 1.1 5.9v12.4zm17.7-32.8C62.5 67 54.7 66 46.4 66h-45v68.7h47.2c6.2 0 12-.4 15.7-4.1 4.6-4.4 5.4-10.1 5.4-17V86.4c0-5.1-.6-9.4-2.9-13" class="st0"/></g><path id="XMLID_111_" d="M119.7 134.7V84.6h20.9V66H77.2v18.6h21.1v50.1z" class="st0"/><g id="XMLID_120_"><path id="XMLID_110_" d="M51.8 173.4c-.8.6-1.9 1-3.2 1-1.1 0-2.1-.2-2.9-.4-.7-.1-1.1-.3-1.4-.4v-3.3h1l1.1 2.8c.6.1 1 .1 1.5.1 1.1 0 1.7-.2 2.2-.6.4-.4.6-.9.6-1.5 0-1.3-.8-1.8-1.7-2.5l-2.1-1.4c-1.1-.7-1.3-1-1.7-1.4-.6-.7-.9-1.4-.9-2.3 0-2.6 2.2-3.9 4.6-3.9.7 0 1.5.1 2.6.4.5.1 1.1.2 1.4.3v3.3h-1l-1-2.7c-.6-.1-.9-.1-1.4-.1-1.5 0-2.8.5-2.8 2 0 1 .5 1.5 1.8 2.3l2.1 1.4c1.2.8 1.6 1.2 2 1.7.5.6.7 1.4.7 2.3 0 1.2-.6 2.2-1.5 2.9" class="st0"/><path d="M61.1 165.3c-.3-.5-.7-.7-1.4-.7-1.3 0-2 1-2.1 3.3l4-.4c-.1-1.1-.2-1.8-.5-2.2m-3.5 3.5c0 1.4.2 2.2.8 3 .7.8 1.7 1.3 2.9 1.3.6 0 1.4-.1 2.6-.3l.2.8s-1 .3-1.4.5c-1.2.3-2 .5-2.8.5-3 0-4.9-2.1-4.9-5.3 0-1.8.7-3.4 1.8-4.4.9-.8 2-1.2 3.4-1.2 1.6 0 3 .7 3.6 2 .4.8.5 1.5.6 3.2h-6.8z" class="st0"/><path id="XMLID_107_" d="M73.1 174c-1.2.4-2 .5-2.8.5-2.9 0-4.9-2.1-4.9-5.1 0-3.4 2.4-5.7 5.8-5.7 1 0 2 .2 3 .5v2.4h-1.7l-1-2h-.4c-2.1.2-3.2 2.1-3.2 4.3 0 1.3.4 2.4 1 3.1.6.8 1.6 1.1 2.8 1.1.7 0 1 0 2.3-.3l.2.8c.3 0-.7.3-1.1.4" class="st0"/><path id="XMLID_106_" d="M83.2 174.5v-1.2c-.4.1-1.4.5-1.7.6-.8.3-1.2.5-1.8.5-.8 0-1.7-.3-2.2-.8-.6-.6-.9-1.4-.9-2.7v-5.5l-1.8-.6v-.6l4.4-.9v6.9c0 1 .1 1.5.5 1.9.4.4.9.6 1.8.6.6 0 1.1-.1 1.7-.2v-7.2l-1.8-.6v-.6l4.4-.9v9.1l1.7.5v.6l-4.3 1.1z" class="st0"/><path id="XMLID_105_" d="M95 166.6l-.6-1.4H94c-.6 0-1 .1-1.5.3v7.4l2.2.8v.6h-6.6v-.6l1.8-.8v-7.3l-1.8-.5v-.6l4.4-.9v1.2c1.5-.8 2.3-1.2 3-1.2.5 0 .8.1 1.3.4v2.6H95z" class="st0"/><path d="M100.2 161.7c-1.1 0-1.6-.4-1.6-1.2 0-.8.5-1.2 1.6-1.2s1.6.4 1.6 1.2c0 .8-.5 1.2-1.6 1.2m-3 12.5v-.6l1.8-.8v-7.3l-1.8-.6v-.6l4.4-.9v9.4l1.8.8v.6h-6.2z" class="st0"/><path id="XMLID_102_" d="M110.8 174.2v-.6l1.5-.8v-5.1c0-1.1-.2-1.6-.6-2-.4-.4-.9-.5-1.7-.5-.5 0-1.1 0-1.7.1v7.5l1.5.8v.6H104v-.6l1.8-.8v-7.3l-1.8-.6v-.6l4.4-.9v1.2c.6-.2 1.1-.5 1.6-.7 1.1-.4 1.3-.5 1.9-.5.8 0 1.7.3 2.2.9.6.7.8 1.3.8 2.7v5.6l1.8.8v.6h-5.9z" class="st0"/><path d="M123.2 165.1c-.3-.5-.7-.7-1.3-.7-1.1 0-1.8.9-1.8 2.3 0 1.2.4 2.2.9 2.7.3.3.6.4 1 .4 1.2 0 1.8-.8 1.8-2.4 0-.8-.2-1.8-.6-2.3m1.8 9.7c-.3-.2-.5-.2-1.4-.2h-2.9c-.5 0-.6 0-.9-.1-.5.5-.9 1.1-.9 1.6 0 1.1 1.2 1.9 3 1.9 1.9 0 3.5-1 3.5-2.3 0-.4-.1-.7-.4-.9m.1-10c.4.3.7.6.9 1 .2.4.3.9.3 1.4 0 2-1.8 3.4-4.3 3.4-.4 0-.5 0-.9-.1-.4.5-.6.9-.6 1.2 0 .2.1.4.3.5.2.1.5.2 1.1.2h2.8c1.1 0 1.7.1 2.2.6.5.4.7 1 .7 1.7 0 1.2-.7 2.3-1.8 3.1-1 .7-2.5 1.1-4 1.1s-2.7-.3-3.6-.8c-.8-.5-1.3-1.1-1.3-1.7 0-.5.3-1 .9-1.4.5-.3.9-.5 1.5-.8-.6-.4-1-.8-1-1.3 0-.3.2-.7.5-1 .5-.5 1.1-1.1 1.7-1.5-.7-.1-1.2-.3-1.6-.6-.9-.6-1.4-1.5-1.4-2.5 0-2 1.9-3.6 4.3-3.6 1.1 0 1.9.2 2.7.7l3.5-.9v2.2l-2.9-.9z" class="st0"/></g><path id="XMLID_98_" d="M144.9 163.6l-1-2.7h-2.7v11.9l2.3.8v.6h-7.2v-.6l2.2-.8v-11.9h-2.7l-1 2.7h-1v-3.8h12.1v3.8z" class="st0"/><g id="XMLID_119_"><path d="M150.5 164.6c-1.6 0-2.6 1.5-2.6 4.2 0 1.8.5 4.6 2.7 4.6 2.1 0 2.6-2.4 2.6-4.2 0-1.7-.4-4.6-2.7-4.6m0 10c-3.2 0-5.3-2.1-5.3-5.3 0-3.4 2.2-5.7 5.5-5.7 3.1 0 5.3 2.1 5.3 5.3 0 3.3-2.3 5.7-5.5 5.7m13.9-9.8c-.4-.1-.8-.1-1.1-.1-2.1 0-3.5 1.6-3.5 4.2 0 2.3 1.1 4 3.2 4 .5 0 .8 0 1.4-.2v-7.9zm0 9.8v-1.3l-1.6.7c-.8.4-1.2.5-1.9.5-2.2 0-3.9-2.2-3.9-5 0-3.4 2.5-5.9 5.7-5.9.6 0 1.1.1 1.6.2V161l-1.9-.6v-.5l4.5-.9v13.5l1.7.5v.6l-4.2 1zm11.1-5.2c-.6.1-1 .2-1.6.3-1.2.2-1.7.7-1.7 1.7s.7 1.6 1.9 1.6c.4 0 .8 0 1.3-.1h.1v-3.5zm2.8 4.7c-.4.1-1 .3-1.4.3-.7 0-1.1-.3-1.4-1-.1.1-.3.2-1.1.5-.7.4-1.1.5-1.9.5-1.8 0-3-1.1-3-2.7 0-1.3.8-2.2 2.3-2.6.8-.2 1.7-.3 3-.4h.6v-2.4c0-.9-.2-1.2-.6-1.5-.2-.1-.6-.2-1-.2h-.7l-.9 1.9h-1.7v-2.1l1.5-.4c1.1-.3 1.8-.4 2.7-.4 1 0 1.7.2 2.3.5.8.5 1.1 1 1.1 2.1v6.2c0 .1.2.2.5.3l1.3.4v.5c-.3.1-1.6.5-1.6.5" class="st0"/><path id="XMLID_52_" d="M189.4 165.2L185 176c-.9 2.1-1.9 2.9-3.8 2.9-.5 0-1.1-.1-1.6-.2v-2.1h1.6l.5 1.4c1.1-.2 1.5-.9 2-2.2l.6-1.6-3.8-9.1-1.3-.7v-.6h5.4v.6l-1.4.7 1.7 4.6c.5 1.2.4 1 .6 1.8l2.3-6.3-1.4-.8v-.6h4.1v.6l-1.1.8z" class="st0"/><path id="XMLID_51_" d="M192 174.5c-1.1 0-1.5-.4-1.5-1.4 0-.9.5-1.4 1.5-1.4s1.5.4 1.5 1.3c0 1-.5 1.5-1.5 1.5" class="st0"/><path id="XMLID_50_" d="M209.1 173.4c-.8.6-1.9 1-3.2 1-1.1 0-2.1-.2-2.9-.4-.7-.1-1.1-.3-1.4-.4v-3.3h1l1.1 2.8c.6.1 1 .1 1.5.1 1.1 0 1.7-.2 2.2-.6.4-.4.6-.9.6-1.5 0-1.3-.8-1.8-1.7-2.5l-2.1-1.4c-1.1-.7-1.3-1-1.7-1.4-.6-.7-.9-1.4-.9-2.3 0-2.6 2.2-3.9 4.6-3.9.7 0 1.5.1 2.6.4.5.1 1.1.2 1.4.3v3.3h-1l-1-2.7c-.6-.1-.9-.1-1.3-.1-1.5 0-2.8.5-2.8 2 0 1 .5 1.5 1.8 2.3l2.1 1.4c1.2.8 1.6 1.2 2 1.7.5.6.7 1.4.7 2.3-.1 1.2-.7 2.2-1.6 2.9" class="st0"/><path id="XMLID_49_" d="M218.9 174.2v-.6l1.5-.8v-5.1c0-1.1-.2-1.6-.6-2-.4-.4-.9-.5-1.7-.5-.5 0-1.1 0-1.7.1v7.5l1.5.8v.6H212v-.6l1.8-.8V161l-1.9-.6v-.6l4.4-.9v5.7c.6-.3 1.1-.5 1.6-.7 1.1-.4 1.3-.5 2-.5.8 0 1.7.3 2.2.9.6.7.8 1.3.8 2.7v5.6l1.8.8v.6h-5.8z" class="st0"/><path d="M231.3 169.4c-.6.1-1 .2-1.6.3-1.2.2-1.7.7-1.7 1.7s.7 1.6 1.9 1.6c.4 0 .8 0 1.3-.1h.1v-3.5zm2.9 4.7c-.4.1-1 .3-1.4.3-.7 0-1.1-.3-1.3-1-.1.1-.3.2-1.1.5-.7.4-1.1.5-1.9.5-1.8 0-3-1.1-3-2.7 0-1.3.8-2.2 2.3-2.6.8-.2 1.7-.3 3-.4h.6v-2.4c0-.9-.2-1.2-.6-1.5-.2-.1-.6-.2-1-.2h-.7l-.9 1.9h-1.7v-2.1l1.5-.4c1.1-.3 1.8-.4 2.7-.4 1 0 1.7.2 2.3.5.8.5 1.1 1 1.1 2.1v6.2c0 .1.2.2.5.3l1.3.4v.5c-.5.1-1.7.5-1.7.5m7.7-8.9c-.6 0-1 .1-1.6.2v7.9c.4 0 .7.1 1 .1 1 0 1.7-.3 2.3-.9.8-.7 1.3-1.9 1.3-3.4.1-3.1-1.4-3.9-3-3.9m-.2 9.3c-.5 0-.9 0-1.4-.1v3.3l2.2.8v.6H236v-.6l1.8-.8v-12.1l-1.8-.6v-.6l4.4-.9v1.2c.4-.2.8-.4 1.4-.6 1.1-.4 1.6-.6 2-.6 2.2 0 3.9 2.2 3.9 5 0 3.4-2.5 6-6 6m10-12.8c-1.1 0-1.6-.4-1.6-1.2 0-.8.5-1.2 1.6-1.2s1.6.4 1.6 1.2c0 .8-.5 1.2-1.6 1.2m-3 12.5v-.6l1.8-.8v-7.3l-1.8-.6v-.6l4.4-.9v9.4l1.8.8v.6h-6.2z" class="st0"/><path id="XMLID_42_" d="M262.3 174.2v-.6l1.5-.8v-5.1c0-1.1-.2-1.6-.6-2-.4-.4-.9-.5-1.7-.5-.5 0-1.1 0-1.7.1v7.5l1.5.8v.6h-5.8v-.6l1.8-.8v-7.3l-1.8-.6v-.6l4.4-.9v1.2c.6-.2 1.1-.5 1.6-.7 1.1-.4 1.3-.5 2-.5.8 0 1.7.3 2.2.9.6.7.8 1.3.8 2.7v5.6l1.8.8v.6h-6z" class="st0"/><path d="M274.7 165.1c-.3-.5-.8-.7-1.3-.7-1.1 0-1.8.9-1.8 2.3 0 1.2.4 2.2.9 2.7.3.3.6.4 1 .4 1.2 0 1.8-.8 1.8-2.4 0-.8-.2-1.8-.6-2.3m1.8 9.7c-.3-.2-.5-.2-1.4-.2h-2.9c-.5 0-.6 0-.9-.1-.5.5-.9 1.1-.9 1.6 0 1.1 1.2 1.9 3 1.9 1.9 0 3.5-1 3.5-2.3 0-.4-.1-.7-.4-.9m.1-10c.4.3.7.6.9 1 .2.4.3.9.3 1.4 0 2-1.8 3.4-4.3 3.4-.3 0-.5 0-.9-.1-.4.5-.6.9-.6 1.2 0 .2.1.4.3.5.2.1.5.2 1.1.2h2.8c1.1 0 1.7.1 2.2.6.5.4.7 1 .7 1.7 0 1.2-.7 2.3-1.8 3.1-1 .7-2.5 1.1-4 1.1s-2.7-.3-3.6-.8c-.8-.5-1.3-1.1-1.3-1.7 0-.5.3-1 .9-1.4.5-.3.9-.5 1.5-.8-.6-.4-1-.8-1-1.3 0-.3.2-.7.5-1 .5-.5 1.1-1.1 1.7-1.5-.7-.1-1.2-.3-1.6-.6-.9-.6-1.4-1.5-1.4-2.5 0-2 1.9-3.6 4.3-3.6 1.1 0 1.9.2 2.7.7l3.5-.9v2.2l-2.9-.9z" class="st0"/></g><path id="XMLID_25_" d="M296.4 163.6l-1-2.7h-2.7v11.9l2.3.8v.6h-7.2v-.6l2.2-.8v-11.9h-2.7l-1 2.7h-1v-3.8h12.1v3.8z" class="st0"/><g id="XMLID_118_"><path d="M302 164.6c-1.6 0-2.6 1.5-2.6 4.2 0 1.8.5 4.6 2.7 4.6 2.1 0 2.6-2.4 2.6-4.2 0-1.7-.4-4.6-2.7-4.6m0 10c-3.2 0-5.3-2.1-5.3-5.3 0-3.4 2.2-5.7 5.5-5.7 3.1 0 5.2 2.1 5.2 5.3 0 3.3-2.2 5.7-5.4 5.7" class="st0"/><path id="XMLID_9_" d="M321.7 174.2v-.6l1.4-.8v-5.2c0-.8-.2-1.4-.5-1.8-.4-.4-1-.7-1.8-.7-.7 0-1.2.1-1.9.2.2.6.3 1.2.3 1.9v5.6l1.4.8v.6h-5.4v-.6l1.4-.8v-5.2c0-1.8-.6-2.5-2.3-2.5-.5 0-.8 0-1.5.1v7.6l1.4.8v.6h-5.8v-.6l1.8-.8v-7.3l-1.8-.6v-.6l4.4-.9v1.2l1.9-.7c.6-.3 1.1-.4 1.7-.4 1 0 1.7.3 2.3 1.2.7-.3 1.3-.5 2.1-.8.9-.3 1.2-.4 1.9-.4.9 0 1.7.3 2.3.9.6.7.8 1.4.8 2.7v5.7l1.8.8v.6h-5.9z" class="st0"/><path d="M333.5 164.6c-1.6 0-2.6 1.5-2.6 4.2 0 1.8.5 4.6 2.7 4.6 2.1 0 2.6-2.4 2.6-4.2 0-1.7-.4-4.6-2.7-4.6m0 10c-3.2 0-5.3-2.1-5.3-5.3 0-3.4 2.2-5.7 5.5-5.7 3.1 0 5.2 2.1 5.2 5.3 0 3.3-2.2 5.7-5.4 5.7" class="st0"/><path id="XMLID_6_" d="M346.7 166.6l-.6-1.4h-.4c-.6 0-1 .1-1.5.3v7.4l2.2.8v.6h-6.6v-.6l1.8-.8v-7.3l-1.8-.5v-.6l4.4-.9v1.2c1.5-.8 2.3-1.2 3-1.2.5 0 .8.1 1.3.4v2.6h-1.8z" class="st0"/><path id="XMLID_5_" d="M355.7 166.6l-.6-1.4h-.4c-.6 0-1 .1-1.5.3v7.4l2.2.8v.6h-6.6v-.6l1.8-.8v-7.3l-1.8-.5v-.6l4.4-.9v1.2c1.5-.8 2.3-1.2 3-1.2.5 0 .8.1 1.3.4v2.6h-1.8z" class="st0"/><path d="M363.4 164.6c-1.6 0-2.6 1.5-2.6 4.2 0 1.8.5 4.6 2.7 4.6 2.1 0 2.6-2.4 2.6-4.2 0-1.7-.4-4.6-2.7-4.6m0 10c-3.2 0-5.3-2.1-5.3-5.3 0-3.4 2.2-5.7 5.5-5.7 3.1 0 5.3 2.1 5.3 5.3 0 3.3-2.3 5.7-5.5 5.7" class="st0"/><path id="XMLID_2_" d="M384.5 165.2l-3.7 9.3h-1.2l-2.3-7.1-2.6 7.1h-1.2l-3.5-9.4-1.3-.7v-.6h5.4v.6l-1.5.7 1.5 4.4c.2.5.3.9.5 1.6l2.6-7.3h1.1l2 5.8c.2.5.2.8.5 1.6l2.2-6-1.5-.8v-.6h4.2v.6l-1.2.8z" class="st0"/><path id="XMLID_1_" d="M387.1 174.5c-1.1 0-1.5-.4-1.5-1.4 0-.9.5-1.4 1.5-1.4s1.5.4 1.5 1.3c0 1-.5 1.5-1.5 1.5" class="st0"/></g></svg>