<?xml version="1.0" encoding="UTF-8"?>
<svg id="Layer_2" data-name="Layer 2" xmlns="http://www.w3.org/2000/svg" viewBox="0 0 1249.94 268">
  <defs>
    <style>
      .cls-1 {
        fill: #191919;
      }
    </style>
  </defs>
  <g id="Layer_1-2" data-name="Layer 1">
    <g>
      <path class="cls-1" d="M334.03,110.11c-8.33-5.6-30.2-8-46.1-3.71-.86-15.84-9.03-29.19-23.97-40.83l-5.53-3.71-3.69,5.57c-7.24,11-10.3,25.65-9.22,38.98.85,8.21,3.71,17.44,9.22,24.13-20.7,12.01-39.78,9.28-124.27,9.28H.03c-.38,19.08,2.69,55.78,26.02,85.65,2.58,3.3,5.4,6.49,8.47,9.57,18.98,19,47.64,32.93,90.51,32.97,65.4.06,121.43-35.29,155.52-120.77,11.22.18,40.82,2.01,55.31-25.99.35-.47,3.69-7.42,3.69-7.42l-5.52-3.71ZM85.16,92.67h-36.68v36.68h36.68v-36.68ZM132.55,92.67h-36.68v36.68h36.68v-36.68ZM179.94,92.67h-36.68v36.68h36.68v-36.68ZM227.33,92.67h-36.68v36.68h36.68v-36.68ZM37.77,92.67H1.09v36.68h36.68v-36.68ZM85.16,46.33h-36.68v36.68h36.68v-36.68ZM132.55,46.33h-36.68v36.68h36.68v-36.68ZM179.94,46.33h-36.68v36.68h36.68v-36.68ZM179.94,0h-36.68v36.68h36.68V0Z"/>
      <g>
        <path class="cls-1" d="M449.06,230.11c-33.25,0-60.16-25.89-60.16-68.54s27.16-68.28,60.42-68.28c27.67,0,40.62,16.75,42.9,20.82V40.49h41.12v186.83h-40.62v-19.29c-2.54,4.32-15.74,22.08-43.66,22.08ZM461.75,128.32c-19.04,0-31.22,14.22-31.22,33.25s12.18,33.25,31.22,33.25,30.97-13.96,30.97-33.25-12.18-33.25-30.97-33.25Z"/>
        <path class="cls-1" d="M692.5,161.57c0,40.62-30.97,69.05-72.09,69.05s-72.09-28.43-72.09-69.05,30.72-69.05,72.09-69.05,72.09,28.18,72.09,69.05ZM651.12,161.57c0-18.78-12.18-33.25-30.72-33.25s-30.97,14.47-30.97,33.25,12.44,33.25,30.97,33.25,30.72-14.47,30.72-33.25Z"/>
        <path class="cls-1" d="M769.16,128.32c-17.01,0-28.18,14.47-28.18,33.25s11.17,33.51,28.43,33.51,23.35-10.41,24.88-13.45h39.6c-1.52,18.28-19.04,48.99-65.49,48.99-38.84,0-68.79-27.16-68.79-69.05s29.95-69.05,68.28-69.05c46.45,0,63.97,30.21,66,49.25h-40.11c-2.03-3.55-8.63-13.45-24.62-13.45Z"/>
        <path class="cls-1" d="M847.34,40.49h41.12v106.87l52.55-51.53h51.78l-62.95,60.67,66.25,70.82h-53.56l-54.07-58.64v58.64h-41.12V40.49Z"/>
        <path class="cls-1" d="M1126.57,162.34v7.11h-100.01c2.03,16.5,14.47,28.94,32.49,28.94,15.99,0,23.61-7.36,25.38-10.15h40.87c-2.03,15.74-20.82,42.39-66.25,42.39s-73.11-28.94-73.11-69.05,28.94-69.05,70.32-69.05,70.31,26.91,70.31,69.81ZM1027.32,144.31h57.88c-3.55-13.71-14.21-21.83-28.94-21.83s-25.38,8.38-28.94,21.83Z"/>
        <path class="cls-1" d="M1181.91,227.32h-41.12V95.83h41.12v20.56c2.79-6.09,12.44-20.82,39.85-20.82h28.18v40.62h-36.05c-23.1,0-31.99,8.63-31.99,26.91v64.22Z"/>
      </g>
    </g>
  </g>
</svg>