<svg xmlns="http://www.w3.org/2000/svg" role="img" viewBox="-23.98 -23.98 1246.96 180.96"><defs><style>.cls-1{fill:#40a3c2}</style></defs><g id="Layer_1"><g id="Logo"><path d="M1172.9 8.3h27.1v122.8h-27.1V8.3z" class="cls-1"/><path d="M1100.3 8.3h22.4l53.4 122.8h-30.5l-10.6-26h-47.7l-10.2 26h-29.8l53.1-122.8zm10.4 35.8l-14.9 38.2h30l-15.1-38.2z" class="cls-1"/><path fill="#112641" d="M1036.8 116.6c-4.2 5.3-9.4 9.4-15.8 12.3-6.4 2.9-13 4.3-19.8 4.3s-12.6-1-18.4-3.1c-5.7-2.1-10.6-5-14.9-8.8-4.2-3.9-7.5-8.6-9.9-14.1-2.4-5.4-3.6-11.5-3.6-18.2s1.2-12.8 3.6-18.2c2.4-5.4 5.7-10.1 9.9-13.9 4.3-3.9 9.2-6.9 14.9-9 5.8-2.1 11.9-3.1 18.4-3.1s11.4 1 16.3 3.1c5 2.1 9.1 5.1 12.5 9 3.5 3.8 6.1 8.4 8 13.9 1.8 5.4 2.8 11.5 2.8 18.2v8.2h-60.4c1 5 3.3 9 6.8 12 3.5 2.9 7.8 4.3 12.8 4.3s7.9-.9 10.8-2.8c3-2 5.6-4.5 7.8-7.5l18.2 13.4zm-22.1-37.2c.1-4.4-1.3-8.2-4.3-11.3-3-3.1-6.9-4.7-11.6-4.7s-5.4.5-7.6 1.4c-2.2.9-4.1 2.1-5.7 3.6-1.5 1.4-2.7 3.1-3.6 5-.8 1.9-1.3 3.8-1.4 5.9h34.3zM912.3 0h26v131.1h-26V0zM805.1 0h26v55.9h.3c3-4 6.8-6.9 11.5-8.5 4.7-1.7 9.8-2.6 15.3-2.6s11.4 1.3 16.1 3.8c4.7 2.4 8.7 5.7 12 9.9 3.4 4.2 5.9 9 7.6 14.4 1.9 5.3 2.8 10.9 2.8 16.8s-1 12.2-2.9 17.5c-2 5.3-4.8 9.9-8.5 13.9-3.6 3.8-7.9 6.8-13 9-5.1 2.1-10.8 3.1-17 3.1s-5.8-.4-8.5-1.2c-2.7-.8-5.1-1.9-7.5-3.1-2.2-1.3-4.2-2.7-5.9-4.2-1.6-1.6-2.9-3.2-4-4.7h-.3v11.1h-23.9V0zM829 89c0 6.4 1.8 11.5 5.4 15.4 3.7 3.9 8.8 5.9 15.4 5.9s11.7-2 15.3-5.9c3.7-3.9 5.6-9.1 5.6-15.4s-1.8-11.5-5.6-15.4c-3.6-3.9-8.7-5.9-15.3-5.9s-11.7 2-15.4 5.9c-3.6 3.9-5.4 9.1-5.4 15.4zm-66.6 31.6h-.4c-2.9 4.5-6.8 7.7-11.6 9.7-4.7 2-9.8 2.9-15.1 2.9s-7.7-.6-11.4-1.7c-3.6-1-6.8-2.7-9.5-4.9-2.8-2.2-5-4.9-6.6-8.2-1.6-3.2-2.4-7-2.4-11.3s.9-9 2.6-12.3c1.9-3.4 4.3-6.1 7.3-8.3 3.1-2.2 6.6-3.9 10.6-5 3.9-1.3 8-2.2 12.1-2.8 4.3-.6 8.5-.9 12.7-1 4.3-.1 8.2-.2 11.8-.2 0-4.6-1.7-8.3-5-10.9-3.2-2.8-7.1-4.2-11.6-4.2s-8.2.9-11.8 2.8c-3.5 1.7-6.6 4.2-9.4 7.3l-13.9-14.2c4.9-4.5 10.5-7.9 17-10.1 6.5-2.3 13.2-3.5 20.1-3.5s13.9 1 18.7 2.9c5 1.9 8.9 4.6 11.8 8.3 3 3.7 5.1 8.3 6.2 13.7 1.2 5.3 1.7 11.5 1.7 18.6V131h-23.9v-10.6zM756 94.2c-2 0-4.5.1-7.5.3-2.9.1-5.7.6-8.5 1.4-2.7.8-5 2-6.9 3.6-1.8 1.6-2.8 3.9-2.8 6.8s1.3 5.4 4 6.9 5.4 2.3 8.3 2.3 5-.3 7.3-1c2.4-.7 4.6-1.7 6.4-2.9 1.9-1.3 3.3-2.9 4.3-4.9 1.2-2 1.7-4.3 1.7-6.9v-5.6h-6.4zm-66.3 22.4c-4.2 5.3-9.4 9.4-15.8 12.3-6.4 2.9-13 4.3-19.8 4.3s-12.6-1-18.4-3.1c-5.7-2.1-10.6-5-14.9-8.8-4.2-3.9-7.5-8.6-9.9-14.1-2.4-5.4-3.6-11.5-3.6-18.2s1.2-12.8 3.6-18.2c2.4-5.4 5.7-10.1 9.9-13.9 4.3-3.9 9.2-6.9 14.9-9 5.8-2.1 11.9-3.1 18.4-3.1s11.5 1 16.3 3.1c5 2.1 9.1 5.1 12.5 9 3.5 3.8 6.1 8.4 8 13.9 1.8 5.4 2.8 11.5 2.8 18.2v8.2h-60.4c1 5 3.3 9 6.8 12 3.5 2.9 7.8 4.3 12.8 4.3s7.9-.9 10.8-2.8c3-2 5.6-4.5 7.8-7.5l18.2 13.4zm-22-37.2c.1-4.4-1.3-8.2-4.3-11.3-3-3.1-6.9-4.7-11.6-4.7s-5.4.5-7.6 1.4c-2.2.9-4.1 2.1-5.7 3.6-1.5 1.4-2.7 3.1-3.6 5-.8 1.9-1.3 3.8-1.4 5.9h34.3zm-84.4-5.3c-1.3-1.9-3.1-3.4-5.4-4.5-2.3-1.3-4.8-1.9-7.5-1.9-6.6 0-11.7 2-15.4 5.9-3.6 3.9-5.4 9.1-5.4 15.4s1.8 11.5 5.4 15.4c3.7 3.9 8.8 5.9 15.4 5.9s5.4-.6 7.5-1.9c2.1-1.3 3.9-2.8 5.4-4.5l17.2 18c-4 4.2-8.8 7.1-14.4 8.8-5.4 1.6-10.6 2.4-15.6 2.4s-12.6-1-18.4-3.1c-5.7-2.1-10.6-5-14.9-8.8-4.2-3.9-7.5-8.6-9.9-14.1-2.4-5.4-3.6-11.5-3.6-18.2s1.2-12.8 3.6-18.2c2.4-5.4 5.7-10.1 9.9-13.9 4.3-3.9 9.3-6.9 14.9-9 5.8-2.1 11.9-3.1 18.4-3.1s10.2.9 15.6 2.6c5.6 1.6 10.3 4.5 14.4 8.7l-17.2 18zm-97.4 46.5h-.3c-2.9 4.5-6.8 7.7-11.6 9.7-4.7 2-9.8 2.9-15.1 2.9s-7.7-.6-11.4-1.7c-3.6-1-6.8-2.7-9.5-4.9-2.8-2.2-5-4.9-6.6-8.2-1.6-3.2-2.4-7-2.4-11.3s.9-9 2.6-12.3c1.9-3.4 4.3-6.1 7.3-8.3 3.1-2.2 6.6-3.9 10.6-5 3.9-1.3 8-2.2 12.1-2.8 4.3-.6 8.5-.9 12.7-1 4.3-.1 8.2-.2 11.8-.2 0-4.6-1.7-8.3-5-10.9-3.2-2.8-7.1-4.2-11.6-4.2s-8.2.9-11.8 2.8c-3.5 1.7-6.6 4.2-9.4 7.3l-13.9-14.2c4.9-4.5 10.5-7.9 17-10.1 6.5-2.3 13.2-3.5 20.1-3.5s13.9 1 18.7 2.9c5 1.9 8.9 4.6 11.8 8.3 3 3.7 5.1 8.3 6.2 13.7 1.2 5.3 1.7 11.5 1.7 18.6V131H486v-10.6zm-6.4-26.4c-2 0-4.5.1-7.5.3-2.9.1-5.7.6-8.5 1.4-2.7.8-5 2-6.9 3.6-1.9 1.6-2.8 3.9-2.8 6.8s1.3 5.4 4 6.9 5.4 2.3 8.3 2.3 5-.3 7.3-1c2.4-.7 4.6-1.7 6.4-2.9 1.9-1.3 3.3-2.9 4.3-4.9 1.2-2 1.7-4.3 1.7-6.9v-5.6h-6.4zM362.4 46.8h26v13.5h.3c2.8-5.2 6.1-9.1 9.9-11.6 3.8-2.7 8.6-4 14.4-4s3 0 4.5.2c1.5.1 2.9.3 4.2.7v23.8c-1.9-.6-3.7-1-5.6-1.2-1.7-.3-3.6-.5-5.6-.5-5 0-8.9.7-11.8 2.1-2.9 1.4-5.1 3.4-6.8 5.9-1.5 2.4-2.5 5.4-2.9 8.8-.5 3.5-.7 7.3-.7 11.4v35.2h-26V46.8zM255.6 0h26v55.9h.3c3-4 6.8-6.9 11.4-8.5 4.7-1.7 9.8-2.6 15.3-2.6s11.4 1.3 16.1 3.8c4.7 2.4 8.7 5.7 12 9.9 3.4 4.2 5.9 9 7.6 14.4 1.9 5.3 2.8 10.9 2.8 16.8s-1 12.2-2.9 17.5c-2 5.3-4.8 9.9-8.5 13.9-3.6 3.8-7.9 6.8-13 9-5.1 2.1-10.8 3.1-17 3.1s-5.8-.4-8.5-1.2c-2.7-.8-5.1-1.9-7.5-3.1-2.2-1.3-4.2-2.7-5.9-4.2-1.6-1.6-2.9-3.2-4-4.7h-.3v11.1h-23.9V0zm23.9 89c0 6.4 1.8 11.5 5.4 15.4 3.7 3.9 8.8 5.9 15.4 5.9s11.7-2 15.3-5.9c3.7-3.9 5.6-9.1 5.6-15.4s-1.9-11.5-5.6-15.4c-3.6-3.9-8.7-5.9-15.3-5.9s-11.7 2-15.4 5.9c-3.6 3.9-5.4 9.1-5.4 15.4zM102.2 46.8h25v11.4h.3c.8-1.6 2-3.2 3.5-4.9 1.5-1.6 3.3-3.1 5.4-4.3 2.1-1.3 4.5-2.3 7.1-3.1 2.7-.8 5.6-1.2 8.7-1.2 5.9 0 11.1 1.2 15.6 3.6 4.6 2.4 8.1 6.2 10.4 11.4 3-5.4 6.6-9.3 10.9-11.6 4.3-2.3 9.5-3.5 15.8-3.5s10.4 1 14.2 2.9c3.9 1.9 7 4.5 9.2 7.8 2.3 3.2 3.9 7.1 4.9 11.6 1 4.4 1.6 9.1 1.6 14.2v49.8h-26V81.8c0-3.9-.9-7.3-2.6-10.1-1.6-2.9-4.6-4.3-8.8-4.3s-5.6.5-7.6 1.6c-2 .9-3.6 2.3-4.9 4-1.2 1.7-2 3.8-2.6 6.1-.5 2.3-.7 4.7-.7 7.3V131h-26V86.4c0-1.5 0-3.4-.2-5.6s-.5-4.3-1.2-6.2c-.7-2-1.9-3.6-3.5-5-1.5-1.4-3.8-2.1-6.8-2.1s-6.1.6-8.2 1.9c-2.1 1.2-3.7 2.8-4.9 4.9-1 2-1.7 4.2-2.1 6.8-.3 2.5-.5 5.2-.5 8v42h-26V46.8zm-19.8 69.8c-4.2 5.3-9.4 9.4-15.8 12.3-6.4 2.9-13 4.3-19.8 4.3s-12.6-1-18.4-3.1c-5.7-2.1-10.6-5-14.9-8.8-4.2-3.9-7.5-8.6-9.9-14.1C1.2 101.8 0 95.7 0 89s1.2-12.8 3.6-18.2c2.4-5.4 5.7-10.1 9.9-13.9 4.3-3.9 9.3-6.9 14.9-9 5.8-2.1 11.9-3.1 18.4-3.1s11.4 1 16.3 3.1c5 2.1 9.1 5.1 12.5 9 3.5 3.8 6.1 8.4 8 13.9 1.9 5.4 2.8 11.5 2.8 18.2v8.2H26c1 5 3.3 9 6.8 12 3.5 2.9 7.7 4.3 12.8 4.3s7.9-.9 10.8-2.8c3-2 5.6-4.5 7.8-7.5l18.2 13.4zm-22-37.2c.1-4.4-1.3-8.2-4.3-11.3-3-3.1-6.9-4.7-11.6-4.7s-5.4.5-7.6 1.4c-2.2.9-4.1 2.1-5.7 3.6-1.5 1.4-2.7 3.1-3.6 5-.8 1.9-1.3 3.8-1.4 5.9h34.3z"/></g></g></svg>