<?xml version="1.0" encoding="UTF-8"?>
<!-- Created with Inkscape (http://www.inkscape.org/) -->
<svg width="23.487mm" height="2.4603mm" version="1.1" viewBox="0 0 23.487 2.4603" xmlns="http://www.w3.org/2000/svg">
 <g transform="translate(-35.442 -109.46)">
  <g stroke-width=".26458" aria-label="embraceableAI">
   <path d="m36.57 110.9q0-0.12382-0.07937-0.21272-0.0762-0.0889-0.23178-0.0889-0.0762 0-0.1397 0.0254-0.0635 0.0222-0.11112 0.0635-0.04763 0.0413-0.0762 0.0984-0.02858 0.054-0.03175 0.1143zm0.47942 0.20003q0 0.0318 0 0.0635 0 0.0318-0.0032 0.0603h-1.1462q0.0063 0.0667 0.0381 0.12065 0.03493 0.054 0.08572 0.0952 0.05398 0.0381 0.11748 0.0603 0.06668 0.0222 0.13652 0.0222 0.12382 0 0.20955-0.0444 0.08572-0.0476 0.1397-0.12065l0.36195 0.2286q-0.11112 0.16193-0.29528 0.25083-0.18098 0.0857-0.42228 0.0857-0.1778 0-0.33655-0.054-0.15875-0.0571-0.2794-0.16193-0.11748-0.10795-0.18732-0.26352-0.06667-0.15558-0.06667-0.3556 0-0.19368 0.06667-0.34925 0.06668-0.15875 0.18098-0.2667 0.1143-0.11113 0.26988-0.17145 0.15558-0.0603 0.33655-0.0603 0.17462 0 0.32068 0.0603 0.14605 0.0572 0.25082 0.16827 0.10478 0.11113 0.16192 0.26988 0.06032 0.15875 0.06032 0.36195zm2.3432 0.77152v-0.8636q0-0.0667-0.0095-0.127-0.0095-0.0635-0.03493-0.10795-0.0254-0.0444-0.06985-0.0699-0.04128-0.0286-0.11112-0.0286-0.06668 0-0.11748 0.0286-0.04763 0.0286-0.08255 0.0762-0.03175 0.0476-0.04762 0.11113-0.01588 0.0603-0.01588 0.127v0.85407h-0.5207v-0.9017q0-0.13652-0.05398-0.2159-0.05398-0.0794-0.17145-0.0794-0.12382 0-0.19368 0.0984-0.06668 0.0984-0.06668 0.2413v0.85725h-0.52388v-1.5812h0.50482v0.21908h0.0064q0.02857-0.0508 0.06985-0.0984 0.04445-0.0476 0.10478-0.0825 0.06032-0.0381 0.13335-0.0603 0.0762-0.0222 0.1651-0.0222 0.17145 0 0.28892 0.0699 0.12065 0.0699 0.18732 0.20003 0.07937-0.12383 0.2032-0.19685 0.12382-0.073 0.30162-0.073 0.16192 0 0.26988 0.0603 0.11112 0.0572 0.1778 0.1524 0.06668 0.0921 0.09525 0.20955 0.03175 0.1143 0.03175 0.22542v0.9779zm2.6765-0.79692q0 0.1651-0.0508 0.3175t-0.14922 0.26987q-0.09525 0.1143-0.23495 0.18415-0.1397 0.0699-0.3175 0.0699-0.15875 0-0.30162-0.0635-0.1397-0.0667-0.2159-0.18732h-0.0063v0.20637h-0.47942v-2.4003h0.5207v0.98743h0.0063q0.06668-0.0794 0.18732-0.14605 0.12065-0.0667 0.29528-0.0667 0.17145 0 0.30798 0.0667 0.1397 0.0667 0.23495 0.18097 0.09842 0.1143 0.14922 0.2667 0.05398 0.14923 0.05398 0.31433zm-0.50165 0q0-0.0762-0.0254-0.14923-0.02222-0.073-0.06985-0.127-0.04762-0.0571-0.11748-0.0921-0.06985-0.0349-0.16192-0.0349-0.0889 0-0.15875 0.0349t-0.12065 0.0921q-0.04763 0.0572-0.0762 0.13018-0.0254 0.073-0.0254 0.14922 0 0.0762 0.0254 0.14923 0.02857 0.073 0.0762 0.13017 0.0508 0.0572 0.12065 0.0921t0.15875 0.0349q0.09207 0 0.16192-0.0349 0.06985-0.0349 0.11748-0.0921 0.04763-0.0571 0.06985-0.13017 0.0254-0.0762 0.0254-0.1524zm1.8574-0.35878q-0.03493-0.01-0.06985-0.0127-0.03175-3e-3 -0.0635-3e-3 -0.10478 0-0.1778 0.0381-0.06985 0.0381-0.1143 0.0921-0.04127 0.054-0.06032 0.11748-0.01905 0.0635-0.01905 0.11112v0.8128h-0.5207v-1.5812h0.50165v0.2286h0.0063q0.06032-0.12065 0.17145-0.19685 0.11112-0.0762 0.25718-0.0762 0.03175 0 0.06032 3e-3 0.03175 3e-3 0.0508 0.01zm1.1144 0.46673h-0.06667q-0.08573 0-0.17462 0.01-0.08573 6e-3 -0.15558 0.0286-0.06667 0.0222-0.11112 0.0667-0.04445 0.0413-0.04445 0.11113 0 0.0444 0.01905 0.0762 0.02222 0.0318 0.05398 0.0508 0.03175 0.0191 0.07303 0.0286 0.04127 6e-3 0.07937 6e-3 0.15875 0 0.2413-0.0857 0.08572-0.0889 0.08572-0.23813zm-0.95568-0.67628q0.1397-0.13335 0.32385-0.20002 0.18732-0.0667 0.381-0.0667 0.20002 0 0.33655 0.0508 0.1397 0.0476 0.22542 0.1524 0.08572 0.1016 0.12382 0.26035 0.04127 0.15558 0.04127 0.37148v0.79692h-0.47625v-0.16827h-0.0095q-0.06032 0.0984-0.18415 0.1524-0.12065 0.054-0.26352 0.054-0.09525 0-0.19685-0.0254t-0.18732-0.0825q-0.08255-0.0572-0.13652-0.1524-0.05398-0.0953-0.05398-0.23495 0-0.17145 0.09208-0.27622 0.09525-0.10478 0.2413-0.16193 0.14922-0.0571 0.3302-0.0762 0.18098-0.019 0.35242-0.019v-0.0254q0-0.11747-0.08255-0.17145-0.08255-0.0571-0.2032-0.0571-0.11112 0-0.2159 0.0476-0.1016 0.0476-0.17462 0.1143zm2.9083 0.29528q-0.04445-0.0571-0.12065-0.0921-0.0762-0.0349-0.15558-0.0349-0.08255 0-0.14922 0.0349-0.06668 0.0318-0.1143 0.0889-0.04763 0.054-0.0762 0.127-0.0254 0.073-0.0254 0.15558 0 0.0825 0.0254 0.15557 0.0254 0.073 0.07303 0.13018 0.0508 0.054 0.11748 0.0857 0.06985 0.0317 0.15558 0.0317 0.07937 0 0.15558-0.0286 0.07937-0.0317 0.127-0.0889l0.28892 0.35242q-0.09842 0.0952-0.254 0.14923-0.15558 0.054-0.3302 0.054-0.18732 0-0.34925-0.0572-0.16192-0.0571-0.28258-0.1651-0.11748-0.11112-0.18732-0.2667-0.06667-0.15557-0.06667-0.35242 0-0.19368 0.06667-0.34925 0.06985-0.15558 0.18732-0.26353 0.12065-0.11112 0.28258-0.16827 0.16192-0.0603 0.34608-0.0603 0.08572 0 0.16828 0.0159 0.08572 0.0159 0.16192 0.0444 0.07937 0.0254 0.14288 0.0667 0.06667 0.0381 0.1143 0.0857zm1.597 0.0984q0-0.12382-0.07937-0.21272-0.0762-0.0889-0.23178-0.0889-0.0762 0-0.1397 0.0254-0.0635 0.0222-0.11112 0.0635-0.04763 0.0413-0.0762 0.0984-0.02858 0.054-0.03175 0.1143zm0.47942 0.20003q0 0.0318 0 0.0635 0 0.0318-0.0032 0.0603h-1.1462q0.0063 0.0667 0.0381 0.12065 0.03493 0.054 0.08572 0.0952 0.05398 0.0381 0.11748 0.0603 0.06667 0.0222 0.13652 0.0222 0.12382 0 0.20955-0.0444 0.08572-0.0476 0.1397-0.12065l0.36195 0.2286q-0.11112 0.16193-0.29528 0.25083-0.18098 0.0857-0.42228 0.0857-0.1778 0-0.33655-0.054-0.15875-0.0571-0.2794-0.16193-0.11748-0.10795-0.18732-0.26352-0.06667-0.15558-0.06667-0.3556 0-0.19368 0.06667-0.34925 0.06668-0.15875 0.18098-0.2667 0.1143-0.11113 0.26988-0.17145 0.15558-0.0603 0.33655-0.0603 0.17462 0 0.32068 0.0603 0.14605 0.0572 0.25082 0.16827 0.10478 0.11113 0.16192 0.26988 0.06032 0.15875 0.06032 0.36195zm1.2382 0.0825h-0.06667q-0.08573 0-0.17462 0.01-0.08572 6e-3 -0.15558 0.0286-0.06667 0.0222-0.11112 0.0667-0.04445 0.0413-0.04445 0.11113 0 0.0444 0.01905 0.0762 0.02222 0.0318 0.05398 0.0508 0.03175 0.0191 0.07303 0.0286 0.04127 6e-3 0.07937 6e-3 0.15875 0 0.2413-0.0857 0.08572-0.0889 0.08572-0.23813zm-0.95568-0.67628q0.1397-0.13335 0.32385-0.20002 0.18732-0.0667 0.381-0.0667 0.20002 0 0.33655 0.0508 0.1397 0.0476 0.22542 0.1524 0.08573 0.1016 0.12382 0.26035 0.04127 0.15558 0.04127 0.37148v0.79692h-0.47625v-0.16827h-0.0095q-0.06033 0.0984-0.18415 0.1524-0.12065 0.054-0.26352 0.054-0.09525 0-0.19685-0.0254t-0.18732-0.0825q-0.08255-0.0572-0.13652-0.1524-0.05398-0.0953-0.05398-0.23495 0-0.17145 0.09208-0.27622 0.09525-0.10478 0.2413-0.16193 0.14922-0.0571 0.3302-0.0762 0.18098-0.019 0.35242-0.019v-0.0254q0-0.11747-0.08255-0.17145-0.08255-0.0571-0.2032-0.0571-0.11112 0-0.2159 0.0476-0.1016 0.0476-0.17462 0.1143zm3.5814 0.56833q0 0.1651-0.0508 0.3175t-0.14922 0.26987q-0.09525 0.1143-0.23495 0.18415-0.1397 0.0699-0.3175 0.0699-0.15875 0-0.30162-0.0635-0.1397-0.0667-0.2159-0.18732h-0.0063v0.20637h-0.47942v-2.4003h0.5207v0.98743h0.0063q0.06668-0.0794 0.18732-0.14605 0.12065-0.0667 0.29528-0.0667 0.17145 0 0.30798 0.0667 0.1397 0.0667 0.23495 0.18097 0.09842 0.1143 0.14922 0.2667 0.05398 0.14923 0.05398 0.31433zm-0.50165 0q0-0.0762-0.0254-0.14923-0.02222-0.073-0.06985-0.127-0.04762-0.0571-0.11748-0.0921-0.06985-0.0349-0.16192-0.0349-0.0889 0-0.15875 0.0349t-0.12065 0.0921q-0.04762 0.0572-0.0762 0.13018-0.0254 0.073-0.0254 0.14922 0 0.0762 0.0254 0.14923 0.02858 0.073 0.0762 0.13017 0.0508 0.0572 0.12065 0.0921t0.15875 0.0349q0.09208 0 0.16192-0.0349 0.06985-0.0349 0.11748-0.0921 0.04763-0.0571 0.06985-0.13017 0.0254-0.0762 0.0254-0.1524zm0.8382 0.79692v-2.4003h0.52705v2.4003zm2.0288-0.97155q0-0.12382-0.07937-0.21272-0.0762-0.0889-0.23178-0.0889-0.0762 0-0.1397 0.0254-0.0635 0.0222-0.11112 0.0635-0.04763 0.0413-0.0762 0.0984-0.02858 0.054-0.03175 0.1143zm0.47942 0.20003q0 0.0318 0 0.0635 0 0.0318-0.0032 0.0603h-1.1462q0.0064 0.0667 0.0381 0.12065 0.03493 0.054 0.08573 0.0952 0.05398 0.0381 0.11748 0.0603 0.06667 0.0222 0.13652 0.0222 0.12382 0 0.20955-0.0444 0.08572-0.0476 0.1397-0.12065l0.36195 0.2286q-0.11112 0.16193-0.29528 0.25083-0.18098 0.0857-0.42228 0.0857-0.1778 0-0.33655-0.054-0.15875-0.0571-0.2794-0.16193-0.11748-0.10795-0.18732-0.26352-0.06668-0.15558-0.06668-0.3556 0-0.19368 0.06668-0.34925 0.06667-0.15875 0.18098-0.2667 0.1143-0.11113 0.26988-0.17145 0.15558-0.0603 0.33655-0.0603 0.17462 0 0.32068 0.0603 0.14605 0.0572 0.25082 0.16827 0.10478 0.11113 0.16192 0.26988 0.06032 0.15875 0.06032 0.36195z"/>
   <path d="m57.154 111.87-0.17462-0.44132h-0.86995l-0.1651 0.44132h-0.59055l0.94298-2.2479h0.52705l0.93345 2.2479zm-0.60325-1.6478-0.28575 0.77152h0.56515zm1.3938 1.6478v-2.2479h0.5461v2.2479z" fill="#ffb400"/>
  </g>
 </g>
</svg>
