<svg xmlns="http://www.w3.org/2000/svg" viewBox="0 0 275.64 110.46"><defs><style>.a{fill:#005652;}.b{fill:#00f078;}</style></defs><polygon class="a" points="63.33 76.05 59.31 76.05 59.31 110.46 85.83 110.46 85.83 106.79 63.33 106.79 63.33 76.05"/><path class="a" d="M112.47,76.05,94.64,110.46H99l5.13-9.9H125l5.12,9.9h4.52L116.74,76.05ZM105.74,97.2l8.64-16.83h.2l8.69,16.83Z"/><path class="a" d="M170.09,93v-.2c4-1.31,5.62-4.07,5.62-7.79a7.55,7.55,0,0,0-3.31-6.78c-3.22-2-7.49-2.16-14.27-2.16H146v34.41h13.81c7,0,11.65-.15,14.82-2.76a7.82,7.82,0,0,0,2.91-6.48C177.57,96.09,174.56,93.83,170.09,93Zm-20-13.56h9.49c7.28,0,12.15.5,12.15,6,0,5-3.81,6.22-12.15,6.22h-9.49Zm11.35,27.67H150.05V95H161.4c7,0,12.1.45,12.1,6C173.5,106.09,169.89,107.09,161.4,107.09Z"/><path class="a" d="M205.07,91.37a60.22,60.22,0,0,1-7.83-1.64c-2.85-.87-3.67-2.42-3.67-4.89,0-2.17.72-3.91,3.67-4.83a25,25,0,0,1,6.38-.67c3,0,6.76.24,10.63.62V76.48c-3.82-.29-7.25-.48-10.58-.48-2.81,0-6.38.24-9,1.45-3.77,1.69-4.79,4.83-4.79,7.83,0,5.94,3.72,7.88,10.83,9.09a75.39,75.39,0,0,1,8.12,1.69c2.9.92,3.77,2.56,3.77,5.07,0,2.27-.73,4.25-3.72,5.12a25.66,25.66,0,0,1-7,.73c-3.38,0-7.59-.24-11.94-.63V110c4.35.29,8.22.48,12,.48,3.18,0,6.71-.24,9.37-1.5,3.92-1.79,5-5,5-8.12C216.33,94.61,212.41,92.53,205.07,91.37Z"/><polygon class="a" points="17.85 29.76 33.66 29.76 33.66 17.9 17.85 17.9 17.85 12.01 42.09 12.01 42.09 0 3.68 0 3.68 29.77 17.85 29.77 17.85 29.76"/><rect class="a" x="17.89" y="36.32" width="24.2" height="12.01"/><path class="a" d="M70.28,23.64a26.15,26.15,0,0,0,2.16,3.65l15.37,21h12.3V0H85.94V25.06a26,26,0,0,0-2.16-3.66L68.42,0H56.11V48.33H70.28Z"/><path class="a" d="M195.43,0c-15,0-25,10.72-25,24s10,24.18,25,24.18,25-10.73,25-24.18S210.4,0,195.43,0Zm0,35.84c-6.26,0-10.73-4.89-10.73-11.8s4.83-11.66,10.73-11.66c6.33,0,10.79,4.89,10.79,11.66S201.76,35.84,195.43,35.84Z"/><path class="a" d="M266.61,33.93a18,18,0,0,0,7.61-14.84C274.22,8.58,266.61,0,251.77,0H230.44V12.05h14.17v0H252a7,7,0,0,1,7.24,7.08,7,7,0,0,1-7.31,7.09h-1.44v0h-20V48.33h14.17V38.18h5.82a31.21,31.21,0,0,0,3.5-.22l5.52,10.37h16.19Z"/><polygon class="a" points="9.89 48.33 9.89 48.33 9.88 48.33 9.89 48.33"/><path class="b" d="M14.2,42.32a7.1,7.1,0,1,0-7.1,7.1h0A7.1,7.1,0,0,0,14.2,42.32Z"/><path class="a" d="M134.27,0H114.13V29.86H128.3V12h5.44c7.24,0,11.86,5.22,11.86,12.15S141,36.32,133.74,36.32H114.13v12h20.14c16.18,0,26.32-11,26.32-24.17S150.45,0,134.27,0Z"/></svg>