<svg width="125" height="32" viewBox="0 0 125 32" fill="none" xmlns="http://www.w3.org/2000/svg">
<path d="M7.33091 25.5658C5.95782 25.5658 4.79419 25.4145 3.84 25.112C2.88582 24.8094 2.12946 24.3207 1.57091 23.6458C1.01236 22.9476 0.605091 22.0167 0.349091 20.8531C0.116364 19.6662 0 18.2 0 16.4545C0 14.1971 0.244364 12.4051 0.733091 11.0785C1.22182 9.72872 2.03637 8.77453 3.17673 8.21599C4.34037 7.63417 5.88801 7.34326 7.81964 7.34326C9.70474 7.34326 11.1709 7.50617 12.2182 7.83199C13.2655 8.13454 13.9986 8.68144 14.4175 9.47272C14.8596 10.2407 15.0807 11.3229 15.0807 12.7193C15.0807 13.9062 14.9411 14.872 14.6618 15.6167C14.3826 16.3382 13.8706 16.8967 13.1258 17.2924C12.3811 17.688 11.3222 17.9673 9.9491 18.1302C8.57601 18.2698 6.77237 18.3396 4.53819 18.3396H3.49091V15.7913H8.37819C9.47201 15.7913 10.2167 15.6633 10.6124 15.4073C11.008 15.128 11.2058 14.616 11.2058 13.8713V10.6945H7.33091C6.26037 10.6945 5.52728 10.8225 5.13164 11.0785C4.736 11.3345 4.53819 11.8349 4.53819 12.5796V21.9353C5.00364 22.0516 5.504 22.1447 6.03928 22.2145C6.57455 22.2611 7.22619 22.2844 7.99419 22.2844C8.94837 22.2844 9.89092 22.2145 10.8218 22.0749C11.7527 21.9353 12.8349 21.7142 14.0684 21.4116L14.6269 24.4836C13.6727 24.8327 12.5556 25.1004 11.2756 25.2865C10.0189 25.4727 8.70401 25.5658 7.33091 25.5658Z" fill="#0F172A"/>
<path d="M19.4043 25.1818V7.72726H21.429L22.581 9.47272C23.4887 8.75126 24.4777 8.21599 25.5483 7.8669C26.6188 7.51781 27.829 7.34326 29.1788 7.34326C30.8079 7.34326 32.053 7.62254 32.9141 8.18108C33.7752 8.71635 34.2058 9.50763 34.2058 10.5549V25.1818H29.9119V10.8691H26.2814C25.3039 10.8691 24.629 10.9971 24.2567 11.2531C23.8843 11.4858 23.6981 11.9513 23.6981 12.6494V25.1818H19.4043Z" fill="#0F172A"/>
<path d="M37.8739 12.5796C37.8739 10.7178 38.4325 9.35635 39.5496 8.49526C40.6667 7.63417 42.4005 7.20363 44.751 7.20363C45.8681 7.20363 46.9387 7.27344 47.9627 7.41308C48.9867 7.52945 49.9874 7.71563 50.9649 7.97163L50.4063 11.0436C49.8245 10.8807 49.1496 10.7527 48.3816 10.6596C47.6369 10.5665 46.9038 10.52 46.1823 10.52C45.4841 10.52 44.8092 10.5549 44.1576 10.6247C43.5059 10.6713 42.9358 10.7411 42.447 10.8342V14.2902C44.3787 14.5462 45.9496 14.8254 47.1598 15.128C48.3932 15.4073 49.3474 15.768 50.0223 16.2102C50.6972 16.6291 51.1627 17.1527 51.4187 17.7811C51.698 18.4094 51.8376 19.2007 51.8376 20.1549C51.8376 21.4582 51.5816 22.5287 51.0696 23.3665C50.5576 24.1811 49.743 24.7745 48.6259 25.1469C47.5089 25.5193 46.0194 25.7054 44.1576 25.7054C43.0638 25.7054 41.9583 25.6124 40.8412 25.4262C39.7241 25.24 38.6187 24.984 37.5248 24.6582L38.1532 21.3418C39.9219 22.04 41.8303 22.3891 43.8783 22.3891C44.4834 22.3891 45.0303 22.3658 45.519 22.3193C46.031 22.2494 46.6245 22.1331 47.2994 21.9702V18.4793C45.2514 18.2 43.599 17.9324 42.3423 17.6764C41.1089 17.3971 40.1663 17.048 39.5147 16.6291C38.8863 16.2102 38.4558 15.6749 38.223 15.0233C37.9903 14.3716 37.8739 13.5571 37.8739 12.5796Z" fill="#0F172A"/>
<path d="M55.3716 8.11126L59.6654 7.51781V25.1818H55.3716V8.11126ZM57.536 5.03926C56.5585 5.03926 55.8952 4.87635 55.5461 4.55054C55.197 4.20145 55.0225 3.54981 55.0225 2.59563C55.0225 1.61817 55.197 0.954899 55.5461 0.605807C55.8952 0.256716 56.5585 0.0821724 57.536 0.0821724C58.4901 0.0821724 59.1418 0.256716 59.4909 0.605807C59.84 0.954899 60.0145 1.61817 60.0145 2.59563C60.0145 3.54981 59.84 4.20145 59.4909 4.55054C59.165 4.87635 58.5134 5.03926 57.536 5.03926Z" fill="#0F172A"/>
<path d="M70.4229 20.12C68.6541 20.12 67.2345 19.9105 66.164 19.4916C65.1167 19.0727 64.3603 18.3978 63.8949 17.4669C63.4294 16.536 63.1967 15.2676 63.1967 13.6618C63.1967 12.0793 63.4294 10.8225 63.8949 9.89162C64.3603 8.93744 65.1167 8.2509 66.164 7.83199C67.2345 7.41308 68.6541 7.20363 70.4229 7.20363C72.2149 7.20363 73.6345 7.41308 74.6818 7.83199C75.7291 8.2509 76.4854 8.92581 76.9509 9.85672C77.4163 10.7876 77.6491 12.056 77.6491 13.6618C77.6491 15.2444 77.4163 16.5127 76.9509 17.4669C76.5087 18.4211 75.7523 19.1076 74.6818 19.5265C73.6345 19.9222 72.2149 20.12 70.4229 20.12ZM67.3858 17.5018H71.2258C72.0636 17.5018 72.6454 17.3622 72.9712 17.0829C73.2971 16.8036 73.46 16.3033 73.46 15.5818V9.7869H69.62C68.7821 9.7869 68.2003 9.92653 67.8745 10.2058C67.5487 10.4851 67.3858 10.9854 67.3858 11.7069V17.5018ZM77.8585 26.4036C77.8585 27.4974 77.6142 28.3818 77.1254 29.0567C76.66 29.7549 75.9036 30.2553 74.8563 30.5578C73.8091 30.8603 72.4127 31.0116 70.6672 31.0116C69.364 31.0116 68.084 30.9185 66.8272 30.7324C65.5938 30.5462 64.4883 30.2785 63.5109 29.9294L64.0345 26.7876C65.1981 27.0902 66.2221 27.3113 67.1065 27.4509C68.0141 27.5905 68.9334 27.6604 69.8643 27.6604C70.7254 27.6604 71.4702 27.6254 72.0985 27.5556C72.7502 27.5091 73.3902 27.4276 74.0185 27.3113V25.0422C71.6912 24.8793 70.0272 24.6814 69.0265 24.4487C68.0491 24.216 67.5603 23.8902 67.5603 23.4713L68.6774 19.4916L71.4352 19.5265L71.2258 22.2145C72.5989 22.4007 73.716 22.5869 74.5771 22.7731C75.4614 22.9593 76.1363 23.2036 76.6018 23.5062C77.0672 23.8087 77.3931 24.1927 77.5792 24.6582C77.7654 25.1236 77.8585 25.7054 77.8585 26.4036ZM76.2876 11.1134L73.8789 8.07635L76.9858 5.70254L79.0803 7.76217L76.2876 11.1134Z" fill="#0F172A"/>
<path d="M81.9298 25.1818V7.72726H83.9545L85.1065 9.47272C86.0142 8.75126 87.0032 8.21599 88.0738 7.8669C89.1443 7.51781 90.3545 7.34326 91.7043 7.34326C93.3334 7.34326 94.5785 7.62254 95.4396 8.18108C96.3007 8.71635 96.7313 9.50763 96.7313 10.5549V25.1818H92.4374V10.8691H88.8069C87.8294 10.8691 87.1545 10.9971 86.7822 11.2531C86.4098 11.4858 86.2236 11.9513 86.2236 12.6494V25.1818H81.9298Z" fill="#0F172A"/>
<path d="M101.482 8.11126L105.775 7.51781V25.1818H101.482V8.11126ZM103.646 5.03926C102.669 5.03926 102.005 4.87635 101.656 4.55054C101.307 4.20145 101.133 3.54981 101.133 2.59563C101.133 1.61817 101.307 0.954899 101.656 0.605807C102.005 0.256716 102.669 0.0821724 103.646 0.0821724C104.6 0.0821724 105.252 0.256716 105.601 0.605807C105.95 0.954899 106.125 1.61817 106.125 2.59563C106.125 3.54981 105.95 4.20145 105.601 4.55054C105.275 4.87635 104.623 5.03926 103.646 5.03926Z" fill="#0F172A"/>
<path d="M115.102 25.5658C113.147 25.5658 111.739 25.1469 110.878 24.3091C110.017 23.4713 109.586 22.0982 109.586 20.1898C109.586 19.0029 109.714 18.0487 109.97 17.3273C110.226 16.5825 110.703 16.0124 111.401 15.6167C112.099 15.2211 113.1 14.9534 114.403 14.8138C115.707 14.6509 117.406 14.5694 119.5 14.5694H121.211V17.1178H116.254C115.206 17.1178 114.485 17.2574 114.089 17.5367C113.694 17.7927 113.496 18.2931 113.496 19.0378V22.424H117.441C118.488 22.424 119.198 22.296 119.57 22.04C119.966 21.784 120.163 21.2836 120.163 20.5389V10.9738C119.419 10.7411 118.383 10.6247 117.057 10.6247C116.102 10.6247 115.102 10.6945 114.054 10.8342C113.03 10.9738 111.983 11.1949 110.913 11.4974L110.354 8.42544C111.006 8.19272 111.727 7.9949 112.518 7.83199C113.333 7.66908 114.182 7.55272 115.067 7.4829C115.951 7.38981 116.812 7.34326 117.65 7.34326C119.302 7.34326 120.629 7.51781 121.63 7.8669C122.63 8.19272 123.352 8.73962 123.794 9.50762C124.236 10.2524 124.457 11.2531 124.457 12.5098V25.1818H122.398L121.281 23.4363C120.443 24.1578 119.512 24.6931 118.488 25.0422C117.487 25.3913 116.358 25.5658 115.102 25.5658Z" fill="#0F172A"/>
</svg>
