<svg width="510" height="510" viewBox="0 0 510 510" fill="none" xmlns="http://www.w3.org/2000/svg">
<path fill-rule="evenodd" clip-rule="evenodd" d="M412.194 173.215C457.806 163.753 480.854 164.238 491.287 165.694C492.743 165.937 492.985 168.12 491.044 168.605C488.37 168.912 485.142 169.195 481.466 169.518C464.799 170.979 438.938 173.247 413.892 182.192C408.797 184.133 403.702 186.074 398.85 188.5C398.581 188.768 397.868 189.111 396.914 189.569C396.144 189.939 395.216 190.384 394.24 190.926C387.689 194.323 380.654 203.057 376.772 209.85L333.101 284.091C332.889 284.45 332.659 284.843 332.409 285.267C323.237 300.902 288.63 359.894 223.438 390.6C135.368 431.845 55.0615 409.767 55.0615 409.767C55.0615 409.767 85.3886 402.003 121.539 376.771C149.484 358.222 173.547 334.406 192.383 306.654C204.504 295.761 209.736 284.673 213.785 276.091C216.139 271.103 218.093 266.961 220.769 264.196C231.289 253.677 243.254 246.048 254.569 238.833C255.519 238.228 256.464 237.625 257.404 237.023C274.691 230.419 288.247 209.197 296.825 195.767C298.961 192.423 300.789 189.561 302.288 187.529C306.947 180.869 313.094 175.387 320.242 171.517C332.373 165.209 352.995 162.54 377.985 171.032C383.741 172.926 389.675 174.227 395.696 174.913C401.246 175.07 406.792 174.499 412.194 173.215ZM362.846 192.194C362.846 196.214 359.587 199.472 355.567 199.472C351.547 199.472 348.288 196.214 348.288 192.194C348.288 188.174 351.547 184.915 355.567 184.915C359.587 184.915 362.846 188.174 362.846 192.194Z" fill="url(#paint0_linear_462_3930)"/>
<path fill-rule="evenodd" clip-rule="evenodd" d="M412.194 173.215C457.806 163.753 480.854 164.239 491.287 165.694C491.613 165.734 491.914 165.891 492.131 166.137C492.349 166.383 492.47 166.7 492.47 167.029C492.47 167.357 492.349 167.674 492.131 167.92C491.914 168.166 491.613 168.324 491.287 168.363C490.638 168.438 489.946 168.516 489.213 168.6C473.243 170.416 438.005 174.422 408.312 184.861C406.141 185.729 404.942 186.064 403.866 186.363C402.537 186.733 401.397 187.051 398.85 188.258C398.581 188.526 397.868 188.869 396.914 189.326C396.144 189.696 395.216 190.142 394.24 190.684C387.689 194.081 380.654 202.815 376.772 209.608L333.101 283.849C329.346 290.391 325.214 296.71 320.727 302.773C310.052 317.087 288.216 325.579 261.286 324.851C242.792 325.046 224.482 321.152 207.668 313.448C203.543 311.75 196.992 308.596 192.14 305.927L192.138 305.926C189.712 304.47 186.075 302.288 185.347 301.802C177.769 296.799 170.478 291.372 163.511 285.547C157.689 280.937 152.351 276.085 146.771 270.747C119.856 244.053 96.0121 214.431 75.684 182.435C71.3169 175.642 67.1924 168.848 63.5532 162.298C54.3307 146.371 46.3805 129.74 39.7767 112.561C37.3505 105.768 37.8358 101.886 38.321 100.43C39.2915 96.0633 42.4455 93.3945 48.0257 95.0928C60.8844 99.9452 72.53 104.555 83.6904 109.65C109.709 122.404 134.693 137.168 158.416 153.806C168.121 160.114 179.524 168.848 191.17 178.068C211.792 195.051 233.142 214.218 257.404 237.024C274.691 230.42 288.247 209.197 296.825 195.768C298.961 192.423 300.789 189.562 302.288 187.53C306.947 180.87 313.094 175.387 320.242 171.517C332.615 164.724 352.267 162.54 377.985 171.032C383.741 172.927 389.675 174.227 395.696 174.914C401.246 175.07 406.792 174.499 412.194 173.215ZM362.844 192.194C362.844 196.214 359.585 199.472 355.565 199.472C351.546 199.472 348.287 196.214 348.287 192.194C348.287 188.174 351.546 184.915 355.565 184.915C359.585 184.915 362.844 188.174 362.844 192.194Z" fill="url(#paint1_linear_462_3930)"/>
<path opacity="0.8" d="M37.8369 103.099C37.8369 102.372 38.0795 101.644 37.8369 101.158C38.0816 101.782 38.0816 102.476 37.8369 103.099Z" fill="url(#paint2_linear_462_3930)"/>
<path opacity="0.8" d="M58.217 98.4896C57.8444 98.2936 57.4232 98.2094 57.0039 98.2469C57.7318 98.4896 58.4596 98.9748 59.1875 99.2174C59.1875 98.9748 58.7022 98.7322 58.217 98.4896Z" fill="url(#paint3_linear_462_3930)"/>
<path opacity="0.8" d="M65.7371 101.644C65.4945 101.644 65.0092 101.401 64.7666 101.401C65.3866 101.71 66.0371 101.954 66.7075 102.129C66.2223 101.886 65.9797 101.644 65.7371 101.644Z" fill="url(#paint4_linear_462_3930)"/>
<path d="M208.153 241.39C224.639 243.871 241.483 242.204 257.162 236.538C242.605 222.952 228.776 210.578 215.917 199.418C209.366 193.838 203.058 188.257 196.993 183.162C196.75 182.92 196.265 182.677 196.265 182.435C194.567 180.979 193.111 179.766 191.655 178.553C191.17 178.31 190.928 177.825 190.685 177.825C179.039 168.605 167.636 160.114 158.417 153.563C133.67 136.823 108.923 121.295 83.9334 109.407C81.7499 108.194 79.5663 107.466 77.1402 106.253C76.5202 105.944 75.8697 105.7 75.1992 105.525C171.761 157.688 202.573 204.998 208.153 241.39Z" fill="url(#paint5_linear_462_3930)"/>
<path opacity="0.8" d="M41.4761 117.171C40.7482 115.715 40.263 114.017 39.5352 112.318C40.263 113.774 40.7482 115.472 41.4761 117.171Z" fill="url(#paint6_linear_462_3930)"/>
<path opacity="0.3" d="M37.8369 103.827C37.8369 103.584 37.8369 103.584 38.0795 103.341C38.0795 103.584 38.0795 103.584 37.8369 103.827Z" fill="url(#paint7_linear_462_3930)"/>
<path opacity="0.3" d="M48.2695 94.8502C51.4236 96.0632 54.335 97.0337 57.2464 98.2468C54.0923 97.0337 51.1809 95.8206 48.2695 94.8502Z" fill="url(#paint8_linear_462_3930)"/>
<path opacity="0.3" d="M37.8369 103.827C37.9682 106.727 38.5408 109.591 39.5352 112.318C38.5408 109.591 37.9682 106.727 37.8369 103.827Z" fill="url(#paint9_linear_462_3930)"/>
<path opacity="0.3" d="M73.7449 105.04L75.2006 105.768C72.5318 104.555 69.6204 103.342 66.709 102.129C67.6795 102.614 68.4073 102.857 69.3778 103.342C70.8726 103.802 72.3321 104.369 73.7449 105.04Z" fill="url(#paint10_linear_462_3930)"/>
<path d="M102.372 190.441C76.4124 169.576 51.9081 140.462 41.4756 117.414C65.7373 178.796 128.818 265.895 185.105 301.803C186.075 302.531 189.472 304.471 192.141 305.927C199.419 294.767 212.763 271.718 208.153 241.391C173.459 236.781 136.096 217.857 102.372 190.441Z" fill="url(#paint11_linear_462_3930)"/>
<path opacity="0.3" d="M64.7668 101.401L59.6719 99.2174C59.9145 99.2174 60.1571 99.4601 60.3997 99.4601C61.6128 99.9453 63.0685 100.673 64.7668 101.401Z" fill="url(#paint12_linear_462_3930)"/>
<path opacity="0.8" d="M102.374 190.441C136.097 217.857 173.46 236.539 208.155 241.148C202.574 204.998 171.762 157.445 75.2005 105.768C74.692 105.575 74.2043 105.331 73.7448 105.04C72.2891 104.312 70.8334 103.827 69.6203 103.099C68.6498 102.614 67.922 102.371 66.9515 101.886C66.3315 101.577 65.681 101.333 65.0106 101.158C63.5313 100.447 61.9878 99.8786 60.4008 99.46C60.1582 99.46 59.9156 99.2174 59.673 99.2174C58.9451 98.9748 58.2173 98.4895 57.4894 98.2469C54.578 97.2764 51.6666 95.8207 48.5126 94.8503C42.9324 93.1519 39.7784 95.8207 38.5653 99.9452C38.4428 100.423 38.3616 100.91 38.3227 101.401C38.0801 101.886 38.3227 102.614 38.3227 103.342C38.3227 103.584 38.3227 103.584 38.0801 103.827C38.2113 106.727 38.784 109.591 39.7784 112.319C40.3188 114.056 40.967 115.757 41.7193 117.414C51.9092 140.462 76.6562 169.576 102.374 190.441Z" fill="url(#paint13_linear_462_3930)"/>
<path d="M102.374 190.441C136.097 217.857 173.46 236.539 208.155 241.148C202.574 204.998 171.762 157.445 75.2005 105.768C74.692 105.575 74.2043 105.331 73.7448 105.04C72.2891 104.312 70.8334 103.827 69.6203 103.099C68.6498 102.614 67.922 102.371 66.9515 101.886C66.3315 101.577 65.681 101.333 65.0106 101.158C63.5313 100.447 61.9878 99.8786 60.4008 99.46C60.1582 99.46 59.9156 99.2174 59.673 99.2174C58.9451 98.9748 58.2173 98.4895 57.4894 98.2469C54.578 97.2764 51.6666 95.8207 48.5126 94.8503C42.9324 93.1519 39.7784 95.8207 38.5653 99.9452C38.4428 100.423 38.3616 100.91 38.3227 101.401C38.0801 101.886 38.3227 102.614 38.3227 103.342C38.3227 103.584 38.3227 103.584 38.0801 103.827C38.2113 106.727 38.784 109.591 39.7784 112.319C40.3188 114.056 40.967 115.757 41.7193 117.414C51.9092 140.462 76.6562 169.576 102.374 190.441Z" fill="url(#paint14_linear_462_3930)"/>
<path fill-rule="evenodd" clip-rule="evenodd" d="M412.194 173.215C457.806 163.753 480.855 164.238 491.288 165.694C492.743 165.937 492.986 168.12 491.773 169.091C481.826 170.061 440.095 175.641 412.437 184.861C401.451 188.31 391.518 194.487 383.566 202.814C377.931 209.245 372.743 216.054 368.038 223.194C363.428 229.987 348.871 250.852 325.338 258.616C300.833 266.623 274.631 253.279 257.647 237.266C274.935 230.662 288.49 209.44 297.068 196.01C299.204 192.665 301.032 189.804 302.532 187.772C306.429 182.185 311.372 177.406 317.089 173.7C324.233 168.893 332.517 166.048 341.108 165.451C353.647 164.879 366.177 166.775 377.985 171.032C383.741 172.926 389.676 174.227 395.697 174.913C401.246 175.07 406.793 174.499 412.194 173.215ZM362.845 192.194C362.845 196.214 359.586 199.472 355.566 199.472C351.546 199.472 348.287 196.214 348.287 192.194C348.287 188.174 351.546 184.915 355.566 184.915C359.586 184.915 362.845 188.174 362.845 192.194Z" fill="url(#paint15_linear_462_3930)"/>
<defs>
<linearGradient id="paint0_linear_462_3930" x1="500.675" y1="269.01" x2="46.6569" y2="305.665" gradientUnits="userSpaceOnUse">
<stop offset="0.2986" stop-color="#0097CE"/>
<stop offset="0.3791" stop-color="#0999C5"/>
<stop offset="0.5119" stop-color="#229DAD"/>
<stop offset="0.6469" stop-color="#42A38F"/>
<stop offset="0.7352" stop-color="#5DAD82"/>
<stop offset="0.9239" stop-color="#A1C661"/>
<stop offset="1" stop-color="#BED153"/>
</linearGradient>
<linearGradient id="paint1_linear_462_3930" x1="24.4082" y1="150.94" x2="463.709" y2="271.814" gradientUnits="userSpaceOnUse">
<stop offset="0.08199" stop-color="#3D65AF"/>
<stop offset="0.2305" stop-color="#2372B8"/>
<stop offset="0.5058" stop-color="#00B8BB"/>
</linearGradient>
<linearGradient id="paint2_linear_462_3930" x1="37.6598" y1="102.08" x2="276.294" y2="167.74" gradientUnits="userSpaceOnUse">
<stop offset="0.1297"/>
<stop offset="0.3277" stop-color="#00334B"/>
<stop offset="0.5276" stop-color="#006190"/>
<stop offset="0.6723" stop-color="#007FBB"/>
<stop offset="0.7457" stop-color="#008ACC"/>
</linearGradient>
<linearGradient id="paint3_linear_462_3930" x1="39.9732" y1="93.6729" x2="278.608" y2="159.333" gradientUnits="userSpaceOnUse">
<stop offset="0.1297"/>
<stop offset="0.3277" stop-color="#00334B"/>
<stop offset="0.5276" stop-color="#006190"/>
<stop offset="0.6723" stop-color="#007FBB"/>
<stop offset="0.7457" stop-color="#008ACC"/>
</linearGradient>
<linearGradient id="paint4_linear_462_3930" x1="39.7162" y1="94.6033" x2="278.35" y2="160.263" gradientUnits="userSpaceOnUse">
<stop offset="0.1297"/>
<stop offset="0.3277" stop-color="#00334B"/>
<stop offset="0.5276" stop-color="#006190"/>
<stop offset="0.6723" stop-color="#007FBB"/>
<stop offset="0.7457" stop-color="#008ACC"/>
</linearGradient>
<linearGradient id="paint5_linear_462_3930" x1="62.5061" y1="151.656" x2="265.174" y2="207.42" gradientUnits="userSpaceOnUse">
<stop offset="0.1297" stop-color="#2483C5"/>
<stop offset="0.1672" stop-color="#2486C7"/>
<stop offset="0.676" stop-color="#29B1DF"/>
<stop offset="0.9352" stop-color="#2BC2E8"/>
</linearGradient>
<linearGradient id="paint6_linear_462_3930" x1="34.6205" y1="113.125" x2="273.254" y2="178.785" gradientUnits="userSpaceOnUse">
<stop offset="0.1297"/>
<stop offset="0.3277" stop-color="#00334B"/>
<stop offset="0.5276" stop-color="#006190"/>
<stop offset="0.6723" stop-color="#007FBB"/>
<stop offset="0.7457" stop-color="#008ACC"/>
</linearGradient>
<linearGradient id="paint7_linear_462_3930" x1="37.9863" y1="103.592" x2="37.9865" y2="103.592" gradientUnits="userSpaceOnUse">
<stop stop-color="#682C90"/>
<stop offset="0.496" stop-color="#817CB9"/>
<stop offset="1" stop-color="white"/>
</linearGradient>
<linearGradient id="paint8_linear_462_3930" x1="243.107" y1="148.923" x2="122.237" y2="115.666" gradientUnits="userSpaceOnUse">
<stop stop-color="#682C90"/>
<stop offset="0.496" stop-color="#817CB9"/>
<stop offset="1" stop-color="white"/>
</linearGradient>
<linearGradient id="paint9_linear_462_3930" x1="239.169" y1="163.235" x2="118.299" y2="129.978" gradientUnits="userSpaceOnUse">
<stop stop-color="#682C90"/>
<stop offset="0.496" stop-color="#817CB9"/>
<stop offset="1" stop-color="white"/>
</linearGradient>
<linearGradient id="paint10_linear_462_3930" x1="242.496" y1="151.148" x2="121.625" y2="117.89" gradientUnits="userSpaceOnUse">
<stop stop-color="#682C90"/>
<stop offset="0.496" stop-color="#817CB9"/>
<stop offset="1" stop-color="white"/>
</linearGradient>
<linearGradient id="paint11_linear_462_3930" x1="22.668" y1="185.768" x2="216.252" y2="239.033" gradientUnits="userSpaceOnUse">
<stop offset="0.1297" stop-color="#3B67AD"/>
<stop offset="0.5697" stop-color="#227CAA"/>
<stop offset="0.9352" stop-color="#118AA8"/>
</linearGradient>
<linearGradient id="paint12_linear_462_3930" x1="242.812" y1="149.992" x2="121.942" y2="116.734" gradientUnits="userSpaceOnUse">
<stop stop-color="#682C90"/>
<stop offset="0.496" stop-color="#817CB9"/>
<stop offset="1" stop-color="white"/>
</linearGradient>
<linearGradient id="paint13_linear_462_3930" x1="26.9933" y1="140.81" x2="265.627" y2="206.47" gradientUnits="userSpaceOnUse">
<stop offset="0.1297"/>
<stop offset="0.3277" stop-color="#00334B"/>
<stop offset="0.5276" stop-color="#006190"/>
<stop offset="0.6723" stop-color="#007FBB"/>
<stop offset="0.7457" stop-color="#008ACC"/>
</linearGradient>
<linearGradient id="paint14_linear_462_3930" x1="26.9933" y1="140.81" x2="221.152" y2="194.233" gradientUnits="userSpaceOnUse">
<stop offset="0.1297" stop-color="#3A67B0"/>
<stop offset="0.5622" stop-color="#357FBD"/>
<stop offset="0.9352" stop-color="#3290C6"/>
</linearGradient>
<linearGradient id="paint15_linear_462_3930" x1="273.201" y1="179.322" x2="474.017" y2="234.576" gradientUnits="userSpaceOnUse">
<stop offset="0.1724" stop-color="#4E5CA8"/>
<stop offset="0.9937" stop-color="#1FC3F3"/>
</linearGradient>
</defs>
</svg>
