<svg width="284" height="268" viewBox="0 0 284 268" fill="none" xmlns="http://www.w3.org/2000/svg">
<path fill-rule="evenodd" clip-rule="evenodd" d="M223.602 76.6358C245.216 72.152 256.138 72.382 261.082 73.0718C261.772 73.1868 261.887 74.2215 260.967 74.4514C259.7 74.5968 258.17 74.731 256.428 74.8837C248.53 75.5763 236.276 76.6508 224.407 80.8897C221.993 81.8094 219.578 82.7292 217.279 83.8788C217.152 84.006 216.814 84.1683 216.362 84.3852C215.997 84.5606 215.557 84.7716 215.094 85.0285C211.99 86.6381 208.656 90.777 206.817 93.9961L186.122 129.177C186.022 129.347 185.913 129.533 185.795 129.734C181.448 137.143 165.049 165.097 134.156 179.648C92.4228 199.193 54.3682 188.73 54.3682 188.73C54.3682 188.73 68.7393 185.051 85.8696 173.095C99.1119 164.305 110.515 153.019 119.44 139.869C125.184 134.706 127.664 129.452 129.582 125.386C130.698 123.022 131.624 121.059 132.892 119.749C137.877 114.764 143.547 111.149 148.908 107.73C149.359 107.443 149.807 107.158 150.252 106.873C158.444 103.743 164.867 93.6866 168.932 87.3227C169.945 85.7377 170.811 84.3818 171.521 83.419C173.729 80.2629 176.642 77.6649 180.029 75.831C185.777 72.8418 195.55 71.5772 207.392 75.6011C210.119 76.4989 212.931 77.1153 215.784 77.4406C218.414 77.5148 221.043 77.2442 223.602 76.6358ZM200.218 85.6296C200.218 87.5345 198.674 89.0787 196.769 89.0787C194.864 89.0787 193.319 87.5345 193.319 85.6296C193.319 83.7246 194.864 82.1804 196.769 82.1804C198.674 82.1804 200.218 83.7246 200.218 85.6296Z" fill="url(#paint0_linear_462_3774)"/>
<path fill-rule="evenodd" clip-rule="evenodd" d="M223.601 76.6358C245.215 72.152 256.137 72.3819 261.081 73.0718C261.235 73.0904 261.377 73.1651 261.481 73.2816C261.584 73.3981 261.641 73.5484 261.641 73.7041C261.641 73.8598 261.584 74.0101 261.481 74.1266C261.377 74.2431 261.235 74.3177 261.081 74.3364C260.773 74.3717 260.445 74.409 260.098 74.4485C252.53 75.309 235.832 77.2076 221.761 82.1543C220.733 82.5657 220.164 82.7241 219.655 82.8661C219.025 83.0415 218.485 83.192 217.277 83.7639C217.15 83.891 216.812 84.0533 216.36 84.2702C215.995 84.4456 215.556 84.6566 215.093 84.9135C211.989 86.5231 208.655 90.662 206.815 93.8811L186.121 129.062C184.342 132.162 182.384 135.156 180.257 138.029C175.199 144.812 164.852 148.836 152.09 148.491C143.326 148.583 134.65 146.738 126.682 143.088C124.728 142.283 121.623 140.788 119.324 139.524L119.322 139.522C118.172 138.833 116.45 137.799 116.105 137.569C112.514 135.198 109.059 132.626 105.758 129.866C102.998 127.682 100.469 125.383 97.8249 122.853C85.0708 110.204 73.7719 96.1667 64.139 81.0046C62.0696 77.7855 60.1151 74.5663 58.3906 71.4622C54.0203 63.9149 50.253 56.0342 47.1236 47.8936C45.974 44.6745 46.2039 42.835 46.4338 42.1452C46.8937 40.0757 48.3883 38.8111 51.0326 39.6158C57.1259 41.9152 62.6444 44.0996 67.933 46.514C80.2623 52.5578 92.1017 59.5538 103.343 67.4383C107.942 70.4275 113.346 74.5663 118.864 78.9352C128.636 86.983 138.754 96.0655 150.251 106.873C158.443 103.743 164.866 93.6865 168.931 87.3226C169.943 85.7377 170.809 84.3818 171.52 83.4189C173.728 80.2629 176.641 77.6649 180.028 75.831C185.891 72.6119 195.203 71.5772 207.39 75.6011C210.118 76.4989 212.93 77.1153 215.783 77.4406C218.413 77.5148 221.041 77.2442 223.601 76.6358ZM200.215 85.6294C200.215 87.5344 198.671 89.0786 196.766 89.0786C194.861 89.0786 193.317 87.5344 193.317 85.6294C193.317 83.7245 194.861 82.1803 196.766 82.1803C198.671 82.1803 200.215 83.7245 200.215 85.6294Z" fill="url(#paint1_linear_462_3774)"/>
<path opacity="0.8" d="M46.2051 43.4104C46.2051 43.0655 46.32 42.7206 46.2051 42.4906C46.321 42.7863 46.321 43.1148 46.2051 43.4104Z" fill="url(#paint2_linear_462_3774)"/>
<path opacity="0.8" d="M55.862 41.2261C55.6854 41.1332 55.4858 41.0933 55.2871 41.1111C55.632 41.226 55.9769 41.456 56.3218 41.571C56.3218 41.456 56.0919 41.341 55.862 41.2261Z" fill="url(#paint3_linear_462_3774)"/>
<path opacity="0.8" d="M59.4257 42.7205C59.3107 42.7205 59.0808 42.6056 58.9658 42.6056C59.2596 42.7521 59.5679 42.8677 59.8856 42.9505C59.6556 42.8355 59.5407 42.7205 59.4257 42.7205Z" fill="url(#paint4_linear_462_3774)"/>
<path d="M126.913 108.943C134.725 110.118 142.707 109.328 150.137 106.643C143.239 100.205 136.685 94.3415 130.592 89.0529C127.488 86.4087 124.499 83.7644 121.624 81.35C121.51 81.2351 121.28 81.1201 121.28 81.0051C120.475 80.3153 119.785 79.7405 119.095 79.1656C118.865 79.0507 118.75 78.8207 118.635 78.8207C113.117 74.4519 107.713 70.428 103.344 67.3238C91.6176 59.391 79.8908 52.033 68.049 46.3995C67.0143 45.8247 65.9796 45.4798 64.8299 44.9049C64.5361 44.7584 64.2279 44.6428 63.9102 44.56C109.668 69.2783 124.269 91.6972 126.913 108.943Z" fill="url(#paint5_linear_462_3774)"/>
<path opacity="0.8" d="M47.9305 50.078C47.5856 49.3881 47.3556 48.5834 47.0107 47.7786C47.3556 48.4684 47.5856 49.2732 47.9305 50.078Z" fill="url(#paint6_linear_462_3774)"/>
<path opacity="0.3" d="M46.2051 43.7542C46.2051 43.6395 46.2051 43.6395 46.3197 43.5249C46.3197 43.6395 46.3197 43.6395 46.2051 43.7542Z" fill="url(#paint7_linear_462_3774)"/>
<path opacity="0.3" d="M51.1484 39.501C52.643 40.0758 54.0227 40.5357 55.4023 41.1105C53.9077 40.5357 52.5281 39.9609 51.1484 39.501Z" fill="url(#paint8_linear_462_3774)"/>
<path opacity="0.3" d="M46.2051 43.7547C46.2673 45.1291 46.5386 46.486 47.0099 47.7786C46.5386 46.486 46.2673 45.1291 46.2051 43.7547Z" fill="url(#paint9_linear_462_3774)"/>
<path opacity="0.3" d="M63.2198 44.3299L63.9096 44.6748C62.645 44.1 61.2654 43.5251 59.8857 42.9503C60.3456 43.1802 60.6905 43.2952 61.1504 43.5251C61.8587 43.7431 62.5504 44.0121 63.2198 44.3299Z" fill="url(#paint10_linear_462_3774)"/>
<path d="M76.7868 84.7993C64.4852 74.9119 52.8733 61.1157 47.9297 50.1937C59.4266 79.2808 89.3184 120.555 115.991 137.57C116.451 137.915 118.061 138.835 119.325 139.524C122.774 134.236 129.098 123.314 126.913 108.943C110.473 106.758 92.7675 97.7907 76.7868 84.7993Z" fill="url(#paint11_linear_462_3774)"/>
<path opacity="0.3" d="M58.9661 42.6051L56.5518 41.5704C56.6667 41.5704 56.7817 41.6854 56.8967 41.6854C57.4715 41.9153 58.1613 42.2602 58.9661 42.6051Z" fill="url(#paint12_linear_462_3774)"/>
<path opacity="0.8" d="M76.787 84.7988C92.7677 97.7903 110.473 106.643 126.913 108.827C124.269 91.697 109.668 69.1631 63.9105 44.6747C63.6696 44.5833 63.4385 44.4677 63.2207 44.3298C62.5309 43.9849 61.8411 43.755 61.2662 43.4101C60.8064 43.1801 60.4615 43.0652 60.0016 42.8352C59.7078 42.6887 59.3996 42.5731 59.0818 42.4903C58.3809 42.1534 57.6495 41.8839 56.8974 41.6855C56.7825 41.6855 56.6675 41.5706 56.5525 41.5706C56.2076 41.4556 55.8627 41.2257 55.5178 41.1107C54.1382 40.6508 52.7586 39.961 51.264 39.5011C48.6197 38.6964 47.1251 39.961 46.5502 41.9155C46.4922 42.1417 46.4537 42.3725 46.4353 42.6053C46.3203 42.8352 46.4353 43.1801 46.4353 43.525C46.4353 43.64 46.4353 43.64 46.3203 43.755C46.3825 45.1294 46.6539 46.4863 47.1251 47.7789C47.3812 48.602 47.6884 49.4084 48.0448 50.1932C52.8735 61.1153 64.6003 74.9115 76.787 84.7988Z" fill="url(#paint13_linear_462_3774)"/>
<path d="M76.787 84.7988C92.7677 97.7903 110.473 106.643 126.913 108.827C124.269 91.697 109.668 69.1631 63.9105 44.6747C63.6696 44.5833 63.4385 44.4677 63.2207 44.3298C62.5309 43.9849 61.8411 43.755 61.2662 43.4101C60.8064 43.1801 60.4615 43.0652 60.0016 42.8352C59.7078 42.6887 59.3996 42.5731 59.0818 42.4903C58.3809 42.1534 57.6495 41.8839 56.8974 41.6855C56.7825 41.6855 56.6675 41.5706 56.5525 41.5706C56.2076 41.4556 55.8627 41.2257 55.5178 41.1107C54.1382 40.6508 52.7586 39.961 51.264 39.5011C48.6197 38.6964 47.1251 39.961 46.5502 41.9155C46.4922 42.1417 46.4537 42.3725 46.4353 42.6053C46.3203 42.8352 46.4353 43.1801 46.4353 43.525C46.4353 43.64 46.4353 43.64 46.3203 43.755C46.3825 45.1294 46.6539 46.4863 47.1251 47.7789C47.3812 48.602 47.6884 49.4084 48.0448 50.1932C52.8735 61.1153 64.6003 74.9115 76.787 84.7988Z" fill="url(#paint14_linear_462_3774)"/>
<path fill-rule="evenodd" clip-rule="evenodd" d="M223.6 76.6359C245.214 72.1521 256.136 72.382 261.08 73.0718C261.77 73.1868 261.885 74.2215 261.31 74.6814C256.596 75.1413 236.822 77.7855 223.715 82.1544C218.509 83.7888 213.802 86.7158 210.034 90.6621C207.364 93.7094 204.905 96.9361 202.676 100.319C200.492 103.539 193.593 113.426 182.442 117.105C170.83 120.899 158.413 114.576 150.365 106.988C158.557 103.858 164.981 93.8016 169.045 87.4377C170.058 85.8527 170.924 84.4968 171.634 83.534C173.481 80.8863 175.824 78.6218 178.533 76.8658C181.918 74.5875 185.843 73.2395 189.914 72.9569C195.857 72.6855 201.794 73.5839 207.39 75.6011C210.117 76.499 212.929 77.1153 215.782 77.4406C218.412 77.5148 221.041 77.2443 223.6 76.6359ZM200.216 85.6296C200.216 87.5345 198.671 89.0788 196.766 89.0788C194.861 89.0788 193.317 87.5345 193.317 85.6296C193.317 83.7246 194.861 82.1804 196.766 82.1804C198.671 82.1804 200.216 83.7246 200.216 85.6296Z" fill="url(#paint15_linear_462_3774)"/>
<path d="M112.482 227.378C107.802 227.385 103.315 229.248 100.005 232.557C96.6956 235.867 94.8332 240.354 94.8262 245.034V250.292C94.8332 254.972 96.6956 259.459 100.005 262.768C103.315 266.078 107.802 267.94 112.482 267.947H123.703V261.513H112.482C109.614 261.508 106.857 260.409 104.771 258.441C102.686 256.472 101.43 253.782 101.261 250.919H124.253C125.016 250.921 125.772 250.772 126.477 250.481C127.182 250.19 127.823 249.762 128.362 249.222C128.902 248.683 129.33 248.042 129.621 247.337C129.912 246.631 130.061 245.876 130.059 245.113C130.073 242.793 129.628 240.494 128.752 238.346C127.875 236.199 126.583 234.246 124.951 232.598C123.318 230.951 121.376 229.642 119.236 228.746C117.097 227.85 114.802 227.385 112.482 227.378ZM101.261 244.406C101.426 241.542 102.68 238.849 104.766 236.879C106.852 234.91 109.613 233.813 112.482 233.813C115.351 233.813 118.112 234.91 120.198 236.879C122.284 238.849 123.538 241.542 123.703 244.406H101.261Z" fill="#191D1E"/>
<path d="M18.0034 220.944H22.7116V214.509H18.0034C16.2275 214.515 14.471 214.879 12.8394 215.58C11.2078 216.282 9.73471 217.305 8.50847 218.59C6.02808 221.164 4.62461 224.589 4.58494 228.163V228.948H0.818359V235.382H4.58494V267.791H11.0195V235.382H19.6513V229.026H11.0195V228.242C11.098 224.318 14.3153 220.944 18.0034 220.944Z" fill="#191D1E"/>
<path d="M39.1895 214.588H32.7549V267.948H39.1895V214.588Z" fill="#191D1E"/>
<path d="M253.258 227.378H246.823V267.791H253.258V227.378Z" fill="#30B99E"/>
<path d="M77.9546 251.39C77.9546 254.075 76.8882 256.65 74.9898 258.548C73.0914 260.446 70.5167 261.513 67.832 261.513C65.1473 261.513 62.5725 260.446 60.6741 258.548C58.7758 256.65 57.7093 254.075 57.7093 251.39V227.378H51.4316V251.39C51.4316 255.761 53.1678 259.952 56.2582 263.042C59.3485 266.133 63.54 267.869 67.9104 267.869C72.2809 267.869 76.4723 266.133 79.5627 263.042C82.6531 259.952 84.3892 255.761 84.3892 251.39V227.378H77.9546V251.39Z" fill="#191D1E"/>
<path d="M152.972 227.378C148.605 227.391 144.421 229.131 141.334 232.219C138.246 235.307 136.506 239.491 136.493 243.857V267.869H142.928V243.857C142.928 241.172 143.994 238.598 145.893 236.699C147.791 234.801 150.366 233.734 153.05 233.734C155.735 233.734 158.31 234.801 160.208 236.699C162.107 238.598 163.173 241.172 163.173 243.857V267.869H169.608V243.857C169.533 239.483 167.751 235.311 164.643 232.232C161.535 229.154 157.347 227.412 152.972 227.378Z" fill="#191D1E"/>
<path d="M187.893 254.216V233.813H196.524V227.457H187.893V214.588H181.537V227.457H175.887V233.892H181.537V254.294C181.547 257.829 182.956 261.216 185.455 263.715C187.955 266.215 191.342 267.624 194.877 267.634H197.701V261.199H194.877C193.026 261.195 191.252 260.458 189.943 259.149C188.634 257.841 187.897 256.067 187.893 254.216Z" fill="#191D1E"/>
<path d="M273.895 254.216V233.813H282.527V227.457H273.895V214.588H267.46V227.457H261.811V233.892H267.46V254.294C267.471 257.829 268.879 261.216 271.379 263.715C273.878 266.215 277.266 267.624 280.8 267.634H283.625V261.199H280.8C278.962 261.179 277.205 260.434 275.913 259.127C274.62 257.819 273.895 256.054 273.895 254.216Z" fill="#30B99E"/>
<path d="M211.198 214.588V230.988C214.081 228.719 217.652 227.5 221.321 227.536C225.687 227.548 229.871 229.289 232.959 232.376C236.046 235.464 237.787 239.648 237.799 244.014V251.469C237.799 255.84 236.063 260.031 232.973 263.121C229.882 266.212 225.691 267.948 221.321 267.948C216.95 267.948 212.759 266.212 209.668 263.121C206.578 260.031 204.842 255.84 204.842 251.469V214.588H211.198ZM211.198 247.467V251.391C211.198 254.075 212.264 256.65 214.163 258.549C216.061 260.447 218.636 261.513 221.321 261.513C224.005 261.513 226.58 260.447 228.478 258.549C230.377 256.65 231.443 254.075 231.443 251.391V243.936C231.443 241.251 230.377 238.677 228.478 236.778C226.58 234.88 224.005 233.813 221.321 233.813C218.636 233.813 216.061 234.88 214.163 236.778C212.264 238.677 211.198 241.251 211.198 243.936V247.467Z" fill="#30B99E"/>
<defs>
<linearGradient id="paint0_linear_462_3774" x1="265.531" y1="122.03" x2="50.3855" y2="139.4" gradientUnits="userSpaceOnUse">
<stop offset="0.2986" stop-color="#0097CE"/>
<stop offset="0.3791" stop-color="#0999C5"/>
<stop offset="0.5119" stop-color="#229DAD"/>
<stop offset="0.6469" stop-color="#42A38F"/>
<stop offset="0.7352" stop-color="#5DAD82"/>
<stop offset="0.9239" stop-color="#A1C661"/>
<stop offset="1" stop-color="#BED153"/>
</linearGradient>
<linearGradient id="paint1_linear_462_3774" x1="39.841" y1="66.0802" x2="248.012" y2="123.359" gradientUnits="userSpaceOnUse">
<stop offset="0.08199" stop-color="#3D65AF"/>
<stop offset="0.2305" stop-color="#2372B8"/>
<stop offset="0.5058" stop-color="#00B8BB"/>
</linearGradient>
<linearGradient id="paint2_linear_462_3774" x1="46.1211" y1="42.9274" x2="159.202" y2="74.0418" gradientUnits="userSpaceOnUse">
<stop offset="0.1297"/>
<stop offset="0.3277" stop-color="#00334B"/>
<stop offset="0.5276" stop-color="#006190"/>
<stop offset="0.6723" stop-color="#007FBB"/>
<stop offset="0.7457" stop-color="#008ACC"/>
</linearGradient>
<linearGradient id="paint3_linear_462_3774" x1="47.2168" y1="38.9436" x2="160.298" y2="70.058" gradientUnits="userSpaceOnUse">
<stop offset="0.1297"/>
<stop offset="0.3277" stop-color="#00334B"/>
<stop offset="0.5276" stop-color="#006190"/>
<stop offset="0.6723" stop-color="#007FBB"/>
<stop offset="0.7457" stop-color="#008ACC"/>
</linearGradient>
<linearGradient id="paint4_linear_462_3774" x1="47.0952" y1="39.3844" x2="160.177" y2="70.4987" gradientUnits="userSpaceOnUse">
<stop offset="0.1297"/>
<stop offset="0.3277" stop-color="#00334B"/>
<stop offset="0.5276" stop-color="#006190"/>
<stop offset="0.6723" stop-color="#007FBB"/>
<stop offset="0.7457" stop-color="#008ACC"/>
</linearGradient>
<linearGradient id="paint5_linear_462_3774" x1="57.8953" y1="66.4203" x2="153.933" y2="92.8452" gradientUnits="userSpaceOnUse">
<stop offset="0.1297" stop-color="#2483C5"/>
<stop offset="0.1672" stop-color="#2486C7"/>
<stop offset="0.676" stop-color="#29B1DF"/>
<stop offset="0.9352" stop-color="#2BC2E8"/>
</linearGradient>
<linearGradient id="paint6_linear_462_3774" x1="44.6818" y1="48.1609" x2="157.763" y2="79.2752" gradientUnits="userSpaceOnUse">
<stop offset="0.1297"/>
<stop offset="0.3277" stop-color="#00334B"/>
<stop offset="0.5276" stop-color="#006190"/>
<stop offset="0.6723" stop-color="#007FBB"/>
<stop offset="0.7457" stop-color="#008ACC"/>
</linearGradient>
<linearGradient id="paint7_linear_462_3774" x1="46.2757" y1="43.6431" x2="46.2758" y2="43.6432" gradientUnits="userSpaceOnUse">
<stop stop-color="#682C90"/>
<stop offset="0.496" stop-color="#817CB9"/>
<stop offset="1" stop-color="white"/>
</linearGradient>
<linearGradient id="paint8_linear_462_3774" x1="143.476" y1="65.1245" x2="86.1992" y2="49.3647" gradientUnits="userSpaceOnUse">
<stop stop-color="#682C90"/>
<stop offset="0.496" stop-color="#817CB9"/>
<stop offset="1" stop-color="white"/>
</linearGradient>
<linearGradient id="paint9_linear_462_3774" x1="141.61" y1="71.9066" x2="84.3334" y2="56.1469" gradientUnits="userSpaceOnUse">
<stop stop-color="#682C90"/>
<stop offset="0.496" stop-color="#817CB9"/>
<stop offset="1" stop-color="white"/>
</linearGradient>
<linearGradient id="paint10_linear_462_3774" x1="143.186" y1="66.179" x2="85.9088" y2="50.4192" gradientUnits="userSpaceOnUse">
<stop stop-color="#682C90"/>
<stop offset="0.496" stop-color="#817CB9"/>
<stop offset="1" stop-color="white"/>
</linearGradient>
<linearGradient id="paint11_linear_462_3774" x1="39.0173" y1="82.5845" x2="130.751" y2="107.825" gradientUnits="userSpaceOnUse">
<stop offset="0.1297" stop-color="#3B67AD"/>
<stop offset="0.5697" stop-color="#227CAA"/>
<stop offset="0.9352" stop-color="#118AA8"/>
</linearGradient>
<linearGradient id="paint12_linear_462_3774" x1="143.337" y1="65.6308" x2="86.0597" y2="49.871" gradientUnits="userSpaceOnUse">
<stop stop-color="#682C90"/>
<stop offset="0.496" stop-color="#817CB9"/>
<stop offset="1" stop-color="white"/>
</linearGradient>
<linearGradient id="paint13_linear_462_3774" x1="41.0666" y1="61.2799" x2="154.148" y2="92.3943" gradientUnits="userSpaceOnUse">
<stop offset="0.1297"/>
<stop offset="0.3277" stop-color="#00334B"/>
<stop offset="0.5276" stop-color="#006190"/>
<stop offset="0.6723" stop-color="#007FBB"/>
<stop offset="0.7457" stop-color="#008ACC"/>
</linearGradient>
<linearGradient id="paint14_linear_462_3774" x1="41.0666" y1="61.2799" x2="133.073" y2="86.5954" gradientUnits="userSpaceOnUse">
<stop offset="0.1297" stop-color="#3A67B0"/>
<stop offset="0.5622" stop-color="#357FBD"/>
<stop offset="0.9352" stop-color="#3290C6"/>
</linearGradient>
<linearGradient id="paint15_linear_462_3774" x1="157.736" y1="79.5296" x2="252.896" y2="105.713" gradientUnits="userSpaceOnUse">
<stop offset="0.1724" stop-color="#4E5CA8"/>
<stop offset="0.9937" stop-color="#1FC3F3"/>
</linearGradient>
</defs>
</svg>
