<?xml version="1.0" encoding="UTF-8"?><svg id="Layer_1" xmlns="http://www.w3.org/2000/svg" xmlns:xlink="http://www.w3.org/1999/xlink" viewBox="0 0 660 200"><defs><style>.cls-1{fill:url(#linear-gradient);}.cls-2{fill:#231f20;}.cls-3{fill:url(#linear-gradient-3);}.cls-4{fill:url(#linear-gradient-2);}</style><linearGradient id="linear-gradient" x1="96.96" y1="44.38" x2="179.7" y2="127.13" gradientUnits="userSpaceOnUse"><stop offset=".21" stop-color="#494cdb"/><stop offset=".35" stop-color="#4447cf"/><stop offset=".59" stop-color="#393cb1"/><stop offset=".9" stop-color="#272981"/><stop offset="1" stop-color="#212370"/></linearGradient><linearGradient id="linear-gradient-2" x1="161.08" y1="138.85" x2="83.21" y2="60.99" gradientUnits="userSpaceOnUse"><stop offset="0" stop-color="#00bcff"/><stop offset=".93" stop-color="#1c3e5e"/></linearGradient><linearGradient id="linear-gradient-3" x1="57.56" y1="136.19" x2="135.4" y2="58.35" gradientUnits="userSpaceOnUse"><stop offset=".22" stop-color="#75e078"/><stop offset=".33" stop-color="#71db74"/><stop offset=".45" stop-color="#67cd6a"/><stop offset=".59" stop-color="#56b759"/><stop offset=".72" stop-color="#3f9741"/><stop offset=".86" stop-color="#226f23"/><stop offset="1" stop-color="#004100"/></linearGradient></defs><g><path class="cls-2" d="M233.09,63.66h55.34v14.54h-39.35v15.47h34.68v14.54h-34.68v28.14h-15.99V63.66Z"/><path class="cls-2" d="M294.32,125.75l9.45-11.32c6.54,5.4,13.39,8.83,21.7,8.83,6.54,0,10.49-2.6,10.49-6.85v-.21c0-4.05-2.49-6.13-14.64-9.24-14.64-3.74-24.09-7.79-24.09-22.22v-.21c0-13.19,10.59-21.91,25.44-21.91,10.59,0,19.63,3.32,27,9.24l-8.31,12.05c-6.44-4.47-12.77-7.17-18.9-7.17s-9.35,2.8-9.35,6.33v.21c0,4.78,3.12,6.33,15.68,9.55,14.75,3.84,23.05,9.14,23.05,21.81v.21c0,14.43-11.01,22.53-26.69,22.53-11.01,0-22.12-3.84-30.84-11.63Z"/><path class="cls-2" d="M360.65,96.57h31.98v15.16h-31.98v-15.16Z"/><path class="cls-2" d="M401.44,63.66h15.99v72.69h-15.99V63.66Z"/><path class="cls-2" d="M427.71,125.75l9.45-11.32c6.54,5.4,13.39,8.83,21.7,8.83,6.54,0,10.49-2.6,10.49-6.85v-.21c0-4.05-2.49-6.13-14.64-9.24-14.64-3.74-24.09-7.79-24.09-22.22v-.21c0-13.19,10.59-21.91,25.44-21.91,10.59,0,19.63,3.32,27,9.24l-8.31,12.05c-6.44-4.47-12.77-7.17-18.9-7.17s-9.35,2.8-9.35,6.33v.21c0,4.78,3.12,6.33,15.68,9.55,14.74,3.84,23.05,9.14,23.05,21.81v.21c0,14.43-11.01,22.53-26.69,22.53-11.01,0-22.12-3.84-30.84-11.63Z"/><path class="cls-2" d="M518.99,63.14h14.75l31.15,73.2h-16.72l-6.65-16.3h-30.74l-6.65,16.3h-16.3l31.15-73.2Zm16.82,42.78l-9.66-23.57-9.66,23.57h19.31Z"/><path class="cls-2" d="M563.8,100.21v-.21c0-20.66,15.57-37.59,37.9-37.59,13.71,0,21.91,4.57,28.66,11.21l-10.18,11.73c-5.61-5.09-11.32-8.2-18.59-8.2-12.25,0-21.08,10.18-21.08,22.64v.21c0,12.46,8.62,22.84,21.08,22.84,8.31,0,13.39-3.32,19.11-8.51l10.18,10.28c-7.48,7.99-15.78,12.98-29.8,12.98-21.39,0-37.28-16.51-37.28-37.38Z"/></g><g><path class="cls-1" d="M191.53,87.2c-1.18,2.04-2.62,4.2-4.19,6.32-.02,.02-.03,.04-.05,.07-2.13,2.86-4.51,5.64-6.87,7.99-.28,.28-.57,.55-.84,.82-.26,.25-.52,.48-.78,.72-4.48,4.1-9.59,7.53-15.15,10.14-3.95,1.86-8.12,3.3-12.48,4.27-4.29,.97-8.76,1.47-13.35,1.47-8.28,0-16.17-1.66-23.37-4.66,10.3-4.29,19.17-11.34,25.68-20.22,1.31-1.78,2.52-3.63,3.63-5.55-3.96-6.85-9.22-12.85-15.44-17.68-4.22-3.27-8.88-6-13.88-8.08-4.51-1.88-9.31-3.24-14.3-3.99-2.96-.44-5.98-.67-9.07-.67-9.54,0-18.57,2.2-26.61,6.12,2.06-1.22,4.17-2.37,6.32-3.44,13.23-6.58,28.15-10.28,43.94-10.28,17.66,0,34.23,4.64,48.58,12.75,1.73,.98,3.43,2.01,5.1,3.1,4.17,2.69,8.11,5.69,11.81,8.97,2.08,1.84,6.74,6.22,11.32,11.82Z"/><path class="cls-4" d="M200.35,100c-16.93,29.26-48.41,49.05-84.56,49.42,1.94-.03,3.86-.16,5.75-.37-2.41,.23-4.85,.36-7.32,.37h-.02c-.17,0-.34,0-.51,0-19.16-.32-36.16-9.52-47.08-23.64-1.66-2.15-3.18-4.42-4.55-6.78,1.11-1.92,2.32-3.77,3.63-5.55,.99-1.36,2.05-2.67,3.16-3.95,5.53-6.35,12.36-11.56,20.08-15.19,6.5,8.78,15.31,15.76,25.54,20.02,7.2,3,15.09,4.66,23.37,4.66,4.59,0,9.06-.5,13.35-1.47,4.35-.97,8.53-2.41,12.48-4.27,5.56-2.61,10.67-6.04,15.15-10.14,.26-.24,.52-.48,.78-.72,.28-.26,.57-.54,.84-.82,2.51-2.45,4.81-5.13,6.87-7.99,.01-.03,.03-.05,.05-.07,1.58-2.13,3.02-4.28,4.19-6.32,3.26,4.02,6.2,8.29,8.81,12.8Z"/><path class="cls-3" d="M143.77,88.59c-1.11,1.92-2.32,3.77-3.63,5.55-7.73-3.56-16.33-5.55-25.4-5.55s-17.98,2.06-25.82,5.74c-7.72,3.63-14.55,8.83-20.08,15.19-1.11,1.28-2.17,2.59-3.16,3.95-1.31,1.78-2.52,3.63-3.63,5.55,1.37,2.36,2.89,4.63,4.55,6.78,10.92,14.12,27.92,23.31,47.08,23.64-2.86-.03-5.68-.18-8.47-.45-32.55-3.11-60.49-22.03-76.09-48.98,2.32-4.01,4.91-7.84,7.76-11.47,2.39-3.07,4.98-6,7.73-8.76,5.92-5.97,12.6-11.18,19.87-15.48,8.04-3.92,17.06-6.12,26.61-6.12,3.08,0,6.11,.23,9.07,.67,5,.75,9.79,2.1,14.3,3.99,5,2.08,9.66,4.81,13.88,8.08,6.22,4.83,11.47,10.83,15.44,17.68Z"/></g></svg>