

<?xml version="1.0" encoding="utf-8"?>
<!-- Generator: Adobe Illustrator 26.3.1, SVG Export Plug-In . SVG Version: 6.00 Build 0)  -->
<svg version="1.1" id="Layer_1" xmlns="http://www.w3.org/2000/svg" xmlns:xlink="http://www.w3.org/1999/xlink" x="0px" y="0px"
	 viewBox="0 0 364 125" style="enable-background:new 0 0 364 125;" xml:space="preserve">
<style type="text/css">
	.st0{fill:#FFFFFF;}
	.st1{fill:#2E2F71;}
	.st2{fill:#8C5CA6;}
	.st3{fill:#42BFB9;}
	.st4{fill:#A9CB38;}
	.st5{fill:#5A9ECC;}
</style>
<g>
	<path class="st0" d="M20.0199814,97.9098282c-0.0055542-0.0083008-0.010376-0.0170898-0.0165405-0.0258789
		C20.0085068,97.8927383,20.0155869,97.9010391,20.0199814,97.9098282z"/>
	<path class="st0" d="M51.4106064,67.6227188l3.2213135,1.6445312l0.3314209,0.6489258v16.3540039
		c0,0.7832031,0.4193115,1.5039062,1.097229,1.8930664c0.6779175,0.394043,1.5140381,0.3891602,2.1868896-0.0048828
		l4.0900879-2.3876953l4.0900269,2.3876953c0.3389893,0.1982422,0.7180786,0.2958984,1.0997314,0.2958984
		c0.3765869,0,0.7507324-0.0952148,1.0871582-0.2910156c0.6779175-0.3891602,1.097229-1.1098633,1.097229-1.8930664V69.9156876
		l0.3314209-0.6484375l3.2213135-1.6445312c0.9541016-0.4873047,1.4135742-1.5996094,1.0846558-2.6191406l-1.1148071-3.4418907
		l1.1148071-3.4423828c0.3289185-1.0195312-0.1305542-2.1318359-1.0846558-2.6186523l-3.2213135-1.6445312l-1.6470947-3.2216797
		c-0.4870605-0.9541016-1.6068726-1.4057617-2.6187134-1.0844727l-3.4397583,1.1147461l-3.4423218-1.1147461
		c-1.024353-0.3212891-2.1316528,0.1303711-2.6187134,1.0844727l-1.6445923,3.2216797l-3.2213135,1.6445312
		c-0.9541016,0.4868164-1.4135742,1.5966797-1.0846558,2.6186523l1.1148071,3.4423828l-1.1148071,3.4418907
		C49.9970322,66.0255508,50.4565048,67.1354141,51.4106064,67.6227188z M65.3429184,82.4659805l-1.9057007-1.1118164
		c-0.3389282-0.1987305-0.7205811-0.2963867-1.0996704-0.2963867c-0.3791504,0-0.7608032,0.0976562-1.0997314,0.2963867
		l-1.9057007,1.1118164v-9.034668l3.0054321-0.9731445l3.0053711,0.9741211V82.4659805z M55.814537,60.8888359l-0.7582397-2.3427734
		l2.194397-1.1196289c0.4092407-0.2084961,0.7431641-0.5424805,0.9515991-0.9516602l1.119812-2.1943359l2.3425293,0.7607422
		c0.4368896,0.140625,0.9088745,0.140625,1.3457642,0l2.3425903-0.7607422l1.119812,2.1943359
		c0.2108765,0.4091797,0.5422974,0.7431641,0.9515381,0.9516602l2.194458,1.1196289l-0.7608032,2.3427734
		c-0.140564,0.4365234-0.140564,0.9086914,0,1.3457031l0.7608032,2.3422813l-2.194458,1.1201172
		c-0.4092407,0.2080078-0.7406616,0.5419922-0.9515381,0.9516602l-1.119812,2.1943359l-2.3425903-0.7583008
		c-0.2184448-0.0703125-0.4468994-0.1054688-0.6728516-0.1054688c-0.2260132,0-0.4544678,0.0351562-0.6729126,0.1054688
		l-2.3425293,0.7583008l-1.119812-2.1943359c-0.2084351-0.409668-0.5423584-0.7436523-0.9515991-0.9516602l-2.194397-1.1201172
		l0.7582397-2.3422813C55.955101,61.7975273,55.955101,61.3253593,55.814537,60.8888359z"/>
	<path class="st0" d="M87.6109848,72.4982071V46.7604179c0-3.3696289-2.7392578-6.1088867-6.1087036-6.1088867H43.1727524
		c-3.3694458,0-6.1087036,2.7392578-6.1087036,6.1088867v25.7377892c0,3.3696289,2.7392578,6.1088867,6.1087036,6.1088867h3.7762451
		c1.2076416,0,2.1843262-0.9765625,2.1843262-2.184082c0-1.2080078-0.9766846-2.1845703-2.1843262-2.1845703h-3.7762451
		c-0.9591064,0-1.7399902-0.7807617-1.7399902-1.7402344V46.7604179c0-0.9589844,0.7808838-1.7397461,1.7399902-1.7397461
		h38.3295288c0.9591064,0,1.7399902,0.7807617,1.7399902,1.7397461v25.7377892c0,0.9594727-0.7808838,1.7402344-1.7399902,1.7402344
		h-3.944397c-1.2077026,0-2.1843872,0.9765625-2.1843872,2.1845703c0,1.2075195,0.9766846,2.184082,2.1843872,2.184082h3.944397
		C84.871727,78.6070938,87.6109848,75.867836,87.6109848,72.4982071z"/>
	<path class="st0" d="M33.8662338,117.4308243c-0.1766357-0.2915039-0.3505249-0.5839844-0.5088501-0.8852539
		C33.5169907,116.8463516,33.687767,117.1407852,33.8662338,117.4308243z"/>
	<path class="st0" d="M102.3693466,46.3009453c-0.7544556-2.3378906-1.5780029-4.6450195-2.7041016-6.8266602
		c-1.9684448-3.8115234-4.692627-7.065918-7.7231445-10.055666c-2.2113647-2.1811523-4.633606-4.1225586-7.3320923-5.7001953
		c-2.1096802-1.2333984-4.3618774-2.1157227-6.6409912-2.9829102c-2.2973633-0.8735352-4.6311646-1.6123047-6.9736938-2.3354492
		c-1.4380493-0.4443359-2.90625-0.7910156-4.3951416-0.9829102c-7.1757812-0.9257812-14.0289307,0.2094727-20.56073,3.3095703
		l0.4971313,0.2275391c0.1211548,0.2236328,0.3809814,0.5302734,0.2328491,0.7158203
		c-0.3201294,0.4003906,0.0006714,0.2900391,0.1732788,0.2680664c0.1864014-0.0229492,0.3665771-0.0991211,0.5473022-0.15625
		c2.2233276-0.7055664,4.4208984-1.512207,6.7452393-1.840332c1.260376-0.1777344,2.4894409-0.5581055,3.7636719-0.6303711
		c1.1762695-0.0668945,2.3594971-0.0253906,3.5332642-0.1147461c3.5753784-0.2714844,7.052124,0.378418,10.5076294,1.1342773
		c1.5548096,0.3398438,3.0505981,0.9189453,4.5432129,1.5019531c3.6212158,1.4145508,7.013855,3.215332,10.135376,5.5385742
		c2.3156128,1.722168,4.388855,3.7089844,6.4213257,5.7436543c0.1688843,0.1694336,0.3414917,0.2792969,0.6057129,0.3491211
		c0.5097046,0.1337891,1.1110229,0.1386719,1.482666,0.6025391c1.5101929,1.8876953,2.565979,4.0366211,3.5288696,6.2324219
		c0.8398438,1.9140625,1.5454102,3.8823242,2.2094727,5.862793c1.453125,4.3344727,2.3833618,8.7714844,2.4882202,13.3574219
		c0.0275879,1.2333984,0.0043945,2.4672852,0.0043945,3.7011719l0.1675415-0.0019531
		c0.1795654-1.612793,0.4187012-3.222168,0.5178833-4.8413086c0.0709229-1.152832-0.0546265-2.3183594-0.1066895-3.4760742
		C103.9040756,51.9581718,103.2751083,49.1066093,102.3693466,46.3009453z"/>
	<path class="st0" d="M12.4319067,91.9161758c-0.0727539-0.1274414-0.1444092-0.2558594-0.2129517-0.387207
		C12.2878027,91.6598282,12.3587866,91.7892227,12.4319067,91.9161758z"/>
	<path class="st0" d="M36.6328354,99.0187149c-0.4607544-0.3242188-0.9089355-0.5473633-1.4242554-0.6435547
		c-0.5046997-0.09375-0.9955444-0.2255859-1.4631958-0.4609375c-1.0614014-0.5351562-2.0180054-1.1987305-2.8691406-2.0380859
		c-0.7539062-0.7431641-1.4186401-0.5327148-1.7877197,0.4707031c-0.2108765,0.5727539-0.0489502,1.1240234,0.0075684,1.6879883
		c0.1575317,1.5668945,1.0256348,2.2792969,2.5747681,2.0200195c1.4431152-0.2416992,2.8623047-0.6201172,4.3223267-0.7792969
		C36.1921616,99.2530899,36.4112167,99.2213516,36.6328354,99.0187149z"/>
	<path class="st0" d="M24.3670273,88.7355118c0.2749634,0.2246094,0.6213989,0.3642578,0.9428101,0.5253906
		c0.1399536,0.0698242,0.3025513,0.065918,0.430603-0.0439453c0.1443481-0.125,0.0859985-0.28125,0.0275879-0.4208984
		c-0.05896-0.1396484-0.119873-0.2836914-0.2121582-0.4003906c-0.7167969-0.9116211-1.371521-1.8857422-2.1781006-2.7104492
		c-1.7286377-1.7666016-2.9783936-3.8432617-4.1138916-6.0039062c-0.3163452-0.6035156-0.7293701-1.1606445-0.9126587-1.8334961
		c-0.741333-2.7167969-1.4493408-5.4487305-1.6257324-8.2661133c-0.1387329-2.2138672-0.6879883-4.3540039-1.015626-6.5312462
		c-0.3182373-2.1162109-0.7098999-4.2148438-0.8505249-6.3574219c-0.1085815-1.6577148-0.081604-3.3051758,0.1010742-4.9511719
		c0.1782837-1.6064453,0.3897705-3.2089844,0.8272705-4.7700195c0.7990732-2.8505859,2.0186777-5.5283203,3.3512583-8.1630859
		c1.3301392-2.6298828,3.0136108-5.0151367,4.894165-7.2705097c1.1687622-1.4013672,2.4178467-2.7353516,3.522644-4.1918945
		c0.3590088-0.4731445,0.6558838-0.9760742,0.9308472-1.6552734c-0.6810303,0.2109375-1.2428589,0.375-1.6847534,0.8427734
		c-2.1956787,2.324707-4.3480225,4.6943359-6.6228027,6.9404316c-2.647583,2.6142578-4.2858896,5.7807617-5.4389658,9.2495117
		c-1.0601807,3.1884766-1.5233765,6.4775391-1.5058594,9.8271484c0.0157471,2.8945312,0.4506836,5.7578125,0.8185425,8.6230469
		c0.2391357,1.8652344,0.5134277,3.7343712,0.6766357,5.5991173c0.177002,2.0161133,0.4343872,4.0029297,0.8662109,5.9731445
		c0.793458,3.6230469,2.0745859,7.0737305,3.7950449,10.3515625c0.7243652,1.3808594,1.7098389,2.5849609,2.8051758,3.715332
		C22.8762436,87.5152969,23.6187973,88.1251602,24.3670273,88.7355118z"/>
	<path class="st0" d="M65.1332626,106.4986954c-0.9252319-0.0859375-1.8504028-0.1118164-2.7800293-0.1328125
		c-1.4041748-0.0322266-2.8039551-0.246582-4.2086792-0.2856445c-2.743042-0.0751953-5.4534302-0.5112305-8.1719971-0.7949219
		c-2.144165-0.2231445-4.3210449-0.6791992-6.2417603-1.831543c-0.1293335-0.0776367-0.2749634-0.1313477-0.4174194-0.1826172
		c-0.3741455-0.1342773-0.5881958-0.0083008-0.630249,0.3950195c-0.0514526,0.4868164,0.0270386,0.9584961,0.2542725,1.3847656
		c0.3219604,0.6025391,0.6314087,1.2246094,1.0413208,1.7675781c0.9396362,1.2436523,2.1291504,2.1098633,3.7761841,2.0849609
		c1.1392822-0.0170898,2.2785645-0.065918,3.4171753-0.1274414c0.5103149-0.0283203,1.0231323-0.0732422,1.5234375-0.2133789
		c1.3564453-0.3798828,2.7423706-0.6157227,4.1339722-0.824707c0.2504883-0.0375977,0.4908447-0.0004883,0.7369385,0.0268555
		c1.2459717,0.1396484,2.4925537,0.2705078,3.6123657,0.3911133c1.5516968-0.0390625,2.9319458-0.2314453,4.1427612-1.065918
		c0.1531982-0.1044922,0.399231-0.1918945,0.348999-0.4033203
		C65.6072006,106.4235001,65.3297348,106.5167618,65.1332626,106.4986954z"/>
	<path class="st0" d="M62.3375473,6.9039712c0.0119019,0.1831055,0.1901855,0.2753906,0.3602905,0.3178711
		c0.1079712,0.027832,0.2265625,0.0214844,0.34021,0.0205078c0.6678467-0.0058594,1.3287964,0.0761719,1.9872437,0.1743164
		c4.1986694,0.6264644,8.3408203,1.5395503,12.4390259,2.6264644c2.8516235,0.7558594,5.3548584,2.2631836,7.6453247,4.0996094
		c1.5962524,1.2792969,2.8309326,2.918457,4.1936646,4.4277344c0.1813965,0.2011719,0.335144,0.5449219,0.6816406,0.3666992
		c0.3339233-0.171875,0.2366333-0.5234375,0.2033691-0.8227539c-0.0100098-0.0922852-0.0552368-0.1816406-0.0859985-0.2705078
		c-0.7400513-2.1538086-1.793335-4.0708008-3.588501-5.5830078c-2.0029907-1.6870117-4.1741943-3.0791016-6.6033325-3.9980469
		c-3.8823242-1.4697261-7.9642334-1.9355464-12.0869141-2.0966792c-0.4004517,0-0.8027954-0.0322266-1.1989136,0.0058594
		c-1.3218994,0.1254883-2.670166,0.0507812-3.9494019,0.4980469C62.5472031,6.7150064,62.3249741,6.7071939,62.3375473,6.9039712z"
		/>
	<path class="st0" d="M113.4086533,51.3551445c-0.6126709-4.2475586-1.8950195-8.2617188-3.9551392-12.0112305
		c-2.3155518-4.2172852-5.5419312-7.6586933-9.3175049-10.6044941c-0.1374512-0.1074219-0.2661133-0.2988281-0.5762329-0.2070312
		c0.3615723,0.2177734,0.5524292,0.5043945,0.7595215,0.7758789c1.8253784,2.3876953,3.6456909,4.7802753,5.4772949,7.1635761
		c2.1083984,2.7451172,3.871582,5.6689453,4.9776001,8.9804688c0.9942627,2.9790039,1.5535278,6.0244141,1.7224121,9.1503906
		c0.0288696,0.53125,0.052063,1.0649414,0.0457764,1.5966797c-0.0206909,1.7216797,0.1067505,3.4423828-0.2246704,5.1601562
		c-0.2805786,1.4516602-0.5768433,2.8994102-0.8618164,4.3598595c0.0344849-0.0424805,0.0809326-0.0805664,0.1016846-0.1289062
		C113.484581,61.015789,114.1198349,56.2872734,113.4086533,51.3551445z"/>
	<path class="st0" d="M11.9031591,90.8917618c-0.1021729-0.2255859-0.1954346-0.4584961-0.2861938-0.6933594
		C11.7083349,90.4327774,11.8003759,90.6666641,11.9031591,90.8917618z"/>
	<path class="st0" d="M110.1778793,54.0201836c-0.2190552-3.2856445-0.8862915-6.484375-2.6444702-9.3701172
		c0.7488403,3.1220703,1.4147949,6.2558594,1.6420288,9.4575195c0.2272339,3.2021484-0.1079712,6.4106445,0.0947876,9.6245117
		C110.2275009,60.5558281,110.3957138,57.2921562,110.1778793,54.0201836z"/>
	<path class="st0" d="M103.8444443,84.5792618c-0.3527832,0.3198242-0.5322876,0.7001953-0.7331543,1.0634766
		c-1.0764771,1.9482422-2.0431519,3.9799805-3.4334717,5.7192383c-2.4367065,3.046875-4.5784302,6.3320312-7.3352661,9.1220703
		c-1.0181274,1.0302734-2.0939941,1.9804688-3.2834473,2.8134766c-0.6973877,0.487793-1.3890991,1.0039062-1.9596558,1.6489258
		c-0.5366821,0.605957-0.4745483,0.8564453,0.2780762,1.175293c0.1029053,0.0439453,0.2196655,0.081543,0.3295288,0.0805664
		c1.0068359-0.0078125,2.0117798,0.0566406,3.0192261-0.0932617c1.557312-0.230957,3.0204468-0.7558594,4.4584961-1.3510742
		c1.2189941-0.5043945,2.3074341-1.2792969,3.300415-2.1157227c1.0193481-0.8579102,1.8059082-1.9594727,2.3400269-3.2246094
		c0.562439-1.3320312,1.0037231-2.7045898,1.4537354-4.0737305c0.5234985-1.590332,0.755127-3.2519531,1.104126-4.8847656
		c0.317627-1.4882812,0.5567627-2.9882812,0.7005005-4.4985352
		C104.1244125,85.5318985,104.246788,85.0089493,103.8444443,84.5792618z"/>
	<path class="st0" d="M80.4126205,97.0890274c-0.7990723,0.050293-1.414856,0.3896484-2.0387573,0.6777344
		c-3.9733276,1.8349609-8.1663208,2.784668-12.515625,3.0244141c-3.4491577,0.190918-6.880127-0.0585938-10.2879028-0.6640625
		c-6.7182007-1.1953125-12.7547607-3.8754883-17.9978638-8.2558594c-5.1897583-4.3359375-9.0061646-9.7202148-11.8157349-15.8364258
		c-1.401001-3.0493164-2.3444214-6.2592773-3.2138062-9.5126953c0.0715942,1.0395508-0.0759277,2.0795898-0.0187988,3.0966797
		c0.0577393,1.0454102,0.4456787,2.0722656,0.6860352,3.1079102c0.2843628,1.2231445,0.741333,2.3852539,1.1876221,3.5556641
		c0.9785767,2.5668945,2.171814,4.9916992,3.8653564,7.1889648c1.4744263,1.9125977,2.9256592,3.8256836,4.5997314,5.5766602
		c1.972229,2.0634766,4.1735229,3.8393555,6.4928589,5.4726562c0.7927856,0.5576172,1.4707031,1.2822266,2.3538818,1.7006836
		c1.43927,0.6821289,2.869812,1.3935547,4.352417,1.9672852c1.8359985,0.7104492,3.68396,1.3847656,5.6191406,1.8378906
		c1.6828003,0.3945312,3.3926392,0.6420898,5.0686035,1.0595703c0.2008667,0.050293,0.4155273,0.0717773,0.6226807,0.0629883
		c1.1072388-0.0458984,2.2019653,0.1318359,3.3041992,0.1748047c1.5905762,0.0629883,3.1698608,0.2998047,4.7755127-0.0131836
		c0.8800049-0.171875,1.802063-0.2143555,2.7197876-0.203125c0.8887939,0.0112305,1.7945557-0.0566406,2.6664429-0.2260742
		c3.1779785-0.6176758,6.184021-1.7299805,9.0067749-3.3237305C80.0322495,97.4518204,80.2431259,97.3639297,80.4126205,97.0890274z
		"/>
	<path class="st0" d="M19.5614243,98.9947891c0.0614624-0.0722656,0.1355591-0.1337891,0.2008667-0.2036133
		c0.2963867-0.3164062,0.3876343-0.5869141,0.2896729-0.8120117c0.017395,0.0581055,0.0269775,0.1181641,0.0196533,0.1821289
		c-0.0132446,0.1147461-0.0664062,0.2392578-0.1598511,0.3725586c-0.0466919,0.0668945-0.1034546,0.1362305-0.1702271,0.2075195
		c-0.0648804,0.0688477-0.138916,0.1308594-0.2000122,0.203125c-1.2667847,1.4912109-2.1412354,3.1142578-2.374939,4.9643555
		c-0.0778809,0.6166992-0.0845947,1.2587891-0.0108643,1.9296875c0.0324097,0.2949219,0.0858154,0.5795898,0.1534424,0.8569336
		c-0.0603027-0.2578125-0.1066895-0.5234375-0.1367798-0.796875
		C16.8774033,103.211586,17.8703842,100.9855118,19.5614243,98.9947891z"/>
	<path class="st0" d="M31.389061,112.4523087c-0.0040894-0.0078125-0.0101929-0.0141602-0.0143433-0.0219727
		c0.1027222,0.2055664,0.2000122,0.4130859,0.298584,0.6206055c0.105957,0.2231445,0.2144775,0.4453125,0.3209839,0.6679688
		c0.4014282,0.8383789,0.7814941,1.6879883,1.2033691,2.5141602c-0.4068604-0.8041992-0.7756958-1.6293945-1.1652222-2.4438477
		C31.8183823,113.3439102,31.6119003,112.8937149,31.389061,112.4523087z"/>
	<path class="st0" d="M4.9712749,46.9244804c0.0042114,0.5180664,0.0327759,1.0327148,0.0722656,1.5463867
		c-0.0402832-0.5175781-0.0671997-1.0366211-0.0718384-1.5585938C4.9717021,46.9161797,4.9712138,46.9200859,4.9712749,46.9244804z"
		/>
	<path class="st0" d="M5.2270122,50.1085625c-0.0629883-0.4355469-0.1135254-0.8735352-0.1536865-1.3125
		C5.1131816,49.2355156,5.164268,49.6725273,5.2270122,50.1085625z"/>
	<path class="st0" d="M6.5469584,40.882c0.0038452-0.0068359,0.0077515-0.0131836,0.0115967-0.0200195
		C6.5546489,40.8688164,6.5508037,40.875164,6.5469584,40.882z"/>
	<path class="st0" d="M10.1673193,75.2980118c0.2347412-1.9658203,0.3596802-3.9433594,0.3998413-5.9238281
		c0.0420532-2.0805664-0.6521606-3.9995117-1.3043213-5.9306602c-1.1135254-3.296875-2.4411006-6.5224609-3.3292842-9.8930664
		c-0.2782593-1.0561523-0.5059814-2.121582-0.6716309-3.1962891c0.0807495,0.5258789,0.1713257,1.0507812,0.281311,1.5722656
		c0.1154785,0.5478516,0.2459717,1.09375,0.3891602,1.6367188c0.8865356,3.3657227,2.212646,6.5869141,3.3244624,9.8789062
		c0.5698242,1.6874962,1.171875,3.3662071,1.2853394,5.1513634c0.0161743,0.2548828,0.0224609,0.512207,0.0172119,0.7719727
		c-0.0401001,1.9775391-0.1647339,3.9521484-0.3989868,5.9150391c-0.1317749,1.1035156-0.2088623,2.2026367-0.2340698,3.2978516
		c-0.0251465,1.0952148,0.0015259,2.1870117,0.0774536,3.2753906c0.1518555,2.1767578,0.5004272,4.340332,1.0236206,6.4941406
		c0.0006714,0.0029297,0.0016479,0.0053711,0.0023193,0.0078125C9.9868383,84.0504532,9.6411963,79.708168,10.1673193,75.2980118z"
		/>
	<path class="st3" d="M112.7407455,45.8199883c-1.2208252-4.5771484-3.5941772-8.5336914-6.7069092-12.0649414
		c-2.4090576-2.7319355-5.1012573-5.1762714-7.8097534-7.6069355c-2.5352783-2.2753906-4.5652466-4.9321289-5.8689575-8.1220703
		c-0.6760254-1.6547852-1.4838867-3.2529297-2.5252075-4.722168c-2.0506592-2.8920898-4.9054565-4.7353516-8.0508423-6.1962886
		C76.5893173,4.6974282,71.073143,3.8517251,65.4113388,3.7394204c-3.1993408-0.0561523-6.3510132,0.359375-9.4599609,1.0463867
		c-4.5759277,1.0112305-8.7758179,2.9785156-12.8514404,5.2358394c-2.7323608,1.5126953-5.1201172,3.4936523-7.5172729,5.4663086
		c-3.8251343,3.1479492-7.5737305,6.390625-10.8792114,10.0854492c-2.4831543,2.7749023-5.3027344,5.0449219-8.5623779,6.8310566
		c-2.921876,1.6010742-5.4835215,3.6889648-7.795289,6.1000977c-0.7119746,0.7426758-1.2992549,1.5307617-1.787231,2.3574219
		C6.5547099,40.8688164,6.5508037,40.875164,6.5469584,40.882c-1.0560303,1.796875-1.5941162,3.7919922-1.5756836,6.0205078
		c0,0.0029297,0.0004272,0.0063477,0.0004272,0.0097656c0.0046387,0.5219727,0.0315552,1.0410156,0.0718384,1.5585938
		c0.0084839,0.1083984,0.0198364,0.2167969,0.0297852,0.3251953c0.0401611,0.4389648,0.0906982,0.8769531,0.1536865,1.3125
		c0.0118408,0.081543,0.0223389,0.1635742,0.0349121,0.2456055c0.1656494,1.074707,0.3933716,2.1401367,0.6716309,3.1962891
		c0.8881836,3.3706055,2.2157588,6.5961914,3.3292842,9.8930664c0.6521606,1.9311485,1.3463745,3.8500938,1.3043213,5.9306602
		c-0.0401611,1.9804688-0.1651001,3.9580078-0.3998413,5.9238281c-0.526123,4.4101562-0.180481,8.7524414,0.8624268,13.0576172
		c0.0022583,0.0097656,0.0040283,0.019043,0.0062866,0.0283203c0.1546021,0.6367188,0.3568115,1.234375,0.5809326,1.8144531
		c0.0907593,0.2348633,0.184021,0.4677734,0.2861938,0.6933594c0.0986328,0.2177734,0.206543,0.4282227,0.3157959,0.637207
		c0.0685425,0.1313477,0.1401978,0.2597656,0.2129517,0.387207c1.2358398,2.1708984,3.0626831,3.8623047,5.5162973,5.0488281
		c0.4764404,0.2304688,0.993042,0.3793945,1.4939575,0.5595703c0.2733765,0.0986328,0.4593506,0.2192383,0.5612793,0.359375
		c0.0061646,0.0087891,0.0109863,0.0175781,0.0165405,0.0258789c0.0142212,0.0224609,0.0219116,0.0458984,0.0319824,0.0693359
		c0.0979614,0.2250977,0.0067139,0.4956055-0.2896729,0.8120117c-0.0653076,0.0698242-0.1394043,0.1313477-0.2008667,0.2036133
		c-1.69104,1.9907227-2.684021,4.2167969-2.3890381,6.9038086c0.0300903,0.2734375,0.0764771,0.5390625,0.1367798,0.796875
		c0.9194336,3.9306641,5.2225342,6.015625,8.9541016,4.1010742c1.8643799-0.9560547,4.1553955-0.222168,5.1114502,1.6337891
		c0.0041504,0.0078125,0.0102539,0.0141602,0.0143433,0.0219727c0.2228394,0.4414062,0.4293213,0.8916016,0.6433716,1.3369141
		c0.3895264,0.8144531,0.7583618,1.6396484,1.1652222,2.4438477c0.0528564,0.1044922,0.1053467,0.2089844,0.159729,0.3125
		c0.1583252,0.3012695,0.3322144,0.59375,0.5088501,0.8852539c0.3182373,0.5244141,0.6603394,1.0356445,1.071167,1.5097656
		c1.6238403,1.8720703,3.6763916,2.5551758,6.0917969,2.2583008c1.6558228-0.2045898,3.1384277-0.8964844,4.567688-1.7094727
		c2.7775879-1.5795898,5.1954346-3.65625,7.6867676-5.6269531c0.8348389-0.6601562,1.7299194-0.8916016,2.7681274-0.7758789
		c1.6954346,0.1894531,3.1755371,0.8945312,4.5558472,1.8427734c2.2772217,1.5629883,4.7233887,2.7675781,7.3791504,3.5375977
		c4.8546143,1.4086914,9.756897,1.8227539,14.7150269,0.6137695c4.8728027-1.1875,9.2622681-3.4008789,13.3209229-6.3261719
		c2.5264893-1.8212891,4.604187-4.015625,6.1602173-6.7226562c1.5271606-2.6572266,2.4053345-5.5405273,3.1001587-8.4916992
		c1.0162354-4.3125,1.3859863-8.7158203,1.7111206-13.1201172c0.2749023-3.7163086,0.8900757-7.3696289,1.9785156-10.9296875
		c0.8687134-2.840332,2.1165771-5.5415039,3.2269287-8.2915039c0.9547729-2.3657188,1.5328369-4.8061485,1.7826538-7.3471642
		C114.3859482,53.7506523,113.7915268,49.7594414,112.7407455,45.8199883z M111.4558945,65.7193985
		c0.2849731-1.4604492,0.5812378-2.9081993,0.8618164-4.3598595c0.3314209-1.7177734,0.2039795-3.4384766,0.2246704-5.1601562
		c0.0062866-0.5317383-0.0169067-1.0654297-0.0457764-1.5966797c-0.1688843-3.1259766-0.7281494-6.1713867-1.7224121-9.1503906
		c-1.1060181-3.3115234-2.8692017-6.2353516-4.9776001-8.9804688c-1.831604-2.3833008-3.6519165-4.7758808-5.4772949-7.1635761
		c-0.2070923-0.2714844-0.3979492-0.5581055-0.7595215-0.7758789c0.3101196-0.0917969,0.4387817,0.0996094,0.5762329,0.2070312
		c3.7755737,2.9458008,7.0019531,6.3872089,9.3175049,10.6044941c2.0601196,3.7495117,3.3424683,7.7636719,3.9551392,12.0112305
		c0.7111816,4.9321289,0.0759277,9.6606445-1.8510742,14.2353477
		C111.5368271,65.6388321,111.4903793,65.676918,111.4558945,65.7193985z M109.1754379,54.1075859
		c-0.2272339-3.2016602-0.8931885-6.3354492-1.6420288-9.4575195c1.7581787,2.8857422,2.425415,6.0844727,2.6444702,9.3701172
		c0.2178345,3.2719727,0.0496216,6.5356445-0.9076538,9.7119141
		C109.0674667,60.5182304,109.4026718,57.3097343,109.1754379,54.1075859z M102.2789536,95.3439102
		c-0.4500122,1.3691406-0.8912964,2.7416992-1.4537354,4.0737305c-0.5341187,1.2651367-1.3206787,2.3666992-2.3400269,3.2246094
		c-0.992981,0.8364258-2.0814209,1.6113281-3.300415,2.1157227c-1.4380493,0.5952148-2.9011841,1.1201172-4.4584961,1.3510742
		c-1.0074463,0.1499023-2.0123901,0.0854492-3.0192261,0.0932617c-0.1098633,0.0009766-0.2266235-0.0366211-0.3295288-0.0805664
		c-0.7526245-0.3188477-0.8147583-0.5693359-0.2780762-1.175293c0.5705566-0.6450195,1.2622681-1.1611328,1.9596558-1.6489258
		c1.1894531-0.8330078,2.2653198-1.7832031,3.2834473-2.8134766c2.7568359-2.7900391,4.8985596-6.0751953,7.3352661-9.1220703
		c1.3903198-1.7392578,2.3569946-3.7709961,3.4334717-5.7192383c0.2008667-0.3632812,0.3803711-0.7436523,0.7331543-1.0634766
		c0.4023438,0.4296875,0.2799683,0.9526367,0.2391357,1.3813477c-0.1437378,1.5102539-0.3828735,3.0102539-0.7005005,4.4985352
		C103.0340805,92.0919571,102.8024521,93.7535782,102.2789536,95.3439102z M68.1719589,101.1075821
		c-0.9177246-0.0112305-1.8397827,0.03125-2.7197876,0.203125c-1.6056519,0.3129883-3.1849365,0.0761719-4.7755127,0.0131836
		c-1.1022339-0.0429688-2.1969604-0.2207031-3.3041992-0.1748047c-0.2071533,0.0087891-0.421814-0.0126953-0.6226807-0.0629883
		c-1.6759644-0.4174805-3.3858032-0.6650391-5.0686035-1.0595703c-1.9351807-0.453125-3.7831421-1.1274414-5.6191406-1.8378906
		c-1.482605-0.5737305-2.913147-1.2851562-4.352417-1.9672852c-0.8831787-0.418457-1.5610962-1.1430664-2.3538818-1.7006836
		c-2.3193359-1.6333008-4.5206299-3.4091797-6.4928589-5.4726562c-1.6740723-1.7509766-3.1253052-3.6640625-4.5997314-5.5766602
		c-1.6935425-2.1972656-2.8867798-4.6220703-3.8653564-7.1889648c-0.4462891-1.1704102-0.9032593-2.3325195-1.1876221-3.5556641
		c-0.2403564-1.0356445-0.6282959-2.0625-0.6860352-3.1079102c-0.0571289-1.0170898,0.0903931-2.0571289,0.0187988-3.0966797
		c0.8693848,3.253418,1.8128052,6.4633789,3.2138062,9.5126953c2.8095703,6.1162109,6.6259766,11.5004883,11.8157349,15.8364258
		c5.243103,4.3803711,11.2796631,7.0605469,17.9978638,8.2558594c3.4077759,0.6054688,6.8387451,0.8549805,10.2879028,0.6640625
		c4.3493042-0.2397461,8.5422974-1.1894531,12.515625-3.0244141c0.6239014-0.2880859,1.2396851-0.6274414,2.0387573-0.6777344
		c-0.1694946,0.2749023-0.3803711,0.362793-0.5674438,0.46875c-2.8227539,1.59375-5.8287964,2.7060547-9.0067749,3.3237305
		C69.9665146,101.0509415,69.0607529,101.1188126,68.1719589,101.1075821z M65.3215561,107.090004
		c-1.2108154,0.8344727-2.5910645,1.0268555-4.1427612,1.065918c-1.119812-0.1206055-2.366394-0.2514648-3.6123657-0.3911133
		c-0.2460938-0.0273438-0.4864502-0.0644531-0.7369385-0.0268555c-1.3916016,0.2089844-2.7775269,0.4448242-4.1339722,0.824707
		c-0.5003052,0.1401367-1.0131226,0.1850586-1.5234375,0.2133789c-1.1386108,0.0615234-2.2778931,0.1103516-3.4171753,0.1274414
		c-1.6470337,0.0249023-2.8365479-0.8413086-3.7761841-2.0849609c-0.4099121-0.5429688-0.7193604-1.1650391-1.0413208-1.7675781
		c-0.2272339-0.4262695-0.3057251-0.8979492-0.2542725-1.3847656c0.0420532-0.4033203,0.2561035-0.5292969,0.630249-0.3950195
		c0.1424561,0.0512695,0.2880859,0.1049805,0.4174194,0.1826172c1.9207153,1.1523438,4.0975952,1.6083984,6.2417603,1.831543
		c2.7185669,0.2836914,5.4289551,0.7197266,8.1719971,0.7949219c1.4047241,0.0390625,2.8045044,0.253418,4.2086792,0.2856445
		c0.9296265,0.0209961,1.8547974,0.046875,2.7800293,0.1328125c0.1964722,0.0180664,0.473938-0.0751953,0.5372925,0.1879883
		C65.720787,106.8981094,65.4747543,106.9855118,65.3215561,107.090004z M50.3259506,58.1193047
		c-0.3289185-1.0219727,0.1305542-2.1318359,1.0846558-2.6186523l3.2213135-1.6445312l1.6445923-3.2216797
		c0.4870605-0.9541016,1.5943604-1.4057617,2.6187134-1.0844727l3.4423218,1.1147461l3.4397583-1.1147461
		c1.0118408-0.3212891,2.1316528,0.1303711,2.6187134,1.0844727l1.6470947,3.2216797l3.2213135,1.6445312
		c0.9541016,0.4868164,1.4135742,1.5991211,1.0846558,2.6186523l-1.1148071,3.4423828l1.1148071,3.4418907
		c0.3289185,1.0195312-0.1305542,2.1318359-1.0846558,2.6191406l-3.2213135,1.6445312l-0.3314209,0.6484375v16.3544922
		c0,0.7832031-0.4193115,1.5039062-1.097229,1.8930664c-0.3364258,0.1958008-0.7105713,0.2910156-1.0871582,0.2910156
		c-0.3816528,0-0.7607422-0.0976562-1.0997314-0.2958984l-4.0900269-2.3876953l-4.0900879,2.3876953
		c-0.6728516,0.394043-1.5089722,0.3989258-2.1868896,0.0048828c-0.6779175-0.3891602-1.097229-1.1098633-1.097229-1.8930664
		V69.9161758l-0.3314209-0.6489258l-3.2213135-1.6445312c-0.9541016-0.4873047-1.4135742-1.597168-1.0846558-2.6191406
		l1.1148071-3.4418907L50.3259506,58.1193047z M77.5578842,78.6070938c-1.2077026,0-2.1843872-0.9765625-2.1843872-2.184082
		c0-1.2080078,0.9766846-2.1845703,2.1843872-2.1845703h3.944397c0.9591064,0,1.7399902-0.7807617,1.7399902-1.7402344V46.7604179
		c0-0.9589844-0.7808838-1.7397461-1.7399902-1.7397461H43.1727524c-0.9591064,0-1.7399902,0.7807617-1.7399902,1.7397461
		v25.7377892c0,0.9594727,0.7808838,1.7402344,1.7399902,1.7402344h3.7762451c1.2076416,0,2.1843262,0.9765625,2.1843262,2.1845703
		c0,1.2075195-0.9766846,2.184082-2.1843262,2.184082h-3.7762451c-3.3694458,0-6.1087036-2.7392578-6.1087036-6.1088867V46.7604179
		c0-3.3696289,2.7392578-6.1088867,6.1087036-6.1088867h38.3295288c3.3694458,0,6.1087036,2.7392578,6.1087036,6.1088867v25.7377892
		c0,3.3696289-2.7392578,6.1088867-6.1087036,6.1088867H77.5578842z M104.1444931,58.3771172
		c-0.0991821,1.6191406-0.3383179,3.2285156-0.5178833,4.8413086l-0.1675415,0.0019531
		c0-1.2338867,0.0231934-2.4677734-0.0043945-3.7011719c-0.1048584-4.5859375-1.0350952-9.0229492-2.4882202-13.3574219
		c-0.6640625-1.9804688-1.3696289-3.9487305-2.2094727-5.862793c-0.9628906-2.1958008-2.0186768-4.3447266-3.5288696-6.2324219
		c-0.3716431-0.4638672-0.9729614-0.46875-1.482666-0.6025391c-0.2642212-0.0698242-0.4368286-0.1796875-0.6057129-0.3491211
		c-2.0324707-2.0346699-4.1057129-4.0214863-6.4213257-5.7436543c-3.121521-2.3232422-6.5141602-4.1240234-10.135376-5.5385742
		c-1.4926147-0.5830078-2.9884033-1.1621094-4.5432129-1.5019531c-3.4555054-0.7558594-6.932251-1.4057617-10.5076294-1.1342773
		c-1.1737671,0.0893555-2.3569946,0.0478516-3.5332642,0.1147461c-1.274231,0.0722656-2.5032959,0.4526367-3.7636719,0.6303711
		c-2.3243408,0.328125-4.5219116,1.1347656-6.7452393,1.840332c-0.1807251,0.0571289-0.3609009,0.1333008-0.5473022,0.15625
		c-0.1726074,0.0219727-0.4934082,0.1323242-0.1732788-0.2680664c0.1481323-0.1855469-0.1116943-0.4921875-0.2328491-0.7158203
		l-0.4971313-0.2275391c6.5317993-3.1000977,13.3849487-4.2353516,20.56073-3.3095703
		c1.4888916,0.1918945,2.9570923,0.5385742,4.3951416,0.9829102c2.3425293,0.7231445,4.6763306,1.4619141,6.9736938,2.3354492
		c2.2791138,0.8671875,4.531311,1.7495117,6.6409912,2.9829102c2.6984863,1.5776367,5.1207275,3.519043,7.3320923,5.7001953
		c3.0305176,2.989748,5.7546997,6.2441425,7.7231445,10.055666c1.1260986,2.1816406,1.949646,4.4887695,2.7041016,6.8266602
		c0.9057617,2.8056641,1.534729,5.6572266,1.668457,8.6000977C104.0898666,56.0587578,104.215416,57.2242851,104.1444931,58.3771172
		z M67.8235703,6.1661782c4.1226807,0.1611328,8.2045898,0.6269531,12.0869141,2.0966792
		c2.4291382,0.9189453,4.6003418,2.3110352,6.6033325,3.9980469c1.795166,1.512207,2.8484497,3.4291992,3.588501,5.5830078
		c0.0307617,0.0888672,0.0759888,0.1782227,0.0859985,0.2705078c0.0332642,0.2993164,0.1305542,0.6508789-0.2033691,0.8227539
		c-0.3464966,0.1782227-0.5002441-0.1655273-0.6816406-0.3666992c-1.3627319-1.5092773-2.5974121-3.1484375-4.1936646-4.4277344
		c-2.2904663-1.8364258-4.7937012-3.34375-7.6453247-4.0996094c-4.0982056-1.0869141-8.2403564-2-12.4390259-2.6264644
		c-0.6584473-0.0981445-1.319397-0.1801758-1.9872437-0.1743164c-0.1136475,0.0009766-0.2322388,0.0073242-0.34021-0.0205078
		c-0.170105-0.0424805-0.3483887-0.1347656-0.3602905-0.3178711c-0.0125732-0.1967773,0.2096558-0.1889648,0.3377075-0.2338867
		c1.2792358-0.4472656,2.6275024-0.3725586,3.9494019-0.4980469C67.0207748,6.1339517,67.4231186,6.1661782,67.8235703,6.1661782z
		 M19.3906479,83.0978165c-1.720459-3.277832-3.0015869-6.7285156-3.7950449-10.3515625
		c-0.4318237-1.9702148-0.689209-3.9570312-0.8662109-5.9731445c-0.163208-1.8647461-0.4375-3.7338829-0.6766357-5.5991173
		c-0.3678589-2.8652344-0.8027954-5.7285156-0.8185425-8.6230469c-0.0175171-3.3496094,0.4456787-6.6386719,1.5058594-9.8271484
		c1.1530762-3.46875,2.7913828-6.6352539,5.4389658-9.2495117c2.2747803-2.2460957,4.427124-4.6157246,6.6228027-6.9404316
		c0.4418945-0.4677734,1.0037231-0.6318359,1.6847534-0.8427734c-0.2749634,0.6791992-0.5718384,1.1821289-0.9308472,1.6552734
		c-1.1047974,1.456543-2.3538818,2.7905273-3.522644,4.1918945c-1.8805542,2.255373-3.5640259,4.6406269-4.894165,7.2705097
		c-1.3325806,2.6347656-2.5521851,5.3125-3.3512583,8.1630859c-0.4375,1.5610352-0.6489868,3.1635742-0.8272705,4.7700195
		c-0.1826782,1.6459961-0.2096558,3.293457-0.1010742,4.9511719c0.140625,2.1425781,0.5322876,4.2412109,0.8505249,6.3574219
		c0.3276377,2.1772423,0.876893,4.317379,1.015626,6.5312462c0.1763916,2.8173828,0.8843994,5.5493164,1.6257324,8.2661133
		c0.1832886,0.6728516,0.5963135,1.2299805,0.9126587,1.8334961c1.135498,2.1606445,2.3852539,4.2373047,4.1138916,6.0039062
		c0.8065796,0.824707,1.4613037,1.7988281,2.1781006,2.7104492c0.0922852,0.1166992,0.1531982,0.2607422,0.2121582,0.4003906
		c0.0584106,0.1396484,0.1167603,0.2958984-0.0275879,0.4208984c-0.1280518,0.1098633-0.2906494,0.1137695-0.430603,0.0439453
		c-0.3214111-0.1611328-0.6678467-0.3007812-0.9428101-0.5253906c-0.74823-0.6103516-1.4907837-1.2202148-2.1712036-1.9223633
		C21.1004868,85.6827774,20.1150131,84.4786758,19.3906479,83.0978165z M31.6708603,100.0548477
		c-1.5491333,0.2592773-2.4172363-0.453125-2.5747681-2.0200195c-0.0565186-0.5639648-0.2184448-1.1152344-0.0075684-1.6879883
		c0.3690796-1.003418,1.0338135-1.2138672,1.7877197-0.4707031c0.8511353,0.8393555,1.8077393,1.5029297,2.8691406,2.0380859
		c0.4676514,0.2353516,0.9584961,0.3671875,1.4631958,0.4609375c0.5153198,0.0961914,0.963501,0.3193359,1.4242554,0.6435547
		c-0.2216187,0.2026367-0.4406738,0.234375-0.6396484,0.2568359C34.533165,99.4347305,33.1139755,99.8131485,31.6708603,100.0548477
		z"/>
	<path class="st3" d="M59.3321152,73.4313126v9.034668l1.9057007-1.1118164
		c0.3389282-0.1987305,0.7205811-0.2963867,1.0997314-0.2963867c0.3790894,0,0.7607422,0.0976562,1.0996704,0.2963867
		l1.9057007,1.1118164v-9.0336914l-3.0053711-0.9741211L59.3321152,73.4313126z"/>
	<path class="st3" d="M55.0562973,64.5768204l2.194397,1.1201172c0.4092407,0.2080078,0.7431641,0.5419922,0.9515991,0.9516602
		l1.119812,2.1943359l2.3425293-0.7583008c0.2184448-0.0703125,0.4468994-0.1054688,0.6729126-0.1054688
		c0.2259521,0,0.4544067,0.0351562,0.6728516,0.1054688l2.3425903,0.7583008l1.119812-2.1943359
		c0.2108765-0.409668,0.5422974-0.7436523,0.9515381-0.9516602l2.194458-1.1201172l-0.7608032-2.3422813
		c-0.140564-0.4370117-0.140564-0.9091797,0-1.3457031l0.7608032-2.3427734l-2.194458-1.1196289
		c-0.4092407-0.2084961-0.7406616-0.5424805-0.9515381-0.9516602l-1.119812-2.1943359l-2.3425903,0.7607422
		c-0.4368896,0.140625-0.9088745,0.140625-1.3457642,0l-2.3425293-0.7607422l-1.119812,2.1943359
		c-0.2084351,0.4091797-0.5423584,0.7431641-0.9515991,0.9516602l-2.194397,1.1196289l0.7582397,2.3427734
		c0.140564,0.4365234,0.140564,0.9086914,0,1.3457031L55.0562973,64.5768204z"/>
</g>
<g>
	<g>
		<path class="st1" d="M168.602829,15.724c-2.8586426,1.1103163-3.8052673,4.6475058-1.8394318,6.9542379
			c0.2813263,0.3303928,0.3271332,0.5386391-0.0625763,0.8119621c-1.3455963,0.9446201-1.357605,2.9479923-0.3874512,4.0588093
			c0.2608032,0.2988529,0.3000946,0.4004745-0.0723419,0.6637859c-2.0952301,1.4812546-1.7918701,4.1509171,0.5639191,5.2191811
			c1.9665833,0.8920593,4.0583038,0.9080772,6.1482849,0.8399963c1.843689-0.06007,3.6598358-0.3183784,5.2244415-1.4246864
			c1.2414703-0.8780422,1.7598267-2.0954838,1.5856171-3.6012669c-0.169693-1.4697418-1.0442352-2.3612976-2.3943329-2.8318558
			c-1.4334412-0.4990902-2.9274597-0.3258858-4.1964722-0.3649311c-1.1233215,0-2.0411682,0-2.9589996,0
			c-0.3794556-0.0005016-0.7528992-0.042551-1.0840302-0.2422867c-0.4320221-0.2598095-0.4885864-0.6617851-0.348175-1.0993023
			c0.1556854-0.4855766,0.5026093-0.4054813,0.9013214-0.3123703c1.9405518,0.4500332,3.8733368,0.4295082,5.7665863-0.2362804
			c2.2271423-0.7834282,3.6475677-2.8558826,3.0946655-4.9563713c-0.3233795-1.2279549-0.1734619-1.9608231,0.7959442-2.7392445
			c0.7248535-0.5816898,0.7123413-1.3786335,0.221756-1.9222775c-0.4600372-0.5091038-1.3075409-0.5516539-1.9998627-0.0635757
			c-0.4588013,0.323884-0.8985596,0.6788044-1.3195648,1.050745c-0.224762,0.1982346-0.3929596,0.2112503-0.6813049,0.1101303
			C173.2355652,14.8224325,170.9143219,14.8259363,168.602829,15.724z M169.4075317,28.74893
			c0.8670197,0.0325394,1.7355499,0.0085106,2.6035767,0.0085106v0.0220261l0,0
			c0.8675385,0,1.7353058-0.0010014,2.6030884,0.0004997c0.3804474,0.0005016,0.7458801,0.0825977,1.0797729,0.2623119
			c0.7509003,0.4039783,0.8445129,1.433197,0.1622009,1.9302864c-0.2588043,0.1882229-0.5356293,0.3614273-0.8647766,0.4450264
			c-1.7580872,0.4480305-3.531189,0.4560413-5.2937775,0.1026211c-1.250473-0.2502956-1.7665863-1.0977993-1.354599-2.0399151
			C168.5429993,29.0227547,168.8418579,28.7274036,169.4075317,28.74893z M173.9634247,17.8029633
			c0.887558,0.3569221,1.3861389,1.3085499,1.2945404,2.2942181c-0.0916138,0.9871693-0.8352509,1.7545776-1.9748383,2.0053749
			c-0.318634,0.0700836-0.6507721,0.0780926-1.0222168,0.1191406c-0.933609-0.0350399-1.8922424-0.1631927-2.5970764-0.9285984
			c-0.9846649-1.0687675-0.5696716-2.837862,0.8119659-3.466608
			C171.624649,17.3038712,172.8105621,17.3394146,173.9634247,17.8029633z"/>
		<path class="st1" d="M248.1075134,24.9964848c0.3383942,1.7110271,1.0770264,3.2163105,2.495697,4.2685566
			c2.9309845,2.1745758,6.1122437,2.2962208,9.3826294,0.9000664c1.1418457-0.4875774,2.0476685-1.3325787,2.4699097-2.5610332
			c0.2042542-0.5932026,0.1256714-1.1733913-0.3849487-1.6028996c-0.4935913-0.415493-1.0537415-0.3273869-1.5793762-0.0770912
			c-0.3123779,0.1491776-0.6304932,0.3464108-0.8610229,0.5992107c-1.1621094,1.2765121-2.6456299,1.5293102-4.2500305,1.3551044
			c-2.1159973-0.2307739-3.7018738-1.5798721-3.9792023-3.2989082c-0.0593262-0.3684368-0.0330505-0.523119,0.4104767-0.51511
			c1.5523376,0.0285339,3.1051788,0.011013,4.6577759,0.011013c1.5525818,0,3.1051636,0.011013,4.6577759-0.0035038
			c1.1498413-0.0115147,1.6754761-0.4830723,1.795105-1.6234226c0.0941162-0.8970642-0.03479-1.78862-0.3203735-2.6346226
			c-0.9338684-2.7642746-2.9084473-4.3061008-5.772583-4.6685295c-3.0598755-0.3874598-5.718277,0.4134893-7.5376892,3.0431042
			C247.8704834,20.2428532,247.6286926,22.5751171,248.1075134,24.9964848z M251.4815063,20.5141754
			c0.5929565-1.8481903,2.2519226-2.8608894,4.4059753-2.6906872c1.8681946,0.1481743,3.1677551,1.1939144,3.5809937,2.8408642
			c0.1233826,0.4925842,0.0843506,0.709341-0.5166321,0.6843109c-1.1495972-0.0470562-2.3024597-0.0135155-3.454071-0.0135155
			c-1.1516266,0-2.3029785,0.0025024-3.4546051-0.0010014C251.2980347,21.3316441,251.245224,21.2505474,251.4815063,20.5141754z"/>
		<path class="st1" d="M222.0919342,15.058712c-4.6114502,0.0215254-7.8983459,3.3865128-7.8545532,8.0400238
			c0.0443115,4.7020702,3.3377075,7.9594307,8.0272675,7.9399071c4.9168243-0.020525,8.1421356-3.2453442,8.1228638-8.1211205
			C230.3687439,18.1859169,227.0433044,15.0351839,222.0919342,15.058712z M222.229599,27.9084339
			c-2.6734161-0.0260296-4.5999451-2.1225147-4.5466309-4.9478607c0.0528107-2.7963123,2.0236511-4.8287201,4.6462555-4.7916775
			c2.7527618,0.0385475,4.6855469,2.1165085,4.6124573,4.9578743
			C226.8675995,26.0081825,224.9693451,27.9344654,222.229599,27.9084339z"/>
		<path class="st1" d="M184.5594788,28.9942207c1.5550995,1.5858784,3.5431976,2.0053749,5.0787659,2.0379143
			c1.8164062-0.0010014,3.014328-0.1772099,4.1424103-0.7073383c2.8471222-1.3380852,3.5584564-5.2216854,1.3273163-7.3011494
			c-0.6112213-0.5691738-1.3621063-0.8910561-2.1590576-1.1268349c-1.3761292-0.4079838-2.8268433-0.4880772-4.1852112-0.9656429
			c-0.7949371-0.2793312-1.2121735-0.8299847-1.1956635-1.5428276c0.0155182-0.6657887,0.4500427-1.2269535,1.2624969-1.4091702
			c1.3823853-0.3098679,2.6936951-0.1491756,3.852066,0.7754192c0.4925842,0.393465,0.9123383,0.8875504,1.5152893,1.1373463
			c0.532135,0.2197609,1.0387421,0.2427883,1.5092926-0.15168c0.4730682-0.3969688,0.5559082-0.9125805,0.4119873-1.4692402
			c-0.1304016-0.5045967-0.378952-0.9556313-0.7436218-1.3400879c-1.003952-1.0577517-2.2924652-1.5288105-3.6866302-1.7335529
			c-2.0394135-0.2993546-4.0427856-0.2392836-5.8228912,0.9791603c-2.2624359,1.5488338-2.4146118,4.8717709-0.3103638,6.6123333
			c0.9293518,0.7684097,2.0654449,1.0672646,3.2193146,1.321064c1.005188,0.221262,2.0491791,0.2958508,3.0035553,0.71735
			c0.8229675,0.3634319,1.2231903,1.0137005,1.1290894,1.7575817c-0.0973663,0.7704144-0.6014709,1.2980385-1.4982758,1.4617329
			c-1.7443237,0.3183765-3.3106689-0.042551-4.5997009-1.3250694c-0.3509216-0.3494148-0.7038422-0.6958256-1.1458588-0.9265976
			c-0.4915771-0.2573051-1.0109406-0.2603092-1.4772491,0.0200233c-0.4880829,0.2928467-0.6515198,0.7884331-0.5901947,1.3435917
			C183.6779327,27.8919144,184.0616455,28.4861183,184.5594788,28.9942207z"/>
		<path class="st1" d="M147.2878265,28.0145607c-1.5873871,0.3368988-3.0778961,0.1351604-4.3581696-0.9611397
			c-0.4099731-0.3514156-0.805954-0.7198524-1.2199402-1.0662632c-0.5206146-0.4355145-1.3178101-0.5086021-1.8391724-0.1491756
			c-0.584198,0.4014759-0.6577911,0.9906731-0.4940948,1.6234226c0.1371613,0.5296268,0.4119873,0.9876709,0.7844391,1.3956528
			c1.5896301,1.7415638,3.6798553,2.1200123,5.8887177,2.1370316c0.3053589,0,0.6139832,0.0300369,0.9153442-0.0045052
			c1.9948578-0.2297726,3.7534332-0.8640232,4.7200775-2.8198395c0.9561462-1.9342918,0.4375305-4.2570438-1.2704926-5.4814949
			c-0.9348602-0.6707935-2.0509338-0.8965607-3.1549988-1.1323414c-1.0059357-0.2152538-2.0466614-0.2793293-3.0028076-0.7138443
			c-0.649765-0.295351-0.9901733-0.7819271-0.9551239-1.4927692c0.0365448-0.7328682,0.4915771-1.1548672,1.1576233-1.3365822
			c1.1741333-0.3208809,2.3049774-0.222765,3.3910065,0.3819523c0.6470184,0.3599262,1.1180878,0.9306011,1.7263031,1.3295746
			c0.574173,0.3764458,1.1869049,0.4770641,1.7776031,0.0740871c0.5881958-0.4009743,0.6345062-1.0157032,0.4560394-1.635437
			c-0.2590485-0.9015675-0.8657684-1.543829-1.6664734-2.00037c-2.2056122-1.2574892-4.5591431-1.4066658-6.9512329-0.7548943
			c-2.6175995,0.7138462-3.9902191,3.1962872-3.1682587,5.6086445c0.5656738,1.6609669,1.9242859,2.4208679,3.5019073,2.8428669
			c1.2922821,0.3454094,2.6168518,0.5701771,3.9053802,0.9270992c0.8109589,0.2247658,1.2254486,0.91959,1.1889038,1.7125282
			C148.5858612,27.2411442,148.1067963,27.840353,147.2878265,28.0145607z"/>
		<path class="st1" d="M200.0543365,18.4582386c0.6044617,0.0685825,1.219696,0.0750904,1.8289185,0.0600719
			c0.3959656-0.0095119,0.5283661,0.1096306,0.5208588,0.5156116c-0.0235291,1.2695026-0.0084991,2.5395069-0.0084991,3.8095112
			c0.0002441,1.22295-0.0200348,2.4463997,0.0057526,3.6683464c0.0282745,1.3435917,0.4612885,2.5470181,1.5202942,3.4180489
			c1.6617279,1.3666191,3.5204315,1.3511009,5.4396973,0.6332512c0.9751587-0.364933,1.7811127-0.9456215,2.2201385-1.9247799
			c0.2843323-0.6347523,0.2377777-1.272007-0.2938538-1.7465706c-0.5341339-0.4770641-1.1563721-0.4310093-1.7530823-0.0570679
			c-0.3559113,0.2232647-0.6928101,0.4815712-1.0642548,0.6732979c-1.4632416,0.7558956-2.6846771,0.0490589-2.6994476-1.5783691
			c-0.0205231-2.2812023,0.0097656-4.5629063-0.0172729-6.8436069c-0.006012-0.5025959,0.1967316-0.5756817,0.6204834-0.56567
			c1.0109558,0.0220261,2.0229034,0.008009,3.0343475,0.0065079c0.4520416-0.0005016,0.9095764-0.0380459,1.2742615-0.3248844
			c0.496582-0.3904629,0.7205963-0.911581,0.5814362-1.5553436c-0.1406708-0.6512709-0.5571594-1.0562515-1.1974182-1.1213284
			c-0.7458801-0.0765905-1.5022736-0.0415487-2.2539215-0.0690813c-0.6532745-0.0235281-1.4932709,0.271822-1.9095154-0.1141357
			c-0.4244995-0.3944674-0.0886078-1.2449751-0.1366577-1.8932428c-0.0207672-0.2808323-0.0077515-0.56567-0.0467987-0.8434992
			c-0.1324158-0.9426165-0.8407593-1.5468321-1.7255554-1.4917669c-0.947113,0.0595703-1.5823669,0.7333689-1.5966339,1.7115278
			c-0.0100098,0.7053356-0.0215302,1.4121723,0.0055084,2.1165066c0.0152588,0.3914642-0.0946198,0.5411415-0.508606,0.526124
			c-0.6092224-0.0210257-1.2244568-0.0140171-1.8301697,0.049058c-0.7701569,0.0800943-1.340332,0.737874-1.335083,1.4527216
			C198.7352753,17.7423916,199.2576447,18.3671322,200.0543365,18.4582386z"/>
		<path class="st1" d="M235.3726807,30.6546879c0.5581512,0.3724403,1.1496124,0.3769455,1.7375488,0.0891056
			c0.6442719-0.3153744,0.8780365-0.8850479,0.8795471-1.5648537c0.0045013-2.1405354,0.0014954-4.2815723,0.0017548-6.4221077
			c0-0.8039532,0.0853424-1.5953903,0.3621674-2.3557911c0.2793427-0.76791,0.6948242-1.4482155,1.4437103-1.8346729
			c1.0512543-0.5426426,1.8892517-0.3263874,2.9615173,0.6988277c0.525116,0.5020943,1.1053009,0.7338696,1.8546906,0.4955864
			c0.6592865-0.2107487,0.9321136-0.6823082,1.0382385-1.2900276c0.1364136-0.7799244-0.0620728-1.4857597-0.5621643-2.1059952
			c-0.6980896-0.8660259-1.6439514-1.2074308-2.7132263-1.2940331c-1.7395477-0.140667-3.1662445,0.4690561-4.2975922,1.8717175
			c-0.0470428-0.1291523-0.0750885-0.1827164-0.0865936-0.2397842c-0.2327728-1.1423531-0.8399963-1.6339359-1.8872375-1.5268087
			c-0.9028168,0.0926094-1.4782562,0.7809248-1.4799957,1.8266649c-0.0072632,4.0227642-0.0047607,8.0455303-0.0012665,12.0682964
			C234.6242828,29.7110691,234.8095093,30.2787418,235.3726807,30.6546879z"/>
		<path class="st1" d="M158.4933472,15.1638365c-0.9411163-0.0085096-1.6807404,0.6392574-1.6857452,1.6079054
			c-0.022522,4.1634312-0.0187683,8.3268642-0.0012512,12.4902954c0.0037537,0.8475037,0.5634155,1.494772,1.2847748,1.6299324
			c1.1568756,0.2172565,2.0499268-0.4815712,2.0654449-1.6829948c0.0260315-2.0464249,0.0070038-4.0928478,0.0070038-6.1392727
			c-0.0004883-2.069952,0.0205231-4.1404037-0.0090027-6.209856
			C160.1395569,15.7980881,159.4827728,15.1728477,158.4933472,15.1638365z"/>
		<path class="st1" d="M158.5136261,9.152215c-1.1844025-0.011013-2.1300201,0.9145842-2.1220093,2.0774612
			c0.0080109,1.1793976,0.9113312,2.0634441,2.1179962,2.0724554c1.1516266,0.0090103,2.0709534-0.8870516,2.0779724-2.0243988
			C160.5950928,10.0903263,159.6905212,9.163228,158.5136261,9.152215z"/>
	</g>
	<g>
		<path class="st1" d="M142.8006744,95.2540665v-27.765625h-5.4819336c-2.4003906,0-4.1201172-1.6484375-4.1201172-3.9775352
			c0-2.2929688,1.7197266-3.9404297,4.1201172-3.9404297h5.4819336v-1.0039062
			c0-7.6308594,4.9443359-12.2529297,13.0053711-12.2529297c3.4038086,0,6.3056641,0.7880859,8.0253906,2.1142578
			c1.074707,0.8242188,1.7915039,2.078125,1.7915039,3.4033203c0,1.9707031-1.3256836,3.3320312-3.2607422,3.3320312
			c-0.6088867,0-1.2177734-0.2148438-1.862793-0.4658203c-0.9316406-0.4296875-2.1137695-0.9667969-3.9770508-0.9667969
			c-3.3320312,0-4.9799805,1.7197266-4.9799805,4.9794922v0.8603516h9.3510742c2.4003906,0,4.0844727,1.6474609,4.0844727,3.9404297
			c0,2.3290977-1.684082,3.9775352-4.0844727,3.9775352h-9.3510742v27.765625c0,2.6513672-1.7915039,4.5507812-4.4067383,4.5507812
			C144.5916901,99.8048477,142.8006744,97.9054337,142.8006744,95.2540665z"/>
		<path class="st1" d="M211.7450104,63.2960625v31.958004c0,2.6513672-1.8271484,4.5507812-4.4067383,4.5507812
			c-2.5439453,0-4.3354492-1.8994141-4.3354492-4.5507812v-0.8232422c-2.4360352,3.6542969-6.8789062,5.625-12.2885742,5.625
			c-9.7094727,0-16.0869141-6.0556641-16.0869141-16.875V63.2609062c0-2.5800781,1.8276367-4.5146484,4.3710938-4.5146484
			c2.5795898,0,4.3710938,1.9707031,4.3710938,4.5146484v18.4150352c0,6.9863281,3.546875,10.3544922,9.2792969,10.3544922
			c6.4130859,0,10.3540039-4.4433594,10.3540039-10.9638672v-17.770504c0-2.6865234,1.7915039-4.5498047,4.3354492-4.5498047
			C209.9178619,58.7462578,211.7450104,60.6446953,211.7450104,63.2960625z"/>
		<path class="st1" d="M226.1649323,95.2540665V51.0792656c0-2.6513672,1.8271484-4.5146484,4.4067383-4.5146484
			c2.5439453,0,4.3349609,1.8632812,4.3349609,4.5146484v44.1748009c0,2.6513672-1.7910156,4.5507812-4.3349609,4.5507812
			C227.9920807,99.8048477,226.1649323,97.9054337,226.1649323,95.2540665z"/>
		<path class="st1" d="M246.4842682,79.2755508c0-12.1455078,8.6704102-20.7802696,20.4580231-20.7802696
			c6.4130859,0,11.3212891,1.9707031,14.2592773,5.0517578c2.0419922,2.114254,3.3676758,4.8007774,3.3676758,6.8076134
			c0,2.1855469-1.5405273,3.7978516-3.6904297,3.7978516c-1.8984375,0-3.0810547-0.7890625-4.3706055-2.4726562
			c-1.8632812-3.0449219-5.1235352-5.0878906-9.2792969-5.0878906c-6.8076172,0-11.7514801,5.1601562-11.7514801,12.6835938
			c0,7.4882812,4.9438629,12.6826172,11.7514801,12.6826172c4.5859375,0,7.7026367-2.4365234,9.5297852-5.5527344
			c1.1826172-1.6845703,2.2216797-2.4365234,4.0844727-2.4365234c2.1137695,0,3.8696289,1.6123047,3.8696289,3.8691406
			c0,1.9345703-1.3618164,4.6582031-3.2963867,6.7001953c-3.0810547,3.2246094-8.2402344,5.5175781-14.4741211,5.5175781
			C255.1546783,100.0558243,246.4842682,91.4210587,246.4842682,79.2755508z"/>
		<path class="st1" d="M300.6434631,43.1974297c3.1523438,0,5.409668,2.328125,5.409668,5.3740234
			c0,3.0810547-2.2573242,5.4091797-5.409668,5.4091797c-3.1533203,0-5.4819336-2.328125-5.4819336-5.4091797
			C295.1615295,45.5255547,297.4901428,43.1974297,300.6434631,43.1974297z M296.200592,95.2540665v-31.958004
			c0-2.6865234,1.8271484-4.5498047,4.4067383-4.5498047c2.5439453,0,4.3349609,1.8632812,4.3349609,4.5498047v31.958004
			c0,2.6513672-1.7910156,4.5507812-4.3349609,4.5507812C298.0277405,99.8048477,296.200592,97.9054337,296.200592,95.2540665z"/>
		<path class="st1" d="M316.2294006,79.2755508c0-12.5039062,8.777832-20.7802696,20.9951172-20.7802696
			c12.2529297,0,21.0307617,8.2763634,21.0307617,20.7802696c0,12.4677734-8.777832,20.7802734-21.0307617,20.7802734
			C325.0072327,100.0558243,316.2294006,91.7433243,316.2294006,79.2755508z M337.2245178,91.958168
			c7.0224609,0,12.0024414-5.1230469,12.0024414-12.6826172s-4.9799805-12.6835938-12.0024414-12.6835938
			c-7.0219727,0-12.0019531,5.1240234-12.0019531,12.6835938S330.2025452,91.958168,337.2245178,91.958168z"/>
	</g>
</g>
</svg>

