<?xml version="1.0" encoding="utf-8"?>
<!-- Generator: Adobe Illustrator 27.9.0, SVG Export Plug-In . SVG Version: 6.00 Build 0)  -->
<svg version="1.1" id="Layer_2" xmlns="http://www.w3.org/2000/svg" xmlns:xlink="http://www.w3.org/1999/xlink" x="0px" y="0px"
	 viewBox="0 0 198.4 244.7" style="enable-background:new 0 0 198.4 244.7;" xml:space="preserve">
<g>
	<path d="M0.1,0v198.2h198.2V0H0.1z M99.3,168.1c-37.5,0-69.1-29.8-69.1-68.8c0-39,31.6-69.3,69.1-69.3c21.8,0,42.9,10.2,56.8,31
		l-15.4,10.4c-9.7-12-24.9-21.3-41.3-21.3c-26.8,0-49,20.6-49,49.2c0,27.4,21.2,48.7,48.5,48.7c19.8,0,37-10.9,45.5-27.4l-46.9-15.1
		v-6.2h70.6C168.1,137.7,134,168.1,99.3,168.1z"/>
	<path d="M110.8,218.7l-0.1-0.3H106l-0.1,0.3L96,243.6l-0.3,0.7h4.1l0.1-0.3l2.6-6.9h11.5l2.6,6.9l0.1,0.3h4.1l-0.3-0.7L110.8,218.7
		z M103.7,233.8L103.7,233.8l4.5-11.9l-0.1-0.2h0.1l-0.1,0.2l4.5,11.9H103.7z"/>
	<path d="M162.3,221.5c1.3,0,2.7,0.3,3.9,0.9c1.3,0.6,2.4,1.4,3.2,2.4l0.4,0.5l0.4-0.4l1.8-1.9l0.3-0.4l-0.3-0.4
		c-1.2-1.4-2.7-2.4-4.4-3.2c-1.7-0.7-3.5-1.1-5.4-1.1c-1.8,0-3.6,0.4-5.2,1c-1.6,0.7-3,1.6-4.2,2.8c-1.2,1.2-2.1,2.6-2.8,4.3
		c-0.7,1.6-1,3.4-1,5.2c0,1.8,0.3,3.6,1,5.2c0.7,1.6,1.6,3,2.8,4.2c1.2,1.2,2.6,2.2,4.2,2.9c1.6,0.7,3.4,1.1,5.2,1.1
		c1.8,0,3.6-0.4,5.3-1.1c1.7-0.7,3.2-1.8,4.4-3.2l0.4-0.4l-0.4-0.4l-1.8-1.8l-0.4-0.4l-0.4,0.5c-0.8,1-1.9,1.8-3.2,2.4
		c-1.3,0.6-2.6,0.8-3.9,0.8h-0.3c-1.2,0-2.4-0.3-3.5-0.8c-1.1-0.5-2.1-1.2-3-2.1c-0.8-0.9-1.5-1.9-2-3.1c-0.5-1.2-0.7-2.5-0.7-3.9
		c0-1.4,0.2-2.7,0.7-3.9c0.5-1.2,1.1-2.3,2-3.1l0,0c0.8-0.9,1.8-1.6,3-2.1C159.7,221.7,161,221.5,162.3,221.5z"/>
	<polygon points="195,218.3 194.5,218.3 194.5,218.8 194.5,229.5 181.1,229.5 181.1,218.8 181.1,218.3 180.5,218.3 177.8,218.3 
		177.2,218.3 177.2,218.8 177.2,243.8 177.2,244.3 177.8,244.3 180.5,244.3 181.1,244.3 181.1,243.8 181.1,233 194.5,233 
		194.5,243.8 194.5,244.3 195,244.3 197.8,244.3 198.3,244.3 198.3,243.8 198.3,218.8 198.3,218.3 197.8,218.3 	"/>
	<path d="M66.9,231.8L66.9,231.8c-1.3-1.1-3.3-2-6-2.4l-4-0.7c-1.6-0.2-2.7-0.7-3.3-1.2c-0.6-0.5-0.9-1.2-0.9-2.2
		c0-1.1,0.5-2,1.5-2.8c1-0.8,2.3-1.2,3.9-1.2c1.4,0,2.8,0.3,4.1,0.8c1.4,0.5,2.7,1.2,3.9,2.1l0.5,0.3l0.3-0.5l1.4-2.1l0.3-0.4
		l-0.4-0.3c-1.6-1.1-3.2-1.9-4.9-2.5c-1.6-0.5-3.4-0.8-5.3-0.8c-2.6,0-4.8,0.7-6.5,2.1c-1.7,1.4-2.6,3.3-2.6,5.5
		c0,1.8,0.6,3.3,1.8,4.4c1.1,1.1,2.9,1.8,5.3,2.2l4,0.7c1.9,0.3,3.3,0.8,4,1.4c0.7,0.6,1.1,1.4,1.1,2.4c0,1.3-0.5,2.3-1.7,3.1
		c-1.2,0.9-2.7,1.3-4.4,1.3c-1.5,0-2.9-0.3-4.2-0.8c-1.3-0.6-2.6-1.5-4.1-2.9l-0.4-0.4l-0.4,0.4l-1.7,2l0,0.1l0,0.1L48,240l0.3,0.3
		c1.6,1.5,3.2,2.6,5,3.3c1.7,0.7,3.6,1.1,5.6,1.1c1.4,0,2.7-0.2,3.9-0.6c1.2-0.4,2.3-1,3.2-1.7c0.9-0.7,1.6-1.6,2.1-2.6
		c0.5-1,0.8-2.1,0.8-3.2C68.9,234.6,68.2,233,66.9,231.8z"/>
	<path d="M145.3,243.5l-5-10.5c1.4-0.5,2.6-1.3,3.5-2.5c1-1.3,1.5-2.8,1.5-4.6c0-2.3-0.8-4.2-2.4-5.6c-1.6-1.4-3.6-2.1-6.1-2.1
		h-11.4v26h3.8v-10.7h7.2l4.9,10.3l0.1,0.3h4.2L145.3,243.5L145.3,243.5z M136.6,230.3h-7.4v-8.5h7.4c1.5,0,2.7,0.4,3.6,1.2
		c0.9,0.8,1.3,1.8,1.3,3.1c0,1.3-0.4,2.3-1.3,3C139.3,229.9,138.1,230.3,136.6,230.3z"/>
	<polygon points="30,240.9 30,232.9 42.2,232.9 42.7,232.9 42.7,232.4 42.7,230 42.7,229.5 42.2,229.5 30,229.5 30,221.8 
		42.9,221.8 43.4,221.8 43.4,221.2 43.4,218.8 43.4,218.3 42.9,218.3 26.8,218.3 26.2,218.3 26.2,218.8 26.2,243.8 26.2,244.3 
		26.8,244.3 43,244.3 43.5,244.3 43.5,243.8 43.5,241.4 43.5,240.9 43,240.9 	"/>
	<polygon points="78.2,240.9 78.2,232.9 90.3,232.9 90.9,232.9 90.9,232.4 90.9,230 90.9,229.5 90.3,229.5 78.2,229.5 78.2,221.8 
		91,221.8 91.6,221.8 91.6,221.2 91.6,218.8 91.6,218.3 91,218.3 74.9,218.3 74.4,218.3 74.4,218.8 74.4,243.8 74.4,244.3 
		74.9,244.3 91.2,244.3 91.7,244.3 91.7,243.8 91.7,241.4 91.7,240.9 91.2,240.9 	"/>
	<path d="M20,243.5l-5-10.5c1.4-0.5,2.6-1.3,3.5-2.5c1-1.3,1.5-2.8,1.5-4.6c0-2.3-0.8-4.2-2.4-5.6c-1.6-1.4-3.6-2.1-6.1-2.1H0.1v26
		h3.8v-10.7h7.2L16,244l0.1,0.3h4.2L20,243.5L20,243.5z M11.2,230.3H3.9v-8.5h7.4c1.5,0,2.7,0.4,3.6,1.2c0.9,0.8,1.3,1.8,1.3,3.1
		c0,1.3-0.4,2.3-1.3,3C13.9,229.9,12.7,230.3,11.2,230.3z"/>
</g>
</svg>
