<svg fill="none" height="48" id="hyland_logo" viewBox="0 0 232 48" width="232" xmlns="http://www.w3.org/2000/svg">
<g clip-path="url(#clip0_3796_22863)">
<path d="M112.303 16.411V31.7728H108.729V25.4395H99.4351V31.7728H95.8604V16.411H99.4351V22.4024H108.727V16.411H112.303ZM130.796 16.411H134.993L127.349 25.397V31.7728H123.774V25.397L116.108 16.411H120.412L125.614 22.4874L130.794 16.411H130.796ZM138.796 16.411H142.371V28.7144H152.754V31.7728H138.796V16.411ZM168.293 16.411L175.937 31.7728H172.061L170.435 28.4787H162L160.374 31.7728H156.563L164.246 16.411H168.293ZM163.454 25.5246H168.998L166.236 19.9197L163.452 25.5246H163.454ZM195.947 31.7709H192.8L183.206 20.9668V31.7709H179.738V16.4091H183.357L192.479 26.6992V16.4091H195.947V31.7709ZM202 16.4033H210.014C215.509 16.4033 218.954 19.4173 218.954 24.1315C218.954 28.8458 215.507 31.8598 210.014 31.8598H202V16.4033ZM209.927 28.7665C213.26 28.7665 215.209 26.9369 215.209 24.1315C215.209 21.3262 213.264 19.4946 209.908 19.4946H205.482V28.7685H209.929L209.927 28.7665ZM224.968 17.122V19.9834H224.137V17.122H222.583V16.411H226.517V17.122H224.968ZM229.307 19.9834L228.096 17.2322V19.9834H227.284V16.411H228.539L229.653 18.9691L230.764 16.411H232V19.9834H231.194V17.2322L229.978 19.9834H229.307Z" fill="white"></path>
<path d="M43.3629 0L29.6323 23.9923H45.534L59.2645 0H43.3629Z" fill="#6E33FF"></path>
<path d="M13.7305 23.9961L0 47.9864H15.9017L29.6322 23.9961H13.7305Z" fill="#f1cb61"></path>
<path d="M45.5494 24.0078L31.8188 48.0001H47.7224L61.451 24.0078H45.5494Z" fill="#52A1FF"></path>
<path d="M75.1836 0.015625L61.4512 24.0079H77.3548L91.0872 0.015625H75.1836Z" fill="#13eac1"></path>
</g>
<defs>
<clipPath id="clip0_3796_22863">
<rect fill="white" height="48" width="232"></rect>
</clipPath>
</defs>
</svg>