

<?xml version="1.0" encoding="utf-8"?>
<!-- Generator: Adobe Illustrator 26.3.1, SVG Export Plug-In . SVG Version: 6.00 Build 0)  -->
<svg version="1.1" id="Layer_1" xmlns="http://www.w3.org/2000/svg" xmlns:xlink="http://www.w3.org/1999/xlink" x="0px" y="0px"
	 viewBox="0 0 410 125" style="enable-background:new 0 0 410 125;" xml:space="preserve">
<style type="text/css">
	.st0{fill:#FFFFFF;}
	.st1{fill:#2E2F71;}
	.st2{fill:#8C5CA6;}
	.st3{fill:#42BFB9;}
	.st4{fill:#A9CB38;}
	.st5{fill:#5A9ECC;}
</style>
<g>
	<path class="st0" d="M10.1748877,75.3158875c0.2349854-1.9682617,0.3601074-3.9484863,0.4002075-5.9316406
		c0.0421143-2.0837402-0.6530762-4.0053711-1.3062744-5.9397011c-1.1149902-3.3010254-2.4447627-6.5314941-3.3338618-9.9064941
		c-0.284668-1.0805664-0.5186157-2.170166-0.6852417-3.2700195c0.083374,0.5551758,0.1776123,1.1086426,0.2935181,1.6586914
		c0.1154785,0.5478516,0.2459717,1.0932617,0.3891602,1.6367188c0.8865356,3.3652344,2.212646,6.5869141,3.3244624,9.878418
		c0.5698242,1.6879921,1.171875,3.3662148,1.2853394,5.1518593c0.0161743,0.2548828,0.0224609,0.512207,0.0172119,0.7719727
		c-0.0401001,1.9770508-0.1647339,3.9521484-0.3989868,5.9150391c-0.1317749,1.1030273-0.2088623,2.2021484-0.2340698,3.2978516
		c-0.0251465,1.0952148,0.0015259,2.1865234,0.0774536,3.2749023c0.1518555,2.1767578,0.5004272,4.340332,1.0236206,6.4946289
		c0.0010986,0.0043945,0.0028687,0.0087891,0.0039673,0.0131836C9.9928808,84.0602722,9.6487646,79.7216492,10.1748877,75.3158875z"
		/>
	<path class="st0" d="M4.9712749,46.9242821c0.0042725,0.5249023,0.0336304,1.0461426,0.0740356,1.565918
		c-0.0419312-0.5275879-0.0682983-1.057373-0.0731201-1.5898438C4.9722514,46.9084129,4.9712138,46.9162254,4.9712749,46.9242821z"
		/>
	<path class="st0" d="M19.5821152,99.0461121c0.0616455-0.0722656,0.135498-0.1340332,0.2008057-0.2038574
		c0.3167114-0.3378906,0.4020386-0.6237793,0.2695923-0.8579102c0.0161743,0.0566406,0.0262451,0.1147461,0.019104,0.1767578
		c-0.0132446,0.1152344-0.0664062,0.2397461-0.1598511,0.3730469c-0.0466919,0.0668945-0.1034546,0.1357422-0.1702271,0.2070312
		c-0.0648804,0.0693359-0.138916,0.1313477-0.2000122,0.2036133c-1.2667847,1.4912109-2.1412354,3.1137695-2.374939,4.9643555
		c-0.0778809,0.6166992-0.0845947,1.2587891-0.0108643,1.9296875c0.0346069,0.314209,0.0950928,0.6159668,0.1695557,0.9099121
		c-0.0593872-0.2556152-0.1056519-0.5183105-0.135437-0.7890625
		C16.8940048,103.2687683,17.8884506,101.0402527,19.5821152,99.0461121z"/>
	<path class="st0" d="M31.4259872,112.5231628c-0.0074463-0.0146484-0.0184326-0.026123-0.026001-0.0405273
		c0.0931396,0.1884766,0.1830444,0.378418,0.2733154,0.5686035c0.105957,0.2231445,0.2144775,0.4453125,0.3209839,0.6679688
		c0.4196167,0.8759766,0.8151855,1.7651367,1.2608032,2.6264648c-0.414917-0.8166504-0.7888794-1.65625-1.1849365-2.4838867
		C31.8562241,113.4152527,31.6496201,112.9648132,31.4259872,112.5231628z"/>
	<path class="st0" d="M65.2177963,106.5607605c-0.9262695-0.0859375-1.8533325-0.1120605-2.7839966-0.1330566
		c-1.406189-0.0322266-2.8079834-0.2468262-4.2144775-0.2856445c-2.7470703-0.0761719-5.4611206-0.5124512-8.1836548-0.7963867
		c-2.1469116-0.2241211-4.3271484-0.6796875-6.2503052-1.8342285c-0.1294556-0.0778809-0.2755127-0.1311035-0.418457-0.1826172
		c-0.3740234-0.1347656-0.5886841-0.0080566-0.6311035,0.3955078c-0.0512085,0.4875488,0.0273438,0.9597168,0.2548828,1.3859863
		c0.3228149,0.6040039,0.6324463,1.2268066,1.0427246,1.7700195c0.9411621,1.2460938,2.1322632,2.1135254,3.7816162,2.0883789
		c1.1410522-0.0170898,2.2821045-0.0654297,3.4216919-0.1276855c0.5115356-0.0280762,1.0245361-0.072998,1.5255737-0.213623
		c1.3586426-0.3798828,2.7466431-0.6166992,4.1399536-0.8256836c0.2512817-0.0378418,0.4918213-0.0004883,0.7380981,0.0270996
		c1.2474365,0.1396484,2.4958496,0.2709961,3.6176147,0.3916016c1.5536499-0.0388184,2.93573-0.2324219,4.1484375-1.0673828
		c0.1531982-0.1052246,0.3995972-0.192627,0.348999-0.4038086
		C65.6924667,106.4855652,65.4147568,106.5788269,65.2177963,106.5607605z"/>
	<path class="st0" d="M102.5061874,46.2785301c-0.7557983-2.3415527-1.5800171-4.6520996-2.7081909-6.8366699
		c-1.9707031-3.8166504-4.6985474-7.0756836-7.7335815-10.0693359c-2.2146606-2.1845703-4.640564-4.1289062-7.3423462-5.7084961
		c-2.112793-1.2353516-4.368103-2.1188965-6.6503296-2.9868164c-2.3009644-0.875-4.6377563-1.614502-6.9836426-2.3391113
		c-1.4401855-0.4448242-2.9101562-0.791748-4.4014893-0.9841309c-7.1856079-0.9272461-14.0485229,0.2097168-20.5895996,3.314209
		l0.4979858,0.2275391c0.1213989,0.2246094,0.381897,0.5310059,0.2329102,0.7172852
		c-0.3204346,0.4013672,0.0009155,0.2902832,0.1741333,0.2687988c0.1862793-0.0234375,0.366394-0.0996094,0.5478516-0.1572266
		c2.2265015-0.7060547,4.4267578-1.513916,6.7540894-1.8422852c1.2630615-0.1782227,2.4932251-0.5588379,3.7696533-0.6318359
		c1.1776123-0.0668945,2.3625488-0.0251465,3.5378418-0.1142578c3.5805664-0.2724609,7.0619507,0.378418,10.522522,1.1350098
		c1.557373,0.3405762,3.0549927,0.9204102,4.5498657,1.5046387c3.6260986,1.4165039,7.0236206,3.2192383,10.1497192,5.5456543
		c2.3186646,1.7253418,4.3944092,3.7143555,6.4298096,5.7524414c0.1691284,0.1694336,0.3421021,0.2800293,0.6069336,0.3493652
		c0.510376,0.1340332,1.1123657,0.1386719,1.484314,0.6035156c1.5124512,1.8898926,2.5697632,4.0424805,3.5343628,6.2409668
		c0.8407593,1.916748,1.5473633,3.8874512,2.2122803,5.8713379c1.4552002,4.3410645,2.387146,8.7834473,2.4915161,13.3759766
		c0.0280762,1.2348633,0.0043945,2.4709473,0.0043945,3.706543l0.1679688-0.0019531
		c0.1796875-1.6152344,0.4193726-3.2272949,0.5188599-4.8479004c0.0708008-1.1547852-0.0547485-2.3222656-0.1074219-3.4814453
		C104.0431747,51.9438133,103.4131088,49.0878563,102.5061874,46.2785301z"/>
	<path class="st0" d="M33.7857895,97.9640808c-1.0630493-0.536377-2.0205688-1.2004395-2.87323-2.0407715
		c-0.7548828-0.7441406-1.4206543-0.5332031-1.7904663,0.4716797c-0.2108154,0.5732422-0.0488281,1.1252441,0.0079346,1.6899414
		c0.1577148,1.5688477,1.0270386,2.2822266,2.578125,2.0229492c1.4453735-0.2416992,2.8666382-0.6210938,4.3282471-0.7807617
		c0.199585-0.0219727,0.4189453-0.0539551,0.6409302-0.2568359c-0.4614868-0.324707-0.9101562-0.548584-1.4266968-0.6442871
		C34.7452621,98.332489,34.2538681,98.2004089,33.7857895,97.9640808z"/>
	<path class="st0" d="M62.7788315,7.1447411c0.1082764,0.0275879,0.2268066,0.0209961,0.3406372,0.0202637
		c0.6690063-0.0058594,1.3309937,0.0759277,1.9900513,0.1743164c4.2047729,0.6269531,8.3525391,1.5419922,12.4563599,2.630127
		c2.8560181,0.7570801,5.3629761,2.2668457,7.656311,4.1054688c1.5982056,1.2814941,2.8349609,2.9221191,4.199585,4.4343262
		c0.1813965,0.2011719,0.3359375,0.545166,0.6825562,0.3669434c0.3346558-0.1723633,0.2372437-0.5244141,0.2038574-0.8237305
		c-0.0102539-0.0927734-0.0552979-0.1813965-0.0863037-0.2717285c-0.741333-2.15625-1.7960205-4.0756836-3.5935059-5.5898438
		c-2.0059204-1.6899414-4.180481-3.0839844-6.6127319-4.0043945C76.1280746,6.7150536,72.040062,6.2485008,67.911644,6.0871239
		c-0.4003296,0-0.803894-0.0319824-1.2007446,0.0056152c-1.3233643,0.1257324-2.6735229,0.0512695-3.954895,0.4990234
		c-0.1275635,0.0446777-0.3504639,0.0375977-0.3377075,0.234375C62.4300156,7.009243,62.6087875,7.1017723,62.7788315,7.1447411z"/>
	<path class="st0" d="M25.5851669,88.4316101c-0.7180176-0.9125977-1.3735962-1.8881836-2.1815796-2.713623
		c-1.7313232-1.7692871-2.9827271-3.848877-4.1193848-6.0124512c-0.3171997-0.604248-0.7307129-1.1625977-0.9142456-1.8356934
		c-0.7421265-2.7207031-1.451355-5.4567871-1.6279907-8.2780762c-0.1387329-2.2172852-0.6889038-4.3603516-1.0169687-6.540287
		c-0.3188477-2.1188965-0.7109985-4.2209473-0.8518677-6.3662109c-0.1088867-1.6604004-0.0813599-3.3098145,0.1015015-4.9587402
		c0.1782227-1.6081543,0.3902588-3.2128906,0.8282471-4.776123c0.8001108-2.8552246,2.0216074-5.5366211,3.3557749-8.1750488
		c1.3319092-2.6337891,3.0178223-5.0222168,4.9011841-7.2807617c1.1704712-1.4033203,2.4215698-2.7390137,3.527771-4.1970215
		c0.359375-0.4741211,0.6566772-0.9775391,0.9320679-1.6582031c-0.6824341,0.2116699-1.2446289,0.3757324-1.6871338,0.8442383
		c-2.1986694,2.328125-4.3543091,4.7009277-6.631897,6.949707c-2.6515503,2.6184082-4.2918711,5.7890625-5.4469614,9.2629395
		c-1.0617065,3.1928711-1.5255737,6.4868164-1.5075684,9.8405762c0.0155029,2.8991699,0.451416,5.7663574,0.819397,8.635498
		c0.239563,1.8676758,0.5143433,3.7395058,0.6779175,5.6066933c0.177063,2.0195312,0.4346313,4.0087891,0.8668823,5.9821777
		c0.7948008,3.6279297,2.0778208,7.0830078,3.8006601,10.3657227c0.7254639,1.3825684,1.7124023,2.588623,2.8088379,3.7202148
		c0.6815796,0.7036133,1.4252319,1.3137207,2.1746826,1.9257812c0.2747803,0.2243652,0.621582,0.3642578,0.9442139,0.5258789
		c0.1397705,0.0698242,0.3029175,0.0664062,0.4309692-0.0441895c0.1445312-0.125,0.0861816-0.2814941,0.0272217-0.4221191
		C25.7386093,88.693573,25.6772079,88.5487976,25.5851669,88.4316101z"/>
	<path class="st0" d="M109.6006088,39.3110008c-2.3189697-4.2226562-5.5499878-7.6689453-9.3308716-10.6191406
		c-0.1375732-0.1071777-0.2667847-0.2993164-0.5770874-0.2072754c0.3618164,0.2180176,0.5529175,0.505127,0.7607422,0.7766113
		c1.828186,2.3916016,3.6506348,4.7871094,5.4845581,7.1743164c2.1118774,2.7490234,3.8776245,5.6767578,4.9848633,8.9931641
		c0.9958496,2.9833984,1.5560303,6.0324707,1.7251587,9.1628418c0.0286865,0.5324707,0.0518188,1.0661621,0.0455322,1.5991211
		c-0.0206299,1.723877,0.1069336,3.447998-0.2249146,5.1669922c-0.2806396,1.4543457-0.5778809,2.9035683-0.8631592,4.366703
		c0.0344849-0.0429688,0.0811768-0.0808105,0.1016846-0.1293945c1.9297485-4.5810585,2.5662231-9.3161659,1.8539429-14.255619
		C112.9476547,47.0859032,111.663353,43.0666161,109.6006088,39.3110008z"/>
	<path class="st0" d="M107.6775742,44.6254539c0.7498169,3.1262207,1.416748,6.2644043,1.644104,9.4707031
		c0.227417,3.2060547-0.107666,6.4194336,0.0948486,9.6374512c0.9589844-3.1804199,1.1272583-6.4489746,0.9089966-9.7253418
		C110.1062851,50.7179832,109.4384995,47.5146141,107.6775742,44.6254539z"/>
	<path class="st0" d="M65.9438705,100.8451843c-3.4544678,0.1911621-6.8898926-0.0583496-10.3023682-0.6652832
		c-6.727417-1.1967773-12.772583-3.8808594-18.0233154-8.267334c-5.1971436-4.3417969-9.0189209-9.7336426-11.8324585-15.8583984
		c-1.4029541-3.0539551-2.3475952-6.2680664-3.2176514-9.5263672c0.071106,1.0415039-0.0765381,2.0822754-0.0196533,3.1010742
		c0.0585327,1.0471191,0.4465942,2.0754395,0.687439,3.112793c0.2844849,1.2246094,0.7420654,2.3881836,1.1890869,3.5605469
		c0.9803467,2.5703125,2.1751099,4.9985352,3.8710327,7.1984863c1.4761353,1.9147949,2.9298706,3.8312988,4.6063232,5.5852051
		c1.9749146,2.0661621,4.178894,3.84375,6.5019531,5.4794922c0.7936401,0.5588379,1.4725952,1.2844238,2.3572998,1.7036133
		c1.4407349,0.6831055,2.8734131,1.3952637,4.3581543,1.9699707c1.8388672,0.7116699,3.6891479,1.387207,5.62677,1.8408203
		c1.6856689,0.3947754,3.3980103,0.6428223,5.0760498,1.0610352c0.2008667,0.0500488,0.4164429,0.0715332,0.6233521,0.0629883
		c1.1091309-0.0466309,2.2052612,0.1315918,3.3087158,0.175293c1.5928955,0.0627441,3.1748047,0.2995605,4.7827759-0.013916
		c0.8811646-0.1716309,1.8041992-0.2148438,2.7233887-0.203125c0.8898315,0.0109863,1.796875-0.0568848,2.6699829-0.2265625
		c3.1830444-0.6186523,6.192627-1.7324219,9.0193481-3.3283691c0.1879272-0.1062012,0.3987427-0.1943359,0.5686646-0.4697266
		c-0.8001099,0.0505371-1.4168701,0.3903809-2.041687,0.6789551
		C74.4983139,99.6542664,70.2994003,100.6047058,65.9438705,100.8451843z"/>
	<path class="st0" d="M103.2489243,85.6757507c-1.0780029,1.9506836-2.0456543,3.9851074-3.4380493,5.7265625
		c-2.4398804,3.0515137-4.5848389,6.3413086-7.3458252,9.135498c-1.0193481,1.0314941-2.0968628,1.9829102-3.2879639,2.8171387
		c-0.6978149,0.4887695-1.3905029,1.005127-1.9625244,1.6508789c-0.5372925,0.6074219-0.4752197,0.8579102,0.2789307,1.1774902
		c0.1032715,0.0437012,0.2197876,0.0817871,0.329834,0.0808105c1.0081787-0.0083008,2.0142822,0.0563965,3.0234985-0.0935059
		c1.5592041-0.2314453,3.0246582-0.7570801,4.4648438-1.3527832c1.2208862-0.505127,2.3101807-1.2810059,3.3051758-2.1188965
		c1.020752-0.8596191,1.8081055-1.9626465,2.3428345-3.2287598c0.5633545-1.3342285,1.0053711-2.7089844,1.4563599-4.0800781
		c0.5238037-1.5922852,0.7560425-3.2563477,1.1053467-4.8918457c0.3181152-1.489502,0.5574951-2.9919434,0.7014771-4.5043945
		c0.0409546-0.4296875,0.1635742-0.9528809-0.2392578-1.3835449
		C103.6302109,84.9308777,103.4504013,85.3114929,103.2489243,85.6757507z"/>
	<path class="st4" d="M112.8923569,45.7970848c-1.2224121-4.5834961-3.5993042-8.5466309-6.7163696-12.0817871
		c-2.4129028-2.7368164-5.1087646-5.184082-7.8208008-7.6181641c-2.5386963-2.2785645-4.5715942-4.9394531-5.8772583-8.1340332
		c-0.6769409-1.6564941-1.4856567-3.2568359-2.5288086-4.7282715c-2.0535278-2.8964844-4.9125977-4.7421875-8.0619507-6.204834
		c-5.1970215-2.4135742-10.7212524-3.2604978-16.3909302-3.3730466c-3.2041016-0.0563965-6.3600464,0.3601072-9.4732666,1.0480955
		c-4.5821533,1.0129395-8.7879639,2.9824219-12.869873,5.2429199c-2.7355347,1.5148926-5.12677,3.4987793-7.5272827,5.4741211
		c-3.8307495,3.1525879-7.5845947,6.3996582-10.8946533,10.0991211c-2.4867554,2.7792969-5.3102417,5.0522461-8.5745239,6.8410645
		c-2.9262094,1.6032715-5.4911509,3.6938477-7.8058481,6.1083984c-2.2674556,2.3647461-3.4064326,5.1430664-3.3795161,8.4101562
		c0.000061,0.0065918,0.0008545,0.0129395,0.0009155,0.0195312c0.0048218,0.5324707,0.031189,1.0622559,0.0731201,1.5898438
		c0.0057983,0.072998,0.0134888,0.1459961,0.0200195,0.2189941c0.0442505,0.4987793,0.1010132,0.9956055,0.1745605,1.4899902
		c0.003418,0.0229492,0.0063477,0.0458984,0.0098267,0.0688477c0.166626,1.0998535,0.4005737,2.1894531,0.6852417,3.2700195
		c0.8890991,3.375,2.2188716,6.6054688,3.3338618,9.9064941c0.6531982,1.93433,1.3483887,3.8559608,1.3062744,5.9397011
		c-0.0401001,1.9831543-0.1652222,3.9633789-0.4002075,5.9316406c-0.526123,4.4057617-0.1820068,8.7443848,0.8565063,13.0454102
		c0.0047607,0.0197754,0.0083618,0.0395508,0.0131226,0.059082c0.1899414,0.7817383,0.4473877,1.5083008,0.7419434,2.2050781
		c0.026001,0.0612793,0.0498047,0.1247559,0.0765991,0.1855469c1.2073975,2.737793,3.2297974,4.8132324,6.1033335,6.2026367
		c0.477356,0.230957,0.994751,0.3798828,1.4959106,0.5605469c0.305603,0.1103516,0.4985352,0.248291,0.59021,0.4101562
		c0.1324463,0.2341309,0.0471191,0.5200195-0.2695923,0.8579102c-0.0653076,0.0698242-0.1391602,0.1315918-0.2008057,0.2038574
		c-1.6936646,1.9941406-2.6881104,4.2226562-2.3922729,6.9135742c0.0297852,0.270752,0.0760498,0.5334473,0.135437,0.7890625
		c0.9161987,3.9421387,5.2286377,6.0339355,8.9682007,4.1159668c1.8604126-0.9541016,4.1436157-0.2263184,5.1065063,1.6179199
		c0.0075684,0.0144043,0.0185547,0.0258789,0.026001,0.0405273c0.2236328,0.4416504,0.4302368,0.8920898,0.644165,1.338623
		c0.3960571,0.8276367,0.7700195,1.6672363,1.1849365,2.4838867c0.0446167,0.0876465,0.0886841,0.1757812,0.1343994,0.2626953
		c0.0991821,0.189209,0.2134399,0.369873,0.3192139,0.5551758c0.3699951,0.6484375,0.770752,1.2797852,1.2709351,1.8564453
		c1.6259766,1.8747559,3.6815796,2.559082,6.1000366,2.2612305c1.6584473-0.2043457,3.1430664-0.8974609,4.5744019-1.7111816
		c2.7816772-1.5817871,5.2024536-3.6616211,7.6977539-5.635498c0.8355103-0.6606445,1.7323608-0.8925781,2.7716675-0.7766113
		c1.6978149,0.1894531,3.1798096,0.8955078,4.5626221,1.8452148c2.2800293,1.5656738,4.7297974,2.7714844,7.3892822,3.5427246
		c4.8616333,1.4106445,9.7703857,1.8254395,14.7353516,0.6149902c4.8799438-1.1899414,9.2755737-3.4055176,13.34021-6.3356934
		c2.5296631-1.8237305,4.6101074-4.0205078,6.1685181-6.7319336c1.5290527-2.6606445,2.4087524-5.5488281,3.1046753-8.503418
		c1.0174561-4.3193359,1.3877563-8.7285156,1.713623-13.1386719c0.2749634-3.722168,0.8909912-7.3798828,1.9811401-10.9455566
		c0.8694458-2.8439941,2.119812-5.5483398,3.2315674-8.3024902c0.9562378-2.3691444,1.53479-4.8134804,1.7850342-7.3574257
		C114.5396347,53.7380028,113.9444199,49.7414207,112.8923569,45.7970848z M62.7560043,6.5917625
		c1.2813721-0.4477539,2.6315308-0.373291,3.954895-0.4990234c0.3968506-0.0375977,0.800415-0.0056152,1.2007446-0.0056152
		c4.128418,0.161377,8.2164307,0.6279297,12.1040039,2.0993652c2.432251,0.9204102,4.6068115,2.3144531,6.6127319,4.0043945
		c1.7974854,1.5141602,2.8521729,3.4335938,3.5935059,5.5898438c0.0310059,0.090332,0.0760498,0.1789551,0.0863037,0.2717285
		c0.0333862,0.2993164,0.1307983,0.6513672-0.2038574,0.8237305c-0.3466187,0.1782227-0.5011597-0.1657715-0.6825562-0.3669434
		c-1.364624-1.512207-2.6013794-3.152832-4.199585-4.4343262c-2.293335-1.838623-4.800293-3.3483887-7.656311-4.1054688
		C73.462059,8.8813133,69.3142929,7.9662743,65.10952,7.3393211c-0.6590576-0.0983887-1.3210449-0.1801758-1.9900513-0.1743164
		c-0.1138306,0.0007324-0.2323608,0.0073242-0.3406372-0.0202637c-0.1700439-0.0429688-0.3488159-0.135498-0.3605347-0.3186035
		C62.4055405,6.6293602,62.6284409,6.6364403,62.7560043,6.5917625z M51.1413193,70.1972351
		c0.6370239-0.236084,1.3225708-0.371582,2.0407104-0.371582c1.1020508,0,2.1306763,0.3095703,3.0139771,0.8381348
		l20.7705078-20.7680702c-0.4334106-0.8203125-0.6815796-1.7531738-0.6815796-2.7436523
		c0-3.2507324,2.6445923-5.8952637,5.8954468-5.8952637c3.2507935,0,5.8953857,2.6445312,5.8953857,5.8952637
		c0,3.2509766-2.6445923,5.8955078-5.8953857,5.8955078c-0.8605957,0-1.6762695-0.1896973-2.4140625-0.5227051L58.6796494,73.610321
		c0.2528687,0.6564941,0.3972778,1.3662109,0.3972778,2.1108398c0,3.2507324-2.6445923,5.8952637-5.8948975,5.8952637
		c-3.2507935,0-5.8954468-2.6445312-5.8954468-5.8952637c0-1.1306152,0.3255005-2.184082,0.8794556-3.0822754l-5.3193359-7.5021973
		c-0.526123,0.154541-1.0809937,0.2412109-1.6563721,0.2412109c-3.2508545,0-5.8954468-2.6445351-5.8954468-5.8955116
		c0-3.2507324,2.6445923-5.8955078,5.8954468-5.8955078c3.2507935,0,5.8953857,2.6447754,5.8953857,5.8955078
		c0,1.2802734-0.4146118,2.4628906-1.1103516,3.4304199L51.1413193,70.1972351z M25.7696762,89.2546082
		c-0.1280518,0.1105957-0.2911987,0.1140137-0.4309692,0.0441895c-0.3226318-0.1616211-0.6694336-0.3015137-0.9442139-0.5258789
		c-0.7494507-0.6120605-1.493103-1.222168-2.1746826-1.9257812c-1.0964355-1.1315918-2.083374-2.3376465-2.8088379-3.7202148
		c-1.7228394-3.2827148-3.0058594-6.737793-3.8006601-10.3657227c-0.432251-1.9733887-0.6898193-3.9626465-0.8668823-5.9821777
		c-0.1635742-1.8671875-0.4383545-3.7390175-0.6779175-5.6066933c-0.367981-2.8691406-0.803894-5.7363281-0.819397-8.635498
		c-0.0180054-3.3537598,0.4458618-6.6477051,1.5075684-9.8405762c1.1550903-3.473877,2.7954111-6.6445312,5.4469614-9.2629395
		c2.2775879-2.2487793,4.4332275-4.621582,6.631897-6.949707c0.4425049-0.4685059,1.0046997-0.6325684,1.6871338-0.8442383
		c-0.2753906,0.6806641-0.5726929,1.184082-0.9320679,1.6582031c-1.1062012,1.4580078-2.3572998,2.7937012-3.527771,4.1970215
		c-1.8833618,2.2585449-3.5692749,4.6469727-4.9011841,7.2807617c-1.3341675,2.6384277-2.5556641,5.3198242-3.3557749,8.1750488
		c-0.4379883,1.5632324-0.6500244,3.1679688-0.8282471,4.776123c-0.1828613,1.6489258-0.2103882,3.2983398-0.1015015,4.9587402
		c0.1408691,2.1452637,0.53302,4.2473145,0.8518677,6.3662109c0.3280649,2.1799355,0.8782358,4.3230019,1.0169687,6.540287
		c0.1766357,2.8212891,0.8858643,5.557373,1.6279907,8.2780762c0.1835327,0.6730957,0.5970459,1.2314453,0.9142456,1.8356934
		c1.1366577,2.1635742,2.3880615,4.2431641,4.1193848,6.0124512c0.8079834,0.8254395,1.463562,1.8010254,2.1815796,2.713623
		c0.092041,0.1171875,0.1534424,0.2619629,0.211731,0.4008789C25.8558578,88.973114,25.9142075,89.1296082,25.7696762,89.2546082z
		 M36.0363998,99.3271179c-1.4616089,0.159668-2.8828735,0.5390625-4.3282471,0.7807617
		c-1.5510864,0.2592773-2.4204102-0.4541016-2.578125-2.0229492c-0.0567627-0.5646973-0.21875-1.1166992-0.0079346-1.6899414
		c0.369812-1.0048828,1.0355835-1.2158203,1.7904663-0.4716797c0.8526611,0.840332,1.8101807,1.5043945,2.87323,2.0407715
		c0.4680786,0.2363281,0.9594727,0.3684082,1.4648438,0.4619141c0.5165405,0.0957031,0.96521,0.3195801,1.4266968,0.6442871
		C36.4553452,99.2731628,36.2359848,99.3051453,36.0363998,99.3271179z M65.406395,107.1530457
		c-1.2127075,0.8349609-2.5947876,1.0285645-4.1484375,1.0673828c-1.1217651-0.1206055-2.3701782-0.2519531-3.6176147-0.3916016
		c-0.2462769-0.0275879-0.4868164-0.0649414-0.7380981-0.0270996c-1.3933105,0.2089844-2.781311,0.4458008-4.1399536,0.8256836
		c-0.5010376,0.140625-1.0140381,0.1855469-1.5255737,0.213623c-1.1395874,0.0622559-2.2806396,0.1105957-3.4216919,0.1276855
		c-1.649353,0.0251465-2.8404541-0.8422852-3.7816162-2.0883789c-0.4102783-0.5432129-0.7199097-1.1660156-1.0427246-1.7700195
		c-0.2275391-0.4262695-0.3060913-0.8984375-0.2548828-1.3859863c0.0424194-0.4035645,0.2570801-0.5302734,0.6311035-0.3955078
		c0.1429443,0.0515137,0.2890015,0.1047363,0.418457,0.1826172c1.9231567,1.154541,4.1033936,1.6101074,6.2503052,1.8342285
		c2.7225342,0.2839355,5.4365845,0.7202148,8.1836548,0.7963867c1.4064941,0.0388184,2.8082886,0.253418,4.2144775,0.2856445
		c0.9306641,0.0209961,1.8577271,0.0471191,2.7839966,0.1330566c0.1969604,0.0180664,0.4746704-0.0751953,0.5375977,0.1884766
		C65.8059921,106.9604187,65.5595932,107.047821,65.406395,107.1530457z M79.9500961,97.6071472
		c-2.8267212,1.5959473-5.8363037,2.7097168-9.0193481,3.3283691c-0.8731079,0.1696777-1.7801514,0.2375488-2.6699829,0.2265625
		c-0.9191895-0.0117188-1.8422241,0.0314941-2.7233887,0.203125c-1.6079712,0.3134766-3.1898804,0.0766602-4.7827759,0.013916
		c-1.1034546-0.0437012-2.199585-0.2219238-3.3087158-0.175293c-0.2069092,0.0085449-0.4224854-0.0129395-0.6233521-0.0629883
		c-1.6780396-0.4182129-3.3903809-0.6662598-5.0760498-1.0610352c-1.9376221-0.4536133-3.7879028-1.1291504-5.62677-1.8408203
		c-1.4847412-0.574707-2.9174194-1.2868652-4.3581543-1.9699707c-0.8847046-0.4191895-1.5636597-1.1447754-2.3572998-1.7036133
		c-2.3230591-1.6357422-4.5270386-3.4133301-6.5019531-5.4794922c-1.6764526-1.7539062-3.130188-3.6704102-4.6063232-5.5852051
		c-1.6959229-2.1999512-2.890686-4.6281738-3.8710327-7.1984863c-0.4470215-1.1723633-0.9046021-2.3359375-1.1890869-3.5605469
		c-0.2408447-1.0373535-0.6289062-2.0656738-0.687439-3.112793c-0.0568848-1.0187988,0.0907593-2.0595703,0.0196533-3.1010742
		c0.8700562,3.2583008,1.8146973,6.4724121,3.2176514,9.5263672c2.8135376,6.1247559,6.6353149,11.5166016,11.8324585,15.8583984
		c5.2507324,4.3864746,11.2958984,7.0705566,18.0233154,8.267334c3.4124756,0.6069336,6.8479004,0.8564453,10.3023682,0.6652832
		c4.3555298-0.2404785,8.5544434-1.190918,12.5332031-3.0288086c0.6248169-0.2885742,1.2415771-0.628418,2.041687-0.6789551
		C80.3488388,97.4128113,80.1380234,97.500946,79.9500961,97.6071472z M104.2228622,85.993866
		c-0.1439819,1.5124512-0.3833618,3.0148926-0.7014771,4.5043945c-0.3493042,1.635498-0.581543,3.2995605-1.1053467,4.8918457
		c-0.4509888,1.3710938-0.8930054,2.7458496-1.4563599,4.0800781c-0.534729,1.2661133-1.3220825,2.3691406-2.3428345,3.2287598
		c-0.9949951,0.8378906-2.0842896,1.6137695-3.3051758,2.1188965c-1.4401855,0.5957031-2.9056396,1.1213379-4.4648438,1.3527832
		c-1.0092163,0.1499023-2.0153198,0.0852051-3.0234985,0.0935059c-0.1100464,0.0009766-0.2265625-0.0371094-0.329834-0.0808105
		c-0.7541504-0.3195801-0.8162231-0.5700684-0.2789307-1.1774902c0.5720215-0.645752,1.2647095-1.1621094,1.9625244-1.6508789
		c1.1911011-0.8342285,2.2686157-1.7856445,3.2879639-2.8171387c2.7609863-2.7941895,4.9059448-6.0839844,7.3458252-9.135498
		c1.392395-1.7414551,2.3600464-3.7758789,3.4380493-5.7265625c0.2014771-0.3642578,0.3812866-0.744873,0.7346802-1.0654297
		C104.3864365,85.0409851,104.2638168,85.5641785,104.2228622,85.993866z M104.2840195,58.3717918
		c-0.0994873,1.6206055-0.3391724,3.232666-0.5188599,4.8479004l-0.1679688,0.0019531
		c0-1.2355957,0.0236816-2.4716797-0.0043945-3.706543c-0.1043701-4.5925293-1.0363159-9.0349121-2.4915161-13.3759766
		c-0.664917-1.9838867-1.371521-3.9545898-2.2122803-5.8713379c-0.9645996-2.1984863-2.0219116-4.3510742-3.5343628-6.2409668
		c-0.3719482-0.4648438-0.973938-0.4694824-1.484314-0.6035156c-0.2648315-0.0693359-0.4378052-0.1799316-0.6069336-0.3493652
		c-2.0354004-2.0380859-4.111145-4.0270996-6.4298096-5.7524414c-3.1260986-2.326416-6.5236206-4.1291504-10.1497192-5.5456543
		c-1.494873-0.5842285-2.9924927-1.1640625-4.5498657-1.5046387c-3.4605713-0.7565918-6.9419556-1.4074707-10.522522-1.1350098
		c-1.175293,0.0891113-2.3602295,0.0473633-3.5378418,0.1142578c-1.2764282,0.072998-2.5065918,0.4536133-3.7696533,0.6318359
		c-2.3273315,0.3283691-4.5275879,1.1362305-6.7540894,1.8422852c-0.1814575,0.0576172-0.3615723,0.1337891-0.5478516,0.1572266
		c-0.1732178,0.0214844-0.4945679,0.1325684-0.1741333-0.2687988c0.1489868-0.1862793-0.1115112-0.4926758-0.2329102-0.7172852
		l-0.4979858-0.2275391c6.5410767-3.1044922,13.4039917-4.2414551,20.5895996-3.314209
		c1.491333,0.1923828,2.9613037,0.5393066,4.4014893,0.9841309c2.3458862,0.7246094,4.6826782,1.4641113,6.9836426,2.3391113
		c2.2822266,0.8679199,4.5375366,1.7514648,6.6503296,2.9868164c2.7017822,1.5795898,5.1276855,3.5239258,7.3423462,5.7084961
		c3.0350342,2.9936523,5.7628784,6.2526855,7.7335815,10.0693359c1.1281738,2.1845703,1.9523926,4.4951172,2.7081909,6.8366699
		c0.9069214,2.8093262,1.5369873,5.6652832,1.6704102,8.6118164
		C104.2292709,56.0495262,104.3548203,57.2170067,104.2840195,58.3717918z M109.4165268,63.7336082
		c-0.2025146-3.2180176,0.1325684-6.4313965-0.0948486-9.6374512c-0.227356-3.2062988-0.8942871-6.3444824-1.644104-9.4707031
		c1.7609253,2.8891602,2.4287109,6.0925293,2.6479492,9.3828125
		C110.5437851,57.2846336,110.3755112,60.5531883,109.4165268,63.7336082z M111.7071152,65.5949402
		c-0.0205078,0.048584-0.0671997,0.0864258-0.1016846,0.1293945c0.2852783-1.4631348,0.5825195-2.9123573,0.8631592-4.366703
		c0.3318481-1.7189941,0.2042847-3.4431152,0.2249146-5.1669922c0.0062866-0.532959-0.0168457-1.0666504-0.0455322-1.5991211
		c-0.1691284-3.1303711-0.7293091-6.1794434-1.7251587-9.1628418c-1.1072388-3.3164062-2.8729858-6.2441406-4.9848633-8.9931641
		c-1.8339233-2.387207-3.6563721-4.7827148-5.4845581-7.1743164c-0.2078247-0.2714844-0.3989258-0.5585938-0.7607422-0.7766113
		c0.3103027-0.092041,0.4395142,0.1000977,0.5770874,0.2072754c3.7808838,2.9501953,7.0119019,6.3964844,9.3308716,10.6191406
		c2.0627441,3.7556152,3.3470459,7.7749023,3.9604492,12.0283203
		C114.2733383,56.2787743,113.6368637,61.0138817,111.7071152,65.5949402z"/>
	<path class="st0" d="M41.1903305,53.5868797c-3.2508545,0-5.8954468,2.6447754-5.8954468,5.8955078
		c0,3.2509766,2.6445923,5.8955116,5.8954468,5.8955116c0.5753784,0,1.130249-0.0866699,1.6563721-0.2412109l5.3193359,7.5021973
		c-0.5539551,0.8981934-0.8794556,1.9516602-0.8794556,3.0822754c0,3.2507324,2.6446533,5.8952637,5.8954468,5.8952637
		c3.2503052,0,5.8948975-2.6445312,5.8948975-5.8952637c0-0.7446289-0.1444092-1.4543457-0.3972778-2.1108398l21.0866699-21.085453
		c0.737793,0.3330078,1.5534668,0.5227051,2.4140625,0.5227051c3.2507935,0,5.8953857-2.6445312,5.8953857-5.8955078
		c0-3.2507324-2.6445923-5.8952637-5.8953857-5.8952637c-3.2508545,0-5.8954468,2.6445312-5.8954468,5.8952637
		c0,0.9904785,0.2481689,1.9233398,0.6815796,2.7436523L56.1960068,70.6637878
		c-0.8833008-0.5285645-1.9119263-0.8381348-3.0139771-0.8381348c-0.7181396,0-1.4036865,0.135498-2.0407104,0.371582
		l-5.1659546-7.2844276c0.6957397-0.9675293,1.1103516-2.1501465,1.1103516-3.4304199
		C47.0857162,56.2316551,44.441124,53.5868797,41.1903305,53.5868797z"/>
</g>
<g>
	<g>
		<path class="st1" d="M168.602829,15.724c-2.8586426,1.1103163-3.8052673,4.6475058-1.8394318,6.9542379
			c0.2813263,0.3303928,0.3271332,0.5386391-0.0625763,0.8119621c-1.3455963,0.9446201-1.357605,2.9479923-0.3874512,4.0588093
			c0.2608032,0.2988529,0.3000946,0.4004745-0.0723419,0.6637859c-2.0952301,1.4812546-1.7918701,4.1509171,0.5639191,5.2191811
			c1.9665833,0.8920593,4.0583038,0.9080772,6.1482849,0.8399963c1.843689-0.06007,3.6598358-0.3183784,5.2244415-1.4246864
			c1.2414703-0.8780422,1.7598267-2.0954838,1.5856171-3.6012669c-0.169693-1.4697418-1.0442352-2.3612976-2.3943329-2.8318558
			c-1.4334412-0.4990902-2.9274597-0.3258858-4.1964722-0.3649311c-1.1233215,0-2.0411682,0-2.9589996,0
			c-0.3794556-0.0005016-0.7528992-0.042551-1.0840302-0.2422867c-0.4320221-0.2598095-0.4885864-0.6617851-0.348175-1.0993023
			c0.1556854-0.4855766,0.5026093-0.4054813,0.9013214-0.3123703c1.9405518,0.4500332,3.8733368,0.4295082,5.7665863-0.2362804
			c2.2271423-0.7834282,3.6475677-2.8558826,3.0946655-4.9563713c-0.3233795-1.2279549-0.1734619-1.9608231,0.7959442-2.7392445
			c0.7248535-0.5816898,0.7123413-1.3786335,0.221756-1.9222775c-0.4600372-0.5091038-1.3075409-0.5516539-1.9998627-0.0635757
			c-0.4588013,0.323884-0.8985596,0.6788044-1.3195648,1.050745c-0.224762,0.1982346-0.3929596,0.2112503-0.6813049,0.1101303
			C173.2355652,14.8224325,170.9143219,14.8259363,168.602829,15.724z M169.4075317,28.74893
			c0.8670197,0.0325394,1.7355499,0.0085106,2.6035767,0.0085106v0.0220261l0,0
			c0.8675385,0,1.7353058-0.0010014,2.6030884,0.0004997c0.3804474,0.0005016,0.7458801,0.0825977,1.0797729,0.2623119
			c0.7509003,0.4039783,0.8445129,1.433197,0.1622009,1.9302864c-0.2588043,0.1882229-0.5356293,0.3614273-0.8647766,0.4450264
			c-1.7580872,0.4480305-3.531189,0.4560413-5.2937775,0.1026211c-1.250473-0.2502956-1.7665863-1.0977993-1.354599-2.0399151
			C168.5429993,29.0227547,168.8418579,28.7274036,169.4075317,28.74893z M173.9634247,17.8029633
			c0.887558,0.3569221,1.3861389,1.3085499,1.2945404,2.2942181c-0.0916138,0.9871693-0.8352509,1.7545776-1.9748383,2.0053749
			c-0.318634,0.0700836-0.6507721,0.0780926-1.0222168,0.1191406c-0.933609-0.0350399-1.8922424-0.1631927-2.5970764-0.9285984
			c-0.9846649-1.0687675-0.5696716-2.837862,0.8119659-3.466608
			C171.624649,17.3038712,172.8105621,17.3394146,173.9634247,17.8029633z"/>
		<path class="st1" d="M248.1075134,24.9964848c0.3383942,1.7110271,1.0770264,3.2163105,2.495697,4.2685566
			c2.9309845,2.1745758,6.1122437,2.2962208,9.3826294,0.9000664c1.1418457-0.4875774,2.0476685-1.3325787,2.4699097-2.5610332
			c0.2042542-0.5932026,0.1256714-1.1733913-0.3849487-1.6028996c-0.4935913-0.415493-1.0537415-0.3273869-1.5793762-0.0770912
			c-0.3123779,0.1491776-0.6304932,0.3464108-0.8610229,0.5992107c-1.1621094,1.2765121-2.6456299,1.5293102-4.2500305,1.3551044
			c-2.1159973-0.2307739-3.7018738-1.5798721-3.9792023-3.2989082c-0.0593262-0.3684368-0.0330505-0.523119,0.4104767-0.51511
			c1.5523376,0.0285339,3.1051788,0.011013,4.6577759,0.011013c1.5525818,0,3.1051636,0.011013,4.6577759-0.0035038
			c1.1498413-0.0115147,1.6754761-0.4830723,1.795105-1.6234226c0.0941162-0.8970642-0.03479-1.78862-0.3203735-2.6346226
			c-0.9338684-2.7642746-2.9084473-4.3061008-5.772583-4.6685295c-3.0598755-0.3874598-5.718277,0.4134893-7.5376892,3.0431042
			C247.8704834,20.2428532,247.6286926,22.5751171,248.1075134,24.9964848z M251.4815063,20.5141754
			c0.5929565-1.8481903,2.2519226-2.8608894,4.4059753-2.6906872c1.8681946,0.1481743,3.1677551,1.1939144,3.5809937,2.8408642
			c0.1233826,0.4925842,0.0843506,0.709341-0.5166321,0.6843109c-1.1495972-0.0470562-2.3024597-0.0135155-3.454071-0.0135155
			c-1.1516266,0-2.3029785,0.0025024-3.4546051-0.0010014C251.2980347,21.3316441,251.245224,21.2505474,251.4815063,20.5141754z"/>
		<path class="st1" d="M222.0919342,15.058712c-4.6114502,0.0215254-7.8983459,3.3865128-7.8545532,8.0400238
			c0.0443115,4.7020702,3.3377075,7.9594307,8.0272675,7.9399071c4.9168243-0.020525,8.1421356-3.2453442,8.1228638-8.1211205
			C230.3687439,18.1859169,227.0433044,15.0351839,222.0919342,15.058712z M222.229599,27.9084339
			c-2.6734161-0.0260296-4.5999451-2.1225147-4.5466309-4.9478607c0.0528107-2.7963123,2.0236511-4.8287201,4.6462555-4.7916775
			c2.7527618,0.0385475,4.6855469,2.1165085,4.6124573,4.9578743
			C226.8675995,26.0081825,224.9693451,27.9344654,222.229599,27.9084339z"/>
		<path class="st1" d="M184.5594788,28.9942207c1.5550995,1.5858784,3.5431976,2.0053749,5.0787659,2.0379143
			c1.8164062-0.0010014,3.014328-0.1772099,4.1424103-0.7073383c2.8471222-1.3380852,3.5584564-5.2216854,1.3273163-7.3011494
			c-0.6112213-0.5691738-1.3621063-0.8910561-2.1590576-1.1268349c-1.3761292-0.4079838-2.8268433-0.4880772-4.1852112-0.9656429
			c-0.7949371-0.2793312-1.2121735-0.8299847-1.1956635-1.5428276c0.0155182-0.6657887,0.4500427-1.2269535,1.2624969-1.4091702
			c1.3823853-0.3098679,2.6936951-0.1491756,3.852066,0.7754192c0.4925842,0.393465,0.9123383,0.8875504,1.5152893,1.1373463
			c0.532135,0.2197609,1.0387421,0.2427883,1.5092926-0.15168c0.4730682-0.3969688,0.5559082-0.9125805,0.4119873-1.4692402
			c-0.1304016-0.5045967-0.378952-0.9556313-0.7436218-1.3400879c-1.003952-1.0577517-2.2924652-1.5288105-3.6866302-1.7335529
			c-2.0394135-0.2993546-4.0427856-0.2392836-5.8228912,0.9791603c-2.2624359,1.5488338-2.4146118,4.8717709-0.3103638,6.6123333
			c0.9293518,0.7684097,2.0654449,1.0672646,3.2193146,1.321064c1.005188,0.221262,2.0491791,0.2958508,3.0035553,0.71735
			c0.8229675,0.3634319,1.2231903,1.0137005,1.1290894,1.7575817c-0.0973663,0.7704144-0.6014709,1.2980385-1.4982758,1.4617329
			c-1.7443237,0.3183765-3.3106689-0.042551-4.5997009-1.3250694c-0.3509216-0.3494148-0.7038422-0.6958256-1.1458588-0.9265976
			c-0.4915771-0.2573051-1.0109406-0.2603092-1.4772491,0.0200233c-0.4880829,0.2928467-0.6515198,0.7884331-0.5901947,1.3435917
			C183.6779327,27.8919144,184.0616455,28.4861183,184.5594788,28.9942207z"/>
		<path class="st1" d="M147.2878265,28.0145607c-1.5873871,0.3368988-3.0778961,0.1351604-4.3581696-0.9611397
			c-0.4099731-0.3514156-0.805954-0.7198524-1.2199402-1.0662632c-0.5206146-0.4355145-1.3178101-0.5086021-1.8391724-0.1491756
			c-0.584198,0.4014759-0.6577911,0.9906731-0.4940948,1.6234226c0.1371613,0.5296268,0.4119873,0.9876709,0.7844391,1.3956528
			c1.5896301,1.7415638,3.6798553,2.1200123,5.8887177,2.1370316c0.3053589,0,0.6139832,0.0300369,0.9153442-0.0045052
			c1.9948578-0.2297726,3.7534332-0.8640232,4.7200775-2.8198395c0.9561462-1.9342918,0.4375305-4.2570438-1.2704926-5.4814949
			c-0.9348602-0.6707935-2.0509338-0.8965607-3.1549988-1.1323414c-1.0059357-0.2152538-2.0466614-0.2793293-3.0028076-0.7138443
			c-0.649765-0.295351-0.9901733-0.7819271-0.9551239-1.4927692c0.0365448-0.7328682,0.4915771-1.1548672,1.1576233-1.3365822
			c1.1741333-0.3208809,2.3049774-0.222765,3.3910065,0.3819523c0.6470184,0.3599262,1.1180878,0.9306011,1.7263031,1.3295746
			c0.574173,0.3764458,1.1869049,0.4770641,1.7776031,0.0740871c0.5881958-0.4009743,0.6345062-1.0157032,0.4560394-1.635437
			c-0.2590485-0.9015675-0.8657684-1.543829-1.6664734-2.00037c-2.2056122-1.2574892-4.5591431-1.4066658-6.9512329-0.7548943
			c-2.6175995,0.7138462-3.9902191,3.1962872-3.1682587,5.6086445c0.5656738,1.6609669,1.9242859,2.4208679,3.5019073,2.8428669
			c1.2922821,0.3454094,2.6168518,0.5701771,3.9053802,0.9270992c0.8109589,0.2247658,1.2254486,0.91959,1.1889038,1.7125282
			C148.5858612,27.2411442,148.1067963,27.840353,147.2878265,28.0145607z"/>
		<path class="st1" d="M200.0543365,18.4582386c0.6044617,0.0685825,1.219696,0.0750904,1.8289185,0.0600719
			c0.3959656-0.0095119,0.5283661,0.1096306,0.5208588,0.5156116c-0.0235291,1.2695026-0.0084991,2.5395069-0.0084991,3.8095112
			c0.0002441,1.22295-0.0200348,2.4463997,0.0057526,3.6683464c0.0282745,1.3435917,0.4612885,2.5470181,1.5202942,3.4180489
			c1.6617279,1.3666191,3.5204315,1.3511009,5.4396973,0.6332512c0.9751587-0.364933,1.7811127-0.9456215,2.2201385-1.9247799
			c0.2843323-0.6347523,0.2377777-1.272007-0.2938538-1.7465706c-0.5341339-0.4770641-1.1563721-0.4310093-1.7530823-0.0570679
			c-0.3559113,0.2232647-0.6928101,0.4815712-1.0642548,0.6732979c-1.4632416,0.7558956-2.6846771,0.0490589-2.6994476-1.5783691
			c-0.0205231-2.2812023,0.0097656-4.5629063-0.0172729-6.8436069c-0.006012-0.5025959,0.1967316-0.5756817,0.6204834-0.56567
			c1.0109558,0.0220261,2.0229034,0.008009,3.0343475,0.0065079c0.4520416-0.0005016,0.9095764-0.0380459,1.2742615-0.3248844
			c0.496582-0.3904629,0.7205963-0.911581,0.5814362-1.5553436c-0.1406708-0.6512709-0.5571594-1.0562515-1.1974182-1.1213284
			c-0.7458801-0.0765905-1.5022736-0.0415487-2.2539215-0.0690813c-0.6532745-0.0235281-1.4932709,0.271822-1.9095154-0.1141357
			c-0.4244995-0.3944674-0.0886078-1.2449751-0.1366577-1.8932428c-0.0207672-0.2808323-0.0077515-0.56567-0.0467987-0.8434992
			c-0.1324158-0.9426165-0.8407593-1.5468321-1.7255554-1.4917669c-0.947113,0.0595703-1.5823669,0.7333689-1.5966339,1.7115278
			c-0.0100098,0.7053356-0.0215302,1.4121723,0.0055084,2.1165066c0.0152588,0.3914642-0.0946198,0.5411415-0.508606,0.526124
			c-0.6092224-0.0210257-1.2244568-0.0140171-1.8301697,0.049058c-0.7701569,0.0800943-1.340332,0.737874-1.335083,1.4527216
			C198.7352753,17.7423916,199.2576447,18.3671322,200.0543365,18.4582386z"/>
		<path class="st1" d="M235.3726807,30.6546879c0.5581512,0.3724403,1.1496124,0.3769455,1.7375488,0.0891056
			c0.6442719-0.3153744,0.8780365-0.8850479,0.8795471-1.5648537c0.0045013-2.1405354,0.0014954-4.2815723,0.0017548-6.4221077
			c0-0.8039532,0.0853424-1.5953903,0.3621674-2.3557911c0.2793427-0.76791,0.6948242-1.4482155,1.4437103-1.8346729
			c1.0512543-0.5426426,1.8892517-0.3263874,2.9615173,0.6988277c0.525116,0.5020943,1.1053009,0.7338696,1.8546906,0.4955864
			c0.6592865-0.2107487,0.9321136-0.6823082,1.0382385-1.2900276c0.1364136-0.7799244-0.0620728-1.4857597-0.5621643-2.1059952
			c-0.6980896-0.8660259-1.6439514-1.2074308-2.7132263-1.2940331c-1.7395477-0.140667-3.1662445,0.4690561-4.2975922,1.8717175
			c-0.0470428-0.1291523-0.0750885-0.1827164-0.0865936-0.2397842c-0.2327728-1.1423531-0.8399963-1.6339359-1.8872375-1.5268087
			c-0.9028168,0.0926094-1.4782562,0.7809248-1.4799957,1.8266649c-0.0072632,4.0227642-0.0047607,8.0455303-0.0012665,12.0682964
			C234.6242828,29.7110691,234.8095093,30.2787418,235.3726807,30.6546879z"/>
		<path class="st1" d="M158.4933472,15.1638365c-0.9411163-0.0085096-1.6807404,0.6392574-1.6857452,1.6079054
			c-0.022522,4.1634312-0.0187683,8.3268642-0.0012512,12.4902954c0.0037537,0.8475037,0.5634155,1.494772,1.2847748,1.6299324
			c1.1568756,0.2172565,2.0499268-0.4815712,2.0654449-1.6829948c0.0260315-2.0464249,0.0070038-4.0928478,0.0070038-6.1392727
			c-0.0004883-2.069952,0.0205231-4.1404037-0.0090027-6.209856
			C160.1395569,15.7980881,159.4827728,15.1728477,158.4933472,15.1638365z"/>
		<path class="st1" d="M158.5136261,9.152215c-1.1844025-0.011013-2.1300201,0.9145842-2.1220093,2.0774612
			c0.0080109,1.1793976,0.9113312,2.0634441,2.1179962,2.0724554c1.1516266,0.0090103,2.0709534-0.8870516,2.0779724-2.0243988
			C160.5950928,10.0903263,159.6905212,9.163228,158.5136261,9.152215z"/>
	</g>
	<g>
		<path class="st1" d="M137.3905182,99.016571c0-3.2246094,1.9707031-5.6611328,4.8725586-7.0224609
			c-1.7915039-1.4335938-2.8305664-3.4755859-2.8305664-5.9121094c0-2.7578125,1.2182617-4.9082031,3.9770508-6.5917969
			c-2.4003906-2.1142578-3.7260742-5.015625-3.7260742-8.4550781c0-7.666996,6.5566406-12.5400429,16.8032227-12.5400429
			c3.8334961,0,7.1655273,0.6806641,9.7807617,1.9345703l3.546875-2.9736328
			c1.003418-0.8242188,2.2216797-1.3613281,3.3681641-1.3613281c1.8989258,0,3.3320312,1.5048828,3.3320312,3.1533203
			c0,1.2539062-0.7167969,2.5078125-1.9350586,3.6181641l-2.7944336,2.4365273
			c0.9672852,1.6474609,1.46875,3.5820312,1.46875,5.7324219c0,7.703125-6.484375,12.5390625-16.7670898,12.5390625
			c-2.9736328,0-5.6606445-0.3935547-7.9179688-1.1816406c-0.7880859,0.5732422-1.1821289,1.2177734-1.1821289,2.0419922
			c0,1.6123047,1.2895508,2.6513672,3.5107422,2.6513672h12.6831055c8.2045898,0,12.6831055,3.4394531,12.6831055,9.6728516
			c0,7.5595703-7.3447266,11.7880859-20.421875,11.7880859C143.911026,108.5468445,137.3905182,105.2861023,137.3905182,99.016571z
			 M156.235733,101.9179382c7.2373047,0,10.9995117-1.5761719,10.9995117-4.3710938
			c0-2.2568359-1.7558594-3.4033203-5.3745117-3.4033203h-12.2172852c-0.5371094,0-1.0390625-0.0361328-1.5405273-0.0712891
			c-1.3256836,0.8955078-2.0063477,2.0419922-2.0063477,3.5107422
			C146.0965729,100.5214539,149.3568268,101.9179382,156.235733,101.9179382z M156.5941315,77.125946
			c4.8725586,0,7.9179688-2.3652344,7.9179688-6.1630859c0-3.8330078-3.0454102-6.1982422-7.9179688-6.1982422
			c-4.9443359,0-8.0610352,2.4013672-8.0610352,6.1982422C148.5330963,74.7607117,151.6497955,77.125946,156.5941315,77.125946z"/>
		<path class="st1" d="M192.4871979,43.1972313c3.1523438,0,5.409668,2.328125,5.409668,5.3740234
			c0,3.0810547-2.2573242,5.4091797-5.409668,5.4091797c-3.1533203,0-5.4819336-2.328125-5.4819336-5.4091797
			C187.0052643,45.5253563,189.3338776,43.1972313,192.4871979,43.1972313z M188.0443268,95.2538757V63.2958641
			c0-2.6865234,1.8271484-4.5498047,4.4067383-4.5498047c2.5439453,0,4.3349609,1.8632812,4.3349609,4.5498047v31.9580116
			c0,2.6513672-1.7910156,4.5507812-4.3349609,4.5507812C189.8714752,99.804657,188.0443268,97.9052429,188.0443268,95.2538757z"/>
		<path class="st1" d="M215.3162994,87.766571V67.4882507h-5.3745117c-2.4003906,0-4.1201172-1.6484375-4.1201172-3.9775429
			c0-2.2929688,1.7197266-3.9404297,4.1201172-3.9404297h5.3745117v-6.7714844c0-2.6513672,1.8271484-4.5146484,4.4067383-4.5146484
			c2.543457,0,4.3349609,1.8632812,4.3349609,4.5146484v6.7714844h10.3901367c2.3647461,0,4.0844727,1.6474609,4.0844727,3.9404297
			c0,2.3291054-1.7197266,3.9775429-4.0844727,3.9775429h-10.3901367V86.547821
			c0,3.4042969,1.7553711,5.1240234,4.4428711,5.1240234c1.7910156,0,3.152832-0.8955078,4.5498047-2.0068359
			c0.8242188-0.6445312,1.8271484-1.2900391,3.152832-1.2900391c2.0063477,0,3.4394531,1.4697266,3.4394531,3.5478516
			c0,1.6123047-0.7880859,3.1884766-2.3286133,4.5859375c-2.2573242,2.0771484-6.019043,3.546875-9.8886719,3.546875
			C220.4754791,100.0556335,215.3162994,95.3622742,215.3162994,87.766571z"/>
		<path class="st1" d="M251.2845612,95.1464539c-1.7553711-1.6113281-2.9736328-3.8691406-2.9736328-5.6962891
			c0-2.078125,1.3969727-3.546875,3.5825195-3.546875c1.4692383,0,2.5083008,0.609375,4.2636871,2.4365234
			c2.7944336,3.0097656,5.9116211,4.2636719,9.7807617,4.2636719c4.15625,0,6.6640625-1.6123047,6.6640625-4.5507812
			c0-2.5429688-1.684082-4.2275391-5.1235352-4.8720703l-6.1621094-1.2539062
			c-7.7031403-1.5410156-11.6797028-5.5175781-11.6797028-11.3935547c0-7.4882851,5.9829102-12.0380898,15.3701324-12.0380898
			c5.0517578,0,9.565918,1.2539062,12.5039062,3.5107422c2.1850586,1.6484375,3.5825195,3.9052773,3.5825195,6.0556679
			c0,2.0058594-1.5048828,3.4746094-3.4750977,3.4746094c-1.5410156,0-2.8305664-0.9306641-4.5859375-2.5429688
			c-2.2929688-2.3652344-5.1591797-3.296875-8.2045898-3.296875c-3.762207,0-6.1625977,1.5771484-6.1625977,4.1923828
			c0,2.4003906,1.8271484,3.9404297,5.4458008,4.5859375l6.4848633,1.2890625
			c7.4165039,1.5048828,11.0708008,5.3027344,11.0708008,11.4296875c0,8.0605469-6.0908203,12.8623047-16.0507812,12.8623047
			C259.5248108,100.0556335,254.1864166,98.1562195,251.2845612,95.1464539z"/>
		<path class="st1" d="M298.3153381,43.1972313c3.1533203,0,5.4101562,2.328125,5.4101562,5.3740234
			c0,3.0810547-2.2568359,5.4091797-5.4101562,5.4091797c-3.1523438,0-5.4814453-2.328125-5.4814453-5.4091797
			C292.8338928,45.5253563,295.1629944,43.1972313,298.3153381,43.1972313z M293.8729553,95.2538757V63.2958641
			c0-2.6865234,1.8271484-4.5498047,4.4067383-4.5498047c2.5439453,0,4.3354492,1.8632812,4.3354492,4.5498047v31.9580116
			c0,2.6513672-1.7915039,4.5507812-4.3354492,4.5507812C295.7001038,99.804657,293.8729553,97.9052429,293.8729553,95.2538757z"/>
		<path class="st1" d="M314.528717,99.016571c0-3.2246094,1.9707031-5.6611328,4.8725586-7.0224609
			c-1.7915039-1.4335938-2.8300781-3.4755859-2.8300781-5.9121094c0-2.7578125,1.2177734-4.9082031,3.9765625-6.5917969
			c-2.4003906-2.1142578-3.7260742-5.015625-3.7260742-8.4550781c0-7.666996,6.5566406-12.5400429,16.8032227-12.5400429
			c3.8334961,0,7.1655273,0.6806641,9.7807617,1.9345703l3.5473633-2.9736328
			c1.0029297-0.8242188,2.2211914-1.3613281,3.3676758-1.3613281c1.8989258,0,3.3320312,1.5048828,3.3320312,3.1533203
			c0,1.2539062-0.7167969,2.5078125-1.9350586,3.6181641l-2.7944336,2.4365273
			c0.9672852,1.6474609,1.4692383,3.5820312,1.4692383,5.7324219c0,7.703125-6.4848633,12.5390625-16.7675781,12.5390625
			c-2.9736328,0-5.6606445-0.3935547-7.9179688-1.1816406c-0.7880859,0.5732422-1.1821289,1.2177734-1.1821289,2.0419922
			c0,1.6123047,1.2895508,2.6513672,3.5112305,2.6513672h12.6826172c8.2045898,0,12.6831055,3.4394531,12.6831055,9.6728516
			c0,7.5595703-7.3447266,11.7880859-20.421875,11.7880859C321.0492249,108.5468445,314.528717,105.2861023,314.528717,99.016571z
			 M333.3739319,101.9179382c7.2373047,0,10.9990234-1.5761719,10.9990234-4.3710938
			c0-2.2568359-1.7553711-3.4033203-5.3740234-3.4033203h-12.2172852c-0.5371094,0-1.0385742-0.0361328-1.5405273-0.0712891
			c-1.3256836,0.8955078-2.0063477,2.0419922-2.0063477,3.5107422
			C323.2347717,100.5214539,326.4950256,101.9179382,333.3739319,101.9179382z M333.7323303,77.125946
			c4.8725586,0,7.9179688-2.3652344,7.9179688-6.1630859c0-3.8330078-3.0454102-6.1982422-7.9179688-6.1982422
			c-4.9443359,0-8.0610352,2.4013672-8.0610352,6.1982422C325.6712952,74.7607117,328.7879944,77.125946,333.7323303,77.125946z"/>
		<path class="st1" d="M365.3905334,95.2538757V63.2958641c0-2.6865234,1.8271484-4.5498047,4.4067383-4.5498047
			c2.5439453,0,4.3349609,1.8632812,4.3349609,4.5498047v0.7880898c2.4365234-3.6181679,6.8789062-5.588871,12.2890625-5.588871
			c9.7094727,0,16.0864258,6.0546913,16.0864258,16.838871v19.9199219c0,2.6162109-1.8271484,4.5507812-4.3706055,4.5507812
			c-2.5795898,0-4.3710938-1.9707031-4.3710938-4.5507812V76.8749695c0-6.9863281-3.546875-10.3544922-9.2792969-10.3544922
			c-6.4130859,0-10.3544922,4.4072266-10.3544922,10.9638672v17.7695312c0,2.6513672-1.7910156,4.5507812-4.3349609,4.5507812
			C367.2176819,99.804657,365.3905334,97.9052429,365.3905334,95.2538757z"/>
	</g>
</g>
</svg>

