<?xml version="1.0" encoding="UTF-8"?> <!-- Generator: Adobe Illustrator 23.0.1, SVG Export Plug-In . SVG Version: 6.00 Build 0) --> <svg xmlns="http://www.w3.org/2000/svg" xmlns:xlink="http://www.w3.org/1999/xlink" id="Layer_1" x="0px" y="0px" viewBox="0 0 400 245" style="enable-background:new 0 0 400 245;" xml:space="preserve"> <style type="text/css"> .st0{fill-rule:evenodd;clip-rule:evenodd;fill:#050605;} </style> <g> <path class="st0" d="M9.1,84.6c-1.1-0.6-2.2-1-3.7-1c-1.6,0-2.9,0.3-3.9,1c-1,0.6-1.5,1.5-1.5,2.6v70.5c0,0.9,0.5,1.7,1.5,2.5 c1.1,0.7,2.2,1.2,3.7,1.2c1.4,0,2.7-0.4,3.7-1.2s1.6-1.6,1.6-2.5V87.2C10.7,86.1,10.2,85.3,9.1,84.6"></path> <path class="st0" d="M18,121.6c-0.6,0.6-1,1.5-0.7,2.8c0.1,1.3,0.6,2.5,1.7,3.5c1,1.1,2.1,1.8,3.4,2.1c1.3,0.3,2.2,0.1,2.9-0.4 l5.7-3.5v31.6c0,0.9,0.5,1.7,1.5,2.5c1,0.7,2.2,1.2,3.7,1.2c1.5,0,2.8-0.4,3.9-1.2c1.1-0.7,1.6-1.6,1.6-2.5v-42.6 c0-1.1-0.5-1.8-1.6-2.5s-2.4-1-4-1s-2.8,0.3-3.7,1L18,121.6z"></path> <path class="st0" d="M60.2,146.6c0,2.1,0.6,3.9,1.8,4.9s2.8,1.7,4.7,1.7c2.6,0,5-1.1,7.3-3.2c2.4-2.1,3.5-4.5,3.5-7v-3.7H75 c-3,0-5.5,0.1-7.4,0.4c-1.9,0.3-3.6,1-5.1,2.1C61,142.9,60.2,144.5,60.2,146.6z M49.5,147.8c0-5.5,2-9.2,6.1-11.3s9.8-3.2,17.5-3.2 h4.4v-1.9c0-3.1-0.9-5.7-2.5-7.9c-1.6-2.2-4.2-3.3-7.5-3.3c-2.9,0-5.5,0.5-7.6,1.7c-2.1,1.1-3.4,1.7-3.6,1.7c-1.2,0-2-0.5-2.8-1.7 c-0.7-1.1-1.1-2.4-1.1-3.7c0-1.7,1.6-3.3,4.9-4.6c3.2-1.3,6.7-1.9,10.4-1.9c7,0,12.1,1.9,15.4,5.7c3.3,3.7,5,8.4,5,14.1v25.5 c0,1-0.5,1.8-1.5,2.5c-1,0.7-2.2,1.1-3.6,1.1s-2.5-0.3-3.4-1.1c-1-0.7-1.4-1.5-1.4-2.5v-3.5c-4.5,5.2-9.6,7.9-15.2,7.9 c-4,0-7.2-1.2-9.6-3.4C50.8,155.5,49.5,152.2,49.5,147.8z"></path> <path class="st0" d="M97.3,141.1v-9.2c0-6,1.7-10.9,5.2-14.7c3.5-3.7,8.7-5.6,15.6-5.6c4.4,0,8,0.7,11,2.2c3,1.5,4.5,3.2,4.5,5.1 c0,1.2-0.4,2.4-1.3,3.4c-0.9,1.2-1.8,1.7-3,1.7c-0.3,0-1.5-0.5-3.6-1.5c-2-1-4.3-1.5-6.8-1.5c-7.4,0-11.1,3.5-11.1,10.7v9.1 c0,7.2,3.7,10.7,11.2,10.7c2.6,0,4.8-0.5,7-1.6c2-1.1,3.3-1.6,3.6-1.6c1.4,0,2.5,0.5,3.3,1.6c0.9,1.1,1.3,2.2,1.3,3.4 c0,1.9-1.5,3.6-4.6,5.2s-6.8,2.5-11.3,2.5c-7,0-12.2-1.8-15.7-5.6C99.1,152.1,97.3,147.2,97.3,141.1"></path> <path class="st0" d="M142,156.9V87.1c0-1.1,0.4-1.8,1.4-2.5c1-0.6,2.1-1,3.7-1c1.5,0,2.9,0.3,3.9,1c1.1,0.6,1.6,1.5,1.6,2.5v45.2 l21.1-19.5c0.6-0.6,1.4-1,2.2-1c1.2,0,2.2,0.5,3.4,1.6c1.2,1.1,1.7,2.2,1.7,3.4c0,0.9-0.3,1.6-0.9,2.2l-13,11.7l15.8,23 c0.4,0.6,0.6,1.2,0.6,1.8c0,1.2-0.6,2.5-2,3.6c-1.4,1.2-2.7,1.8-4,1.8c-1.2,0-2-0.5-2.8-1.5l-14.9-22l-7.4,6.7V157 c0,0.9-0.5,1.7-1.6,2.5s-2.4,1.1-3.9,1.1c-1.5,0-2.7-0.3-3.6-1.1C142.6,158.6,142,157.8,142,156.9"></path> <path class="st0" d="M198.2,132.4H215c1.5,0,2.5-0.2,3-0.6s0.7-1.2,0.7-2.5c0-2.7-1-4.9-2.9-6.8c-1.9-1.8-4.4-2.8-7.3-2.8 c-2.8,0-5.2,0.9-7.3,2.7c-2,1.8-3,4.1-3,6.7v3.3H198.2z M187.6,141.1v-9.6c0-5.3,2-9.9,6.2-13.9c4.1-3.9,9.1-5.9,14.9-5.9 c5.6,0,10.3,1.8,14.2,5.2c4,3.5,5.9,7.9,5.9,13.4c0,2-0.2,3.7-0.7,5c-0.4,1.3-1.2,2.1-2.2,2.7c-1,0.5-1.9,0.9-2.8,1 c-0.9,0.1-2,0.2-3.4,0.2h-21.3v2.4c0,3.4,1.2,6.1,3.6,8.1c2.5,2,5.6,3,9.5,3c2.8,0,5.3-0.6,7.8-1.9c2.5-1.3,4-1.9,4.5-1.9 c1.2,0,2.1,0.5,2.9,1.6c0.9,1.1,1.2,2.1,1.2,3.2c0,1.7-1.6,3.3-4.8,5.1c-3.2,1.7-7.2,2.6-11.9,2.6c-6.8,0-12.5-1.8-16.9-5.6 C189.7,152,187.6,147.1,187.6,141.1z"></path> <path class="st0" d="M237.2,156.9v-41.2c0-1.1,0.5-1.8,1.5-2.5c1-0.6,2.2-1,3.7-1c1.3,0,2.5,0.3,3.4,1c1,0.6,1.4,1.5,1.4,2.6v4.5 c1.2-2.4,2.9-4.4,5.2-6.1c2.4-1.7,4.8-2.6,7.6-2.6h3.2c1.1,0,2,0.4,2.8,1.4c0.9,1,1.2,2,1.2,3.3s-0.4,2.5-1.2,3.4 c-0.9,1-1.7,1.4-2.8,1.4h-3.2c-3.2,0-6.1,1.4-8.6,4.2c-2.5,2.8-3.6,6.3-3.6,10.7v20.7c0,0.9-0.5,1.7-1.6,2.5 c-1.1,0.7-2.4,1.1-3.9,1.1c-1.5,0-2.7-0.3-3.7-1.1C237.6,158.6,237.2,157.8,237.2,156.9"></path> <path class="st0" d="M276.8,141.9c0,3.4,1.2,6.5,3.6,9.2c2.5,2.7,5.5,4,8.9,4c3.5,0,6.5-1.3,9-4c2.5-2.7,3.7-5.7,3.7-9.2v-11 c0-3.3-1.3-6.3-3.7-8.9c-2.6-2.7-5.5-4-8.9-4c-3.4,0-6.4,1.3-8.9,4c-2.5,2.7-3.6,5.6-3.6,8.9v11L276.8,141.9z M270.3,141.9v-11 c0-5.1,1.9-9.6,5.7-13.4c3.7-3.7,8.2-5.7,13.5-5.7c5.1,0,9.7,1.8,13.5,5.6c3.9,3.7,5.8,8.2,5.8,13.4v11c0,5-1.9,9.5-5.8,13.5 c-3.9,3.9-8.3,5.9-13.5,5.9c-5,0-9.5-1.9-13.4-5.9C272.2,151.5,270.3,147,270.3,141.9z"></path> <path class="st0" d="M316.6,157.8v-42.9c0-0.7,0.3-1.3,0.9-1.8c0.6-0.4,1.4-0.6,2.4-0.6c0.9,0,1.5,0.2,2.1,0.7s0.9,1.1,0.9,1.7v4.7 c1.2-2.2,2.9-4.1,5.2-5.6c2.4-1.5,5.1-2.2,8.2-2.2c4.8,0,9.1,1.8,12.6,5.6c3.5,3.7,5.3,8.2,5.3,13.4v27.1c0,0.9-0.3,1.5-1,1.9 s-1.5,0.7-2.4,0.7c-0.9,0-1.5-0.2-2.2-0.7c-0.6-0.4-1-1.1-1-1.9v-27c0-3.3-1.3-6.3-3.7-8.9c-2.5-2.7-5.5-4-8.9-4 c-3.2,0-6,1.2-8.3,3.5c-2.5,2.4-3.6,5.5-3.6,9.3v27c0,0.6-0.3,1.3-1.1,1.8c-0.6,0.5-1.4,0.9-2.4,0.9s-1.7-0.3-2.4-0.9 C316.9,159.2,316.6,158.5,316.6,157.8"></path> <path class="st0" d="M368.4,133.5h20.2c2,0,3.3-0.2,4.1-0.6c0.6-0.4,1-1.4,1-2.8c0-3.3-1.2-6.3-3.6-8.9c-2.4-2.6-5.3-3.9-9-3.9 c-3.5,0-6.5,1.2-9,3.6c-2.5,2.5-3.6,5.3-3.6,8.7V133.5z M361.9,141.9v-11.3c0-5.1,1.9-9.5,5.7-13.2s8.3-5.6,13.6-5.6 c5.1,0,9.5,1.8,13.3,5.2c3.7,3.5,5.6,7.9,5.6,13.3c0,1.9-0.2,3.4-0.6,4.6s-1.2,1.9-2.1,2.5c-1,0.4-1.8,0.7-2.7,1 c-0.9,0.1-1.9,0.2-3.3,0.2h-22.8v3.7c0,4,1.4,7.2,4.3,9.6c2.9,2.4,6.5,3.6,11,3.6c2.2,0,4.3-0.3,6-1.1c1.7-0.6,3-1.4,4-2 s1.6-1.1,2.1-1.1c0.7,0,1.4,0.3,1.9,1.1c0.5,0.7,0.9,1.4,0.9,2c0,1.4-1.5,2.9-4.4,4.4c-2.9,1.5-6.5,2.2-10.8,2.2 c-6.4,0-11.6-1.8-15.6-5.3C364,152.3,361.9,147.6,361.9,141.9z"></path> </g> </svg> 