<svg xmlns="http://www.w3.org/2000/svg" viewBox="0 0 435.65 181.42"><defs><style>.cls-1{fill:#9c9e9f;}.cls-1,.cls-2{fill-rule:evenodd;}.cls-2{fill:#a51930;}</style></defs><g id="Page_1" data-name="Page 1"><g id="Layer_1-2" data-name="Layer 1"><path class="cls-1" d="M116.63,163.47V142.35h3.43v18h7.68v3.08Zm26.5,0H140v-1.78a5.22,5.22,0,0,1-4.52,2.34,5.62,5.62,0,0,1-4.56-2,8.18,8.18,0,0,1-1.67-5.43,7.87,7.87,0,0,1,1.71-5.28,6,6,0,0,1,7.3-1.32,4.17,4.17,0,0,1,1.74,2v-2.23h3.13v13.68Zm-3-6.89a5,5,0,0,0-1-3.3,3.42,3.42,0,0,0-2.77-1.18,3.45,3.45,0,0,0-2.79,1.22,5.16,5.16,0,0,0-1,3.38,5.1,5.1,0,0,0,1,3.36A3.68,3.68,0,0,0,139,160a5.1,5.1,0,0,0,1.06-3.38Zm10.41,0a5.06,5.06,0,0,0,1.08,3.38,3.43,3.43,0,0,0,2.77,1.29,3.37,3.37,0,0,0,2.75-1.19,6.23,6.23,0,0,0,0-6.74,3.46,3.46,0,0,0-2.8-1.22,3.4,3.4,0,0,0-2.76,1.18,5,5,0,0,0-1,3.3Zm.1-15.48V152a4.16,4.16,0,0,1,1.75-2,5.64,5.64,0,0,1,2.88-.71,5.48,5.48,0,0,1,4.42,2,7.91,7.91,0,0,1,1.69,5.28,8.18,8.18,0,0,1-1.66,5.43,5.62,5.62,0,0,1-4.56,2,5.22,5.22,0,0,1-4.52-2.34v1.78h-3.13V141.1Zm24.82,15.57a4.59,4.59,0,0,0-1.23-3.23,4.08,4.08,0,0,0-6,0,4.83,4.83,0,0,0,0,6.46,4,4,0,0,0,6,0,4.59,4.59,0,0,0,1.24-3.23Zm-11.76,0a7.12,7.12,0,0,1,.57-2.83,7.23,7.23,0,0,1,1.63-2.37,7.39,7.39,0,0,1,2.43-1.58,7.56,7.56,0,0,1,2.87-.55,7.65,7.65,0,0,1,2.91.55,7.44,7.44,0,0,1,2.44,1.62,7.28,7.28,0,0,1,1.65,2.38,7.12,7.12,0,0,1,.56,2.78,7.27,7.27,0,0,1-.56,2.84,6.87,6.87,0,0,1-1.62,2.36,7.83,7.83,0,0,1-2.49,1.63,7.67,7.67,0,0,1-2.89.56,7.58,7.58,0,0,1-5.3-2.16,7.39,7.39,0,0,1-1.64-2.4,7.08,7.08,0,0,1-.56-2.83ZM185.16,152a4.48,4.48,0,0,1,1.33-2,3.25,3.25,0,0,1,2.06-.65,5.8,5.8,0,0,1,1.31.16,6.45,6.45,0,0,1,1.26.47L190,152.59a2.92,2.92,0,0,0-.87-.42,3.42,3.42,0,0,0-1.05-.14,2.32,2.32,0,0,0-2.23,1.25,9.21,9.21,0,0,0-.68,4.18v6H182V149.76h3.14V152Zm20.61,11.5h-3.13v-1.78a5.22,5.22,0,0,1-4.52,2.34,5.62,5.62,0,0,1-4.56-2,8.18,8.18,0,0,1-1.66-5.43,7.86,7.86,0,0,1,1.7-5.28,6,6,0,0,1,7.3-1.32,4.17,4.17,0,0,1,1.74,2v-2.23h3.13v13.68Zm-3-6.89a5,5,0,0,0-1-3.3A3.4,3.4,0,0,0,199,152.1a3.46,3.46,0,0,0-2.8,1.22,5.16,5.16,0,0,0-1,3.38,5.1,5.1,0,0,0,1,3.36,3.68,3.68,0,0,0,5.51-.1,5.11,5.11,0,0,0,1.07-3.38Zm8.11,6.89V152.53h-2.39v-2.74h2.39v-5.18H214v5.18h2.4v2.74H214v10.94Zm19-6.8a4.59,4.59,0,0,0-1.23-3.23,4.08,4.08,0,0,0-6,0,4.83,4.83,0,0,0,0,6.46,4,4,0,0,0,6,0,4.55,4.55,0,0,0,1.24-3.23Zm-11.76,0a7.12,7.12,0,0,1,.57-2.83,7.39,7.39,0,0,1,1.63-2.37,7.49,7.49,0,0,1,2.43-1.58,7.6,7.6,0,0,1,8.23,1.62,7.11,7.11,0,0,1,1.64,2.38,6.94,6.94,0,0,1,.56,2.78,7.26,7.26,0,0,1-.55,2.84,7,7,0,0,1-1.62,2.36,8,8,0,0,1-2.5,1.63,7.66,7.66,0,0,1-5.75,0,7.54,7.54,0,0,1-2.44-1.6,7.71,7.71,0,0,1-1.64-2.4,7.25,7.25,0,0,1-.56-2.83ZM239.56,152a4.58,4.58,0,0,1,1.34-2,3.23,3.23,0,0,1,2.06-.65,5.78,5.78,0,0,1,1.3.16,6,6,0,0,1,1.26.47l-1.13,2.65a2.7,2.7,0,0,0-.87-.42,3.4,3.4,0,0,0-1-.14,2.34,2.34,0,0,0-2.24,1.25,9.36,9.36,0,0,0-.68,4.18v6h-3.13V149.76h3.13V152Zm10.1,17.93h-3.21l3.75-7.61-5-12.5h3.47l2.51,7.08c.14.44.27.88.38,1.32s.2.91.27,1.37a17.5,17.5,0,0,1,.89-2.3l.07-.17,3.38-7.3h3.39l-9.87,20.11Zm20.92-6.43V152.53h-2.39v-2.74h2.39v-3.67a6,6,0,0,1,1.14-4,4.39,4.39,0,0,1,3.51-1.3,7.47,7.47,0,0,1,1,.07,8.69,8.69,0,0,1,1.08.23v2.83a3.33,3.33,0,0,0-.76-.32,2.52,2.52,0,0,0-.77-.11,1.83,1.83,0,0,0-1.61.69,4.17,4.17,0,0,0-.5,2.34v3.26H277v2.74h-3.29v10.94Zm19.37-6.8a4.59,4.59,0,0,0-1.23-3.23,4.08,4.08,0,0,0-6,0,4.83,4.83,0,0,0,0,6.46,4,4,0,0,0,6,0,4.59,4.59,0,0,0,1.24-3.23Zm-11.76,0a7.12,7.12,0,0,1,.57-2.83,7.39,7.39,0,0,1,1.63-2.37,7.56,7.56,0,0,1,5.3-2.13,7.47,7.47,0,0,1,5.36,2.17,7.25,7.25,0,0,1,1.64,2.38,6.94,6.94,0,0,1,.56,2.78,7.09,7.09,0,0,1-.56,2.84,7,7,0,0,1-1.61,2.36,8,8,0,0,1-2.5,1.63,7.67,7.67,0,0,1-2.89.56,7.58,7.58,0,0,1-5.3-2.16,7.39,7.39,0,0,1-1.64-2.4,7.08,7.08,0,0,1-.56-2.83ZM299.7,152a4.48,4.48,0,0,1,1.33-2,3.25,3.25,0,0,1,2.06-.65,5.8,5.8,0,0,1,1.31.16,6.45,6.45,0,0,1,1.26.47l-1.13,2.65a2.92,2.92,0,0,0-.87-.42,3.42,3.42,0,0,0-1.05-.14,2.32,2.32,0,0,0-2.23,1.25,9.21,9.21,0,0,0-.68,4.18v6h-3.13V149.76h3.13V152Zm17,11.5V142.35h3.44v21.12Zm8.11,0V149.79h2.94V152a6,6,0,0,1,2.21-2.07,6.78,6.78,0,0,1,3.09-.65,6.4,6.4,0,0,1,2.61.49,3.85,3.85,0,0,1,1.68,1.43,4.13,4.13,0,0,1,.52,1.31,15.61,15.61,0,0,1,.15,2.63v8.3h-3.16v-7a6.62,6.62,0,0,0-.65-3.59,2.73,2.73,0,0,0-2.33-.88,4.55,4.55,0,0,0-2,.4,3.28,3.28,0,0,0-1.35,1.14,3.12,3.12,0,0,0-.48,1.27,15.58,15.58,0,0,0-.14,2.45v6.24Zm17.37,0V149.79h2.94V152a5.93,5.93,0,0,1,2.21-2.07,6.78,6.78,0,0,1,3.09-.65,6.31,6.31,0,0,1,2.6.49,3.74,3.74,0,0,1,1.68,1.43,4.14,4.14,0,0,1,.53,1.31,15.61,15.61,0,0,1,.15,2.63v8.3H352.2v-7a6.72,6.72,0,0,0-.65-3.59,2.73,2.73,0,0,0-2.33-.88,4.55,4.55,0,0,0-2,.4,3.28,3.28,0,0,0-1.35,1.14,3.12,3.12,0,0,0-.48,1.27,15.58,15.58,0,0,0-.14,2.45v6.24Zm28.12-6.8a4.59,4.59,0,0,0-1.23-3.23,3.9,3.9,0,0,0-3-1.31,4,4,0,0,0-3,1.31,4.83,4.83,0,0,0,0,6.46,4.06,4.06,0,0,0,6,0,4.59,4.59,0,0,0,1.23-3.23Zm-11.76,0a7.12,7.12,0,0,1,.57-2.83,7.48,7.48,0,0,1,4.07-3.95,7.52,7.52,0,0,1,2.87-.55,7.63,7.63,0,0,1,2.9.55,7.48,7.48,0,0,1,2.45,1.62,7.11,7.11,0,0,1,1.64,2.38,6.94,6.94,0,0,1,.56,2.78,7.26,7.26,0,0,1-.55,2.84,7,7,0,0,1-1.62,2.36,7.87,7.87,0,0,1-2.5,1.63,7.66,7.66,0,0,1-5.75,0,7.39,7.39,0,0,1-2.43-1.6,7.58,7.58,0,0,1-1.65-2.4,7.25,7.25,0,0,1-.56-2.83Zm23.19,7.65-7.17-14.5H378l3,6.88a7.2,7.2,0,0,1,.35,1c.13.42.28.92.42,1.51.09-.42.21-.82.34-1.23a11.05,11.05,0,0,1,.46-1.24l3-6.88h3.4l-7.18,14.5Zm22-.82h-3.13v-1.78a5.22,5.22,0,0,1-4.52,2.34,5.62,5.62,0,0,1-4.56-2,8.18,8.18,0,0,1-1.67-5.43,7.87,7.87,0,0,1,1.71-5.28,6,6,0,0,1,7.3-1.32,4.12,4.12,0,0,1,1.74,2v-2.23h3.13v13.68Zm-3-6.89a5,5,0,0,0-1-3.3,3.4,3.4,0,0,0-2.77-1.18,3.45,3.45,0,0,0-2.79,1.22,5.16,5.16,0,0,0-1,3.38,5.1,5.1,0,0,0,1,3.36,3.68,3.68,0,0,0,5.51-.1,5.11,5.11,0,0,0,1.07-3.38Zm8.11,6.89V152.53h-2.4v-2.74h2.4v-5.18h3.13v5.18h2.4v2.74h-2.4v10.94Zm7.95-19.59a1.88,1.88,0,0,1,.58-1.38,1.92,1.92,0,0,1,1.39-.57,1.87,1.87,0,0,1,1.39.56,1.82,1.82,0,0,1,.56,1.39,1.9,1.9,0,0,1-.56,1.4,2,2,0,0,1-2.78,0,1.9,1.9,0,0,1-.58-1.39Zm.42,19.59V149.79h3.13v13.68Zm18.35-6.8a4.59,4.59,0,0,0-1.23-3.23,4.09,4.09,0,0,0-6,0,4.86,4.86,0,0,0,0,6.46,4.06,4.06,0,0,0,6,0,4.59,4.59,0,0,0,1.24-3.23Zm-11.77,0a7.25,7.25,0,0,1,2.21-5.2,7.39,7.39,0,0,1,2.43-1.58,7.52,7.52,0,0,1,2.87-.55,7.68,7.68,0,0,1,2.91.55,7.44,7.44,0,0,1,2.44,1.62,7.11,7.11,0,0,1,1.64,2.38,7,7,0,0,1,.57,2.78,7.27,7.27,0,0,1-.56,2.84,7,7,0,0,1-1.62,2.36,7.83,7.83,0,0,1-2.49,1.63,7.67,7.67,0,0,1-2.89.56,7.55,7.55,0,0,1-2.86-.56,7.43,7.43,0,0,1-2.44-1.6,7.58,7.58,0,0,1-1.65-2.4,7.25,7.25,0,0,1-.56-2.83Zm18.38,6.83V149.79h2.95V152a5.91,5.91,0,0,1,2.2-2.07,6.78,6.78,0,0,1,3.09-.65,6.4,6.4,0,0,1,2.61.49,3.85,3.85,0,0,1,1.68,1.43,4.13,4.13,0,0,1,.52,1.31,15.32,15.32,0,0,1,.16,2.63v8.3h-3.16v-7a6.6,6.6,0,0,0-.66-3.59,2.73,2.73,0,0,0-2.33-.88,4.5,4.5,0,0,0-1.95.4,3.31,3.31,0,0,0-1.36,1.14,3.12,3.12,0,0,0-.48,1.27,15.88,15.88,0,0,0-.13,2.45v6.24Zm-326.7,31.19,2.74-1.27a3.8,3.8,0,0,0,1.42,2.15,4.47,4.47,0,0,0,2.66.75,3.42,3.42,0,0,0,2.43-.85,3,3,0,0,0,.9-2.28q0-1.86-3.09-3.32c-.29-.14-.5-.25-.66-.31a15,15,0,0,1-4.65-3.09,5,5,0,0,1-1.16-3.36,5.42,5.42,0,0,1,1.75-4.19,6.54,6.54,0,0,1,4.6-1.6,7.8,7.8,0,0,1,3.91.9,4.7,4.7,0,0,1,2.17,2.59l-2.68,1.38a4.52,4.52,0,0,0-1.39-1.45,3.28,3.28,0,0,0-1.74-.46,3.2,3.2,0,0,0-2.2.72,2.47,2.47,0,0,0-.82,1.93c0,1.27,1.2,2.45,3.58,3.55l.43.2a13.14,13.14,0,0,1,4.31,2.82,5.19,5.19,0,0,1,1.16,3.44,6.21,6.21,0,0,1-1.89,4.77,7.16,7.16,0,0,1-5.1,1.77,7.39,7.39,0,0,1-4.43-1.24,5.81,5.81,0,0,1-2.25-3.55Zm27.38-5.55a4.75,4.75,0,0,0-1.68-1.21,5.11,5.11,0,0,0-2.07-.42,4,4,0,0,0-3.08,1.24,5.35,5.35,0,0,0,0,6.64,4.23,4.23,0,0,0,3.21,1.22,4.63,4.63,0,0,0,2-.43,4.35,4.35,0,0,0,1.57-1.29v3.61a7.59,7.59,0,0,1-1.85.73,8.39,8.39,0,0,1-2.1.25,7.08,7.08,0,0,1-5.25-2,7.23,7.23,0,0,1-2-5.31,7.11,7.11,0,0,1,2.1-5.33,7.59,7.59,0,0,1,5.5-2,8.12,8.12,0,0,1,2,.22,5.84,5.84,0,0,1,1.67.64v3.52Zm2.94-9.82a1.86,1.86,0,0,1,.58-1.37,1.92,1.92,0,0,1,1.39-.57,1.86,1.86,0,0,1,1.39.55,1.9,1.9,0,0,1,.56,1.39,2,2,0,0,1-.56,1.41,1.89,1.89,0,0,1-1.39.57,2,2,0,0,1-2-2Zm.41,19.6V185.21h3.14v13.68Zm20.78-6.38H156a4.61,4.61,0,0,0,1.14,3,3.58,3.58,0,0,0,2.73,1.08,4.58,4.58,0,0,0,2.52-.64,5.26,5.26,0,0,0,1.76-2.05l2.64,1.48a8,8,0,0,1-2.85,3.07,7.74,7.74,0,0,1-4,1,7,7,0,0,1-5.24-2,7.35,7.35,0,0,1-1.95-5.35,7.26,7.26,0,0,1,2-5.29,7.72,7.72,0,0,1,10.32-.18,7.28,7.28,0,0,1,1.85,5.3v.59Zm-3.25-2.11a3.26,3.26,0,0,0-1.13-2.24,4.6,4.6,0,0,0-5.05,0,4.1,4.1,0,0,0-1.31,2.27Zm6.5,8.49V185.21h2.95v2.24a5.86,5.86,0,0,1,2.21-2.07,6.71,6.71,0,0,1,3.08-.65,6.4,6.4,0,0,1,2.61.49,3.79,3.79,0,0,1,1.68,1.43,4.09,4.09,0,0,1,.52,1.32,15.1,15.1,0,0,1,.16,2.62v8.3h-3.16v-7a6.56,6.56,0,0,0-.66-3.58,2.7,2.7,0,0,0-2.33-.89,4.5,4.5,0,0,0-2,.4,3.22,3.22,0,0,0-1.35,1.14,3,3,0,0,0-.48,1.26,14.57,14.57,0,0,0-.14,2.46v6.24Zm27.59-9.78a4.75,4.75,0,0,0-1.68-1.21,5.11,5.11,0,0,0-2.07-.42,4,4,0,0,0-3.08,1.24,4.61,4.61,0,0,0-1.15,3.29,4.67,4.67,0,0,0,1.16,3.35,4.25,4.25,0,0,0,3.21,1.22,4.63,4.63,0,0,0,2-.43,4.35,4.35,0,0,0,1.57-1.29v3.61a7.59,7.59,0,0,1-1.85.73,8.39,8.39,0,0,1-2.1.25,7.08,7.08,0,0,1-5.25-2,7.22,7.22,0,0,1-2-5.31,7.07,7.07,0,0,1,2.1-5.33,7.55,7.55,0,0,1,5.49-2,8.12,8.12,0,0,1,2,.22,5.84,5.84,0,0,1,1.67.64v3.52Zm16.38,3.4H203.21a4.61,4.61,0,0,0,1.14,3,3.58,3.58,0,0,0,2.73,1.08,4.58,4.58,0,0,0,2.52-.64,5.28,5.28,0,0,0,1.77-2.05l2.64,1.48a8.12,8.12,0,0,1-2.86,3.07,7.74,7.74,0,0,1-4,1,6.93,6.93,0,0,1-5.23-2A8.14,8.14,0,0,1,202,186.8a7.72,7.72,0,0,1,10.32-.18,7.28,7.28,0,0,1,1.85,5.3v.59Zm-3.24-2.11a3.34,3.34,0,0,0-1.13-2.24,4,4,0,0,0-2.57-.77,3.9,3.9,0,0,0-2.48.74,4,4,0,0,0-1.31,2.27Zm28.29,8.49h-3.13v-1.77a5.57,5.57,0,0,1-2,1.75,5.43,5.43,0,0,1-2.56.58,5.64,5.64,0,0,1-4.57-2,8.23,8.23,0,0,1-1.66-5.43,7.92,7.92,0,0,1,1.7-5.28,6,6,0,0,1,7.31-1.31,4.11,4.11,0,0,1,1.74,2v-2.23h3.13v13.68Zm-3-6.89a5,5,0,0,0-1-3.3,3.79,3.79,0,0,0-5.55,0,6.18,6.18,0,0,0,0,6.74,3.69,3.69,0,0,0,5.52-.1,5.12,5.12,0,0,0,1.06-3.38Zm8.11,6.89V188h-2.39v-2.74h2.39V180h3.14v5.18h2.39V188H247.4v10.94Zm17.41,0V177.76h3.43v7.8h10.39v-7.8h3.43v21.13h-3.43V188.63H265.1v10.26Zm34.7,0h-3.13v-1.77a5.21,5.21,0,0,1-4.51,2.33,5.64,5.64,0,0,1-4.57-2,8.18,8.18,0,0,1-1.67-5.43,7.87,7.87,0,0,1,1.71-5.28,6,6,0,0,1,7.3-1.31,4,4,0,0,1,1.74,2v-2.23h3.13v13.68Zm-3-6.89a5,5,0,0,0-1-3.3,3.79,3.79,0,0,0-5.55,0,6.18,6.18,0,0,0,0,6.74,3.41,3.41,0,0,0,2.77,1.19,3.36,3.36,0,0,0,2.74-1.29,5.07,5.07,0,0,0,1.07-3.38Zm10.51-4.61a4.48,4.48,0,0,1,1.33-2,3.25,3.25,0,0,1,2.06-.65,5.71,5.71,0,0,1,1.3.16,6.92,6.92,0,0,1,1.27.46L308.67,188a2.94,2.94,0,0,0-.87-.43,3.82,3.82,0,0,0-1.05-.13,2.36,2.36,0,0,0-2.24,1.24,9.46,9.46,0,0,0-.67,4.19v6H300.7V185.18h3.14v2.21Zm12.55,12.32-7.17-14.5h3.42l3,6.88a7.2,7.2,0,0,1,.35,1c.13.42.27.92.42,1.51.1-.41.21-.82.34-1.23a9.48,9.48,0,0,1,.47-1.24l3-6.88h3.4l-7.18,14.5Zm22-.82h-3.13v-1.77a5.55,5.55,0,0,1-1.95,1.75,5.47,5.47,0,0,1-2.57.58,5.62,5.62,0,0,1-4.56-2,8.18,8.18,0,0,1-1.67-5.43,7.87,7.87,0,0,1,1.71-5.28,6,6,0,0,1,7.3-1.31,4.06,4.06,0,0,1,1.74,2v-2.23h3.13v13.68Zm-3-6.89a5,5,0,0,0-1-3.3,3.8,3.8,0,0,0-5.56,0,5.16,5.16,0,0,0-1,3.38,5.1,5.1,0,0,0,1,3.36,3.69,3.69,0,0,0,5.52-.1,5.18,5.18,0,0,0,1.06-3.38Zm10.5-4.61a4.58,4.58,0,0,1,1.34-2,3.23,3.23,0,0,1,2.06-.65,5.78,5.78,0,0,1,1.3.16,6.58,6.58,0,0,1,1.26.46L350.69,188a2.72,2.72,0,0,0-.87-.43,3.75,3.75,0,0,0-1-.13,2.35,2.35,0,0,0-2.24,1.24,9.44,9.44,0,0,0-.68,4.19v6h-3.13V185.18h3.13v2.21ZM363.43,192a5,5,0,0,0-1-3.3,3.79,3.79,0,0,0-5.55,0,6.18,6.18,0,0,0,0,6.74,3.71,3.71,0,0,0,5.53-.09,5.17,5.17,0,0,0,1.05-3.39Zm-.08-15.47h3.13v22.36h-3.13v-1.77a5.49,5.49,0,0,1-2,1.75,5.4,5.4,0,0,1-2.56.58,5.65,5.65,0,0,1-4.57-2A8.23,8.23,0,0,1,352.6,192a7.92,7.92,0,0,1,1.7-5.28,6,6,0,0,1,7.31-1.31,4.11,4.11,0,0,1,1.74,2V176.53Z" transform="translate(-19.67 -18.29)"/><path class="cls-1" d="M58,131.42V85h7.55v39.71h16.9v6.76Zm36.93,0V85h7.55v46.47Zm22-9.3,6-2.79a8.31,8.31,0,0,0,3.14,4.73,9.76,9.76,0,0,0,5.84,1.64,7.5,7.5,0,0,0,5.35-1.87,6.51,6.51,0,0,0,2-5q0-4.11-6.8-7.31l-1.46-.69c-5.12-2.48-8.53-4.77-10.23-6.78a11.2,11.2,0,0,1-2.56-7.41A11.91,11.91,0,0,1,122,87.42a14.39,14.39,0,0,1,10.11-3.52,17,17,0,0,1,8.6,2,10.44,10.44,0,0,1,4.79,5.69l-5.9,3a9.66,9.66,0,0,0-3.07-3.2,7.25,7.25,0,0,0-3.82-1A7.12,7.12,0,0,0,127.9,92a5.4,5.4,0,0,0-1.8,4.26c0,2.8,2.63,5.39,7.88,7.81l.94.44c4.6,2.11,7.76,4.19,9.48,6.2a11.35,11.35,0,0,1,2.57,7.58c0,4.4-1.4,7.91-4.17,10.49s-6.51,3.9-11.23,3.9a16.31,16.31,0,0,1-9.74-2.74,12.74,12.74,0,0,1-5-7.81Zm44.58,9.3V85H169v17.14h22.86V85h7.56v46.47h-7.56V108.86H169v22.56Z" transform="translate(-19.67 -18.29)"/><path class="cls-2" d="M193.23,74.15h6.18V30.75a12.5,12.5,0,0,0-12.47-12.46H32.16A12.53,12.53,0,0,0,19.67,30.75v154.8A12.54,12.54,0,0,0,32.16,198H90a12.5,12.5,0,0,0,12.47-12.47V142.1H94.9V184l-.06.78-.08.63-.17.57-.2.56-.26.55-.32.49-.34.51-.41.43-.44.39-.49.36-.49.31-.55.28-.56.18-.57.18-.62.09-.79,0H33.67l-.79,0-.62-.09-.58-.18-.56-.18-.54-.28-.5-.31-.5-.36-.44-.39-.39-.43-.37-.51-.29-.49-.29-.55-.19-.56-.15-.57-.11-.62,0-.79V32.27l0-.79.11-.62.15-.56.19-.57.29-.55.29-.49.37-.5.39-.44.44-.4.5-.35.5-.31.54-.27.56-.19.58-.18.63-.09.78,0H185.44l.78,0,.62.09.58.18.56.19.55.27L189,27l.49.36.44.38.41.45.34.5.32.49.26.55.21.57.16.56.08.63.05.78V74.15Z" transform="translate(-19.67 -18.29)"/></g></g></svg>