<svg xmlns="http://www.w3.org/2000/svg" role="img" viewBox="-9.47 -8.97 466.44 156.44"><defs><style>.cls-1{fill:#0c0c0c}</style></defs><g id="Layer_2" data-name="Layer 2"><g id="Layer_2-2" data-name="Layer 2"><path d="M52.08 64.51h35.53v8.85H52.08z" class="cls-1"/><path d="M69.46 0a69.47 69.47 0 1 0 69.47 69.47A69.46 69.46 0 0 0 69.46 0zm25.83 96.94h-8.06V79.79H51.7v17.15h-8.07V41.32h8.07v16.76h35.53V41.32h8.06zm112.77-30.85h-30.92V43.77h-7.83v52.41h7.83V73.42h30.92v22.76h7.83V43.77h-7.83v22.32zM243 65.06c5.13 0 8.73 2.64 10.44 7.65h-21c1.48-4.87 5.32-7.65 10.6-7.65m0-6.46c-10.62 0-18.64 8.27-18.64 19.22a18.85 18.85 0 0 0 19.3 19.23c12.64 0 17.06-8.48 17.62-11.45l.08-.46h-7.26l-.11.22c-.09.19-2.48 4.8-10.33 4.8-6.46 0-11.26-4.56-11.8-11.14h29.8v-.4c0-11.79-7.7-20-18.72-20m43.84 31.54c-6.91 0-11.74-5.08-11.74-12.33s4.83-12.34 11.74-12.34 11.61 5.07 11.61 12.34-4.77 12.33-11.61 12.33m11.46-25.73c-1.81-2.5-5.94-5.83-12.69-5.83-10.68 0-18.13 7.91-18.13 19.23s7.45 19.22 18.13 19.22a15.26 15.26 0 0 0 12.69-6.12v5.25h7.4v-54.3h-7.4zm34.79.63c5.12 0 8.73 2.64 10.43 7.65h-21c1.48-4.87 5.32-7.65 10.61-7.65m0-6.46c-10.63 0-18.65 8.27-18.65 19.22a18.85 18.85 0 0 0 19.3 19.23c12.64 0 17.06-8.48 17.62-11.45l.08-.46h-7.26l-.1.22c-.1.19-2.5 4.8-10.34 4.8-6.46 0-11.25-4.56-11.79-11.14h29.85v-.4c0-11.79-7.7-20-18.71-20m34.45 6.19v-5.34h-7.41v36.7h7.41V75.5c0-6.42 3.35-8.92 12-8.92h9.56v-7.4h-9.41c-7.33 0-10.66 3.25-12.11 5.63M422 77.82c0 7.15-4.73 12.34-11.24 12.34-6.79 0-11.53-5.07-11.53-12.34s4.77-12.33 11.56-12.33c6.51 0 11.24 5.19 11.24 12.33m-.15-13.37c-1.45-2-5.14-5.85-12.33-5.85-8.9 0-17.91 6.6-17.91 19.22 0 11.32 7.36 19.23 17.91 19.23A14.44 14.44 0 0 0 421.88 91v5.21h7.4V59.47h-7.4zm14.57-3.89h2.03v4.59h.76v-4.59h2.03v-.7h-4.82v.7zm10.67-.7l-1.75 4.18-1.75-4.18h-1.19v5.29h.72v-4.59l1.94 4.62h.52l1.92-4.58v4.55h.76v-5.29h-1.17z" class="cls-1"/></g></g></svg>