<?xml version="1.0" encoding="UTF-8"?>
<svg version="1.1" xmlns="http://www.w3.org/2000/svg" width="2670" height="600">
<path d="M0 0 C1.70258972 -0.01191879 1.70258972 -0.01191879 3.4395752 -0.02407837 C24.98949342 -0.13978968 46.34068776 1.49532999 67.4375 6.0625 C68.63270264 6.31741211 69.82790527 6.57232422 71.05932617 6.83496094 C112.06466982 15.88777271 150.88975143 33.3586873 183.9375 59.375 C184.83597656 60.08011719 185.73445313 60.78523438 186.66015625 61.51171875 C201.45514569 73.36899806 215.14134419 86.52910635 226.9375 101.375 C227.8718655 102.50932439 228.8081546 103.64206627 229.74609375 104.7734375 C260.18708551 141.72999251 280.39504638 185.63142882 289.1875 232.625 C289.33864258 233.42615234 289.48978516 234.22730469 289.64550781 235.05273438 C292.43331699 250.92373834 293.31736982 266.78616437 293.25 282.875 C293.24726578 284.24263992 293.24726578 284.24263992 293.24447632 285.63790894 C293.11186311 325.26161195 285.79230909 363.95933335 269.9375 400.375 C269.472229 401.4580542 269.472229 401.4580542 268.99755859 402.56298828 C255.8040752 432.97567686 235.509629 458.86257965 212.3125 482.25 C211.45390381 483.11802246 210.59530762 483.98604492 209.71069336 484.88037109 C203.76044223 490.80057331 197.49198105 496.13914906 190.9375 501.375 C189.79859076 502.32787227 188.66257962 503.28423456 187.53125 504.24609375 C175.43435315 514.35427393 162.1203915 522.77315252 148.9375 531.375 C146.40872406 528.8853122 144.20746845 526.47957209 142.1875 523.5625 C139.49281757 519.89285709 136.49078179 517.14141568 133.0234375 514.21875 C120.66422405 503.29450141 117.80497688 492.10064494 115.296875 476.375 C112.04825758 456.59807458 102.42385063 440.33745248 92.125 423.4375 C82.9375 408.3411843 82.9375 408.3411843 82.9375 401.375 C83.82501953 401.68244141 83.82501953 401.68244141 84.73046875 401.99609375 C88.77410816 403.3747571 92.70605249 404.69250847 96.9375 405.375 C96.23625 404.735625 95.535 404.09625 94.8125 403.4375 C81.80897039 390.32345881 78.76806594 371.98245478 78.75 354.1875 C78.79651079 352.24955025 78.85219981 350.31163016 78.9375 348.375 C83.43312363 348.06865427 83.43312363 348.06865427 85.73828125 349.46875 C87.13802083 350.77083333 88.53776042 352.07291667 89.9375 353.375 C89.86821289 352.76479004 89.79892578 352.15458008 89.72753906 351.52587891 C87.69642033 332.65671356 86.93202694 309.28543275 93.9375 291.375 C96.21484375 288.96875 96.21484375 288.96875 98.875 286.875 C103.00571681 283.47932504 103.00571681 283.47932504 105.25 278.6875 C108.70481385 271.90582836 117.40731404 270.17754961 124.29296875 267.9140625 C132.85221388 265.21637025 141.51389318 262.9577681 150.21459961 260.76733398 C172.47556879 255.19518624 172.47556879 255.19518624 191.9375 243.375 C192.55882812 242.92382812 193.18015625 242.47265625 193.8203125 242.0078125 C199.23484571 237.51593517 201.44799326 231.27133245 203.92236328 224.86010742 C206.65053571 218.06271106 210.13376433 214.90099781 216.5 211.25 C224.16983113 205.77380138 226.08449869 194.09705214 228.125 185.4375 C228.4952832 183.94573242 228.4952832 183.94573242 228.87304688 182.42382812 C234.09087148 163.88894149 234.09087148 163.88894149 231.4375 145.5625 C223.72322912 134.61406744 211.17204361 130.43374342 199.20703125 125.69921875 C198.01182861 125.22323242 196.81662598 124.74724609 195.58520508 124.25683594 C193.19343981 123.3097987 190.79624247 122.37634261 188.39331055 121.45800781 C179.55284683 117.97499613 173.47365926 114.36039312 168.3125 106.25 C163.97957288 99.46527021 158.67304812 96.47255535 151.4375 93.4375 C150.20410889 92.91917603 150.20410889 92.91917603 148.94580078 92.39038086 C133.54149907 86.17560188 117.44606687 83.1453752 100.875 83.3125 C99.5765918 83.31926758 99.5765918 83.31926758 98.25195312 83.32617188 C96.14710461 83.33780087 94.04229242 83.35572927 91.9375 83.375 C92.7625 83.50028076 93.5875 83.62556152 94.4375 83.75463867 C139.25459693 90.64789333 139.25459693 90.64789333 147.9375 100.6875 C148.2675 101.244375 148.5975 101.80125 148.9375 102.375 C145.17017737 101.99826774 142.29979177 101.15032657 139 99.375 C135.2494215 97.38047271 132.15519767 96.72647481 127.9375 96.375 C129.87004772 98.3995738 131.56908688 99.79605792 133.9375 101.375 C133.9375 102.035 133.9375 102.695 133.9375 103.375 C127.22958735 102.84187616 121.42920459 101.42858702 115.0625 99.3125 C107.9125667 97.03463343 101.5105692 95.43705106 93.9375 96.375 C94.64132812 96.65472656 95.34515625 96.93445313 96.0703125 97.22265625 C101.76584933 99.53507395 107.2094555 102.02578199 112.625 104.9375 C119.20583316 108.29328909 125.60765403 109.96420307 132.80859375 111.46484375 C136.65030694 112.27104106 140.33251206 113.39594542 144.0625 114.625 C148.59720082 116.05909913 152.20652389 117.09493115 156.9375 116.375 C158.88119738 115.02070159 158.88119738 115.02070159 159.9375 113.375 C159.9375 114.035 159.9375 114.695 159.9375 115.375 C160.9275 115.375 161.9175 115.375 162.9375 115.375 C163.2675 116.035 163.5975 116.695 163.9375 117.375 C164.9275 117.705 165.9175 118.035 166.9375 118.375 C166.6075 117.385 166.2775 116.395 165.9375 115.375 C165.2775 115.045 164.6175 114.715 163.9375 114.375 C163.9375 113.715 163.9375 113.055 163.9375 112.375 C163.2775 112.375 162.6175 112.375 161.9375 112.375 C161.6075 110.065 161.2775 107.755 160.9375 105.375 C164.73299259 105.92081199 166.24729295 107.42909295 168.6875 110.3125 C169.60789062 111.37791016 169.60789062 111.37791016 170.546875 112.46484375 C171.9375 114.375 171.9375 114.375 171.9375 116.375 C174.49016794 117.66915149 177.05772135 118.89134529 179.67578125 120.046875 C192.21209583 125.69968906 203.81063676 132.47867362 215.41357422 139.84179688 C217.60532789 141.17321621 219.78923321 142.34232218 222.09765625 143.453125 C225.42826996 145.18270686 227.6438181 146.40408874 229.9375 149.375 C230.95528983 155.28454223 230.07543201 160.54111227 228.9375 166.375 C228.80682129 167.1376416 228.67614258 167.9002832 228.54150391 168.68603516 C226.07654643 182.98157577 221.89080031 196.43946611 211.9375 207.375 C211.3703125 208.01050781 210.803125 208.64601562 210.21875 209.30078125 C199.74878881 220.41321734 185.99649442 224.17709668 171.125 224.9375 C170.33673828 224.98068359 169.54847656 225.02386719 168.73632812 225.06835938 C166.80355785 225.17378321 164.87054974 225.27483094 162.9375 225.375 C166.95827152 225.43343491 170.97893259 225.4687424 175 225.5 C176.7005957 225.52513672 176.7005957 225.52513672 178.43554688 225.55078125 C184.37945716 225.58543962 189.3222651 225.32812518 194.9375 223.375 C197.875 223.25 197.875 223.25 199.9375 223.375 C197.07312497 233.4003126 190.10183223 240.92798836 181.4375 246.5 C168.96640085 253.4029975 155.0053772 256.90988686 141.28930664 260.40673828 C132.23356112 262.72981228 123.65321824 265.48942784 115.03149414 269.12304688 C112.6413607 270.09018996 110.45130988 270.85599985 107.9375 271.375 C107.9375 272.035 107.9375 272.695 107.9375 273.375 C106.2875 273.705 104.6375 274.035 102.9375 274.375 C102.9375 276.685 102.9375 278.995 102.9375 281.375 C102.2775 281.375 101.6175 281.375 100.9375 281.375 C100.9375 282.035 100.9375 282.695 100.9375 283.375 C99.844375 283.766875 98.75125 284.15875 97.625 284.5625 C93.88191533 285.90436054 92.62669908 287.81000426 90.9375 291.375 C90.14488163 294.83355869 90.14488163 294.83355869 89.75 298.5625 C89.66741943 299.22523926 89.58483887 299.88797852 89.49975586 300.57080078 C89.06269872 304.32520824 88.88148555 307.97531481 89 311.75 C89.09508069 315.15053284 88.65604964 317.57610327 87.4375 320.75 C84.38878965 328.88948142 85.81280406 337.93978048 86.9375 346.375 C86.195 346.045 85.4525 345.715 84.6875 345.375 C81.79866688 344.14717129 81.79866688 344.14717129 77.9375 344.375 C74.18867157 351.87265686 75.95343607 365.7118366 78.2421875 373.484375 C79.25846811 376.5141596 80.39217998 379.49271365 81.53515625 382.4765625 C83.29540465 387.10100093 83.77821433 391.43714413 83.9375 396.375 C76.11653267 391.37383722 69.46935808 385.96240109 62.9375 379.375 C64.85288977 382.62575402 66.77008474 385.87544035 68.6875 389.125 C69.27587646 390.12345947 69.86425293 391.12191895 70.47045898 392.15063477 C73.30088447 396.94586466 76.14296691 401.73169547 79.05078125 406.48046875 C94.21264581 431.26812232 110.29210271 458.70769631 113.51953125 488.1796875 C114.607758 497.93148658 116.04834141 502.86924854 123.828125 509.52734375 C127.54832839 512.74313271 130.26729995 516.58718234 133.125 520.5625 C140.57990234 530.73969148 147.93868143 539.68219089 160.9375 542.375 C164.87161601 542.60259349 168.80993416 542.56452025 172.75 542.5625 C173.87696289 542.56386963 175.00392578 542.56523926 176.16503906 542.56665039 C182.27955454 542.53110088 188.1465114 542.25065983 194.1875 541.3125 C208.19557668 539.14046114 220.490664 541.80916009 232.3125 549.75 C242.95986707 557.78704482 250.12570869 567.89998548 254.9375 580.375 C254.9375 581.365 254.9375 582.355 254.9375 583.375 C255.5975 583.375 256.2575 583.375 256.9375 583.375 C256.9375 585.025 256.9375 586.675 256.9375 588.375 C251.88943086 588.01508282 249.41510134 585.33101959 246.125 581.8125 C245.62291016 581.29236328 245.12082031 580.77222656 244.60351562 580.23632812 C243.37220873 578.9581143 242.1535593 577.66772853 240.9375 576.375 C240.9375 578.72524879 241.57101082 580.29191488 242.375 582.5 C243.8596469 586.82088272 244.52454184 590.83246022 244.9375 595.375 C242.16584294 595.29348067 240.44893043 594.89602832 238.48046875 592.890625 C237.51631965 591.70006622 236.57465502 590.49082643 235.66015625 589.26171875 C233.48142286 586.72364675 233.48142286 586.72364675 227.9375 583.375 C228.2675 588.985 228.5975 594.595 228.9375 600.375 C221.05323504 599.24867643 221.05323504 599.24867643 216.8125 594.6875 C215.95527344 593.78386719 215.09804688 592.88023437 214.21484375 591.94921875 C212.49757362 590.00808493 210.91692798 588.07546708 209.375 586 C204.58717349 580.84387914 199.50140405 579.23367675 192.50439453 578.80151367 C180.89079501 578.51206535 169.91965623 581.73132858 158.77050781 584.63964844 C136.40884316 590.44396884 116.92361816 585.67092627 94.9375 580.375 C92.9575 582.85 92.9575 582.85 90.9375 585.375 C90.17888672 585.17511475 89.42027344 584.97522949 88.63867188 584.76928711 C78.62644821 582.27757435 68.73236257 581.39862808 58.46484375 580.64648438 C38.88718093 579.00367156 38.88718093 579.00367156 31.72924805 573.75610352 C27.38960885 571.60924397 23.19495172 572.06630587 18.42578125 572.1875 C16.29671625 572.21362662 14.16764704 572.23941124 12.03857422 572.26489258 C10.92899353 572.28355377 9.81941284 572.30221497 8.6762085 572.32144165 C-10.09739633 572.61490987 -28.5277755 572.72843922 -47.0625 569.375 C-48.06200684 569.19807617 -49.06151367 569.02115234 -50.09130859 568.83886719 C-57.13325325 567.55770899 -64.10490206 566.05279575 -71.0625 564.375 C-71.93648437 564.16536621 -72.81046875 563.95573242 -73.7109375 563.73974609 C-112.85509814 554.08012135 -149.17112037 534.03255353 -180.0625 508.375 C-181.08472656 507.55515625 -182.10695313 506.7353125 -183.16015625 505.890625 C-195.88345517 495.56839633 -207.9868429 483.85380939 -218.0703125 470.92578125 C-220.27562534 468.10211599 -222.60235619 465.40455986 -224.9375 462.6875 C-261.37542513 418.88326593 -285.99759014 358.8616261 -286.265625 301.55859375 C-286.27268463 300.55254089 -286.27974426 299.54648804 -286.28701782 298.50994873 C-286.51413209 256.64104945 -286.51413209 256.64104945 -283.0625 238.375 C-282.86382324 237.28670898 -282.66514648 236.19841797 -282.46044922 235.07714844 C-273.29306358 185.97841637 -254.11804561 139.92280801 -222.0625 101.375 C-221.65370605 100.87597168 -221.24491211 100.37694336 -220.82373047 99.86279297 C-209.24261918 85.76015983 -196.53578788 72.52586885 -182.0625 61.375 C-180.97605733 60.50093956 -179.89152749 59.62449789 -178.80859375 58.74609375 C-170.55889449 52.09058998 -162.0290254 46.02649211 -153.0625 40.375 C-152.42006348 39.96926758 -151.77762695 39.56353516 -151.11572266 39.14550781 C-121.41438087 20.59044614 -88.67624667 8.525658 -54.0625 3.375 C-53.11665039 3.21563965 -52.17080078 3.0562793 -51.19628906 2.89208984 C-34.22263048 0.06314675 -17.16102652 0.06290011 0 0 Z " fill="#11212E" transform="translate(286.0625,-0.375)"/>
<path d="M0 0 C1.70258972 -0.01191879 1.70258972 -0.01191879 3.4395752 -0.02407837 C24.98949342 -0.13978968 46.34068776 1.49532999 67.4375 6.0625 C68.63270264 6.31741211 69.82790527 6.57232422 71.05932617 6.83496094 C112.06466982 15.88777271 150.88975143 33.3586873 183.9375 59.375 C184.83597656 60.08011719 185.73445313 60.78523438 186.66015625 61.51171875 C201.45514569 73.36899806 215.14134419 86.52910635 226.9375 101.375 C227.8718655 102.50932439 228.8081546 103.64206627 229.74609375 104.7734375 C260.18708551 141.72999251 280.39504638 185.63142882 289.1875 232.625 C289.33864258 233.42615234 289.48978516 234.22730469 289.64550781 235.05273438 C292.43331699 250.92373834 293.31736982 266.78616437 293.25 282.875 C293.24726578 284.24263992 293.24726578 284.24263992 293.24447632 285.63790894 C293.11186311 325.26161195 285.79230909 363.95933335 269.9375 400.375 C269.472229 401.4580542 269.472229 401.4580542 268.99755859 402.56298828 C255.8040752 432.97567686 235.509629 458.86257965 212.3125 482.25 C211.45390381 483.11802246 210.59530762 483.98604492 209.71069336 484.88037109 C203.76044223 490.80057331 197.49198105 496.13914906 190.9375 501.375 C189.79859076 502.32787227 188.66257962 503.28423456 187.53125 504.24609375 C175.43435315 514.35427393 162.1203915 522.77315252 148.9375 531.375 C146.40872406 528.8853122 144.20746845 526.47957209 142.1875 523.5625 C139.49281757 519.89285709 136.49078179 517.14141568 133.0234375 514.21875 C120.66422405 503.29450141 117.80497688 492.10064494 115.296875 476.375 C112.04825758 456.59807458 102.42385063 440.33745248 92.125 423.4375 C82.9375 408.3411843 82.9375 408.3411843 82.9375 401.375 C83.82501953 401.68244141 83.82501953 401.68244141 84.73046875 401.99609375 C88.77410816 403.3747571 92.70605249 404.69250847 96.9375 405.375 C96.23625 404.735625 95.535 404.09625 94.8125 403.4375 C81.80897039 390.32345881 78.76806594 371.98245478 78.75 354.1875 C78.79651079 352.24955025 78.85219981 350.31163016 78.9375 348.375 C83.43312363 348.06865427 83.43312363 348.06865427 85.73828125 349.46875 C87.13802083 350.77083333 88.53776042 352.07291667 89.9375 353.375 C89.86821289 352.76479004 89.79892578 352.15458008 89.72753906 351.52587891 C87.69642033 332.65671356 86.93202694 309.28543275 93.9375 291.375 C96.21484375 288.96875 96.21484375 288.96875 98.875 286.875 C103.00571681 283.47932504 103.00571681 283.47932504 105.25 278.6875 C108.70481385 271.90582836 117.40731404 270.17754961 124.29296875 267.9140625 C132.85221388 265.21637025 141.51389318 262.9577681 150.21459961 260.76733398 C172.47556879 255.19518624 172.47556879 255.19518624 191.9375 243.375 C192.55882812 242.92382812 193.18015625 242.47265625 193.8203125 242.0078125 C199.23484571 237.51593517 201.44799326 231.27133245 203.92236328 224.86010742 C206.65053571 218.06271106 210.13376433 214.90099781 216.5 211.25 C224.16983113 205.77380138 226.08449869 194.09705214 228.125 185.4375 C228.4952832 183.94573242 228.4952832 183.94573242 228.87304688 182.42382812 C234.09087148 163.88894149 234.09087148 163.88894149 231.4375 145.5625 C223.72322912 134.61406744 211.17204361 130.43374342 199.20703125 125.69921875 C198.01182861 125.22323242 196.81662598 124.74724609 195.58520508 124.25683594 C193.19343981 123.3097987 190.79624247 122.37634261 188.39331055 121.45800781 C179.55284683 117.97499613 173.47365926 114.36039312 168.3125 106.25 C163.97957288 99.46527021 158.67304812 96.47255535 151.4375 93.4375 C150.20410889 92.91917603 150.20410889 92.91917603 148.94580078 92.39038086 C134.15502064 86.42312371 118.38256694 83.12839136 102.4296875 83.3125 C101.65996613 83.31628662 100.89024475 83.32007324 100.09719849 83.32397461 C97.66890461 83.33604939 95.24073789 83.35467192 92.8125 83.375 C89.60156536 83.4017631 86.39069259 83.42166419 83.1796875 83.4375 C82.09504715 83.44994751 82.09504715 83.44994751 80.98849487 83.46264648 C76.53459078 83.4839325 72.33464223 83.04046378 67.9375 82.375 C65.14908897 82.15473983 62.3741175 81.96451715 59.58203125 81.8203125 C58.76853714 81.77826691 57.95504303 81.73622131 57.11689758 81.69290161 C47.05202055 81.224029 36.98469954 81.22505495 26.91088867 81.24462891 C23.61177031 81.25002163 20.31278632 81.24462993 17.01367188 81.23828125 C6.27688057 81.23429773 -4.36967394 81.31278097 -15.0625 82.375 C-16.45456665 82.50696777 -16.45456665 82.50696777 -17.87475586 82.64160156 C-48.37436867 85.75509797 -78.4640054 92.82147244 -102.0625 113.375 C-102.94421875 114.11234375 -103.8259375 114.8496875 -104.734375 115.609375 C-111.70048162 121.63092479 -117.29435999 128.24705163 -122.75244141 135.60888672 C-123.97060275 137.25111168 -125.2091219 138.8781819 -126.44921875 140.50390625 C-138.18585091 156.31441073 -147.65921294 173.7690103 -157.28613281 190.90869141 C-173.61227237 219.9524032 -189.77006316 248.30744021 -216.0625 269.375 C-244.23966522 292.01814099 -262.53783562 316.29771032 -279.0625 348.375 C-281.51121764 345.92628236 -281.55076422 344.66023013 -282.09765625 341.28125 C-282.26716797 340.25 -282.43667969 339.21875 -282.61132812 338.15625 C-282.78083984 337.0734375 -282.95035156 335.990625 -283.125 334.875 C-283.29837891 333.823125 -283.47175781 332.77125 -283.65039062 331.6875 C-285.27620005 321.62118571 -286.21792341 311.75669178 -286.265625 301.55859375 C-286.27268463 300.55254089 -286.27974426 299.54648804 -286.28701782 298.50994873 C-286.51413209 256.64104945 -286.51413209 256.64104945 -283.0625 238.375 C-282.86382324 237.28670898 -282.66514648 236.19841797 -282.46044922 235.07714844 C-273.29306358 185.97841637 -254.11804561 139.92280801 -222.0625 101.375 C-221.65370605 100.87597168 -221.24491211 100.37694336 -220.82373047 99.86279297 C-209.24261918 85.76015983 -196.53578788 72.52586885 -182.0625 61.375 C-180.97605733 60.50093956 -179.89152749 59.62449789 -178.80859375 58.74609375 C-170.55889449 52.09058998 -162.0290254 46.02649211 -153.0625 40.375 C-152.42006348 39.96926758 -151.77762695 39.56353516 -151.11572266 39.14550781 C-121.41438087 20.59044614 -88.67624667 8.525658 -54.0625 3.375 C-53.11665039 3.21563965 -52.17080078 3.0562793 -51.19628906 2.89208984 C-34.22263048 0.06314675 -17.16102652 0.06290011 0 0 Z " fill="#BD1522" transform="translate(286.0625,-0.375)"/>
<path d="M0 0 C13.2 0 26.4 0 40 0 C40 38.94 40 77.88 40 118 C83.89 118 127.78 118 173 118 C173 79.06 173 40.12 173 0 C186.53 0 200.06 0 214 0 C214 93.06 214 186.12 214 282 C200.47 282 186.94 282 173 282 C173 238.11 173 194.22 173 149 C129.11 149 85.22 149 40 149 C40 192.89 40 236.78 40 282 C26.8 282 13.6 282 0 282 C0 188.94 0 95.88 0 0 Z " fill="#10212E" transform="translate(713,160)"/>
<path d="M0 0 C12.54 0 25.08 0 38 0 C38.33 42.57 38.66 85.14 39 129 C42.96 124.05 42.96 124.05 47 119 C60.17732267 104.4250825 80.16133596 90.1139671 100.58032227 88.83886719 C119.95445212 88.54152175 137.51254596 89.33920569 152.5234375 103.42578125 C168.2208071 120.16133667 170.17093658 140.39838657 170.11352539 162.27197266 C170.11324281 163.79066974 170.11340264 165.30936696 170.1139679 166.82806396 C170.1142531 170.9223947 170.1084013 175.01669574 170.10139394 179.11101961 C170.09511414 183.40045805 170.09455296 187.68989727 170.09336853 191.9793396 C170.0902688 200.0892696 170.08207382 208.19918601 170.07201904 216.30911005 C170.0608156 225.54737471 170.05533682 234.78564004 170.05032361 244.02390981 C170.03988999 263.01594912 170.0215615 282.00796983 170 301 C157.13 301 144.26 301 131 301 C130.98018066 296.44783691 130.96036133 291.89567383 130.93994141 287.20556641 C130.87300713 272.15802953 130.79546638 257.11056109 130.71247292 242.06310463 C130.6624172 232.94068695 130.61597362 223.81827795 130.578125 214.69580078 C130.54511498 206.74178368 130.50523437 198.78783527 130.45720994 190.83389413 C130.43203428 186.6249596 130.41022695 182.41607012 130.39665604 178.20708084 C130.38375418 174.2393389 130.36161361 170.27175215 130.33261681 166.30409622 C130.32360414 164.85378709 130.31786569 163.40345301 130.31578636 161.95311737 C130.40755482 144.90442799 130.40755482 144.90442799 122.5 130.34375 C115.62429865 123.85003205 107.87211097 122.34729656 98.59765625 122.5859375 C78.67187723 124.87924106 62.50764475 136.2005241 50.07505798 151.51521301 C48 154 48 154 45.69752502 156.22026062 C35.88932211 167.2309621 37.74380416 181.47986363 37.88552547 195.37661958 C37.91390123 199.09758418 37.89091391 202.81824791 37.87367249 206.53923035 C37.84876694 213.56565808 37.86919954 220.59117196 37.90644604 227.61751527 C37.94664691 235.62500712 37.93550752 243.63217972 37.92032993 251.63972819 C37.89027907 268.0935756 37.9305832 284.54622585 38 301 C25.46 301 12.92 301 0 301 C0 201.67 0 102.34 0 0 Z " fill="#10212E" transform="translate(1892,141)"/>
<path d="M0 0 C12.87 0 25.74 0 39 0 C39.33 62.7 39.66 125.4 40 190 C46.84523758 182.4591551 46.84523758 182.4591551 53.3125 174.6875 C57.20320708 169.87334412 61.33000466 165.35075666 65.55786133 160.83666992 C68.67524726 157.48935757 71.63559167 154.07013212 74.5 150.5 C78.31994011 145.73891522 82.38938819 141.28726975 86.55859375 136.8359375 C89.67568554 133.48883131 92.63581113 130.06985859 95.5 126.5 C99.31436968 121.74585808 103.37649611 117.29931855 107.54101562 112.85571289 C111.59382698 108.50570404 115.36437871 103.99751545 119.0625 99.33984375 C119.701875 98.56769531 120.34125 97.79554688 121 97 C121.50692383 96.29979736 122.01384766 95.59959473 122.53613281 94.87817383 C126.28813841 92.01806889 129.76904859 92.50121462 134.359375 92.609375 C135.26375305 92.61503479 136.1681311 92.62069458 137.09991455 92.62652588 C139.98381853 92.64888752 142.86647261 92.69908314 145.75 92.75 C147.70701329 92.77006529 149.66404608 92.78831601 151.62109375 92.8046875 C156.41454289 92.84875161 161.20705965 92.91777748 166 93 C164.31108333 97.63706613 161.83935471 100.62629533 158.4375 104.125 C154.60945346 108.15888624 150.917762 112.21847733 147.4375 116.5625 C144.26522002 120.51494286 140.95159818 124.29136159 137.5 128 C134.02580757 131.73327255 130.6993129 135.52371111 127.5 139.5 C123.86500611 144.01777813 120.0328971 148.27818516 116.0859375 152.51953125 C112.30742688 156.60412234 108.80709996 160.8743237 105.3203125 165.2109375 C102.7671792 168.2798553 100.09367227 171.20364204 97.375 174.125 C92.45207101 179.46101284 92.45207101 179.46101284 87.6875 184.9375 C87.11386719 185.60652344 86.54023438 186.27554688 85.94921875 186.96484375 C84.73668564 189.02022952 84.73668564 189.02022952 85.5703125 191.484375 C87.15304178 194.26928663 88.85733702 196.11869767 91.1875 198.3125 C93.97190519 201.0043854 96.67226563 203.67986588 99.1875 206.625 C102.63907284 210.64781217 106.24982528 214.50942147 109.875 218.375 C114.54826082 223.36079011 119.17273789 228.38101898 123.7265625 233.4765625 C126.45837564 236.50878121 129.22712701 239.50536647 132 242.5 C135.52701981 246.30979998 139.03510308 250.1333759 142.5 254 C146.93616763 258.94864909 151.44433834 263.82834772 155.95703125 268.70703125 C158.83394786 271.81782866 161.70045139 274.93802418 164.5625 278.0625 C165.8928125 279.51462891 165.8928125 279.51462891 167.25 280.99609375 C169.18809646 283.11273595 171.12536319 285.2301358 173.0625 287.34765625 C173.81551392 288.17027954 173.81551392 288.17027954 174.58374023 289.00952148 C175.54719444 290.06205186 176.51026705 291.11493171 177.47290039 292.16821289 C179.28458258 294.14707543 181.10258841 296.10258841 183 298 C183 298.99 183 299.98 183 301 C176.34800831 301.25505837 169.69729007 301.42927986 163.04150391 301.54931641 C160.78125907 301.59938614 158.52133459 301.66746716 156.26220703 301.75439453 C136.4449876 302.49743099 136.4449876 302.49743099 131.34375 298.85913086 C128.8381883 296.3647547 126.91945851 293.95752134 125 291 C123.93526383 289.75468932 122.85554713 288.52172593 121.75 287.3125 C121.2034375 286.67441406 120.656875 286.03632813 120.09375 285.37890625 C117.21302257 282.10584094 114.23131871 278.93134582 111.25 275.75 C105.12104381 269.20726436 99.04694751 262.61859395 93 256 C91.1674698 253.99926337 89.33372979 251.99963714 87.5 250 C86.58331123 249.00002026 85.66664454 248.00002028 84.75 247 C84.069375 246.2575 84.069375 246.2575 83.375 245.5 C75.8125 237.25 75.8125 237.25 68.25 229 C67.79608887 228.50483887 67.34217773 228.00967773 66.87451172 227.49951172 C65.95941367 226.50119339 65.04437445 225.50282114 64.12939453 224.50439453 C61.81421148 221.9782158 59.4979599 219.45303168 57.1796875 216.9296875 C56.70982422 216.41792969 56.23996094 215.90617188 55.75585938 215.37890625 C54.47037318 213.97887178 53.18442386 212.57926257 51.8984375 211.1796875 C47.91122173 206.80557208 43.95938831 202.39932034 40 198 C39.67 231.99 39.34 265.98 39 301 C26.13 301 13.26 301 0 301 C0 201.67 0 102.34 0 0 Z " fill="#10212E" transform="translate(2487,141)"/>
<path d="M0 0 C21.34777412 15.92047953 30.1129288 39.52359064 34 65 C35.22766067 77.27660668 35 89.66216298 35 102 C-8.56 102.33 -52.12 102.66 -97 103 C-92.99159816 126.13057968 -92.99159816 126.13057968 -83 147 C-82.49984375 147.77730469 -81.9996875 148.55460938 -81.484375 149.35546875 C-71.90535013 162.86375383 -56.87794582 169.95997932 -41 173 C-19.47685217 176.15556768 0.37236045 172.34223464 20.91552734 165.95141602 C25.26915779 164.60852399 29.6361097 163.30916709 34 162 C34 172.23 34 182.46 34 193 C25.80601685 195.52122558 17.90111904 197.85849116 9.5625 199.625 C8.64146484 199.82867187 7.72042969 200.03234375 6.77148438 200.2421875 C-5.85265214 202.96042807 -18.20430114 204.39366449 -31.125 204.375 C-32.13364105 204.37368576 -32.13364105 204.37368576 -33.16265869 204.37234497 C-61.55737644 204.2510359 -86.27356272 195.9738164 -106.58154297 175.49609375 C-128.8662672 151.99165483 -137.58074202 121.57491391 -137.21484375 89.78125 C-136.39837828 59.27282582 -124.2103473 28.19378494 -102 7 C-74.7700341 -16.1278907 -29.9648403 -20.4382034 0 0 Z M-82.0625 31.35546875 C-83.88838284 33.83064183 -85.47306523 36.33086993 -87 39 C-87.46019531 39.79664063 -87.92039062 40.59328125 -88.39453125 41.4140625 C-93.15220698 50.69943569 -96 62.5445712 -96 73 C-65.31 73 -34.62 73 -3 73 C-4.05986045 56.04223274 -5.33970289 38.94511973 -18.1875 26.625 C-36.63563833 11.39746887 -66.20383471 13.24415214 -82.0625 31.35546875 Z " fill="#10212E" transform="translate(1120,242)"/>
<path d="M0 0 C3.67910596 3.0355403 7.02426685 6.34442951 10.35839844 9.75146484 C11.46828125 10.81300781 11.46828125 10.81300781 12.60058594 11.89599609 C22.72259316 22.1952369 28.00151461 36.9498582 31.35839844 50.75146484 C31.52210938 51.4235498 31.68582031 52.09563477 31.85449219 52.78808594 C35.57962987 69.09325987 34.35839844 84.84641487 34.35839844 101.75146484 C-9.20160156 101.75146484 -52.76160156 101.75146484 -97.64160156 101.75146484 C-91.04873804 136.38311991 -91.04873804 136.38311991 -68.66894531 161.87646484 C-47.73896141 175.44727682 -22.97135873 176.1617016 0.88037109 171.31689453 C8.49969809 169.57833677 15.9218498 167.13314514 23.35839844 164.75146484 C26.65839844 163.76146484 29.95839844 162.77146484 33.35839844 161.75146484 C33.35839844 171.98146484 33.35839844 182.21146484 33.35839844 192.75146484 C-4.25961166 205.29080154 -45.83867095 210.48069738 -82.73925781 193.31005859 C-106.86101626 180.85902435 -123.95169698 157.49608699 -132.24316406 132.05224609 C-142.39773635 98.05557687 -137.79653701 61.72917883 -121.10864258 30.65795898 C-117.85992639 24.8490279 -114.04754964 19.73949956 -109.64160156 14.75146484 C-108.86042969 13.77435547 -108.07925781 12.79724609 -107.27441406 11.79052734 C-83.3799004 -16.87836358 -29.38247798 -22.34711368 0 0 Z M-82.05175781 30.71630859 C-91.44473496 42.74024248 -95.64160156 57.73787085 -95.64160156 72.75146484 C-65.28160156 72.75146484 -34.92160156 72.75146484 -3.64160156 72.75146484 C-3.64160156 56.52827461 -5.42643804 40.08825212 -17.07910156 27.68896484 C-28.32639058 17.76635653 -40.0071227 15.82569856 -54.60644531 16.58740234 C-65.06975089 17.43089339 -74.94617831 23.10915877 -82.05175781 30.71630859 Z " fill="#10212E" transform="translate(1650.6416015625,242.24853515625)"/>
<path d="M0 0 C13.58679933 10.61775924 20.90607708 23.08586075 24 40 C24.50715586 45.56793762 24.51012485 51.07955992 24.45410156 56.66577148 C24.4529699 58.27387463 24.45361314 59.88197983 24.45587158 61.49008179 C24.45700725 65.80535835 24.43368669 70.12017935 24.40557575 74.43535113 C24.3803681 78.96363616 24.37820498 83.49193457 24.37347412 88.02027893 C24.36110073 96.57283492 24.32835641 105.12518347 24.28807616 113.6776486 C24.24318176 123.42385175 24.22132722 133.17006543 24.20129442 142.91634643 C24.15961794 162.94437202 24.08633712 182.9721137 24 203 C11.46 203 -1.08 203 -14 203 C-14.01981934 198.51889648 -14.03963867 194.03779297 -14.06005859 189.42089844 C-14.12703714 174.59689283 -14.20457784 159.77295627 -14.28752708 144.94903183 C-14.33755045 135.96343419 -14.38399416 126.97784521 -14.421875 117.9921875 C-14.45491892 110.1560781 -14.49481772 102.32003796 -14.54279006 94.48400521 C-14.56793235 90.3387232 -14.58974914 86.19348641 -14.60334396 82.04814911 C-14.6162766 78.13785472 -14.63844878 74.22771638 -14.66738319 70.3175087 C-14.67637224 68.89061558 -14.68212863 67.4636974 -14.68421364 66.0367775 C-14.64891083 46.75535962 -14.64891083 46.75535962 -24.1875 30.75 C-33.68666225 24.83941016 -42.47711352 23.57469976 -53.484375 25.66015625 C-66.79581488 29.07675915 -77.31540393 35.34674566 -87 45 C-87.50943272 45.50751549 -88.01886543 46.01503098 -88.5437355 46.53792572 C-89.74115518 47.73278938 -90.93517365 48.93106676 -92.12662506 50.13188171 C-93.29165111 51.29363872 -94.47080343 52.4416151 -95.67079926 53.56721497 C-104.49733384 62.02896698 -107.07595355 70.07151099 -107.45410156 82.20898438 C-107.54614845 87.10214071 -107.49753961 91.98976891 -107.41865635 96.88273048 C-107.37122879 100.62365812 -107.39275433 104.36423344 -107.40643311 108.10534668 C-107.42203684 115.16393007 -107.37716044 122.22073066 -107.30961108 129.27895498 C-107.23562152 137.32515788 -107.23048542 145.37096698 -107.23064089 153.41745663 C-107.22944318 169.94591603 -107.13429827 186.47200463 -107 203 C-119.54 203 -132.08 203 -145 203 C-145 134.36 -145 65.72 -145 -5 C-132.46 -5 -119.92 -5 -107 -5 C-106.67 6.88 -106.34 18.76 -106 31 C-103.69 28.03 -101.38 25.06 -99 22 C-75.00932507 -4.92389773 -32.96357518 -22.20094375 0 0 Z " fill="#10212E" transform="translate(2391,239)"/>
<path d="M0 0 C12.54 0 25.08 0 38 0 C43.7296229 13.75109495 43.7296229 13.75109495 46.0390625 20.046875 C46.31352707 20.78805069 46.58799164 21.52922638 46.87077332 22.29286194 C47.47218061 23.91725699 48.07256485 25.54203111 48.67202759 27.16714478 C50.39665897 31.84143873 52.13008207 36.51247124 53.86328125 41.18359375 C54.25160629 42.23048874 54.63993134 43.27738373 55.0400238 44.35600281 C58.56169642 53.84027647 62.11226538 63.31359908 65.66796875 72.78515625 C66.10622231 73.95272398 66.10622231 73.95272398 66.55332947 75.14387894 C69.21504181 82.23481668 71.87747533 89.32548314 74.5425415 96.41516113 C82.12113511 116.57669538 89.62193114 136.76414025 97 157 C99.53568626 154.46431374 100.23886948 152.15216952 101.51953125 148.79296875 C101.76989136 148.14197205 102.02025146 147.49097534 102.27819824 146.82025146 C102.83159186 145.38034822 103.38267257 143.93955455 103.93179321 142.49801636 C105.48385348 138.42621779 107.05532387 134.36190802 108.625 130.296875 C108.96775467 129.40818222 109.31050934 128.51948944 109.66365051 127.60386658 C114.13920849 116.0192209 118.72989624 104.48010793 123.3125 92.9375 C124.21498526 90.66286565 125.11741027 88.3882074 126.01977539 86.11352539 C127.36873294 82.71327633 128.71778179 79.31306368 130.06715393 75.91297913 C134.46936384 64.82012032 138.86206073 53.72351072 143.25 42.625 C143.60050415 41.73854797 143.9510083 40.85209595 144.31213379 39.93878174 C149.57080651 26.63723346 154.80212701 13.3254562 160 0 C171.88 0 183.76 0 196 0 C195.2421833 4.54690018 194.49278198 7.70501576 192.82958984 11.86132812 C192.37699799 13.00096008 191.92440613 14.14059204 191.45809937 15.3147583 C190.95914809 16.55363022 190.46009109 17.79245957 189.9609375 19.03125 C189.44238389 20.33090117 188.92438002 21.63077179 188.40689087 22.93084717 C187.30740929 25.68986338 186.20427904 28.44737973 185.09814453 31.20373535 C183.36295 35.52769535 181.63583054 39.85485044 179.91015625 44.18261719 C177.90905068 49.19985632 175.90633261 54.21644384 173.90106583 59.23202133 C169.90539428 69.22676997 165.94357823 79.23459861 162 89.25 C160.84407466 92.18241971 159.68763545 95.11463671 158.53125 98.046875 C158.10732468 99.1221344 158.10732468 99.1221344 157.67483521 100.21911621 C153.59891679 110.55616798 149.51031293 120.88820996 145.42385864 131.22109985 C141.56941483 140.96762685 137.71668863 150.71482139 133.87109375 160.46484375 C133.53953781 161.30543335 133.20798187 162.14602295 132.86637878 163.01208496 C132.37576714 164.25592957 132.37576714 164.25592957 131.87524414 165.52490234 C126.28508035 179.69745859 120.67821385 193.86240633 115 208 C102.13 208 89.26 208 76 208 C73.78796875 202.03486328 73.78796875 202.03486328 71.53125 195.94921875 C57.46433906 158.01805759 57.46433906 158.01805759 43.36254883 120.09985352 C39.39443078 109.4434268 35.43443416 98.78400806 31.47923851 88.12277985 C30.62041209 85.80794651 29.7614427 83.49316628 28.90242004 81.17840576 C28.4728011 80.02073259 28.4728011 80.02073259 28.03450298 78.83967209 C27.45243287 77.2712112 26.87035645 75.70275266 26.28827381 74.13429642 C24.86659879 70.30328806 23.44531971 66.47213379 22.0249939 62.640625 C20.68091255 59.01480615 19.33590126 55.38933359 17.99018288 51.76412201 C17.46495944 50.34886984 16.94002298 48.93351114 16.41538048 47.51804352 C13.57198261 39.84823308 10.70050728 32.19087558 7.76025391 24.55761719 C7.24110482 23.20588539 6.72196503 21.85415003 6.20283508 20.50241089 C5.23123119 17.97367915 4.25080009 15.44898271 3.26530457 12.92556763 C2.83462173 11.80657074 2.4039389 10.68757385 1.96020508 9.53466797 C1.58011795 8.55787079 1.20003082 7.58107361 0.8084259 6.57467651 C0 4 0 4 0 0 Z " fill="#10212E" transform="translate(1295,234)"/>
<path d="M0 0 C0 13.53 0 27.06 0 41 C17.82 41 35.64 41 54 41 C54 50.57 54 60.14 54 70 C36.18 70 18.36 70 0 70 C0.12685363 91.64579609 0.12685363 91.64579609 0.27233124 113.29144478 C0.32757809 121.03720924 0.380056 128.78295874 0.421875 136.52880859 C0.45857179 143.32403055 0.50533525 150.11912559 0.55806351 156.91424179 C0.57650395 159.49835958 0.59164948 162.08250319 0.60334396 164.66666031 C-0.48893108 191.27741866 -0.48893108 191.27741866 9.5 214.9375 C19.84377369 223.4711133 30.07879738 223.6042289 43 223 C46.3 222.67 49.6 222.34 53 222 C53 230.91 53 239.82 53 249 C31.68109162 254.7328157 8.76402168 256.59768772 -11.3125 245.875 C-25.71230263 236.76610735 -33.04472757 224.30789247 -37 208 C-38.23160977 201.40337947 -38.1335871 194.87472761 -38.11352539 188.17993164 C-38.11367142 186.90119171 -38.11381744 185.62245178 -38.1139679 184.30496216 C-38.11425365 180.81580431 -38.10839279 177.32668115 -38.10139394 173.83753133 C-38.09512347 170.18469372 -38.09455368 166.53185522 -38.09336853 162.87901306 C-38.09026608 155.96958333 -38.08206738 149.0601695 -38.07201904 142.15074676 C-38.06082412 134.28132887 -38.05533895 126.41191019 -38.05032361 118.54248631 C-38.03988382 102.36164677 -38.02155189 86.18082913 -38 70 C-46.58 70 -55.16 70 -64 70 C-64 60.43 -64 50.86 -64 41 C-55.42 41 -46.84 41 -38 41 C-38 28.79 -38 16.58 -38 4 C-34.101875 3.525625 -30.20375 3.05125 -26.1875 2.5625 C-24.98246826 2.41498291 -23.77743652 2.26746582 -22.53588867 2.11547852 C-5.02498312 0 -5.02498312 0 0 0 Z " fill="#10212E" transform="translate(1786,193)"/>
<path d="M0 0 C2.33996149 2.90571293 3.90699591 5.7349552 5.3828125 9.15625 C5.82278564 10.1678418 6.26275879 11.17943359 6.71606445 12.22167969 C7.41348755 13.84444824 7.41348755 13.84444824 8.125 15.5 C9.12055854 17.78669142 10.11665821 20.07314732 11.11328125 22.359375 C11.60521973 23.49181641 12.0971582 24.62425781 12.60400391 25.79101562 C22.40478666 48.3201322 32.62349819 70.82909327 44.80029297 92.1875 C45.22455566 92.93386719 45.64881836 93.68023437 46.0859375 94.44921875 C46.6435376 95.41347778 46.6435376 95.41347778 47.21240234 96.3972168 C48 98 48 98 48 100 C48.66 100 49.32 100 50 100 C50.19990031 90.72684653 50.07876097 81.92973585 48.4453125 72.76171875 C47.90876274 69.43416892 47.84377371 66.35886533 48 63 C51.29744839 66.96759956 54.14716071 71.10949155 56.9375 75.4375 C57.41131104 76.16976807 57.88512207 76.90203613 58.37329102 77.65649414 C62.22006178 83.65960788 65.84431378 89.78021007 69.4375 95.9375 C77.6808049 110.02414479 86.30650581 123.63366217 97 136 C97.59941406 136.7321875 98.19882813 137.464375 98.81640625 138.21875 C100.16254529 139.85357909 101.57373383 141.43458591 103 143 C103.66 143 104.32 143 105 143 C105 139.7 105 136.4 105 133 C109.17495407 135.08747703 111.06572216 137.25190674 113.75 140.875 C114.18683105 141.45217773 114.62366211 142.02935547 115.07373047 142.62402344 C117.90658884 146.40735997 120.54747995 150.28693558 123.125 154.25 C127.8490422 161.45035464 133.1198308 169.0599154 141 173 C143.26033623 173.1860521 143.26033623 173.1860521 145 172 C146.28436734 170.0162233 146.28436734 170.0162233 147 168 C148.39773359 170.09660038 149.74855023 172.22490038 151.0625 174.375 C157.95273746 183.95263213 171.55051051 186.0957719 182.4375 187.9375 C189.64989513 189.22346519 196.40909939 190.66013662 203 194 C200.61592413 196.38407587 200.11519886 196.25478437 196.87109375 196.2746582 C196.0132579 196.28404419 195.15542206 196.29343018 194.27159119 196.30310059 C193.33634109 196.30233521 192.401091 196.30156982 191.4375 196.30078125 C190.46716324 196.30638062 189.49682648 196.31197998 188.49708557 196.31774902 C185.33123545 196.32972649 182.1658502 196.32335856 179 196.3125 C177.38918045 196.30976578 177.38918045 196.30976578 175.74581909 196.30697632 C159.64748802 196.26067991 143.88805418 195.82563605 128 193 C126.99614258 192.82307617 125.99228516 192.64615234 124.95800781 192.46386719 C117.92061319 191.18293305 110.95319143 189.67673314 104 188 C103.12601563 187.79036621 102.25203125 187.58073242 101.3515625 187.36474609 C62.40046027 177.75276247 19.17205606 157.24527725 -9 128 C-8.34 128 -7.68 128 -7 128 C-8.01182384 117.08567578 -11.31407457 107.23063145 -14.91259766 96.94165039 C-15.87777564 94.17955683 -16.82486825 91.41174691 -17.76953125 88.64257812 C-18.38436986 86.8590138 -19.00022025 85.07579786 -19.6171875 83.29296875 C-19.89650116 82.47821579 -20.17581482 81.66346283 -20.46359253 80.82402039 C-22.07062387 76.25151597 -23.91028159 71.98057912 -26.21951294 67.71626282 C-27.26284853 65.42200559 -27.30993288 63.47946301 -27 61 C-24.2338245 64.39408037 -22.34116552 68.11551594 -20.375 72 C-16.24178571 79.97594948 -11.38667109 87.61332891 -5 94 C-5.47817386 86.74986203 -6.84451097 80.09658757 -8.8359375 73.12109375 C-9.11595612 72.11015152 -9.39597473 71.09920929 -9.68447876 70.05763245 C-10.57357416 66.84870295 -11.4729542 63.64281133 -12.375 60.4375 C-19.12664623 36.44203202 -19.12664623 36.44203202 -20.9765625 26.22265625 C-21.10267914 25.53932724 -21.22879578 24.85599823 -21.35873413 24.15196228 C-21.90854681 20.83875739 -22.16186715 18.19035642 -21 15 C-19.83046052 17.31108467 -18.66391426 19.62358173 -17.5 21.9375 C-17.1397876 22.65244629 -16.7795752 23.36739258 -16.40844727 24.10400391 C-14.52065442 27.874666 -12.68012784 31.65775116 -10.93359375 35.49609375 C-7.26069475 43.5653957 -3.51989481 50.97938379 2 58 C2.20264892 49.73642723 2.08348911 41.70249657 1 33.5 C-0.4496219 22.36630605 -0.18547848 11.20575349 0 0 Z " fill="#EF8938" transform="translate(111,376)"/>
<path d="M0 0 C12.87 0 25.74 0 39 0 C39 99.33 39 198.66 39 301 C26.13 301 13.26 301 0 301 C0 201.67 0 102.34 0 0 Z " fill="#10212E" transform="translate(1216,141)"/>
<path d="M0 0 C12.87 0 25.74 0 39 0 C39 68.64 39 137.28 39 208 C26.13 208 13.26 208 0 208 C0 139.36 0 70.72 0 0 Z " fill="#10212E" transform="translate(2133,234)"/>
<path d="M0 0 C1.02246826 -0.00080566 2.04493652 -0.00161133 3.09838867 -0.00244141 C9.36794062 0.04379044 15.52485429 0.4431891 21.75 1.1875 C21.75 1.5175 21.75 1.8475 21.75 2.1875 C20.68789307 2.34307373 19.62578613 2.49864746 18.53149414 2.65893555 C14.50194288 3.25251333 10.47496139 3.86225 6.44848633 4.47631836 C4.72223605 4.73740632 2.99536035 4.99439976 1.26782227 5.24682617 C-24.87612102 9.01126566 -24.87612102 9.01126566 -47.25 22.1875 C-47.58 22.8475 -47.91 23.5075 -48.25 24.1875 C-47.08130371 23.77910889 -45.91260742 23.37071777 -44.70849609 22.94995117 C-40.30921328 21.41516288 -35.90615043 19.89147173 -31.50195312 18.37084961 C-29.60802553 17.71527165 -27.71509078 17.05681721 -25.82324219 16.39526367 C-11.055829 11.2344825 2.78040906 6.57265626 18.625 7 C20.10419922 7.02030273 20.10419922 7.02030273 21.61328125 7.04101562 C23.99282131 7.07566912 26.3710724 7.12448847 28.75 7.1875 C28.75 7.5175 28.75 7.8475 28.75 8.1875 C27.73184204 8.41300537 27.73184204 8.41300537 26.69311523 8.64306641 C-1.76982168 13.84597302 -1.76982168 13.84597302 -24.25 30.1875 C-23.72792969 29.94104736 -23.20585937 29.69459473 -22.66796875 29.44067383 C8.29270377 14.91938642 8.29270377 14.91938642 24.75 16.1875 C22.0958413 17.578676 19.50889031 18.66311273 16.65234375 19.5625 C0.8670369 24.6985429 -14.64504279 31.11129046 -27.25 42.1875 C-28.28125 42.950625 -29.3125 43.71375 -30.375 44.5 C-35.12827145 48.94327548 -40.08013953 54.60893398 -41.25 61.1875 C-40.4971875 60.46046875 -39.744375 59.7334375 -38.96875 58.984375 C-23.57053637 44.31999596 -6.80349951 31.48069909 13.5 24.5625 C14.6444458 24.17215576 14.6444458 24.17215576 15.81201172 23.77392578 C19.55232815 22.58936614 22.00903069 22.00848394 25.75 23.1875 C25.11835938 23.56519531 24.48671875 23.94289062 23.8359375 24.33203125 C4.88152249 35.99418573 -11.80990643 51.31823181 -26.25 68.1875 C-27.2277117 69.32435025 -28.20558997 70.46105726 -29.18359375 71.59765625 C-31.25155441 74.00387778 -33.31887903 76.41063536 -35.3828125 78.8203125 C-35.86008789 79.37750977 -36.33736328 79.93470703 -36.82910156 80.50878906 C-38.25730843 82.19613449 -39.65606086 83.90530062 -41.0546875 85.6171875 C-41.77914062 86.46539062 -42.50359375 87.31359375 -43.25 88.1875 C-43.58 88.1875 -43.91 88.1875 -44.25 88.1875 C-44.58 86.2075 -44.91 84.2275 -45.25 82.1875 C-52.92598222 86.52905732 -59.04946089 92.70165829 -64.8125 99.3125 C-68.80518276 103.85125127 -73.05295743 108.0358798 -78.25 111.1875 C-79.24 111.1875 -80.23 111.1875 -81.25 111.1875 C-80.74274046 107.2139669 -80.09538497 103.34170106 -79.2109375 99.43359375 C-79.03095215 98.63493896 -78.8509668 97.83628418 -78.66552734 97.01342773 C-78.45984131 96.10959351 -78.45984131 96.10959351 -78.25 95.1875 C-79.05219971 95.55101562 -79.05219971 95.55101562 -79.87060547 95.921875 C-82.28701451 97.01427465 -84.70595579 98.10094904 -87.125 99.1875 C-87.96675781 99.5690625 -88.80851562 99.950625 -89.67578125 100.34375 C-90.48144531 100.7046875 -91.28710938 101.065625 -92.1171875 101.4375 C-93.23262939 101.94023437 -93.23262939 101.94023437 -94.37060547 102.453125 C-96.25 103.1875 -96.25 103.1875 -98.25 103.1875 C-96.92457097 97.37467074 -94.17901242 94.82341216 -89.8125 91.125 C-85.88729982 87.75252328 -82.65124275 84.87809964 -80.25 80.1875 C-87.23303879 82.21892947 -93.61085725 85.14418433 -100.13256836 88.31835938 C-110.70819481 93.43094292 -110.70819481 93.43094292 -114.625 92.8125 C-115.429375 92.503125 -115.429375 92.503125 -116.25 92.1875 C-114.25125799 90.33196054 -112.25136887 88.47770358 -110.25 86.625 C-109.3530542 85.79464233 -109.3530542 85.79464233 -108.43798828 84.94750977 C-105.37557777 82.12076487 -102.2953338 79.33105897 -99.125 76.625 C-95.80278094 73.74103111 -92.63302243 70.71193334 -89.5 67.625 C-88.59765625 66.73683594 -87.6953125 65.84867187 -86.765625 64.93359375 C-84.20140651 62.13445463 -82.26351937 59.39125395 -80.25 56.1875 C-80.77843506 56.43918945 -81.30687012 56.69087891 -81.85131836 56.95019531 C-84.29614956 58.11381658 -86.74181939 59.27566513 -89.1875 60.4375 C-90.01830078 60.83324219 -90.84910156 61.22898438 -91.70507812 61.63671875 C-114.82153079 72.61028772 -114.82153079 72.61028772 -127.25 71.1875 C-127.91 70.5275 -128.57 69.8675 -129.25 69.1875 C-125.7017502 64.96108642 -122.03761315 60.93864772 -118.07470703 57.09423828 C-113.26694629 52.42897769 -109.46579699 48.06464622 -106.25 42.1875 C-113.33904774 44.08969316 -119.79428043 46.64137056 -126.375 49.875 C-127.23609375 50.29072266 -128.0971875 50.70644531 -128.984375 51.13476562 C-131.07619933 52.14581405 -133.16454414 53.16339795 -135.25 54.1875 C-124.97903731 32.61933356 -96.58400178 19.67645374 -75.50390625 11.78515625 C-51.17741194 3.3159323 -25.68898037 0.01914374 0 0 Z " fill="#FBFBFC" transform="translate(416.25,167.8125)"/>
<path d="M0 0 C13.67023571 1.29753742 27.33743908 2.62383011 41 4 C42.07553131 4.10825104 42.07553131 4.10825104 43.17279053 4.21868896 C56.105034 5.52916587 68.5831058 7.02255584 81 11 C81 11.33 81 11.66 81 12 C72.585 12.495 72.585 12.495 64 13 C65.98 14.65 67.96 16.3 70 18 C70 18.33 70 18.66 70 19 C68.59923218 18.99214478 68.59923218 18.99214478 67.17016602 18.98413086 C63.71687204 18.9671238 60.26362233 18.95456698 56.81030273 18.94506836 C55.31355082 18.94002879 53.81680384 18.93319713 52.32006836 18.92456055 C50.17300193 18.91247841 48.02600038 18.90676809 45.87890625 18.90234375 C44.5854126 18.89710693 43.29191895 18.89187012 41.95922852 18.88647461 C39.11347596 18.66003068 39.11347596 18.66003068 38 20 C39.71509766 20.38091797 39.71509766 20.38091797 41.46484375 20.76953125 C42.95588841 21.11650391 44.44676542 21.46419753 45.9375 21.8125 C46.69224609 21.97814453 47.44699219 22.14378906 48.22460938 22.31445312 C50.17570413 22.77816623 52.09255787 23.3807544 54 24 C54.495 25.485 54.495 25.485 55 27 C54.00258789 27.10546143 53.00517578 27.21092285 51.97753906 27.31958008 C48.21926481 27.71925477 44.46228411 28.1301608 40.70556641 28.54418945 C39.09033022 28.72068026 37.47477343 28.89426527 35.85888672 29.06469727 C26.35835881 30.06893782 17.20555071 31.31108175 8 34 C10.61514317 36.12038635 13.19637616 38.13091744 16 40 C16 40.66 16 41.32 16 42 C6.70212804 43.34891407 -2.47197731 44.20877374 -11.875 44.25 C-13.16712402 44.26353516 -13.16712402 44.26353516 -14.48535156 44.27734375 C-15.69529785 44.27154297 -15.69529785 44.27154297 -16.9296875 44.265625 C-17.64366699 44.26336914 -18.35764648 44.26111328 -19.09326172 44.25878906 C-21 44 -21 44 -24 42 C-23.36191406 41.65066406 -22.72382813 41.30132812 -22.06640625 40.94140625 C-21.24011719 40.48636719 -20.41382813 40.03132813 -19.5625 39.5625 C-18.32693359 38.88380859 -18.32693359 38.88380859 -17.06640625 38.19140625 C-15.07691202 37.16337603 -15.07691202 37.16337603 -14 36 C-19.28 36 -24.56 36 -30 36 C-28.6100869 33.22017379 -26.81341647 33.12536659 -24 32 C-23.67 31.34 -23.34 30.68 -23 30 C-24.32 29.67 -25.64 29.34 -27 29 C-22.67435795 27.41744803 -18.571279 26.54855348 -14 26 C-13.67 25.01 -13.34 24.02 -13 23 C-14.32 22.34 -15.64 21.68 -17 21 C-17 20.67 -17 20.34 -17 20 C-15.35 20 -13.7 20 -12 20 C-12.66868314 16.88667752 -12.66868314 16.88667752 -15.0625 15.8125 C-15.701875 15.544375 -16.34125 15.27625 -17 15 C-17 14.67 -17 14.34 -17 14 C-11.555 14.495 -11.555 14.495 -6 15 C-8.12346371 10.85183834 -10.11968911 8.98054566 -14.1875 6.75 C-15.80292055 5.85331449 -17.4107185 4.94223819 -19 4 C-19 3.67 -19 3.34 -19 3 C-13.04424544 2.58448224 -7.84837409 3.86550023 -2.0859375 5.34375 C0.72851961 5.94226746 3.13742028 6.12769872 6 6 C5.01 5.38125 4.02 4.7625 3 4.125 C2.01 3.42375 1.02 2.7225 0 2 C0 1.34 0 0.68 0 0 Z " fill="#ED8838" transform="translate(264,152)"/>
<path d="M0 0 C12.87 0 25.74 0 39 0 C39 12.54 39 25.08 39 38 C26.13 38 13.26 38 0 38 C0 25.46 0 12.92 0 0 Z " fill="#10212E" transform="translate(2133,160)"/>
<path d="M0 0 C5.46234337 3.02570981 8.78266412 6.63777353 12 12 C12.556875 12.515625 13.11375 13.03125 13.6875 13.5625 C15.49242013 15.53931728 15.64819075 17.39661158 16 20 C11.86360664 18.40907948 8.76786752 15.39525082 6 12 C6 11.34 6 10.68 6 10 C4.68922893 9.289999 3.3465266 8.63960014 2 8 C0.88625 7.46375 -0.2275 6.9275 -1.375 6.375 C-7.97120808 3.97862478 -15.98047349 3.53780697 -22.609375 5.94921875 C-26.76802844 8.35486317 -28.64896064 10.29398731 -30 15 C-31.1598885 29.2053431 -31.1598885 29.2053431 -25.55859375 41.77734375 C-21.75697025 45.80829953 -17.40243758 49.09015259 -12.91796875 52.32421875 C-10.90105949 54.086447 -10.01127535 55.54404558 -9 58 C-13.50997107 59.50332369 -17.6639084 59.97373538 -22.08984375 58.12890625 C-31.12192714 52.84141021 -35.14971612 45.91021778 -38 36 C-40.36731553 26.2308779 -40.2043697 15.77004573 -35 7 C-25.9532693 -5.46811609 -13.9518274 -5.26149423 0 0 Z " fill="#F9F7F4" transform="translate(229,114)"/>
<path d="M0 0 C3.56757196 2.04903296 5.60614869 4.39598211 6.69140625 8.36328125 C6.82675781 8.97171875 6.96210938 9.58015625 7.1015625 10.20703125 C6.36550781 9.92988281 5.62945312 9.65273437 4.87109375 9.3671875 C3.89527344 9.00496094 2.91945313 8.64273438 1.9140625 8.26953125 C0.95113281 7.90988281 -0.01179688 7.55023438 -1.00390625 7.1796875 C-9.06493034 4.47092232 -16.89888258 4.26841924 -24.8984375 7.20703125 C-25.5584375 7.86703125 -26.2184375 8.52703125 -26.8984375 9.20703125 C-28.2184375 9.20703125 -29.5384375 9.20703125 -30.8984375 9.20703125 C-31.16796875 6.91015625 -31.16796875 6.91015625 -30.8984375 4.20703125 C-29.03515625 2.44140625 -29.03515625 2.44140625 -26.5859375 0.95703125 C-25.78542969 0.456875 -24.98492187 -0.04328125 -24.16015625 -0.55859375 C-16.48091682 -4.74968124 -7.71036245 -3.46354377 0 0 Z " fill="#F4F1EC" transform="translate(370.8984375,108.79296875)"/>
<path d="M0 0 C-0.93109725 3.272614 -1.55554863 4.70465029 -4.43359375 6.6171875 C-11.52011794 9.58449672 -17.44122857 11.16332811 -25 9 C-27.6875 7.0625 -27.6875 7.0625 -29 5 C-29 4.34 -29 3.68 -29 3 C-27.85402344 3.03480469 -26.70804687 3.06960937 -25.52734375 3.10546875 C-23.99741061 3.13362703 -22.46746146 3.16092499 -20.9375 3.1875 C-20.18533203 3.21263672 -19.43316406 3.23777344 -18.65820312 3.26367188 C-11.92148023 3.35116178 -6.46136627 -0.58739693 0 0 Z " fill="#F0EAE2" transform="translate(381,130)"/>
<path d="M0 0 C4.56958375 1.97322935 7.13463296 3.92236229 10 8 C5.12637153 7.54663921 2.60957611 6.2910841 -1 3 C-0.67 2.01 -0.34 1.02 0 0 Z " fill="#BC1522" transform="translate(425,94)"/>
<path d="M0 0 C3.32993034 3.82941989 5.05324525 8.37522222 7 13 C6.01 13 5.02 13 4 13 C-0.59225513 4.738041 -0.59225513 4.738041 0 0 Z " fill="#D77D3B" transform="translate(84,437)"/>
<path d="M0 0 C3.73487777 0.4979837 5.81237635 0.87491756 9 3 C9 3.66 9 4.32 9 5 C5.625 4.75 5.625 4.75 2 4 C0.5625 1.9375 0.5625 1.9375 0 0 Z " fill="#E1E1E4" transform="translate(493,162)"/>
<path d="M0 0 C1.875 0.25 1.875 0.25 4 1 C5.25 3.0625 5.25 3.0625 6 5 C5.01 5 4.02 5 3 5 C3 5.66 3 6.32 3 7 C2.34 7 1.68 7 1 7 C0.67 4.69 0.34 2.38 0 0 Z " fill="#EDAB30" transform="translate(447,105)"/>
<path d="M0 0 C1.65 0 3.3 0 5 0 C5 1.65 5 3.3 5 5 C3.35 4.67 1.7 4.34 0 4 C0 2.68 0 1.36 0 0 Z " fill="#F5F4F6" transform="translate(358,118)"/>
<path d="M0 0 C1.7074998 1.28062485 3.37373596 2.61767557 5 4 C5 4.66 5 5.32 5 6 C5.61875 6.28875 6.2375 6.5775 6.875 6.875 C9 8 9 8 11 10 C8.13144287 9.91563067 6.44317685 9.41307819 4.33203125 7.4453125 C0 2.48559976 0 2.48559976 0 0 Z " fill="#E4A532" transform="translate(453,110)"/>
<path d="M0 0 C3.81684226 1.55500981 6.19195732 4.03595495 9 7 C8.67 7.66 8.34 8.32 8 9 C1.42857143 3.85714286 1.42857143 3.85714286 0 0 Z " fill="#D09834" transform="translate(352,380)"/>
<path d="M0 0 C0.33 0.66 0.66 1.32 1 2 C1.99 2 2.98 2 4 2 C4 2.66 4 3.32 4 4 C1.24921116 4.91692961 -0.35948913 5.10886083 -3.1875 5.0625 C-5.0746875 5.0315625 -5.0746875 5.0315625 -7 5 C-7 4.67 -7 4.34 -7 4 C-5.824375 3.8453125 -5.824375 3.8453125 -4.625 3.6875 C-1.66954819 3.22404978 -1.66954819 3.22404978 0 0 Z " fill="#F5B12E" transform="translate(445,113)"/>
<path d="M0 0 C0.66 0.33 1.32 0.66 2 1 C1.375 2.875 1.375 2.875 0 5 C-3.125 6.25 -3.125 6.25 -6 7 C-4.02 4.69 -2.04 2.38 0 0 Z " fill="#25313E" transform="translate(396,192)"/>
</svg>
