<svg width="728" height="271" viewBox="0 0 728 271" fill="none" xmlns="http://www.w3.org/2000/svg">
<rect width="728" height="270.857" fill="#0D0D0D"/>
<path fill-rule="evenodd" clip-rule="evenodd" d="M113.716 121.05C95.2404 115.585 97.3294 163.165 118.868 150.129C125.084 146.366 133.277 140.958 143.084 140.958C151.931 140.958 156.772 150.543 165.619 150.543C178.363 149.156 177.816 124.964 169.207 124.181C160.154 124.181 152.735 139.469 141.02 135.876C130.904 132.775 120.523 123.063 113.716 121.05ZM116.217 113.38C125.654 116.171 133.874 125.202 143.402 128.124C144.178 128.361 144.838 128.367 145.618 128.156C147.442 127.662 149.531 126.123 151.029 124.99C156.556 120.806 161.639 116.154 169.003 116.154H169.371L169.738 116.188C188.711 117.913 188.528 156.773 166.32 159.19L165.882 159.238H165.334C164.632 159.238 163.928 159.217 163.232 159.131C157.519 158.422 153.622 155.836 149.566 152.996C147.951 151.865 145.162 149.722 143.068 149.722C135.813 149.722 129.273 153.999 123.252 157.644C117.326 161.23 110.418 162.529 104.131 159.02C96.7122 154.88 93.5177 145.798 93.191 137.611C92.8515 129.113 95.5307 119.132 103.269 114.681C107.287 112.369 111.83 112.082 116.217 113.38Z" fill="url(#paint0_linear_625_17)"/>
<path fill-rule="evenodd" clip-rule="evenodd" d="M132.41 82.1633C60.1094 77.4263 106.568 81.8753 90.3815 103.264C83.4874 112.381 79.3689 123.82 79.3689 136.288C79.3689 166.18 103.116 190.411 132.41 190.411C154.098 190.411 172.744 177.128 180.964 158.104C186.092 147.91 189.181 133.106 181.053 114.985C172.867 96.2841 154.14 83.5884 132.41 82.1633ZM132.965 73.3492C166.236 75.5283 194.109 101.234 194.109 136.288C194.109 171.056 166.482 199.245 132.41 199.245C98.3399 199.245 70.7131 171.054 70.7131 136.288C70.7131 122.345 75.178 108.907 83.5291 97.8661C84.7657 96.2319 85.9141 94.4626 85.1844 92.3855C83.569 87.7936 80.1545 85.3288 82.2044 79.2596C84.7357 71.7642 92.9965 71.5805 99.4045 71.6156C110.464 71.6769 121.922 72.6258 132.965 73.3492Z" fill="url(#paint1_linear_625_17)"/>
<path fill-rule="evenodd" clip-rule="evenodd" d="M469.848 163.57C459.626 163.57 450.667 155.182 450.667 142.062V141.847C450.667 128.404 459.309 120.447 469.848 120.447C479.964 120.447 489.556 129.049 489.556 141.847V142.062C489.556 154.859 479.964 163.57 469.848 163.57ZM515.32 138.83C516.386 127.85 523.629 119.698 533.216 119.698C544.188 119.698 549.94 128.612 550.792 138.83H515.32ZM534.816 171.937C545.256 171.937 551.965 167.698 557.505 161.393L552.392 156.719C547.919 161.502 542.593 164.654 535.029 164.654C525.229 164.654 516.813 157.806 515.642 145.633H559.318C559.423 144.654 559.423 144.002 559.423 142.915C559.423 126.501 550.049 113.24 533.751 113.24C518.518 113.24 507.333 126.284 507.333 142.479V142.698C507.333 160.088 519.69 171.937 534.816 171.937ZM583.371 170.576H590.621L614.613 113.887H605.763L587.102 160.564L568.549 113.887H559.484L583.371 170.576ZM637.73 171.196C648.703 171.196 657.333 164.999 657.333 154.344V154.279C657.333 144.052 648.066 140.642 639.443 138.003C632.008 135.694 625.111 133.605 625.111 128.217V128.054C625.111 123.442 629.21 120.011 635.62 120.011C640.876 120.011 646.655 122.048 651.7 125.372L655.379 119.152C649.808 115.399 642.452 113.039 635.831 113.039C625.111 113.039 617.333 119.367 617.333 128.912V129.129C617.333 139.542 627 142.61 635.7 145.132C643.004 147.213 649.556 149.406 649.556 155.104V155.214C649.556 160.65 644.761 164.128 638.157 164.128C631.658 164.128 625.052 161.519 619.087 156.953L614.932 162.933C621.11 168.042 629.847 171.196 637.73 171.196ZM468.298 171.003C478.497 171.003 485.047 165.243 489.556 158.504V169.442H497.333V99.1474H489.556V124.372C485.26 118.068 478.604 112.416 468.298 112.416C454.983 112.416 441.778 123.286 441.778 141.655V141.873C441.778 160.351 454.983 171.003 468.298 171.003Z" fill="url(#paint2_linear_625_17)"/>
<path fill-rule="evenodd" clip-rule="evenodd" d="M308.271 171.44C304.01 171.44 300.05 170.716 296.393 169.267C292.737 167.817 289.577 165.752 286.912 163.071C284.249 160.389 282.172 157.219 280.681 153.559C279.19 149.9 278.444 145.824 278.444 141.331V141.113C278.444 136.984 279.137 133.071 280.521 129.374C281.907 125.678 283.842 122.453 286.327 119.701C288.812 116.946 291.778 114.772 295.222 113.178C298.667 111.584 302.483 110.787 306.673 110.787C311.432 110.787 315.55 111.656 319.03 113.396C322.51 115.134 325.403 117.472 327.712 120.407C330.02 123.342 331.724 126.712 332.826 130.516C333.924 134.32 334.477 138.288 334.477 142.418C334.477 143.07 334.459 143.758 334.423 144.483C334.387 145.207 334.334 145.969 334.263 146.766H294.53C295.311 150.534 296.927 153.378 299.377 155.299C301.826 157.219 304.862 158.18 308.484 158.18C311.182 158.18 313.597 157.708 315.728 156.766C317.859 155.824 320.06 154.303 322.332 152.201L331.6 160.57C328.901 163.976 325.633 166.64 321.799 168.559C317.964 170.48 313.454 171.44 308.271 171.44ZM318.2 136.562C317.702 132.867 316.424 129.877 314.364 127.595C312.304 125.312 309.571 124.171 306.162 124.171C302.753 124.171 300.001 125.294 297.907 127.541C295.812 129.787 294.444 132.794 293.806 136.562H318.2ZM339.556 111.619H356.222V123.125C357.816 119.218 359.999 116.094 362.772 113.75C365.544 111.406 369.288 110.34 374 110.554V127.492H373.168C367.901 127.492 363.759 129.125 360.744 132.393C357.729 135.659 356.222 140.737 356.222 147.625V169.442H339.556V111.619ZM407.227 171.626C402.791 171.626 398.68 170.841 394.889 169.273C391.099 167.702 387.827 165.55 385.072 162.813C382.319 160.077 380.156 156.865 378.583 153.18C377.009 149.495 376.222 145.535 376.222 141.303V141.084C376.222 136.851 377.009 132.892 378.583 129.207C380.156 125.521 382.337 122.291 385.126 119.519C387.916 116.745 391.206 114.555 394.997 112.949C398.787 111.345 402.934 110.542 407.441 110.542C411.876 110.542 415.987 111.327 419.778 112.895C423.568 114.465 426.841 116.617 429.594 119.355C432.348 122.091 434.51 125.302 436.083 128.987C437.658 132.673 438.444 136.632 438.444 140.865V141.084C438.444 145.317 437.658 149.276 436.083 152.961C434.51 156.647 432.33 159.875 429.541 162.649C426.751 165.422 423.461 167.613 419.67 169.217C415.881 170.823 411.732 171.626 407.227 171.626ZM406.884 157.265C409.242 157.265 411.331 156.845 413.152 156.007C414.973 155.169 416.528 154.021 417.813 152.563C419.099 151.105 420.081 149.411 420.759 147.479C421.439 145.548 421.778 143.49 421.778 141.302V141.084C421.778 138.898 421.421 136.838 420.706 134.906C419.992 132.974 418.956 131.262 417.599 129.768C416.241 128.274 414.634 127.09 412.778 126.215C410.92 125.34 408.886 124.903 406.67 124.903C404.313 124.903 402.223 125.322 400.403 126.16C398.581 126.999 397.028 128.147 395.742 129.604C394.457 131.062 393.474 132.756 392.794 134.688C392.117 136.62 391.778 138.678 391.778 140.865V141.084C391.778 143.27 392.134 145.33 392.849 147.261C393.563 149.192 394.6 150.905 395.957 152.4C397.314 153.893 398.902 155.077 400.724 155.953C402.546 156.827 404.599 157.265 406.884 157.265ZM236.222 99.1474V120.648C237.16 119.397 238.187 118.22 239.306 117.079C240.423 115.955 241.666 114.959 243.037 114.071C244.406 113.201 245.921 112.514 247.579 111.987C249.238 111.48 251.112 111.227 253.202 111.227C259.477 111.227 264.326 113.147 267.751 116.988C271.176 120.829 272.889 126.118 272.889 132.858V170.576H256.222V138.148C256.222 134.253 255.367 131.3 253.656 129.326C251.944 127.333 249.521 126.337 246.382 126.337C243.247 126.337 240.768 127.333 238.95 129.326C237.131 131.3 236.222 134.253 236.222 138.148V169.442H219.556V99.1474H236.222Z" fill="white"/>
<defs>
<linearGradient id="paint0_linear_625_17" x1="93.1627" y1="138.712" x2="183.511" y2="137.913" gradientUnits="userSpaceOnUse">
<stop stop-color="#F926E1"/>
<stop offset="1" stop-color="#2AB5FB"/>
</linearGradient>
<linearGradient id="paint1_linear_625_17" x1="70.7131" y1="140.338" x2="194.129" y2="139.771" gradientUnits="userSpaceOnUse">
<stop stop-color="#F926E1"/>
<stop offset="1" stop-color="#2AB5FB"/>
</linearGradient>
<linearGradient id="paint2_linear_625_17" x1="441.778" y1="138.342" x2="657.33" y2="135.311" gradientUnits="userSpaceOnUse">
<stop stop-color="#F926E1"/>
<stop offset="1" stop-color="#2AB5FB"/>
</linearGradient>
</defs>
</svg>
