<?xml version="1.0" encoding="utf-8"?>
<!-- Generator: Adobe Illustrator 23.0.2, SVG Export Plug-In . SVG Version: 6.00 Build 0)  -->
<svg version="1.1" id="Layer_1" xmlns="http://www.w3.org/2000/svg" xmlns:xlink="http://www.w3.org/1999/xlink" x="0px" y="0px"
	 viewBox="0 0 400 245" style="enable-background:new 0 0 400 245;" xml:space="preserve">
<style type="text/css">
	.st0{fill:#4094D0;}
	.st1{fill:#EE4636;}
	.st2{fill:#FFC10E;}
	.st3{fill:#2FB355;}
	.st4{fill:none;}
	.st5{fill-rule:evenodd;clip-rule:evenodd;}
	.st6{fill-rule:evenodd;clip-rule:evenodd;fill:#E82D3C;}
	.st7{fill:#4F81C2;}
	.st8{fill:#F25022;}
	.st9{fill:#80BA01;}
	.st10{fill:#777777;}
	.st11{fill:#02A4EF;}
	.st12{fill:#FFB902;}
	.st13{fill:#263C8D;}
	.st14{fill:#1853A3;}
	.st15{fill:#54565A;}
	.st16{fill:#808080;}
	.st17{fill:#0085C3;}
	.st18{fill:#4666A9;}
	.st19{fill:#006BB6;}
	.st20{fill-rule:evenodd;clip-rule:evenodd;fill:#2C348A;}
	.st21{fill:#F58220;}
	.st22{fill:#0058A9;}
	.st23{fill-rule:evenodd;clip-rule:evenodd;fill:#EC1C24;}
	.st24{fill:#ED1A3B;}
</style>
<g>
	<path class="st5" d="M307.48,67.02v21.56h28.75c0,0-0.22-21.56,0-21.56c-0.22,0,13.93,0,14.15,0v53.68h-14.15V97.12h-28.75v23.58
		H293.1c0,0,0.22-53.68,0-53.68H307.48L307.48,67.02z"/>
	<path class="st5" d="M172.49,67.02c0,0.22,0,9.21,0,9.21H150.7v44.47h-14.15V76.23h-21.79v-9.21H172.49L172.49,67.02z"/>
	<path class="st5" d="M227.74,120.7c0,0-15.95,0-15.72,0l-4.72-11.45h-26.73l-4.49,11.45h-15.95l25.16-53.68h17.3L227.74,120.7
		L227.74,120.7z M194.05,76.23l-9.88,24.26h19.77L194.05,76.23L194.05,76.23z"/>
	<polygon class="st5" points="361.61,67.02 375.77,67.02 375.77,120.7 361.61,120.7 361.61,67.02 	"/>
	<polygon class="st5" points="41.31,67.02 41.31,88.58 70.06,88.58 70.06,67.02 84.21,67.02 84.21,120.7 70.06,120.7 70.06,97.12 
		41.31,97.12 41.31,120.7 27.15,120.7 27.15,67.02 41.31,67.02 	"/>
	<polygon class="st5" points="95.44,67.02 109.82,67.02 109.82,120.7 95.44,120.7 95.44,67.02 	"/>
	<path class="st5" d="M227.29,105.88c-1.35-3.59-2.02-7.41-2.02-11.46c0-5.62,1.12-11.01,3.82-15.72
		c2.69-4.49,6.96-8.09,12.13-10.11c4.94-1.8,10.33-2.92,15.72-2.92c6.51,0,12.58,1.57,17.97,3.82c5.17,2.25,8.98,6.74,10.11,12.35
		c0.22,1.12,0.45,2.25,0.67,3.37h-15.05c0-1.35-0.22-2.7-0.67-4.04c-1.12-2.92-3.59-5.17-6.74-6.29c-2.02-0.45-4.04-0.9-6.29-0.9
		c-2.47,0-4.72,0.45-6.96,1.35c-3.59,1.12-6.51,4.04-7.86,7.86c-1.12,3.37-1.8,7.19-1.8,11.23c0,3.14,0.45,6.29,1.35,9.43
		c1.12,3.82,4.04,6.96,7.64,8.54c2.47,0.67,4.94,1.35,7.64,1.35c2.25,0,4.49-0.45,6.51-1.12c2.92-0.9,5.17-2.92,6.29-5.61
		c0.9-1.57,1.12-3.6,1.12-5.62h15.05c0,1.8-0.22,3.37-0.67,5.17c-1.35,5.17-4.94,9.66-9.88,11.68c-5.62,2.47-11.91,3.82-18.42,3.82
		c-4.94,0-9.88-0.9-14.38-2.24C235.6,117.56,229.54,112.62,227.29,105.88L227.29,105.88z"/>
	<path class="st5" d="M14.35,135.75l-12.58,1.12v1.79h0.45c4.94,0.67,4.94,0.67,4.94,4.27v26.5h7.64v-33.92L14.35,135.75
		L14.35,135.75z"/>
	<path class="st5" d="M41.31,145.63c-4.72,0-7.64,3.14-8.99,5.17c0-1.8,0-5.17,0-5.17h-0.45l-10.33,1.57V149h0.45
		c3.37,0.22,4.04,0.9,4.04,3.82v16.62h6.29v-12.13c0-3.14,3.14-7.41,6.29-7.41c3.15,0,3.37,2.47,3.37,6.74v12.8h6.29v-16.62
		C48.27,148.33,45.8,145.63,41.31,145.63L41.31,145.63z"/>
	<path class="st5" d="M66.24,154.85c-2.47-1.12-4.72-2.25-4.72-4.04c0-1.8,2.47-2.02,3.37-2.02c2.7,0,5.17,1.35,6.06,2.02l1.12,0.67
		v-0.89v-4.04h-0.9c-1.12-0.45-3.37-0.9-5.84-0.9c-6.06,0-9.66,2.69-9.66,6.96c0,3.82,3.82,5.62,7.19,7.41
		c2.47,1.12,4.94,2.47,4.94,4.27c0,1.79-1.57,2.69-4.27,2.69c-2.92,0-5.62-1.57-6.96-2.47l-0.9-0.45V169l0.67,0.22
		c1.12,0.22,3.59,0.89,6.96,0.89c6.51,0,10.33-2.69,10.33-7.19C73.65,158.44,69.83,156.64,66.24,154.85L66.24,154.85z"/>
	<path class="st5" d="M94.54,145.63c-2.47,0-4.72,1.12-6.96,3.37c0-1.12,0-3.37,0-3.37h-0.45l-10.11,1.57V149h0.45
		c3.15,0.22,3.82,0.9,3.82,3.82v26.51h6.29c0,0,0-10.11,0-12.13c1.12,1.57,3.15,2.92,6.74,2.92c6.51,0,10.11-4.49,10.11-12.58
		C104.42,149.9,100.83,145.63,94.54,145.63L94.54,145.63z M92.52,149.23c4.49,0,4.94,4.72,4.94,8.31c0,6.06-1.57,8.98-4.72,8.98
		c-4.27,0-5.17-3.82-5.17-7.19v-2.02C87.58,154.85,88.03,149.23,92.52,149.23L92.52,149.23z"/>
	<path class="st5" d="M108.92,147.21V149h0.45c3.14,0.22,3.82,0.9,3.82,3.82v16.62h6.29v-23.81h-0.45L108.92,147.21L108.92,147.21z"
		/>
	<path class="st5" d="M116.33,142.71c2.25,0,4.04-1.57,4.04-3.37c0-2.02-1.8-3.59-3.82-3.59c-2.25,0-4.04,1.57-4.04,3.59
		C112.51,141.15,114.31,142.71,116.33,142.71L116.33,142.71z"/>
	<path class="st5" d="M146.43,151.03v-4.94l-0.45-0.22c-1.12,0-2.02-0.22-2.92-0.22c-3.82,0-5.61,2.69-6.51,4.72
		c0-1.8,0-4.72,0-4.72h-0.67l-10.11,1.57V149h0.45c3.14,0.22,3.82,0.9,3.82,3.82v16.62h6.51v-11.9c0-2.02,0.45-6.74,6.51-6.74
		c0.67,0,1.57,0.22,2.25,0.45l1.12,0.22V151.03L146.43,151.03z"/>
	<path class="st5" d="M171.81,155.29c0-6.29-3.59-9.66-10.78-9.66c-7.86,0-11.9,3.82-11.9,11.46c0,8.09,5.17,13.03,13.93,13.03
		c3.82,0,6.74-1.12,7.86-1.34l0.22-0.22v-2.92l-0.45,0.22c-1.12,0.22-2.92,0.67-5.17,0.67c-6.74,0-9.21-5.61-9.43-10.78
		c0.9,0,15.72,0,15.72,0V155.29L171.81,155.29z M160.8,148.33c3.59,0,4.49,2.47,4.49,4.72c-0.9,0-8.31,0-9.21,0
		C156.31,151.25,157.21,148.33,160.8,148.33L160.8,148.33z"/>
	<path class="st5" d="M230.21,145.63c-4.72,0-7.41,2.92-8.99,5.17c0-2.7,0-15.95,0-15.95h-0.45l-10.11,1.35V138h0.45
		c3.14,0.22,3.82,0.9,3.82,3.82v27.63h6.29v-11.9c0-4.27,3.37-7.64,6.07-7.64c3.59,0,3.59,2.69,3.59,4.94v14.6h6.51v-15.27
		C237.4,151.7,237.4,145.63,230.21,145.63L230.21,145.63z"/>
	<path class="st5" d="M266.15,155.29c0-6.29-3.59-9.66-10.56-9.66c-8.09,0-12.13,3.82-12.13,11.46c0,8.09,5.17,13.03,13.93,13.03
		c3.82,0,6.74-1.12,7.86-1.34l0.45-0.22v-2.92l-0.67,0.22c-1.12,0.22-2.92,0.67-4.94,0.67c-6.96,0-9.43-5.61-9.66-10.78
		c0.9,0,15.72,0,15.72,0V155.29L266.15,155.29z M255.37,148.33c3.37,0,4.27,2.47,4.27,4.72c-0.67,0-8.31,0-9.21,0
		C250.65,151.25,251.78,148.33,255.37,148.33L255.37,148.33z"/>
	<path class="st5" d="M194.27,138.9c0,0,0,6.74,0,7.41c-0.9,0-4.27,0-4.27,0V149c0,0,3.37,0,4.27,0c0,0.9,0,14.38,0,14.38
		c0,6.29,3.82,6.74,8.76,6.74c1.12,0,2.47-0.22,3.82-0.45h0.22v-2.92h-0.45c-0.67,0.22-1.12,0.22-2.02,0.22
		c-3.82,0-4.04-1.12-4.04-4.27c0,0,0-12.8,0-13.7c0.9,0,7.19,0,7.19,0v-2.69c0,0-6.29,0-7.19,0c0-0.9,0-7.41,0-7.41H194.27
		L194.27,138.9z"/>
	<path class="st5" d="M320.28,136.2h-6.51c0,0,0,22.91,0,25.38c-1.35-2.02-16.62-25.38-16.62-25.38h-14.82V138l1.35,0.22
		c3.82,0.67,4.04,0.9,4.04,4.49v26.73h6.96c0,0,0-24.03,0-26.5c1.35,2.02,17.52,26.5,17.52,26.5h8.54V136.2H320.28L320.28,136.2z"/>
	<path class="st5" d="M349.26,155.29c0-6.29-3.37-9.66-10.56-9.66c-7.86,0-11.9,3.82-11.9,11.46c0,8.09,5.17,13.03,13.93,13.03
		c3.82,0,6.74-0.89,7.86-1.34l0.22-0.22v-2.92l-0.45,0.22c-1.12,0.22-3.14,0.67-5.17,0.67c-6.74,0-9.43-5.61-9.43-10.78
		c0.9,0,15.5,0,15.5,0V155.29L349.26,155.29z M338.48,148.33c3.37,0,4.27,2.47,4.49,4.72c-0.9,0-8.31,0-9.21,0
		C333.99,151.25,334.88,148.33,338.48,148.33L338.48,148.33z"/>
	<path class="st5" d="M384.75,138.9c0,0,0,6.74,0,7.41c-0.9,0-4.27,0-4.27,0V149c0,0,3.37,0,4.27,0c0,0.9,0,14.38,0,14.38
		c0,6.29,3.82,6.74,8.76,6.74c1.12,0,2.47-0.22,3.82-0.45h0.22v-2.92h-0.45c-0.67,0.22-1.12,0.22-2.02,0.22
		c-3.82,0-4.04-1.12-4.04-4.27c0,0,0-12.8,0-13.7c0.9,0,7.19,0,7.19,0v-2.69c0,0-6.29,0-7.19,0c0-0.9,0-7.41,0-7.41H384.75
		L384.75,138.9z"/>
	<path class="st5" d="M371.72,153.72l6.74-7.41h-6.96l-6.06,7.19l-5.62-7.19h-9.88v1.79h0.45c3.37,0.22,4.27,0.9,6.29,3.6l4.04,5.16
		l-6.74,7.64h6.96l2.92-3.37l6.29,8.31h7.64l-12.13-15.72H371.72L371.72,153.72z"/>
	<polygon class="st6" points="384.53,138.9 377.79,138.9 386.1,129.46 392.84,129.46 384.53,138.9 	"/>
</g>
</svg>
