<?xml version="1.0" encoding="utf-8"?>
<!-- Generator: Adobe Illustrator 21.1.0, SVG Export Plug-In . SVG Version: 6.00 Build 0)  -->
<svg version="1.1" id="Calque_1" xmlns="http://www.w3.org/2000/svg" xmlns:xlink="http://www.w3.org/1999/xlink" x="0px" y="0px"
	 viewBox="0 0 112 40" style="enable-background:new 0 0 112 40;" xml:space="preserve">
<style type="text/css">
	.st0{clip-path:url(#SVGID_2_);}
	.st1{clip-path:url(#SVGID_4_);fill:url(#SVGID_5_);}
	.st2{clip-path:url(#SVGID_7_);fill:url(#SVGID_8_);}
	.st3{clip-path:url(#SVGID_10_);fill:url(#SVGID_11_);}
	.st4{clip-path:url(#SVGID_13_);fill:#010101;}
</style>
<g id="logo-icon-small-black">
	<g>
		<defs>
			<rect id="SVGID_1_" x="0" y="0.8" width="111.8" height="38.5"/>
		</defs>
		<clipPath id="SVGID_2_">
			<use xlink:href="#SVGID_1_"  style="overflow:visible;"/>
		</clipPath>
		<g class="st0">
			<defs>
				<path id="SVGID_3_" d="M27.9,14.7C25,15,22.8,17.6,23,20.5c0,0.8-0.3,1.5-1,1.9l0,0c-0.3,0.2-0.7,0.3-1.1,0.3
					c-0.4,0-0.7-0.1-1.1-0.3C19,21.9,18,21.6,17,21.6c-0.2,0-0.4,0-0.6,0c-2.9,0.3-5,2.9-4.8,5.8c0,0.8-0.4,1.5-1,1.9
					c-0.3,0.2-0.7,0.3-1.1,0.3c-0.4,0-0.7-0.1-1-0.3c-0.9-0.5-1.9-0.8-2.9-0.8c-0.2,0-0.4,0-0.6,0c-2.7,0.3-4.7,2.6-4.8,5.4
					c0,3,2.4,5.5,5.4,5.5c0.2,0,0.4,0,0.5,0c2.6-0.3,4.7-2.3,4.9-4.9c0-0.3,0-0.6,0-0.9c0-0.8,0.3-1.5,1-1.9l0,0
					c0.3-0.2,0.7-0.3,1.1-0.3c0.4,0,0.7,0.1,1.1,0.3c0.9,0.5,1.9,0.8,2.9,0.8c0.2,0,0.4,0,0.6,0c2.6-0.3,4.6-2.4,4.8-4.9
					c0-0.3,0-0.6,0-0.9c0-0.8,0.3-1.5,1-1.9c0.3-0.2,0.7-0.3,1.1-0.3c0.4,0,0.7,0.1,1,0.3c0.9,0.5,1.9,0.8,2.9,0.8
					c0.2,0,0.4,0,0.6,0c2.7-0.3,4.7-2.6,4.8-5.4c0-3-2.4-5.5-5.4-5.5C28.3,14.7,28.1,14.7,27.9,14.7"/>
			</defs>
			<clipPath id="SVGID_4_">
				<use xlink:href="#SVGID_3_"  style="overflow:visible;"/>
			</clipPath>
			
				<linearGradient id="SVGID_5_" gradientUnits="userSpaceOnUse" x1="-2.325366e-02" y1="40.1166" x2="0.2053" y2="40.1166" gradientTransform="matrix(69.1727 -69.1727 -69.1727 -69.1727 2779.4456 2814.4827)">
				<stop  offset="0" style="stop-color:#F4C503"/>
				<stop  offset="1" style="stop-color:#FFE800"/>
			</linearGradient>
			<polygon class="st1" points="-12.3,27 17,-2.3 46.3,27 17,56.3 			"/>
		</g>
		<g class="st0">
			<defs>
				<path id="SVGID_6_" d="M16.4,7.8c-2.9,0.3-5.1,2.9-4.9,5.8c0,0.8-0.4,1.5-1,1.9c-0.3,0.2-0.7,0.3-1.1,0.3c-0.4,0-0.7-0.1-1-0.3
					c-0.9-0.6-1.9-0.8-2.9-0.8c-0.2,0-0.4,0-0.6,0c-2.7,0.4-4.7,2.6-4.7,5.3c0,3,2.4,5.5,5.4,5.5l0,0c0.2,0,0.4,0,0.5,0
					c2.6-0.3,4.7-2.3,4.9-4.9c0-0.3,0-0.6,0-0.9c0-0.8,0.3-1.5,1-1.9c0.3-0.2,0.7-0.3,1.1-0.3c0.4,0,0.7,0.1,1,0.3
					c0.9,0.5,1.9,0.8,2.9,0.8c0.2,0,0.4,0,0.6,0c2.7-0.3,4.7-2.6,4.8-5.4c0-3-2.4-5.5-5.4-5.5C16.8,7.8,16.6,7.8,16.4,7.8"/>
			</defs>
			<clipPath id="SVGID_7_">
				<use xlink:href="#SVGID_6_"  style="overflow:visible;"/>
			</clipPath>
			
				<linearGradient id="SVGID_8_" gradientUnits="userSpaceOnUse" x1="-2.325366e-02" y1="39.7242" x2="0.2053" y2="39.7242" gradientTransform="matrix(69.1727 -69.1727 -69.1727 -69.1727 2744.2534 2779.2905)">
				<stop  offset="0" style="stop-color:#F4C503"/>
				<stop  offset="1" style="stop-color:#FFE800"/>
			</linearGradient>
			<polygon class="st2" points="-8.9,16.7 11.2,-3.4 31.3,16.7 11.2,36.8 			"/>
		</g>
		<g class="st0">
			<defs>
				<circle id="SVGID_9_" cx="5.5" cy="6.3" r="5.5"/>
			</defs>
			<clipPath id="SVGID_10_">
				<use xlink:href="#SVGID_9_"  style="overflow:visible;"/>
			</clipPath>
			
				<linearGradient id="SVGID_11_" gradientUnits="userSpaceOnUse" x1="-2.325366e-02" y1="39.3306" x2="0.2053" y2="39.3306" gradientTransform="matrix(69.1727 -69.1727 -69.1727 -69.1727 2708.9688 2744.0056)">
				<stop  offset="0" style="stop-color:#F4C503"/>
				<stop  offset="1" style="stop-color:#FFE800"/>
			</linearGradient>
			<polygon class="st3" points="-5.5,6.3 5.5,-4.6 16.4,6.3 5.5,17.2 			"/>
		</g>
		<g class="st0">
			<defs>
				<rect id="SVGID_12_" x="0" y="0.8" width="111.8" height="38.5"/>
			</defs>
			<clipPath id="SVGID_13_">
				<use xlink:href="#SVGID_12_"  style="overflow:visible;"/>
			</clipPath>
			<path class="st4" d="M52.2,8.2c-1.1-0.7-2.7-0.4-3.4,0.7c-0.5,0.8-0.5,1.8,0,2.6c0.2,0.3,0.4,0.6,0.7,0.7
				c1.1,0.7,2.6,0.4,3.4-0.7C53.7,10.5,53.4,9,52.2,8.2"/>
			<path class="st4" d="M56.9,24.9v1.5c0,0.6-0.5,1-1,1h-9.9c-0.3,0-0.6-0.3-0.6-0.6v-2.4c0-0.3,0.3-0.6,0.6-0.6h3.3v-5.4H46
				c-0.3,0-0.6-0.3-0.6-0.6v-2.4c0-0.3,0.3-0.6,0.6-0.6h5.9c0.7,0,1.2,0.6,1.2,1.3v7.5h2.8C56.5,23.9,56.9,24.3,56.9,24.9"/>
			<path class="st4" d="M97.4,22h-7.3c0.2,1.4,1.1,2.4,2.7,2.4c1,0,1.9-0.3,2.6-1c0.3-0.3,0.7-0.3,1,0l1.2,1.2
				c0.2,0.2,0.2,0.5,0,0.7c-1.2,1.3-2.8,2-4.7,2c-1.9,0-3.4-0.6-4.5-1.7c-1.1-1.1-1.7-2.6-1.7-4.4c0-1.8,0.5-3.3,1.6-4.5
				c1.1-1.2,2.5-1.8,4.2-1.8c1.9,0,3.3,0.6,4.2,1.8c1,1.2,1.5,2.6,1.5,4.3l0,0.3C98.1,21.7,97.8,22,97.4,22 M90.2,20h4.4
				c0-1.4-0.7-2.3-2.1-2.3C91,17.7,90.3,18.7,90.2,20"/>
			<path class="st4" d="M111.7,24.5c0.2,0.2,0.2,0.5,0,0.7c-1.2,1.4-2.8,2.1-4.9,2.1c-1.9,0-3.4-0.6-4.5-1.7
				c-1.2-1.1-1.7-2.6-1.7-4.5c0-1.9,0.6-3.4,1.7-4.5c1.2-1.1,2.7-1.7,4.5-1.7c2,0,3.3,0.7,4.6,2c0.2,0.2,0.2,0.6,0,0.8L110,19
				c-0.3,0.3-0.8,0.3-1.1,0c-0.6-0.6-1.3-0.9-2-0.9c-1.7,0-2.9,1.2-2.9,3.1c0,1.9,1.1,3.1,2.9,3.1c0.9,0,1.6-0.4,2.3-1.1
				c0.3-0.3,0.8-0.3,1.1,0c0,0,0,0,0,0L111.7,24.5z"/>
			<path class="st4" d="M84.9,27c-0.1,0.2-0.3,0.3-0.5,0.3h-2.3c-0.3,0-0.5-0.1-0.6-0.4l-1.8-3.1l-1.9,3.2c-0.1,0.2-0.3,0.3-0.5,0.3
				h-2.3c-0.2,0-0.5-0.1-0.6-0.3c-0.1-0.2-0.1-0.5,0-0.7l3.3-5.4l-3.1-5c-0.1-0.2-0.1-0.4,0-0.7c0.1-0.2,0.3-0.3,0.6-0.3h2.3
				c0.2,0,0.4,0.1,0.5,0.3l1.6,2.6l1.6-2.6c0.1-0.2,0.4-0.4,0.6-0.4h2.3c0.2,0,0.4,0.1,0.5,0.3c0.1,0.2,0.1,0.4,0,0.6l-3.2,5
				l3.4,5.4C85,26.6,85,26.8,84.9,27"/>
			<path class="st4" d="M63.5,11.4V15h5.6c0.5,0,1,0.4,1,1v1.4c0,0.5-0.4,1-1,1h-5.6v5.5h7.3c0.5,0,1,0.4,1,1v1.5c0,0.5-0.4,1-1,1
				H60.3c-0.5,0-1-0.4-1-1V8.9c0-0.5,0.4-1,1-1h10.5c0.5,0,1,0.4,1,1v1.5c0,0.5-0.4,1-1,1H63.5z"/>
		</g>
	</g>
</g>
</svg>
