<svg id="图层_1" data-name="图层 1" xmlns="http://www.w3.org/2000/svg" viewBox="0 0 284.15 121.26"><defs><style>.cls-1{fill:#ed6f00;}.cls-2{fill:#aaaaa0;}.cls-3{fill:#231815;}</style></defs><path class="cls-1" d="M58.27,109.18h23.1l2.42-11.13Q71.12,103,58.39,108.62Z" transform="translate(-56.92 -43.3)"/><path class="cls-1" d="M266.15,56.82c-10.44.92-21.63,2.13-33.45,3.73l-29.8,48.84h21.54l4.67-8.58H251.7l.66,8.67h22.12Zm-29.8,30.55,12.3-22.88,2.19,22.88Z" transform="translate(-56.92 -43.3)"/><path class="cls-1" d="M285.43,55.38c-3.56,4.7-10.5,16.72,4.06,24.8a42.32,42.32,0,0,0,13.12,4.88C314.86,87.59,314.29,91,314.29,91s.54,5-10.43,5.25c-10.26.39-8.93-6.7-8.93-6.7H273.58s-4.42,20.62,25.84,20.74c0,0,26.15.67,34.57-16.17,0,0,3.7-6.43,1.71-11.75,0,0-1.85-8.64-19.43-12.57,0,0-17.89-3.29-12.81-9.36a8.07,8.07,0,0,1,5.64-2.27s9.83-.75,9.44,5.67l21,0a17.33,17.33,0,0,0-1.3-9.57C328.17,54,309.69,53.9,285.43,55.38Z" transform="translate(-56.92 -43.3)"/><path class="cls-1" d="M127.07,91s.53,5-10.44,5.25c-10.26.39-8.92-6.7-8.92-6.7h-.42Q97.06,93,86.77,96.9c1.67,5.93,7.39,13.29,25.43,13.36,0,0,26.15.67,34.56-16.17,0,0,3.7-6.43,1.72-11.75a10.62,10.62,0,0,0-2.78-4.45q-13.39,3.58-27.11,7.92C127.53,88.21,127.07,91,127.07,91Z" transform="translate(-56.92 -43.3)"/><path class="cls-1" d="M199,69.1h19.91a21.85,21.85,0,0,0,.19-6.59Q209.25,64,199,65.9A19.12,19.12,0,0,1,199,69.1Z" transform="translate(-56.92 -43.3)"/><path class="cls-2" d="M95.28,45.49H73.36L61.91,93.8Q74.19,89,86.65,85Z" transform="translate(-56.92 -43.3)"/><path class="cls-2" d="M264.47,45.43l-22.4-.09-6,9.65c10.31-1,20.17-1.76,29.46-2.35Z" transform="translate(-56.92 -43.3)"/><path class="cls-2" d="M336.18,51.16a6.24,6.24,0,0,0-.72-.92c-2.46-2.54-6.31-4.68-12.27-5.58,0,0-20.86-3.22-33.35,6.32l-.56.5C309.93,50.74,326.22,50.9,336.18,51.16Z" transform="translate(-56.92 -43.3)"/><path class="cls-2" d="M129.05,69.77s-17.9-3.29-12.82-9.36a8.15,8.15,0,0,1,5.65-2.27s11.25-1.47,9.43,5.67l21,0a17.24,17.24,0,0,0-1.55-10.06,15.53,15.53,0,0,0-2.54-3.56c-2.47-2.54-6.32-4.68-12.27-5.58,0,0-20.86-3.22-33.35,6.32a30.52,30.52,0,0,0-2.75,2.42h0s-.13.12-.33.35-.56.63-.8.94h0C95.46,58.77,87,71.61,102.17,80.13c10.94-3.24,21.88-6.12,32.75-8.7A53.6,53.6,0,0,0,129.05,69.77Z" transform="translate(-56.92 -43.3)"/><path class="cls-2" d="M181.44,62.1a14.6,14.6,0,0,1,6.67-2.51,11.52,11.52,0,0,1,5.94.55c8.08-1.21,16-2.26,23.74-3.18a16.89,16.89,0,0,0-5-7.26,28.38,28.38,0,0,0-8.25-4.77,32,32,0,0,0-12-1.62,48.22,48.22,0,0,0-12.45,2.12,44.55,44.55,0,0,0-13.43,7.1q-6.49,4.8-11.09,14.37c8.72-1.77,17.36-3.36,25.86-4.77Z" transform="translate(-56.92 -43.3)"/><path class="cls-1" d="M151.17,81.57A33.22,33.22,0,0,0,151.69,94a21.34,21.34,0,0,0,5.69,10,24.47,24.47,0,0,0,11.7,6.2,37.93,37.93,0,0,0,18.52-.09c6.71-1.56,11.92-4,15.53-7.37a48.14,48.14,0,0,0,12-17.8H195.53l-2.09,3.42a11.69,11.69,0,0,1-4.18,3.77A12.61,12.61,0,0,1,180.71,94c-2.86-.45-4.93-1.51-6.24-3.19a10.83,10.83,0,0,1-2.16-6.07,28.12,28.12,0,0,1,.81-7.95,35,35,0,0,1,1.84-6q-11.22,2.46-22.76,5.43A44.56,44.56,0,0,0,151.17,81.57Z" transform="translate(-56.92 -43.3)"/><path class="cls-3" d="M64,134.07v3.76h-4.2v-3.76Zm-4.2,7.61v-1.54H64v7.42h3.08v-7.42h4.27v1.28h3.17v-9.75H67.11v-2.14a3.64,3.64,0,0,1,.28-1.64c.06-.12.08-.21.06-.24s-.17-.14-.58-.15l-.92,0h-2v4.19h-7v10Zm7.28-3.85v-3.76h4.27v3.76Z" transform="translate(-56.92 -43.3)"/><path class="cls-3" d="M101.26,144.09H88.93V130.32h12.33Zm-12.33,3.4v-1.11h12.33v.94h2.82V128H86.2v19.48Zm1.12-9.73h3.5v2.83h-4v2.22h11.13v-2.22H99l1.29-.86c-.11-.14-.5-.8-1.2-2h1v-2.13H96.29v-1.89h4.19V131.6H89.71v2.14h3.84v1.89h-3.5Zm8,2.83H96.29v-2.83H98l-1.29.86A23.07,23.07,0,0,1,98,140.59Z" transform="translate(-56.92 -43.3)"/><path class="cls-3" d="M129.24,132.18l-2,1.54c-.1-.12-.26-.33-.47-.62-.52-.73-1.25-1.66-2.19-2.8l2.14-1.54A18.29,18.29,0,0,1,129.24,132.18Zm.26-4.62h1.8c.77,0,1.14.11,1.11.35a2.36,2.36,0,0,1,0,.24,6.91,6.91,0,0,0-.14,1.38v9.58l2.31-.34.17,2.23-2.48.42v6H129.5v-5.54l-6.24.94-.26-1.88-.34.26a1.33,1.33,0,0,1-.26-.33A17.26,17.26,0,0,0,121,139v8.19h-2.57v-7.34l-.58,1.07a29.67,29.67,0,0,1-1.81,3,12.29,12.29,0,0,0-1.42-1.8,1.44,1.44,0,0,1-.29-.34,21.79,21.79,0,0,0,3.68-6.42h-3.17v-2.22h3.59v-2.4l-2.73.26a6,6,0,0,0-.94-2.14,40.82,40.82,0,0,0,7.95-1.2c.12.24.3.58.56,1s.44.79.56,1a.73.73,0,0,1,.09.34c0,.11,0,.17-.09.17l-2.83.26v2.65h2.91v2.22H121v2l1.2-.85a35.58,35.58,0,0,1,2.48,3.08l-.94.77,5.73-.86ZM128.65,138l-2.31,1.11a19.49,19.49,0,0,0-2.14-3.76l2.31-1.37Q127.68,136,128.65,138Z" transform="translate(-56.92 -43.3)"/><path class="cls-3" d="M152.91,131.35c-.22-.91-.57-2-1-3.43.21,0,.42-.07.63-.09,1.07-.18,1.91-.29,2.53-.33,0,.19.09.39.14.57a26.23,26.23,0,0,1,.55,2.85C154.67,131.11,153.73,131.26,152.91,131.35Zm-3.25.77h6.25a26.1,26.1,0,0,0,2.74-4.79,18.37,18.37,0,0,1,3.25,1.28c0,.06-.12.24-.44.53l-.5.49-.75.92c-.4.52-.81,1-1.22,1.48h4.19v4.62h-2.91v-2.22H147.35v2.22h-2.74v-4.53h4.2a16,16,0,0,0-2.23-2.83c.86-.46,1.8-.92,2.83-1.37a33.33,33.33,0,0,1,2.14,3.09c-.17.13-.67.42-1.47.87Zm5.05,6.07H148v-2.31h11.72a7.57,7.57,0,0,1-3.85,4.19v.18h7.62v2.39h-7.7v2.8q.07,1.44-.75,1.77a11.05,11.05,0,0,1-3.87.46,10,10,0,0,0-.86-2.81,2.16,2.16,0,0,1,.39-.05,2.41,2.41,0,0,0,2.18-.89v-1.28h-8.38v-2.39h8.38v-.69c0-.31.09-.5.37-.54A5.21,5.21,0,0,0,154.71,138.19Z" transform="translate(-56.92 -43.3)"/><path class="cls-3" d="M176.15,135.7a4,4,0,0,1,1.63,3.25q.14,1.73-1.71,1.71V130.57h1.28A17.37,17.37,0,0,1,176.15,135.7Zm4.11-1.62h1.29v1.71h9.15v-1.71h1.37V129.8h-4.36a8.44,8.44,0,0,0-.69-2.4,22.63,22.63,0,0,0-2.82.26,2,2,0,0,0,.19.58,14.32,14.32,0,0,1,.57,1.56h-4.7Zm-6.67,13.32h2.48v-6.14a5,5,0,0,1,.6,1.88q3.54-.21,3.34-3.5h2.9c.15,2.91-1.53,4.79-5,5.62a6.14,6.14,0,0,1,1.79,2.14q3.5-1.5,4.59-3.08c.76-.94,1.11-2.5,1.06-4.68h.77v6.05c0,.91.57,1.37,1.71,1.37h2.65a2.18,2.18,0,0,0,2-.71,5.26,5.26,0,0,0,.7-2.78,6.57,6.57,0,0,1-2.4-.94c0,1.48-.25,2.2-.77,2.14h-.86c-.24,0-.38-.23-.43-.6v-4.53h3.77v-2.31H180V139a8.63,8.63,0,0,0-1.37-3.77c.06-.35.19-1.06.4-2.13.34-1.61.63-3.18.88-4.71h-6.33Zm9.24-13.75v-1.72h6.42v1.72Z" transform="translate(-56.92 -43.3)"/><path class="cls-3" d="M202.82,132.27v-2.13h2.82l.09-.29c.35-1.16.58-2,.68-2.45a12.93,12.93,0,0,1,2.82.86,19.38,19.38,0,0,0-.94,1.88h3.77v2.13h-4.53l-.49,1.21c-.62,1.5-1,2.47-1.14,2.9h1.37V133.3h.51a13.45,13.45,0,0,1,1.55.06c.3,0,.47.1.5.2a.73.73,0,0,1,0,.4,6.78,6.78,0,0,0-.14,1.4v1h2.48v2.14h-2.48v1.8c1.37-.1,2.42-.21,3.17-.34v2.22l-3.17.34v4.69h-2.39V143a23.54,23.54,0,0,0-3.94.86c-.39-1.86-.59-2.82-.6-2.91,2-.11,3.5-.23,4.54-.34v-2H207q-2.28.16-3.45.33a9.69,9.69,0,0,1-.69-2.48c0-.06.08-.16.27-.29a1,1,0,0,0,.25-.22,4.91,4.91,0,0,0,1.11-2.39,11,11,0,0,1,.43-1.3Zm12.23,4.54v-2.65h1.46c1,0,1.53.14,1.54.43a1.16,1.16,0,0,1,0,.27,6.25,6.25,0,0,0-.13,1.44v.51a9.93,9.93,0,0,0,4.87,8.22,19.35,19.35,0,0,0-2.31,2.37,11.68,11.68,0,0,1-3.67-5.2,13,13,0,0,1-4.2,5.46,8.65,8.65,0,0,0-2.31-1.88Q215.26,143,215.05,136.81Zm.52-5.81h6.93a40.62,40.62,0,0,1-1,4.61c-1.09-.11-2-.17-2.74-.17.24-.88.41-1.57.52-2.05h-4.54a18.08,18.08,0,0,1-1.28,2.57,23.08,23.08,0,0,0-2.57-1,19.75,19.75,0,0,0,2.91-7.61c.69.23,1.42.44,2.18.62a3.84,3.84,0,0,1,1.07.32A12.66,12.66,0,0,0,215.57,131Z" transform="translate(-56.92 -43.3)"/><path class="cls-3" d="M237.87,132.81v14.44h-2.66v-9.57a8.34,8.34,0,0,1-1.36,1.8s0,0,0,0,0,0-.07,0a8.06,8.06,0,0,0-1.8-1.63v-.08q3.1-3.5,4.2-10.27a17.25,17.25,0,0,1,2.9.69c.26.09.34.23.26.42l-.2.57C238.48,131,238.07,132.16,237.87,132.81Zm4.7-.86h1.71v-4.36h.94a13.51,13.51,0,0,1,1.61.06c.27,0,.41.14.45.28a.81.81,0,0,1-.06.57,2.24,2.24,0,0,0-.2.88V132h4.19v2.31H247V138h5.31v2.39H247v7.08h-2.65v-7.08h-5.82V138h5.82v-3.77H242a18.39,18.39,0,0,1-1.28,3.08,8.12,8.12,0,0,0-2.23-.85,23.84,23.84,0,0,0,2.06-7.19,14.13,14.13,0,0,1,2.39.51c.15,0,.23,0,.25.1s0,.18-.07.33-.13.4-.23.76A9.38,9.38,0,0,1,242.57,132Z" transform="translate(-56.92 -43.3)"/><path class="cls-3" d="M275,135.85v-5.39h1.71v5.39Zm-13.26-4.79h2.65a14.27,14.27,0,0,1-3.08,7.27c.18.25.45.65.8,1.2s.56.86.74,1.11l.77-.85v5.45H266v-2h1.62V144h2.57v-5.82h2.13v.52a7.35,7.35,0,0,1-3.67,7,18.52,18.52,0,0,1,2.56,1.8,11.89,11.89,0,0,0,3.68-9v-.35h1.8v9.22h2.74v-9.22h2.39v-2.39h-2.39v-5.22H281v-2.31H270.43v.51h-8.72Zm5.22.79c.07-.35.12-.61.17-.79h3.51v-.51h1.7v5.3h-2.13v-1.54h-3.94A12.77,12.77,0,0,0,266.93,131.85Zm.68,4.69v4.7H266v-4.7Z" transform="translate(-56.92 -43.3)"/><path class="cls-3" d="M302.23,129.78h7.19v4.11h-2.74v-1.8H294.62v2H292v-4.28h7.36c-.22-.89-.42-1.6-.6-2.14a9.27,9.27,0,0,1,1.67-.1c.49,0,.89,0,1.21,0s.46,0,.46,0c0,.17,0,.4.07.7A13,13,0,0,1,302.23,129.78Zm-8.3,8.22-2.05-1.72a20.87,20.87,0,0,0,5.65-4c.63.34,1.43.82,2.39,1.46.19.15.13.31-.17.48l-.17.12A47.19,47.19,0,0,1,293.93,138Zm15.15-1.72L307,138.34a40.12,40.12,0,0,0-5.12-3.66l-.7-.45a12.23,12.23,0,0,0,2-1.71A43.56,43.56,0,0,1,309.08,136.28Zm-8,1.8h4.53v5.74a1.48,1.48,0,0,0,.08.62c.05.1.16.15.34.14h.86c.45,0,.72-.09.8-.33a5.35,5.35,0,0,0,.23-1.81,18.29,18.29,0,0,0,2.82.86,6.32,6.32,0,0,1-.59,3.06c-.28.48-.9.71-1.89.68h-3.08a3.71,3.71,0,0,1-1.93-.3.83.83,0,0,1-.31-.42,2.74,2.74,0,0,1-.07-.82v-5.11h-2.22c-.49,3.43-3,5.81-7.62,7.17A21.51,21.51,0,0,0,291.2,145q5.82-1.08,6.5-4.53h-4.8v-2.31h5.22c0-.23.08-.69.13-1.37s.1-1.14.13-1.37a13.7,13.7,0,0,1,3.25.25,1.84,1.84,0,0,1-.14.55A11.75,11.75,0,0,0,301,138.08Z" transform="translate(-56.92 -43.3)"/><path class="cls-3" d="M327,135.35v3.08h-2.31v-3.08Zm3.42-5a14.67,14.67,0,0,0-1.24-2.18l-.38-.64A27.23,27.23,0,0,1,322,129V139.2a11.57,11.57,0,0,1-.36,3.17,16.49,16.49,0,0,1-1.36,3.4,7.5,7.5,0,0,1,2.15,1.62,16.17,16.17,0,0,0,2.13-6.82H327v.77h2.74V133h-5v-2C327.1,130.71,329,130.49,330.39,130.3Zm7.4.38,2.44-.12a19.21,19.21,0,0,0-1.71-2.91,23,23,0,0,1-7.53,1.19v8.22a11.83,11.83,0,0,1-.86,4.94,10.87,10.87,0,0,1-3.07,3.77,9,9,0,0,1,2.73,1.45q4.17-4.28,3.85-8.79v-2.14h1.8v10.93h2.83V136.29h2.13v-2.4h-6.67v-3Z" transform="translate(-56.92 -43.3)"/><path class="cls-3" d="M59,152.78v8.87H57.34v-8.87Z" transform="translate(-56.92 -43.3)"/><path class="cls-3" d="M60.77,157.15c0-.74,0-1.35-.06-1.91h1.42l.08,1h0a2.33,2.33,0,0,1,2-1.1c1.12,0,2.27.72,2.27,2.74v3.81H65V158c0-.91-.34-1.62-1.23-1.62a1.35,1.35,0,0,0-1.26,1,1.57,1.57,0,0,0-.07.51v3.77H60.77Z" transform="translate(-56.92 -43.3)"/><path class="cls-3" d="M68.21,160.16a3.6,3.6,0,0,0,1.64.47c.71,0,1-.3,1-.72s-.26-.66-1-.94c-1.26-.43-1.78-1.11-1.78-1.87,0-1.12.94-2,2.44-2a3.69,3.69,0,0,1,1.7.38l-.33,1.14a2.76,2.76,0,0,0-1.35-.37c-.58,0-.9.28-.9.68s.31.6,1.12.89c1.17.42,1.71,1,1.71,2,0,1.17-.91,2-2.6,2a4.23,4.23,0,0,1-2-.45Z" transform="translate(-56.92 -43.3)"/><path class="cls-3" d="M75.63,153.6v1.64h1.55v1.21H75.63v2.83c0,.78.21,1.18.83,1.18a2.1,2.1,0,0,0,.63-.07l0,1.23a3.69,3.69,0,0,1-1.18.17,1.91,1.91,0,0,1-1.4-.53,2.6,2.6,0,0,1-.5-1.8v-3h-.92v-1.21h.92v-1.19Z" transform="translate(-56.92 -43.3)"/><path class="cls-3" d="M78.4,161.65v-6.41H80v6.41Zm.79-7.4a.92.92,0,1,1,0-1.84.92.92,0,1,1,0,1.84Z" transform="translate(-56.92 -43.3)"/><path class="cls-3" d="M83.62,153.6v1.64h1.54v1.21H83.62v2.83c0,.78.21,1.18.83,1.18a2.15,2.15,0,0,0,.63-.07l0,1.23a3.64,3.64,0,0,1-1.18.17,1.9,1.9,0,0,1-1.39-.53,2.55,2.55,0,0,1-.5-1.8v-3h-.92v-1.21H82v-1.19Z" transform="translate(-56.92 -43.3)"/><path class="cls-3" d="M92.12,159.73c0,.76,0,1.4,0,1.92H90.75l-.07-1h0a2.33,2.33,0,0,1-2,1.11c-1.17,0-2.23-.7-2.23-2.79v-3.76H88v3.49c0,1.06.33,1.75,1.19,1.75a1.36,1.36,0,0,0,1.24-.87,1.49,1.49,0,0,0,.09-.5v-3.87h1.62Z" transform="translate(-56.92 -43.3)"/><path class="cls-3" d="M95.72,153.6v1.64h1.54v1.21H95.72v2.83c0,.78.21,1.18.83,1.18a2.19,2.19,0,0,0,.63-.07l0,1.23a3.64,3.64,0,0,1-1.18.17,1.9,1.9,0,0,1-1.39-.53,2.55,2.55,0,0,1-.51-1.8v-3h-.91v-1.21h.91v-1.19Z" transform="translate(-56.92 -43.3)"/><path class="cls-3" d="M99.55,157.77A1.59,1.59,0,0,1,101,156.2a1.38,1.38,0,0,1,1.33,1.57Zm4.29,1.13a3.44,3.44,0,0,0,.06-.68c0-1.41-.68-3.12-2.76-3.12A3.16,3.16,0,0,0,98,158.54a3,3,0,0,0,3.29,3.25,5.85,5.85,0,0,0,2.24-.41l-.24-1.11a4.86,4.86,0,0,1-1.76.29,1.75,1.75,0,0,1-2-1.66Z" transform="translate(-56.92 -43.3)"/><path class="cls-3" d="M110.74,160.62c-1,0-1.58-.93-1.58-2.17,0-1.06.47-2.17,1.61-2.17s1.56,1.15,1.56,2.15c0,1.29-.65,2.19-1.57,2.19Zm0,1.17a3.17,3.17,0,0,0,3.28-3.41,3.07,3.07,0,0,0-3.19-3.28,3.16,3.16,0,0,0-3.31,3.39,3.09,3.09,0,0,0,3.2,3.3Z" transform="translate(-56.92 -43.3)"/><path class="cls-3" d="M115.52,161.65v-5.2h-.87v-1.21h.87V155a3,3,0,0,1,.78-2.19,2.42,2.42,0,0,1,1.68-.62,3,3,0,0,1,1,.16l-.11,1.24a2.07,2.07,0,0,0-.69-.11c-.8,0-1.07.67-1.07,1.46v.33h1.4v1.21h-1.39v5.2Z" transform="translate(-56.92 -43.3)"/><path class="cls-3" d="M122.29,159.89a4.5,4.5,0,0,0,2.14.56c1,0,1.61-.49,1.61-1.21s-.44-1.07-1.57-1.47c-1.46-.53-2.4-1.31-2.4-2.58,0-1.45,1.22-2.55,3.14-2.55a4.78,4.78,0,0,1,2.13.44l-.39,1.31a3.81,3.81,0,0,0-1.77-.42c-1,0-1.47.54-1.47,1.07,0,.68.52,1,1.7,1.45,1.54.58,2.28,1.36,2.28,2.63,0,1.43-1.07,2.67-3.36,2.67a5.24,5.24,0,0,1-2.4-.56Z" transform="translate(-56.92 -43.3)"/><path class="cls-3" d="M132,160.62c-1,0-1.58-.93-1.58-2.17,0-1.06.47-2.17,1.6-2.17s1.57,1.15,1.57,2.15c0,1.29-.64,2.19-1.58,2.19Zm0,1.17a3.17,3.17,0,0,0,3.28-3.41A3.07,3.07,0,0,0,132,155.1a3.17,3.17,0,0,0-3.31,3.39,3.09,3.09,0,0,0,3.21,3.3Z" transform="translate(-56.92 -43.3)"/><path class="cls-3" d="M136.74,161.65v-5.2h-.87v-1.21h.87V155a3,3,0,0,1,.78-2.19,2.42,2.42,0,0,1,1.68-.62,3,3,0,0,1,1,.16l-.11,1.24a2,2,0,0,0-.69-.11c-.8,0-1.07.67-1.07,1.46v.33h1.4v1.21h-1.39v5.2Z" transform="translate(-56.92 -43.3)"/><path class="cls-3" d="M142.79,153.6v1.64h1.54v1.21h-1.54v2.83c0,.78.21,1.18.83,1.18a2.19,2.19,0,0,0,.63-.07l0,1.23a3.64,3.64,0,0,1-1.18.17,1.88,1.88,0,0,1-1.39-.53,2.55,2.55,0,0,1-.51-1.8v-3h-.92v-1.21h.92v-1.19Z" transform="translate(-56.92 -43.3)"/><path class="cls-3" d="M146.56,155.24l.67,2.91c.16.68.3,1.38.42,2.08h0c.13-.7.33-1.41.51-2.07l.84-2.92h1.31l.8,2.85c.2.74.38,1.44.52,2.14h0c.1-.7.25-1.4.42-2.14l.71-2.85h1.59l-2,6.41h-1.5l-.77-2.61a20,20,0,0,1-.48-2h0a17.23,17.23,0,0,1-.49,2l-.82,2.61H146.8l-1.89-6.41Z" transform="translate(-56.92 -43.3)"/><path class="cls-3" d="M158.77,159.4a1.06,1.06,0,0,1-.05.35,1.31,1.31,0,0,1-1.26.89.86.86,0,0,1-.93-.93c0-1,1.1-1.21,2.24-1.2Zm1.57-1.6a2.39,2.39,0,0,0-2.64-2.7,4.72,4.72,0,0,0-2.32.56l.32,1.06a3.4,3.4,0,0,1,1.72-.48c1.14,0,1.3.7,1.3,1.12v.1c-2.35,0-3.79.81-3.79,2.43a1.88,1.88,0,0,0,2,1.9,2.34,2.34,0,0,0,1.89-.85h0l.11.71h1.46a11,11,0,0,1-.1-1.54Z" transform="translate(-56.92 -43.3)"/><path class="cls-3" d="M162.05,157.3c0-.85,0-1.49,0-2.06h1.4l.06,1.22h0a1.92,1.92,0,0,1,1.76-1.36,2.17,2.17,0,0,1,.38,0v1.53a2.14,2.14,0,0,0-.48,0,1.43,1.43,0,0,0-1.45,1.23,2.43,2.43,0,0,0,0,.49v3.32h-1.63Z" transform="translate(-56.92 -43.3)"/><path class="cls-3" d="M167.8,157.77a1.59,1.59,0,0,1,1.48-1.57,1.38,1.38,0,0,1,1.34,1.57Zm4.29,1.13a3.44,3.44,0,0,0,.06-.68c0-1.41-.69-3.12-2.77-3.12a3.16,3.16,0,0,0-3.13,3.44,3,3,0,0,0,3.3,3.25,5.85,5.85,0,0,0,2.24-.41l-.24-1.11a4.88,4.88,0,0,1-1.77.29,1.74,1.74,0,0,1-2-1.66Z" transform="translate(-56.92 -43.3)"/><path class="cls-3" d="M182.59,161.39a5.75,5.75,0,0,1-2.3.4,4.2,4.2,0,0,1-4.53-4.47,4.47,4.47,0,0,1,4.75-4.68,5.07,5.07,0,0,1,2.15.39l-.35,1.29a4.41,4.41,0,0,0-1.73-.34,3,3,0,0,0-3.11,3.26,2.9,2.9,0,0,0,3.09,3.19,4.73,4.73,0,0,0,1.76-.32Z" transform="translate(-56.92 -43.3)"/><path class="cls-3" d="M183.87,152.31h1.62v3.81h0a2.27,2.27,0,0,1,.8-.74,2.43,2.43,0,0,1,1.11-.28c1.09,0,2.24.72,2.24,2.78v3.77h-1.62v-3.59c0-.93-.34-1.64-1.23-1.64a1.34,1.34,0,0,0-1.26.91,1.49,1.49,0,0,0-.07.49v3.83h-1.62Z" transform="translate(-56.92 -43.3)"/><path class="cls-3" d="M191.4,161.65v-6.41H193v6.41Zm.79-7.4a.9.9,0,0,1-.94-.92,1,1,0,1,1,.95.92Z" transform="translate(-56.92 -43.3)"/><path class="cls-3" d="M194.76,157.15c0-.74,0-1.35,0-1.91h1.42l.08,1h0a2.33,2.33,0,0,1,2-1.1c1.11,0,2.27.72,2.27,2.74v3.81h-1.62V158c0-.91-.34-1.62-1.22-1.62a1.34,1.34,0,0,0-1.26,1,1.56,1.56,0,0,0-.08.51v3.77h-1.62Z" transform="translate(-56.92 -43.3)"/><path class="cls-3" d="M203.43,157.77a1.58,1.58,0,0,1,1.48-1.57,1.39,1.39,0,0,1,1.34,1.57Zm4.28,1.13a3.44,3.44,0,0,0,.06-.68c0-1.41-.68-3.12-2.76-3.12a3.16,3.16,0,0,0-3.13,3.44,3,3,0,0,0,3.3,3.25,5.85,5.85,0,0,0,2.24-.41l-.24-1.11a4.92,4.92,0,0,1-1.77.29,1.74,1.74,0,0,1-2-1.66Z" transform="translate(-56.92 -43.3)"/><path class="cls-3" d="M209,160.16a3.52,3.52,0,0,0,1.63.47c.72,0,1-.3,1-.72s-.26-.66-1-.94c-1.25-.43-1.77-1.11-1.77-1.87,0-1.12.94-2,2.43-2a3.62,3.62,0,0,1,1.7.38l-.32,1.14a2.84,2.84,0,0,0-1.36-.37c-.57,0-.89.28-.89.68s.31.6,1.12.89c1.16.42,1.7,1,1.71,2,0,1.17-.91,2-2.61,2a4.19,4.19,0,0,1-2-.45Z" transform="translate(-56.92 -43.3)"/><path class="cls-3" d="M215.71,157.77a1.58,1.58,0,0,1,1.48-1.57,1.39,1.39,0,0,1,1.34,1.57ZM220,158.9a3.44,3.44,0,0,0,.06-.68c0-1.41-.68-3.12-2.76-3.12a3.16,3.16,0,0,0-3.13,3.44,3,3,0,0,0,3.3,3.25,5.84,5.84,0,0,0,2.23-.41l-.24-1.11a4.88,4.88,0,0,1-1.77.29,1.74,1.74,0,0,1-2-1.66Z" transform="translate(-56.92 -43.3)"/><path class="cls-3" d="M226.17,157.92l.69-2.19c.15-.53.29-1.15.42-1.66h0c.13.51.28,1.11.45,1.66l.7,2.19Zm2.55,1.22.81,2.51h1.74l-2.89-8.87h-2.06l-2.85,8.87h1.68l.76-2.51Z" transform="translate(-56.92 -43.3)"/><path class="cls-3" d="M237,161.46a4.51,4.51,0,0,1-1.8.33,3.09,3.09,0,0,1-3.31-3.28,3.31,3.31,0,0,1,3.57-3.41,4.21,4.21,0,0,1,1.56.29l-.28,1.22a2.88,2.88,0,0,0-1.23-.25,2.08,2.08,0,0,0,0,4.15,3.07,3.07,0,0,0,1.28-.26Z" transform="translate(-56.92 -43.3)"/><path class="cls-3" d="M241.61,159.4a1.06,1.06,0,0,1-.05.35,1.32,1.32,0,0,1-1.27.89.86.86,0,0,1-.92-.93c0-1,1.09-1.21,2.24-1.2Zm1.57-1.6a2.39,2.39,0,0,0-2.64-2.7,4.66,4.66,0,0,0-2.32.56l.32,1.06a3.34,3.34,0,0,1,1.72-.48c1.13,0,1.3.7,1.3,1.12v.1c-2.36,0-3.8.81-3.8,2.43a1.89,1.89,0,0,0,2,1.9,2.36,2.36,0,0,0,1.89-.85h0l.11.71h1.46a9.68,9.68,0,0,1-.1-1.54Z" transform="translate(-56.92 -43.3)"/><path class="cls-3" d="M249.18,158.87a1.74,1.74,0,0,1-.05.47,1.43,1.43,0,0,1-1.4,1.16c-1,0-1.6-.86-1.6-2s.58-2.11,1.62-2.11a1.41,1.41,0,0,1,1.39,1.14,2,2,0,0,1,0,.42Zm0-6.56v3.62h0a2,2,0,0,0-1.79-.83c-1.54,0-2.88,1.27-2.88,3.42,0,2,1.22,3.27,2.74,3.27a2.3,2.3,0,0,0,2.09-1.15h0l.07,1h1.44c0-.43,0-1.14,0-1.8v-7.54Z" transform="translate(-56.92 -43.3)"/><path class="cls-3" d="M253.68,157.77a1.6,1.6,0,0,1,1.49-1.57,1.38,1.38,0,0,1,1.33,1.57ZM258,158.9a3.44,3.44,0,0,0,.06-.68c0-1.41-.68-3.12-2.76-3.12a3.17,3.17,0,0,0-3.14,3.44,3,3,0,0,0,3.3,3.25,5.81,5.81,0,0,0,2.24-.41l-.24-1.11a4.88,4.88,0,0,1-1.77.29,1.74,1.74,0,0,1-2-1.66Z" transform="translate(-56.92 -43.3)"/><path class="cls-3" d="M259.33,157.15c0-.74,0-1.35-.05-1.91h1.38l.08.94h0a2.2,2.2,0,0,1,2-1.08,1.82,1.82,0,0,1,1.77,1.18h0a2.52,2.52,0,0,1,.79-.8,2.15,2.15,0,0,1,1.3-.38c1.06,0,2.13.72,2.13,2.78v3.77H267.2v-3.54c0-1.07-.37-1.7-1.15-1.7a1.21,1.21,0,0,0-1.12.85,1.92,1.92,0,0,0-.09.55v3.84h-1.58V158c0-.91-.36-1.54-1.1-1.54a1.3,1.3,0,0,0-1.17.92,1.84,1.84,0,0,0-.08.53v3.79h-1.58Z" transform="translate(-56.92 -43.3)"/><path class="cls-3" d="M271.29,155.24l1.16,3.44c.13.39.27.88.36,1.24h0c.1-.36.22-.84.34-1.26l1-3.42h1.73l-1.61,4.38c-.88,2.39-1.47,3.45-2.22,4.11a3.43,3.43,0,0,1-1.7.83l-.37-1.37a3,3,0,0,0,.94-.44,2.83,2.83,0,0,0,.89-1,.67.67,0,0,0,.1-.29.82.82,0,0,0-.09-.32l-2.35-5.88Z" transform="translate(-56.92 -43.3)"/><path class="cls-3" d="M282.4,160.62c-1,0-1.58-.93-1.58-2.17,0-1.06.46-2.17,1.6-2.17s1.56,1.15,1.56,2.15c0,1.29-.64,2.19-1.57,2.19Zm0,1.17a3.17,3.17,0,0,0,3.28-3.41,3.07,3.07,0,0,0-3.18-3.28,3.17,3.17,0,0,0-3.32,3.39,3.09,3.09,0,0,0,3.21,3.3Z" transform="translate(-56.92 -43.3)"/><path class="cls-3" d="M287.18,161.65v-5.2h-.87v-1.21h.87V155a3,3,0,0,1,.78-2.19,2.42,2.42,0,0,1,1.67-.62,3.09,3.09,0,0,1,1,.16l-.11,1.24a2.07,2.07,0,0,0-.69-.11c-.81,0-1.07.67-1.07,1.46v.33h1.4v1.21H288.8v5.2Z" transform="translate(-56.92 -43.3)"/><path class="cls-3" d="M294,159.89a4.47,4.47,0,0,0,2.14.56c1,0,1.61-.49,1.61-1.21s-.45-1.07-1.57-1.47c-1.47-.53-2.4-1.31-2.4-2.58,0-1.45,1.21-2.55,3.14-2.55a4.73,4.73,0,0,1,2.12.44l-.38,1.31a3.86,3.86,0,0,0-1.78-.42c-1,0-1.46.54-1.46,1.07,0,.68.51,1,1.7,1.45,1.54.58,2.28,1.36,2.28,2.63,0,1.43-1.08,2.67-3.37,2.67a5.27,5.27,0,0,1-2.4-.56Z" transform="translate(-56.92 -43.3)"/><path class="cls-3" d="M305.45,161.46a4.61,4.61,0,0,1-1.81.33,3.08,3.08,0,0,1-3.3-3.28,3.3,3.3,0,0,1,3.56-3.41,4.21,4.21,0,0,1,1.56.29l-.28,1.22a2.85,2.85,0,0,0-1.23-.25,2.08,2.08,0,0,0,0,4.15,3.05,3.05,0,0,0,1.27-.26Z" transform="translate(-56.92 -43.3)"/><path class="cls-3" d="M306.66,161.65v-6.41h1.62v6.41Zm.79-7.4a.92.92,0,1,1,1-.92.9.9,0,0,1-1,.92Z" transform="translate(-56.92 -43.3)"/><path class="cls-3" d="M311.16,157.77a1.6,1.6,0,0,1,1.49-1.57,1.37,1.37,0,0,1,1.33,1.57Zm4.29,1.13a3.44,3.44,0,0,0,.06-.68c0-1.41-.68-3.12-2.76-3.12a3.16,3.16,0,0,0-3.13,3.44,3,3,0,0,0,3.3,3.25,5.8,5.8,0,0,0,2.23-.41l-.24-1.11a4.86,4.86,0,0,1-1.76.29,1.74,1.74,0,0,1-2-1.66Z" transform="translate(-56.92 -43.3)"/><path class="cls-3" d="M316.81,157.15c0-.74,0-1.35-.05-1.91h1.42l.08,1h0a2.36,2.36,0,0,1,2-1.1c1.11,0,2.27.72,2.27,2.74v3.81H321V158c0-.91-.33-1.62-1.22-1.62a1.35,1.35,0,0,0-1.26,1,1.56,1.56,0,0,0-.08.51v3.77h-1.62Z" transform="translate(-56.92 -43.3)"/><path class="cls-3" d="M329,161.46a4.57,4.57,0,0,1-1.81.33,3.08,3.08,0,0,1-3.3-3.28,3.3,3.3,0,0,1,3.56-3.41,4.27,4.27,0,0,1,1.57.29l-.29,1.22a2.85,2.85,0,0,0-1.23-.25,2.08,2.08,0,0,0,0,4.15,3.05,3.05,0,0,0,1.27-.26Z" transform="translate(-56.92 -43.3)"/><path class="cls-3" d="M331.28,157.77a1.58,1.58,0,0,1,1.48-1.57,1.39,1.39,0,0,1,1.34,1.57Zm4.28,1.13a3.44,3.44,0,0,0,.06-.68c0-1.41-.68-3.12-2.76-3.12a3.16,3.16,0,0,0-3.13,3.44,3,3,0,0,0,3.3,3.25,5.8,5.8,0,0,0,2.23-.41l-.23-1.11a4.92,4.92,0,0,1-1.77.29,1.74,1.74,0,0,1-2-1.66Z" transform="translate(-56.92 -43.3)"/><path class="cls-3" d="M336.85,160.16a3.56,3.56,0,0,0,1.63.47c.72,0,1-.3,1-.72s-.26-.66-1.05-.94c-1.25-.43-1.78-1.11-1.77-1.87,0-1.12.94-2,2.43-2a3.65,3.65,0,0,1,1.7.38l-.32,1.14a2.84,2.84,0,0,0-1.36-.37c-.57,0-.89.28-.89.68s.3.6,1.12.89c1.16.42,1.7,1,1.71,2,0,1.17-.91,2-2.61,2a4.19,4.19,0,0,1-2-.45Z" transform="translate(-56.92 -43.3)"/></svg>