<?xml version="1.0" encoding="UTF-8"?>
<svg id="Layer_1" data-name="Layer 1" xmlns="http://www.w3.org/2000/svg" viewBox="0 0 507.55 185.28">
  <defs>
    <style>
      .cls-1, .cls-2 {
        stroke-width: 0px;
      }

      .cls-2 {
        fill: #448334;
      }
    </style>
  </defs>
  <g>
    <path class="cls-1" d="m23.9,1.74v158.74c0,.35-.14.69-.39.93L.93,183.23c-.35.34-.93.09-.93-.39V1.74c0-.3.25-.55.55-.55h22.81c.3,0,.55.24.55.55Zm61.52,45.54c0-15.68,12.85-25.18,30.07-25.18,14.9,0,25.95,6.17,37.78,17.22,1.8,1.8,2.38,2.79,4.17.73l10.68-11.53c1.8-2.06.82-2.57-.98-4.37C154.29,9.25,135.27,0,115.23,0c-29.55,0-52.94,19.27-52.94,47.03,0,58.08,89.43,46,89.43,86.34,0,16.45-14.39,29.3-35.72,29.3s-31.33-9.45-42.64-20.24c-1.8-1.8-2.19-2.22-3.73-.68l-12.2,11.53c-1.8,1.54-1.62,1.67-.34,3.73,11.69,15.76,33.47,28.02,58.91,28.02,31.87,0,59.36-21.07,59.36-50.63,0-61.16-89.94-47.54-89.94-87.12Zm209.45-23.9c18.25,0,33.15,6.94,45.74,17.48.29.25,1.3,1.07,1.61,1.33,1.23,1.04,1.46,1.08,2.95-.45.36-.37,1.42-1.51,1.42-1.51l10.79-11.8c1.16-1.36.96-1.46.13-2.33-.34-.36-.94-.92-1.47-1.44-16.19-14.39-37.01-24.67-61.16-24.67-51.14,0-90.97,41.12-90.97,92.77s39.83,92.51,90.97,92.51c24.16,0,45.02-10.92,61.21-25.56,1.8-1.54,2.48-2.1.68-3.9l-11-12.03c-1.8-1.8-2.27-1.37-4.07.17-12.59,10.53-28.58,17.94-46.82,17.94-36.75,0-66.56-29.81-66.56-69.13s29.81-69.39,66.56-69.39ZM441.73.37c-23.13,0-41.46,10.21-52.77,24.34-.31.36-1,1.36-1.2,1.68-.83,1.29-.59,1.38.58,2.68,2.92,3.25,11.98,13.52,11.98,13.52.38.4.74.42,1.07.13.36-.32,1.14-1.06,1.57-1.48,7.2-7.45,19.5-19.79,38.52-19.79,21.33,0,34.18,13.36,34.18,32.89,0,27.71-15.88,40.9-51.24,70.63-10.29,8.65-29.27,25.32-34.01,29.48-.7.61-1.09,1.49-1.09,2.42v24.9c0,1.11,1.31,1.71,2.14.97,9.76-8.56,50.1-43.92,63.21-55.06,33.94-28.84,43.09-48.43,43.09-73.61,0-30.58-22.1-53.71-56.02-53.71Z"/>
    <rect class="cls-2" x="440.34" y="162.78" width="59.66" height="19.53" rx="1.32" ry="1.32"/>
  </g>
  <g>
    <path class="cls-1" d="m490.92,10.75V1.28h-3.54V.01h8.51v1.27h-3.55v9.47h-1.42Z"/>
    <path class="cls-1" d="m497.31,10.75V.01h2.14l2.54,7.6c.23.71.41,1.24.51,1.59.12-.39.31-.96.57-1.72L505.64.01h1.91v10.74h-1.37V1.76l-3.12,8.99h-1.28l-3.11-9.14v9.14h-1.37Z"/>
  </g>
</svg>