<svg id="svg" version="1.1" xmlns="http://www.w3.org/2000/svg" xmlns:xlink="http://www.w3.org/1999/xlink" width="400" height="200" viewBox="0, 0, 400,200"><g id="svgg"><path id="path0" d="M0.000 100.000 L 0.000 200.000 200.000 200.000 L 400.000 200.000 400.000 100.000 L 400.000 0.000 200.000 0.000 L 0.000 0.000 0.000 100.000 M111.228 82.356 C 116.143 84.009,119.879 87.917,121.436 93.034 C 121.870 94.462,121.885 94.817,121.991 106.643 C 122.092 117.948,122.125 118.811,122.457 119.143 C 122.794 119.480,123.959 119.506,142.757 119.600 L 162.700 119.700 163.700 120.195 C 166.482 121.573,167.272 123.160,167.365 127.559 C 167.444 131.260,167.399 131.400,166.122 131.400 C 164.340 131.400,163.111 129.953,162.799 127.489 C 162.586 125.811,162.299 125.205,161.456 124.653 C 160.948 124.320,158.885 124.294,125.209 124.194 C 91.518 124.094,89.432 124.068,88.300 123.727 C 84.352 122.537,81.378 119.691,79.947 115.733 C 79.433 114.312,79.146 97.837,79.586 95.004 C 80.616 88.364,85.604 83.153,92.213 81.812 C 92.701 81.713,96.745 81.649,101.200 81.670 L 109.300 81.708 111.228 82.356 M93.445 86.504 C 89.382 87.387,86.130 90.355,84.659 94.522 L 84.102 96.100 84.033 104.000 C 83.933 115.460,84.519 117.258,88.931 119.025 C 90.240 119.550,107.402 119.870,110.581 119.429 C 113.436 119.034,115.865 117.257,116.831 114.859 C 117.464 113.290,117.668 98.451,117.094 95.807 C 116.079 91.133,112.443 87.466,107.863 86.496 C 105.997 86.100,95.276 86.107,93.445 86.504 M133.992 88.954 C 134.411 89.293,134.431 89.466,134.475 93.257 C 134.545 99.221,134.343 99.247,139.747 92.580 C 142.968 88.606,142.976 88.600,145.385 88.600 C 148.551 88.600,148.511 88.733,143.583 94.643 C 139.513 99.523,139.313 99.809,139.517 100.458 C 139.594 100.701,141.429 103.016,143.595 105.602 C 149.001 112.054,148.930 111.800,145.339 111.800 L 143.126 111.800 142.213 110.845 C 141.711 110.320,140.054 108.363,138.530 106.495 C 134.533 101.595,134.602 101.596,134.595 106.444 C 134.588 111.737,134.562 111.792,132.055 111.797 C 129.583 111.802,129.780 112.850,129.845 100.011 C 129.909 87.463,129.682 88.600,132.116 88.600 C 133.195 88.600,133.665 88.689,133.992 88.954 M258.174 89.150 C 258.512 89.432,258.619 89.821,258.726 91.159 C 258.886 93.160,259.113 93.400,260.845 93.400 C 262.421 93.400,262.800 93.781,262.800 95.369 C 262.800 96.877,262.525 97.130,260.771 97.236 C 258.713 97.360,258.800 97.136,258.800 102.334 C 258.800 107.658,258.804 107.667,260.986 107.914 C 262.494 108.085,262.800 108.433,262.800 109.979 C 262.800 111.633,262.560 111.800,260.194 111.800 C 255.073 111.800,254.155 110.500,254.003 103.032 C 253.893 97.608,253.801 97.200,252.689 97.200 C 251.812 97.200,251.433 94.567,252.200 93.800 C 252.420 93.580,252.735 93.400,252.900 93.400 C 253.645 93.400,254.000 92.658,254.000 91.100 C 254.000 89.060,254.257 88.800,256.278 88.800 C 257.392 88.800,257.859 88.886,258.174 89.150 M163.095 94.197 L 164.840 95.094 165.210 94.597 C 166.087 93.417,166.123 93.400,167.700 93.400 C 170.180 93.400,170.000 92.675,170.000 102.686 C 170.000 112.624,170.208 111.800,167.700 111.800 C 166.110 111.800,166.009 111.773,165.617 111.250 C 165.390 110.947,165.111 110.589,164.997 110.452 C 164.836 110.261,164.438 110.388,163.244 111.011 C 157.671 113.918,151.869 110.723,150.967 104.250 C 149.861 96.302,156.496 90.802,163.095 94.197 M202.255 93.963 C 207.877 96.730,208.893 105.487,204.111 109.960 C 201.469 112.431,198.084 112.841,194.843 111.082 C 192.621 109.876,192.600 109.918,192.600 115.442 C 192.600 120.753,192.667 120.600,190.354 120.600 C 187.747 120.600,188.000 122.053,188.000 107.069 C 188.000 92.027,187.768 93.400,190.310 93.400 C 191.777 93.400,192.800 93.896,192.800 94.608 C 192.800 95.028,193.535 94.927,194.516 94.374 C 197.031 92.954,199.897 92.802,202.255 93.963 M222.629 94.045 C 225.799 95.612,227.797 98.944,227.557 102.265 C 227.427 104.060,227.651 104.000,221.075 104.000 C 214.191 104.000,213.819 104.100,214.513 105.761 C 215.218 107.450,216.745 108.310,218.777 108.163 C 219.958 108.077,220.327 107.896,222.026 106.569 C 222.641 106.088,224.703 105.854,225.800 106.140 C 228.349 106.806,224.629 110.986,220.654 111.923 C 212.242 113.905,206.019 104.266,210.933 96.864 C 213.249 93.374,218.642 92.075,222.629 94.045 M243.850 93.599 C 247.753 94.805,248.594 96.883,248.598 105.336 C 248.600 112.253,248.761 111.800,246.310 111.800 C 243.974 111.800,244.119 112.189,243.999 105.620 C 243.866 98.377,243.282 97.189,239.856 97.204 C 236.466 97.220,235.800 98.628,235.800 105.781 C 235.800 112.078,235.905 111.800,233.527 111.800 C 230.868 111.800,231.100 112.671,231.100 102.698 L 231.100 94.165 231.572 93.782 C 232.496 93.034,235.111 93.315,235.761 94.232 C 236.118 94.734,236.626 94.695,237.817 94.072 C 239.667 93.105,241.726 92.943,243.850 93.599 M277.229 93.603 C 280.624 94.678,282.900 97.724,283.147 101.523 C 283.316 104.119,283.625 104.000,276.713 104.000 C 270.350 104.000,270.000 104.055,270.000 105.065 C 270.000 107.974,274.763 109.260,277.113 106.987 C 278.440 105.702,282.016 105.602,282.162 106.845 C 282.383 108.726,278.831 111.554,275.624 112.051 C 268.550 113.146,263.023 106.226,265.387 99.234 C 267.017 94.414,272.123 91.986,277.229 93.603 M178.626 93.650 C 178.792 93.788,179.081 94.148,179.269 94.450 C 179.704 95.154,179.805 95.145,181.212 94.276 C 183.785 92.689,184.800 93.061,184.800 95.593 C 184.800 97.655,184.640 97.885,183.056 98.096 C 179.725 98.542,179.330 99.352,179.200 106.020 C 179.081 112.137,179.215 111.800,176.890 111.800 C 174.393 111.800,174.600 112.633,174.600 102.597 L 174.600 94.023 175.045 93.711 C 175.599 93.323,178.177 93.279,178.626 93.650 M290.861 93.805 C 291.145 94.028,291.433 94.388,291.502 94.605 C 291.680 95.168,292.079 95.099,293.412 94.276 C 295.971 92.697,297.000 93.088,297.000 95.638 C 297.000 97.544,296.744 97.889,295.172 98.102 C 291.852 98.551,291.400 99.533,291.400 106.292 C 291.400 112.016,291.490 111.800,289.103 111.800 C 286.414 111.800,286.559 112.374,286.639 102.032 L 286.700 94.164 287.172 93.782 C 287.860 93.225,290.142 93.240,290.861 93.805 M102.952 95.669 C 105.913 96.438,106.843 97.939,107.591 103.160 C 108.552 109.875,108.247 110.192,100.813 110.197 C 93.125 110.202,92.810 109.866,93.873 102.797 C 94.474 98.797,94.893 97.853,96.664 96.510 C 98.045 95.463,100.758 95.100,102.952 95.669 M216.900 97.244 C 215.905 97.597,215.292 98.132,214.784 99.089 C 213.933 100.692,214.407 100.939,218.400 100.975 C 221.702 101.005,222.400 100.816,222.400 99.891 C 222.400 97.976,219.192 96.432,216.900 97.244 M272.300 97.379 C 270.869 98.042,269.774 99.604,270.192 100.386 C 270.716 101.364,277.791 101.219,278.051 100.225 C 278.579 98.209,274.678 96.278,272.300 97.379 M159.600 97.398 C 154.176 98.410,154.473 107.283,159.953 107.932 C 162.039 108.179,164.214 106.822,164.884 104.857 C 166.296 100.712,163.441 96.681,159.600 97.398 M196.665 97.427 C 191.607 98.318,191.305 106.480,196.281 107.822 C 199.347 108.649,202.198 106.278,202.253 102.854 C 202.311 99.208,199.892 96.858,196.665 97.427 " stroke="none" fill="#FFFFFF" fill-rule="evenodd"></path><path id="path1" d="M92.213 81.812 C 85.604 83.153,80.616 88.364,79.586 95.004 C 79.146 97.837,79.433 114.312,79.947 115.733 C 81.378 119.691,84.352 122.537,88.300 123.727 C 89.432 124.068,91.518 124.094,125.209 124.194 C 158.885 124.294,160.948 124.320,161.456 124.653 C 162.299 125.205,162.586 125.811,162.799 127.489 C 163.111 129.953,164.340 131.400,166.122 131.400 C 167.399 131.400,167.444 131.260,167.365 127.559 C 167.272 123.160,166.482 121.573,163.700 120.195 L 162.700 119.700 142.757 119.600 C 123.959 119.506,122.794 119.480,122.457 119.143 C 122.125 118.811,122.092 117.948,121.991 106.643 C 121.885 94.817,121.870 94.462,121.436 93.034 C 119.879 87.917,116.143 84.009,111.228 82.356 L 109.300 81.708 101.200 81.670 C 96.745 81.649,92.701 81.713,92.213 81.812 M107.863 86.496 C 112.443 87.466,116.079 91.133,117.094 95.807 C 117.668 98.451,117.464 113.290,116.831 114.859 C 115.865 117.257,113.436 119.034,110.581 119.429 C 107.402 119.870,90.240 119.550,88.931 119.025 C 84.519 117.258,83.933 115.460,84.033 104.000 L 84.102 96.100 84.659 94.522 C 86.130 90.355,89.382 87.387,93.445 86.504 C 95.276 86.107,105.997 86.100,107.863 86.496 M130.288 88.884 C 129.913 89.158,129.898 89.542,129.845 100.011 C 129.780 112.850,129.583 111.802,132.055 111.797 C 134.562 111.792,134.588 111.737,134.595 106.444 C 134.602 101.596,134.533 101.595,138.530 106.495 C 140.054 108.363,141.711 110.320,142.213 110.845 L 143.126 111.800 145.339 111.800 C 148.930 111.800,149.001 112.054,143.595 105.602 C 141.429 103.016,139.594 100.701,139.517 100.458 C 139.313 99.809,139.513 99.523,143.583 94.643 C 148.511 88.733,148.551 88.600,145.385 88.600 C 142.976 88.600,142.968 88.606,139.747 92.580 C 134.343 99.247,134.545 99.221,134.475 93.257 C 134.431 89.466,134.411 89.293,133.992 88.954 C 133.432 88.500,130.879 88.452,130.288 88.884 M254.400 89.200 C 254.071 89.529,254.000 89.867,254.000 91.100 C 254.000 92.658,253.645 93.400,252.900 93.400 C 252.735 93.400,252.420 93.580,252.200 93.800 C 251.433 94.567,251.812 97.200,252.689 97.200 C 253.801 97.200,253.893 97.608,254.003 103.032 C 254.155 110.500,255.073 111.800,260.194 111.800 C 262.560 111.800,262.800 111.633,262.800 109.979 C 262.800 108.433,262.494 108.085,260.986 107.914 C 258.804 107.667,258.800 107.658,258.800 102.334 C 258.800 97.136,258.713 97.360,260.771 97.236 C 262.525 97.130,262.800 96.877,262.800 95.369 C 262.800 93.781,262.421 93.400,260.845 93.400 C 259.113 93.400,258.886 93.160,258.726 91.159 C 258.554 89.011,258.335 88.800,256.278 88.800 C 255.067 88.800,254.728 88.872,254.400 89.200 M156.900 93.471 C 148.387 96.268,149.006 110.228,157.722 112.018 C 159.459 112.374,161.260 112.046,163.244 111.011 C 164.438 110.388,164.836 110.261,164.997 110.452 C 165.111 110.589,165.390 110.947,165.617 111.250 C 166.009 111.773,166.110 111.800,167.700 111.800 C 170.208 111.800,170.000 112.624,170.000 102.686 C 170.000 92.675,170.180 93.400,167.700 93.400 C 166.123 93.400,166.087 93.417,165.210 94.597 L 164.840 95.094 163.095 94.197 C 161.137 93.190,158.645 92.898,156.900 93.471 M196.457 93.479 C 195.994 93.630,195.120 94.033,194.516 94.374 C 193.535 94.927,192.800 95.028,192.800 94.608 C 192.800 93.896,191.777 93.400,190.310 93.400 C 187.768 93.400,188.000 92.027,188.000 107.069 C 188.000 122.053,187.747 120.600,190.354 120.600 C 192.667 120.600,192.600 120.753,192.600 115.442 C 192.600 109.918,192.621 109.876,194.843 111.082 C 201.223 114.546,208.037 108.990,207.045 101.134 C 206.345 95.584,201.266 91.912,196.457 93.479 M215.605 93.510 C 205.970 96.190,207.746 111.387,217.781 112.130 C 221.800 112.427,226.860 109.408,226.566 106.887 C 226.447 105.872,223.208 105.645,222.026 106.569 C 220.327 107.896,219.958 108.077,218.777 108.163 C 216.745 108.310,215.218 107.450,214.513 105.761 C 213.819 104.100,214.191 104.000,221.075 104.000 C 227.651 104.000,227.427 104.060,227.557 102.265 C 227.989 96.293,221.827 91.780,215.605 93.510 M239.464 93.392 C 239.113 93.476,238.373 93.782,237.817 94.072 C 236.626 94.695,236.118 94.734,235.761 94.232 C 235.111 93.315,232.496 93.034,231.572 93.782 L 231.100 94.165 231.100 102.698 C 231.100 112.671,230.868 111.800,233.527 111.800 C 235.905 111.800,235.800 112.078,235.800 105.781 C 235.800 98.628,236.466 97.220,239.856 97.204 C 243.282 97.189,243.866 98.377,243.999 105.620 C 244.077 109.888,244.162 111.215,244.374 111.470 C 244.761 111.935,247.824 111.947,248.286 111.486 C 248.724 111.048,248.749 100.076,248.315 98.447 C 247.298 94.628,243.466 92.440,239.464 93.392 M271.205 93.521 C 262.026 95.987,263.164 110.582,272.649 112.034 C 276.897 112.685,282.489 109.634,282.162 106.845 C 282.016 105.602,278.440 105.702,277.113 106.987 C 274.763 109.260,270.000 107.974,270.000 105.065 C 270.000 104.055,270.350 104.000,276.713 104.000 C 283.625 104.000,283.316 104.119,283.147 101.523 C 282.757 95.528,277.312 91.879,271.205 93.521 M175.045 93.711 L 174.600 94.023 174.600 102.597 C 174.600 112.633,174.393 111.800,176.890 111.800 C 179.215 111.800,179.081 112.137,179.200 106.020 C 179.330 99.352,179.725 98.542,183.056 98.096 C 184.640 97.885,184.800 97.655,184.800 95.593 C 184.800 93.061,183.785 92.689,181.212 94.276 C 179.805 95.145,179.704 95.154,179.269 94.450 C 179.081 94.148,178.792 93.788,178.626 93.650 C 178.177 93.279,175.599 93.323,175.045 93.711 M287.172 93.782 L 286.700 94.164 286.639 102.032 C 286.559 112.374,286.414 111.800,289.103 111.800 C 291.490 111.800,291.400 112.016,291.400 106.292 C 291.400 99.533,291.852 98.551,295.172 98.102 C 296.744 97.889,297.000 97.544,297.000 95.638 C 297.000 93.088,295.971 92.697,293.412 94.276 C 292.079 95.099,291.680 95.168,291.502 94.605 C 291.127 93.424,288.282 92.884,287.172 93.782 M98.364 95.679 C 95.659 96.407,94.575 98.124,93.873 102.797 C 92.810 109.866,93.125 110.202,100.813 110.197 C 108.247 110.192,108.552 109.875,107.591 103.160 C 107.084 99.620,106.953 99.119,106.240 97.997 C 104.857 95.820,101.505 94.833,98.364 95.679 M220.055 97.316 C 221.297 97.739,222.400 98.950,222.400 99.891 C 222.400 100.816,221.702 101.005,218.400 100.975 C 214.407 100.939,213.933 100.692,214.784 99.089 C 215.761 97.247,217.820 96.554,220.055 97.316 M275.622 97.308 C 277.072 97.819,278.296 99.289,278.051 100.225 C 277.791 101.219,270.716 101.364,270.192 100.386 C 269.215 98.560,273.035 96.395,275.622 97.308 M162.300 97.696 C 166.385 99.350,166.150 106.322,161.963 107.712 C 159.174 108.639,156.427 106.920,155.790 103.851 C 154.903 99.579,158.515 96.164,162.300 97.696 M199.762 97.880 C 202.629 99.363,203.175 104.109,200.763 106.575 C 197.757 109.650,192.812 107.419,192.732 102.951 C 192.655 98.673,196.263 96.071,199.762 97.880 " stroke="none" fill="#0000FF" fill-rule="evenodd"></path></g></svg>
