<?xml version="1.0" encoding="utf-8"?>
<!-- Generator: Adobe Illustrator 23.0.1, SVG Export Plug-In . SVG Version: 6.00 Build 0)  -->
<svg version="1.1" id="Layer_1" xmlns="http://www.w3.org/2000/svg" xmlns:xlink="http://www.w3.org/1999/xlink" x="0px" y="0px"
	 viewBox="0 0 400 245" style="enable-background:new 0 0 400 245;" xml:space="preserve">
<style type="text/css">
	.st0{fill:#010101;}
	.st1{fill:#FFFFFF;}
</style>
<path class="st0" d="M50.8,134.6c0,4.8,0.3,9.7,0,14.5c-0.7,12.4-7.3,20-19.7,22c-10.3,1.5-19.7-0.4-26.3-9.2
	c-7.7-10-3.9-23.4,7.9-27.5c7.7-2.7,15.9-4.5,23.9-6.6c3.4-0.8,5.1-2.3,4.8-6.1c-0.4-7.5-4.4-12.7-11.8-14.4
	c-7-1.5-14.1,1.7-17.2,8.2c-1.8,3.7-3.8,4.6-7.3,3.1c-3-1-3.7-2.8-2.5-5.9c3.5-9,13.9-15.4,24.2-14.6c8.3,0.6,15.5,3.1,20.6,10.1
	c2.7,3.7,3.9,7.9,3.9,12.4v13.9H50.8z M348.6,136.4c0.7-7.3-0.1-13.1,0.7-18.9c1.5-10,7.5-16.2,17.2-18.6c7.7-1.8,15.4-1.1,22.4,3
	c7.9,4.5,11.5,13,9.6,21.7c-1.3,5.9-5.2,9.3-10.6,11.3c-6.9,2.7-14.2,3.8-21.3,5.9c-0.4,0.1-0.8,0.1-1.3,0.3
	c-6.9,1.8-8,3.9-6.2,10.8c1.7,5.9,6.5,9.7,13.5,10.3c6.3,0.6,12-2.7,14.8-8.5c1.8-3.9,4.4-4.8,7.9-2.8c2.3,1.1,3.1,2.8,2.1,5.5
	c-3.7,9.6-13.9,15.5-26.1,14.8c-11-0.6-20-7.6-22.3-17.5c-0.7-2.8-0.6-5.6-0.6-8.6V136.4L348.6,136.4z M178.3,155.9V73.5
	c0-4.1,1.5-5.6,5.6-5.4c3.2,0.1,4.5,1.5,4.5,4.8v29.3c4.2-2.1,8.2-3.5,12.5-4.1c16.3-1.8,28.5,9,28.5,25.5v37c0,1,0.4,2.3-0.7,2.7
	c-0.8,0.4-1.5-0.6-2.3-1.1c-4.5-3.5-7.5-7.7-7.3-13.9c0.3-8.9,0.3-17.7-0.1-26.5c-0.6-9.4-6.9-15.1-15.6-14.8
	c-8.6,0.3-14.5,6.6-14.8,15.9c-0.1,5.5-0.4,11.1,0,16.6C189.2,147.5,184.8,151.9,178.3,155.9L178.3,155.9z M289,133.3
	c0,5.4,0.8,10.7-0.1,15.9c-2.8,13.4-15.9,21.5-30,18.9c-13-2.5-20.7-11.5-20.6-24.8c0-8-0.6-16.1,0.4-24.1
	c1.4-12.7,12-21.3,25.9-20.8c13.4,0.4,22.7,8.2,24.4,19.9C289.7,123,289,128.3,289,133.3L289,133.3z M119.2,132.5
	c0.1-4.6-0.6-10.3,0.6-15.6c2.5-11.5,13.7-19.6,25.8-18.7c12.1,0.8,21.1,7.5,23.9,17.5c0.8,3.2,0,4.9-3,5.9c-3.4,1.1-6.2,0.1-6.9-3
	c-2-7.9-9.9-12.3-17.2-11.3c-7.9,1.3-12.8,6.9-13,15.5c-0.1,7.3-0.3,14.5,0,21.8c0.3,8.2,5.6,13.9,13.2,14.8
	c7.6,0.8,14.4-3.5,16.8-11c1-3.2,3.5-4.4,7-3.2c2.8,1,3.8,2.7,2.8,5.9c-3,11.1-14.5,18.5-27.2,17.3c-14.2-1.3-23.1-11-23.1-25.2
	C119.2,139.9,119.2,136.7,119.2,132.5z M110.7,155.4c-6.3-2.4-10.4-8-10.4-14.4s0.1-12.5-0.1-18.9c-0.4-10.7-9.2-16.9-19.4-14.4
	c-6.8,1.7-11,7.5-11,15.4c-0.1,8.5-0.3,16.8,0,25.2c0.3,7.5-3.9,11.7-9.4,15.5c-1-0.7-0.8-1.7-0.8-2.5c0-13.5-0.1-27.2,0.3-40.7
	c0.3-13.5,11.8-23.4,26.6-22.4c15.8,1,24.4,10.6,24.4,26.3C110.7,124.6,110.7,155.4,110.7,155.4z M298.3,140.8
	c0-6.1-0.1-12.1,0-18.2c0.3-10.3,4.6-18,14.2-22.3c9.3-4.1,22-2,28.9,4.5c3.1,3,3.8,5.5,2,7.7c-2.4,3-5.5,3-8.2,0.1
	c-5.1-5.4-11.1-6.8-17.3-4.4c-5.8,2.3-9.2,7.7-9.3,15.1v26.9c0,6.1-3.9,9.9-8.6,13c-2,1.3-1.5-0.7-1.5-1.5
	C298.3,154.7,298.3,147.8,298.3,140.8L298.3,140.8z"/>
<path class="st1" d="M41.1,135.7c-0.3,5.4-0.1,10.6-0.8,15.6c-1.3,9.4-12.3,14.1-21.8,9.7c-1.7-0.8-3.2-1.7-4.6-3.1
	c-5.1-5.6-3.2-13.4,3.8-15.9l2.5-0.8C27,139.4,33.9,137.5,41.1,135.7z M359.2,134c0-4.8-0.3-9.4,0-13.9c0.4-6.5,3.9-10.7,9.9-12.3
	c7.2-1.8,14.5,0.4,17.9,5.4c3.9,5.8,1.8,12.4-4.9,14.5C374.5,130.1,366.8,131.9,359.2,134z M248.7,132.8c0-3.7-0.1-7.3,0-11
	c0.4-8.2,5.9-13.9,13.9-14.5c8-0.7,14.8,4.1,15.9,12.1c1.4,9.2,1.3,18.6,0,27.7c-1.1,7.9-7.7,12.7-15.6,12.1
	c-8-0.6-13.7-5.9-14.2-13.9C248.5,141.2,248.7,137,248.7,132.8L248.7,132.8z"/>
</svg>
