<?xml version="1.0" encoding="utf-8"?>
<!-- Generator: Adobe Illustrator 23.0.2, SVG Export Plug-In . SVG Version: 6.00 Build 0)  -->
<svg version="1.1" id="Layer_1" xmlns="http://www.w3.org/2000/svg" xmlns:xlink="http://www.w3.org/1999/xlink" x="0px" y="0px"
	 viewBox="0 0 400 245" style="enable-background:new 0 0 400 245;" xml:space="preserve">
<style type="text/css">
	.st0{fill:#264CA4;}
	.st1{fill:#A3D71E;}
	.st2{fill:#274CA3;}
</style>
<g>
	<path class="st0" d="M308.65,98.55h-9.99c-0.61,0-1.1,0.49-1.1,1.1c0,0,0,0,0,0v45.77c0,0.61,0.49,1.1,1.1,1.1h9.99
		c0.61,0,1.1-0.5,1.1-1.1V99.65C309.76,99.04,309.26,98.55,308.65,98.55"/>
	<path class="st0" d="M117.26,98.55h-8.5c-1.02,0-1.85,0.83-1.85,1.85v31.2c0,3.29-4.57,4.35-10.18,4.35h-6.29h-6.29
		c-5.61,0-10.18-1.06-10.18-4.35v-31.2c0-1.02-0.83-1.85-1.85-1.85h-8.49c-1.02,0-1.85,0.83-1.85,1.85l0,31.82
		c0,5.49,2.39,8.96,6.94,11.69c4.55,2.73,15.14,2.61,18.29,2.61h6.87c3.14,0,13.74,0.12,18.29-2.6s6.94-6.2,6.94-11.69l0-31.82
		C119.11,99.37,118.28,98.55,117.26,98.55"/>
	<path class="st0" d="M366.58,98.87c0.2-0.2,0.48-0.32,0.79-0.32h13.88c0.51,0,0.99,0.31,1.13,0.8c0.13,0.45-0.03,0.93-0.4,1.22
		l-20.45,17.8c-0.44,0.44-1.15,0.44-1.59,0c-0.01-0.01-0.03-0.03-0.04-0.04l-6.96-6.06c-0.42-0.46-0.38-1.17,0.07-1.59
		c0.01-0.01,0.02-0.02,0.04-0.03L366.58,98.87"/>
	<path class="st0" d="M366.58,146.19c0.2,0.2,0.48,0.32,0.79,0.32h13.88c0.51,0,0.99-0.32,1.13-0.8c0.13-0.45-0.03-0.93-0.4-1.22
		l-20.45-17.8c-0.44-0.44-1.15-0.44-1.59,0c-0.01,0.01-0.02,0.02-0.03,0.04l-6.96,6.06c-0.42,0.46-0.38,1.17,0.08,1.59
		c0.01,0.01,0.02,0.02,0.03,0.03L366.58,146.19"/>
	<path class="st1" d="M329.42,146.22c-0.2,0.18-0.47,0.29-0.76,0.29h-13.85c-0.54,0-1.05-0.36-1.15-0.89
		c-0.08-0.37,0.04-0.75,0.3-1.02l24.37-21.21c0.47-0.4,0.54-1.1,0.14-1.58c-0.03-0.04-0.07-0.07-0.1-0.11l-24.34-21.18
		c-0.3-0.25-0.45-0.65-0.38-1.04c0.09-0.56,0.61-0.94,1.17-0.94h13.85c0.29,0,0.56,0.11,0.76,0.3l26.24,22.84
		c0.47,0.4,0.52,1.11,0.12,1.58c-0.04,0.04-0.08,0.08-0.12,0.12L329.42,146.22"/>
	<path class="st0" d="M155.72,110.24c0-0.62,0.51-1.12,1.13-1.12h17.32c1.02,0,1.85-0.83,1.85-1.85v-6.86
		c0-1.02-0.83-1.85-1.85-1.85h-49.14c-1.02,0-1.85,0.83-1.85,1.85v6.86c0,1.02,0.83,1.85,1.85,1.85h17.35c0.62,0,1.12,0.5,1.12,1.12
		v34.42c0,1.02,0.83,1.85,1.85,1.85h8.48c1.03,0,1.86-0.83,1.86-1.85L155.72,110.24 M44.2,128.31c0.28,0.24,0.67,0.39,1.18-0.05
		c0.09-0.08,0.15-0.19,0.15-0.31V99.43c0-0.49,0.39-0.88,0.88-0.88h10.57c0.41,0,0.74,0.33,0.74,0.74v40.76
		c0,4.05-1.59,5.81-3.14,6.49c-1.55,0.68-6.26,0.41-9.08-2.03L15.04,118.1c0,0-1.63-1.42-1.75-1.51c-0.25-0.2-0.65-0.22-1.01,0.12
		c-0.06,0.05-0.09,0.13-0.09,0.21v28.87c0,0.41-0.33,0.74-0.74,0.74H0.88c-0.49,0-0.88-0.39-0.88-0.88c0,0,0,0,0,0v-40.59
		c0-4.05,1.59-5.81,3.14-6.49c1.55-0.68,6.27-0.41,9.08,2.03l30.47,26.42C42.69,126.99,44.1,128.23,44.2,128.31 M279.97,128.31
		c0.29,0.23,0.67,0.39,1.18-0.05c0.09-0.08,0.15-0.19,0.15-0.32V99.42c0-0.48,0.39-0.88,0.88-0.88h10.58c0.41,0,0.74,0.33,0.74,0.74
		v40.76c0,4.05-1.59,5.82-3.14,6.49c-1.55,0.68-6.27,0.41-9.08-2.03l-30.47-26.42c0,0-1.63-1.42-1.74-1.51
		c-0.25-0.2-0.64-0.22-1.01,0.11c-0.06,0.05-0.09,0.13-0.09,0.21v28.87c0,0.41-0.33,0.74-0.74,0.74h-10.58
		c-0.48,0-0.88-0.39-0.88-0.88v-40.59c0-4.05,1.59-5.82,3.14-6.49c1.55-0.68,6.26-0.41,9.08,2.03l30.47,26.42
		C278.46,126.99,279.87,128.23,279.97,128.31 M299.42,98.55h8.49c1.02,0,1.85,0.83,1.85,1.85v44.26c0,1.02-0.83,1.85-1.85,1.85
		h-8.49c-1.02,0-1.85-0.83-1.85-1.85l0,0V100.4C297.56,99.38,298.39,98.55,299.42,98.55 M201.86,123.34h-12.37
		c-0.31,0-0.62-0.19-0.69-0.5c-0.06-0.23,0-0.48,0.18-0.66l6.11-8.83c0.03-0.06,0.09-0.09,0.14-0.14c0.04-0.04,0.07-0.08,0.11-0.1
		c0.09-0.04,0.18-0.07,0.27-0.07c0.02,0,0.03-0.01,0.05-0.01c0.02,0,0.04,0.01,0.05,0.01c0.1,0,0.19,0.03,0.27,0.07
		c0.04,0.03,0.07,0.07,0.11,0.1c0.05,0.04,0.1,0.08,0.14,0.14l6.11,8.83c0.18,0.19,0.26,0.48,0.13,0.78
		C202.38,123.21,202.12,123.34,201.86,123.34L201.86,123.34z M231.62,144.66l-30.06-43.41l0,0c-1.34-1.95-3.54-3.11-5.9-3.11h0
		c-2.36,0-4.57,1.16-5.9,3.11v0l-30.06,43.41c-0.24,0.28-0.32,0.67-0.23,1.03c0.13,0.5,0.62,0.83,1.13,0.83h10.64
		c0.42,0,0.79-0.23,0.99-0.57l7.88-11.38c0.19-0.4,0.59-0.65,1.03-0.65h29.04c0.45,0,0.85,0.26,1.03,0.65l7.88,11.38
		c0.2,0.34,0.57,0.57,0.99,0.57h10.64c0.52,0,1.01-0.32,1.13-0.83C231.95,145.33,231.86,144.94,231.62,144.66"/>
	<path class="st2" d="M387.31,140.07h-1.85c-0.34,0-0.62-0.28-0.62-0.62s0.28-0.62,0.62-0.62h5.07c0.34,0,0.61,0.28,0.61,0.62
		c0,0.34-0.27,0.62-0.61,0.62h-1.86v5.78c0,0.37-0.31,0.67-0.68,0.67c-0.37,0-0.67-0.3-0.68-0.67L387.31,140.07 M392.5,139.46
		c0-0.37,0.3-0.68,0.68-0.68h0.14c0.3,0,0.49,0.15,0.62,0.36l2.31,3.62l2.32-3.63c0.12-0.22,0.36-0.36,0.61-0.35h0.14
		c0.38,0,0.68,0.31,0.68,0.68v6.39c0,0.37-0.3,0.67-0.68,0.67c-0.37-0.01-0.66-0.3-0.67-0.67v-4.58l-1.86,2.8
		c-0.14,0.22-0.32,0.35-0.57,0.35c-0.24,0-0.42-0.13-0.56-0.35l-1.85-2.78v4.57c0,0.37-0.29,0.65-0.66,0.65
		c-0.36,0.01-0.65-0.28-0.65-0.63c0-0.01,0-0.02,0-0.02V139.46"/>
</g>
</svg>
