<svg xmlns="http://www.w3.org/2000/svg" width="162.065" height="69.621" viewBox="0 0 162.065 69.621">
  <g id="Group_119" data-name="Group 119" transform="translate(-968.5 -141.698)">
    <g id="Group_193" data-name="Group 193" transform="translate(968.5 141.698)">
      <g id="Group_191" data-name="Group 191" transform="translate(79.097 19.075)">
        <path id="Path_606" data-name="Path 606" d="M1413.043,465.634a6.055,6.055,0,0,1-1.336,4.153,4.7,4.7,0,0,1-3.713,1.512,4.754,4.754,0,0,1-3.75-1.486,6.1,6.1,0,0,1-1.32-4.194,6.028,6.028,0,0,1,1.324-4.164,4.788,4.788,0,0,1,3.762-1.478,4.686,4.686,0,0,1,3.7,1.5A6.049,6.049,0,0,1,1413.043,465.634Zm-8.765,0a5.22,5.22,0,0,0,.952,3.389,3.887,3.887,0,0,0,5.526,0,6.6,6.6,0,0,0,0-6.76,3.33,3.33,0,0,0-2.75-1.147,3.394,3.394,0,0,0-2.78,1.155A5.167,5.167,0,0,0,1404.278,465.634Z" transform="translate(-1402.924 -459.976)" fill="#1a2f80"/>
        <path id="Path_607" data-name="Path 607" d="M1515.119,493.245a3.568,3.568,0,0,1-1.471-.3,2.764,2.764,0,0,1-1.117-.914h-.09a11.063,11.063,0,0,1,.09,1.369V496.8h-1.249V484.848h1.016l.173,1.129h.06a2.9,2.9,0,0,1,1.121-.978,3.409,3.409,0,0,1,1.467-.3,3.048,3.048,0,0,1,2.532,1.121,5.97,5.97,0,0,1-.015,6.3A3.053,3.053,0,0,1,1515.119,493.245Zm-.181-7.486a2.213,2.213,0,0,0-1.828.7,3.6,3.6,0,0,0-.579,2.227v.278a4.125,4.125,0,0,0,.579,2.487,2.2,2.2,0,0,0,1.858.749,1.932,1.932,0,0,0,1.674-.865,4.1,4.1,0,0,0,.606-2.385,3.95,3.95,0,0,0-.606-2.366A1.992,1.992,0,0,0,1514.938,485.759Z" transform="translate(-1499.114 -481.922)" fill="#1a2f80"/>
        <path id="Path_608" data-name="Path 608" d="M1593.3,493.245a3.788,3.788,0,0,1-2.885-1.114,4.31,4.31,0,0,1-1.057-3.092,4.781,4.781,0,0,1,.982-3.167,3.261,3.261,0,0,1,2.637-1.174,3.11,3.11,0,0,1,2.453,1.02,3.906,3.906,0,0,1,.9,2.69v.79h-5.68a3.268,3.268,0,0,0,.733,2.2,2.537,2.537,0,0,0,1.96.752,6.641,6.641,0,0,0,2.633-.557v1.113a6.6,6.6,0,0,1-1.253.41A7.037,7.037,0,0,1,1593.3,493.245Zm-.339-7.5a2.039,2.039,0,0,0-1.583.647,2.982,2.982,0,0,0-.7,1.791h4.311a2.748,2.748,0,0,0-.527-1.809A1.855,1.855,0,0,0,1592.961,485.744Z" transform="translate(-1568.421 -481.922)" fill="#1a2f80"/>
        <path id="Path_609" data-name="Path 609" d="M1674.146,493.094V487.76a2.152,2.152,0,0,0-.459-1.5,1.87,1.87,0,0,0-1.437-.5,2.37,2.37,0,0,0-1.9.7,3.532,3.532,0,0,0-.6,2.31v4.326H1668.5v-8.246h1.016l.2,1.129h.06a2.549,2.549,0,0,1,1.076-.944,3.5,3.5,0,0,1,1.542-.335,3.132,3.132,0,0,1,2.242.719,3.058,3.058,0,0,1,.752,2.3v5.379Z" transform="translate(-1638.68 -481.922)" fill="#1a2f80"/>
        <path id="Path_610" data-name="Path 610" d="M1753.753,472.517h-1.279v-11h6.132v1.136h-4.853v4.025h4.559v1.136h-4.559Z" transform="translate(-1713.221 -461.344)" fill="#1a2f80"/>
        <path id="Path_611" data-name="Path 611" d="M1823.184,488.964a4.549,4.549,0,0,1-1.016,3.149,3.577,3.577,0,0,1-2.807,1.132,3.716,3.716,0,0,1-1.964-.519,3.427,3.427,0,0,1-1.324-1.49,5.193,5.193,0,0,1-.466-2.272,4.541,4.541,0,0,1,1.008-3.141,3.566,3.566,0,0,1,2.8-1.125,3.489,3.489,0,0,1,2.75,1.151A4.53,4.53,0,0,1,1823.184,488.964Zm-6.282,0a3.914,3.914,0,0,0,.632,2.408,2.508,2.508,0,0,0,3.72,0,3.893,3.893,0,0,0,.636-2.411,3.831,3.831,0,0,0-.636-2.389,2.234,2.234,0,0,0-1.877-.816,2.2,2.2,0,0,0-1.851.805A3.874,3.874,0,0,0,1816.9,488.964Z" transform="translate(-1769.265 -481.922)" fill="#1a2f80"/>
        <path id="Path_612" data-name="Path 612" d="M1904.413,484.7a4.893,4.893,0,0,1,.985.09l-.173,1.159a4.257,4.257,0,0,0-.9-.113,2.2,2.2,0,0,0-1.712.813,2.963,2.963,0,0,0-.711,2.024v4.424h-1.249v-8.246h1.031l.143,1.527h.06a3.626,3.626,0,0,1,1.106-1.241A2.491,2.491,0,0,1,1904.413,484.7Z" transform="translate(-1844.758 -481.922)" fill="#1a2f80"/>
        <path id="Path_613" data-name="Path 613" d="M1955.2,486.038v5.349a2.152,2.152,0,0,0,.459,1.5,1.869,1.869,0,0,0,1.437.5,2.344,2.344,0,0,0,1.892-.707,3.568,3.568,0,0,0,.6-2.31v-4.334h1.249v8.246H1959.8l-.181-1.106h-.068a2.49,2.49,0,0,1-1.064.933,3.581,3.581,0,0,1-1.554.324,3.152,3.152,0,0,1-2.253-.715,3.041,3.041,0,0,1-.749-2.287v-5.394Z" transform="translate(-1892.059 -483.111)" fill="#1a2f80"/>
        <path id="Path_614" data-name="Path 614" d="M2047.547,493.094V487.73a2.228,2.228,0,0,0-.421-1.479,1.63,1.63,0,0,0-1.309-.493,2.114,2.114,0,0,0-1.723.67,3.183,3.183,0,0,0-.557,2.061v4.6h-1.249V487.73a2.226,2.226,0,0,0-.421-1.479,1.64,1.64,0,0,0-1.317-.493,2.039,2.039,0,0,0-1.719.7,3.807,3.807,0,0,0-.546,2.306v4.326h-1.249v-8.246h1.016l.2,1.129h.06a2.455,2.455,0,0,1,1-.94,3.046,3.046,0,0,1,1.441-.339,2.45,2.45,0,0,1,2.528,1.4h.06a2.631,2.631,0,0,1,1.069-1.023A3.314,3.314,0,0,1,2046,484.7a2.792,2.792,0,0,1,2.1.719,3.214,3.214,0,0,1,.7,2.3v5.379Z" transform="translate(-1965.828 -481.922)" fill="#1a2f80"/>
        <path id="Path_615" data-name="Path 615" d="M1414.148,626.056h-6.132v-11h6.132v1.136h-4.853v3.544h4.559v1.129h-4.559v4.048h4.853Z" transform="translate(-1407.444 -597.641)" fill="#1a2f80"/>
        <path id="Path_616" data-name="Path 616" d="M1481.191,639.578v5.349a2.152,2.152,0,0,0,.459,1.5,1.87,1.87,0,0,0,1.437.5,2.344,2.344,0,0,0,1.892-.707,3.568,3.568,0,0,0,.6-2.31v-4.334h1.249v8.246H1485.8l-.181-1.106h-.068a2.487,2.487,0,0,1-1.065.933,3.577,3.577,0,0,1-1.553.324,3.152,3.152,0,0,1-2.253-.715,3.042,3.042,0,0,1-.749-2.287v-5.394Z" transform="translate(-1471.28 -619.409)" fill="#1a2f80"/>
        <path id="Path_617" data-name="Path 617" d="M1566.788,638.238a4.891,4.891,0,0,1,.986.09l-.173,1.159a4.253,4.253,0,0,0-.9-.113,2.2,2.2,0,0,0-1.712.813,2.963,2.963,0,0,0-.711,2.024v4.424h-1.249v-8.246h1.031l.143,1.527h.06a3.625,3.625,0,0,1,1.106-1.241A2.491,2.491,0,0,1,1566.788,638.238Z" transform="translate(-1545.047 -618.22)" fill="#1a2f80"/>
        <path id="Path_618" data-name="Path 618" d="M1620.605,642.5a4.548,4.548,0,0,1-1.016,3.148,3.577,3.577,0,0,1-2.806,1.132,3.718,3.718,0,0,1-1.964-.519,3.425,3.425,0,0,1-1.324-1.49,5.191,5.191,0,0,1-.467-2.272,4.541,4.541,0,0,1,1.008-3.141,3.565,3.565,0,0,1,2.8-1.125,3.489,3.489,0,0,1,2.75,1.151A4.529,4.529,0,0,1,1620.605,642.5Zm-6.282,0a3.913,3.913,0,0,0,.632,2.407,2.508,2.508,0,0,0,3.72,0,3.9,3.9,0,0,0,.636-2.411,3.833,3.833,0,0,0-.636-2.389,2.234,2.234,0,0,0-1.877-.816,2.2,2.2,0,0,0-1.851.805A3.874,3.874,0,0,0,1614.323,642.5Z" transform="translate(-1589.435 -618.22)" fill="#1a2f80"/>
        <path id="Path_619" data-name="Path 619" d="M1701.909,646.785a3.57,3.57,0,0,1-1.471-.3,2.766,2.766,0,0,1-1.117-.914h-.09a11.087,11.087,0,0,1,.09,1.369v3.393h-1.249V638.388h1.016l.173,1.128h.06a2.9,2.9,0,0,1,1.121-.978,3.408,3.408,0,0,1,1.467-.3,3.048,3.048,0,0,1,2.532,1.121,5.969,5.969,0,0,1-.015,6.3A3.053,3.053,0,0,1,1701.909,646.785Zm-.181-7.486a2.213,2.213,0,0,0-1.828.7,3.6,3.6,0,0,0-.579,2.227v.278a4.126,4.126,0,0,0,.579,2.487,2.2,2.2,0,0,0,1.858.749,1.932,1.932,0,0,0,1.674-.865,4.1,4.1,0,0,0,.606-2.385,3.95,3.95,0,0,0-.606-2.366A1.992,1.992,0,0,0,1701.728,639.3Z" transform="translate(-1664.928 -618.22)" fill="#1a2f80"/>
        <path id="Path_620" data-name="Path 620" d="M1780.088,646.785a3.788,3.788,0,0,1-2.885-1.114,4.31,4.31,0,0,1-1.057-3.092,4.78,4.78,0,0,1,.982-3.167,3.261,3.261,0,0,1,2.637-1.174,3.11,3.11,0,0,1,2.453,1.019,3.908,3.908,0,0,1,.9,2.69v.79h-5.68a3.269,3.269,0,0,0,.734,2.2,2.536,2.536,0,0,0,1.96.752,6.642,6.642,0,0,0,2.633-.557v1.113a6.605,6.605,0,0,1-1.253.41A7.038,7.038,0,0,1,1780.088,646.785Zm-.339-7.5a2.04,2.04,0,0,0-1.584.647,2.983,2.983,0,0,0-.7,1.791h4.311a2.746,2.746,0,0,0-.527-1.809A1.854,1.854,0,0,0,1779.75,639.284Z" transform="translate(-1734.234 -618.22)" fill="#1a2f80"/>
      </g>
      <g id="Group_192" data-name="Group 192" transform="translate(9.172 18.228)">
        <path id="Path_621" data-name="Path 621" d="M798.217,534.274q0,4.785-2.411,7.473a8.489,8.489,0,0,1-6.66,2.687,8.821,8.821,0,0,1-4.66-1.232,8.132,8.132,0,0,1-3.143-3.535,12.319,12.319,0,0,1-1.107-5.392q0-4.785,2.393-7.455a8.463,8.463,0,0,1,6.642-2.669,8.279,8.279,0,0,1,6.526,2.732A10.749,10.749,0,0,1,798.217,534.274Zm-14.91,0a9.29,9.29,0,0,0,1.5,5.714,5.953,5.953,0,0,0,8.83.009,9.242,9.242,0,0,0,1.509-5.723,9.093,9.093,0,0,0-1.509-5.669,5.3,5.3,0,0,0-4.455-1.937,5.217,5.217,0,0,0-4.393,1.911A9.194,9.194,0,0,0,783.307,534.274Z" transform="translate(-780.236 -516.097)" fill="#1a2f80"/>
        <path id="Path_622" data-name="Path 622" d="M970.14,463.151h-4.982v17.267h-2.964V463.151h-3.5v-1.339l3.5-1.071v-1.089q0-7.214,6.3-7.214a12.972,12.972,0,0,1,3.643.625l-.768,2.375a9.809,9.809,0,0,0-2.928-.554A2.853,2.853,0,0,0,965.961,456a6.228,6.228,0,0,0-.8,3.58v1.268h4.982Z" transform="translate(-938.654 -452.437)" fill="#1a2f80"/>
        <path id="Path_623" data-name="Path 623" d="M1087.517,544.434a8.989,8.989,0,0,1-6.848-2.643,10.228,10.228,0,0,1-2.509-7.339,11.345,11.345,0,0,1,2.33-7.517,7.74,7.74,0,0,1,6.259-2.786,7.381,7.381,0,0,1,5.821,2.419,9.273,9.273,0,0,1,2.143,6.383v1.875h-13.481a7.756,7.756,0,0,0,1.741,5.232,6.021,6.021,0,0,0,4.651,1.786,15.76,15.76,0,0,0,6.25-1.321v2.643a15.671,15.671,0,0,1-2.973.973A16.714,16.714,0,0,1,1087.517,544.434Zm-.8-17.8a4.841,4.841,0,0,0-3.759,1.536,7.078,7.078,0,0,0-1.652,4.25h10.231a6.519,6.519,0,0,0-1.25-4.294A4.4,4.4,0,0,0,1086.714,526.632Z" transform="translate(-1044.705 -516.097)" fill="#1a2f80"/>
      </g>
      <path id="Path_624" data-name="Path 624" d="M733.372,291.877a33.309,33.309,0,0,1,6.662.671,32.857,32.857,0,0,1,11.814,4.972,33.148,33.148,0,0,1,11.975,14.542,32.87,32.87,0,0,1,1.925,6.2,33.389,33.389,0,0,1,0,13.324,32.859,32.859,0,0,1-4.971,11.814,33.15,33.15,0,0,1-14.542,11.975,32.87,32.87,0,0,1-6.2,1.925,33.387,33.387,0,0,1-13.324,0,32.851,32.851,0,0,1-11.814-4.972,33.148,33.148,0,0,1-11.975-14.542,32.86,32.86,0,0,1-1.925-6.2,33.383,33.383,0,0,1,0-13.324,32.858,32.858,0,0,1,4.971-11.814,33.152,33.152,0,0,1,14.542-11.975,32.872,32.872,0,0,1,6.2-1.925,33.309,33.309,0,0,1,6.662-.671m0-1.763a34.811,34.811,0,1,0,34.811,34.811,34.811,34.811,0,0,0-34.811-34.811Z" transform="translate(-698.561 -290.114)" fill="#1a2f80"/>
    </g>
  </g>
</svg>
