<?xml version="1.0" standalone="no"?>
<!DOCTYPE svg PUBLIC "-//W3C//DTD SVG 20010904//EN"
 "http://www.w3.org/TR/2001/REC-SVG-20010904/DTD/svg10.dtd">
<svg version="1.0" xmlns="http://www.w3.org/2000/svg"
 width="2602.000000pt" height="1517.000000pt" viewBox="0 0 2602.000000 1517.000000"
 preserveAspectRatio="xMidYMid meet">

<g transform="translate(0.000000,1517.000000) scale(0.100000,-0.100000)"
fill="#000000" stroke="none">
<path d="M4305 11322 c-44 -30 -110 -77 -148 -102 l-67 -47 1735 -1124 c954
-618 1735 -1126 1735 -1129 -1 -10 -674 -465 -686 -464 -6 1 -686 438 -1510
971 -825 533 -1524 984 -1554 1003 -30 18 -157 95 -282 171 l-228 139 0 -764
0 -764 613 -424 612 -424 3 -1880 2 -1881 418 -280 c387 -260 768 -508 799
-520 10 -4 13 165 15 917 l3 922 235 -156 235 -155 5 -596 5 -596 165 114 165
113 5 367 5 367 90 -60 c50 -34 115 -76 146 -95 l57 -35 513 358 514 359 3
766 2 767 -170 112 c-93 62 -168 117 -166 123 1 5 77 61 169 125 l166 115 0
735 0 735 -102 66 c-628 410 -3410 2209 -3415 2208 -4 0 -43 -26 -87 -57z
m959 -2238 c1000 -646 1621 -1042 1629 -1038 16 10 649 444 665 457 9 7 12
-62 12 -339 l0 -349 -287 -200 c-158 -110 -315 -220 -350 -244 l-63 -43 -700
461 c-384 254 -702 461 -705 461 -3 0 -5 -291 -5 -647 l1 -648 710 -462 711
-463 341 235 342 236 3 -338 c1 -186 0 -343 -2 -349 -2 -6 -160 -120 -350
-252 l-345 -242 -713 471 c-392 259 -719 474 -725 476 -10 4 -13 -183 -13
-916 0 -507 -3 -921 -7 -921 -4 0 -128 80 -275 178 l-267 177 -3 1879 -3 1880
-612 424 -613 424 0 369 c0 203 2 369 4 369 3 0 732 -470 1620 -1046z m1084
-1821 c288 -190 529 -343 535 -340 7 3 93 62 192 131 99 70 185 124 192 122
21 -8 345 -227 341 -231 -2 -2 -167 -116 -367 -254 -221 -152 -369 -247 -375
-243 -6 5 -248 163 -538 352 l-528 343 0 239 c0 188 3 238 13 232 6 -4 247
-162 535 -351z"/>
</g>
</svg>
