<svg xmlns="http://www.w3.org/2000/svg" role="img" viewBox="73.13 -4.38 253.50 253.50"><style>svg {enable-background:new 0 0 400 245}</style><path d="M200.1.6C132.8.6 78.2 55.2 78.2 122.5s54.6 121.9 121.9 121.9c64.7 0 117.5-50.3 121.6-114 .2-6 .1-12.1-.2-18.2C316.3 49.7 263.9.6 200.1.6zm-97.2 133.5c-1.6-3.7-1.7-7.9.2-11.9 3.8-7.8 10.5-12.2 17.7-16.1 7.6-4.1 15.7-7 24.1-9.3 21.7-5.8 43.8-7.8 66.2-7 1.9.1 3.8 0 5.6.4 1.5.4 3.2 1.1 4.2 2.2 6.6 7.7 12.9 15.6 19 23 1.1 16.6-.6 32.4-3.3 48.4-2.4.6-4.4 1.4-6.5 1.6-13.3 1-26.6 2.1-40 1.6-5.5-.2-9.7-1.9-13.7-5.6-9.3-8.6-17.7-17.9-26.1-27.8.4-1 .8-2.1 1.3-3.1 2.3-4.6 2.5-9.3-.3-13.7-2.7-4.2-6.8-6.3-11.8-6.2-5 .2-10.8 5.1-11.9 9.9-1.2 5.4 1.8 12.7 6.3 14.8 2.3 1 4.9 1.5 7.3 2.2 7.6 8.5 15.4 17.1 23.5 26.1-1.3.2-2.2.5-3 .4-2.5-.4-5-.9-7.5-1.5-5.3-1.3-10.6-2.5-15.8-4.2-10.7-3.7-21.2-7.8-29.6-15.9-2.2-2.4-4.6-5.2-5.9-8.3zm136.3-30.5c-.4.2-.9.4-1.3.6-3.6-3.9-7.3-7.9-11.4-12.3 4.2-1.2 7.2 1.3 10.3.7 3.3 3.4 1 7.5 2.4 11zm-5.7 70.7c-1.3 7.8-4 14.1-7.3 20.6-10.6-4.3-20-10.1-29.4-17 .9-.5 1.4-.9 1.9-1 9.3-.5 18.6-.8 27.9-1.3 2 0 4-.7 6.9-1.3zm-59.8 43.1c-21.8-6.5-39.8-18.7-53.3-37.3-7.7-10.5-12.8-21.6-11.9-25.4 13.7 9.3 29.1 13.9 45.4 17.5 1 2.8 2.3 5.8 3.1 8.9 2.5 9.3 6.4 17.9 11.3 26.1 1.4 2.4 3.2 4.5 4.8 6.8.6.8 1 1.7 1.5 2.6-.3.2-.6.5-.9.8zm46.4-11.2c-4.2 5.9-8.9 11.5-16.3 13.3-2.6.7-5.6 1.1-8.2.5-10.6-2.2-18.6-8.5-25-17-6-7.8-10.1-16.7-13.5-25.8-.2-.4-.2-.9-.3-1.4v-3c7.6 1.1 14.8 2 22.5 3.1 12.6 10.4 26.5 19.7 42.2 27-.5 1.5-.8 2.6-1.4 3.3zm3 11.8c1.4-4.9 5.2-7.2 6.6-10.8 5-.3 11.1 1.7 12.1 4.1-5.7 3-11.7 4.9-18.7 6.7zm28.2-16.5c-5.6.1-10.8-1.1-16.2-3.4 2.9-8.3 5.5-16.1 8.5-24.7 7.1-2 14.8-3.7 23.2-5.7 1 5.5 2.6 10.4 2.5 15.3-.3 10.3-4.8 18.2-18 18.5zm-5.6-39.4c1.1-10.2 2.1-20.4 3.2-30.5.4-.1.7-.2 1.1-.2 5 8.4 9.8 16.8 13.1 26.9-5.9 1.6-11.1 3.1-16.4 4.6-.3-.4-.7-.6-1-.8zm33.9 17.4c-.4 0-.8-.1-1.2-.1-1-4.9-2.1-9.8-3.2-14.9 5.2-2.7 10.2-5.3 15.2-7.9.3-.1.8.2 1.5.4-3.3 8.1-7.1 15.7-12.3 22.5zm16.9-73.8c2.5 8.7 1 17.5 1.3 26.2.1 2.9-.9 5.4-2.8 7.7-6.1 7.5-14.5 11.3-23.3 15.4-1.6-3.2-3-6.1-4.5-8.9-4.9-9.4-10.7-18.2-16.9-26.8-1-1.4-1.6-3.4-1.8-5.1-.6-5-1-10-1.4-15.1-.1-1.1 0-2.3 0-4.2 3.7.7 7.1 1.3 10.4 1.9 2.6 6.3 6.3 11.1 14.4 11.5 5.3-.7 10.7-3.1 12.1-9.9 1.4-6.6-.8-12.2-5.5-14.6-6.8-3.5-13.1-2.3-18.7 3.7-4.9-1.2-10-2.5-14.8-3.7-1.5-6.5-2.8-12.4-4-17.9 6.5-8.2 5.7-14.2 1.8-19.6-3.5-4.9-10-6.5-15.9-4.2-5.1 2-9.4 8.5-8.5 13.7.9 5.8 3.3 11.2 13.8 13.1 2 3.5 3.6 9.9 3.2 13-1.7 0-3.6.1-5.4 0-3.8-.3-7.6-1-11.4-1.1-2.9-.1-5.3-.8-7.5-2.8-2.6-2.5-5.5-4.6-8.4-6.9-.5-.4-1.3-.5-2.3-.2 2.5 2.4 5 4.8 7.5 7.3-.4.8-.7 1.5-.8 1.6-8.3.3-16.1.7-23.8.9-7.5.1-14.8 1.2-22.1 2.7-7.4 1.6-14.9 2.9-22.2 5-11.6 3.4-22.9 7.7-32.5 15.4-.6.5-1.4.7-2.8 1.3 0-1.5-.2-2.5 0-3.4 2.9-11.8 7.2-22.9 13.9-33.2 6.8-10.4 15.1-19.2 25-26.4 8.4-6.1 17.6-10.7 27.6-13.9 13.5-4.4 27.2-4.9 41.1-4 4.2.3 8.4 1.8 12.6 2.6 7.3 1.4 14 4.2 20.5 7.5 14.3 7.3 26.2 17.6 35.5 30.7 6.1 8.6 11 17.8 13.7 28.1 1.1 4.3 1.8 8.5 2.9 12.6z"/></svg>