<?xml version="1.0" encoding="UTF-8" standalone="no"?>
<svg
   width="710"
   height="172"
   viewBox="0 0 710 172"
   version="1.1"
   id="svg1"
   sodipodi:docname="open-source-consensus(shanghai)-network-technology-co.,-ltd.svg"
   inkscape:version="1.3.2 (091e20e, 2023-11-25)"
   xmlns:inkscape="http://www.inkscape.org/namespaces/inkscape"
   xmlns:sodipodi="http://sodipodi.sourceforge.net/DTD/sodipodi-0.dtd"
   xmlns="http://www.w3.org/2000/svg"
   xmlns:svg="http://www.w3.org/2000/svg">
  <defs
     id="defs1" />
  <sodipodi:namedview
     id="namedview1"
     pagecolor="#ffffff"
     bordercolor="#000000"
     borderopacity="0.25"
     inkscape:showpageshadow="2"
     inkscape:pageopacity="0.0"
     inkscape:pagecheckerboard="0"
     inkscape:deskcolor="#d1d1d1"
     inkscape:zoom="0.81549296"
     inkscape:cx="354.38687"
     inkscape:cy="85.837651"
     inkscape:window-width="1312"
     inkscape:window-height="449"
     inkscape:window-x="0"
     inkscape:window-y="38"
     inkscape:window-maximized="0"
     inkscape:current-layer="svg1" />
  <g
     id="g1">
    <path
       style="fill:#9da19f"
       d="M 66.241402,170.49306 C 51.555786,167.12266 38.393086,160.1655 27.805542,150.17775 19.070729,141.93777 13.08947,133.63829 8.106342,122.84352 1.8226025,109.23128 0.49666925,102.70211 0.52268788,85.5 0.55011497,67.366696 1.9569265,61.006899 9.2602389,46 13.833342,36.603154 15.427649,34.444131 24.435104,25.450067 33.314634,16.583738 35.736609,14.785087 45,10.177793 60.990427,2.2247013 68.139948,0.63351694 88,0.60779075 c 15.31817,-0.0198428 17.07301,0.17212239 24.5,2.68010685 12.18312,4.1140586 21.75245,9.9493854 31.21766,19.0363624 11.49708,11.037659 25.37851,32.171781 22.69917,34.558925 -0.50426,0.449266 -9.91683,4.100724 -20.91683,8.114351 -11,4.013626 -22.77671,8.338782 -26.17048,9.611458 l -6.17047,2.313955 -3.13465,-4.884927 C 106.4378,66.448799 99.780644,60.003835 94.864359,57.361206 89.859167,54.670788 78.944091,54.897832 72.5,57.826406 61.749566,62.712036 55.02729,72.631494 55.009769,83.635165 c -0.0196,12.309563 5.939107,22.717695 15.751495,27.513285 3.78371,1.8492 6.351024,2.30798 12.738736,2.2764 9.949997,-0.0492 15.681848,-2.54109 23.31522,-10.13624 2.92337,-2.90874 6.2288,-5.28861 7.34541,-5.28861 2.14417,0 51.82638,15.83442 53.05875,16.91058 1.00292,0.87578 -3.30095,9.84671 -8.14917,16.98604 -12.1892,17.94939 -30.46167,31.46369 -50.25521,37.16872 -9.618047,2.77218 -33.260773,3.56504 -42.573598,1.42772 z M 229.02424,130.39691 C 215.11639,126.65953 205.06001,116.82502 199.93151,101.94604 196.99045,93.41333 196.7571,78.980172 199.43118,71 c 2.73185,-8.1526 5.24911,-12.697839 9.71641,-17.544288 8.96487,-9.725742 19.71372,-13.950685 33.75413,-13.267406 17.93069,0.8726 31.79116,11.507813 38.20084,29.311694 3.04957,8.470678 3.06145,24.501805 0.0244,32.91927 -8.17533,22.65859 -29.42828,34.07081 -52.10271,27.97764 z m 19.75788,-17.94996 c 7.68222,-3.20904 12.27965,-9.75823 14.17067,-20.186581 C 265.14951,80.146192 260.57308,66.392928 252.5867,61.107795 249.14974,58.833321 247.60485,58.5 240.5,58.5 c -7.10485,0 -8.64974,0.333321 -12.0867,2.607795 -12.97395,8.585753 -14.5709,35.881227 -2.75488,47.087045 5.92729,5.62119 15.59181,7.39836 23.1237,4.25211 z m 56.48758,18.55379 C 294.2941,128.69234 288,123.93453 288,117.9463 c 0,-8.56998 5.85032,-10.82765 18,-6.9463 8.92476,2.85111 16.04398,2.67532 19.8046,-0.48904 4.68045,-3.93834 4.80364,-9.72395 0.28206,-13.247349 C 325.214,96.583596 320,94.619204 314.5,92.898294 c -11.54655,-3.612832 -18.08064,-6.71402 -21.20227,-10.062956 -7.99084,-8.572692 -6.77617,-24.452137 2.5866,-33.814907 6.97306,-6.973061 13.98032,-9.365984 25.61567,-8.74755 10.37002,0.55118 16.40498,2.63705 20.00372,6.913914 3.41162,4.054476 3.2628,8.200535 -0.4268,11.890128 -3.48348,3.483481 -5.11278,3.577234 -14.19995,0.817089 C 316.16206,56.639459 309,59.076468 309,65.976947 c 0,3.897076 2.24495,5.300253 14.60614,9.129361 11.48872,3.558844 16.92287,6.454295 21.15085,11.269699 4.18924,4.771282 5.52402,9.511685 5.05635,17.957423 -0.65455,11.82064 -5.91047,19.51881 -16.72686,24.49926 -4.47506,2.06056 -7.37701,2.62061 -14.58648,2.81504 -4.95,0.1335 -10.90363,-0.15765 -13.2303,-0.64699 z m 78.58651,-1.24775 C 368.06065,124.20444 358.96684,113.2657 355.32655,95.435328 352.2133,80.186391 356.57168,63.717627 366.54113,53.059486 374.9306,44.09046 384.78407,40 398,40 c 13.10054,0 22.87417,4.061254 25.62656,10.648656 1.20895,2.893434 1.2001,3.830435 -0.0648,6.857705 -2.14626,5.136712 -5.3969,6.033111 -12.96086,3.574096 -13.77189,-4.477194 -21.14808,-3.585935 -28.13335,3.399329 -9.64463,9.644634 -10.61209,29.775567 -1.97515,41.099174 5.82407,7.63575 18.25763,9.65607 29.72419,4.82986 7.70656,-3.24364 11.3622,-2.55267 14.18948,2.68202 2.38121,4.40881 1.60656,8.16078 -2.47144,11.9702 -4.24778,3.96802 -11.07944,6.00833 -21.93466,6.5509 -8.16462,0.40809 -10.4339,0.14679 -16.14379,-1.85895 z M 436.92308,128.07692 434,125.15385 V 86.527263 c 0,-43.012574 0.0545,-43.400051 6.39685,-45.493222 4.08966,-1.349709 9.76386,0.529221 11.52266,3.815559 C 452.55635,46.039543 453,53.054559 453,61.934259 V 77 H 472.5 492 V 61.722506 c 0,-17.074956 0.51897,-18.748589 6.41735,-20.695228 4.47165,-1.475778 10.15864,0.727299 11.58901,4.489453 C 510.60185,47.082998 511,63.500097 511,86.488374 v 38.358176 l -2.58889,3.07672 c -2.13984,2.54305 -3.31067,3.07121 -6.75,3.04493 C 493.2397,130.90383 492,128.09335 492,109.06574 V 94 H 472.5 453 v 15.86364 c 0,15.80668 -0.009,15.8731 -2.63636,18.5 -3.78876,3.78875 -9.48664,3.66721 -13.44056,-0.28672 z m 87.52917,0.27706 L 522,125.70795 V 86.288236 c 0,-26.325187 0.35892,-40.090367 1.08049,-41.438636 1.7588,-3.286338 7.433,-5.165268 11.52266,-3.815559 C 540.94552,43.127212 541,43.514689 541,86.527263 v 38.626587 l -2.92308,2.92307 c -3.99505,3.99506 -10.06456,4.11848 -13.62467,0.27706 z m 30.46109,1.36422 C 551.16587,126.84098 551,124.9668 551,85.5 c 0,-25.76055 0.35999,-39.30413 1.08049,-40.6504 1.40458,-2.624487 6.6984,-4.805687 10.08996,-4.157349 1.46847,0.280716 3.63902,1.413227 4.82345,2.516692 1.18443,1.103465 10.78284,13.509957 21.3298,27.569982 L 607.5,96.342607 608,70.921303 c 0.275,-13.981716 0.89243,-26.029718 1.37208,-26.773337 0.47964,-0.743618 2.43073,-2.003281 4.33575,-2.79925 2.73763,-1.143856 4.17871,-1.211235 6.87482,-0.321438 6.54268,2.159278 6.41735,1.294872 6.41735,44.26097 0,39.686032 -0.16431,41.551532 -3.91334,44.429952 -2.23878,1.71888 -8.23112,1.56934 -10.85854,-0.27097 -1.21929,-0.85403 -11.10692,-13.29513 -21.97251,-27.6469 L 570.5,75.706201 569.95673,101.1031 c -0.2988,13.9683 -0.6363,25.49187 -0.75,25.60794 -3.40704,3.47822 -5.04611,4.28534 -8.64529,4.25716 -2.23379,-0.0175 -4.77544,-0.58 -5.6481,-1.25 z m 79.73268,-1.17045 C 632.80085,126.8377 632,125.08319 632,122.75081 c 0,-4.08988 26.14556,-75.149179 28.68137,-77.951222 6.00471,-6.635124 17.14771,-6.287963 21.71094,0.676406 C 685.05877,49.545523 710,119.5975 710,123.0172 c 0,4.49036 -3.86911,7.9828 -8.84376,7.9828 -5.45237,0 -7.76411,-2.31165 -10.50044,-10.5 l -2.33921,-7 -17.06903,-0.27323 -17.06904,-0.27323 -2.18188,6.77323 c -1.2206,3.78908 -3.2671,7.76453 -4.64503,9.02323 -3.43226,3.13526 -9.20348,3.04339 -12.70559,-0.20225 z M 682,94.429975 c 0,-2.134803 -10.53577,-33.274862 -11.05634,-32.678679 -0.35956,0.411787 -2.76114,7.394126 -5.33684,15.516308 -2.57571,8.122183 -4.93908,15.434683 -5.25195,16.25 C 659.87327,94.772632 661.4896,95 670.89301,95 677.00186,95 682,94.743489 682,94.429975 Z"
       id="path7" />
    <path
       style="fill:#6fa88e"
       d="M 68,170.49783 C 22.24151,161.2459 -6.7849058,117.16951 1.5196136,69.547871 7.7219078,33.981281 34.5272,7.9754783 71.659269,1.5001874 105.18277,-4.3458227 134.56361,7.4328326 154.90627,34.873562 159.97649,41.712917 167.62053,55.7128 166.75645,56.576886 165.91557,57.417766 114.99493,76 113.53156,76 112.76333,76 111.8457,75.08919 111.49238,73.975978 110.28201,70.162464 99.634155,59.744741 94.5,57.350863 81.724379,51.394037 64.459164,57.884997 57.646465,71.206169 c -2.39517,4.68338 -2.877936,6.830989 -2.824003,12.56272 0.164872,17.521931 10.336505,28.986041 26.610366,29.991651 9.877675,0.61037 16.692737,-2.07555 25.011632,-9.85747 C 109.91518,100.65638 113.50523,98 114.42234,98 c 0.9171,0 13.34253,3.84719 27.61206,8.54932 l 25.94459,8.54932 -3.12635,6.20068 c -13.34022,26.4584 -36.78963,44.36613 -64.40051,49.18107 C 90.040582,172.29601 76.928347,172.30306 68,170.49783 Z M 232.17629,130.99031 C 221.32052,128.70255 209.70976,120.47999 204.2998,111.2486 196.3225,97.636367 195.76033,77.269008 202.96807,63 c 7.71994,-15.283011 22.90001,-23.930241 39.90413,-22.731132 13.42434,0.946668 23.37586,6.291589 31.26659,16.793166 5.82225,7.748689 8.11323,14.817184 8.63464,26.640959 0.37208,8.437659 0.0817,11.415412 -1.67849,17.210337 -4.11602,13.5511 -14.37933,24.61396 -26.45242,28.51313 -6.2083,2.00505 -16.85572,2.74621 -22.46623,1.56385 z m 20.99815,-20.5453 c 2.86712,-2.01509 5.30456,-4.98583 7.31302,-8.91305 2.72989,-5.337873 3.01254,-6.788514 3.01254,-15.461255 0,-8.468907 -0.3239,-10.230306 -2.81356,-15.300295 -6.17589,-12.576677 -18.65791,-16.906908 -30.832,-10.696153 -10.07879,5.141818 -15.10689,20.471298 -11.45628,34.927482 2.07486,8.216311 5.8617,13.682611 11.60184,16.747231 3.80693,2.03249 5.60691,2.34985 11.68698,2.06052 6.06886,-0.28879 7.85603,-0.81222 11.48746,-3.36448 z m 55.21276,20.55617 C 295.08377,129.05149 288,124.3179 288,117.37782 288,112.99622 291.71026,109 295.77832,109 c 1.57808,0 6.66103,1.14747 11.29545,2.54993 9.80217,2.96631 15.30981,2.67746 19.29045,-1.01168 5.08598,-4.71352 4.43829,-11.037655 -1.44184,-14.078388 C 323.182,95.559877 317.06591,93.334477 311.33107,91.514529 293.93446,85.993726 288.4551,80.331075 288.57768,68 288.69188,56.512476 294.20521,48.144191 304.99391,43.083008 309.70421,40.87332 311.87303,40.5 320,40.5 c 8.55556,0 10.09649,0.298246 15.5,3 7.50233,3.751167 9.37449,6.912401 7.31059,12.344349 -0.83996,2.210679 -2.50688,4.193546 -4.21717,5.016477 -2.49205,1.199089 -3.71965,1.09618 -10.32876,-0.865847 C 316.21261,56.41712 309,58.541706 309,65.669686 c 0,4.284593 2.71299,6.020704 15.98123,10.226809 12.903,4.090319 18.69738,8.006442 22.34748,15.103505 2.53387,4.926728 2.78566,6.281735 2.41567,13 -0.46853,8.50752 -2.66762,13.69814 -7.90675,18.66272 -8.16453,7.73666 -19.04684,10.44938 -33.45043,8.33846 z M 388,130.66566 c -8.13103,-1.89686 -14.86556,-5.77291 -20.64161,-11.88023 -9.54943,-10.09711 -12.82373,-19.726375 -12.16275,-35.768898 0.3863,-9.375836 0.82016,-11.453128 3.6592,-17.520037 6.02674,-12.878829 13.78755,-19.811603 26.50051,-23.673048 11.98839,-3.641361 28.8183,-1.200217 35.63658,5.169016 5.79911,5.417182 2.86589,15.057433 -4.55638,14.974891 C 414.821,61.949399 411.025,61.06409 408,60 c -15.42315,-5.425327 -28.38627,1.164584 -32.55013,16.547134 -4.47777,16.542206 3.12376,33.231926 16.60935,36.467076 5.5915,1.34138 11.24118,0.64384 17.8924,-2.20908 6.41121,-2.74997 9.68908,-2.61898 12.82039,0.51233 5.9814,5.9814 1.21304,14.82769 -9.74687,18.08243 -7.43674,2.20848 -18.57028,2.77161 -25.02514,1.26577 z M 437.30576,128.58658 434.5,126.17317 V 86.167148 46.161128 l 2.42431,-2.580564 c 1.85204,-1.971403 3.38641,-2.573057 6.5,-2.548761 C 451.70132,41.09639 453,43.999055 453,62.434259 V 77 H 472.5 492 V 62.434259 c 0,-18.435204 1.29868,-21.337869 9.57569,-21.402456 3.11359,-0.0243 4.64796,0.577358 6.5,2.548761 L 510.5,46.161128 v 40.00602 40.006022 l -2.80576,2.41341 c -4.01259,3.45149 -9.00943,3.25208 -12.77116,-0.50966 L 492,125.15385 V 109.57692 94 H 472.5 453 v 15.57692 15.57693 l -2.92308,2.92307 c -3.76173,3.76174 -8.75857,3.96115 -12.77116,0.50966 z M 524.92308,128.07692 522,125.15385 V 86.511182 c 0,-39.478381 0.16578,-41.352094 3.91334,-44.229379 2.73871,-2.102711 8.68477,-1.531562 11.7809,1.131613 L 540.5,45.826833 V 86 126.17317 l -2.80576,2.41341 c -4.01259,3.45149 -9.00943,3.25208 -12.77116,-0.50966 z m 29.38268,0.51048 -2.80576,-2.4126 -0.28295,-39.471521 -0.28294,-39.471517 2.62184,-3.115881 C 555.61818,41.665059 556.96509,41 559.86639,41 c 2.02873,0 4.6218,0.653642 5.76238,1.452537 1.14059,0.798895 11.02821,13.409009 21.97251,28.022475 L 607.5,97.044949 608,71.600965 c 0.49586,-25.233532 0.52005,-25.465311 2.92431,-28.022475 3.67383,-3.907462 9.99093,-3.656366 13.51974,0.537391 l 2.62184,3.115881 -0.28294,39.471517 -0.28295,39.471521 -2.80576,2.4126 c -3.18414,2.73795 -6.56102,3.05876 -10.4939,0.99694 -1.48827,-0.78023 -11.67753,-13.2848 -22.70034,-27.85855 l -20,-26.442885 -0.5,25.446815 -0.5,25.44681 -2.80576,2.41174 c -3.71001,3.18899 -8.6792,3.18864 -12.38848,-8.7e-4 z m 80.61732,-0.51048 C 633.30681,126.46066 632,124.07462 632,122.73983 c 0,-2.99338 25.34249,-71.939893 28.05745,-76.332782 4.4835,-7.254457 14.83843,-8.370732 20.48579,-2.208395 2.83075,3.08888 13.3157,30.298826 26.70591,69.305667 3.56212,10.37678 3.31451,13.63572 -1.21398,15.97749 -7.11454,3.67907 -11.90428,0.67138 -15.19324,-9.54051 l -2.24992,-6.98579 -17.45426,0.27225 -17.45425,0.27224 -2.33926,7 c -1.28659,3.85 -3.29023,7.7875 -4.45253,8.75 -3.33809,2.76426 -8.54127,2.25429 -11.96863,-1.17308 z M 682.27783,95.25 c 0.21772,-0.4125 -2.1731,-8.625 -5.31294,-18.25 -3.13984,-9.625 -5.96922,-16.825 -6.2875,-16 C 668.94766,65.483537 660,93.829141 660,94.825283 c 0,1.325139 21.58537,1.736654 22.27783,0.424717 z"
       id="path6" />
    <path
       style="fill:#3ba951"
       d="M 71.03933,170.90004 C 38.450264,165.89613 11.93858,141.23926 2.8700469,107.5 -0.18140086,96.147164 -0.19107449,74.920727 2.8499945,63.5 5.6385914,53.027431 12.629654,39.055413 18.974101,31.275095 29.549935,18.305747 46.082762,7.9828248 63.790034,3.2925005 77.301805,-0.28651378 97.693575,-0.50891786 109.29149,2.7962362 c 23.43615,6.6787968 42.60132,23.1843558 54.63713,47.0549548 1.76128,3.493154 3.06037,6.486506 2.88686,6.651892 -1.36874,1.304638 -53.21317,19.465879 -53.74,18.825263 -0.37467,-0.45559 -2.59648,-3.379337 -4.93737,-6.497216 -2.34088,-3.117878 -6.76104,-7.392878 -9.822581,-9.5 -5.407735,-3.721904 -5.812321,-3.830505 -14.190982,-3.809197 -6.971073,0.01773 -9.434015,0.450268 -12.846743,2.256139 -6.37025,3.370866 -11.113525,7.976208 -14.040191,13.631908 -2.182428,4.217483 -2.630411,6.404504 -2.613347,12.758175 0.01771,6.593001 0.472452,8.586007 3.243302,14.214403 5.347453,10.862222 13.284061,15.618182 26.060571,15.616652 8.356884,-0.001 16.676891,-3.73811 23.067271,-10.36114 2.47247,-2.56249 5.29592,-4.913146 6.27432,-5.223678 0.9784,-0.310532 13.50723,3.344728 27.84185,8.122798 29.72856,9.90925 27.68207,7.97568 20.92955,19.77466 -12.51962,21.87607 -33.1199,37.43381 -57.17016,43.17606 -8.202348,1.95839 -25.556408,2.68275 -33.83164,1.41213 z m 161.74114,-39.9304 C 216.55666,128.23633 202.46754,114.20307 198.9537,97.276978 197.25335,89.086433 198.20517,74.772087 200.91635,67.760789 207.26196,51.350583 220.23468,41.608625 237.5,40.28802 250.52882,39.291461 261.57418,43.627099 270.76576,53.345837 279.39456,62.469528 283,72.115171 283,86.076166 c 0,10.790928 -2.50564,19.475574 -7.95542,27.573764 -6.39452,9.50206 -15.86965,15.44376 -27.72381,17.38519 -6.52788,1.0691 -7.84097,1.06319 -14.5403,-0.0655 z m 19.31573,-19.57658 c 7.67292,-4.44237 12.63251,-16.726059 11.65749,-28.872731 -1.38515,-17.256112 -13.56485,-27.894962 -28.18844,-24.622344 -6.74884,1.510322 -11.74143,5.724071 -15.25169,12.872425 -2.48966,5.069989 -2.81356,6.831388 -2.81356,15.300295 0,8.672741 0.28265,10.123382 3.01254,15.461255 1.92336,3.76082 4.45421,6.90288 7,8.69051 6.86982,4.82392 17.40697,5.32567 24.58366,1.17059 z M 311,131.39195 c -14.19187,-1.61587 -23,-6.90285 -23,-13.80548 0,-4.60745 3.61364,-8.58647 7.798,-8.58647 1.58889,0 5.47568,0.88998 8.63731,1.97774 12.99044,4.46937 21.00012,3.37105 24.1894,-3.31694 3.53332,-7.40946 0.14617,-10.716127 -16.12471,-15.741529 -17.76522,-5.486945 -23.82953,-11.420501 -23.89051,-23.375409 -0.0414,-8.123077 1.81379,-13.012985 7.06843,-18.630614 7.6296,-8.156666 18.88612,-11.354089 31.55588,-8.963477 7.83413,1.478195 13.82431,4.691425 15.58438,8.359716 1.86897,3.895261 -0.0156,9.224145 -3.98884,11.278767 -2.78197,1.438609 -3.53318,1.392764 -10.15988,-0.620035 -11.11725,-3.376761 -18.18833,-1.74841 -20.08247,4.624653 -1.22533,4.122755 2.52238,6.872206 14.67703,10.767606 6.23278,1.997519 13.40872,4.948661 15.94653,6.558092 12.58956,7.984068 14.44626,27.23731 3.7937,39.33926 C 336.36026,128.8058 323.64589,132.8318 311,131.39195 Z m 78.78047,-0.37032 C 378.84994,129.05969 366.85919,120.73497 361.2998,111.2486 355.31406,101.0347 353.18878,84.359081 356.36135,72.5 362.02434,51.331764 379.6092,38.661258 401,40.336285 c 14.51154,1.13634 23,6.143176 23,13.566324 C 424,58.325282 420.75164,62 416.8421,62 c -1.39095,0 -5.14489,-0.9 -8.3421,-2 -14.24944,-4.902525 -26.37159,-0.0855 -32.17935,12.787227 -2.34058,5.187811 -2.32548,21.269513 0.0249,26.485049 5.94401,13.190094 19.3918,17.918644 33.37223,11.734434 9.05381,-4.00493 15.28226,-1.39339 15.28226,6.40774 0,5.05895 -4.70574,9.82675 -11.76913,11.92435 -6.67763,1.98304 -17.465,2.75716 -23.4504,1.68283 z m 49.52189,-1.03342 c -5.19493,-2.09207 -5.39345,-3.87152 -5.08632,-45.591644 L 434.5,45.825138 l 2.80576,-2.412569 c 4.19909,-3.610632 9.74484,-3.329583 13.10535,0.664156 2.53209,3.00922 2.58889,3.404152 2.58889,18 V 77 H 472.5 492 V 61.923077 46.846154 l 2.92308,-2.923077 c 3.76173,-3.761735 8.75857,-3.961145 12.77116,-0.509661 L 510.5,45.826833 v 40.058806 40.058801 l -2.27778,2.27778 c -3.18247,3.18247 -10.25946,3.1839 -13.44444,0.003 -2.14938,-2.14681 -2.29575,-3.17561 -2.59659,-18.25 L 491.86238,94 H 472.5 453.13762 l -0.31881,16.08892 -0.31881,16.08891 -2.80576,2.41109 c -2.87782,2.473 -6.51092,2.9622 -10.39188,1.39929 z M 524.92308,128.07692 522,125.15385 V 86.511182 c 0,-39.478381 0.16578,-41.352094 3.91334,-44.229379 2.73817,-2.102297 8.68469,-1.53154 11.7809,1.130749 l 2.80576,2.412552 0.28425,38.037599 c 0.23803,31.853227 0.0427,38.615787 -1.20163,41.593807 -2.5481,6.09846 -9.87229,7.40767 -14.65954,2.62041 z m 31.09663,1.68796 c -4.95522,-2.60577 -5.04517,-3.45568 -4.77327,-45.102294 L 551.5,45.825171 l 2.80576,-2.412585 c 3.20578,-2.756548 8.15861,-3.176485 11.32301,-0.960049 1.14059,0.798895 11.02821,13.409299 21.97251,28.02312 L 607.5,97.046241 608,71.434764 l 0.5,-25.611478 2.80576,-2.411643 c 3.71051,-3.189297 8.67946,-3.188585 12.38848,0.0018 L 626.5,45.826833 v 39.981596 c 0,37.526381 -0.11383,40.107381 -1.85369,42.029901 -2.43796,2.69392 -7.07897,3.63931 -10.63494,2.16638 -1.95495,-0.80977 -9.27224,-9.65224 -23.18395,-28.01632 L 570.5,75.155281 570,100.55191 c -0.47158,23.95293 -0.61709,25.51361 -2.55978,27.45437 -2.60171,2.59912 -8.18673,3.45913 -11.42051,1.7586 z m 78.90337,-1.68796 C 633.31538,126.46923 632,124.09039 632,122.79061 c 0,-2.89788 25.43419,-72.055497 28.11029,-76.434148 2.16481,-3.542079 7.281,-6.358313 11.54084,-6.352724 3.42672,0.0045 8.67745,3.036136 10.73568,6.198521 C 684.14383,48.901838 710,120.28996 710,122.44145 c 0,2.77858 -2.22771,6.34127 -4.65732,7.44828 -6.72378,3.06355 -11.32712,-0.0946 -14.50075,-9.94843 l -2.24992,-6.98579 -17.46358,0.27225 -17.46358,0.27224 -2.42277,7.27104 c -1.91352,5.74271 -3.02393,7.58191 -5.28277,8.75 -4.39127,2.27082 -7.76242,1.82969 -11.03623,-1.44412 z m 47.73114,-33.535626 c -0.30787,-0.802289 -2.91545,-8.907846 -5.79464,-18.01235 C 673.9804,67.42444 671.30266,60.318358 670.90905,60.73765 670.08285,61.617755 660,93.1604 660,94.864916 660,95.646499 663.61478,96 671.60699,96 c 9.76045,0 11.51794,-0.232064 11.04723,-1.458706 z"
       id="path5" />
    <path
       style="fill:#595959"
       d="M 70.5,170.51796 C 37.451955,165.21308 11.964104,141.248 2.8749584,106.93317 -0.21881806,95.253037 -0.22982837,77.197259 2.8491579,64.623007 11.521816,29.204796 39.24631,5.5742013 77.5,0.99537916 93.872512,-0.96434867 108.35554,1.2476344 122.39242,7.8517666 138.53469,15.44645 154.06973,30.936646 162.98749,48.329652 l 4.14193,8.078326 -2.31471,0.868984 C 136.68009,67.839199 113.51459,75.887715 113.0021,75.278506 112.64189,74.850327 110.66882,72.155317 108.61749,69.289594 98.739731,55.49031 85.827887,51.374901 71.950534,57.602686 60.146557,62.899996 52.978268,74.649565 54.362902,86.430639 c 1.027226,8.740085 3.616015,14.643511 8.612658,19.640161 6.036284,6.03628 12.498472,8.28087 22.350054,7.7631 8.835593,-0.46437 15.012846,-3.26774 21.504996,-9.7594 2.56816,-2.56798 5.52881,-4.99875 6.5792,-5.401717 1.26433,-0.485034 10.65601,2.182647 27.78706,7.892837 24.40245,8.13392 25.83942,8.74829 25.2135,10.77994 -3.24967,10.54809 -18.40041,29.24559 -30.91037,38.14645 -11.85131,8.43223 -22.7418,12.8029 -37.5,15.04983 -11.236259,1.71071 -16.723586,1.70595 -27.5,-0.0239 z m 29.039423,-6.0528 c 17.573967,-3.06464 31.735647,-10.7507 44.580907,-24.19568 7.89334,-8.26187 15.70519,-19.89553 14.25029,-21.22201 -0.47884,-0.43657 -10.3963,-3.95361 -22.0388,-7.81564 l -21.16818,-7.02188 -4.92734,4.74932 c -7.00189,6.74892 -14.892939,10.26109 -24.321276,10.82496 C 64.162293,121.08519 48.808952,106.33437 48.669111,84 48.610099,74.575036 51.153372,68.028458 57.563778,61.104455 65.416294,52.622801 72.664929,49.5 84.5,49.5 c 8.07165,0 9.542654,0.300663 14.260821,2.914819 4.963969,2.750344 13.651929,10.903642 15.882399,14.904987 0.94272,1.691197 2.49295,1.277476 21.9356,-5.854113 11.50665,-4.220656 21.24852,-7.976904 21.64859,-8.347219 0.40008,-0.370314 -0.88822,-3.360963 -2.86288,-6.645887 C 143.7027,27.07272 126.63159,13.598602 107,8.2987769 97.957947,5.8577471 78.21648,5.8773505 67.689466,8.3378125 51.234675,12.183765 38.708193,18.999677 27.878274,29.999891 6.2932406,51.924335 0.12549624,86.750011 12.431778,117.21729 c 4.104296,10.16122 8.803801,17.00382 18.068222,26.3078 11.902394,11.95322 23.127823,17.99118 39,20.97741 9.572615,1.80102 19.56876,1.78859 30.039423,-0.0373 z M 232.78047,130.96964 C 216.55666,128.23633 202.46754,114.20307 198.9537,97.276978 197.25335,89.086433 198.20517,74.772087 200.91635,67.760789 207.26196,51.350583 220.23468,41.608625 237.5,40.28802 250.52882,39.291461 261.57418,43.627099 270.76576,53.345837 279.39456,62.469528 283,72.115171 283,86.076166 c 0,10.790928 -2.50564,19.475574 -7.95542,27.573764 -6.39452,9.50206 -15.86965,15.44376 -27.72381,17.38519 -6.52788,1.0691 -7.84097,1.06319 -14.5403,-0.0655 z m 19.31573,-19.57658 c 7.67292,-4.44237 12.63251,-16.726059 11.65749,-28.872731 -1.38515,-17.256112 -13.56485,-27.894962 -28.18844,-24.622344 -6.74884,1.510322 -11.74143,5.724071 -15.25169,12.872425 -2.48966,5.069989 -2.81356,6.831388 -2.81356,15.300295 0,8.672741 0.28265,10.123382 3.01254,15.461255 1.92336,3.76082 4.45421,6.90288 7,8.69051 6.86982,4.82392 17.40697,5.32567 24.58366,1.17059 z M 311,131.39195 c -14.19187,-1.61587 -23,-6.90285 -23,-13.80548 0,-4.60745 3.61364,-8.58647 7.798,-8.58647 1.58889,0 5.47568,0.88998 8.63731,1.97774 12.99044,4.46937 21.00012,3.37105 24.1894,-3.31694 3.53332,-7.40946 0.14617,-10.716127 -16.12471,-15.741529 -17.76522,-5.486945 -23.82953,-11.420501 -23.89051,-23.375409 -0.0414,-8.123077 1.81379,-13.012985 7.06843,-18.630614 7.6296,-8.156666 18.88612,-11.354089 31.55588,-8.963477 7.83413,1.478195 13.82431,4.691425 15.58438,8.359716 1.86897,3.895261 -0.0156,9.224145 -3.98884,11.278767 -2.78197,1.438609 -3.53318,1.392764 -10.15988,-0.620035 -11.11725,-3.376761 -18.18833,-1.74841 -20.08247,4.624653 -1.22533,4.122755 2.52238,6.872206 14.67703,10.767606 6.23278,1.997519 13.40872,4.948661 15.94653,6.558092 12.58956,7.984068 14.44626,27.23731 3.7937,39.33926 C 336.36026,128.8058 323.64589,132.8318 311,131.39195 Z m 78.78047,-0.37032 C 378.84994,129.05969 366.85919,120.73497 361.2998,111.2486 355.31406,101.0347 353.18878,84.359081 356.36135,72.5 362.02434,51.331764 379.6092,38.661258 401,40.336285 c 14.51154,1.13634 23,6.143176 23,13.566324 C 424,58.325282 420.75164,62 416.8421,62 c -1.39095,0 -5.14489,-0.9 -8.3421,-2 -14.24944,-4.902525 -26.37159,-0.0855 -32.17935,12.787227 -2.34058,5.187811 -2.32548,21.269513 0.0249,26.485049 5.94401,13.190094 19.3918,17.918644 33.37223,11.734434 9.05381,-4.00493 15.28226,-1.39339 15.28226,6.40774 0,5.05895 -4.70574,9.82675 -11.76913,11.92435 -6.67763,1.98304 -17.465,2.75716 -23.4504,1.68283 z m 49.52189,-1.03342 c -5.19493,-2.09207 -5.39345,-3.87152 -5.08632,-45.591644 L 434.5,45.825138 l 2.80576,-2.412569 c 4.19909,-3.610632 9.74484,-3.329583 13.10535,0.664156 2.53209,3.00922 2.58889,3.404152 2.58889,18 V 77 H 472.5 492 V 61.923077 46.846154 l 2.92308,-2.923077 c 3.76173,-3.761735 8.75857,-3.961145 12.77116,-0.509661 L 510.5,45.826833 v 40.058806 40.058801 l -2.27778,2.27778 c -3.18247,3.18247 -10.25946,3.1839 -13.44444,0.003 -2.14938,-2.14681 -2.29575,-3.17561 -2.59659,-18.25 L 491.86238,94 H 472.5 453.13762 l -0.31881,16.08892 -0.31881,16.08891 -2.80576,2.41109 c -2.87782,2.473 -6.51092,2.9622 -10.39188,1.39929 z M 524.92308,128.07692 522,125.15385 V 86.511182 c 0,-39.478381 0.16578,-41.352094 3.91334,-44.229379 2.73817,-2.102297 8.68469,-1.53154 11.7809,1.130749 l 2.80576,2.412552 0.28425,38.037599 c 0.23803,31.853227 0.0427,38.615787 -1.20163,41.593807 -2.5481,6.09846 -9.87229,7.40767 -14.65954,2.62041 z m 31.09663,1.68796 c -4.95522,-2.60577 -5.04517,-3.45568 -4.77327,-45.102294 L 551.5,45.825171 l 2.80576,-2.412585 c 3.20578,-2.756548 8.15861,-3.176485 11.32301,-0.960049 1.14059,0.798895 11.02821,13.409299 21.97251,28.02312 L 607.5,97.046241 608,71.434764 l 0.5,-25.611478 2.80576,-2.411643 c 3.71051,-3.189297 8.67946,-3.188585 12.38848,0.0018 L 626.5,45.826833 v 39.981596 c 0,37.526381 -0.11383,40.107381 -1.85369,42.029901 -2.43796,2.69392 -7.07897,3.63931 -10.63494,2.16638 -1.95495,-0.80977 -9.27224,-9.65224 -23.18395,-28.01632 L 570.5,75.155281 570,100.55191 c -0.47158,23.95293 -0.61709,25.51361 -2.55978,27.45437 -2.60171,2.59912 -8.18673,3.45913 -11.42051,1.7586 z m 78.90337,-1.68796 C 633.31538,126.46923 632,124.09039 632,122.79061 c 0,-2.89788 25.43419,-72.055497 28.11029,-76.434148 2.16481,-3.542079 7.281,-6.358313 11.54084,-6.352724 3.42672,0.0045 8.67745,3.036136 10.73568,6.198521 C 684.14383,48.901838 710,120.28996 710,122.44145 c 0,2.77858 -2.22771,6.34127 -4.65732,7.44828 -6.72378,3.06355 -11.32712,-0.0946 -14.50075,-9.94843 l -2.24992,-6.98579 -17.46358,0.27225 -17.46358,0.27224 -2.42277,7.27104 c -1.91352,5.74271 -3.02393,7.58191 -5.28277,8.75 -4.39127,2.27082 -7.76242,1.82969 -11.03623,-1.44412 z m 47.73114,-33.535626 c -0.30787,-0.802289 -2.91545,-8.907846 -5.79464,-18.01235 C 673.9804,67.42444 671.30266,60.318358 670.90905,60.73765 670.08285,61.617755 660,93.1604 660,94.864916 660,95.646499 663.61478,96 671.60699,96 c 9.76045,0 11.51794,-0.232064 11.04723,-1.458706 z"
       id="path4" />
    <path
       style="fill:#177748"
       d="M 70.5,170.51796 C 37.451955,165.21308 11.964104,141.248 2.8749584,106.93317 -0.21881806,95.253037 -0.22982837,77.197259 2.8491579,64.623007 11.521816,29.204796 39.24631,5.5742013 77.5,0.99537916 93.872512,-0.96434867 108.35554,1.2476344 122.39242,7.8517666 138.53469,15.44645 154.06973,30.936646 162.98749,48.329652 l 4.14193,8.078326 -2.31471,0.868984 C 136.68009,67.839199 113.51459,75.887715 113.0021,75.278506 112.64189,74.850327 110.66882,72.155317 108.61749,69.289594 98.739731,55.49031 85.827887,51.374901 71.950534,57.602686 60.146557,62.899996 52.978268,74.649565 54.362902,86.430639 c 1.027226,8.740085 3.616015,14.643511 8.612658,19.640161 6.036284,6.03628 12.498472,8.28087 22.350054,7.7631 8.835593,-0.46437 15.012846,-3.26774 21.504996,-9.7594 2.56816,-2.56798 5.52881,-4.99875 6.5792,-5.401717 1.26433,-0.485034 10.65601,2.182647 27.78706,7.892837 24.40245,8.13392 25.83942,8.74829 25.2135,10.77994 -3.24967,10.54809 -18.40041,29.24559 -30.91037,38.14645 -11.85131,8.43223 -22.7418,12.8029 -37.5,15.04983 -11.236259,1.71071 -16.723586,1.70595 -27.5,-0.0239 z m 29.039423,-6.0528 c 17.573967,-3.06464 31.735647,-10.7507 44.580907,-24.19568 7.89334,-8.26187 15.70519,-19.89553 14.25029,-21.22201 -0.47884,-0.43657 -10.3963,-3.95361 -22.0388,-7.81564 l -21.16818,-7.02188 -4.92734,4.74932 c -7.00189,6.74892 -14.892939,10.26109 -24.321276,10.82496 C 64.162293,121.08519 48.808952,106.33437 48.669111,84 48.610099,74.575036 51.153372,68.028458 57.563778,61.104455 65.416294,52.622801 72.664929,49.5 84.5,49.5 c 8.07165,0 9.542654,0.300663 14.260821,2.914819 4.963969,2.750344 13.651929,10.903642 15.882399,14.904987 0.94272,1.691197 2.49295,1.277476 21.9356,-5.854113 11.50665,-4.220656 21.24852,-7.976904 21.64859,-8.347219 0.40008,-0.370314 -0.88822,-3.360963 -2.86288,-6.645887 C 143.7027,27.07272 126.63159,13.598602 107,8.2987769 97.957947,5.8577471 78.21648,5.8773505 67.689466,8.3378125 51.234675,12.183765 38.708193,18.999677 27.878274,29.999891 6.2932406,51.924335 0.12549624,86.750011 12.431778,117.21729 c 4.104296,10.16122 8.803801,17.00382 18.068222,26.3078 11.902394,11.95322 23.127823,17.99118 39,20.97741 9.572615,1.80102 19.56876,1.78859 30.039423,-0.0373 z M 226.90894,129.158 C 216.12015,125.60124 207.83875,118.15386 202.87334,107.54303 191.66537,83.592138 200.71868,54.343188 222.4145,44.410511 251.83006,30.943625 283,52.34053 283,86 c 0,18.21231 -9.22014,34.1429 -23.84517,41.19976 -5.90606,2.84979 -7.77998,3.2443 -16.65483,3.50627 -7.64379,0.22564 -11.31737,-0.13911 -15.59106,-1.54803 z M 247.7496,113.48172 C 257.58169,110.5619 264,99.73396 264,86.066667 c 0,-17.262681 -9.52224,-29.022743 -23.5,-29.022743 -14.66807,0 -24.30327,12.945743 -23.29148,31.294161 0.7218,13.089695 6.71853,22.286305 16.51994,25.335065 5.19321,1.61536 8.06924,1.5761 14.02114,-0.19143 z m 54.33177,15.92981 c -12.87997,-3.4629 -17.67249,-10.97425 -11.15829,-17.48845 3.5586,-3.55861 4.69334,-3.59132 14.67575,-0.42308 4.33231,1.375 9.59223,2.5 11.68871,2.5 C 324.4994,114 330,109.3989 330,103.36639 330,98.669622 325.7819,95.708899 313.77687,91.979221 301.64203,88.209216 297.44545,86.183239 293.81362,82.341583 290.14463,78.460629 288.99827,74.96305 289.00977,67.6849 289.0351,51.648062 301.48661,40.595836 319.5,40.621128 c 17.86672,0.02509 28.46294,8.799797 21.42742,17.744013 C 338.49268,61.460408 334.5399,61.80741 328,59.5 325.6617,58.675 321.52051,58 318.79735,58 c -4.13904,0 -5.43067,0.479478 -7.87427,2.923077 C 309.31538,62.530769 308,64.518965 308,65.341289 c 0,4.616884 2.40612,6.243319 15.20342,10.276885 16.50622,5.202574 23.47298,10.695956 25.78449,20.33142 3.46763,14.454716 -5.0993,29.333286 -19.32171,33.556896 -6.33437,1.8811 -20.41532,1.83263 -27.58483,-0.095 z m 81.20556,-0.34994 C 366.08944,122.74517 355,105.99651 355,86.339122 c 0,-23.709735 13.86985,-41.425205 35.57403,-45.43744 20.07238,-3.710581 40.83023,8.784963 30.97142,18.643773 -2.98839,2.988391 -4.5623,3.038746 -12.1389,0.38837 -4.40278,-1.540139 -7.73631,-1.981542 -13.09353,-1.73375 -9.39088,0.434365 -14.43324,3.726109 -18.80048,12.273291 -2.76002,5.401666 -3.01254,6.739607 -3.01254,15.961259 0,9.412993 0.20132,10.421855 3.10608,15.565375 6.08164,10.76889 17.49047,14.57497 29.89392,9.97285 9.42889,-3.49846 11.9601,-3.60366 14.94273,-0.62103 1.74329,1.74329 2.55727,3.64286 2.55727,5.96787 0,8.22316 -8.84947,12.85134 -25.5,13.33625 -8.92191,0.25983 -11.98484,-0.0414 -16.21307,-1.59435 z m 56.11273,0.51047 c -1.70519,-0.74231 -3.39269,-2.1115 -3.75,-3.04265 C 435.29235,125.59827 435,107.14808 435,85.528996 c 0,-44.427272 -0.21843,-43.153498 7.57955,-44.199428 3.36012,-0.450687 4.56379,-0.110594 6.98978,1.974944 L 452.5,45.823898 452.83975,61.411949 453.1795,77 H 472.5 491.8205 l 0.33975,-15.588051 0.33975,-15.588051 2.93067,-2.519386 c 2.42599,-2.085538 3.62966,-2.425631 6.98978,-1.974944 C 510.2208,42.375815 510,41.08396 510,85.676525 c 0,24.187475 -0.38399,40.172445 -0.99232,41.309135 -1.52203,2.84394 -6.94568,4.28052 -10.92432,2.89356 C 493.01189,128.11129 492,124.47731 492,108.03212 V 94 H 472.5 453 v 13.85078 c 0,16.27733 -0.90569,19.79404 -5.60321,21.75679 -3.99928,1.67101 -4.07784,1.67066 -7.99713,-0.0355 z m 87.91282,-0.0367 c -5.19538,-2.25957 -5.46554,-4.7059 -5.12112,-46.372884 L 522.5,45.825032 l 2.93067,-2.519953 c 2.42619,-2.086175 3.62939,-2.426234 6.98978,-1.975511 7.80742,1.047195 7.58369,-0.272753 7.54775,44.531216 -0.0343,42.703156 0.0461,42.042686 -5.36479,44.099906 -3.36257,1.27844 -3.37529,1.2777 -7.29093,-0.42529 z m 28.97237,-0.0116 c -2.07223,-0.90099 -3.49416,-2.39788 -4,-4.21085 C 551.85318,123.76582 551.5,105.60496 551.5,84.955475 c 0,-41.671898 0.0553,-42.039986 6.53216,-43.462539 6.1362,-1.347736 7.90267,0.395417 29.18123,28.796038 L 607.5,97.365635 608,72.432818 c 0.51779,-25.819983 0.9132,-28.245629 4.95718,-30.4099 2.48566,-1.330287 6.64869,-1.304215 9.19322,0.05757 4.4875,2.401639 4.84995,5.629359 4.84402,43.13739 -0.003,21.840149 -0.41075,36.741249 -1.06906,39.111999 -0.84236,3.03355 -1.82884,4.15027 -4.74442,5.37077 -6.40305,2.6804 -8.36125,0.85698 -30.68094,-28.56924 l -20,-26.367945 -0.5,24.868267 c -0.34177,16.998268 -0.8889,25.547028 -1.72889,27.013088 -0.67589,1.17965 -2.65554,2.64215 -4.39922,3.25 -3.8485,1.34159 -3.62272,1.35263 -7.58704,-0.37104 z m 80.7373,-0.25078 c -6.68488,-3.40793 -6.6042,-3.84757 7.90001,-43.047461 7.17848,-19.400954 13.72365,-36.573721 14.54483,-38.161704 4.89682,-9.469416 17.69349,-10.274681 22.77744,-1.433331 3.09546,5.383247 27.06269,72.697296 27.11032,76.141716 0.0655,4.73453 -3.26411,7.72251 -8.45374,7.58644 -5.21637,-0.13678 -6.40148,-1.40793 -9.73684,-10.44378 L 688.42715,112.5 h -17.37091 -17.37092 l -2.35662,6.98619 c -3.52726,10.45649 -7.56919,13.22149 -14.30655,9.78681 z M 682.74721,94.25 c -3.05329,-10.993246 -11.3047,-35.074591 -11.82089,-34.498704 -0.36909,0.411787 -2.98622,8.044489 -5.81583,16.961561 -2.82962,8.917071 -5.41019,16.904571 -5.73461,17.75 C 658.86505,95.79405 660.42377,96 671.00964,96 c 11.16004,0 12.18133,-0.152268 11.73757,-1.75 z"
       id="path3" />
    <path
       style="fill:#006737"
       d="M 78,171.35049 C 52.390893,168.606 33.325054,158.23658 18.518451,139 1.0470248,116.30131 -4.0844991,85.117757 5.1069199,57.5 9.0271852,45.720651 14.596486,36.483564 23.307325,27.313316 40.04675,9.6910552 61.587982,0.86865776 88,0.8178732 c 23.29816,-0.0447973 40.9196,7.299413 57.22999,23.8521398 7.79607,7.9119 10.46436,11.360422 15.777,20.390338 7.08718,12.046089 8.87583,10.195989 -20.194,20.887765 -13.92214,5.120514 -25.81755,9.502853 -26.43423,9.738532 -0.61668,0.235679 -2.27238,-1.535787 -3.67935,-3.93659 C 105.88781,63.539672 95.907302,56.011242 87.823974,54.4948 80.404636,53.102924 67.916996,57.952897 61.502953,64.717408 56.079123,70.4376 54.506529,74.797465 54.547761,84 c 0.04455,9.943722 2.359526,16.25068 8.144193,22.1882 8.412508,8.6348 22.995492,10.70172 34.733775,4.92298 3.585561,-1.76517 8.159211,-5.10697 10.572141,-7.7247 2.339,-2.53751 5.20884,-4.656234 6.37743,-4.708276 1.74221,-0.07759 51.2873,15.880786 52.48953,16.906776 0.73508,0.62732 -7.98921,15.72699 -12.27149,21.23904 -13.26231,17.07088 -30.36187,28.0715 -50.59334,32.54809 -7.058347,1.56179 -20.408419,2.57762 -26,1.97838 z m 30.5,-8.33696 c 14.26901,-4.57242 27.35079,-12.70588 36.51518,-22.70293 C 149.90416,134.97741 160,120.66315 160,119.06455 c 0,-0.37336 -10.11029,-3.97771 -22.46731,-8.00967 l -22.4673,-7.33084 -5.99812,5.55319 C 101.32576,116.44451 94.239051,119.29604 84,119.36374 74.99476,119.42327 69.958105,118.06987 63.659973,113.89817 51.878945,106.09474 46.096871,88.138899 50.543442,73.165671 55.126493,57.732863 75.242083,46.219734 91.012827,50.003077 97.752393,51.619874 106.90778,57.849873 111.61488,64.022237 113.70273,66.760007 115.83769,69 116.35923,69 118.85447,69 158.99998,53.558988 158.99987,52.599299 158.9996,50.46173 149.29684,36.415374 143.50809,30.172389 134.15703,20.087573 123.85275,13.376386 110.99324,8.9954318 101.76714,5.8523022 81.594773,5.0931005 69.918597,7.4495579 53.199034,10.823859 38.531398,18.531194 27.761734,29.601531 20.732523,36.826987 17.83259,41.02448 13.451574,50.314703 8.3462004,61.140969 6.807812,68.039422 6.2740968,82.5 c -0.4043433,10.955351 -0.1430626,14.415526 1.6612387,22 6.9826855,29.35208 29.2106095,52.50057 57.2439085,59.61464 10.540977,2.67501 33.345595,2.09537 43.320756,-1.10111 z M 226.90894,129.158 C 216.12015,125.60124 207.83875,118.15386 202.87334,107.54303 191.66537,83.592138 200.71868,54.343188 222.4145,44.410511 251.83006,30.943625 283,52.34053 283,86 c 0,18.21231 -9.22014,34.1429 -23.84517,41.19976 -5.90606,2.84979 -7.77998,3.2443 -16.65483,3.50627 -7.64379,0.22564 -11.31737,-0.13911 -15.59106,-1.54803 z M 247.7496,113.48172 C 257.58169,110.5619 264,99.73396 264,86.066667 c 0,-17.262681 -9.52224,-29.022743 -23.5,-29.022743 -14.66807,0 -24.30327,12.945743 -23.29148,31.294161 0.7218,13.089695 6.71853,22.286305 16.51994,25.335065 5.19321,1.61536 8.06924,1.5761 14.02114,-0.19143 z m 54.33177,15.92981 c -12.87997,-3.4629 -17.67249,-10.97425 -11.15829,-17.48845 3.5586,-3.55861 4.69334,-3.59132 14.67575,-0.42308 4.33231,1.375 9.59223,2.5 11.68871,2.5 C 324.4994,114 330,109.3989 330,103.36639 330,98.669622 325.7819,95.708899 313.77687,91.979221 301.64203,88.209216 297.44545,86.183239 293.81362,82.341583 290.14463,78.460629 288.99827,74.96305 289.00977,67.6849 289.0351,51.648062 301.48661,40.595836 319.5,40.621128 c 17.86672,0.02509 28.46294,8.799797 21.42742,17.744013 C 338.49268,61.460408 334.5399,61.80741 328,59.5 325.6617,58.675 321.52051,58 318.79735,58 c -4.13904,0 -5.43067,0.479478 -7.87427,2.923077 C 309.31538,62.530769 308,64.518965 308,65.341289 c 0,4.616884 2.40612,6.243319 15.20342,10.276885 16.50622,5.202574 23.47298,10.695956 25.78449,20.33142 3.46763,14.454716 -5.0993,29.333286 -19.32171,33.556896 -6.33437,1.8811 -20.41532,1.83263 -27.58483,-0.095 z m 81.20556,-0.34994 C 366.08944,122.74517 355,105.99651 355,86.339122 c 0,-23.709735 13.86985,-41.425205 35.57403,-45.43744 20.07238,-3.710581 40.83023,8.784963 30.97142,18.643773 -2.98839,2.988391 -4.5623,3.038746 -12.1389,0.38837 -4.40278,-1.540139 -7.73631,-1.981542 -13.09353,-1.73375 -9.39088,0.434365 -14.43324,3.726109 -18.80048,12.273291 -2.76002,5.401666 -3.01254,6.739607 -3.01254,15.961259 0,9.412993 0.20132,10.421855 3.10608,15.565375 6.08164,10.76889 17.49047,14.57497 29.89392,9.97285 9.42889,-3.49846 11.9601,-3.60366 14.94273,-0.62103 1.74329,1.74329 2.55727,3.64286 2.55727,5.96787 0,8.22316 -8.84947,12.85134 -25.5,13.33625 -8.92191,0.25983 -11.98484,-0.0414 -16.21307,-1.59435 z m 56.11273,0.51047 c -1.70519,-0.74231 -3.39269,-2.1115 -3.75,-3.04265 C 435.29235,125.59827 435,107.14808 435,85.528996 c 0,-44.427272 -0.21843,-43.153498 7.57955,-44.199428 3.36012,-0.450687 4.56379,-0.110594 6.98978,1.974944 L 452.5,45.823898 452.83975,61.411949 453.1795,77 H 472.5 491.8205 l 0.33975,-15.588051 0.33975,-15.588051 2.93067,-2.519386 c 2.42599,-2.085538 3.62966,-2.425631 6.98978,-1.974944 C 510.2208,42.375815 510,41.08396 510,85.676525 c 0,24.187475 -0.38399,40.172445 -0.99232,41.309135 -1.52203,2.84394 -6.94568,4.28052 -10.92432,2.89356 C 493.01189,128.11129 492,124.47731 492,108.03212 V 94 H 472.5 453 v 13.85078 c 0,16.27733 -0.90569,19.79404 -5.60321,21.75679 -3.99928,1.67101 -4.07784,1.67066 -7.99713,-0.0355 z m 87.91282,-0.0367 c -5.19538,-2.25957 -5.46554,-4.7059 -5.12112,-46.372884 L 522.5,45.825032 l 2.93067,-2.519953 c 2.42619,-2.086175 3.62939,-2.426234 6.98978,-1.975511 7.80742,1.047195 7.58369,-0.272753 7.54775,44.531216 -0.0343,42.703156 0.0461,42.042686 -5.36479,44.099906 -3.36257,1.27844 -3.37529,1.2777 -7.29093,-0.42529 z m 28.97237,-0.0116 c -2.07223,-0.90099 -3.49416,-2.39788 -4,-4.21085 C 551.85318,123.76582 551.5,105.60496 551.5,84.955475 c 0,-41.671898 0.0553,-42.039986 6.53216,-43.462539 6.1362,-1.347736 7.90267,0.395417 29.18123,28.796038 L 607.5,97.365635 608,72.432818 c 0.51779,-25.819983 0.9132,-28.245629 4.95718,-30.4099 2.48566,-1.330287 6.64869,-1.304215 9.19322,0.05757 4.4875,2.401639 4.84995,5.629359 4.84402,43.13739 -0.003,21.840149 -0.41075,36.741249 -1.06906,39.111999 -0.84236,3.03355 -1.82884,4.15027 -4.74442,5.37077 -6.40305,2.6804 -8.36125,0.85698 -30.68094,-28.56924 l -20,-26.367945 -0.5,24.868267 c -0.34177,16.998268 -0.8889,25.547028 -1.72889,27.013088 -0.67589,1.17965 -2.65554,2.64215 -4.39922,3.25 -3.8485,1.34159 -3.62272,1.35263 -7.58704,-0.37104 z m 80.7373,-0.25078 c -6.68488,-3.40793 -6.6042,-3.84757 7.90001,-43.047461 7.17848,-19.400954 13.72365,-36.573721 14.54483,-38.161704 4.89682,-9.469416 17.69349,-10.274681 22.77744,-1.433331 3.09546,5.383247 27.06269,72.697296 27.11032,76.141716 0.0655,4.73453 -3.26411,7.72251 -8.45374,7.58644 -5.21637,-0.13678 -6.40148,-1.40793 -9.73684,-10.44378 L 688.42715,112.5 h -17.37091 -17.37092 l -2.35662,6.98619 c -3.52726,10.45649 -7.56919,13.22149 -14.30655,9.78681 z M 682.74721,94.25 c -3.05329,-10.993246 -11.3047,-35.074591 -11.82089,-34.498704 -0.36909,0.411787 -2.98622,8.044489 -5.81583,16.961561 -2.82962,8.917071 -5.41019,16.904571 -5.73461,17.75 C 658.86505,95.79405 660.42377,96 671.00964,96 c 11.16004,0 12.18133,-0.152268 11.73757,-1.75 z"
       id="path2" />
    <path
       style="fill:#101010"
       d="M 226.90894,129.158 C 216.12015,125.60124 207.83875,118.15386 202.87334,107.54303 191.66537,83.592138 200.71868,54.343188 222.4145,44.410511 251.83006,30.943625 283,52.34053 283,86 c 0,18.21231 -9.22014,34.1429 -23.84517,41.19976 -5.90606,2.84979 -7.77998,3.2443 -16.65483,3.50627 -7.64379,0.22564 -11.31737,-0.13911 -15.59106,-1.54803 z M 247.7496,113.48172 C 257.58169,110.5619 264,99.73396 264,86.066667 c 0,-17.262681 -9.52224,-29.022743 -23.5,-29.022743 -14.66807,0 -24.30327,12.945743 -23.29148,31.294161 0.7218,13.089695 6.71853,22.286305 16.51994,25.335065 5.19321,1.61536 8.06924,1.5761 14.02114,-0.19143 z m 54.33177,15.92981 c -12.87997,-3.4629 -17.67249,-10.97425 -11.15829,-17.48845 3.5586,-3.55861 4.69334,-3.59132 14.67575,-0.42308 4.33231,1.375 9.59223,2.5 11.68871,2.5 C 324.4994,114 330,109.3989 330,103.36639 330,98.669622 325.7819,95.708899 313.77687,91.979221 301.64203,88.209216 297.44545,86.183239 293.81362,82.341583 290.14463,78.460629 288.99827,74.96305 289.00977,67.6849 289.0351,51.648062 301.48661,40.595836 319.5,40.621128 c 17.86672,0.02509 28.46294,8.799797 21.42742,17.744013 C 338.49268,61.460408 334.5399,61.80741 328,59.5 325.6617,58.675 321.52051,58 318.79735,58 c -4.13904,0 -5.43067,0.479478 -7.87427,2.923077 C 309.31538,62.530769 308,64.518965 308,65.341289 c 0,4.616884 2.40612,6.243319 15.20342,10.276885 16.50622,5.202574 23.47298,10.695956 25.78449,20.33142 3.46763,14.454716 -5.0993,29.333286 -19.32171,33.556896 -6.33437,1.8811 -20.41532,1.83263 -27.58483,-0.095 z m 81.20556,-0.34994 C 366.08944,122.74517 355,105.99651 355,86.339122 c 0,-23.709735 13.86985,-41.425205 35.57403,-45.43744 20.07238,-3.710581 40.83023,8.784963 30.97142,18.643773 -2.98839,2.988391 -4.5623,3.038746 -12.1389,0.38837 -4.40278,-1.540139 -7.73631,-1.981542 -13.09353,-1.73375 -9.39088,0.434365 -14.43324,3.726109 -18.80048,12.273291 -2.76002,5.401666 -3.01254,6.739607 -3.01254,15.961259 0,9.412993 0.20132,10.421855 3.10608,15.565375 6.08164,10.76889 17.49047,14.57497 29.89392,9.97285 9.42889,-3.49846 11.9601,-3.60366 14.94273,-0.62103 1.74329,1.74329 2.55727,3.64286 2.55727,5.96787 0,8.22316 -8.84947,12.85134 -25.5,13.33625 -8.92191,0.25983 -11.98484,-0.0414 -16.21307,-1.59435 z m 56.11273,0.51047 c -1.70519,-0.74231 -3.39269,-2.1115 -3.75,-3.04265 C 435.29235,125.59827 435,107.14808 435,85.528996 c 0,-44.427272 -0.21843,-43.153498 7.57955,-44.199428 3.36012,-0.450687 4.56379,-0.110594 6.98978,1.974944 L 452.5,45.823898 452.83975,61.411949 453.1795,77 H 472.5 491.8205 l 0.33975,-15.588051 0.33975,-15.588051 2.93067,-2.519386 c 2.42599,-2.085538 3.62966,-2.425631 6.98978,-1.974944 C 510.2208,42.375815 510,41.08396 510,85.676525 c 0,24.187475 -0.38399,40.172445 -0.99232,41.309135 -1.52203,2.84394 -6.94568,4.28052 -10.92432,2.89356 C 493.01189,128.11129 492,124.47731 492,108.03212 V 94 H 472.5 453 v 13.85078 c 0,16.27733 -0.90569,19.79404 -5.60321,21.75679 -3.99928,1.67101 -4.07784,1.67066 -7.99713,-0.0355 z m 87.91282,-0.0367 c -5.19538,-2.25957 -5.46554,-4.7059 -5.12112,-46.372884 L 522.5,45.825032 l 2.93067,-2.519953 c 2.42619,-2.086175 3.62939,-2.426234 6.98978,-1.975511 7.80742,1.047195 7.58369,-0.272753 7.54775,44.531216 -0.0343,42.703156 0.0461,42.042686 -5.36479,44.099906 -3.36257,1.27844 -3.37529,1.2777 -7.29093,-0.42529 z m 28.97237,-0.0116 c -2.07223,-0.90099 -3.49416,-2.39788 -4,-4.21085 C 551.85318,123.76582 551.5,105.60496 551.5,84.955475 c 0,-41.671898 0.0553,-42.039986 6.53216,-43.462539 6.1362,-1.347736 7.90267,0.395417 29.18123,28.796038 L 607.5,97.365635 608,72.432818 c 0.51779,-25.819983 0.9132,-28.245629 4.95718,-30.4099 2.48566,-1.330287 6.64869,-1.304215 9.19322,0.05757 4.4875,2.401639 4.84995,5.629359 4.84402,43.13739 -0.003,21.840149 -0.41075,36.741249 -1.06906,39.111999 -0.84236,3.03355 -1.82884,4.15027 -4.74442,5.37077 -6.40305,2.6804 -8.36125,0.85698 -30.68094,-28.56924 l -20,-26.367945 -0.5,24.868267 c -0.34177,16.998268 -0.8889,25.547028 -1.72889,27.013088 -0.67589,1.17965 -2.65554,2.64215 -4.39922,3.25 -3.8485,1.34159 -3.62272,1.35263 -7.58704,-0.37104 z m 80.7373,-0.25078 c -6.68488,-3.40793 -6.6042,-3.84757 7.90001,-43.047461 7.17848,-19.400954 13.72365,-36.573721 14.54483,-38.161704 4.89682,-9.469416 17.69349,-10.274681 22.77744,-1.433331 3.09546,5.383247 27.06269,72.697296 27.11032,76.141716 0.0655,4.73453 -3.26411,7.72251 -8.45374,7.58644 -5.21637,-0.13678 -6.40148,-1.40793 -9.73684,-10.44378 L 688.42715,112.5 h -17.37091 -17.37092 l -2.35662,6.98619 c -3.52726,10.45649 -7.56919,13.22149 -14.30655,9.78681 z M 682.74721,94.25 c -3.05329,-10.993246 -11.3047,-35.074591 -11.82089,-34.498704 -0.36909,0.411787 -2.98622,8.044489 -5.81583,16.961561 -2.82962,8.917071 -5.41019,16.904571 -5.73461,17.75 C 658.86505,95.79405 660.42377,96 671.00964,96 c 11.16004,0 12.18133,-0.152268 11.73757,-1.75 z"
       id="path1" />
  </g>
</svg>
