<svg xmlns="http://www.w3.org/2000/svg" xmlns:xlink="http://www.w3.org/1999/xlink" viewBox="0 0 699.971 83.49"><defs><linearGradient id="a" x1="15.357%" x2="82.042%" y1="79.912%" y2="44.827%"><stop offset="0%" stop-color="#00b4f0"/><stop offset="100%" stop-color="#0061b9"/></linearGradient><linearGradient id="b" x1="41.919%" x2="59.464%" y1="5.451%" y2="72.141%"><stop offset="0%" stop-color="#bef000"/><stop offset="26%" stop-color="#a8d400"/><stop offset="100%" stop-color="#69a000"/><stop offset="100%" stop-color="#69a000"/></linearGradient><linearGradient id="c" x1="26.29%" x2="97.151%" y1="36.312%" y2="62.258%"><stop offset="0%" stop-color="#008ae0"/><stop offset="32%" stop-color="#00aafa"/><stop offset="46%" stop-color="#00aefa"/><stop offset="100%" stop-color="#0065c2"/></linearGradient><radialGradient id="d" cx="35.071%" cy="70.22%" r="50.016%" fx="35.071%" fy="70.22%" gradientTransform="matrix(.65801 .5518 -.43536 .83398 .426 -.077)"><stop offset="0%" stop-color="#4dd4ff"/><stop offset="100%" stop-color="#00b7f2" stop-opacity="0"/></radialGradient></defs><g fill="none" fill-rule="nonzero"><g fill="#1a1a1a"><path d="M136.951 17.604c-3.07-3.42-6.88-6.15-11.44-8.21s-9.88-3.09-15.95-3.09-11.49 1.03-16.05 3.09-8.37 4.79-11.44 8.21c-1.53 1.7-2.87 3.51-4.02 5.41l10.14 10.13c1.04-2.86 2.55-5.35 4.51-7.47 1.99-2.15 4.42-3.83 7.26-5.03s6.05-1.8 9.59-1.8 6.65.6 9.5 1.8 5.27 2.88 7.26 5.03q2.985 3.225 4.56 7.59c1.04 2.91 1.57 6.11 1.57 9.59 0 3.23-.52 6.28-1.57 9.16a23.4 23.4 0 0 1-4.56 7.69c-1.99 2.25-4.4 4-7.22 5.27s-6 1.9-9.54 1.9-6.74-.63-9.59-1.9-5.27-3.02-7.26-5.27a23.8 23.8 0 0 1-4.56-7.69c-.15-.42-.3-.85-.43-1.28l-10.25 10.25c1.22 2.23 2.69 4.37 4.41 6.41 3.01 3.58 6.81 6.47 11.39 8.69 4.59 2.22 10.02 3.32 16.29 3.32s11.6-1.11 16.19-3.32c4.59-2.22 8.39-5.11 11.39-8.69 3.01-3.58 5.25-7.44 6.74-11.58 1.49-4.15 2.23-8.15 2.23-12.01v-2.09c0-4.24-.76-8.46-2.28-12.67s-3.81-8.02-6.88-11.44zM194.961 39.914c-3.74-1.71-8.07-2.75-13.01-3.13l-6.08-.57c-3.42-.25-5.92-1.19-7.5-2.8s-2.37-3.5-2.37-5.65c0-1.77.44-3.42 1.33-4.94s2.22-2.72 3.99-3.61q2.475-1.23 6.09-1.32c2.54.06 4.65.55 6.33 1.46 1.8.98 3.17 2.28 4.08 3.89a10.55 10.55 0 0 1 1.38 5.27h14.31c0-4.49-1.04-8.4-3.13-11.72s-5.03-5.9-8.83-7.74-8.32-2.75-13.58-2.75h-1.11c-5.06 0-9.48.87-13.25 2.61s-6.69 4.21-8.78 7.4c-2.09 3.2-3.13 7.01-3.13 11.44 0 5.89 1.98 10.62 5.93 14.19 3.96 3.58 9.26 5.65 15.91 6.22l6.08.47c4.37.38 7.6 1.31 9.69 2.8s3.13 3.47 3.13 5.93c0 1.96-.54 3.72-1.61 5.27-1.08 1.55-2.72 2.8-4.94 3.75-2.13.91-4.77 1.38-7.9 1.41-3.32-.07-6.04-.6-8.13-1.6-2.25-1.08-3.88-2.48-4.89-4.22s-1.52-3.53-1.52-5.36h-14.31c0 4.37 1.11 8.27 3.32 11.72 2.22 3.45 5.43 6.15 9.64 8.12 4.21 1.96 9.38 2.94 15.53 2.94h1.11c5.7 0 10.65-.92 14.86-2.75 4.21-1.84 7.45-4.41 9.73-7.74 2.28-3.32 3.42-7.17 3.42-11.53 0-4.11-1.03-7.63-3.09-10.54s-4.95-5.22-8.69-6.93zM323.141 77.594h13.86l-24.31-69.3h-22.03l-23.64 69.3h13.48l6.11-18.42h30.21zm-32.75-29.8 9.36-28.2h3.5l9.67 28.2h-22.53M255.611 41.944c1.5-.94 2.79-2.08 3.86-3.41 2.06-2.56 3.09-6 3.09-10.3v-1.33c0-6.14-2.04-10.85-6.12-14.14s-10.05-4.94-17.9-4.94h-24.88v70.25h27.73c5.25 0 9.67-.78 13.25-2.33s6.27-3.77 8.07-6.65 2.71-6.38 2.71-10.49v-1.33q0-6.555-3.09-10.44c-1.7-2.14-3.94-3.76-6.71-4.89zm-15.85-23.3c3.23 0 5.6.85 7.12 2.56q2.28 2.565 2.28 6.84t-2.28 6.84c-1.52 1.71-3.89 2.56-7.12 2.56h-12.91v-18.8zm9.78 46c-1.65 1.74-4.05 2.61-7.22 2.61h-15.48v-19.37h15.48c3.17 0 5.57.84 7.22 2.52s2.47 4.03 2.47 7.07-.82 5.43-2.47 7.17M432.211 16.674c-.53-1.53-1.34-2.93-2.43-4.19s-2.45-2.28-4.08-3.04-3.56-1.15-5.79-1.15-4.15.38-5.79 1.15-3 1.78-4.08 3.04c-1.09 1.26-1.9 2.66-2.43 4.19s-.8 3.05-.8 4.55v.76c0 1.39.26 2.84.78 4.34.52 1.51 1.32 2.92 2.38 4.24 1.07 1.32 2.42 2.39 4.07 3.2s3.6 1.22 5.87 1.22 4.23-.41 5.87-1.22 3-1.88 4.07-3.2 1.86-2.73 2.38-4.24.78-2.95.78-4.34v-.76c0-1.51-.27-3.02-.8-4.55m-3.34 8.81c-.44 1.22-1.08 2.31-1.91 3.27a9.1 9.1 0 0 1-3.04 2.28c-1.19.56-2.53.83-4.02.83s-2.82-.28-4.01-.83c-1.19-.56-2.21-1.31-3.04-2.28-.83-.96-1.47-2.05-1.91-3.27q-.66-1.83-.66-3.84 0-2.115.66-3.96a9.9 9.9 0 0 1 1.91-3.25c.83-.94 1.85-1.67 3.04-2.21 1.19-.53 2.53-.8 4.01-.8s2.82.27 4.02.8c1.19.53 2.21 1.27 3.04 2.21s1.47 2.02 1.91 3.25q.66 1.845.66 3.96c0 1.41-.22 2.62-.66 3.84M455.941 21.094a9.2 9.2 0 0 0-1.81-3.06 8.7 8.7 0 0 0-2.83-2.09c-1.1-.51-2.32-.76-3.67-.76s-2.68.3-3.86.9-2.14 1.54-2.87 2.8c-.26.44-.46.95-.64 1.49v-4.56h-2.64v25.51h3.34v-9.76c.76 1.16 1.69 2.03 2.82 2.57 1.2.58 2.47.87 3.79.87s2.53-.26 3.63-.76c1.1-.51 2.05-1.2 2.85-2.09q1.2-1.32 1.86-3.06c.44-1.16.66-2.39.66-3.68v-.63c0-1.3-.21-2.52-.63-3.68zm-3.48 7.62c-.51 1.05-1.23 1.88-2.15 2.47-.93.59-2.02.89-3.27.89-1.09 0-2.11-.24-3.06-.73a5.86 5.86 0 0 1-2.3-2.09q-.87-1.35-.87-3.27v-1.6c0-1.32.28-2.45.85-3.39s1.33-1.66 2.28-2.15q1.425-.75 3.09-.75c1.25 0 2.34.3 3.27.89s1.64 1.41 2.15 2.45.77 2.26.77 3.65-.26 2.58-.77 3.63zM477.791 24.214q0-2.325-.96-4.38c-.64-1.37-1.61-2.48-2.92-3.35s-2.97-1.3-4.99-1.3c-1.55 0-2.9.27-4.05.82-1.15.54-2.09 1.27-2.83 2.19s-1.29 1.94-1.65 3.08q-.54 1.71-.54 3.51v.63q0 1.77.54 3.48c.36 1.14.91 2.16 1.65 3.08s1.7 1.65 2.88 2.21 2.58.83 4.21.83c1.46 0 2.77-.24 3.93-.73s2.12-1.19 2.89-2.12 1.27-2.03 1.53-3.3h-3.13c-.19.86-.74 1.61-1.65 2.26-.92.65-2.1.97-3.56.97s-2.54-.31-3.44-.92-1.57-1.45-2-2.5c-.36-.88-.56-1.87-.62-2.94h14.71v-1.52m-12.15-5.21c.87-.6 1.96-.9 3.28-.9s2.33.27 3.16.8 1.46 1.28 1.88 2.24c.27.61.44 1.31.53 2.07h-11.29c.11-.62.27-1.2.49-1.74.43-1.04 1.08-1.87 1.95-2.47M496.521 17.444c-1.12-1.46-2.86-2.19-5.2-2.19h-.14c-1.55 0-2.84.33-3.86.99s-1.78 1.62-2.28 2.89q-.195.48-.33 1.02v-4.34h-2.64v18.56h3.34v-11.09c0-1.51.45-2.71 1.36-3.61.9-.9 2.09-1.36 3.55-1.36s2.52.43 3.34 1.3c.81.87 1.22 2.02 1.22 3.46v11.3h3.34v-10.6c0-2.76-.56-4.87-1.69-6.33zM529.611 23.504c-.68-.98-1.66-1.77-2.92-2.36s-2.76-.96-4.5-1.09l-2.82-.24c-1.41-.12-2.48-.53-3.2-1.25s-1.08-1.54-1.08-2.47c0-.81.2-1.57.61-2.28s1.02-1.28 1.84-1.72 1.86-.66 3.11-.66 2.35.23 3.16.7c.81.46 1.41 1.05 1.79 1.77s.57 1.48.57 2.29h3.41c0-1.62-.38-3.02-1.13-4.19s-1.8-2.08-3.14-2.73-2.9-.97-4.66-.97-3.35.33-4.69.99-2.39 1.57-3.14 2.73-1.13 2.51-1.13 4.07c0 1.97.67 3.56 2.02 4.76 1.34 1.21 3.14 1.9 5.39 2.09l2.82.24c1.74.16 3.06.59 3.96 1.27s1.36 1.55 1.36 2.59c0 .86-.23 1.65-.7 2.38-.46.73-1.18 1.32-2.15 1.77s-2.22.68-3.75.68c-1.65 0-2.95-.25-3.91-.76s-1.65-1.15-2.05-1.91c-.41-.76-.61-1.53-.61-2.29h-3.41c0 1.55.39 2.94 1.18 4.17s1.92 2.19 3.41 2.88c1.48.7 3.28 1.04 5.39 1.04 1.99 0 3.74-.34 5.25-1.01q2.265-1.005 3.51-2.82c.83-1.2 1.25-2.58 1.25-4.14 0-1.37-.34-2.54-1.02-3.53zM553.211 21.284a9.3 9.3 0 0 0-1.95-3.09c-.86-.91-1.9-1.64-3.13-2.19-1.23-.54-2.63-.82-4.21-.82s-2.98.27-4.21.82c-1.23.54-2.27 1.27-3.13 2.19q-1.29 1.38-1.95 3.09a9.7 9.7 0 0 0-.66 3.49v.63c0 1.18.21 2.34.64 3.48a9.5 9.5 0 0 0 1.91 3.08c.85.92 1.88 1.65 3.11 2.21s2.65.83 4.27.83 3.05-.28 4.28-.83c1.23-.56 2.26-1.29 3.11-2.21s1.48-1.94 1.91-3.08c.43-1.13.64-2.29.64-3.48v-.63c0-1.18-.22-2.35-.66-3.49zm-3.45 7.31a6.17 6.17 0 0 1-2.26 2.49c-.99.61-2.17.92-3.56.92s-2.58-.31-3.56-.92a5.98 5.98 0 0 1-2.26-2.49q-.78-1.56-.78-3.51c0-1.3.27-2.5.8-3.55a6.06 6.06 0 0 1 2.29-2.47q1.5-.9 3.51-.9c1.34 0 2.54.3 3.53.9s1.74 1.43 2.28 2.47c.53 1.04.8 2.22.8 3.55s-.26 2.47-.78 3.51zM570.371 15.774v11.09c0 1.55-.44 2.78-1.32 3.67s-2.02 1.34-3.41 1.34-2.41-.41-3.2-1.23-1.18-1.96-1.18-3.42v-11.44h-3.34v10.77c0 2.71.59 4.79 1.77 6.22 1.18 1.44 2.87 2.15 5.08 2.15h.14c1.48 0 2.71-.33 3.67-.99s1.69-1.62 2.17-2.88c.12-.31.22-.64.31-.98v4.3h2.64v-18.6h-3.34zM588.921 15.594q-3.585 0-5.37 1.89c-.87.92-1.41 2.22-1.65 3.9v-5.59h-2.64v18.56h3.34v-10.05c0-1.85.5-3.27 1.49-4.26 1-.98 2.42-1.48 4.27-1.48h1.18v-2.99h-.63zM606.151 27.834c-.09.79-.37 1.49-.83 2.12s-1.08 1.12-1.84 1.49c-.77.37-1.67.56-2.71.56-1.34 0-2.46-.31-3.35-.92s-1.56-1.45-2-2.5-.66-2.22-.66-3.49.22-2.5.66-3.55c.44-1.04 1.1-1.87 1.98-2.47q1.32-.9 3.3-.9c1.53 0 2.75.39 3.65 1.16.9.78 1.44 1.74 1.6 2.9h3.2c-.09-1.44-.52-2.68-1.27-3.74-.75-1.05-1.75-1.87-2.99-2.45s-2.64-.87-4.19-.87-2.91.28-4.07.83c-1.16.56-2.13 1.29-2.9 2.21-.78.92-1.36 1.94-1.74 3.08s-.57 2.29-.57 3.48v.63c0 1.14.19 2.27.57 3.41s.96 2.17 1.72 3.11 1.73 1.69 2.9 2.24c1.17.56 2.56.83 4.15.83s2.99-.3 4.26-.89q1.89-.885 3.06-2.49c.78-1.07 1.2-2.33 1.27-3.79h-3.2zM630.161 24.214q0-2.325-.96-4.38c-.64-1.37-1.61-2.48-2.92-3.35s-2.97-1.3-4.99-1.3c-1.55 0-2.9.27-4.05.82-1.15.54-2.09 1.27-2.83 2.19s-1.29 1.94-1.65 3.08q-.54 1.71-.54 3.51v.63q0 1.77.54 3.48c.36 1.14.91 2.16 1.65 3.08s1.7 1.65 2.88 2.21 2.58.83 4.21.83c1.46 0 2.77-.24 3.93-.73s2.12-1.19 2.89-2.12 1.27-2.03 1.53-3.3h-3.13c-.19.86-.74 1.61-1.65 2.26-.92.65-2.1.97-3.56.97s-2.54-.31-3.44-.92-1.57-1.45-2-2.5c-.36-.88-.56-1.87-.62-2.94h14.71v-1.52m-12.14-5.21c.87-.6 1.96-.9 3.28-.9s2.33.27 3.16.8 1.46 1.28 1.88 2.24c.27.61.44 1.31.53 2.07h-11.29c.11-.62.27-1.2.49-1.74.43-1.04 1.08-1.87 1.95-2.47M425.071 65.934c-.7-.91-1.67-1.56-2.89-1.95.75-.38 1.38-.88 1.87-1.52.7-.92 1.04-2.15 1.04-3.7v-.49c0-2.2-.68-3.89-2.05-5.06s-3.44-1.76-6.22-1.76h-8.27v25.65h9.31c1.85 0 3.39-.27 4.62-.82 1.23-.54 2.14-1.33 2.75-2.36.6-1.03.9-2.29.9-3.77v-.49c0-1.58-.35-2.82-1.06-3.74zm-7.67-11.48c1.44 0 2.5.39 3.18 1.16.68.78 1.03 1.78 1.03 3.01s-.34 2.2-1.03 2.97c-.68.78-1.74 1.16-3.18 1.16h-5.46v-8.31h5.46zm4.12 18.51c-.75.78-1.81 1.16-3.18 1.16h-6.4v-8.52h6.4c1.39 0 2.46.38 3.2 1.13s1.11 1.79 1.11 3.11-.38 2.34-1.13 3.11zM443.131 58.374v11.09c0 1.55-.44 2.78-1.32 3.67s-2.02 1.34-3.41 1.34-2.41-.41-3.2-1.23-1.18-1.96-1.18-3.42v-11.43h-3.34v10.77c0 2.71.59 4.79 1.77 6.22 1.18 1.44 2.87 2.15 5.08 2.15h.14c1.48 0 2.71-.33 3.67-.99s1.69-1.62 2.17-2.89c.12-.31.22-.64.31-.98v4.3h2.64v-18.6h-3.34zM464.341 67.854q-1.8-1.335-4.8-1.65l-2.02-.21c-1.09-.12-1.87-.38-2.35-.8s-.71-.97-.71-1.67c0-.81.34-1.48 1.01-2.02.67-.53 1.66-.8 2.96-.8q1.95 0 2.94.78t1.02 1.89h3.13c-.05-1.83-.72-3.21-2.02-4.14s-2.99-1.39-5.07-1.39c-1.39 0-2.62.23-3.68.68-1.07.45-1.9 1.1-2.5 1.95s-.9 1.86-.9 3.04c0 1.58.56 2.8 1.67 3.67s2.55 1.4 4.31 1.58l2.02.21c1.3.14 2.24.42 2.82.85s.87 1.03.87 1.79c0 .86-.39 1.58-1.18 2.17s-1.92.89-3.41.89c-1.65 0-2.81-.32-3.49-.96s-1.05-1.32-1.09-2.03h-3.13c.05 1.81.74 3.23 2.07 4.27s3.22 1.56 5.65 1.56c1.51 0 2.84-.25 4-.75s2.07-1.19 2.73-2.08.99-1.92.99-3.08c0-1.62-.6-2.88-1.81-3.77zM471.411 58.414h-2.85v2.64h2.85v15.92h3.33v-18.56zM472.351 55.424c.74 0 1.29-.2 1.65-.59s.54-.89.54-1.49-.18-1.1-.54-1.49-.91-.59-1.65-.59-1.29.2-1.65.59-.54.89-.54 1.49.18 1.1.54 1.49.91.59 1.65.59M494.741 60.044c-1.12-1.46-2.86-2.19-5.2-2.19h-.14c-1.55 0-2.84.33-3.86.99s-1.78 1.62-2.28 2.89q-.195.48-.33 1.02v-4.34h-2.64v18.56h3.34v-11.09c0-1.51.45-2.71 1.36-3.61.9-.9 2.09-1.36 3.55-1.36s2.52.43 3.34 1.3c.81.87 1.22 2.02 1.22 3.46v11.3h3.34v-10.6c0-2.76-.56-4.87-1.69-6.33zM518.561 66.824q0-2.325-.96-4.38c-.64-1.37-1.61-2.49-2.92-3.35-1.31-.87-2.97-1.3-4.99-1.3-1.55 0-2.9.27-4.05.82-1.15.54-2.09 1.27-2.83 2.19s-1.29 1.94-1.65 3.08q-.54 1.71-.54 3.51v.63q0 1.77.54 3.48c.36 1.14.91 2.16 1.65 3.08s1.7 1.65 2.88 2.21 2.58.83 4.21.83c1.46 0 2.77-.24 3.93-.73s2.12-1.19 2.89-2.12 1.27-2.03 1.53-3.3h-3.13c-.19.86-.74 1.61-1.65 2.26-.92.65-2.1.97-3.56.97s-2.54-.31-3.44-.92-1.57-1.45-2-2.5c-.36-.88-.56-1.87-.62-2.94h14.71v-1.52m-12.15-5.21c.87-.6 1.96-.9 3.28-.9s2.33.27 3.16.8 1.46 1.28 1.88 2.24c.27.61.44 1.31.53 2.07h-11.29c.11-.62.27-1.2.49-1.74.43-1.04 1.08-1.87 1.95-2.47M535.051 67.854q-1.8-1.335-4.8-1.65l-2.02-.21c-1.09-.12-1.87-.38-2.35-.8s-.71-.97-.71-1.67c0-.81.34-1.48 1.01-2.02.67-.53 1.66-.8 2.96-.8q1.95 0 2.94.78t1.02 1.89h3.13c-.05-1.83-.72-3.21-2.02-4.14s-2.99-1.39-5.07-1.39c-1.39 0-2.62.23-3.68.68-1.07.45-1.9 1.1-2.5 1.95s-.9 1.86-.9 3.04c0 1.58.56 2.8 1.67 3.67s2.55 1.4 4.31 1.58l2.02.21c1.3.14 2.24.42 2.82.85s.87 1.03.87 1.79c0 .86-.39 1.58-1.18 2.17s-1.92.89-3.41.89c-1.65 0-2.81-.32-3.49-.96s-1.05-1.32-1.09-2.03h-3.13c.05 1.81.74 3.23 2.07 4.27s3.22 1.56 5.65 1.56c1.51 0 2.84-.25 4-.75s2.07-1.19 2.73-2.08.99-1.92.99-3.08c0-1.62-.6-2.88-1.81-3.77zM553.511 67.854q-1.8-1.335-4.8-1.65l-2.02-.21c-1.09-.12-1.87-.38-2.35-.8s-.71-.97-.71-1.67c0-.81.34-1.48 1.01-2.02.67-.53 1.66-.8 2.96-.8q1.95 0 2.94.78t1.02 1.89h3.13c-.05-1.83-.72-3.21-2.02-4.14s-2.99-1.39-5.07-1.39c-1.39 0-2.62.23-3.68.68-1.07.45-1.9 1.1-2.5 1.95s-.9 1.86-.9 3.04c0 1.58.56 2.8 1.67 3.67s2.55 1.4 4.31 1.58l2.02.21c1.3.14 2.24.42 2.82.85s.87 1.03.87 1.79c0 .86-.39 1.58-1.18 2.17s-1.92.89-3.41.89c-1.65 0-2.81-.32-3.49-.96s-1.05-1.32-1.09-2.03h-3.13c.05 1.81.74 3.23 2.07 4.27s3.22 1.56 5.65 1.56c1.51 0 2.84-.25 4-.75s2.07-1.19 2.73-2.08.99-1.92.99-3.08c0-1.62-.6-2.88-1.81-3.77zM586.321 76.974h3.51l-9.42-25.37h-5.77l-9.14 25.37h3.41l2.7-7.58h11.93l2.79 7.58zm-13.63-10.64 4.16-11.68h1.26l4.3 11.68zM593.481 51.604h-2.57v2.64h2.57v22.73h3.33v-25.37zM602.801 51.604h-2.58v2.64h2.58v22.73h3.33v-25.37zM613.531 55.424c.74 0 1.29-.2 1.65-.59s.54-.89.54-1.49-.18-1.1-.54-1.49-.91-.59-1.65-.59-1.29.2-1.65.59-.54.89-.54 1.49.18 1.1.54 1.49.91.59 1.65.59M612.591 58.414h-2.85v2.64h2.85v15.92h3.34v-18.56zM634.671 61.094c-.58-1.02-1.47-1.76-2.68-2.21-1.2-.45-2.76-.68-4.66-.68-.56 0-1.14 0-1.74.02-.6.01-1.19.04-1.76.07q-.855.06-1.62.12v2.92c.51-.05 1.11-.08 1.81-.1s1.43-.05 2.19-.07 1.51-.04 2.22-.04c1.27 0 2.24.33 2.9.97.66.65.99 1.61.99 2.89v.45h-4.69c-1.6 0-2.97.23-4.1.68-1.14.45-2 1.12-2.59 2s-.89 1.98-.89 3.3.27 2.36.82 3.27c.54.9 1.32 1.59 2.33 2.07 1.01.47 2.21.71 3.6.71 1.3 0 2.4-.23 3.32-.69s1.63-1.14 2.15-2.03c.25-.43.45-.91.61-1.44v3.68h2.64v-11.75q0-2.61-.87-4.14zm-3.11 11.83c-.48.68-1.07 1.17-1.79 1.46s-1.47.43-2.26.43c-1.34 0-2.37-.31-3.09-.94s-1.08-1.45-1.08-2.47.36-1.85 1.08-2.5 1.75-.97 3.09-.97h4.83v2.15c-.05 1.21-.31 2.15-.78 2.83zM655.341 60.044c-1.12-1.46-2.86-2.19-5.2-2.19h-.14c-1.55 0-2.84.33-3.86.99s-1.78 1.62-2.28 2.89q-.195.48-.33 1.02v-4.34h-2.64v18.56h3.34v-11.09c0-1.51.45-2.71 1.36-3.61.9-.9 2.09-1.36 3.55-1.36s2.52.43 3.34 1.3c.81.87 1.22 2.02 1.22 3.46v11.3h3.34v-10.6c0-2.76-.56-4.87-1.69-6.33zM675.961 70.444c-.09.79-.37 1.49-.83 2.12s-1.08 1.12-1.84 1.49c-.77.37-1.67.56-2.71.56-1.34 0-2.46-.31-3.35-.92s-1.56-1.45-2-2.5-.66-2.22-.66-3.49.22-2.5.66-3.55c.44-1.04 1.1-1.87 1.98-2.47q1.32-.9 3.3-.9c1.53 0 2.75.39 3.65 1.16.9.78 1.44 1.74 1.6 2.9h3.2c-.09-1.44-.52-2.68-1.27-3.74-.75-1.05-1.75-1.87-2.99-2.45s-2.64-.87-4.19-.87-2.91.28-4.07.83c-1.16.56-2.13 1.29-2.9 2.21-.78.92-1.36 1.94-1.74 3.08s-.57 2.29-.57 3.48v.63c0 1.14.19 2.27.57 3.41s.96 2.17 1.72 3.11 1.73 1.69 2.9 2.24c1.17.56 2.56.83 4.15.83s2.99-.29 4.26-.89q1.89-.885 3.06-2.49c.78-1.07 1.2-2.33 1.27-3.79h-3.2zM699.971 66.824q0-2.325-.96-4.38c-.64-1.37-1.61-2.49-2.92-3.35-1.31-.87-2.97-1.3-4.99-1.3-1.55 0-2.9.27-4.05.82-1.15.54-2.09 1.27-2.83 2.19s-1.29 1.94-1.65 3.08q-.54 1.71-.54 3.51v.63q0 1.77.54 3.48c.36 1.14.91 2.16 1.65 3.08s1.7 1.65 2.88 2.21 2.58.83 4.21.83c1.46 0 2.77-.24 3.93-.73s2.12-1.19 2.89-2.12 1.27-2.03 1.53-3.3h-3.13c-.19.86-.74 1.61-1.65 2.26-.92.65-2.1.97-3.56.97s-2.54-.31-3.44-.92-1.57-1.45-2-2.5c-.36-.88-.56-1.87-.62-2.94h14.71v-1.52m-12.15-5.21c.87-.6 1.96-.9 3.28-.9s2.33.27 3.16.8 1.46 1.28 1.88 2.24c.27.61.44 1.31.53 2.07h-11.29c.11-.62.27-1.2.49-1.74.43-1.04 1.08-1.87 1.95-2.47"/></g><path fill="#006fd6" d="M374.101 8.294h4.63v34.65h-4.63z"/><path fill="#a8d400" d="M374.101 42.944h4.63v34.65h-4.63z"/><path fill="url(#a)" d="m32.631 27.944-6.42-6.44c-3.95-3.96-3.32-8.86-.66-12.16l-.22-.22-24.64 24.57c-1.47 1.46-.44 3.97 1.63 3.97h18.68c1.23 0 2.41-.49 3.28-1.36l8.35-8.37z"/><path fill="#a8d400" d="M32.071 15.894c-3.94-3.96-3.32-8.86-.66-12.16 1.74-2.16 4.33-3.63 7.09-3.73 2.22-.07 4.54.73 6.6 2.81l32.33 32.45c3.6 3.61 3.6 9.48 0 13.07l-25.92 26.04-.22-.22c2.66-3.3 3.29-8.2-.66-12.16l-6.43-6.45 13.66-13.73-25.8-25.92z"/><path fill="url(#b)" d="M2.805 15.894c-3.94-3.96-3.32-8.86-.66-12.16 1.74-2.16 4.33-3.63 7.09-3.73 2.22-.07 4.54.73 6.6 2.81l32.33 32.45c3.6 3.61 3.6 9.48 0 13.07l-25.92 26.04-.22-.22c2.66-3.3 3.29-8.2-.66-12.16l-6.43-6.45 13.66-13.73-25.8-25.92z" transform="translate(29.266)"/><path fill="url(#c)" d="M24.5 1.36A4.62 4.62 0 0 0 21.23 0H2.33C.25 0-.78 2.51.69 3.97l31.15 30.88c2.08 2.08 4.4 2.89 6.63 2.81 2.76-.09 5.36-1.57 7.11-3.72 2.67-3.3 3.31-8.2-.66-12.16L24.48 1.34h.01z" transform="translate(0 45.824)"/><path fill="url(#d)" d="M24.5 1.36A4.62 4.62 0 0 0 21.23 0H2.33C.25 0-.78 2.51.69 3.97l31.15 30.88c2.08 2.08 4.4 2.89 6.63 2.81 2.76-.09 5.36-1.57 7.11-3.72 2.67-3.3 3.31-8.2-.66-12.16L24.48 1.34h.01z" transform="translate(0 45.824)"/></g></svg>