<svg xmlns="http://www.w3.org/2000/svg" role="img" viewBox="-5.48 -5.23 271.96 271.71"><path d="M130.74726 261.507C58.5376 261.507 0 202.96833 0 130.75867 0 58.5494 58.5376.01087 130.74726.01087c72.20767 0 130.7462 58.53854 130.7462 130.7478 0 72.20966-58.53853 130.74833-130.7462 130.74833m-.00106-241.37397c-61.09527 0-110.62484 49.52943-110.62484 110.62457 0 61.09647 49.52957 110.6259 110.62484 110.6259 61.09434 0 110.62377-49.52943 110.62377-110.6259 0-61.09514-49.52943-110.62457-110.62377-110.62457"/><path d="M173.209 223.40795c-4.18123-.00266-19.41818-27.12065-21.46613-34.8522-4.28122-16.18772-3.35991-23.02662-3.10392-25.21296.78398-6.67584 7.26115-10.01175 7.65314-19.03966.12133-2.78793 1.5293-16.72612 2.65327-27.61384-2.77326-.54266-5.53586-1.7933-7.9918-3.73324 7.37315 9.88908-3.47858 21.74052-19.24645 37.51-16.73598 16.73544-53.88306 32.26839-53.88306 32.26839s15.53402-37.14748 32.26906-53.88292c12.30223-12.3009 22.21758-21.61 30.67937-21.61 2.38527 0 4.65588.73998 6.8305 2.35994-1.94129-2.4546-3.19059-5.21587-3.73458-7.98913-10.88786 1.12664-24.8271 2.53194-27.61344 2.6546-9.02897.392-12.36542 6.86916-19.03712 7.65181-.76812.09066-2.11035.264-4.2295.264-3.9155 0-10.4836-.58933-20.9844-3.36926-8.40913-2.22394-39.74275-20.04883-34.20075-22.28877 2.82606-1.14397 11.83304-1.91729 23.69474-1.91729 11.40758 0 25.45563.71465 39.17822 2.5026 17.10997 2.22928 32.79918 5.04921 43.49091 7.1465.17333-.57466.38133-1.13331.63065-1.67596l-10.93039-5.23854s-8.73032-10.01842-7.79807-10.70906c.036-.02667.08173-.04.1364-.04 1.3693 0 8.35365 7.98513 9.02564 8.89444.51732.172 3.47858 1.15997 6.59316 2.19595l-3.09192-2.70394s-4.2319-15.67294-3.12925-16.04226a.15224.15224 0 0 1 .044-.00667c1.1613 0 5.0012 13.629 5.33053 14.60764.75465.66131 3.30392 1.65462 6.48917 3.4919l-3.34925-8.61578s1.51596-14.2143 2.6506-14.2143c.00933 0 .01733.00133.02667.00266 1.14263.228-.224 11.8557-.51332 13.30367.41465.63598 2.98392 4.57722 5.55986 8.52912 1.5853-.59732 3.29058-.89198 5.0412-.89198 2.00929 0 4.0759.38932 6.08119 1.15597-2.56794-5.46786-2.37328-11.16639 1.03197-14.56897 1.0773-1.07997 2.3866-1.83329 3.84524-2.27994.176-.99464.63731-1.93862 1.3933-2.69593.9853-.98398 2.2826-1.4733 3.5959-1.4733 1.37464 0 2.76794.53732 3.83458 1.6053 1.02264 1.01997 1.5533 2.3386 1.59862 3.6519 1.64396-3.38791 3.58391-7.9598 3.44792-9.4411-.316-3.35191-4.2039-9.2851-4.2399-9.3451-.25332-.38265-.148-.89997.23733-1.15463.14-.092.29866-.136.45599-.136.27066 0 .53599.132.69465.37599.172.256 4.1559 6.3385 4.51055 10.10508.19733 2.15461-2.27594 7.58381-3.6239 10.35708 1.89328 1.03597 3.73857 2.40394 5.42386 4.08923 1.68396 1.68395 3.05192 3.52924 4.08923 5.42386 2.66793-1.2973 7.78647-3.63458 10.09441-3.63458.092 0 .18.00267.26266.01067 3.76524.35466 9.84909 4.33856 10.10375 4.50789.384.252.49065.76931.23733 1.1533-.16.24266-.42533.37466-.69598.37466-.156 0-.31466-.044-.45466-.13733-.06-.03867-5.99185-3.92523-9.3451-4.23856-.05067-.00533-.10533-.00667-.16266-.00667-1.63063 0-6.00919 1.86262-9.2811 3.45192 1.31596.044 2.6346.57732 3.65324 1.59996 2.08928 2.08661 2.14661 5.41186.132 7.42648-.75599.75731-1.69863 1.22263-2.69327 1.39596-.44932 1.45997-1.20397 2.76927-2.28128 3.84657-1.87728 1.87862-4.45055 2.7786-7.30115 2.7786-2.31727 0-4.81721-.59598-7.26915-1.74662 1.43596 3.74924 1.5453 7.71847.26533 11.12105 3.94923 2.57594 7.8958 5.14654 8.52778 5.5612 1.03731-.20666 7.26649-.96265 10.8224-.96265 1.4213 0 2.41727.12 2.48127.44533.23066 1.1413-14.20898 2.6826-14.20898 2.6826l-8.61711-3.35325c1.83862 3.18792 2.82792 5.73585 3.49057 6.49183.99598.33333 14.96763 4.2719 14.59964 5.37454-.04133.128-.28666.18266-.68798.18266-3.07993 0-15.35162-3.31325-15.35162-3.31325l-2.7066-3.09192c1.03864 3.11592 2.02395 6.07451 2.19861 6.59316.94665.69999 9.54243 8.22647 8.85312 9.16084-.036.0484-.09467.06987-.176.06987-1.50796 0-10.53174-7.8654-10.53174-7.8654l-5.23987-10.93173c-.54132.25066-1.1013.45599-1.67729.63065 2.09728 10.69173 4.91855 26.3808 7.15049 43.48971 3.64524 27.9925 2.82526 57.32777.58532 62.87456-.18.44626-.46132.65305-.82665.65305"/><g><path d="M214.36363 237.70921h16.125v3.41016h-5.80078v14.08594h-4.51172v-14.08594h-5.8125zm18.45703 0h5.74219l3.98438 9.36328 4.00781-9.36328h5.73047v17.4961h-4.26563v-12.79688l-4.03125 9.4336h-2.85937l-4.03125-9.4336v12.79688h-4.27735z"/></g></svg>