<?xml version="1.0" encoding="utf-8"?>
<!-- Generator: Adobe Illustrator 16.0.4, SVG Export Plug-In . SVG Version: 6.00 Build 0)  -->
<!DOCTYPE svg PUBLIC "-//W3C//DTD SVG 1.1//EN" "http://www.w3.org/Graphics/SVG/1.1/DTD/svg11.dtd">
<svg version="1.1" id="Ebene_1" xmlns="http://www.w3.org/2000/svg" xmlns:xlink="http://www.w3.org/1999/xlink" x="0px" y="0px"
	 width="1190.551px" height="841.89px" viewBox="0 0 1190.551 841.89" enable-background="new 0 0 1190.551 841.89"
	 xml:space="preserve">
<g>
	<path fill="#B1C900" d="M574.342,475.938c-0.173,0.52-0.434,1.129-0.434,1.391c0,0.521,0.521,0.869,0.956,0.869h4.778
		c0.957,0,1.913-0.957,2.175-1.74l5.735-17.643h25.033l5.91,17.643c0.261,0.783,1.217,1.74,2.173,1.74h4.78
		c0.437,0,0.958-0.348,0.958-0.869c0-0.262-0.263-0.871-0.437-1.391l-19.556-59.453c-0.608-1.824-2.437-3.041-4.608-3.301
		c-2.433-0.262-3.475,0-3.475,0c-2.088,0.26-3.911,1.477-4.521,3.301L574.342,475.938L574.342,475.938z M610.327,452.122h-20.514
		l9.127-27.553l1.13-5.475l1.13,5.475L610.327,452.122L610.327,452.122z"/>
	<path fill="#B1C900" d="M418.191,475.938c-0.175,0.52-0.436,1.129-0.436,1.391c0,0.521,0.521,0.869,0.956,0.869h4.78
		c0.956,0,1.912-0.957,2.173-1.74l5.736-17.643h25.032l5.91,17.643c0.262,0.783,1.218,1.74,2.173,1.74h4.781
		c0.436,0,0.956-0.348,0.956-0.869c0-0.262-0.261-0.871-0.435-1.391l-19.557-59.453c-0.607-1.824-2.435-3.041-4.606-3.301
		c-2.435-0.262-3.477,0-3.477,0c-2.086,0.26-3.911,1.477-4.52,3.301L418.191,475.938L418.191,475.938z M454.173,452.122h-20.513
		l9.126-27.553l1.13-5.475l1.13,5.475L454.173,452.122L454.173,452.122z"/>
	<path fill="#B1C900" d="M484.226,471.507c-0.521,0-0.868-0.35-0.868-0.871v-56.148c0-0.521-0.436-0.869-0.868-0.869h-6.085
		c-0.522,0-0.869,0.436-0.869,0.869v55.889c0,4.605,2.781,7.822,7.822,7.822h25.118h0.869c0.436,0,0.87-0.348,0.87-0.869v-4.955
		c0-0.436-0.347-0.867-0.87-0.867H484.226L484.226,471.507z"/>
	<path fill="#B1C900" d="M525.493,471.507c-0.522,0-0.869-0.35-0.869-0.871v-56.148c0-0.521-0.436-0.869-0.869-0.869h-6.085
		c-0.521,0-0.868,0.436-0.868,0.869v55.889c0,4.605,2.781,7.822,7.822,7.822h25.119h0.869c0.435,0,0.87-0.348,0.87-0.869v-4.955
		c0-0.436-0.349-0.867-0.87-0.867H525.493L525.493,471.507z"/>
	<path fill="#B1C900" d="M566.499,414.487c0-0.434-0.348-0.869-0.871-0.869h-6.083c-0.435,0-0.869,0.348-0.869,0.869v62.842
		c0,0.521,0.435,0.869,0.869,0.869h6.083c0.523,0,0.871-0.436,0.871-0.869V414.487L566.499,414.487z"/>
	<path fill="#B1C900" d="M669.903,470.202l-0.174,3.824l-1.563-3.824l-21.382-53.455c-0.957-2.867-3.824-3.736-7.477-3.736h-1.303
		c-3.909,0-6.43,3.215-6.43,6.432v57.887c0,0.434,0.346,0.869,0.867,0.869h6.085c0.435,0,0.955-0.348,0.955-0.869v-54.322
		l-0.261-4.521l2.086,4.607l20.513,51.629c0.957,2.955,4.085,3.912,7.909,3.912h1.391c4,0,6.693-3.305,6.693-6.695v-57.451
		c0-0.521-0.521-0.869-0.956-0.869h-6.085c-0.521,0-0.869,0.436-0.869,0.869V470.202L669.903,470.202z"/>
	<path fill="#B1C900" d="M724.733,478.198c0.436,0,0.87-0.348,0.87-0.869v-4.955c0-0.436-0.349-0.867-0.87-0.867h-23.988
		c-3.304,0-5.477-2.781-5.477-5.477v-40.244c0-2.693,2.173-5.475,5.477-5.475h23.988c0.436,0,0.87-0.348,0.87-0.869v-4.955
		c0-0.434-0.349-0.869-0.87-0.869h-3.65h-21.033c-7.996,0-12.604,6.346-12.604,12.604v39.373c0,6.258,4.607,12.604,12.604,12.604
		h16.166H724.733L724.733,478.198z"/>
	<path fill="#B1C900" d="M771.301,478.198c0.434,0,0.869-0.348,0.869-0.869v-4.955c0-0.436-0.35-0.867-0.869-0.867h-28.51
		c-0.434,0-0.869-0.35-0.869-0.871v-22.512h23.295c0.435,0,0.869-0.348,0.869-0.869v-4.953c0-0.436-0.348-0.869-0.869-0.869h-1.391
		h-21.904v-20.252c0-0.436,0.348-0.869,0.869-0.869h28.51c0.434,0,0.869-0.348,0.869-0.869v-4.955c0-0.434-0.35-0.869-0.869-0.869
		h-29.379c-4.952,0-7.822,3.912-7.822,7.822v48.936c0,4.346,3.565,7.822,7.822,7.822H771.301L771.301,478.198z"/>
	<path fill="#008AC1" d="M586.56,385.296v-9.551h7.861c1.396,0,2.313,1.176,2.313,2.315v4.04c0,1.58-1.248,3.196-3.195,3.196H586.56
		L586.56,385.296z M594.495,388.125c1.689,0,2.792,1.433,2.792,2.791v4.151c0,1.139-0.919,2.315-2.314,2.315h-8.412v-9.257H594.495
		L594.495,388.125z M595.266,400.21c3.379,0,5.326-2.681,5.326-5.326v-3.968c0-1.616-1.029-3.526-3.048-4.187
		c1.542-0.735,2.497-2.167,2.497-4.519v-3.967c0-2.644-1.946-5.326-5.326-5.326h-11.094c-0.185,0-0.367,0.147-0.367,0.367v26.559
		c0,0.183,0.147,0.367,0.367,0.367H595.266L595.266,400.21z"/>
	<path fill="#008AC1" d="M609.334,397.382c-0.734,0-1.213-0.625-1.213-1.213v-15.795c0-0.184-0.146-0.368-0.367-0.368h-2.572
		c-0.182,0-0.366,0.147-0.366,0.368v15.795c0,2.021,1.471,4.041,4.041,4.041c7.86,0,3.415,0,6.575,0c2.571,0,4.042-2.02,4.042-4.041
		v-15.795c0-0.184-0.147-0.368-0.37-0.368h-2.607c-0.184,0-0.367,0.147-0.367,0.368v15.795c0,0.588-0.477,1.213-1.21,1.213H609.334
		L609.334,397.382z"/>
	<path fill="#008AC1" d="M635.965,382.835c0.184,0,0.367-0.147,0.367-0.367v-2.094c0-0.184-0.146-0.368-0.367-0.368h-8.337
		c-1.874,0-3.749,1.066-3.749,3.306v2.608c0,1.139,0.221,2.756,3.232,4.115l5.842,3.196c1.029,0.441,1.029,1.285,1.029,1.763v1.249
		c0,0.588-0.479,1.139-1.176,1.139h-8.449c-0.184,0-0.367,0.147-0.367,0.367v2.094c0,0.183,0.146,0.367,0.367,0.367h9.074
		c1.322,0,3.783-0.588,3.783-3.6v-2.094c0-1.322-0.221-2.571-3.232-4.114l-5.805-3.232c-1.066-0.551-1.066-1.25-1.066-1.727v-1.432
		c0-0.588,0.479-1.176,1.179-1.176H635.965L635.965,382.835z"/>
	<path fill="#008AC1" d="M645.261,376.554c0.181,0,0.367-0.147,0.367-0.368v-2.902c0-0.184-0.149-0.367-0.367-0.367h-2.794
		c-0.221,0-0.367,0.183-0.367,0.367v2.902c0,0.221,0.184,0.368,0.367,0.368H645.261L645.261,376.554z M642.209,399.843
		c0,0.22,0.184,0.367,0.369,0.367h2.57c0.221,0,0.367-0.184,0.367-0.367v-19.469c0-0.184-0.146-0.368-0.367-0.368h-2.57
		c-0.186,0-0.369,0.147-0.369,0.368V399.843L642.209,399.843z"/>
	<path fill="#008AC1" d="M661.018,382.835c0.735,0,1.211,0.625,1.211,1.212v15.796c0,0.183,0.149,0.367,0.37,0.367h2.57
		c0.184,0,0.368-0.147,0.368-0.367v-15.796c0-2.02-1.471-4.041-4.041-4.041c-7.86,0-3.418,0-6.576,0
		c-2.571,0-4.041,2.021-4.041,4.041v15.796c0,0.183,0.147,0.367,0.367,0.367h2.607c0.187,0,0.37-0.147,0.37-0.367v-15.796
		c0-0.587,0.438-1.212,1.173-1.212H661.018L661.018,382.835z"/>
	<path fill="#008AC1" d="M673.618,393.488c0-0.478,0.073-0.845,0.698-1.066l8.448-1.91c1.947-0.771,1.947-2.461,1.947-3.673v-3.6
		c0-2.24-1.763-3.233-3.416-3.233h-7.678c-2.131,0-3.306,1.36-3.306,3.306v12.674v0.918c0,2.241,1.726,3.306,3.416,3.306h9.661
		c0.147,0,0.256-0.147,0.256-0.257v-2.315c0-0.146-0.108-0.256-0.256-0.256h-8.377c-0.696,0-1.395-0.404-1.395-1.249V393.488
		L673.618,393.488z M674.941,389.337l-1.323,0.588v-5.988c0-0.698,0.441-1.102,1.14-1.102h5.767c0.551,0,1.139,0.33,1.139,1.028
		v2.499c0,0.293,0.037,1.395-0.771,1.579L674.941,389.337L674.941,389.337z"/>
	<path fill="#008AC1" d="M700.836,382.835c0.184,0,0.367-0.147,0.367-0.367v-2.094c0-0.184-0.146-0.368-0.367-0.368H692.5
		c-1.874,0-3.749,1.066-3.749,3.306v2.608c0,1.139,0.221,2.756,3.232,4.115l5.842,3.196c1.028,0.441,1.028,1.285,1.028,1.763v1.249
		c0,0.588-0.478,1.139-1.175,1.139h-8.449c-0.184,0-0.367,0.147-0.367,0.367v2.094c0,0.183,0.146,0.367,0.367,0.367h9.072
		c1.324,0,3.785-0.588,3.785-3.6v-2.094c0-1.322-0.221-2.571-3.233-4.114l-5.804-3.232c-1.066-0.551-1.066-1.25-1.066-1.727v-1.432
		c0-0.588,0.479-1.176,1.179-1.176H700.836L700.836,382.835z"/>
	<path fill="#008AC1" d="M718.211,382.835c0.184,0,0.367-0.147,0.367-0.367v-2.094c0-0.184-0.146-0.368-0.367-0.368h-8.337
		c-1.874,0-3.749,1.066-3.749,3.306v2.608c0,1.139,0.221,2.756,3.232,4.115l5.842,3.196c1.028,0.441,1.028,1.285,1.028,1.763v1.249
		c0,0.588-0.478,1.139-1.175,1.139h-8.449c-0.184,0-0.367,0.147-0.367,0.367v2.094c0,0.183,0.146,0.367,0.367,0.367h9.072
		c1.323,0,3.785-0.588,3.785-3.6v-2.094c0-1.322-0.221-2.571-3.233-4.114l-5.804-3.232c-1.066-0.551-1.066-1.25-1.066-1.727v-1.432
		c0-0.588,0.479-1.176,1.176-1.176H718.211L718.211,382.835z"/>
	<path fill="#008AC1" d="M595.472,361.884c3.381,0,5.327-2.681,5.327-5.326v-16.641c0-2.644-1.946-5.326-5.327-5.326h-7.235
		c-3.38,0-5.327,2.682-5.327,5.326v16.641c0,2.645,1.947,5.326,5.327,5.326H595.472L595.472,361.884z M588.531,359.056
		c-1.396,0-2.315-1.175-2.315-2.314v-17.008c0-1.139,0.919-2.314,2.315-2.314h6.648c1.395,0,2.312,1.175,2.312,2.314v17.008
		c0,1.139-0.918,2.314-2.312,2.314H588.531L588.531,359.056z"/>
	<path fill="#008AC1" d="M605.758,368.717c0,0.22,0.184,0.367,0.367,0.367h2.57c0.221,0,0.367-0.184,0.367-0.367v-6.833
		c0.589,0,1.323,0,7.569,0c2.497,0,3.967-1.983,3.967-3.967v-12.195c0-2.241-1.837-4.041-4.042-4.041h-6.832
		c-2.572,0-3.967,1.616-3.967,3.967V368.717L605.758,368.717z M609.1,345.648c0-0.587,0.441-1.139,1.139-1.139h5.842
		c0.589,0,1.211,0.478,1.211,1.213v12.159c0,0.587-0.479,1.175-1.174,1.175H609.1V345.648L609.1,345.648z"/>
	<path fill="#008AC1" d="M628.128,355.162c0-0.477,0.073-0.844,0.698-1.065l8.447-1.911c1.947-0.771,1.947-2.46,1.947-3.673v-3.6
		c0-2.24-1.762-3.232-3.416-3.232h-7.677c-2.129,0-3.308,1.359-3.308,3.306v12.673v0.919c0,2.24,1.729,3.305,3.418,3.305h9.66
		c0.148,0,0.256-0.146,0.256-0.257v-2.314c0-0.147-0.107-0.257-0.256-0.257h-8.375c-0.697,0-1.396-0.404-1.396-1.249V355.162
		L628.128,355.162z M629.452,351.011l-1.323,0.588v-5.987c0-0.699,0.441-1.103,1.138-1.103h5.768c0.551,0,1.139,0.331,1.139,1.029
		v2.498c0,0.294,0.037,1.396-0.771,1.579L629.452,351.011L629.452,351.011z"/>
	<path fill="#008AC1" d="M653.768,344.509c0.735,0,1.211,0.625,1.211,1.213v15.795c0,0.184,0.149,0.367,0.37,0.367h2.57
		c0.184,0,0.368-0.146,0.368-0.367v-15.795c0-2.021-1.471-4.041-4.041-4.041c-7.86,0-3.416,0-6.576,0
		c-2.571,0-4.041,2.02-4.041,4.041v15.795c0,0.184,0.147,0.367,0.367,0.367h2.607c0.187,0,0.37-0.146,0.37-0.367v-15.795
		c0-0.588,0.438-1.213,1.173-1.213H653.768L653.768,344.509z"/>
	<path fill="#008AC1" d="M681.283,361.884c2.239,0,4.592-1.359,4.592-4.371v-3.453c0-1.653,0-3.931-2.646-4.996l-9.845-3.93
		c-1.026-0.404-0.918-1.983-0.918-2.461v-3.563c0-1.139,0.955-1.69,1.91-1.69h10.507c0.184,0,0.367-0.147,0.367-0.367v-2.094
		c0-0.184-0.146-0.368-0.367-0.368h-10.985c-2.239,0-4.59,1.433-4.59,4.445v3.82c0,1.653,0.035,4.042,2.976,5.107l9.513,3.893
		c0.992,0.404,0.92,1.984,0.92,2.462v3.048c0,1.139-0.957,1.69-1.912,1.69h-10.836c-0.184,0-0.367,0.147-0.367,0.367v2.094
		c0,0.184,0.149,0.367,0.367,0.367H681.283L681.283,361.884z"/>
	<path fill="#008AC1" d="M704.643,345.722c0-2.094-2.094-4.041-4.04-4.041h-6.684c-2.169,0-4.004,1.763-4.004,4.004v12.232
		c0,1.984,1.284,3.967,3.967,3.967h6.942c2.533,0,3.818-1.983,3.818-3.967V345.722L704.643,345.722z M701.338,357.881
		c0,0.587-0.478,1.175-1.176,1.175h-5.73c-0.699,0-1.175-0.588-1.175-1.175v-12.159c0-0.735,0.588-1.213,1.21-1.213h5.695
		c0.698,0,1.176,0.588,1.176,1.176V357.881L701.338,357.881z"/>
	<path fill="#008AC1" d="M713.937,359.056c-0.733,0-1.212-0.624-1.212-1.212v-15.795c0-0.184-0.146-0.368-0.367-0.368h-2.571
		c-0.184,0-0.367,0.147-0.367,0.368v15.795c0,2.02,1.468,4.04,4.04,4.04c7.861,0,3.416,0,6.577,0c2.569,0,4.04-2.02,4.04-4.04
		v-15.795c0-0.184-0.148-0.368-0.369-0.368H721.1c-0.184,0-0.367,0.147-0.367,0.368v15.795c0,0.588-0.479,1.212-1.213,1.212H713.937
		L713.937,359.056z"/>
	<path fill="#008AC1" d="M738.034,344.693c0.184,0,0.368-0.147,0.368-0.367v-2.277c0-0.184-0.147-0.368-0.368-0.368h-5.143
		c-2.571,0-4.041,2.02-4.041,4.041l0.037,15.795c0,0.184,0.149,0.367,0.367,0.367h2.607c0.184,0,0.367-0.146,0.367-0.367
		l0.037-15.942c0-0.662,0.625-0.882,0.809-0.882H738.034L738.034,344.693z"/>
	<path fill="#008AC1" d="M752.838,361.884c0.182,0,0.367-0.146,0.367-0.367v-2.094c0-0.184-0.148-0.367-0.367-0.367h-7.677
		c-0.588,0-1.14-0.441-1.14-1.139v-12.232c0-0.588,0.478-1.176,1.174-1.176h7.643c0.182,0,0.367-0.147,0.367-0.367v-2.093
		c0-0.184-0.148-0.368-0.367-0.368h-0.588h-7.53c-2.536,0-4.005,2.02-4.005,4.004v12.196c0,2.24,1.838,4.003,4.005,4.003h5.472
		H752.838L752.838,361.884z"/>
	<path fill="#008AC1" d="M760.184,355.162c0-0.477,0.074-0.844,0.698-1.065l8.448-1.911c1.947-0.771,1.947-2.46,1.947-3.673v-3.6
		c0-2.24-1.764-3.232-3.417-3.232h-7.677c-2.131,0-3.306,1.359-3.306,3.306v12.673v0.919c0,2.24,1.726,3.305,3.417,3.305h9.66
		c0.147,0,0.256-0.146,0.256-0.257v-2.314c0-0.147-0.108-0.257-0.256-0.257h-8.375c-0.698,0-1.396-0.404-1.396-1.249V355.162
		L760.184,355.162z M761.507,351.011l-1.323,0.588v-5.987c0-0.699,0.441-1.103,1.14-1.103h5.767c0.551,0,1.139,0.331,1.139,1.029
		v2.498c0,0.294,0.037,1.396-0.771,1.579L761.507,351.011L761.507,351.011z"/>
	<g>
		<path fill="#008AC1" d="M417.938,503.717c-0.109,0-0.183-0.092-0.183-0.183v-13.213c0-0.11,0.092-0.184,0.183-0.184h5.52
			c1.681,0,2.649,1.335,2.649,2.65v1.975c0,1.169-0.476,1.881-1.242,2.247c1.005,0.329,1.517,1.279,1.517,2.083v1.974
			c0,1.316-0.969,2.65-2.65,2.65H417.938z M422.873,496.297c0.969,0,1.59-0.804,1.59-1.59v-2.01c0-0.566-0.457-1.151-1.151-1.151
			H419.4v4.751H422.873z M419.4,497.704v4.605h4.185c0.695,0,1.151-0.585,1.151-1.151v-2.065c0-0.676-0.548-1.389-1.389-1.389H419.4
			z"/>
		<path fill="#008AC1" d="M433.603,502.31c0.366,0,0.604-0.311,0.604-0.604v-7.857c0-0.11,0.091-0.184,0.183-0.184h1.297
			c0.109,0,0.183,0.092,0.183,0.184v7.857c0,1.005-0.73,2.011-2.01,2.011c-1.571,0,0.64,0-3.271,0c-1.278,0-2.01-1.006-2.01-2.011
			v-7.857c0-0.11,0.092-0.184,0.183-0.184h1.279c0.109,0,0.184,0.092,0.184,0.184v7.857c0,0.293,0.237,0.604,0.602,0.604H433.603z"
			/>
		<path fill="#008AC1" d="M440.587,495.073c-0.365,0-0.585,0.31-0.585,0.603v7.858c0,0.109-0.091,0.183-0.183,0.183h-1.297
			c-0.11,0-0.184-0.092-0.184-0.183v-7.858c0-1.005,0.731-2.011,2.01-2.011c1.572,0-0.64,0,3.271,0c1.279,0,2.01,1.006,2.01,2.011
			v7.858c0,0.109-0.091,0.183-0.183,0.183h-1.279c-0.108,0-0.183-0.092-0.183-0.183v-7.858c0-0.293-0.237-0.603-0.603-0.603H440.587
			z"/>
		<path fill="#008AC1" d="M455.21,501.743c0,1.169-0.695,1.974-1.974,1.974h-3.399c-1.097,0-2.011-0.896-2.011-2.011v-6.066
			c0-0.987,0.731-1.975,1.974-1.975h3.765v-3.344c0-0.092,0.073-0.184,0.184-0.184h1.278c0.092,0,0.184,0.074,0.184,0.184V501.743z
			 M450.056,495.073c-0.347,0-0.585,0.292-0.585,0.585v6.048c0,0.366,0.311,0.604,0.604,0.604h2.905
			c0.348,0,0.567-0.274,0.567-0.566v-6.67h-0.184H450.056z"/>
		<path fill="#008AC1" d="M459.325,501.688c0,0.42,0.348,0.622,0.694,0.622h4.166c0.073,0,0.129,0.055,0.129,0.127v1.151
			c0,0.055-0.056,0.129-0.129,0.129h-4.806c-0.84,0-1.699-0.53-1.699-1.645v-0.458v-6.304c0-0.969,0.585-1.646,1.645-1.646h3.819
			c0.822,0,1.699,0.494,1.699,1.608v1.791c0,0.604,0,1.444-0.969,1.827l-4.202,0.95c-0.311,0.11-0.348,0.293-0.348,0.53V501.688z
			 M462.944,497.613c0.401-0.092,0.383-0.641,0.383-0.786v-1.243c0-0.347-0.292-0.511-0.566-0.511h-2.869
			c-0.348,0-0.566,0.2-0.566,0.548v2.979l0.658-0.293L462.944,497.613z"/>
		<path fill="#008AC1" d="M469.141,495.073c-0.347,0-0.584,0.292-0.584,0.585v0.712c0,0.237,0,0.585,0.529,0.858l2.888,1.609
			c1.498,0.767,1.608,1.388,1.608,2.046v1.042c0,1.498-1.225,1.791-1.883,1.791h-4.514c-0.109,0-0.183-0.092-0.183-0.183v-1.042
			c0-0.109,0.092-0.183,0.183-0.183h4.203c0.348,0,0.585-0.274,0.585-0.566v-0.622c0-0.237,0-0.657-0.512-0.877l-2.905-1.59
			c-1.499-0.676-1.609-1.48-1.609-2.047v-1.297c0-1.114,0.933-1.646,1.864-1.646h4.149c0.108,0,0.182,0.092,0.182,0.184v1.041
			c0,0.11-0.092,0.184-0.182,0.184H469.141z"/>
		<path fill="#008AC1" d="M481.004,503.168c-0.164,0.512-0.695,0.677-1.353,0.677c-0.658,0-1.188-0.165-1.353-0.677l-3.052-9.265
			c-0.055-0.165,0.037-0.238,0.238-0.238h1.041c0.273,0,0.494,0.22,0.549,0.439l2.411,7.675l0.221,0.896l0.182-0.896l2.34-7.675
			c0.055-0.22,0.273-0.439,0.548-0.439h1.041c0.202,0,0.293,0.073,0.238,0.238L481.004,503.168z"/>
		<path fill="#008AC1" d="M487.367,501.688c0,0.42,0.347,0.622,0.694,0.622h4.167c0.073,0,0.127,0.055,0.127,0.127v1.151
			c0,0.055-0.054,0.129-0.127,0.129h-4.807c-0.841,0-1.699-0.53-1.699-1.645v-0.458v-6.304c0-0.969,0.585-1.646,1.645-1.646h3.819
			c0.822,0,1.7,0.494,1.7,1.608v1.791c0,0.604,0,1.444-0.969,1.827l-4.204,0.95c-0.311,0.11-0.347,0.293-0.347,0.53V501.688z
			 M490.985,497.613c0.402-0.092,0.384-0.641,0.384-0.786v-1.243c0-0.347-0.292-0.511-0.566-0.511h-2.869
			c-0.347,0-0.566,0.2-0.566,0.548v2.979l0.657-0.293L490.985,497.613z"/>
		<path fill="#008AC1" d="M497.275,495.164c-0.092,0-0.402,0.109-0.402,0.438l-0.019,7.932c0,0.109-0.091,0.183-0.183,0.183h-1.298
			c-0.109,0-0.183-0.092-0.183-0.183l-0.018-7.858c0-1.005,0.73-2.011,2.01-2.011h2.559c0.109,0,0.183,0.092,0.183,0.184v1.133
			c0,0.11-0.092,0.183-0.183,0.183H497.275z"/>
		<path fill="#008AC1" d="M501.461,490.321c0-0.11,0.092-0.184,0.184-0.184h1.278c0.11,0,0.184,0.092,0.184,0.184v3.344
			c0.292,0,0.657,0,3.765,0c1.242,0,1.973,0.987,1.973,1.975v6.066c0,1.115-0.913,2.011-2.01,2.011h-3.399
			c-1.278,0-1.974-0.805-1.974-1.974V490.321z M503.125,501.743c0,0.292,0.22,0.566,0.567,0.566h2.905
			c0.292,0,0.604-0.237,0.604-0.604v-6.048c0-0.293-0.238-0.585-0.585-0.585h-3.491V501.743z"/>
		<path fill="#008AC1" d="M516.194,495.693c0-0.42-0.347-0.62-0.694-0.62h-3.91c-0.073,0-0.128-0.056-0.128-0.129v-1.151
			c0-0.055,0.055-0.128,0.128-0.128h4.55c0.841,0,1.699,0.531,1.699,1.646v0.456v6.306c0,0.968-0.585,1.645-1.645,1.645h-3.637
			c-0.822,0-1.699-0.493-1.699-1.608v-1.846c0-0.604,0-1.443,0.969-1.828l4.021-1.077c0.311-0.129,0.347-0.256,0.347-0.494V495.693z
			 M512.758,499.604c-0.384,0.165-0.384,0.64-0.384,0.785v1.408c0,0.347,0.293,0.512,0.566,0.512h2.687
			c0.348,0,0.566-0.201,0.566-0.548v-3.145l-0.529,0.274L512.758,499.604z"/>
		<path fill="#008AC1" d="M522.556,495.073c-0.365,0-0.585,0.31-0.585,0.603v7.858c0,0.109-0.091,0.183-0.182,0.183h-1.298
			c-0.109,0-0.183-0.092-0.183-0.183v-7.858c0-1.005,0.731-2.011,2.01-2.011c1.571,0-0.64,0,3.271,0c1.279,0,2.01,1.006,2.01,2.011
			v7.858c0,0.109-0.091,0.183-0.183,0.183h-1.279c-0.109,0-0.183-0.092-0.183-0.183v-7.858c0-0.293-0.237-0.603-0.603-0.603H522.556
			z"/>
		<path fill="#008AC1" d="M537.179,501.743c0,1.169-0.694,1.974-1.974,1.974h-3.398c-1.097,0-2.011-0.896-2.011-2.011v-6.066
			c0-0.987,0.731-1.975,1.974-1.975h3.765v-3.344c0-0.092,0.073-0.184,0.183-0.184h1.279c0.092,0,0.183,0.074,0.183,0.184V501.743z
			 M532.026,495.073c-0.347,0-0.585,0.292-0.585,0.585v6.048c0,0.366,0.311,0.604,0.604,0.604h2.905
			c0.348,0,0.567-0.274,0.567-0.566v-6.67h-0.184H532.026z"/>
		<path fill="#008AC1" d="M550.542,495.511c0.11,0,0.184,0.092,0.184,0.183v1.042c0,0.11-0.092,0.183-0.184,0.183h-2.924v6.616
			c0,0.109-0.091,0.183-0.182,0.183h-1.298c-0.11,0-0.183-0.092-0.183-0.183v-11.403c0-0.987,0.73-1.993,1.991-1.993h3.327
			c0.109,0,0.182,0.092,0.182,0.184v1.041c0,0.11-0.091,0.184-0.182,0.184h-3.071c-0.347,0-0.585,0.292-0.585,0.585v3.38H550.542z"
			/>
		<path fill="#008AC1" d="M557.929,502.31c0.365,0,0.603-0.311,0.603-0.604v-7.857c0-0.11,0.092-0.184,0.183-0.184h1.297
			c0.11,0,0.184,0.092,0.184,0.184v7.857c0,1.005-0.731,2.011-2.01,2.011c-1.572,0,0.639,0-3.271,0c-1.279,0-2.01-1.006-2.01-2.011
			v-7.857c0-0.11,0.091-0.184,0.183-0.184h1.279c0.109,0,0.183,0.092,0.183,0.184v7.857c0,0.293,0.237,0.604,0.603,0.604H557.929z
			 M554.438,491.947c-0.091,0-0.183-0.073-0.183-0.183v-1.443c0-0.092,0.073-0.184,0.183-0.184h1.279
			c0.11,0,0.183,0.092,0.183,0.184v1.443c0,0.109-0.091,0.183-0.183,0.183H554.438z M557.399,491.947
			c-0.092,0-0.183-0.073-0.183-0.183v-1.443c0-0.092,0.183-0.184,0.183-0.184h1.279c0.109,0,0.183,0.092,0.183,0.184v1.443
			c0,0.109-0.092,0.183-0.183,0.183H557.399z"/>
		<path fill="#008AC1" d="M564.767,495.164c-0.092,0-0.402,0.109-0.402,0.438l-0.019,7.932c0,0.109-0.092,0.183-0.183,0.183h-1.298
			c-0.109,0-0.183-0.092-0.183-0.183l-0.018-7.858c0-1.005,0.73-2.011,2.01-2.011h2.559c0.109,0,0.182,0.092,0.182,0.184v1.133
			c0,0.11-0.091,0.183-0.182,0.183H564.767z"/>
		<path fill="#008AC1" d="M581.961,501.743c0,1.169-0.694,1.974-1.974,1.974h-3.398c-1.097,0-2.011-0.896-2.011-2.011v-6.066
			c0-0.987,0.73-1.975,1.974-1.975h3.765v-3.344c0-0.092,0.073-0.184,0.183-0.184h1.279c0.092,0,0.183,0.074,0.183,0.184V501.743z
			 M576.808,495.073c-0.348,0-0.585,0.292-0.585,0.585v6.048c0,0.366,0.311,0.604,0.604,0.604h2.905
			c0.348,0,0.566-0.274,0.566-0.566v-6.67h-0.183H576.808z"/>
		<path fill="#008AC1" d="M584.852,491.947c-0.091,0-0.183-0.073-0.183-0.183v-1.443c0-0.092,0.073-0.184,0.183-0.184h1.39
			c0.109,0,0.183,0.092,0.183,0.184v1.443c0,0.109-0.092,0.183-0.183,0.183H584.852z M584.725,493.849
			c0-0.11,0.091-0.184,0.182-0.184h1.28c0.108,0,0.182,0.092,0.182,0.184v9.686c0,0.091-0.073,0.183-0.182,0.183h-1.28
			c-0.091,0-0.182-0.074-0.182-0.183V493.849z"/>
		<path fill="#008AC1" d="M596.219,505.215c0,1.225-0.747,2.084-2.082,2.084h-4.148c-0.072,0-0.127-0.056-0.127-0.129v-1.151
			c0-0.055,0.055-0.127,0.127-0.127h3.894c0.329,0,0.675-0.274,0.675-0.677v-1.498h-3.454c-1.241,0-1.973-0.987-1.973-1.974v-6.067
			c0-1.115,0.913-2.011,2.01-2.011h3.088c1.263,0,1.991,1.006,1.991,1.993V505.215z M594.557,495.676
			c0-0.365-0.311-0.603-0.603-0.603h-2.576c-0.293,0-0.604,0.237-0.604,0.603v6.049c0,0.292,0.237,0.585,0.585,0.585h3.197V495.676z
			"/>
		<path fill="#008AC1" d="M599.11,491.947c-0.09,0-0.182-0.073-0.182-0.183v-1.443c0-0.092,0.072-0.184,0.182-0.184h1.391
			c0.107,0,0.182,0.092,0.182,0.184v1.443c0,0.109-0.092,0.183-0.182,0.183H599.11z M598.983,493.849
			c0-0.11,0.092-0.184,0.182-0.184h1.279c0.111,0,0.184,0.092,0.184,0.184v9.686c0,0.091-0.072,0.183-0.184,0.183h-1.279
			c-0.09,0-0.182-0.074-0.182-0.183V493.849z"/>
		<path fill="#008AC1" d="M605.051,494.944v6.762c0,0.311,0.236,0.604,0.604,0.604h1.699h0.184c0.109,0,0.182,0.091,0.182,0.183
			v1.042c0,0.109-0.092,0.183-0.182,0.183h-2.176c-0.949,0-1.973-0.749-1.973-1.974v-10.929c0-0.11,0.055-0.219,0.182-0.256
			l1.299-0.402c0.145-0.054,0.182,0.092,0.182,0.184v3.198h2.266c0.109,0,0.184,0.09,0.184,0.182v1.043
			c0,0.108-0.092,0.182-0.184,0.182H605.051z"/>
		<path fill="#008AC1" d="M615.104,495.693c0-0.42-0.348-0.62-0.695-0.62h-3.91c-0.072,0-0.129-0.056-0.129-0.129v-1.151
			c0-0.055,0.057-0.128,0.129-0.128h4.551c0.84,0,1.699,0.531,1.699,1.646v0.456v6.306c0,0.968-0.584,1.645-1.645,1.645h-3.637
			c-0.82,0-1.699-0.493-1.699-1.608v-1.846c0-0.604,0-1.443,0.969-1.828l4.02-1.077c0.311-0.129,0.348-0.256,0.348-0.494V495.693z
			 M611.668,499.604c-0.383,0.165-0.383,0.64-0.383,0.785v1.408c0,0.347,0.291,0.512,0.564,0.512h2.688
			c0.348,0,0.566-0.201,0.566-0.548v-3.145l-0.531,0.274L611.668,499.604z"/>
		<path fill="#008AC1" d="M622.491,502.31c0.109,0,0.184,0.091,0.184,0.183v1.042c0,0.109-0.094,0.183-0.184,0.183h-0.184h-1.352
			c-1.059,0-1.645-0.677-1.645-1.645v-11.751c0-0.092,0.072-0.184,0.182-0.184h1.279c0.092,0,0.184,0.074,0.184,0.184v11.805
			c0,0.11,0.074,0.184,0.182,0.184H622.491z"/>
		<path fill="#008AC1" d="M626.182,501.688c0,0.42,0.348,0.622,0.695,0.622h4.166c0.074,0,0.127,0.055,0.127,0.127v1.151
			c0,0.055-0.053,0.129-0.127,0.129h-4.805c-0.842,0-1.701-0.53-1.701-1.645v-0.458v-6.304c0-0.969,0.586-1.646,1.645-1.646h3.82
			c0.822,0,1.699,0.494,1.699,1.608v1.791c0,0.604,0,1.444-0.969,1.827l-4.203,0.95c-0.311,0.11-0.348,0.293-0.348,0.53V501.688z
			 M629.801,497.613c0.402-0.092,0.385-0.641,0.385-0.786v-1.243c0-0.347-0.293-0.511-0.566-0.511h-2.869
			c-0.348,0-0.568,0.2-0.568,0.548v2.979l0.658-0.293L629.801,497.613z"/>
		<path fill="#008AC1" d="M640.12,503.717c-0.109,0-0.182-0.092-0.182-0.183v-1.042c0-0.109,0.09-0.183,0.182-0.183h5.391
			c0.477,0,0.951-0.274,0.951-0.841v-1.517c0-0.237,0.035-1.024-0.457-1.225l-4.734-1.937c-1.461-0.53-1.479-1.718-1.479-2.541v-1.9
			c0-1.498,1.168-2.212,2.283-2.212h5.465c0.109,0,0.184,0.092,0.184,0.184v1.041c0,0.11-0.094,0.184-0.184,0.184h-5.227
			c-0.475,0-0.949,0.274-0.949,0.841v1.772c0,0.237-0.057,1.022,0.455,1.224l4.898,1.956c1.316,0.529,1.316,1.663,1.316,2.484v1.718
			c0,1.499-1.17,2.176-2.285,2.176H640.12z"/>
		<path fill="#008AC1" d="M657.465,501.743c0,0.986-0.639,1.974-1.9,1.974h-3.453c-1.334,0-1.975-0.987-1.975-1.974v-6.085
			c0-1.116,0.914-1.993,1.992-1.993h3.326c0.967,0,2.01,0.969,2.01,2.011V501.743z M655.821,495.658
			c0-0.293-0.238-0.585-0.586-0.585h-2.832c-0.311,0-0.602,0.237-0.602,0.603v6.049c0,0.292,0.236,0.585,0.584,0.585h2.85
			c0.348,0,0.586-0.293,0.586-0.585V495.658z"/>
		<path fill="#008AC1" d="M664.961,502.31c0.365,0,0.604-0.311,0.604-0.604v-7.857c0-0.11,0.09-0.184,0.182-0.184h1.299
			c0.107,0,0.182,0.092,0.182,0.184v7.857c0,1.005-0.73,2.011-2.01,2.011c-1.572,0,0.639,0-3.271,0c-1.279,0-2.01-1.006-2.01-2.011
			v-7.857c0-0.11,0.092-0.184,0.182-0.184h1.281c0.109,0,0.182,0.092,0.182,0.184v7.857c0,0.293,0.238,0.604,0.604,0.604H664.961z"
			/>
		<path fill="#008AC1" d="M674.833,503.168c-0.164,0.512-0.693,0.677-1.352,0.677s-1.188-0.165-1.352-0.677l-3.053-9.265
			c-0.055-0.165,0.035-0.238,0.236-0.238h1.043c0.273,0,0.492,0.22,0.547,0.439l2.414,7.675l0.219,0.896l0.182-0.896l2.34-7.675
			c0.055-0.22,0.273-0.439,0.547-0.439h1.043c0.201,0,0.293,0.073,0.238,0.238L674.833,503.168z"/>
		<path fill="#008AC1" d="M681.196,501.688c0,0.42,0.348,0.622,0.695,0.622h4.166c0.072,0,0.127,0.055,0.127,0.127v1.151
			c0,0.055-0.055,0.129-0.127,0.129h-4.807c-0.84,0-1.699-0.53-1.699-1.645v-0.458v-6.304c0-0.969,0.584-1.646,1.645-1.646h3.818
			c0.822,0,1.699,0.494,1.699,1.608v1.791c0,0.604,0,1.444-0.967,1.827l-4.203,0.95c-0.311,0.11-0.348,0.293-0.348,0.53V501.688z
			 M684.815,497.613c0.402-0.092,0.383-0.641,0.383-0.786v-1.243c0-0.347-0.293-0.511-0.566-0.511h-2.869
			c-0.346,0-0.566,0.2-0.566,0.548v2.979l0.658-0.293L684.815,497.613z"/>
		<path fill="#008AC1" d="M691.102,495.164c-0.09,0-0.402,0.109-0.402,0.438l-0.018,7.932c0,0.109-0.092,0.183-0.182,0.183h-1.299
			c-0.109,0-0.182-0.092-0.182-0.183l-0.02-7.858c0-1.005,0.73-2.011,2.012-2.011h2.557c0.111,0,0.184,0.092,0.184,0.184v1.133
			c0,0.11-0.092,0.183-0.184,0.183H691.102z"/>
		<path fill="#008AC1" d="M700.735,495.693c0-0.42-0.346-0.62-0.693-0.62h-3.91c-0.074,0-0.129-0.056-0.129-0.129v-1.151
			c0-0.055,0.055-0.128,0.129-0.128h4.549c0.842,0,1.701,0.531,1.701,1.646v0.456v6.306c0,0.968-0.586,1.645-1.646,1.645H697.1
			c-0.822,0-1.699-0.493-1.699-1.608v-1.846c0-0.604,0-1.443,0.967-1.828l4.021-1.077c0.309-0.129,0.346-0.256,0.346-0.494V495.693z
			 M696.897,491.947c-0.09,0-0.182-0.073-0.182-0.183v-1.443c0-0.092,0.072-0.184,0.182-0.184h1.281
			c0.109,0,0.182,0.092,0.182,0.184v1.443c0,0.109-0.092,0.183-0.182,0.183H696.897z M697.299,499.604
			c-0.383,0.165-0.383,0.64-0.383,0.785v1.408c0,0.347,0.291,0.512,0.566,0.512h2.686c0.348,0,0.566-0.201,0.566-0.548v-3.145
			l-0.529,0.274L697.299,499.604z M699.858,491.947c-0.09,0-0.182-0.073-0.182-0.183v-1.443c0-0.092,0.072-0.184,0.182-0.184h1.279
			c0.111,0,0.184,0.092,0.184,0.184v1.443c0,0.109-0.092,0.183-0.184,0.183H699.858z"/>
		<path fill="#008AC1" d="M707.098,495.073c-0.365,0-0.584,0.31-0.584,0.603v7.858c0,0.109-0.092,0.183-0.184,0.183h-1.297
			c-0.109,0-0.182-0.092-0.182-0.183v-7.858c0-1.005,0.729-2.011,2.01-2.011c1.572,0-0.641,0,3.271,0c1.277,0,2.01,1.006,2.01,2.011
			v7.858c0,0.109-0.092,0.183-0.184,0.183h-1.279c-0.109,0-0.182-0.092-0.182-0.183v-7.858c0-0.293-0.238-0.603-0.604-0.603H707.098
			z"/>
		<path fill="#008AC1" d="M715.034,491.947c-0.092,0-0.184-0.073-0.184-0.183v-1.443c0-0.092,0.074-0.184,0.184-0.184h1.389
			c0.109,0,0.182,0.092,0.182,0.184v1.443c0,0.109-0.092,0.183-0.182,0.183H715.034z M714.905,493.849
			c0-0.11,0.092-0.184,0.184-0.184h1.279c0.109,0,0.182,0.092,0.182,0.184v9.686c0,0.091-0.072,0.183-0.182,0.183h-1.279
			c-0.092,0-0.184-0.074-0.184-0.183V493.849z"/>
		<path fill="#008AC1" d="M720.973,494.944v6.762c0,0.311,0.236,0.604,0.604,0.604h1.699h0.184c0.107,0,0.182,0.091,0.182,0.183
			v1.042c0,0.109-0.092,0.183-0.182,0.183h-2.176c-0.951,0-1.973-0.749-1.973-1.974v-10.929c0-0.11,0.055-0.219,0.182-0.256
			l1.299-0.402c0.145-0.054,0.182,0.092,0.182,0.184v3.198h2.266c0.109,0,0.184,0.09,0.184,0.182v1.043
			c0,0.108-0.092,0.182-0.184,0.182H720.973z"/>
		<path fill="#008AC1" d="M731.026,495.693c0-0.42-0.346-0.62-0.693-0.62h-3.912c-0.072,0-0.127-0.056-0.127-0.129v-1.151
			c0-0.055,0.055-0.128,0.127-0.128h4.551c0.842,0,1.701,0.531,1.701,1.646v0.456v6.306c0,0.968-0.586,1.645-1.646,1.645h-3.635
			c-0.822,0-1.701-0.493-1.701-1.608v-1.846c0-0.604,0-1.443,0.969-1.828l4.021-1.077c0.309-0.129,0.346-0.256,0.346-0.494V495.693z
			 M727.188,491.947c-0.09,0-0.182-0.073-0.182-0.183v-1.443c0-0.092,0.072-0.184,0.182-0.184h1.279
			c0.111,0,0.184,0.092,0.184,0.184v1.443c0,0.109-0.092,0.183-0.184,0.183H727.188z M727.59,499.604
			c-0.383,0.165-0.383,0.64-0.383,0.785v1.408c0,0.347,0.291,0.512,0.566,0.512h2.686c0.348,0,0.566-0.201,0.566-0.548v-3.145
			l-0.529,0.274L727.59,499.604z M730.149,491.947c-0.09,0-0.182-0.073-0.182-0.183v-1.443c0-0.092,0.072-0.184,0.182-0.184h1.279
			c0.111,0,0.184,0.092,0.184,0.184v1.443c0,0.109-0.092,0.183-0.184,0.183H730.149z"/>
		<path fill="#008AC1" d="M736.803,494.944v6.762c0,0.311,0.238,0.604,0.604,0.604h1.699h0.184c0.109,0,0.182,0.091,0.182,0.183
			v1.042c0,0.109-0.092,0.183-0.182,0.183h-2.176c-0.949,0-1.973-0.749-1.973-1.974v-10.929c0-0.11,0.055-0.219,0.182-0.256
			l1.299-0.402c0.145-0.054,0.182,0.092,0.182,0.184v3.198h2.266c0.111,0,0.184,0.09,0.184,0.182v1.043
			c0,0.108-0.092,0.182-0.184,0.182H736.803z"/>
		<path fill="#008AC1" d="M748.676,501.688c0,0.42,0.348,0.622,0.695,0.622h4.166c0.072,0,0.127,0.055,0.127,0.127v1.151
			c0,0.055-0.055,0.129-0.127,0.129h-4.807c-0.84,0-1.699-0.53-1.699-1.645v-0.458v-6.304c0-0.969,0.584-1.646,1.645-1.646h3.818
			c0.822,0,1.699,0.494,1.699,1.608v1.791c0,0.604,0,1.444-0.967,1.827l-4.203,0.95c-0.311,0.11-0.348,0.293-0.348,0.53V501.688z
			 M752.295,497.613c0.4-0.092,0.383-0.641,0.383-0.786v-1.243c0-0.347-0.293-0.511-0.566-0.511h-2.869
			c-0.348,0-0.566,0.2-0.566,0.548v2.979l0.658-0.293L752.295,497.613z"/>
		<path fill="#008AC1" d="M756.665,503.717c-0.09,0-0.182-0.074-0.182-0.183v-1.443c0-0.092,0.072-0.184,0.182-0.184h1.391
			c0.107,0,0.182,0.092,0.182,0.184v1.443c0,0.109-0.092,0.183-0.182,0.183H756.665z"/>
		<path fill="#008AC1" d="M765.735,503.826c-0.438-0.055-0.822-0.329-0.949-0.713c-4.148-12.609-4.203-12.737-4.203-12.792
			c0-0.11,0.109-0.184,0.201-0.184h1.061c0.201,0,0.4,0.202,0.455,0.366c0.037,0.092,0.111,0.201,3.656,10.91l0.164,0.969
			l0.164-0.969c3.545-10.709,3.619-10.818,3.654-10.91c0.057-0.164,0.258-0.366,0.457-0.366h1.061c0.092,0,0.201,0.074,0.201,0.184
			c0,0.055-0.055,0.183-4.203,12.792c-0.127,0.384-0.512,0.658-0.949,0.713c0,0-0.129,0.019-0.385,0.019
			C765.881,503.845,765.735,503.826,765.735,503.826z"/>
		<path fill="#008AC1" d="M771.223,503.717c-0.092,0-0.184-0.074-0.184-0.183v-1.443c0-0.092,0.074-0.184,0.184-0.184h1.389
			c0.109,0,0.184,0.092,0.184,0.184v1.443c0,0.109-0.094,0.183-0.184,0.183H771.223z"/>
	</g>
	<path fill="#008AC1" d="M430.893,400.283c-6.969,0-10.729-5.527-10.729-10.728v-43.916c0-5.201,3.76-10.728,10.729-10.728h26.228
		c6.969,0,10.728,5.527,10.728,10.728v43.916c0,5.201-3.759,10.728-10.728,10.728H430.893z M434.088,343.87
		c-2.527,0-4.091,2.123-4.091,4.089v39.186c0,1.966,1.563,4.089,4.091,4.089h19.838c2.526,0,4.09-2.123,4.09-4.089v-39.186
		c0-1.966-1.563-4.089-4.09-4.089H434.088z"/>
	<path fill="#008AC1" d="M479.887,400.283c-1.291,0-2.158-1.069-2.158-2.069v-4.91c0-1.295,1.098-2.069,2.158-2.069h25.564
		c1.497,0,3.108-0.833,3.108-2.661v-7.23c0-1.819-0.159-3.745-1.336-4.236l-22.326-8.99l0.01-0.032
		c-7.66-2.786-7.66-8.681-7.66-12.985v-8.747c0-7.923,6.115-11.531,11.797-11.531h25.78c1.277,0,2.068,1.074,2.068,2.069v4.91
		c0,1.278-1.074,2.069-2.068,2.069h-24.619c-1.591,0-3.197,0.823-3.197,2.661v8.569c0,1.172,0,3.612,1.365,4.068l23.079,9.097
		c6.958,2.749,6.958,8.513,6.958,12.722v7.944c0,7.799-6.162,11.352-11.888,11.352H479.887z"/>
	<path fill="#008AC1" d="M529.979,400.283c-1.352,0-2.159-1.052-2.159-2.069v-61.323c0-1.295,1.098-2.069,2.159-2.069h26.672
		c8.823,0,13.584,6.999,13.584,13.583v9.104c0,4.772-2.053,8.587-5.357,9.958l-1.098,0.455l1.135,0.353
		c4.114,1.28,6.57,4.763,6.57,9.319v9.104c0,6.585-4.761,13.583-13.584,13.583H529.979z M537.939,391.235h19.337
		c2.446,0,4.09-2.114,4.09-4.089v-9.551c0-2.482-2.007-5.162-5.25-5.162h-18.177V391.235z M537.939,363.386h16.034
		c3.789,0,6.054-3.124,6.054-6.143v-9.283c0-1.975-1.607-4.089-4-4.089h-18.088V363.386z"/>
</g>
</svg>
