<?xml version="1.0" encoding="UTF-8"?>
<svg width="184px" height="21px" viewBox="0 0 184 21" version="1.1" xmlns="http://www.w3.org/2000/svg" xmlns:xlink="http://www.w3.org/1999/xlink">
    <title>Logo/patchstack/Dark</title>
    <g id="Logo/patchstack/Dark" stroke="none" stroke-width="1" fill="none" fill-rule="evenodd">
        <g id="Group-27">
            <path d="M50.3551048,11.0070333 C50.3551048,8.59290833 49.270381,7.603575 46.5451365,7.603575 C43.9165651,7.603575 42.6627365,8.66553333 42.6627365,11.0070333 C42.6627365,13.3240333 43.9165651,14.362075 46.5451365,14.362075 C49.270381,14.362075 50.3551048,13.3482417 50.3551048,11.0070333 M53.4419238,11.0070333 C53.4419238,14.77245 51.3440317,17.1381583 47.4613397,17.1381583 C45.4116381,17.1381583 43.6513714,16.0277833 42.7830667,14.0240333 L42.7830667,21.0001167 L39.7204889,21.0001167 L39.7204889,5.06899167 L42.7830667,5.06899167 L42.7830667,7.98945 C43.6513714,5.98628333 45.4840698,4.82749167 47.6304444,4.82749167 C51.4164635,4.82749167 53.4419238,7.16899167 53.4419238,11.0070333" id="Fill-1" fill="#17191E"></path>
            <path d="M66.3520063,11.0070333 C66.3520063,8.66553333 65.0981778,7.603575 62.4696063,7.603575 C59.7443619,7.603575 58.659346,8.59290833 58.659346,11.0070333 C58.659346,13.3482417 59.7443619,14.362075 62.4696063,14.362075 C65.0981778,14.362075 66.3520063,13.3240333 66.3520063,11.0070333 L66.3520063,11.0070333 Z M66.2556254,5.06899167 L69.3184952,5.06899167 L69.3184952,16.8966583 L66.2556254,16.8966583 L66.2556254,13.9759083 C65.3876127,15.9793667 63.6512952,17.1381583 61.5534032,17.1381583 C57.6707111,17.1381583 55.572527,14.77245 55.572527,11.0070333 C55.572527,7.16899167 57.5743302,4.82749167 61.4085397,4.82749167 C63.5546222,4.82749167 65.3876127,6.01049167 66.2556254,8.03786667 L66.2556254,5.06899167 Z" id="Fill-3" fill="#17191E"></path>
            <path d="M81.4236508,7.77250833 L77.3963873,7.77250833 L77.3963873,14.1932583 L81.1342159,14.1932583 L81.1342159,16.8967167 L77.9992063,16.8967167 C75.8049333,16.8967167 74.3338095,15.4240917 74.3338095,13.22755 L74.3338095,7.77250833 L71.4642857,7.77250833 L71.4642857,5.06905 L74.3338095,5.06905 L74.3338095,1.54484167 L77.3963873,1.54484167 L77.3963873,5.06905 L81.4236508,5.06905 L81.4236508,7.77250833 Z" id="Fill-5" fill="#17191E"></path>
            <path d="M93.7463644,11.73095 L96.7365105,12.4551583 C95.98912,15.5689917 93.7463644,17.1381583 90.0085359,17.1381583 C87.8139708,17.1381583 86.0776533,16.582825 84.8238248,15.4485333 C83.5457549,14.3381583 82.9184025,12.8655333 82.9184025,11.0070333 C82.9184025,9.12403333 83.5457549,7.62778333 84.8238248,6.4932 C86.0776533,5.382825 87.8139708,4.82778333 90.0085359,4.82778333 C93.7463644,4.82778333 95.98912,6.39636667 96.7365105,9.51049167 L93.7463644,10.2344083 C93.3602565,8.303575 92.3234311,7.603575 89.9842946,7.603575 C87.1147708,7.603575 85.9812724,8.66553333 85.9812724,11.0070333 C85.9812724,13.3240333 87.1147708,14.362075 89.9842946,14.362075 C92.3234311,14.362075 93.3365994,13.662075 93.7463644,11.73095" id="Fill-7" fill="#17191E"></path>
            <path d="M111.783855,10.0655333 L111.783855,16.8966583 L108.721277,16.8966583 L108.721277,10.7171167 C108.721277,8.49636667 107.828731,7.603575 105.875703,7.603575 C103.560808,7.603575 102.403068,8.81049167 102.403068,11.2485333 L102.403068,16.8966583 L99.3404902,16.8966583 L99.3404902,0.000116666667 L102.403068,0.000116666667 L102.403068,7.84478333 C103.054077,5.841325 104.573392,4.82778333 106.960719,4.82778333 C110.167868,4.82778333 111.783855,6.56553333 111.783855,10.0655333" id="Fill-9" fill="#17191E"></path>
            <path d="M114.074422,13.6381583 L117.064568,12.8416167 C117.329761,14.3136583 118.222307,14.7966583 120.127437,14.7966583 C121.767374,14.7966583 122.586904,14.3862833 122.586904,13.5897417 C122.586904,12.8174083 122.056517,12.503575 120.512961,12.2859917 L118.149876,11.9485333 C115.834688,11.6344083 114.412047,10.3793667 114.412047,8.424325 C114.412047,6.17936667 116.365368,4.82749167 119.668898,4.82749167 C122.948771,4.82749167 124.902383,6.082825 125.360339,8.303575 L122.394142,8.95515833 C122.177139,7.482825 121.429749,7.04824167 119.789812,7.04824167 C118.270498,7.04824167 117.498866,7.45861667 117.498866,8.27936667 C117.498866,8.97936667 117.956822,9.341325 119.186993,9.51049167 L122.080758,9.87245 C124.323514,10.1378667 125.649774,11.345075 125.649774,13.2517 C125.649774,15.6897417 123.527641,17.1381583 119.934383,17.1381583 C116.727234,17.1381583 114.484479,15.6655333 114.074422,13.6381583" id="Fill-11" fill="#17191E"></path>
            <path d="M136.745149,7.77250833 L132.717886,7.77250833 L132.717886,14.1932583 L136.455714,14.1932583 L136.455714,16.8967167 L133.320705,16.8967167 C131.126432,16.8967167 129.655308,15.4240917 129.655308,13.22755 L129.655308,7.77250833 L126.785784,7.77250833 L126.785784,5.06905 L129.655308,5.06905 L129.655308,1.54484167 L132.717886,1.54484167 L132.717886,5.06905 L136.745149,5.06905 L136.745149,7.77250833 Z" id="Fill-13" fill="#17191E"></path>
            <path d="M149.178672,11.0070333 C149.178672,8.66553333 147.924843,7.603575 145.296272,7.603575 C142.571027,7.603575 141.486011,8.59290833 141.486011,11.0070333 C141.486011,13.3482417 142.571027,14.362075 145.296272,14.362075 C147.924843,14.362075 149.178672,13.3240333 149.178672,11.0070333 L149.178672,11.0070333 Z M149.082291,5.06899167 L152.145161,5.06899167 L152.145161,16.8966583 L149.082291,16.8966583 L149.082291,13.9759083 C148.214278,15.9793667 146.477961,17.1381583 144.380069,17.1381583 C140.497377,17.1381583 138.399192,14.77245 138.399192,11.0070333 C138.399192,7.16899167 140.400996,4.82749167 144.235205,4.82749167 C146.381288,4.82749167 148.214278,6.01049167 149.082291,8.03786667 L149.082291,5.06899167 Z" id="Fill-15" fill="#17191E"></path>
            <path d="M165.552189,11.73095 L168.542335,12.4551583 C167.794945,15.5689917 165.552189,17.1381583 161.814361,17.1381583 C159.619796,17.1381583 157.88377,16.582825 156.62965,15.4485333 C155.35158,14.3381583 154.724519,12.8655333 154.724519,11.0070333 C154.724519,9.12403333 155.35158,7.62778333 156.62965,6.4932 C157.88377,5.382825 159.619796,4.82778333 161.814361,4.82778333 C165.552189,4.82778333 167.794945,6.39636667 168.542335,9.51049167 L165.552189,10.2344083 C165.166373,8.303575 164.129256,7.603575 161.790119,7.603575 C158.920596,7.603575 157.787097,8.66553333 157.787097,11.0070333 C157.787097,13.3240333 158.920596,14.362075 161.790119,14.362075 C164.129256,14.362075 165.142424,13.662075 165.552189,11.73095" id="Fill-17" fill="#17191E"></path>
            <polygon id="Fill-19" fill="#17191E" points="180.286267 16.8966292 176.62087 11.8035458 174.160819 14.1450458 174.160819 16.8966292 171.146724 16.8966292 171.146724 8.75e-05 174.160819 8.75e-05 174.160819 10.5607542 179.828019 5.0689625 183.734952 5.0689625 178.550241 9.9689625 184.000146 16.8966292"></polygon>
            <polygon id="Fill-22" fill="#AFE614" points="0.000292063492 21.0001167 7.30187937 21.0001167 7.30187937 15.7501167 0.000292063492 15.7501167"></polygon>
            <polygon id="Fill-24" fill="#6EBE00" points="7.3015873 21.0001167 14.6031746 21.0001167 14.6031746 15.7501167 7.3015873 15.7501167"></polygon>
            <polygon id="Fill-25" fill="#AFE614" points="14.6031746 15.7501167 29.2063492 15.7501167 29.2063492 0.000116666667 14.6031746 0.000116666667"></polygon>
            <polygon id="Fill-26" fill="#6EBE00" points="0 10.5001167 14.6031746 10.5001167 14.6031746 0.000116666667 0 0.000116666667"></polygon>
        </g>
    </g>
</svg>