<svg xmlns="http://www.w3.org/2000/svg" xmlns:xlink="http://www.w3.org/1999/xlink" viewBox="0 0 391.08 143.34"><defs><style>.cls-1{isolation:isolate;}.cls-2{fill:url(#Degradado_sin_nombre_41);}.cls-3{fill:url(#Degradado_sin_nombre_41-2);}.cls-4,.cls-5{mix-blend-mode:multiply;}.cls-4{fill:url(#Degradado_sin_nombre_29);}.cls-5{fill:url(#Degradado_sin_nombre_29-2);}</style><linearGradient id="Degradado_sin_nombre_41" x1="118.8" y1="-1605.29" x2="12.27" y2="-1770.23" gradientTransform="matrix(1, 0, 0, -1, 0, -1620.61)" gradientUnits="userSpaceOnUse"><stop offset="0" stop-color="#79f2ec"/><stop offset="1" stop-color="#005ef3"/></linearGradient><linearGradient id="Degradado_sin_nombre_41-2" x1="105.12" y1="-1617.93" x2="22.98" y2="-1745.86" xlink:href="#Degradado_sin_nombre_41"/><linearGradient id="Degradado_sin_nombre_29" x1="47.11" y1="89.14" x2="57.08" y2="96.64" gradientUnits="userSpaceOnUse"><stop offset="0" stop-color="#2d97ee" stop-opacity="0"/><stop offset="0.98" stop-color="#0260f1"/></linearGradient><linearGradient id="Degradado_sin_nombre_29-2" x1="78.75" y1="103.85" x2="65.67" y2="101.83" xlink:href="#Degradado_sin_nombre_29"/></defs><g class="cls-1"><g id="Capa_2" data-name="Capa 2"><g id="Capa_1-2" data-name="Capa 1"><path class="cls-2" d="M77.33,57a5.38,5.38,0,1,0-5.13,5.61A5.35,5.35,0,0,0,77.33,57Z"/><path class="cls-3" d="M68.23,138.5a3.92,3.92,0,0,1-4.62,4.75l-1.52-.31C37.29,138,17.28,122.78,7.14,101.22c-11-23.4-13.61-66.85,24.16-90.51C52.74-2.71,72.23-1.09,84.78,2.62c17.49,5.17,32.78,17.91,39.92,33.32a51.58,51.58,0,0,1,1.11,41.72c-5.52,13-16.5,23-30.94,28.1a47.48,47.48,0,0,1-29.47,1,94.28,94.28,0,0,0,2.47,30.29ZM66.92,9.88c-8.83,0-19.28,2.24-30.36,9.19C21.64,28.42,12.87,41.79,10.5,58.76a70.87,70.87,0,0,0,5.62,38.33c7.88,16.82,22.12,28.83,40.5,34.36a97.11,97.11,0,0,1-.84-28.67A40.67,40.67,0,0,1,37,80.85c-3.63-10.08-1.53-22.2,5.46-31.6a34.14,34.14,0,0,1,29-14.15c24.43,1,33,20,34.14,29.92l.11.94a4.08,4.08,0,0,1-3.68,4.5l-.94.1C83.47,72.07,71.86,81.21,67.24,97a37.78,37.78,0,0,0,24.32-.58c11.92-4.18,20.59-12,25.11-22.61a41.81,41.81,0,0,0-1-33.74c-6-12.9-18.91-23.66-33.78-28A52.19,52.19,0,0,0,66.92,9.88ZM70,45a24.24,24.24,0,0,0-19.6,10.19c-5,6.79-6.62,15.35-4.09,22.4A31.43,31.43,0,0,0,58.15,92.75c5.51-16.86,18.33-27.93,36.24-31.22a29.18,29.18,0,0,0-2.89-5.85C87.09,49,80.16,45.44,71,45Z"/><path class="cls-4" d="M48.65,82.65a73.92,73.92,0,0,0-3.57,11.7,40.87,40.87,0,0,0,10.7,8.43,55.86,55.86,0,0,1,2.37-10C58.1,92.91,51,87.52,48.65,82.65Z"/><path class="cls-5" d="M78.75,104.48a40.85,40.85,0,0,1,1.49-5.8,37.34,37.34,0,0,1-13-1.69,56.26,56.26,0,0,0-1.84,9.81,48.25,48.25,0,0,0,12.76,1.86A41.13,41.13,0,0,1,78.75,104.48Z"/><path d="M163.72,89.21V42.29h19.06A16.81,16.81,0,0,1,190.6,44a13.24,13.24,0,0,1,5.32,5,14,14,0,0,1,2,7.51v.94a13.81,13.81,0,0,1-2,7.51,13.11,13.11,0,0,1-5.39,5,16.46,16.46,0,0,1-7.68,1.74H171.87V89.21Zm8.15-24.87H182a8.08,8.08,0,0,0,5.6-1.87,6.51,6.51,0,0,0,2.15-5.16v-.68a6.57,6.57,0,0,0-2.09-5.16A8.16,8.16,0,0,0,182,49.6h-10.1Z"/><path d="M204.58,89.21V42.29h7.74V60.46h1.15a7.74,7.74,0,0,1,1.75-2.28,9.35,9.35,0,0,1,3.17-1.88,14.88,14.88,0,0,1,5.05-.74,13.07,13.07,0,0,1,6.8,1.75,11.4,11.4,0,0,1,4.58,4.75,15.09,15.09,0,0,1,1.69,7.31V89.21h-7.75V70q0-4-2-6a7.44,7.44,0,0,0-5.59-2,8.05,8.05,0,0,0-6.47,2.75q-2.35,2.67-2.36,7.71V89.21Z"/><path d="M245.89,102.62v-6.5h6.33a3,3,0,0,0,2-.54,4,4,0,0,0,1.08-1.47l.94-2.21L242.32,56.1h8.35l8.82,24.53h1.15l8.82-24.53h8.29l-15.9,40.82a9.32,9.32,0,0,1-3,4.29q-1.83,1.41-5.8,1.41Z"/><path d="M284,89.21V42.29h7.74V89.21Z"/><path d="M314.27,89.75a13.53,13.53,0,0,1-6.8-1.68,11.88,11.88,0,0,1-4.58-4.82,15.78,15.78,0,0,1-1.62-7.31V56.1H309V75.34q0,4,1.95,6a7.83,7.83,0,0,0,5.66,2A8.19,8.19,0,0,0,323,80.57c1.62-1.79,2.42-4.36,2.42-7.71V56.1h7.68V89.21h-7.54V84.59h-1.15a9.61,9.61,0,0,1-3.23,3.48Q318.92,89.75,314.27,89.75Z"/><path d="M343,89.21V56.1h7.62v3.69h1.14a7.83,7.83,0,0,1,2.9-2.95,10,10,0,0,1,5.52-1.34A10.45,10.45,0,0,1,366,57a9.62,9.62,0,0,1,3.37,3.75h1.08a9.75,9.75,0,0,1,3.3-3.75,10.8,10.8,0,0,1,6.13-1.47,11.55,11.55,0,0,1,5.59,1.34,9.84,9.84,0,0,1,4,3.95,12.59,12.59,0,0,1,1.55,6.5V89.21h-7.75V67.83a5.73,5.73,0,0,0-1.55-4.36,5.83,5.83,0,0,0-4.31-1.54,6.22,6.22,0,0,0-4.85,2,8.13,8.13,0,0,0-1.75,5.63V89.21h-7.68V67.83a5.73,5.73,0,0,0-1.55-4.36,5.83,5.83,0,0,0-4.31-1.54,6.11,6.11,0,0,0-4.85,2,8.13,8.13,0,0,0-1.75,5.63V89.21Z"/></g></g></g></svg>