<?xml version="1.0" encoding="UTF-8" standalone="no" ?>
<!DOCTYPE svg PUBLIC "-//W3C//DTD SVG 1.1//EN" "http://www.w3.org/Graphics/SVG/1.1/DTD/svg11.dtd">
<svg xmlns="http://www.w3.org/2000/svg" xmlns:xlink="http://www.w3.org/1999/xlink" version="1.1" width="1280" height="1024" viewBox="0 0 1280 1024" xml:space="preserve">
<desc>Created with Fabric.js 5.3.0</desc>
<defs>
</defs>
<g transform="matrix(1 0 0 1 640 512)" id="background-logo"  >
<rect style="stroke: none; stroke-width: 0; stroke-dasharray: none; stroke-linecap: butt; stroke-dashoffset: 0; stroke-linejoin: miter; stroke-miterlimit: 4; fill: rgb(255,255,255); fill-opacity: 0; fill-rule: nonzero; opacity: 1;"  paint-order="stroke"  x="-640" y="-512" rx="0" ry="0" width="1280" height="1024" />
</g>
<g transform="matrix(1.9211538461538462 0 0 1.9211538461538462 640.0537923076923 708.0485289699844)" id="text-logo"  >
<g style=""  paint-order="stroke"   >
		<g transform="matrix(1 0 0 1 0 0)" id="text-logo-path-0"  >
<path style="stroke: rgb(255,255,255); stroke-width: 0; stroke-dasharray: none; stroke-linecap: butt; stroke-dashoffset: 0; stroke-linejoin: miter; stroke-miterlimit: 4; fill: rgb(239,48,60); fill-rule: nonzero; opacity: 1;"  paint-order="stroke"  transform=" translate(-135.69, 19.599999999999998)" d="M 2.8 0 L 12.32 0 L 12.32 -39.2 L 2.8 -39.2 L 2.8 0 Z M 43.68 0 L 55.44 0 L 55.44 -39.2 L 45.92 -39.2 L 45.92 -12.15 L 29.68 -39.2 L 17.92 -39.2 L 17.92 0 L 27.44 0 L 27.44 -27.05 L 43.68 0 Z M 81.26 0.56 C 94.02 0.56 100.41 -4.09 100.41 -13.38 L 90.89 -13.38 C 90.89 -9.35 86.41 -7.28 81.26 -7.28 C 74.03 -7.28 70.56 -10.98 70.56 -19.66 C 70.56 -28 73.81 -31.92 81.26 -31.92 C 86.69 -31.92 90.94 -30.24 90.94 -25.76 L 100.46 -25.76 C 99.79 -35.11 92.46 -39.76 81.26 -39.76 C 67.59 -39.76 61.04 -33.6 61.04 -19.66 C 61.04 -5.99 67.2 0.56 81.26 0.56 Z M 136.3 0 L 145.82 0 L 130.98 -39.2 L 120.9 -39.2 L 106.06 0 L 115.58 0 L 118.33 -7.28 L 133.56 -7.28 L 136.3 0 Z M 121.3 -15.12 L 125.94 -27.38 L 130.59 -15.12 L 121.3 -15.12 Z M 181.66 0 L 191.18 0 L 176.34 -39.2 L 166.26 -39.2 L 151.42 0 L 160.94 0 L 163.69 -7.28 L 178.92 -7.28 L 181.66 0 Z M 166.66 -15.12 L 171.3 -27.38 L 175.95 -15.12 L 166.66 -15.12 Z M 209.94 0.56 C 219.3 0.56 224.22 -1.46 226.18 -5.1 C 227.14 -6.89 227.64 -9.3 227.64 -12.21 C 227.64 -19.82 224.11 -23.52 214.2 -23.52 L 209.94 -23.52 C 206.02 -23.52 203.78 -23.52 202.66 -24.64 C 202.16 -25.14 201.88 -26.04 201.88 -27.27 C 201.88 -29.79 202.55 -30.97 204.85 -31.53 C 206.02 -31.81 207.7 -31.92 210 -31.92 C 213.3 -31.92 214.98 -31.64 216.1 -29.9 C 216.66 -29.06 216.94 -27.72 216.94 -25.98 L 226.52 -25.98 C 226.52 -36.29 220.92 -39.76 210 -39.76 C 200.65 -39.76 195.78 -37.74 193.82 -34.1 C 192.81 -32.31 192.3 -29.9 192.3 -26.99 C 192.3 -19.38 195.83 -15.68 205.74 -15.68 L 209.94 -15.68 C 213.7 -15.68 216.1 -15.46 217.28 -14.34 C 217.78 -13.78 218.06 -12.99 218.06 -11.93 C 218.06 -9.41 217.45 -8.29 215.15 -7.73 C 213.92 -7.39 212.24 -7.28 209.94 -7.28 C 205.91 -7.28 203.95 -7.56 202.78 -9.3 C 202.16 -10.14 201.88 -11.42 201.88 -13.22 L 192.3 -13.22 C 192.3 -6.1 194.99 -2.35 200.2 -0.67 C 202.78 0.17 205.97 0.56 209.94 0.56 Z M 250.88 0.56 C 260.23 0.56 265.16 -1.46 267.12 -5.1 C 268.07 -6.89 268.58 -9.3 268.58 -12.21 C 268.58 -19.82 265.05 -23.52 255.14 -23.52 L 250.88 -23.52 C 246.96 -23.52 244.72 -23.52 243.6 -24.64 C 243.1 -25.14 242.82 -26.04 242.82 -27.27 C 242.82 -29.79 243.49 -30.97 245.78 -31.53 C 246.96 -31.81 248.64 -31.92 250.94 -31.92 C 254.24 -31.92 255.92 -31.64 257.04 -29.9 C 257.6 -29.06 257.88 -27.72 257.88 -25.98 L 267.46 -25.98 C 267.46 -36.29 261.86 -39.76 250.94 -39.76 C 241.58 -39.76 236.71 -37.74 234.75 -34.1 C 233.74 -32.31 233.24 -29.9 233.24 -26.99 C 233.24 -19.38 236.77 -15.68 246.68 -15.68 L 250.88 -15.68 C 254.63 -15.68 257.04 -15.46 258.22 -14.34 C 258.72 -13.78 259 -12.99 259 -11.93 C 259 -9.41 258.38 -8.29 256.09 -7.73 C 254.86 -7.39 253.18 -7.28 250.88 -7.28 C 246.85 -7.28 244.89 -7.56 243.71 -9.3 C 243.1 -10.14 242.82 -11.42 242.82 -13.22 L 233.24 -13.22 C 233.24 -6.1 235.93 -2.35 241.14 -0.67 C 243.71 0.17 246.9 0.56 250.88 0.56 Z" stroke-linecap="round" />
</g>
</g>
</g>
<g transform="matrix(1.9211538461538462 0 0 1.9211538461538462 640 406.6189916450926)" id="logo-logo"  >
<g style=""  paint-order="stroke"   >
		<g transform="matrix(0.17393114328992068 0 0 -0.17393114328992068 0 0.6225451364864796)"  >
<path style="stroke: none; stroke-width: 1; stroke-dasharray: none; stroke-linecap: butt; stroke-dashoffset: 0; stroke-linejoin: miter; stroke-miterlimit: 4; fill: rgb(125,22,27); fill-rule: evenodd; opacity: 1;"  paint-order="stroke"  transform=" translate(-564.725, -619.9776565000001)" d="M 0 771.969 L 400.016 365.68 L 1129.45 1239.26 L 549.039 101.965 L 392.52 0.695313 L 0 771.969" stroke-linecap="round" />
</g>
		<g transform="matrix(0.17393114328992068 0 0 -0.17393114328992068 0 -39.15403310293249)"  >
<path style="stroke: none; stroke-width: 1; stroke-dasharray: none; stroke-linecap: butt; stroke-dashoffset: 0; stroke-linejoin: miter; stroke-miterlimit: 4; fill: rgb(238,33,46); fill-rule: evenodd; opacity: 1;"  paint-order="stroke"  transform=" translate(-564.725, -841.425)" d="M 0 771.969 L 386.246 461.543 L 1129.45 1239.26 L 416.746 450.91 L 374.395 443.59 L 0 771.969" stroke-linecap="round" />
</g>
		<g transform="matrix(0.17393114328992068 0 0 -0.17393114328992068 0 0.6225451364864796)"  >
<path style="stroke: none; stroke-width: 1; stroke-dasharray: none; stroke-linecap: butt; stroke-dashoffset: 0; stroke-linejoin: miter; stroke-miterlimit: 4; fill: rgb(191,30,37); fill-rule: evenodd; opacity: 1;"  paint-order="stroke"  transform=" translate(-564.725, -619.63)" d="M 0 771.969 L 400.016 365.68 L 1129.45 1239.26 L 392.172 0 L 0 771.969" stroke-linecap="round" />
</g>
		<g transform="matrix(0.17393114328992068 0 0 -0.17393114328992068 0 -39.15403310293249)"  >
<path style="stroke: none; stroke-width: 1; stroke-dasharray: none; stroke-linecap: butt; stroke-dashoffset: 0; stroke-linejoin: miter; stroke-miterlimit: 4; fill: rgb(238,33,46); fill-rule: evenodd; opacity: 1;"  paint-order="stroke"  transform=" translate(-564.725, -841.163)" d="M 0 771.969 L 374.566 532.133 L 1129.45 1239.26 L 374.566 443.066 L 0 771.969" stroke-linecap="round" />
</g>
</g>
</g>
<g transform="matrix(1.9211538461538462 0 0 1.9211538461538462 640.2113269230772 794.6420410853691)" id="tagline-6878d44e-09f3-4e87-9b23-ce647ae7625e-logo"  >
<g style=""  paint-order="stroke"   >
		<g transform="matrix(1 0 0 1 0 0)" id="tagline-6878d44e-09f3-4e87-9b23-ce647ae7625e-logo-path-0"  >
<path style="stroke: rgb(255,255,255); stroke-width: 0; stroke-dasharray: none; stroke-linecap: butt; stroke-dashoffset: 0; stroke-linejoin: miter; stroke-miterlimit: 4; fill: rgb(255,255,255); fill-rule: nonzero; opacity: 1;"  paint-order="stroke"  transform=" translate(-220.685, 3.8499999999999996)" d="M 1.68 0 L 1.68 -5.05 L 3.88 0 L 5.42 0 L 7.62 -5.05 L 7.62 0 L 8.94 0 L 8.94 -7.7 L 7.35 -7.7 L 4.65 -1.52 L 1.96 -7.7 L 0.36 -7.7 L 0.36 0 Z M 17.84 -1.21 C 15.83 -1.21 15.3 -1.75 15.3 -3.85 C 15.3 -5.96 15.84 -6.49 17.84 -6.49 C 19.84 -6.49 20.37 -5.95 20.37 -3.85 C 20.37 -1.74 19.83 -1.21 17.84 -1.21 Z M 17.84 0.11 C 20.56 0.11 21.69 -0.98 21.69 -3.85 C 21.69 -6.69 20.59 -7.81 17.84 -7.81 C 15.11 -7.81 13.98 -6.72 13.98 -3.85 C 13.98 -1.02 15.08 0.11 17.84 0.11 Z M 28.05 0 L 28.05 -5.86 L 31.99 0 L 33.66 0 L 33.66 -7.7 L 32.34 -7.7 L 32.34 -1.84 L 28.4 -7.7 L 26.73 -7.7 L 26.73 0 Z M 42.44 0 L 42.44 -6.38 L 44.86 -6.38 L 44.86 -7.7 L 38.7 -7.7 L 38.7 -6.38 L 41.12 -6.38 L 41.12 0 Z M 51.22 0 L 51.22 -3.19 L 55.51 -3.19 L 55.51 0 L 56.83 0 L 56.83 -7.7 L 55.51 -7.7 L 55.51 -4.51 L 51.22 -4.51 L 51.22 -7.7 L 49.9 -7.7 L 49.9 0 Z M 61.86 0 L 67.58 0 L 67.58 -1.32 L 63.18 -1.32 L 63.18 -7.7 L 61.86 -7.7 Z M 71.08 -7.7 L 74.03 -3.41 L 74.03 0 L 75.35 0 L 75.35 -3.41 L 78.3 -7.7 L 76.69 -7.7 L 74.69 -4.79 L 72.69 -7.7 Z M 91.26 0 L 91.85 -1.54 L 95.3 -1.54 L 95.9 0 L 97.31 0 L 94.34 -7.7 L 92.82 -7.7 L 89.85 0 Z M 92.36 -2.86 L 93.58 -6.02 L 94.8 -2.86 Z M 106.99 -5.5 L 108.31 -5.5 C 108.31 -7.15 107.48 -7.81 105.24 -7.81 C 102.56 -7.81 101.9 -6.88 101.9 -5.32 C 101.9 -4.33 102.57 -3.31 103.99 -3.24 L 106.4 -3.15 C 107.1 -3.11 107.24 -2.96 107.24 -2.38 C 107.24 -1.47 106.97 -1.21 105.23 -1.21 C 103.42 -1.21 103.22 -1.39 103.22 -2.38 L 101.9 -2.38 C 101.9 -0.66 102.61 0.11 105.23 0.11 C 107.77 0.11 108.56 -0.73 108.56 -2.38 C 108.56 -3.74 107.78 -4.41 106.47 -4.47 L 104.06 -4.56 C 103.48 -4.59 103.22 -4.93 103.22 -5.32 C 103.22 -6.24 103.47 -6.49 105.24 -6.49 C 106.78 -6.49 106.99 -6.34 106.99 -5.5 Z M 118.68 -5.5 L 120 -5.5 C 120 -7.15 119.17 -7.81 116.93 -7.81 C 114.26 -7.81 113.6 -6.88 113.6 -5.32 C 113.6 -4.33 114.27 -3.31 115.69 -3.24 L 118.1 -3.15 C 118.79 -3.11 118.93 -2.96 118.93 -2.38 C 118.93 -1.47 118.67 -1.21 116.92 -1.21 C 115.11 -1.21 114.92 -1.39 114.92 -2.38 L 113.6 -2.38 C 113.6 -0.66 114.3 0.11 116.92 0.11 C 119.46 0.11 120.25 -0.73 120.25 -2.38 C 120.25 -3.74 119.47 -4.41 118.16 -4.47 L 115.75 -4.56 C 115.17 -4.59 114.92 -4.93 114.92 -5.32 C 114.92 -6.24 115.16 -6.49 116.93 -6.49 C 118.47 -6.49 118.68 -6.34 118.68 -5.5 Z M 130.62 -7.7 L 130.62 -3.3 C 130.62 -1.63 130.2 -1.21 128.61 -1.21 C 127.02 -1.21 126.61 -1.65 126.61 -3.3 L 126.61 -7.7 L 125.29 -7.7 L 125.29 -3.3 C 125.29 -0.95 126.22 0.11 128.61 0.11 C 130.92 0.11 131.94 -0.87 131.94 -3.3 L 131.94 -7.7 Z M 138.3 0 L 138.3 -2.64 L 140.24 -2.64 L 141.72 0 L 143.24 0 L 141.68 -2.78 C 142.64 -3.08 143.15 -3.87 143.15 -5.17 C 143.15 -6.81 142.34 -7.7 140.62 -7.7 L 136.98 -7.7 L 136.98 0 Z M 138.3 -3.96 L 138.3 -6.38 L 140.62 -6.38 C 141.57 -6.38 141.83 -6.1 141.83 -5.17 C 141.83 -4.22 141.56 -3.96 140.62 -3.96 Z M 149.69 0 L 150.28 -1.54 L 153.74 -1.54 L 154.33 0 L 155.74 0 L 152.77 -7.7 L 151.25 -7.7 L 148.28 0 Z M 150.79 -2.86 L 152.01 -6.02 L 153.23 -2.86 Z M 162.1 0 L 162.1 -5.86 L 166.03 0 L 167.71 0 L 167.71 -7.7 L 166.39 -7.7 L 166.39 -1.84 L 162.45 -7.7 L 160.78 -7.7 L 160.78 0 Z M 179.86 -1.19 L 178.76 -1.91 C 178.45 -1.44 177.81 -1.21 176.6 -1.21 C 174.59 -1.21 174.06 -1.75 174.06 -3.85 C 174.06 -5.96 174.6 -6.49 176.6 -6.49 C 177.62 -6.49 178.22 -6.34 178.57 -6.02 L 179.45 -6.98 C 178.81 -7.59 177.86 -7.81 176.6 -7.81 C 173.88 -7.81 172.74 -6.72 172.74 -3.85 C 172.74 -1.02 173.84 0.11 176.6 0.11 C 178.13 0.11 179.23 -0.23 179.86 -1.19 Z M 184.9 0 L 190.62 0 L 190.62 -1.32 L 186.22 -1.32 L 186.22 -3.19 L 189.52 -3.19 L 189.52 -4.51 L 186.22 -4.51 L 186.22 -6.38 L 190.62 -6.38 L 190.62 -7.7 L 184.9 -7.7 Z M 195.66 -1.32 L 195.66 0 L 196.98 0 L 196.98 -1.32 Z M 215.64 -1.19 L 214.54 -1.91 C 214.24 -1.44 213.6 -1.21 212.39 -1.21 C 210.38 -1.21 209.85 -1.75 209.85 -3.85 C 209.85 -5.96 210.39 -6.49 212.39 -6.49 C 213.4 -6.49 214.01 -6.34 214.36 -6.02 L 215.24 -6.98 C 214.59 -7.59 213.64 -7.81 212.39 -7.81 C 209.66 -7.81 208.53 -6.72 208.53 -3.85 C 208.53 -1.02 209.63 0.11 212.39 0.11 C 213.92 0.11 215.02 -0.23 215.64 -1.19 Z M 224.1 -1.21 C 222.09 -1.21 221.56 -1.75 221.56 -3.85 C 221.56 -5.96 222.1 -6.49 224.1 -6.49 C 226.11 -6.49 226.63 -5.95 226.63 -3.85 C 226.63 -1.74 226.09 -1.21 224.1 -1.21 Z M 224.1 0.11 C 226.82 0.11 227.95 -0.98 227.95 -3.85 C 227.95 -6.69 226.85 -7.81 224.1 -7.81 C 221.38 -7.81 220.24 -6.72 220.24 -3.85 C 220.24 -1.02 221.34 0.11 224.1 0.11 Z M 234.31 0 L 234.31 -5.86 L 238.25 0 L 239.92 0 L 239.92 -7.7 L 238.6 -7.7 L 238.6 -1.84 L 234.66 -7.7 L 232.99 -7.7 L 232.99 0 Z M 248.7 0 L 248.7 -6.38 L 251.12 -6.38 L 251.12 -7.7 L 244.96 -7.7 L 244.96 -6.38 L 247.38 -6.38 L 247.38 0 Z M 257.48 0 L 257.48 -7.7 L 256.16 -7.7 L 256.16 0 Z M 263.84 0 L 263.84 -5.86 L 267.77 0 L 269.45 0 L 269.45 -7.7 L 268.13 -7.7 L 268.13 -1.84 L 264.19 -7.7 L 262.52 -7.7 L 262.52 0 Z M 279.82 -7.7 L 279.82 -3.3 C 279.82 -1.63 279.39 -1.21 277.81 -1.21 C 276.21 -1.21 275.8 -1.65 275.8 -3.3 L 275.8 -7.7 L 274.48 -7.7 L 274.48 -3.3 C 274.48 -0.95 275.42 0.11 277.81 0.11 C 280.12 0.11 281.14 -0.87 281.14 -3.3 L 281.14 -7.7 Z M 290.04 -1.21 C 288.02 -1.21 287.5 -1.75 287.5 -3.85 C 287.5 -5.96 288.04 -6.49 290.04 -6.49 C 292.04 -6.49 292.57 -5.95 292.57 -3.85 C 292.57 -1.74 292.03 -1.21 290.04 -1.21 Z M 290.04 0.11 C 292.75 0.11 293.89 -0.98 293.89 -3.85 C 293.89 -6.69 292.79 -7.81 290.04 -7.81 C 287.31 -7.81 286.18 -6.72 286.18 -3.85 C 286.18 -1.02 287.28 0.11 290.04 0.11 Z M 304.26 -7.7 L 304.26 -3.3 C 304.26 -1.63 303.83 -1.21 302.25 -1.21 C 300.65 -1.21 300.25 -1.65 300.25 -3.3 L 300.25 -7.7 L 298.93 -7.7 L 298.93 -3.3 C 298.93 -0.95 299.86 0.11 302.25 0.11 C 304.56 0.11 305.58 -0.87 305.58 -3.3 L 305.58 -7.7 Z M 315.7 -5.5 L 317.02 -5.5 C 317.02 -7.15 316.2 -7.81 313.95 -7.81 C 311.28 -7.81 310.62 -6.88 310.62 -5.32 C 310.62 -4.33 311.29 -3.31 312.71 -3.24 L 315.12 -3.15 C 315.81 -3.11 315.95 -2.96 315.95 -2.38 C 315.95 -1.47 315.69 -1.21 313.94 -1.21 C 312.14 -1.21 311.94 -1.39 311.94 -2.38 L 310.62 -2.38 C 310.62 -0.66 311.32 0.11 313.94 0.11 C 316.48 0.11 317.27 -0.73 317.27 -2.38 C 317.27 -3.74 316.49 -4.41 315.18 -4.47 L 312.77 -4.56 C 312.19 -4.59 311.94 -4.93 311.94 -5.32 C 311.94 -6.24 312.18 -6.49 313.95 -6.49 C 315.49 -6.49 315.7 -6.34 315.7 -5.5 Z M 330.14 0 L 330.14 -2.64 L 332.46 -2.64 C 334.1 -2.64 334.99 -3.45 334.99 -5.17 C 334.99 -6.81 334.18 -7.7 332.46 -7.7 L 328.82 -7.7 L 328.82 0 Z M 330.14 -3.96 L 330.14 -6.38 L 332.46 -6.38 C 333.41 -6.38 333.67 -6.1 333.67 -5.17 C 333.67 -4.22 333.4 -3.96 332.46 -3.96 Z M 341.35 0 L 341.35 -2.64 L 343.29 -2.64 L 344.77 0 L 346.29 0 L 344.73 -2.78 C 345.69 -3.08 346.2 -3.87 346.2 -5.17 C 346.2 -6.81 345.39 -7.7 343.67 -7.7 L 340.03 -7.7 L 340.03 0 Z M 341.35 -3.96 L 341.35 -6.38 L 343.67 -6.38 C 344.62 -6.38 344.88 -6.1 344.88 -5.17 C 344.88 -4.22 344.61 -3.96 343.67 -3.96 Z M 355.19 -1.21 C 353.18 -1.21 352.65 -1.75 352.65 -3.85 C 352.65 -5.96 353.19 -6.49 355.19 -6.49 C 357.19 -6.49 357.72 -5.95 357.72 -3.85 C 357.72 -1.74 357.18 -1.21 355.19 -1.21 Z M 355.19 0.11 C 357.91 0.11 359.04 -0.98 359.04 -3.85 C 359.04 -6.69 357.94 -7.81 355.19 -7.81 C 352.46 -7.81 351.33 -6.72 351.33 -3.85 C 351.33 -1.02 352.43 0.11 355.19 0.11 Z M 367.49 0 L 367.49 -6.38 L 369.91 -6.38 L 369.91 -7.7 L 363.75 -7.7 L 363.75 -6.38 L 366.17 -6.38 L 366.17 0 Z M 374.95 0 L 380.67 0 L 380.67 -1.32 L 376.27 -1.32 L 376.27 -3.19 L 379.57 -3.19 L 379.57 -4.51 L 376.27 -4.51 L 376.27 -6.38 L 380.67 -6.38 L 380.67 -7.7 L 374.95 -7.7 Z M 392.82 -1.19 L 391.72 -1.91 C 391.41 -1.44 390.78 -1.21 389.57 -1.21 C 387.55 -1.21 387.02 -1.75 387.02 -3.85 C 387.02 -5.96 387.56 -6.49 389.57 -6.49 C 390.58 -6.49 391.18 -6.34 391.53 -6.02 L 392.41 -6.98 C 391.77 -7.59 390.82 -7.81 389.57 -7.81 C 386.84 -7.81 385.7 -6.72 385.7 -3.85 C 385.7 -1.02 386.8 0.11 389.57 0.11 C 391.09 0.11 392.19 -0.23 392.82 -1.19 Z M 401.16 0 L 401.16 -6.38 L 403.58 -6.38 L 403.58 -7.7 L 397.42 -7.7 L 397.42 -6.38 L 399.84 -6.38 L 399.84 0 Z M 409.94 0 L 409.94 -7.7 L 408.62 -7.7 L 408.62 0 Z M 418.84 -1.21 C 416.82 -1.21 416.3 -1.75 416.3 -3.85 C 416.3 -5.96 416.83 -6.49 418.84 -6.49 C 420.84 -6.49 421.37 -5.95 421.37 -3.85 C 421.37 -1.74 420.83 -1.21 418.84 -1.21 Z M 418.84 0.11 C 421.55 0.11 422.69 -0.98 422.69 -3.85 C 422.69 -6.69 421.59 -7.81 418.84 -7.81 C 416.11 -7.81 414.98 -6.72 414.98 -3.85 C 414.98 -1.02 416.08 0.11 418.84 0.11 Z M 429.04 0 L 429.04 -5.86 L 432.98 0 L 434.65 0 L 434.65 -7.7 L 433.33 -7.7 L 433.33 -1.84 L 429.4 -7.7 L 427.72 -7.7 L 427.72 0 Z M 439.69 -1.32 L 439.69 0 L 441.01 0 L 441.01 -1.32 Z" stroke-linecap="round" />
</g>
</g>
</g>
</svg>