<?xml version="1.0" encoding="UTF-8" standalone="no" ?>
<!DOCTYPE svg PUBLIC "-//W3C//DTD SVG 1.1//EN" "http://www.w3.org/Graphics/SVG/1.1/DTD/svg11.dtd">
<svg xmlns="http://www.w3.org/2000/svg" xmlns:xlink="http://www.w3.org/1999/xlink" version="1.1" width="1280" height="1024" viewBox="0 0 1280 1024" xml:space="preserve">
<desc>Created with Fabric.js 5.3.0</desc>
<defs>
</defs>
<g transform="matrix(1 0 0 1 640 512)" id="background-logo"  >
<rect style="stroke: none; stroke-width: 0; stroke-dasharray: none; stroke-linecap: butt; stroke-dashoffset: 0; stroke-linejoin: miter; stroke-miterlimit: 4; fill: rgb(255,255,255); fill-opacity: 0; fill-rule: nonzero; opacity: 1;"  paint-order="stroke"  x="-640" y="-512" rx="0" ry="0" width="1280" height="1024" />
</g>
<g transform="matrix(1.9211538461538462 0 0 1.9211538461538462 640 405.47178672817085)" id="logo-logo"  >
<g style=""  paint-order="stroke"   >
		<g transform="matrix(0.12998535211267603 0 0 -0.12998535211267606 -37.69575211267602 7.14919436619715)"  >
<path style="stroke: none; stroke-width: 1; stroke-dasharray: none; stroke-linecap: butt; stroke-dashoffset: 0; stroke-linejoin: miter; stroke-miterlimit: 4; fill: rgb(119,119,119); fill-rule: nonzero; opacity: 1;"  paint-order="stroke"  transform=" translate(-286, -654.5)" d="M 553 0 L 553 1 L 551 1 L 551 2 L 549 2 L 549 3 L 547 3 L 547 4 L 545 4 L 545 5 L 544 5 L 544 6 L 542 6 L 542 7 L 540 7 L 540 8 L 538 8 L 538 9 L 537 9 L 537 10 L 535 10 L 535 11 L 533 11 L 533 12 L 531 12 L 531 13 L 530 13 L 530 14 L 528 14 L 528 15 L 526 15 L 526 16 L 524 16 L 524 17 L 523 17 L 523 18 L 521 18 L 521 19 L 519 19 L 519 20 L 518 20 L 518 21 L 516 21 L 516 22 L 514 22 L 514 23 L 512 23 L 512 24 L 511 24 L 511 25 L 509 25 L 509 26 L 507 26 L 507 27 L 505 27 L 505 28 L 504 28 L 504 29 L 502 29 L 502 30 L 500 30 L 500 31 L 498 31 L 498 32 L 497 32 L 497 33 L 495 33 L 495 34 L 493 34 L 493 35 L 491 35 L 491 36 L 490 36 L 490 37 L 488 37 L 488 38 L 486 38 L 486 39 L 484 39 L 484 40 L 483 40 L 483 41 L 481 41 L 481 42 L 479 42 L 479 43 L 478 43 L 478 44 L 476 44 L 476 45 L 474 45 L 474 46 L 472 46 L 472 47 L 471 47 L 471 48 L 469 48 L 469 49 L 467 49 L 467 50 L 465 50 L 465 51 L 464 51 L 464 52 L 462 52 L 462 53 L 460 53 L 460 54 L 458 54 L 458 55 L 457 55 L 457 56 L 455 56 L 455 57 L 453 57 L 453 58 L 451 58 L 451 59 L 450 59 L 450 60 L 448 60 L 448 61 L 446 61 L 446 62 L 445 62 L 445 63 L 443 63 L 443 64 L 441 64 L 441 65 L 439 65 L 439 66 L 438 66 L 438 67 L 436 67 L 436 68 L 434 68 L 434 69 L 432 69 L 432 70 L 431 70 L 431 71 L 429 71 L 429 72 L 427 72 L 427 73 L 425 73 L 425 74 L 424 74 L 424 75 L 422 75 L 422 76 L 420 76 L 420 77 L 418 77 L 418 78 L 417 78 L 417 79 L 415 79 L 415 80 L 413 80 L 413 81 L 411 81 L 411 82 L 410 82 L 410 83 L 408 83 L 408 84 L 406 84 L 406 85 L 405 85 L 405 86 L 403 86 L 403 87 L 401 87 L 401 88 L 399 88 L 399 89 L 398 89 L 398 90 L 396 90 L 396 91 L 394 91 L 394 92 L 392 92 L 392 93 L 391 93 L 391 94 L 389 94 L 389 95 L 387 95 L 387 96 L 385 96 L 385 97 L 384 97 L 384 98 L 382 98 L 382 99 L 380 99 L 380 100 L 378 100 L 378 101 L 377 101 L 377 102 L 375 102 L 375 103 L 373 103 L 373 104 L 371 104 L 371 105 L 370 105 L 370 106 L 368 106 L 368 107 L 366 107 L 366 108 L 365 108 L 365 109 L 363 109 L 363 110 L 361 110 L 361 111 L 359 111 L 359 112 L 358 112 L 358 113 L 356 113 L 356 114 L 354 114 L 354 115 L 352 115 L 352 116 L 351 116 L 351 117 L 349 117 L 349 118 L 347 118 L 347 119 L 345 119 L 345 120 L 344 120 L 344 121 L 342 121 L 342 122 L 340 122 L 340 123 L 338 123 L 338 124 L 337 124 L 337 125 L 335 125 L 335 126 L 333 126 L 333 127 L 331 127 L 331 128 L 330 128 L 330 129 L 328 129 L 328 130 L 326 130 L 326 131 L 325 131 L 325 132 L 323 132 L 323 133 L 321 133 L 321 134 L 319 134 L 319 135 L 318 135 L 318 136 L 316 136 L 316 137 L 314 137 L 314 138 L 312 138 L 312 139 L 311 139 L 311 140 L 309 140 L 309 141 L 307 141 L 307 142 L 305 142 L 305 143 L 304 143 L 304 144 L 302 144 L 302 145 L 300 145 L 300 146 L 298 146 L 298 147 L 297 147 L 297 148 L 295 148 L 295 149 L 293 149 L 293 150 L 292 150 L 292 151 L 290 151 L 290 152 L 288 152 L 288 153 L 286 153 L 286 154 L 285 154 L 285 155 L 283 155 L 283 156 L 281 156 L 281 157 L 279 157 L 279 158 L 278 158 L 278 159 L 276 159 L 276 160 L 274 160 L 274 161 L 272 161 L 272 162 L 271 162 L 271 163 L 269 163 L 269 164 L 267 164 L 267 165 L 265 165 L 265 166 L 264 166 L 264 167 L 262 167 L 262 168 L 260 168 L 260 169 L 258 169 L 258 170 L 257 170 L 257 171 L 255 171 L 255 172 L 253 172 L 253 173 L 252 173 L 252 174 L 250 174 L 250 175 L 248 175 L 248 176 L 246 176 L 246 177 L 245 177 L 245 178 L 243 178 L 243 179 L 241 179 L 241 180 L 239 180 L 239 181 L 238 181 L 238 182 L 236 182 L 236 183 L 234 183 L 234 184 L 232 184 L 232 185 L 231 185 L 231 186 L 229 186 L 229 187 L 227 187 L 227 188 L 225 188 L 225 189 L 224 189 L 224 190 L 222 190 L 222 191 L 220 191 L 220 192 L 218 192 L 218 193 L 217 193 L 217 194 L 215 194 L 215 195 L 213 195 L 213 196 L 212 196 L 212 197 L 210 197 L 210 198 L 208 198 L 208 199 L 206 199 L 206 200 L 205 200 L 205 201 L 203 201 L 203 202 L 201 202 L 201 203 L 199 203 L 199 204 L 198 204 L 198 205 L 196 205 L 196 206 L 194 206 L 194 207 L 192 207 L 192 208 L 191 208 L 191 209 L 189 209 L 189 210 L 187 210 L 187 211 L 185 211 L 185 212 L 184 212 L 184 213 L 182 213 L 182 214 L 180 214 L 180 215 L 178 215 L 178 216 L 177 216 L 177 217 L 175 217 L 175 218 L 173 218 L 173 219 L 172 219 L 172 220 L 170 220 L 170 221 L 168 221 L 168 222 L 166 222 L 166 223 L 165 223 L 165 224 L 163 224 L 163 225 L 161 225 L 161 226 L 159 226 L 159 227 L 158 227 L 158 228 L 156 228 L 156 229 L 154 229 L 154 230 L 152 230 L 152 231 L 151 231 L 151 232 L 149 232 L 149 233 L 147 233 L 147 234 L 145 234 L 145 235 L 144 235 L 144 236 L 142 236 L 142 237 L 140 237 L 140 238 L 139 238 L 139 239 L 137 239 L 137 240 L 135 240 L 135 241 L 133 241 L 133 242 L 132 242 L 132 243 L 130 243 L 130 244 L 128 244 L 128 245 L 126 245 L 126 246 L 125 246 L 125 247 L 123 247 L 123 248 L 121 248 L 121 249 L 119 249 L 119 250 L 118 250 L 118 251 L 116 251 L 116 252 L 114 252 L 114 253 L 112 253 L 112 254 L 111 254 L 111 255 L 109 255 L 109 256 L 107 256 L 107 257 L 105 257 L 105 258 L 104 258 L 104 259 L 102 259 L 102 260 L 100 260 L 100 261 L 99 261 L 99 262 L 97 262 L 97 263 L 95 263 L 95 264 L 93 264 L 93 265 L 92 265 L 92 266 L 90 266 L 90 267 L 88 267 L 88 268 L 86 268 L 86 269 L 85 269 L 85 270 L 83 270 L 83 271 L 81 271 L 81 272 L 79 272 L 79 273 L 78 273 L 78 274 L 76 274 L 76 275 L 74 275 L 74 276 L 72 276 L 72 277 L 71 277 L 71 278 L 69 278 L 69 279 L 67 279 L 67 280 L 65 280 L 65 281 L 64 281 L 64 282 L 62 282 L 62 283 L 60 283 L 60 284 L 59 284 L 59 285 L 57 285 L 57 286 L 55 286 L 55 287 L 53 287 L 53 288 L 52 288 L 52 289 L 50 289 L 50 290 L 48 290 L 48 291 L 46 291 L 46 292 L 45 292 L 45 293 L 43 293 L 43 294 L 41 294 L 41 295 L 39 295 L 39 296 L 38 296 L 38 297 L 36 297 L 36 298 L 34 298 L 34 299 L 32 299 L 32 300 L 31 300 L 31 301 L 29 301 L 29 302 L 27 302 L 27 303 L 26 303 L 26 304 L 24 304 L 24 305 L 22 305 L 22 306 L 20 306 L 20 307 L 19 307 L 19 308 L 17 308 L 17 309 L 15 309 L 15 310 L 13 310 L 13 311 L 12 311 L 12 312 L 10 312 L 10 313 L 8 313 L 8 314 L 6 314 L 6 315 L 5 315 L 5 316 L 4 316 L 4 317 L 3 317 L 3 318 L 2 318 L 2 320 L 1 320 L 1 322 L 0 322 L 0 986 L 1 986 L 1 988 L 2 988 L 2 990 L 3 990 L 3 991 L 4 991 L 4 992 L 6 992 L 6 993 L 7 993 L 7 994 L 9 994 L 9 995 L 11 995 L 11 996 L 12 996 L 12 997 L 14 997 L 14 998 L 16 998 L 16 999 L 18 999 L 18 1000 L 19 1000 L 19 1001 L 21 1001 L 21 1002 L 23 1002 L 23 1003 L 25 1003 L 25 1004 L 26 1004 L 26 1005 L 28 1005 L 28 1006 L 30 1006 L 30 1007 L 31 1007 L 31 1008 L 33 1008 L 33 1009 L 35 1009 L 35 1010 L 37 1010 L 37 1011 L 38 1011 L 38 1012 L 40 1012 L 40 1013 L 42 1013 L 42 1014 L 44 1014 L 44 1015 L 45 1015 L 45 1016 L 47 1016 L 47 1017 L 49 1017 L 49 1018 L 50 1018 L 50 1019 L 52 1019 L 52 1020 L 54 1020 L 54 1021 L 56 1021 L 56 1022 L 57 1022 L 57 1023 L 59 1023 L 59 1024 L 61 1024 L 61 1025 L 63 1025 L 63 1026 L 64 1026 L 64 1027 L 66 1027 L 66 1028 L 68 1028 L 68 1029 L 69 1029 L 69 1030 L 71 1030 L 71 1031 L 73 1031 L 73 1032 L 75 1032 L 75 1033 L 76 1033 L 76 1034 L 78 1034 L 78 1035 L 80 1035 L 80 1036 L 82 1036 L 82 1037 L 83 1037 L 83 1038 L 85 1038 L 85 1039 L 87 1039 L 87 1040 L 88 1040 L 88 1041 L 90 1041 L 90 1042 L 92 1042 L 92 1043 L 94 1043 L 94 1044 L 95 1044 L 95 1045 L 97 1045 L 97 1046 L 99 1046 L 99 1047 L 101 1047 L 101 1048 L 102 1048 L 102 1049 L 104 1049 L 104 1050 L 106 1050 L 106 1051 L 107 1051 L 107 1052 L 109 1052 L 109 1053 L 111 1053 L 111 1054 L 113 1054 L 113 1055 L 114 1055 L 114 1056 L 116 1056 L 116 1057 L 118 1057 L 118 1058 L 120 1058 L 120 1059 L 121 1059 L 121 1060 L 123 1060 L 123 1061 L 125 1061 L 125 1062 L 126 1062 L 126 1063 L 128 1063 L 128 1064 L 130 1064 L 130 1065 L 132 1065 L 132 1066 L 133 1066 L 133 1067 L 135 1067 L 135 1068 L 137 1068 L 137 1069 L 139 1069 L 139 1070 L 140 1070 L 140 1071 L 142 1071 L 142 1072 L 144 1072 L 144 1073 L 145 1073 L 145 1074 L 147 1074 L 147 1075 L 149 1075 L 149 1076 L 151 1076 L 151 1077 L 152 1077 L 152 1078 L 154 1078 L 154 1079 L 156 1079 L 156 1080 L 158 1080 L 158 1081 L 159 1081 L 159 1082 L 161 1082 L 161 1083 L 163 1083 L 163 1084 L 164 1084 L 164 1085 L 166 1085 L 166 1086 L 168 1086 L 168 1087 L 170 1087 L 170 1088 L 171 1088 L 171 1089 L 173 1089 L 173 1090 L 175 1090 L 175 1091 L 177 1091 L 177 1092 L 178 1092 L 178 1093 L 180 1093 L 180 1094 L 182 1094 L 182 1095 L 183 1095 L 183 1096 L 185 1096 L 185 1097 L 187 1097 L 187 1098 L 189 1098 L 189 1099 L 190 1099 L 190 1100 L 192 1100 L 192 1101 L 194 1101 L 194 1102 L 196 1102 L 196 1103 L 197 1103 L 197 1104 L 199 1104 L 199 1105 L 201 1105 L 201 1106 L 202 1106 L 202 1107 L 204 1107 L 204 1108 L 206 1108 L 206 1109 L 208 1109 L 208 1110 L 209 1110 L 209 1111 L 211 1111 L 211 1112 L 213 1112 L 213 1113 L 214 1113 L 214 1114 L 216 1114 L 216 1115 L 218 1115 L 218 1116 L 220 1116 L 220 1117 L 221 1117 L 221 1118 L 223 1118 L 223 1119 L 225 1119 L 225 1120 L 227 1120 L 227 1121 L 228 1121 L 228 1122 L 230 1122 L 230 1123 L 232 1123 L 232 1124 L 233 1124 L 233 1125 L 235 1125 L 235 1126 L 237 1126 L 237 1127 L 239 1127 L 239 1128 L 240 1128 L 240 1129 L 242 1129 L 242 1130 L 244 1130 L 244 1131 L 246 1131 L 246 1132 L 247 1132 L 247 1133 L 249 1133 L 249 1134 L 251 1134 L 251 1135 L 252 1135 L 252 1136 L 254 1136 L 254 1137 L 256 1137 L 256 1138 L 258 1138 L 258 1139 L 259 1139 L 259 1140 L 261 1140 L 261 1141 L 263 1141 L 263 1142 L 265 1142 L 265 1143 L 266 1143 L 266 1144 L 268 1144 L 268 1145 L 270 1145 L 270 1146 L 271 1146 L 271 1147 L 273 1147 L 273 1148 L 275 1148 L 275 1149 L 277 1149 L 277 1150 L 278 1150 L 278 1151 L 280 1151 L 280 1152 L 282 1152 L 282 1153 L 284 1153 L 284 1154 L 285 1154 L 285 1155 L 287 1155 L 287 1156 L 289 1156 L 289 1157 L 290 1157 L 290 1158 L 292 1158 L 292 1159 L 294 1159 L 294 1160 L 296 1160 L 296 1161 L 297 1161 L 297 1162 L 299 1162 L 299 1163 L 301 1163 L 301 1164 L 303 1164 L 303 1165 L 304 1165 L 304 1166 L 306 1166 L 306 1167 L 308 1167 L 308 1168 L 309 1168 L 309 1169 L 311 1169 L 311 1170 L 313 1170 L 313 1171 L 315 1171 L 315 1172 L 316 1172 L 316 1173 L 318 1173 L 318 1174 L 320 1174 L 320 1175 L 322 1175 L 322 1176 L 323 1176 L 323 1177 L 325 1177 L 325 1178 L 327 1178 L 327 1179 L 328 1179 L 328 1180 L 330 1180 L 330 1181 L 332 1181 L 332 1182 L 334 1182 L 334 1183 L 335 1183 L 335 1184 L 337 1184 L 337 1185 L 339 1185 L 339 1186 L 341 1186 L 341 1187 L 342 1187 L 342 1188 L 344 1188 L 344 1189 L 346 1189 L 346 1190 L 347 1190 L 347 1191 L 349 1191 L 349 1192 L 351 1192 L 351 1193 L 353 1193 L 353 1194 L 354 1194 L 354 1195 L 356 1195 L 356 1196 L 358 1196 L 358 1197 L 360 1197 L 360 1198 L 361 1198 L 361 1199 L 363 1199 L 363 1200 L 365 1200 L 365 1201 L 366 1201 L 366 1202 L 368 1202 L 368 1203 L 370 1203 L 370 1204 L 372 1204 L 372 1205 L 373 1205 L 373 1206 L 375 1206 L 375 1207 L 377 1207 L 377 1208 L 379 1208 L 379 1209 L 380 1209 L 380 1210 L 382 1210 L 382 1211 L 384 1211 L 384 1212 L 385 1212 L 385 1213 L 387 1213 L 387 1214 L 389 1214 L 389 1215 L 391 1215 L 391 1216 L 392 1216 L 392 1217 L 394 1217 L 394 1218 L 396 1218 L 396 1219 L 398 1219 L 398 1220 L 399 1220 L 399 1221 L 401 1221 L 401 1222 L 403 1222 L 403 1223 L 404 1223 L 404 1224 L 406 1224 L 406 1225 L 408 1225 L 408 1226 L 410 1226 L 410 1227 L 411 1227 L 411 1228 L 413 1228 L 413 1229 L 415 1229 L 415 1230 L 417 1230 L 417 1231 L 418 1231 L 418 1232 L 420 1232 L 420 1233 L 422 1233 L 422 1234 L 423 1234 L 423 1235 L 425 1235 L 425 1236 L 427 1236 L 427 1237 L 429 1237 L 429 1238 L 430 1238 L 430 1239 L 432 1239 L 432 1240 L 434 1240 L 434 1241 L 436 1241 L 436 1242 L 437 1242 L 437 1243 L 439 1243 L 439 1244 L 441 1244 L 441 1245 L 442 1245 L 442 1246 L 444 1246 L 444 1247 L 446 1247 L 446 1248 L 448 1248 L 448 1249 L 449 1249 L 449 1250 L 451 1250 L 451 1251 L 453 1251 L 453 1252 L 455 1252 L 455 1253 L 456 1253 L 456 1254 L 458 1254 L 458 1255 L 460 1255 L 460 1256 L 461 1256 L 461 1257 L 463 1257 L 463 1258 L 465 1258 L 465 1259 L 467 1259 L 467 1260 L 468 1260 L 468 1261 L 470 1261 L 470 1262 L 472 1262 L 472 1263 L 474 1263 L 474 1264 L 475 1264 L 475 1265 L 477 1265 L 477 1266 L 479 1266 L 479 1267 L 480 1267 L 480 1268 L 482 1268 L 482 1269 L 484 1269 L 484 1270 L 486 1270 L 486 1271 L 487 1271 L 487 1272 L 489 1272 L 489 1273 L 491 1273 L 491 1274 L 493 1274 L 493 1275 L 494 1275 L 494 1276 L 496 1276 L 496 1277 L 498 1277 L 498 1278 L 499 1278 L 499 1279 L 501 1279 L 501 1280 L 503 1280 L 503 1281 L 505 1281 L 505 1282 L 506 1282 L 506 1283 L 508 1283 L 508 1284 L 510 1284 L 510 1285 L 512 1285 L 512 1286 L 513 1286 L 513 1287 L 515 1287 L 515 1288 L 517 1288 L 517 1289 L 518 1289 L 518 1290 L 520 1290 L 520 1291 L 522 1291 L 522 1292 L 524 1292 L 524 1293 L 525 1293 L 525 1294 L 527 1294 L 527 1295 L 529 1295 L 529 1296 L 531 1296 L 531 1297 L 532 1297 L 532 1298 L 534 1298 L 534 1299 L 536 1299 L 536 1300 L 537 1300 L 537 1301 L 539 1301 L 539 1302 L 541 1302 L 541 1303 L 543 1303 L 543 1304 L 544 1304 L 544 1305 L 546 1305 L 546 1306 L 548 1306 L 548 1307 L 550 1307 L 550 1308 L 552 1308 L 552 1309 L 561 1309 L 561 1308 L 563 1308 L 563 1307 L 565 1307 L 565 1306 L 566 1306 L 566 1305 L 567 1305 L 567 1304 L 568 1304 L 568 1302 L 569 1302 L 569 1300 L 570 1300 L 570 1072 L 569 1072 L 569 1069 L 568 1069 L 568 1068 L 567 1068 L 567 1067 L 566 1067 L 566 1066 L 565 1066 L 565 1065 L 563 1065 L 563 1064 L 561 1064 L 561 1063 L 560 1063 L 560 1062 L 558 1062 L 558 1061 L 556 1061 L 556 1060 L 555 1060 L 555 1059 L 553 1059 L 553 1058 L 551 1058 L 551 1057 L 549 1057 L 549 1056 L 548 1056 L 548 1055 L 546 1055 L 546 1054 L 544 1054 L 544 1053 L 542 1053 L 542 1052 L 541 1052 L 541 1051 L 539 1051 L 539 1050 L 537 1050 L 537 1049 L 536 1049 L 536 1048 L 534 1048 L 534 1047 L 532 1047 L 532 1046 L 530 1046 L 530 1045 L 529 1045 L 529 1044 L 527 1044 L 527 1043 L 525 1043 L 525 1042 L 523 1042 L 523 1041 L 522 1041 L 522 1040 L 520 1040 L 520 1039 L 518 1039 L 518 1038 L 517 1038 L 517 1037 L 515 1037 L 515 1036 L 513 1036 L 513 1035 L 511 1035 L 511 1034 L 510 1034 L 510 1033 L 508 1033 L 508 1032 L 506 1032 L 506 1031 L 504 1031 L 504 1030 L 503 1030 L 503 1029 L 501 1029 L 501 1028 L 499 1028 L 499 1027 L 498 1027 L 498 1026 L 496 1026 L 496 1025 L 494 1025 L 494 1024 L 492 1024 L 492 1023 L 491 1023 L 491 1022 L 489 1022 L 489 1021 L 487 1021 L 487 1020 L 485 1020 L 485 1019 L 484 1019 L 484 1018 L 482 1018 L 482 1017 L 480 1017 L 480 1016 L 479 1016 L 479 1015 L 477 1015 L 477 1014 L 475 1014 L 475 1013 L 473 1013 L 473 1012 L 472 1012 L 472 1011 L 470 1011 L 470 1010 L 468 1010 L 468 1009 L 466 1009 L 466 1008 L 465 1008 L 465 1007 L 463 1007 L 463 1006 L 461 1006 L 461 1005 L 460 1005 L 460 1004 L 458 1004 L 458 1003 L 456 1003 L 456 1002 L 454 1002 L 454 1001 L 453 1001 L 453 1000 L 451 1000 L 451 999 L 449 999 L 449 998 L 448 998 L 448 997 L 446 997 L 446 996 L 444 996 L 444 995 L 442 995 L 442 994 L 441 994 L 441 993 L 439 993 L 439 992 L 437 992 L 437 991 L 435 991 L 435 990 L 434 990 L 434 989 L 432 989 L 432 988 L 430 988 L 430 987 L 429 987 L 429 986 L 427 986 L 427 985 L 425 985 L 425 984 L 423 984 L 423 983 L 422 983 L 422 982 L 420 982 L 420 981 L 418 981 L 418 980 L 416 980 L 416 979 L 415 979 L 415 978 L 413 978 L 413 977 L 411 977 L 411 976 L 410 976 L 410 975 L 408 975 L 408 974 L 406 974 L 406 973 L 404 973 L 404 972 L 403 972 L 403 971 L 401 971 L 401 970 L 399 970 L 399 969 L 397 969 L 397 968 L 396 968 L 396 967 L 394 967 L 394 966 L 392 966 L 392 965 L 391 965 L 391 964 L 389 964 L 389 963 L 387 963 L 387 962 L 385 962 L 385 961 L 384 961 L 384 960 L 382 960 L 382 959 L 380 959 L 380 958 L 378 958 L 378 957 L 377 957 L 377 956 L 375 956 L 375 955 L 373 955 L 373 954 L 372 954 L 372 953 L 370 953 L 370 952 L 368 952 L 368 951 L 366 951 L 366 950 L 365 950 L 365 949 L 363 949 L 363 948 L 361 948 L 361 947 L 359 947 L 359 946 L 358 946 L 358 945 L 356 945 L 356 944 L 354 944 L 354 943 L 353 943 L 353 942 L 351 942 L 351 941 L 349 941 L 349 940 L 347 940 L 347 939 L 346 939 L 346 938 L 344 938 L 344 937 L 342 937 L 342 936 L 340 936 L 340 935 L 339 935 L 339 934 L 337 934 L 337 933 L 335 933 L 335 932 L 334 932 L 334 931 L 332 931 L 332 930 L 330 930 L 330 929 L 328 929 L 328 928 L 327 928 L 327 927 L 325 927 L 325 926 L 323 926 L 323 925 L 321 925 L 321 924 L 320 924 L 320 923 L 318 923 L 318 922 L 316 922 L 316 921 L 315 921 L 315 920 L 313 920 L 313 919 L 311 919 L 311 918 L 309 918 L 309 917 L 308 917 L 308 916 L 306 916 L 306 915 L 304 915 L 304 914 L 302 914 L 302 913 L 301 913 L 301 912 L 299 912 L 299 911 L 297 911 L 297 910 L 296 910 L 296 909 L 294 909 L 294 908 L 292 908 L 292 907 L 290 907 L 290 906 L 289 906 L 289 905 L 287 905 L 287 904 L 285 904 L 285 903 L 283 903 L 283 902 L 282 902 L 282 901 L 280 901 L 280 900 L 278 900 L 278 899 L 277 899 L 277 898 L 275 898 L 275 897 L 273 897 L 273 896 L 271 896 L 271 895 L 270 895 L 270 894 L 268 894 L 268 893 L 266 893 L 266 892 L 264 892 L 264 891 L 263 891 L 263 890 L 261 890 L 261 889 L 259 889 L 259 888 L 258 888 L 258 887 L 256 887 L 256 886 L 254 886 L 254 885 L 252 885 L 252 884 L 251 884 L 251 883 L 249 883 L 249 882 L 247 882 L 247 881 L 245 881 L 245 880 L 244 880 L 244 879 L 242 879 L 242 878 L 240 878 L 240 877 L 239 877 L 239 876 L 237 876 L 237 875 L 235 875 L 235 874 L 233 874 L 233 873 L 232 873 L 232 872 L 230 872 L 230 871 L 228 871 L 228 870 L 226 870 L 226 869 L 225 869 L 225 868 L 223 868 L 223 867 L 221 867 L 221 866 L 220 866 L 220 865 L 218 865 L 218 864 L 216 864 L 216 734 L 217 734 L 217 444 L 218 444 L 218 443 L 220 443 L 220 442 L 221 442 L 221 441 L 223 441 L 223 440 L 225 440 L 225 439 L 227 439 L 227 438 L 228 438 L 228 437 L 230 437 L 230 436 L 232 436 L 232 435 L 234 435 L 234 434 L 235 434 L 235 433 L 237 433 L 237 432 L 239 432 L 239 431 L 241 431 L 241 430 L 242 430 L 242 429 L 244 429 L 244 428 L 246 428 L 246 427 L 248 427 L 248 426 L 249 426 L 249 425 L 251 425 L 251 424 L 253 424 L 253 423 L 254 423 L 254 422 L 256 422 L 256 421 L 258 421 L 258 420 L 260 420 L 260 419 L 261 419 L 261 418 L 263 418 L 263 417 L 265 417 L 265 416 L 267 416 L 267 415 L 268 415 L 268 414 L 270 414 L 270 413 L 272 413 L 272 412 L 274 412 L 274 411 L 275 411 L 275 410 L 277 410 L 277 409 L 279 409 L 279 408 L 280 408 L 280 407 L 282 407 L 282 406 L 284 406 L 284 405 L 286 405 L 286 404 L 287 404 L 287 403 L 289 403 L 289 402 L 291 402 L 291 401 L 293 401 L 293 400 L 294 400 L 294 399 L 296 399 L 296 398 L 298 398 L 298 397 L 300 397 L 300 396 L 301 396 L 301 395 L 303 395 L 303 394 L 305 394 L 305 393 L 307 393 L 307 392 L 308 392 L 308 391 L 310 391 L 310 390 L 312 390 L 312 389 L 313 389 L 313 388 L 315 388 L 315 387 L 317 387 L 317 386 L 319 386 L 319 385 L 320 385 L 320 384 L 322 384 L 322 383 L 324 383 L 324 382 L 326 382 L 326 381 L 327 381 L 327 380 L 329 380 L 329 379 L 331 379 L 331 378 L 333 378 L 333 377 L 334 377 L 334 376 L 336 376 L 336 375 L 338 375 L 338 374 L 340 374 L 340 373 L 341 373 L 341 372 L 343 372 L 343 371 L 345 371 L 345 370 L 346 370 L 346 369 L 348 369 L 348 368 L 350 368 L 350 367 L 352 367 L 352 366 L 353 366 L 353 365 L 355 365 L 355 364 L 357 364 L 357 363 L 359 363 L 359 362 L 360 362 L 360 361 L 362 361 L 362 360 L 364 360 L 364 359 L 366 359 L 366 358 L 367 358 L 367 357 L 369 357 L 369 356 L 371 356 L 371 355 L 372 355 L 372 354 L 374 354 L 374 353 L 376 353 L 376 352 L 378 352 L 378 351 L 379 351 L 379 350 L 381 350 L 381 349 L 383 349 L 383 348 L 385 348 L 385 347 L 386 347 L 386 346 L 388 346 L 388 345 L 390 345 L 390 344 L 392 344 L 392 343 L 393 343 L 393 342 L 395 342 L 395 341 L 397 341 L 397 340 L 399 340 L 399 339 L 400 339 L 400 338 L 402 338 L 402 337 L 404 337 L 404 336 L 405 336 L 405 335 L 407 335 L 407 334 L 409 334 L 409 333 L 411 333 L 411 332 L 412 332 L 412 331 L 414 331 L 414 330 L 416 330 L 416 329 L 418 329 L 418 328 L 419 328 L 419 327 L 421 327 L 421 326 L 423 326 L 423 325 L 425 325 L 425 324 L 426 324 L 426 323 L 428 323 L 428 322 L 430 322 L 430 321 L 432 321 L 432 320 L 433 320 L 433 319 L 435 319 L 435 318 L 437 318 L 437 317 L 438 317 L 438 316 L 440 316 L 440 315 L 442 315 L 442 314 L 444 314 L 444 313 L 445 313 L 445 312 L 447 312 L 447 311 L 449 311 L 449 310 L 451 310 L 451 309 L 452 309 L 452 308 L 454 308 L 454 307 L 456 307 L 456 306 L 458 306 L 458 305 L 459 305 L 459 304 L 461 304 L 461 303 L 463 303 L 463 302 L 464 302 L 464 301 L 466 301 L 466 300 L 468 300 L 468 299 L 470 299 L 470 298 L 471 298 L 471 297 L 473 297 L 473 296 L 475 296 L 475 295 L 477 295 L 477 294 L 478 294 L 478 293 L 480 293 L 480 292 L 482 292 L 482 291 L 484 291 L 484 290 L 485 290 L 485 289 L 487 289 L 487 288 L 489 288 L 489 287 L 491 287 L 491 286 L 492 286 L 492 285 L 494 285 L 494 284 L 496 284 L 496 283 L 497 283 L 497 282 L 499 282 L 499 281 L 501 281 L 501 280 L 503 280 L 503 279 L 504 279 L 504 278 L 506 278 L 506 277 L 508 277 L 508 276 L 510 276 L 510 275 L 511 275 L 511 274 L 513 274 L 513 273 L 515 273 L 515 272 L 517 272 L 517 271 L 518 271 L 518 270 L 520 270 L 520 269 L 522 269 L 522 268 L 524 268 L 524 267 L 525 267 L 525 266 L 527 266 L 527 265 L 529 265 L 529 264 L 530 264 L 530 263 L 532 263 L 532 262 L 534 262 L 534 261 L 536 261 L 536 260 L 537 260 L 537 259 L 539 259 L 539 258 L 541 258 L 541 257 L 543 257 L 543 256 L 544 256 L 544 255 L 546 255 L 546 254 L 548 254 L 548 253 L 550 253 L 550 252 L 551 252 L 551 251 L 553 251 L 553 250 L 555 250 L 555 249 L 556 249 L 556 248 L 558 248 L 558 247 L 560 247 L 560 246 L 562 246 L 562 245 L 563 245 L 563 244 L 565 244 L 565 243 L 566 243 L 566 242 L 568 242 L 568 240 L 569 240 L 569 239 L 570 239 L 570 237 L 571 237 L 571 233 L 572 233 L 572 9 L 571 9 L 571 7 L 570 7 L 570 5 L 569 5 L 569 4 L 568 4 L 568 3 L 567 3 L 567 2 L 566 2 L 566 1 L 563 1 L 563 0" stroke-linecap="round" />
</g>
		<g transform="matrix(0.12998535211267603 0 0 -0.12998535211267606 34.96605971830985 64.92768338028168)"  >
<path style="stroke: none; stroke-width: 1; stroke-dasharray: none; stroke-linecap: butt; stroke-dashoffset: 0; stroke-linejoin: miter; stroke-miterlimit: 4; fill: rgb(119,119,119); fill-rule: nonzero; opacity: 1;"  paint-order="stroke"  transform=" translate(-845, -210)" d="M 599 0 L 599 1 L 597 1 L 597 2 L 596 2 L 596 3 L 595 3 L 595 4 L 594 4 L 594 5 L 593 5 L 593 6 L 592 6 L 592 8 L 591 8 L 591 131 L 590 131 L 590 234 L 591 234 L 591 238 L 592 238 L 592 240 L 593 240 L 593 241 L 594 241 L 594 242 L 595 242 L 595 243 L 596 243 L 596 244 L 598 244 L 598 245 L 600 245 L 600 246 L 601 246 L 601 247 L 603 247 L 603 248 L 605 248 L 605 249 L 607 249 L 607 250 L 608 250 L 608 251 L 610 251 L 610 252 L 612 252 L 612 253 L 613 253 L 613 254 L 615 254 L 615 255 L 617 255 L 617 256 L 619 256 L 619 257 L 620 257 L 620 258 L 622 258 L 622 259 L 624 259 L 624 260 L 626 260 L 626 261 L 627 261 L 627 262 L 629 262 L 629 263 L 631 263 L 631 264 L 632 264 L 632 265 L 634 265 L 634 266 L 636 266 L 636 267 L 638 267 L 638 268 L 639 268 L 639 269 L 641 269 L 641 270 L 643 270 L 643 271 L 645 271 L 645 272 L 646 272 L 646 273 L 648 273 L 648 274 L 650 274 L 650 275 L 651 275 L 651 276 L 653 276 L 653 277 L 655 277 L 655 278 L 657 278 L 657 279 L 658 279 L 658 280 L 660 280 L 660 281 L 662 281 L 662 282 L 664 282 L 664 283 L 665 283 L 665 284 L 667 284 L 667 285 L 669 285 L 669 286 L 670 286 L 670 287 L 672 287 L 672 288 L 674 288 L 674 289 L 676 289 L 676 290 L 677 290 L 677 291 L 679 291 L 679 292 L 681 292 L 681 293 L 683 293 L 683 294 L 684 294 L 684 295 L 686 295 L 686 296 L 688 296 L 688 297 L 689 297 L 689 298 L 691 298 L 691 299 L 693 299 L 693 300 L 695 300 L 695 301 L 696 301 L 696 302 L 698 302 L 698 303 L 700 303 L 700 304 L 702 304 L 702 305 L 703 305 L 703 306 L 705 306 L 705 307 L 707 307 L 707 308 L 708 308 L 708 309 L 710 309 L 710 310 L 712 310 L 712 311 L 714 311 L 714 312 L 715 312 L 715 313 L 717 313 L 717 314 L 719 314 L 719 315 L 721 315 L 721 316 L 722 316 L 722 317 L 724 317 L 724 318 L 726 318 L 726 319 L 727 319 L 727 320 L 729 320 L 729 321 L 731 321 L 731 322 L 733 322 L 733 323 L 734 323 L 734 324 L 736 324 L 736 325 L 738 325 L 738 326 L 740 326 L 740 327 L 741 327 L 741 328 L 743 328 L 743 329 L 745 329 L 745 330 L 746 330 L 746 331 L 748 331 L 748 332 L 750 332 L 750 333 L 752 333 L 752 334 L 753 334 L 753 335 L 755 335 L 755 336 L 757 336 L 757 337 L 759 337 L 759 338 L 760 338 L 760 339 L 762 339 L 762 340 L 764 340 L 764 341 L 765 341 L 765 342 L 767 342 L 767 343 L 769 343 L 769 344 L 771 344 L 771 345 L 772 345 L 772 346 L 774 346 L 774 347 L 776 347 L 776 348 L 778 348 L 778 349 L 779 349 L 779 350 L 781 350 L 781 351 L 783 351 L 783 352 L 784 352 L 784 353 L 786 353 L 786 354 L 788 354 L 788 355 L 790 355 L 790 356 L 791 356 L 791 357 L 793 357 L 793 358 L 795 358 L 795 359 L 797 359 L 797 360 L 798 360 L 798 361 L 800 361 L 800 362 L 802 362 L 802 363 L 803 363 L 803 364 L 805 364 L 805 365 L 807 365 L 807 366 L 809 366 L 809 367 L 810 367 L 810 368 L 812 368 L 812 369 L 814 369 L 814 370 L 816 370 L 816 371 L 817 371 L 817 372 L 819 372 L 819 373 L 821 373 L 821 374 L 822 374 L 822 375 L 824 375 L 824 376 L 826 376 L 826 377 L 828 377 L 828 378 L 829 378 L 829 379 L 831 379 L 831 380 L 833 380 L 833 381 L 835 381 L 835 382 L 836 382 L 836 383 L 838 383 L 838 384 L 840 384 L 840 385 L 841 385 L 841 386 L 843 386 L 843 387 L 845 387 L 845 388 L 847 388 L 847 389 L 848 389 L 848 390 L 850 390 L 850 391 L 852 391 L 852 392 L 854 392 L 854 393 L 855 393 L 855 394 L 857 394 L 857 395 L 859 395 L 859 396 L 860 396 L 860 397 L 862 397 L 862 398 L 864 398 L 864 399 L 866 399 L 866 400 L 867 400 L 867 401 L 869 401 L 869 402 L 871 402 L 871 403 L 873 403 L 873 404 L 874 404 L 874 405 L 876 405 L 876 406 L 878 406 L 878 407 L 879 407 L 879 408 L 881 408 L 881 409 L 883 409 L 883 410 L 885 410 L 885 411 L 886 411 L 886 412 L 888 412 L 888 413 L 890 413 L 890 414 L 892 414 L 892 415 L 893 415 L 893 416 L 895 416 L 895 417 L 897 417 L 897 418 L 898 418 L 898 419 L 901 419 L 901 420 L 908 420 L 908 419 L 911 419 L 911 418 L 913 418 L 913 417 L 915 417 L 915 416 L 916 416 L 916 415 L 918 415 L 918 414 L 920 414 L 920 413 L 921 413 L 921 412 L 923 412 L 923 411 L 924 411 L 924 410 L 926 410 L 926 409 L 928 409 L 928 408 L 929 408 L 929 407 L 931 407 L 931 406 L 932 406 L 932 405 L 934 405 L 934 404 L 936 404 L 936 403 L 937 403 L 937 402 L 939 402 L 939 401 L 940 401 L 940 400 L 942 400 L 942 399 L 944 399 L 944 398 L 945 398 L 945 397 L 947 397 L 947 396 L 948 396 L 948 395 L 950 395 L 950 394 L 952 394 L 952 393 L 953 393 L 953 392 L 955 392 L 955 391 L 956 391 L 956 390 L 958 390 L 958 389 L 960 389 L 960 388 L 961 388 L 961 387 L 963 387 L 963 386 L 964 386 L 964 385 L 966 385 L 966 384 L 968 384 L 968 383 L 969 383 L 969 382 L 971 382 L 971 381 L 972 381 L 972 380 L 974 380 L 974 379 L 976 379 L 976 378 L 977 378 L 977 377 L 979 377 L 979 376 L 980 376 L 980 375 L 982 375 L 982 374 L 983 374 L 983 373 L 985 373 L 985 372 L 987 372 L 987 371 L 988 371 L 988 370 L 990 370 L 990 369 L 991 369 L 991 368 L 993 368 L 993 367 L 995 367 L 995 366 L 996 366 L 996 365 L 998 365 L 998 364 L 999 364 L 999 363 L 1001 363 L 1001 362 L 1003 362 L 1003 361 L 1004 361 L 1004 360 L 1006 360 L 1006 359 L 1007 359 L 1007 358 L 1009 358 L 1009 357 L 1011 357 L 1011 356 L 1012 356 L 1012 355 L 1014 355 L 1014 354 L 1015 354 L 1015 353 L 1017 353 L 1017 352 L 1019 352 L 1019 351 L 1020 351 L 1020 350 L 1022 350 L 1022 349 L 1023 349 L 1023 348 L 1025 348 L 1025 347 L 1027 347 L 1027 346 L 1028 346 L 1028 345 L 1030 345 L 1030 344 L 1031 344 L 1031 343 L 1033 343 L 1033 342 L 1035 342 L 1035 341 L 1036 341 L 1036 340 L 1038 340 L 1038 339 L 1039 339 L 1039 338 L 1041 338 L 1041 337 L 1043 337 L 1043 336 L 1044 336 L 1044 335 L 1046 335 L 1046 334 L 1047 334 L 1047 333 L 1049 333 L 1049 332 L 1051 332 L 1051 331 L 1052 331 L 1052 330 L 1054 330 L 1054 329 L 1055 329 L 1055 328 L 1057 328 L 1057 327 L 1059 327 L 1059 326 L 1060 326 L 1060 325 L 1062 325 L 1062 324 L 1063 324 L 1063 323 L 1065 323 L 1065 322 L 1067 322 L 1067 321 L 1068 321 L 1068 320 L 1070 320 L 1070 319 L 1071 319 L 1071 318 L 1073 318 L 1073 317 L 1075 317 L 1075 316 L 1076 316 L 1076 315 L 1078 315 L 1078 314 L 1079 314 L 1079 313 L 1081 313 L 1081 312 L 1083 312 L 1083 311 L 1084 311 L 1084 310 L 1086 310 L 1086 309 L 1087 309 L 1087 308 L 1089 308 L 1089 307 L 1091 307 L 1091 306 L 1092 306 L 1092 305 L 1094 305 L 1094 304 L 1095 304 L 1095 303 L 1096 303 L 1096 302 L 1097 302 L 1097 301 L 1098 301 L 1098 300 L 1099 300 L 1099 297 L 1100 297 L 1100 287 L 1099 287 L 1099 285 L 1098 285 L 1098 284 L 1097 284 L 1097 283 L 1096 283 L 1096 282 L 1095 282 L 1095 281 L 1094 281 L 1094 280 L 1092 280 L 1092 279 L 1090 279 L 1090 278 L 1089 278 L 1089 277 L 1087 277 L 1087 276 L 1085 276 L 1085 275 L 1084 275 L 1084 274 L 1082 274 L 1082 273 L 1080 273 L 1080 272 L 1078 272 L 1078 271 L 1077 271 L 1077 270 L 1075 270 L 1075 269 L 1073 269 L 1073 268 L 1071 268 L 1071 267 L 1070 267 L 1070 266 L 1068 266 L 1068 265 L 1066 265 L 1066 264 L 1065 264 L 1065 263 L 1063 263 L 1063 262 L 1061 262 L 1061 261 L 1059 261 L 1059 260 L 1058 260 L 1058 259 L 1056 259 L 1056 258 L 1054 258 L 1054 257 L 1052 257 L 1052 256 L 1051 256 L 1051 255 L 1049 255 L 1049 254 L 1047 254 L 1047 253 L 1046 253 L 1046 252 L 1044 252 L 1044 251 L 1042 251 L 1042 250 L 1040 250 L 1040 249 L 1039 249 L 1039 248 L 1037 248 L 1037 247 L 1035 247 L 1035 246 L 1034 246 L 1034 245 L 1032 245 L 1032 244 L 1030 244 L 1030 243 L 1028 243 L 1028 242 L 1027 242 L 1027 241 L 1025 241 L 1025 240 L 1023 240 L 1023 239 L 1021 239 L 1021 238 L 1020 238 L 1020 237 L 1018 237 L 1018 236 L 1016 236 L 1016 235 L 1015 235 L 1015 234 L 1013 234 L 1013 233 L 1011 233 L 1011 232 L 1009 232 L 1009 231 L 1008 231 L 1008 230 L 1006 230 L 1006 229 L 1004 229 L 1004 228 L 1002 228 L 1002 227 L 1001 227 L 1001 226 L 999 226 L 999 225 L 997 225 L 997 224 L 996 224 L 996 223 L 994 223 L 994 222 L 992 222 L 992 221 L 990 221 L 990 220 L 989 220 L 989 219 L 987 219 L 987 218 L 985 218 L 985 217 L 983 217 L 983 216 L 982 216 L 982 215 L 980 215 L 980 214 L 978 214 L 978 213 L 977 213 L 977 212 L 975 212 L 975 211 L 973 211 L 973 210 L 971 210 L 971 209 L 970 209 L 970 208 L 968 208 L 968 207 L 966 207 L 966 206 L 964 206 L 964 205 L 963 205 L 963 204 L 961 204 L 961 203 L 959 203 L 959 202 L 958 202 L 958 201 L 956 201 L 956 200 L 954 200 L 954 199 L 952 199 L 952 198 L 951 198 L 951 197 L 949 197 L 949 196 L 947 196 L 947 195 L 945 195 L 945 194 L 944 194 L 944 193 L 942 193 L 942 192 L 940 192 L 940 191 L 939 191 L 939 190 L 937 190 L 937 189 L 935 189 L 935 188 L 933 188 L 933 187 L 932 187 L 932 186 L 930 186 L 930 185 L 928 185 L 928 184 L 926 184 L 926 183 L 925 183 L 925 182 L 923 182 L 923 181 L 921 181 L 921 180 L 920 180 L 920 179 L 918 179 L 918 178 L 916 178 L 916 177 L 914 177 L 914 176 L 913 176 L 913 175 L 911 175 L 911 174 L 909 174 L 909 173 L 907 173 L 907 172 L 906 172 L 906 171 L 904 171 L 904 170 L 902 170 L 902 169 L 901 169 L 901 168 L 899 168 L 899 167 L 897 167 L 897 166 L 895 166 L 895 165 L 894 165 L 894 164 L 892 164 L 892 163 L 890 163 L 890 162 L 888 162 L 888 161 L 887 161 L 887 160 L 885 160 L 885 159 L 883 159 L 883 158 L 882 158 L 882 157 L 880 157 L 880 156 L 878 156 L 878 155 L 876 155 L 876 154 L 875 154 L 875 153 L 873 153 L 873 152 L 871 152 L 871 151 L 869 151 L 869 150 L 868 150 L 868 149 L 866 149 L 866 148 L 864 148 L 864 147 L 863 147 L 863 146 L 861 146 L 861 145 L 859 145 L 859 144 L 857 144 L 857 143 L 856 143 L 856 142 L 854 142 L 854 141 L 852 141 L 852 140 L 850 140 L 850 139 L 849 139 L 849 138 L 847 138 L 847 137 L 845 137 L 845 136 L 844 136 L 844 135 L 842 135 L 842 134 L 840 134 L 840 133 L 838 133 L 838 132 L 837 132 L 837 131 L 835 131 L 835 130 L 833 130 L 833 129 L 831 129 L 831 128 L 830 128 L 830 127 L 828 127 L 828 126 L 826 126 L 826 125 L 825 125 L 825 124 L 823 124 L 823 123 L 821 123 L 821 122 L 819 122 L 819 121 L 818 121 L 818 120 L 816 120 L 816 119 L 814 119 L 814 118 L 812 118 L 812 117 L 811 117 L 811 116 L 809 116 L 809 115 L 807 115 L 807 114 L 806 114 L 806 113 L 804 113 L 804 112 L 802 112 L 802 111 L 800 111 L 800 110 L 799 110 L 799 109 L 797 109 L 797 108 L 795 108 L 795 107 L 793 107 L 793 106 L 792 106 L 792 105 L 790 105 L 790 104 L 788 104 L 788 103 L 787 103 L 787 102 L 785 102 L 785 101 L 783 101 L 783 100 L 781 100 L 781 99 L 780 99 L 780 98 L 778 98 L 778 97 L 776 97 L 776 96 L 774 96 L 774 95 L 773 95 L 773 94 L 771 94 L 771 93 L 769 93 L 769 92 L 768 92 L 768 91 L 766 91 L 766 90 L 764 90 L 764 89 L 762 89 L 762 88 L 761 88 L 761 87 L 759 87 L 759 86 L 757 86 L 757 85 L 755 85 L 755 84 L 754 84 L 754 83 L 752 83 L 752 82 L 750 82 L 750 81 L 749 81 L 749 80 L 747 80 L 747 79 L 745 79 L 745 78 L 743 78 L 743 77 L 742 77 L 742 76 L 740 76 L 740 75 L 738 75 L 738 74 L 736 74 L 736 73 L 735 73 L 735 72 L 733 72 L 733 71 L 731 71 L 731 70 L 730 70 L 730 69 L 728 69 L 728 68 L 726 68 L 726 67 L 724 67 L 724 66 L 723 66 L 723 65 L 721 65 L 721 64 L 719 64 L 719 63 L 717 63 L 717 62 L 716 62 L 716 61 L 714 61 L 714 60 L 712 60 L 712 59 L 711 59 L 711 58 L 709 58 L 709 57 L 707 57 L 707 56 L 705 56 L 705 55 L 704 55 L 704 54 L 702 54 L 702 53 L 700 53 L 700 52 L 698 52 L 698 51 L 697 51 L 697 50 L 695 50 L 695 49 L 693 49 L 693 48 L 692 48 L 692 47 L 690 47 L 690 46 L 688 46 L 688 45 L 686 45 L 686 44 L 685 44 L 685 43 L 683 43 L 683 42 L 681 42 L 681 41 L 679 41 L 679 40 L 678 40 L 678 39 L 676 39 L 676 38 L 674 38 L 674 37 L 673 37 L 673 36 L 671 36 L 671 35 L 669 35 L 669 34 L 667 34 L 667 33 L 666 33 L 666 32 L 664 32 L 664 31 L 662 31 L 662 30 L 660 30 L 660 29 L 659 29 L 659 28 L 657 28 L 657 27 L 655 27 L 655 26 L 654 26 L 654 25 L 652 25 L 652 24 L 650 24 L 650 23 L 648 23 L 648 22 L 647 22 L 647 21 L 645 21 L 645 20 L 643 20 L 643 19 L 641 19 L 641 18 L 640 18 L 640 17 L 638 17 L 638 16 L 636 16 L 636 15 L 635 15 L 635 14 L 633 14 L 633 13 L 631 13 L 631 12 L 629 12 L 629 11 L 628 11 L 628 10 L 626 10 L 626 9 L 624 9 L 624 8 L 622 8 L 622 7 L 621 7 L 621 6 L 619 6 L 619 5 L 617 5 L 617 4 L 616 4 L 616 3 L 614 3 L 614 2 L 612 2 L 612 1 L 610 1 L 610 0" stroke-linecap="round" />
</g>
		<g transform="matrix(0.12998535211267603 0 0 -0.12998535211267606 38.33411208144395 16.162266089822936)"  >
<linearGradient id="SVGID_403065" gradientUnits="userSpaceOnUse" gradientTransform="matrix(1 0 0 1 590.242 307.1030887128997)"  x1="0" y1="0" x2="0" y2="556">
<stop offset="0%" style="stop-color:rgb(245,81,95);stop-opacity: 1"/>
<stop offset="100%" style="stop-color:rgb(159,4,27);stop-opacity: 1"/>
</linearGradient>
<path style="stroke: none; stroke-width: 1; stroke-dasharray: none; stroke-linecap: butt; stroke-dashoffset: 0; stroke-linejoin: miter; stroke-miterlimit: 4; fill: url(#SVGID_403065); fill-rule: nonzero; opacity: 1;"  paint-order="stroke"  transform=" translate(-870.9110146519785, -585.1608661888849)" d="M 1151.42 538.797 C 1151.42 541.191 1150.77 543.5160000000001 1149.6100000000001 545.508 C 1148.46 547.5 1146.7600000000002 549.219 1144.7 550.4100000000001 L 610.203 861.387 C 606.047 863.828 600.918 863.8159999999999 596.746 861.43 C 593.105 859.352 590.813 855.684 590.242 851.598 L 590.242 628.164 C 590.266 623.379 592.8199999999999 618.934 596.973 616.5509999999999 L 1131.46 308.879 C 1135.63 306.5 1140.74 306.512 1144.88 308.91 C 1149.0400000000002 311.32000000000005 1151.5900000000001 315.738 1151.5800000000002 320.55100000000004 L 1151.42 538.797" stroke-linecap="round" />
</g>
		<g transform="matrix(0.12998535211267603 0 0 -0.12998535211267606 38.33411208144395 -19.98094902753445)"  >
<linearGradient id="SVGID_403066" gradientUnits="userSpaceOnUse" gradientTransform="matrix(1 0 0 1 590.242 585.1625887735224)"  x1="0" y1="0" x2="0" y2="556">
<stop offset="0%" style="stop-color:rgb(245,81,95);stop-opacity: 1"/>
<stop offset="100%" style="stop-color:rgb(159,4,27);stop-opacity: 1"/>
</linearGradient>
<path style="stroke: none; stroke-width: 1; stroke-dasharray: none; stroke-linecap: butt; stroke-dashoffset: 0; stroke-linejoin: miter; stroke-miterlimit: 4; fill: url(#SVGID_403066); fill-rule: nonzero; opacity: 1;"  paint-order="stroke"  transform=" translate(-870.9110146519785, -863.2169281213644)" d="M 1151.42 816.852 C 1151.42 819.246 1150.77 821.5699999999999 1149.6100000000001 823.563 C 1148.46 825.555 1146.7600000000002 827.273 1144.7 828.465 L 610.203 1139.44 C 606.047 1141.88 600.918 1141.8700000000001 596.746 1139.48 C 593.105 1137.41 590.813 1133.74 590.242 1129.65 L 590.242 906.219 C 590.266 901.4340000000001 592.8199999999999 896.9920000000001 596.973 894.6020000000001 L 1131.46 586.941 C 1135.63 584.5590000000001 1140.74 584.57 1144.88 586.9730000000001 C 1149.0400000000002 589.3750000000001 1151.5900000000001 593.8090000000001 1151.5800000000002 598.6020000000001 L 1151.42 816.8520000000001" stroke-linecap="round" />
</g>
		<g transform="matrix(0.12998535211267603 0 0 -0.12998535211267606 38.34567887323942 -56.088679436619685)"  >
<linearGradient id="SVGID_403067" gradientUnits="userSpaceOnUse" gradientTransform="matrix(1 0 0 1 590 863)"  x1="0" y1="0" x2="0" y2="556">
<stop offset="0%" style="stop-color:rgb(245,81,95);stop-opacity: 1"/>
<stop offset="100%" style="stop-color:rgb(159,4,27);stop-opacity: 1"/>
</linearGradient>
<path style="stroke: none; stroke-width: 1; stroke-dasharray: none; stroke-linecap: butt; stroke-dashoffset: 0; stroke-linejoin: miter; stroke-miterlimit: 4; fill: url(#SVGID_403067); fill-rule: nonzero; opacity: 1;"  paint-order="stroke"  transform=" translate(-871, -1141)" d="M 1133 863 L 1133 864 L 1131 864 L 1131 865 L 1129 865 L 1129 866 L 1127 866 L 1127 867 L 1126 867 L 1126 868 L 1124 868 L 1124 869 L 1122 869 L 1122 870 L 1121 870 L 1121 871 L 1119 871 L 1119 872 L 1117 872 L 1117 873 L 1115 873 L 1115 874 L 1114 874 L 1114 875 L 1112 875 L 1112 876 L 1110 876 L 1110 877 L 1108 877 L 1108 878 L 1107 878 L 1107 879 L 1105 879 L 1105 880 L 1103 880 L 1103 881 L 1101 881 L 1101 882 L 1100 882 L 1100 883 L 1098 883 L 1098 884 L 1096 884 L 1096 885 L 1094 885 L 1094 886 L 1093 886 L 1093 887 L 1091 887 L 1091 888 L 1089 888 L 1089 889 L 1088 889 L 1088 890 L 1086 890 L 1086 891 L 1084 891 L 1084 892 L 1082 892 L 1082 893 L 1081 893 L 1081 894 L 1079 894 L 1079 895 L 1077 895 L 1077 896 L 1075 896 L 1075 897 L 1074 897 L 1074 898 L 1072 898 L 1072 899 L 1070 899 L 1070 900 L 1068 900 L 1068 901 L 1067 901 L 1067 902 L 1065 902 L 1065 903 L 1063 903 L 1063 904 L 1061 904 L 1061 905 L 1060 905 L 1060 906 L 1058 906 L 1058 907 L 1056 907 L 1056 908 L 1055 908 L 1055 909 L 1053 909 L 1053 910 L 1051 910 L 1051 911 L 1049 911 L 1049 912 L 1048 912 L 1048 913 L 1046 913 L 1046 914 L 1044 914 L 1044 915 L 1042 915 L 1042 916 L 1041 916 L 1041 917 L 1039 917 L 1039 918 L 1037 918 L 1037 919 L 1035 919 L 1035 920 L 1034 920 L 1034 921 L 1032 921 L 1032 922 L 1030 922 L 1030 923 L 1028 923 L 1028 924 L 1027 924 L 1027 925 L 1025 925 L 1025 926 L 1023 926 L 1023 927 L 1022 927 L 1022 928 L 1020 928 L 1020 929 L 1018 929 L 1018 930 L 1016 930 L 1016 931 L 1015 931 L 1015 932 L 1013 932 L 1013 933 L 1011 933 L 1011 934 L 1009 934 L 1009 935 L 1008 935 L 1008 936 L 1006 936 L 1006 937 L 1004 937 L 1004 938 L 1002 938 L 1002 939 L 1001 939 L 1001 940 L 999 940 L 999 941 L 997 941 L 997 942 L 995 942 L 995 943 L 994 943 L 994 944 L 992 944 L 992 945 L 990 945 L 990 946 L 989 946 L 989 947 L 987 947 L 987 948 L 985 948 L 985 949 L 983 949 L 983 950 L 982 950 L 982 951 L 980 951 L 980 952 L 978 952 L 978 953 L 976 953 L 976 954 L 975 954 L 975 955 L 973 955 L 973 956 L 971 956 L 971 957 L 969 957 L 969 958 L 968 958 L 968 959 L 966 959 L 966 960 L 964 960 L 964 961 L 962 961 L 962 962 L 961 962 L 961 963 L 959 963 L 959 964 L 957 964 L 957 965 L 956 965 L 956 966 L 954 966 L 954 967 L 952 967 L 952 968 L 950 968 L 950 969 L 949 969 L 949 970 L 947 970 L 947 971 L 945 971 L 945 972 L 943 972 L 943 973 L 942 973 L 942 974 L 940 974 L 940 975 L 938 975 L 938 976 L 936 976 L 936 977 L 935 977 L 935 978 L 933 978 L 933 979 L 931 979 L 931 980 L 929 980 L 929 981 L 928 981 L 928 982 L 926 982 L 926 983 L 924 983 L 924 984 L 922 984 L 922 985 L 921 985 L 921 986 L 919 986 L 919 987 L 917 987 L 917 988 L 916 988 L 916 989 L 914 989 L 914 990 L 912 990 L 912 991 L 910 991 L 910 992 L 909 992 L 909 993 L 907 993 L 907 994 L 905 994 L 905 995 L 903 995 L 903 996 L 902 996 L 902 997 L 900 997 L 900 998 L 898 998 L 898 999 L 896 999 L 896 1000 L 895 1000 L 895 1001 L 893 1001 L 893 1002 L 891 1002 L 891 1003 L 889 1003 L 889 1004 L 888 1004 L 888 1005 L 886 1005 L 886 1006 L 884 1006 L 884 1007 L 883 1007 L 883 1008 L 881 1008 L 881 1009 L 879 1009 L 879 1010 L 877 1010 L 877 1011 L 876 1011 L 876 1012 L 874 1012 L 874 1013 L 872 1013 L 872 1014 L 870 1014 L 870 1015 L 869 1015 L 869 1016 L 867 1016 L 867 1017 L 865 1017 L 865 1018 L 863 1018 L 863 1019 L 862 1019 L 862 1020 L 860 1020 L 860 1021 L 858 1021 L 858 1022 L 856 1022 L 856 1023 L 855 1023 L 855 1024 L 853 1024 L 853 1025 L 851 1025 L 851 1026 L 850 1026 L 850 1027 L 848 1027 L 848 1028 L 846 1028 L 846 1029 L 844 1029 L 844 1030 L 843 1030 L 843 1031 L 841 1031 L 841 1032 L 839 1032 L 839 1033 L 837 1033 L 837 1034 L 836 1034 L 836 1035 L 834 1035 L 834 1036 L 832 1036 L 832 1037 L 830 1037 L 830 1038 L 829 1038 L 829 1039 L 827 1039 L 827 1040 L 825 1040 L 825 1041 L 823 1041 L 823 1042 L 822 1042 L 822 1043 L 820 1043 L 820 1044 L 818 1044 L 818 1045 L 817 1045 L 817 1046 L 815 1046 L 815 1047 L 813 1047 L 813 1048 L 811 1048 L 811 1049 L 810 1049 L 810 1050 L 808 1050 L 808 1051 L 806 1051 L 806 1052 L 804 1052 L 804 1053 L 803 1053 L 803 1054 L 801 1054 L 801 1055 L 799 1055 L 799 1056 L 797 1056 L 797 1057 L 796 1057 L 796 1058 L 794 1058 L 794 1059 L 792 1059 L 792 1060 L 790 1060 L 790 1061 L 789 1061 L 789 1062 L 787 1062 L 787 1063 L 785 1063 L 785 1064 L 784 1064 L 784 1065 L 782 1065 L 782 1066 L 780 1066 L 780 1067 L 778 1067 L 778 1068 L 777 1068 L 777 1069 L 775 1069 L 775 1070 L 773 1070 L 773 1071 L 771 1071 L 771 1072 L 770 1072 L 770 1073 L 768 1073 L 768 1074 L 766 1074 L 766 1075 L 764 1075 L 764 1076 L 763 1076 L 763 1077 L 761 1077 L 761 1078 L 759 1078 L 759 1079 L 757 1079 L 757 1080 L 756 1080 L 756 1081 L 754 1081 L 754 1082 L 752 1082 L 752 1083 L 751 1083 L 751 1084 L 749 1084 L 749 1085 L 747 1085 L 747 1086 L 745 1086 L 745 1087 L 744 1087 L 744 1088 L 742 1088 L 742 1089 L 740 1089 L 740 1090 L 738 1090 L 738 1091 L 737 1091 L 737 1092 L 735 1092 L 735 1093 L 733 1093 L 733 1094 L 731 1094 L 731 1095 L 730 1095 L 730 1096 L 728 1096 L 728 1097 L 726 1097 L 726 1098 L 724 1098 L 724 1099 L 723 1099 L 723 1100 L 721 1100 L 721 1101 L 719 1101 L 719 1102 L 717 1102 L 717 1103 L 716 1103 L 716 1104 L 714 1104 L 714 1105 L 712 1105 L 712 1106 L 711 1106 L 711 1107 L 709 1107 L 709 1108 L 707 1108 L 707 1109 L 705 1109 L 705 1110 L 704 1110 L 704 1111 L 702 1111 L 702 1112 L 700 1112 L 700 1113 L 698 1113 L 698 1114 L 697 1114 L 697 1115 L 695 1115 L 695 1116 L 693 1116 L 693 1117 L 691 1117 L 691 1118 L 690 1118 L 690 1119 L 688 1119 L 688 1120 L 686 1120 L 686 1121 L 684 1121 L 684 1122 L 683 1122 L 683 1123 L 681 1123 L 681 1124 L 679 1124 L 679 1125 L 678 1125 L 678 1126 L 676 1126 L 676 1127 L 674 1127 L 674 1128 L 672 1128 L 672 1129 L 671 1129 L 671 1130 L 669 1130 L 669 1131 L 667 1131 L 667 1132 L 665 1132 L 665 1133 L 664 1133 L 664 1134 L 662 1134 L 662 1135 L 660 1135 L 660 1136 L 658 1136 L 658 1137 L 657 1137 L 657 1138 L 655 1138 L 655 1139 L 653 1139 L 653 1140 L 651 1140 L 651 1141 L 650 1141 L 650 1142 L 648 1142 L 648 1143 L 646 1143 L 646 1144 L 645 1144 L 645 1145 L 643 1145 L 643 1146 L 641 1146 L 641 1147 L 639 1147 L 639 1148 L 638 1148 L 638 1149 L 636 1149 L 636 1150 L 634 1150 L 634 1151 L 632 1151 L 632 1152 L 631 1152 L 631 1153 L 629 1153 L 629 1154 L 627 1154 L 627 1155 L 625 1155 L 625 1156 L 624 1156 L 624 1157 L 622 1157 L 622 1158 L 620 1158 L 620 1159 L 618 1159 L 618 1160 L 617 1160 L 617 1161 L 615 1161 L 615 1162 L 613 1162 L 613 1163 L 612 1163 L 612 1164 L 610 1164 L 610 1165 L 608 1165 L 608 1166 L 606 1166 L 606 1167 L 605 1167 L 605 1168 L 603 1168 L 603 1169 L 601 1169 L 601 1170 L 599 1170 L 599 1171 L 598 1171 L 598 1172 L 596 1172 L 596 1173 L 595 1173 L 595 1174 L 594 1174 L 594 1175 L 593 1175 L 593 1176 L 592 1176 L 592 1177 L 591 1177 L 591 1180 L 590 1180 L 590 1411 L 591 1411 L 591 1413 L 592 1413 L 592 1415 L 593 1415 L 593 1416 L 594 1416 L 594 1417 L 595 1417 L 595 1418 L 597 1418 L 597 1419 L 610 1419 L 610 1418 L 612 1418 L 612 1417 L 613 1417 L 613 1416 L 615 1416 L 615 1415 L 617 1415 L 617 1414 L 618 1414 L 618 1413 L 620 1413 L 620 1412 L 622 1412 L 622 1411 L 624 1411 L 624 1410 L 625 1410 L 625 1409 L 627 1409 L 627 1408 L 629 1408 L 629 1407 L 630 1407 L 630 1406 L 632 1406 L 632 1405 L 634 1405 L 634 1404 L 636 1404 L 636 1403 L 637 1403 L 637 1402 L 639 1402 L 639 1401 L 641 1401 L 641 1400 L 643 1400 L 643 1399 L 644 1399 L 644 1398 L 646 1398 L 646 1397 L 648 1397 L 648 1396 L 649 1396 L 649 1395 L 651 1395 L 651 1394 L 653 1394 L 653 1393 L 655 1393 L 655 1392 L 656 1392 L 656 1391 L 658 1391 L 658 1390 L 660 1390 L 660 1389 L 661 1389 L 661 1388 L 663 1388 L 663 1387 L 665 1387 L 665 1386 L 667 1386 L 667 1385 L 668 1385 L 668 1384 L 670 1384 L 670 1383 L 672 1383 L 672 1382 L 673 1382 L 673 1381 L 675 1381 L 675 1380 L 677 1380 L 677 1379 L 679 1379 L 679 1378 L 680 1378 L 680 1377 L 682 1377 L 682 1376 L 684 1376 L 684 1375 L 685 1375 L 685 1374 L 687 1374 L 687 1373 L 689 1373 L 689 1372 L 691 1372 L 691 1371 L 692 1371 L 692 1370 L 694 1370 L 694 1369 L 696 1369 L 696 1368 L 698 1368 L 698 1367 L 699 1367 L 699 1366 L 701 1366 L 701 1365 L 703 1365 L 703 1364 L 704 1364 L 704 1363 L 706 1363 L 706 1362 L 708 1362 L 708 1361 L 710 1361 L 710 1360 L 711 1360 L 711 1359 L 713 1359 L 713 1358 L 715 1358 L 715 1357 L 716 1357 L 716 1356 L 718 1356 L 718 1355 L 720 1355 L 720 1354 L 722 1354 L 722 1353 L 723 1353 L 723 1352 L 725 1352 L 725 1351 L 727 1351 L 727 1350 L 728 1350 L 728 1349 L 730 1349 L 730 1348 L 732 1348 L 732 1347 L 734 1347 L 734 1346 L 735 1346 L 735 1345 L 737 1345 L 737 1344 L 739 1344 L 739 1343 L 740 1343 L 740 1342 L 742 1342 L 742 1341 L 744 1341 L 744 1340 L 746 1340 L 746 1339 L 747 1339 L 747 1338 L 749 1338 L 749 1337 L 751 1337 L 751 1336 L 753 1336 L 753 1335 L 754 1335 L 754 1334 L 756 1334 L 756 1333 L 758 1333 L 758 1332 L 759 1332 L 759 1331 L 761 1331 L 761 1330 L 763 1330 L 763 1329 L 765 1329 L 765 1328 L 766 1328 L 766 1327 L 768 1327 L 768 1326 L 770 1326 L 770 1325 L 771 1325 L 771 1324 L 773 1324 L 773 1323 L 775 1323 L 775 1322 L 777 1322 L 777 1321 L 778 1321 L 778 1320 L 780 1320 L 780 1319 L 782 1319 L 782 1318 L 783 1318 L 783 1317 L 785 1317 L 785 1316 L 787 1316 L 787 1315 L 789 1315 L 789 1314 L 790 1314 L 790 1313 L 792 1313 L 792 1312 L 794 1312 L 794 1311 L 795 1311 L 795 1310 L 797 1310 L 797 1309 L 799 1309 L 799 1308 L 801 1308 L 801 1307 L 802 1307 L 802 1306 L 804 1306 L 804 1305 L 806 1305 L 806 1304 L 808 1304 L 808 1303 L 809 1303 L 809 1302 L 811 1302 L 811 1301 L 813 1301 L 813 1300 L 814 1300 L 814 1299 L 816 1299 L 816 1298 L 818 1298 L 818 1297 L 820 1297 L 820 1296 L 821 1296 L 821 1295 L 823 1295 L 823 1294 L 825 1294 L 825 1293 L 826 1293 L 826 1292 L 828 1292 L 828 1291 L 830 1291 L 830 1290 L 832 1290 L 832 1289 L 833 1289 L 833 1288 L 835 1288 L 835 1287 L 837 1287 L 837 1286 L 838 1286 L 838 1285 L 840 1285 L 840 1284 L 842 1284 L 842 1283 L 844 1283 L 844 1282 L 845 1282 L 845 1281 L 847 1281 L 847 1280 L 849 1280 L 849 1279 L 850 1279 L 850 1278 L 852 1278 L 852 1277 L 854 1277 L 854 1276 L 856 1276 L 856 1275 L 857 1275 L 857 1274 L 859 1274 L 859 1273 L 861 1273 L 861 1272 L 863 1272 L 863 1271 L 864 1271 L 864 1270 L 866 1270 L 866 1269 L 868 1269 L 868 1268 L 869 1268 L 869 1267 L 871 1267 L 871 1266 L 873 1266 L 873 1265 L 875 1265 L 875 1264 L 876 1264 L 876 1263 L 878 1263 L 878 1262 L 880 1262 L 880 1261 L 881 1261 L 881 1260 L 883 1260 L 883 1259 L 885 1259 L 885 1258 L 887 1258 L 887 1257 L 888 1257 L 888 1256 L 890 1256 L 890 1255 L 892 1255 L 892 1254 L 893 1254 L 893 1253 L 895 1253 L 895 1252 L 897 1252 L 897 1251 L 899 1251 L 899 1250 L 900 1250 L 900 1249 L 902 1249 L 902 1248 L 904 1248 L 904 1247 L 905 1247 L 905 1246 L 907 1246 L 907 1245 L 909 1245 L 909 1244 L 911 1244 L 911 1243 L 912 1243 L 912 1242 L 914 1242 L 914 1241 L 916 1241 L 916 1240 L 918 1240 L 918 1239 L 919 1239 L 919 1238 L 921 1238 L 921 1237 L 923 1237 L 923 1236 L 924 1236 L 924 1235 L 926 1235 L 926 1234 L 928 1234 L 928 1233 L 930 1233 L 930 1232 L 931 1232 L 931 1231 L 933 1231 L 933 1230 L 935 1230 L 935 1229 L 936 1229 L 936 1228 L 938 1228 L 938 1227 L 940 1227 L 940 1226 L 942 1226 L 942 1225 L 943 1225 L 943 1224 L 945 1224 L 945 1223 L 947 1223 L 947 1222 L 948 1222 L 948 1221 L 950 1221 L 950 1220 L 952 1220 L 952 1219 L 954 1219 L 954 1218 L 955 1218 L 955 1217 L 957 1217 L 957 1216 L 959 1216 L 959 1215 L 960 1215 L 960 1214 L 962 1214 L 962 1213 L 964 1213 L 964 1212 L 966 1212 L 966 1211 L 967 1211 L 967 1210 L 969 1210 L 969 1209 L 971 1209 L 971 1208 L 973 1208 L 973 1207 L 974 1207 L 974 1206 L 976 1206 L 976 1205 L 978 1205 L 978 1204 L 979 1204 L 979 1203 L 981 1203 L 981 1202 L 983 1202 L 983 1201 L 985 1201 L 985 1200 L 986 1200 L 986 1199 L 988 1199 L 988 1198 L 990 1198 L 990 1197 L 991 1197 L 991 1196 L 993 1196 L 993 1195 L 995 1195 L 995 1194 L 997 1194 L 997 1193 L 998 1193 L 998 1192 L 1000 1192 L 1000 1191 L 1002 1191 L 1002 1190 L 1003 1190 L 1003 1189 L 1005 1189 L 1005 1188 L 1007 1188 L 1007 1187 L 1009 1187 L 1009 1186 L 1010 1186 L 1010 1185 L 1012 1185 L 1012 1184 L 1014 1184 L 1014 1183 L 1015 1183 L 1015 1182 L 1017 1182 L 1017 1181 L 1019 1181 L 1019 1180 L 1021 1180 L 1021 1179 L 1022 1179 L 1022 1178 L 1024 1178 L 1024 1177 L 1026 1177 L 1026 1176 L 1028 1176 L 1028 1175 L 1029 1175 L 1029 1174 L 1031 1174 L 1031 1173 L 1033 1173 L 1033 1172 L 1034 1172 L 1034 1171 L 1036 1171 L 1036 1170 L 1038 1170 L 1038 1169 L 1040 1169 L 1040 1168 L 1041 1168 L 1041 1167 L 1043 1167 L 1043 1166 L 1045 1166 L 1045 1165 L 1046 1165 L 1046 1164 L 1048 1164 L 1048 1163 L 1050 1163 L 1050 1162 L 1052 1162 L 1052 1161 L 1053 1161 L 1053 1160 L 1055 1160 L 1055 1159 L 1057 1159 L 1057 1158 L 1058 1158 L 1058 1157 L 1060 1157 L 1060 1156 L 1062 1156 L 1062 1155 L 1064 1155 L 1064 1154 L 1065 1154 L 1065 1153 L 1067 1153 L 1067 1152 L 1069 1152 L 1069 1151 L 1070 1151 L 1070 1150 L 1072 1150 L 1072 1149 L 1074 1149 L 1074 1148 L 1076 1148 L 1076 1147 L 1077 1147 L 1077 1146 L 1079 1146 L 1079 1145 L 1081 1145 L 1081 1144 L 1083 1144 L 1083 1143 L 1084 1143 L 1084 1142 L 1086 1142 L 1086 1141 L 1088 1141 L 1088 1140 L 1089 1140 L 1089 1139 L 1091 1139 L 1091 1138 L 1093 1138 L 1093 1137 L 1095 1137 L 1095 1136 L 1096 1136 L 1096 1135 L 1098 1135 L 1098 1134 L 1100 1134 L 1100 1133 L 1101 1133 L 1101 1132 L 1103 1132 L 1103 1131 L 1105 1131 L 1105 1130 L 1107 1130 L 1107 1129 L 1108 1129 L 1108 1128 L 1110 1128 L 1110 1127 L 1112 1127 L 1112 1126 L 1113 1126 L 1113 1125 L 1115 1125 L 1115 1124 L 1117 1124 L 1117 1123 L 1119 1123 L 1119 1122 L 1120 1122 L 1120 1121 L 1122 1121 L 1122 1120 L 1124 1120 L 1124 1119 L 1125 1119 L 1125 1118 L 1127 1118 L 1127 1117 L 1129 1117 L 1129 1116 L 1131 1116 L 1131 1115 L 1132 1115 L 1132 1114 L 1134 1114 L 1134 1113 L 1136 1113 L 1136 1112 L 1138 1112 L 1138 1111 L 1139 1111 L 1139 1110 L 1141 1110 L 1141 1109 L 1143 1109 L 1143 1108 L 1144 1108 L 1144 1107 L 1146 1107 L 1146 1106 L 1147 1106 L 1147 1105 L 1148 1105 L 1148 1104 L 1149 1104 L 1149 1103 L 1150 1103 L 1150 1101 L 1151 1101 L 1151 1099 L 1152 1099 L 1152 872 L 1151 872 L 1151 870 L 1150 870 L 1150 868 L 1149 868 L 1149 867 L 1148 867 L 1148 866 L 1147 866 L 1147 865 L 1145 865 L 1145 864 L 1143 864 L 1143 863" stroke-linecap="round" />
</g>
</g>
</g>
<g transform="matrix(1.9211538461538462 0 0 1.9211538461538462 640.5363024831519 674.1765131713664)" id="text-logo"  >
<g style=""  paint-order="stroke"   >
		<g transform="matrix(1 0 0 1 0 0)" id="text-logo-path-0"  >
<path style="stroke: none; stroke-width: 0; stroke-dasharray: none; stroke-linecap: butt; stroke-dashoffset: 0; stroke-linejoin: miter; stroke-miterlimit: 4; fill: rgb(128,128,128); fill-rule: nonzero; opacity: 1;"  paint-order="stroke"  transform=" translate(-209.2066928109633, 13.096391509433964)" d="M 16.17 -5.38 L 16.55 -5.38 C 10.84 -5.38 6.88 -9.33 6.88 -15.09 C 6.88 -20.81 10.84 -24.73 16.55 -24.73 C 22.23 -24.73 26.19 -20.81 26.19 -15.09 C 26.19 -11.87 24.98 -9.25 22.92 -7.53 C 22.58 -7.27 22.27 -7.4 22.23 -7.83 C 22.23 -8.34 22.19 -8.86 22.23 -9.46 C 22.27 -9.89 21.93 -10.28 21.5 -10.28 L 17.46 -10.62 C 17.03 -10.62 16.68 -10.32 16.64 -9.89 C 16.55 -8.51 16.64 -7.27 16.81 -6.15 C 16.9 -5.72 16.6 -5.38 16.17 -5.38 Z M 16.55 0.22 C 17.24 0.22 17.93 0.17 18.58 0.09 C 19.01 0 19.57 0.22 19.87 0.56 C 22.45 3.31 26.45 4.47 30.66 4.04 C 31.09 4 31.39 3.61 31.3 3.18 L 30.79 -0.77 C 30.7 -1.2 30.32 -1.51 29.89 -1.46 C 28.17 -1.29 26.75 -1.42 25.54 -1.94 C 25.16 -2.11 25.16 -2.49 25.5 -2.71 C 29.33 -5.5 31.78 -9.98 31.78 -15.09 C 31.78 -23.52 24.94 -30.32 16.55 -30.32 C 8.13 -30.32 1.29 -23.52 1.29 -15.09 C 1.29 -6.62 8.13 0.22 16.55 0.22 Z M 48.33 -28.55 L 48.33 -11.83 C 48.33 -5.16 53.71 0.22 60.33 0.22 C 66.99 0.22 72.41 -5.16 72.41 -11.83 L 72.41 -28.55 C 72.41 -29.03 72.67 -29.5 73.06 -29.84 C 73.19 -29.97 73.1 -30.1 72.97 -30.1 L 66.26 -30.1 C 66.13 -30.1 66.05 -29.97 66.18 -29.84 C 66.56 -29.5 66.82 -29.03 66.82 -28.55 L 66.82 -11.83 C 66.82 -8.26 63.9 -5.38 60.33 -5.38 C 56.8 -5.38 53.92 -8.26 53.92 -11.83 L 53.92 -28.55 C 53.92 -29.03 54.18 -29.5 54.57 -29.84 C 54.7 -29.97 54.61 -30.1 54.48 -30.1 L 47.77 -30.1 C 47.64 -30.1 47.56 -29.97 47.69 -29.84 C 48.07 -29.5 48.33 -29.03 48.33 -28.55 Z M 96.23 -28.64 L 87.72 -1.46 C 87.55 -1.03 86.99 -0.6 86.6 -0.26 C 86.47 -0.13 86.56 0 86.69 0 L 93.61 0 C 93.74 0 93.83 -0.13 93.7 -0.26 C 93.31 -0.6 93.35 -1.03 93.52 -1.46 L 93.78 -2.28 C 94.99 -4.86 101.69 -5.12 104.79 -6.58 C 105.18 -6.79 105.56 -6.62 105.69 -6.24 L 107.2 -1.46 C 107.37 -1.03 107.41 -0.6 107.03 -0.26 C 106.9 -0.13 106.98 0 107.11 0 L 114.04 0 C 114.16 0 114.25 -0.13 114.12 -0.26 C 113.73 -0.6 113.18 -1.03 113 -1.46 L 104.49 -28.64 C 104.32 -29.07 104.27 -29.5 104.66 -29.84 C 104.79 -29.97 104.7 -30.1 104.58 -30.1 L 96.15 -30.1 C 96.02 -30.1 95.93 -29.97 96.06 -29.84 C 96.45 -29.5 96.41 -29.07 96.23 -28.64 Z M 95.93 -9.25 L 100.15 -22.53 C 100.28 -22.92 100.45 -22.92 100.58 -22.53 L 103.89 -12 C 103.41 -10.62 98.43 -10.49 96.28 -9.03 C 95.98 -8.73 95.8 -8.86 95.93 -9.25 Z M 130.03 -28.55 L 130.03 -1.55 C 130.03 -1.08 129.77 -0.6 129.39 -0.26 C 129.26 -0.13 129.34 0 129.47 0 L 136.18 0 C 136.31 0 136.4 -0.13 136.27 -0.26 C 135.88 -0.6 135.62 -1.08 135.62 -1.55 L 135.62 -16.86 C 135.62 -17.29 135.88 -17.42 136.18 -17.11 L 147.96 -6.54 C 148.26 -6.24 148.52 -5.68 148.52 -5.25 L 148.52 -1.55 C 148.52 -1.08 148.26 -0.6 147.88 -0.26 C 147.75 -0.13 147.83 0 147.96 0 L 154.67 0 C 154.8 0 154.89 -0.13 154.76 -0.26 C 154.37 -0.6 154.11 -1.08 154.11 -1.55 L 154.11 -28.55 C 154.11 -29.03 154.37 -29.5 154.76 -29.84 C 154.89 -29.97 154.8 -30.1 154.67 -30.1 L 147.96 -30.1 C 147.83 -30.1 147.75 -29.97 147.88 -29.84 C 148.26 -29.5 148.52 -29.03 148.52 -28.55 L 148.52 -13.67 C 148.52 -13.24 148.26 -13.12 147.96 -13.42 L 136.18 -23.99 C 135.88 -24.3 135.62 -24.85 135.62 -25.28 L 135.62 -28.55 C 135.62 -29.03 135.88 -29.5 136.27 -29.84 C 136.4 -29.97 136.31 -30.1 136.18 -30.1 L 129.47 -30.1 C 129.34 -30.1 129.26 -29.97 129.39 -29.84 C 129.77 -29.5 130.03 -29.03 130.03 -28.55 Z M 189.46 -30.1 L 173.12 -30.1 C 172.69 -30.1 172.21 -29.8 172.04 -29.37 L 169.98 -23.99 C 169.94 -23.87 170.02 -23.74 170.19 -23.82 C 170.67 -24.04 171.27 -24.51 171.74 -24.51 L 177.72 -24.51 C 178.15 -24.51 178.49 -24.85 178.49 -25.28 L 178.49 -1.55 C 178.49 -1.08 178.23 -0.6 177.85 -0.26 C 177.72 -0.13 177.8 0 177.93 0 L 184.64 0 C 184.77 0 184.86 -0.13 184.73 -0.26 C 184.34 -0.6 184.08 -1.08 184.08 -1.55 L 184.08 -25.28 C 184.08 -24.85 184.43 -24.51 184.86 -24.51 L 190.83 -24.51 C 191.31 -24.51 191.91 -24.04 192.38 -23.82 C 192.55 -23.74 192.64 -23.87 192.6 -23.99 L 190.53 -29.37 C 190.36 -29.8 189.89 -30.1 189.46 -30.1 Z M 208.46 -28.55 L 208.46 -1.55 C 208.46 -1.08 208.21 -0.6 207.82 -0.26 C 207.69 -0.13 207.78 0 207.9 0 L 214.61 0 C 214.74 0 214.83 -0.13 214.7 -0.26 C 214.31 -0.6 214.05 -1.08 214.05 -1.55 L 214.05 -5.12 C 214.05 -5.55 214.4 -5.89 214.83 -5.89 L 219.17 -5.89 C 219.43 -5.89 219.64 -5.89 219.9 -5.93 C 220.33 -5.93 220.85 -5.68 221.06 -5.33 C 223.43 -1.63 226.74 -0.09 230.44 0.13 C 230.87 0.13 231.21 -0.22 231.21 -0.65 L 231.21 -4.69 C 231.21 -5.12 230.87 -5.46 230.44 -5.46 C 228.67 -5.59 227.43 -6.06 226.39 -7.31 C 226.14 -7.7 226.18 -8.17 226.57 -8.43 C 229.4 -10.62 231.25 -14.1 231.25 -18.02 C 231.25 -24.73 225.84 -30.1 219.17 -30.1 L 207.9 -30.1 C 207.78 -30.1 207.69 -29.97 207.82 -29.84 C 208.21 -29.5 208.46 -29.03 208.46 -28.55 Z M 214.05 -12.26 L 214.05 -23.74 C 214.05 -24.17 214.4 -24.51 214.83 -24.51 L 219.17 -24.51 C 223.13 -24.51 225.66 -22.02 225.66 -18.02 C 225.66 -14.02 223.13 -11.48 219.17 -11.48 L 214.83 -11.48 C 214.4 -11.48 214.05 -11.83 214.05 -12.26 Z M 247.81 -28.55 L 247.81 -1.55 C 247.81 -1.08 247.55 -0.6 247.16 -0.26 C 247.03 -0.13 247.12 0 247.25 0 L 264.79 0 C 265.22 0 265.7 -0.3 265.87 -0.73 L 267.93 -6.11 C 267.98 -6.24 267.89 -6.36 267.72 -6.28 C 267.25 -6.06 266.64 -5.59 266.17 -5.59 L 254.17 -5.59 C 253.74 -5.59 253.4 -5.93 253.4 -6.36 L 253.4 -8.04 C 253.48 -8.17 253.48 -8.17 253.53 -8.3 C 254.65 -12.17 256.62 -13.29 260.84 -12.9 C 261.31 -12.86 261.74 -12.56 262.04 -12.13 C 262.13 -12 262.3 -12.04 262.3 -12.17 L 262.39 -12.77 L 263.25 -18.19 L 263.33 -18.79 C 263.33 -18.92 263.2 -19.01 263.07 -18.92 C 262.69 -18.58 262.17 -18.36 261.7 -18.4 C 258.77 -18.66 256.24 -18.32 254.09 -17.24 C 253.7 -17.07 253.4 -17.24 253.4 -17.67 L 253.4 -23.74 C 253.4 -24.17 253.74 -24.51 254.17 -24.51 L 264.88 -24.51 C 265.35 -24.51 265.95 -24.04 266.43 -23.82 C 266.6 -23.74 266.69 -23.87 266.64 -23.99 L 264.58 -29.37 C 264.41 -29.8 263.93 -30.1 263.5 -30.1 L 247.25 -30.1 C 247.12 -30.1 247.03 -29.97 247.16 -29.84 C 247.55 -29.5 247.81 -29.03 247.81 -28.55 Z M 299.8 0 L 307.15 0 C 307.28 0 307.36 -0.13 307.23 -0.26 C 306.85 -0.6 306.07 -0.95 305.82 -1.33 L 298.08 -15.35 C 297.86 -15.74 297.86 -16.34 298.08 -16.73 L 304.74 -28.77 C 305 -29.15 305.77 -29.5 306.16 -29.84 C 306.29 -29.97 306.2 -30.1 306.07 -30.1 L 298.72 -30.1 C 298.59 -30.1 298.51 -29.97 298.63 -29.84 C 299.02 -29.5 298.76 -29.15 298.51 -28.77 L 294.94 -22.32 C 294.72 -21.93 294.38 -21.93 294.16 -22.32 L 290.59 -28.77 C 290.34 -29.15 290.08 -29.5 290.46 -29.84 C 290.59 -29.97 290.51 -30.1 290.38 -30.1 L 283.03 -30.1 C 282.9 -30.1 282.81 -29.97 282.94 -29.84 C 283.33 -29.5 284.1 -29.15 284.36 -28.77 L 291.07 -16.73 C 291.28 -16.34 291.28 -15.74 291.07 -15.35 L 283.28 -1.33 C 283.03 -0.95 282.25 -0.6 281.86 -0.26 C 281.74 -0.13 281.82 0 281.95 0 L 289.3 0 C 289.43 0 289.52 -0.13 289.39 -0.26 C 289 -0.6 289.26 -0.95 289.52 -1.33 L 294.16 -9.72 C 294.38 -10.11 294.72 -10.11 294.94 -9.72 L 299.58 -1.33 C 299.84 -0.95 300.1 -0.6 299.71 -0.26 C 299.58 -0.13 299.67 0 299.8 0 Z M 323.15 -28.55 L 323.15 -1.55 C 323.15 -1.08 322.89 -0.6 322.5 -0.26 C 322.37 -0.13 322.46 0 322.59 0 L 329.29 0 C 329.42 0 329.51 -0.13 329.38 -0.26 C 328.99 -0.6 328.74 -1.08 328.74 -1.55 L 328.74 -28.55 C 328.74 -29.03 328.99 -29.5 329.38 -29.84 C 329.51 -29.97 329.42 -30.1 329.29 -30.1 L 322.59 -30.1 C 322.46 -30.1 322.37 -29.97 322.5 -29.84 C 322.89 -29.5 323.15 -29.03 323.15 -28.55 Z M 360.56 -5.38 C 355.22 -5.38 350.88 -9.72 350.88 -15.09 C 350.88 -20.43 355.22 -24.73 360.56 -24.73 C 365.84 -24.73 370.19 -20.43 370.19 -15.09 C 370.19 -9.72 365.84 -5.38 360.56 -5.38 Z M 360.56 0.22 C 368.94 0.22 375.78 -6.62 375.78 -15.09 C 375.78 -23.52 368.94 -30.32 360.56 -30.32 C 352.13 -30.32 345.29 -23.52 345.29 -15.09 C 345.29 -6.62 352.13 0.22 360.56 0.22 Z M 392.33 -28.55 L 392.33 -1.55 C 392.33 -1.08 392.07 -0.6 391.69 -0.26 C 391.56 -0.13 391.64 0 391.77 0 L 398.48 0 C 398.61 0 398.7 -0.13 398.57 -0.26 C 398.18 -0.6 397.92 -1.08 397.92 -1.55 L 397.92 -16.86 C 397.92 -17.29 398.18 -17.42 398.48 -17.11 L 410.26 -6.54 C 410.56 -6.24 410.82 -5.68 410.82 -5.25 L 410.82 -1.55 C 410.82 -1.08 410.56 -0.6 410.18 -0.26 C 410.05 -0.13 410.13 0 410.26 0 L 416.97 0 C 417.1 0 417.19 -0.13 417.06 -0.26 C 416.67 -0.6 416.41 -1.08 416.41 -1.55 L 416.41 -28.55 C 416.41 -29.03 416.67 -29.5 417.06 -29.84 C 417.19 -29.97 417.1 -30.1 416.97 -30.1 L 410.26 -30.1 C 410.13 -30.1 410.05 -29.97 410.18 -29.84 C 410.56 -29.5 410.82 -29.03 410.82 -28.55 L 410.82 -13.67 C 410.82 -13.24 410.56 -13.12 410.26 -13.42 L 398.48 -23.99 C 398.18 -24.3 397.92 -24.85 397.92 -25.28 L 397.92 -28.55 C 397.92 -29.03 398.18 -29.5 398.57 -29.84 C 398.7 -29.97 398.61 -30.1 398.48 -30.1 L 391.77 -30.1 C 391.64 -30.1 391.56 -29.97 391.69 -29.84 C 392.07 -29.5 392.33 -29.03 392.33 -28.55 Z" stroke-linecap="round" />
</g>
</g>
</g>
</svg>