

<?xml version="1.0" encoding="utf-8"?>
<!-- Generator: Adobe Illustrator 26.3.1, SVG Export Plug-In . SVG Version: 6.00 Build 0)  -->
<svg version="1.1" id="Layer_1" xmlns="http://www.w3.org/2000/svg" xmlns:xlink="http://www.w3.org/1999/xlink" x="0px" y="0px"
	 viewBox="0 0 360 125" style="enable-background:new 0 0 360 125;" xml:space="preserve">
<style type="text/css">
	.st0{fill:#FFFFFF;}
	.st1{fill:#2E2F71;}
	.st2{fill:#8C5CA6;}
	.st3{fill:#42BFB9;}
	.st4{fill:#A9CB38;}
	.st5{fill:#5A9ECC;}
</style>
<g>
	<path class="st0" d="M78.8898544,119.6143188c-0.553894,0.0488281-1.1068115,0.0732422-1.6593628,0.0864258
		C77.7829819,119.687561,78.3359604,119.663147,78.8898544,119.6143188z"/>
	<path class="st0" d="M102.9161606,104.281311c-0.0515137,0.1108398-0.1040649,0.2211914-0.1574097,0.3310547
		C102.8120346,104.5025024,102.8646469,104.3921509,102.9161606,104.281311z"/>
	<path class="st0" d="M104.0843124,101.3067017c-0.0407104,0.1235352-0.0799561,0.2470703-0.1221313,0.3701172
		C104.0043564,101.553772,104.043602,101.4302368,104.0843124,101.3067017z"/>
	<path class="st0" d="M76.7298813,119.7046509c-0.4047241,0.0014648-0.8092041-0.0058594-1.2131958-0.0224609
		C75.9207382,119.6987915,76.3251572,119.7061157,76.7298813,119.7046509z"/>
	<path class="st0" d="M104.4874496,100.0064087c-0.0404663,0.1396484-0.0817871,0.2792969-0.1237793,0.418457
		C104.4056625,100.2857056,104.4470444,100.1460571,104.4874496,100.0064087z"/>
	<path class="st0" d="M104.8349838,98.7402954c-0.0323486,0.1254883-0.0669556,0.25-0.1002808,0.375
		C104.7680283,98.9902954,104.8026352,98.8657837,104.8349838,98.7402954z"/>
	<path class="st0" d="M15.5607519,95.4678345c0.3393555,0.2578125,0.6902475,0.5063477,1.0640879,0.7368164
		c0.4139404,0.2548828,0.848999,0.4926758,1.3052979,0.7128906c0.1661987,0.0805664,0.3410034,0.1430664,0.5145264,0.2080078
		c-0.1735229-0.0649414-0.3483276-0.1279297-0.5145264-0.2084961
		C17.0617905,96.4971313,16.2757797,96.0112915,15.5607519,95.4678345z"/>
	<path class="st0" d="M113.0663681,47.8013344c0.0369263,0.1650391,0.0726929,0.3305664,0.107666,0.4956055
		C113.139061,48.1319008,113.1032944,47.9663734,113.0663681,47.8013344z"/>
	<path class="st0" d="M112.5931015,45.8511391c-0.0006714-0.0024414-0.0011597-0.0048828-0.0018311-0.0073242
		c-0.1523438-0.5712891-0.3226929-1.1328125-0.5102539-1.6855469c-0.0016479-0.0048828-0.0037842-0.0092773-0.0054321-0.0141602
		c0.1895752,0.5576172,0.3621216,1.1240234,0.5158691,1.7006836
		C112.5920029,45.8467445,112.5925522,45.8486977,112.5931015,45.8511391z"/>
	<path class="st0" d="M111.107872,41.7319984c0.0858765,0.1899414,0.1756592,0.3779297,0.2573242,0.5703125
		C111.2835312,42.1099281,111.1937485,41.9219398,111.107872,41.7319984z"/>
	<path class="st0" d="M113.8007431,52.2852211c0.0163574,0.1645508,0.031189,0.3295898,0.0449829,0.4946289
		C113.8319931,52.6148109,113.8171005,52.4497719,113.8007431,52.2852211z"/>
	<path class="st0" d="M110.1903305,39.8809242c0.1094971,0.201416,0.2163696,0.4042969,0.3210449,0.6083984
		C110.4066391,40.2852211,110.2998886,40.0823402,110.1903305,39.8809242z"/>
	<path class="st0" d="M109.1837997,38.1604652c0.1087036,0.1716309,0.210083,0.347168,0.3151855,0.520752
		C109.3938217,38.5076332,109.2925034,38.3320961,109.1837997,38.1604652z"/>
	<path class="st0" d="M86.7229843,10.2341948c-0.2056274-0.1655273-0.4083862-0.3349609-0.6209106-0.4916992
		c-1.3613281-1.003418-2.8591919-1.8283687-4.4294434-2.5576167c-0.6478271-0.3007812-1.3007812-0.5773926-1.9584351-0.8310547
		c-0.6231079-0.2402344-1.2512207-0.456543-1.8825073-0.6572266c1.2977295,0.4125977,2.5794678,0.9025879,3.8411255,1.4885254
		C83.48806,8.0283842,85.2002792,9.0073881,86.7229843,10.2341948z"/>
	<path class="st0" d="M40.7858505,11.5025053c-1.187561,0.8066406-2.328064,1.6774902-3.4463501,2.5793457
		c-0.6027832,0.4863281-1.2006226,0.979248-1.7990112,1.4719238c-0.8466797,0.6967783-1.6868286,1.401124-2.5219727,2.1108408
		c0.835083-0.7097168,1.675354-1.4138184,2.5219727-2.1105967C37.2491074,14.1475248,38.9582748,12.7442045,40.7858505,11.5025053z"
		/>
	<path class="st0" d="M67.3256454,3.8950837c-0.6640625-0.0351562-1.3299561-0.060791-1.9983521-0.0742188
		c-0.7987671-0.013916-1.5945435,0.0014648-2.3873901,0.0432129c-0.7173462,0.0378418-1.4315186,0.1037598-2.144104,0.1823733
		c1.5003052-0.1655276,3.0101318-0.2519534,4.5314941-0.225342C65.9956284,3.8345368,66.6615829,3.8599274,67.3256454,3.8950837z"/>
	<path class="st0" d="M94.4870224,22.1724281c-0.1674805-0.2373047-0.3364258-0.4731445-0.4942627-0.7175293
		c-0.4537354-0.7016602-0.8673096-1.4335938-1.2372437-2.1972656c-0.1849976-0.3818359-0.3590698-0.7717285-0.5218506-1.1699219
		c-0.1430054-0.3498535-0.2954712-0.6958008-0.4512329-1.0400391c0.1557617,0.3444824,0.3082886,0.6901855,0.4512939,1.0402832
		C92.835228,19.5596352,93.5977402,20.9131508,94.4870224,22.1724281z"/>
	<path class="st0" d="M98.0947495,26.1992836c2.6039429,2.3366699,5.1862183,4.6918945,7.5227661,7.2988281
		c-0.5162354-0.5759277-1.0387573-1.145752-1.5771484-1.6994629c-1.2653198-1.3010254-2.5845947-2.546875-3.9244995-3.7724609
		c-0.6699829-0.612793-1.3450928-1.220459-2.0213013-1.8273926c-0.4214478-0.3781738-0.8233032-0.7712402-1.2158203-1.1713867
		C97.2713242,25.4277992,97.6731796,25.8208656,98.0947495,26.1992836z"/>
	<path class="st0" d="M95.4709702,23.4739418c-0.0879517-0.1066895-0.1686401-0.2189941-0.2545776-0.3273926
		c0.4329224,0.5458984,0.8911743,1.0732422,1.3740234,1.5820312C96.203392,24.3208656,95.8261337,23.9055824,95.4709702,23.4739418z
		"/>
	<path class="st0" d="M72.024498,4.3682284c0.4085083,0.0617676,0.8157349,0.1296387,1.2218018,0.203125
		C72.8402939,4.4978671,72.4330063,4.429996,72.024498,4.3682284z"/>
	<path class="st0" d="M53.0624619,5.6282382c0.1842651-0.057373,0.3692017-0.1132812,0.5546265-0.1677246
		C53.4316635,5.514957,53.246727,5.5708652,53.0624619,5.6282382z"/>
	<polygon class="st0" points="50.8850937,6.3701816 50.8805771,6.3721347 50.8868027,6.3696933 	"/>
	<path class="st0" d="M75.9258652,5.1526523c0.4437256,0.1137695,0.8845215,0.2416992,1.324646,0.3730469
		C76.8103867,5.3943515,76.3695908,5.2664218,75.9258652,5.1526523z"/>
	<path class="st0" d="M55.8826523,4.8662753c0.6940918-0.1535645,1.3910522-0.2880859,2.0894775-0.4121094
		C57.2737045,4.5781894,56.5768051,4.712955,55.8826523,4.8662753z"/>
	<path class="st0" d="M48.4588852,7.3762851c0.1948853-0.0864258,0.3889771-0.1750488,0.5848389-0.2590332
		C48.8478622,7.2012362,48.6537704,7.2898593,48.4588852,7.3762851z"/>
	<path class="st0" d="M46.5729599,8.2542143c0.2113037-0.1032715,0.4234009-0.2050781,0.6357422-0.3059077
		C46.9962997,8.0491362,46.7843246,8.1509428,46.5729599,8.2542143z"/>
	<path class="st0" d="M16.1256332,32.4463539c3.2548828-1.7832031,6.0706787-4.050293,8.5505981-6.8212891
		c1.5769043-1.7626953,3.2590942-3.4174805,4.9979858-5.0126953c-0.8288574,0.760498-1.6483765,1.5307617-2.4451904,2.3244629
		c-0.8748169,0.8713379-1.7276611,1.7653809-2.5529175,2.6877441c-2.4799194,2.7712402-5.2955322,5.0380859-8.5506592,6.8215332
		c-0.7294931,0.3999023-1.4364634,0.8300781-2.1226816,1.2880859c-1.3724365,0.9160156-2.6617432,1.9431152-3.8817749,3.0610352
		c-0.6099854,0.559082-1.2026367,1.140625-1.7797241,1.7426758c-0.2826538,0.2949219-0.547729,0.5961914-0.7951045,0.9038086
		c-0.2227783,0.2770996-0.4264526,0.5615234-0.6205444,0.8496094c0.409668-0.607666,0.87854-1.1931152,1.41571-1.7531738
		C10.649497,36.1304359,13.2075415,34.045475,16.1256332,32.4463539z"/>
	<path class="st0" d="M73.9923325,4.7127109c0.4110718,0.0827637,0.8201904,0.1750488,1.2284546,0.2712402
		C74.8125229,4.8877597,74.4034042,4.7954745,73.9923325,4.7127109z"/>
	<path class="st0" d="M70.0070419,4.1111484c0.4251709,0.0446777,0.8494263,0.0935059,1.2722168,0.1496582
		C70.8565292,4.2046542,70.4321518,4.1558261,70.0070419,4.1111484z"/>
	<path class="st0" d="M58.5931625,4.3513827c0.5227661-0.0854492,1.046875-0.1608887,1.5720825-0.2272949
		C59.6399765,4.1904941,59.1159286,4.2659335,58.5931625,4.3513827z"/>
	<path class="st0" d="M67.8937607,3.9331696c0.4729614,0.0300293,0.9452515,0.0632324,1.4156494,0.1059573
		C68.8390121,3.996402,68.3667221,3.9631989,67.8937607,3.9331696z"/>
	<path class="st0" d="M102.2342758,46.3242836c-0.7537842-2.3349609-1.5755615-4.638916-2.7008057-6.8178711
		c-1.9650269-3.8056641-4.6853638-7.0556641-7.7123413-10.0412598c-2.2079468-2.1779785-4.6272583-4.1171875-7.3215332-5.692627
		c-2.1071167-1.2316895-4.355957-2.1132812-6.631897-2.9782715c-2.2941895-0.8725586-4.6247559-1.6101074-6.9642334-2.3330078
		c-1.4355469-0.4431152-2.9020386-0.7888184-4.388855-0.9812012c-7.1654053-0.9240723-14.0093384,0.2089844-20.5322266,3.3049316
		l0.4966431,0.2275391c0.1211548,0.2231445,0.3806152,0.5290527,0.2323608,0.7145996
		c-0.3198242,0.4006348,0.0004272,0.2895508,0.1732178,0.2680664c0.1859741-0.0231934,0.3656006-0.0991211,0.5464478-0.1567383
		c2.2202759-0.7041016,4.4146729-1.5100098,6.7355347-1.8369141c1.2592773-0.1777344,2.4860229-0.5576172,3.7589111-0.6298828
		c1.1746216-0.0671387,2.3560181-0.0251465,3.5280762-0.1140137c3.5704346-0.2717285,7.0421753,0.3771973,10.4931641,1.1320801
		c1.5528564,0.3393555,3.0464478,0.9172363,4.5370483,1.5c3.6162109,1.4123535,7.0040894,3.2109375,10.1212769,5.5302734
		c2.3123779,1.7207031,4.3822632,3.7041016,6.4121094,5.7363281c0.1687622,0.1687012,0.3407593,0.2792969,0.6051025,0.3481445
		c0.5091553,0.1340332,1.109375,0.1381836,1.4804077,0.6020508c1.5081787,1.8845215,2.5625,4.03125,3.524292,6.223877
		c0.8386841,1.9108887,1.5431519,3.876709,2.2062378,5.8547363c1.4510498,4.3286133,2.3806152,8.7592773,2.4845581,13.3388672
		c0.0281982,1.2319336,0.0042725,2.4638672,0.0042725,3.6958008l0.1675415-0.0009766
		c0.1793823-1.6118164,0.4182739-3.2192383,0.517395-4.8349609c0.0705566-1.1518555-0.0546265-2.315918-0.1069336-3.4716797
		C103.7668076,51.9736977,103.1386337,49.1255531,102.2342758,46.3242836z"/>
	<path class="st0" d="M80.3080063,97.0410767c-0.7978516,0.050293-1.413147,0.3896484-2.0358276,0.6772461
		c-3.9677124,1.8325195-8.1551514,2.7802734-12.4984131,3.0205078c-3.4446411,0.1899414-6.8706055-0.0585938-10.2735596-0.6635742
		c-6.7085571-1.1933594-12.7371216-3.8710938-17.9730835-8.2446289c-5.1826172-4.3295898-8.9936523-9.706543-11.7995605-15.8139648
		c-1.3991089-3.0454102-2.3406982-6.25-3.2086792-9.4990234c0.0707397,1.0375977-0.0759888,2.0756836-0.0192261,3.0917969
		c0.0582275,1.0439453,0.4449463,2.0698242,0.6853638,3.1044922c0.2837524,1.2207031,0.7397461,2.3803711,1.185791,3.5498047
		c0.9776611,2.5634766,2.1692505,4.984375,3.8601685,7.1787109c1.472229,1.909668,2.9215088,3.8208008,4.5934448,5.5693359
		c1.9692383,2.0605469,4.1672363,3.8339844,6.4836426,5.4643555c0.7919312,0.5571289,1.468811,1.2807617,2.350708,1.6992188
		c1.4368286,0.6806641,2.8656006,1.390625,4.3460693,1.9643555c1.8336792,0.7094727,3.678894,1.3828125,5.6112671,1.8354492
		c1.6810303,0.394043,3.3885498,0.6411133,5.0618896,1.0581055c0.2003784,0.0498047,0.4151611,0.0717773,0.6216431,0.0629883
		c1.1060181-0.0463867,2.1988525,0.1308594,3.2993164,0.1748047c1.588501,0.0625,3.1661377,0.2988281,4.7694092-0.0131836
		c0.8789673-0.171875,1.7991943-0.215332,2.7156372-0.2036133c0.8876343,0.0117188,1.7922363-0.0566406,2.6627197-0.2255859
		c3.1743774-0.6166992,6.1754761-1.7280273,8.9942627-3.3188477C79.9284286,97.4038696,80.1385727,97.315979,80.3080063,97.0410767z
		"/>
	<path class="st0" d="M80.0373154,53.0293617c-1.9743652,0-3.574707,1.6005859-3.574707,3.574707
		c0,1.9746094,1.6003418,3.574707,3.574707,3.574707s3.5750732-1.6000977,3.5750732-3.574707
		C83.6123886,54.6299477,82.0116806,53.0293617,80.0373154,53.0293617z"/>
	<path class="st0" d="M65.0498276,106.4380493c-0.923584-0.0854492-1.8480835-0.1118164-2.7761841-0.1328125
		c-1.4025269-0.0322266-2.800354-0.2460938-4.2028809-0.284668c-2.7393188-0.0761719-5.4460449-0.5107422-8.1606445-0.7939453
		c-2.1410522-0.2236328-4.3151245-0.6777344-6.2329102-1.8295898c-0.1292114-0.0771484-0.2749023-0.1303711-0.4174194-0.1816406
		c-0.3729858-0.1342773-0.5869141-0.0087891-0.6292725,0.3945312c-0.0510254,0.4858398,0.0270996,0.9570312,0.2541504,1.3823242
		c0.3217163,0.6015625,0.6307373,1.2231445,1.039917,1.7646484c0.9386597,1.2426758,2.1262207,2.1074219,3.770813,2.0825195
		c1.1379395-0.0170898,2.2759399-0.0654297,3.4119873-0.1274414c0.510437-0.027832,1.0221558-0.0727539,1.5215454-0.2124023
		c1.3550415-0.3789062,2.7391357-0.6152344,4.12854-0.824707c0.2505493-0.0371094,0.4902954,0,0.7362061,0.027832
		c1.2438354,0.1391602,2.4887695,0.2700195,3.6070557,0.390625c1.5494995-0.0395508,2.9278564-0.2319336,4.137207-1.0644531
		c0.1524658-0.1049805,0.3985596-0.1914062,0.3479614-0.402832
		C65.5230331,106.362854,65.2464218,106.4561157,65.0498276,106.4380493z"/>
	<path class="st0" d="M33.7054672,97.8657837c-1.0599976-0.534668-2.0150146-1.1972656-2.8651733-2.0356445
		c-0.7529297-0.7421875-1.4168701-0.53125-1.7854004,0.4707031c-0.210083,0.5712891-0.0487061,1.121582,0.0076294,1.6850586
		c0.1575928,1.5649414,1.0246582,2.2758789,2.5709839,2.0170898c1.4416504-0.2407227,2.8587646-0.6186523,4.3163452-0.7783203
		c0.1989136-0.0214844,0.4176636-0.0537109,0.6389771-0.2558594c-0.4599609-0.3237305-0.9077148-0.5473633-1.4227905-0.6425781
		C34.6623764,98.2329712,34.1718369,98.100647,33.7054672,97.8657837z"/>
	<path class="st0" d="M80.0373154,65.2857056c-1.9743652,0-3.574707,1.6010742-3.574707,3.5756836
		c0,1.9741211,1.6003418,3.5742188,3.574707,3.5742188s3.5750732-1.6000977,3.5750732-3.5742188
		C83.6123886,66.8867798,82.0116806,65.2857056,80.0373154,65.2857056z"/>
	<path class="st0" d="M24.3403549,88.6997681c0.274231,0.2241211,0.6201172,0.3632812,0.9416504,0.5249023
		c0.1390991,0.0693359,0.302002,0.065918,0.4296875-0.0444336c0.1442261-0.1245117,0.0858154-0.2802734,0.0273438-0.4204102
		c-0.0584717-0.1396484-0.1194458-0.2832031-0.2113647-0.3999023c-0.7158813-0.9106445-1.3695068-1.8828125-2.1755981-2.706543
		c-1.7265015-1.7641602-2.9741821-3.8378906-4.1077271-5.9951172c-0.3164062-0.6030273-0.7288208-1.159668-0.9118042-1.8310547
		c-0.7399902-2.7133789-1.4469604-5.440918-1.6231689-8.2553711c-0.1387329-2.2104492-0.6868286-4.3476562-1.0142832-6.5214806
		c-0.3179321-2.1132812-0.7088623-4.2089844-0.8495483-6.3486328c-0.1086426-1.6557617-0.0811157-3.300293,0.1012573-4.9448242
		c0.1779175-1.6040039,0.3892822-3.2041016,0.8259888-4.7626953c0.7978525-2.847168,2.0158701-5.5214844,3.3463755-8.1523438
		c1.3279419-2.6264648,3.0095825-5.0083008,4.8873901-7.2600098c1.1674194-1.3994141,2.414856-2.7316895,3.5178833-4.185791
		c0.3585815-0.4724121,0.6549072-0.9746094,0.9298096-1.6533203c-0.6807251,0.2104492-1.2411499,0.3745117-1.6824951,0.842041
		c-2.1925049,2.3208008-4.3422241,4.6875-6.6135254,6.9299316c-2.6442261,2.6105957-4.2799692,5.7734375-5.4317026,9.2368164
		c-1.05896,3.1845703-1.5215454,6.4692383-1.5032959,9.8134766c0.0154419,2.890625,0.4498291,5.7504883,0.8168945,8.6108398
		c0.2391357,1.8632812,0.5131836,3.7304649,0.6762695,5.5917931c0.1762085,2.0136719,0.4332886,3.9970703,0.8643188,5.965332
		c0.7927256,3.6181641,2.0722055,7.0629883,3.79004,10.3369141c0.7235107,1.3789062,1.7077026,2.5810547,2.8010254,3.7099609
		C22.8514023,87.4815063,23.5929184,88.0899048,24.3403549,88.6997681z"/>
	<path class="st0" d="M110.0317001,54.0327797c-0.2185669-3.2817383-0.8846436-6.4760742-2.6404419-9.3574219
		c0.7474365,3.1176758,1.4126587,6.2475586,1.6395264,9.4443359c0.2265625,3.1972656-0.107605,6.4013672,0.0944214,9.6108398
		C110.0812607,60.5591469,110.2494125,57.2993813,110.0317001,54.0327797z"/>
	<path class="st0" d="M110.627037,45.4766273c0.9935303,2.9746094,1.5518188,6.0161133,1.7203979,9.1376953
		c0.0288086,0.5307617,0.0519409,1.0629883,0.0457764,1.59375c-0.020752,1.7197266,0.1065063,3.4389648-0.2243042,5.152832
		c-0.2802124,1.4506836-0.5762939,2.8959923-0.8609619,4.3544884c0.0343628-0.0424805,0.0809326-0.0795898,0.1015015-0.128418
		c1.9243164-4.5683556,2.559082-9.2905235,1.8487549-14.2167931c-0.6116943-4.2407227-1.8926392-8.2490234-3.9491577-11.9938965
		c-2.3128052-4.2111816-5.5346069-7.6481934-9.3049927-10.5895996c-0.137207-0.1071777-0.2659912-0.2983398-0.5756226-0.2072754
		c0.3608398,0.2177734,0.5515137,0.5041504,0.758606,0.7749023c1.8231201,2.3847656,3.6403198,4.7736816,5.4694214,7.1542969
		C107.7621078,39.2500648,109.5233994,42.1694984,110.627037,45.4766273z"/>
	<path class="st0" d="M44.7912827,9.1553373c0.1773071-0.0930176,0.355896-0.1828613,0.5338135-0.2744141
		C45.1471786,8.972476,44.9685898,9.0623198,44.7912827,9.1553373z"/>
	<path class="st0" d="M81.569664,43.8364906h-6.6393433v-5.873291c0-1.276123-1.0213013-2.0424805-2.0427856-2.0424805H47.607933
		c-3.3197021,0-6.12854,2.8088379-6.12854,6.128418V76.265686c0,3.3203125,2.809082,6.1289062,6.12854,6.1289062h33.961731
		c1.2764893,0,2.0427246-1.0219727,2.0427246-2.0424805c0-1.5327148-1.0216675-2.5541992-2.0427246-2.5541992H47.607933
		c-1.0214844,0-2.0429688-0.7661133-2.0429688-2.0429688V47.667057c0.5106201,0.2553711,1.2768555,0.2553711,2.0429688,0.2553711
		h33.961731c1.2764893,0,2.0427246-1.0219727,2.0427246-2.0429688
		C83.6123886,44.6026039,82.5907211,43.8364906,81.569664,43.8364906z M70.8449936,43.5811195H47.607933
		c-1.0214844,0-2.0429688-0.7661133-2.0429688-2.0427246c0-0.7658691,1.0214844-1.7875977,2.0429688-1.7875977h23.2370605
		V43.5811195z"/>
	<path class="st0" d="M102.9751205,85.6113892c-1.0755005,1.9453125-2.0404663,3.9746094-3.428772,5.7099609
		c-2.4331055,3.0439453-4.5720215,6.3242188-7.3251343,9.1108398c-1.0167847,1.0283203-2.0912476,1.9770508-3.2788086,2.809082
		c-0.6959229,0.4873047-1.3867798,1.0019531-1.9571533,1.6464844c-0.5358276,0.6049805-0.4738159,0.8549805,0.2780762,1.1743164
		c0.1029053,0.043457,0.2194214,0.081543,0.3289185,0.0800781c1.005188-0.0083008,2.008667,0.0561523,3.0151367-0.0927734
		c1.5547485-0.2314453,3.0161133-0.7553711,4.4520874-1.3486328c1.2174072-0.5043945,2.3039551-1.277832,3.2963867-2.1137695
		c1.0178833-0.8569336,1.8027954-1.9570312,2.3358765-3.2197266c0.5618896-1.3305664,1.0028687-2.7016602,1.4525146-4.0683594
		c0.522522-1.5883789,0.7542114-3.2475586,1.1019897-4.878418c0.3174438-1.4858398,0.5561523-2.9833984,0.6997681-4.4921875
		c0.0410767-0.4282227,0.1630859-0.949707-0.2385254-1.3793945
		C103.3550644,84.8687134,103.1756821,85.2481079,102.9751205,85.6113892z"/>
	<path class="st0" d="M105.1410751,97.5039673c0.0009155-0.0039062,0.0019531-0.0078125,0.0028687-0.0117188
		c0.05896-0.2504883,0.1086426-0.5019531,0.1633911-0.7529297c-0.0547485,0.2509766-0.1044312,0.5029297-0.1634521,0.7529297
		C105.1429672,97.4961548,105.1419907,97.500061,105.1410751,97.5039673z"/>
	<path class="st0" d="M19.7416611,98.7417603c0.2767944-0.2958984,0.3772583-0.5517578,0.3097534-0.7680664
		c0.0186768,0.0600586,0.027771,0.121582,0.0202026,0.1875c-0.0132446,0.1152344-0.0664062,0.2397461-0.1598511,0.3730469
		c-0.0466919,0.0668945-0.1034546,0.1357422-0.1702271,0.2070312c-0.0648804,0.0693359-0.138916,0.1313477-0.2000122,0.2036133
		c-0.1901245,0.2236328-0.368103,0.4516602-0.5397339,0.6816406c0.1715088-0.2299805,0.3496094-0.4580078,0.5396729-0.6816406
		C19.602684,98.8731079,19.6768417,98.8106079,19.7416611,98.7417603z"/>
	<path class="st0" d="M17.319603,103.0894165c-0.0634766,0.269043-0.1177979,0.5410156-0.1530151,0.8198242
		c-0.0778809,0.6166992-0.0845947,1.2587891-0.0108643,1.9296875c0.0609131,0.5537109,0.1863403,1.0771484,0.3670654,1.565918
		c0.1806641,0.4882812,0.416626,0.9414062,0.6984863,1.3540039c0.0002441,0,0.0006714,0.0004883,0.0009155,0.0009766
		c-0.5640869-0.8256836-0.944519-1.8129883-1.0663452-2.9208984C17.04879,104.8648071,17.1157455,103.9526978,17.319603,103.0894165
		z"/>
	<path class="st0" d="M27.689537,110.3208618c0.9869385-0.0722656,1.9702148,0.2451172,2.7264404,0.8803711
		c0.3282471,0.2753906,0.6022949,0.621582,0.8267822,1.0112305
		C30.5010605,110.9248657,29.1048813,110.2168579,27.689537,110.3208618z"/>
	<path class="st0" d="M19.041954,97.3452759c0.1269531,0.043457,0.2541504,0.0864258,0.3799438,0.1318359
		c0.1067505,0.0380859,0.1968994,0.0805664,0.2774658,0.1254883c-0.0806274-0.0449219-0.1705933-0.0874023-0.2773438-0.1259766
		C19.2962265,97.4312134,19.1689682,97.3887329,19.041954,97.3452759z"/>
	<path class="st0" d="M19.7653427,97.6455688c0.0512085,0.0327148,0.0969238,0.0668945,0.1351318,0.1030273
		C19.8622665,97.7124634,19.8164902,97.6782837,19.7653427,97.6455688z"/>
	<path class="st0" d="M82.1927719,119.0845337c0.1337891-0.0302734,0.2670898-0.0493164,0.4009399-0.081543
		c1.2165527-0.296875,2.4029541-0.6572266,3.5615234-1.0766602c1.1586304-0.4199219,2.2893066-0.8984375,3.3947144-1.4316406
		c2.2106934-1.065918,4.3198853-2.3486328,6.3465576-3.8095703c-4.0533447,2.9213867-8.4364014,5.1308594-13.3026123,6.3178711
		C82.4599838,119.0352173,82.326622,119.0542603,82.1927719,119.0845337z"/>
	<path class="st0" d="M31.3524399,112.3838501L31.3524399,112.3838501c0.1114502,0.2202148,0.2149048,0.4443359,0.3208618,0.6674805
		s0.2144775,0.4453125,0.3209839,0.6679688c0.0392456,0.0820312,0.0770264,0.1645508,0.1158447,0.2470703
		c-0.0388184-0.0825195-0.076416-0.1655273-0.1157227-0.2475586
		C31.781517,113.2734985,31.5752792,112.8242798,31.3524399,112.3838501z"/>
	<path class="st0" d="M62.6175766,7.2991366c0.1082764,0.0275879,0.2261963,0.0212402,0.3397217,0.0200195
		c0.6671753-0.0056152,1.3273315,0.0766602,1.9845581,0.1745605c4.1931152,0.6249995,8.3290405,1.5375972,12.4217529,2.6228023
		c2.8477783,0.7548828,5.3478394,2.2602539,7.6347656,4.0939941c1.5935669,1.277832,2.8270264,2.9143076,4.1876221,4.421876
		c0.1812744,0.2006836,0.3352661,0.543457,0.6809082,0.3659668c0.3339844-0.1721191,0.2365723-0.5227051,0.2033081-0.8217773
		c-0.010376-0.0922852-0.0550537-0.1804199-0.0861816-0.270752c-0.7393799-2.1501474-1.7909546-4.0642099-3.5835571-5.5739756
		c-2-1.685791-4.1685791-3.0751953-6.5939941-3.9936523C75.9297714,6.870914,71.8531113,6.4063144,67.73629,6.2449374
		c-0.3994751,0-0.8018799-0.0322266-1.1975098,0.0053711c-1.3198853,0.1257324-2.6660767,0.0512695-3.9440308,0.4978027
		c-0.1270752,0.0444336-0.3494873,0.0373535-0.336792,0.2338867C62.2698593,7.1646152,62.4479599,7.256412,62.6175766,7.2991366z"/>
	<path class="st0" d="M10.1606665,75.2808228c0.2342529-1.9628906,0.3587646-3.9379883,0.3988037-5.9155273
		c0.013855-0.6816406-0.0567627-1.3442383-0.1737061-1.9970703c0.0723877,0.4042969,0.130127,0.8115234,0.1564331,1.2255859
		c0.0161743,0.2548828,0.0224609,0.512207,0.0172119,0.7719727c-0.0401001,1.9770508-0.1647339,3.9521484-0.3989868,5.9150391
		c-0.1317749,1.1030273-0.2088623,2.2021484-0.2340698,3.2978516c-0.0251465,1.0952148,0.0015259,2.1865234,0.0774536,3.2749023
		s0.2010498,2.1738281,0.3726196,3.2558594C9.8618994,81.862854,9.7651587,78.5908813,10.1606665,75.2808228z"/>
	<path class="st0" d="M40.1400375,121.178772c0.2748413-0.0078125,0.553833-0.0263672,0.8388672-0.0615234
		c0.4134521-0.0507812,0.81604-0.1318359,1.2097168-0.2382812c0.1311646-0.0351562,0.2558594-0.0883789,0.3850708-0.1289062
		c-0.5170898,0.1625977-1.0436401,0.2993164-1.5947266,0.3666992
		C40.6939316,121.1519165,40.4148788,121.1709595,40.1400375,121.178772z"/>
	<path class="st0" d="M54.8481064,113.0596313c0.1463623-0.0268555,0.2931519-0.0527344,0.4453125-0.0615234
		C55.1409531,113.0059204,54.9948349,113.0342407,54.8481064,113.0596313z"/>
	<path class="st0" d="M5.5429912,51.9253578c-0.1033325-0.4907227-0.1901245-0.9833984-0.2677612-1.4780273
		C5.3528666,50.9419594,5.4397197,51.4346352,5.5429912,51.9253578z"/>
	<path class="st0" d="M34.0038681,117.6641235c-0.244751-0.3798828-0.4640503-0.7739258-0.6742554-1.1728516
		C33.5398178,116.8901978,33.7590561,117.2842407,34.0038681,117.6641235z"/>
	<path class="st0" d="M18.9362411,109.6089478c-0.0613403-0.0620117-0.1251221-0.121582-0.18396-0.1860352
		C18.8112411,109.4873657,18.8747787,109.5464478,18.9362411,109.6089478z"/>
	<path class="st0" d="M24.7237778,111.2866821c0.0131226-0.003418,0.026123-0.0087891,0.0392456-0.0117188
		c-0.0137329,0.0029297-0.0274048,0.0087891-0.0411377,0.0117188
		C24.722496,111.2866821,24.7231674,111.2866821,24.7237778,111.2866821z"/>
	<path class="st0" d="M34.8959579,118.862854h0.000061c-0.0455322-0.0527344-0.0787354-0.1118164-0.1229248-0.1650391
		C34.8172226,118.7510376,34.8504257,118.8101196,34.8959579,118.862854z"/>
	<path class="st0" d="M35.5239487,119.5083618L35.5239487,119.5083618
		c-0.0187988-0.0170898-0.0359497-0.0385742-0.0546265-0.0561523
		C35.487999,119.4697876,35.5051498,119.491272,35.5239487,119.5083618z"/>
	<path class="st0" d="M20.2984848,110.6543579c-0.0743408-0.0419922-0.1448975-0.0898438-0.2174683-0.1347656
		C20.1537094,110.5645142,20.2240219,110.6123657,20.2984848,110.6543579z"/>
	<path class="st0" d="M23.8532333,111.4194946c-0.0896606,0.0078125-0.1785278,0.0083008-0.2678223,0.012207
		C23.6748886,111.4277954,23.7633896,111.4277954,23.8532333,111.4194946z"/>
	<path class="st0" d="M36.1528549,120.0142212c-0.2140503-0.152832-0.4235229-0.3188477-0.6261597-0.503418
		C35.729332,119.6953735,35.9387436,119.8613892,36.1528549,120.0142212z"/>
	<path class="st0" d="M19.5951767,110.1890259c-0.0767212-0.0581055-0.1520996-0.1181641-0.2261963-0.1801758
		C19.4431992,110.0708618,19.5182114,110.1304321,19.5951767,110.1890259z"/>
	<path class="st0" d="M22.1004868,111.3174438c-0.0837402-0.0170898-0.168457-0.0302734-0.2512207-0.0507812
		C21.9321518,111.2871704,22.0166245,111.300354,22.1004868,111.3174438z"/>
	<path class="st0" d="M22.9826889,111.4307251c-0.0981445-0.0053711-0.1958008-0.0126953-0.2931519-0.0229492
		C22.7870712,111.4180298,22.8843002,111.425354,22.9826889,111.4307251z"/>
	<path class="st0" d="M33.1311264,116.1030884c-0.1530151-0.3041992-0.3033447-0.6098633-0.4483032-0.918457
		C32.8277817,115.4932251,32.9781113,115.7988892,33.1311264,116.1030884z"/>
	<path class="st0" d="M54.6712875,113.0889282c-0.184082,0.0419922-0.3631592,0.1054688-0.5394897,0.1787109
		C54.3078842,113.1929321,54.4875107,113.1333618,54.6712875,113.0889282z"/>
	<path class="st0" d="M62.2682114,115.9595337c1.1803589,0.6884766,2.4055786,1.2827148,3.680603,1.7734375
		c0.203064,0.0776367,0.4156494,0.1362305,0.6212769,0.2089844c-1.5692139-0.5561523-3.0687256-1.2573242-4.4974976-2.1069336
		C62.1387558,115.8745728,62.2017441,115.9204712,62.2682114,115.9595337z"/>
	<path class="st0" d="M69.5256577,118.8184204c-0.5275879-0.1279297-1.0549316-0.2646484-1.5814209-0.4169922
		C68.470787,118.553772,68.9980698,118.6904907,69.5256577,118.8184204z"/>
	<path class="st0" d="M36.8178329,120.4273071c-0.1524048-0.0825195-0.3005981-0.1767578-0.447937-0.2729492
		C36.5172348,120.2505493,36.6653671,120.3447876,36.8178329,120.4273071z"/>
	<path class="st0" d="M73.3272324,119.5132446c-0.532959-0.0634766-1.0651855-0.1450195-1.5969849-0.2368164
		C72.2620468,119.3682251,72.7942123,119.4502563,73.3272324,119.5132446z"/>
	<path class="st0" d="M71.2225571,119.1817017c-0.3978271-0.0751953-0.7954712-0.1577148-1.192688-0.2475586
		C70.4270859,119.0239868,70.8246689,119.1065063,71.2225571,119.1817017z"/>
	<path class="st0" d="M38.2569199,120.9795532c-0.1514282-0.0375977-0.3006592-0.0805664-0.447998-0.1289062
		C37.9562607,120.8989868,38.1055527,120.9419556,38.2569199,120.9795532z"/>
	<path class="st0" d="M54.0920639,113.2832642c-0.1882935,0.0800781-0.37323,0.1816406-0.5542603,0.2993164
		C53.7191391,113.4644165,53.9037704,113.3652954,54.0920639,113.2832642z"/>
	<path class="st0" d="M37.5184555,120.7481079c-0.1472168-0.0566406-0.2913818-0.1220703-0.4343872-0.1904297
		C37.2270126,120.6260376,37.3712387,120.6914673,37.5184555,120.7481079z"/>
	<path class="st0" d="M39.0400009,121.1221313c-0.1625977-0.0195312-0.3239136-0.0429688-0.4823608-0.0742188
		C38.7160263,121.0791626,38.8774033,121.1026001,39.0400009,121.1221313z"/>
	<path class="st0" d="M39.8915024,121.175354c-0.1876221-0.0009766-0.3742676-0.0048828-0.5568848-0.019043
		C39.5172348,121.1704712,39.7038803,121.1743774,39.8915024,121.175354z"/>
	<path class="st0" d="M9.2295752,63.3643227c-0.7773438-2.2944336-1.6497798-4.5576172-2.4089961-6.8574219
		C7.5797343,58.8071938,8.4521093,61.0703773,9.2295752,63.3643227z"/>
	<path class="st0" d="M30.4183578,19.9402504c0.6212769-0.5583496,1.2479248-1.111084,1.8813477-1.6567383
		C31.6662827,18.8291664,31.0396347,19.3819008,30.4183578,19.9402504z"/>
	<path class="st0" d="M75.0161362,119.6602173c-0.5335693-0.0317383-1.0665894-0.074707-1.598938-0.1362305
		C73.9494858,119.5855103,74.4825668,119.628479,75.0161362,119.6602173z"/>
	<path class="st0" d="M10.3584814,67.2085571c-0.0740356-0.3852539-0.1655884-0.7666016-0.2686157-1.1455078
		C10.192832,66.4419556,10.2844458,66.8233032,10.3584814,67.2085571z"/>
	<path class="st0" d="M5.2126689,50.0073891c-0.0517578-0.3696289-0.0950317-0.7407227-0.1303711-1.112793
		C5.1176372,49.2666664,5.16085,49.6377602,5.2126689,50.0073891z"/>
	<path class="st0" d="M10.0354223,65.8657837c-0.1063232-0.3759766-0.2210083-0.7504883-0.3428345-1.1235352
		C9.814414,65.1152954,9.9290991,65.4898071,10.0354223,65.8657837z"/>
	<path class="st0" d="M9.623374,64.5327759c-0.1205444-0.3637695-0.2435913-0.727047-0.366394-1.0903282
		C9.3796606,63.8057289,9.5028906,64.1690063,9.623374,64.5327759z"/>
	<path class="st0" d="M17.3805771,102.8574829c0.0532227-0.1982422,0.1134644-0.394043,0.1812744-0.5874023
		C17.4941025,102.4634399,17.4337387,102.6592407,17.3805771,102.8574829z"/>
	<path class="st0" d="M6.3715434,41.2046547c0.1218262-0.2219238,0.2515259-0.440918,0.3891602-0.6567383
		C6.6230693,40.7637367,6.4933696,40.9827309,6.3715434,41.2046547z"/>
	<path class="st0" d="M5.1685405,44.5713539c-0.0274658,0.1499023-0.0390625,0.3061523-0.060791,0.4584961
		c0.1037598-0.7270508,0.2730103-1.4272461,0.5062256-2.1025391C5.4295268,43.4610023,5.2720561,44.0049477,5.1685405,44.5713539z"
		/>
	<path class="st0" d="M4.9712749,46.9243813c0,0,0,0,0,0.0004883c-0.0005493-0.0703125,0.0071411-0.137207,0.0076294-0.206543
		C4.978416,46.7876625,4.9707255,46.854557,4.9712749,46.9243813z"/>
	<path class="st0" d="M5.0413432,48.4463539c-0.038269-0.5043945-0.0657959-1.0107422-0.0700073-1.5205078
		C4.9755473,47.4356117,5.0030131,47.9419594,5.0413432,48.4463539z"/>
	<path class="st0" d="M5.7991557,42.3921547c0.1265259-0.3134766,0.2722168-0.6188965,0.4275513-0.9208984
		C6.0713725,41.7732582,5.9256816,42.0791664,5.7991557,42.3921547z"/>
	<path class="st0" d="M15.2763891,95.2402954c-0.24646-0.1992188-0.4832764-0.4057617-0.7104492-0.6201172
		C14.7931128,94.8345337,15.0299292,95.0410767,15.2763891,95.2402954z"/>
	<path class="st0" d="M14.3040991,94.3706665c-0.5864258-0.5878906-1.1043701-1.2319336-1.5541992-1.9306641
		C13.199729,93.1392212,13.7177343,93.7827759,14.3040991,94.3706665z"/>
	<path class="st0" d="M18.5021591,100.3540649c0.1132202-0.1782227,0.2321167-0.3549805,0.3568726-0.5292969
		C18.7342758,99.9990845,18.6153793,100.1758423,18.5021591,100.3540649z"/>
	<path class="st0" d="M17.640892,102.0474243c0.196167-0.5126953,0.4420166-1.0078125,0.7317505-1.487793
		C18.0828476,101.0396118,17.837059,101.534729,17.640892,102.0474243z"/>
	<path class="st0" d="M20.0266342,97.9204712c-0.0187378-0.0405273-0.0427246-0.0795898-0.0744019-0.1171875
		C19.9838486,97.8408813,20.0078964,97.8799438,20.0266342,97.9204712z"/>
	<path class="st0" d="M11.4495459,89.7769165c0.000061,0,0.000061,0,0.0001221,0
		c-0.1459961-0.4145508-0.2693481-0.8476562-0.3812866-1.2900391
		C11.1801977,88.9292603,11.3036108,89.3618774,11.4495459,89.7769165z"/>
	<path class="st0" d="M11.0274267,88.3482056c0.000061,0,0.000061,0,0.0001221,0
		c-0.2512207-1.0341797-0.4596558-2.0703125-0.6278687-3.109375C10.567893,86.2774048,10.7762671,87.3140259,11.0274267,88.3482056z
		"/>
	<path class="st0" d="M11.9427099,90.9717407c-0.1793213-0.3857422-0.347229-0.7807617-0.4926758-1.1938477
		C11.5954809,90.190979,11.7633886,90.5859985,11.9427099,90.9717407z"/>
	<path class="st0" d="M12.5587988,92.125061c-0.1594238-0.2651367-0.3094482-0.5380859-0.4501343-0.8183594
		C12.2493505,91.5869751,12.399436,91.8599243,12.5587988,92.125061z"/>
	<path class="st2" d="M113.845726,52.77985c-0.0137939-0.1650391-0.0286255-0.3300781-0.0449829-0.4946289
		c-0.1328125-1.3378906-0.347168-2.6669922-0.626709-3.9882812c-0.0349731-0.1650391-0.0707397-0.3305664-0.107666-0.4956055
		c-0.1456299-0.6513672-0.300415-1.3017578-0.4732666-1.9501953c-0.0005493-0.0024414-0.0010986-0.0043945-0.0016479-0.0063477
		c-0.1537476-0.5766602-0.3262939-1.1430664-0.5158691-1.7006836c-0.2132568-0.6264648-0.4541016-1.2387695-0.7103882-1.8417969
		c-0.081665-0.1923828-0.1714478-0.3803711-0.2573242-0.5703125c-0.1895752-0.4194336-0.3869629-0.8344727-0.5964966-1.2426758
		c-0.1046753-0.2041016-0.2115479-0.4069824-0.3210449-0.6083984c-0.220459-0.4055176-0.4519043-0.8046875-0.6913452-1.199707
		c-0.1051025-0.173584-0.2064819-0.3491211-0.3151855-0.520752c-0.9678345-1.5273438-2.0693359-2.9802246-3.2897339-4.364502
		c-0.0897827-0.1018066-0.1860352-0.1967773-0.2765503-0.2978516c-2.3365479-2.6069336-4.9188232-4.9621582-7.5227661-7.2988281
		c-0.4215698-0.378418-0.8234253-0.7714844-1.2160034-1.171875c-0.0970459-0.098877-0.1931152-0.1984863-0.2883301-0.2988281
		c-0.4828491-0.5087891-0.9411011-1.0361328-1.3740234-1.5820312c-0.2520142-0.3181152-0.4953613-0.6425781-0.7293701-0.9741211
		c-0.8892822-1.2592773-1.6517944-2.612793-2.2532959-4.0844727c-0.1430054-0.3500977-0.2955322-0.6958008-0.4512939-1.0402832
		c-0.5794678-1.2807627-1.2504272-2.5190439-2.0701294-3.6755381c-0.8641357-1.2185059-1.8777466-2.2421875-2.9893188-3.1379395
		C85.2002792,9.0073881,83.48806,8.0283842,81.6728134,7.185123c-1.2616577-0.5859375-2.543396-1.0759277-3.8411255-1.4885254
		c-0.1928711-0.0612793-0.3876343-0.1130371-0.5811768-0.1708984c-0.4401245-0.1313477-0.8809204-0.2592773-1.324646-0.3730469
		c-0.2342529-0.0603027-0.4698486-0.1132812-0.7050781-0.1687012c-0.4082642-0.0961914-0.8173828-0.1884766-1.2284546-0.2712402
		c-0.2481079-0.0498047-0.4969482-0.0961914-0.7460327-0.1413574c-0.4060669-0.0734863-0.8132935-0.1413574-1.2218018-0.203125
		c-0.2481079-0.0371094-0.4962769-0.0742188-0.7452393-0.1074219c-0.4227905-0.0561523-0.8470459-0.1049805-1.2722168-0.1496582
		c-0.2324219-0.0244141-0.4645386-0.0510254-0.6976318-0.0720215c-0.4703979-0.0427248-0.942688-0.075928-1.4156494-0.1059573
		c-0.1895142-0.0117188-0.3782349-0.027832-0.5681152-0.0380859c-0.6640625-0.0351562-1.3300171-0.0605469-1.9983521-0.0739746
		c-1.5213623-0.0266113-3.031189,0.0598145-4.5314941,0.225342c-0.2105103,0.0229492-0.4204102,0.0512695-0.6305542,0.0776367
		c-0.5252075,0.0664062-1.0493164,0.1418457-1.5720825,0.2272949c-0.2070923,0.0339355-0.4143677,0.0661621-0.6210327,0.1027832
		c-0.6984253,0.1240234-1.3953857,0.2585449-2.0894775,0.4121094c-0.0006104,0-0.0012207,0-0.0018311,0.0002441
		c-0.7658691,0.1691895-1.5177612,0.3740234-2.2637329,0.5939941c-0.1854248,0.0544434-0.3703613,0.1103516-0.5546265,0.1677246
		c-0.732605,0.2287598-1.4596558,0.4711914-2.1756592,0.7414551c-0.0020752,0.0007324-0.0041504,0.0014648-0.0062256,0.0024414
		c-0.6182251,0.2333984-1.2293701,0.4848633-1.836853,0.7451172c-0.1958618,0.0839844-0.3899536,0.1726074-0.5848389,0.2590332
		c-0.4187012,0.185791-0.8357544,0.3757324-1.2501831,0.5720215c-0.2123413,0.1008296-0.4244385,0.2026362-0.6357422,0.3059077
		c-0.4179077,0.2043457-0.8336792,0.4133301-1.2478638,0.626709c-0.1779175,0.0915527-0.3565063,0.1813965-0.5338135,0.2744141
		c-0.5841675,0.3066406-1.1660767,0.6188965-1.7445679,0.939209c-0.7807007,0.432373-1.5281372,0.9101562-2.2608643,1.407959
		c-1.8275757,1.2416992-3.5367432,2.6450195-5.2453613,4.0515137c-0.8466187,0.6967783-1.6868896,1.4008799-2.5219727,2.1105967
		c-0.2409668,0.204834-0.479248,0.4125977-0.718811,0.6188965c-0.6334229,0.5456543-1.2600708,1.0983887-1.8813477,1.6567383
		c-0.2485962,0.2233887-0.4978638,0.4462891-0.7441406,0.6721191c-1.7388916,1.5952148-3.4210815,3.25-4.9979858,5.0126953
		c-2.4799194,2.7709961-5.2957153,5.0380859-8.5505981,6.8212891c-2.9180918,1.5991211-5.4761362,3.684082-7.7843027,6.0917969
		c-0.5371699,0.5600586-1.006042,1.1455078-1.41571,1.7531738c-0.0570679,0.0847168-0.1102905,0.1708984-0.164917,0.2565918
		c-0.1376343,0.2158203-0.267334,0.4348145-0.3891602,0.6567383c-0.048645,0.0888672-0.0986938,0.177002-0.1448364,0.2666016
		c-0.1553345,0.302002-0.3010254,0.6074219-0.4275513,0.9208984c-0.0707397,0.1748047-0.1235352,0.3569336-0.1851807,0.5351562
		c-0.2332153,0.675293-0.4024658,1.3754883-0.5062256,2.1025391c-0.0782471,0.5483398-0.1246948,1.109375-0.1288452,1.6884766
		c-0.0004883,0.0693359-0.0081787,0.1362305-0.0076294,0.206543l0,0c0,0.0004883,0.000061,0.0004883,0.000061,0.0009766
		c0.0042114,0.5097656,0.0317383,1.0161133,0.0700073,1.5205078c0.0114136,0.1499023,0.0267944,0.2988281,0.0409546,0.4482422
		c0.0353394,0.3720703,0.0786133,0.7431641,0.1303711,1.112793c0.0205688,0.1469727,0.0395508,0.2939453,0.062561,0.4399414
		c0.0776367,0.4946289,0.1644287,0.9873047,0.2677612,1.4780273c0.1155396,0.5483398,0.2460938,1.0942383,0.3894043,1.6381836
		c0.2614746,0.9926758,0.5670166,1.9707031,0.8881836,2.9433594c0.7592163,2.2998047,1.6316524,4.5629883,2.4089961,6.8574219
		c0.0088501,0.0263672,0.0185547,0.0517578,0.0273438,0.078125h0.000061
		c0.1228027,0.3632812,0.2458496,0.7265587,0.366394,1.0903282c0.0231323,0.0698242,0.0464478,0.1396484,0.0692139,0.2094727
		c0.1218262,0.3730469,0.2365112,0.7475586,0.3428345,1.1235352c0.0185547,0.065918,0.0365601,0.1313477,0.0544434,0.1972656
		c0.1030273,0.3789062,0.1945801,0.7602539,0.2686157,1.1455078c0.0101929,0.0527344,0.0177612,0.1064453,0.0272827,0.159668
		c0.1169434,0.652832,0.187561,1.3154297,0.1737061,1.9970703c-0.0400391,1.9775391-0.1645508,3.9526367-0.3988037,5.9155273
		c-0.3955078,3.3100586-0.2987671,6.5820312,0.2157593,9.8286133c0.0068359,0.0429688,0.0162354,0.0864258,0.0232544,0.1293945
		c0.1682129,1.0390625,0.3766479,2.0751953,0.6278687,3.109375v0.0004883
		c0.0115967,0.0473633,0.0288696,0.0908203,0.0408325,0.1381836c0.1119385,0.4423828,0.2352905,0.8754883,0.3812866,1.2900391
		c0.000061,0.0004883,0.0003052,0.0004883,0.0003662,0.0009766c0.1454468,0.4130859,0.3133545,0.8081055,0.4926758,1.1938477
		c0.0528564,0.1137695,0.1101685,0.2236328,0.1659546,0.3349609c0.140686,0.2802734,0.2907104,0.5532227,0.4501343,0.8183594
		c0.0632324,0.1054688,0.1248779,0.2119141,0.1911011,0.3149414c0.4498291,0.6987305,0.9677734,1.3427734,1.5541992,1.9306641
		c0.0848389,0.0854492,0.1741333,0.1665039,0.2618408,0.2495117c0.2271729,0.2143555,0.4639893,0.4208984,0.7104492,0.6201172
		c0.0943604,0.0761719,0.1871338,0.1533203,0.2843628,0.2275391c0.7150278,0.543457,1.5010386,1.0292969,2.3693857,1.4492188
		c0.1661987,0.0805664,0.3410034,0.1435547,0.5145264,0.2084961c0.1984253,0.074707,0.3959351,0.1513672,0.59729,0.2197266
		c0.1270142,0.043457,0.2542725,0.0859375,0.3800659,0.1313477c0.1067505,0.0385742,0.1967163,0.0810547,0.2773438,0.1259766
		c0.0244141,0.0136719,0.0439453,0.0288086,0.065979,0.0429688c0.0511475,0.0327148,0.0969238,0.0668945,0.1351318,0.1030273
		c0.0187988,0.0180664,0.0360718,0.0361328,0.0517578,0.0546875c0.0316772,0.0375977,0.0556641,0.0766602,0.0744019,0.1171875
		c0.0082397,0.0180664,0.019043,0.0351562,0.0247803,0.0532227c0.0675049,0.2163086-0.032959,0.472168-0.3097534,0.7680664
		c-0.0648193,0.0688477-0.1389771,0.1313477-0.2001953,0.203125c-0.1900635,0.2236328-0.3681641,0.4516602-0.5396729,0.6816406
		c-0.0490112,0.0654297-0.0953369,0.1323242-0.1427612,0.1982422c-0.1247559,0.1743164-0.2436523,0.3510742-0.3568726,0.5292969
		c-0.043457,0.0683594-0.0878296,0.1367188-0.1295166,0.2055664c-0.2897339,0.4799805-0.5355835,0.9750977-0.7317505,1.487793
		c-0.0281372,0.0737305-0.0529785,0.1484375-0.0790405,0.2226562c-0.0678101,0.1933594-0.1280518,0.3891602-0.1812744,0.5874023
		c-0.0206909,0.0771484-0.0425415,0.1538086-0.0609741,0.2319336c-0.2038574,0.8632812-0.270813,1.7753906-0.1637573,2.7495117
		c0.1218262,1.1079102,0.5022583,2.0952148,1.0663452,2.9208984c0.1610718,0.2358398,0.3407593,0.4545898,0.5300903,0.6630859
		c0.0588379,0.0644531,0.1226196,0.1240234,0.18396,0.1860352c0.1387939,0.1401367,0.2819824,0.2744141,0.4327393,0.3999023
		c0.0740967,0.0620117,0.1494751,0.1220703,0.2261963,0.1801758c0.1566772,0.1186523,0.3189697,0.2280273,0.4858398,0.3305664
		c0.0725708,0.0449219,0.1431274,0.0927734,0.2174683,0.1347656c0.4854126,0.2724609,1.0062866,0.4790039,1.5507812,0.6123047
		c0.0827637,0.0205078,0.1674805,0.0336914,0.2512207,0.0507812c0.194397,0.0390625,0.3901978,0.0703125,0.5890503,0.090332
		c0.0973511,0.0102539,0.1950073,0.0175781,0.2931519,0.0229492c0.199646,0.0107422,0.4004517,0.0097656,0.6027222,0.0009766
		c0.0892944-0.0039062,0.1781616-0.0043945,0.2678223-0.012207c0.2888184-0.0249023,0.5786133-0.0654297,0.8686523-0.1328125
		c0.0137329-0.0029297,0.0274048-0.0087891,0.0411377-0.0117188c0.4942627-0.1186523,0.9875488-0.296875,1.4711914-0.5449219
		c0.4674072-0.2397461,0.961853-0.3730469,1.4553223-0.4091797c1.4153442-0.1040039,2.8115234,0.6040039,3.5532227,1.8916016
		c0.0341797,0.0595703,0.0784302,0.109375,0.1096802,0.1713867l0,0c0.2228394,0.4404297,0.4290771,0.8896484,0.6419678,1.3349609
		c0.0393066,0.0820312,0.0769043,0.1650391,0.1157227,0.2475586c0.1915894,0.4057617,0.381958,0.8120117,0.5726929,1.2182617
		c0.1449585,0.3085938,0.2952881,0.6142578,0.4483032,0.918457c0.0653076,0.1298828,0.1307373,0.2597656,0.1984863,0.3881836
		c0.2102051,0.3989258,0.4295044,0.7929688,0.6742554,1.1728516c0.2310791,0.3583984,0.4926758,0.7001953,0.7692261,1.0336914
		c0.0441895,0.0532227,0.0773926,0.1123047,0.1229248,0.1650391c0.000061,0,0.0001221,0,0.0001831,0
		c0.1849365,0.2133789,0.3770752,0.4067383,0.5731201,0.5893555c0.0186768,0.0175781,0.0358276,0.0390625,0.0546265,0.0561523
		c0.0008545,0.0009766,0.0018921,0.0014648,0.0027466,0.0024414c0.2026367,0.1845703,0.4121094,0.3505859,0.6261597,0.503418
		c0.0709229,0.0507812,0.1448975,0.0927734,0.217041,0.1401367c0.1473389,0.0961914,0.2955322,0.1904297,0.447937,0.2729492
		c0.0874023,0.0473633,0.1771851,0.0878906,0.2662354,0.1303711c0.1430054,0.0683594,0.2871704,0.1337891,0.4343872,0.1904297
		c0.0957642,0.0371094,0.1929321,0.0703125,0.2904663,0.1025391c0.1473389,0.0483398,0.2965698,0.0913086,0.447998,0.1289062
		c0.0995483,0.0249023,0.1994019,0.0488281,0.3007202,0.0683594c0.1584473,0.03125,0.3197632,0.0546875,0.4823608,0.0742188
		c0.0979614,0.012207,0.1951294,0.0263672,0.2946167,0.0341797c0.1826172,0.0141602,0.3692627,0.0180664,0.5568848,0.019043
		c0.0831299,0,0.1644897,0.0053711,0.2485352,0.003418c0.2748413-0.0078125,0.553894-0.0268555,0.8389282-0.0620117
		c0.5510864-0.0673828,1.0776367-0.2041016,1.5947266-0.3666992c1.0345459-0.3251953,2.0152588-0.7978516,2.9668579-1.3388672
		c2.7739258-1.5776367,5.1881714-3.6513672,7.6765137-5.6201172c0.1047974-0.0825195,0.2138672-0.1391602,0.3207397-0.2084961
		c0.1810303-0.1176758,0.3659668-0.2192383,0.5542603-0.2993164c0.0131836-0.0058594,0.0265503-0.0102539,0.0397339-0.015625
		c0.1763306-0.0732422,0.3554077-0.1367188,0.5394897-0.1787109c0.0579224-0.0126953,0.118042-0.019043,0.1768188-0.0292969
		c0.1467285-0.0253906,0.2928467-0.0537109,0.4453125-0.0615234c0.2230225-0.0107422,0.4505615-0.0073242,0.6873779,0.019043
		c1.6932983,0.1884766,3.1713867,0.8930664,4.5498047,1.8398438c0.5044556,0.3461914,1.0205078,0.6679688,1.5419922,0.9780273
		c1.428772,0.8496094,2.9282837,1.5507812,4.4974976,2.1069336c0.4398804,0.1557617,0.8773804,0.3168945,1.3292236,0.4477539
		c0.0149536,0.0043945,0.0299683,0.0078125,0.0449219,0.0117188c0.5264893,0.1523438,1.053833,0.2890625,1.5814209,0.4169922
		c0.1680298,0.0410156,0.3361206,0.0776367,0.5042114,0.1157227c0.3972168,0.0898438,0.7948608,0.1723633,1.192688,0.2475586
		c0.1692505,0.0322266,0.3383179,0.0654297,0.5076904,0.0947266c0.5317993,0.0917969,1.0640259,0.1733398,1.5969849,0.2368164
		c0.0299683,0.0039062,0.0599976,0.0073242,0.0899658,0.0107422c0.5323486,0.0615234,1.0653687,0.1044922,1.598938,0.1362305
		c0.166748,0.0097656,0.3336792,0.0151367,0.5005493,0.0219727c0.4039917,0.0166016,0.8084717,0.0239258,1.2131958,0.0224609
		c0.1668701-0.0009766,0.3336792,0,0.5006104-0.0039062c0.5525513-0.0131836,1.1054688-0.0375977,1.6593628-0.0864258
		c1.0980835-0.097168,2.1993408-0.2797852,3.3029175-0.5297852c0.1338501-0.0302734,0.2672119-0.0493164,0.401123-0.081543
		c4.8662109-1.1870117,9.2492676-3.3964844,13.3026123-6.3178711c2.5228882-1.8188477,4.5976562-4.0092773,6.1513672-6.7128906
		c0.2565308-0.4462891,0.4887695-0.9013672,0.7108765-1.3598633c0.0533447-0.1098633,0.105896-0.2202148,0.1574097-0.3310547
		c0.3959961-0.8515625,0.7423706-1.7207031,1.0460205-2.6044922c0.0421753-0.1230469,0.0814209-0.246582,0.1221313-0.3701172
		c0.0966187-0.2924805,0.1903687-0.5864258,0.2793579-0.8818359c0.0419922-0.1391602,0.083313-0.2788086,0.1237793-0.418457
		c0.0855103-0.2958984,0.1678467-0.5927734,0.2472534-0.8911133c0.0333252-0.125,0.0679321-0.2495117,0.1002808-0.375
		c0.1060791-0.4106445,0.2085571-0.8222656,0.3060913-1.2363281c0.0009155-0.0039062,0.0018921-0.0078125,0.0028076-0.0117188
		c0.059021-0.25,0.1087036-0.5019531,0.1634521-0.7529297c0.887146-4.0664062,1.239502-8.2070312,1.5455322-12.3491211
		c0.2740479-3.7114258,0.888916-7.359375,1.9754028-10.9150391c0.8671265-2.8364258,2.1141357-5.5332031,3.2226562-8.2792969
		c0.9537354-2.3623009,1.5306396-4.7998009,1.7801514-7.3373985C113.9994736,56.1475258,113.9858017,54.4566078,113.845726,52.77985
		z M62.5947495,6.7481112c1.2779541-0.4465332,2.6241455-0.3720703,3.9440308-0.4978027
		c0.3956299-0.0375977,0.7980347-0.0053711,1.1975098-0.0053711c4.1168213,0.161377,8.1934814,0.6259766,12.0701904,2.0932612
		c2.425415,0.918457,4.5939941,2.3078613,6.5939941,3.9936523c1.7926025,1.5097656,2.8441772,3.4238281,3.5835571,5.5739756
		c0.0311279,0.090332,0.0758057,0.1784668,0.0861816,0.270752c0.0332642,0.2990723,0.1306763,0.6496582-0.2033081,0.8217773
		c-0.3456421,0.1774902-0.4996338-0.1652832-0.6809082-0.3659668c-1.3605957-1.5075684-2.5940552-3.1440439-4.1876221-4.421876
		c-2.2869263-1.8337402-4.7869873-3.3391113-7.6347656-4.0939941c-4.0927124-1.0852051-8.2286377-1.9978027-12.4217529-2.6228023
		c-0.6572266-0.0979004-1.3173828-0.1801758-1.9845581-0.1745605c-0.1135254,0.0012207-0.2314453,0.0075684-0.3397217-0.0200195
		c-0.1696167-0.0427246-0.3477173-0.1345215-0.3596191-0.3171387C62.2452621,6.7854648,62.4676743,6.7925448,62.5947495,6.7481112z
		 M19.3707504,83.0698853c-1.7178345-3.2739258-2.9973145-6.71875-3.79004-10.3369141
		c-0.4310303-1.9682617-0.6881104-3.9516602-0.8643188-5.965332c-0.1630859-1.8613281-0.4371338-3.7285118-0.6762695-5.5917931
		c-0.3670654-2.8603516-0.8014526-5.7202148-0.8168945-8.6108398c-0.0182495-3.3442383,0.4443359-6.6289062,1.5032959-9.8134766
		c1.1517334-3.4633789,2.7874765-6.6262207,5.4317026-9.2368164c2.2713013-2.2424316,4.4210205-4.6091309,6.6135254-6.9299316
		c0.4413452-0.4675293,1.00177-0.6315918,1.6824951-0.842041c-0.2749023,0.6787109-0.571228,1.1809082-0.9298096,1.6533203
		c-1.1030273,1.4541016-2.3504639,2.786377-3.5178833,4.185791c-1.8778076,2.251709-3.5594482,4.6335449-4.8873901,7.2600098
		c-1.3305054,2.6308594-2.5485229,5.3051758-3.3463755,8.1523438c-0.4367065,1.5585938-0.6480713,3.1586914-0.8259888,4.7626953
		c-0.182373,1.6445312-0.2098999,3.2890625-0.1012573,4.9448242c0.140686,2.1396484,0.5316162,4.2353516,0.8495483,6.3486328
		c0.3274546,2.1738243,0.8755503,4.3110313,1.0142832,6.5214806c0.1762085,2.8144531,0.8831787,5.5419922,1.6231689,8.2553711
		c0.1829834,0.6713867,0.5953979,1.2280273,0.9118042,1.8310547c1.1335449,2.1572266,2.3812256,4.230957,4.1077271,5.9951172
		c0.8060913,0.8237305,1.4597168,1.7958984,2.1755981,2.706543c0.0919189,0.1166992,0.1528931,0.2602539,0.2113647,0.3999023
		c0.0584717,0.1401367,0.1168823,0.2958984-0.0273438,0.4204102c-0.1276855,0.1103516-0.2905884,0.1137695-0.4296875,0.0444336
		c-0.3215332-0.1616211-0.6674194-0.3007812-0.9416504-0.5249023c-0.7474365-0.6098633-1.4889526-1.2182617-2.1685791-1.9199219
		C21.0784531,85.6509399,20.0942612,84.4487915,19.3707504,83.0698853z M35.949852,99.2246704
		c-1.4575806,0.159668-2.8746948,0.5375977-4.3163452,0.7783203c-1.5463257,0.2587891-2.4133911-0.4521484-2.5709839-2.0170898
		c-0.0563354-0.5634766-0.2177124-1.1137695-0.0076294-1.6850586c0.3685303-1.0019531,1.0324707-1.2128906,1.7854004-0.4707031
		c0.8501587,0.8383789,1.8051758,1.5009766,2.8651733,2.0356445c0.4663696,0.2348633,0.9569092,0.3671875,1.4605713,0.4604492
		c0.5150757,0.0952148,0.9628296,0.3188477,1.4227905,0.6425781C36.3675156,99.1709595,36.1487656,99.203186,35.949852,99.2246704z
		 M65.2379379,107.0288696c-1.2093506,0.8325195-2.5877075,1.0249023-4.137207,1.0644531
		c-1.1182861-0.1206055-2.3632202-0.2514648-3.6070557-0.390625c-0.2459106-0.027832-0.4856567-0.0649414-0.7362061-0.027832
		c-1.3894043,0.2094727-2.7734985,0.4458008-4.12854,0.824707c-0.4993896,0.1396484-1.0111084,0.1845703-1.5215454,0.2124023
		c-1.1360474,0.0620117-2.2740479,0.1103516-3.4119873,0.1274414c-1.6445923,0.0249023-2.8321533-0.8398438-3.770813-2.0825195
		c-0.4091797-0.5415039-0.7182007-1.1630859-1.039917-1.7646484c-0.2270508-0.425293-0.3051758-0.8964844-0.2541504-1.3823242
		c0.0423584-0.4033203,0.2562866-0.5288086,0.6292725-0.3945312c0.1425171,0.0512695,0.288208,0.1044922,0.4174194,0.1816406
		c1.9177856,1.1518555,4.0918579,1.605957,6.2329102,1.8295898c2.7145996,0.2832031,5.4213257,0.7177734,8.1606445,0.7939453
		c1.4025269,0.0385742,2.800354,0.2524414,4.2028809,0.284668c0.9281006,0.0209961,1.8526001,0.0473633,2.7761841,0.1328125
		c0.1965942,0.0180664,0.4732056-0.0751953,0.5360718,0.1879883
		C65.6364975,106.8374634,65.3904037,106.9238892,65.2379379,107.0288696z M68.0840073,101.0542603
		c-0.9164429-0.0117188-1.8366699,0.0317383-2.7156372,0.2036133c-1.6032715,0.3120117-3.1809082,0.0756836-4.7694092,0.0131836
		c-1.1004639-0.0439453-2.1932983-0.2211914-3.2993164-0.1748047c-0.2064819,0.0087891-0.4212646-0.0131836-0.6216431-0.0629883
		c-1.6733398-0.4169922-3.3808594-0.6640625-5.0618896-1.0581055c-1.932373-0.4526367-3.7775879-1.1259766-5.6112671-1.8354492
		c-1.4804688-0.5737305-2.9092407-1.2836914-4.3460693-1.9643555c-0.881897-0.418457-1.5587769-1.1420898-2.350708-1.6992188
		c-2.3164062-1.6303711-4.5144043-3.4038086-6.4836426-5.4643555c-1.671936-1.7485352-3.1212158-3.659668-4.5934448-5.5693359
		c-1.690918-2.1943359-2.8825073-4.6152344-3.8601685-7.1787109c-0.4460449-1.1694336-0.9020386-2.3291016-1.185791-3.5498047
		c-0.2404175-1.034668-0.6271362-2.0605469-0.6853638-3.1044922c-0.0567627-1.0161133,0.0899658-2.0541992,0.0192261-3.0917969
		c0.867981,3.2490234,1.8095703,6.4536133,3.2086792,9.4990234c2.8059082,6.1074219,6.6169434,11.484375,11.7995605,15.8139648
		c5.2359619,4.3735352,11.2645264,7.0512695,17.9730835,8.2446289c3.4029541,0.6049805,6.8289185,0.8535156,10.2735596,0.6635742
		c4.3432617-0.2402344,8.5307007-1.1879883,12.4984131-3.0205078c0.6226807-0.2875977,1.2379761-0.6269531,2.0358276-0.6772461
		c-0.1694336,0.2749023-0.3795776,0.362793-0.5670166,0.46875c-2.8187866,1.5908203-5.8198853,2.7021484-8.9942627,3.3188477
		C69.8762436,100.9976196,68.9716415,101.065979,68.0840073,101.0542603z M80.0373154,60.1787758
		c-1.9743652,0-3.574707-1.6000977-3.574707-3.574707c0-1.9741211,1.6003418-3.574707,3.574707-3.574707
		s3.5750732,1.6005859,3.5750732,3.574707C83.6123886,58.5786781,82.0116806,60.1787758,80.0373154,60.1787758z
		 M83.6123886,68.8613892c0,1.9741211-1.600708,3.5742188-3.5750732,3.5742188s-3.574707-1.6000977-3.574707-3.5742188
		c0-1.9746094,1.6003418-3.5756836,3.574707-3.5756836S83.6123886,66.8867798,83.6123886,68.8613892z M81.569664,47.9224281
		H47.607933c-0.7661133,0-1.5323486,0-2.0429688-0.2553711v28.0878868c0,1.2768555,1.0214844,2.0429688,2.0429688,2.0429688
		h33.961731c1.0210571,0,2.0427246,1.0214844,2.0427246,2.5541992c0,1.0205078-0.7662354,2.0424805-2.0427246,2.0424805H47.607933
		c-3.319458,0-6.12854-2.8085938-6.12854-6.1289062V42.0491371c0-3.3195801,2.8088379-6.128418,6.12854-6.128418h25.2796021
		c1.0214844,0,2.0427856,0.7663574,2.0427856,2.0424805v5.873291h6.6393433c1.0210571,0,2.0427246,0.7661133,2.0427246,2.0429688
		C83.6123886,46.9004555,82.8461533,47.9224281,81.569664,47.9224281z M103.9460068,85.9282837
		c-0.1436157,1.5087891-0.3823242,3.0063477-0.6997681,4.4921875c-0.3477783,1.6308594-0.5794678,3.2900391-1.1019897,4.878418
		c-0.449646,1.3666992-0.890625,2.737793-1.4525146,4.0683594c-0.5330811,1.2626953-1.3179932,2.362793-2.3358765,3.2197266
		c-0.9924316,0.8359375-2.0789795,1.609375-3.2963867,2.1137695c-1.4359741,0.5932617-2.8973389,1.1171875-4.4520874,1.3486328
		c-1.0064697,0.1489258-2.0099487,0.0844727-3.0151367,0.0927734c-0.1094971,0.0014648-0.2260132-0.0366211-0.3289185-0.0800781
		c-0.7518921-0.3193359-0.8139038-0.5693359-0.2780762-1.1743164c0.5703735-0.6445312,1.2612305-1.1591797,1.9571533-1.6464844
		c1.187561-0.8320312,2.2620239-1.7807617,3.2788086-2.809082c2.7531128-2.7866211,4.8920288-6.0668945,7.3251343-9.1108398
		c1.3883057-1.7353516,2.3532715-3.7646484,3.428772-5.7099609c0.2005615-0.3632812,0.3799438-0.7426758,0.7323608-1.0625
		C104.1090927,84.9785767,103.9870834,85.500061,103.9460068,85.9282837z M104.0069809,58.3838539
		c-0.0991211,1.6157227-0.3380127,3.2231445-0.517395,4.8349609l-0.1675415,0.0009766
		c0-1.2319336,0.0239258-2.4638672-0.0042725-3.6958008c-0.1039429-4.5795898-1.0335083-9.0102539-2.4845581-13.3388672
		c-0.6630859-1.9780273-1.3675537-3.9438477-2.2062378-5.8547363c-0.961792-2.192627-2.0161133-4.3393555-3.524292-6.223877
		c-0.3710327-0.4638672-0.9712524-0.4680176-1.4804077-0.6020508c-0.2643433-0.0688477-0.4363403-0.1794434-0.6051025-0.3481445
		c-2.0298462-2.0322266-4.0997314-4.015625-6.4121094-5.7363281c-3.1171875-2.3193359-6.5050659-4.1179199-10.1212769-5.5302734
		c-1.4906006-0.5827637-2.9841919-1.1606445-4.5370483-1.5c-3.4509888-0.7548828-6.9227295-1.4038086-10.4931641-1.1320801
		c-1.1720581,0.0888672-2.3534546,0.046875-3.5280762,0.1140137c-1.2728882,0.0722656-2.4996338,0.4521484-3.7589111,0.6298828
		c-2.3208618,0.3269043-4.5152588,1.1328125-6.7355347,1.8369141c-0.1808472,0.0576172-0.3604736,0.1335449-0.5464478,0.1567383
		c-0.1727905,0.0214844-0.493042,0.1325684-0.1732178-0.2680664c0.1482544-0.1855469-0.1112061-0.4914551-0.2323608-0.7145996
		l-0.4966431-0.2275391c6.5228882-3.0959473,13.3668213-4.2290039,20.5322266-3.3049316
		c1.4868164,0.1923828,2.9533081,0.5380859,4.388855,0.9812012c2.3394775,0.7229004,4.6700439,1.4604492,6.9642334,2.3330078
		c2.2759399,0.8649902,4.5247803,1.746582,6.631897,2.9782715c2.6942749,1.5754395,5.1135864,3.5146484,7.3215332,5.692627
		c3.0269775,2.9855957,5.7473145,6.2355957,7.7123413,10.0412598c1.1252441,2.1789551,1.9470215,4.4829102,2.7008057,6.8178711
		c0.9043579,2.8012695,1.5325317,5.6494141,1.6657715,8.5878906
		C103.9523544,56.0679359,104.0775375,57.2319984,104.0069809,58.3838539z M100.1870346,29.3543129
		c-0.2070923-0.270752-0.3977661-0.5571289-0.758606-0.7749023c0.3096313-0.0910645,0.4384155,0.1000977,0.5756226,0.2072754
		c3.7703857,2.9414062,6.9921875,6.378418,9.3049927,10.5895996c2.0565186,3.744873,3.3374634,7.7531738,3.9491577,11.9938965
		c0.7103271,4.9262695,0.0755615,9.6484375-1.8487549,14.2167931c-0.0205688,0.0488281-0.0671387,0.0859375-0.1015015,0.128418
		c0.284668-1.4584961,0.5807495-2.9038048,0.8609619-4.3544884c0.3308105-1.7138672,0.2035522-3.4331055,0.2243042-5.152832
		c0.0061646-0.5307617-0.0169678-1.0629883-0.0457764-1.59375c-0.1685791-3.121582-0.7268677-6.1630859-1.7203979-9.1376953
		c-1.1036377-3.3071289-2.8649292-6.2265625-4.9705811-8.9680176
		C103.8273544,34.1279945,102.0101547,31.7390785,100.1870346,29.3543129z M109.0307846,54.1196938
		c-0.2268677-3.1967773-0.8920898-6.3266602-1.6395264-9.4443359c1.7557983,2.8813477,2.421875,6.0756836,2.6404419,9.3574219
		c0.2177124,3.2666016,0.0495605,6.5263672-0.9064941,9.6977539
		C108.9231796,60.5210609,109.2573471,57.3169594,109.0307846,54.1196938z"/>
	<path class="st2" d="M45.5649643,41.5383949c0,1.2766113,1.0214844,2.0427246,2.0429688,2.0427246h23.2370605v-3.8303223H47.607933
		C46.5864487,39.7507973,45.5649643,40.7725258,45.5649643,41.5383949z"/>
</g>
<g>
	<g>
		<path class="st1" d="M168.602829,15.724c-2.8586426,1.1103163-3.8052673,4.6475058-1.8394318,6.9542379
			c0.2813263,0.3303928,0.3271332,0.5386391-0.0625763,0.8119621c-1.3455963,0.9446201-1.357605,2.9479923-0.3874512,4.0588093
			c0.2608032,0.2988529,0.3000946,0.4004745-0.0723419,0.6637859c-2.0952301,1.4812546-1.7918701,4.1509171,0.5639191,5.2191811
			c1.9665833,0.8920593,4.0583038,0.9080772,6.1482849,0.8399963c1.843689-0.06007,3.6598358-0.3183784,5.2244415-1.4246864
			c1.2414703-0.8780422,1.7598267-2.0954838,1.5856171-3.6012669c-0.169693-1.4697418-1.0442352-2.3612976-2.3943329-2.8318558
			c-1.4334412-0.4990902-2.9274597-0.3258858-4.1964722-0.3649311c-1.1233215,0-2.0411682,0-2.9589996,0
			c-0.3794556-0.0005016-0.7528992-0.042551-1.0840302-0.2422867c-0.4320221-0.2598095-0.4885864-0.6617851-0.348175-1.0993023
			c0.1556854-0.4855766,0.5026093-0.4054813,0.9013214-0.3123703c1.9405518,0.4500332,3.8733368,0.4295082,5.7665863-0.2362804
			c2.2271423-0.7834282,3.6475677-2.8558826,3.0946655-4.9563713c-0.3233795-1.2279549-0.1734619-1.9608231,0.7959442-2.7392445
			c0.7248535-0.5816898,0.7123413-1.3786335,0.221756-1.9222775c-0.4600372-0.5091038-1.3075409-0.5516539-1.9998627-0.0635757
			c-0.4588013,0.323884-0.8985596,0.6788044-1.3195648,1.050745c-0.224762,0.1982346-0.3929596,0.2112503-0.6813049,0.1101303
			C173.2355652,14.8224325,170.9143219,14.8259363,168.602829,15.724z M169.4075317,28.74893
			c0.8670197,0.0325394,1.7355499,0.0085106,2.6035767,0.0085106v0.0220261l0,0
			c0.8675385,0,1.7353058-0.0010014,2.6030884,0.0004997c0.3804474,0.0005016,0.7458801,0.0825977,1.0797729,0.2623119
			c0.7509003,0.4039783,0.8445129,1.433197,0.1622009,1.9302864c-0.2588043,0.1882229-0.5356293,0.3614273-0.8647766,0.4450264
			c-1.7580872,0.4480305-3.531189,0.4560413-5.2937775,0.1026211c-1.250473-0.2502956-1.7665863-1.0977993-1.354599-2.0399151
			C168.5429993,29.0227547,168.8418579,28.7274036,169.4075317,28.74893z M173.9634247,17.8029633
			c0.887558,0.3569221,1.3861389,1.3085499,1.2945404,2.2942181c-0.0916138,0.9871693-0.8352509,1.7545776-1.9748383,2.0053749
			c-0.318634,0.0700836-0.6507721,0.0780926-1.0222168,0.1191406c-0.933609-0.0350399-1.8922424-0.1631927-2.5970764-0.9285984
			c-0.9846649-1.0687675-0.5696716-2.837862,0.8119659-3.466608
			C171.624649,17.3038712,172.8105621,17.3394146,173.9634247,17.8029633z"/>
		<path class="st1" d="M248.1075134,24.9964848c0.3383942,1.7110271,1.0770264,3.2163105,2.495697,4.2685566
			c2.9309845,2.1745758,6.1122437,2.2962208,9.3826294,0.9000664c1.1418457-0.4875774,2.0476685-1.3325787,2.4699097-2.5610332
			c0.2042542-0.5932026,0.1256714-1.1733913-0.3849487-1.6028996c-0.4935913-0.415493-1.0537415-0.3273869-1.5793762-0.0770912
			c-0.3123779,0.1491776-0.6304932,0.3464108-0.8610229,0.5992107c-1.1621094,1.2765121-2.6456299,1.5293102-4.2500305,1.3551044
			c-2.1159973-0.2307739-3.7018738-1.5798721-3.9792023-3.2989082c-0.0593262-0.3684368-0.0330505-0.523119,0.4104767-0.51511
			c1.5523376,0.0285339,3.1051788,0.011013,4.6577759,0.011013c1.5525818,0,3.1051636,0.011013,4.6577759-0.0035038
			c1.1498413-0.0115147,1.6754761-0.4830723,1.795105-1.6234226c0.0941162-0.8970642-0.03479-1.78862-0.3203735-2.6346226
			c-0.9338684-2.7642746-2.9084473-4.3061008-5.772583-4.6685295c-3.0598755-0.3874598-5.718277,0.4134893-7.5376892,3.0431042
			C247.8704834,20.2428532,247.6286926,22.5751171,248.1075134,24.9964848z M251.4815063,20.5141754
			c0.5929565-1.8481903,2.2519226-2.8608894,4.4059753-2.6906872c1.8681946,0.1481743,3.1677551,1.1939144,3.5809937,2.8408642
			c0.1233826,0.4925842,0.0843506,0.709341-0.5166321,0.6843109c-1.1495972-0.0470562-2.3024597-0.0135155-3.454071-0.0135155
			c-1.1516266,0-2.3029785,0.0025024-3.4546051-0.0010014C251.2980347,21.3316441,251.245224,21.2505474,251.4815063,20.5141754z"/>
		<path class="st1" d="M222.0919342,15.058712c-4.6114502,0.0215254-7.8983459,3.3865128-7.8545532,8.0400238
			c0.0443115,4.7020702,3.3377075,7.9594307,8.0272675,7.9399071c4.9168243-0.020525,8.1421356-3.2453442,8.1228638-8.1211205
			C230.3687439,18.1859169,227.0433044,15.0351839,222.0919342,15.058712z M222.229599,27.9084339
			c-2.6734161-0.0260296-4.5999451-2.1225147-4.5466309-4.9478607c0.0528107-2.7963123,2.0236511-4.8287201,4.6462555-4.7916775
			c2.7527618,0.0385475,4.6855469,2.1165085,4.6124573,4.9578743
			C226.8675995,26.0081825,224.9693451,27.9344654,222.229599,27.9084339z"/>
		<path class="st1" d="M184.5594788,28.9942207c1.5550995,1.5858784,3.5431976,2.0053749,5.0787659,2.0379143
			c1.8164062-0.0010014,3.014328-0.1772099,4.1424103-0.7073383c2.8471222-1.3380852,3.5584564-5.2216854,1.3273163-7.3011494
			c-0.6112213-0.5691738-1.3621063-0.8910561-2.1590576-1.1268349c-1.3761292-0.4079838-2.8268433-0.4880772-4.1852112-0.9656429
			c-0.7949371-0.2793312-1.2121735-0.8299847-1.1956635-1.5428276c0.0155182-0.6657887,0.4500427-1.2269535,1.2624969-1.4091702
			c1.3823853-0.3098679,2.6936951-0.1491756,3.852066,0.7754192c0.4925842,0.393465,0.9123383,0.8875504,1.5152893,1.1373463
			c0.532135,0.2197609,1.0387421,0.2427883,1.5092926-0.15168c0.4730682-0.3969688,0.5559082-0.9125805,0.4119873-1.4692402
			c-0.1304016-0.5045967-0.378952-0.9556313-0.7436218-1.3400879c-1.003952-1.0577517-2.2924652-1.5288105-3.6866302-1.7335529
			c-2.0394135-0.2993546-4.0427856-0.2392836-5.8228912,0.9791603c-2.2624359,1.5488338-2.4146118,4.8717709-0.3103638,6.6123333
			c0.9293518,0.7684097,2.0654449,1.0672646,3.2193146,1.321064c1.005188,0.221262,2.0491791,0.2958508,3.0035553,0.71735
			c0.8229675,0.3634319,1.2231903,1.0137005,1.1290894,1.7575817c-0.0973663,0.7704144-0.6014709,1.2980385-1.4982758,1.4617329
			c-1.7443237,0.3183765-3.3106689-0.042551-4.5997009-1.3250694c-0.3509216-0.3494148-0.7038422-0.6958256-1.1458588-0.9265976
			c-0.4915771-0.2573051-1.0109406-0.2603092-1.4772491,0.0200233c-0.4880829,0.2928467-0.6515198,0.7884331-0.5901947,1.3435917
			C183.6779327,27.8919144,184.0616455,28.4861183,184.5594788,28.9942207z"/>
		<path class="st1" d="M147.2878265,28.0145607c-1.5873871,0.3368988-3.0778961,0.1351604-4.3581696-0.9611397
			c-0.4099731-0.3514156-0.805954-0.7198524-1.2199402-1.0662632c-0.5206146-0.4355145-1.3178101-0.5086021-1.8391724-0.1491756
			c-0.584198,0.4014759-0.6577911,0.9906731-0.4940948,1.6234226c0.1371613,0.5296268,0.4119873,0.9876709,0.7844391,1.3956528
			c1.5896301,1.7415638,3.6798553,2.1200123,5.8887177,2.1370316c0.3053589,0,0.6139832,0.0300369,0.9153442-0.0045052
			c1.9948578-0.2297726,3.7534332-0.8640232,4.7200775-2.8198395c0.9561462-1.9342918,0.4375305-4.2570438-1.2704926-5.4814949
			c-0.9348602-0.6707935-2.0509338-0.8965607-3.1549988-1.1323414c-1.0059357-0.2152538-2.0466614-0.2793293-3.0028076-0.7138443
			c-0.649765-0.295351-0.9901733-0.7819271-0.9551239-1.4927692c0.0365448-0.7328682,0.4915771-1.1548672,1.1576233-1.3365822
			c1.1741333-0.3208809,2.3049774-0.222765,3.3910065,0.3819523c0.6470184,0.3599262,1.1180878,0.9306011,1.7263031,1.3295746
			c0.574173,0.3764458,1.1869049,0.4770641,1.7776031,0.0740871c0.5881958-0.4009743,0.6345062-1.0157032,0.4560394-1.635437
			c-0.2590485-0.9015675-0.8657684-1.543829-1.6664734-2.00037c-2.2056122-1.2574892-4.5591431-1.4066658-6.9512329-0.7548943
			c-2.6175995,0.7138462-3.9902191,3.1962872-3.1682587,5.6086445c0.5656738,1.6609669,1.9242859,2.4208679,3.5019073,2.8428669
			c1.2922821,0.3454094,2.6168518,0.5701771,3.9053802,0.9270992c0.8109589,0.2247658,1.2254486,0.91959,1.1889038,1.7125282
			C148.5858612,27.2411442,148.1067963,27.840353,147.2878265,28.0145607z"/>
		<path class="st1" d="M200.0543365,18.4582386c0.6044617,0.0685825,1.219696,0.0750904,1.8289185,0.0600719
			c0.3959656-0.0095119,0.5283661,0.1096306,0.5208588,0.5156116c-0.0235291,1.2695026-0.0084991,2.5395069-0.0084991,3.8095112
			c0.0002441,1.22295-0.0200348,2.4463997,0.0057526,3.6683464c0.0282745,1.3435917,0.4612885,2.5470181,1.5202942,3.4180489
			c1.6617279,1.3666191,3.5204315,1.3511009,5.4396973,0.6332512c0.9751587-0.364933,1.7811127-0.9456215,2.2201385-1.9247799
			c0.2843323-0.6347523,0.2377777-1.272007-0.2938538-1.7465706c-0.5341339-0.4770641-1.1563721-0.4310093-1.7530823-0.0570679
			c-0.3559113,0.2232647-0.6928101,0.4815712-1.0642548,0.6732979c-1.4632416,0.7558956-2.6846771,0.0490589-2.6994476-1.5783691
			c-0.0205231-2.2812023,0.0097656-4.5629063-0.0172729-6.8436069c-0.006012-0.5025959,0.1967316-0.5756817,0.6204834-0.56567
			c1.0109558,0.0220261,2.0229034,0.008009,3.0343475,0.0065079c0.4520416-0.0005016,0.9095764-0.0380459,1.2742615-0.3248844
			c0.496582-0.3904629,0.7205963-0.911581,0.5814362-1.5553436c-0.1406708-0.6512709-0.5571594-1.0562515-1.1974182-1.1213284
			c-0.7458801-0.0765905-1.5022736-0.0415487-2.2539215-0.0690813c-0.6532745-0.0235281-1.4932709,0.271822-1.9095154-0.1141357
			c-0.4244995-0.3944674-0.0886078-1.2449751-0.1366577-1.8932428c-0.0207672-0.2808323-0.0077515-0.56567-0.0467987-0.8434992
			c-0.1324158-0.9426165-0.8407593-1.5468321-1.7255554-1.4917669c-0.947113,0.0595703-1.5823669,0.7333689-1.5966339,1.7115278
			c-0.0100098,0.7053356-0.0215302,1.4121723,0.0055084,2.1165066c0.0152588,0.3914642-0.0946198,0.5411415-0.508606,0.526124
			c-0.6092224-0.0210257-1.2244568-0.0140171-1.8301697,0.049058c-0.7701569,0.0800943-1.340332,0.737874-1.335083,1.4527216
			C198.7352753,17.7423916,199.2576447,18.3671322,200.0543365,18.4582386z"/>
		<path class="st1" d="M235.3726807,30.6546879c0.5581512,0.3724403,1.1496124,0.3769455,1.7375488,0.0891056
			c0.6442719-0.3153744,0.8780365-0.8850479,0.8795471-1.5648537c0.0045013-2.1405354,0.0014954-4.2815723,0.0017548-6.4221077
			c0-0.8039532,0.0853424-1.5953903,0.3621674-2.3557911c0.2793427-0.76791,0.6948242-1.4482155,1.4437103-1.8346729
			c1.0512543-0.5426426,1.8892517-0.3263874,2.9615173,0.6988277c0.525116,0.5020943,1.1053009,0.7338696,1.8546906,0.4955864
			c0.6592865-0.2107487,0.9321136-0.6823082,1.0382385-1.2900276c0.1364136-0.7799244-0.0620728-1.4857597-0.5621643-2.1059952
			c-0.6980896-0.8660259-1.6439514-1.2074308-2.7132263-1.2940331c-1.7395477-0.140667-3.1662445,0.4690561-4.2975922,1.8717175
			c-0.0470428-0.1291523-0.0750885-0.1827164-0.0865936-0.2397842c-0.2327728-1.1423531-0.8399963-1.6339359-1.8872375-1.5268087
			c-0.9028168,0.0926094-1.4782562,0.7809248-1.4799957,1.8266649c-0.0072632,4.0227642-0.0047607,8.0455303-0.0012665,12.0682964
			C234.6242828,29.7110691,234.8095093,30.2787418,235.3726807,30.6546879z"/>
		<path class="st1" d="M158.4933472,15.1638365c-0.9411163-0.0085096-1.6807404,0.6392574-1.6857452,1.6079054
			c-0.022522,4.1634312-0.0187683,8.3268642-0.0012512,12.4902954c0.0037537,0.8475037,0.5634155,1.494772,1.2847748,1.6299324
			c1.1568756,0.2172565,2.0499268-0.4815712,2.0654449-1.6829948c0.0260315-2.0464249,0.0070038-4.0928478,0.0070038-6.1392727
			c-0.0004883-2.069952,0.0205231-4.1404037-0.0090027-6.209856
			C160.1395569,15.7980881,159.4827728,15.1728477,158.4933472,15.1638365z"/>
		<path class="st1" d="M158.5136261,9.152215c-1.1844025-0.011013-2.1300201,0.9145842-2.1220093,2.0774612
			c0.0080109,1.1793976,0.9113312,2.0634441,2.1179962,2.0724554c1.1516266,0.0090103,2.0709534-0.8870516,2.0779724-2.0243988
			C160.5950928,10.0903263,159.6905212,9.163228,158.5136261,9.152215z"/>
	</g>
	<g>
		<path class="st1" d="M148.2103424,95.2539673c0,2.6513672-1.7910156,4.5507812-4.3349609,4.5507812
			c-2.5795898,0-4.4067383-1.8994141-4.4067383-4.5507812v-31.958004c0-2.6865234,1.8271484-4.5498047,4.4067383-4.5498047
			c2.5439453,0,4.3349609,1.8632812,4.3349609,4.5498047v0.5019531c2.2216797-3.4033203,5.9477539-5.3027344,10.3183594-5.3027344
			c3.1889648,0,5.7324219,1.0390625,7.3447266,2.5439453c1.5405273,1.46875,2.3647461,3.2597618,2.3647461,5.1953087
			c0,2.8300781-1.6123047,4.8007812-4.4423828,4.8007812c-1.5048828,0-2.7587891-1.0039062-3.5473633-1.9345703
			c-1.074707-1.21875-2.5795898-2.1855469-4.5859375-2.1855469c-4.1201172,0-7.4521484,4.1201172-7.4521484,11.0341797V95.2539673z"
			/>
		<path class="st1" d="M175.501358,79.1680298c0-12.3251953,8.1689453-20.6728477,19.9204102-20.6728477
			c11.715332,0,19.1674805,7.7031212,19.1674805,18.4873009c0,3.3671875-1.5761719,4.9443359-4.6577148,4.9443359h-25.5805664
			c0.6450195,6.1621094,5.5170898,10.0673828,12.6113281,10.0673828c4.0844727,0,7.0581055-1.2177734,9.3510742-4.0126953
			c1.1821289-1.0751953,2.3642578-1.7558594,3.8691406-1.7558594c2.3291016,0,3.3676758,1.3974609,3.3676758,3.546875
			c0,1.1826172-0.5371094,2.4003906-1.2539062,3.4755859c-3.0454102,4.5859375-9.4223633,6.8076172-15.6567383,6.8076172
			C183.8495026,100.0557251,175.501358,91.9229126,175.501358,79.1680298z M205.883194,74.8682251
			c-0.6450195-5.8398438-4.7290039-9.2431641-10.7841797-9.2431641c-5.9472656,0-10.1391602,3.546875-10.7480469,9.2431641
			H205.883194z"/>
		<path class="st1" d="M255.3192291,97.6553345L242.9227448,81.819397l-7.8105469,6.7353516v6.6992188
			c0,2.6513672-1.7910156,4.5507812-4.3349609,4.5507812c-2.5795898,0-4.4067383-1.8994141-4.4067383-4.5507812V51.0791664
			c0-2.6513672,1.8271484-4.5146484,4.4067383-4.5146484c2.5439453,0,4.3349609,1.8632812,4.3349609,4.5146484v26.6201134
			l19.0244141-16.5165977c2.3291168-2.0419922,3.4756012-2.5439453,5.1235504-2.5439453
			c2.2573242,0,3.940918,1.4326172,3.940918,3.7255859c0,1.21875-0.5014648,2.4726524-2.3286133,4.0126915l-11.1782379,9.6025391
			l12.3247223,15.8710938c1.5048828,2.0068359,1.684082,2.7949219,1.684082,4.0126953
			c0,1.8994141-1.7915039,3.8339844-4.2993164,3.8339844C258.0780334,99.6973267,256.5731506,99.3389282,255.3192291,97.6553345z"/>
		<path class="st1" d="M271.3377991,79.2754517c0-12.5039062,8.7773438-20.7802696,20.9946289-20.7802696
			c12.253418,0,21.0307617,8.2763634,21.0307617,20.7802696c0,12.4677734-8.7773438,20.7802734-21.0307617,20.7802734
			C280.1151428,100.0557251,271.3377991,91.7432251,271.3377991,79.2754517z M292.332428,91.9580688
			c7.0224609,0,12.0024414-5.1230469,12.0024414-12.6826172s-4.9799805-12.6835938-12.0024414-12.6835938
			c-7.0219727,0-12.0019531,5.1240234-12.0019531,12.6835938S285.3104553,91.9580688,292.332428,91.9580688z"/>
		<path class="st1" d="M333.6371155,95.2539673c0,2.6513672-1.7910156,4.5507812-4.3349609,4.5507812
			c-2.5795898,0-4.4067383-1.8994141-4.4067383-4.5507812v-31.958004c0-2.6865234,1.8271484-4.5498047,4.4067383-4.5498047
			c2.5439453,0,4.3349609,1.8632812,4.3349609,4.5498047v0.5019531c2.2216797-3.4033203,5.9477539-5.3027344,10.3183594-5.3027344
			c3.1889648,0,5.7324219,1.0390625,7.3447266,2.5439453c1.5405273,1.46875,2.3647461,3.2597618,2.3647461,5.1953087
			c0,2.8300781-1.6123047,4.8007812-4.4423828,4.8007812c-1.5048828,0-2.7587891-1.0039062-3.5473633-1.9345703
			c-1.074707-1.21875-2.5795898-2.1855469-4.5859375-2.1855469c-4.1201172,0-7.4521484,4.1201172-7.4521484,11.0341797V95.2539673z"
			/>
	</g>
</g>
</svg>

