<?xml version="1.0" encoding="utf-8"?>
<!-- Generator: Adobe Illustrator 23.0.2, SVG Export Plug-In . SVG Version: 6.00 Build 0)  -->
<svg version="1.1" id="Layer_1" xmlns="http://www.w3.org/2000/svg" xmlns:xlink="http://www.w3.org/1999/xlink" x="0px" y="0px"
	 viewBox="0 0 400 245" style="enable-background:new 0 0 400 245;" xml:space="preserve">
<style type="text/css">
	.st0{fill:#4094D0;}
	.st1{fill:#EE4636;}
	.st2{fill:#FFC10E;}
	.st3{fill:#2FB355;}
	.st4{fill:none;}
	.st5{fill-rule:evenodd;clip-rule:evenodd;}
	.st6{fill-rule:evenodd;clip-rule:evenodd;fill:#E82D3C;}
	.st7{fill:#4F81C2;}
	.st8{fill:#F25022;}
	.st9{fill:#80BA01;}
	.st10{fill:#777777;}
	.st11{fill:#02A4EF;}
	.st12{fill:#FFB902;}
	.st13{fill:#263C8D;}
	.st14{fill:#1853A3;}
	.st15{fill:#54565A;}
	.st16{fill:#808080;}
	.st17{fill:#0085C3;}
	.st18{fill:#4666A9;}
	.st19{fill:#006BB6;}
	.st20{fill-rule:evenodd;clip-rule:evenodd;fill:#2C348A;}
	.st21{fill:#F58220;}
	.st22{fill:#0058A9;}
	.st23{fill-rule:evenodd;clip-rule:evenodd;fill:#EC1C24;}
	.st24{fill:#ED1A3B;}
</style>
<g>
	<polygon class="st20" points="5.23,121.53 23.75,121.53 23.75,140.05 5.23,140.05 5.23,121.53 	"/>
	<g>
		<path class="st20" d="M131.52,102.57c8.58-0.32,10.45,0.98,13.99,4.42l20.62,24.31c-0.05,0.5,0.12,0.59,0.74,0.74v-29.46h7.36
			v39.04h-8.1c-5.75,0.26-8.09-0.18-11.78-4.42l-21.36-25.04c0.08-0.05-0.11-0.15-0.74,0v29.46h-7.37v-39.04H131.52L131.52,102.57z"
			/>
		<path class="st20" d="M92.49,107.72h19.89c1.01,0.18,1.72-0.11,2.21-0.74l2.21-4.42H88.07c-12.74-0.32-18.97,4.33-19.15,13.99
			v11.05c0.18,9.94,6.59,14.26,19.15,13.99h25.04c0.99,0.27,1.7-0.02,2.21-0.74l2.21-4.42H92.49c-6.88-0.22-9.25-2.49-9.57-6.63
			v-5.89h26.52c1.08,0.17,1.79-0.11,2.21-0.74l2.21-4.42H82.91v-3.68C83.23,111.39,84.09,107.9,92.49,107.72L92.49,107.72z"/>
		<path class="st20" d="M206.65,107.72h19.88c1.28,0.18,1.99-0.11,2.21-0.74l2.95-4.42h-29.46c-12.47-0.32-18.7,4.33-18.41,13.99
			v11.05c-0.29,9.94,6.13,14.26,18.41,13.99h25.04c1.26,0.27,1.97-0.02,2.21-0.74l2.95-4.42h-25.78c-6.61-0.22-8.99-2.49-8.84-6.63
			v-5.89h26.51c0.62,0.17,1.33-0.11,1.47-0.74l2.95-4.42h-30.93v-3.68C197.66,111.39,198.52,107.9,206.65,107.72L206.65,107.72z"/>
		<path class="st20" d="M264.83,128.35c5.09,1.9,6.75,2.66,6.63,4.42c0.12,2.1-0.96,3.46-8.1,3.68h-22.83
			c-1.09-0.23-1.79,0.06-2.21,0.74l-2.21,4.42h33.14c12.99,0.27,17.98-3.91,17.68-9.57c0.3-3.47-1.6-7.92-13.99-11.79l-13.26-4.42
			c-5.46-1.92-7.11-2.71-7.37-4.42c0.25-2,1.18-3.5,8.1-3.68h19.89c0.81,0.18,1.52-0.11,2.21-0.74l2.21-4.42h-29.46
			c-13.36-0.31-18.35,3.86-18.41,9.58c0.06,3.43,1.97,7.89,14.73,11.78L264.83,128.35L264.83,128.35z"/>
		<path class="st20" d="M383.41,120.24l-13.26-4.42c-5.11-1.92-6.77-2.71-6.63-4.42c-0.14-2,0.92-3.5,7.36-3.68h19.89
			c1.16,0.18,1.87-0.11,2.21-0.74l2.21-4.42h-29.46c-13.02-0.31-18.01,3.86-17.68,9.58c-0.33,3.43,1.57,7.89,13.99,11.78l13.26,4.42
			c5.43,1.9,7.09,2.66,7.37,4.42c-0.27,1.94-1.35,3.46-8.1,3.68h-26.52l-21.36-33.88h-7.37c-6.41-0.32-9.55,1.38-12.52,5.89
			l-19.88,33.14h13.26l16.94-29.46c0.46-0.63,0.78-0.62,1.47-0.74l13.99,25.04h-15.47c-1.05-0.23-1.76,0.06-2.21,0.74l-2.21,4.42
			h38.3h28.72c13.34,0.27,18.33-3.91,18.41-9.57C398.06,128.56,396.15,124.11,383.41,120.24L383.41,120.24z"/>
		<path class="st20" d="M63.76,101.1c1.84,8.43-5.56,13.48-12.52,16.94c-2.09,0.78-3.03,1.62-2.95,2.95c-0.3,0.8,0.16,2.2,1.47,4.42
			c6.48,9.06,19.36,20.96,33.14,27.99c0.07,0.18-0.14,0.33,0,0.74c-0.67-0.13-1.11-0.02-2.21,0c-19.96-5.46-40.58-20.42-47.87-30.93
			c-0.84-1.49-1.11-2.69-0.74-3.68c-0.17-0.75,0.49-1.58,2.21-2.21c5.12-2.64,13.96-7.82,11.78-13.99
			c-3.06-9.18-20.61-9.04-34.62-5.16c-2.75,1.17-5.95,2.73-8.84,4.42c-0.25,0.22-0.94,0.35-0.74,0c-0.08-0.41,0.21-2.28,0-2.21
			c0.4-1,1.43-1.75,2.21-2.21C25.88,87.19,60.27,88.97,63.76,101.1L63.76,101.1z"/>
	</g>
</g>
</svg>
