<svg xmlns="http://www.w3.org/2000/svg" viewBox="0 0 149.17 57.58"><defs><style>.cls-1{fill:#fff;}.cls-2{fill:#f51440;}</style></defs><title>RL logo 2 lines</title><g id="Layer_2" data-name="Layer 2"><g id="Layer_1-2" data-name="Layer 1"><rect class="cls-1" width="149.17" height="57.58"/><path class="cls-2" d="M48.63,29.8H43.31L38.49,45.71h-8V29.8H26.88V48.72H41.22l1.68-5.3H49l1.63,5.3h3.74Zm-5.07,10.7,1.61-5.22c.28-.94.46-2,.66-3h.23a27.37,27.37,0,0,0,.66,3l1.58,5.22Z"/><path class="cls-2" d="M65.59,43c0-1.66-.79-2.7-3.69-2.7H58.66v5.68h1c3.87,0,6,0,6-2.7Zm-.07-8.05c0-2.17-1.71-2.35-4.74-2.35H58.66v5.12h3.21c2.93,0,3.64-1,3.64-2.55Zm-4.84,14c-2.17,0-3.08-.05-5.48-.15V29.8c2.5-.1,3.41-.15,5.58-.15,5.07,0,8.2.89,8.2,5.15V35a4.16,4.16,0,0,1-2.39,4,4.1,4.1,0,0,1,2.5,4v.26c0,4.74-3.52,5.63-8.41,5.63"/><path class="cls-2" d="M77.42,49.13a28.71,28.71,0,0,1-6-.59V45.82a54.63,54.63,0,0,0,5.68.31c2.29,0,3.39-.64,3.39-2.34,0-1.22-.48-1.91-2.37-2.7l-2.85-1.17C72.5,38.76,71,37.16,71,34.4c0-3.67,2.29-5,6.78-5a25.34,25.34,0,0,1,5.53.61v2.7c-1.45-.13-3.39-.33-5.38-.33-2.22,0-3.41.38-3.41,1.91,0,1.15.53,1.73,2.42,2.5l2.57,1c3.31,1.35,4.64,2.7,4.64,5.91,0,3.44-2.47,5.38-6.72,5.38"/><path d="M14.09,15c0,2.45,1.45,3.13,4.71,3.13.66,0,1.3,0,2,0V11.85c-4.64,0-6.68,0-6.68,3ZM9.4,27.9l4.46-7.72c-2-.86-3.26-2.37-3.26-5.25v-.18c0-5,3.77-5.91,8.33-5.91,1.91,0,3.62.05,5.3.13V27.9H20.77v-7H19c-.59,0-1.15,0-1.65,0l-4.18,7Z"/><path d="M50.62,9l-3.9,13.12c-.33,1.1-.56,2.37-.76,3.39h-.05c-.25-1-.43-2.29-.76-3.39L41.24,9H26.59V27.9h12V25H30.15V19.6H38.1V16.75H30.15V11.93h8.31l4.82,16h5.2L54.21,9Z"/><polygon points="55.19 27.9 55.19 8.98 67.25 8.98 67.25 11.93 58.76 11.93 58.76 16.75 66.71 16.75 66.71 19.6 58.76 19.6 58.76 24.97 67.25 24.97 67.25 27.9 55.19 27.9"/><path d="M79.45,14.81c0-2.93-2-3-6.67-3v6.22c.66,0,1.3,0,2,0,3.26,0,4.71-.69,4.71-3.13Zm.92,13.09-4.18-7c-.51,0-1.07,0-1.65,0H72.78v7H69.32V9c1.68-.08,3.39-.13,5.3-.13,4.56,0,8.33.92,8.33,5.91v.18c0,2.88-1.25,4.38-3.26,5.25l4.46,7.72Z"/><path d="M91,28.31a28.74,28.74,0,0,1-6-.59V25a54.35,54.35,0,0,0,5.68.3c2.29,0,3.39-.64,3.39-2.35,0-1.22-.49-1.91-2.37-2.7l-2.85-1.17c-2.8-1.15-4.3-2.75-4.3-5.5,0-3.67,2.29-5,6.77-5a25.25,25.25,0,0,1,5.53.61v2.7c-1.45-.12-3.39-.33-5.38-.33-2.22,0-3.41.38-3.41,1.91,0,1.14.54,1.73,2.42,2.5l2.57,1c3.31,1.35,4.63,2.7,4.63,5.91,0,3.44-2.47,5.38-6.72,5.38"/><rect x="99.24" y="8.98" width="3.57" height="18.93"/><path d="M116.26,27.9,110.2,16.67c-.46-.87-1-1.89-1.43-2.83h-.05c.05,1.07.11,2.24.11,3.39V27.9h-3.26V9h4.13l6,11c.46.87,1,2,1.45,2.88h.05c-.08-1.12-.1-2.45-.1-3.59V9h3.28V27.9Z"/><path d="M130.37,28.31c-4.33,0-7.92-1.68-7.92-8.54V17.1c0-7.23,4.07-8.51,8-8.51a28.7,28.7,0,0,1,6.09.64V12c-1.22-.1-4.18-.26-5.48-.26-3.08,0-5.07.69-5.07,5.4v2.67c0,4.33,1.58,5.43,4.64,5.43.94,0,1.88,0,2.55-.08v-4.6h-1.45V17.82h4.83v9.91a32,32,0,0,1-6.19.59"/></g></g></svg>