<?xml version="1.0" encoding="UTF-8" standalone="no"?>
<svg
   viewBox="0 0 104.09872 36.823797"
   height="36.823799"
   width="104.09872"
   version="1.1"
   id="svg2"
   xmlns="http://www.w3.org/2000/svg"
   xmlns:svg="http://www.w3.org/2000/svg"
   xmlns:rdf="http://www.w3.org/1999/02/22-rdf-syntax-ns#"
   xmlns:cc="http://creativecommons.org/ns#"
   xmlns:dc="http://purl.org/dc/elements/1.1/">
  <metadata
     id="metadata8">
    <rdf:RDF>
      <cc:Work
         rdf:about="">
        <dc:format>image/svg+xml</dc:format>
        <dc:type
           rdf:resource="http://purl.org/dc/dcmitype/StillImage" />
      </cc:Work>
    </rdf:RDF>
  </metadata>
  <defs
     id="defs6" />
  <path
     d="m 10.338943,0.3982403 q 8.492119,0 7.461418,7.1701257 -0.317514,2.2088064 -1.51501,3.839925 -1.163429,1.597137 -2.953966,2.684549 l 4.550784,10.56829 H 11.491192 L 8.3546859,15.825904 H 6.9247418 L 5.6546837,24.66113 H 0.0224533 L 3.5102282,0.3982403 Z M 9.538209,5.3595595 H 8.4292722 L 7.6330434,10.898567 h 1.0505715 q 1.2840315,0 2.1939551,-0.645652 Q 11.82156,9.5732826 12.065802,7.8742007 12.236772,6.6848433 11.658385,6.0391922 11.084883,5.3595595 9.538209,5.3595595 Z M 28.171098,24.66113 h -5.63223 L 25.254839,5.7673391 H 20.177076 L 20.94888,0.3982403 h 15.787756 l -0.771805,5.3690988 h -5.077763 z m 19.627332,0 H 35.425033 L 38.912807,0.3982403 h 12.373398 l -0.75715,5.2671539 H 43.787888 L 43.240786,9.4713377 H 49.48585 L 48.7287,14.738491 h -6.245064 l -0.659453,4.587522 h 6.741167 z m 11.923145,0 -1.749844,-17.466562 h -0.11673 q -0.03933,0.6796327 -0.147051,1.8350084 -0.107721,1.1553756 -0.244748,2.5146406 -0.132146,1.325284 -0.312885,2.582605 l -1.5143,10.534308 H 50.645805 L 54.13358,0.3982403 h 7.499913 l 1.871585,17.2286907 h 0.11673 L 70.359072,0.3982403 h 7.499913 L 74.37121,24.66113 H 69.2059 l 1.528955,-10.636252 q 0.166084,-1.155377 0.38089,-2.446679 0.219691,-1.325284 0.444139,-2.4806593 0.229333,-1.1893573 0.356211,-1.8689901 H 71.799371 L 65.091163,24.66113 Z m 33.031591,-7.374015 q -0.28332,1.970935 -1.412805,3.73798 -1.100302,1.767045 -3.070821,2.888439 -1.93645,1.087412 -4.796339,1.087412 -1.429945,0 -2.485274,-0.169908 -1.031032,-0.135927 -1.916026,-0.475743 -0.884992,-0.339816 -1.799041,-0.883523 l 0.840192,-5.844841 q 1.550927,0.985468 3.194539,1.529174 1.648497,0.509725 3.04926,0.509725 1.254849,0 1.911772,-0.509725 0.656924,-0.509725 0.769275,-1.291303 0.136775,-0.951485 -0.655659,-1.529173 -0.758366,-0.61167 -2.649714,-1.6651 -1.424553,-0.849541 -2.430782,-1.767046 -1.001344,-0.951485 -1.418784,-2.310751 -0.417439,-1.3592658 -0.119463,-3.4321457 0.337053,-2.344733 1.553962,-3.9078883 1.221794,-1.5971371 3.085098,-2.37871477 1.897371,-0.81555932 4.231974,-0.81555932 2.042778,0 3.598843,0.54370622 1.56095,0.50972457 2.74728,1.18935727 L 92.531049,6.8547515 Q 91.291231,6.1411371 90.036635,5.7333575 88.816106,5.2915962 87.707169,5.2915962 q -1.079753,0 -1.668542,0.4417613 -0.559607,0.4417613 -0.657303,1.121394 -0.08304,0.5776879 0.232828,1.0194492 0.31587,0.4417613 1.113188,0.9854675 0.831387,0.5097246 2.260826,1.3252838 1.40514,0.781578 2.318933,1.733064 0.947863,0.917504 1.316712,2.208806 0.402906,1.257321 0.129355,3.160293 z"
     id="text3335"
     style="font-weight:900;font-size:31.4908px;line-height:125%;font-family:'Helvetica Black';-inkscape-font-specification:'Helvetica Black, Heavy';letter-spacing:-0.863748px;word-spacing:0px;fill:#bd0600;stroke-width:1px"
     aria-label="RTEMS" />
  <path
     d="M 5.9045907,31.43631 Q 5.8548679,31.223811 5.7554221,30.811311 5.6684071,30.386312 5.5565306,29.911312 5.4446542,29.423814 5.3452084,29.023814 5.2457627,28.611315 5.2084705,28.423816 h -0.049723 q -0.037292,0.187499 -0.1367379,0.599998 -0.087015,0.4 -0.1988915,0.887498 -0.1118764,0.475 -0.2113221,0.899999 Q 4.512351,31.23631 4.4626278,31.46131 L 3.915676,33.823806 H 1.9267612 L 0,26.998817 h 1.8397461 l 0.7831352,3.024996 q 0.087015,0.312498 0.1491687,0.749998 0.074584,0.437499 0.1367379,0.849998 0.062153,0.4 0.087015,0.6375 h 0.049723 q 0.01243,-0.175001 0.049723,-0.4625 0.037292,-0.299999 0.087015,-0.612498 0.062154,-0.3125 0.099445,-0.5625 0.049723,-0.262499 0.074585,-0.349999 l 0.8328589,-3.274995 h 2.0386376 l 0.7955659,3.274995 q 0.049723,0.175 0.1118765,0.562499 0.074585,0.3875 0.1243072,0.787498 0.062154,0.4 0.062154,0.6375 h 0.049723 q 0.024862,-0.212501 0.087015,-0.612499 0.062154,-0.4125 0.1367379,-0.862499 0.087015,-0.45 0.17403,-0.762498 L 8.577195,26.998817 h 1.814884 L 8.4404571,33.823806 H 6.4266809 Z m 10.6407053,0 q -0.04972,-0.212499 -0.149168,-0.624999 -0.08702,-0.424999 -0.198892,-0.899999 -0.111876,-0.487498 -0.211322,-0.887498 -0.09944,-0.412499 -0.136737,-0.599998 h -0.04972 q -0.03729,0.187499 -0.136738,0.599998 -0.08702,0.4 -0.198891,0.887498 -0.111876,0.475 -0.211322,0.899999 -0.09944,0.424999 -0.149168,0.649999 l -0.546953,2.362496 h -1.988916 l -1.926761,-6.824989 h 1.839745 l 0.783136,3.024996 q 0.08702,0.312498 0.149169,0.749998 0.07458,0.437499 0.136737,0.849998 0.06216,0.4 0.08702,0.6375 h 0.04972 q 0.01243,-0.175001 0.04972,-0.4625 0.0373,-0.299999 0.08702,-0.612498 0.06216,-0.3125 0.09944,-0.5625 0.04972,-0.262499 0.07458,-0.349999 l 0.832858,-3.274995 h 2.038638 l 0.795566,3.274995 q 0.04972,0.175 0.111876,0.562499 0.07458,0.3875 0.124308,0.787498 0.06216,0.4 0.06216,0.6375 h 0.04972 q 0.02486,-0.212501 0.08702,-0.612499 0.06216,-0.4125 0.136738,-0.862499 0.08702,-0.45 0.17403,-0.762498 l 0.807997,-3.024996 h 1.814885 l -1.951623,6.824989 h -2.013776 z m 10.640707,0 q -0.04972,-0.212499 -0.149169,-0.624999 -0.08702,-0.424999 -0.198892,-0.899999 -0.111877,-0.487498 -0.211322,-0.887498 -0.09944,-0.412499 -0.136738,-0.599998 h -0.04972 q -0.0373,0.187499 -0.136739,0.599998 -0.08702,0.4 -0.198892,0.887498 -0.111876,0.475 -0.211322,0.899999 -0.09944,0.424999 -0.149168,0.649999 l -0.546951,2.362496 h -1.988915 l -1.926762,-6.824989 h 1.839747 l 0.783134,3.024996 q 0.08702,0.312498 0.149169,0.749998 0.07458,0.437499 0.136738,0.849998 0.06216,0.4 0.08702,0.6375 h 0.04972 q 0.01243,-0.175001 0.04972,-0.4625 0.0373,-0.299999 0.08702,-0.612498 0.06216,-0.3125 0.09944,-0.5625 0.04972,-0.262499 0.07458,-0.349999 l 0.832858,-3.274995 H 27.5092 l 0.795567,3.274995 q 0.04972,0.175 0.111876,0.562499 0.07458,0.3875 0.124307,0.787498 0.06216,0.4 0.06216,0.6375 h 0.04972 q 0.02486,-0.212501 0.08702,-0.612499 0.06216,-0.4125 0.136737,-0.862499 0.08702,-0.45 0.17403,-0.762498 l 0.807997,-3.024996 h 1.814885 l -1.951622,6.824989 h -2.013777 z m 4.823118,1.512497 q 0,-0.574999 0.310767,-0.799998 0.310769,-0.2375 0.758274,-0.2375 0.435075,0 0.745843,0.2375 0.310768,0.224999 0.310768,0.799998 0,0.549999 -0.310768,0.799999 -0.310768,0.2375 -0.745843,0.2375 -0.447505,0 -0.758274,-0.2375 -0.310767,-0.25 -0.310767,-0.799999 z m 7.595168,-6.074989 q 0.136738,0 0.323198,0.0125 0.186461,0.01251 0.298338,0.0375 l -0.136739,1.749997 q -0.08702,-0.025 -0.261045,-0.0375 -0.161599,-0.025 -0.285906,-0.025 -0.472367,0 -0.907443,0.174999 -0.435074,0.1625 -0.70855,0.5375 -0.261045,0.374999 -0.261045,1.024998 v 3.474994 H 35.81292 v -6.824989 h 1.404671 l 0.273476,1.149999 h 0.08702 q 0.298337,-0.525 0.820427,-0.899999 0.52209,-0.374999 1.20578,-0.374999 z m 4.711244,5.58749 q 0.310768,0 0.596674,-0.0625 0.285907,-0.0625 0.571814,-0.15 v 1.387499 q -0.298338,0.124999 -0.745844,0.212499 -0.435075,0.1 -0.957165,0.1 -0.609105,0 -1.093903,-0.2 -0.472367,-0.2 -0.758274,-0.687499 -0.273476,-0.499999 -0.273476,-1.374997 v -3.287495 h -0.882581 v -0.787498 l 1.019319,-0.624999 0.534521,-1.437497 h 1.180918 v 1.449996 h 1.9019 v 1.399998 h -1.9019 v 3.287495 q 0,0.387499 0.223753,0.587499 0.223753,0.187499 0.584244,0.187499 z m 5.33278,-5.58749 q 1.404672,0 2.225098,0.812499 0.820428,0.799998 0.820428,2.287496 v 0.899998 h -4.375612 q 0.02486,0.787498 0.459936,1.237498 0.447505,0.449999 1.230641,0.449999 0.658828,0 1.193349,-0.125 0.534521,-0.1375 1.106334,-0.412499 v 1.437497 q -0.497229,0.25 -1.056612,0.3625 -0.546951,0.125 -1.330086,0.125 -1.019319,0 -1.802454,-0.375 -0.783135,-0.387499 -1.230641,-1.162498 -0.447506,-0.774998 -0.447506,-1.949997 0,-1.199997 0.397783,-1.987496 0.410214,-0.799998 1.131195,-1.199998 0.720982,-0.399999 1.678147,-0.399999 z m 0.01244,1.324997 q -0.534521,0 -0.895012,0.35 -0.34806,0.349999 -0.410214,1.087498 h 2.59802 q -0.01244,-0.624998 -0.323204,-1.024998 -0.310767,-0.4125 -0.969595,-0.4125 z m 12.505295,-1.324997 q 1.156056,0 1.740301,0.599999 0.596674,0.587499 0.596674,1.899996 v 4.449993 h -1.852178 v -3.987494 q 0,-1.474997 -1.019318,-1.474997 -0.733412,0 -1.04418,0.525 -0.310768,0.524998 -0.310768,1.512497 v 3.424994 h -1.852178 v -3.987494 q 0,-1.474997 -1.019318,-1.474997 -0.770705,0 -1.069042,0.587499 -0.285906,0.574999 -0.285906,1.662497 v 3.212495 h -1.852177 v -6.824989 h 1.417102 l 0.248614,0.874999 h 0.09944 q 0.310768,-0.524999 0.845288,-0.762499 0.546953,-0.237499 1.131196,-0.237499 0.745843,0 1.267933,0.249999 0.52209,0.2375 0.795566,0.749999 h 0.161599 q 0.310768,-0.524999 0.85772,-0.762499 0.559383,-0.237499 1.143626,-0.237499 z m 8.974986,4.924991 q 0,1.037498 -0.733413,1.599998 -0.720981,0.549999 -2.162945,0.549999 -0.70855,0 -1.218209,-0.1 -0.50966,-0.0875 -1.01932,-0.3 v -1.537497 q 0.546953,0.25 1.180919,0.412499 0.633966,0.1625 1.118765,0.1625 0.546951,0 0.770703,-0.1625 0.236184,-0.162499 0.236184,-0.424999 0,-0.175 -0.09944,-0.312499 -0.08702,-0.137501 -0.397783,-0.3125 -0.310768,-0.175 -0.969596,-0.449999 -0.633966,-0.275 -1.04418,-0.537499 -0.410214,-0.275 -0.609105,-0.649999 -0.198892,-0.387499 -0.198892,-0.962498 0,-0.949999 0.733412,-1.424998 0.733412,-0.474999 1.951623,-0.474999 0.633966,0 1.20578,0.124999 0.571813,0.125 1.180917,0.4125 l -0.559382,1.337497 q -0.497228,-0.212499 -0.944734,-0.349999 -0.447506,-0.15 -0.907443,-0.15 -0.820427,0 -0.820427,0.45 0,0.162499 0.09944,0.299999 0.111877,0.125 0.410214,0.275 0.310767,0.15 0.907442,0.4 0.584244,0.237498 1.006888,0.499999 0.422644,0.249999 0.646397,0.637498 0.236184,0.375 0.236184,0.987498 z m 1.180915,1.149998 q 0,-0.574999 0.310769,-0.799998 0.310767,-0.2375 0.758273,-0.2375 0.435075,0 0.745843,0.2375 0.310768,0.224999 0.310768,0.799998 0,0.549999 -0.310768,0.799999 -0.310768,0.2375 -0.745843,0.2375 -0.447506,0 -0.758273,-0.2375 -0.310769,-0.25 -0.310769,-0.799999 z m 9.969431,-2.549995 q 0,1.699997 -0.895013,2.624995 -0.88258,0.924999 -2.411559,0.924999 -0.944734,0 -1.690577,-0.4125 -0.733412,-0.412499 -1.156057,-1.199998 -0.422644,-0.799998 -0.422644,-1.937496 0,-1.699997 0.882581,-2.612496 0.882581,-0.912498 2.42399,-0.912498 0.957165,0 1.690577,0.412499 0.733412,0.412499 1.156057,1.199998 0.422645,0.774999 0.422645,1.912497 z m -4.686381,0 q 0,1.012498 0.323199,1.537497 0.335629,0.512499 1.081472,0.512499 0.733412,0 1.056611,-0.512499 0.335629,-0.524999 0.335629,-1.537497 0,-1.012498 -0.335629,-1.512497 -0.323199,-0.5125 -1.069042,-0.5125 -0.733412,0 -1.069041,0.5125 -0.323199,0.499999 -0.323199,1.512497 z m 10.006718,-3.524994 q 0.136738,0 0.323198,0.0125 0.186462,0.01251 0.298338,0.0375 l -0.136738,1.749997 q -0.08702,-0.025 -0.261045,-0.0375 -0.1616,-0.025 -0.285907,-0.025 -0.472367,0 -0.907442,0.174999 -0.435075,0.1625 -0.708551,0.5375 -0.261045,0.374999 -0.261045,1.024998 v 3.474994 h -1.852177 v -6.824989 h 1.404671 l 0.273476,1.149999 h 0.08702 q 0.298337,-0.525 0.820428,-0.899999 0.522089,-0.374999 1.205779,-0.374999 z m 3.928113,0 q 1.255503,0 1.964053,0.999998 h 0.04972 l 0.149169,-0.874999 h 1.56627 v 6.837488 q 0,1.462498 -0.857719,2.224997 -0.85772,0.762499 -2.535866,0.762499 -0.720983,0 -1.342518,-0.0875 -0.609105,-0.0875 -1.193349,-0.3125 v -1.487497 q 1.255503,0.524999 2.647742,0.524999 1.429533,0 1.429533,-1.549997 v -0.1375 q 0,-0.212499 0.01244,-0.4375 0.02486,-0.224999 0.0373,-0.399998 h -0.04972 q -0.34806,0.537499 -0.832858,0.774998 -0.484798,0.2375 -1.093903,0.2375 -1.20578,0 -1.889469,-0.924999 -0.671258,-0.937499 -0.671258,-2.599995 0,-1.674998 0.696119,-2.612496 0.69612,-0.937498 1.914331,-0.937498 z m 0.584244,1.512498 q -1.305226,0 -1.305226,2.062496 0,2.037496 1.330087,2.037496 0.708551,0 1.04418,-0.4 0.348061,-0.412499 0.348061,-1.424997 v -0.224999 q 0,-1.099999 -0.33563,-1.574998 -0.335629,-0.474998 -1.081472,-0.474998 z"
     id="text4163"
     style="font-weight:bold;font-size:12.4653px;line-height:125%;font-family:'ITC Eras Std';-inkscape-font-specification:'ITC Eras Std Bold';letter-spacing:0px;word-spacing:0px;stroke-width:1px"
     aria-label="www.rtems.org" />
  <path
     d="m 99.067776,1.1806637 -0.06197,0.7052499 h -0.555685 l -0.118412,1.3475308 q -0.03597,0.4092968 -0.02757,0.4785624 0.01154,0.066117 0.0627,0.1101953 0.05404,0.044078 0.135053,0.044078 0.112866,0 0.334507,-0.085008 l 0.0092,0.6863592 q -0.295253,0.1322343 -0.654131,0.1322343 -0.219952,0 -0.389584,-0.078711 -0.169355,-0.08186 -0.242219,-0.2077968 -0.06967,-0.1290859 -0.08243,-0.3463281 -0.01252,-0.1542733 0.0287,-0.6233904 l 0.128095,-1.4577261 h -0.373346 l 0.06197,-0.7052499 h 0.373346 L 97.75437,0.51634356 98.61584,-5.3668208e-8 98.512091,1.1806637 Z m 0.503586,0 h 0.749598 l -0.0401,0.4565233 q 0.44905,-0.5320858 1.00473,-0.5320858 0.29521,0 0.50066,0.1322343 0.20543,0.1322344 0.32084,0.3998515 0.22611,-0.2676171 0.47216,-0.3998515 0.24605,-0.1322343 0.51231,-0.1322343 0.33862,0 0.55976,0.151125 0.22143,0.1479766 0.31175,0.4376327 0.0651,0.2140937 0.023,0.6926561 l -0.18786,2.1377884 h -0.81323 l 0.16794,-1.911101 q 0.0437,-0.497453 -0.0275,-0.642281 -0.0963,-0.1889063 -0.33069,-0.1889063 -0.17076,0 -0.33122,0.1133438 -0.16046,0.1133437 -0.24639,0.3337342 -0.0856,0.2172421 -0.12713,0.6895076 l -0.1411,1.6057027 h -0.81332 l 0.16101,-1.83239 q 0.0429,-0.4880078 0.0119,-0.6296874 -0.031,-0.1416797 -0.1175,-0.2109453 -0.0837,-0.069266 -0.23991,-0.069266 -0.18812,0 -0.34831,0.1101953 -0.16018,0.1101953 -0.24501,0.317992 -0.0819,0.2077969 -0.12425,0.6895077 l -0.14275,1.6245933 h -0.813274 z"
     id="text4167"
     style="font-weight:900;font-size:6.18216px;line-height:125%;font-family:Helvetica;-inkscape-font-specification:'Helvetica Heavy';letter-spacing:0px;word-spacing:0px;fill:#bd0600;stroke-width:1px"
     aria-label="tm" />
</svg>
