<svg xmlns="http://www.w3.org/2000/svg" role="img" xmlns:xlink="http://www.w3.org/1999/xlink" viewBox="-5.33 -5.33 208.65 276.90"><defs><linearGradient id="a" x1="174.074" x2="132.276" y1="215.549" y2="141.753" gradientUnits="userSpaceOnUse"><stop offset="0" stop-color="#fb7655"/><stop offset="0" stop-color="#fb7655"/><stop offset=".41" stop-color="#e42b1e"/><stop offset=".99" stop-color="#900"/><stop offset="1" stop-color="#900"/></linearGradient><linearGradient id="c" x1="194.895" x2="141.028" y1="153.558" y2="117.409" gradientUnits="userSpaceOnUse"><stop offset="0" stop-color="#871101"/><stop offset="0" stop-color="#871101"/><stop offset=".99" stop-color="#911209"/><stop offset="1" stop-color="#911209"/></linearGradient><linearGradient id="d" x1="151.795" x2="97.93" y1="217.785" y2="181.638" gradientUnits="userSpaceOnUse"><stop offset="0" stop-color="#871101"/><stop offset="0" stop-color="#871101"/><stop offset=".99" stop-color="#911209"/><stop offset="1" stop-color="#911209"/></linearGradient><linearGradient id="e" x1="38.696" x2="47.047" y1="127.391" y2="181.661" gradientUnits="userSpaceOnUse"><stop offset="0" stop-color="#fff"/><stop offset="0" stop-color="#fff"/><stop offset=".23" stop-color="#e57252"/><stop offset=".46" stop-color="#de3b20"/><stop offset=".99" stop-color="#a60003"/><stop offset="1" stop-color="#a60003"/></linearGradient><linearGradient id="f" x1="96.133" x2="99.21" y1="76.715" y2="132.102" gradientUnits="userSpaceOnUse"><stop offset="0" stop-color="#fff"/><stop offset="0" stop-color="#fff"/><stop offset=".23" stop-color="#e4714e"/><stop offset=".56" stop-color="#be1a0d"/><stop offset=".99" stop-color="#a80d00"/><stop offset="1" stop-color="#a80d00"/></linearGradient><linearGradient id="g" x1="147.103" x2="156.314" y1="25.521" y2="65.216" gradientUnits="userSpaceOnUse"><stop offset="0" stop-color="#fff"/><stop offset="0" stop-color="#fff"/><stop offset=".18" stop-color="#e46342"/><stop offset=".4" stop-color="#c82410"/><stop offset=".99" stop-color="#a80d00"/><stop offset="1" stop-color="#a80d00"/></linearGradient><linearGradient id="h" x1="118.976" x2="158.669" y1="11.541" y2="-8.305" gradientUnits="userSpaceOnUse"><stop offset="0" stop-color="#fff"/><stop offset="0" stop-color="#fff"/><stop offset=".54" stop-color="#c81f11"/><stop offset=".99" stop-color="#bf0905"/><stop offset="1" stop-color="#bf0905"/></linearGradient><linearGradient id="i" x1="3.903" x2="7.17" y1="113.555" y2="146.263" gradientUnits="userSpaceOnUse"><stop offset="0" stop-color="#fff"/><stop offset="0" stop-color="#fff"/><stop offset=".31" stop-color="#de4024"/><stop offset=".99" stop-color="#bf190b"/><stop offset="1" stop-color="#bf190b"/></linearGradient><linearGradient id="j" x1="-18.556" x2="135.015" y1="155.105" y2="-2.809" gradientUnits="userSpaceOnUse"><stop offset="0" stop-color="#bd0012"/><stop offset="0" stop-color="#bd0012"/><stop offset=".07" stop-color="#fff"/><stop offset=".17" stop-color="#fff"/><stop offset=".27" stop-color="#c82f1c"/><stop offset=".33" stop-color="#820c01"/><stop offset=".46" stop-color="#a31601"/><stop offset=".72" stop-color="#b31301"/><stop offset=".99" stop-color="#e82609"/><stop offset="1" stop-color="#e82609"/></linearGradient><linearGradient id="k" x1="99.075" x2="52.818" y1="171.033" y2="159.617" gradientUnits="userSpaceOnUse"><stop offset="0" stop-color="#8c0c01"/><stop offset="0" stop-color="#8c0c01"/><stop offset=".54" stop-color="#990c00"/><stop offset=".99" stop-color="#a80d0e"/><stop offset="1" stop-color="#a80d0e"/></linearGradient><linearGradient id="l" x1="178.526" x2="137.433" y1="115.515" y2="78.684" gradientUnits="userSpaceOnUse"><stop offset="0" stop-color="#7e110b"/><stop offset="0" stop-color="#7e110b"/><stop offset=".99" stop-color="#9e0c00"/><stop offset="1" stop-color="#9e0c00"/></linearGradient><linearGradient id="m" x1="193.624" x2="173.154" y1="47.937" y2="26.054" gradientUnits="userSpaceOnUse"><stop offset="0" stop-color="#79130d"/><stop offset="0" stop-color="#79130d"/><stop offset=".99" stop-color="#9e120b"/><stop offset="1" stop-color="#9e120b"/></linearGradient><linearGradient id="p" x1="26.67" x2="9.989" y1="197.336" y2="140.742" gradientUnits="userSpaceOnUse"><stop offset="0" stop-color="#8b2114"/><stop offset="0" stop-color="#8b2114"/><stop offset=".43" stop-color="#9e100a"/><stop offset=".99" stop-color="#b3100c"/><stop offset="1" stop-color="#b3100c"/></linearGradient><linearGradient id="q" x1="154.641" x2="192.039" y1="9.798" y2="26.306" gradientUnits="userSpaceOnUse"><stop offset="0" stop-color="#b31000"/><stop offset="0" stop-color="#b31000"/><stop offset=".44" stop-color="#910f08"/><stop offset=".99" stop-color="#791c12"/><stop offset="1" stop-color="#791c12"/></linearGradient><linearGradient id="b" x1="174.074" x2="132.276" y1="215.549" y2="141.753" gradientUnits="userSpaceOnUse" xlink:href="#a"/><radialGradient id="n" cx="143.832" cy="79.388" r="50.358" gradientUnits="userSpaceOnUse"><stop offset="0" stop-color="#a80d00"/><stop offset="0" stop-color="#a80d00"/><stop offset=".99" stop-color="#7e0e08"/><stop offset="1" stop-color="#7e0e08"/></radialGradient><radialGradient id="o" cx="74.092" cy="145.751" r="66.944" gradientUnits="userSpaceOnUse"><stop offset="0" stop-color="#a30c00"/><stop offset="0" stop-color="#a30c00"/><stop offset=".99" stop-color="#800e08"/><stop offset="1" stop-color="#800e08"/></radialGradient></defs><path fill="url(#b)" fill-rule="evenodd" d="M153.5 130.41L40.38 197.58l146.469-9.939L198.13 39.95z" clip-rule="evenodd"/><path fill="url(#c)" fill-rule="evenodd" d="M187.089 187.54L174.5 100.65l-34.291 45.28z" clip-rule="evenodd"/><path fill="url(#d)" fill-rule="evenodd" d="M187.259 187.54L95.03 180.3l-54.16 17.091z" clip-rule="evenodd"/><path fill="url(#e)" fill-rule="evenodd" d="M41 197.41l23.04-75.48-50.7 10.841z" clip-rule="evenodd"/><path fill="url(#f)" fill-rule="evenodd" d="M140.2 146.18L119 63.14l-60.67 56.87z" clip-rule="evenodd"/><path fill="url(#g)" fill-rule="evenodd" d="M193.32 64.31l-57.35-46.84L120 69.1z" clip-rule="evenodd"/><path fill="url(#h)" fill-rule="evenodd" d="M166.5.77l-33.73 18.64L111.49.52z" clip-rule="evenodd"/><path fill="url(#i)" fill-rule="evenodd" d="M0 158.09l14.13-25.77-11.43-30.7z" clip-rule="evenodd"/><path fill="#fff" fill-rule="evenodd" d="M1.94 100.65l11.5 32.62 49.97-11.211 57.05-53.02 16.1-51.139L111.209 0l-43.1 16.13C54.53 28.76 28.18 53.75 27.23 54.22c-.94.48-17.4 31.59-25.29 46.43z" clip-rule="evenodd"/><path fill="url(#j)" fill-rule="evenodd" d="M42.32 42.05c29.43-29.18 67.37-46.42 81.93-31.73 14.551 14.69-.88 50.39-30.31 79.56s-66.9 47.36-81.45 32.67c-14.56-14.68.4-51.33 29.83-80.5z" clip-rule="evenodd"/><path fill="url(#k)" fill-rule="evenodd" d="M41 197.38l22.86-75.72 75.92 24.39c-27.45 25.74-57.98 47.5-98.78 51.33z" clip-rule="evenodd"/><path fill="url(#l)" fill-rule="evenodd" d="M120.56 68.89l19.49 77.2c22.93-24.11 43.51-50.03 53.589-82.09l-73.079 4.89z" clip-rule="evenodd"/><path fill="url(#m)" fill-rule="evenodd" d="M193.44 64.39c7.8-23.54 9.6-57.31-27.181-63.58l-30.18 16.67 57.361 46.91z" clip-rule="evenodd"/><path fill="#9e1209" fill-rule="evenodd" d="M0 157.75c1.08 38.851 29.11 39.43 41.05 39.771L13.47 133.11 0 157.75z" clip-rule="evenodd"/><path fill="url(#n)" fill-rule="evenodd" d="M120.669 69.01c17.62 10.83 53.131 32.58 53.851 32.98 1.119.63 15.31-23.93 18.53-37.81l-72.381 4.83z" clip-rule="evenodd"/><path fill="url(#o)" fill-rule="evenodd" d="M63.83 121.66l30.56 58.96c18.07-9.8 32.22-21.74 45.18-34.53l-75.74-24.43z" clip-rule="evenodd"/><path fill="url(#p)" fill-rule="evenodd" d="M13.35 133.19l-4.33 51.56c8.17 11.16 19.41 12.13 31.2 11.26-8.53-21.23-25.57-63.68-26.87-62.82z" clip-rule="evenodd"/><path fill="url(#q)" fill-rule="evenodd" d="M135.9 17.61l60.71 8.52C193.37 12.4 183.42 3.54 166.46.77L135.9 17.61z" clip-rule="evenodd"/><path d="M31.55891 213.00982h11.52237c2.14157 0 3.75232.28372 4.8231.84199 1.91277.97926 2.86458 2.91033 2.86458 5.78406 0 2.66323-.98842 4.43872-2.9561 5.34477-1.11654.51251-2.79136.76877-5.02444.76877h-11.2295zm21.25095-7.01043c-1.78464-.75046-4.3472-1.1623-7.66938-1.22637H21.8761v47.42567h9.68281v-18.59687h10.23194c2.91949 0 4.90547.50336 5.9671 1.51008s1.6199 3.02932 1.65651 6.04948l.06407 4.41126c.02745 1.3911.16473 2.75475.42099 4.0818.12813.64978.34778 1.49177.64064 2.54425h10.90918v-1.18976c-.94265-.57658-1.53753-1.48263-1.80294-2.69984-.16474-.77792-.25626-2.24224-.25626-4.41127v-3.1849c0-3.32217-.4576-5.7932-1.36364-7.41311-.9152-1.6199-2.4619-2.87373-4.64922-3.75232 2.61747-.8969 4.49363-2.43443 5.62848-4.61261 1.13485-2.17818 1.70227-4.39296 1.70227-6.64435 0-1.86701-.29286-3.53267-.8969-4.98784-.60403-1.46432-1.41855-2.79136-2.44358-3.99027-1.24467-1.46432-2.7639-2.56256-4.5577-3.31303zm24.82937 11.12883h-9.3991v21.14112c0 4.00858.50336 7.04704 1.51008 9.10624 1.80294 3.73402 5.299 5.60103 10.48819 5.60103 1.80294 0 3.37709-.23795 4.71328-.71386 1.34534-.46675 2.73645-1.34534 4.17331-2.63577.46675-.41184.8786-.8786 1.21722-1.41856.34777-.53082.55827-.8603.64979-.96096v4.95123h8.9049v-35.07047h-9.29844v19.08192c0 2.2514-.29286 4.0635-.8969 5.4363-1.1623 2.5351-3.30386 3.79807-6.43385 3.79807-2.44358 0-4.09094-.88774-4.92377-2.67238-.4759-1.00672-.7047-2.50765-.7047-4.50279zm6.43386-.9335zm54.4544 5.15258c-2.60832-3.33133-6.21421-4.98784-10.82682-4.98784-2.5534 0-4.65837.53081-6.30573 1.61075-1.3911.85113-2.67238 2.0958-3.82553 3.72486V204.8371h-9.14285v47.3616h8.97811v-4.40211c1.22637 1.71142 2.36122 2.91033 3.4137 3.59673 1.75718 1.1623 4.08179 1.73888 6.97382 1.73888 4.61261 0 8.20935-1.79379 10.78106-5.37222 2.57171-3.57843 3.86214-8.09952 3.86214-13.54496 0-5.25325-1.29958-9.54554-3.9079-12.86771zm-7.67853 21.36076c-1.30874 1.91277-3.13914 2.86458-5.50035 2.86458-2.71815 0-4.74989-.98842-6.07693-2.96525-1.32704-1.96768-1.99514-4.45702-1.99514-7.45888 0-2.5534.32032-4.63091.96096-6.24166 1.24468-3.02931 3.53268-4.5394 6.85485-4.5394 3.28557 0 5.53696 1.5467 6.75418 4.63092.64979 1.6382.97011 3.6974.97011 6.1776 0 3.11168-.65894 5.61933-1.96768 7.5321zm19.56698 16.21735v7.33075c.98841.07322 1.72972.10982 2.22393.11898.48506.00915 1.144.0183 1.95853.0183 4.05434 0 6.75418-.80538 8.10867-2.39782 1.3545-1.6016 3.1849-5.72916 5.50035-12.3735l12.03488-34.4939h-9.74688l-7.23923 25.8727-7.66022-25.8727h-10.19533l12.86771 36.61716c.08237.25625-.10067.96096-.56742 2.12326-.4576 1.15315-.96096 1.92192-1.49178 2.288-.55827.38438-1.24467.63149-2.0592.73216-.81453.10982-1.67481.14643-2.57171.10067zm12.41926-42.73069z"/></svg>