<svg xmlns="http://www.w3.org/2000/svg" viewBox="0 0 315.9 104.5" style="enable-background:new 0 0 315.9 104.5" xml:space="preserve"><path d="m103.8 51-4.5-2.8c0-.4-.1-.8-.1-1.2l3.8-3.6c.4-.4.5-.9.4-1.4-.1-.5-.5-.9-.9-1.1l-4.9-1.8-.3-1.2 3.1-4.3c.3-.4.4-1 .2-1.4-.2-.5-.6-.8-1.1-.9l-5.2-.8c-.2-.4-.4-.7-.6-1.1l2.2-4.8c.2-.5.2-1-.1-1.5s-.8-.7-1.3-.7l-5.3.2c-.2-.3-.5-.6-.7-.9l1.2-5.1c.1-.5 0-1-.4-1.4-.4-.4-.9-.5-1.4-.4L82.8 16c-.3-.2-.6-.5-.9-.7l.2-5.3c0-.5-.2-1-.7-1.3-.4-.3-1-.3-1.5-.1L75 10.9c-.3-.2-.7-.4-1.1-.6l-.8-5.2c-.1-.5-.4-.9-.9-1.1-.5-.2-1-.1-1.5.2l-4.3 3.1-1.2-.3-1.6-5c-.2-.5-.6-.9-1.2-1-.5-.1-1 .1-1.4.4l-3.6 3.8c-.4 0-.8-.1-1.2-.1L53.4.6c-.1-.3-.6-.6-1.2-.6s-1 .3-1.3.7l-2.8 4.5c-.4 0-.8.1-1.2.1l-3.6-3.8c-.4-.4-.9-.5-1.4-.4-.5.1-.9.5-1.1.9L39 6.9c-.3.1-.7.2-1 .3l-4.2-3.1c-.4-.3-1-.4-1.4-.2-.5.2-.8.6-.9 1.1l-.8 5.2c-.4.2-.7.4-1.1.6l-4.8-2.2c-.5-.2-1-.2-1.5.1-.4.3-.7.8-.7 1.3l.2 5.3c-.3.2-.6.5-.9.7l-5.1-1.2c-.5-.1-1 0-1.4.4-.4.4-.5.9-.4 1.4l1.2 5.1c-.3.3-.5.6-.7.9l-5.3-.2c-.5 0-1 .2-1.3.7-.3.4-.3 1-.1 1.5l2.2 4.8c-.2.3-.4.7-.6 1.1l-5.2.8c-.5.1-.9.4-1.1.9-.2.5-.1 1 .2 1.4L7.2 38l-.3 1.2L2 40.9c-.5.2-.8.6-.9 1.1-.1.5.1 1 .4 1.4L5.3 47c0 .4-.1.8-.1 1.2L.7 51c-.4.2-.7.7-.7 1.2s.3 1 .7 1.3l4.5 2.8c0 .4.1.8.1 1.2l-3.8 3.6c-.4.4-.5.9-.4 1.4 0 .5.4.9.9 1.1l4.9 1.8.3 1.2-3.1 4.3c-.3.4-.4 1-.2 1.4s.6.8 1.1.9l5.2.8c.2.4.4.7.6 1.1l-2.2 4.8c-.2.5-.2 1 .1 1.5.3.4.8.7 1.3.7l5.3-.2c.2.3.5.6.7.9l-1.2 5.1c-.1.5 0 1 .4 1.4.4.4.9.5 1.4.4l5.1-1.2c.3.2.6.5.9.7l-.2 5.3c0 .5.2 1 .7 1.3s1 .3 1.5.1l4.8-2.2c.3.2.7.4 1.1.6l.8 5.2c.1.5.4.9.9 1.1.5.2 1 .1 1.4-.2l4.3-3.1 1.2.3 1.8 4.9c.2.5.6.8 1.1.9.5.1 1-.1 1.4-.4l3.6-3.8c.4 0 .8.1 1.2.1l2.8 4.5c.3.4.8.7 1.3.7s1-.3 1.3-.7l2.8-4.5c.4 0 .8-.1 1.2-.1l3.6 3.8c.4.4.9.5 1.4.4.5-.1.9-.5 1.1-.9l1.8-4.9 1.2-.3 4.2 3.1c.4.3 1 .4 1.5.2s.8-.6.9-1.1l.8-5.2c.4-.2.7-.4 1.1-.6l4.8 2.2c.5.2 1 .2 1.5-.1.4-.3.7-.8.7-1.3l-.2-5.3c.3-.2.6-.5.9-.7l5.1 1.2c.5.1 1 0 1.4-.4.4-.4.5-.9.4-1.4l-1.2-5.1c.2-.3.5-.6.7-.9l5.3.2c.5 0 1-.2 1.3-.7.3-.4.3-1 .1-1.5L93.6 75c.2-.3.4-.7.6-1.1l5.2-.8c.5-.1.9-.4 1.1-.9s.1-1-.2-1.4l-3.1-4.3.3-1.2 4.9-1.8c.5-.2.8-.6.9-1.1.1-.5-.1-1-.4-1.4l-3.8-3.6c0-.4.1-.8.1-1.2l4.5-2.8c.4-.3.7-.8.7-1.3s-.2-.9-.6-1.1zM73 77.3c-1.5-.3-3 .6-3.4 2.2L68 86.8c-10.2 4.6-21.8 4.5-31.9-.1l-1.6-7.3c-.3-1.5-1.8-2.5-3.4-2.2l-6.4 1.4c-1.2-1.2-2.3-2.5-3.3-3.9h31.3c.3 0 .6-.1.6-.4V63.2c0-.3-.2-.4-.6-.4h-9.2v-7h9.9c.9 0 4.8.3 6.1 5.3.4 1.5 1.3 6.6 1.8 8.2.6 1.8 3 5.4 5.5 5.4h16.1c-1.1 1.4-2.3 2.8-3.5 4.1L73 77.3zm5.2 7.1c0 1.7-1.4 3.1-3.1 3.1-1.7 0-3.1-1.4-3.1-3.1 0-1.7 1.4-3.1 3.1-3.1h.1c1.7 0 3 1.4 3 3.1zm-46-.2c0 1.7-1.4 3.1-3.1 3.1-1.7 0-3.1-1.4-3.1-3.1 0-1.7 1.4-3.1 3.1-3.1h.1c1.6.1 3 1.4 3 3.1zm-18-36.4 6.7-3c1.4-.6 2.1-2.3 1.4-3.7L21 38h5.4v24.4h-11c-1.3-4.7-1.7-9.7-1.2-14.6zm-2.3-7.4c0-1.7 1.4-3.1 3.1-3.1h.1c1.7 0 3 1.4 3 3.1 0 1.7-1.4 3.1-3.1 3.1-1.7 0-3.1-1.4-3.1-3.1zm31.7 5v-7.2h12.9c.7 0 4.7.8 4.7 3.8 0 2.5-3.1 3.4-5.6 3.4h-12zm37.8 17.2c-2 .2-4.2-.8-4.5-2.1-1.2-6.6-3.1-8-6.2-10.5 3.8-2.4 7.8-6 7.8-10.9 0-5.2-3.6-8.5-6-10.1-3.4-2.2-7.2-2.7-8.2-2.7H23.7c5.6-6.3 13.1-10.5 21.4-12.1l4.8 5c1.1 1.1 2.9 1.2 4 .1l5.4-5.1c11.1 2.1 20.6 8.9 26.2 18.7l-3.7 8.3c-.6 1.4 0 3.1 1.4 3.8l7.1 3.1c.2 2.2.2 4.4.1 6.6h-3.9c-.4 0-.6.3-.6.6v1.8c0 4.3-2.4 5.3-4.5 5.5zM49 12.3c0-1.7 1.4-3.1 3.1-3.1h.1c1.7 0 3 1.4 3 3.1 0 1.7-1.4 3.1-3.1 3.1S49 14 49 12.3zm40.2 31.4c-1.7 0-3.1-1.4-3.1-3.1 0-1.7 1.4-3.1 3.1-3.1h.1c1.7 0 3 1.4 3 3.1 0 1.7-1.4 3.1-3.1 3.1zM122 45.8v-25h11.5c1.2 0 2.3.3 3.4.8 1 .5 1.9 1.2 2.7 2s1.3 1.7 1.7 2.8c.4 1 .6 2.1.6 3.2 0 1.5-.3 2.8-1 4.1-.6 1.3-1.5 2.3-2.6 3.1l5.3 9.2h-7.7l-4.4-7.7h-2.6V46H122zm6.9-13.7h4.3c.4 0 .8-.2 1.2-.7.4-.5.5-1.1.5-2 0-.9-.2-1.5-.6-2s-.8-.7-1.3-.7h-4.2v5.4zM150.6 46.2c-1.9 0-3.3-.6-4.3-1.7s-1.5-2.8-1.5-5V27.3h6.7V38c0 .8.2 1.5.5 1.9.4.4.9.7 1.5.7.5 0 1-.1 1.6-.4.5-.2 1.1-.8 1.6-1.5V27.3h6.7v11.1c0 .6.1 1.1.3 1.3.2.2.5.4 1 .4v5.6c-1.2.2-2.1.4-2.8.4-2.3 0-3.6-.9-3.9-2.6l-.1-.7c-.9 1.2-1.9 2-3.1 2.5-1.2.6-2.6.9-4.2.9zM175.1 46.2c-1.6 0-3.2-.3-4.8-.8s-2.9-1.3-3.9-2.3l2.3-4c1.2.8 2.3 1.4 3.3 1.8 1.1.4 2 .6 2.9.6.9 0 1.4-.3 1.4-.9 0-.3-.2-.6-.5-.8-.4-.2-1.1-.5-2.1-.8-1.3-.4-2.4-.7-3.3-1.1-.9-.4-1.6-.8-2.1-1.2-.6-.4-.9-.9-1.2-1.4-.2-.5-.4-1.1-.4-1.8 0-.9.2-1.8.6-2.6.4-.8.9-1.5 1.6-2.1s1.5-1 2.4-1.4 1.9-.5 3-.5c1.4 0 2.7.2 3.9.5 1.2.4 2.5 1.1 3.7 2.1l-2.5 4c-1.2-.8-2.1-1.3-2.9-1.6-.8-.3-1.5-.5-2.2-.5-.4 0-.7.1-1 .2-.3.2-.4.4-.4.7 0 .4.2.6.6.9.4.2 1.1.5 2.2.8 1.3.4 2.5.7 3.4 1.1.9.4 1.6.8 2.2 1.3s.9 1 1.2 1.5c.2.6.4 1.2.4 2 0 1-.2 1.8-.5 2.6s-.9 1.4-1.5 1.9c-.7.5-1.5 1-2.4 1.2-1.1.4-2.2.6-3.4.6zM197.9 44.8c-.9.4-1.9.7-3 1s-2.1.4-3.2.4c-.8 0-1.5-.1-2.1-.3-.7-.2-1.3-.5-1.8-.9s-.9-1-1.2-1.7c-.3-.7-.4-1.5-.4-2.5v-8.5h-2.3v-5h2.3v-5.8h6.7v5.8h3.6v5h-3.6v6.1c0 .6.1 1 .4 1.3.3.2.6.4 1.1.4.3 0 .7-.1 1.1-.2s.8-.3 1.3-.4l1.1 5.3zM122 76.7v-25h17.2v6h-10.3v4.2h8.4v5.6h-8.4v9.3H122zM149.5 77.1c-1.7 0-3.1-.3-4.4-.8s-2.3-1.2-3.2-2.1c-.9-.9-1.5-1.9-1.9-3.1-.4-1.2-.7-2.4-.7-3.6 0-1.3.2-2.5.7-3.6.4-1.2 1.1-2.2 1.9-3.1s1.9-1.6 3.2-2.1 2.7-.8 4.4-.8c1.6 0 3.1.3 4.4.8 1.3.5 2.3 1.2 3.2 2.1s1.5 1.9 1.9 3.1c.4 1.2.7 2.4.7 3.6 0 1.3-.2 2.5-.7 3.6-.4 1.2-1.1 2.2-1.9 3.1-.9.9-1.9 1.6-3.2 2.1-1.3.5-2.7.8-4.4.8zm-3.3-9.7c0 1.2.3 2.2.9 2.9.6.7 1.4 1.1 2.4 1.1s1.7-.4 2.4-1.1c.6-.7.9-1.7.9-2.9s-.3-2.2-.9-2.9c-.6-.7-1.4-1.1-2.4-1.1s-1.7.4-2.4 1.1c-.6.7-.9 1.7-.9 2.9zM167.6 77.1c-1.9 0-3.3-.6-4.3-1.7s-1.5-2.8-1.5-5V58.2h6.7v10.7c0 .8.2 1.5.5 1.9s.9.7 1.5.7c.5 0 1-.1 1.6-.4.5-.2 1.1-.8 1.6-1.5V58.2h6.7v11.1c0 .6.1 1.1.3 1.3.2.2.5.4 1 .4v5.6c-1.2.2-2.1.4-2.8.4-2.3 0-3.6-.9-3.9-2.6l-.1-.7c-.9 1.2-1.9 2-3.1 2.5-1.3.6-2.6.9-4.2.9zM203.1 76.7h-6.7V66.3c0-.9-.2-1.6-.6-2-.4-.4-.9-.6-1.4-.6-.6 0-1.2.2-1.8.7-.6.5-1.1 1.1-1.4 1.9v10.4h-6.7V58.2h6v2.7c.7-1 1.6-1.8 2.8-2.3 1.2-.5 2.6-.8 4.2-.8 1.3 0 2.3.2 3 .7.7.5 1.3 1 1.7 1.7.4.7.6 1.4.8 2.2.1.8.2 1.5.2 2.1v12.2zM214.1 77.1c-1.3 0-2.4-.2-3.5-.7-1.1-.5-2-1.1-2.8-2-.8-.9-1.4-1.9-1.8-3.1-.4-1.2-.7-2.5-.7-3.9s.2-2.6.6-3.8c.4-1.2 1-2.2 1.7-3 .7-.9 1.6-1.5 2.6-2s2.1-.7 3.3-.7c1.2 0 2.3.3 3.3.8s1.8 1.3 2.3 2.3V51h6.7v18.3c0 .6.1 1.1.3 1.3.2.2.5.4 1 .4v5.6c-1.2.2-2.1.4-2.8.4-2.3 0-3.6-.9-3.9-2.6l-.1-.7c-.6 1.1-1.5 1.9-2.6 2.5-1.2.6-2.4.9-3.6.9zm1.8-5.7c1.2 0 2.3-.6 3.2-1.9v-3.3c-.3-.8-.8-1.5-1.4-2-.6-.5-1.3-.8-2-.8-.5 0-.9.1-1.4.3-.4.2-.8.5-1.1.9-.3.4-.5.8-.7 1.3-.2.5-.3 1-.3 1.6 0 1.2.3 2.1 1 2.8s1.6 1.1 2.7 1.1zM235.2 77.1c-.9 0-1.8-.2-2.6-.5s-1.5-.7-2.1-1.3c-.6-.5-1-1.2-1.4-1.9s-.5-1.5-.5-2.4c0-.9.2-1.8.6-2.6.4-.8 1-1.4 1.7-2 .7-.6 1.5-1 2.5-1.3 1-.3 2-.5 3.2-.5 1.5 0 2.7.2 3.7.7v-.6c0-.9-.3-1.5-.8-1.9s-1.3-.6-2.4-.6c-1.1 0-2 .2-2.9.5-.9.3-1.8.8-2.8 1.5l-1.9-4.2c2.4-1.6 5.2-2.4 8.3-2.4 3 0 5.2.7 6.8 2 1.6 1.3 2.4 3.3 2.4 5.9v3.6c0 .6.1 1.1.3 1.3.2.2.5.4 1 .4v5.6c-.5.1-1.1.2-1.5.3s-.9.1-1.3.1c-1.2 0-2.1-.2-2.7-.7-.6-.4-1-1.1-1.2-1.9l-.1-.7c-.8 1.1-1.8 1.9-2.9 2.4s-2.1 1.2-3.4 1.2zm2-4.8c.4 0 .8-.1 1.2-.2.4-.1.8-.3 1.1-.5.3-.2.5-.4.6-.6.2-.2.2-.5.2-.7v-1.4c-.4-.1-.8-.3-1.3-.4s-.9-.1-1.3-.1c-.8 0-1.5.2-2 .6-.5.4-.8.9-.8 1.5 0 .5.2.9.6 1.3s1.1.5 1.7.5zM263.7 75.7c-.9.4-1.9.7-3 1s-2.1.4-3.2.4c-.8 0-1.5-.1-2.1-.3-.7-.2-1.3-.5-1.8-.9s-.9-1-1.2-1.7c-.3-.7-.4-1.5-.4-2.5v-8.5h-2.3v-5h2.3v-5.8h6.7v5.8h3.6v5h-3.6v6.1c0 .6.1 1 .4 1.3.3.2.6.4 1.1.4.3 0 .7-.1 1.1-.2s.8-.3 1.3-.4l1.1 5.3zM265.6 56.6V51h6.7v5.6h-6.7zm0 20.1V58.2h6.7v18.5h-6.7zM284.8 77.1c-1.7 0-3.1-.3-4.4-.8s-2.3-1.2-3.2-2.1c-.9-.9-1.5-1.9-1.9-3.1-.4-1.2-.7-2.4-.7-3.6 0-1.3.2-2.5.7-3.6.4-1.2 1.1-2.2 1.9-3.1s1.9-1.6 3.2-2.1 2.7-.8 4.4-.8c1.6 0 3.1.3 4.4.8 1.3.5 2.3 1.2 3.2 2.1s1.5 1.9 1.9 3.1c.4 1.2.7 2.4.7 3.6 0 1.3-.2 2.5-.7 3.6-.4 1.2-1.1 2.2-1.9 3.1-.9.9-1.9 1.6-3.2 2.1-1.3.5-2.8.8-4.4.8zm-3.3-9.7c0 1.2.3 2.2.9 2.9.6.7 1.4 1.1 2.4 1.1s1.7-.4 2.4-1.1c.6-.7.9-1.7.9-2.9s-.3-2.2-.9-2.9c-.6-.7-1.4-1.1-2.4-1.1s-1.7.4-2.4 1.1c-.6.7-.9 1.7-.9 2.9zM315.9 76.7h-6.7V66.3c0-.9-.2-1.6-.6-2-.4-.4-.9-.6-1.4-.6-.6 0-1.2.2-1.8.7-.6.5-1.1 1.1-1.4 1.9v10.4h-6.7V58.2h6v2.7c.7-1 1.6-1.8 2.8-2.3 1.2-.5 2.6-.8 4.2-.8 1.3 0 2.3.2 3 .7.7.5 1.3 1 1.7 1.7.4.7.6 1.4.8 2.2.1.8.2 1.5.2 2.1v12.2z"/></svg>