<?xml version="1.0" encoding="UTF-8"?>
<svg version="1.1" xmlns="http://www.w3.org/2000/svg" width="2000" height="1449">
<path d="M0 0 C114.51 0 229.02 0 347 0 C350.74219137 7.48438274 352.89421613 12.53808333 354.09863281 20.41577148 C354.44107219 22.46217176 354.78388276 24.50850995 355.12701416 26.55479431 C355.30079842 27.62447889 355.47458267 28.69416348 355.65363312 29.79626274 C356.6007477 35.52700423 357.65048405 41.23933169 358.68359375 46.95507812 C359.98880355 54.19886766 361.26279812 61.44350575 362.41650391 68.71313477 C365.08908123 96.24208829 365.08908123 96.24208829 378.78540039 118.47241211 C384.01390631 121.2235946 389.27945166 122.59366914 395.09442139 123.50521851 C399.04421511 124.17781598 402.4384118 125.61059289 406.08984375 127.19921875 C408.36851297 128.0392544 410.65103878 128.86891072 412.9375 129.6875 C413.5527655 129.90990356 414.16803101 130.13230713 414.80194092 130.3614502 C488.98886434 157.15477147 569.38997098 168.13284347 648 160 C649.20060059 159.87641113 650.40120117 159.75282227 651.63818359 159.62548828 C706.82947943 153.69441897 760.13404419 139.06529786 811 117 C813.33264936 115.99840005 815.66642459 114.99944178 818 114 C818.10831146 113.01631439 818.21662292 112.03262878 818.32821655 111.01913452 C819.35537406 101.69319766 820.38492227 92.36752733 821.41673851 83.04210472 C821.94697312 78.24922757 822.47640074 73.45626429 823.00390625 68.66308594 C823.5141715 64.02684621 824.02665818 59.39085669 824.54060745 54.75502396 C824.73511523 52.99713281 824.92885775 51.23915678 825.12177658 49.48109055 C828.78351429 16.12885 828.78351429 16.12885 834 7 C834.32158384 6.41369039 834.64316768 5.82738078 834.97449648 5.22330421 C837.20223126 1.92098038 838.90642548 0.24553799 842.86345744 -0.6429261 C846.6134932 -0.88581028 850.33071999 -0.90005234 854.08480835 -0.84178162 C855.54192573 -0.84483513 856.99903937 -0.85096604 858.45613253 -0.85990578 C862.45642371 -0.8755533 866.4554022 -0.84756854 870.45552611 -0.81245935 C874.77038871 -0.78223027 879.08517727 -0.79245967 883.40011597 -0.79777527 C890.87470414 -0.8014458 898.3488646 -0.7794834 905.82334518 -0.7401104 C916.63011327 -0.6832211 927.43667453 -0.66499033 938.24357612 -0.65619446 C955.7769219 -0.64087399 973.31003972 -0.59428933 990.84326172 -0.52807617 C1007.87515116 -0.46382315 1024.90697868 -0.41427413 1041.93896484 -0.38452148 C1042.98881095 -0.38268242 1044.03865705 -0.38084336 1045.12031667 -0.37894856 C1050.38708555 -0.3698133 1055.65385488 -0.36096734 1060.92062449 -0.35226524 C1104.61390757 -0.27969798 1148.30694202 -0.15640575 1192 0 C1193.27601331 2.49747023 1194.54586171 4.99777936 1195.8125 7.5 C1196.34713867 8.54414062 1196.34713867 8.54414062 1196.89257812 9.609375 C1200.89202168 17.53487782 1204.68887438 25.06121377 1202.49609375 34.0703125 C1200.4022566 40.36378874 1197.06535265 45.18150215 1191.125 48.375 C1187.01580633 49.96051485 1183.50350511 50.19491304 1179.11279297 50.15307617 C1178.12995236 50.14432732 1178.12995236 50.14432732 1177.12725639 50.13540173 C1170.09623046 50.04275526 1163.08731339 49.60734249 1156.0703125 49.17578125 C1152.57800505 48.98922186 1149.08492319 48.81824966 1145.59179878 48.64776325 C1141.98263561 48.46860375 1138.37690334 48.26841651 1134.77148438 48.0246582 C1131.23475995 47.78669341 1127.69901614 47.60511 1124.15728378 47.46071434 C1122.18268197 47.36568135 1120.21112683 47.21289979 1118.24026489 47.05867004 C1112.89529235 46.87845279 1109.44804869 46.9092832 1105.0871582 50.19404602 C1102.04419051 53.56635483 1099.41688136 56.7111246 1098.58682251 61.26853943 C1098.79581543 63.52895048 1099.31820674 65.41729549 1100.046875 67.56640625 C1100.49819041 69.22147779 1100.94935374 70.87659081 1101.40039062 72.53173828 C1101.66150635 73.41033508 1101.92262207 74.28893188 1102.19165039 75.19415283 C1103.65634577 80.2782295 1104.80386813 85.44083799 1106.015625 90.58984375 C1106.54759768 92.79798017 1107.0814705 95.00565963 1107.6171875 97.21289062 C1108.0188916 98.87155151 1108.0188916 98.87155151 1108.42871094 100.5637207 C1108.97951859 102.82638746 1109.53425366 105.08810151 1110.09277344 107.34887695 C1110.91296103 110.67628325 1111.71563315 114.00753237 1112.515625 117.33984375 C1112.76556213 118.33386703 1113.01549927 119.32789032 1113.27301025 120.35203552 C1115.3769897 129.22581627 1117.10090945 139.08231402 1112.2734375 147.31640625 C1109.32036992 151.22061523 1105.54962513 154.16324884 1101 156 C1091.39036976 157.08249673 1082.40856561 155.30973076 1073.17097855 152.85347366 C1070.97935079 152.27325421 1068.7825862 151.71842116 1066.58285522 151.16976929 C1060.34165596 149.60991887 1054.10955708 148.01674384 1047.88720703 146.38330078 C1044.0531684 145.37866525 1040.21131582 144.4110052 1036.3622551 143.46564865 C1034.90830158 143.10081227 1033.45776844 142.72203485 1032.01124954 142.32875443 C1024.20987298 139.94345317 1024.20987298 139.94345317 1016.42449951 141.05535889 C1014.38268444 142.57067446 1012.73911948 144.15225778 1011 146 C1010.27969101 146.49607254 1009.55938202 146.99214508 1008.81724548 147.50325012 C1006.61486846 148.96395469 1006.61486846 148.96395469 1006.62182617 152.31762695 C1006.65792278 153.70854673 1006.71668979 155.09898564 1006.79296875 156.48828125 C1006.83099106 157.6265033 1006.83099106 157.6265033 1006.86978149 158.78771973 C1006.92739444 160.43414846 1006.99442683 162.08026828 1007.06973267 163.72598267 C1007.18842597 166.33283693 1007.28150543 168.93949663 1007.36791992 171.54760742 C1007.61577547 178.83411192 1007.92060869 186.11812785 1008.22753906 193.40234375 C1008.40842768 197.71744013 1008.56928392 202.0329427 1008.71939087 206.34921265 C1008.81060352 208.76232683 1008.92755528 211.17328027 1009.0456543 213.58520508 C1009.40619984 222.42396927 1009.50874635 230.93417356 1003.28881836 237.92260742 C998.78149559 242.19580073 994.10828354 243.99913833 987.9375 244.4375 C974.9863714 243.93307435 961.22511152 235.04191541 949.6875 229.625 C947.90711075 228.79121873 946.12651276 227.95788302 944.34570312 227.125 C943.47245392 226.71602478 942.59920471 226.30704956 941.69949341 225.88568115 C939.95754779 225.07510186 938.2123308 224.27151389 936.46383667 223.47515869 C932.43719484 221.63847514 928.4975593 219.75612498 924.63525391 217.59277344 C923.94744339 217.23162445 923.25963287 216.87047546 922.55097961 216.49838257 C920.72795954 215.53782757 918.93241031 214.52561799 917.13989258 213.50927734 C912.45106551 212.17241698 908.05784303 214.19163885 903.89079285 216.27631283 C900.02416865 218.61234412 898.08670273 220.77469511 896.78412056 225.26913929 C896.01619093 228.87667321 895.54798181 232.4920803 895.11328125 236.15234375 C894.87718946 237.73829922 894.63523628 239.32339206 894.38774109 240.90760803 C893.75344892 245.06220392 893.19358364 249.22339624 892.65081787 253.39080811 C891.97997671 258.44057311 891.22554842 263.47837726 890.47976208 268.51751804 C889.90017778 272.44084975 889.33401766 276.36441222 888.81037903 280.29563904 C886.2703259 299.01979896 886.2703259 299.01979896 878.0390625 305.58984375 C872.90389466 309.1411763 867.10772454 309.90882941 861 309 C855.41611211 306.99535778 850.96339254 304.10217008 846.1875 300.625 C845.45684326 300.10115723 844.72618652 299.57731445 843.97338867 299.03759766 C841.64405778 297.36504138 839.32173088 295.6830858 837 294 C835.46123134 292.89021746 833.92217059 291.7808398 832.3828125 290.671875 C829.35318203 288.48752015 826.32606517 286.29974521 823.30078125 284.109375 C816.56016442 279.23045147 816.56016442 279.23045147 809.77587891 274.41259766 C807.1947638 272.59558359 804.68450207 270.74457573 802.23046875 268.7578125 C797.91789241 265.15599001 797.91789241 265.15599001 792.6328125 263.984375 C790.33520319 264.49495485 788.21391254 265.20756636 786 266 C784.65176306 266.24377716 783.29710235 266.45573224 781.9375 266.625 C780.968125 266.74875 779.99875 266.8725 779 267 C778.76352753 267.83849991 778.76352753 267.83849991 778.52227783 268.69393921 C776.32412803 276.26736371 773.66252021 283.6477791 770.921875 291.0390625 C770.67961433 291.69289288 770.43735367 292.34672325 770.18775177 293.02036667 C768.90668032 296.47418823 767.62076759 299.92616738 766.33154297 303.37695312 C765.2745847 306.20906658 764.22787264 309.04464845 763.18994141 311.88378906 C761.92482183 315.34425367 760.64233472 318.79780928 759.34751129 322.24726486 C758.8616007 323.55022435 758.38157083 324.85539454 757.90792084 326.16286087 C754.95597276 334.2931199 751.84018898 342.63159554 743.97723389 347.16665649 C738.44190245 349.65707228 732.53750166 349.95983407 726.7109375 348.37890625 C718.02511207 345.02098405 712.62504391 337.80872455 706.71484375 330.93359375 C704.4995262 328.43568444 702.1310183 326.11975011 699.75 323.78125 C697.29365151 321.28103815 695.03690632 318.62319484 692.75 315.96875 C691.06201714 314.06976929 689.31230266 312.27994012 687.5 310.5 C685.08667283 308.12957643 682.82728147 305.69263692 680.625 303.125 C679.74521484 302.14080078 679.74521484 302.14080078 678.84765625 301.13671875 C677 299 677 299 675.12109375 296.45703125 C671.41560292 291.80621351 671.41560292 291.80621351 666.03417969 289.70703125 C661.28627635 289.59576898 656.67352746 290.21438864 652 291 C651.72631592 291.72856201 651.45263184 292.45712402 651.1706543 293.20776367 C650.05125446 295.87774821 648.77985618 298.20988778 647.26953125 300.67578125 C646.44690796 302.02397949 646.44690796 302.02397949 645.60766602 303.39941406 C645.01526123 304.36073242 644.42285645 305.32205078 643.8125 306.3125 C643.19753662 307.31635742 642.58257324 308.32021484 641.94897461 309.35449219 C635.60807075 319.68378374 629.20720006 329.97721822 622.74169922 340.22900391 C621.53598357 342.14726472 620.34034116 344.07188022 619.15283203 346.00146484 C618.54938965 346.97293457 617.94594727 347.9444043 617.32421875 348.9453125 C616.78756592 349.81687988 616.25091309 350.68844727 615.69799805 351.58642578 C612.44990058 356.20334765 608.39855145 360.20048285 603 362 C595.26668819 362.64532424 588.33353142 362.87747911 582 358 C576.66877126 352.00818271 572.70137385 344.82758665 568.5625 338 C567.15287393 335.68898351 565.74035925 333.37973581 564.328125 331.0703125 C563.97107986 330.48557159 563.61403473 329.90083069 563.24617004 329.29837036 C559.47717404 323.13078731 555.64920422 317.00069337 551.8125 310.875 C551.20156494 309.89917969 550.59062988 308.92335938 549.96118164 307.91796875 C548.82395512 306.10220499 547.68121616 304.2898775 546.53198242 302.48168945 C545.55131932 300.89309337 544.6117902 299.27788955 543.7277832 297.63354492 C541.62004135 293.80203472 540.53085125 292.26512906 536.50390625 290.25390625 C531.59085655 289.14400423 526.56425594 288.4065598 522.11572266 291.17089844 C518.13317234 294.60943216 514.93582813 298.71691406 511.71337891 302.85546875 C509.01812977 306.22894672 506.04159089 309.31595083 503.0625 312.4375 C501.90487064 313.67579527 500.74863369 314.91539362 499.59375 316.15625 C497.07876405 318.84928806 494.55697471 321.53578173 492.03125 324.21875 C491.36859131 324.92330322 490.70593262 325.62785645 490.02319336 326.35375977 C488.76217821 327.69391221 487.50006054 329.03302856 486.23657227 330.37084961 C483.18942189 333.6103184 480.23458153 336.89158408 477.359375 340.28515625 C472.94569762 345.35038528 468.10905086 348.29754501 461.41796875 349.44140625 C455.43598967 349.7262624 450.88638415 348.42664513 446 345 C441.10672904 340.38645079 438.51910877 335.3646542 436.21875 329.12890625 C435.88838745 328.26906631 435.5580249 327.40922638 435.21765137 326.52333069 C434.50557067 324.66349707 433.80025919 322.80106025 433.10107422 320.93634033 C431.97276567 317.9273716 430.82618379 314.9258785 429.67578125 311.92529297 C427.66702427 306.6732604 425.68137535 301.41288399 423.70605469 296.14819336 C422.47841934 292.88004913 421.24316249 289.61484415 420.0078125 286.34960938 C419.22349577 284.26319466 418.43962403 282.1766126 417.65625 280.08984375 C417.28761841 279.11812729 416.91898682 278.14641083 416.53918457 277.14524841 C416.03735657 275.80092491 416.03735657 275.80092491 415.52539062 274.42944336 C415.08193298 273.25084999 415.08193298 273.25084999 414.6295166 272.04844666 C414 270 414 270 414 267 C412.36958491 266.7918619 410.73915116 266.58386928 409.10864258 266.37646484 C407 266 407 266 404.9597168 265.29931641 C401.54870763 264.18480123 399.1190379 263.56427053 395.70141602 264.89501953 C393.26805179 266.39147207 391.01744035 268.01244043 388.75 269.75 C387.91791016 270.35328125 387.08582031 270.9565625 386.22851562 271.578125 C383.79445991 273.35519274 381.39262565 275.16765963 379 277 C378.39607422 277.46083984 377.79214844 277.92167969 377.16992188 278.39648438 C374.58544993 280.37760186 372.01773204 282.37888061 369.45703125 284.390625 C364.40308481 288.27804212 359.08408907 291.80000867 353.796875 295.359375 C349.34810865 298.3602292 345.00574364 301.44552607 340.7565918 304.72412109 C334.90907663 308.97139201 329.0243606 309.99089726 322 309 C315.61655405 306.93149661 310.80694555 303.15996638 307.45341492 297.29534912 C305.86906328 293.70312525 305.18403883 290.5228501 304.55786133 286.64941406 C304.4403804 285.93973984 304.32289948 285.23006561 304.20185852 284.49888611 C303.81917671 282.17255619 303.45045993 279.84425099 303.08203125 277.515625 C302.81808819 275.89218138 302.55332039 274.26887166 302.2877655 272.64569092 C301.5934619 268.38670152 300.91122796 264.1258615 300.23126221 259.86456299 C299.67281976 256.37789935 299.10582621 252.89265199 298.53838062 249.407444 C297.86265913 245.2564523 297.19047735 241.104891 296.51953125 236.953125 C296.39120218 236.15922615 296.26287312 235.3653273 296.13065529 234.54737091 C295.76986644 232.30954765 295.41144659 230.07135991 295.05395508 227.83300781 C294.84982498 226.55870911 294.64569489 225.2844104 294.43537903 223.97149658 C294 221 294 221 294 219 C293.154375 218.7525 292.30875 218.505 291.4375 218.25 C288.66195797 217.24071199 286.89810087 216.33093064 284.5 214.75 C281.21417621 212.63497021 281.21417621 212.63497021 278.26879883 213.67016602 C274.52773296 215.19213075 270.85776184 216.81785229 267.19921875 218.52734375 C266.4532695 218.87249527 265.70732025 219.21764679 264.93876648 219.57325745 C263.34464674 220.31093627 261.75112053 221.04989887 260.15814209 221.79003906 C256.00099359 223.72077826 251.83868401 225.64029904 247.67578125 227.55859375 C246.84929077 227.93950165 246.02280029 228.32040955 245.17126465 228.71286011 C237.93471311 232.04192818 230.66822598 235.29695709 223.375 238.5 C222.35237061 238.94980225 221.32974121 239.39960449 220.27612305 239.86303711 C212.28406169 243.35692154 205.56287214 245.64192603 196.875 243 C191.43784334 240.7163942 187.56840726 236.07063399 184.92382812 230.89306641 C183.71186904 227.09768713 183.72143021 223.51801359 183.7734375 219.578125 C183.7785434 218.71842102 183.78364929 217.85871704 183.78890991 216.97296143 C183.88535708 209.10955965 184.3374454 201.27140435 184.7890625 193.421875 C184.99677332 189.522439 185.20115757 185.62284666 185.40380859 181.72314453 C185.55260939 179.05031431 185.71446143 176.38250961 185.89990234 173.71240234 C186.16980774 169.80540023 186.35596702 165.89643854 186.5390625 161.984375 C186.63442291 160.79785339 186.72978333 159.61133179 186.82803345 158.38885498 C187.07467619 151.87260097 187.07467619 151.87260097 183.80438232 146.45324707 C180.69689704 143.93082273 177.57981939 141.78990969 174 140 C171.90239527 140.3746125 169.82171776 140.84493444 167.75292969 141.35522461 C167.11188293 141.51113571 166.47083618 141.66704681 165.81036377 141.8276825 C164.41390029 142.16798557 163.01818319 142.51136247 161.6231308 142.85740471 C159.40302399 143.40701047 157.18066529 143.94639054 154.95733643 144.48280334 C148.63416457 146.00974036 142.31444931 147.55045979 135.99902344 149.10913086 C132.13552453 150.06188879 128.26841871 150.99865738 124.39878082 151.92614937 C122.9351927 152.28019519 121.47300171 152.64007689 120.01241302 153.00629997 C96.68311118 158.85106842 96.68311118 158.85106842 88 154.4375 C81.89300767 149.47556873 77.85048683 145.02149527 77 137 C77.45392866 129.28670066 79.38445745 121.99780153 81.31338692 114.54499817 C82.29003577 110.7434544 83.22496759 106.93157564 84.16601562 103.12109375 C85.35869317 98.2951648 86.56395044 93.47377182 87.82250977 88.66455078 C88.84470993 84.75399276 89.81922823 80.83418722 90.76304436 76.90400696 C91.12920712 75.41665318 91.51241072 73.93338186 91.91327095 72.45500183 C94.38683174 64.160375 94.38683174 64.160375 92.4135437 56.1003418 C90.40087774 53.83828339 88.32433234 51.93133387 86 50 C85.67 49.34 85.34 48.68 85 48 C84.22929169 48.02505615 83.45858337 48.0501123 82.66452026 48.07592773 C75.34031065 48.31363793 68.01603504 48.54915158 60.691679 48.78230286 C56.9277143 48.90219333 53.16377902 49.02288247 49.39990234 49.14550781 C45.75597285 49.26419407 42.11197751 49.38063758 38.46792984 49.49563599 C37.08951466 49.53950923 35.71112338 49.5841411 34.33275986 49.62960815 C2.98628717 50.66136118 2.98628717 50.66136118 -2.96484375 45.1953125 C-9.65486143 37.94437309 -10 33.53066239 -10 23 C-6.7 15.41 -3.4 7.82 0 0 Z M241.89453125 53.390625 C234.06622302 64.00641185 230.96799293 74.91822021 232 88 C234.61892329 100.27152627 240.95610963 109.58048098 251 117 C261.45734242 123.47829075 272.00724091 125.50366991 284 122.75 C295.12660006 119.71040249 304.19901311 113.94558711 310.875 104.25 C316.62138549 93.92286594 318.78123528 82.45296268 316.33984375 70.8671875 C313.23633987 60.36095358 307.11004449 51.21570744 298 45 C278.94429268 34.81048984 256.75246722 36.52038972 241.89453125 53.390625 Z M879.625 56.8125 C876.05633991 61.53466638 873.75086873 66.36160916 872 72 C871.80921875 72.61101562 871.6184375 73.22203125 871.421875 73.8515625 C868.96691215 86.35368814 871.53766451 98.24880855 878.5625 108.75 C885.21342827 117.28535795 894.27142485 123.87025803 905 126 C917.97375411 127.44511234 929.08545354 125.45242225 939.87109375 117.75390625 C948.71842667 110.46500262 954.93628925 101.11309388 956.77734375 89.69140625 C957.81415579 77.15871334 954.66135606 65.60729345 946.6484375 55.8046875 C939.05140159 47.4875534 929.74771577 41.49591885 918.27734375 40.76171875 C902.48446577 40.35518386 890.1740517 44.39152785 879.625 56.8125 Z " fill="#1D1D1B" transform="translate(406,1087)"/>
<path d="M0 0 C7.22885277 5.50769735 11.89820855 13.21377162 16.5625 20.875 C17.51552002 22.41994141 17.51552002 22.41994141 18.48779297 23.99609375 C20.18689367 26.75314073 21.87949776 29.51404136 23.56939697 32.2767334 C25.36716229 35.21157618 27.17411022 38.14075381 28.98046875 41.0703125 C32.31200241 46.47488677 35.63746517 51.88314008 38.95410156 57.296875 C40.4740826 59.75585075 42.02640471 62.19103443 43.5859375 64.625 C45.625 68 45.625 68 45.625 70 C55.63932568 71.88746096 55.63932568 71.88746096 65.06640625 69.53125 C66.79449436 67.44631771 68.1965848 65.29823228 69.625 63 C70.75756728 61.8002027 71.92476298 60.63210129 73.125 59.5 C75.57948488 57.08934521 77.8794206 54.60647609 80.125 52 C82.3705794 49.39352391 84.67051512 46.91065479 87.125 44.5 C89.55889732 42.10946833 91.83855559 39.64953738 94.0625 37.0625 C97.10023121 33.5354698 100.32709437 30.27039704 103.65234375 27.015625 C105.61724423 25.00792471 107.39684581 22.91320641 109.1875 20.75 C113.22230901 16.05041696 118.24727709 12.44899722 124.60546875 11.796875 C130.9056268 11.66306633 136.30875775 12.26608812 141.3106842 16.38967896 C147.43046448 22.83870734 150.01618415 30.61810583 152.99609375 38.8046875 C153.56757728 40.33599691 154.14052429 41.86676086 154.71485901 43.39700317 C156.21178507 47.39845176 157.68703659 51.40756299 159.15826416 55.41851807 C160.36739527 58.70329023 161.59218694 61.98211538 162.81774807 65.26078606 C164.27834929 69.16927936 165.73193234 73.08036628 167.18359375 76.9921875 C167.59952695 78.11205362 167.59952695 78.11205362 168.02386284 79.2545433 C168.80282965 81.35695912 169.5769892 83.46107331 170.34936523 85.56591797 C170.79013901 86.76312469 171.23091278 87.96033142 171.68504333 89.19381714 C172.625 92 172.625 92 172.625 94 C174.16640966 94.31376521 175.70814215 94.62594465 177.25 94.9375 C178.10851563 95.11152344 178.96703125 95.28554687 179.8515625 95.46484375 C180.76679687 95.64144531 181.68203125 95.81804687 182.625 96 C184.08292969 96.40798828 184.08292969 96.40798828 185.5703125 96.82421875 C189.71263524 97.06258771 191.77417829 95.33741724 194.875 92.875 C196.10900039 91.94481533 197.34339536 91.01515395 198.578125 90.0859375 C199.23103516 89.58545898 199.88394531 89.08498047 200.55664062 88.56933594 C204.19474942 85.80897672 207.91564928 83.16336576 211.625 80.5 C213.16437955 79.38845979 214.70344542 78.27648501 216.2421875 77.1640625 C222.35272364 72.75163453 228.46879258 68.348563 234.625 64 C235.31464844 63.51160645 236.00429687 63.02321289 236.71484375 62.52001953 C238.88829191 60.98533655 241.06814267 59.46019789 243.25 57.9375 C243.92562988 57.45974121 244.60125977 56.98198242 245.29736328 56.48974609 C245.93399902 56.04840332 246.57063477 55.60706055 247.2265625 55.15234375 C247.78682129 54.76038818 248.34708008 54.36843262 248.92431641 53.96459961 C253.94992821 51.1141557 260.21284846 51.37045174 265.7421875 52.390625 C271.68763679 54.19508043 275.35235242 57.81191612 278.625 63 C281.47656547 71.10811104 282.43242252 79.79725889 283.55143166 88.27773476 C284.14247058 92.67061052 284.80312369 97.0537565 285.44868946 101.43888569 C286.00822518 105.26675568 286.54442189 109.09536235 287.03393555 112.93286133 C287.51389648 116.68439783 288.05574452 120.42237791 288.63953209 124.15910912 C288.84881419 125.57080936 289.03597646 126.98599167 289.19931984 128.40374184 C289.93833919 134.72776902 290.6494501 139.37778121 295.71485901 143.53723145 C300.69812943 146.46428732 304.70008261 148.37478712 310.54841614 147.23609924 C313.12590401 146.27467452 315.51903309 145.3659429 317.91723633 144.04150391 C318.57253326 143.68872375 319.2278302 143.3359436 319.90298462 142.97247314 C320.57437469 142.61030701 321.24576477 142.24814087 321.9375 141.875 C323.35343681 141.16390049 324.77237716 140.45875361 326.1940918 139.75927734 C329.16364958 138.29256039 332.11851626 136.80077521 335.06640625 135.29101562 C341.85649571 131.84258049 348.8028544 128.73578989 355.74716187 125.61334229 C357.90690835 124.63880382 360.06115146 123.65300344 362.21411133 122.66357422 C363.53463272 122.05949325 364.85518757 121.45548541 366.17578125 120.8515625 C367.32731689 120.32385254 368.47885254 119.79614258 369.6652832 119.25244141 C376.57319164 116.32927302 383.32279819 115.78763667 390.375 118.625 C396.31517951 121.58474101 399.79789782 126.03675303 402.04541016 132.28173828 C403.25642897 137.96138592 402.72782114 143.84937153 402.47790527 149.61880493 C402.37322841 152.10457008 402.29526974 154.58998085 402.22363281 157.0769043 C401.98069708 165.1150761 401.63916496 173.13756736 401.11004639 181.1622467 C400.88414409 184.6933984 400.70071534 188.22615724 400.52209473 191.75997925 C400.42480199 193.44829077 400.30654789 195.13553751 400.16638184 196.8208313 C399.62380846 203.37676271 399.21865078 209.2214504 402.27392578 215.2578125 C405.09835222 218.35338846 407.5263376 220.19535351 411.625 221 C419.60952061 220.99123001 427.36732111 218.47734461 435 216.375 C437.08334095 215.84127561 439.16797876 215.31258684 441.25390625 214.7890625 C445.37621965 213.74658915 449.4904387 212.67861993 453.59985352 211.58642578 C459.44301265 210.03863387 465.30079276 208.56262298 471.17578125 207.140625 C472.01688446 206.93206879 472.85798767 206.72351257 473.72457886 206.50863647 C482.14575077 204.48859196 491.36200036 202.64505048 499.25 207.1875 C503.87548204 210.69614556 506.73740246 214.5104234 508.625 220 C509.73367725 228.82596939 507.74663707 237.23207146 505.60073471 245.73982239 C505.04195562 247.9567634 504.50102719 250.177442 503.96414185 252.39978027 C502.63034356 257.90552095 501.26718245 263.40389892 499.90466309 268.90258789 C498.74720407 273.57852273 497.60109896 278.25695518 496.47015762 282.93937683 C495.93733939 285.12486385 495.38797087 287.30575068 494.83786011 289.48693848 C494.51331277 290.82247182 494.18954937 292.15819599 493.86669922 293.49414062 C493.57801971 294.65707642 493.28934021 295.82001221 492.99191284 297.01818848 C492.58553756 300.32070163 492.82982917 301.28475696 494.625 304 C495.02971527 304.77347275 495.43443054 305.5469455 495.85140991 306.34385681 C498.294395 310.19350561 500.07786623 312.63480247 504.63800049 313.71121216 C508.40390343 313.84974138 512.09777591 313.69970674 515.8515625 313.44140625 C517.24513387 313.37958448 518.63889691 313.32195584 520.0328064 313.26829529 C523.69669749 313.11642327 527.35545685 312.90985339 531.01586914 312.69085693 C534.70052512 312.47916336 538.38724777 312.31590797 542.07421875 312.15039062 C547.51309727 311.90398183 552.94892408 311.62504395 558.38525391 311.32641602 C582.814874 310.11997733 582.814874 310.11997733 590.50390625 316.578125 C595.30613882 321.71593527 597.20817414 327.64717473 597.00390625 334.71484375 C595.7991562 341.98060437 591.7819385 348.7068919 588.52001953 355.21972656 C587.97830109 356.30175354 587.43658264 357.38378052 586.87844849 358.49859619 C586.46481049 359.32405945 586.05117249 360.14952271 585.625 361 C558.95623242 361.28054096 532.28768653 361.49203898 505.61773968 361.62174606 C493.23383393 361.68357727 480.85084591 361.76784655 468.4675293 361.90527344 C457.67193394 362.02502291 446.87700329 362.1023318 436.08076221 362.12906194 C430.36580112 362.14468363 424.65274128 362.18129146 418.93839073 362.26876068 C413.55418328 362.35050502 408.17265092 362.37528357 402.78788185 362.35729218 C400.81697141 362.36058092 398.84596723 362.38428728 396.87559509 362.4304657 C381.2383915 362.77882366 381.2383915 362.77882366 376.11257362 358.41558075 C373.25942252 355.5345598 370.96944236 352.30392931 368.625 349 C367.00693505 347.27570948 365.36163464 345.57604304 363.67578125 343.91796875 C362.89009766 343.13099609 362.10441406 342.34402344 361.29492188 341.53320312 C360.51697266 340.75912109 359.73902344 339.98503906 358.9375 339.1875 C358.14794922 338.39408203 357.35839844 337.60066406 356.54492188 336.78320312 C351.73387214 331.98008587 346.78327145 327.42529264 341.625 323 C340.46838111 321.9784513 339.3133887 320.95505763 338.16015625 319.9296875 C329.63191647 312.40419598 320.81270557 305.38302855 311.70849609 298.56884766 C309.72627802 297.07626114 307.76136803 295.56380724 305.80078125 294.04296875 C280.94937484 274.87912444 253.60798679 259.09062797 225.625 245 C224.60374023 244.47937988 223.58248047 243.95875977 222.53027344 243.42236328 C184.05443214 223.88746949 142.8026269 210.42489706 100.75 201 C99.78690918 200.77997314 98.82381836 200.55994629 97.83154297 200.33325195 C96.94096191 200.14077881 96.05038086 199.94830566 95.1328125 199.75 C94.35566895 199.57984375 93.57852539 199.4096875 92.77783203 199.234375 C89.41550754 198.8683247 87.46135577 199.35848586 84.76904297 201.42358398 C84.14143066 202.02501221 83.51381836 202.62644043 82.8671875 203.24609375 C82.16392334 203.91390869 81.46065918 204.58172363 80.73608398 205.26977539 C79.99817627 205.98512451 79.26026855 206.70047363 78.5 207.4375 C77.73953369 208.16380615 76.97906738 208.8901123 76.19555664 209.63842773 C71.30149833 214.3282413 66.49519947 219.09714684 61.734375 223.921875 C59.81942603 225.80845435 57.85858789 227.57078882 55.8125 229.3125 C52.05365088 232.52238941 48.59757866 235.98790409 45.125 239.5 C41.73494673 242.92845659 38.37305942 246.32260785 34.6875 249.4375 C30.78793695 252.73395267 27.26524318 256.36376767 23.6875 260 C18.6342624 265.10403063 13.62388395 269.99680776 7.625 274 C7.03203125 274.40605469 6.4390625 274.81210937 5.828125 275.23046875 C-2.60760625 280.22341225 -14.3153009 281.14711037 -23.71875 278.8515625 C-38.59199679 274.08337456 -47.94151747 263.45834238 -57.94921875 251.8984375 C-61.10319518 248.26097886 -64.43298778 244.86313602 -67.875 241.5 C-71.30537996 238.1122034 -74.69784475 234.74777911 -77.8125 231.0625 C-81.68433043 226.49199341 -85.98981129 222.36026185 -90.24389648 218.15063477 C-93.39669705 215.01815027 -96.47207425 211.86946739 -99.375 208.5 C-99.89835938 207.90445313 -100.42171875 207.30890625 -100.9609375 206.6953125 C-102.375 205 -102.375 205 -103.6640625 203.1171875 C-105.15945019 201.16706203 -106.19891895 200.15598373 -108.375 199 C-118.24890048 199.26422197 -128.36748842 202.47786606 -137.9375 204.875 C-139.09277695 205.16312057 -139.09277695 205.16312057 -140.27139282 205.45706177 C-194.63753197 219.12386654 -247.13868731 241.83218601 -294.375 272 C-294.99068848 272.3923584 -295.60637695 272.7847168 -296.24072266 273.18896484 C-299.6688912 275.38947147 -303.03104108 277.67396182 -306.375 280 C-306.98939941 280.4242627 -307.60379883 280.84852539 -308.23681641 281.28564453 C-322.80101466 291.35778644 -336.97121654 301.8913008 -350.390625 313.453125 C-353.21581541 315.86415137 -356.09522259 318.18602477 -359 320.5 C-363.93721154 324.51013688 -368.37403656 328.9006118 -372.81640625 333.4375 C-374.98009839 335.60449549 -377.17481634 337.635932 -379.5 339.625 C-386.22392607 345.38640086 -392.30418688 351.75071802 -398.0625 358.46875 C-398.80625463 359.33646374 -399.5668855 360.1918855 -400.375 361 C-403.03046573 361.09782251 -405.65990915 361.12994147 -408.31581116 361.12025452 C-409.57891047 361.12153615 -409.57891047 361.12153615 -410.86752695 361.12284368 C-413.71126629 361.12450107 -416.55494766 361.1189729 -419.39868164 361.11352539 C-421.42835997 361.11324355 -423.4580384 361.11340119 -425.48771667 361.1139679 C-431.01641561 361.11425599 -436.54509305 361.1083574 -442.07378697 361.10139394 C-447.84471736 361.09516232 -453.61564819 361.09455675 -459.38658142 361.09336853 C-470.3230036 361.09025465 -481.25941583 361.08204049 -492.19583362 361.07201904 C-504.64301891 361.06085967 -517.09020465 361.0553479 -529.53739369 361.05032361 C-555.14993465 361.03985792 -580.76246677 361.02225738 -606.375 361 C-608.07602575 357.41110711 -609.72904026 353.80193862 -611.375 350.1875 C-612.09042969 348.68026367 -612.09042969 348.68026367 -612.8203125 347.14257812 C-616.15074912 339.74425107 -618.14628072 332.64266032 -615.63720703 324.6496582 C-613.53346467 319.64439552 -609.97016637 315.85154593 -605.375 313 C-594.55852924 308.76420897 -581.6568356 311.13349142 -570.2890625 311.7890625 C-566.72848753 311.96909043 -563.16724768 312.13503172 -559.60596657 312.30042458 C-555.91970897 312.47433047 -552.23627829 312.66732237 -548.55322266 312.89990234 C-544.94620704 313.12665381 -541.33983761 313.30247341 -537.72852707 313.44440842 C-535.7104483 313.53693575 -533.6949897 313.68188578 -531.68008423 313.82803345 C-524.66474117 314.13043614 -524.66474117 314.13043614 -518.7477417 310.80438232 C-516.22523579 307.69825999 -514.16265604 304.57531208 -512.375 301 C-512.74446752 298.87635386 -513.20945587 296.76916399 -513.71435547 294.67358398 C-513.86866028 294.02450577 -514.02296509 293.37542755 -514.1819458 292.7066803 C-514.51880729 291.29381158 -514.85891421 289.8817137 -515.20183945 288.47030449 C-515.74604572 286.23021233 -516.28182229 283.98825226 -516.81546021 281.74562073 C-517.95253097 276.97436742 -519.10097406 272.2058857 -520.25 267.4375 C-521.57464321 261.93452579 -522.89456231 256.43046665 -524.20627213 250.92439461 C-524.73177307 248.72713919 -525.26396946 246.53158049 -525.79660034 244.33604431 C-530.98902594 222.72470359 -530.98902594 222.72470359 -526.375 214 C-522.17477873 209.25328154 -518.10675501 205.30464554 -511.58065796 204.7718811 C-502.80720896 204.60053915 -495.01236537 205.89532994 -486.54597855 208.14652634 C-484.35435079 208.72674579 -482.1575862 209.28157884 -479.95785522 209.83023071 C-473.71665596 211.39008113 -467.48455708 212.98325616 -461.26220703 214.61669922 C-457.4281684 215.62133475 -453.58631582 216.5889948 -449.7372551 217.53435135 C-448.28330158 217.89918773 -446.83276844 218.27796515 -445.38624954 218.67124557 C-437.58487298 221.05654683 -437.58487298 221.05654683 -429.79949951 219.94464111 C-427.75768444 218.42932554 -426.11411948 216.84774222 -424.375 215 C-423.6524704 214.550233 -422.9299408 214.100466 -422.18551636 213.6370697 C-420.1244072 212.11662454 -420.1244072 212.11662454 -419.96990967 209.48252869 C-420.03652802 207.97511864 -420.03652802 207.97511864 -420.10449219 206.43725586 C-420.14483582 205.29433578 -420.18517944 204.15141571 -420.22674561 202.97386169 C-420.29113831 201.73338577 -420.35553101 200.49290985 -420.421875 199.21484375 C-420.49841005 197.25019521 -420.57494287 195.28554658 -420.65135574 193.32089329 C-420.76419966 190.55647269 -420.89610733 187.79307287 -421.02746582 185.02947998 C-421.18698232 181.60806066 -421.32796541 178.18590527 -421.46875 174.76367188 C-421.50998615 173.76573073 -421.50998615 173.76573073 -421.55205536 172.74762917 C-421.634077 170.75755109 -421.71547816 168.76744748 -421.796875 166.77734375 C-421.85008911 165.47944916 -421.90330322 164.18155457 -421.95812988 162.84432983 C-422.5437173 148.26728586 -422.5437173 148.26728586 -422.640625 141.56640625 C-422.67591309 139.6184314 -422.67591309 139.6184314 -422.71191406 137.63110352 C-422.22961749 132.43313471 -420.87134811 127.83135142 -417.54296875 123.7578125 C-411.69923868 118.93990487 -406.72092018 116.36500674 -399.00463867 116.64355469 C-396.0781612 117.04023625 -393.83697147 117.87922062 -391.125 119.046875 C-390.06909668 119.5013501 -389.01319336 119.9558252 -387.92529297 120.42407227 C-381.85112754 123.12031335 -375.80228805 125.86908465 -369.76498413 128.64678955 C-367.45878485 129.70643745 -365.15024056 130.76082129 -362.84106445 131.81396484 C-356.00385322 134.93539655 -349.18008225 138.07468027 -342.41015625 141.33984375 C-341.4051709 141.81784424 -340.40018555 142.29584473 -339.36474609 142.78833008 C-337.55121859 143.65338175 -335.74490641 144.5337968 -333.94775391 145.43237305 C-329.20088369 147.69605417 -329.20088369 147.69605417 -324.03515625 147.375 C-320.78305314 145.70721556 -320.78305314 145.70721556 -317.625 143.875 C-314.375 142 -314.375 142 -312.375 142 C-312.14949463 140.51064941 -312.14949463 140.51064941 -311.91943359 138.99121094 C-310.5175858 129.74811558 -309.09768336 120.50796162 -307.65852356 111.27059937 C-306.95776033 106.76989986 -306.262279 102.26857231 -305.58251953 97.76464844 C-304.96235589 93.65704806 -304.32526839 89.55241304 -303.67584229 85.44934082 C-303.43590025 83.91440507 -303.20201297 82.37850914 -302.97454834 80.8416748 C-300.14243034 61.77155725 -300.14243034 61.77155725 -293.27709961 56.34033203 C-287.14934739 52.28862064 -281.6622787 51.15069126 -274.375 52 C-264.89625342 54.78592726 -256.58219158 62.4544355 -248.75390625 68.24609375 C-244.98219297 71.02688072 -241.1781254 73.7624162 -237.375 76.5 C-232.6953479 79.86984417 -228.02609537 83.25202599 -223.3828125 86.671875 C-222.56554687 87.27064453 -221.74828125 87.86941406 -220.90625 88.48632812 C-219.33741965 89.63620946 -217.77212629 90.79093686 -216.2109375 91.95117188 C-215.15132812 92.72557617 -215.15132812 92.72557617 -214.0703125 93.515625 C-213.1424292 94.20060059 -213.1424292 94.20060059 -212.19580078 94.89941406 C-209.29421688 96.65328108 -207.25289925 97.20118524 -203.9375 96.44140625 C-203.091875 96.15136719 -202.24625 95.86132812 -201.375 95.5625 C-198.00943987 94.41841477 -196.02412986 94 -192.375 94 C-192.25647171 93.30591537 -192.13794342 92.61183075 -192.01582336 91.89671326 C-191.30456728 88.68162303 -190.270026 85.73923693 -189.12182617 82.65258789 C-188.89401962 82.037267 -188.66621307 81.42194611 -188.4315033 80.78797913 C-187.68103989 78.76467279 -186.92486668 76.74356355 -186.16796875 74.72265625 C-185.64078253 73.30932218 -185.11371012 71.89594566 -184.58674622 70.48252869 C-183.48235564 67.52353718 -182.37481409 64.56574686 -181.26538086 61.60864258 C-179.8487394 57.83116898 -178.44268975 54.0498498 -177.03934765 50.26741886 C-175.95420528 47.34768213 -174.86204594 44.430607 -173.76793861 41.51421928 C-173.24680229 40.12178039 -172.72813613 38.72841429 -172.21205711 37.33409309 C-171.48746859 35.37883407 -170.75312032 33.42750521 -170.01635742 31.47680664 C-169.60189865 30.36825821 -169.18743988 29.25970978 -168.76042175 28.11756897 C-165.65888796 21.13828955 -161.68752801 16.51564134 -155.125 12.6875 C-147.82216348 10.86179087 -141.52241739 11.47284885 -134.921875 15.15234375 C-130.26537839 18.53044635 -126.66725614 22.87998084 -122.93798828 27.21533203 C-120.08550011 30.47239054 -117.09708557 33.60243226 -114.125 36.75 C-112.84609301 38.11173394 -111.56745008 39.47371592 -110.2890625 40.8359375 C-108.32191352 42.92929954 -106.35419031 45.02211732 -104.38574219 47.11425781 C-103.06837704 48.51448425 -101.75203952 49.91567826 -100.43676758 51.31787109 C-99.15616621 52.67805603 -97.86961932 54.03267023 -96.5769043 55.38134766 C-93.85095528 58.24332494 -91.25417466 61.04746574 -88.99609375 64.296875 C-85.93485556 68.50244702 -83.87643211 70.57992719 -78.80078125 72 C-74.09940634 72.41946641 -70.3223323 71.63715392 -66.375 69 C-60.82923724 63.04510062 -57.1600115 55.59708368 -53.30761719 48.49316406 C-50.07925925 42.65797643 -46.52777939 37.03322645 -43 31.375 C-41.65887603 29.20261274 -40.31898653 27.02946279 -38.98046875 24.85546875 C-38.35962402 23.84919434 -37.7387793 22.84291992 -37.09912109 21.80615234 C-35.59187879 19.35298851 -34.10002197 16.89139072 -32.61328125 14.42578125 C-24.81767902 1.65761657 -15.45350745 -4.57881702 0 0 Z M-45.1875 141.75 C-53.98670049 152.40056891 -55.51605019 164.69292972 -54.375 178 C-52.81612163 185.48261619 -49.36779036 191.30263095 -44.375 197 C-43.89675781 197.59425781 -43.41851563 198.18851562 -42.92578125 198.80078125 C-36.25947399 206.37384063 -25.69110904 211.34370198 -15.71875 212.23828125 C-2.65231586 212.57930082 7.88592847 208.75579988 17.625 200 C25.85678961 191.6278958 30.07353446 180.99625027 30.875 169.375 C30.64967442 157.56793975 25.91040852 147.49814847 18.125 138.8125 C8.8380161 129.95746884 -2.85683089 126.47181243 -15.41796875 126.7265625 C-27.30831409 127.54820532 -37.0637136 133.20601775 -45.1875 141.75 Z " fill="#1D1D1B" transform="translate(1012.375,1)"/>
<path d="M0 0 C105.93403783 0 105.93403783 0 122.6875 4.1875 C123.55487793 4.40108154 124.42225586 4.61466309 125.31591797 4.8347168 C138.22692992 8.18170859 149.72389423 13.33847059 160 22 C161.07314453 22.88751953 161.07314453 22.88751953 162.16796875 23.79296875 C173.50535102 34.07775073 180.30732189 50.42375065 181.14086914 65.55761719 C181.81865904 85.97625025 180.74549885 104.17130595 166.625 120.1875 C165.09161524 121.79958498 163.55034246 123.40421647 162 125 C161.39671875 125.67675781 160.7934375 126.35351562 160.171875 127.05078125 C154.12363497 133.61180684 146.62660271 138.45014411 139 143 C138.34 143 137.68 143 137 143 C138.43240064 145.33658412 139.87090431 147.66909416 141.3125 150 C141.69728516 150.6290625 142.08207031 151.258125 142.47851562 151.90625 C145.93755766 157.48362009 149.64011499 162.87900383 153.36972046 168.27676392 C159.16538821 176.67031233 164.86123946 185.13086155 170.56079102 193.58984375 C172.43089463 196.36519721 174.3022755 199.13968603 176.17382812 201.9140625 C181.97912586 210.52363284 187.76889044 219.14287507 193.51953125 227.7890625 C197.82201869 234.25756944 202.18924699 240.67301767 206.67578125 247.015625 C210 251.78389213 210 251.78389213 210 254 C201.30070291 254.65429524 192.61003049 255.14864195 183.89135838 255.45074081 C179.83946206 255.59593599 175.8045445 255.7915626 171.76245117 256.11230469 C145.87132415 258.11235876 145.87132415 258.11235876 137.95123291 251.42623901 C132.33431056 245.03680133 128.84002544 237.18056131 125.51657104 229.42999268 C123.57463402 225.03795987 121.19644288 221.05705364 118.640625 217.00390625 C117.89241074 215.74720435 117.14853725 214.48790598 116.40942383 213.22583008 C106.51446772 196.38243111 106.51446772 196.38243111 96.19799805 179.79614258 C93.91531718 176.22733118 91.82540902 172.79098025 90.203125 168.87109375 C88.51870397 164.69418134 88.51870397 164.69418134 84 160 C76.74 159.67 69.48 159.34 62 159 C62 190.35 62 221.7 62 254 C41.54 254 21.08 254 0 254 C0 170.18 0 86.36 0 0 Z M62 49 C62 69.46 62 89.92 62 111 C89.77113879 111.91260726 89.77113879 111.91260726 112.75 99.375 C118.56594624 91.64669177 120.05713707 82.42399021 119 73 C118.35043495 69.78715133 117.3956164 66.96282498 116 64 C115.55914063 63.06027344 115.55914063 63.06027344 115.109375 62.1015625 C111.57107735 56.05477025 105.34794057 53.40655493 99 51 C86.98105113 47.98765786 86.98105113 47.98765786 62 49 Z " fill="#1D1D1B" transform="translate(622,434)"/>
<path d="M0 0 C20.13 0 40.26 0 61 0 C61 89.1 61 178.2 61 270 C45.49 270 29.98 270 14 270 C12.185 266.24625 10.37 262.4925 8.5 258.625 C7.92572266 257.44244629 7.35144531 256.25989258 6.75976562 255.04150391 C6.31310547 254.11257324 5.86644531 253.18364258 5.40625 252.2265625 C4.71499023 250.79691162 4.71499023 250.79691162 4.00976562 249.33837891 C3 247 3 247 3 245 C2.01 245 1.02 245 0 245 C-0.26167969 245.73734375 -0.52335938 246.4746875 -0.79296875 247.234375 C-5.45611004 257.91885408 -17.68833888 266.07631 -28.1875 270.4375 C-46.76575653 276.34137744 -67.31324594 275.0972352 -84.6875 266.3125 C-90.5039248 262.94776589 -95.25613718 258.72802354 -100 254 C-100.69996094 253.32324219 -101.39992188 252.64648438 -102.12109375 251.94921875 C-123.52832071 229.79086102 -125.50829495 194.86498056 -125.2109375 165.8828125 C-124.5462634 136.6781813 -118.3678159 108.86281582 -97 88 C-96.34386719 87.32324219 -95.68773437 86.64648438 -95.01171875 85.94921875 C-82.23208443 73.60743058 -65.01628055 70.48112765 -47.90478516 70.57788086 C-29.96335221 71.07309688 -16.68065184 77.21708484 -4 90 C-2.94087617 91.2099965 -1.8907935 92.42795083 -0.84863281 93.65258789 C-0.31361145 94.28024551 0.22140991 94.90790314 0.77264404 95.55458069 C1.38018524 96.27006325 1.38018524 96.27006325 2 97 C1.8570752 95.86288574 1.71415039 94.72577148 1.56689453 93.55419922 C-0.50392847 75.30572497 -0.23381904 57.05662125 -0.1373291 38.722229 C-0.11286227 33.56808477 -0.10401883 28.41389076 -0.09242249 23.25970459 C-0.07329636 15.50636982 -0.03487265 7.7533516 0 0 Z M-53 130 C-65.55594599 150.33488966 -66.06003174 175.02037013 -61.40625 197.921875 C-58.85220407 207.71238441 -53.49584146 216.35700567 -45 222 C-37.25396207 226.1233662 -28.08185168 226.1644666 -19.67578125 224.23828125 C-10.9183008 221.51301365 -6.00039182 218.18087736 -1.50439453 210.1171875 C3.70200247 199.32924901 4.65192098 188.20332419 4.52148438 176.42138672 C4.50007208 174.13270414 4.52139726 171.84718116 4.546875 169.55859375 C4.57481243 154.86025952 2.94072762 138.19617698 -7.77734375 127.171875 C-14.93741162 121.13926158 -24.11476777 119.35094816 -33.30078125 119.65234375 C-40.86735372 120.62690952 -48.18592281 123.98523532 -53 130 Z " fill="#1D1D1B" transform="translate(995,716)"/>
<path d="M0 0 C20.13 0 40.26 0 61 0 C61.04898438 8.21132813 61.09796875 16.42265625 61.1484375 24.8828125 C61.1883597 30.77047711 61.22948324 36.6581238 61.27233124 42.54576683 C61.32757314 50.15825427 61.38005042 57.77072652 61.421875 65.38330078 C61.45857784 72.06181638 61.50534252 78.74019429 61.55806351 85.4186058 C61.57650088 87.95806584 61.59164751 90.49755212 61.60334396 93.03705215 C60.66436809 119.70612552 60.66436809 119.70612552 70.37890625 143.75 C76.80616892 149.63436038 84.35403797 150.56964905 92.68359375 150.34765625 C100.92284142 149.48394242 108.62885382 146.48484841 114 140 C122.60976309 127.36270067 124.1165619 110.203645 124.20532227 95.36132812 C124.21522186 94.32628143 124.22512146 93.29123474 124.23532104 92.224823 C124.26673553 88.82698805 124.29161369 85.42913916 124.31640625 82.03125 C124.33699312 79.66613414 124.35799003 77.30102182 124.37937927 74.93591309 C124.43442102 68.72834141 124.48390886 62.52073752 124.53222656 56.31311035 C124.59143346 48.85566709 124.65756246 41.39828236 124.72252655 33.94088745 C124.8203107 22.62729423 124.90932092 11.31366245 125 0 C145.13 0 165.26 0 186 0 C186 64.68 186 129.36 186 196 C170.82 196 155.64 196 140 196 C135.46534653 184.66336634 135.46534653 184.66336634 133.75 179 C133.41484375 177.906875 133.0796875 176.81375 132.734375 175.6875 C132 173 132 173 132 171 C131.01 171 130.02 171 129 171 C128.73316406 171.58136719 128.46632813 172.16273438 128.19140625 172.76171875 C121.1923808 185.91070755 107.39015561 192.76722761 93.7734375 197.00390625 C72.28651676 202.52225934 47.92201298 200.91485736 28.55859375 189.6171875 C13.98248652 180.40419759 6.18474786 167.90547178 2.25 151.1875 C-0.81046627 134.79390067 -0.13579053 118.03738107 -0.10139394 101.43023801 C-0.09507193 97.85485607 -0.09454969 94.27947297 -0.09336853 90.7040863 C-0.09028097 83.95783616 -0.08210291 77.21160255 -0.07201904 70.46535963 C-0.05866828 61.33202153 -0.05333715 52.19867879 -0.04751682 43.06533337 C-0.0381608 28.71020991 -0.01822487 14.35512129 0 0 Z " fill="#1D1D1B" transform="translate(409,790)"/>
<path d="M0 0 C1.00071533 0.00491455 2.00143066 0.0098291 3.0324707 0.01489258 C22.18545356 0.31543427 40.25439766 6.00504173 54.13671875 19.66015625 C68.0682974 35.98000552 69.92328474 56.39198658 69.86352539 76.93212891 C69.8632427 78.27348834 69.86340284 79.61484793 69.8639679 80.95620728 C69.86425269 84.56708403 69.85840769 88.17792699 69.85139394 91.78879595 C69.84510715 95.57374426 69.84455241 99.35869351 69.84336853 103.14364624 C69.84027083 110.29734601 69.83207865 117.45103034 69.82201904 124.60472333 C69.80870973 134.28115434 69.80334537 143.95758962 69.79751682 153.63402748 C69.78813758 168.86019653 69.76820828 184.08633302 69.75 199.3125 C49.62 199.3125 29.49 199.3125 8.75 199.3125 C8.71261719 190.65644531 8.67523437 182.00039063 8.63671875 173.08203125 C8.60256809 166.88114906 8.56657182 160.68029898 8.52792263 154.47944546 C8.47817488 146.45872628 8.43269758 138.43805973 8.40356445 130.41723633 C8.38047414 124.06395705 8.34695489 117.71082957 8.30129844 111.35767096 C8.27751331 107.9986824 8.26024572 104.63997924 8.25238609 101.28089333 C8.24269025 97.51622139 8.21456449 93.75208677 8.18237305 89.98754883 C8.18380814 88.89349731 8.18524323 87.7994458 8.1867218 86.67224121 C8.04763538 75.08667744 6.44961125 63.55030717 -1.66015625 54.7890625 C-7.62495212 49.28554418 -14.45298693 48.90217013 -22.19140625 49.06640625 C-30.38324026 49.72551933 -37.44442391 52.36437629 -43.25 58.3125 C-55.83039754 75.70883097 -54.70398304 100.41514394 -54.76171875 120.796875 C-54.77861243 123.0775852 -54.79676874 125.35828635 -54.81611633 127.63897705 C-54.86311397 133.57018199 -54.89324553 139.50135028 -54.91955566 145.43267822 C-54.95492666 152.58760434 -55.01179265 159.7423897 -55.06494904 166.89720154 C-55.14287188 177.70228168 -55.19392374 188.50718517 -55.25 199.3125 C-75.38 199.3125 -95.51 199.3125 -116.25 199.3125 C-116.25 134.6325 -116.25 69.9525 -116.25 3.3125 C-100.74 3.3125 -85.23 3.3125 -69.25 3.3125 C-65.375 15.75 -65.375 15.75 -64.16455078 19.67749023 C-63.84470215 20.69012939 -63.52485352 21.70276855 -63.1953125 22.74609375 C-62.70828857 24.30928345 -62.70828857 24.30928345 -62.21142578 25.90405273 C-61.49841211 28.46532992 -61.49841211 28.46532992 -59.25 29.3125 C-59.01152344 28.58804688 -58.77304687 27.86359375 -58.52734375 27.1171875 C-53.42153951 15.90627788 -40.2716258 8.63912585 -29.25 4.5 C-19.65840318 1.12219006 -10.12377091 -0.0594958 0 0 Z " fill="#1D1D1B" transform="translate(761.25,786.6875)"/>
<path d="M0 0 C20.13 0 40.26 0 61 0 C61.03738281 8.58386719 61.07476563 17.16773438 61.11328125 26.01171875 C61.14743234 32.16123811 61.18342874 38.31072511 61.22207737 44.46021557 C61.27182321 52.41429629 61.31730075 60.36832396 61.34643555 68.32250977 C61.36952735 74.62305207 61.4030482 80.92344134 61.44870156 87.22386199 C61.47248473 90.55490537 61.48975354 93.88566108 61.49761391 97.2168026 C61.50731106 100.95034327 61.53543831 104.68334245 61.56762695 108.41674805 C61.56619186 109.50144882 61.56475677 110.5861496 61.5632782 111.70372009 C61.7023936 123.19833954 63.47073037 134.89483672 71 144 C78.27062819 149.91722121 87.06842925 149.6819439 96 149 C103.69604126 147.24526445 110.14325326 144.33908888 114.55078125 137.64453125 C125.0395422 118.77517223 124.1494352 96.30381497 124.31640625 75.390625 C124.33701214 73.21058796 124.35800947 71.03055459 124.37937927 68.8505249 C124.43422492 63.14936315 124.48379752 57.44816763 124.53222656 51.74694824 C124.59161571 44.88678342 124.65763458 38.0266795 124.72252655 31.16656494 C124.82006319 20.77774757 124.90924205 10.38888875 125 0 C145.13 0 165.26 0 186 0 C186 64.35 186 128.7 186 195 C170.49 195 154.98 195 139 195 C132 173 132 173 132 170 C128.46268418 171.17910527 127.93172631 172.1550629 125.8125 175.125 C114.60499326 189.82032004 99.01345557 195.32792193 81.41015625 198.4609375 C79.26389271 198.74814094 77.16333908 198.91098963 75 199 C74.10410156 199.03996094 73.20820312 199.07992187 72.28515625 199.12109375 C51.29654418 199.58995893 31.68006625 194.09710222 16.25 179.43359375 C1.97954868 163.99871324 -0.34392874 143.89921298 -0.22705078 123.74267578 C-0.22648472 122.38102222 -0.22680702 121.01936805 -0.22793579 119.65771484 C-0.2285027 116.00984451 -0.2168574 112.3621094 -0.20278788 108.71427011 C-0.19016847 104.88397336 -0.18910128 101.05367249 -0.18673706 97.22335815 C-0.18055488 89.99185442 -0.16418889 82.76041215 -0.14403808 75.52893531 C-0.1173655 65.74168343 -0.10668004 55.95441438 -0.09503365 46.16713524 C-0.07630542 30.77804424 -0.03643824 15.38908287 0 0 Z " fill="#1D1D1B" transform="translate(854,493)"/>
<path d="M0 0 C1.3721332 1.16669366 2.727625 2.35335471 4.0625 3.5625 C4.67480469 4.08328125 5.28710938 4.6040625 5.91796875 5.140625 C16.60157855 14.85728557 21.04036826 28.62475479 23.0625 42.5625 C23.14741355 44.62391596 23.18455483 46.68766066 23.18275452 48.75082397 C23.18481651 50.58065323 23.18481651 50.58065323 23.18692017 52.44744873 C23.18338178 53.78576685 23.17974698 55.12408472 23.17602539 56.46240234 C23.1757431 57.8819885 23.17590208 59.30157481 23.1764679 60.72116089 C23.17675422 64.56367112 23.17088413 68.40614998 23.16389394 72.24865294 C23.15763296 76.26851968 23.15705443 80.28838719 23.15586853 84.30825806 C23.15276331 91.91541493 23.14456082 99.5225574 23.13451904 107.12970793 C23.12333279 115.7923163 23.11784112 124.45492537 23.11282361 133.11753917 C23.10237753 150.93253594 23.0840421 168.74751296 23.0625 186.5625 C3.2625 186.5625 -16.5375 186.5625 -36.9375 186.5625 C-36.99357422 173.81238281 -36.99357422 173.81238281 -37.05078125 160.8046875 C-37.08493688 154.71156355 -37.12093452 148.61847213 -37.15957737 142.52537727 C-37.20930317 134.64633023 -37.25478329 126.76733652 -37.28393555 118.88818359 C-37.30704294 112.64659471 -37.34058057 106.4051599 -37.38620156 100.16369355 C-37.40996389 96.86450646 -37.42724594 93.56550013 -37.43511391 90.26623154 C-36.52317777 64.20680338 -36.52317777 64.20680338 -47.6875 41.75 C-55.87638228 36.23825231 -63.98586881 35.21513328 -73.71875 37.1015625 C-81.31902293 39.18476984 -87.71008608 42.68788758 -91.9375 49.5625 C-100.62746074 67.01978019 -100.39713689 86.47011872 -100.44921875 105.5078125 C-100.46610424 107.85864169 -100.48425953 110.20946207 -100.50361633 112.56027222 C-100.55070255 118.68549848 -100.58077782 124.81068901 -100.60705566 130.93603516 C-100.64236898 138.31868126 -100.69926153 145.70119016 -100.75244904 153.08372498 C-100.8304764 164.24329807 -100.88144973 175.40269761 -100.9375 186.5625 C-121.0675 186.5625 -141.1975 186.5625 -161.9375 186.5625 C-161.9375 121.8825 -161.9375 57.2025 -161.9375 -9.4375 C-146.7575 -9.4375 -131.5775 -9.4375 -115.9375 -9.4375 C-113.74035357 -4.31082499 -111.8812909 0.52928595 -110.25 5.8125 C-110.02505859 6.51890625 -109.80011719 7.2253125 -109.56835938 7.953125 C-108.64109842 10.92937902 -107.9375 13.4263555 -107.9375 16.5625 C-104.66904958 13.42317704 -104.66904958 13.42317704 -101.7265625 9.98828125 C-91.80236285 -2.9131783 -74.99021148 -10.11850406 -59.23974609 -12.21044922 C-38.91131177 -14.2152683 -16.87290342 -12.70463963 0 0 Z " fill="#1D1D1B" transform="translate(1976.9375,799.4375)"/>
<path d="M0 0 C1.19271011 -0.00855011 1.19271011 -0.00855011 2.40951538 -0.01727295 C4.08175355 -0.02664903 5.75400958 -0.03322717 7.42626953 -0.03710938 C9.93426233 -0.04677223 12.44141881 -0.07784894 14.94921875 -0.109375 C37.70890097 -0.25938327 59.18825862 5.09296305 76.2734375 20.98828125 C89.56658003 35.26330362 92.66844128 53.63947219 92.56298828 72.39526367 C92.5624228 73.786031 92.5627434 75.17679893 92.56387329 76.56756592 C92.56444245 80.30858433 92.55275965 84.04947206 92.53872538 87.79046035 C92.52614448 91.71286449 92.52504176 95.63527228 92.52267456 99.55769348 C92.51648127 106.9699177 92.50009985 114.38208228 92.47997558 121.79428035 C92.45754927 130.23934821 92.44660629 138.68441906 92.43658471 147.12950933 C92.41573149 164.48742181 92.37908244 181.84525263 92.3359375 199.203125 C78.1459375 199.203125 63.9559375 199.203125 49.3359375 199.203125 C43.8909375 186.828125 43.8909375 186.828125 38.3359375 174.203125 C35.00610139 177.50814859 35.00610139 177.50814859 31.7734375 180.90625 C17.38600789 196.38837534 -0.86700915 202.17864662 -21.48266602 203.12817383 C-38.63298295 203.62849886 -55.17387565 200.40963275 -68.6640625 189.203125 C-69.37175781 188.63078125 -70.07945313 188.0584375 -70.80859375 187.46875 C-82.39964356 177.09664425 -86.46659863 161.37306871 -87.4765625 146.390625 C-88.33539624 129.08140291 -85.06769147 113.75992135 -73.9921875 100.1484375 C-56.54519436 80.98656896 -27.09833881 77.57564438 -2.6640625 76.203125 C8.99605627 75.69376316 20.66776292 75.44647989 32.3359375 75.203125 C31.93636855 72.51208869 31.51694647 69.82665513 31.0859375 67.140625 C30.92158203 66.01237305 30.92158203 66.01237305 30.75390625 64.86132812 C29.76151423 58.82862929 28.11937757 53.38871351 23.1171875 49.4609375 C21.98796875 48.90019531 21.98796875 48.90019531 20.8359375 48.328125 C20.083125 47.93882812 19.3303125 47.54953125 18.5546875 47.1484375 C1.03515088 39.68412788 -21.7604921 48.07855789 -38.2890625 54.515625 C-42.0139396 56.01987821 -42.0139396 56.01987821 -45.72900391 57.5480957 C-47.6640625 58.203125 -47.6640625 58.203125 -50.6640625 58.203125 C-52.93097902 53.17065412 -55.19111008 48.13521185 -57.44506836 43.09692383 C-58.21242541 41.38418031 -58.98161443 39.67225632 -59.75268555 37.96118164 C-60.86211662 35.49840202 -61.96487749 33.03272862 -63.06640625 30.56640625 C-63.41122543 29.80475662 -63.75604462 29.04310699 -64.11131287 28.25837708 C-65.74305301 24.58802006 -67.10531968 21.21843831 -67.6640625 17.203125 C-47.20240307 5.88903096 -23.35016005 0.13452059 0 0 Z M-17.62109375 120.0625 C-23.31125705 126.22780932 -25.54158776 131.82040929 -25.6640625 140.203125 C-25.09046703 145.81161403 -23.92104321 150.28222171 -19.6640625 154.203125 C-12.77645078 159.11096427 -4.73842283 159.91278183 3.4921875 158.76171875 C13.15042942 156.62763752 21.26184282 152.15803072 27.3359375 144.203125 C33.16291024 133.39673918 32.46570111 122.08370454 32.3359375 110.203125 C5.64879209 109.47677449 5.64879209 109.47677449 -17.62109375 120.0625 Z " fill="#1D1D1B" transform="translate(1181.6640625,786.796875)"/>
<path d="M0 0 C18.48834895 16.75221075 28.61442481 40.45787468 30.37109375 65.1484375 C31.64681502 96.08405162 29.11940077 128.110835 7.37109375 152.1484375 C6.7059375 152.90640625 6.04078125 153.664375 5.35546875 154.4453125 C-11.59647771 172.6529587 -36.10314805 180.0807122 -60.35766602 181.12475586 C-87.00447467 181.73961915 -112.6552526 175.536345 -132.62890625 157.1484375 C-133.24765625 156.62121094 -133.86640625 156.09398437 -134.50390625 155.55078125 C-151.91770773 139.78967853 -160.21272474 113.86932938 -161.62890625 91.1484375 C-162.99198057 60.9963849 -159.47684491 30.22826475 -138.9609375 6.63671875 C-104.01420024 -30.65150844 -38.81395634 -32.41741634 0 0 Z M-90.62890625 36.1484375 C-102.58230423 54.1530569 -102.27766908 82.3027991 -98.37890625 102.8984375 C-97.84438839 104.99482635 -97.26709852 107.08124951 -96.62890625 109.1484375 C-96.37367188 110.05722656 -96.1184375 110.96601562 -95.85546875 111.90234375 C-93.26250844 119.69311899 -88.18530655 126.02496874 -81.41796875 130.6640625 C-72.98324413 134.75188126 -61.93486303 134.74781281 -53.078125 132.078125 C-46.48995278 129.07529681 -42.13330929 125.47745971 -38.62890625 119.1484375 C-38.25378906 118.49359375 -37.87867188 117.83875 -37.4921875 117.1640625 C-31.53550702 105.38356431 -31.07675113 91.69860443 -31.19140625 78.7734375 C-31.1941153 78.05397949 -31.19682434 77.33452148 -31.19961548 76.59326172 C-31.28568146 61.50595765 -32.06373239 45.75026931 -42.59765625 33.94140625 C-49.46811136 27.22819748 -56.14708043 25.08909367 -65.62890625 24.7734375 C-76.20541009 25.12553622 -83.62631421 27.99492439 -90.62890625 36.1484375 Z " fill="#1D1D1B" transform="translate(339.62890625,808.8515625)"/>
<path d="M0 0 C20.01206314 18.68363924 28.6937042 44.29265905 29.91748047 71.11328125 C30.90100644 100.58240712 25.75569295 130.00633645 5.8125 152.8125 C-12.71545642 172.50390737 -37.45203397 179.89597212 -63.8515625 180.77734375 C-90.9206096 181.24780834 -116.42255391 173.34735116 -136.1875 154.375 C-157.59829193 132.84780785 -162.49584996 103.95986647 -162.43408203 74.7355957 C-162.27574488 49.36898702 -156.27224687 25.23416234 -139.1875 5.8125 C-138.52105469 5.05066406 -137.85460938 4.28882813 -137.16796875 3.50390625 C-102.82726332 -33.25785077 -37.17196951 -29.91890229 0 0 Z M-90.1875 33.8125 C-102.30467069 48.78076967 -102.37568273 72.87911259 -100.671875 91.11108398 C-99.35463337 103.48355044 -96.95579778 118.21081938 -86.9765625 126.69140625 C-77.7756711 133.03421344 -69.10507546 133.83889385 -58.1875 132.8125 C-50.98565401 131.29200913 -45.48750621 127.78824393 -41.1875 121.8125 C-29.27285933 102.05780097 -29.25447408 73.98567981 -34.28515625 52.0546875 C-36.96565744 42.42344945 -40.55081129 33.75746111 -49.56640625 28.3984375 C-62.91247261 22.28607103 -79.58939947 22.70972802 -90.1875 33.8125 Z " fill="#1D1D1B" transform="translate(1745.1875,809.1875)"/>
<path d="M0 0 C48.84 0 97.68 0 148 0 C148 16.5 148 33 148 50 C118.96 50 89.92 50 60 50 C60 68.48 60 86.96 60 106 C86.73 106 113.46 106 141 106 C141 122.5 141 139 141 156 C114.27 156 87.54 156 60 156 C60 188.34 60 220.68 60 254 C40.2 254 20.4 254 0 254 C0 170.18 0 86.36 0 0 Z " fill="#1D1D1B" transform="translate(0,732)"/>
<path d="M0 0 C1.11282878 3.33848635 0.9774932 3.73516037 -0.29174805 6.81298828 C-0.59924484 7.57032257 -0.90674164 8.32765686 -1.22355652 9.10794067 C-1.56615005 9.92052338 -1.90874359 10.73310608 -2.26171875 11.5703125 C-2.78231621 12.82556229 -2.78231621 12.82556229 -3.31343079 14.10617065 C-4.05093201 15.87509661 -4.7935202 17.64190894 -5.54077148 19.40673828 C-6.68292821 22.11416279 -7.79820794 24.83163091 -8.91210938 27.55078125 C-9.63119988 29.26630185 -10.35185121 30.98116921 -11.07421875 32.6953125 C-11.57292732 33.92025925 -11.57292732 33.92025925 -12.08171082 35.16995239 C-12.40496841 35.92098236 -12.72822601 36.67201233 -13.0612793 37.44580078 C-13.33965134 38.10959747 -13.61802338 38.77339417 -13.90483093 39.45730591 C-15 41 -15 41 -16.89241028 41.80075073 C-20.56169054 42.14764055 -23.75281054 40.29648285 -27.0625 38.875 C-33.65651314 36.17480107 -40.22781565 33.92022313 -47.125 32.125 C-47.89336182 31.92245605 -48.66172363 31.71991211 -49.45336914 31.51123047 C-60.4889563 28.72559494 -73.05071317 27.02463652 -84 31 C-86.6715404 32.50279176 -86.6715404 32.50279176 -88 35 C-88.75011367 38.45728358 -88.75011367 38.45728358 -88 42 C-84.6133714 45.98317235 -81.17208908 48.22597434 -76.5 50.5 C-75.83347412 50.82621338 -75.16694824 51.15242676 -74.48022461 51.48852539 C-67.88038523 54.67269006 -61.16994428 57.61492345 -54.47354126 60.58853149 C-9.61424599 80.51700174 -9.61424599 80.51700174 -0.625 100.875 C5.33816775 117.52437543 4.37253997 137.59221075 -2.78125 153.76953125 C-5.05008253 157.92178565 -7.8775386 161.46078297 -11 165 C-11.59683594 165.6909375 -12.19367188 166.381875 -12.80859375 167.09375 C-27.76954778 183.26775435 -50.97895168 187.07525431 -72 188 C-96.98666334 188.86676224 -123.87644559 187.43629447 -147 177 C-148 176 -148 176 -148.12025452 174.01951599 C-148.11803391 173.15125687 -148.11581329 172.28299774 -148.11352539 171.38842773 C-148.11344986 170.40748642 -148.11337433 169.4265451 -148.11329651 168.4158783 C-148.10813522 167.3492244 -148.10297394 166.2825705 -148.09765625 165.18359375 C-148.0962413 164.0974025 -148.09482635 163.01121124 -148.09336853 161.8921051 C-148.08775048 158.40720925 -148.07519492 154.92237658 -148.0625 151.4375 C-148.05748733 149.08138113 -148.05292402 146.72526126 -148.04882812 144.36914062 C-148.03777519 138.57940536 -148.02101951 132.78970719 -148 127 C-143.39722217 128.52583635 -138.79693078 130.05155952 -134.23046875 131.68359375 C-122.29874897 135.8633456 -110.47321754 138.93651859 -98 141 C-96.84886719 141.19335938 -95.69773437 141.38671875 -94.51171875 141.5859375 C-82.64993834 142.98454565 -69.02578015 143.9180461 -58.875 136.8125 C-56.89378704 133.84068055 -56.40919926 131.72800401 -56.3359375 128.16015625 C-58.00101348 122.74376202 -62.23645729 119.46656869 -67.06103516 116.88256836 C-67.72151855 116.5500708 -68.38200195 116.21757324 -69.0625 115.875 C-69.77712402 115.5044751 -70.49174805 115.1339502 -71.22802734 114.75219727 C-78.97230474 110.83843128 -86.98281092 107.52971699 -94.97311401 104.15753174 C-108.42433861 98.47459547 -121.00045167 92.83323424 -132 83 C-132.63292969 82.48308594 -133.26585937 81.96617187 -133.91796875 81.43359375 C-142.54279404 73.83689333 -147.26361471 61.71237398 -148.21704102 50.43212891 C-148.96451519 33.66844726 -147.45968368 18.7955932 -135.953125 5.6640625 C-125.31365598 -4.79689193 -111.37799821 -10.03707195 -97 -13 C-95.97648437 -13.22429687 -94.95296875 -13.44859375 -93.8984375 -13.6796875 C-63.54356099 -19.17821352 -27.51747688 -14.34122518 0 0 Z " fill="#1D1D1B" transform="translate(1228,504)"/>
<path d="M0 0 C13.2 0 26.4 0 40 0 C40 13.2 40 26.4 40 40 C56.83 40 73.66 40 91 40 C91 55.18 91 70.36 91 86 C74.17 86 57.34 86 40 86 C40.06174182 101.9786902 40.06174182 101.9786902 40.16015625 117.95703125 C40.20844855 124.4770533 40.25250936 130.99690627 40.27099609 137.51708984 C40.2861759 142.77574667 40.32064544 148.03396023 40.36830902 153.29241943 C40.38310908 155.29535055 40.39104022 157.29834495 40.39188385 159.30133057 C40.39425937 162.11412426 40.42138618 164.92569876 40.45410156 167.73828125 C40.4490712 168.56043625 40.44404083 169.38259125 40.43885803 170.22966003 C40.5398457 175.86731561 41.76494687 180.31845717 45 185 C52.19567226 190.84648371 60.02271015 190.84734099 69 190 C74.32097302 189.11863263 79.55561753 187.8292641 84.77514648 186.48071289 C87.81921387 185.82299659 90.91698877 185.44043018 94 185 C94 199.85 94 214.7 94 230 C66.08710755 239.30429748 34.5392909 245.94514866 6.51953125 232.83984375 C-5.01531306 226.83090475 -12.71217709 217.46150906 -17.08976746 205.13545227 C-21.37841496 190.36246965 -21.41201784 175.16898699 -21.29296875 159.92578125 C-21.2873562 157.77817586 -21.28309398 155.63056657 -21.28010559 153.48295593 C-21.26878726 147.89847743 -21.23943608 142.31424236 -21.20599365 136.7298584 C-21.17500813 131.00418386 -21.16154011 125.27846903 -21.14648438 119.55273438 C-21.11455063 108.36836679 -21.0618931 97.18424195 -21 86 C-29.25 86 -37.5 86 -46 86 C-48.47140392 67.01961787 -48.47140392 67.01961787 -46 60 C-39.1815092 52.04228811 -28.0266475 46.40031954 -18.21484375 43.04858398 C-15.57326815 42.10768513 -15.57326815 42.10768513 -14.60546875 38.44140625 C-14.26201416 37.23508545 -14.26201416 37.23508545 -13.91162109 36.00439453 C-12.76235915 32.21681621 -11.32547015 28.57838534 -9.86328125 24.90234375 C-9.60894821 24.25809952 -9.35461517 23.61385529 -9.09257507 22.9500885 C-8.16847004 20.6115352 -7.24025201 18.27460887 -6.3125 15.9375 C-3.1878125 8.0484375 -3.1878125 8.0484375 0 0 Z " fill="#1D1D1B" transform="translate(1352,750)"/>
<path d="M0 0 C12.87 0 25.74 0 39 0 C39 13.53 39 27.06 39 41 C56.16 41 73.32 41 91 41 C91 55.85 91 70.7 91 86 C73.84 86 56.68 86 39 86 C39.09088978 101.42103774 39.09088978 101.42103774 39.20898438 116.84179688 C39.26321517 123.13563763 39.31432894 129.4293911 39.34643555 135.72338867 C39.37253505 140.80044781 39.41298442 145.87721221 39.46318626 150.95408821 C39.47981008 152.88641747 39.49135219 154.81879766 39.49761391 156.75118828 C39.50730394 159.4678185 39.53542112 162.18370222 39.56762695 164.90014648 C39.56619186 165.69065399 39.56475677 166.4811615 39.5632782 167.29562378 C39.6580918 172.98843824 40.98348171 177.69926975 43 183 C43.33 183.99 43.66 184.98 44 186 C52.95934856 191.64107132 64.57876156 191.21319196 74.61328125 189.13671875 C77.51140393 188.47370703 80.38551181 187.73911268 83.2578125 186.97265625 C87 186 87 186 93 185 C93 199.85 93 214.7 93 230 C77.8214357 235.83790935 77.8214357 235.83790935 71 237.25 C70.23655273 237.41274414 69.47310547 237.57548828 68.68652344 237.74316406 C62.1407578 239.08088453 55.68160738 239.7990494 49 240 C47.93007812 240.0515625 46.86015625 240.103125 45.7578125 240.15625 C28.55042102 240.63312921 9.99638024 238.17847456 -3.5 226.6875 C-16.33729709 214.06030598 -20.9760386 197.82981641 -21.21174431 180.20136929 C-21.23908842 174.97253716 -21.22070098 169.74442746 -21.1953125 164.515625 C-21.19157659 162.24591192 -21.18873235 159.97619721 -21.18673706 157.70648193 C-21.17914609 151.76850841 -21.15953708 145.83063464 -21.1373291 139.8927002 C-21.11677238 133.81910552 -21.10771443 127.74549453 -21.09765625 121.671875 C-21.07628647 109.78119939 -21.04114184 97.89062365 -21 86 C-29.25 86 -37.5 86 -46 86 C-47.9896619 62.94332971 -47.9896619 62.94332971 -44.52490234 57.81787109 C-40.68989521 54.33988557 -36.23226346 52.33454223 -31.55883789 50.21679688 C-20.74194443 45.07307042 -15.31530096 40.07423115 -11.24243164 28.66552734 C-11.0180542 28.03340332 -10.79367676 27.4012793 -10.5625 26.75 C-10.08498418 25.48951421 -9.60387306 24.23038446 -9.11914062 22.97265625 C-8.21614359 20.62099309 -7.339322 18.26552307 -6.47875977 15.89746094 C-4.44882289 10.54730207 -2.20088886 5.28213326 0 0 Z " fill="#1D1D1B" transform="translate(1298,452)"/>
<path d="M0 0 C19.8 0 39.6 0 60 0 C60 64.68 60 129.36 60 196 C40.2 196 20.4 196 0 196 C0 131.32 0 66.64 0 0 Z " fill="#1D1D1B" transform="translate(1482,790)"/>
<path d="M0 0 C5.95127694 5.7199098 6.7930341 13.09894675 7.05859375 20.98828125 C6.94872438 29.07466671 5.2849791 36.26581278 -0.37890625 42.26953125 C-7.75082354 48.24332629 -16.23228961 48.937532 -25.31640625 48.98828125 C-26.21617188 49.00890625 -27.1159375 49.02953125 -28.04296875 49.05078125 C-36.98133535 49.10215117 -45.48396329 47.42486818 -52.49609375 41.5625 C-58.08834686 35.54502948 -58.53896675 28.46692649 -58.62890625 20.61328125 C-58.63921875 19.86143555 -58.64953125 19.10958984 -58.66015625 18.33496094 C-58.56457785 12.27369732 -57.4283565 6.70505877 -53.71875 1.78515625 C-39.21867733 -10.04291285 -15.252251 -11.27827 0 0 Z " fill="#1D1D1B" transform="translate(1538.19140625,720.26171875)"/>
</svg>
