<?xml version="1.0" ?>

<!-- Uploaded to: SVG Repo, www.svgrepo.com, Generator: SVG Repo Mixer Tools -->
<svg width="800px" height="800px" viewBox="0 0 281.25 281.25" id="svg2" version="1.1" xml:space="preserve" xmlns="http://www.w3.org/2000/svg" xmlns:cc="http://creativecommons.org/ns#" xmlns:dc="http://purl.org/dc/elements/1.1/" xmlns:rdf="http://www.w3.org/1999/02/22-rdf-syntax-ns#" xmlns:svg="http://www.w3.org/2000/svg">

<defs id="defs4"/>

<g id="layer1" transform="translate(6984.8564,-3697.2496)">

<g id="g25569" transform="translate(-2256.2244,-367.4373)">

<path d="m -4584.2308,4135.6675 c -1.9341,0.028 -3.8704,0.2166 -5.788,0.5713 -7.2141,1.3341 -13.9019,4.9469 -18.9733,10.2484 a 4.6875,4.6875 0 0 0 -0.727,0.9961 4.6875,4.6875 0 0 0 -0.01,0.01 l -86.3837,159.375 a 4.6875,4.6875 0 0 0 -0.2563,1.0748 4.6875,4.6875 0 0 0 -0.2838,1.1865 4.6875,4.6875 0 0 0 0.2856,1.1389 4.6875,4.6875 0 0 0 0.2802,1.1151 4.6875,4.6875 0 0 0 0.073,0.075 4.6875,4.6875 0 0 0 0.813,0.8386 4.6875,4.6875 0 0 0 0.9027,0.857 4.6875,4.6875 0 0 0 0.073,0.068 4.6875,4.6875 0 0 0 1.0491,0.2509 4.6875,4.6875 0 0 0 1.2177,0.2911 4.6875,4.6875 0 0 0 1.1261,-0.2856 4.6875,4.6875 0 0 0 1.1224,-0.282 l 159.17,-88.7036 a 4.6875,4.6875 0 0 0 0.108,-0.073 4.6875,4.6875 0 0 0 0.062,-0.027 c 7.8838,-4.842 13.1396,-13.2849 14.004,-22.4964 0.6677,-7.1148 -1.2938,-14.3173 -5.4712,-20.1123 a 4.6875,4.6875 0 0 0 -0.013,-0.018 c -0.028,-0.039 -0.054,-0.078 -0.082,-0.1172 a 4.6875,4.6875 0 0 0 -0.031,-0.033 4.6875,4.6875 0 0 0 -0.5054,-0.5805 l -38.3551,-36.9342 a 4.6875,4.6875 0 0 0 -0.029,-0.022 4.6875,4.6875 0 0 0 -0.2032,-0.1886 c -5.9692,-5.0214 -13.5263,-7.879 -21.2457,-8.1958 -0.6433,-0.026 -1.2871,-0.035 -1.9318,-0.026 z m 0.1154,9.3896 c 6.083,-0.059 12.2886,2.0671 16.9281,5.9272 l 37.8918,36.4874 c 2.713,3.8739 4.0395,8.8425 3.598,13.5461 -0.5751,6.1287 -4.3075,12.1344 -9.5471,15.3663 l -144.9353,80.7678 29.436,-54.3109 12.2919,8.507 a 4.6875,4.6875 0 0 0 6.5222,-1.1883 4.6875,4.6875 0 0 0 -1.1865,-6.5204 l -13.1341,-9.0894 16.4428,-30.3369 20.4016,18.3087 a 4.6875,4.6875 0 0 0 6.6211,-0.357 4.6875,4.6875 0 0 0 -0.3589,-6.6193 l -22.0697,-19.8065 15.8002,-29.1522 28.4363,25.9717 a 4.6875,4.6875 0 0 0 6.6229,-0.3003 4.6875,4.6875 0 0 0 -0.3003,-6.6211 l -30.1556,-27.5427 3.0029,-5.5408 c 3.6362,-3.6252 8.4489,-6.1643 13.4931,-7.0972 1.3788,-0.255 2.785,-0.3855 4.1986,-0.3992 z" id="path4934" style="color:#000000;fill:#fba021;fill-opacity:1;stroke-linecap:round;stroke-linejoin:round;-inkscape-stroke:none"/>

<path d="m -4484.6727,4096.862 a 4.6875,4.6875 0 0 0 -3.2684,1.4776 l -46.9299,50.0574 12.5006,-42.691 a 4.6875,4.6875 0 0 0 -3.1824,-5.8173 4.6875,4.6875 0 0 0 -5.8154,3.1824 l -15.8497,54.1278 10.9003,10.4956 53.9374,-20.5243 a 4.6875,4.6875 0 0 0 2.7118,-6.0498 4.6875,4.6875 0 0 0 -6.0462,-2.7118 l -41.8817,15.9375 46.4942,-49.5941 a 4.6875,4.6875 0 0 0 -0.2143,-6.6248 4.6875,4.6875 0 0 0 -3.3563,-1.2652 z" id="path4954" style="color:#000000;fill:#333333;fill-opacity:1;stroke-linecap:round;stroke-linejoin:round;-inkscape-stroke:none"/>

</g>

</g>

</svg>