<?xml version="1.0" encoding="UTF-8" standalone="no"?>
<svg
   xmlns:dc="http://purl.org/dc/elements/1.1/"
   xmlns:cc="http://creativecommons.org/ns#"
   xmlns:rdf="http://www.w3.org/1999/02/22-rdf-syntax-ns#"
   xmlns:svg="http://www.w3.org/2000/svg"
   xmlns="http://www.w3.org/2000/svg"
   viewBox="0 0 561.26001 561.26001"
   height="561.26001"
   width="561.26001"
   xml:space="preserve"
   id="svg2"
   version="1.1"><metadata
     id="metadata8"><rdf:RDF><cc:Work
         rdf:about=""><dc:format>image/svg+xml</dc:format><dc:type
           rdf:resource="http://purl.org/dc/dcmitype/StillImage" /></cc:Work></rdf:RDF></metadata><defs
     id="defs6"><clipPath
       id="clipPath18"
       clipPathUnits="userSpaceOnUse"><path
         id="path16"
         d="M 0,420.945 H 420.945 V 0 H 0 Z" /></clipPath><clipPath
       id="clipPath84"
       clipPathUnits="userSpaceOnUse"><path
         id="path82"
         d="M 153.487,294.967 H 269.218 V 179.236 H 153.487 Z" /></clipPath><linearGradient
       id="linearGradient100"
       spreadMethod="pad"
       gradientTransform="matrix(115.73148,0,0,-115.73148,153.48668,237.10164)"
       gradientUnits="userSpaceOnUse"
       y2="0"
       x2="1"
       y1="0"
       x1="0"><stop
         id="stop90"
         offset="0"
         style="stop-opacity:1;stop-color:#00e3bd" /><stop
         id="stop92"
         offset="0.00865746"
         style="stop-opacity:1;stop-color:#00e3bd" /><stop
         id="stop94"
         offset="0.5"
         style="stop-opacity:1;stop-color:#0197c9" /><stop
         id="stop96"
         offset="0.95262386"
         style="stop-opacity:1;stop-color:#4d6098" /><stop
         id="stop98"
         offset="1"
         style="stop-opacity:1;stop-color:#4d6098" /></linearGradient><clipPath
       id="clipPath130"
       clipPathUnits="userSpaceOnUse"><path
         id="path128"
         d="m 202.08,245.639 h 37.755 V 228.564 H 202.08 Z" /></clipPath><clipPath
       id="clipPath146"
       clipPathUnits="userSpaceOnUse"><path
         id="path144"
         d="m 202.08,224.77 h 37.755 V 207.694 H 202.08 Z" /></clipPath><clipPath
       id="clipPath162"
       clipPathUnits="userSpaceOnUse"><path
         id="path160"
         d="m 202.08,266.509 h 37.755 V 249.434 H 202.08 Z" /></clipPath></defs><g
     transform="matrix(1.3333333,0,0,-1.3333333,0,561.26)"
     id="g10"><g
       id="g12"><g
         clip-path="url(#clipPath18)"
         id="g14"><g
           transform="translate(93.3566,129.5637)"
           id="g20"><path
             id="path22"
             style="fill:#142853;fill-opacity:1;fill-rule:nonzero;stroke:none"
             d="m 0,0 v 4.928 h 21.146 c 1.32,0 2.334,0.336 3.046,1.009 0.712,0.672 1.067,1.564 1.067,2.677 0,1.216 -0.355,2.127 -1.067,2.735 -0.712,0.608 -1.726,0.913 -3.046,0.913 H 8.187 c -1.319,0 -2.516,0.199 -3.589,0.601 -1.074,0.4 -1.979,0.956 -2.716,1.668 -0.738,0.711 -1.307,1.558 -1.708,2.542 -0.401,0.982 -0.601,2.056 -0.601,3.22 0,1.138 0.187,2.192 0.563,3.163 0.374,0.969 0.931,1.803 1.668,2.502 0.737,0.699 1.649,1.248 2.735,1.649 1.087,0.4 2.329,0.601 3.726,0.601 H 28.519 V 23.281 H 8.265 c -1.139,0 -2.018,-0.305 -2.639,-0.912 -0.621,-0.608 -0.931,-1.455 -0.931,-2.542 0,-1.086 0.316,-1.927 0.951,-2.522 0.633,-0.595 1.493,-0.892 2.58,-0.892 h 12.92 c 2.871,0 5.051,-0.673 6.538,-2.018 1.488,-1.345 2.231,-3.389 2.231,-6.13 0,-1.19 -0.181,-2.289 -0.543,-3.299 C 29.01,3.958 28.466,3.085 27.742,2.348 27.018,1.61 26.106,1.034 25.007,0.621 23.907,0.207 22.621,0 21.146,0 Z" /></g><g
           transform="translate(140.3825,129.5637)"
           id="g24"><path
             id="path26"
             style="fill:#142853;fill-opacity:1;fill-rule:nonzero;stroke:none"
             d="m 0,0 c -1.966,0 -3.783,0.369 -5.452,1.106 -1.668,0.738 -3.117,1.746 -4.345,3.026 -1.229,1.281 -2.186,2.8 -2.872,4.56 -0.685,1.758 -1.028,3.659 -1.028,5.703 0,2.069 0.343,3.958 1.028,5.665 0.686,1.707 1.643,3.162 2.872,4.365 1.228,1.203 2.677,2.134 4.345,2.794 1.669,0.66 3.486,0.989 5.452,0.989 H 15.288 V 23.281 H 0 c -1.268,0 -2.438,-0.227 -3.511,-0.68 -1.074,-0.452 -1.999,-1.08 -2.775,-1.881 -0.776,-0.802 -1.384,-1.76 -1.823,-2.871 -0.441,-1.113 -0.66,-2.342 -0.66,-3.687 0,-1.319 0.219,-2.548 0.66,-3.686 C -7.67,9.338 -7.062,8.362 -6.286,7.547 -5.51,6.732 -4.585,6.092 -3.511,5.626 -2.438,5.161 -1.268,4.928 0,4.928 H 15.288 V 0 Z" /></g><g
           transform="translate(189.0775,129.5637)"
           id="g28"><path
             id="path30"
             style="fill:#142853;fill-opacity:1;fill-rule:nonzero;stroke:none"
             d="m 0,0 -4.23,7.101 h -13.347 l 2.328,3.996 h 8.653 L -12.882,21.651 -25.686,0 h -5.626 l 16.218,27.005 c 0.285,0.491 0.621,0.879 1.009,1.164 0.388,0.285 0.854,0.427 1.397,0.427 0.543,0 1.002,-0.142 1.378,-0.427 0.374,-0.285 0.704,-0.673 0.989,-1.164 L 5.936,0 Z" /></g><g
           transform="translate(202.6189,150.2062)"
           id="g32"><path
             id="path34"
             style="fill:#142853;fill-opacity:1;fill-rule:nonzero;stroke:none"
             d="M 0,0 V -20.643 H -4.696 V 4.966 c 0,0.905 0.227,1.623 0.68,2.154 0.452,0.53 1.067,0.795 1.843,0.795 0.362,0 0.711,-0.077 1.047,-0.233 0.337,-0.155 0.686,-0.414 1.048,-0.776 L 19.827,-12.843 V 7.799 h 4.695 v -25.842 c 0,-0.931 -0.227,-1.656 -0.679,-2.172 -0.453,-0.518 -1.041,-0.776 -1.766,-0.776 -0.802,0 -1.552,0.348 -2.25,1.047 z" /></g><g
           transform="translate(240.9536,129.5637)"
           id="g36"><path
             id="path38"
             style="fill:#142853;fill-opacity:1;fill-rule:nonzero;stroke:none"
             d="m 0,0 v 23.281 h -10.71 v 4.927 H 15.636 V 23.281 H 4.927 V 0 Z" /></g><path
           id="path40"
           style="fill:#142853;fill-opacity:1;fill-rule:nonzero;stroke:none"
           d="m 260.12,157.772 h 4.927 v -28.208 h -4.927 z" /><g
           transform="translate(270.2086,129.5637)"
           id="g42"><path
             id="path44"
             style="fill:#142853;fill-opacity:1;fill-rule:nonzero;stroke:none"
             d="m 0,0 v 4.928 h 21.147 c 1.319,0 2.333,0.336 3.045,1.009 0.712,0.672 1.067,1.564 1.067,2.677 0,1.216 -0.355,2.127 -1.067,2.735 -0.712,0.608 -1.726,0.913 -3.045,0.913 H 8.187 c -1.319,0 -2.516,0.199 -3.589,0.601 -1.074,0.4 -1.978,0.956 -2.716,1.668 -0.737,0.711 -1.306,1.558 -1.708,2.542 -0.401,0.982 -0.601,2.056 -0.601,3.22 0,1.138 0.188,2.192 0.563,3.163 0.375,0.969 0.931,1.803 1.669,2.502 0.736,0.699 1.649,1.248 2.734,1.649 1.087,0.4 2.329,0.601 3.726,0.601 H 28.519 V 23.281 H 8.265 c -1.139,0 -2.018,-0.305 -2.639,-0.912 -0.621,-0.608 -0.931,-1.455 -0.931,-2.542 0,-1.086 0.316,-1.927 0.951,-2.522 0.633,-0.595 1.494,-0.892 2.58,-0.892 h 12.921 c 2.871,0 5.05,-0.673 6.537,-2.018 1.488,-1.345 2.232,-3.389 2.232,-6.13 0,-1.19 -0.181,-2.289 -0.544,-3.299 C 29.01,3.958 28.467,3.085 27.742,2.348 27.018,1.61 26.106,1.034 25.007,0.621 23.907,0.207 22.621,0 21.147,0 Z" /></g><g
           transform="translate(313.3935,129.5637)"
           id="g46"><path
             id="path48"
             style="fill:#142853;fill-opacity:1;fill-rule:nonzero;stroke:none"
             d="m 0,0 v 23.281 h -10.709 v 4.927 H 15.637 V 23.281 H 4.928 L 4.928,0 Z" /></g><g
           transform="translate(261.3908,228.5641)"
           id="g50"><path
             id="path52"
             style="fill:#ffffff;fill-opacity:1;fill-rule:nonzero;stroke:none"
             d="m 0,0 h 7.199 c 0.412,2.786 0.628,5.637 0.628,8.538 0,2.901 -0.216,5.751 -0.628,8.537 L 0,17.075 C 0.471,14.281 0.713,11.428 0.713,8.538 0.713,5.647 0.471,2.794 0,0" /></g><g
           transform="translate(211.3524,280.9753)"
           id="g54"><path
             id="path56"
             style="fill:#ffffff;fill-opacity:1;fill-rule:nonzero;stroke:none"
             d="m 0,0 c 24.231,0 43.874,-19.643 43.874,-43.874 0,-24.23 -19.643,-43.873 -43.874,-43.873 -24.231,0 -43.874,19.643 -43.874,43.873 C -43.874,-19.643 -24.231,0 0,0" /></g><g
           transform="translate(193.5658,292.1789)"
           id="g58"><path
             id="path60"
             style="fill:#ffffff;fill-opacity:1;fill-rule:nonzero;stroke:none"
             d="m 0,0 c -19.432,-6.272 -34.371,-22.54 -38.758,-42.745 h 7.294 c 2.197,8.839 6.757,16.947 13.364,23.554 5.222,5.222 11.383,9.162 18.1,11.671 z" /></g><g
           transform="translate(211.3524,294.9674)"
           id="g62"><path
             id="path64"
             style="fill:#ffffff;fill-opacity:1;fill-rule:nonzero;stroke:none"
             d="m 0,0 c -4.825,0 -9.511,-0.592 -13.992,-1.705 v -7.356 c 4.493,1.281 9.191,1.946 13.992,1.946 13.556,0 26.301,-5.279 35.887,-14.864 6.606,-6.607 11.167,-14.715 13.363,-23.555 h 7.294 C 50.893,-19.501 27.726,0 0,0" /></g><g
           transform="translate(161.3141,228.5641)"
           id="g66"><path
             id="path68"
             style="fill:#ffffff;fill-opacity:1;fill-rule:nonzero;stroke:none"
             d="m 0,0 c -0.471,2.794 -0.713,5.647 -0.713,8.538 0,2.89 0.242,5.743 0.713,8.537 H -7.199 C -7.611,14.289 -7.827,11.439 -7.827,8.538 -7.827,5.637 -7.611,2.786 -7.199,0 Z" /></g><g
           transform="translate(193.5658,189.5445)"
           id="g70"><path
             id="path72"
             style="fill:#ffffff;fill-opacity:1;fill-rule:nonzero;stroke:none"
             d="m 0,0 c -6.717,2.509 -12.878,6.449 -18.1,11.671 -6.607,6.607 -11.167,14.714 -13.364,23.554 h -7.294 C -34.371,15.019 -19.432,-1.248 0,-7.52 Z" /></g><g
           transform="translate(260.6025,224.7696)"
           id="g74"><path
             id="path76"
             style="fill:#ffffff;fill-opacity:1;fill-rule:nonzero;stroke:none"
             d="m 0,0 c -2.197,-8.84 -6.757,-16.948 -13.364,-23.554 -9.585,-9.586 -22.33,-14.865 -35.886,-14.865 -4.801,0 -9.499,0.665 -13.992,1.946 v -7.356 c 4.48,-1.113 9.167,-1.705 13.992,-1.705 27.726,0 50.893,19.501 56.544,45.534 z" /></g><g
           id="g78"><g
             id="g80" /><g
             id="g114"><g
               id="g112"
               clip-path="url(#clipPath84)"><g
                 id="g110"><g
                   id="g108"><g
                     id="g106"><g
                       id="g104"><path
                         id="path102"
                         style="fill:url(#linearGradient100);stroke:none"
                         d="m 260.603,224.77 c -2.197,-8.84 -6.757,-16.948 -13.364,-23.555 -9.586,-9.585 -22.33,-14.864 -35.887,-14.864 -4.801,0 -9.499,0.665 -13.992,1.946 v -7.356 c 4.481,-1.113 9.167,-1.705 13.992,-1.705 27.726,0 50.893,19.501 56.545,45.534 z m -67.037,-35.226 c -6.718,2.509 -12.878,6.449 -18.1,11.671 -6.607,6.607 -11.167,14.715 -13.364,23.555 h -7.294 c 4.387,-20.206 19.326,-36.474 38.758,-42.746 z m -32.252,39.02 c -0.471,2.794 -0.713,5.647 -0.713,8.538 0,2.89 0.242,5.743 0.713,8.537 h -7.199 c -0.412,-2.786 -0.628,-5.636 -0.628,-8.537 0,-2.901 0.216,-5.752 0.628,-8.538 z m 100.077,0 h 7.199 c 0.412,2.786 0.628,5.637 0.628,8.538 0,2.901 -0.216,5.751 -0.628,8.537 h -7.199 c 0.47,-2.794 0.713,-5.647 0.713,-8.537 0,-2.891 -0.243,-5.744 -0.713,-8.538 m -50.039,66.403 c -4.825,0 -9.511,-0.592 -13.992,-1.705 v -7.356 c 4.493,1.281 9.191,1.947 13.992,1.947 13.557,0 26.301,-5.279 35.887,-14.865 6.607,-6.607 11.167,-14.715 13.364,-23.554 h 7.294 c -5.652,26.033 -28.819,45.533 -56.545,45.533 m -17.786,-2.788 c -19.432,-6.272 -34.371,-22.54 -38.758,-42.745 h 7.294 c 2.197,8.839 6.757,16.947 13.364,23.554 5.222,5.222 11.382,9.162 18.1,11.671 z m 17.786,-11.204 c 24.231,0 43.874,-19.643 43.874,-43.873 0,-24.231 -19.643,-43.874 -43.874,-43.874 -24.23,0 -43.873,19.643 -43.873,43.874 0,24.23 19.643,43.873 43.873,43.873" /></g></g></g></g></g></g></g><g
           transform="translate(220.6253,249.4337)"
           id="g116"><path
             id="path118"
             style="fill:#ffffff;fill-opacity:1;fill-rule:nonzero;stroke:none"
             d="M 0,0 C -0.952,9.587 -9.04,17.075 -18.878,17.075 -28.715,17.075 -36.803,9.587 -37.755,0 Z" /></g><g
           transform="translate(182.87,245.6392)"
           id="g120"><path
             id="path122"
             style="fill:#ffffff;fill-opacity:1;fill-rule:nonzero;stroke:none"
             d="m 0,0 c 0.952,-9.587 9.04,-17.075 18.878,-17.075 9.837,0 17.925,7.488 18.877,17.075 z" /></g><g
           id="g124"><g
             id="g126" /><g
             id="g138"><g
               style="opacity:0.5"
               id="g136"
               clip-path="url(#clipPath130)"><g
                 id="g134"
                 transform="translate(202.0795,228.5641)"><path
                   id="path132"
                   style="fill:#ffffff;fill-opacity:1;fill-rule:nonzero;stroke:none"
                   d="M 0,0 C 0.952,9.587 9.04,17.075 18.878,17.075 28.715,17.075 36.803,9.587 37.755,0 Z" /></g></g></g></g><g
           id="g140"><g
             id="g142" /><g
             id="g154"><g
               style="opacity:0.5"
               id="g152"
               clip-path="url(#clipPath146)"><g
                 id="g150"
                 transform="translate(202.0795,224.7696)"><path
                   id="path148"
                   style="fill:#ffffff;fill-opacity:1;fill-rule:nonzero;stroke:none"
                   d="m 0,0 c 0.952,-9.587 9.04,-17.075 18.878,-17.075 9.837,0 17.925,7.488 18.877,17.075 z" /></g></g></g></g><g
           id="g156"><g
             id="g158" /><g
             id="g170"><g
               style="opacity:0.5"
               id="g168"
               clip-path="url(#clipPath162)"><g
                 id="g166"
                 transform="translate(202.0795,266.5088)"><path
                   id="path164"
                   style="fill:#ffffff;fill-opacity:1;fill-rule:nonzero;stroke:none"
                   d="m 0,0 c 0.952,-9.587 9.04,-17.075 18.878,-17.075 9.837,0 17.925,7.488 18.877,17.075 z" /></g></g></g></g><g
           transform="translate(197.3603,207.6945)"
           id="g172"><path
             id="path174"
             style="fill:#ffffff;fill-opacity:1;fill-rule:nonzero;stroke:none"
             d="M 0,0 H 23.265 C 22.313,9.587 14.225,17.075 4.387,17.075 2.877,17.075 1.408,16.897 0,16.564 Z" /></g><g
           transform="translate(193.5658,222.914)"
           id="g176"><path
             id="path178"
             style="fill:#ffffff;fill-opacity:1;fill-rule:nonzero;stroke:none"
             d="M 0,0 C -5.839,-2.797 -10.027,-8.489 -10.696,-15.219 H 0 Z" /></g></g></g></g></svg>