<svg xmlns="http://www.w3.org/2000/svg" viewBox="0 0 900 127.04"><defs><style>.cls-1{fill:#d22a4c;}.cls-2{fill:#7ac2d2;}.cls-3{fill:#0b1530;}</style></defs><title>SecTrend</title><g id="图层_2" data-name="图层 2"><g id="图层_1-2" data-name="图层 1"><rect class="cls-1" y="26.21" width="36.21" height="22.18" rx="1.56"/><rect class="cls-1" x="40.55" y="26.21" width="36.21" height="22.18" rx="1.56"/><rect class="cls-1" x="81.11" y="26.21" width="36.21" height="22.18" rx="1.56"/><rect class="cls-1" x="121.66" y="26.21" width="36.21" height="22.18" rx="1.56"/><rect class="cls-1" x="162.21" y="26.21" width="36.21" height="22.18" rx="1.56"/><rect class="cls-1" y="52.43" width="36.21" height="22.18" rx="1.56"/><rect class="cls-1" x="121.66" y="52.43" width="36.21" height="22.18" rx="1.56"/><rect class="cls-1" x="40.55" y="78.64" width="36.21" height="22.18" rx="1.56"/><rect class="cls-1" x="121.66" y="78.64" width="36.21" height="22.18" rx="1.56"/><rect class="cls-1" y="104.86" width="36.21" height="22.18" rx="1.56"/><rect class="cls-1" x="40.55" y="104.86" width="36.21" height="22.18" rx="1.56"/><rect class="cls-1" x="121.66" y="104.86" width="36.21" height="22.18" rx="1.56"/><rect class="cls-2" width="36.21" height="22.18" rx="1.56"/><rect class="cls-2" x="81.11" width="36.21" height="22.18" rx="1.56"/><rect class="cls-2" x="162.21" width="36.21" height="22.18" rx="1.56"/><rect class="cls-2" x="40.55" y="52.43" width="36.21" height="22.18" rx="1.56"/><rect class="cls-2" x="81.11" y="52.43" width="36.21" height="22.18" rx="1.56"/><rect class="cls-2" x="162.21" y="52.43" width="36.21" height="22.18" rx="1.56"/><rect class="cls-2" y="78.64" width="36.21" height="22.18" rx="1.56"/><rect class="cls-2" x="81.11" y="78.64" width="36.21" height="22.18" rx="1.56"/><rect class="cls-2" x="162.21" y="78.64" width="36.21" height="22.18" rx="1.56"/><rect class="cls-2" x="81.11" y="104.86" width="36.21" height="22.18" rx="1.56"/><rect class="cls-2" x="162.21" y="104.86" width="36.21" height="22.18" rx="1.56"/><path class="cls-3" d="M270,68H255.55a7.64,7.64,0,0,1-7.63-7.63V52a7.64,7.64,0,0,1,7.63-7.63h37.32V26.21H255.55A25.76,25.76,0,0,0,229.82,52v8.46a25.76,25.76,0,0,0,25.73,25.74H270a7.64,7.64,0,0,1,7.63,7.63v7.52a7.64,7.64,0,0,1-7.63,7.63H229.82V127H270a25.77,25.77,0,0,0,25.74-25.74V93.78A25.77,25.77,0,0,0,270,68Z"/><path class="cls-3" d="M639.71,60.41V52A25.76,25.76,0,0,0,614,26.21h-40.2V44.32H614A7.64,7.64,0,0,1,621.61,52v8.46A7.64,7.64,0,0,1,614,68h-40.2v59h18.11V86.15h11.73l21.47,40.66h20.47L623.18,84.42A25.75,25.75,0,0,0,639.71,60.41Z"/><path class="cls-3" d="M401.74,52V101.3A25.76,25.76,0,0,0,427.47,127h40.2V108.93h-40.2a7.64,7.64,0,0,1-7.63-7.63V52a7.64,7.64,0,0,1,7.63-7.63h40.2V26.21h-40.2A25.76,25.76,0,0,0,401.74,52Z"/><path class="cls-3" d="M874.27,26.21h-40.2V44.32h40.2A7.63,7.63,0,0,1,881.89,52V101.3a7.63,7.63,0,0,1-7.62,7.63h-40.2V127h40.2A25.76,25.76,0,0,0,900,101.3V52A25.76,25.76,0,0,0,874.27,26.21Z"/><rect class="cls-3" x="315.72" y="108.93" width="65.93" height="18.11"/><rect class="cls-3" x="315.72" y="68.04" width="65.93" height="18.11"/><rect class="cls-3" x="315.72" y="26.21" width="65.93" height="18.11"/><rect class="cls-3" x="662.02" y="108.93" width="65.93" height="18.11"/><rect class="cls-3" x="662.02" y="68.04" width="65.93" height="18.11"/><rect class="cls-3" x="662.02" y="26.21" width="65.93" height="18.11"/><polygon class="cls-3" points="511.68 26.21 487.76 26.21 487.76 44.32 511.68 44.32 511.68 127.04 529.78 127.04 529.78 44.32 553.69 44.32 553.69 26.21 529.78 26.21 511.68 26.21"/><polygon class="cls-3" points="796.61 84.77 762.15 26.22 747.91 26.22 747.91 123.41 747.91 127.03 764.21 127.03 766.02 127.03 766.02 126.81 766.02 123.19 766.02 68.48 800.36 126.81 814.72 126.81 814.72 26.22 796.61 26.22 796.61 84.77"/></g></g></svg>