<svg xmlns="http://www.w3.org/2000/svg" role="img" viewBox="130.26 150.76 766.48 190.98"><defs><clipPath id="a" clipPathUnits="userSpaceOnUse"><path d="M0 369.908h771.521V0H0z"/></clipPath></defs><g clip-path="url(#a)" transform="matrix(1.33333 0 0 -1.33333 0 493.21)"><path fill="#08152e" d="M283.212 180.216c-3.103.635-6.046 1.516-8.831 2.644-2.786 1.127-5.218 2.591-7.297 4.389-2.08 1.798-3.738 3.948-4.971 6.451-1.234 2.502-1.85 5.411-1.85 8.725 0 3.877.933 7.208 2.802 9.995 1.868 2.784 4.265 5.076 7.192 6.874 2.925 1.798 6.203 3.136 9.835 4.019 3.631.881 7.208 1.322 10.735 1.322 3.948 0 7.702-.565 11.263-1.692 3.559-1.129 6.716-2.733 9.466-4.812 2.749-2.081 4.952-4.601 6.61-7.562 1.655-2.961 2.591-6.276 2.802-9.941h-14.595c-.282 2.255-.952 4.141-2.009 5.658-1.057 1.515-2.327 2.749-3.807 3.701-1.481.952-3.138 1.621-4.971 2.01-1.834.386-3.632.581-5.394.581-1.763 0-3.526-.176-5.288-.529-1.763-.353-3.349-.898-4.759-1.639-1.411-.74-2.556-1.728-3.437-2.961-.882-1.234-1.322-2.697-1.322-4.389 0-2.68 1.005-4.796 3.014-6.345 2.01-1.552 4.564-2.61 7.668-3.173l10.047-1.798c3.101-.565 6.222-1.34 9.36-2.327 3.136-.988 5.957-2.345 8.46-4.072 2.502-1.728 4.529-3.949 6.081-6.662 1.55-2.716 2.327-6.047 2.327-9.995 0-3.949-.899-7.387-2.697-10.311-1.798-2.927-4.161-5.377-7.086-7.351-2.926-1.975-6.24-3.436-9.941-4.389-3.701-.952-7.492-1.427-11.369-1.427-4.725 0-9.008.618-12.85 1.85-3.843 1.234-7.175 2.996-9.994 5.288-2.821 2.29-5.076 5.076-6.769 8.355-1.692 3.279-2.715 6.997-3.067 11.158h14.595c.423-2.82 1.198-5.166 2.327-7.033 1.127-1.869 2.52-3.367 4.178-4.494 1.655-1.129 3.524-1.922 5.605-2.38 2.078-.46 4.247-.688 6.504-.688 1.692 0 3.437.175 5.235.53 1.798.351 3.453.933 4.97 1.745 1.516.809 2.75 1.903 3.702 3.278.952 1.374 1.428 3.083 1.428 5.129 0 1.621-.354 3.014-1.058 4.178-.705 1.163-1.692 2.15-2.961 2.961-1.269.809-2.768 1.48-4.495 2.009-1.728.529-3.614.969-5.658 1.322z"/><path fill="#08152e" d="M341.696 195.975c1.621 2.89 3.895 5.076 6.821 6.557 2.926 1.481 6.151 2.221 9.678 2.221 6.837 0 11.826-1.957 14.964-5.87 3.137-3.913 4.707-9.396 4.707-16.445v-35.853h-14.595v32.68c0 1.833-.124 3.578-.37 5.235-.248 1.656-.724 3.12-1.428 4.389-.706 1.269-1.71 2.274-3.014 3.014-1.305.74-2.98 1.111-5.024 1.111-2.398 0-4.354-.46-5.869-1.375-1.517-.917-2.715-2.134-3.596-3.649-.882-1.517-1.481-3.297-1.798-5.341-.317-2.046-.476-4.195-.476-6.451v-29.613h-14.595v76.676h14.595z"/><path fill="#08152e" d="M398.381 146.585h-14.595v56.898h14.595zm0 63.138h-14.595v13.537h14.595z"/><path fill="#08152e" d="M410.755 206.656c0 3.596.423 6.486 1.269 8.672.846 2.185 2.15 3.86 3.913 5.024 1.761 1.163 3.948 1.938 6.557 2.326 2.608.387 5.711.582 9.307.582h4.971v-10.893h-2.856c-1.834 0-3.297-.071-4.39-.21-1.093-.139-1.956-.435-2.59-.888-.635-.452-1.058-1.08-1.269-1.882-.212-.801-.317-1.864-.317-3.187v-2.717h11.422v-10.047H425.35v-46.851h-14.595v46.851h-8.038v10.047h8.038z"/><path fill="#08152e" d="M448.3 218.924h14.595v-15.441h11.844v-10.047h-11.844v-29.401c0-2.892.545-4.778 1.638-5.658 1.093-.883 2.944-1.323 5.553-1.323h4.442v-10.469h-10.682c-3.243 0-5.888.264-7.932.793-2.046.529-3.632 1.409-4.759 2.643-1.128 1.234-1.887 2.82-2.274 4.76-.388 1.938-.581 4.317-.581 7.139v31.516h-8.038v10.047h8.038z"/><path fill="#08152e" d="M495.255 158.853h37.333v-12.268h-52.457v76.676h15.124z"/><path fill="#08152e" d="M561.247 194.071c-1.48 0-2.961-.265-4.441-.793-1.481-.529-2.839-1.34-4.073-2.433-1.234-1.093-2.273-2.45-3.119-4.071-.846-1.623-1.375-3.527-1.587-5.711h26.334c-.071 2.396-.494 4.424-1.269 6.081-.777 1.656-1.782 2.996-3.014 4.019-1.234 1.021-2.609 1.761-4.124 2.221-1.518.458-3.086.687-4.707.687m.74-48.861c-4.653 0-8.761.793-12.32 2.38-3.562 1.586-6.558 3.754-8.989 6.504-2.433 2.75-4.268 5.938-5.5 9.571-1.235 3.631-1.851 7.49-1.851 11.581 0 4.23.669 8.143 2.01 11.739 1.338 3.596 3.241 6.716 5.71 9.36 2.468 2.644 5.429 4.706 8.884 6.187 3.454 1.48 7.333 2.221 11.633 2.221 4.443 0 8.409-.812 11.899-2.432 3.489-1.624 6.432-3.914 8.83-6.875 2.396-2.961 4.178-6.522 5.341-10.682 1.164-4.161 1.675-8.743 1.534-13.749h-41.246c.14-4.23 1.48-7.703 4.018-10.416 2.538-2.716 5.852-4.072 9.942-4.072 2.396 0 4.564.475 6.504 1.427 1.938.952 3.649 2.66 5.13 5.129h15.017c-.776-2.115-1.85-4.23-3.225-6.345-1.375-2.115-3.139-4.038-5.289-5.764-2.151-1.729-4.706-3.12-7.668-4.178-2.96-1.058-6.416-1.586-10.364-1.586"/><path fill="#08152e" d="M597.84 206.656c0 3.596.423 6.486 1.269 8.672.845 2.185 2.15 3.86 3.913 5.024 1.761 1.163 3.947 1.938 6.556 2.326 2.609.387 5.712.582 9.307.582h4.972v-10.893h-2.856c-1.835 0-3.297-.071-4.39-.21-1.093-.139-1.956-.435-2.59-.888-.635-.452-1.058-1.08-1.27-1.882-.211-.801-.317-1.864-.317-3.187v-2.717h11.423v-10.047h-11.423v-46.851H597.84v46.851h-8.038v10.047h8.038z"/><path fill="#08152e" d="M635.382 218.924h14.595v-15.441h11.845v-10.047h-11.845v-29.401c0-2.892.546-4.778 1.639-5.658 1.093-.883 2.944-1.323 5.553-1.323h4.442v-10.469h-10.682c-3.244 0-5.888.264-7.932.793-2.046.529-3.632 1.409-4.759 2.643-1.128 1.234-1.887 2.82-2.274 4.76-.389 1.938-.582 4.317-.582 7.139v31.516h-8.037v10.047h8.037z"/><path fill="#ff4d3b" d="M183.5 138.388c4.198 2.909 8.564 6.046 12.645 9.179l-32.186 55.648 22.123 38.251-15.46 4.31-24.617-42.561z"/><path fill="#ff4d3b" d="M198.09 203.215l17.337 29.977v.092l-14.3 3.987-19.697-34.056 26.444-45.721c1.542 1.507 2.866 2.943 3.897 4.268 2.23 2.863 3.461 6.411 3.638 9.786.177 3.375-17.319 31.667-17.319 31.667"/><path fill="#ff4d3b" d="M128.535 203.215l24.489 42.341-44.02-12.272v-60.955c0-3.841 1.264-7.495 3.656-10.567 10.308-13.254 49.556-37.323 49.556-37.323s3.504 2.149 8.692 5.514z"/></g></svg>