<?xml version="1.0" encoding="UTF-8"?>
<svg xmlns="http://www.w3.org/2000/svg" width="268.725mm" height="66.4198mm" viewBox="0 0 26871.46 6641.72">
  <style type="text/css">
    <![CDATA[
      @font-face { font-family:"Arial"; src:url("#FontID0") format(svg)}
      .fil6 {fill:black}
      .fil0 {fill:black;fill-rule:nonzero}
      .fnt0 {font-weight:normal;font-size:1926.2px;font-family:'Arial'}
    ]]>
  </style>
  <g id="Layer_1">
    <g>
      <path class="fil0" d="M14390.06 1607.54l0 410.46c0,339.41 -0.51,678.82 0.7,1018.27 0.15,41.25 -11.07,71.05 -39.74,102.59 -204.44,225.23 -447.16,392.77 -734.58,493.79 -158.63,55.77 -323.29,85.47 -490.97,93.01 -259.51,11.69 -516.99,-0.28 -770.56,-66.23 -606.98,-157.73 -1008.58,-532.84 -1178.79,-1134.91 -151.09,-534.39 -111.26,-1061.99 140.61,-1560.79 249.56,-494.22 658.55,-791.77 1201.14,-898.54 155.7,-30.59 317.45,-46.57 475.98,-44.13 471.97,7.31 888.59,166.46 1240.36,485.32 16.4,14.81 33.07,28.92 49.89,44.04"/>
    </g>
  </g>
</svg>

