<svg id="Layer_1" data-name="Layer 1" xmlns="http://www.w3.org/2000/svg" xmlns:xlink="http://www.w3.org/1999/xlink" viewBox="0 0 600 443.90551"><defs><style>.cls-1{fill:none;}.cls-2{fill:#fff;}.cls-3{fill:#488eff;}.cls-4{clip-path:url(#clip-path);}.cls-5{opacity:0.9;}.cls-6{fill:#3274f9;}.cls-7{clip-path:url(#clip-path-2);}</style><clipPath id="clip-path"><path class="cls-1" d="M63.34553-.53393H536.65447A63.34553,63.34553,0,0,1,600,62.8116v252.976a0,0,0,0,1,0,0H0a0,0,0,0,1,0,0V62.8116A63.34553,63.34553,0,0,1,63.34553-.53393Z"/></clipPath><clipPath id="clip-path-2"><path class="cls-1" d="M63.34553,555.37193H536.65447A63.34553,63.34553,0,0,1,600,618.71746v252.976a0,0,0,0,1,0,0H0a0,0,0,0,1,0,0v-252.976A63.34553,63.34553,0,0,1,63.34553,555.37193Z"/></clipPath></defs><title>Zowe_ConformanceBadge_ZoweV1</title><rect class="cls-2" x="1.80029" y="334.78206" width="596.40039" height="107.37109"/><path class="cls-3" d="M596.3999,336.58248V440.35287H3.6001V336.58248H596.3999m3.6001-3.6H0V443.95284H600V332.9825Z"/><path class="cls-3" d="M63.34553-.53393H536.65447A63.34553,63.34553,0,0,1,600,62.8116v252.976a0,0,0,0,1,0,0H0a0,0,0,0,1,0,0V62.8116A63.34553,63.34553,0,0,1,63.34553-.53393Z"/><g class="cls-4"><g class="cls-5"><path class="cls-6" d="M355.52881-141.53393-11.41262,111.52465,241.646,478.46607,608.58738,225.4075Zm-100.966,456.06736L280.15384,74.4075,154.625,160.97769l13.9624-37.51162-45.2933-7.91884L315.45693-16.97666l27.15349,39.3733-25.589,240.12454,129.56639-89.35462,31.33229,45.43254L281.71766,353.90863Z"/></g></g><path class="cls-2" d="M156.25047,216.006q-6.98292,0-11.02442,4.65039-4.04149,4.64941-4.042,12.7334,0,8.31592,3.89746,12.84961,3.89649,4.53516,11.11133,4.53418a37.93339,37.93339,0,0,0,10.11133-1.59375v4.31836a31.17533,31.17533,0,0,1-10.86524,1.65039q-9.35888,0-14.44336-5.67773-5.08446-5.67921-5.084-16.13868a25.46476,25.46476,0,0,1,2.44824-11.47363,17.57144,17.57144,0,0,1,7.06934-7.59082,21.39111,21.39111,0,0,1,10.8789-2.666,26.258,26.258,0,0,1,11.64746,2.43359l-2.08593,4.23047A22.46058,22.46058,0,0,0,156.25047,216.006Z"/><path class="cls-2" d="M202.23094,238.6632q0,7.76514-3.91114,12.125-3.91113,4.36085-10.80664,4.36035a14.31233,14.31233,0,0,1-7.5625-1.999,13.20111,13.20111,0,0,1-5.09961-5.73633,19.9954,19.9954,0,0,1-1.7959-8.75q0-7.76514,3.88282-12.09668,3.88183-4.33008,10.77734-4.332a13.43482,13.43482,0,0,1,10.58984,4.43359Q202.23094,231.1007,202.23094,238.6632Zm-24.19239,0q0,6.08349,2.4336,9.27148a9.66028,9.66028,0,0,0,14.32714.01465q2.44776-3.17284,2.44825-9.28613,0-6.05566-2.44825-9.19922-2.44775-3.14355-7.22851-3.14355-4.72266,0-7.12793,3.0996Q178.03757,232.52111,178.03855,238.6632Z"/><path class="cls-2" d="M232.39207,254.56945v-20.542q0-3.88183-1.76758-5.79493-1.76659-1.91308-5.5332-1.9121-4.9834,0-7.30176,2.69433-2.31738,2.69385-2.31738,8.89551v16.65918h-4.80957V222.81457h3.91113l.78223,4.3457h.23144a9.82639,9.82639,0,0,1,4.14356-3.63574,13.465,13.465,0,0,1,5.93945-1.29q5.73633,0,8.63379,2.76758,2.89746,2.76708,2.89746,8.85156v20.71582Z"/><path class="cls-2" d="M261.395,226.55285h-8.084v28.0166h-4.80957v-28.0166h-5.67871V224.379l5.67871-1.73828v-1.76758q0-11.7041,10.22852-11.70508a21.05475,21.05475,0,0,1,5.91016,1.01367l-1.2461,3.85352a15.95051,15.95051,0,0,0-4.751-.89844,4.62866,4.62866,0,0,0-4.02734,1.81153q-1.30518,1.812-1.30469,5.80957v2.05664h8.084Z"/><path class="cls-2" d="M294.59812,238.6632q0,7.76514-3.91113,12.125-3.91113,4.36085-10.80664,4.36035a14.31233,14.31233,0,0,1-7.5625-1.999,13.20111,13.20111,0,0,1-5.09961-5.73633,19.99525,19.99525,0,0,1-1.7959-8.75q0-7.76514,3.88281-12.09668,3.88183-4.33008,10.77735-4.332a13.43483,13.43483,0,0,1,10.58984,4.43359Q294.59813,231.1007,294.59812,238.6632Zm-24.19238,0q0,6.08349,2.43359,9.27148a9.6603,9.6603,0,0,0,14.32715.01465q2.44776-3.17284,2.44824-9.28613,0-6.05566-2.44824-9.19922-2.44774-3.14355-7.22851-3.14355-4.72266,0-7.12793,3.0996Q270.40476,232.52111,270.40574,238.6632Z"/><path class="cls-2" d="M317.51609,222.23449a18.925,18.925,0,0,1,3.7959.34765l-.667,4.46289a16.373,16.373,0,0,0-3.47656-.43554,8.46585,8.46585,0,0,0-6.5918,3.12988,11.41077,11.41077,0,0,0-2.73731,7.79395v17.03613h-4.80957V222.81457h3.96875l.55078,5.88183h.23145a13.94667,13.94667,0,0,1,4.25977-4.78027A9.58228,9.58228,0,0,1,317.51609,222.23449Z"/><path class="cls-2" d="M367.727,254.56945v-20.6582q0-3.79542-1.62305-5.69239a6.27286,6.27286,0,0,0-5.041-1.89843q-4.49121,0-6.63477,2.57812-2.14453,2.57959-2.14453,7.93945v17.73145H347.4741v-20.6582q0-3.79542-1.62207-5.69239-1.623-1.89843-5.07031-1.89843-4.52052,0-6.62012,2.709-2.10206,2.71-2.10059,8.88086v16.65918h-4.80957V222.81457h3.91114l.78222,4.3457h.23145a9.4556,9.4556,0,0,1,3.83887-3.62109,11.73252,11.73252,0,0,1,5.54882-1.30469q7.4458,0,9.73535,5.38965h.23145a10.13409,10.13409,0,0,1,4.11426-3.94043,12.77568,12.77568,0,0,1,6.14258-1.44922q5.38916,0,8.06933,2.76758,2.67919,2.76708,2.67969,8.85156v20.71582Z"/><path class="cls-2" d="M401.97312,254.56945l-.95605-4.52051h-.23145a13.3614,13.3614,0,0,1-4.7373,4.043,14.43939,14.43939,0,0,1-5.89551,1.05664,10.60245,10.60245,0,0,1-7.40332-2.43359,8.87246,8.87246,0,0,1-2.67969-6.92383q0-9.61964,15.38477-10.084l5.38867-.17382v-1.96973q0-3.73682-1.60742-5.51856-1.60841-1.7827-5.14258-1.7832a20.9621,20.9621,0,0,0-8.98242,2.43457l-1.47754-3.67969a22.58261,22.58261,0,0,1,5.14258-1.999,22.29568,22.29568,0,0,1,5.60644-.72461q5.67921,0,8.417,2.52051,2.7378,2.521,2.73829,8.084v21.67188Zm-10.86425-3.38965a9.7586,9.7586,0,0,0,7.05468-2.46289,9.112,9.112,0,0,0,2.56446-6.89551v-2.86816l-4.80957.20215q-5.7378.20361-8.27247,1.78222a5.37155,5.37155,0,0,0-2.53515,4.91016,4.95718,4.95718,0,0,0,1.5791,3.9707A6.55274,6.55274,0,0,0,391.10887,251.1798Z"/><path class="cls-2" d="M437.17625,254.56945v-20.542q0-3.88183-1.76758-5.79493-1.76659-1.91308-5.5332-1.9121-4.98341,0-7.30176,2.69433-2.31738,2.69385-2.31738,8.89551v16.65918h-4.80957V222.81457h3.91113l.78223,4.3457h.23144a9.82639,9.82639,0,0,1,4.14356-3.63574,13.465,13.465,0,0,1,5.93945-1.29q5.73633,0,8.63379,2.76758,2.89746,2.76708,2.89746,8.85156v20.71582Z"/><path class="cls-2" d="M462.12156,251.1798a15.65534,15.65534,0,0,0,2.46289-.18848,15.92754,15.92754,0,0,0,1.88379-.3916v3.67969a8.7609,8.7609,0,0,1-2.30371.623,17.3069,17.3069,0,0,1-2.73828.24609q-9.2124,0-9.21289-9.70508V226.55285h-4.54883v-2.31836l4.54883-2,2.02832-6.7793h2.78125v7.35938h9.21289v3.73828h-9.21289v18.6875a6.42928,6.42928,0,0,0,1.36133,4.40429A4.73924,4.73924,0,0,0,462.12156,251.1798Z"/><polygon class="cls-2" points="142.368 102.68 142.37 102.68 142.369 102.679 142.368 102.68"/><path class="cls-1" d="M380.17556,59.04015a1.61835,1.61835,0,0,0,.65225-1.44776V57.5461a1.62148,1.62148,0,0,0-.74008-1.53559,4.731,4.731,0,0,0-2.36365-.44868h-1.013v3.87149h1.03148A5.41649,5.41649,0,0,0,380.17556,59.04015Z"/><path class="cls-1" d="M472.228,58.89216a2.72575,2.72575,0,0,0,.31912-3.83912l-.333-.33305a4.63391,4.63391,0,0,0-2.82617-.754h-2.36356v5.66623h2.39136A4.66025,4.66025,0,0,0,472.228,58.89216Z"/><path class="cls-1" d="M459.93542,58.99391a2.8973,2.8973,0,0,0,.20945-4.09207l-.00134-.00148a.26093.26093,0,0,1-.0324-.037l-.1434-.15728a4.01286,4.01286,0,0,0-2.64113-.78166l-2.82612.04159v5.79575h2.68272A4.20056,4.20056,0,0,0,459.93542,58.99391Z"/><path class="cls-1" d="M334.87706,120.48966c-11.02579,0-17.61567,8.49088-17.61567,18.50257v.253c0,10.01168,7.22379,18.75627,17.86938,18.75627,11.02505,0,17.61493-8.49088,17.61493-18.50255v-.25372C352.74568,129.23388,345.52193,120.48966,334.87706,120.48966Z"/><polygon class="cls-1" points="397.465 56.678 395.102 62.474 399.815 62.474 397.465 56.678"/><path class="cls-1" d="M243.34743,59.937a3.273,3.273,0,0,0,.17576-4.62081.67353.67353,0,0,0-.1619-.1619,4.32067,4.32067,0,0,0-2.89553-.88344h-3.20541v6.5219h3.01577A4.83815,4.83815,0,0,0,243.34743,59.937Z"/><path class="cls-1" d="M519.01567,119.34907c-7.98419,0-13.17976,5.70262-14.70056,14.44721H533.336C532.19543,125.17856,527.12635,119.34907,519.01567,119.34907Z"/><polygon class="cls-1" points="314.978 56.678 312.605 62.474 317.327 62.474 314.978 56.678"/><path class="cls-1" d="M219.28906,66.41636a7.36937,7.36937,0,0,0,10.21763,0,7.24576,7.24576,0,0,0,0-10.14359,7.37218,7.37218,0,0,0-10.21763,0,7.15507,7.15507,0,0,0-.02475,10.11877l.00627.00629Z"/><path class="cls-1" d="M491.03966,64.809a6.46626,6.46626,0,0,0,0-9.0751,6.56,6.56,0,0,0-9.14455,0,6.40692,6.40692,0,0,0-.00051,9.06073l.00051.0005a6.25562,6.25562,0,0,0,4.57922,1.84092v.01388A6.20623,6.20623,0,0,0,491.03966,64.809Z"/><path class="cls-2" d="M454.50052,60.73308h2.75213a5.382,5.382,0,0,0,3.60785-1.04072,3.52056,3.52056,0,0,0,1.22112-2.82612,3.40661,3.40661,0,0,0-1.22112-2.7984,5.18576,5.18576,0,0,0-3.48761-1.03149h-3.98714V67.50474h1.11477Zm0-6.76707,2.82613-.04159a4.01288,4.01288,0,0,1,2.64113.78166l.1434.15729a.26077.26077,0,0,0,.0324.037,2.89728,2.89728,0,0,1-.20665,4.09221l-.00147.00134a4.20045,4.20045,0,0,1-2.75217.76785h-2.68272Z"/><path class="cls-2" d="M466.98271,60.58972h1.99821a3.64831,3.64831,0,0,1,2.05833.49488,9.42062,9.42062,0,0,1,1.95652,2.47925l2.52089,3.94089h1.33676l-3.27481-5.00014a6.69491,6.69491,0,0,0-1.9288-2.22021,3.5937,3.5937,0,0,0,2.75213-3.50609,3.3396,3.3396,0,0,0-1.23037-2.72437,5.48663,5.48663,0,0,0-3.56621-1.0176h-3.69577L465.868,67.5325h1.11472Zm.04165-6.62371h2.36356a4.634,4.634,0,0,1,2.82617.754l.333.333a2.72576,2.72576,0,0,1-.31912,3.83913,4.66024,4.66024,0,0,1-2.81229.74008h-2.39136Z"/><path class="cls-2" d="M491.90918,65.53057l.1758-.18505c.02776-.03238.05548-.06011.08324-.08783a7.2496,7.2496,0,0,0-.25813-10.24919l-.00091-.00085a7.91226,7.91226,0,0,0-10.85591,0l-.14336.14805-.00924.00464a7.33878,7.33878,0,0,0,.1526,10.37023A7.906,7.906,0,0,0,491.90918,65.53057Zm-10.01407-.73545a6.40692,6.40692,0,0,1-.00051-9.06073l.00051-.00049a6.56,6.56,0,0,1,9.14455,0,6.46627,6.46627,0,0,1,0,9.07511,6.20622,6.20622,0,0,1-4.56533,1.84092v-.01388A6.25555,6.25555,0,0,1,481.89511,64.79512Z"/><path class="cls-2" d="M496.7364,71.72453a2.89942,2.89942,0,0,0,2.13238-.91585,4.6903,4.6903,0,0,0,.89736-3.2748V53.03772h-1.11481V67.853c0,1.94269-.666,2.90012-2.03052,2.90012a3.47583,3.47583,0,0,1-.65225-.074l.10181,1.04536Q496.40343,71.73836,496.7364,71.72453Z"/><polygon class="cls-2" points="512.751 66.563 505.827 66.563 505.827 60.693 512.419 60.693 512.419 59.749 505.827 59.749 505.827 53.967 512.594 53.967 512.594 53.038 504.708 53.038 504.708 67.502 512.751 67.502 512.751 66.563"/><path class="cls-2" d="M528.813,54.06778v.00252c.01967.00943.04045.01572.06007.02523Z"/><path class="cls-2" d="M523.84056,67.70826a10.74714,10.74714,0,0,0,5.11578-1.35064V65.20125a10.92685,10.92685,0,0,1-5.1435,1.44776,6.38116,6.38116,0,0,1-4.65321-1.7854,6.13285,6.13285,0,0,1-1.81317-4.607,6.20854,6.20854,0,0,1,1.81317-4.57917,6.0764,6.0764,0,0,1,4.49129-1.84092,11.06819,11.06819,0,0,1,5.16206,1.44771V54.0703a12.15119,12.15119,0,0,0-5.0279-1.19125,7.54571,7.54571,0,0,0-5.35161,2.13233.53072.53072,0,0,1-.10181.10176l-.00441.00464H518.327a7.4064,7.4064,0,0,0,.00464,10.472A7.58229,7.58229,0,0,0,523.84056,67.70826Z"/><polygon class="cls-2" points="536.652 67.502 537.786 67.502 537.786 53.967 543.207 53.967 543.207 53.038 531.218 53.038 531.218 53.967 536.652 53.967 536.652 67.502"/><polygon class="cls-2" points="303.052 68.518 303.052 52.491 298.657 52.491 293.717 58.504 288.791 52.491 284.411 52.491 284.411 68.518 289.105 68.518 289.105 59.23 293.472 64.605 293.861 64.605 298.208 59.23 298.208 68.518 303.052 68.518"/><path class="cls-2" d="M311.47142,65.27249h6.9567l1.31824,3.2471H324.691L317.6927,52.48777h-5.40718L305.1947,68.51958h4.94466Zm3.50618-8.59406,2.34973,5.79565h-4.72267Z"/><rect class="cls-2" x="326.83721" y="52.49095" width="4.82438" height="16.02716"/><polygon class="cls-2" points="340.504 59.59 348.821 68.518 353.113 68.518 353.113 52.491 348.298 52.491 348.298 61.371 340.01 52.491 335.722 52.491 335.722 68.518 340.504 68.518 340.504 59.59"/><polygon class="cls-2" points="361.971 62.025 368.622 62.025 368.622 58.81 361.971 58.81 361.971 55.706 368.622 55.706 368.622 52.487 357.142 52.487 357.142 68.518 361.971 68.518 361.971 62.025"/><path class="cls-2" d="M378.61216,62.41672a2.68936,2.68936,0,0,1,1.08236.92509,12.41737,12.41737,0,0,1,1.24884,2.28031l1.25813,2.89554h5.18978L385.814,65.01161a12.79066,12.79066,0,0,0-1.42005-2.47925,4.44893,4.44893,0,0,0-1.2766-1.07309,10.9972,10.9972,0,0,0,1.17484-.72621,3.75973,3.75973,0,0,0,.98525-1.21648,4.07662,4.07662,0,0,0,.46256-2.05832,5.0654,5.0654,0,0,0-.55049-2.20169A4.86741,4.86741,0,0,0,383.34857,53.3a5.9251,5.9251,0,0,0-3.26093-.80944h-8.21938V68.47609h4.84286V62.21323h.53656A3.927,3.927,0,0,1,378.61216,62.41672Zm-1.90109-6.85489h1.013a4.731,4.731,0,0,1,2.36365.44867,1.62151,1.62151,0,0,1,.74009,1.5356v.0463a1.61837,1.61837,0,0,1-.65225,1.44776,5.41669,5.41669,0,0,1-2.433.39317h-1.03148Z"/><path class="cls-2" d="M393.97329,65.27249h6.95661l1.30436,3.2471h4.94462l-7.06306-16.03182h-5.347l-7.08613,16.03181h4.95849Zm3.49221-8.59406,2.34972,5.79565h-4.71329Z"/><polygon class="cls-2" points="414.002 59.23 418.382 64.605 418.756 64.605 423.123 59.23 423.123 68.518 427.947 68.518 427.947 52.491 423.571 52.491 418.613 58.504 413.701 52.491 409.306 52.491 409.306 68.518 414.002 68.518 414.002 59.23"/><polygon class="cls-2" points="444.08 65.285 436.832 65.285 436.832 61.866 443.557 61.866 443.557 58.633 436.832 58.633 436.832 55.705 443.876 55.705 443.876 52.491 431.993 52.491 431.993 68.518 444.08 68.518 444.08 65.285"/><path class="cls-2" d="M230.478,67.22579l.20352-.19888a.142.142,0,0,1,.037-.037,8.17581,8.17581,0,0,0-.24052-11.559,8.30713,8.30713,0,0,0-6.07317-2.40523v.04164a8.34406,8.34406,0,0,0-6.04551,2.40523l-.15723.1619a8.2013,8.2013,0,0,0,.15723,11.59135A8.83813,8.83813,0,0,0,230.478,67.22579Zm-11.189-10.953a7.37218,7.37218,0,0,1,10.21763,0,7.24576,7.24576,0,0,1,0,10.14359,7.36937,7.36937,0,0,1-10.21763,0l-.01848-.01852a7.15509,7.15509,0,0,1,.0122-10.1188l.00628-.00625Z"/><path class="cls-2" d="M237.18633,61.83807h3.08974a6.06378,6.06378,0,0,0,4.01494-1.17484,4.22676,4.22676,0,0,0,.08784-6.29063,5.99462,5.99462,0,0,0-3.91314-1.14711h-4.45426l-.06936,16.13356h1.24424Zm.074-7.56722h3.20541a4.32068,4.32068,0,0,1,2.89552.88344.67375.67375,0,0,1,.16191.1619,3.273,3.273,0,0,1-.17576,4.62081,4.83815,4.83815,0,0,1-3.07134.85573h-3.01576Z"/><polygon class="cls-2" points="257.133 68.344 249.376 68.344 249.376 61.78 256.745 61.78 256.745 60.735 249.376 60.735 249.376 54.273 256.943 54.273 256.943 53.228 248.132 53.228 248.132 69.389 257.133 69.389 257.133 68.344"/><polygon class="cls-2" points="260.947 55.253 273.219 69.389 274.251 69.389 274.251 53.228 273.001 53.228 273.001 67.344 260.758 53.228 259.699 53.228 259.699 69.389 260.947 69.389 260.947 55.253"/><polygon class="cls-2" points="215.878 101.48 263.148 101.48 214.357 158.255 214.357 173.082 288.24 173.082 288.24 155.974 239.45 155.974 288.24 99.199 288.24 84.372 215.878 84.372 215.878 101.48"/><path class="cls-2" d="M335.13075,103.88811c-21.16395,0-36.87862,15.84117-36.87862,35.35708v.25371c0,19.51668,15.58745,35.10411,36.62491,35.10411,21.164,0,36.87788-15.84116,36.87788-35.35782v-.253C371.75494,119.47555,356.16747,103.88811,335.13075,103.88811Zm17.61493,35.61081c0,10.01167-6.5899,18.50255-17.61493,18.50255-10.64559,0-17.86938-8.74459-17.86938-18.75627v-.253c0-10.01169,6.5899-18.50255,17.61567-18.50255,10.64485,0,17.86864,8.74422,17.86864,18.75552Z"/><polygon class="cls-2" points="449.82 146.469 436.894 104.902 420.293 104.902 407.493 146.343 396.594 105.155 377.078 105.155 397.988 173.589 415.224 173.589 428.529 131.895 441.583 173.589 458.945 173.589 480.109 105.155 460.972 105.155 449.82 146.469"/><path class="cls-2" d="M552.09229,140.766c0-19.26258-10.39187-36.87788-33.07662-36.87788-19.76964,0-33.58331,15.96765-33.58331,35.35708v.25371c0,20.78375,15.08076,35.10411,35.48431,35.10411,12.29287,0,21.41692-4.8161,27.75383-12.67307L537.64471,152.172c-5.32279,4.94259-10.01167,6.97008-16.47438,6.97008-8.6181,0-14.70129-4.5624-16.60155-13.307h47.26976C551.96507,144.0613,552.09229,142.2868,552.09229,140.766Zm-47.77718-6.96971c1.5208-8.74459,6.71637-14.44721,14.70056-14.44721,8.11068,0,13.17976,5.82949,14.32036,14.44721Z"/><path class="cls-2" d="M129.49268,43.46607l-90.9053,62.69221,62.6922,90.9053,90.90531-62.6922ZM104.47957,156.45125l6.33988-59.4883L79.72119,118.40967l-7.76185-11.25485,47.606-32.83119,6.727,9.75426-6.33936,59.488,32.09851-22.13652,7.76219,11.25536L111.20686,166.206Z"/><g class="cls-7"><g class="cls-5"><path class="cls-6" d="M355.52881,414.37193-11.41262,667.4305,241.646,1034.37193,608.58738,781.31336Zm-100.966,456.06735,25.59106-240.12593L154.625,716.88354l13.9624-37.51161-45.2933-7.91884L315.45693,538.9292l27.15349,39.37329L317.02144,818.427l129.56639-89.35461L477.92012,774.505,281.71766,909.81449Z"/></g></g><path class="cls-3" d="M89.07176,396.08117l-1.39649-4.58789H80.64793l-1.39746,4.58789H74.84715l6.80273-19.35352H86.646l6.83008,19.35352Zm-2.373-8.01563q-1.93653-6.23583-2.18164-7.05273-.24316-.81738-.34961-1.293-.43359,1.689-2.49121,8.3457Z"/><path class="cls-3" d="M112.45652,382.81847a5.89011,5.89011,0,0,1-1.94433,4.75879,8.31449,8.31449,0,0,1-5.53125,1.64844H103.228v6.85547H99.14109V376.80675h6.15625a8.1861,8.1861,0,0,1,5.333,1.50977A5.50157,5.50157,0,0,1,112.45652,382.81847Zm-9.22851,3.0586h1.34472a4.47521,4.47521,0,0,0,2.82129-.74512,2.60514,2.60514,0,0,0,.93652-2.168,2.6728,2.6728,0,0,0-.78515-2.123,3.67539,3.67539,0,0,0-2.459-.68554H103.228Z"/><path class="cls-3" d="M132.65086,382.81847a5.89008,5.89008,0,0,1-1.94434,4.75879,8.31445,8.31445,0,0,1-5.53125,1.64844h-1.75293v6.85547h-4.08691V376.80675h6.15625a8.1861,8.1861,0,0,1,5.333,1.50977A5.50157,5.50157,0,0,1,132.65086,382.81847Zm-9.22852,3.0586h1.34473a4.47525,4.47525,0,0,0,2.82129-.74512,2.60514,2.60514,0,0,0,.93652-2.168,2.67281,2.67281,0,0,0-.78516-2.123,3.67537,3.67537,0,0,0-2.459-.68554h-1.8584Z"/><path class="cls-3" d="M153.80515,396.08117h-4.02148V376.80675h11.04785v3.34864h-7.02637v4.9707h6.53907v3.335h-6.53907Z"/><path class="cls-3" d="M171.9282,388.68468v7.39649h-4.08691V376.80675h5.61621q3.92871,0,5.81347,1.43067a5.70079,5.70079,0,0,1,.94922,7.36914,6.18042,6.18042,0,0,1-2.64941,2.07617q4.35058,6.501,5.66894,8.39844h-4.53515l-4.60156-7.39649Zm0-3.32226h1.31836a5.04225,5.04225,0,0,0,2.86035-.64551,2.30644,2.30644,0,0,0,.92383-2.03027,2.10858,2.10858,0,0,0-.94336-1.95118,5.71788,5.71788,0,0,0-2.91992-.58007H171.9282Z"/><path class="cls-3" d="M200.70457,396.08117l-1.39649-4.58789h-7.02734l-1.39746,4.58789H186.48l6.80273-19.35352h4.9961l6.83008,19.35352Zm-2.373-8.01563q-1.93651-6.23583-2.18164-7.05273-.24316-.81738-.34961-1.293-.43359,1.689-2.49121,8.3457Z"/><path class="cls-3" d="M218.93406,396.08117l-4.64062-15.1211h-.11817q.25048,4.61427.251,6.15625v8.96485H210.7739V376.80675h5.56348L220.8989,391.546h.07911l4.83886-14.73926h5.5625v19.27442H227.5698v-9.123q0-.646.01953-1.49023.02052-.8423.17871-4.48243h-.11914l-4.9707,15.09571Z"/><path class="cls-3" d="M250.57273,396.08117H239.47215V376.80675h11.10058v3.34864h-7.01367v4.23242h6.52637v3.34765h-6.52637v4.97071h7.01367Z"/><path class="cls-3" d="M276.60691,396.08117h-4.65429l-2.60938-10.125q-.14649-.54052-.49512-2.23438-.34863-1.69482-.40136-2.27441-.07911.71191-.39649,2.28711-.31641,1.57617-.4873,2.248l-2.59668,10.09864h-4.64063l-4.918-19.27442h4.02149l2.46484,10.52051q.646,2.91357.93555,5.04883.07909-.75.36328-2.32617.28272-1.57617.5332-2.44531l2.8086-10.79786h3.86328l2.80761,10.79786q.18458.72509.46192,2.21484.27538,1.48974.42187,2.55664.13038-1.02832.42188-2.56348.28857-1.53661.52734-2.48535l2.45117-10.52051h4.02149Z"/><path class="cls-3" d="M304.67137,386.41711q0,4.7871-2.37305,7.35742a10.28742,10.28742,0,0,1-13.60547,0q-2.373-2.57227-2.37305-7.38282,0-4.812,2.37989-7.35058a8.90159,8.90159,0,0,1,6.82324-2.53809q4.44141,0,6.7959,2.5586Q304.67137,381.61925,304.67137,386.41711Zm-14.06641,0a8.04407,8.04407,0,0,0,1.22656,4.86523,4.28693,4.28693,0,0,0,3.66406,1.63477q4.89112,0,4.89161-6.5,0-6.51124-4.86426-6.51172a4.31962,4.31962,0,0,0-3.67871,1.64062A8.01949,8.01949,0,0,0,290.605,386.41711Z"/><path class="cls-3" d="M315.99265,388.68468v7.39649h-4.08691V376.80675H317.522q3.92871,0,5.81348,1.43067a5.70082,5.70082,0,0,1,.94922,7.36914,6.18051,6.18051,0,0,1-2.64942,2.07617q4.35059,6.501,5.66895,8.39844H322.769l-4.60156-7.39649Zm0-3.32226H317.311a5.04228,5.04228,0,0,0,2.86036-.64551,2.30646,2.30646,0,0,0,.92382-2.03027,2.10858,2.10858,0,0,0-.94336-1.95118,5.71788,5.71788,0,0,0-2.91992-.58007h-1.23926Z"/><path class="cls-3" d="M348.4741,396.08117h-4.64063l-5.04882-8.1211-1.72754,1.23926v6.88184h-4.08692V376.80675h4.08692v8.81934l1.6084-2.26758,5.2207-6.55176h4.53516l-6.72364,8.53028Z"/><path class="cls-3" d="M362.77293,390.49132v-3.29589h7.0791v3.29589Z"/><path class="cls-3" d="M399.14012,396.08117H384.79637v-2.65039l9.24121-13.249h-8.99121v-3.375h13.84277v2.63672l-9.22852,13.2627h9.4795Z"/><path class="cls-3" d="M422.9448,386.41711q0,4.7871-2.373,7.35742a10.28742,10.28742,0,0,1-13.60547,0q-2.373-2.57227-2.37305-7.38282,0-4.812,2.37988-7.35058a8.90162,8.90162,0,0,1,6.82325-2.53809q4.44139,0,6.79589,2.5586Q422.9448,381.61925,422.9448,386.41711Zm-14.0664,0a8.04407,8.04407,0,0,0,1.22656,4.86523,4.28692,4.28692,0,0,0,3.66406,1.63477q4.89111,0,4.8916-6.5,0-6.51124-4.86425-6.51172a4.31965,4.31965,0,0,0-3.67872,1.64062A8.01956,8.01956,0,0,0,408.8784,386.41711Z"/><path class="cls-3" d="M448.95359,396.08117h-4.6543l-2.60937-10.125q-.14649-.54052-.49512-2.23438-.34863-1.69482-.40136-2.27441-.07911.71191-.39649,2.28711-.31641,1.57617-.4873,2.248L437.313,396.08117h-4.64063l-4.918-19.27442h4.02149l2.46484,10.52051q.646,2.91357.93555,5.04883.07909-.75.36328-2.32617.28272-1.57617.5332-2.44531l2.8086-10.79786h3.86328l2.80761,10.79786q.18458.72509.46192,2.21484.27538,1.48974.42187,2.55664.13038-1.02832.42188-2.56348.28857-1.53661.52734-2.48535l2.45117-10.52051h4.02149Z"/><path class="cls-3" d="M470.62449,396.08117H459.5239V376.80675h11.10059v3.34864h-7.01367v4.23242h6.52637v3.34765h-6.52637v4.97071h7.01367Z"/><path class="cls-3" d="M499.13426,376.80675h4.126l-6.55176,19.27442h-4.45605l-6.53906-19.27442h4.12695l3.625,11.46973q.30323,1.01514.626,2.36621.32373,1.35205.40234,1.87891a33.61682,33.61682,0,0,1,.98926-4.24512Z"/><path class="cls-3" d="M517.65379,396.08117h-4.07325V384.92785l.03907-1.833.0664-2.00391q-1.01659,1.01661-1.41113,1.332l-2.21484,1.7793-1.96387-2.45117,6.209-4.94434h3.34864Z"/></svg>