<?xml version="1.0" encoding="UTF-8"?>
<svg id="a" xmlns="http://www.w3.org/2000/svg" viewBox="0 0 1250 1100">
  <defs>
    <style>
      .cls-1 {
        fill: #2e2f71;
      }
    </style>
  </defs>
  <path class="cls-1" d="M287.4330351,1014.6299206c-7.5368975,0-13.7437692,2.8073823-17.8816836,8.0783755v-1.4778628c0-3.6944037-2.4631046-6.2557287-5.9605612-6.2557287-3.5465668,0-6.0590348,2.561325-6.0590348,6.2557287v55.9107021c0,3.6452935,2.5124679,6.2071248,6.0590348,6.2071248,3.4974566,0,5.9605612-2.5618313,5.9605612-6.2071248v-12.9554745c4.2857514,5.221883,10.1969492,7.5862609,17.8816836,7.5862609,15.1720154,0,26.5514068-11.5272282,26.5514068-28.5710006,0-17.0933889-11.3793913-28.5710006-26.5514068-28.5710006Zm-2.0195939,46.0091736c-9.7045814,0-16.1084002-7.7340978-16.1084002-17.4877894,0-9.7040752,6.4038188-17.3885564,16.1084002-17.3885564,9.1129807,0,16.1572573,6.6501292,16.1572573,17.4381729,0,10.7384272-7.0442766,17.4381729-16.1572573,17.4381729Z"/>
  <path class="cls-1" d="M371.805379,1014.9747046c-3.4974566,0-5.9605612,2.561325-5.9605612,6.2557287v24.4335925c0,8.9653969-5.4188301,15.0732887-14.2363901,15.0732887-7.8814284,0-12.7585274-4.6305354-12.7585274-14.2358838v-25.3201076c0-3.4974566-2.4628514-6.2066185-6.0096714-6.2066185-3.4974566,0-6.0096714,2.6600517-6.0096714,6.2066185v27.3888117c0,14.8768479,8.7684498,23.201787,22.1178185,23.201787,7.438424,0,13.5468221-2.7091619,16.8964418-7.7340978v1.1330787c0,3.6452935,2.4631046,6.256235,5.9605612,6.256235,3.5465668,0,6.0587816-2.6109415,6.0587816-6.256235v-43.9404695c0-3.6452935-2.5122148-6.2557287-6.0587816-6.2557287Z"/>
  <path class="cls-1" d="M425.0615986,1014.6299206c-7.438424,0-13.7928794,2.7582721-17.8816836,7.9305386v-18.0786307c0-3.6944037-2.4628514-6.2557287-5.9605612-6.2557287-3.5465668,0-6.0587816,2.561325-6.0587816,6.2557287v60.6890744c0,3.6452935,2.5122148,6.256235,6.0587816,6.256235,3.4977098,0,5.9605612-2.6109415,5.9605612-6.256235v-1.034352c4.2366411,5.2213767,10.2463126,7.6353711,17.8816836,7.6353711,15.1722686,0,26.5514068-11.5272282,26.5514068-28.5710006,0-17.0933889-11.3791382-28.5710006-26.5514068-28.5710006Zm-2.0195939,46.0091736c-9.7043283,0-16.1081471-7.6844813-16.1081471-17.4381729s6.4038188-17.4381729,16.1081471-17.4381729c9.1132338,0,16.1572573,6.6501292,16.1572573,17.4381729,0,10.7384272-7.0440235,17.4381729-16.1572573,17.4381729Z"/>
  <path class="cls-1" d="M471.180131,998.2260997c-3.5470731,0-6.0592879,2.561325-6.0592879,6.2066185v60.7381846c0,3.6452935,2.5122148,6.256235,6.0592879,6.256235,3.4974566,0,5.9603081-2.6109415,5.9603081-6.256235v-60.7381846c0-3.6452935-2.4628514-6.2066185-5.9603081-6.2066185Z"/>
  <path class="cls-1" d="M500.4574072,993.5955643c-4.3351147,0-7.5371507,3.2017828-7.5371507,7.3888075,0,4.2366411,3.202036,7.438424,7.5371507,7.438424,4.3348616,0,7.4381708-3.2017828,7.4381708-7.438424,0-4.1870247-3.1033093-7.3888075-7.4381708-7.3888075Z"/>
  <path class="cls-1" d="M500.4080439,1014.9747046c-3.54682,0-6.0590348,2.561325-6.0590348,6.2557287v43.9404695c0,3.6452935,2.5122148,6.256235,6.0590348,6.256235,3.4974566,0,5.9603081-2.6109415,5.9603081-6.256235v-43.9404695c0-3.6944037-2.4628514-6.2557287-5.9603081-6.2557287Z"/>
  <path class="cls-1" d="M566.6022709,1049.6541034c-2.5618313,0-3.9900775,1.034352-5.6157772,3.3496197-2.5122148,4.2857514-6.7979661,7.6353711-13.1033114,7.6353711-9.3595443,0-16.1575104-7.1427502-16.1575104-17.4381729,0-10.3450393,6.7979661-17.4381729,16.1575104-17.4381729,5.7142508,0,10.1969492,2.8078886,12.7585274,6.9949133,1.7732834,2.3152677,3.3987299,3.3987299,6.0096714,3.3987299,2.9557255,0,5.0740461-2.216541,5.0740461-5.2213767,0-2.7587784-1.8226468-6.4531821-4.6305354-9.3597974-4.0394409-4.2361349-10.7880437-6.9452968-19.6058569-6.9452968-16.2066206,0-28.1277431,11.8715059-28.1277431,28.5710006,0,16.6989884,11.9211224,28.5710006,28.1277431,28.5710006,8.5712496,0,15.6648895-3.1526726,19.9012775-7.5862609,2.6600517-2.8078886,4.5320618-6.5514025,4.5320618-9.2114542,0-3.1035624-2.4139944-5.3201034-5.3201034-5.3201034Z"/>
  <path class="cls-1" d="M646.2614275,1038.3734388l-8.9162867-1.7735366c-4.9753194-.8865151-7.4875342-3.0048357-7.4875342-6.3053452,0-3.5961833,3.3003829-5.7636141,8.472776-5.7636141,4.1871512,0,8.127992,1.2809156,11.2806646,4.532315,2.4137412,2.216541,4.1870247,3.4974566,6.3053452,3.4974566,2.709415,0,4.7781191-2.0201002,4.7781191-4.7783723,0-2.9557255-1.9211203-6.0592879-4.925956-8.3249391-4.0394409-3.1035624-10.2460594-4.8274825-17.1918625-4.8274825-12.9062377,0-21.1328298,6.2557287-21.1328298,16.5511515,0,8.0788818,5.4679403,13.5468221,16.0590369,15.6651427l8.472776,1.7239201c4.7290089,.8865151,7.0442766,3.2017828,7.0442766,6.6992394,0,4.039694-3.4483464,6.256235-9.1624706,6.256235-5.32023,0-9.6058547-1.7239201-13.448222-5.8618345-2.4137412-2.5122148-3.8422406-3.3496197-5.8619611-3.3496197-3.0048357,0-4.9260826,2.0195939-4.9260826,4.8765927,0,2.5122148,1.6749364,5.6157772,4.0886777,7.8323182,3.9900775,4.1379144,11.3299014,6.7488559,19.7042038,6.7488559,13.6944058,0,22.0687083-6.601019,22.0687083-17.6847365,0-8.4231595-5.0246827-13.6450425-15.2213788-15.7137466Z"/>
  <path class="cls-1" d="M725.3729041,1040.0482486c0-14.8277377-10.2460594-25.418328-26.3542065-25.418328-16.1575104,0-27.3888117,11.4776117-27.3888117,28.4231637,0,17.5368996,11.4776117,28.7188375,29.0636215,28.7188375,8.5712496,0,17.3396994-3.0544522,21.526724-9.3597974,.9852418-1.4773565,1.7241732-3.1521663,1.7241732-4.777866,0-2.9557255-1.4284994-4.877099-4.6305354-4.877099-2.0689572,0-3.6944037,.9361316-5.3201034,2.4139944-3.1526726,3.8422406-7.2412237,5.5170505-12.8570009,5.5170505-9.7534385,0-16.4529311-5.3692136-17.3396994-13.8419896h35.1720197c4.236388,0,6.4038188-2.1674308,6.4038188-6.7979661Zm-41.5758384-2.9066153c.8374049-7.8323182,6.601019-12.7089109,14.7781212-12.7089109,8.3251922,0,13.9407163,4.6796456,14.8274846,12.7089109h-29.6056058Z"/>
  <path class="cls-1" d="M765.2486181,1014.6299206c-6.0099246,0-11.1330808,2.6104352-14.1870268,7.2900808v-.689568c0-3.6944037-2.4631046-6.2557287-5.9605612-6.2557287-3.54682,0-6.0590348,2.561325-6.0590348,6.2557287v43.9404695c0,3.6452935,2.5122148,6.256235,6.0590348,6.256235,3.4974566,0,5.9605612-2.6109415,5.9605612-6.256235v-23.7926284c0-9.5076343,4.581172-15.1725217,10.2460594-15.1725217,2.7585253,0,4.8274825,1.3300258,6.3053452,3.0048357,1.0837154,1.2809156,2.8078886,2.6600517,4.8768458,2.6600517,3.891604,0,6.108145-2.7091619,6.108145-6.6005127,0-2.6600517-1.1328256-5.1231563-3.2511462-7.1427502-2.216541-2.0692104-5.7142508-3.4974566-10.0982225-3.4974566Z"/>
  <path class="cls-1" d="M834.9122027,1014.728141c-2.709415,0-4.6305354,1.5765895-5.7142508,4.4335883l-15.1722686,38.6694763-15.1722686-38.6694763c-1.0837154-2.8569988-3.0048357-4.4335883-5.7142508-4.4335883-3.1033093,0-5.9605612,2.0692104-5.9605612,5.5170505,0,.5422374,.0493633,1.5765895,.4435107,2.6109415l16.5514046,41.0338542c1.7732834,4.4826985,4.5320618,7.8819347,9.8521652,7.8819347s8.0786286-3.3992362,9.8521652-7.8819347l16.5514046-41.0338542c.3941474-1.034352,.4432576-2.0687041,.4432576-2.6109415,0-3.4478401-2.8569988-5.5170505-5.9603081-5.5170505Z"/>
  <path class="cls-1" d="M858.0962695,1014.9747046c-3.54682,0-6.0590348,2.561325-6.0590348,6.2557287v43.9404695c0,3.6452935,2.5122148,6.256235,6.0590348,6.256235,3.4974566,0,5.9605612-2.6109415,5.9605612-6.256235v-43.9404695c0-3.6944037-2.4631046-6.2557287-5.9605612-6.2557287Z"/>
  <path class="cls-1" d="M858.1453797,993.5955643c-4.3348616,0-7.5366444,3.2017828-7.5366444,7.3888075,0,4.2366411,3.2017828,7.438424,7.5366444,7.438424,4.3351147,0,7.438424-3.2017828,7.438424-7.438424,0-4.1870247-3.1033093-7.3888075-7.438424-7.3888075Z"/>
  <path class="cls-1" d="M924.2904966,1049.6541034c-2.5615781,0-3.9903307,1.034352-5.6157772,3.3496197-2.5122148,4.2857514-6.7979661,7.6353711-13.1033114,7.6353711-9.3595443,0-16.1575104-7.1427502-16.1575104-17.4381729,0-10.3450393,6.7979661-17.4381729,16.1575104-17.4381729,5.7142508,0,10.1969492,2.8078886,12.7585274,6.9949133,1.7732834,2.3152677,3.3989831,3.3987299,6.0096714,3.3987299,2.9557255,0,5.0737929-2.216541,5.0737929-5.2213767,0-2.7587784-1.8226468-6.4531821-4.6305354-9.3597974-4.0391877-4.2361349-10.7880437-6.9452968-19.6056037-6.9452968-16.2066206,0-28.1277431,11.8715059-28.1277431,28.5710006,0,16.6989884,11.9211224,28.5710006,28.1277431,28.5710006,8.5712496,0,15.6648895-3.1526726,19.9012775-7.5862609,2.6600517-2.8078886,4.5320618-6.5514025,4.5320618-9.2114542,0-3.1035624-2.4137412-5.3201034-5.3201034-5.3201034Z"/>
  <path class="cls-1" d="M992.4519164,1040.0482486c0-14.8277377-10.2460594-25.418328-26.3542065-25.418328-16.1575104,0-27.3888117,11.4776117-27.3888117,28.4231637,0,17.5368996,11.4776117,28.7188375,29.0636215,28.7188375,8.5712496,0,17.3396994-3.0544522,21.526724-9.3597974,.9852418-1.4773565,1.7241732-3.1521663,1.7241732-4.777866,0-2.9557255-1.4284994-4.877099-4.6305354-4.877099-2.0689572,0-3.6944037,.9361316-5.3201034,2.4139944-3.1526726,3.8422406-7.2412237,5.5170505-12.8570009,5.5170505-9.7534385,0-16.4529311-5.3692136-17.3396994-13.8419896h35.1720197c4.236388,0,6.4038188-2.1674308,6.4038188-6.7979661Zm-41.5758384-2.9066153c.8374049-7.8323182,6.601019-12.7089109,14.7781212-12.7089109,8.3251922,0,13.9407163,4.6796456,14.8274846,12.7089109h-29.6056058Z"/>
  <path class="cls-1" d="M282.9943839,892.9242017c-20.5419885,14.5194066-17.5667708,40.6938799,5.5292015,51.1680233,19.2785399,8.7428821,39.7835691,8.9033763,60.2734097,8.2343131,18.0768587-.5900819,35.8823456-3.1210294,51.2189056-13.9665371,12.1717364-8.6074493,17.2533768-20.5432542,15.5469238-35.3059336-1.6654435-14.4082758-10.2399839-23.1509048-23.4764498-27.7622011-14.051594-4.8950723-28.698839-3.1992514-41.1394158-3.5804883-11.0113179,0-20.0103832,.0022783-29.0091953-.0010126-3.7181994-.0012657-7.3804537-.416171-10.6270432-2.3709597-4.2353754-2.5499335-4.7902701-6.492926-3.4144249-10.7766521,1.5289981-4.7616647,4.9269686-3.9753951,8.8378116-3.0681221,19.0226099,4.4133366,37.9740859,4.2133518,56.5331866-2.3145082,21.8337894-7.6796715,35.759317-27.9961075,30.3387148-48.5894845-3.1691271-12.038835-1.7003775-19.2261388,7.8047253-26.8546749,7.1055378-5.7031124,6.9835217-13.5166978,2.1719874-18.845155-4.5075067-4.9912675-12.8180165-5.4079448-19.6040848-.6212188-4.4991529,3.1734305-8.8104719,6.6516481-12.937248,10.2974479-2.2021117,1.9456754-3.8538853,2.073767-6.6812661,1.0814371-22.7927041-8.0001536-45.5514867-7.9664852-68.2125552,.8379112-28.0244597,10.8882893-37.3032507,45.5664223-18.0317989,68.1778743,2.7585253,3.23697,3.2058331,5.2803596-.6141307,7.9614223-13.1929248,9.2595519-13.3093717,28.8988239-3.7979402,39.7921761,2.557781,2.9293984,2.9412962,3.9260318-.7093134,6.5063427Zm41.5163493-101.8226678c11.263957-5.1272066,22.8868742-4.7783723,34.1920939-.2318812,8.6995943,3.4984692,13.5873253,12.8281423,12.6904312,22.4881702-.898413,9.6792669-8.1887469,17.2024946-19.3630904,19.6648397-3.1217889,.687796-6.3787574,.762727-10.0187349,1.1682659-9.1550028-.3440246-18.5515063-1.6041823-25.4623753-9.1061458-9.6514209-10.4771812-5.5826152-27.8181463,7.9616755-33.9832489Zm-20.9100619,114.2472964c1.9613704-4.4839642,4.8925408-7.3807068,10.4381968-7.1705961,8.4965717,.3217478,17.0144076,.0845506,25.5231302,.0845506l.0002531,.2169456h0c8.5061912,0,17.0121292-.0096195,25.5180673,.0043035,3.7295909,.0063286,7.313117,.8100652,10.5855274,2.5696788,7.3645055,3.959447,8.2801324,14.0531129,1.589753,18.9251489-2.5357573,1.8464424-5.2512478,3.5422634-8.4758137,4.3637201-17.2366692,4.391313-34.6183907,4.4700412-51.8983478,1.0072655-12.2595778-2.4570291-17.3197009-10.7667795-13.2807663-20.0010168Z"/>
  <path class="cls-1" d="M1213.2225373,852.3242387c11.2742094-.1088525,16.4252117-4.7320467,17.5990468-15.9137314,.9225884-8.7917392-.3397211-17.5348745-3.1398888-25.8246264-9.1550028-27.1040231-28.5149289-42.2208529-56.5928023-45.7734952-29.9993735-3.7956619-56.0600579,4.0558953-73.8961754,29.8349555-13.9343877,20.1399936-16.3033222,43.0066162-11.608741,66.7448183,3.3173437,16.7741726,10.55958,31.5305233,24.4659951,41.8472103,28.7357983,21.3176259,59.9233096,22.5117127,91.9846788,8.8211041,11.1940889-4.7801443,20.0736695-13.0597704,24.2155077-25.1018963,2.0013674-5.8190529,1.23016-11.5079892-3.7741445-15.7200752-4.8396335-4.0733624-10.3330149-3.2070989-15.4833843-.7498166-3.065464,1.4624209-6.1833292,3.3908824-8.441386,5.8706946-11.3942003,12.5144952-25.9377823,14.9963326-41.6673505,13.2825383-20.7439985-2.2598288-36.2905425-15.4851563-39.0099568-32.3398291-.5822344-3.6088406-.3263044-5.1267003,4.0252648-5.0474658,15.2158096,.2766879,30.439973,.1073336,45.6608455,.1065742l-.0002531,.0002531c15.2211257-.0005063,30.4430107,.1098651,45.6627441-.0372124Zm-55.1872126-26.828601c-11.289145,0-22.5786697,.0245551-33.8678146-.0088601-7.3038772-.0215174-7.8234581-.8189253-5.5069247-8.0373659,5.8146229-18.1193872,22.0756698-28.0490148,43.1943235-26.3767364,18.3170937,1.4505231,31.0551163,11.7011391,35.1069613,27.8502957,1.2110475,4.8269762,.828798,6.9506128-5.0640468,6.7075932-11.2704122-.4645218-22.5731005-.1349265-33.8624986-.1349265Z"/>
  <path class="cls-1" d="M753.5322903,842.7867332c.4349038,46.0965087,32.7225849,78.0325709,78.6956853,77.8389147,48.2054629-.2027695,79.824334-31.8148056,79.6354875-79.6180205-.1830241-46.3868665-32.7873901-77.2736411-81.3275113-77.0432788-45.2083481,.2144141-77.4340087,33.201536-77.0036615,78.8223845Zm79.3303207-48.3315293c26.98707,.3807307,45.935888,20.7480488,45.2196131,48.6046732-.7262741,28.2505186-19.3365102,47.1349111-46.1963746,46.8772091-26.2091542-.2511202-45.0965844-20.803994-44.5740924-48.5044276,.5169229-27.4115948,19.8405226-47.3404651,45.5508538-46.9774547Z"/>
  <path class="cls-1" d="M565.9934563,842.0533711c-5.9916981-5.5831214-13.3524064-8.7373129-21.1632073-11.0510617-13.4911301-3.996153-27.7148629-4.7844478-41.0315759-9.4653591-7.7933338-2.7395393-11.8856821-8.1391304-11.7229096-15.1279682,.1521404-6.5273537,4.4115646-12.0241526,12.378303-13.8121184,13.5511256-3.0407824,26.4063544-1.4631803,37.7624564,7.6017027,4.8287482,3.8543916,8.9448921,8.7018726,14.8550774,11.1470038,5.2183389,2.1588238,10.1858108,2.3836169,14.7960946-1.483432,4.6406612-3.8923634,5.4519921-8.9461579,4.0414661-14.4039724-1.2786373-4.946714-3.7164274-9.3701764-7.2905871-13.1367266-9.843052-10.3728853-22.4750066-14.9900039-36.1423259-16.9954217-19.9934224-2.9337019-39.6344665-2.3464046-57.0863093,9.6000324-22.1790797,15.1823944-23.6721312,47.7619522-3.0417949,64.8226854,9.1101961,7.5338598,20.2496056,10.4627519,31.5588756,12.951171,9.8562155,2.1684434,20.0903771,2.900793,29.4481494,7.0338976,8.066984,3.5630213,11.9914968,9.9389941,11.0687819,17.2303406-.9556238,7.5518331-5.8977812,12.7268842-14.6892672,14.3308133-17.1017427,3.12027-32.4572886-.4189556-45.0925341-12.9909148-3.4420178-3.4245508-6.9007432-6.8215087-11.236111-9.087413-4.8168504-2.517784-9.9096292-2.5511992-14.4814348,.1961877-4.7826757,2.8744658-6.3871112,7.7308069-5.7836126,13.1724201,.797408,7.1918604,4.5594015,13.0192671,9.4415634,17.99889,15.2441619,15.5489489,34.7361033,19.6607894,49.7893936,19.9777274,17.80574-.0108853,29.550167-1.7375899,40.6111014-6.9346647,27.9107975-13.1144498,34.8862185-51.1890344,13.010407-71.5738196Z"/>
  <path class="cls-1" d="M127.8375277,838.7609622c-9.1663944-6.5744388-20.1073379-8.78617-30.9318345-11.1016908-9.8607721-2.1092073-20.06405-2.735489-29.4367578-6.9954195-6.3701504-2.8954769-9.7093912-7.6637234-9.3633415-14.6323095,.356935-7.186038,4.8181161-11.3247119,11.347495-13.1076148,11.5117863-3.1433062,22.595757-2.1836321,33.2443176,3.7457922,6.3420513,3.5316313,10.9624609,9.1228534,16.9240347,13.0331901,5.6304596,3.693138,11.6345619,4.6798987,17.4255157,.7293119,5.7671581-3.9341324,6.2215541-9.9577268,4.4733321-16.0360006-2.5415797-8.8355333-8.488471-15.1355625-16.3402814-19.6124386-21.620641-12.3279271-44.6943364-13.7885759-68.1444591-7.3969081-25.6633727,6.9951664-39.1185562,31.3340825-31.0627106,54.9844431,5.5461622,16.282058,18.8666723,23.7361769,34.3323364,27.8702942,12.6671419,3.3860727,25.6537532,5.5924878,38.285961,9.0896913,7.9507902,2.2013523,12.0137736,9.0167854,11.6548135,16.7875893-.3361771,7.2789424-5.0325302,13.1557125-13.0605298,14.8593809-15.5628719,3.303041-30.1759424,1.3274944-42.7268905-9.4238432-4.0209613-3.4442961-7.9014269-7.0544024-11.9608663-10.4513603-5.1023984-4.26955-12.919781-4.98342-18.032052-1.4646992-5.7261486,3.9414736-6.4466004,9.7172387-4.840646,15.9193006,1.3439488,5.190493,4.0384283,9.6800263,7.6890379,13.6799766,15.5833767,17.0749093,36.0737235,20.7850081,57.7303111,20.9546155h-.0002531c2.9939505,0,6.0213161,.2931424,8.9757759-.0475913,19.5547215-2.2542596,36.7946816-8.4684725,46.2721916-27.6424634,9.3749862-18.9666648,4.2887891-41.7325354-12.4544998-53.7412462Z"/>
  <path class="cls-1" d="M724.6165057,879.9725244c-5.2380843-4.6755952-11.3387615-4.2282874-17.1881919-.5594513-3.4882168,2.1876824-6.7911312,4.7211614-10.4338933,6.6030442-14.3437238,7.4093122-26.3210445,.4764196-26.4647045-15.4773088-.2013772-22.3626101,.0970813-44.7300299-.1684683-67.0911211-.0584766-4.9257029,1.9280818-5.6410917,6.0821976-5.5484405,9.9116544,.2212491,19.8317891,.0794877,29.7485064,.0660709,4.4323225-.0058223,8.9178056-.3716174,12.4913324-3.1830501,4.8688717-3.8308491,7.0637688-8.9380572,5.7003278-15.2487185-1.3796423-6.385086-5.4628774-10.3549119-11.7383515-10.995876-7.3115981-.7467789-14.7295173-.4085766-22.0964277-.675645-6.4052111-.2323875-14.6397773,2.665874-18.7188354-1.1201683-4.1643681-3.8650237-.8717061-12.2021138-1.3416705-18.5603664-.2035289-2.7534623-.0761968-5.5454028-.4589526-8.2692471-1.2983827-9.240566-8.2425403-15.1664463-16.9161871-14.6231963-9.2853727,.5817281-15.5132554,7.1880632-15.6514728,16.7802481-.0997393,6.9154256-.2116295,13.8404707,.05392,20.7470362,.1475838,3.8381903-.9303093,5.3033958-4.9872172,5.1613812-5.9718262-.2090981-12.0044073-.1407488-17.9412994,.4779385-7.5522128,.787029-13.1421692,7.2336294-13.0897681,14.241453,.0572109,7.5766413,5.1793546,13.7040254,12.9890162,14.5940845,5.9266397,.6753919,11.9578285,.7358936,17.9309204,.5913476,3.8823642-.0939169,5.1803671,1.0738427,5.1067018,5.0522756-.2309952,12.4458928-.0848037,24.8988737-.0830317,37.34907l.0002531,.0002531c.0020252,11.9889654-.1974534,23.9822343,.0555654,35.9661367,.2782068,13.1719138,4.5211766,24.9664635,14.9043142,33.5055636,16.2924369,13.3989852,34.5148542,13.2455791,53.3273535,6.2088968,9.5600354-3.5756786,17.4643735-9.2679057,21.766959-18.8692038,2.789409-6.2243387,2.3312158-12.4722199-2.8788959-17.1230069Z"/>
  <path class="cls-1" d="M1029.3981055,764.0825676c-17.0525059-1.3788829-31.0400541,4.6001579-42.1307331,18.3522809-.4638889-1.2652206-.7369062-1.793535-.8512014-2.3542521-2.2822322-11.1976329-8.233427-16.0185336-18.502143-14.965702-8.8498361,.9072731-14.4894089,7.6556227-14.507762,17.9075045-.0708807,39.4367599-.046199,78.873773-.0120244,118.3107861,.0054426,6.2780055,1.8191027,11.8446725,7.3419756,15.5289504,5.4712312,3.6501033,11.2695262,3.6959226,17.0351655,.8743642,6.3158508-3.0903988,8.6059305-8.6745329,8.6203598-15.3421291,.0459459-20.9867649,.0172139-41.973783,.0182265-62.9608011,.0003797-7.8791501,.8374049-15.6418533,3.5488451-23.0921751,2.7402988-7.5300626,6.81518-14.2012029,14.1537381-17.9882578,10.3074472-5.3195971,18.5240401-3.2000108,29.0351427,6.8506204,5.1477114,4.9221588,10.8350022,7.198189,18.1810281,4.8560879,6.465966-2.0613629,9.1410798-6.6850633,10.1818871-12.6428399,1.3359748-7.6485346-.611093-14.5675043-5.5116079-20.647297-6.844798-8.4917619-16.1197918-11.8396096-26.6008967-12.6871404Z"/>
  <path class="cls-1" d="M223.411808,842.5009321c-.0027846-20.2931466,.2009974-40.5893309-.087082-60.878174-.1475838-10.4093382-6.5863366-16.53976-16.2858551-16.6270951-9.2261367-.0832848-16.477233,6.2678797-16.5286216,15.7641225-.2204896,40.8161491-.1820115,81.6345766-.010379,122.4509789,.0349341,8.3074721,5.5221134,14.6528143,12.5965143,15.9798024,11.3391412,2.1266744,20.0964526-4.7244523,20.2473273-16.5028007,.2566894-20.0592402,.0706276-40.1243028,.0680961-60.1868339h0Z"/>
  <path class="cls-1" d="M207.2386025,706.0611393c-11.6122851-.1088525-20.8832285,8.9653969-20.8055128,20.3642804,.0787282,11.5639343,8.9355258,20.231126,20.7652627,20.3207394,11.290031,.0855631,20.3009941-8.6947845,20.3716216-19.8509016,.0736653-11.6386122-8.7940175-20.725772-20.3313715-20.8341183Z"/>
  <path class="cls-1" d="M822.9351351,454.8110547c4.7922953,0,8.6771909-3.8852754,8.6771909-8.6773175s-3.8848956-8.6773175-8.6771909-8.6773175H427.0649912c-4.7925484,0-8.6773175,3.8852754-8.6773175,8.6773175s3.8847691,8.6773175,8.6773175,8.6773175h395.8701439Z"/>
  <path class="cls-1" d="M591.6332865,515.9200973l-3.2111492-29.6706642c-.8847431-8.1571037-8.5937795-13.9302108-16.8460659-12.2236312-6.5033049,1.3440754-10.8568992,7.3695684-11.0604281,13.9143892l31.1176432,27.9799062Z"/>
  <path class="cls-1" d="M759.8611781,582.5297359l-14.9367168-12.0433916c5.1802406-9.8696322,2.1637602-27.2576824,2.1637602-27.2576824,.1035365-.9660028,.3775663-1.9271958,.8210771-2.791181l21.6545624-41.9785928c3.7598418-7.2931185,.5117334-16.3597736-7.3147624-19.4861191-1.5876013-.6343823-3.2282365-.931575-4.8525439-.931575-5.3316215,0-10.4962936,3.1987451-13.1044505,8.1684953l-18.9291992,36.0894185s-34.2338629,34.3067687-69.1304604,36.403572c-.2193505,.012151-.3887047,.0501228-.600714,.0670835l-45.1135452-9.3481527c-5.3887058-1.116118-10.3230156-4.2239839-13.9242619-8.7611086l-.0572109-.0098727,.0096195-.0460725c-.0341746-.0427816-.0680961-.081766-.1022707-.1242944l-.25593-.3313673-52.6549993-47.345528c-11.7426549-9.8071053-26.5503942-15.1003753-41.6753246-15.1003753-3.0185056-.0001266-6.0496684,.2107435-9.071718,.6386858-2.9349676,.4192088-9.6858487,6.3914147-4.1338641,12.8570009l121.8720354,117.1399887,95.2503808,19.7382519,11.4217932,8.7438947c6.2781321,4.8072308,13.6533963,7.116423,20.9557546,7.116423,11.0728322,0,21.9822591-5.3041552,28.677828-15.2499842,10.0049384-14.8636844,6.9773196-34.9112799-6.9688393-46.1575168Z"/>
  <path class="cls-1" d="M445.1922258,217.1447514c2.1907202,6.4863442,4.5214297,12.9304131,4.3801746,19.9169725-.1344202,6.6498761-.5538821,13.2896264-1.3419237,19.8893797-1.7720177,14.8411544-.6034986,29.4549843,2.9159817,43.9412289,3.2235533,13.2688685,10.9356274,22.8792798,23.2096345,28.8145265,1.6008914,.773992,3.3359499,1.2731947,5.0163289,1.8796045,2.5048736,.9041087,2.8721875,2.3337473,1.0748553,4.2527159-.2184645,.2332735-.4665469,.4403464-.6728604,.6832394-5.6793167,6.6860759-9.0137477,14.1582948-8.0216709,23.1814088,1.6381038,14.899631,17.1733829,23.2967166,30.525283,16.4478682,6.287625-3.2249456,14.0270389-.731337,17.2103421,5.5605915,.7495635,1.4812802,1.4426755,2.9912924,2.1595833,4.4890271,2.8638337,5.983724,5.3216223,12.1830013,9.7564762,17.2960318,5.4519921,6.2859796,12.3446347,8.5801096,20.454147,7.581198,5.5605915-.6850114,10.5389486-3.0082532,15.3385851-5.7376667,9.3268885-5.3041552,17.4445016-12.2775511,25.8114628-18.8952778,2.80156-2.2159081,5.808674-2.9934442,9.2937265-2.604866,5.6932397,.6347621,10.6627367,3.0033168,15.2989679,6.1868732,7.6451172,5.249729,15.859938,9.2932202,24.7773639,11.8802394,16.3014236,4.7290089,32.7614427,6.1201694,49.4100552,2.0612363,16.3629379-3.9894447,31.1018216-11.4193883,44.7309159-21.2442138,8.4826487-6.1149799,15.4587026-13.4817637,20.6836233-22.5728473,5.1275863-8.9214762,8.0771098-18.6060592,10.4107305-28.5127772,3.4116403-14.4830803,4.6536982-29.2686693,5.7461471-44.0561569,.9219555-12.4800674,2.987875-24.7459739,6.6431677-36.7019038,2.9153488-9.5362398,7.1078161-18.60492,10.835635-27.839537,3.206466-7.9430693,5.1464457-16.14017,5.9857492-24.6706631,1.3549607-13.7733872-.6412173-27.1737647-4.1687982-40.3999781-4.0990566-15.3689626-12.0688328-28.6578295-22.5206994-40.5123747-8.0905265-9.176267-17.1303481-17.3818481-26.2242163-25.5441413-8.5126464-7.6405606-15.3293453-16.5627962-19.7074947-27.27439-2.2699547-5.5540097-4.9815214-10.9214513-8.4794844-15.8551283-6.8854279-9.7115429-16.4724233-15.9009476-27.0326361-20.8053863-17.4262751-8.0930579-35.950062-10.9325897-54.9610272-11.3107889-10.7434901-.1890996-21.3257266,1.2077566-31.7654422,3.5151768-15.3641528,3.3959453-29.466629,10.0005084-43.1539468,17.5795546-9.172723,5.0792356-17.1908499,11.7316431-25.2398605,18.3556984-12.8451031,10.5712247-25.4319979,21.4586279-36.5314104,33.8636377-8.3383558,9.3194207-17.8062463,16.9407422-28.7517464,22.9386424-9.8116619,5.3766814-18.4122764,12.3869099-26.1742201,20.4826259-7.6029685,7.9299057-11.4219197,17.2452761-11.3318,28.2005224,.0625269,7.5880329,1.3067365,15.0167108,3.2314008,22.3226131,2.9815463,11.3177504,7.440196,22.1487022,11.1789002,33.2174842Zm89.7557337,120.3187353c-4.9014009,.5362885-9.6666096,1.8075846-14.5138375,2.6184093-5.2003656,.8700607-8.115841-1.5222898-8.6446617-6.7830306-.1903653-1.8941603-.733109-3.7443999-.0263271-5.6662797,1.2393998-3.3703776,3.4721421-4.0769064,6.0033428-1.5820321,2.8595303,2.818141,6.06992,5.0453141,9.6347133,6.8436589,1.5689951,.7915856,3.2172247,1.23459,4.9117799,1.5482372,1.7317676,.3203555,3.2362106,1.0714378,4.7836883,2.160849-.7442474,.6799485-1.4801411,.787029-2.148698,.860188Zm98.4812753,26.2423162c-4.0664009,2.7994082-8.7007334,3.4477136-13.9104654,3.5785897-3.7612341-.4045263-7.9472462-.8451259-12.1302205-1.3126854-.8260134-.0923981-1.6327877-.2180847-2.4747493-.0916386-4.6723044,.7019722-9.3263822,1.4955829-13.8817334,2.7699168-1.6801259,.4699644-3.4005019,.6222314-5.1158151,.715642-3.8212296,.2079589-7.6472689,.3709846-11.4733082,.4285751-5.5307204,.0834114-9.5243419-2.8243431-12.6805586-7.0030139-1.3753389-1.8212545-2.4139944-3.9097039-3.4959378-5.9353732-.7632333-1.4293854-1.0265045-3.0119238-.854872-4.647243,.1422677-1.3533152,.86196-1.7775869,2.1160423-1.3261021,.4797105,.1726452,.9692937,.3508595,1.4031849,.6113461,6.4486255,3.8722384,13.7592111,5.4000973,20.9584126,6.1510531,9.129182,.9522064,18.2289991,2.4155133,27.4407065,2.6701775,4.7158454,.1302433,9.4162489,.8501888,14.1315879,.957649,3.1205231,.0711339,6.2297813,.1585956,9.3351158,.4462953,.6602032,.0611346,1.591525-.2520062,1.803028,.6319775,.169734,.7094399-.6570388,1.0014431-1.1704177,1.3548341Zm50.103547-144.7133434c-8.2172257-.0535402-14.902289-6.7483496-14.9477286-14.9696257-.0459459-8.3181042,6.9042872-15.2596038,15.1840399-15.1649274,8.2440592,.0942967,14.8754556,6.7770816,14.9019093,15.0175968,.0270866,8.4222735-6.7318952,15.1715092-15.1382205,15.1169563Zm-50.9572798-43.7770641c-.0182265,25.6745111,.0258208,51.3490223-.0205048,77.0235334-.0284789,15.6545106-8.2724114,27.4433645-22.9101636,31.2915541-12.6322078,3.3210143-24.8722934,2.1174346-35.1092396-7.1719884-3.0693878-2.7852321-3.5534018-6.7822711-1.7505003-9.6404091,1.9418782-3.0783744,4.92064-3.9456505,8.5917543-2.3508346,4.0156452,1.7445514,7.6715709,4.3672642,12.1405995,4.9963304,13.2126702,1.8598591,22.4809556-3.8799593,22.4537424-18.2507696-.0291117-15.2980819-.0065818-30.5961637-.0065818-45.8943721l.2217554-.0002531c0-14.6711673,.2169456-29.3461318-.0450599-44.0126159-.5435031-30.4195948,25.5066758-40.0806352,47.1455432-32.9330753,4.226009,1.3958436,8.1874812,3.2930417,11.2700325,6.6353202,2.8605428,3.1016638,3.2435518,6.8796055,1.0637169,9.9576003-2.1006004,2.966231-4.8654543,3.5349221-9.0534915,1.7217683-3.1234343-1.3524292-6.1138407-3.0438201-9.2994223-4.2144909-7.9369938-2.9167411-16.9483366-.3832621-21.4436923,5.7775371-1.9371951,2.6549888-2.4542445,5.7522226-2.8148501,8.8816058-.696403,6.0444789-.4293346,12.1198416-.433638,18.1835595Zm131.0107103,117.5408445c-.4827482,5.0711349-1.2855988,10.1084749-2.3526066,15.1042991-1.1710505,5.4835087-1.9494726,11.0630861-3.7059219,16.4021754-1.5124171,4.5969936-2.9947099,9.206771-4.8838073,13.680736-1.7927756,4.245881-4.4325757,7.9449679-7.8556076,10.8270281-3.3363296,2.8091543-6.9890909,5.4109826-11.0830846,7.1049049-4.8284951,1.9976968-9.7424267,3.7599684-14.9708914,4.5361121-3.3843006,.502367-6.7579692,.2852948-10.1384726,.3135206-.3689594,.0031643-.7594362-.1241678-1.1059922-.2711187-2.528163-1.0721973-2.7362485-1.9122602-.9347393-3.9475491,1.9177029-2.1666713,4.2405649-3.8974263,6.5803877-5.5362895,3.9936216-2.7973831,7.6071454-5.9876478,11.0252409-9.4468794,9.2577798-9.3692904,16.4498933-20.4002271,24.6310459-30.6321103,4.6690135-5.8395577,7.9139576-12.6605601,11.5287471-19.2014571,.6753919-1.2219328,1.2780045-2.4976589,2.4633577-3.572894,1.3502775,1.4441944,.9395491,3.1991248,.8023443,4.639522Zm17.4148836-74.6411822c-.6791891-10.7913346,.4447764-21.5660881-.3176975-32.3167929-.7626005-10.7507047-2.9993931-21.2734521-5.5128736-31.7560759,5.9041098,9.6876207,8.143687,20.4290856,8.8785681,31.4625538,.7317167,10.9847377,.1673291,21.9454265-3.047997,32.6103149Zm-30.670715-117.4999615c12.6780271,9.8911496,23.5121433,21.4485021,31.28801,35.60705,6.9164382,12.5930968,11.2229475,26.0708102,13.2797537,40.3323883,2.3885533,16.5620368,.2539048,32.4402013-6.2163646,47.8011897-.068729,.1634053-.225426,.2897249-.3409868,.4332583,.9565098-4.9053247,1.9528901-9.76483,2.8942112-14.6418024,1.112574-5.764247,.6850114-11.5452015,.7539935-17.3255232,.0213908-1.786447-.0559451-3.5765646-.1523935-5.3614927-.5674254-10.4966734-2.445511-20.7217217-5.7851315-30.7248881-3.7126302-11.1199173-9.633321-20.9375281-16.7145568-30.1550579-6.1491545-8.0042039-12.2604638-16.0372664-18.3906324-24.0560261-.6965295-.9109437-1.3373671-1.8734024-2.550946-2.604866,1.0408072-.3084577,1.4738124,.3360505,1.9350433,.6957701Zm-125.7885742-74.1050203c4.2967632-1.5014053,8.8241418-1.2515508,13.2616538-1.6731644,1.3306587-.1263195,2.6833411-.0194922,4.0258976-.0194922,13.8433819,.5418577,27.5512044,2.1059165,40.5867994,7.0398466,8.1557114,3.0868548,15.4469313,7.7602983,22.1730042,13.4270843,6.0271384,5.0775901,9.5638326,11.5141912,12.0495937,18.7442765,.1037896,.3017493,.255044,.599828,.2895983,.9101842,.1118903,1.0044809,.438701,2.1848978-.6837457,2.7621959-1.1619373,.5979294-1.6801259-.5560338-2.2889406-1.2304131-4.575856-5.0697426-8.7226305-10.5712247-14.0813386-14.8679878-7.6899239-6.1658621-16.096629-11.2280104-25.6723594-13.7668054-13.7613628-3.6485844-27.6692968-6.7165799-41.7682289-8.8188257-2.2103389-.3295953-4.4292848-.6050175-6.6727858-.5856518-.3818698,.0034175-.7790549,.0249348-1.1426983-.066957-.5698303-.1440397-1.169152-.454396-1.2087692-1.0694127-.0425284-.6589374,.7047567-.6353949,1.1323193-.7848773Zm13.180141,36.0868871c5.0003808,.6452676,9.9296277,1.8079643,14.7583759,3.2994969,7.8662397,2.4300691,15.7021019,4.909375,23.4173403,7.8434566,7.6524584,2.9104125,15.2149236,5.8737323,22.2997035,10.0159503,9.059567,5.2966874,17.1936345,11.8160671,24.6195278,19.1407022,10.1770773,10.0383536,19.324106,20.9670196,25.9320866,33.7641516,3.7830046,7.3260274,6.5463396,15.0731622,9.0808312,22.9245928,3.0407824,9.4202992,5.1535337,18.9956499,5.6013479,28.876294,.1761892,3.8870474,.5970434,7.801561,.359593,11.6737994-.3332659,5.4338922-1.1371291,10.8389259-1.7397417,16.2562371l-.5633751,.0059489c0-4.1429774,.0799939-8.2877267-.0141761-12.4285523-.3501001-15.3995931-3.4750533-30.295427-8.3544305-44.8512866-2.2297045-6.651395-4.5988922-13.2605147-7.4182989-19.6868634-3.2341854-7.3718467-6.7794865-14.5907936-11.850748-20.9272758-1.2477536-1.5589958-3.2662083-1.5743111-4.9777243-2.0233911-.8877809-.2328938-1.4676104-.6037517-2.0347826-1.1716834-6.8250527-6.8339128-13.785285-13.5032811-21.5603924-19.2890454-10.4822441-7.8002953-21.8745458-13.8455336-34.0334983-18.5959333-5.0118989-1.9582061-10.0339236-3.9022361-15.25568-5.0443015-11.6039313-2.5376559-23.2773509-4.7198957-35.2835302-3.8070534-3.9412205,.2995976-7.9142107,.1594816-11.8632787,.3845278-4.2796759,.243779-8.404933,1.5206443-12.639549,2.1183206-7.8039659,1.101309-15.1821413,3.8097115-22.6476518,6.1772537-.6083084,.1928968-1.2125664,.4483205-1.8370761,.5264158-.5812218,.0727793-1.6583554,.444903-.5835001-.9004381,.4989496-.6245097-.3738957-1.6529128-.7814598-2.4047546l-1.669747-.7637396c21.9330224-10.4097179,44.9454567-14.2219608,69.0398343-11.1128292Zm-71.2978911,126.2637281c8.1624198,.0634129,14.908238,6.8218884,14.9717775,15.0001297,.0648052,8.3364572-6.8032822,15.1840399-15.1753063,15.1301199-8.3811374-.0541731-15.0626566-6.9196025-14.9251987-15.3361802,.1339139-8.2060873,6.9359304-14.8577355,15.1287276-14.7940694Zm-26.1724481,123.7410078c17.6060083,14.7085063,37.8766249,23.7088372,60.4344101,27.7214447,11.4426777,2.035542,22.9623115,2.8723141,34.5451051,2.2321094,14.6044635-.8072806,28.6842832-3.9947607,42.0256778-10.1565725,2.0950312-.9675217,4.1629758-2.1070556,6.8459372-2.276663-.5695771,.9232212-1.2762325,1.218895-1.9063113,1.5746909-9.478396,5.3513668-19.5702899,9.0864004-30.2434056,11.1605471-2.9273732,.5689443-5.9690416,.7971548-8.9529928,.7594362-3.0820451-.0389844-6.1768739,.1063211-9.1314603,.6822268-5.3919967,1.0510596-10.6967848,.2560566-16.0377727,.0454396-3.6997198-.1459383-7.3753908-.7433614-11.0940965-.587677-.6941246,.0291117-1.4166016-.042655-2.0904746-.210617-5.6266625-1.4024254-11.3682529-2.2342612-17.0202299-3.5579584-6.4972294-1.5215303-12.7015696-3.7865487-18.8679381-6.1729502-4.9783571-1.9264364-9.7825502-4.3148631-14.6135767-6.6045631-2.9663576-1.4059695-5.2423878-3.8389497-7.9042115-5.7132382-7.7892835-5.4845213-15.179863-11.4452091-21.8018931-18.3734185-5.6213464-5.8813267-10.4959139-12.3065363-15.4456656-18.7278221-5.6866579-7.3771628-9.6924305-15.5194575-12.9797764-24.1381718-1.499127-3.930715-3.033188-7.832065-3.9867867-11.9379566-.8080401-3.4782176-2.1094605-6.926564-2.3056482-10.4376905-.1906185-3.4164501,.3040276-6.9069452,.0658178-10.3981998,2.9172474,10.9248688,6.0848556,21.7025335,10.7893094,31.94353,9.433969,20.5364193,22.249201,38.6153032,39.6759823,53.1740739Zm-76.6673579-165.0291465c3.8728712-11.6473457,9.3727078-22.279705,18.2639332-31.0589135,7.6371431-7.5406947,14.8652032-15.496801,22.2378094-23.3035515,1.4836851-1.5712734,3.3688588-2.1213583,5.657293-2.8307983-.9239807,2.2822322-1.920614,3.9704588-3.1258392,5.5593258-3.7090862,4.8897562-7.9039583,9.3682778-11.8289775,14.0747568-6.3147116,7.5720847-11.9682075,15.5818578-16.4339452,24.4124548-4.4743447,8.8473046-8.5699838,17.8382692-11.2528186,27.4123542-1.4684964,5.2409955-2.1790755,10.6221069-2.777258,16.0147364-.6131181,5.5285686-.7055162,11.0606813-.3399743,16.6273483,.4721161,7.1931261,1.7869533,14.241453,2.8564925,21.3472439,1.1001698,7.3099527,2.944334,14.495611,3.4098683,21.9298581,.5921071,9.460929,2.9701548,18.634538,5.4585739,27.7573914,.6156496,2.2570442,2.0018737,4.1299404,3.0660969,6.1556097,3.8111038,7.2541341,8.0067354,14.2280363,13.8123716,20.1604984,2.709415,2.7685245,4.9074764,6.0389097,7.3151422,9.0993108,.3088374,.3926285,.5143914,.8780348,.7103259,1.3448349,.1974534,.4705973,.3931348,.9958739-.0918918,1.414703-.4288283,.3703517-.9763817,.382123-1.4447007,.1477103-1.0814371-.541478-2.244387-1.0100501-3.1663425-1.7629045-2.5127211-2.0517433-5.0067094-4.0979175-7.2915996-6.456473-3.6766836-3.795029-6.9860532-7.8390265-9.4185272-12.4743717-5.7770308-11.0084067-10.0792366-22.5936052-12.7440981-34.7593927-1.4495105-6.6165875-2.3134957-13.2863355-2.9066153-20.0577214-.548566-6.2609182-1.4697621-12.5375314-2.2732455-18.8004748-1.2340837-9.6199043-2.6957452-19.2357583-2.74764-28.9557816-.0602486-11.2457305,1.4953298-22.2909699,5.0555665-32.997754Z"/>
</svg>