<?xml version="1.0" encoding="UTF-8"?>
<svg id="a" xmlns="http://www.w3.org/2000/svg" viewBox="0 0 1250 1100">
  <defs>
    <style>
      .cls-1 {
        fill: #2e2f71;
      }
    </style>
  </defs>
  <path class="cls-1" d="m287.4331424,1014.6298828c-7.5371094,0-13.7438965,2.8074341-17.8818359,8.0783691v-1.4778442c0-3.694397-2.4631348-6.2557373-5.9604492-6.2557373-3.5466309,0-6.059082,2.5613403-6.059082,6.2557373v55.9107056c0,3.6453247,2.5124512,6.2071533,6.059082,6.2071533,3.4973145,0,5.9604492-2.5618286,5.9604492-6.2071533v-12.9554443c4.2856445,5.2218628,10.1970215,7.5862427,17.8818359,7.5862427,15.171875,0,26.5512695-11.5272217,26.5512695-28.5709839,0-17.0933838-11.3793945-28.5710449-26.5512695-28.5710449Zm-2.0197754,46.0092163c-9.7045898,0-16.1083984-7.7341309-16.1083984-17.487793,0-9.7041016,6.4038086-17.3885498,16.1083984-17.3885498,9.1130371,0,16.1574707,6.6500854,16.1574707,17.4381714,0,10.7384033-7.0444336,17.4381714-16.1574707,17.4381714Z"/>
  <path class="cls-1" d="m371.8054568,1014.9746704c-3.4975586,0-5.9606934,2.5613403-5.9606934,6.2557373v24.4335938c0,8.9653931-5.4187012,15.0733032-14.2363281,15.0733032-7.8813477,0-12.7585449-4.6305542-12.7585449-14.2359009v-25.3200684c0-3.4974976-2.4628906-6.206665-6.0095215-6.206665-3.4975586,0-6.0097656,2.6600952-6.0097656,6.206665v27.3887939c0,14.8768311,8.7685547,23.2017822,22.1176758,23.2017822,7.4384766,0,13.546875-2.7091675,16.8964844-7.7341309v1.1331177c0,3.6452637,2.4631348,6.2562256,5.9606934,6.2562256,3.5466309,0,6.0588379-2.6109619,6.0588379-6.2562256v-43.9404907c0-3.6452637-2.512207-6.2557373-6.0588379-6.2557373Z"/>
  <path class="cls-1" d="m425.0615603,1014.6298828c-7.4384766,0-13.7929688,2.7583008-17.8815918,7.930542v-18.0786133c0-3.694397-2.4628906-6.2557373-5.9606934-6.2557373-3.5463867,0-6.0585938,2.5613403-6.0585938,6.2557373v60.6890869c0,3.6452637,2.512207,6.2562256,6.0585938,6.2562256,3.4978027,0,5.9606934-2.6109619,5.9606934-6.2562256v-1.0343628c4.2365723,5.2213745,10.2463379,7.635376,17.8815918,7.635376,15.1723633,0,26.5515137-11.5272217,26.5515137-28.5709839,0-17.0933838-11.3791504-28.5710449-26.5515137-28.5710449Zm-2.0195312,46.0092163c-9.7043457,0-16.1081543-7.6845093-16.1081543-17.4381714,0-9.7537231,6.4038086-17.4381714,16.1081543-17.4381714,9.1132812,0,16.1572266,6.6500854,16.1572266,17.4381714,0,10.7384033-7.0439453,17.4381714-16.1572266,17.4381714Z"/>
  <path class="cls-1" d="m471.1802127,998.2260742c-3.5471191,0-6.0593262,2.5613403-6.0593262,6.206604v60.7382202c0,3.6452637,2.512207,6.2562256,6.0593262,6.2562256,3.4973145,0,5.9602051-2.6109619,5.9602051-6.2562256v-60.7382202c0-3.6452637-2.4628906-6.206604-5.9602051-6.206604Z"/>
  <path class="cls-1" d="m500.4575564,993.59552c-4.3352051,0-7.5373535,3.2017822-7.5373535,7.388855,0,4.2366333,3.2021484,7.4384155,7.5373535,7.4384155,4.3347168,0,7.4379883-3.2017822,7.4379883-7.4384155,0-4.1870728-3.1032715-7.388855-7.4379883-7.388855Z"/>
  <path class="cls-1" d="m500.4079959,1014.9746704c-3.5466309,0-6.0588379,2.5613403-6.0588379,6.2557373v43.9404907c0,3.6452637,2.512207,6.2562256,6.0588379,6.2562256,3.4975586,0,5.9602051-2.6109619,5.9602051-6.2562256v-43.9404907c0-3.694397-2.4626465-6.2557373-5.9602051-6.2557373Z"/>
  <path class="cls-1" d="m566.6023318,1049.6541138c-2.5617676,0-3.9899902,1.0343018-5.6159668,3.3496094-2.512207,4.2857056-6.7978516,7.635376-13.1032715,7.635376-9.359375,0-16.1574707-7.1427612-16.1574707-17.4381714,0-10.3450317,6.7980957-17.4381714,16.1574707-17.4381714,5.7143555,0,10.1970215,2.8078613,12.7585449,6.994873,1.7734375,2.3153076,3.3989258,3.3987427,6.0097656,3.3987427,2.9555664,0,5.0739746-2.2165527,5.0739746-5.2213745,0-2.7587891-1.8225098-6.453186-4.6306152-9.3598022-4.0393066-4.236145-10.7878418-6.9453125-19.6057129-6.9453125-16.2067871,0-28.1276855,11.871521-28.1276855,28.5710449,0,16.6989746,11.9208984,28.5709839,28.1276855,28.5709839,8.5712891,0,15.6647949-3.1526489,19.901123-7.5862427,2.6601562-2.8079224,4.5322266-6.5514526,4.5322266-9.2114868,0-3.1035767-2.4140625-5.3200684-5.3200684-5.3200684Z"/>
  <path class="cls-1" d="m646.2615115,1038.3734131l-8.9162598-1.7734985c-4.9753418-.8865356-7.487793-3.0048828-7.487793-6.3053589,0-3.5961914,3.3005371-5.7636108,8.4729004-5.7636108,4.1872559,0,8.1279297,1.2808838,11.2807617,4.5322876,2.4138184,2.2165527,4.1870117,3.4974365,6.3054199,3.4974365,2.7092285,0,4.777832-2.0200806,4.777832-4.7783203,0-2.9557495-1.9208984-6.0593262-4.9257812-8.3249512-4.0395508-3.1035767-10.2460938-4.8275146-17.1918945-4.8275146-12.90625,0-21.1328125,6.2557373-21.1328125,16.5511475,0,8.0789185,5.4677734,13.546875,16.059082,15.6651611l8.4726562,1.723938c4.7290039.8865356,7.0444336,3.2017822,7.0444336,6.6992188,0,4.0397339-3.4484863,6.2562256-9.1625977,6.2562256-5.3203125,0-9.605957-1.723877-13.4482422-5.8618164-2.4135742-2.512207-3.8422852-3.3496094-5.8618164-3.3496094-3.0048828,0-4.9262695,2.0195923-4.9262695,4.8765869,0,2.512207,1.6750488,5.6157837,4.0888672,7.8323364,3.9899902,4.1378784,11.329834,6.7488403,19.7041016,6.7488403,13.6943359,0,22.0688477-6.6010132,22.0688477-17.6847534,0-8.4231567-5.0249023-13.6450195-15.2214355-15.7137451Z"/>
  <path class="cls-1" d="m725.3728396,1040.0482178c0-14.8276978-10.2458496-25.418335-26.354248-25.418335-16.1574707,0-27.3886719,11.4776611-27.3886719,28.4231567,0,17.5369263,11.4775391,28.7188721,29.0634766,28.7188721,8.5712891,0,17.3398438-3.0544434,21.5268555-9.3598022.9853516-1.477356,1.7241211-3.1521606,1.7241211-4.7778931,0-2.9556885-1.4284668-4.8770752-4.6303711-4.8770752-2.0690918,0-3.6945801.9361572-5.3203125,2.4140015-3.1525879,3.8422241-7.2412109,5.5170288-12.8569336,5.5170288-9.753418,0-16.4528809-5.3692017-17.3395996-13.84198h35.171875c4.2365723,0,6.4038086-2.1674194,6.4038086-6.7979736Zm-41.5756836-2.9066162c.8374023-7.8322754,6.6008301-12.7089233,14.7780762-12.7089233,8.3251953,0,13.9406738,4.6796875,14.8273926,12.7089233h-29.6054688Z"/>
  <path class="cls-1" d="m765.2485721,1014.6298828c-6.0097656,0-11.1330566,2.6104736-14.1870117,7.2901001v-.6895752c0-3.694397-2.4631348-6.2557373-5.9604492-6.2557373-3.546875,0-6.059082,2.5613403-6.059082,6.2557373v43.9404907c0,3.6452637,2.512207,6.2562256,6.059082,6.2562256,3.4973145,0,5.9604492-2.6109619,5.9604492-6.2562256v-23.7926636c0-9.5076294,4.5810547-15.1724854,10.2460938-15.1724854,2.7585449,0,4.8273926,1.3300171,6.3054199,3.0048218,1.0837402,1.2809448,2.8078613,2.6600342,4.876709,2.6600342,3.8916016,0,6.1081543-2.7091675,6.1081543-6.6004639,0-2.6600952-1.1328125-5.1231689-3.2512207-7.1427612-2.2163086-2.0692139-5.7141113-3.4974976-10.0981445-3.4974976Z"/>
  <path class="cls-1" d="m834.9121463,1014.7281494c-2.7094727,0-4.6303711,1.5765381-5.7141113,4.4335938l-15.1723633,38.6694336-15.1721191-38.6694336c-1.0839844-2.8570557-3.0048828-4.4335938-5.7143555-4.4335938-3.1032715,0-5.9604492,2.0692139-5.9604492,5.5170288,0,.5422363.0493164,1.5765991.4433594,2.6109619l16.5512695,41.0338135c1.7734375,4.4827271,4.5322266,7.881958,9.8522949,7.881958s8.0786133-3.399231,9.8522949-7.881958l16.5512695-41.0338135c.394043-1.0343628.4433594-2.0687256.4433594-2.6109619,0-3.4478149-2.8569336-5.5170288-5.9604492-5.5170288Z"/>
  <path class="cls-1" d="m858.0962283,1014.9746704c-3.546875,0-6.059082,2.5613403-6.059082,6.2557373v43.9404907c0,3.6452637,2.512207,6.2562256,6.059082,6.2562256,3.4975586,0,5.9606934-2.6109619,5.9606934-6.2562256v-43.9404907c0-3.694397-2.4631348-6.2557373-5.9606934-6.2557373Z"/>
  <path class="cls-1" d="m858.1453006,993.59552c-4.3347168,0-7.5366211,3.2017822-7.5366211,7.388855,0,4.2366333,3.2019043,7.4384155,7.5366211,7.4384155,4.3352051,0,7.4384766-3.2017822,7.4384766-7.4384155,0-4.1870728-3.1032715-7.388855-7.4384766-7.388855Z"/>
  <path class="cls-1" d="m924.2905642,1049.6541138c-2.5615234,0-3.9904785,1.0343018-5.6157227,3.3496094-2.512207,4.2857056-6.7980957,7.635376-13.1035156,7.635376-9.359375,0-16.1574707-7.1427612-16.1574707-17.4381714,0-10.3450317,6.7980957-17.4381714,16.1574707-17.4381714,5.7143555,0,10.1970215,2.8078613,12.7585449,6.994873,1.7734375,2.3153076,3.3991699,3.3987427,6.0097656,3.3987427,2.9558105,0,5.0737305-2.2165527,5.0737305-5.2213745,0-2.7587891-1.8225098-6.453186-4.6306152-9.3598022-4.0390625-4.236145-10.7878418-6.9453125-19.6054688-6.9453125-16.206543,0-28.1276855,11.871521-28.1276855,28.5710449,0,16.6989746,11.9211426,28.5709839,28.1276855,28.5709839,8.5712891,0,15.6647949-3.1526489,19.9013672-7.5862427,2.6599121-2.8079224,4.5319824-6.5514526,4.5319824-9.2114868,0-3.1035767-2.4138184-5.3200684-5.3200684-5.3200684Z"/>
  <path class="cls-1" d="m992.4519412,1040.0482178c0-14.8276978-10.2460938-25.418335-26.354248-25.418335-16.1574707,0-27.3886719,11.4776611-27.3886719,28.4231567,0,17.5369263,11.4775391,28.7188721,29.0634766,28.7188721,8.5712891,0,17.3398438-3.0544434,21.5268555-9.3598022.9851074-1.477356,1.7241211-3.1521606,1.7241211-4.7778931,0-2.9556885-1.4284668-4.8770752-4.6306152-4.8770752-2.0688477,0-3.6943359.9361572-5.3200684,2.4140015-3.152832,3.8422241-7.2412109,5.5170288-12.8569336,5.5170288-9.753418,0-16.453125-5.3692017-17.3398438-13.84198h35.1721191c4.2363281,0,6.4038086-2.1674194,6.4038086-6.7979736Zm-41.5759277-2.9066162c.8374023-7.8322754,6.6010742-12.7089233,14.7783203-12.7089233,8.3251953,0,13.9404297,4.6796875,14.8273926,12.7089233h-29.6057129Z"/>
  <path class="cls-1" d="m282.9944217,892.9241943c-20.5419922,14.5194092-17.5668945,40.6939087,5.5290527,51.1680298,19.2785645,8.7428589,39.7836914,8.9033813,60.2734375,8.234314,18.0769043-.5900879,35.8823242-3.1210327,51.2189941-13.9665527,12.1716309-8.6074219,17.253418-20.5432129,15.546875-35.3059082-1.6652832-14.4082642-10.2399902-23.1509399-23.4763184-27.762207-14.0517578-4.8950806-28.6989746-3.1992798-41.1396484-3.5805054-11.0112305,0-20.0102539.0023193-29.0090332-.0009766-3.7182617-.0012817-7.3806152-.4161987-10.6271973-2.3709717-4.2353516-2.5499268-4.7900391-6.4929199-3.4143066-10.7766724,1.5290527-4.7616577,4.927002-3.9754028,8.8378906-3.0681152,19.0224609,4.4133301,37.973877,4.2133789,56.5332031-2.3145142,21.8337402-7.6796875,35.7592773-27.9960938,30.338623-48.5894775-3.1691895-12.0388184-1.7004395-19.2261353,7.8046875-26.8546753,7.1054688-5.703125,6.9836426-13.5167236,2.1721191-18.8451538-4.5075684-4.991272-12.8181152-5.407959-19.604248-.6212158-4.4990234,3.1734009-8.8103027,6.6516724-12.9370117,10.2974243-2.2021484,1.9456787-3.8540039,2.0737915-6.6813965,1.0814819-22.7927246-8.0001831-45.5515137-7.9664917-68.2126465.8378906-28.0244141,10.8883057-37.3032227,45.5664062-18.0317383,68.1778564,2.7585449,3.2369995,3.2058105,5.2803955-.6142578,7.9614258-13.1928711,9.2595825-13.3093262,28.8988647-3.7978516,39.7921753,2.5578613,2.9293823,2.9414062,3.9260254-.7092285,6.5063477Zm41.5163574-101.8226318c11.263916-5.1272583,22.8867188-4.7783813,34.1921387-.2319336,8.6994629,3.4984741,13.5871582,12.828186,12.6904297,22.4882202-.8984375,9.6792603-8.1887207,17.2024536-19.3630371,19.6647949-3.1220703.6878052-6.3789062.7627563-10.0187988,1.1682739-9.1550293-.3439941-18.5515137-1.604187-25.4624023-9.1061401-9.6516113-10.4771729-5.5827637-27.8181152,7.9616699-33.9832153Zm-20.9101562,114.2472534c1.9614258-4.4839478,4.8925781-7.3806763,10.4382324-7.1705933,8.496582.3217773,17.0144043.0845337,25.5231934.0845337l.0002441.21698c8.5061035,0,17.0119629-.0096436,25.5180664.0042725,3.7294922.0063477,7.3129883.8101196,10.5854492,2.5697021,7.364502,3.9594727,8.2800293,14.0531006,1.5898438,18.9251709-2.5358887,1.8464355-5.2512207,3.5422363-8.4758301,4.3637085-17.2368164,4.3912964-34.6184082,4.4700317-51.8984375,1.0072632-12.2595215-2.4570312-17.3195801-10.7667847-13.2807617-20.0010376Z"/>
  <path class="cls-1" d="m1213.222449,852.3242188c11.2741699-.1088257,16.425293-4.7320557,17.5991211-15.9136963.9226074-8.791748-.3395996-17.5349121-3.1398926-25.824646-9.1550293-27.1040039-28.5148926-42.2208252-56.5927734-45.7734985-29.9995117-3.7956543-56.0600586,4.0559082-73.8962402,29.8349609-13.9343262,20.1400146-16.3032227,43.0065918-11.6086426,66.744812,3.3173828,16.7741699,10.5595703,31.5305176,24.4658203,41.847229,28.7358398,21.317627,59.9233398,22.5117188,91.9848633,8.821106,11.1940918-4.7801514,20.0737305-13.0597534,24.215332-25.1019287,2.0014648-5.8190308,1.2302246-11.5079956-3.7739258-15.7200317-4.8398438-4.0733643-10.3330078-3.2070923-15.4833984-.7498169-3.0654297,1.4624023-6.1833496,3.3908691-8.4414062,5.8706665-11.3942871,12.5145264-25.9379883,14.9963379-41.6674805,13.2825317-20.7438965-2.2598267-36.2905273-15.4851685-39.0097656-32.3398438-.5822754-3.6088257-.326416-5.1266479,4.0251465-5.0474243,15.2158203.2766724,30.4399414.1072998,45.6608887.1065674l-.0002441.0002441c15.2209473-.0004883,30.4428711.1098633,45.6625977-.0372314Zm-55.1872559-26.8285522c-11.2890625,0-22.5786133.0245361-33.8676758-.0089111-7.3039551-.0214844-7.8234863-.8189087-5.5068359-8.0373535,5.8144531-18.1193848,22.0756836-28.0490112,43.1943359-26.376709,18.3168945,1.4505005,31.0549316,11.7011108,35.1069336,27.8502808,1.2109375,4.8269653.8286133,6.9506226-5.064209,6.7075806-11.2702637-.4645386-22.572998-.1348877-33.8625488-.1348877Z"/>
  <path class="cls-1" d="m753.5322635,842.7867432c.4350586,46.0964966,32.7226562,78.0325317,78.6958008,77.8389282,48.2053223-.2028198,79.8242188-31.8148193,79.6352539-79.618042-.1828613-46.3868408-32.7871094-77.2736206-81.3273926-77.0432739-45.208252.2144165-77.4338379,33.2015381-77.0036621,78.8223877Zm124.5500488.2731323c-.7263184,28.2505493-19.3366699,47.1348877-46.1965332,46.8771973-26.2089844-.2510986-45.0964355-20.8039551-44.5739746-48.5043945.5168457-27.4116211,19.8405762-47.3405151,45.5507812-46.977478,26.9870605.3807373,45.935791,20.7480469,45.2197266,48.6046753Z"/>
  <path class="cls-1" d="m565.9934451,842.0533447c-5.9916992-5.5830688-13.3522949-8.7373047-21.1633301-11.0510254-13.4909668-3.9961548-27.7148438-4.7844849-41.0314941-9.4653931-7.7932129-2.739502-11.885498-8.1390991-11.7229004-15.1279297.1520996-6.5273438,4.4116211-12.0241699,12.378418-13.8121338,13.5510254-3.0407715,26.40625-1.4631958,37.7624512,7.6016846,4.8286133,3.8544312,8.9448242,8.7019043,14.8549805,11.1470337,5.2185059,2.1588135,10.185791,2.383606,14.7961426-1.4834595,4.640625-3.892334,5.4519043-8.946167,4.0415039-14.4039307-1.2788086-4.9467163-3.7165527-9.3701782-7.2905273-13.1367798-9.8432617-10.3728638-22.4750977-14.9899902-36.1425781-16.9954224-19.9931641-2.9336548-39.6342773-2.3463745-57.0861816,9.6000366-22.1789551,15.1824341-23.6721191,47.7619629-3.041748,64.8226929,9.1101074,7.5338745,20.2495117,10.4627686,31.5588379,12.9511719,9.8562012,2.168457,20.090332,2.9008179,29.447998,7.0339355,8.0671387,3.5629883,11.9916992,9.9389648,11.0688477,17.2303467-.9555664,7.5518188-5.8977051,12.7268677-14.689209,14.3308105-17.1018066,3.1202393-32.4572754-.4190063-45.0925293-12.9909668-3.4418945-3.4244995-6.9006348-6.8214722-11.236084-9.0874023-4.8168945-2.5177612-9.909668-2.5512085-14.4814453.196228-4.7827148,2.8744507-6.3869629,7.7307739-5.7836914,13.1724243.7976074,7.1918335,4.5595703,13.0192261,9.4416504,17.9988403,15.2441406,15.5489502,34.736084,19.6608276,49.7893066,19.9777222,17.8059082-.0108643,29.550293-1.7375488,40.611084-6.9346313,27.9108887-13.1144409,34.8862305-51.1890259,13.010498-71.5738525Z"/>
  <path class="cls-1" d="m127.8374392,838.7609863c-9.1662598-6.5744629-20.1071777-8.7861938-30.9316406-11.1016846-9.8608398-2.1092529-20.064209-2.7355347-29.4370117-6.9954224-6.3701172-2.8955078-9.7092285-7.6637573-9.3632812-14.6323242.3569336-7.1860352,4.8181152-11.324707,11.3476562-13.107605,11.5117188-3.1433105,22.5957031-2.1836548,33.2441406,3.7457886,6.3422852,3.5316162,10.9626465,9.1228638,16.9240723,13.0331421,5.6306152,3.6931763,11.6345215,4.6799316,17.4255371.7293701,5.7670898-3.9341431,6.2216797-9.9577637,4.4733887-16.0360107-2.5415039-8.8355713-8.4885254-15.1355591-16.340332-19.6124878-21.6206055-12.3278809-44.6943359-13.7885742-68.1442871-7.3968506-25.6635742,6.9951172-39.1186523,31.3340454-31.0629883,54.984436,5.5463867,16.2820435,18.8666992,23.736145,34.3325195,27.8703003,12.6669922,3.3860474,25.6538086,5.5924683,38.2858887,9.0896606,7.9509277,2.201355,12.013916,9.0167847,11.6547852,16.7875977-.3361816,7.2789307-5.0324707,13.1557007-13.0605469,14.859375-15.5627441,3.3030396-30.1757812,1.3275146-42.7268066-9.4238281-4.0209961-3.4443359-7.9013672-7.0544434-11.9609375-10.451355-5.1022949-4.2695923-12.9196777-4.9834595-18.0319824-1.4647217-5.7260742,3.9414673-6.4465332,9.7172241-4.8405762,15.9193115,1.34375,5.1904907,4.0383301,9.6799927,7.6889648,13.6799927,15.5834961,17.0748901,36.0737305,20.7849731,57.7302246,20.9545898h-.0002441c2.9941406,0,6.0214844.2931519,8.9758301-.0476074,19.5546875-2.2542114,36.7946777-8.4684448,46.2722168-27.6424561,9.375-18.9666748,4.2888184-41.7325439-12.4545898-53.7412109Z"/>
  <path class="cls-1" d="m724.616492,879.9725342c-5.2380371-4.6755981-11.338623-4.2282715-17.1882324-.5594482-3.4882812,2.1876831-6.7910156,4.7211304-10.4338379,6.6030273-14.34375,7.4093018-26.3210449.4764404-26.4645996-15.4772949-.201416-22.3626099.0969238-44.7300415-.168457-67.0911255-.0585938-4.9257202,1.9279785-5.6411133,6.0820312-5.5484619,9.9116211.2212524,19.8317871.0795288,29.7485352.0661011,4.432373-.0058594,8.9179688-.3716431,12.4912109-3.1830444,4.8691406-3.8308716,7.0639648-8.9380493,5.7004395-15.2487183-1.3796387-6.3851318-5.4628906-10.3549194-11.7382812-10.9959106-7.3117676-.7467651-14.7294922-.4085693-22.0964355-.6756592-6.4052734-.2323608-14.6398926,2.6658936-18.71875-1.1201172-4.1645508-3.8650513-.8718262-12.2021484-1.3417969-18.5603638-.2036133-2.753479-.0761719-5.5454102-.4589844-8.2692871-1.2983398-9.2405396-8.2424316-15.1664429-16.9160156-14.6231689-9.2856445.5817261-15.5134277,7.1880493-15.6516113,16.7802124-.0998535,6.9154663-.2116699,13.8405151.0539551,20.7470703.1474609,3.8381958-.9304199,5.3034058-4.9873047,5.161377-5.9716797-.2091064-12.0043945-.1407471-17.9411621.4779053-7.5522461.7870483-13.142334,7.2336426-13.0898438,14.2414551.0571289,7.5766602,5.1794434,13.7040405,12.9890137,14.5941162,5.9267578.675415,11.9577637.7359009,17.9309082.5913696,3.8823242-.0939331,5.1804199,1.0737915,5.1066895,5.0522461-.230957,12.4459229-.0847168,24.8988647-.0830078,37.3490601l.0002441.0002441c.0019531,11.9890137-.1975098,23.9822388.0556641,35.9661865.2780762,13.171875,4.5212402,24.9664307,14.9042969,33.5055542,16.2922363,13.3989868,34.5148926,13.2455444,53.3273926,6.2088623,9.5600586-3.5756836,17.4643555-9.2678833,21.7668457-18.8692017,2.7893066-6.2243042,2.3312988-12.472229-2.8789062-17.1229858Z"/>
  <path class="cls-1" d="m1029.3979861,764.0825806c-17.0522461-1.3789062-31.0400391,4.6001587-42.1306152,18.3522949-.4638672-1.2652588-.7368164-1.7935791-.8513184-2.3543091-2.2822266-11.1976318-8.2333984-16.0184937-18.5019531-14.9656982-8.8498535.9072876-14.489502,7.6556396-14.5078125,17.9075317-.0708008,39.4367676-.0461426,78.8737793-.0119629,118.310791.0053711,6.2780151,1.8190918,11.8446655,7.342041,15.5289307,5.4711914,3.6501465,11.2692871,3.6959229,17.0351562.8743896,6.3156738-3.0903931,8.6057129-8.6745605,8.6201172-15.3421631.0458984-20.9867554.017334-41.9737549.0183105-62.9607544.0004883-7.8791504.8374023-15.6419067,3.5488281-23.0922241,2.7404785-7.5300293,6.8151855-14.2011719,14.1538086-17.9882202,10.307373-5.3195801,18.5239258-3.2000122,29.0351562,6.8505859,5.1477051,4.9221802,10.8349609,7.1981812,18.1809082,4.8560791,6.4660645-2.0613403,9.1411133-6.6850586,10.1818848-12.6428223,1.3361816-7.6484985-.611084-14.5675049-5.5114746-20.6472778-6.8447266-8.4917603-16.119873-11.8395996-26.6010742-12.6871338Z"/>
  <path class="cls-1" d="m223.3247439,781.6227417c-.1474609-10.4093018-6.5864258-16.5397339-16.2858887-16.6270752-9.2260742-.083313-16.4772949,6.2678833-16.5285645,15.7640991-.220459,40.8161621-.1821289,81.6345825-.010498,122.4509888.0349121,8.3074951,5.5222168,14.652832,12.5966797,15.9797974,11.3391113,2.126709,20.0964355-4.7244263,20.2473145-16.5028076.2565918-20.0592041.0705566-40.1242676.0678711-60.1868286-.0026855-20.2931519.2011719-40.5892944-.0869141-60.8781738Z"/>
  <path class="cls-1" d="m207.2385623,706.0611572c-11.6123047-.1088867-20.8830566,8.9653931-20.8054199,20.3642578.0786133,11.5639648,8.9355469,20.2311401,20.7651367,20.3207397,11.2900391.0855713,20.3010254-8.6947632,20.371582-19.8508911.0737305-11.6386108-8.7939453-20.725769-20.3312988-20.8341064Z"/>
  <path class="cls-1" d="m425.7607791,454.4821777h399.7368164c4.8393555,0,8.7619629-3.9232178,8.7619629-8.762085s-3.9226074-8.762085-8.7619629-8.762085h-399.7368164c-4.8391113,0-8.7619629,3.9232178-8.7619629,8.762085s3.9228516,8.762085,8.7619629,8.762085Z"/>
  <path class="cls-1" d="m571.6833865,473.8845825c-6.5668945,1.3571167-10.9628906,7.4415894-11.168457,14.0505981l31.4216309,28.2531738-3.2424316-29.9606934c-.8933105-8.2368164-8.6779785-14.0664062-17.0107422-12.3430786Z"/>
  <path class="cls-1" d="m501.2842166,477.5977173c-3.0480957,0-6.1086426.2126465-9.1604004.6448975-2.963623.4230957-9.7805176,6.4538574-4.1740723,12.982605l123.0622559,118.2841797,96.1806641,19.9310303,11.5334473,8.8293457c6.3395996,4.854187,13.7868652,7.1859131,21.1604004,7.1859131,11.1809082,0,22.1970215-5.355957,28.9580078-15.3989258,10.1025391-15.008606,7.0454102-35.2523193-7.0368652-46.6086426l-15.0827637-12.1607666c5.230957-9.9660645,2.1848145-27.5239258,2.1848145-27.5239258.1047363-.9754639.3813477-1.9462891.8291016-2.8184814l21.8662109-42.3886108c3.7966309-7.3643188.5168457-16.5195312-7.3862305-19.6764526-1.6030273-.640564-3.2597656-.9406738-4.8999023-.9406738-5.3835449,0-10.598877,3.2299805-13.2324219,8.248291l-19.1142578,36.4419556s-34.5681152,34.6418457-69.8056641,36.7591553c-.2211914.0125122-.392334.0505981-.6064453.067688l-45.5541992-9.4394531c-5.4414062-1.1270142-10.4238281-4.2652588-14.0603027-8.8466797l-.0578613-.0099487.0097656-.0465088c-.0341797-.0432129-.0688477-.0825806-.1030273-.1255493l-.2585449-.3345947-53.1691895-47.8082275c-11.8574219-9.9026489-26.8100586-15.2476196-42.0825195-15.2476196Z"/>
  <path class="cls-1" d="m447.5593631,256.9248047c0,8.0141602-.2158203,14.0518799.0390625,20.0695801.8776855,20.7227173,5.729248,39.6843262,24.0012207,52.4815674,6.9401855,4.8606567,14.309082,9.0697632,22.1008301,12.2435303,22.8400879,9.3027954,41.2375488,23.6554565,53.7849121,45.1752319,1.6767578,2.8754883,4.1208496,5.3442383,6.4128418,7.8122559,10.418457,11.2185059,23.1965332,16.871582,38.6325684,16.3640747,11.5007324-.3780518,22.494873-3.1195679,32.8574219-7.8050537,31.0119629-14.0222778,62.3879395-26.1160278,96.4257812-31.5771484,24.0864258-3.8644409,39.7871094-20.288208,48.1298828-43.3949585,2.7277832-7.5548706,4.0725098-15.3872681,5.2229004-23.2333984,2.2895508-15.6143799,9.8835449-27.4262695,23.6694336-35.2421875,3.1379395-1.7791748,4.364502-3.8384399,7.2880859-5.9597168,10.4760742-7.600708,16.7058105-17.8359375,18.5766602-30.6604004,1.9465332-13.343689-.7583008-25.8797607-6.6901855-37.8474731-8.6762695-17.5046997-20.8393555-30.5603027-35.3076172-42.9662476-23.5092773-20.1585693-26.1794434-31.6207275-34.2832031-62.9576416-8.8134766-34.081543-56.0527344-63.6655884-90.6523438-56.2733154-26.4887695,5.6593018-52.3496094,7.1477661-78.6640625.8772583-2.7854004-.6637573-5.7353516-.7403564-8.6188965-.8705444-13.9916992-.632019-25.371582,4.4603271-34.057373,15.5614014-5.222168,6.6739502-9.8063965,13.7906494-13.6113281,21.302063-10.0932617,19.9261475-25.5698242,34.067688-45.2053223,44.2398682-8.9714355,4.647522-17.8305664,9.6774292-26.1313477,15.4159546-12.7836914,8.8377075-23.2297363,19.7375488-25.2277832,36.2232666-1.4555664,12.0108032,2.2280273,23.0978394,7.8737793,33.269165,10.380127,18.699707,15.4865723,38.3579712,13.434082,57.7528687Zm321.6206055,44.5181885c-8.4265137,30.3334961-27.5241699,49.767395-58.4631348,57.0214233-1.1723633.2748413-2.4379883.229248-3.6564941.1963501-.6296387-.0170288-1.1311035-.4467163-1.1469727-1.3162231.175293-1.3804321,1.1496582-2.3191528,2.3659668-2.9683838,2.7067871-1.4450073,5.3901367-2.9677734,8.2077637-4.1659546,18.4558105-7.8487549,32.1706543-20.8982544,42.213623-38.0748901,2.3549805-4.027832,4.9545898-7.9143677,7.4987793-11.8286743.71875-1.1057739,1.6293945-2.7526245,3.0483398-2.1196289,1.4660645.6540527.2241211,2.2052002-.0678711,3.2559814Zm-94.3366699-254.2105713c19.4760742-.1195068,34.2724609,7.9553833,43.8251953,25.1379395.3618164.651001.5490723,1.4118652.7355957,2.1425171.0964355.3776245-.0742188.7487793-.5891113.9053345-.8510742.1293335-1.5744629-.291687-2.166748-.9055176-1.3178711-1.3661499-2.6782227-2.7052002-3.8679199-4.1789551-7.7939453-9.6538696-17.8803711-15.6063232-29.8007812-18.6752319-2.7954102-.7196045-5.5480957-1.6087646-8.3078613-2.4602661-.779541-.2405396-1.9138184-.5036621-1.7770996-1.4552002.1408691-.9830933,1.2741699-.5064697,1.9487305-.5106201Zm-24.9448242,23.3723755c69.3276367,14.4609985,120.3105469,77.9390259,119.7705078,149.8247681-.5561523,73.9763184-52.8378906,135.7477417-126.7590332,149.0819702-67.4584961,12.168457-129.3325195-26.1104736-151.6279297-68.0234985,25.1115723,31.6254272,57.4470215,51.0565796,97.1677246,57.7840576,72,12.1947632,142.1306152-26.489624,167.3452148-92.0270386,20.5249023-53.3483276,4.1640625-115.6151733-40.1616211-152.8486328-64.2241211-53.9484253-157.3916016-48.6211548-214.9953613,12.4102783-4.8713379,5.1610718-9.020752,11.0039673-13.9755859,17.1091309,22.6396484-45.217041,86.0219727-89.4171753,163.236084-73.3110352Zm-39.3242188,148.1228027c.0810547-.000061.1623535-.0001831.2436523-.0002441,0-16.1184082.2382812-32.2410278-.0498047-48.3543091-.5969238-33.4202881,28.0229492-44.0344238,51.7963867-36.1818848,4.6428223,1.5336304,8.9951172,3.617981,12.3818359,7.289978,3.1425781,3.4075317,3.5634766,7.5581665,1.168457,10.9398804-2.3076172,3.2587891-5.3452148,3.883606-9.9462891,1.8915405-3.4316406-1.4857788-6.717041-3.3439941-10.2167969-4.630188-8.7199707-3.2045288-18.6201172-.4210815-23.559082,6.3474731-2.128418,2.9169312-2.6962891,6.3196411-3.0925293,9.7578125-.7651367,6.640686-.4716797,13.3153076-.4763184,19.9771729-.0200195,28.2072144.0283203,56.4144897-.0227051,84.6216431-.0310059,17.1987305-9.0883789,30.1505127-25.170166,34.378418-13.8781738,3.6485596-27.3256836,2.3262329-38.5725098-7.8795776-3.3720703-3.0599976-3.9040527-7.451355-1.9230957-10.5913696,2.1333008-3.381958,5.4060059-4.3347778,9.4389648-2.5827026,4.4121094,1.916626,8.4284668,4.7980957,13.3383789,5.4891968,14.5161133,2.0432739,24.6987305-4.2626953,24.6687012-20.0511475-.0319824-16.8071289-.0070801-33.6144409-.0070801-50.4216919Zm74.4929199-17.9744873c9.057373.1036987,16.3430176,7.4456787,16.3720703,16.4991455.029541,9.2529907-7.395752,16.6680908-16.6315918,16.6080322-9.027832-.0587158-16.3723145-7.4139404-16.4223633-16.446228-.050293-9.1386719,7.5854492-16.7649536,16.6818848-16.6609497Zm-129.1442871,33.1055298c-9.2075195-.0593872-16.5483398-7.6021118-16.3974609-16.848938.1472168-9.015686,7.6201172-16.3233643,16.6210938-16.253479,8.9677734.0697021,16.3791504,7.494873,16.4487305,16.4797974.0712891,9.1588745-7.4743652,16.6819458-16.6723633,16.6226196Zm-74.4912109-66.8189697c.6950684-.9832153,1.6726074-1.7886353,2.6062012-2.5722046.482666-.4049683,1.1428223-.4160767,1.7314453.2241821.7844238,1.149353.6779785,2.49823.1982422,3.7907715-1.0671387,2.87677-2.0654297,5.7962036-3.3791504,8.5617676-8.605957,18.1152344-10.2143555,36.9779053-6.3369141,56.4935913.9091797,4.576355,1.5415039,9.2091675,2.2336426,13.8261108.1955566,1.3042603.6064453,3.140686-.8752441,3.6081543-1.5310059.4830322-1.6303711-1.501709-2.1088867-2.4816895-13.8134766-28.289856-12.4116211-55.5006714,5.9306641-81.4506836Z"/>
</svg>