<?xml version="1.0" encoding="UTF-8"?><svg id="Layer_1" xmlns="http://www.w3.org/2000/svg" viewBox="0 0 1667.24 398.29"><defs><style>.cls-1{fill:#fff;}.cls-2{fill:#424343;}.cls-3{fill:#404041;}</style></defs><path class="cls-3" d="m616.89,334.21c-18.19,0-34.26-3.13-48.19-9.39-13.94-6.26-24.93-15.24-32.95-26.93-8.03-11.69-12.17-25.92-12.4-42.7h47.84c.47,11.58,4.66,21.32,12.58,29.23,7.91,7.92,18.84,11.87,32.78,11.87,12.05,0,21.62-2.89,28.7-8.68,7.09-5.79,10.63-13.52,10.63-23.21s-3.13-18.07-9.39-23.74c-6.26-5.67-14.59-10.28-24.98-13.82-10.4-3.54-21.5-7.32-33.31-11.34-19.13-6.61-33.72-15.12-43.76-25.51-10.04-10.39-15.06-24.21-15.06-41.46-.24-14.64,3.25-27.22,10.45-37.74,7.2-10.51,17.06-18.66,29.59-24.45,12.52-5.79,26.93-8.68,43.23-8.68s31.12,2.96,43.76,8.86c12.63,5.91,22.56,14.17,29.77,24.8,7.2,10.63,11.04,23.27,11.52,37.92h-48.55c-.24-8.74-3.6-16.48-10.1-23.21-6.5-6.73-15.54-10.1-27.11-10.1-9.92-.23-18.25,2.19-24.98,7.26-6.73,5.08-10.1,12.46-10.1,22.15,0,8.27,2.6,14.83,7.8,19.67,5.19,4.84,12.28,8.92,21.26,12.22,8.98,3.31,19.25,6.85,30.83,10.63,12.28,4.25,23.5,9.21,33.66,14.88,10.15,5.67,18.3,13.17,24.45,22.5,6.14,9.33,9.21,21.32,9.21,35.97,0,13-3.31,25.04-9.92,36.14-6.62,11.11-16.42,20.02-29.41,26.75-12.99,6.73-28.94,10.1-47.84,10.1Z"/><path class="cls-3" d="m751.54,329.96V74.83h45.36v255.13h-45.36Z"/><path class="cls-3" d="m876.62,126.92c-8.27,0-15.06-2.48-20.38-7.44-5.31-4.96-7.97-11.22-7.97-18.78s2.66-13.76,7.97-18.6c5.32-4.84,12.1-7.26,20.38-7.26s15.06,2.42,20.38,7.26c5.32,4.84,7.97,11.04,7.97,18.6s-2.66,13.82-7.97,18.78-12.11,7.44-20.38,7.44Zm-22.68,203.04v-175.76h45.36v175.76h-45.36Z"/><path class="cls-3" d="m955.64,329.96v-175.76h40.04l3.9,23.74c5.67-8.5,13.17-15.29,22.5-20.38,9.33-5.08,20.14-7.62,32.42-7.62,27.16,0,46.42,10.51,57.76,31.54,6.38-9.68,14.94-17.36,25.69-23.03,10.75-5.67,22.5-8.5,35.26-8.5,22.91,0,40.51,6.85,52.8,20.55,12.28,13.7,18.43,33.79,18.43,60.24v99.22h-45.36v-94.97c0-15.12-2.9-26.69-8.68-34.73-5.79-8.03-14.71-12.05-26.75-12.05s-22.15,4.49-29.59,13.46c-7.44,8.98-11.16,21.5-11.16,37.56v90.71h-45.36v-94.97c0-15.12-2.96-26.69-8.86-34.73-5.91-8.03-15-12.05-27.29-12.05s-21.79,4.49-29.23,13.46c-7.44,8.98-11.16,21.5-11.16,37.56v90.71h-45.36Z"/><path class="cls-3" d="m1284.12,329.96l91.42-248.05h31.54l91.07,248.05h-31.54l-22.68-63.78h-105.6l-23.03,63.78h-31.18Zm63.07-87.88h87.88l-43.94-122.61-43.94,122.61Z"/><path class="cls-3" d="m1543.86,329.96V81.91h29.77v248.05h-29.77Z"/><path class="cls-1" d="m371.68,232.89c-8.89-10.83-21.27-18.4-34.88-21.32-4.18-.9-7.25-4.46-7.2-8.73,0-.42,0-.84,0-1.26,0-14.25-2.79-28.07-8.29-41.07-5.31-12.56-12.92-23.85-22.62-33.54-9.69-9.69-20.98-17.3-33.54-22.62-13-5.5-26.82-8.29-41.07-8.29s-28.07,2.79-41.07,8.29c-12.56,5.31-23.85,12.92-33.55,22.62-9.69,9.69-17.3,20.98-22.62,33.54-5.5,13-8.29,26.82-8.29,41.07,0,.4,0,.8,0,1.2.05,4.31-3.05,7.9-7.26,8.81-13.59,2.93-25.94,10.48-34.82,21.3-9.05,11.03-14.03,24.97-14.03,39.26,0,18.97,8.47,36.64,23.62,48.69,11.18,8.89,25.31,13.26,39.6,13.26h53.2s143.61,0,143.61,0c14.29,0,28.41-4.37,39.6-13.26,15.15-12.05,23.62-29.72,23.62-48.69,0-14.29-4.98-28.23-14.03-39.26Zm-232.03,24.78l11.75,14.53c3.07,3.8,2.49,9.37-1.31,12.45-1.64,1.33-3.61,1.97-5.56,1.97-2.58,0-5.14-1.12-6.89-3.28l-11.75-14.53c-3.81-4.71-5.91-10.64-5.91-16.7s2.1-11.99,5.91-16.7l11.75-14.53c3.07-3.8,8.65-4.39,12.45-1.31s4.39,8.65,1.31,12.45l-11.75,14.53c-2.61,3.23-2.61,7.91,0,11.13Zm113.07,33.43c-7.26,12.55-20.77,20.34-35.26,20.34s-28-7.8-35.26-20.35c-2.45-4.23-1-9.64,3.23-12.09,4.23-2.45,9.64-1,12.09,3.23,4.11,7.1,11.75,11.51,19.94,11.51s15.83-4.41,19.94-11.51c2.45-4.23,7.86-5.67,12.09-3.23,4.23,2.45,5.67,7.86,3.23,12.09Zm42.61-33.43l11.75,14.53c3.07,3.8,2.49,9.37-1.31,12.45-1.64,1.33-3.61,1.97-5.56,1.97-2.58,0-5.14-1.12-6.89-3.28l-11.75-14.53c-3.81-4.71-5.91-10.64-5.91-16.7s2.1-11.99,5.91-16.7l11.75-14.53c3.07-3.8,8.65-4.39,12.45-1.31,3.8,3.07,4.39,8.65,1.31,12.45l-11.75,14.53c-2.61,3.23-2.61,7.91,0,11.13Z"/><path class="cls-2" d="m406.56,197.71c-2.99-1.2-4.99-3.96-5.27-7.17-1.13-12.73-4.21-25.11-9.2-36.92-6.21-14.67-15.09-27.85-26.4-39.17-22.14-22.14-52.28-36.09-111.77-36.09h-29.83c-16.63,0-32.77,3.26-47.97,9.69-14.67,6.21-27.85,15.09-39.17,26.4-11.31,11.31-20.2,24.49-26.4,39.17-5.13,12.13-8.24,24.85-9.29,37.95-.21,2.58-1.78,4.88-4.21,5.77-13.28,4.87-25.18,13.28-34.24,24.33-5.72,6.97-10.17,14.78-13.25,23.21-4.24,11.65-5.7,24.09-4.25,36.71,1.6,13.97,6.96,27.38,15.5,38.55,15.51,20.29,38.69,31.66,63.61,31.66h242.17c71.14,0,91.28-53.2,91.28-78.64,0-12.44-3.97-56.54-51.31-75.46Zm-44.48,123.14c-11.18,8.89-25.31,13.26-39.6,13.26h-143.61s-53.2,0-53.2,0c-14.29,0-28.41-4.37-39.6-13.26-15.15-12.05-23.62-29.72-23.62-48.69,0-14.29,4.98-28.23,14.03-39.26,8.88-10.82,21.23-18.38,34.82-21.3,4.21-.91,7.31-4.5,7.26-8.81,0-.4,0-.8,0-1.2,0-14.25,2.79-28.07,8.29-41.07,5.31-12.56,12.92-23.85,22.62-33.54,9.69-9.69,20.98-17.3,33.55-22.62,13-5.5,26.82-8.29,41.07-8.29s28.07,2.79,41.07,8.29c12.56,5.31,23.85,12.92,33.54,22.62,9.69,9.69,17.3,20.98,22.62,33.54,5.5,13,8.29,26.82,8.29,41.07,0,.42,0,.84,0,1.26-.05,4.28,3.02,7.84,7.2,8.73,13.61,2.92,25.99,10.48,34.88,21.32,9.04,11.03,14.03,24.97,14.03,39.26,0,18.97-8.47,36.64-23.62,48.69Z"/><path class="cls-2" d="m151.4,232.01c3.07-3.8,2.49-9.37-1.31-12.45-3.8-3.07-9.37-2.49-12.45,1.31l-11.75,14.53c-3.81,4.71-5.91,10.64-5.91,16.7s2.1,11.99,5.91,16.7l11.75,14.53c1.75,2.16,4.31,3.28,6.89,3.28,1.95,0,3.92-.64,5.56-1.97,3.8-3.07,4.39-8.65,1.31-12.45l-11.75-14.53c-2.61-3.23-2.61-7.91,0-11.13l11.75-14.53Z"/><path class="cls-2" d="m307.09,232.01c3.07-3.8,2.49-9.37-1.31-12.45-3.8-3.07-9.37-2.49-12.45,1.31l-11.75,14.53c-3.81,4.71-5.91,10.64-5.91,16.7s2.1,11.99,5.91,16.7l11.75,14.53c1.75,2.16,4.31,3.28,6.89,3.28,1.95,0,3.92-.64,5.56-1.97,3.8-3.07,4.39-8.65,1.31-12.45l-11.75-14.53c-2.61-3.23-2.61-7.91,0-11.13l11.75-14.53Z"/><path class="cls-2" d="m249.5,279.01c-4.23-2.45-9.64-1-12.09,3.23-4.11,7.1-11.75,11.51-19.94,11.51s-15.83-4.41-19.94-11.51c-2.45-4.23-7.86-5.68-12.09-3.23-4.23,2.45-5.68,7.86-3.23,12.09,7.26,12.55,20.77,20.35,35.26,20.35s28-7.79,35.26-20.34c2.45-4.23,1-9.64-3.23-12.09Z"/></svg>