<?xml version="1.0" encoding="UTF-8"?><svg id="b" xmlns="http://www.w3.org/2000/svg" width="1026.54648" height="224.48893" viewBox="0 0 1026.54648 224.48893"><g><g><path d="M256.05555,82.81525h-17.38627l-2.74982-11.97537c-1.77405-1.41936-4.00695-2.60167-6.69722-3.5484-2.69175-.94525-5.66336-1.41936-8.915-1.41936-4.5544,0-8.16088,1.02022-10.82195,3.06037-2.66123,2.04044-3.99184,4.59884-3.99184,7.67314,0,2.89828,1.27105,5.30852,3.81434,7.22955,2.54196,1.92251,7.62869,3.62307,15.25738,5.10081,11.88647,2.3658,20.69747,5.84071,26.43417,10.42296,5.73537,4.58344,8.60446,10.89707,8.60446,18.93882,0,8.63498-3.71182,15.68704-11.13249,21.15646-7.42216,5.47061-17.195,8.20532-29.31719,8.20532-7.39297,0-14.17893-1.07978-20.35789-3.23786-6.18029-2.15808-11.66468-5.24748-16.4548-9.26999l-.26609-21.5556h18.0958l3.54825,12.50785c1.53715,1.30143,3.63685,2.26179,6.29808,2.88287,2.66123,.62078,5.44009,.93133,8.33837,.93133,5.2626,0,9.26969-.94525,12.01952-2.83842,2.74982-1.89199,4.12474-4.46461,4.12474-7.71758,0-2.83872-1.39017-5.29193-4.16904-7.3626-2.78035-2.06948-7.89478-3.90309-15.34613-5.49995-11.29606-2.30624-19.82555-5.72129-25.59144-10.24547-5.76589-4.52388-8.64876-10.68905-8.64876-18.49524,0-8.04176,3.3112-14.97617,9.93493-20.80177,6.6224-5.82412,16.05566-8.73751,28.29712-8.73751,7.4512,0,14.50325,1.00629,21.15617,3.01621,6.65292,2.01111,11.87136,4.58344,15.65652,7.71729l.26609,23.86214Z" fill="#dc4b40"/><path d="M273.65828,65.42883v-15.61237h37.8772l1.06437,12.68505c3.07429-4.61277,6.93294-8.1751,11.57608-10.68935,4.64181-2.51277,10.00856-3.77004,16.1001-3.77004,6.14977,0,11.41251,1.36128,15.78956,4.08059,4.37557,2.72079,7.68692,6.83041,9.93493,12.33036,2.95636-5.14496,6.79989-9.16598,11.53178-12.06426,4.73041-2.8968,10.28977-4.34668,16.67659-4.34668,9.46097,0,16.92742,3.26838,22.39803,9.80218,5.46928,6.53528,8.20532,16.48561,8.20532,29.84982v39.91779l12.50741,2.66123v15.52347h-49.58633v-15.52347l11.17694-2.66123v-40.00669c0-7.274-1.18364-12.33006-3.54825-15.16878-2.36595-2.83842-5.88501-4.25778-10.55586-4.25778-3.66752,0-6.84567,.81369-9.53594,2.43928-2.6916,1.62737-4.83442,3.88916-6.43112,6.78626,0,1.12393,.02919,2.08459,.08875,2.88287,.05823,.79828,.08875,1.61197,.08875,2.43928v44.88555l10.46726,2.66123v15.52347h-46.74776v-15.52347l10.46711-2.66123v-40.00669c0-7.0965-1.18364-12.10841-3.5481-15.03573-2.36595-2.92732-5.9142-4.39083-10.64475-4.39083-3.48988,0-6.55024,.66523-9.18095,1.9957-2.63204,1.33076-4.80538,3.20882-6.51987,5.63299v51.80456l11.17694,2.66123v15.52347h-49.49758v-15.52347l12.50741-2.66123v-59.52214l-13.83802-2.66093Z" fill="#dc4b40"/><path d="M506.77615,145.7966c-.70968-1.59685-1.33061-3.23786-1.8628-4.92331-.53233-1.68545-.94673-3.38454-1.24201-5.10051-3.07548,3.5484-6.81634,6.41734-11.22109,8.60446-4.40624,2.18712-9.44719,3.28231-15.12433,3.28231-9.40274,0-16.86934-2.55722-22.39818-7.67314-5.53017-5.11444-8.29392-12.07789-8.29392-20.89037,0-8.98849,3.60648-15.93654,10.8221-20.84592,7.21429-4.9079,17.79934-7.3626,31.75647-7.3626h13.21709v-9.40304c0-4.61277-1.33046-8.18991-3.99169-10.7335-2.66108-2.54181-6.59469-3.8142-11.79787-3.8142-2.95769,0-5.5884,.34076-7.89478,1.01992-2.30624,.68064-4.16904,1.49433-5.5884,2.43958l-1.68545,10.28991h-19.51516l.08875-21.28951c4.73056-3.19341,10.15672-5.88368,16.27745-8.07228,6.12073-2.18712,12.78743-3.28231,20.00305-3.28231,11.88647,0,21.54019,2.91369,28.96235,8.7378,7.42067,5.8253,11.13249,14.11952,11.13249,24.88206v39.6517c0,1.47892,.01393,2.86894,.0443,4.16918,.02919,1.30143,.13319,2.54329,.31054,3.7256l7.89478,1.06467v15.52347h-29.89368Zm-22.44248-17.29782c3.90294,0,7.4512-.84273,10.64461-2.52818,3.19341-1.68516,5.67714-3.79908,7.4512-6.34238v-14.63659h-13.21709c-5.49965,0-9.66883,1.28631-12.50741,3.85894-2.83857,2.57233-4.25793,5.66322-4.25793,9.26969,0,3.25297,1.04926,5.79626,3.14911,7.62869,2.09837,1.83361,5.01191,2.74982,8.73751,2.74982Z" fill="#dc4b40"/><path d="M548.77024,23.02701V7.41464h39.73986V127.6119l12.50755,2.66123v15.52347h-50.9168v-15.52347l12.50741-2.66123V25.68823l-13.83802-2.66123Z" fill="#dc4b40"/><path d="M613.35867,23.02701V7.41464h39.74V127.6119l12.50755,2.66123v15.52347h-50.91709v-15.52347l12.50755-2.66123V25.68823l-13.83802-2.66123Z" fill="#dc4b40"/><path d="M750.72515,82.81525h-17.38612l-2.75012-11.97537c-1.77405-1.41936-4.0068-2.60167-6.69707-3.5484-2.69175-.94525-5.66322-1.41936-8.915-1.41936-4.5544,0-8.16088,1.02022-10.8221,3.06037-2.66093,2.04044-3.99169,4.59884-3.99169,7.67314,0,2.89828,1.2709,5.30852,3.81449,7.22955,2.54181,1.92251,7.62869,3.62307,15.25708,5.10081,11.88677,2.3658,20.69747,5.84071,26.43447,10.42296,5.73522,4.58344,8.60417,10.89707,8.60417,18.93882,0,8.63498-3.71167,15.68704-11.13234,21.15646-7.42216,5.47061-17.195,8.20532-29.31704,8.20532-7.39312,0-14.17908-1.07978-20.35789-3.23786-6.18029-2.15808-11.66483-5.24748-16.45509-9.26999l-.26609-21.5556h18.0961l3.5481,12.50785c1.537,1.30143,3.637,2.26179,6.29793,2.88287,2.66123,.62078,5.44039,.93133,8.33837,.93133,5.26289,0,9.26969-.94525,12.01952-2.83842,2.75012-1.89199,4.12503-4.46461,4.12503-7.71758,0-2.83872-1.39032-5.29193-4.16918-7.3626-2.78035-2.06948-7.89478-3.90309-15.34598-5.49995-11.29621-2.30624-19.8257-5.72129-25.59174-10.24547-5.76574-4.52388-8.64861-10.68905-8.64861-18.49524,0-8.04176,3.31105-14.97617,9.93493-20.80177,6.6224-5.82412,16.05566-8.73751,28.29712-8.73751,7.4512,0,14.50325,1.00629,21.15617,3.01621,6.65292,2.01111,11.87136,4.58344,15.65652,7.71729l.26609,23.86214Z" fill="#dc4b40"/><path d="M800.67417,26.30932v23.50715h16.85394v18.1847h-16.85394v48.87724c0,3.7256,.76776,6.38682,2.30624,7.98338,1.537,1.59685,3.60648,2.39513,6.20933,2.39513,1.77405,0,3.32646-.07349,4.65692-.22165,1.33076-.14697,2.82331-.39914,4.47973-.75413l2.21764,18.71718c-2.89828,.88688-5.76574,1.55241-8.60446,1.9957-2.83842,.44359-5.9142,.66553-9.22525,.66553-8.93011,0-15.80497-2.45351-20.62398-7.3626-4.82079-4.9082-7.22955-12.68505-7.22955-23.32995v-48.96584h-14.10411v-18.1847h14.10411V26.30932h25.81339Z" fill="#dc4b40"/><path d="M872.71069,147.65955c-13.83802,0-24.89717-4.43557-33.17598-13.30613-8.27999-8.87055-12.41866-20.13624-12.41866-33.79706v-3.5481c0-14.25138,3.91702-25.99118,11.75343-35.21642,7.83522-9.22554,18.34678-13.80779,31.53468-13.74972,12.95114,0,23.004,3.90309,30.16006,11.70927,7.15458,7.80618,10.73321,18.36219,10.73321,31.66832v14.10411h-57.30362l-.17749,.53248c.47263,6.32845,2.58626,11.53178,6.34238,15.61207,3.75493,4.08059,8.85544,6.12073,15.30183,6.12073,5.73522,0,10.49645-.57634,14.28161-1.7296,3.78368-1.15327,7.92382-2.97177,12.41866-5.4555l7.0079,15.96706c-3.96265,3.13533-9.0925,5.76604-15.39042,7.89508-6.29822,2.12874-13.32124,3.19341-21.06757,3.19341Zm-2.30653-79.65839c-4.78997,0-8.57513,1.83361-11.35429,5.49995-2.78035,3.66722-4.49484,8.48653-5.14466,14.4591l.26609,.44329h31.75633v-2.30624c0-5.49965-1.28602-9.89078-3.85864-13.17279-2.57233-3.28231-6.4615-4.92331-11.66483-4.92331Z" fill="#dc4b40"/><path d="M918.13554,65.42883v-15.61237h37.61096l1.24187,11.17679c2.83872-4.13866,6.23866-7.33208,10.20132-9.58023,3.96117-2.24668,8.57365-3.37091,13.83802-3.37091,11.88647,0,21.11172,4.64329,27.67604,13.92691,6.56402,9.2851,9.84633,21.49752,9.84633,36.63578v1.86295c0,14.19301-3.28231,25.60685-9.84633,34.24065-6.56432,8.63498-15.73149,12.95114-27.49884,12.95114-5.02702,0-9.49134-.93162-13.39443-2.79427-3.90309-1.86295-7.24466-4.59766-10.02382-8.20532v27.76493l12.50755,2.66123v15.61237h-50.8282v-15.61237l12.50755-2.66123V68.08976l-13.83802-2.66093Zm74.51254,33.17598c0-9.04805-1.50796-16.38012-4.52417-21.99919-3.01592-5.61758-7.62869-8.42697-13.83802-8.42697-3.90309,0-7.22955,.79828-9.97937,2.39513-2.74982,1.59656-4.92302,3.87376-6.51987,6.83041v42.04654c1.59685,2.72079,3.77005,4.79027,6.51987,6.20963,2.74982,1.41936,6.13466,2.12874,10.15687,2.12874,6.2677,0,10.86655-2.45321,13.79357-7.3626,2.92732-4.9079,4.39113-11.56082,4.39113-19.95875v-1.86295Z" fill="#dc4b40"/></g><g><g><path d="M52.07041,22.73374c-.00352,.00518-.00684,.01078-.01037,.01596,.01057-.01431,.01472-.02011,.02633-.03566-.00498,.00726-.01099,.01244-.01596,.0197Z" fill="#dc4b40"/><path d="M125.56341,44.77471l-7.40615-4.28463c-1.59787-.92447-3.64316-.36116-4.54234,1.25101l-2.13091,3.82021-.72419,1.25433-6.94775,12.03349c-.78349,1.35737-2.51924,1.82241-3.87661,1.03871l-26.77405-15.45812c-1.35779-.7839-1.82262-2.52006-1.0385-3.87744l3.47667-6.01747h.02281l5.06439-8.80582,.14119-.24402c.00041-.00104,0-.00166,.00062-.00249l.085-.14762,.00228,.00145,1.62628-2.81737c.01389-.02384,.00974-.051,.0226-.07505,.14471-.28093,.20691-.57803,.26103-.8743,.07111-.84631-.32322-1.6949-1.09904-2.15662-.00871-.00518-.01327-.01451-.02218-.01949l-.05805-.03359s-2.81334-1.68913-3.27764-1.8591c-.67361-.31037-1.77244-.73083-3.48103-1.20001-10.23285-2.70376-16.83809,.85668-20.21629,3.75242-.0282,.02115-.06033,.03525-.08853,.0566-.21064,.16006-.39973,.3564-.60146,.53159-.47208,.40968-.91266,.86849-1.32524,1.37354-.19012,.23283-.39496,.44347-.56994,.69911-.01161,.01555-.01576,.02135-.02633,.03566-.67879,.99724-1.34327,2.04798-1.98392,3.12276-1.49089,2.50161-2.78544,5.18443-3.34834,7.99371-.35536,1.77452-.45405,3.58967-.0906,5.43861,1.56802,7.97402,10.68524,14.81064,13.87725,16.65751l34.65394,20.18747c3.36866,1.8873,22.61071,13.44331,29.9812,34.52208,.18659,.53366,.68397,.89586,1.24935,.89586,.73518,0,1.33125-.59627,1.33125-1.33166v-43.31048l.0114,.00829v-18.38247c0-1.55724-.83014-2.9965-2.17818-3.77668Z" fill="#dc4b40"/></g><g><path d="M84.22127,140.26504c.00352-.00518,.00684-.01078,.01037-.01596-.01057,.01431-.01472,.02011-.02633,.03566,.00498-.00726,.01099-.01244,.01596-.0197Z" fill="#dc4b40"/><path d="M10.72827,118.22407l7.40615,4.28463c1.59787,.92447,3.64316,.36116,4.54234-1.25101l2.13091-3.82021,.72419-1.25433,6.94775-12.03349c.78349-1.35737,2.51924-1.82241,3.87661-1.03871l26.77405,15.45812c1.35779,.7839,1.82262,2.52006,1.0385,3.87744l-3.47667,6.01747h-.02281l-5.06439,8.80582-.14119,.24402c-.00041,.00104,0,.00166-.00062,.00249l-.085,.14762-.00228-.00145-1.62628,2.81737c-.01389,.02384-.00974,.051-.0226,.07505-.14471,.28093-.20691,.57803-.26103,.8743-.07111,.84631,.32322,1.6949,1.09904,2.15662,.00871,.00518,.01327,.01451,.02218,.01949l.05805,.03359s2.81334,1.68913,3.27764,1.8591c.67361,.31037,1.77244,.73083,3.48103,1.20001,10.23285,2.70376,16.83809-.85668,20.21629-3.75242,.0282-.02115,.06033-.03525,.08853-.0566,.21064-.16006,.39973-.3564,.60146-.53159,.47208-.40968,.91266-.86849,1.32524-1.37354,.19012-.23283,.39496-.44347,.56994-.69911,.01161-.01555,.01576-.02135,.02633-.03566,.67879-.99724,1.34327-2.04798,1.98392-3.12276,1.49089-2.50161,2.78544-5.18443,3.34834-7.99371,.35536-1.77452,.45405-3.58967,.0906-5.43861-1.56802-7.97402-10.68524-14.81064-13.87725-16.65751l-34.65394-20.18747c-3.36866-1.8873-22.61071-13.44331-29.9812-34.52208-.18659-.53366-.68397-.89586-1.24935-.89586-.73518,0-1.33125,.59627-1.33125,1.33166v43.31048l-.0114-.00829v18.38247c0,1.55724,.83014,2.9965,2.17818,3.77668Z" fill="#dc4b40"/></g></g></g><g><path d="M41.62484,216.49964H8.12679v-7.17627l18.61719-26.43945H8.5682v-9.38184H41.15511v7.14648l-18.61719,26.46924h19.08691v9.38184Z" fill="#dc4b40"/><path d="M79.32308,216.49964h-25.52832v-42.99756h25.52832v9.32275h-13.91113v6.76465h12.88184v9.32275h-12.88184v8.11719h13.91113v9.47021Z" fill="#dc4b40"/><path d="M104.49202,200.85315v15.64648h-11.61719v-42.99756h14.08789c11.68555,0,17.52832,4.23486,17.52832,12.70508,0,4.98047-2.43164,8.83301-7.29395,11.55811l12.5293,18.73438h-13.17578l-9.11719-15.64648h-2.94141Zm0-8.73438h2.17676c4.05859,0,6.08789-1.79443,6.08789-5.38232,0-2.96045-1.99023-4.44092-5.9707-4.44092h-2.29395v9.82324Z" fill="#dc4b40"/><path d="M179.89437,194.94202c0,7.23486-1.77441,12.73438-5.32324,16.49902s-8.74512,5.64697-15.58691,5.64697c-6.74512,0-11.91699-1.89209-15.51465-5.67627-3.59766-3.78369-5.39648-9.29395-5.39648-16.52881,0-7.15625,1.78906-12.62158,5.36719-16.396s8.7793-5.66162,15.60254-5.66162c6.84277,0,12.02832,1.87256,15.55762,5.61768s5.29395,9.24463,5.29395,16.49902Zm-29.58691,0c0,8.31348,2.89258,12.46973,8.67676,12.46973,2.94043,0,5.12207-1.00928,6.54297-3.0293,1.42188-2.01904,2.13281-5.16602,2.13281-9.44043,0-4.29395-.7207-7.46533-2.16211-9.51416-1.44043-2.04883-3.59277-3.07373-6.45508-3.07373-5.82324,0-8.73535,4.19629-8.73535,12.58789Z" fill="#dc4b40"/><path d="M234.32113,216.49964h-11.61719v-33.49805h-10.49902v-9.49951h32.58691v9.49951h-10.4707v33.49805Z" fill="#dc4b40"/><path d="M268.57796,200.85315v15.64648h-11.61719v-42.99756h14.08789c11.68555,0,17.52832,4.23486,17.52832,12.70508,0,4.98047-2.43164,8.83301-7.29395,11.55811l12.5293,18.73438h-13.17578l-9.11719-15.64648h-2.94141Zm0-8.73438h2.17676c4.05859,0,6.08789-1.79443,6.08789-5.38232,0-2.96045-1.99023-4.44092-5.9707-4.44092h-2.29395v9.82324Z" fill="#dc4b40"/><path d="M340.30452,173.50208v25.88086c0,5.62744-1.59375,9.98486-4.7793,13.07275-3.18652,3.08789-7.7793,4.63232-13.7793,4.63232-5.8623,0-10.36719-1.5-13.51367-4.5s-4.7207-7.31299-4.7207-12.94043v-26.14551h11.67676v25.23389c0,3.03906,.56836,5.24512,1.70508,6.61719,1.13672,1.37256,2.81348,2.05859,5.0293,2.05859,2.37207,0,4.09277-.68115,5.16113-2.04395,1.06934-1.3623,1.60352-3.59277,1.60352-6.69092v-25.1748h11.61719Z" fill="#dc4b40"/><path d="M383.47249,203.44153c0,2.6665-.67578,5.03418-2.0293,7.10254-1.35254,2.06885-3.30371,3.67627-5.85254,4.82324s-5.53906,1.7207-8.96973,1.7207c-2.86328,0-5.26465-.20166-7.20605-.60303-1.94043-.40186-3.95996-1.10303-6.05859-2.10303v-10.35205c2.21582,1.13721,4.51953,2.02441,6.91211,2.66162,2.3916,.63721,4.58789,.95557,6.58789,.95557,1.72461,0,2.98926-.29883,3.79395-.89697,.80371-.59766,1.20508-1.36768,1.20508-2.30859,0-.58838-.16113-1.10303-.48438-1.54395-.32422-.44141-.84375-.88721-1.55957-1.33838-.71582-.45068-2.62207-1.37207-5.71973-2.76465-2.80469-1.27441-4.90723-2.50928-6.30859-3.70557-1.40234-1.1958-2.44141-2.56836-3.11719-4.11768-.67676-1.54834-1.01465-3.38184-1.01465-5.49951,0-3.96045,1.44043-7.04834,4.32324-9.26416,2.88184-2.21533,6.8418-3.32324,11.88184-3.32324,4.4502,0,8.98926,1.0293,13.61621,3.08789l-3.55859,8.97021c-4.01953-1.84277-7.48926-2.76465-10.41113-2.76465-1.50977,0-2.60742,.26465-3.29395,.79395s-1.0293,1.18652-1.0293,1.9707c0,.84326,.43652,1.59814,1.30859,2.26465s3.24023,1.88232,7.10254,3.64697c3.70605,1.6665,6.2793,3.45557,7.7207,5.36719s2.16113,4.31885,2.16113,7.22021Z" fill="#dc4b40"/><path d="M415.11214,216.49964h-11.61719v-33.49805h-10.49902v-9.49951h32.58691v9.49951h-10.4707v33.49805Z" fill="#dc4b40"/><path d="M487.53792,203.44153c0,2.6665-.67578,5.03418-2.0293,7.10254-1.35254,2.06885-3.30371,3.67627-5.85254,4.82324s-5.53906,1.7207-8.96973,1.7207c-2.86328,0-5.26465-.20166-7.20605-.60303-1.94043-.40186-3.95996-1.10303-6.05859-2.10303v-10.35205c2.21582,1.13721,4.51953,2.02441,6.91211,2.66162,2.3916,.63721,4.58789,.95557,6.58789,.95557,1.72461,0,2.98926-.29883,3.79395-.89697,.80371-.59766,1.20508-1.36768,1.20508-2.30859,0-.58838-.16113-1.10303-.48438-1.54395-.32422-.44141-.84375-.88721-1.55957-1.33838-.71582-.45068-2.62207-1.37207-5.71973-2.76465-2.80469-1.27441-4.90723-2.50928-6.30859-3.70557-1.40234-1.1958-2.44141-2.56836-3.11719-4.11768-.67676-1.54834-1.01465-3.38184-1.01465-5.49951,0-3.96045,1.44043-7.04834,4.32324-9.26416,2.88184-2.21533,6.8418-3.32324,11.88184-3.32324,4.4502,0,8.98926,1.0293,13.61621,3.08789l-3.55859,8.97021c-4.01953-1.84277-7.48926-2.76465-10.41113-2.76465-1.50977,0-2.60742,.26465-3.29395,.79395s-1.0293,1.18652-1.0293,1.9707c0,.84326,.43652,1.59814,1.30859,2.26465s3.24023,1.88232,7.10254,3.64697c3.70605,1.6665,6.2793,3.45557,7.7207,5.36719s2.16113,4.31885,2.16113,7.22021Z" fill="#dc4b40"/><path d="M519.17757,216.49964h-11.61719v-33.49805h-10.49902v-9.49951h32.58691v9.49951h-10.4707v33.49805Z" fill="#dc4b40"/><path d="M568.19906,216.49964l-2.11816-8.05859h-13.96973l-2.17676,8.05859h-12.76367l14.02832-43.17432h15.5l14.20508,43.17432h-12.70508Zm-4.5293-17.5874l-1.85352-7.05859c-.43164-1.56836-.95508-3.59766-1.57324-6.08789-.61719-2.48975-1.02441-4.27393-1.2207-5.35254-.17578,1-.52441,2.64697-1.04395,4.94092s-1.67188,6.81348-3.45508,13.55811h9.14648Z" fill="#dc4b40"/><path d="M603.19124,200.85315v15.64648h-11.61719v-42.99756h14.08789c11.68555,0,17.52832,4.23486,17.52832,12.70508,0,4.98047-2.43164,8.83301-7.29395,11.55811l12.5293,18.73438h-13.17578l-9.11719-15.64648h-2.94141Zm0-8.73438h2.17676c4.05859,0,6.08789-1.79443,6.08789-5.38232,0-2.96045-1.99023-4.44092-5.9707-4.44092h-2.29395v9.82324Z" fill="#dc4b40"/><path d="M657.32894,216.49964h-11.61719v-33.49805h-10.49902v-9.49951h32.58691v9.49951h-10.4707v33.49805Z" fill="#dc4b40"/><path d="M708.08577,203.44153c0,2.6665-.67578,5.03418-2.0293,7.10254-1.35254,2.06885-3.30371,3.67627-5.85254,4.82324s-5.53906,1.7207-8.96973,1.7207c-2.86328,0-5.26465-.20166-7.20605-.60303-1.94043-.40186-3.95996-1.10303-6.05859-2.10303v-10.35205c2.21582,1.13721,4.51953,2.02441,6.91211,2.66162,2.3916,.63721,4.58789,.95557,6.58789,.95557,1.72461,0,2.98926-.29883,3.79395-.89697,.80371-.59766,1.20508-1.36768,1.20508-2.30859,0-.58838-.16113-1.10303-.48438-1.54395-.32422-.44141-.84375-.88721-1.55957-1.33838-.71582-.45068-2.62207-1.37207-5.71973-2.76465-2.80469-1.27441-4.90723-2.50928-6.30859-3.70557-1.40234-1.1958-2.44141-2.56836-3.11719-4.11768-.67676-1.54834-1.01465-3.38184-1.01465-5.49951,0-3.96045,1.44043-7.04834,4.32324-9.26416,2.88184-2.21533,6.8418-3.32324,11.88184-3.32324,4.4502,0,8.98926,1.0293,13.61621,3.08789l-3.55859,8.97021c-4.01953-1.84277-7.48926-2.76465-10.41113-2.76465-1.50977,0-2.60742,.26465-3.29395,.79395s-1.0293,1.18652-1.0293,1.9707c0,.84326,.43652,1.59814,1.30859,2.26465s3.24023,1.88232,7.10254,3.64697c3.70605,1.6665,6.2793,3.45557,7.7207,5.36719s2.16113,4.31885,2.16113,7.22021Z" fill="#dc4b40"/><path d="M779.2762,216.49964h-11.67578v-17.52832h-13.5v17.52832h-11.67578v-42.99756h11.67578v15.93994h13.5v-15.93994h11.67578v42.99756Z" fill="#dc4b40"/><path d="M820.12093,216.49964h-25.52832v-42.99756h25.52832v9.32275h-13.91113v6.76465h12.88184v9.32275h-12.88184v8.11719h13.91113v9.47021Z" fill="#dc4b40"/><path d="M845.28988,200.85315v15.64648h-11.61719v-42.99756h14.08789c11.68555,0,17.52832,4.23486,17.52832,12.70508,0,4.98047-2.43164,8.83301-7.29395,11.55811l12.5293,18.73438h-13.17578l-9.11719-15.64648h-2.94141Zm0-8.73438h2.17676c4.05859,0,6.08789-1.79443,6.08789-5.38232,0-2.96045-1.99023-4.44092-5.9707-4.44092h-2.29395v9.82324Z" fill="#dc4b40"/><path d="M905.98714,216.49964h-25.52832v-42.99756h25.52832v9.32275h-13.91113v6.76465h12.88184v9.32275h-12.88184v8.11719h13.91113v9.47021Z" fill="#dc4b40"/></g></svg>