<?xml version="1.0" encoding="UTF-8" standalone="no"?>
<!DOCTYPE svg PUBLIC "-//W3C//DTD SVG 1.1//EN" "http://www.w3.org/Graphics/SVG/1.1/DTD/svg11.dtd">
<svg width="100%" height="100%" viewBox="0 0 3000 1000" version="1.1" xmlns="http://www.w3.org/2000/svg" xmlns:xlink="http://www.w3.org/1999/xlink" xml:space="preserve" xmlns:serif="http://www.serif.com/" style="fill-rule:evenodd;clip-rule:evenodd;stroke-linejoin:round;stroke-miterlimit:2;">
    <g transform="matrix(1,0,0,1,-45.7193,0)">
        <g transform="matrix(1.57494,0,0,1.57494,-585.475,-72.2515)">
            <g transform="matrix(397.389,0,0,397.389,1046.97,502.435)">
                <path d="M0.027,-0.115C0.078,-0.037 0.173,0.012 0.286,0.012C0.433,0.012 0.534,-0.075 0.535,-0.202C0.535,-0.309 0.47,-0.375 0.366,-0.413L0.309,-0.434C0.234,-0.461 0.199,-0.48 0.199,-0.523C0.199,-0.565 0.245,-0.586 0.294,-0.586C0.343,-0.586 0.387,-0.566 0.421,-0.525L0.517,-0.624C0.456,-0.692 0.38,-0.722 0.293,-0.722C0.155,-0.722 0.053,-0.643 0.053,-0.509C0.053,-0.412 0.114,-0.346 0.228,-0.306L0.288,-0.285C0.358,-0.261 0.387,-0.233 0.387,-0.193C0.387,-0.152 0.349,-0.124 0.292,-0.124C0.234,-0.124 0.173,-0.155 0.138,-0.208L0.027,-0.115Z" style="fill:rgb(32,32,32);fill-rule:nonzero;"/>
            </g>
            <g transform="matrix(397.389,0,0,397.389,1257.98,502.435)">
                <path d="M0.559,-0.25C0.559,-0.396 0.441,-0.511 0.296,-0.511C0.151,-0.511 0.033,-0.396 0.033,-0.25C0.033,-0.104 0.151,0.011 0.296,0.011C0.441,0.011 0.559,-0.104 0.559,-0.25ZM0.171,-0.25C0.171,-0.327 0.224,-0.383 0.296,-0.383C0.368,-0.383 0.42,-0.327 0.42,-0.25C0.42,-0.173 0.368,-0.117 0.296,-0.117C0.224,-0.117 0.171,-0.173 0.171,-0.25Z" style="fill:rgb(32,32,32);fill-rule:nonzero;"/>
            </g>
            <g transform="matrix(397.389,0,0,397.389,1477.34,502.435)">
                <path d="M0.536,-0.133L0.417,-0.197C0.397,-0.151 0.354,-0.117 0.299,-0.117C0.227,-0.117 0.172,-0.173 0.172,-0.25C0.172,-0.327 0.227,-0.383 0.299,-0.383C0.354,-0.383 0.397,-0.349 0.417,-0.303L0.536,-0.367C0.493,-0.453 0.403,-0.511 0.299,-0.511C0.151,-0.511 0.034,-0.401 0.034,-0.25C0.034,-0.099 0.151,0.011 0.299,0.011C0.403,0.011 0.493,-0.047 0.536,-0.133Z" style="fill:rgb(32,32,32);fill-rule:nonzero;"/>
            </g>
            <g transform="matrix(397.389,0,0,397.389,1683.19,502.435)">
                <path d="M0.066,-0L0.203,-0L0.203,-0.23L0.407,-0L0.576,-0L0.332,-0.275L0.53,-0.5L0.365,-0.5L0.203,-0.316L0.203,-0.75L0.066,-0.75L0.066,-0Z" style="fill:rgb(32,32,32);fill-rule:nonzero;"/>
            </g>
            <g transform="matrix(397.389,0,0,397.389,1875.92,502.435)">
                <path d="M0.034,-0.25C0.034,-0.092 0.15,0.011 0.299,0.011C0.404,0.011 0.485,-0.034 0.531,-0.101L0.429,-0.177C0.407,-0.143 0.362,-0.114 0.3,-0.114C0.234,-0.114 0.175,-0.151 0.167,-0.218L0.541,-0.218C0.543,-0.239 0.543,-0.253 0.543,-0.265C0.543,-0.427 0.428,-0.511 0.297,-0.511C0.145,-0.511 0.034,-0.398 0.034,-0.25ZM0.293,-0.398C0.344,-0.398 0.394,-0.37 0.406,-0.311L0.172,-0.311C0.185,-0.372 0.242,-0.398 0.293,-0.398Z" style="fill:rgb(32,32,32);fill-rule:nonzero;"/>
            </g>
            <g transform="matrix(397.389,0,0,397.389,2086.14,502.435)">
                <path d="M0.395,-0.005L0.395,-0.126C0.379,-0.12 0.361,-0.117 0.339,-0.117C0.28,-0.117 0.254,-0.141 0.254,-0.202L0.254,-0.38L0.395,-0.38L0.395,-0.5L0.254,-0.5L0.254,-0.639L0.117,-0.639L0.117,-0.5L0.016,-0.5L0.016,-0.38L0.117,-0.38L0.117,-0.175C0.117,-0.053 0.202,0.006 0.308,0.006C0.346,0.006 0.373,0.002 0.395,-0.005Z" style="fill:rgb(32,32,32);fill-rule:nonzero;"/>
            </g>
        </g>
        <g>
            <g transform="matrix(0.722418,0,0,1.07729,132.146,-13.1666)">
                <rect x="246.062" y="170.343" width="492" height="606.75" style="fill:white;"/>
            </g>
            <g transform="matrix(13.9389,0,0,13.9394,152.3,40)">
                <path d="M-0,30.721C-0,47.001 10.39,60.852 24.926,66C32.175,63.44 38.42,58.685 42.837,52.552C47.282,46.401 49.889,38.87 49.889,30.721L49.889,9.003L24.935,0L0.009,9.003L0.009,30.721L0,30.721ZM20.603,13.973L32.175,13.973L28.63,26.042L34.932,26.042L17.705,52.018L21.794,33.159L14.948,33.159L20.603,13.973Z" style="fill:url(#_Linear1);fill-rule:nonzero;"/>
            </g>
        </g>
    </g>
    <defs>
        <linearGradient id="_Linear1" x1="0" y1="0" x2="1" y2="0" gradientUnits="userSpaceOnUse" gradientTransform="matrix(49.889,0,0,66,0,33)"><stop offset="0" style="stop-color:rgb(255,0,170);stop-opacity:1"/><stop offset="1" style="stop-color:rgb(140,80,255);stop-opacity:1"/></linearGradient>
    </defs>
</svg>
