<svg version="1.1" id="Layer_1" xmlns="http://www.w3.org/2000/svg" xmlns:xlink="http://www.w3.org/1999/xlink" x="0px" y="0px"
	 width="100%" viewBox="0 0 1670 262" enable-background="new 0 0 1670 262" xml:space="preserve">
<path fill="#FFFFFF" opacity="1.000000" stroke="none" 
	d="
M1671.000000,72.000008 
	C1671.000000,135.651520 1671.000000,199.303040 1671.000000,263.000000 
	C1157.970581,263.000000 644.941284,263.000000 131.608826,262.655243 
	C134.005554,261.234131 137.058289,260.645966 139.342346,258.994598 
	C147.948517,252.772339 156.892273,246.833298 164.616302,239.617844 
	C176.166306,228.828369 187.698898,217.780640 197.588974,205.512650 
	C210.882034,189.023499 221.255966,170.515320 229.095276,150.695663 
	C237.463943,129.537674 243.828598,107.915649 245.349243,84.962379 
	C245.894394,84.680061 246.002869,84.397652 245.978561,83.611267 
	C246.404373,79.883522 246.015778,77.152573 242.153503,75.925804 
	C231.409958,72.513397 220.718536,68.935600 210.027908,65.359222 
	C208.314468,64.786026 206.711029,63.884060 205.514709,63.081581 
	C210.885681,62.676083 215.974594,63.026127 220.681244,61.848434 
	C241.107300,56.737469 247.558960,33.273705 237.748642,17.181885 
	C231.059052,6.208985 220.292786,3.752965 208.775482,3.058811 
	C198.533478,2.441519 188.259811,2.358040 178.003174,1.960438 
	C176.991226,1.921209 176.000549,1.333262 175.000000,1.000000 
	C673.666687,1.000000 1172.333374,1.000000 1671.000000,1.000000 
	C1671.000000,23.766706 1671.000000,46.427402 1670.531372,69.544006 
	C1663.066284,70.000137 1656.010498,70.568016 1649.089355,69.845970 
	C1641.698486,69.074921 1636.890747,70.845444 1635.638672,78.737404 
	C1635.514771,79.518555 1635.218750,80.276932 1634.960938,81.031639 
	C1626.799561,104.920563 1618.633179,128.807739 1610.407471,152.870163 
	C1609.925903,152.292831 1609.325806,151.863251 1609.128296,151.293991 
	C1604.719238,138.591034 1600.370239,125.867226 1595.977051,113.158768 
	C1591.320679,99.689346 1586.682861,86.212799 1581.862671,72.802017 
	C1581.441406,71.630043 1579.740479,70.146667 1578.606445,70.123024 
	C1568.567261,69.913582 1558.521973,70.001373 1548.126221,70.001373 
	C1549.544312,73.987213 1550.719482,77.482574 1552.025513,80.928429 
	C1558.033691,96.780746 1564.074707,112.620651 1570.110352,128.462555 
	C1577.518921,147.907608 1584.984253,167.331451 1592.251099,186.829285 
	C1592.833252,188.391479 1592.668457,190.809158 1591.832764,192.231201 
	C1585.421509,203.142670 1576.877930,211.846527 1564.179932,216.958847 
	C1569.367920,224.324905 1574.325195,231.363251 1579.229492,238.326462 
	C1581.389526,237.319809 1582.875244,236.709076 1584.285889,235.957443 
	C1600.550049,227.291229 1612.026855,213.892868 1619.621704,197.555740 
	C1626.559570,182.632004 1631.931274,166.982117 1638.046631,151.673523 
	C1645.345703,133.401962 1652.616211,115.118217 1660.069946,96.909645 
	C1663.503906,88.520699 1667.344116,80.298080 1671.000000,72.000008 
M1428.994385,72.901657 
	C1429.045288,111.270561 1429.096191,149.639465 1429.063354,188.545227 
	C1429.369507,188.643585 1429.675781,188.741943 1430.911499,188.986359 
	C1440.497925,188.986359 1450.084473,188.986359 1459.677979,188.986359 
	C1459.677979,149.068466 1459.677979,109.620728 1459.677979,70.163101 
	C1449.566650,70.163101 1439.777466,70.163101 1429.348999,70.156471 
	C1429.283691,70.761932 1429.218506,71.367393 1428.994385,72.901657 
M927.005615,154.490097 
	C925.434326,155.641403 923.996094,157.068298 922.271057,157.901077 
	C906.063171,165.725418 888.990173,163.543777 872.164185,161.399277 
	C861.720398,160.068192 851.501038,156.975403 840.995972,154.632095 
	C840.995972,162.234680 841.132690,170.225662 840.926758,178.207825 
	C840.847656,181.274414 841.864807,182.562149 844.871094,183.071472 
	C857.936768,185.285126 870.890442,188.612915 884.039795,189.759933 
	C899.231079,191.085083 914.564392,190.315689 929.443176,185.997177 
	C944.851135,181.525055 956.388733,172.562012 961.505310,156.959030 
	C964.755249,147.048370 965.033813,136.669174 962.920105,126.465363 
	C960.054871,112.633278 952.416077,102.865929 938.635193,97.768806 
	C929.261475,94.301743 919.686401,93.497559 909.997559,93.077782 
	C901.015076,92.688591 891.998596,93.155136 883.004333,92.941605 
	C877.484375,92.810562 871.805725,91.313507 869.231934,86.188812 
	C864.543213,76.853065 865.537048,64.206520 877.212646,58.461098 
	C894.235352,50.084476 912.320862,52.233288 930.145203,54.746578 
	C939.522827,56.068867 948.682800,58.934864 957.845947,61.081512 
	C957.845947,51.888111 957.845947,42.579716 957.845947,33.454697 
	C956.129700,32.942833 954.635376,32.310211 953.079834,32.062679 
	C940.128052,30.001690 927.221558,27.059711 914.188416,26.284748 
	C902.603394,25.595896 890.773987,26.609100 879.237000,28.205072 
	C867.839600,29.781729 857.000305,34.023300 848.456177,42.149960 
	C835.386719,54.580883 834.572021,70.665215 836.679077,87.090355 
	C837.349487,92.316635 839.280090,97.769875 842.028076,102.267555 
	C850.011108,115.333504 862.840637,120.250183 877.470337,120.938713 
	C890.697266,121.561226 903.975525,121.264595 917.179199,122.148605 
	C925.317322,122.693459 933.192932,127.487724 933.050232,138.883667 
	C932.978027,144.644073 931.257629,149.625717 927.005615,154.490097 
M1080.970581,88.681503 
	C1075.675415,80.582138 1067.877441,75.927147 1058.949463,72.990929 
	C1046.052612,68.749443 1032.743408,68.755753 1019.672607,71.162819 
	C1002.264343,74.368652 989.592163,83.625008 983.754517,101.415985 
	C979.005615,115.889023 979.025330,130.471085 981.195801,145.052902 
	C983.328796,159.382965 990.495728,171.328217 1002.893005,179.306824 
	C1013.001709,185.812485 1024.676392,188.189468 1036.432861,188.859833 
	C1051.987671,189.746796 1067.514648,188.545593 1082.707153,185.659912 
	C1082.707153,177.258835 1082.707153,169.172531 1082.707153,161.153259 
	C1076.597046,161.800888 1070.763916,162.353851 1064.947754,163.048828 
	C1051.697754,164.632034 1038.508667,165.213959 1025.570190,160.992676 
	C1016.337402,157.980362 1010.400146,149.333221 1011.419067,140.010849 
	C1037.139648,140.010849 1062.904175,140.010849 1088.949829,140.010849 
	C1089.328613,137.146301 1089.992554,134.600952 1089.938354,132.070969 
	C1089.776367,124.487251 1090.244507,116.722290 1088.735840,109.383896 
	C1087.319336,102.493889 1083.697998,96.057152 1080.970581,88.681503 
M1291.323120,178.984802 
	C1293.283691,177.593704 1295.244263,176.202606 1298.010376,174.239990 
	C1299.279053,179.586243 1300.395508,184.290833 1301.460449,188.778259 
	C1309.743774,188.778259 1317.688354,188.778259 1325.769409,188.778259 
	C1325.769409,149.156052 1325.769409,109.755974 1325.769409,70.243179 
	C1315.468262,70.243179 1305.399658,70.243179 1295.000000,70.243179 
	C1295.000000,72.113487 1295.000000,73.744987 1295.000000,75.376488 
	C1295.000000,99.874329 1295.060059,124.372620 1294.877808,148.869110 
	C1294.864258,150.689148 1293.565308,153.109253 1292.088257,154.204651 
	C1285.172241,159.334061 1277.292358,162.413666 1268.817749,163.977722 
	C1262.220825,165.195282 1252.851807,160.888107 1251.232300,155.334198 
	C1250.024170,151.190903 1249.135742,146.791779 1249.096436,142.497482 
	C1248.890137,120.001358 1249.000000,97.502335 1249.000000,75.004318 
	C1249.000000,73.407715 1249.000000,71.811119 1249.000000,70.305267 
	C1238.329590,70.305267 1228.258667,70.305267 1217.994873,70.305267 
	C1217.994873,90.756317 1217.782593,110.906128 1218.084839,131.048218 
	C1218.234863,141.046204 1218.631714,151.137375 1220.147949,160.997086 
	C1222.987915,179.466293 1235.020996,187.944992 1252.054077,188.935532 
	C1265.855469,189.738144 1278.676025,186.041290 1291.323120,178.984802 
M466.971680,176.613556 
	C469.643127,173.151382 472.749969,169.938431 474.901978,166.178925 
	C480.679871,156.084900 480.929138,144.789185 479.812408,133.753845 
	C478.616974,121.940636 473.276978,111.717888 462.735291,105.356285 
	C454.460205,100.362488 445.073578,98.449646 435.481201,98.041237 
	C423.586151,97.534790 411.649689,97.727608 399.784943,96.871735 
	C390.212372,96.181190 381.442780,92.484787 378.147614,75.495987 
	C376.680908,67.934135 381.489227,56.858433 388.525665,51.863029 
	C394.521881,47.606113 400.976227,44.992218 408.305511,45.026299 
	C420.914795,45.084930 433.605133,44.567959 446.105164,45.834789 
	C455.807648,46.818104 465.272003,50.151497 475.008514,52.480083 
	C475.008514,46.940174 475.179626,41.276505 474.876648,35.638302 
	C474.809021,34.380192 473.238190,32.351952 472.084869,32.134506 
	C460.324951,29.917212 448.570862,26.994986 436.691528,26.255426 
	C421.801849,25.328453 406.737457,25.101309 392.008423,28.971172 
	C377.834412,32.695198 366.147919,39.289417 359.816711,53.502216 
	C355.650360,62.855194 356.422424,72.613388 357.274628,82.036385 
	C358.439850,94.920685 365.113220,104.996307 377.191589,111.095100 
	C385.196136,115.136879 393.772736,116.414825 402.415741,116.871986 
	C412.715393,117.416779 423.119659,116.340118 433.380096,117.175606 
	C444.818878,118.107025 455.134521,121.981682 457.502106,135.284714 
	C459.719971,147.746353 457.863495,160.439102 443.416565,167.128723 
	C427.127899,174.671158 410.046326,172.501816 393.220581,170.435226 
	C382.769714,169.151642 372.553314,165.958511 362.001038,163.570251 
	C362.001038,169.046158 361.830200,174.864929 362.144348,180.657425 
	C362.207581,181.823639 363.946991,183.589615 365.194122,183.881805 
	C370.692169,185.169983 376.293671,186.015656 381.856201,187.029800 
	C398.407532,190.047424 414.987427,190.790939 431.803467,189.149170 
	C444.466156,187.912888 456.026733,184.451126 466.971680,176.613556 
M711.000305,188.500000 
	C711.000305,204.592819 711.000305,220.685638 711.000305,236.693787 
	C718.331360,236.693787 725.067993,236.693787 732.163208,236.693787 
	C732.163208,218.978333 732.163208,201.566757 732.163208,183.910706 
	C733.355103,184.126999 734.192871,184.146088 734.926758,184.431870 
	C749.043396,189.928818 763.488586,190.189209 778.085754,186.968811 
	C787.375549,184.919296 796.034485,180.964584 802.397217,173.944748 
	C813.210266,162.014999 816.531494,147.052780 816.916382,131.413773 
	C817.082153,124.679672 816.868347,117.842110 815.862976,111.197426 
	C814.640442,103.118088 812.120605,95.261337 807.048767,88.613991 
	C797.469055,76.058594 783.883972,71.002327 768.878418,70.152153 
	C749.528625,69.055870 730.223206,70.396866 711.000305,74.502136 
	C711.000305,112.220253 711.000305,149.860123 711.000305,188.500000 
M626.104980,169.621750 
	C607.646484,165.589096 597.823669,149.878510 600.609741,136.000397 
	C602.192078,136.000397 603.832336,136.000412 605.472534,136.000412 
	C629.632446,136.000412 653.792358,136.000931 677.952271,135.999588 
	C680.440796,135.999451 683.195618,136.527695 683.020447,132.496384 
	C682.620605,123.291481 682.999756,113.997948 681.854980,104.892235 
	C679.834473,88.821266 670.481750,78.243317 655.184937,72.996582 
	C642.279724,68.570160 629.001831,69.085571 615.884399,71.187508 
	C607.452148,72.538712 599.658325,76.232834 593.237122,82.246376 
	C582.617676,92.191605 578.966064,105.159599 578.152466,118.967407 
	C577.659668,127.330330 578.137878,135.844955 579.135315,144.177048 
	C580.352844,154.347794 583.852661,163.730896 591.007324,171.594223 
	C602.339966,184.049423 617.191223,188.151443 632.998901,188.781281 
	C644.446350,189.237396 656.006165,187.997177 667.457581,186.903564 
	C678.038147,185.893127 678.004028,185.535736 678.004028,175.069077 
	C678.004028,172.441956 678.004028,169.814819 678.004028,166.864182 
	C676.063354,167.067520 674.616394,167.187073 673.178406,167.375046 
	C663.998047,168.575134 654.849060,170.211563 645.630493,170.852966 
	C639.439087,171.283783 633.150208,170.312500 626.104980,169.621750 
M1141.502686,107.047783 
	C1143.346802,105.041153 1144.963501,102.746254 1147.075806,101.079613 
	C1154.754028,95.021729 1164.059204,93.897934 1173.255005,94.187134 
	C1182.097900,94.465225 1190.892334,96.287781 1199.834229,97.448074 
	C1199.834229,89.643494 1199.834229,81.520691 1199.834229,73.009323 
	C1197.051880,72.633591 1194.326050,72.419380 1191.665649,71.880882 
	C1176.171997,68.744743 1160.610962,68.896263 1145.257446,72.130203 
	C1126.148560,76.155121 1113.013672,87.353165 1107.797974,106.659309 
	C1104.389160,119.277748 1104.479004,131.966965 1106.903809,144.852203 
	C1110.692017,164.982056 1121.210327,178.918121 1141.229980,185.072159 
	C1160.806519,191.089996 1180.353027,189.444763 1199.831909,185.601913 
	C1199.831909,177.291290 1199.831909,169.324036 1199.831909,160.939163 
	C1194.403442,161.820923 1189.221924,163.056046 1183.980103,163.417801 
	C1176.887573,163.907257 1169.608276,164.624481 1162.675293,163.540955 
	C1157.398193,162.716263 1151.996704,159.985764 1147.589478,156.803070 
	C1134.340210,147.235031 1132.810669,120.266258 1141.502686,107.047783 
M1511.533569,62.011658 
	C1510.557739,58.342754 1509.581909,54.673855 1508.661499,51.213509 
	C1500.937134,51.213509 1493.661987,51.213509 1486.453247,51.213509 
	C1486.261353,51.710686 1486.050537,52.001923 1486.050293,52.293297 
	C1486.023560,89.271332 1485.678223,126.254051 1486.196289,163.224670 
	C1486.359131,174.846008 1491.844971,184.829529 1504.113403,187.222672 
	C1516.693481,189.676590 1529.896484,188.937256 1542.648926,189.586456 
	C1542.648926,180.238510 1542.648926,172.168304 1542.648926,163.999557 
	C1538.306763,163.999557 1534.315186,164.000641 1530.323608,163.999329 
	C1521.689087,163.996490 1517.005981,159.251755 1517.004272,150.477203 
	C1517.001099,133.487137 1517.009644,116.497063 1517.013062,99.506989 
	C1517.013428,97.742950 1517.013062,95.978905 1517.013062,93.804062 
	C1526.002441,93.804062 1534.409058,93.804062 1542.683594,93.804062 
	C1542.683594,85.645523 1542.683594,77.910728 1542.683594,69.960548 
	C1532.741211,69.960548 1523.112671,69.960548 1513.317749,69.960548 
	C1512.845947,67.443398 1512.407104,65.101242 1511.533569,62.011658 
M1353.000000,122.500000 
	C1353.000000,144.588654 1353.000000,166.677307 1353.000000,188.705688 
	C1363.650024,188.705688 1373.718018,188.705688 1384.000366,188.705688 
	C1384.000366,163.610291 1384.194458,138.805878 1383.845459,114.009125 
	C1383.770996,108.707855 1386.102173,105.758850 1389.815674,103.041824 
	C1396.974487,97.804131 1404.785889,94.381729 1413.702637,94.887993 
	C1413.702637,86.294556 1413.702637,78.213646 1413.702637,70.109230 
	C1400.023682,68.945404 1390.069092,76.197922 1380.348389,83.703186 
	C1379.432861,79.788391 1378.686401,75.993149 1377.584595,72.303993 
	C1377.303833,71.363937 1375.912231,70.125107 1375.004395,70.102600 
	C1367.744995,69.922661 1360.479370,70.002098 1353.000000,70.002098 
	C1353.000000,87.558174 1353.000000,104.529083 1353.000000,122.500000 
M522.042908,54.168922 
	C521.454651,53.113094 520.920227,51.182690 520.269409,51.142632 
	C515.872253,50.871986 511.450378,51.001438 506.487244,51.001438 
	C506.998077,89.463608 507.298859,127.184105 508.143433,164.892410 
	C508.349457,174.090591 513.795837,184.961685 525.118164,186.855042 
	C535.836487,188.647369 546.810852,188.908539 557.697571,189.845276 
	C557.697571,182.674652 557.697571,176.939590 557.697571,171.000259 
	C553.418518,171.000259 549.435059,170.867569 545.463074,171.024933 
	C533.144043,171.512939 529.327454,165.911697 529.110168,154.430023 
	C528.719421,133.783279 528.994995,113.123817 529.010376,92.469673 
	C529.011475,91.038071 529.162659,89.606575 529.265686,87.795296 
	C539.021912,87.795296 548.428772,87.795296 557.683289,87.795296 
	C557.683289,81.647850 557.683289,75.909660 557.683289,70.000496 
	C550.387390,70.000496 543.407410,70.000496 536.427368,70.000496 
	C524.768555,70.000496 524.465332,69.720993 522.994812,57.784668 
	C522.877136,56.829006 522.665955,55.884872 522.042908,54.168922 
M1460.000000,40.490814 
	C1460.000000,36.059818 1460.000000,31.628826 1460.000000,27.303493 
	C1449.320557,27.303493 1439.248779,27.303493 1429.268066,27.303493 
	C1429.268066,35.684319 1429.268066,43.759506 1429.268066,51.708172 
	C1439.632812,51.708172 1449.707764,51.708172 1460.000000,51.708172 
	C1460.000000,48.104408 1460.000000,44.792934 1460.000000,40.490814 
z"/>
<path fill="#FFFFFF" opacity="1.000000" stroke="none" 
	d="
M1.000000,48.000000 
	C1.000000,32.388809 1.000000,16.777618 1.000000,1.000000 
	C26.353985,1.000000 51.708336,1.000000 77.437683,1.311887 
	C77.196815,1.805672 76.580963,1.987570 75.549561,2.097829 
	C73.732674,2.075174 72.331322,2.124157 70.564644,2.100670 
	C69.107338,2.334599 68.015366,2.641001 66.683540,2.978280 
	C66.443695,3.009159 65.984871,3.165855 65.564484,3.281737 
	C65.096207,21.365086 65.030823,39.332569 65.046249,57.299984 
	C65.047119,58.318829 65.710670,59.337105 66.136032,60.581642 
	C66.206261,60.807632 66.641335,60.997864 66.641335,60.997864 
	C66.641335,60.997864 67.092804,60.850433 67.404404,60.915714 
	C68.134735,60.934021 68.553467,60.887047 69.437065,60.913818 
	C75.921326,60.941944 81.940712,60.896320 88.385361,60.901123 
	C94.206573,60.579208 99.602539,60.206860 105.460526,59.906361 
	C118.714592,59.985706 131.508301,59.865910 144.298203,60.034931 
	C158.308960,60.220093 172.316360,60.664818 186.324310,61.031467 
	C186.929642,61.047314 187.525818,61.414131 188.040527,61.972923 
	C187.684753,65.539055 187.414688,68.749718 187.082214,72.404633 
	C186.663742,77.101624 186.637360,81.412796 185.895798,85.597229 
	C182.247009,106.186371 176.331909,125.961334 166.227676,144.496841 
	C155.164764,164.791016 141.196518,182.498657 123.088196,196.746582 
	C119.632866,193.584274 116.337296,190.733887 112.911026,187.575378 
	C107.533974,181.021790 102.144928,174.889893 97.068085,168.509552 
	C81.989944,149.560120 71.587547,128.184265 66.178154,104.668922 
	C63.450977,92.813515 62.210915,80.550743 61.156357,68.397728 
	C60.394993,59.623589 59.719658,50.470737 61.362621,41.940708 
	C64.290573,26.739180 56.881886,12.560277 43.130810,6.990814 
	C24.608597,-0.511058 3.781245,13.277346 2.933306,32.735081 
	C2.710764,37.841774 1.666760,42.912666 1.000000,48.000000 
z"/>
<path fill="#6340F6" opacity="1.000000" stroke="none" 
	d="
M123.247955,197.058517 
	C141.196518,182.498657 155.164764,164.791016 166.227676,144.496841 
	C176.331909,125.961334 182.247009,106.186371 185.895798,85.597229 
	C186.637360,81.412796 186.663742,77.101624 187.336517,72.134995 
	C187.894043,69.812424 188.134888,68.203735 188.436768,66.187325 
	C190.232254,66.719559 191.787186,67.129181 193.308411,67.639275 
	C210.582260,73.431435 227.850952,79.238960 245.121033,85.042374 
	C243.828598,107.915649 237.463943,129.537674 229.095276,150.695663 
	C221.255966,170.515320 210.882034,189.023499 197.588974,205.512650 
	C187.698898,217.780640 176.166306,228.828369 164.616302,239.617844 
	C156.892273,246.833298 147.948517,252.772339 139.342346,258.994598 
	C137.058289,260.645966 134.005554,261.234131 131.152878,262.655243 
	C126.643097,263.000000 122.286201,263.000000 117.310699,262.654419 
	C106.145958,260.023376 99.897934,253.128265 95.948723,243.466034 
	C93.005501,236.265030 94.865730,229.195068 95.930008,221.745758 
	C97.541771,219.480896 98.989288,217.524139 100.452515,215.506317 
	C100.468216,215.445236 100.498070,215.322693 100.708794,215.218994 
	C101.079369,214.840439 101.183617,214.545853 101.525452,214.067230 
	C102.958008,212.943970 104.067818,211.947144 105.241661,211.032486 
	C111.234673,206.362823 117.244202,201.714386 123.247955,197.058517 
z"/>
<path fill="#FD4030" opacity="1.000000" stroke="none" 
	d="
M1.000000,48.468655 
	C1.666760,42.912666 2.710764,37.841774 2.933306,32.735081 
	C3.781245,13.277346 24.608597,-0.511058 43.130810,6.990814 
	C56.881886,12.560277 64.290573,26.739180 61.362621,41.940708 
	C59.719658,50.470737 60.394993,59.623589 61.156357,68.397728 
	C62.210915,80.550743 63.450977,92.813515 66.178154,104.668922 
	C71.587547,128.184265 81.989944,149.560120 97.068085,168.509552 
	C102.144928,174.889893 107.533974,181.021790 112.895691,187.952820 
	C111.762245,190.232605 110.814461,192.273178 109.217033,193.350449 
	C96.337112,202.036499 83.376190,210.605194 70.322777,219.028046 
	C68.497223,220.206024 66.034111,220.395935 63.558029,220.913300 
	C60.045315,217.239853 56.593906,213.887375 53.677597,210.120590 
	C38.912331,191.049362 26.298567,170.693390 17.556116,148.109467 
	C10.205184,129.120178 4.877928,109.624756 2.963111,89.272850 
	C2.513675,84.495956 1.665000,79.756615 1.000000,75.000000 
	C1.000000,66.312439 1.000000,57.624874 1.000000,48.468655 
z"/>
<path fill="#07242D" opacity="1.000000" stroke="none" 
	d="
M1671.000000,71.666672 
	C1667.344116,80.298080 1663.503906,88.520699 1660.069946,96.909645 
	C1652.616211,115.118217 1645.345703,133.401962 1638.046631,151.673523 
	C1631.931274,166.982117 1626.559570,182.632004 1619.621704,197.555740 
	C1612.026855,213.892868 1600.550049,227.291229 1584.285889,235.957443 
	C1582.875244,236.709076 1581.389526,237.319809 1579.229492,238.326462 
	C1574.325195,231.363251 1569.367920,224.324905 1564.179932,216.958847 
	C1576.877930,211.846527 1585.421509,203.142670 1591.832764,192.231201 
	C1592.668457,190.809158 1592.833252,188.391479 1592.251099,186.829285 
	C1584.984253,167.331451 1577.518921,147.907608 1570.110352,128.462555 
	C1564.074707,112.620651 1558.033691,96.780746 1552.025513,80.928429 
	C1550.719482,77.482574 1549.544312,73.987213 1548.126221,70.001373 
	C1558.521973,70.001373 1568.567261,69.913582 1578.606445,70.123024 
	C1579.740479,70.146667 1581.441406,71.630043 1581.862671,72.802017 
	C1586.682861,86.212799 1591.320679,99.689346 1595.977051,113.158768 
	C1600.370239,125.867226 1604.719238,138.591034 1609.128296,151.293991 
	C1609.325806,151.863251 1609.925903,152.292831 1610.407471,152.870163 
	C1618.633179,128.807739 1626.799561,104.920563 1634.960938,81.031639 
	C1635.218750,80.276932 1635.514771,79.518555 1635.638672,78.737404 
	C1636.890747,70.845444 1641.698486,69.074921 1649.089355,69.845970 
	C1656.010498,70.568016 1663.066284,70.000137 1670.531372,69.999962 
	C1671.000000,70.444443 1671.000000,70.888893 1671.000000,71.666672 
z"/>
<path fill="#10D174" opacity="1.000000" stroke="none" 
	d="
M188.126251,61.617458 
	C187.525818,61.414131 186.929642,61.047314 186.324310,61.031467 
	C172.316360,60.664818 158.308960,60.220093 144.298203,60.034931 
	C131.508301,59.865910 118.714592,59.985706 105.448944,59.494125 
	C104.650322,57.059284 104.017731,55.103577 104.049026,53.158546 
	C104.297371,37.721352 104.660995,22.285915 105.036232,6.851080 
	C105.057663,5.969423 105.490852,5.097776 106.051140,3.065214 
	C111.945267,9.991917 106.379433,18.476751 111.469849,24.454899 
	C111.979897,16.636600 112.489952,8.818300 113.000000,1.000000 
	C133.354233,1.000000 153.708450,1.000000 174.531342,1.000000 
	C176.000549,1.333262 176.991226,1.921209 178.003174,1.960438 
	C188.259811,2.358040 198.533478,2.441519 208.775482,3.058811 
	C220.292786,3.752965 231.059052,6.208985 237.748642,17.181885 
	C247.558960,33.273705 241.107300,56.737469 220.681244,61.848434 
	C215.974594,63.026127 210.885681,62.676083 205.091965,63.004097 
	C199.837357,62.685066 195.463455,62.391026 190.722061,62.021362 
	C189.611801,61.836315 188.869019,61.726887 188.126251,61.617458 
z"/>
<path fill="#FFFFFF" opacity="1.000000" stroke="none" 
	d="
M1.000000,75.468658 
	C1.665000,79.756615 2.513675,84.495956 2.963111,89.272850 
	C4.877928,109.624756 10.205184,129.120178 17.556116,148.109467 
	C26.298567,170.693390 38.912331,191.049362 53.677597,210.120590 
	C56.593906,213.887375 60.045315,217.239853 63.701519,221.219589 
	C67.391449,224.785904 70.629799,227.916000 74.020966,231.396332 
	C76.378716,231.764053 79.016029,232.574310 80.708046,231.651428 
	C85.921310,228.807983 90.773361,225.302277 95.765755,222.053879 
	C94.865730,229.195068 93.005501,236.265030 95.948723,243.466034 
	C99.897934,253.128265 106.145958,260.023376 116.846046,262.654419 
	C78.389038,263.000000 39.778080,263.000000 1.000000,263.000000 
	C1.000000,200.645874 1.000000,138.291595 1.000000,75.468658 
z"/>
<path fill="#0ECE72" opacity="1.000000" stroke="none" 
	d="
M112.531342,1.000000 
	C112.489952,8.818300 111.979897,16.636600 111.469849,24.454899 
	C106.379433,18.476751 111.945267,9.991917 106.051140,3.065214 
	C105.490852,5.097776 105.057663,5.969423 105.036232,6.851080 
	C104.660995,22.285915 104.297371,37.721352 104.049026,53.158546 
	C104.017731,55.103577 104.650322,57.059284 104.986908,59.422279 
	C99.602539,60.206860 94.206573,60.579208 88.077248,60.631756 
	C85.027084,60.206779 82.669067,59.776962 80.402161,60.064747 
	C75.835152,60.644524 74.832687,58.732052 74.900932,54.440029 
	C75.147141,38.955406 74.964447,23.464329 75.041199,7.976173 
	C75.050789,6.039126 75.642899,4.104966 75.965103,2.169468 
	C76.580963,1.987570 77.196815,1.805672 77.906342,1.311887 
	C89.354225,1.000000 100.708458,1.000000 112.531342,1.000000 
z"/>
<path fill="#07242D" opacity="1.000000" stroke="none" 
	d="
M927.275513,154.229996 
	C931.257629,149.625717 932.978027,144.644073 933.050232,138.883667 
	C933.192932,127.487724 925.317322,122.693459 917.179199,122.148605 
	C903.975525,121.264595 890.697266,121.561226 877.470337,120.938713 
	C862.840637,120.250183 850.011108,115.333504 842.028076,102.267555 
	C839.280090,97.769875 837.349487,92.316635 836.679077,87.090355 
	C834.572021,70.665215 835.386719,54.580883 848.456177,42.149960 
	C857.000305,34.023300 867.839600,29.781729 879.237000,28.205072 
	C890.773987,26.609100 902.603394,25.595896 914.188416,26.284748 
	C927.221558,27.059711 940.128052,30.001690 953.079834,32.062679 
	C954.635376,32.310211 956.129700,32.942833 957.845947,33.454697 
	C957.845947,42.579716 957.845947,51.888111 957.845947,61.081512 
	C948.682800,58.934864 939.522827,56.068867 930.145203,54.746578 
	C912.320862,52.233288 894.235352,50.084476 877.212646,58.461098 
	C865.537048,64.206520 864.543213,76.853065 869.231934,86.188812 
	C871.805725,91.313507 877.484375,92.810562 883.004333,92.941605 
	C891.998596,93.155136 901.015076,92.688591 909.997559,93.077782 
	C919.686401,93.497559 929.261475,94.301743 938.635193,97.768806 
	C952.416077,102.865929 960.054871,112.633278 962.920105,126.465363 
	C965.033813,136.669174 964.755249,147.048370 961.505310,156.959030 
	C956.388733,172.562012 944.851135,181.525055 929.443176,185.997177 
	C914.564392,190.315689 899.231079,191.085083 884.039795,189.759933 
	C870.890442,188.612915 857.936768,185.285126 844.871094,183.071472 
	C841.864807,182.562149 840.847656,181.274414 840.926758,178.207825 
	C841.132690,170.225662 840.995972,162.234680 840.995972,154.632095 
	C851.501038,156.975403 861.720398,160.068192 872.164185,161.399277 
	C888.990173,163.543777 906.063171,165.725418 922.271057,157.901077 
	C923.996094,157.068298 925.434326,155.641403 927.275513,154.229996 
z"/>
<path fill="#07242D" opacity="1.000000" stroke="none" 
	d="
M1081.008789,89.051239 
	C1083.697998,96.057152 1087.319336,102.493889 1088.735840,109.383896 
	C1090.244507,116.722290 1089.776367,124.487251 1089.938354,132.070969 
	C1089.992554,134.600952 1089.328613,137.146301 1088.949829,140.010849 
	C1062.904175,140.010849 1037.139648,140.010849 1011.419067,140.010849 
	C1010.400146,149.333221 1016.337402,157.980362 1025.570190,160.992676 
	C1038.508667,165.213959 1051.697754,164.632034 1064.947754,163.048828 
	C1070.763916,162.353851 1076.597046,161.800888 1082.707153,161.153259 
	C1082.707153,169.172531 1082.707153,177.258835 1082.707153,185.659912 
	C1067.514648,188.545593 1051.987671,189.746796 1036.432861,188.859833 
	C1024.676392,188.189468 1013.001709,185.812485 1002.893005,179.306824 
	C990.495728,171.328217 983.328796,159.382965 981.195801,145.052902 
	C979.025330,130.471085 979.005615,115.889023 983.754517,101.415985 
	C989.592163,83.625008 1002.264343,74.368652 1019.672607,71.162819 
	C1032.743408,68.755753 1046.052612,68.749443 1058.949463,72.990929 
	C1067.877441,75.927147 1075.675415,80.582138 1081.008789,89.051239 
M1045.495605,119.000404 
	C1050.275024,119.000404 1055.054443,119.000404 1060.141113,119.000404 
	C1059.606567,110.334610 1058.741455,102.587463 1050.588867,97.958107 
	C1040.314453,92.123795 1029.800781,92.340965 1020.303772,98.574699 
	C1013.652832,102.940376 1010.883789,110.462105 1011.074402,119.000404 
	C1022.543213,119.000404 1033.519897,119.000404 1045.495605,119.000404 
z"/>
<path fill="#07242D" opacity="1.000000" stroke="none" 
	d="
M1290.944092,179.017639 
	C1278.676025,186.041290 1265.855469,189.738144 1252.054077,188.935532 
	C1235.020996,187.944992 1222.987915,179.466293 1220.147949,160.997086 
	C1218.631714,151.137375 1218.234863,141.046204 1218.084839,131.048218 
	C1217.782593,110.906128 1217.994873,90.756317 1217.994873,70.305267 
	C1228.258667,70.305267 1238.329590,70.305267 1249.000000,70.305267 
	C1249.000000,71.811119 1249.000000,73.407715 1249.000000,75.004318 
	C1249.000000,97.502335 1248.890137,120.001358 1249.096436,142.497482 
	C1249.135742,146.791779 1250.024170,151.190903 1251.232300,155.334198 
	C1252.851807,160.888107 1262.220825,165.195282 1268.817749,163.977722 
	C1277.292358,162.413666 1285.172241,159.334061 1292.088257,154.204651 
	C1293.565308,153.109253 1294.864258,150.689148 1294.877808,148.869110 
	C1295.060059,124.372620 1295.000000,99.874329 1295.000000,75.376488 
	C1295.000000,73.744987 1295.000000,72.113487 1295.000000,70.243179 
	C1305.399658,70.243179 1315.468262,70.243179 1325.769409,70.243179 
	C1325.769409,109.755974 1325.769409,149.156052 1325.769409,188.778259 
	C1317.688354,188.778259 1309.743774,188.778259 1301.460449,188.778259 
	C1300.395508,184.290833 1299.279053,179.586243 1298.010376,174.239990 
	C1295.244263,176.202606 1293.283691,177.593704 1290.944092,179.017639 
z"/>
<path fill="#07242D" opacity="1.000000" stroke="none" 
	d="
M466.662598,176.812042 
	C456.026733,184.451126 444.466156,187.912888 431.803467,189.149170 
	C414.987427,190.790939 398.407532,190.047424 381.856201,187.029800 
	C376.293671,186.015656 370.692169,185.169983 365.194122,183.881805 
	C363.946991,183.589615 362.207581,181.823639 362.144348,180.657425 
	C361.830200,174.864929 362.001038,169.046158 362.001038,163.570251 
	C372.553314,165.958511 382.769714,169.151642 393.220581,170.435226 
	C410.046326,172.501816 427.127899,174.671158 443.416565,167.128723 
	C457.863495,160.439102 459.719971,147.746353 457.502106,135.284714 
	C455.134521,121.981682 444.818878,118.107025 433.380096,117.175606 
	C423.119659,116.340118 412.715393,117.416779 402.415741,116.871986 
	C393.772736,116.414825 385.196136,115.136879 377.191589,111.095100 
	C365.113220,104.996307 358.439850,94.920685 357.274628,82.036385 
	C356.422424,72.613388 355.650360,62.855194 359.816711,53.502216 
	C366.147919,39.289417 377.834412,32.695198 392.008423,28.971172 
	C406.737457,25.101309 421.801849,25.328453 436.691528,26.255426 
	C448.570862,26.994986 460.324951,29.917212 472.084869,32.134506 
	C473.238190,32.351952 474.809021,34.380192 474.876648,35.638302 
	C475.179626,41.276505 475.008514,46.940174 475.008514,52.480083 
	C465.272003,50.151497 455.807648,46.818104 446.105164,45.834789 
	C433.605133,44.567959 420.914795,45.084930 408.305511,45.026299 
	C400.976227,44.992218 394.521881,47.606113 388.525665,51.863029 
	C381.489227,56.858433 376.680908,67.934135 378.147614,75.495987 
	C381.442780,92.484787 390.212372,96.181190 399.784943,96.871735 
	C411.649689,97.727608 423.586151,97.534790 435.481201,98.041237 
	C445.073578,98.449646 454.460205,100.362488 462.735291,105.356285 
	C473.276978,111.717888 478.616974,121.940636 479.812408,133.753845 
	C480.929138,144.789185 480.679871,156.084900 474.901978,166.178925 
	C472.749969,169.938431 469.643127,173.151382 466.662598,176.812042 
z"/>
<path fill="#07242D" opacity="1.000000" stroke="none" 
	d="
M711.000305,188.000000 
	C711.000305,149.860123 711.000305,112.220253 711.000305,74.502136 
	C730.223206,70.396866 749.528625,69.055870 768.878418,70.152153 
	C783.883972,71.002327 797.469055,76.058594 807.048767,88.613991 
	C812.120605,95.261337 814.640442,103.118088 815.862976,111.197426 
	C816.868347,117.842110 817.082153,124.679672 816.916382,131.413773 
	C816.531494,147.052780 813.210266,162.014999 802.397217,173.944748 
	C796.034485,180.964584 787.375549,184.919296 778.085754,186.968811 
	C763.488586,190.189209 749.043396,189.928818 734.926758,184.431870 
	C734.192871,184.146088 733.355103,184.126999 732.163208,183.910706 
	C732.163208,201.566757 732.163208,218.978333 732.163208,236.693787 
	C725.067993,236.693787 718.331360,236.693787 711.000305,236.693787 
	C711.000305,220.685638 711.000305,204.592819 711.000305,188.000000 
M731.999695,100.556656 
	C731.999695,119.887680 732.202637,139.222397 731.851074,158.547028 
	C731.767456,163.140320 733.672913,164.846939 737.395813,166.001099 
	C747.069397,169.000061 756.658630,171.018234 767.029663,169.149841 
	C779.542847,166.895538 787.568726,160.224655 792.043823,148.492798 
	C795.974792,138.187408 795.471191,127.509926 794.768555,116.958145 
	C794.442749,112.065659 792.307129,106.978294 789.870300,102.604126 
	C783.867493,91.828972 773.382507,88.543335 761.939392,88.109261 
	C755.049316,87.847893 748.105957,88.508072 741.208679,89.041183 
	C731.990479,89.753693 731.999695,89.873253 731.999695,100.556656 
z"/>
<path fill="#07242D" opacity="1.000000" stroke="none" 
	d="
M626.504944,169.795135 
	C633.150208,170.312500 639.439087,171.283783 645.630493,170.852966 
	C654.849060,170.211563 663.998047,168.575134 673.178406,167.375046 
	C674.616394,167.187073 676.063354,167.067520 678.004028,166.864182 
	C678.004028,169.814819 678.004028,172.441956 678.004028,175.069077 
	C678.004028,185.535736 678.038147,185.893127 667.457581,186.903564 
	C656.006165,187.997177 644.446350,189.237396 632.998901,188.781281 
	C617.191223,188.151443 602.339966,184.049423 591.007324,171.594223 
	C583.852661,163.730896 580.352844,154.347794 579.135315,144.177048 
	C578.137878,135.844955 577.659668,127.330330 578.152466,118.967407 
	C578.966064,105.159599 582.617676,92.191605 593.237122,82.246376 
	C599.658325,76.232834 607.452148,72.538712 615.884399,71.187508 
	C629.001831,69.085571 642.279724,68.570160 655.184937,72.996582 
	C670.481750,78.243317 679.834473,88.821266 681.854980,104.892235 
	C682.999756,113.997948 682.620605,123.291481 683.020447,132.496384 
	C683.195618,136.527695 680.440796,135.999451 677.952271,135.999588 
	C653.792358,136.000931 629.632446,136.000412 605.472534,136.000412 
	C603.832336,136.000412 602.192078,136.000397 600.609741,136.000397 
	C597.823669,149.878510 607.646484,165.589096 626.504944,169.795135 
M661.972534,109.975182 
	C661.653687,109.239471 661.246338,108.528831 661.029663,107.764153 
	C658.943909,100.402626 655.753906,94.048615 648.202454,90.593559 
	C640.514587,87.076111 632.691650,86.956718 624.536133,87.947426 
	C610.702881,89.627838 599.290100,102.242905 600.294983,116.671951 
	C620.829102,116.671951 641.369934,116.671951 661.998230,116.671951 
	C661.998230,114.527519 661.998230,112.697227 661.972534,109.975182 
z"/>
<path fill="#07242D" opacity="1.000000" stroke="none" 
	d="
M1141.227539,107.312698 
	C1132.810669,120.266258 1134.340210,147.235031 1147.589478,156.803070 
	C1151.996704,159.985764 1157.398193,162.716263 1162.675293,163.540955 
	C1169.608276,164.624481 1176.887573,163.907257 1183.980103,163.417801 
	C1189.221924,163.056046 1194.403442,161.820923 1199.831909,160.939163 
	C1199.831909,169.324036 1199.831909,177.291290 1199.831909,185.601913 
	C1180.353027,189.444763 1160.806519,191.089996 1141.229980,185.072159 
	C1121.210327,178.918121 1110.692017,164.982056 1106.903809,144.852203 
	C1104.479004,131.966965 1104.389160,119.277748 1107.797974,106.659309 
	C1113.013672,87.353165 1126.148560,76.155121 1145.257446,72.130203 
	C1160.610962,68.896263 1176.171997,68.744743 1191.665649,71.880882 
	C1194.326050,72.419380 1197.051880,72.633591 1199.834229,73.009323 
	C1199.834229,81.520691 1199.834229,89.643494 1199.834229,97.448074 
	C1190.892334,96.287781 1182.097900,94.465225 1173.255005,94.187134 
	C1164.059204,93.897934 1154.754028,95.021729 1147.075806,101.079613 
	C1144.963501,102.746254 1143.346802,105.041153 1141.227539,107.312698 
z"/>
<path fill="#07242D" opacity="1.000000" stroke="none" 
	d="
M1511.750854,62.385372 
	C1512.407104,65.101242 1512.845947,67.443398 1513.317749,69.960548 
	C1523.112671,69.960548 1532.741211,69.960548 1542.683594,69.960548 
	C1542.683594,77.910728 1542.683594,85.645523 1542.683594,93.804062 
	C1534.409058,93.804062 1526.002441,93.804062 1517.013062,93.804062 
	C1517.013062,95.978905 1517.013428,97.742950 1517.013062,99.506989 
	C1517.009644,116.497063 1517.001099,133.487137 1517.004272,150.477203 
	C1517.005981,159.251755 1521.689087,163.996490 1530.323608,163.999329 
	C1534.315186,164.000641 1538.306763,163.999557 1542.648926,163.999557 
	C1542.648926,172.168304 1542.648926,180.238510 1542.648926,189.586456 
	C1529.896484,188.937256 1516.693481,189.676590 1504.113403,187.222672 
	C1491.844971,184.829529 1486.359131,174.846008 1486.196289,163.224670 
	C1485.678223,126.254051 1486.023560,89.271332 1486.050293,52.293297 
	C1486.050537,52.001923 1486.261353,51.710686 1486.453247,51.213509 
	C1493.661987,51.213509 1500.937134,51.213509 1508.661499,51.213509 
	C1509.581909,54.673855 1510.557739,58.342754 1511.750854,62.385372 
z"/>
<path fill="#07242D" opacity="1.000000" stroke="none" 
	d="
M1353.000000,122.000000 
	C1353.000000,104.529083 1353.000000,87.558174 1353.000000,70.002098 
	C1360.479370,70.002098 1367.744995,69.922661 1375.004395,70.102600 
	C1375.912231,70.125107 1377.303833,71.363937 1377.584595,72.303993 
	C1378.686401,75.993149 1379.432861,79.788391 1380.348389,83.703186 
	C1390.069092,76.197922 1400.023682,68.945404 1413.702637,70.109230 
	C1413.702637,78.213646 1413.702637,86.294556 1413.702637,94.887993 
	C1404.785889,94.381729 1396.974487,97.804131 1389.815674,103.041824 
	C1386.102173,105.758850 1383.770996,108.707855 1383.845459,114.009125 
	C1384.194458,138.805878 1384.000366,163.610291 1384.000366,188.705688 
	C1373.718018,188.705688 1363.650024,188.705688 1353.000000,188.705688 
	C1353.000000,166.677307 1353.000000,144.588654 1353.000000,122.000000 
z"/>
<path fill="#07242D" opacity="1.000000" stroke="none" 
	d="
M522.270508,54.552155 
	C522.665955,55.884872 522.877136,56.829006 522.994812,57.784668 
	C524.465332,69.720993 524.768555,70.000496 536.427368,70.000496 
	C543.407410,70.000496 550.387390,70.000496 557.683289,70.000496 
	C557.683289,75.909660 557.683289,81.647850 557.683289,87.795296 
	C548.428772,87.795296 539.021912,87.795296 529.265686,87.795296 
	C529.162659,89.606575 529.011475,91.038071 529.010376,92.469673 
	C528.994995,113.123817 528.719421,133.783279 529.110168,154.430023 
	C529.327454,165.911697 533.144043,171.512939 545.463074,171.024933 
	C549.435059,170.867569 553.418518,171.000259 557.697571,171.000259 
	C557.697571,176.939590 557.697571,182.674652 557.697571,189.845276 
	C546.810852,188.908539 535.836487,188.647369 525.118164,186.855042 
	C513.795837,184.961685 508.349457,174.090591 508.143433,164.892410 
	C507.298859,127.184105 506.998077,89.463608 506.487244,51.001438 
	C511.450378,51.001438 515.872253,50.871986 520.269409,51.142632 
	C520.920227,51.182690 521.454651,53.113094 522.270508,54.552155 
z"/>
<path fill="#07242D" opacity="1.000000" stroke="none" 
	d="
M1429.988037,70.163086 
	C1439.777466,70.163101 1449.566650,70.163101 1459.677979,70.163101 
	C1459.677979,109.620728 1459.677979,149.068466 1459.677979,188.986359 
	C1450.084473,188.986359 1440.497925,188.986359 1430.355591,188.731400 
	C1429.633545,188.248734 1429.416016,188.092712 1429.147217,188.008377 
	C1429.096191,149.639465 1429.045288,111.270561 1429.284668,72.279190 
	C1429.712769,71.158844 1429.850464,70.660957 1429.988037,70.163086 
z"/>
<path fill="#07242D" opacity="1.000000" stroke="none" 
	d="
M1460.000000,40.986137 
	C1460.000000,44.792934 1460.000000,48.104408 1460.000000,51.708172 
	C1449.707764,51.708172 1439.632812,51.708172 1429.268066,51.708172 
	C1429.268066,43.759506 1429.268066,35.684319 1429.268066,27.303493 
	C1439.248779,27.303493 1449.320557,27.303493 1460.000000,27.303493 
	C1460.000000,31.628826 1460.000000,36.059818 1460.000000,40.986137 
z"/>
<path fill="#5A39E9" opacity="1.000000" stroke="none" 
	d="
M188.040527,61.972923 
	C188.869019,61.726887 189.611801,61.836315 190.952927,62.279877 
	C207.557236,67.836838 223.541245,73.128731 239.587769,78.223747 
	C242.765091,79.232590 245.191940,80.575836 245.902878,84.035156 
	C246.002869,84.397652 245.894394,84.680061 245.349243,84.962379 
	C227.850952,79.238960 210.582260,73.431435 193.308411,67.639275 
	C191.787186,67.129181 190.232254,66.719559 188.436768,66.187325 
	C188.134888,68.203735 187.894043,69.812424 187.398911,71.690750 
	C187.414688,68.749718 187.684753,65.539055 188.040527,61.972923 
z"/>
<path fill="#4323C0" opacity="1.000000" stroke="none" 
	d="
M245.978561,83.611267 
	C245.191940,80.575836 242.765091,79.232590 239.587769,78.223747 
	C223.541245,73.128731 207.557236,67.836838 191.320419,62.355499 
	C195.463455,62.391026 199.837357,62.685066 204.634003,63.056595 
	C206.711029,63.884060 208.314468,64.786026 210.027908,65.359222 
	C220.718536,68.935600 231.409958,72.513397 242.153503,75.925804 
	C246.015778,77.152573 246.404373,79.883522 245.978561,83.611267 
z"/>
<path fill="#011426" opacity="1.000000" stroke="none" 
	d="
M1429.668457,70.159775 
	C1429.850464,70.660957 1429.712769,71.158844 1429.364258,71.814789 
	C1429.218506,71.367393 1429.283691,70.761932 1429.668457,70.159775 
z"/>
<path fill="#011426" opacity="1.000000" stroke="none" 
	d="
M1429.105225,188.276794 
	C1429.416016,188.092712 1429.633545,188.248734 1429.890869,188.658386 
	C1429.675781,188.741943 1429.369507,188.643585 1429.105225,188.276794 
z"/>
<path fill="#F23C2B" opacity="1.000000" stroke="none" 
	d="
M73.868149,231.046112 
	C70.629799,227.916000 67.391449,224.785904 64.009613,221.349503 
	C66.034111,220.395935 68.497223,220.206024 70.322777,219.028046 
	C83.376190,210.605194 96.337112,202.036499 109.217033,193.350449 
	C110.814461,192.273178 111.762245,190.232605 113.026390,188.260956 
	C116.337296,190.733887 119.632866,193.584274 123.088196,196.746582 
	C117.244202,201.714386 111.234673,206.362823 105.241661,211.032486 
	C104.067818,211.947144 102.958008,212.943970 101.267410,214.131531 
	C100.643471,214.681030 100.570770,215.001862 100.498070,215.322693 
	C100.498070,215.322693 100.468216,215.445236 100.087753,215.420044 
	C97.578438,216.663452 95.440498,217.917084 93.322426,219.203445 
	C86.833572,223.144241 80.352333,227.097610 73.868149,231.046112 
z"/>
<path fill="#01C868" opacity="1.000000" stroke="none" 
	d="
M75.549561,2.097829 
	C75.642899,4.104966 75.050789,6.039126 75.041199,7.976173 
	C74.964447,23.464329 75.147141,38.955406 74.900932,54.440029 
	C74.832687,58.732052 75.835152,60.644524 80.402161,60.064747 
	C82.669067,59.776962 85.027084,60.206779 87.651993,60.581322 
	C81.940712,60.896320 75.921326,60.941944 69.448341,60.455643 
	C68.999550,43.003719 69.032883,26.083605 68.965668,9.163889 
	C68.958832,7.442739 68.347305,5.723991 68.179108,3.752645 
	C69.204544,3.058487 70.067253,2.615814 70.929970,2.173141 
	C72.331322,2.124157 73.732674,2.075174 75.549561,2.097829 
z"/>
<path fill="#01C041" opacity="1.000000" stroke="none" 
	d="
M70.564644,2.100670 
	C70.067253,2.615814 69.204544,3.058487 68.172928,4.220655 
	C68.002579,21.227835 68.027878,37.515629 67.960876,53.803040 
	C67.953690,55.550285 67.409149,57.295315 67.071007,58.570015 
	C66.993217,39.714901 66.958298,21.331152 66.923386,2.947402 
	C68.015366,2.641001 69.107338,2.334599 70.564644,2.100670 
z"/>
<path fill="#01AB56" opacity="1.000000" stroke="none" 
	d="
M67.113884,59.041374 
	C67.409149,57.295315 67.953690,55.550285 67.960876,53.803040 
	C68.027878,37.515629 68.002579,21.227835 68.010208,4.472140 
	C68.347305,5.723991 68.958832,7.442739 68.965668,9.163889 
	C69.032883,26.083605 68.999550,43.003719 68.983475,60.381897 
	C68.553467,60.887047 68.134735,60.934021 67.396500,60.613785 
	C67.089302,59.844837 67.101593,59.443108 67.113884,59.041374 
z"/>
<path fill="#017E01" opacity="1.000000" stroke="none" 
	d="
M67.071007,58.570015 
	C67.101593,59.443108 67.089302,59.844837 67.084900,60.548500 
	C67.092804,60.850433 66.641335,60.997864 66.641335,60.997864 
	C66.641335,60.997864 66.206261,60.807632 66.107620,60.080845 
	C66.000938,40.624657 65.992905,21.895256 65.984871,3.165855 
	C65.984871,3.165855 66.443695,3.009159 66.683533,2.978280 
	C66.958298,21.331152 66.993217,39.714901 67.071007,58.570015 
z"/>
<path fill="#010101" opacity="1.000000" stroke="none" 
	d="
M65.564484,3.281737 
	C65.992905,21.895256 66.000938,40.624657 66.037384,59.854851 
	C65.710670,59.337105 65.047119,58.318829 65.046249,57.299984 
	C65.030823,39.332569 65.096207,21.365086 65.564484,3.281737 
z"/>
<path fill="#B71C10" opacity="1.000000" stroke="none" 
	d="
M74.020966,231.396332 
	C80.352333,227.097610 86.833572,223.144241 93.322426,219.203445 
	C95.440498,217.917084 97.578438,216.663452 100.072052,215.481140 
	C98.989288,217.524139 97.541771,219.480896 95.930008,221.745758 
	C90.773361,225.302277 85.921310,228.807983 80.708046,231.651428 
	C79.016029,232.574310 76.378716,231.764053 74.020966,231.396332 
z"/>
<path fill="#B71C10" opacity="1.000000" stroke="none" 
	d="
M100.708794,215.218994 
	C100.570770,215.001862 100.643471,214.681030 100.974213,214.295883 
	C101.183617,214.545853 101.079369,214.840439 100.708794,215.218994 
z"/>
<path fill="#FFFFFF" opacity="1.000000" stroke="none" 
	d="
M1044.996094,119.000404 
	C1033.519897,119.000404 1022.543213,119.000404 1011.074402,119.000404 
	C1010.883789,110.462105 1013.652832,102.940376 1020.303772,98.574699 
	C1029.800781,92.340965 1040.314453,92.123795 1050.588867,97.958107 
	C1058.741455,102.587463 1059.606567,110.334610 1060.141113,119.000404 
	C1055.054443,119.000404 1050.275024,119.000404 1044.996094,119.000404 
z"/>
<path fill="#FFFFFF" opacity="1.000000" stroke="none" 
	d="
M731.999695,100.066628 
	C731.999695,89.873253 731.990479,89.753693 741.208679,89.041183 
	C748.105957,88.508072 755.049316,87.847893 761.939392,88.109261 
	C773.382507,88.543335 783.867493,91.828972 789.870300,102.604126 
	C792.307129,106.978294 794.442749,112.065659 794.768555,116.958145 
	C795.471191,127.509926 795.974792,138.187408 792.043823,148.492798 
	C787.568726,160.224655 779.542847,166.895538 767.029663,169.149841 
	C756.658630,171.018234 747.069397,169.000061 737.395813,166.001099 
	C733.672913,164.846939 731.767456,163.140320 731.851074,158.547028 
	C732.202637,139.222397 731.999695,119.887680 731.999695,100.066628 
z"/>
<path fill="#FFFFFF" opacity="1.000000" stroke="none" 
	d="
M661.985352,110.421066 
	C661.998230,112.697227 661.998230,114.527519 661.998230,116.671951 
	C641.369934,116.671951 620.829102,116.671951 600.294983,116.671951 
	C599.290100,102.242905 610.702881,89.627838 624.536133,87.947426 
	C632.691650,86.956718 640.514587,87.076111 648.202454,90.593559 
	C655.753906,94.048615 658.943909,100.402626 661.029663,107.764153 
	C661.246338,108.528831 661.653687,109.239471 661.985352,110.421066 
z"/>
</svg>