<?xml version="1.0" encoding="utf-8"?>
<!-- Generator: Adobe Illustrator 19.1.0, SVG Export Plug-In . SVG Version: 6.00 Build 0)  -->
<svg version="1.1" id="レイヤー_1" xmlns="http://www.w3.org/2000/svg" xmlns:xlink="http://www.w3.org/1999/xlink" x="0px"
	 y="0px" viewBox="0 0 144 28" enable-background="new 0 0 144 28" xml:space="preserve">
<polygon fill="#003399" points="84.8,18 94,9.2 94,8.8 94,6 75,6 75,10 84.3,10 75,18.8 75,19.6 75,22 94,22 94,18 "/>
<rect x="138" y="6" fill="#003399" width="6" height="16"/>
<polygon fill="#003399" points="136.6,6 128.5,6 122,11.7 122,6 116,6 116,22 122,22 122,15.7 128.3,22 136.4,22 127.4,13.6 "/>
<path fill="#003399" d="M108,6v9.7c0,1.4-0.4,3.1-3.6,3.1c-3.2,0-3.4-1.7-3.4-3.1V6h-6v10.2c0,4.8,1.3,6.8,9.2,6.8
	c7.9,0,9.8-2,9.8-6.8V6H108z"/>
<path fill="#003399" d="M68,6v9.7c0,1.4-0.4,3.1-3.6,3.1c-3.2,0-3.4-1.7-3.4-3.1V6h-6v10.2c0,4.8,1.9,6.8,9.8,6.8s9.2-2,9.2-6.8V6
	H68z"/>
<path fill="#003399" d="M41.5,17c0.3,1.1,1,1.8,3,1.8c1.5,0,2.2-0.3,2.2-0.8c0-1.3-0.9-1.3-7-2.1c-6-0.8-5.8-4.6-5.8-5.2
	c0-5.1,7.2-5.1,9.7-5.1c4.5,0,9.4,1.4,9.4,5.3h-7c-0.2-0.8-1.2-1.6-3-1.6c-1.5,0-2.3,0.3-2.3,0.9c0,1.1,0.5,1,6.4,1.9
	c6,0.9,6.6,3.8,6.6,5.4c0,5.3-7.4,5-9.9,5c-6,0-9.8-1.3-10-5.6H41.5z"/>
<path fill="#E20A17" d="M27.5,9.7c-1.7,1.4-6.8,3.4-9.9,1.4l-7.2-5L9.2,6.8l18.3,12.7c-4.6,1.8-9.9,5.4-13.7,8.6L0.2,18.4
	c2-1.5,6.7-3.3,9.8-1.3l7.3,5.1l1-0.7L0,8.7C3.9,7.3,11,2.9,13.7,0L27.5,9.7z"/>
</svg>
