<svg xmlns="http://www.w3.org/2000/svg" width="6.39952in" height="2.29996in" viewBox="0 0 460.76554 165.59698">
  <defs>
    <style>
      .b114c84a-5558-4119-8753-ae40ef1579e0 {
        fill: #55565b;
      }

      .b54056f2-56ef-46e5-a82f-3238b517185d {
        fill: #00abc7;
      }
    </style>
  </defs>
  <title>sysdig_Horz_Color_Logo_RGB_lrg</title>
  <g id="a038776f-2437-43cb-abc5-7f31b982d84c" data-name="Layer 1">
    <g>
      <g>
        <path class="b114c84a-5558-4119-8753-ae40ef1579e0" d="M196.71676,131.478q0,9.00161-6.175,13.71037-5.65209,4.39531-15.281,4.39569a37.97561,37.97561,0,0,1-24.0716-8.47757l6.80263-10.46634q9.20919,6.699,17.6879,6.69827,6.69676,0,6.69827-4.18623v-.20946q0-2.30031-3.45424-3.87242-1.25565-.52176-8.163-2.6164-16.74643-4.91821-16.74569-16.85v-.20946A16.10378,16.10378,0,0,1,160.085,96.20653q5.65209-4.604,14.44311-4.60516a36.71754,36.71754,0,0,1,20.93268,6.48957l-6.07064,10.98887q-8.89727-5.23128-15.17586-5.2328-5.86193,0-5.86118,3.87242v.20946q0,2.095,3.45425,3.76807,1.35887.62725,7.9543,2.93021,7.74369,2.6179,11.40779,5.44225a13.68691,13.68691,0,0,1,5.54736,11.19909Z"/>
        <path class="b114c84a-5558-4119-8753-ae40ef1579e0" d="M235.40208,149.89785q-3.24518,8.68629-7.22156,12.14129-4.1866,3.55595-11.19832,3.55784a27.44274,27.44274,0,0,1-14.1293-3.87242l5.3379-11.51214a13.39286,13.39286,0,0,0,6.80263,2.19747,5.83808,5.83808,0,0,0,5.54737-3.66295L198.56156,92.43923h16.8508l12.76816,38.20089,12.24564-38.20089h16.53623Z"/>
        <path class="b114c84a-5558-4119-8753-ae40ef1579e0" d="M301.77989,131.478q0,9.00161-6.175,13.71037-5.65209,4.39531-15.281,4.39569a37.97561,37.97561,0,0,1-24.0716-8.47757l6.80263-10.46634q9.20919,6.699,17.6879,6.69827,6.69675,0,6.69827-4.18623v-.20946q0-2.30031-3.45425-3.87242-1.25563-.52176-8.163-2.6164-16.74645-4.91821-16.74569-16.85v-.20946a16.10378,16.10378,0,0,1,6.06989-13.18785q5.65209-4.604,14.44311-4.60516a36.71754,36.71754,0,0,1,20.93268,6.48957l-6.07065,10.98887q-8.89725-5.23128-15.17585-5.2328-5.86194,0-5.86118,3.87242v.20946q0,2.095,3.45425,3.76807,1.35886.62725,7.9543,2.93021,7.74369,2.6179,11.40778,5.44225a13.68692,13.68692,0,0,1,5.54737,11.19909Z"/>
        <path class="b114c84a-5558-4119-8753-ae40ef1579e0" d="M350.32179,148.53748v-4.919q-6.699,5.96515-17.47843,5.96553a23.7076,23.7076,0,0,1-17.6879-7.431q-7.84919-8.16339-7.84918-21.56032v-.20946q0-13.3958,7.74483-21.55956a23.83235,23.83235,0,0,1,17.79225-7.431q10.46482,0,17.47843,5.23279V72.13493h15.9086v76.40255Zm.20946-28.15424a16.05973,16.05973,0,0,0-3.97677-11.19832,12.44573,12.44573,0,0,0-9.62924-4.29135,12.58289,12.58289,0,0,0-9.62849,4.18624,15.95362,15.95362,0,0,0-4.08188,11.30343v.20946a15.80852,15.80852,0,0,0,4.08188,11.19909,12.94824,12.94824,0,0,0,19.25773,0,16.0591,16.0591,0,0,0,3.97677-11.19909Z"/>
        <path class="b114c84a-5558-4119-8753-ae40ef1579e0" d="M375.85963,86.26423V72.13493h16.74569v14.1293Zm.41817,62.27325V92.43923h15.90859v56.09825Z"/>
        <path class="b114c84a-5558-4119-8753-ae40ef1579e0" d="M460.76554,135.87367q0,15.59628-7.84919,22.71122-7.53614,6.90774-23.44472,6.90774a52.26546,52.26546,0,0,1-24.80434-5.86118l5.44225-12.97763a38.09943,38.09943,0,0,0,18.94392,5.12844q16.01256,0,16.013-13.18785v-.62763q-7.535,5.96515-18.31553,5.96554a23.97009,23.97009,0,0,1-17.37408-6.80263q-7.535-7.32516-7.53537-19.36285v-.20946q0-12.03352,7.64048-19.36208a23.84215,23.84215,0,0,1,17.269-6.80263,31.25818,31.25818,0,0,1,18.10606,5.23279V92.43923h15.9086Zm-15.69913-18.31629a12.11419,12.11419,0,0,0-3.97677-9.31467,14.76408,14.76408,0,0,0-19.4672,0,12.26474,12.26474,0,0,0-3.87242,9.31467v.20946a12.385,12.385,0,0,0,3.87242,9.41979,13.82623,13.82623,0,0,0,9.7336,3.5586,13.60631,13.60631,0,0,0,9.7336-3.663,12.11243,12.11243,0,0,0,3.97677-9.31543Z"/>
      </g>
      <g>
        <path class="b54056f2-56ef-46e5-a82f-3238b517185d" d="M84.474,148.27334c-14.75511,0-27.617-7.2766-35.32326-20.623-3.11-5.38641-11.12854-19.66609-11.53233-20.39062a5.40438,5.40438,0,1,1,9.44259-5.25994c.09829.17675,8.382,14.93107,11.45081,20.24586C66.12287,135.429,80.062,140.46495,95.79992,135.70785a5.40466,5.40466,0,1,1,3.12519,10.34769A49.99263,49.99263,0,0,1,84.474,148.27334Z"/>
        <g>
          <path class="b54056f2-56ef-46e5-a82f-3238b517185d" d="M85.646,165.41727c-20.604,0-39.835-9.64144-49.51153-26.40179l-22.11628-38.306A5.40392,5.40392,0,0,1,15.996,93.327l15.06442-8.69749a5.40431,5.40431,0,1,1,5.4047,9.36032L26.08086,99.985l19.41393,33.62582c10.52445,18.22846,35.54649,25.82962,58.513,17.90314,18.34655-15.92533,24.27617-41.39687,13.75249-59.62533L99.176,59.70042a5.40431,5.40431,0,0,1,9.36032-5.40469L127.1206,86.4839c13.24737,22.94519,5.986,54.72805-16.88986,73.92866a5.39555,5.39555,0,0,1-1.62735.93938A67.1809,67.1809,0,0,1,85.646,165.41727Zm21.10985-9.14394h0Z"/>
          <path class="b54056f2-56ef-46e5-a82f-3238b517185d" d="M84.02247,130.74921c-8.536,0-15.77144-5.68353-19.44593-12.04818L.72512,8.10746a5.40431,5.40431,0,0,1,9.36032-5.40469L73.93686,113.29633c1.74163,3.01548,6.67854,8.19009,12.89005,6.18561a5.40467,5.40467,0,1,1,3.31565,10.28827A19.88815,19.88815,0,0,1,84.02247,130.74921Z"/>
          <path class="b54056f2-56ef-46e5-a82f-3238b517185d" d="M70.19608,73.67994a5.40555,5.40555,0,0,1-4.68015-2.70234L47.59907,39.94365A5.40431,5.40431,0,1,1,56.95938,34.539L72.17466,60.89274l9.67725-5.58754a5.40431,5.40431,0,0,1,5.40469,9.36032L72.89843,72.95541A5.40673,5.40673,0,0,1,70.19608,73.67994Z"/>
        </g>
      </g>
    </g>
  </g>
</svg>
