<svg id="Layer_1" data-name="Layer 1" xmlns="http://www.w3.org/2000/svg" viewBox="0 0 573.4 315.8"><defs><style>.cls-1{fill:#6400ff;}</style></defs><polygon class="cls-1" points="83.5 99.6 0 99.6 0 128.7 23.3 128.7 23.3 216.4 60.2 216.4 60.2 128.7 83.5 128.7 83.5 99.6"/><rect class="cls-1" x="95.4" y="99.6" width="36.9" height="116.8"/><rect class="cls-1" x="156.2" y="99.6" width="36.9" height="116.8"/><path class="cls-1" d="M95.4,315.9V302c39.6,0,73.8-14.2,101.8-42.2s42.2-62.2,42.2-101.8S225.2,84.2,197.2,56.2,134.9,14,95.4,14V.1C138.7.1,176.3,15.7,207,46.4s46.3,68.3,46.3,111.6S237.7,239,207,269.6,138.8,315.9,95.4,315.9Z"/><path class="cls-1" d="M282.9,84.9H270v-4h30.2v4H287.3v34.5h-4.4V84.9Z"/><path class="cls-1" d="M297.8,105.3v-.1c0-8.2,5.8-14.8,13.6-14.8,8.4,0,13.2,6.7,13.2,15a6.6,6.6,0,0,1-.1,1.4H302c.6,6.2,5,9.6,10,9.6a12,12,0,0,0,9-4l2.6,2.4a14.4,14.4,0,0,1-11.7,5.3C304.2,120.1,297.8,114.1,297.8,105.3Zm22.6-1.7c-.4-5.2-3.4-9.7-9.1-9.7-5,0-8.7,4.1-9.2,9.7Z"/><path class="cls-1" d="M329.2,105.3v-.1A14.77,14.77,0,0,1,344,90.4a14.61,14.61,0,0,1,11.2,5.1l-2.8,3c-2.2-2.4-4.8-4.3-8.6-4.3-5.8,0-10.2,4.9-10.2,11v.1c0,6.2,4.5,11.1,10.5,11.1,3.6,0,6.4-1.8,8.7-4.2l2.7,2.5c-2.9,3.2-6.3,5.5-11.6,5.5a14.62,14.62,0,0,1-14.6-14.6C329.2,105.4,329.2,105.4,329.2,105.3Z"/><path class="cls-1" d="M361.3,79.3h4.2V96a10.81,10.81,0,0,1,9.7-5.6c6.9,0,10.9,4.6,10.9,11.4v17.7h-4.2V102.9c0-5.3-2.9-8.6-7.9-8.6s-8.5,3.6-8.5,8.9v16.3h-4.2Z"/><path class="cls-1" d="M394.1,91h4.2v5a10.81,10.81,0,0,1,9.7-5.6c6.9,0,10.9,4.6,10.9,11.4v17.6h-4.2V102.8c0-5.3-2.9-8.6-7.9-8.6s-8.5,3.6-8.5,8.9v16.3h-4.2Z"/><path class="cls-1" d="M425.1,105.3v-.1a14.85,14.85,0,0,1,29.7-.1v.1a14.77,14.77,0,0,1-14.7,14.9h-.2a14.6,14.6,0,0,1-14.7-14.4A.6.6,0,0,1,425.1,105.3Zm25.3,0v-.1a10.78,10.78,0,0,0-10.6-11.1c-6.2,0-10.4,5-10.4,11v.1c0,6.1,4.5,11.1,10.5,11.1,6.2,0,10.5-5,10.5-11Z"/><path class="cls-1" d="M461.7,79.3h4.2v40.1h-4.2Z"/><path class="cls-1" d="M472.9,105.3v-.1a14.85,14.85,0,1,1,29.7-.1v.1a14.83,14.83,0,0,1-14.7,14.9h-.2A14.53,14.53,0,0,1,473,105.7.6.6,0,0,1,472.9,105.3Zm25.3,0v-.1a10.78,10.78,0,0,0-10.6-11.1c-6.1,0-10.4,5-10.4,11v.1c0,6.1,4.5,11.1,10.5,11.1C493.9,116.3,498.2,111.3,498.2,105.3Z"/><path class="cls-1" d="M508.8,124.3l1.9-3.3a18,18,0,0,0,10.9,3.6c6.3,0,10.3-3.5,10.3-10.1v-3.3c-2.5,3.3-5.9,6-11.2,6a13.11,13.11,0,0,1-13.4-12.9v-.5a13.19,13.19,0,0,1,13-13.4h.4a13.26,13.26,0,0,1,11.1,5.7V91H536v23.5c0,4.4-1.3,7.8-3.6,10.1-2.5,2.5-6.3,3.8-10.8,3.8A21.69,21.69,0,0,1,508.8,124.3Zm23.3-20.5v-.1c0-5.8-5.1-9.6-10.5-9.6s-9.8,3.7-9.8,9.6v.1a9.75,9.75,0,0,0,9.6,9.7h.3c5.3,0,10.4-3.9,10.4-9.7Z"/><path class="cls-1" d="M565.8,91h4.5l-11.9,29.3c-2.4,5.9-5.2,8-9.5,8a13.9,13.9,0,0,1-6-1.4l1.4-3.4a8.75,8.75,0,0,0,4.5,1c2.5,0,4.1-1.3,5.8-5.3L541.6,91h4.7l10.3,23.7Z"/><path class="cls-1" d="M283,134.3h4.4v38.5H283Z"/><path class="cls-1" d="M296.8,144.4H301v4.9a10.81,10.81,0,0,1,9.7-5.6c6.9,0,10.9,4.6,10.9,11.4v17.7h-4.2V156.2c0-5.3-2.9-8.6-7.9-8.6s-8.5,3.6-8.5,8.9v16.3h-4.2Z"/><path class="cls-1" d="M329.6,144.4h4.2v4.9a10.81,10.81,0,0,1,9.7-5.6c6.9,0,10.9,4.6,10.9,11.4v17.7h-4.2V156.2c0-5.3-2.9-8.6-7.9-8.6s-8.5,3.6-8.5,8.9v16.3h-4.2Z"/><path class="cls-1" d="M360.6,158.7v-.1a14.85,14.85,0,1,1,29.7-.1v.1a14.77,14.77,0,0,1-14.7,14.9h-.2a14.53,14.53,0,0,1-14.7-14.4A.6.6,0,0,1,360.6,158.7Zm25.3,0v-.1a10.78,10.78,0,0,0-10.6-11.1c-6.2,0-10.4,5-10.4,11v.1c0,6.1,4.5,11.1,10.5,11.1,6.2,0,10.5-5,10.5-11Z"/><path class="cls-1" d="M392.4,144.4H397l9.6,23.6,9.6-23.6h4.6L408.4,173h-3.7Z"/><path class="cls-1" d="M422.8,164.6v-.1c0-6,5-9.2,12.2-9.2a31.51,31.51,0,0,1,8.7,1.2v-1c0-5.1-3.1-7.8-8.5-7.8a18.52,18.52,0,0,0-8.6,2.1l-1.3-3.5a21.85,21.85,0,0,1,10.3-2.3c4,0,7.1,1.1,9.2,3.1,1.9,1.9,2.9,4.7,2.9,8.3v17.4h-4.1v-4.3a12.51,12.51,0,0,1-10.3,4.9C428.2,173.4,422.8,170.4,422.8,164.6Zm21-2.2v-2.8a29.41,29.41,0,0,0-8.4-1.2c-5.3,0-8.3,2.3-8.3,5.9v.1c0,3.6,3.3,5.7,7.1,5.7,5.3,0,9.6-3.2,9.6-7.7Z"/><path class="cls-1" d="M456.9,165.3V148.1h-4v-3.7h4v-8.6h4.2v8.6h9v3.7h-9v16.6c0,3.5,1.9,4.7,4.8,4.7a8.3,8.3,0,0,0,4.1-1V172a11.25,11.25,0,0,1-5.1,1.2C460.4,173.3,456.9,171,456.9,165.3Z"/><path class="cls-1" d="M476.7,133.5h4.8v4.7h-4.8Zm.2,10.9h4.2v28.4h-4.2Z"/><path class="cls-1" d="M488.2,158.7v-.1a14.85,14.85,0,1,1,29.7-.1h0v.1a14.77,14.77,0,0,1-14.7,14.9H503a14.6,14.6,0,0,1-14.7-14.4A.76.76,0,0,1,488.2,158.7Zm25.3,0v-.1a10.78,10.78,0,0,0-10.6-11.1c-6.2,0-10.4,5-10.4,11v.1c0,6.1,4.5,11.1,10.5,11.1C509.2,169.7,513.5,164.7,513.5,158.7Z"/><path class="cls-1" d="M524.3,144.4h4.2v4.9a10.81,10.81,0,0,1,9.7-5.6c6.9,0,10.9,4.6,10.9,11.4v17.7H545V156.2c0-5.3-2.8-8.6-7.9-8.6s-8.5,3.6-8.5,8.9v16.3h-4.2Z"/><path class="cls-1" d="M283,188.3h4.4v38.5H283Z"/><path class="cls-1" d="M296.8,198.4H301v4.9a10.81,10.81,0,0,1,9.7-5.6c6.9,0,10.9,4.6,10.9,11.4v17.7h-4.2V210.2c0-5.3-2.9-8.6-7.9-8.6s-8.5,3.6-8.5,8.9v16.3h-4.2Z"/><path class="cls-1" d="M327.2,223.2l2.1-3a16.84,16.84,0,0,0,9.8,3.6c3.4,0,5.9-1.8,5.9-4.5v-.1c0-2.9-3.4-4-7.1-5-4.5-1.3-9.4-2.8-9.4-8V206c0-4.9,4.1-8.1,9.7-8.1a20.33,20.33,0,0,1,10.2,3.1l-1.9,3.2a16.82,16.82,0,0,0-8.4-2.8c-3.4,0-5.5,1.8-5.5,4.1v.1c0,2.7,3.5,3.7,7.3,4.9,4.4,1.3,9.1,3,9.1,8.1v.1c0,5.4-4.5,8.5-10.1,8.5A18.64,18.64,0,0,1,327.2,223.2Z"/><path class="cls-1" d="M356.8,219.3V202.1h-4v-3.7h4v-8.6H361v8.6h9v3.7h-9v16.6c0,3.5,1.9,4.7,4.8,4.7a8.3,8.3,0,0,0,4.1-1V226a11.25,11.25,0,0,1-5.1,1.2C360.3,227.3,356.8,225,356.8,219.3Z"/><path class="cls-1" d="M376.6,187.5h4.8v4.7h-4.8Zm.2,10.9H381v28.4h-4.2Z"/><path class="cls-1" d="M391.3,219.3V202.1h-4v-3.7h4v-8.6h4.2v8.6h9v3.7h-9v16.6c0,3.5,1.9,4.7,4.8,4.7a8.57,8.57,0,0,0,4.1-1V226a11.25,11.25,0,0,1-5.1,1.2C394.8,227.3,391.3,225,391.3,219.3Z"/><path class="cls-1" d="M410.5,216V198.4h4.2V215c0,5.3,2.9,8.6,7.9,8.6,4.8,0,8.5-3.6,8.5-8.9V198.4h4.2v28.4h-4.2v-5a10.93,10.93,0,0,1-9.7,5.6C414.5,227.4,410.5,222.8,410.5,216Z"/><path class="cls-1" d="M445.2,219.3V202.1h-4v-3.7h4v-8.6h4.2v8.6h9v3.7h-9v16.6c0,3.5,1.9,4.7,4.8,4.7a8.57,8.57,0,0,0,4.1-1V226a11.25,11.25,0,0,1-5.1,1.2C448.7,227.3,445.2,225,445.2,219.3Z"/><path class="cls-1" d="M462.3,212.7v-.1c0-8.2,5.8-14.8,13.6-14.8,8.4,0,13.3,6.7,13.3,15a6.6,6.6,0,0,1-.1,1.4H466.6c.6,6.2,5,9.6,10,9.6a12,12,0,0,0,9-4l2.6,2.4a14.4,14.4,0,0,1-11.7,5.3C468.6,227.5,462.3,221.5,462.3,212.7Zm22.6-1.7c-.4-5.2-3.4-9.7-9.1-9.7-5,0-8.7,4.1-9.2,9.7Z"/></svg>