<?xml version="1.0" encoding="UTF-8"?>
<svg xmlns="http://www.w3.org/2000/svg" version="1.1" viewBox="0 0 1003 265">
  <defs>
    <style>
      .cls-1 {
        fill: none;
        stroke: #000;
        stroke-width: 1.6px;
      }

      .cls-2 {
        fill: #ab2b28;
      }

      .cls-3 {
        fill: #eb0028;
      }
    </style>
  </defs>
  <!-- Generator: Adobe Illustrator 28.6.0, SVG Export Plug-In . SVG Version: 1.2.0 Build 709)  -->
  <g>
    <g id="Layer_1">
      <path class="cls-3" d="M901,174.2V63.4h42.1c11.9,0,22.3,2.1,31.2,6.3,8.9,4.1,15.8,10.3,20.7,18.5,5,8.2,7.4,18.5,7.4,30.7s-2.5,21.6-7.4,29.9c-4.9,8.2-11.8,14.5-20.9,18.8-9.1,4.3-19.8,6.5-32.3,6.5h-40.8ZM925.5,152.7h16.9c7.7,0,14.1-1.3,19.1-3.8s9.1-6.4,11.7-11.4c2.6-5.1,4-11.2,4-18.5s-1.3-14.3-3.8-19.3c-2.5-5.1-6.4-8.8-11.6-11.1-5.1-2.4-11.6-3.6-19.5-3.6h-16.9v67.7h0Z"/>
      <path class="cls-3" d="M833.6,175.8c-5.9,0-11.6-.4-17.1-1.3-5.5-.8-10.8-2-15.8-3.3l-9.5-2.7,4-18.8,11.9,1.9c3.8.6,8.2,1.2,13.1,1.7,5,.4,9.6.6,13.9.6,6.4,0,11.2-.9,14.2-2.8,3.1-2,4.6-4.8,4.6-8.4s-.5-3.6-1.6-5.1c-1-1.5-3.1-3-6.3-4.4-3.3-1.5-8.3-3.2-15-5.2-8.8-2.6-15.8-5.3-21-7.9-5.2-2.7-8.9-6.1-11.1-10-2.2-4-3.3-9.1-3.3-15.2s2-14.1,5.9-19c4-4.9,9.4-8.4,16.1-10.6,6.8-2.3,14.3-3.5,22.8-3.5s9.7.4,14.7,1.1c5.2.7,10.2,1.8,15.2,3.2l7.3,1.9-3.5,18.5-10.9-1.3c-3.2-.4-6.6-.8-10.4-1.3-3.8-.4-7.8-.6-11.9-.6-6.8,0-11.8.9-15.2,2.8-3.4,1.8-5.1,4.6-5.1,8.4s.6,3.5,1.7,4.7c1.2,1.3,3.5,2.5,7,3.8,3.6,1.3,8.9,2.8,16,4.7,8.8,2.2,15.6,4.8,20.6,7.8,5.1,2.8,8.7,6.3,10.8,10.3,2.2,3.9,3.3,8.6,3.3,14.1,0,8.1-2,14.8-6,20.1s-9.4,9.2-16.3,11.9c-6.9,2.5-14.5,3.8-22.9,3.8h-.2Z"/>
      <path class="cls-3" d="M682.8,174.2V63.4h55.1c7.7,0,14.1,1.3,19.1,4,5.1,2.5,8.9,6,11.4,10.4,2.6,4.4,4,9.5,4,15.4s-.9,9.1-2.7,13.5c-1.7,4.2-5,7.6-9.8,10.1v.3c5,1.6,9,4.5,12.2,8.7s4.7,9.2,4.7,14.9-1.5,12.5-4.4,17.6c-2.8,5.1-7,9-12.5,11.9-5.5,2.7-12.2,4.1-20.3,4.1h-56.8ZM707.3,153.5h28.6c5.2,0,9.1-1.1,11.7-3.2,2.6-2.2,4-5.7,4-10.4s-1.3-7.5-3.8-9.7c-2.4-2.1-5.9-3.2-10.4-3.2h-30.1v26.4h0ZM707.3,108.2h28.6c4.2,0,7.4-1,9.7-3,2.3-2.1,3.5-5.2,3.5-9.3s-1.2-7-3.6-9c-2.3-2.1-6-3.2-11.1-3.2h-27.1v24.5h0Z"/>
      <path d="M622.7,175.5c-7.8,0-15-1.6-21.5-4.7-6.5-3.2-11.8-7.8-15.8-13.9-3.9-6.2-5.9-13.8-5.9-22.6s1.1-12,3.2-17.1c2.1-5.2,5.1-9.5,8.9-13.1,3.8-3.7,8.1-6.5,13-8.4,5-2,10.2-3,15.8-3,8,0,14.8,1.7,20.3,5.2s9.6,8.3,12.3,14.4c2.8,6.1,4.3,13.1,4.3,20.9v6.3h-57c.7,4.3,2.2,7.9,4.4,10.6,2.2,2.7,5.1,4.8,8.5,6.2,3.5,1.3,7.4,1.9,11.7,1.9s5.6-.2,8.5-.6c3-.5,5.9-1.2,8.9-2.1l7.1-2.1,5.4,13.1-6.2,3c-4.2,2-8.5,3.5-13,4.6-4.4.9-8.8,1.4-13,1.4h0ZM600.9,124.8h37.3c-.8-4.9-2.7-8.6-5.7-11.2-3-2.7-7-4.1-12.2-4.1s-6.4.6-9,1.9c-2.5,1.2-4.7,2.9-6.5,5.2-1.8,2.3-3.1,5.1-4,8.2h.1Z"/>
      <path d="M529.2,175.5c-7.8,0-15-1.6-21.5-4.7-6.5-3.2-11.8-7.8-15.8-13.9-3.9-6.2-5.9-13.8-5.9-22.6s1.1-12,3.2-17.1c2.1-5.2,5.1-9.5,8.9-13.1,3.8-3.7,8.1-6.5,13-8.4,5-2,10.2-3,15.8-3,8,0,14.8,1.7,20.3,5.2s9.6,8.3,12.3,14.4c2.8,6.1,4.3,13.1,4.3,20.9v6.3h-57c.7,4.3,2.2,7.9,4.4,10.6s5.1,4.8,8.5,6.2c3.5,1.3,7.4,1.9,11.7,1.9s5.6-.2,8.5-.6c3-.5,5.9-1.2,8.9-2.1l7.1-2.1,5.4,13.1-6.2,3c-4.2,2-8.5,3.5-13,4.6-4.4.9-8.8,1.4-13,1.4h.1ZM507.3,124.8h37.3c-.8-4.9-2.7-8.6-5.7-11.2-3-2.7-7-4.1-12.2-4.1s-6.4.6-9,1.9c-2.5,1.2-4.7,2.9-6.5,5.2-1.8,2.3-3.1,5.1-4,8.2h.1Z"/>
      <path d="M425.5,174.2v-80.4h14.6l2.1,9.8,6-4.3c3.1-2.1,6.3-3.7,9.8-4.9,3.5-1.3,6.8-1.9,10-1.9s2.3.2,3.5.6c1.3.3,2.5.9,3.6,1.7v15.8c-3.3,0-6.4.4-9.5.9-3,.5-6.3,1.5-10.1,3l-10,3.6v55.9h-19.9v.2Z"/>
      <path d="M326.4,174.2V63.4h80.4v18.2h-59.7v28.5h53.3v18.2h-53.3v45.9h-20.7,0Z"/>
      <path d="M851.1,250.2v-28.8h4.7l15.9,18.6h0v-18.6h5.3v28.8h-4.1l-16.5-19.4h0v19.4h-5.3Z"/>
      <path d="M814.5,250.6c-3,0-5.5-.6-7.7-1.9-2.2-1.3-3.9-3-5.1-5.2-1.2-2.2-1.8-4.8-1.8-7.8s.6-5.5,1.9-7.7,2.9-3.9,5.1-5.2c2.2-1.2,4.8-1.9,7.7-1.9s5.6.6,7.8,1.9c2.2,1.2,3.9,3,5.1,5.2,1.2,2.2,1.8,4.8,1.8,7.7s-.6,5.5-1.9,7.7c-1.2,2.2-3,4-5.2,5.2s-4.7,1.9-7.7,1.9h0ZM814.5,245.6c1.8,0,3.4-.4,4.8-1.1,1.4-.8,2.4-1.9,3.2-3.4s1.2-3.3,1.2-5.4-.4-3.9-1.2-5.3c-.7-1.5-1.8-2.6-3.2-3.3-1.4-.8-3-1.2-4.9-1.2s-3.4.4-4.8,1.2c-1.4.7-2.4,1.8-3.2,3.3s-1.2,3.3-1.2,5.4.4,3.9,1.1,5.4c.8,1.5,1.8,2.6,3.2,3.3s3,1.1,4.8,1.1h.2Z"/>
      <path d="M772.5,250.2v-28.8h5.4v28.8h-5.4Z"/>
      <path d="M736.2,250.2v-24.1h-9.9v-4.7h25.1v4.7h-9.8v24.1h-5.4,0Z"/>
      <path d="M683,250.2l11.2-28.8h6.3l11.3,28.8h-5.9l-8.4-23h0l-8.6,23h-5.8ZM690,244.4v-4.7h14.6v4.7h-14.6Z"/>
      <path d="M640,250.2v-28.8h10.7c3,0,5.7.6,8,1.7,2.3,1.1,4,2.7,5.3,4.9,1.3,2.1,1.9,4.8,1.9,7.9s-.6,5.6-1.9,7.7c-1.3,2.1-3.1,3.8-5.4,4.9-2.3,1.1-5.1,1.7-8.3,1.7h-10.4.1ZM645.4,245.4h5.2c2.1,0,3.9-.4,5.4-1.1,1.5-.8,2.6-1.9,3.3-3.3.8-1.4,1.2-3.2,1.2-5.2s-.4-4-1.1-5.4c-.7-1.5-1.8-2.5-3.3-3.2s-3.3-1.1-5.5-1.1h-5.2v19.3h0Z"/>
      <path d="M590.7,250.2v-28.8h4.7l15.9,18.6h0v-18.6h5.3v28.8h-4.1l-16.5-19.4h0v19.4h-5.3Z"/>
      <path d="M555.6,250.6c-2.6,0-4.8-.5-6.7-1.4s-3.4-2.2-4.4-4-1.5-4-1.5-6.5v-17.3h5.4v16.4c0,2.9.6,4.9,1.9,6,1.3,1.2,3.1,1.7,5.5,1.7s4.2-.6,5.4-1.7c1.3-1.2,1.9-3.2,1.9-6v-16.4h5.2v17.3c0,2.6-.5,4.8-1.6,6.5-1,1.8-2.5,3.1-4.4,4s-4.1,1.4-6.7,1.4h0Z"/>
      <path d="M507.1,250.6c-3,0-5.5-.6-7.7-1.9-2.2-1.3-3.9-3-5.1-5.2s-1.8-4.8-1.8-7.8.6-5.5,1.9-7.7c1.2-2.2,2.9-3.9,5.1-5.2,2.2-1.2,4.8-1.9,7.7-1.9s5.6.6,7.8,1.9c2.2,1.2,3.9,3,5.1,5.2,1.2,2.2,1.8,4.8,1.8,7.7s-.6,5.5-1.9,7.7c-1.2,2.2-3,4-5.2,5.2s-4.7,1.9-7.7,1.9h0ZM507.1,245.6c1.8,0,3.4-.4,4.8-1.1,1.4-.8,2.4-1.9,3.2-3.4s1.2-3.3,1.2-5.4-.4-3.9-1.2-5.3c-.7-1.5-1.8-2.6-3.2-3.3-1.4-.8-3-1.2-4.9-1.2s-3.4.4-4.8,1.2c-1.4.7-2.4,1.8-3.2,3.3-.8,1.5-1.2,3.3-1.2,5.4s.4,3.9,1.1,5.4c.8,1.5,1.8,2.6,3.2,3.3,1.4.7,3,1.1,4.8,1.1h.2Z"/>
      <path d="M451.9,250.2v-28.8h20.9v4.7h-15.5v7.4h13.9v4.7h-13.9v11.9h-5.4Z"/>
      <line class="cls-1" x1="326" y1="235.1" x2="420.9" y2="235.1"/>
      <line class="cls-1" x1="908.2" y1="235.1" x2="1003.2" y2="235.1"/>
      <path class="cls-2" d="M3,147.8l60.6,35v-12.8l-3.7-2.1v-45l99-57.2V0L3,90v57.8Z"/>
      <path class="cls-2" d="M269,120.8v53.5l-155.9,90v-65.7l99-57.2v-53.4l56.9,32.8Z"/>
      <path class="cls-3" d="M113.1,198.6l-56.9,32.8L3,200.7v-65.7l56.9,32.9,3.7,2.1s49.5,28.6,49.5,28.6Z"/>
      <path class="cls-3" d="M269,63.6v65.7l-56.9-32.9-3.7-2.1-49.5-28.6,56.9-32.8,53.2,30.7h0Z"/>
    </g>
  </g>
</svg>