<?xml version="1.0" encoding="UTF-8"?>
<svg id="Layer_2" xmlns="http://www.w3.org/2000/svg" viewBox="0 0 288.84 39.36">
  <g id="Layer_1-2" data-name="Layer_1">
    <g>
      <g>
        <path d="M136.44,9.62h-.96c-.79-7.36-4.24-7.47-6.34-7.47h-.62v33.25c0,1.36.17,3,2.38,3h.91v.96h-11.61v-.96h.96c2.09,0,2.09-1.64,2.09-3V2.15h-.62c-2.09,0-5.55.11-6.34,7.47h-.96V1.02h21.12v8.61Z"/>
        <path d="M160.66,1.92h-.29c-2.04,0-2.09,1.64-2.09,2.78v30.7c0,1.36.06,3,2.04,3h.46v.96h-10.2v-.96h.62c2.04,0,2.16-1.64,2.16-3v-14.79h-8.39v14.79c0,1.36.06,3,1.98,3h.51v.96h-10.19v-.96h.56c2.1,0,2.16-1.64,2.16-3V4.7c0-1.13,0-2.78-2.21-2.78h-.39v-.91h9.97v.91h-.28c-2.04,0-2.1,1.64-2.1,2.78v14.44h8.39V4.7c0-1.13,0-2.78-2.27-2.78h-.39v-.91h9.97v.91Z"/>
        <path d="M178.47,19.2l4.76,16.02c.68,2.16,1.48,3.18,3.23,3.18v.96h-6.12c-1.13,0-1.64-.91-1.76-1.24l-4.19-15.64c-.28-1.02-1.02-1.53-1.87-1.53l-2.32-.06v14.5c0,1.24.11,3,2.15,3h.68v.96h-10.88v-.96h.51c2.21,0,2.27-1.76,2.27-3V4.7c0-1.13,0-2.78-2.27-2.78h-.51v-.91h11.27c5.33,0,9.58,3.28,9.58,9.34,0,3.68-1.98,7.14-4.53,8.84ZM170.2,2.21v17.33s1.47.06,1.92.06c4.59,0,5.55-5.27,5.55-9.01,0-7.53-3.51-8.38-5.72-8.38h-1.76Z"/>
        <path d="M192.66,18.91h1.64c1.93,0,3.79-1.19,3.79-3.62v-1.24h1.13v11.84h-1.13v-1.81c0-2.38-1.7-3.91-3.79-3.91h-1.64v16.37c0,1.48.91,1.59,1.36,1.59h2.55c2.55,0,5.16-.62,6.01-8.44h1.02v9.69h-19.03v-.96h.74c1.98,0,2.09-1.76,2.09-3V4.7c0-1.13,0-2.78-2.21-2.78h-.62v-.91h18.35v8.61h-1.02c-.39-3.96-1.64-7.36-6.06-7.36h-3.17v16.65Z"/>
        <path d="M215.69,0l7.81,35.62c.46,2.15,1.64,2.78,3.12,2.78v.96h-10.76v-.96c1.92,0,2.44-.46,2.21-2.15,0,.06-.79-3.97-1.92-9.24h-6.91l-1.64,9.18c-.11.9.11,2.09,2.66,2.21v.96h-8.04v-.96c2.49,0,3.11-1.31,3.57-3.12l5.83-30.02c-.34-1.64-.56-2.78-.56-2.78,2.26-.67,4.02-1.98,4.64-2.49ZM212.46,9.34l-2.94,16.2h6.34l-3.4-16.2Z"/>
        <path d="M234.76,1.02c9.29,0,13.93,8.33,13.93,18.35,0,8.78-4.08,19.99-13.31,19.99h-10.31v-.96h.39c1.7,0,2.27-.62,2.27-2.21V4.36c0-1.13,0-2.43-2.27-2.43h-.39v-.91h9.69ZM234.76,2.21h-1.76v33.93c0,1.36,0,1.99,1.19,1.99h1.53c6.29,0,7.31-10.37,7.31-17.73,0-11.5-2.1-18.18-8.27-18.18Z"/>
        <path d="M268.7,0l7.81,35.62c.46,2.15,1.64,2.78,3.12,2.78v.96h-10.76v-.96c1.93,0,2.43-.46,2.21-2.15,0,.06-.79-3.97-1.93-9.24h-6.91l-1.64,9.18c-.11.9.11,2.09,2.66,2.21v.96h-8.04v-.96c2.49,0,3.11-1.31,3.57-3.12l5.83-30.02c-.34-1.64-.57-2.78-.57-2.78,2.27-.67,4.03-1.98,4.65-2.49ZM265.47,9.34l-2.94,16.2h6.34l-3.4-16.2Z"/>
        <path d="M288.73,1.92h-.29c-2.15,0-2.21,1.64-2.21,2.78v30.7c0,1.36.06,3,2.09,3h.51v.96h-10.82v-.96h.68c2.15,0,2.26-1.64,2.26-3V4.7c0-1.13,0-2.78-2.38-2.78h-.39v-.91h10.54v.91Z"/>
      </g>
      <g>
        <rect x="76.8" y="13.76" width="25.6" height="12.8"/>
        <rect x="51.2" y="26.56" width="25.6" height="12.8"/>
        <rect x="38.4" y="13.76" width="12.8" height="12.8"/>
        <rect x="0" y="26.56" width="38.4" height="12.8"/>
      </g>
    </g>
  </g>
</svg>