<?xml version="1.0" encoding="utf-8"?>
<!-- Generator: Adobe Illustrator 23.0.3, SVG Export Plug-In . SVG Version: 6.00 Build 0)  -->
<svg version="1.1" id="Layer_1" xmlns="http://www.w3.org/2000/svg" xmlns:xlink="http://www.w3.org/1999/xlink" x="0px" y="0px"
	 viewBox="0 0 400 245" style="enable-background:new 0 0 400 245;" xml:space="preserve">
<style type="text/css">
	.st0{fill:#80BC00;}
	.st1{fill:#003A5D;}
	.st2{fill:#F18A00;}
</style>
<g>
	<path class="st0" d="M64.36,108.04h1.02v-5.58c0-1.49,0.04-2.67,0.12-3.52c0.08-0.85,0.3-1.58,0.67-2.19
		c0.36-0.63,0.88-1.15,1.56-1.55c0.68-0.39,1.44-0.59,2.28-0.59c1.18,0,2.24,0.44,3.2,1.33c0.63,0.58,1.04,1.31,1.21,2.16
		c0.17,0.85,0.26,2.06,0.26,3.62v6.33h3.41c1.32,0,2.32,0.31,3.02,0.94c0.69,0.62,1.04,1.42,1.04,2.4c0,1.25-0.49,2.13-1.48,2.63
		c-0.99,0.5-2.41,0.75-4.25,0.75h-1.74v17.12c0,1.46,0.05,2.58,0.15,3.36c0.1,0.78,0.38,1.42,0.82,1.91
		c0.44,0.49,1.17,0.73,2.16,0.73c0.55,0,1.29-0.09,2.22-0.29c0.93-0.19,1.66-0.29,2.18-0.29c0.75,0,1.42,0.3,2.03,0.91
		c0.6,0.6,0.9,1.35,0.9,2.24c0,1.5-0.82,2.66-2.46,3.45c-1.63,0.8-3.99,1.2-7.06,1.2c-2.91,0-5.11-0.49-6.61-1.47
		c-1.5-0.98-2.48-2.33-2.94-4.06c-0.47-1.73-0.7-4.04-0.7-6.93v-17.89h-1.23c-1.34,0-2.37-0.32-3.07-0.95
		c-0.7-0.64-1.06-1.44-1.06-2.42c0-0.98,0.37-1.78,1.11-2.4C61.87,108.35,62.94,108.04,64.36,108.04z"/>
	<path class="st0" d="M111.82,112.53v26.9c0,1.86-0.44,3.27-1.33,4.22c-0.89,0.96-2,1.43-3.37,1.43c-1.36,0-2.47-0.49-3.32-1.46
		c-0.85-0.98-1.28-2.38-1.28-4.19v-26.62c0-1.84,0.42-3.23,1.28-4.16c0.85-0.93,1.96-1.4,3.32-1.4c1.36,0,2.48,0.46,3.37,1.4
		C111.38,109.58,111.82,110.88,111.82,112.53z"/>
	<path class="st0" d="M166.39,126.86v12.37c0,1.96-0.44,3.42-1.33,4.4c-0.89,0.97-2.06,1.46-3.51,1.46c-1.41,0-2.55-0.49-3.42-1.46
		c-0.88-0.98-1.31-2.44-1.31-4.4v-14.82c0-2.34-0.08-4.15-0.24-5.45c-0.16-1.3-0.59-2.36-1.3-3.19c-0.71-0.83-1.83-1.24-3.35-1.24
		c-3.06,0-5.06,1.05-6.03,3.14c-0.97,2.09-1.46,5.09-1.46,9v12.57c0,1.93-0.44,3.39-1.31,4.38c-0.87,0.99-2.03,1.48-3.46,1.48
		c-1.41,0-2.56-0.49-3.46-1.48c-0.9-0.99-1.34-2.45-1.34-4.38v-26.63c0-1.75,0.4-3.08,1.21-3.99c0.8-0.91,1.87-1.37,3.19-1.37
		c1.27,0,2.33,0.43,3.18,1.28c0.85,0.86,1.28,2.04,1.28,3.55v0.89c1.61-1.94,3.34-3.37,5.18-4.28c1.84-0.91,3.89-1.37,6.14-1.37
		c2.34,0,4.35,0.47,6.04,1.4c1.68,0.93,3.07,2.35,4.16,4.24c1.57-1.92,3.26-3.34,5.05-4.26c1.8-0.92,3.79-1.39,5.98-1.39
		c2.55,0,4.75,0.5,6.59,1.51c1.84,1,3.22,2.44,4.13,4.31c0.8,1.68,1.2,4.33,1.2,7.94v18.16c0,1.96-0.44,3.42-1.34,4.4
		c-0.89,0.97-2.06,1.46-3.52,1.46c-1.42,0-2.58-0.49-3.48-1.48c-0.9-0.99-1.35-2.45-1.35-4.38v-15.64c0-2-0.09-3.6-0.26-4.8
		c-0.17-1.2-0.63-2.22-1.38-3.04c-0.75-0.81-1.89-1.23-3.41-1.23c-1.23,0-2.39,0.37-3.5,1.09c-1.1,0.73-1.96,1.71-2.57,2.93
		C166.73,120.12,166.39,122.89,166.39,126.86z"/>
	<path class="st0" d="M237.24,128.47h-18.21c0.02,2.11,0.45,3.98,1.28,5.59c0.83,1.62,1.94,2.83,3.31,3.65
		c1.37,0.82,2.89,1.23,4.55,1.23c1.11,0,2.13-0.13,3.05-0.39c0.92-0.26,1.81-0.67,2.67-1.23c0.87-0.55,1.66-1.15,2.39-1.79
		c0.73-0.64,1.67-1.5,2.83-2.59c0.48-0.41,1.16-0.61,2.04-0.61c0.96,0,1.73,0.26,2.32,0.79c0.59,0.52,0.89,1.26,0.89,2.21
		c0,0.84-0.33,1.82-0.99,2.94c-0.66,1.12-1.65,2.2-2.99,3.24c-1.33,1.03-3,1.89-5.01,2.57c-2.01,0.68-4.33,1.02-6.94,1.02
		c-5.98,0-10.63-1.7-13.95-5.11c-3.32-3.4-4.98-8.03-4.98-13.87c0-2.75,0.41-5.3,1.23-7.65c0.82-2.35,2.01-4.37,3.58-6.05
		c1.57-1.68,3.5-2.97,5.8-3.87c2.3-0.89,4.84-1.35,7.64-1.35c3.64,0,6.76,0.77,9.36,2.3c2.6,1.53,4.55,3.52,5.85,5.95
		c1.3,2.43,1.95,4.91,1.95,7.43c0,2.34-0.67,3.86-2.01,4.55C241.56,128.12,239.67,128.47,237.24,128.47z M219.02,123.2h16.88
		c-0.22-3.18-1.09-5.56-2.58-7.14c-1.49-1.58-3.45-2.37-5.88-2.37c-2.32,0-4.23,0.8-5.71,2.4
		C220.24,117.69,219.34,120.07,219.02,123.2z"/>
	<path class="st1" d="M296.75,132.91c0,2.57-0.63,4.78-1.88,6.6c-1.25,1.83-3.1,3.22-5.55,4.16c-2.45,0.94-5.43,1.42-8.93,1.42
		c-3.35,0-6.22-0.51-8.61-1.53c-2.39-1.03-4.16-2.3-5.29-3.84c-1.14-1.53-1.71-3.08-1.71-4.62c0-1.02,0.36-1.9,1.09-2.63
		c0.73-0.73,1.65-1.09,2.77-1.09c0.98,0,1.73,0.24,2.26,0.71c0.52,0.48,1.03,1.15,1.5,2.01c0.96,1.66,2.1,2.9,3.44,3.72
		c1.33,0.81,3.15,1.23,5.45,1.23c1.87,0,3.4-0.42,4.6-1.24c1.2-0.83,1.8-1.78,1.8-2.85c0-1.64-0.62-2.83-1.87-3.57
		c-1.24-0.75-3.29-1.47-6.14-2.15c-3.21-0.79-5.83-1.63-7.85-2.5c-2.02-0.88-3.63-2.03-4.84-3.46c-1.21-1.43-1.82-3.19-1.82-5.28
		c0-1.86,0.56-3.63,1.67-5.28c1.12-1.65,2.77-2.98,4.94-3.97c2.18-0.99,4.8-1.48,7.88-1.48c2.41,0,4.58,0.25,6.51,0.75
		c1.93,0.5,3.53,1.17,4.82,2.01c1.29,0.84,2.27,1.77,2.94,2.8c0.67,1.02,1.01,2.02,1.01,3c0,1.07-0.36,1.94-1.08,2.63
		c-0.72,0.68-1.73,1.03-3.05,1.03c-0.96,0-1.77-0.27-2.44-0.82c-0.67-0.55-1.44-1.36-2.3-2.46c-0.71-0.91-1.54-1.64-2.49-2.18
		c-0.96-0.54-2.26-0.82-3.9-0.82c-1.69,0-3.09,0.36-4.21,1.07c-1.11,0.72-1.67,1.61-1.67,2.67c0,0.98,0.41,1.78,1.23,2.41
		c0.82,0.62,1.93,1.14,3.32,1.55c1.39,0.41,3.3,0.9,5.74,1.49c2.89,0.71,5.25,1.55,7.08,2.52c1.83,0.98,3.22,2.13,4.16,3.46
		C296.27,129.69,296.75,131.21,296.75,132.91z"/>
	<path class="st1" d="M327.17,146.27l0.86-2.08l-11.46-28.86c-0.71-1.66-1.06-2.86-1.06-3.61c0-0.8,0.2-1.53,0.61-2.22
		c0.41-0.69,0.97-1.23,1.69-1.64c0.72-0.41,1.46-0.61,2.23-0.61c1.34,0,2.35,0.42,3.03,1.28c0.69,0.85,1.29,2.08,1.81,3.67
		l7.87,22.93l7.47-21.32c0.59-1.73,1.12-3.08,1.6-4.06c0.48-0.98,0.98-1.64,1.52-1.98c0.53-0.34,1.29-0.51,2.27-0.51
		c0.7,0,1.38,0.19,2.03,0.56c0.65,0.37,1.15,0.88,1.5,1.52c0.35,0.63,0.53,1.31,0.53,2.01c-0.09,0.43-0.24,1.04-0.44,1.84
		c-0.21,0.8-0.45,1.6-0.75,2.42l-12.13,31.78c-1.05,2.8-2.07,4.99-3.07,6.58c-0.99,1.59-2.32,2.81-3.97,3.67
		c-1.65,0.85-3.87,1.28-6.66,1.28c-2.72,0-4.77-0.29-6.13-0.89c-1.37-0.59-2.05-1.66-2.05-3.24c0-1.07,0.32-1.89,0.97-2.47
		c0.65-0.58,1.61-0.87,2.88-0.87c0.5,0,0.99,0.07,1.46,0.21c0.59,0.14,1.1,0.2,1.53,0.2c1.07,0,1.91-0.16,2.52-0.48
		c0.61-0.32,1.16-0.87,1.65-1.66C325.97,148.95,326.53,147.79,327.17,146.27z"/>
	<path class="st1" d="M398.63,132.91c0,2.57-0.63,4.78-1.88,6.6c-1.26,1.83-3.1,3.22-5.55,4.16c-2.45,0.94-5.43,1.42-8.93,1.42
		c-3.35,0-6.22-0.51-8.61-1.53c-2.39-1.03-4.15-2.3-5.29-3.84c-1.14-1.53-1.71-3.08-1.71-4.62c0-1.02,0.36-1.9,1.09-2.63
		c0.73-0.73,1.66-1.09,2.78-1.09c0.98,0,1.73,0.24,2.25,0.71c0.52,0.48,1.03,1.15,1.5,2.01c0.96,1.66,2.1,2.9,3.44,3.72
		c1.33,0.81,3.15,1.23,5.45,1.23c1.87,0,3.4-0.42,4.6-1.24c1.2-0.83,1.79-1.78,1.79-2.85c0-1.64-0.62-2.83-1.86-3.57
		c-1.24-0.75-3.29-1.47-6.14-2.15c-3.22-0.79-5.83-1.63-7.85-2.5c-2.02-0.88-3.63-2.03-4.85-3.46c-1.21-1.43-1.81-3.19-1.81-5.28
		c0-1.86,0.56-3.63,1.68-5.28c1.12-1.65,2.76-2.98,4.94-3.97c2.17-0.99,4.8-1.48,7.87-1.48c2.42,0,4.59,0.25,6.51,0.75
		c1.93,0.5,3.53,1.17,4.82,2.01c1.29,0.84,2.27,1.77,2.94,2.8c0.68,1.02,1.01,2.02,1.01,3c0,1.07-0.36,1.94-1.07,2.63
		c-0.72,0.68-1.74,1.03-3.06,1.03c-0.96,0-1.76-0.27-2.44-0.82c-0.67-0.55-1.43-1.36-2.3-2.46c-0.71-0.91-1.54-1.64-2.5-2.18
		c-0.96-0.54-2.26-0.82-3.9-0.82c-1.69,0-3.09,0.36-4.21,1.07c-1.12,0.72-1.67,1.61-1.67,2.67c0,0.98,0.41,1.78,1.23,2.41
		c0.82,0.62,1.93,1.14,3.32,1.55c1.39,0.41,3.3,0.9,5.74,1.49c2.89,0.71,5.25,1.55,7.08,2.52c1.83,0.98,3.22,2.13,4.16,3.46
		C398.16,129.69,398.63,131.21,398.63,132.91z"/>
	<path class="st2" d="M112.91,94.88c0,2.3-1.7,4.17-3.78,4.17h-4.2c-2.09,0-3.78-1.86-3.78-4.17v-4.63c0-2.3,1.69-4.17,3.78-4.17
		h4.2c2.09,0,3.78,1.87,3.78,4.17V94.88z M110.8,91.07c0-1.48-1.09-2.67-2.43-2.67h-2.7c-1.34,0-2.43,1.2-2.43,2.67v2.98
		c0,1.48,1.09,2.68,2.43,2.68h2.7c1.34,0,2.43-1.2,2.43-2.68V91.07z"/>
	<g>
		<path class="st2" d="M14.92,110.29c0,2.41-1.95,4.36-4.35,4.36H5.73c-2.41,0-4.36-1.95-4.36-4.36v-4.84c0-2.4,1.95-4.36,4.36-4.36
			h4.84c2.41,0,4.35,1.95,4.35,4.36V110.29z M12.5,106.32c0-1.55-1.26-2.8-2.8-2.8H6.59c-1.55,0-2.8,1.25-2.8,2.8v3.11
			c0,1.55,1.26,2.8,2.8,2.8H9.7c1.54,0,2.8-1.26,2.8-2.8V106.32z"/>
		<path class="st2" d="M30.35,110.29c0,2.41-1.95,4.36-4.36,4.36h-4.84c-2.41,0-4.35-1.95-4.35-4.36v-4.84
			c0-2.4,1.95-4.36,4.35-4.36h4.84c2.41,0,4.36,1.95,4.36,4.36V110.29z M27.93,106.32c0-1.55-1.25-2.8-2.8-2.8h-3.11
			c-1.55,0-2.8,1.25-2.8,2.8v3.11c0,1.55,1.25,2.8,2.8,2.8h3.11c1.55,0,2.8-1.26,2.8-2.8V106.32z"/>
		<path class="st0" d="M14.92,125.53c0,2.41-1.95,4.35-4.35,4.35H5.73c-2.41,0-4.36-1.95-4.36-4.35v-4.84c0-2.4,1.95-4.36,4.36-4.36
			h4.84c2.41,0,4.35,1.95,4.35,4.36V125.53z M12.5,121.55c0-1.55-1.26-2.8-2.8-2.8H6.59c-1.55,0-2.8,1.26-2.8,2.8v3.11
			c0,1.55,1.26,2.8,2.8,2.8H9.7c1.54,0,2.8-1.25,2.8-2.8V121.55z"/>
		<path class="st0" d="M30.35,125.53c0,2.41-1.95,4.35-4.36,4.35h-4.84c-2.41,0-4.35-1.95-4.35-4.35v-4.84
			c0-2.4,1.95-4.36,4.35-4.36h4.84c2.41,0,4.36,1.95,4.36,4.36V125.53z M27.93,121.55c0-1.55-1.25-2.8-2.8-2.8h-3.11
			c-1.55,0-2.8,1.26-2.8,2.8v3.11c0,1.55,1.25,2.8,2.8,2.8h3.11c1.55,0,2.8-1.25,2.8-2.8V121.55z"/>
		<path class="st2" d="M14.98,140.84c0,2.41-1.95,4.36-4.35,4.36H5.78c-2.41,0-4.36-1.95-4.36-4.36v-4.84
			c0-2.41,1.95-4.36,4.36-4.36h4.84c2.4,0,4.35,1.95,4.35,4.36V140.84z M12.56,136.87c0-1.55-1.25-2.8-2.8-2.8H6.64
			c-1.55,0-2.8,1.25-2.8,2.8v3.11c0,1.55,1.26,2.8,2.8,2.8h3.11c1.55,0,2.8-1.25,2.8-2.8V136.87z"/>
		<path class="st0" d="M30.41,140.84c0,2.41-1.95,4.36-4.36,4.36h-4.84c-2.4,0-4.36-1.95-4.36-4.36v-4.84
			c0-2.41,1.96-4.36,4.36-4.36h4.84c2.41,0,4.36,1.95,4.36,4.36V140.84z M27.99,136.87c0-1.55-1.25-2.8-2.8-2.8h-3.12
			c-1.54,0-2.8,1.25-2.8,2.8v3.11c0,1.55,1.26,2.8,2.8,2.8h3.12c1.55,0,2.8-1.25,2.8-2.8V136.87z"/>
		<path class="st0" d="M45.75,125.53c0,2.41-1.95,4.35-4.36,4.35h-4.84c-2.41,0-4.36-1.95-4.36-4.35v-4.84
			c0-2.4,1.95-4.36,4.36-4.36h4.84c2.41,0,4.36,1.95,4.36,4.36V125.53z M43.33,121.55c0-1.55-1.26-2.8-2.8-2.8h-3.11
			c-1.54,0-2.8,1.26-2.8,2.8v3.11c0,1.55,1.25,2.8,2.8,2.8h3.11c1.54,0,2.8-1.25,2.8-2.8V121.55z"/>
		<path class="st2" d="M45.81,140.84c0,2.41-1.95,4.36-4.36,4.36h-4.84c-2.41,0-4.35-1.95-4.35-4.36v-4.84
			c0-2.41,1.95-4.36,4.35-4.36h4.84c2.41,0,4.36,1.95,4.36,4.36V140.84z M43.39,136.87c0-1.55-1.25-2.8-2.8-2.8h-3.11
			c-1.55,0-2.8,1.25-2.8,2.8v3.11c0,1.55,1.25,2.8,2.8,2.8h3.11c1.55,0,2.8-1.25,2.8-2.8V136.87z"/>
	</g>
</g>
</svg>
