<?xml version="1.0" encoding="UTF-8"?><svg id="Layer_1" xmlns="http://www.w3.org/2000/svg" viewBox="0 0 73.88 33.08"><path d="M15.18,8.96h-1.8V1.75h-2.59V.18h6.99v1.58h-2.6v7.21Z" style="fill:#5f4b8b; stroke-width:0px;"/><path d="M20.29,8.96h-1.68V3.11h1.46l.06,1.01c.2-.36.46-.63.8-.83s.72-.3,1.15-.3c.12,0,.25,0,.38.03s.26.04.39.08l-.21,1.51c-.26-.07-.5-.11-.73-.11-.32,0-.61.07-.85.22s-.43.35-.57.61-.2.56-.2.91v2.73Z" style="fill:#5f4b8b; stroke-width:0px;"/><path d="M25.31,8.96h-1.68V3.11h1.68v5.86ZM24.47,1.71c-.22,0-.41-.08-.56-.23s-.23-.35-.23-.57.08-.41.23-.56.34-.23.56-.23.42.08.57.23.23.34.23.56-.08.41-.23.57-.34.23-.57.23Z" style="fill:#5f4b8b; stroke-width:0px;"/><path d="M28.91,8.96h-1.68v-4.36h-1.03v-1.5h1.03v-.91c0-.42.1-.8.3-1.13s.47-.59.82-.78.75-.28,1.19-.28c.28,0,.57.04.86.12s.58.21.87.38l-.64,1.31c-.12-.1-.26-.18-.4-.23s-.28-.07-.41-.07c-.26,0-.47.09-.65.27s-.26.43-.26.74v.59h1.75v1.5h-1.75v4.36Z" style="fill:#5f4b8b; stroke-width:0px;"/><path d="M37.2,8.31c-.73.52-1.52.77-2.38.77-.64,0-1.22-.14-1.73-.41s-.91-.65-1.21-1.12-.44-1.01-.44-1.6.13-1.07.4-1.52.63-.8,1.09-1.05.98-.39,1.57-.39,1.14.14,1.6.42c.46.28.82.68,1.08,1.18s.39,1.09.39,1.75v.19h-4.32c.07.23.18.43.34.61s.36.31.6.41.51.15.82.15c.6,0,1.15-.19,1.67-.58l.52,1.18ZM33.17,5.68h2.84c-.03-.25-.11-.48-.24-.67s-.29-.34-.5-.45-.43-.16-.69-.16-.49.06-.69.17-.36.27-.49.46-.21.41-.24.66Z" style="fill:#5f4b8b; stroke-width:0px;"/><path d="M43.82,8.03c-.29.33-.63.58-1.05.77s-.87.28-1.37.28c-.6,0-1.14-.13-1.61-.4s-.85-.63-1.12-1.09-.41-.98-.41-1.56.14-1.11.41-1.57.64-.82,1.12-1.08,1.01-.4,1.61-.4c.49,0,.95.09,1.36.28s.76.44,1.05.76l-.99,1.04c-.15-.18-.34-.31-.58-.41s-.48-.15-.73-.15c-.29,0-.55.07-.79.2s-.41.31-.54.54-.2.49-.2.79.07.57.2.8.31.42.54.55.49.2.79.2c.25,0,.5-.05.73-.15s.43-.24.57-.41l1,1.03Z" style="fill:#5f4b8b; stroke-width:0px;"/><path d="M48.89,8.81c-.45.18-.88.27-1.31.27s-.82-.09-1.16-.28-.59-.45-.78-.78-.28-.72-.28-1.16v-2.26h-1.03v-1.5h1.11v-1.46h1.59v1.46h1.62v1.5h-1.62v1.96c0,.32.09.57.26.75s.39.27.66.27c.24,0,.47-.07.7-.22l.23,1.46Z" style="fill:#5f4b8b; stroke-width:0px;"/><path d="M54.97,8.96h-1.46l-.09-.7c-.21.26-.48.46-.8.6s-.66.21-1.04.21c-.41,0-.78-.08-1.1-.24s-.57-.38-.76-.66-.28-.6-.28-.95c0-.38.1-.71.3-.99s.47-.51.82-.67.75-.24,1.19-.24c.26,0,.52.03.79.09s.51.14.74.25v-.15c0-.23-.07-.44-.2-.61s-.31-.3-.54-.4-.48-.14-.76-.14-.54.04-.8.13-.51.21-.73.39l-.46-1.28c.39-.2.79-.36,1.2-.46s.8-.16,1.17-.16c.57,0,1.06.11,1.48.34s.74.54.97.95.34.89.34,1.45v3.24ZM51.95,7.79c.22,0,.44-.05.64-.15s.37-.23.5-.4.19-.35.2-.56v-.04c-.17-.12-.36-.21-.57-.27s-.42-.1-.64-.1c-.32,0-.58.07-.79.21s-.3.32-.3.54c0,.14.04.27.13.39s.2.21.34.27.31.1.49.1Z" style="fill:#5f4b8b; stroke-width:0px;"/><path d="M15.18,20.96h-1.8v-7.21h-2.59v-1.58h6.99v1.58h-2.6v7.21Z" style="fill:#5f4b8b; stroke-width:0px;"/><path d="M23.07,20.31c-.73.52-1.52.77-2.38.77-.64,0-1.22-.14-1.73-.41s-.91-.65-1.21-1.12-.44-1.01-.44-1.6.13-1.07.4-1.52.63-.8,1.09-1.05.98-.39,1.57-.39,1.14.14,1.6.42.82.68,1.08,1.18.39,1.09.39,1.75v.19h-4.32c.07.23.18.43.34.61s.36.31.6.41.51.15.82.15c.6,0,1.15-.19,1.67-.58l.52,1.18ZM19.04,17.68h2.84c-.03-.25-.11-.48-.24-.67s-.29-.34-.5-.45-.43-.16-.69-.16-.49.06-.69.17-.36.27-.49.46-.21.41-.24.66Z" style="fill:#5f4b8b; stroke-width:0px;"/><path d="M29.7,20.03c-.29.33-.63.58-1.05.77s-.87.28-1.37.28c-.6,0-1.14-.13-1.61-.4s-.85-.63-1.12-1.09-.41-.98-.41-1.56.14-1.11.41-1.57.64-.82,1.12-1.08,1.01-.4,1.61-.4c.49,0,.95.09,1.36.28s.76.44,1.05.76l-.99,1.04c-.15-.18-.34-.31-.58-.41s-.48-.15-.73-.15c-.29,0-.55.07-.79.2s-.41.31-.54.54-.2.49-.2.79.07.57.2.8.31.42.54.55.49.2.79.2c.25,0,.5-.05.73-.15s.43-.24.57-.41l1,1.03Z" style="fill:#5f4b8b; stroke-width:0px;"/><path d="M30.73,20.96v-8.79h1.68v3.62c.42-.54,1.03-.81,1.82-.81.74,0,1.31.23,1.73.68.41.46.62,1.09.62,1.91v3.39h-1.68v-2.94c0-.49-.11-.87-.32-1.13s-.52-.4-.9-.4-.7.13-.93.4-.33.64-.33,1.12v2.94h-1.68Z" style="fill:#5f4b8b; stroke-width:0px;"/><path d="M11.39,32.96v-8.79h5.5v1.58h-3.69v2h3.45v1.58h-3.45v3.63h-1.8Z" style="fill:#5f4b8b; stroke-width:0px;"/><path d="M20.69,33.08c-.6,0-1.14-.13-1.62-.4s-.85-.62-1.12-1.08-.41-.98-.41-1.57.14-1.1.41-1.56.65-.82,1.12-1.09,1.02-.4,1.62-.4,1.14.13,1.61.4.84.63,1.11,1.09.41.98.41,1.56-.14,1.11-.41,1.57-.64.82-1.11,1.08-1.01.4-1.61.4ZM20.68,31.58c.27,0,.51-.07.72-.2s.38-.32.5-.55.18-.5.18-.79-.06-.55-.18-.79-.29-.41-.5-.55-.45-.2-.72-.2-.52.07-.73.2-.38.32-.5.55-.18.49-.18.79.06.56.18.79.29.42.5.55.46.2.73.2Z" style="fill:#5f4b8b; stroke-width:0px;"/><path d="M30.61,32.96h-1.37l-.06-.94c-.21.34-.48.61-.82.79s-.74.27-1.2.27c-.75,0-1.34-.23-1.76-.69s-.64-1.09-.64-1.9v-3.39h1.68v3c0,.46.11.82.33,1.08s.51.39.89.39.7-.14.93-.41.34-.64.34-1.1v-2.95h1.68v5.86Z" style="fill:#5f4b8b; stroke-width:0px;"/><path d="M37.89,32.96h-1.68v-3.05c0-.45-.1-.79-.31-1.04s-.5-.38-.86-.38c-.26,0-.49.06-.68.18s-.35.3-.46.52-.16.49-.16.81v2.95h-1.68v-5.86h1.36l.06.94c.21-.34.49-.61.84-.79s.76-.27,1.22-.27c.73,0,1.31.23,1.73.68s.63,1.07.63,1.85v3.45Z" style="fill:#5f4b8b; stroke-width:0px;"/><path d="M45.24,32.96h-1.48l-.09-.8c-.25.28-.55.5-.9.67s-.73.25-1.15.25c-.54,0-1.01-.13-1.43-.4s-.75-.63-.99-1.09-.36-.98-.36-1.56.12-1.11.36-1.57.57-.82.99-1.08.9-.4,1.43-.4c.38,0,.74.07,1.07.21s.62.33.86.58v-3.6h1.68v8.79ZM42.06,31.58c.28,0,.53-.06.75-.19s.4-.3.54-.51.2-.46.2-.74v-.21c0-.28-.07-.52-.2-.74s-.31-.38-.54-.51-.48-.18-.75-.18-.54.07-.77.2-.41.32-.54.55-.2.5-.2.79.07.56.2.79.31.42.54.55.48.2.77.2Z" style="fill:#5f4b8b; stroke-width:0px;"/><path d="M51.89,32.96h-1.46l-.09-.7c-.21.26-.48.46-.8.6s-.66.21-1.04.21c-.41,0-.78-.08-1.1-.24s-.57-.38-.76-.66-.28-.6-.28-.95c0-.38.1-.71.3-.99s.47-.51.82-.67.75-.24,1.19-.24c.26,0,.52.03.79.09s.51.14.74.25v-.15c0-.23-.07-.44-.2-.61s-.31-.3-.54-.4-.48-.14-.76-.14-.54.04-.8.13-.51.21-.73.39l-.46-1.28c.39-.2.79-.36,1.2-.46s.8-.16,1.17-.16c.57,0,1.06.11,1.48.34s.74.54.97.95.34.89.34,1.45v3.24ZM48.87,31.79c.22,0,.44-.05.64-.15s.37-.23.5-.4.19-.35.2-.56v-.04c-.17-.12-.36-.21-.57-.27s-.42-.1-.64-.1c-.32,0-.58.07-.79.21s-.3.32-.3.54c0,.14.04.27.13.39s.2.21.34.27.31.1.49.1Z" style="fill:#5f4b8b; stroke-width:0px;"/><path d="M57.12,32.81c-.45.18-.88.27-1.31.27s-.82-.09-1.16-.28-.59-.45-.78-.78-.28-.72-.28-1.16v-2.26h-1.03v-1.5h1.11v-1.46h1.59v1.46h1.62v1.5h-1.62v1.96c0,.32.09.57.26.75s.39.27.66.27c.24,0,.47-.07.7-.22l.23,1.46Z" style="fill:#5f4b8b; stroke-width:0px;"/><path d="M59.61,32.96h-1.68v-5.86h1.68v5.86ZM58.77,25.71c-.22,0-.41-.08-.56-.23s-.23-.35-.23-.57.08-.41.23-.56.34-.23.56-.23.42.08.57.23.23.34.23.56-.08.41-.23.57-.34.23-.57.23Z" style="fill:#5f4b8b; stroke-width:0px;"/><path d="M63.84,33.08c-.6,0-1.14-.13-1.62-.4s-.85-.62-1.12-1.08-.41-.98-.41-1.57.14-1.1.41-1.56.65-.82,1.12-1.09,1.02-.4,1.62-.4,1.14.13,1.61.4.84.63,1.11,1.09.41.98.41,1.56-.14,1.11-.41,1.57-.64.82-1.11,1.08-1.01.4-1.61.4ZM63.83,31.58c.27,0,.51-.07.72-.2s.38-.32.5-.55.18-.5.18-.79-.06-.55-.18-.79-.29-.41-.5-.55-.45-.2-.72-.2-.52.07-.73.2-.38.32-.5.55-.18.49-.18.79.06.56.18.79.29.42.5.55.46.2.73.2Z" style="fill:#5f4b8b; stroke-width:0px;"/><path d="M73.88,32.96h-1.68v-3.05c0-.45-.1-.79-.31-1.04s-.5-.38-.86-.38c-.26,0-.49.06-.68.18s-.35.3-.46.52-.16.49-.16.81v2.95h-1.68v-5.86h1.36l.06.94c.21-.34.49-.61.84-.79s.76-.27,1.22-.27c.73,0,1.31.23,1.73.68s.63,1.07.63,1.85v3.45Z" style="fill:#5f4b8b; stroke-width:0px;"/><polygon points="0 1.43 7.53 1.43 7.53 8.96 0 1.43" style="fill:#e69a8d; stroke-width:0px;"/><polyline points="0 1.43 1.26 .18 8.79 .18 8.79 7.71 7.53 8.96 7.53 1.46" style="fill:#5f4b8b; stroke-width:0px;"/></svg>