<?xml version="1.0" encoding="utf-8"?>
<!-- Generator: Adobe Illustrator 26.4.1, SVG Export Plug-In . SVG Version: 6.00 Build 0)  -->
<svg version="1.1" xmlns="http://www.w3.org/2000/svg" xmlns:xlink="http://www.w3.org/1999/xlink" x="0px" y="0px"
	 viewBox="0 0 1200 1200" enable-background="new 0 0 1200 1200" xml:space="preserve">
<g id="bg">
	<rect x="-20" y="-20" fill="#1A212B" width="1240" height="1240"/>
</g>
<g id="logo">
	<g>
		<g>
			<path fill="#FFFFFF" d="M353.94,897.435c-5.371-11.327-10.664-23.083-15.886-35.269c-5.225-12.182-10.184-24.235-14.883-36.162
				c-4.701-11.924-9.019-23.339-12.96-34.243c-3.941-10.905-7.347-20.636-10.212-29.197h33.475
				c2.524,7.809,5.331,16.217,8.42,25.219c3.09,9.004,6.241,17.978,9.446,26.918c3.205,8.944,6.276,17.51,9.214,25.703
				c2.938,8.192,5.751,15.265,8.439,21.222c2.533-5.918,5.304-12.973,8.308-21.165c3.005-8.19,6.113-16.756,9.318-25.699
				c3.205-8.941,6.349-17.913,9.439-26.918c3.09-9.001,5.903-17.427,8.439-25.28h32.322c-3.023,8.603-6.498,18.346-10.43,29.227
				c-3.932,10.883-8.231,22.293-12.903,34.228c-4.67,11.939-9.597,24.005-14.784,36.203c-5.189,12.196-10.458,23.934-15.804,35.213
				H353.94z"/>
			<path fill="#FFFFFF" d="M471.457,897.435h-28.999V795.066h28.999V897.435z"/>
			<path fill="#FFFFFF" d="M484.104,846.25c0-7.395,1.198-14.368,3.601-20.921c2.399-6.55,5.869-12.262,10.412-17.127
				c4.539-4.865,10.053-8.724,16.542-11.58c6.487-2.852,13.882-4.281,22.187-4.281c5.45,0,10.443,0.486,14.986,1.46
				c4.54,0.972,8.953,2.369,13.234,4.183l-6.033,23.16c-2.725-1.037-5.711-1.946-8.953-2.725c-3.244-0.778-6.878-1.167-10.898-1.167
				c-8.564,0-14.956,2.661-19.17,7.978c-4.218,5.322-6.325,12.329-6.325,21.019c0,9.214,1.977,16.348,5.936,21.409
				c3.956,5.061,10.865,7.589,20.726,7.589c3.503,0,7.265-0.322,11.288-0.972c4.02-0.648,7.717-1.685,11.093-3.114l4.086,23.743
				c-3.375,1.429-7.589,2.658-12.65,3.698c-5.061,1.036-10.64,1.556-16.737,1.556c-9.342,0-17.388-1.395-24.133-4.183
				c-6.747-2.789-12.294-6.584-16.639-11.385c-4.349-4.799-7.526-10.477-9.537-17.029
				C485.108,861.012,484.104,853.908,484.104,846.25z"/>
			<path fill="#FFFFFF" d="M701.494,829.902c0,11.549-1.688,21.734-5.061,30.555c-3.375,8.825-7.948,16.187-13.72,22.089
				c-5.775,5.906-12.489,10.349-20.143,13.332c-7.657,2.983-15.764,4.476-24.327,4.476s-16.673-1.493-24.327-4.476
				c-7.657-2.983-14.371-7.426-20.143-13.332c-5.775-5.902-10.348-13.264-13.72-22.089c-3.376-8.822-5.061-19.006-5.061-30.555
				c0-11.545,1.685-21.701,5.061-30.457c3.372-8.759,7.945-16.087,13.72-21.993c5.772-5.902,12.486-10.345,20.143-13.331
				c7.654-2.984,15.764-4.476,24.327-4.476s16.67,1.492,24.327,4.476c7.654,2.986,14.368,7.429,20.143,13.331
				c5.772,5.906,10.345,13.234,13.72,21.993C699.806,808.202,701.494,818.357,701.494,829.902z M687.482,829.902
				c0-9.081-1.168-17.223-3.503-24.424c-2.336-7.201-5.645-13.331-9.926-18.392c-4.281-5.061-9.439-8.92-15.473-11.581
				c-6.033-2.657-12.814-3.989-20.337-3.989c-7.526,0-14.304,1.332-20.338,3.989c-6.033,2.661-11.19,6.52-15.472,11.581
				s-7.59,11.19-9.926,18.392c-2.335,7.201-3.503,15.344-3.503,24.424c0,9.083,1.168,17.223,3.503,24.425
				c2.336,7.2,5.645,13.331,9.926,18.392c4.281,5.06,9.439,8.952,15.472,11.677c6.034,2.725,12.812,4.086,20.338,4.086
				c7.523,0,14.304-1.361,20.337-4.086c6.034-2.725,11.191-6.617,15.473-11.677c4.281-5.061,7.59-11.191,9.926-18.392
				C686.313,847.126,687.482,838.985,687.482,829.902z"/>
			<path fill="#FFFFFF" d="M719.299,800.32c3.762-1.037,8.822-2.205,15.181-3.503c6.356-1.295,14.14-1.946,23.354-1.946
				c7.654,0,14.043,1.103,19.17,3.308c5.125,2.208,9.212,5.353,12.262,9.439c3.047,4.087,5.221,8.986,6.519,14.693
				c1.296,5.712,1.947,12.003,1.947,18.878v56.245h-12.65v-52.158c0-7.134-0.487-13.167-1.46-18.099
				c-0.972-4.93-2.597-8.953-4.865-12.066c-2.271-3.115-5.255-5.353-8.952-6.714c-3.698-1.362-8.339-2.045-13.915-2.045
				c-5.97,0-11.127,0.326-15.473,0.973c-4.348,0.651-7.17,1.235-8.466,1.752v88.357h-12.651V800.32z"/>
			<path fill="#FFFFFF" d="M815.535,847.03c0-8.823,1.264-16.509,3.794-23.063c2.531-6.55,5.839-12.033,9.926-16.445
				c4.087-4.409,8.758-7.688,14.012-9.829c5.255-2.141,10.671-3.211,16.251-3.211c12.325,0,22.154,4.023,29.485,12.067
				c7.328,8.046,10.996,20.435,10.996,37.172c0,1.04-0.034,2.077-0.098,3.114c-0.067,1.039-0.164,2.014-0.292,2.92h-70.646
				c0.389,12.328,3.436,21.797,9.148,28.414c5.708,6.617,14.791,9.926,27.246,9.926c6.875,0,12.325-0.648,16.348-1.947
				c4.02-1.295,6.939-2.399,8.758-3.309l2.336,10.899c-1.819,1.04-5.225,2.271-10.218,3.697c-4.995,1.426-10.867,2.141-17.612,2.141
				c-8.825,0-16.348-1.298-22.576-3.891c-6.228-2.595-11.355-6.228-15.375-10.899c-4.023-4.671-6.943-10.217-8.759-16.64
				C816.441,861.722,815.535,854.686,815.535,847.03z M886.96,839.049c-0.261-10.509-2.725-18.684-7.395-24.521
				c-4.671-5.839-11.288-8.759-19.851-8.759c-4.543,0-8.597,0.91-12.164,2.725c-3.57,1.819-6.684,4.251-9.342,7.298
				c-2.661,3.051-4.738,6.587-6.228,10.607c-1.493,4.023-2.369,8.24-2.628,12.65H886.96z"/>
		</g>
		<g>
			<g>
				<linearGradient id="SVGID_1_" gradientUnits="userSpaceOnUse" x1="675.1163" y1="379.6452" x2="675.1163" y2="652.3094">
					<stop  offset="0" style="stop-color:#FF0037"/>
					<stop  offset="1" style="stop-color:#9E1F63"/>
				</linearGradient>
				<path fill="url(#SVGID_1_)" d="M650,379.645v161.603c0,11.677-5.103,22.771-13.968,30.37L600,599.643l80.916,62.936
					l22.148-16.913c29.727-22.702,47.169-57.967,47.169-95.371v-170.65H650z"/>
				
					<linearGradient id="SVGID_00000154415225923399444450000000351179972198357386_" gradientUnits="userSpaceOnUse" x1="565.3417" y1="722.6075" x2="565.3417" y2="387.5913">
					<stop  offset="0" style="stop-color:#FF0037"/>
					<stop  offset="1" style="stop-color:#9E1F63"/>
				</linearGradient>
				<path fill="url(#SVGID_00000154415225923399444450000000351179972198357386_)" d="M563.968,571.618
					c-8.866-7.599-13.968-18.693-13.968-30.37V419.645h-50v-40h-50.233v170.65c0,37.404,17.442,72.669,47.169,95.371l22.148,16.913
					L600,724.372l80.916-61.792L600,599.643L563.968,571.618z"/>
			</g>
			<rect x="520" y="339.645" fill="#9E1F63" width="40" height="40"/>
			<rect x="580" y="319.645" fill="#9E1F63" width="20" height="20"/>
			<rect x="550" y="299.645" fill="#9E1F63" width="10" height="10"/>
		</g>
	</g>
</g>
</svg>
