<?xml version="1.0" encoding="utf-8"?>
<!-- Generator: Adobe Illustrator 27.0.1, SVG Export Plug-In . SVG Version: 6.00 Build 0)  -->
<svg version="1.1" id="Layer_1" xmlns="http://www.w3.org/2000/svg" xmlns:xlink="http://www.w3.org/1999/xlink" x="0px" y="0px"
	 viewBox="0 0 1200 1200" enable-background="new 0 0 1200 1200" xml:space="preserve">
<g>
	<g>
		<path fill="#1A212B" d="M268.853,1000.218c-7.221-15.229-14.337-31.034-21.358-47.417c-7.024-16.378-13.692-32.583-20.009-48.618
			c-6.321-16.031-12.125-31.378-17.424-46.038c-5.299-14.662-9.878-27.744-13.73-39.254h45.005
			c3.393,10.499,7.167,21.803,11.32,33.905c4.154,12.105,8.391,24.171,12.699,36.19c4.309,12.024,8.438,23.542,12.387,34.556
			c3.95,11.013,7.732,20.522,11.345,28.532c3.405-7.956,7.13-17.441,11.169-28.456c4.04-11.01,8.218-22.528,12.527-34.551
			c4.309-12.02,8.536-24.084,12.69-36.19c4.154-12.101,7.936-23.43,11.345-33.987h43.455c-4.064,11.566-8.736,24.665-14.023,39.294
			c-5.287,14.632-11.067,29.971-17.347,46.018c-6.279,16.051-12.902,32.274-19.877,48.673c-6.976,16.396-14.06,32.178-21.247,47.341
			H268.853z"/>
		<path fill="#1A212B" d="M426.848,1000.218H387.86V862.589h38.987V1000.218z"/>
		<path fill="#1A212B" d="M443.851,931.403c0-9.943,1.611-19.318,4.841-28.128c3.225-8.806,7.89-16.485,13.999-23.027
			c6.103-6.541,13.516-11.728,22.24-15.568c8.721-3.834,18.664-5.756,29.829-5.756c7.327,0,14.04,0.654,20.147,1.964
			c6.104,1.307,12.036,3.185,17.792,5.624l-8.111,31.137c-3.663-1.395-7.678-2.616-12.036-3.663
			c-4.361-1.046-9.247-1.569-14.652-1.569c-11.513,0-20.107,3.577-25.773,10.727c-5.671,7.155-8.504,16.575-8.504,28.259
			c0,12.387,2.657,21.979,7.98,28.783c5.319,6.804,14.608,10.203,27.865,10.203c4.71,0,9.768-0.433,15.177-1.307
			c5.405-0.871,10.376-2.265,14.914-4.187l5.494,31.921c-4.538,1.922-10.203,3.573-17.007,4.972
			c-6.804,1.393-14.305,2.093-22.502,2.093c-12.56,0-23.378-1.876-32.446-5.624c-9.071-3.749-16.528-8.852-22.37-15.307
			c-5.847-6.453-10.119-14.086-12.822-22.895C445.201,951.249,443.851,941.698,443.851,931.403z"/>
		<path fill="#1A212B" d="M736.119,909.424c0,15.528-2.269,29.22-6.804,41.08c-4.538,11.864-10.686,21.762-18.446,29.697
			c-7.764,7.94-16.79,13.914-27.081,17.924c-10.295,4.01-21.194,6.018-32.707,6.018c-11.513,0-22.416-2.008-32.707-6.018
			c-10.295-4.01-19.321-9.984-27.081-17.924c-7.764-7.935-13.913-17.833-18.446-29.697c-4.539-11.86-6.804-25.552-6.804-41.08
			c0-15.522,2.265-29.175,6.804-40.948c4.534-11.776,10.682-21.628,18.446-29.568c7.76-7.935,16.786-13.908,27.081-17.923
			c10.291-4.012,21.194-6.018,32.707-6.018c11.513,0,22.412,2.006,32.707,6.018c10.291,4.014,19.318,9.988,27.081,17.923
			c7.76,7.94,13.908,17.792,18.446,29.568C733.851,880.249,736.119,893.902,736.119,909.424z M717.281,909.424
			c0-12.209-1.571-23.156-4.71-32.837c-3.14-9.682-7.589-17.923-13.345-24.726s-12.69-11.992-20.802-15.569
			c-8.111-3.572-17.228-5.363-27.342-5.363c-10.119,0-19.231,1.791-27.344,5.363c-8.111,3.577-15.045,8.766-20.801,15.569
			c-5.756,6.804-10.205,15.045-13.345,24.726c-3.139,9.682-4.71,20.629-4.71,32.837c0,12.211,1.571,23.156,4.71,32.839
			c3.14,9.68,7.589,17.923,13.345,24.726c5.756,6.802,12.69,12.035,20.801,15.698c8.112,3.663,17.225,5.494,27.344,5.494
			c10.115,0,19.231-1.83,27.342-5.494c8.112-3.663,15.046-8.896,20.802-15.698c5.756-6.804,10.205-15.046,13.345-24.726
			C715.71,932.58,717.281,921.636,717.281,909.424z"/>
		<path fill="#1A212B" d="M760.057,869.653c5.058-1.395,11.86-2.964,20.409-4.71c8.545-1.742,19.011-2.616,31.398-2.616
			c10.291,0,18.88,1.483,25.773,4.447c6.89,2.968,12.385,7.196,16.485,12.69c4.096,5.495,7.019,12.081,8.764,19.755
			c1.743,7.679,2.617,16.137,2.617,25.38v75.618h-17.007v-70.123c0-9.591-0.655-17.702-1.964-24.334
			c-1.307-6.627-3.491-12.036-6.541-16.222c-3.053-4.188-7.064-7.196-12.035-9.027c-4.972-1.832-11.211-2.749-18.708-2.749
			c-8.026,0-14.96,0.438-20.802,1.309c-5.846,0.875-9.64,1.661-11.381,2.355v118.791h-17.008V869.653z"/>
		<path fill="#1A212B" d="M889.442,932.451c0-11.862,1.7-22.195,5.101-31.007c3.402-8.806,7.85-16.177,13.345-22.109
			c5.495-5.928,11.774-10.337,18.839-13.215s14.347-4.317,21.849-4.317c16.57,0,29.784,5.409,39.641,16.223
			C998.068,888.844,1003,905.5,1003,928.002c0,1.399-0.046,2.792-0.132,4.187c-0.09,1.397-0.221,2.707-0.393,3.926h-94.98
			c0.523,16.574,4.62,29.304,12.299,38.201c7.674,8.896,19.885,13.345,36.631,13.345c9.243,0,16.57-0.871,21.979-2.617
			c5.405-1.742,9.329-3.225,11.774-4.449l3.14,14.654c-2.445,1.399-7.024,3.053-13.738,4.971c-6.716,1.918-14.61,2.878-23.679,2.878
			c-11.864,0-21.979-1.746-30.352-5.231c-8.373-3.489-15.267-8.373-20.67-14.654c-5.409-6.28-9.335-13.736-11.776-22.372
			C890.659,952.204,889.442,942.745,889.442,932.451z M985.469,921.722c-0.351-14.129-3.663-25.119-9.943-32.968
			c-6.28-7.85-15.177-11.776-26.689-11.776c-6.108,0-11.558,1.224-16.353,3.663c-4.8,2.445-8.986,5.716-12.56,9.812
			c-3.577,4.102-6.371,8.856-8.373,14.261c-2.008,5.409-3.185,11.079-3.533,17.007H985.469z"/>
	</g>
	<g>
		<g>
			<linearGradient id="SVGID_1_" gradientUnits="userSpaceOnUse" x1="700.6563" y1="304.0785" x2="700.6563" y2="670.6604">
				<stop  offset="0" style="stop-color:#FF0037"/>
				<stop  offset="1" style="stop-color:#9E1F63"/>
			</linearGradient>
			<path fill="url(#SVGID_1_)" d="M666.889,304.078v217.266c0,15.699-6.86,30.614-18.78,40.831l-48.443,37.679l108.787,84.614
				l29.776-22.739c39.967-30.521,63.416-77.933,63.416-128.221v-229.43H666.889z"/>
			
				<linearGradient id="SVGID_00000091706887127754437610000018244573203448826013_" gradientUnits="userSpaceOnUse" x1="553.0705" y1="765.1722" x2="553.0705" y2="314.7616">
				<stop  offset="0" style="stop-color:#FF0037"/>
				<stop  offset="1" style="stop-color:#9E1F63"/>
			</linearGradient>
			<path fill="url(#SVGID_00000091706887127754437610000018244573203448826013_)" d="M551.224,562.175
				c-11.919-10.217-18.78-25.132-18.78-40.831V357.856h-67.222v-53.778h-67.535v229.43c0,50.288,23.449,97.7,63.416,128.221
				l29.777,22.739l108.787,83.076l108.787-83.076l-108.787-84.614L551.224,562.175z"/>
		</g>
		<rect x="492.111" y="250.301" fill="#9E1F63" width="53.778" height="53.778"/>
		<rect x="572.778" y="223.412" fill="#9E1F63" width="26.889" height="26.889"/>
		<rect x="532.444" y="196.523" fill="#9E1F63" width="13.444" height="13.444"/>
	</g>
</g>
</svg>
