<?xml version="1.0" encoding="UTF-8"?><svg id="Layer_1" xmlns="http://www.w3.org/2000/svg" viewBox="0 0 365.7 365.7"><defs><style>.cls-1{fill:#00a4a3;}.cls-2{fill:#343088;}</style></defs><g><path class="cls-2" d="M254.31,171.95c-12.14,27.97-39.99,47.53-72.42,47.53-1.32,0-2.63-.03-3.93-.1-41.77-2.05-74.99-36.56-74.99-78.84,0-7.07,.95-13.92,2.7-20.44,1.78-1.9,4.28-3.09,7.06-3.09,5.39,0,9.78,4.43,9.78,9.86v3.17c0,.05-.02,.11-.02,.15v24.01c0,9.93,8.05,18.01,17.94,18.01s17.94-8.08,17.94-18.01v-19.37c0-.07-.02-.12-.02-.19v-7.78c0-5.43,4.39-9.86,9.78-9.86s9.78,4.43,9.78,9.86v27.33c0,9.93,8.04,18.01,17.93,18.01s17.94-8.08,17.94-18.01v-19.37c0-.07-.02-.12-.02-.19v-7.78c0-5.43,4.39-9.86,9.78-9.86s9.78,4.43,9.78,9.86v.64s-.01,.09-.01,.14v26.55c0,9.14,6.82,16.72,15.61,17.86,.75,.1,1.53,.15,2.31,.15,1.06,0,2.09-.11,3.11-.28"/><path class="cls-1" d="M260.82,140.56c0,7.15-.97,14.05-2.74,20.64h0s-.01,.02-.01,.03c-.01,.01-.02,.02-.03,.02h0c-1.77,1.75-4.17,2.83-6.83,2.83-5.39,0-9.78-4.43-9.78-9.86v-5.67c0-.06,.01-.1,.01-.14v-21.52c0-9.93-8.04-18.02-17.93-18.02s-17.94,8.09-17.94,18.02v22c0,.05,.02,.11,.02,.17v5.16c0,5.43-4.39,9.86-9.78,9.86s-9.78-4.43-9.78-9.86v-27.33c0-9.93-8.04-18.02-17.93-18.02s-17.94,8.09-17.94,18.02v22c0,.05,.02,.12,.02,.17v5.16c0,5.43-4.39,9.86-9.78,9.86s-9.78-4.43-9.78-9.86v-3.17c0-.05,.02-.1,.02-.15v-24c0-9.93-8.04-18-17.93-18.02h0c-1.11,0-2.19,.11-3.25,.31,12.13-27.98,39.98-47.54,72.42-47.54,.43,0,.84,0,1.27,.01,43,.68,77.66,35.75,77.66,78.91"/></g><g><g><path class="cls-2" d="M21.25,302.59c-.4-.4-.61-.92-.61-1.56v-40.7c0-.63,.2-1.15,.61-1.56,.4-.4,.92-.61,1.56-.61h9.44c.63,0,1.15,.2,1.56,.61,.4,.4,.61,.92,.61,1.56v2.95c1.33-1.73,3.1-3.16,5.33-4.29,2.22-1.13,4.72-1.69,7.49-1.69,6.35,0,10.74,2.48,13.16,7.45,1.39-2.19,3.32-3.98,5.8-5.37,2.48-1.39,5.14-2.08,7.97-2.08,4.73,0,8.59,1.6,11.56,4.81,2.97,3.2,4.46,7.98,4.46,14.33v24.6c0,.58-.2,1.08-.61,1.52-.4,.43-.92,.65-1.56,.65h-10.05c-.64,0-1.17-.2-1.6-.61-.43-.4-.65-.92-.65-1.56v-23.99c0-2.89-.59-4.96-1.78-6.24-1.18-1.27-2.79-1.9-4.81-1.9-1.85,0-3.38,.65-4.59,1.95-1.21,1.3-1.82,3.36-1.82,6.19v23.99c0,.58-.2,1.08-.61,1.52-.4,.43-.92,.65-1.56,.65h-10.05c-.64,0-1.16-.2-1.56-.61-.4-.4-.61-.92-.61-1.56v-23.99c0-2.83-.62-4.89-1.86-6.19-1.24-1.3-2.81-1.95-4.72-1.95s-3.39,.65-4.63,1.95c-1.24,1.3-1.86,3.33-1.86,6.11v24.08c0,.58-.2,1.08-.61,1.52-.4,.43-.92,.65-1.56,.65h-10.31c-.64,0-1.16-.2-1.56-.61Z"/><path class="cls-2" d="M102.65,298.43c-3.98-3.75-6.06-9.21-6.24-16.37v-3.03c.23-6.81,2.35-12.14,6.37-15.98,4.01-3.84,9.4-5.76,16.15-5.76,4.91,0,9.05,1,12.43,2.99,3.38,1.99,5.92,4.72,7.62,8.18,1.7,3.46,2.55,7.45,2.55,11.95v2.08c0,.58-.2,1.08-.61,1.52-.4,.43-.92,.65-1.56,.65h-27.71v.61c.12,2.71,.78,4.91,1.99,6.58,1.21,1.68,2.97,2.51,5.28,2.51,1.44,0,2.63-.3,3.55-.91,.92-.61,1.76-1.34,2.51-2.21,.52-.64,.94-1.02,1.26-1.17,.32-.14,.82-.22,1.52-.22h10.74c.52,0,.97,.16,1.34,.48,.37,.32,.56,.74,.56,1.26,0,1.5-.85,3.23-2.55,5.2-1.7,1.96-4.17,3.67-7.4,5.11-3.23,1.44-7.05,2.17-11.43,2.17-6.93,0-12.38-1.88-16.37-5.63Zm23.64-22.34v-.17c0-2.83-.65-5.07-1.95-6.71-1.3-1.65-3.1-2.47-5.41-2.47s-4.03,.82-5.33,2.47c-1.3,1.65-1.95,3.88-1.95,6.71v.17h14.64Z"/><path class="cls-2" d="M148.56,302.59c-.4-.4-.61-.92-.61-1.56v-40.7c0-.63,.2-1.15,.61-1.56,.4-.4,.92-.61,1.56-.61h9.96c.63,0,1.17,.2,1.6,.61,.43,.4,.65,.92,.65,1.56v3.29c1.56-1.9,3.56-3.43,6.02-4.59,2.45-1.15,5.24-1.73,8.36-1.73,5.08,0,9.21,1.72,12.38,5.15,3.17,3.44,4.76,8.24,4.76,14.42v24.16c0,.58-.2,1.08-.61,1.52-.4,.43-.92,.65-1.56,.65h-10.91c-.58,0-1.08-.22-1.52-.65-.43-.43-.65-.94-.65-1.52v-23.64c0-2.71-.66-4.81-1.99-6.28-1.33-1.47-3.23-2.21-5.72-2.21s-4.33,.74-5.72,2.21c-1.39,1.47-2.08,3.57-2.08,6.28v23.64c0,.58-.2,1.08-.61,1.52-.4,.43-.92,.65-1.56,.65h-10.83c-.64,0-1.16-.2-1.56-.61Z"/><path class="cls-2" d="M205.5,298.74c-3.15-3.55-4.86-8.56-5.15-15.03l-.09-3.03,.09-3.12c.23-6.24,1.95-11.17,5.15-14.81,3.2-3.64,7.61-5.46,13.21-5.46,5.25,0,9.5,1.7,12.73,5.11v-18.53c0-.63,.2-1.15,.61-1.56,.4-.4,.92-.61,1.56-.61h10.57c.63,0,1.15,.2,1.56,.61,.4,.41,.61,.92,.61,1.56v57.16c0,.58-.2,1.08-.61,1.52-.4,.43-.92,.65-1.56,.65h-9.79c-.58,0-1.08-.22-1.52-.65-.43-.43-.65-.94-.65-1.52v-2.77c-3.18,3.87-7.68,5.8-13.51,5.8s-10.06-1.78-13.21-5.33Zm23.77-8.75c1.27-1.65,1.99-3.77,2.17-6.37,.06-.75,.09-1.85,.09-3.29s-.03-2.45-.09-3.2c-.12-2.37-.84-4.33-2.17-5.89-1.33-1.56-3.26-2.34-5.8-2.34-2.71,0-4.66,.81-5.85,2.42-1.18,1.62-1.86,3.84-2.04,6.67-.06,.58-.09,1.47-.09,2.68s.03,2.11,.09,2.68c.17,2.83,.85,5.05,2.04,6.67,1.18,1.62,3.13,2.42,5.85,2.42s4.53-.82,5.8-2.47Z"/><path class="cls-2" d="M278.2,251.06c-.4-.4-.61-.92-.61-1.56v-7.79c0-.64,.2-1.15,.61-1.56,.4-.4,.92-.61,1.56-.61h10.39c.63,0,1.15,.2,1.56,.61,.4,.4,.61,.92,.61,1.56v7.79c0,.64-.2,1.15-.61,1.56-.4,.41-.92,.61-1.56,.61h-10.39c-.64,0-1.16-.2-1.56-.61Zm.09,51.53c-.4-.4-.61-.92-.61-1.56v-40.7c0-.63,.2-1.15,.61-1.56,.4-.4,.92-.61,1.56-.61h10.22c.63,0,1.15,.2,1.56,.61,.4,.4,.61,.92,.61,1.56v40.7c0,.58-.2,1.08-.61,1.52-.4,.43-.92,.65-1.56,.65h-10.22c-.64,0-1.16-.2-1.56-.61Z"/><path class="cls-2" d="M305.48,298.95c-3.87-3.41-5.98-8.2-6.32-14.38-.06-.75-.09-2.05-.09-3.9s.03-3.15,.09-3.9c.35-6.12,2.51-10.9,6.5-14.33,3.98-3.43,9.44-5.15,16.37-5.15s12.47,1.72,16.45,5.15c3.98,3.44,6.15,8.21,6.5,14.33,.06,.75,.09,2.05,.09,3.9s-.03,3.15-.09,3.9c-.35,6.18-2.45,10.97-6.32,14.38-3.87,3.41-9.41,5.11-16.63,5.11s-12.67-1.7-16.54-5.11Zm22.17-7.75c1.21-1.53,1.91-3.88,2.08-7.06,.06-.58,.09-1.73,.09-3.46s-.03-2.89-.09-3.46c-.17-3.12-.88-5.46-2.12-7.02-1.24-1.56-3.1-2.34-5.59-2.34-4.79,0-7.33,3.12-7.62,9.35l-.09,3.46,.09,3.46c.12,3.18,.79,5.53,2.04,7.06,1.24,1.53,3.1,2.3,5.59,2.3s4.42-.76,5.63-2.3Z"/></g><circle class="cls-2" cx="261.91" cy="295.35" r="7.84"/></g></svg>