<svg id="Layer_1" data-name="Layer 1" xmlns="http://www.w3.org/2000/svg" width="10cm" height="2.54cm" viewBox="0 0 283.46 72.08"><defs><style>.cls-1{fill:#272d68;}.cls-2{fill:#ffcd1a;}.cls-3{fill:#fff;}</style></defs><path class="cls-1" d="M89.9,49.28l-8-24.09h5.28l4.86,16.2,5.48-16.2h3.06l5.58,16.2L111,25.19h5.28l-7.95,24.09h-4.08L99.09,33.5,94,49.28Z"/><path class="cls-1" d="M118.32,49.28V24.5h4.47v9.33A6.51,6.51,0,0,1,128.4,31,6.87,6.87,0,0,1,133.29,33a7.24,7.24,0,0,1,2,5.48V49.28h-4.6V39.66c0-2.83-1.47-4.4-3.72-4.4-2.44,0-4.07,1.86-4.07,4.5v9.52Z"/><path class="cls-1" d="M138,28.71a2.89,2.89,0,0,1,0-4,2.92,2.92,0,0,1,4,0,2.89,2.89,0,0,1,0,4A2.92,2.92,0,0,1,138,28.71Z"/><rect class="cls-1" x="137.69" y="31.51" width="4.6" height="17.77"/><path class="cls-1" d="M159.11,48.24a9.2,9.2,0,0,1-5.25,1.47c-4.08,0-6.2-2.42-6.2-7V35.36h-2.9V31.51h2.94V25.22h4.56v6.29h5.87v3.85h-5.87v7c0,2.09.85,3.13,2.51,3.13a6.07,6.07,0,0,0,3-.91Z"/><path class="cls-1" d="M178.17,42H164.84c.65,2.51,2.38,3.78,5.18,3.78A11,11,0,0,0,175.76,44l1.82,3.23a12.85,12.85,0,0,1-7.76,2.45c-3.13,0-5.51-.92-7.17-2.71a9.38,9.38,0,0,1-2.48-6.59,9.11,9.11,0,0,1,2.58-6.68,9.72,9.72,0,0,1,13.07-.23A8.57,8.57,0,0,1,178.33,40,14.78,14.78,0,0,1,178.17,42Zm-13.33-3.42h9a4.28,4.28,0,0,0-4.44-3.72A4.54,4.54,0,0,0,164.84,38.59Z"/><path class="cls-1" d="M180.41,44.65l1.6-1.07a6.69,6.69,0,0,0,6.26,4.2,5.87,5.87,0,0,0,4-1.33,4.24,4.24,0,0,0,1.53-3.33c0-1.86-1.07-3.06-3.16-4.11-.46-.22-1.27-.62-2.48-1.14s-1.95-.88-2.38-1.11c-2.74-1.37-4.11-3.29-4.11-5.74a5.81,5.81,0,0,1,1.89-4.46,7,7,0,0,1,5-1.8,7.92,7.92,0,0,1,6.82,3.59l-1.5,1.21a6.21,6.21,0,0,0-5.28-2.94c-2.84,0-4.86,1.73-4.86,4.31,0,1.66,1,3,2.9,4,.42.23,1.31.65,2.64,1.24s2.25,1,2.74,1.27c2.58,1.4,3.88,3.26,3.88,5.61a6,6,0,0,1-2.18,4.79,8.08,8.08,0,0,1-5.38,1.83A8.42,8.42,0,0,1,180.41,44.65Z"/><path class="cls-1" d="M200.17,34.06a9.3,9.3,0,0,1,13,0,8.85,8.85,0,0,1,2.57,6.48,9,9,0,0,1-2.57,6.53,9.3,9.3,0,0,1-13,0,9,9,0,0,1-2.58-6.53A8.86,8.86,0,0,1,200.17,34.06Zm11.58,11.73a7.46,7.46,0,0,0,2-5.25,7.33,7.33,0,0,0-2-5.21,7.14,7.14,0,0,0-10.18,0,7.26,7.26,0,0,0-2,5.18,7.46,7.46,0,0,0,2,5.25,6.82,6.82,0,0,0,5.09,2.12A6.73,6.73,0,0,0,211.75,45.79Z"/><path class="cls-1" d="M219.48,47.75a7.38,7.38,0,0,1-1.93-5.28V31.84h2v10.6c0,3.35,2,5.44,5.15,5.44s5.18-2.09,5.18-5.48V31.84h2V42.47c0,4.43-2.7,7.24-7.14,7.24A7,7,0,0,1,219.48,47.75Z"/><path class="cls-1" d="M234.78,49.28V31.84h1.86v2.8a5.06,5.06,0,0,1,5.05-3.26,8.38,8.38,0,0,1,2.16.3l-.23,1.86a6,6,0,0,0-1.86-.3c-3.16,0-5,2.48-5,6.1v9.94Z"/><path class="cls-1" d="M247,47.13a9.09,9.09,0,0,1-2.51-6.55A9,9,0,0,1,247,34a8.84,8.84,0,0,1,6.55-2.57,8.46,8.46,0,0,1,7.79,4.49l-1.6.92a6.94,6.94,0,0,0-6.19-3.62,6.77,6.77,0,0,0-5.12,2.09,7.24,7.24,0,0,0-2,5.28,7.3,7.3,0,0,0,2,5.25,6.57,6.57,0,0,0,5,2.05,7.27,7.27,0,0,0,6.29-3.62l1.59,1a7.8,7.8,0,0,1-3.19,3.23,9.39,9.39,0,0,1-4.69,1.21A8.61,8.61,0,0,1,247,47.13Z"/><path class="cls-1" d="M279.9,41.33H265.23c.29,3.88,2.8,6.52,7.08,6.52a10.9,10.9,0,0,0,6.39-2.09l.91,1.5a12.4,12.4,0,0,1-7.34,2.42c-6.42,0-9.06-4.6-9.06-9.17A9.18,9.18,0,0,1,265.59,34a8.12,8.12,0,0,1,6.29-2.57,7.87,7.87,0,0,1,5.81,2.28A8.14,8.14,0,0,1,280,39.8C280,40,280,40.54,279.9,41.33Zm-14.67-1.8H278c0-3.88-2.54-6.32-6.1-6.32S265.62,35.72,265.23,39.53Z"/><circle class="cls-1" cx="36.7" cy="35.94" r="32.6" transform="translate(-2.7 2.98) rotate(-4.49)"/><path class="cls-2" d="M51.38,32.85c-.1.45,1.17-11.25-7.86-15.6V30.52h-2v-16H31.89v16h-2V17.25C19.93,22,22,32.85,22,32.85H19.83v3.09H53.56V32.85Z"/><path class="cls-3" d="M53.56,45V38.73H43.9v1.66a7.2,7.2,0,1,1-14.4,0V38.73H19.83V45h3.93L25,47.83l-2.65,2.34,4.85,5.16L30,52.53l3,1.29v3.66h7.4V53.82l3-1.29,2.77,2.8L51,50.17l-2.65-2.34L49.64,45Z"/><path class="cls-3" d="M43.9,39v-.23h0C43.89,38.81,43.9,38.88,43.9,39Z"/><path class="cls-3" d="M29.51,38.73h0V39C29.5,38.88,29.51,38.81,29.51,38.73Z"/></svg>