<?xml version="1.0" encoding="UTF-8" standalone="no"?>
<!-- Created with Inkscape (http://www.inkscape.org/) -->

<svg
   width="262.50491mm"
   height="210.1196mm"
   viewBox="0 0 262.50491 210.1196"
   version="1.1"
   id="svg233"
   inkscape:version="1.1.1 (c3084ef, 2021-09-22)"
   sodipodi:docname="LOGO3.svg"
   xmlns:inkscape="http://www.inkscape.org/namespaces/inkscape"
   xmlns:sodipodi="http://sodipodi.sourceforge.net/DTD/sodipodi-0.dtd"
   xmlns="http://www.w3.org/2000/svg"
   xmlns:svg="http://www.w3.org/2000/svg">
  <sodipodi:namedview
     id="namedview235"
     pagecolor="#ffffff"
     bordercolor="#666666"
     borderopacity="1.0"
     inkscape:pageshadow="2"
     inkscape:pageopacity="0.0"
     inkscape:pagecheckerboard="0"
     inkscape:document-units="mm"
     showgrid="false"
     inkscape:zoom="0.34165401"
     inkscape:cx="541.48347"
     inkscape:cy="301.47458"
     inkscape:window-width="1340"
     inkscape:window-height="776"
     inkscape:window-x="8"
     inkscape:window-y="25"
     inkscape:window-maximized="0"
     inkscape:current-layer="layer1"
     fit-margin-top="0"
     fit-margin-left="0"
     fit-margin-right="0"
     fit-margin-bottom="0" />
  <defs
     id="defs230" />
  <g
     inkscape:label="图层 1"
     inkscape:groupmode="layer"
     id="layer1"
     transform="translate(-53.646741,-103.47551)">
    <g
       id="g141"
       transform="matrix(2.4657479,0,0,2.4657479,-78.632588,-151.669)">
      <g
         id="g78041"
         transform="matrix(0.35277777,0,0,-0.35277777,71.344055,176.38846)">
        <path
           d="m 0,0 c -1.961,0 -2.941,0.736 -2.941,2.207 0,1.471 0.98,2.206 2.941,2.206 l 2.452,-0.06 c 0.94,0 1.542,0.009 1.808,0.03 0.265,0.021 0.5,0.123 0.705,0.306 0.204,0.184 0.306,0.541 0.306,1.073 v 47.073 c 0,1.961 0.715,2.942 2.146,2.942 1.43,0 2.145,-0.981 2.145,-2.942 V 42.292 c 0,-0.776 0.143,-1.532 0.429,-2.268 1.185,-2.779 2.738,-5.802 4.658,-9.071 0.122,-0.164 0.265,-0.183 0.429,-0.061 4.617,4.372 7.947,8.029 9.991,10.971 1.144,1.634 2.308,1.982 3.494,1.042 1.184,-0.94 1.124,-2.145 -0.184,-3.616 C 24.701,35.039 20.963,31.26 17.162,27.95 16.957,27.786 16.937,27.603 17.101,27.398 22.657,19.348 27.95,14.138 32.976,11.769 34.773,10.91 35.325,9.786 34.631,8.397 33.936,7.008 32.71,6.783 30.953,7.724 27.766,9.439 24.067,12.688 19.859,17.469 15.896,22.005 12.504,27.132 9.685,32.854 9.603,33.017 9.562,32.996 9.562,32.792 V 5.762 C 9.562,4.373 9.378,3.311 9.011,2.575 8.643,1.839 8.244,1.37 7.815,1.165 7.386,0.961 6.701,0.675 5.762,0.307 5.312,0.103 3.392,0 0,0 m -15.2,7.601 c -1.635,-1.104 -2.861,-1.042 -3.678,0.183 -0.818,1.227 -0.389,2.37 1.287,3.433 2.084,1.348 4.597,4.269 7.539,8.764 3.065,4.66 5.291,9.93 6.681,15.815 0.04,0.203 -0.041,0.306 -0.245,0.306 H -15.69 c -1.962,0 -2.943,0.674 -2.943,2.023 0,1.348 0.981,2.022 2.943,2.022 l 12.809,0.184 c 1.227,0 2.288,-0.164 3.188,-0.49 C 1.165,39.473 1.43,38.39 1.104,36.592 -0.041,30.708 -2.309,24.864 -5.7,19.062 -8.929,13.586 -12.096,9.766 -15.2,7.601"
           style="fill:#2b2b2b;fill-opacity:1;fill-rule:nonzero;stroke:none"
           id="path78043" />
      </g>
      <g
         id="g78045"
         transform="matrix(0.35277777,0,0,-0.35277777,96.210405,176.36676)">
        <path
           d="m 0,0 c -1.431,0 -2.146,0.98 -2.146,2.942 v 29.115 c 0,0.204 -0.041,0.223 -0.122,0.06 -2.902,-5.23 -6.395,-10.093 -10.481,-14.587 -4.209,-4.618 -7.744,-7.805 -10.604,-9.562 -1.715,-0.981 -2.942,-0.838 -3.677,0.429 -0.736,1.266 -0.225,2.37 1.532,3.31 2.614,1.43 6.17,4.617 10.665,9.562 4.331,4.781 7.886,9.827 10.665,15.139 0.081,0.163 0.021,0.245 -0.184,0.245 h -19.001 c -1.961,0 -2.942,0.674 -2.942,2.023 0,1.348 0.981,2.022 2.942,2.022 h 20.901 c 0.204,0 0.306,0.102 0.306,0.307 v 11.83 c 0,1.961 0.715,2.941 2.146,2.941 1.389,0 2.084,-0.98 2.084,-2.941 v -11.83 c 0,-0.205 0.102,-0.307 0.307,-0.307 h 21.145 c 1.962,0 2.943,-0.674 2.943,-2.022 0,-1.349 -0.981,-2.023 -2.943,-2.023 H 4.229 c -0.205,0 -0.266,-0.082 -0.184,-0.245 2.778,-5.148 6.415,-10.154 10.91,-15.016 4.495,-4.864 7.988,-7.99 10.482,-9.378 1.756,-0.981 2.247,-2.125 1.47,-3.433 C 26.09,7.273 24.844,7.13 23.169,8.152 20.472,9.868 17.019,13.056 12.811,17.714 8.724,22.249 5.21,27.07 2.268,32.179 2.146,32.342 2.084,32.321 2.084,32.117 V 2.942 C 2.084,0.98 1.389,0 0,0"
           style="fill:#2b2b2b;fill-opacity:1;fill-rule:nonzero;stroke:none"
           id="path78047" />
      </g>
      <g
         id="g78049"
         transform="matrix(0.35277777,0,0,-0.35277777,122.95777,165.46889)">
        <path
           d="m 0,0 c -1.145,-0.776 -2.268,-0.348 -3.371,1.287 -1.145,1.675 -2.983,3.841 -5.517,6.497 -1.348,1.389 -1.573,2.514 -0.674,3.371 0.859,0.859 1.982,0.592 3.372,-0.797 C -2.922,7.008 -0.879,4.76 -0.062,3.616 1.082,2.022 1.104,0.817 0,0 m 0.123,-30.462 c -2.003,0 -2.983,0.715 -2.942,2.145 0.04,1.389 1.042,2.044 3.003,1.962 1.92,-0.082 4.004,-0.062 6.252,0.06 0.572,0.042 0.97,0.174 1.195,0.399 0.224,0.224 0.337,0.623 0.337,1.195 v 16.672 c 0,0.204 -0.082,0.245 -0.245,0.123 l -16.426,-9.44 c -1.717,-0.98 -2.902,-0.879 -3.556,0.307 -0.695,1.226 -0.163,2.308 1.594,3.248 l 18.02,9.746 c 0.408,0.204 0.613,0.53 0.613,0.981 v 20.655 c 0,0.204 -0.103,0.306 -0.306,0.306 H -9.01 c -1.962,0 -2.942,0.654 -2.942,1.962 0,1.266 0.98,1.9 2.942,1.9 H 9.133 c 1.961,0 2.942,-0.981 2.942,-2.942 v -43.518 c 0,-1.512 -0.205,-2.635 -0.613,-3.371 -0.409,-0.736 -1.114,-1.277 -2.114,-1.624 C 8.346,-30.043 7.355,-30.237 6.374,-30.278 5.353,-30.36 4.331,-30.401 3.31,-30.401 Z M -27.214,-0.49 c -1.103,-0.736 -2.186,-0.286 -3.249,1.348 -1.102,1.634 -2.901,3.78 -5.393,6.436 -1.349,1.43 -1.574,2.574 -0.674,3.433 0.857,0.816 1.961,0.53 3.309,-0.859 3.024,-3.064 5.027,-5.332 6.007,-6.804 1.144,-1.592 1.144,-2.779 0,-3.554 m 0.613,-29.911 c -1.961,0 -2.942,0.695 -2.942,2.084 0.04,1.389 1.042,2.044 3.003,1.962 1.634,-0.082 3.433,-0.062 5.394,0.06 0.572,0.042 0.97,0.163 1.195,0.368 0.224,0.204 0.338,0.592 0.338,1.165 v 15.384 c 0,0.204 -0.083,0.266 -0.245,0.185 l -16.55,-9.256 c -1.716,-0.981 -2.902,-0.879 -3.555,0.306 -0.613,1.144 -0.061,2.186 1.655,3.126 l 18.081,9.623 c 0.409,0.205 0.614,0.531 0.614,0.981 v 22.004 c 0,0.204 -0.103,0.306 -0.307,0.306 h -16.243 c -1.961,0 -2.941,0.654 -2.941,1.962 0,1.266 0.98,1.9 2.941,1.9 h 17.592 c 1.961,0 2.941,-0.981 2.941,-2.942 v -43.579 c 0,-1.431 -0.194,-2.513 -0.582,-3.249 -0.389,-0.735 -0.827,-1.195 -1.317,-1.379 -0.492,-0.183 -1.206,-0.438 -2.146,-0.766 -0.49,-0.162 -2.8,-0.245 -6.926,-0.245"
           style="fill:#2b2b2b;fill-opacity:1;fill-rule:nonzero;stroke:none"
           id="path78051" />
      </g>
      <g
         id="g78053"
         transform="matrix(0.35277777,0,0,-0.35277777,145.29407,176.32337)">
        <path
           d="m 0,0 c -1.348,0 -2.022,0.98 -2.022,2.941 v 27.828 c 0,0.204 -0.041,0.204 -0.123,0 -1.593,-4.29 -3.515,-8.336 -5.761,-12.136 -2.289,-3.964 -3.862,-6.375 -4.72,-7.233 -1.39,-1.389 -2.574,-1.573 -3.555,-0.551 -1.022,1.02 -0.818,2.226 0.613,3.616 1.675,1.634 3.84,4.821 6.497,9.561 2.656,4.741 4.658,9.521 6.007,14.343 0.04,0.204 -0.041,0.307 -0.246,0.307 h -6.925 c -1.962,0 -2.943,0.653 -2.943,1.961 0,1.266 0.981,1.9 2.943,1.9 h 7.906 c 0.204,0 0.307,0.102 0.307,0.307 v 9.99 c 0,1.962 0.674,2.942 2.022,2.942 1.349,0 2.023,-0.98 2.023,-2.942 v -9.99 c 0,-0.205 0.102,-0.307 0.306,-0.307 h 8.521 c 1.961,0 2.941,-0.634 2.941,-1.9 0,-1.308 -0.98,-1.961 -2.941,-1.961 H 3.433 c -0.205,0 -0.287,-0.103 -0.245,-0.307 1.429,-4.944 3.227,-9.644 5.393,-14.098 2.288,-4.74 3.984,-7.702 5.088,-8.887 1.348,-1.431 1.471,-2.635 0.367,-3.616 -1.062,-0.941 -2.227,-0.654 -3.493,0.858 -2.493,2.942 -5.293,9.051 -8.397,18.326 -0.083,0.204 -0.123,0.204 -0.123,0 V 2.941 C 2.023,0.98 1.349,0 0,0 m -26.784,0 c -1.309,0 -1.962,0.98 -1.962,2.941 v 27.828 c 0,0.204 -0.041,0.204 -0.122,0 -2.984,-8.418 -5.64,-13.975 -7.969,-16.672 -1.308,-1.471 -2.473,-1.757 -3.493,-0.858 -1.023,0.899 -0.88,2.084 0.429,3.555 1.307,1.43 3.064,4.341 5.271,8.734 2.206,4.392 3.881,8.673 5.026,12.841 0.041,0.204 -0.042,0.307 -0.246,0.307 h -7.171 c -1.96,0 -2.942,0.653 -2.942,1.961 0,1.266 0.982,1.9 2.942,1.9 h 7.968 c 0.204,0 0.307,0.102 0.307,0.307 v 9.99 c 0,1.962 0.653,2.942 1.962,2.942 1.306,0 1.961,-0.98 1.961,-2.942 v -9.99 c 0,-0.205 0.101,-0.307 0.306,-0.307 h 5.639 c 1.962,0 2.942,-0.634 2.942,-1.9 0,-1.308 -0.98,-1.961 -2.942,-1.961 h -5.639 c -0.205,0 -0.306,-0.103 -0.306,-0.307 0,-0.735 0.204,-1.328 0.613,-1.777 l 7.784,-8.765 c 1.307,-1.513 1.389,-2.678 0.245,-3.494 -1.144,-0.858 -1.9,-0.961 -2.268,-0.307 -0.367,0.654 -2.432,3.351 -6.191,8.091 -0.122,0.163 -0.183,0.143 -0.183,-0.061 V 2.941 C -24.823,0.98 -25.478,0 -26.784,0"
           style="fill:#2b2b2b;fill-opacity:1;fill-rule:nonzero;stroke:none"
           id="path78055" />
      </g>
      <g
         id="g78101"
         transform="matrix(0.35277777,0,0,-0.35277777,107.07829,146.69483)">
        <path
           d="M 0,0 C 3.704,0.69 12.803,12.014 11.545,15.328 10.287,18.642 0,19.194 0,19.194 c 0,0 -10.288,-0.552 -11.546,-3.866 C -12.804,12.014 -3.705,0.69 0,0"
           style="fill:#ff8000;fill-opacity:1;fill-rule:nonzero;stroke:none"
           id="path78103" />
      </g>
      <g
         id="g78105"
         transform="matrix(0.35277777,0,0,-0.35277777,83.221695,126.48402)">
        <path
           d="m 0,0 c 14.95,-1 26.4,-11.95 25.57,-24.46 -0.06,-0.91 -0.19,-1.81 -0.37,-2.69 -0.76,0.66 -1.74,1.05 -2.82,1.05 -2.39,0 -4.33,-1.93 -4.33,-4.32 0,-2.2 1.65,-4.01 3.78,-4.28 -5,-6.95 -14.39,-11.3 -24.84,-10.61 -14.95,1 -26.4,11.95 -25.56,24.46 C -27.74,-8.34 -14.95,0.99 0,0"
           style="fill:#2b2b2b;fill-opacity:1;fill-rule:nonzero;stroke:none"
           id="path78107" />
      </g>
      <g
         id="g78109"
         transform="matrix(0.35277777,0,0,-0.35277777,94.654935,135.27263)">
        <path
           d="m 0,0 c -0.492,-7.39 -4.475,-14.117 -11.214,-18.942 -6.768,-4.847 -15.482,-7.19 -24.549,-6.578 -9.179,0.612 -17.584,4.152 -23.665,9.97 -5.902,5.647 -8.885,12.774 -8.398,20.068 0.486,7.294 4.387,13.962 10.986,18.777 4.032,2.942 8.706,4.971 13.892,6.03 3.523,0.719 7.185,0.96 10.885,0.712 9.18,-0.611 17.584,-4.152 23.666,-9.97 C -2.496,14.421 0.486,7.294 0,0 M -31.572,37.403 C -42.474,38.13 -52.995,35.238 -61.19,29.258 -69.586,23.133 -74.559,14.521 -75.191,5.009 c -0.634,-9.512 3.152,-18.708 10.66,-25.892 7.33,-7.013 17.372,-11.276 28.277,-12.003 1.086,-0.072 2.17,-0.108 3.252,-0.108 3.214,0 6.399,0.318 9.506,0.952 17.439,3.561 29.842,16.24 30.861,31.551 0.634,9.513 -3.152,18.708 -10.66,25.892 -7.33,7.013 -17.372,11.275 -28.277,12.002"
           style="fill:#2691bc;fill-opacity:1;fill-rule:nonzero;stroke:none"
           id="path78111" />
      </g>
      <g
         id="g78113"
         transform="matrix(0.35277777,0,0,-0.35277777,140.06438,140.75825)">
        <path
           d="m 0,0 c -6.082,-5.818 -14.486,-9.358 -23.665,-9.97 -9.065,-0.604 -17.78,1.732 -24.549,6.578 -6.74,4.825 -10.723,11.552 -11.215,18.942 -0.486,7.294 2.496,14.421 8.399,20.067 6.08,5.818 14.484,9.359 23.664,9.97 0.94,0.063 1.878,0.094 2.811,0.094 2.741,0 5.447,-0.27 8.075,-0.806 5.185,-1.059 9.859,-3.088 13.891,-6.03 C 4.01,34.031 7.911,27.362 8.397,20.068 8.884,12.774 5.901,5.647 0,0 m 15.763,20.559 c -0.633,9.512 -5.606,18.124 -14,24.249 -8.196,5.979 -18.706,8.871 -29.619,8.145 -10.906,-0.727 -20.948,-4.989 -28.278,-12.002 -7.508,-7.184 -11.294,-16.379 -10.66,-25.892 1.02,-15.311 13.422,-27.991 30.861,-31.551 3.107,-0.634 6.291,-0.952 9.506,-0.952 1.081,0 2.166,0.036 3.252,0.108 10.905,0.727 20.947,4.989 28.278,12.003 7.507,7.183 11.293,16.378 10.66,25.892"
           style="fill:#2691bc;fill-opacity:1;fill-rule:nonzero;stroke:none"
           id="path78115" />
      </g>
      <g
         id="g78117"
         transform="matrix(0.35277777,0,0,-0.35277777,140.61147,133.83947)">
        <path
           d="m 0,0 c 0.141,-2.09 -0.06,-4.14 -0.58,-6.11 -0.73,0.54 -1.63,0.86 -2.6,0.86 -2.389,0 -4.32,-1.93 -4.32,-4.32 0,-1.99 1.33,-3.65 3.16,-4.16 -4.54,-5.95 -12.25,-10.13 -21.22,-10.73 -14.95,-0.99 -27.74,8.34 -28.58,20.85 -0.83,12.51 10.611,23.46 25.56,24.46 C -13.63,21.84 -0.83,12.51 0,0"
           style="fill:#2b2b2b;fill-opacity:1;fill-rule:nonzero;stroke:none"
           id="path78119" />
      </g>
      <g
         id="g78121"
         transform="matrix(0.35277777,0,0,-0.35277777,107.23644,127.22058)">
        <path
           d="m 0,0 c 16.668,34.532 70.474,56.409 70.474,56.409 -19.452,6.267 -44.352,10.029 -71.493,10.029 -27.141,0 -52.041,-3.762 -71.492,-10.029 0,0 53.805,-21.877 70.474,-56.409 l 1.018,-2.597 z"
           style="fill:#3ea6e3;fill-opacity:1;fill-rule:nonzero;stroke:none"
           id="path78123" />
      </g>
      <g
         id="g78125"
         transform="matrix(0.35277777,0,0,-0.35277777,146.58216,107.72048)">
        <path
           d="m 0,0 c -7.471,-20.054 -13.255,-21.443 -13.255,-21.443 l 5.842,20.391 c -63.857,-17.916 -89.727,-51.605 -96.839,-62.876 -1.592,-2.521 -3.998,-4.414 -6.813,-5.394 l -0.256,-0.089 c -0.796,-0.277 -1.661,-0.277 -2.457,0 l -0.256,0.09 c -2.817,0.979 -5.223,2.872 -6.814,5.393 -7.112,11.27 -32.982,44.959 -96.84,62.876 l 5.842,-20.391 c 0,0 -5.783,1.389 -13.254,21.443 l -38.339,12.033 c 0,0 13.499,-46.316 109.999,-72.616 l 33.674,-11.765 -8.069,-2.808 c -1.179,-0.41 -1.959,-1.631 -1.67,-2.845 0.333,-1.396 1.787,-2.168 3.11,-1.706 l 13.845,4.837 13.719,-4.793 c 1.179,-0.412 2.55,0.063 3.074,1.197 0.604,1.304 -0.057,2.806 -1.377,3.265 l -8.2,2.853 33.675,11.765 c 96.5,26.3 109.998,72.616 109.998,72.616 z"
           style="fill:#3ea6e3;fill-opacity:1;fill-rule:nonzero;stroke:none"
           id="path78127" />
      </g>
      <text
         xml:space="preserve"
         style="font-size:9.87778px;line-height:1.25;font-family:sans-serif;letter-spacing:2.24896px;display:inline;stroke-width:0.264583"
         x="66.65448"
         y="188.56245"
         id="text32090-8"><tspan
           sodipodi:role="line"
           id="tspan32088-6"
           style="font-style:normal;font-variant:normal;font-weight:300;font-stretch:normal;font-size:9.87778px;font-family:'Resource Han Rounded CN';-inkscape-font-specification:'Resource Han Rounded CN Light';font-variant-ligatures:normal;font-variant-caps:normal;font-variant-numeric:normal;font-variant-east-asian:normal;stroke-width:0.264583"
           x="66.65448"
           y="188.56245">WINGTECHER</tspan></text>
    </g>
  </g>
</svg>
