<?xml version="1.0" encoding="utf-8"?>
<!-- Generator: Adobe Illustrator 23.0.3, SVG Export Plug-In . SVG Version: 6.00 Build 0)  -->
<svg version="1.1" id="Layer_1" xmlns="http://www.w3.org/2000/svg" xmlns:xlink="http://www.w3.org/1999/xlink" x="0px" y="0px"
	 viewBox="0 0 400 245" style="enable-background:new 0 0 400 245;" xml:space="preserve">
<style type="text/css">
	.st0{fill:#EE3A25;}
	.st1{fill:#B31E3B;}
	.st2{fill:#231F20;}
	.st3{fill:#53CAE5;}
	.st4{fill:#FFFFFF;}
	.st5{fill-rule:evenodd;clip-rule:evenodd;fill:#53CAE5;}
	.st6{fill:#231916;}
	.st7{fill:#3EB4B5;}
	.st8{fill:#171F1F;}
	.st9{fill:#0072BB;}
	.st10{fill:#464646;}
	.st11{fill:#8C8C8C;}
	.st12{fill:#1B1B1C;}
	.st13{opacity:0.4;fill:#4464FB;}
	.st14{opacity:0.8;fill:#4464FB;}
	.st15{opacity:0.6;fill:#4464FB;}
	.st16{opacity:0.5;fill:#4464FB;}
	.st17{opacity:0.9;fill:#4464FB;}
	.st18{opacity:0.7;fill:#4464FB;}
	.st19{opacity:0.3;fill:#4464FB;}
	.st20{fill:#4464FB;}
	.st21{fill:#212D56;}
</style>
<g>
	<polygon class="st0" points="2.85,103.37 19.52,84.26 43.93,84.26 27.33,103.37 	"/>
	<polygon class="st1" points="2.85,103.37 19.52,122.49 43.93,122.49 27.33,103.37 	"/>
	<polygon class="st0" points="2.85,141.61 19.52,122.49 43.93,122.49 27.33,141.61 	"/>
	<polygon class="st1" points="2.85,141.61 19.52,160.73 43.93,160.73 27.33,141.61 	"/>
	<polygon class="st0" points="77.17,84.26 43.93,84.26 60.55,103.37 	"/>
	<polygon class="st1" points="77.17,160.74 43.93,160.74 60.55,141.61 	"/>
	<polygon class="st2" points="155.38,160.73 137.41,129.66 119.33,160.73 108.88,160.73 132.3,121.53 110.38,84.26 121.03,84.26 
		137.41,113.37 153.79,84.26 164.44,84.26 142.42,121.53 166.03,160.73 	"/>
	<rect x="171.64" y="84.26" class="st2" width="9.19" height="76.47"/>
	<polygon class="st2" points="193.54,160.73 193.54,84.26 202.73,84.26 202.73,152.39 234.12,152.39 234.12,160.73 	"/>
	<rect x="241.76" y="84.26" class="st2" width="9.19" height="76.47"/>
	<polygon class="st2" points="311.96,160.73 272.85,101.65 272.85,160.73 263.66,160.73 263.66,84.26 272.16,84.26 311.27,143.11 
		311.27,84.26 320.46,84.26 320.46,160.73 	"/>
	<polygon class="st2" points="372.56,160.73 354.59,129.66 336.5,160.73 326.06,160.73 349.47,121.53 327.55,84.26 338.2,84.26 
		354.59,113.37 370.96,84.26 381.61,84.26 359.59,121.53 383.21,160.73 	"/>
	<path class="st2" d="M391.44,149.22c3.18,0,5.71,2.45,5.71,5.61c0,3.14-2.53,5.64-5.74,5.64c-3.21,0-5.78-2.5-5.78-5.64
		c0-3.16,2.57-5.61,5.78-5.61H391.44z M391.38,150.34c-2.43,0-4.31,2.01-4.31,4.49c0,2.5,1.88,4.47,4.38,4.47
		c2.42,0.04,4.27-1.97,4.27-4.44c0-2.5-1.85-4.51-4.3-4.51H391.38z M390.52,157.72h-1.3v-5.59c0.51-0.09,1.23-0.18,2.15-0.18
		c1.06,0,1.54,0.18,1.91,0.44c0.34,0.24,0.58,0.64,0.58,1.19c0,0.69-0.51,1.13-1.16,1.33v0.09c0.55,0.16,0.82,0.6,0.99,1.35
		c0.17,0.86,0.31,1.17,0.41,1.37h-1.37c-0.17-0.2-0.27-0.69-0.44-1.37c-0.11-0.57-0.45-0.84-1.17-0.84h-0.61V157.72z M390.55,154.59
		h0.62c0.71,0,1.3-0.24,1.3-0.82c0-0.51-0.38-0.86-1.19-0.86c-0.35,0-0.59,0.04-0.72,0.07V154.59z"/>
</g>
</svg>
