<svg xmlns="http://www.w3.org/2000/svg" role="img" viewBox="-13.31 -9.31 692.12 150.12"><title>1Password logo</title><g fill="none" fill-rule="evenodd" stroke="none" stroke-width="1"><path d="M287.28224 35c8.6009 0 17.02047 1.54751 22.09274 2.94677l.43402.12123.40864-2.068h35.06644v11.504l-7.76174.83162 11.0882 38.94731h.97022l12.33562-49.4811h20.92898l11.91982 49.4811h.83161l10.3952-38.9473-7.90035-.83162L399.89347 36H429l-.00195 7.75797a55.71627 55.71627 0 0 0-1.74985 3.80857l-3.2379.63048c-1.8658.26655-2.70643.91753-3.2612 2.56903l-.06525.20302-17.04811 57.24284h-21.8992l-10.811-46.43184h-.83161l-10.9496 46.43184h-24.94845l-17.46392-57.38144c-.53131-1.59393-1.18991-1.91493-2.70774-2.30488l-.20291-.05136-1.22231-.26223.07864.31344v10.50809l-14.7678-.966-1.38054-7.18324c-.13609-1.10501-.41388-1.65681-1.37773-1.93341l-.44054-.12711c-1.86593-.50653-4.95296-.9779-8.39264-.9779-6.90128 0-10.7665 2.62421-10.7665 7.04424 0 4.82989 5.52292 6.4452 12.3708 8.01555l4.62324 1.0522.63964.15204c10.46209 2.51764 21.56288 6.77197 21.56288 22.13317 0 16.8517-13.66226 23.75693-31.19113 23.75693-12.22677 0-24.1916-3.1417-27.10938-4.83674l-.21794-.13508V85.00047l14.7678 1.105 1.38194 7.87265.04312.33662c.15348 1.00883.48902 1.4854 1.6124 1.73438l.3237.10337.3686.10796.41277.11108.4746.11707c1.99095.46962 5.0861.94213 9.04794.94213 7.31235 0 11.45255-2.071 11.45255-7.18183 0-5.43446-5.34121-7.12648-12.21325-8.36432l-3.14305-.56627-1.33879-.2539c-10.76398-2.09595-22.63615-5.89015-22.63615-21.89188C256.78418 42.04564 271.41168 35 287.28224 35zM160.004 35c20.65436 0 29.06765 5.5527 29.23385 24.42496l.00252.57598.00046 33.76455.00465.37057.0118.32947.02267.30211c.10607 1.03578.4843 1.30143 1.786 1.5047l.37067.05339 5.58411.93651V85.00047l14.68726 1.105 1.3744 7.87265c.13395 1.2426.41162 1.7958 1.64649 2.071l.32193.10337.3666.10796.4105.11108.47201.11707c1.9801.46962 5.05837.94213 8.9986.94213 7.27246 0 11.39008-2.071 11.39008-7.18183 0-5.25331-4.96385-7.00952-11.4684-8.2389l-3.84698-.69973-1.3301-.25407-.965-.19368-.93966-.19828c-10.1398-2.19798-20.56657-6.4553-20.56657-21.4917C197.5719 42.04563 212.11962 35 227.9036 35c10.47857 0 20.70173 2.32353 24.8466 3.84957l.4103.15625v20.0277l-14.68726-.966-1.373-7.18323c-.13536-1.10501-.41163-1.65681-1.37022-1.93341-1.78463-.5518-5.079-1.10501-8.785-1.10501-6.86364 0-10.70778 2.62421-10.70778 7.04424 0 4.91316 5.68383 6.49888 12.65674 8.09634l3.26538.7437C243.00248 66.21538 255.22 70.0836 255.22 86.24308 255.22 103.09337 241.63227 110 224.199 110c-11.10479 0-21.9678-2.61636-25.98176-4.36293l-.19186-.08517v2.78989H172.7685l-1.3744-7.45844-.6851-.1376C165.49463 105.85658 158.631 110 147.64974 110 130.35741 110 127.61 98.12294 127.61 89.5581c0-13.67376 8.34214-20.0375 25.1564-21.2356l16.2961-1.13832-.00041-7.86308-.00694-.78255-.0107-.51677-.02742-.75536-.0272-.48992c-.31679-4.92409-1.907-8.10082-9.12396-8.10082l-.84148.006-.54103.01164c-5.59684.15838-8.54575 1.50661-8.63526 8.88586l-.0021.35075-19.35464-1.65962c0-18.45825 16.54889-21.2162 29.13256-21.2695L160.004 35zM657.32976 4l.00468 89.5003.01186.31987c.06623 1.20155.38137 1.4909 1.77866 1.7101L666 96.54237v10.81487h-25.19786L639.4474 99.691l-.9483-.1369C632.80927 105.16689 626.17112 109 616.28164 109 600.2959 109 590 98.73272 590 72.5854c0-27.5163 13.6827-37.92047 28.72014-37.92047 7.67032 0 13.66236 2.60911 18.73227 6.29915l.36934.2719V20.42764c0-1.29692-.48635-2.22524-1.57424-2.66856l-.1869-.06938-7.45098-2.60104L630.09983 4h27.22994zm-78.80131 30c3.09843 0 9.192.5209 11.8607 1.18504l.26359.0692V60.6177l-16.72316-.55744-1.3936-7.38606c-.27872-1.25424-.6968-1.53296-1.81168-1.53296-3.41021 0-7.43766 2.71583-9.64245 4.54574l-.39145.33185.00067 37.1707c.01194 1.9548.20317 2.3856 2.03988 2.53298l13.98582 1.12871V108h-45.57062V96.71186l6.27118-.83615c1.8881-.26973 2.21004-.66997 2.22884-2.59007l.00092-41.02952c0-1.46328-.38094-2.41864-1.62764-2.86609l-.18404-.06046-7.44863-2.62292-.06006-.13773 1.51623-11.17532h24.5273l1.67232 11.14877h.83616C563.4776 39.43503 569.60944 34 578.52846 34zM96.76094 8c25.61498 0 33.36563 13.53693 33.36563 29.4201 0 23.79226-14.24516 33.5064-37.23478 33.6983l-.69932.00291H82.0858l.00207 22.49156.00797.3499.01739.3218c.08811 1.15536.44503 1.43453 1.82202 1.64682l.36723.05232 19.79672 1.10503V108H49.82923l-.00023-.032-.06031.032H1.6074V97.13636l11.7983-.9646c1.79407-.12787 2.15184-.61499 2.19157-2.35586l.00405-.39256V45.9326c0-1.96987-1.48091-1.64486-11.79535 1.8504L0 36.50556 23.57373 23H36.3202l.00046 70.62431.00465.37164.0118.33309c.07043 1.36304.4159 1.70252 1.99265 1.82902l.18745.0137 11.25149.9646.06031.02964.00023-.07726 8.72176-.96743c1.8075-.25685 2.17075-.6348 2.21115-2.36903l.00412-.39283v-70.5799c0-2.002-.2604-2.587-2.02709-2.74807l-.18818-.0152-8.72176-.96601V8h46.93171zm71.91379 69.92466l-9.33207.68469c-8.09337.54691-10.9753 2.59958-10.9753 8.07569 0 5.4775 3.29343 7.53017 7.82137 7.53017 4.52464 0 9.04928-2.44704 12.19515-4.71572l.29085-.21208V77.92466zM624.71257 50.5566c-9.93965 0-13.89991 9.30792-13.98393 21.38485l-.00137.39478c0 13.37104 3.80183 20.81471 12.35594 20.81471 4.4846 0 9.3536-2.60162 12.98888-5.65668l.31752-.27068v-32.5316c-3.39449-2.34338-7.73943-4.13538-11.67704-4.13538zM89.89714 23.16665h-8.09756V56.1569l7.1336-.00063.53992-.00514.79623-.01792.51585-.01885.7586-.03917c8.17356-.50001 16.1903-3.60138 16.1903-17.44044 0-13.14266-8.09755-15.46809-17.83694-15.46809z" fill="#051627"/><g transform="translate(421 12)"><path fill="#FFF" d="M2 58c0 30.92895 25.07202 56 56 56s56-25.07105 56-56c0-30.92798-25.07202-56-56-56S2 27.07202 2 58z"/><path fill="#1A8CFF" d="M58 14c24.30033 0 44 19.69967 44 44 0 24.30124-19.69967 44-44 44S14 82.30124 14 58c0-24.30033 19.69967-44 44-44"/><path fill="#000" fill-rule="nonzero" d="M0 58c0 32.03355 25.96745 58 58 58s58-25.96645 58-58c0-32.03255-25.96745-58-58-58S0 25.96745 0 58zm2 0C2 27.0754 27.06858 2 58 2s56 25.0754 56 56c0 30.92521-25.06826 56-56 56S2 88.92521 2 58z" opacity=".5"/><path fill="#000" fill-opacity=".052" d="M113.92101 54.99998A56.90798 56.90798 0 0 1 114 58c0 30.92795-25.07205 56-56 56S2 88.92795 2 58c0-1.00643.02655-2.00666.07899-3.00002C3.6378 84.533 28.07839 108 58 108c29.69083 0 53.98487-23.1064 55.88088-52.31798l.04013-.68204zM58 8c27.06195 0 49 21.93805 49 49 0 15.12928-6.85672 28.65709-17.63215 37.64565C98.37102 86.24881 104 74.28177 104 61c0-25.4051-20.5949-46-46-46S12 35.5949 12 61c0 13.28177 5.62898 25.24881 14.63144 33.64565C15.85672 85.6571 9 72.12928 9 57 9 29.93805 30.93805 8 58 8z"/><path fill="#000" fill-rule="nonzero" d="M58 14c24.30358 0 44 19.70286 44 44 0 24.29773-19.69612 44-44 44-24.06084 0-43.60562-19.3102-43.9941-43.27246L14 58c0-24.29714 19.69642-44 44-44zm0 2c-23.19577 0-42 18.80423-42 42 0 23.19664 18.80423 42 42 42s42-18.80336 42-42c0-23.19577-18.80423-42-42-42z" opacity=".256"/><path fill="#000" fill-opacity=".25" fill-rule="nonzero" d="M58.22287 23C38.67027 23 23 38.67027 23 58.22287 23 77.40269 38.7429 93 58.22287 93 77.33004 93 93 77.33035 93 58.22287 93 38.74321 77.40208 23 58.22287 23zm-.0014 2C76.22518 25 91 39.77483 91 58.22148 91 76.22608 76.22517 91 58.22148 91 39.77483 91 25 76.22608 25 58.22148 25 39.77483 39.77483 25 58.22148 25z"/><path fill="#F7F7F7" d="M58.22148 25C76.22517 25 91 39.77483 91 58.22148 91 76.22608 76.22517 91 58.22148 91 39.77483 91 25 76.22608 25 58.22148 25 39.77483 39.77483 25 58.22148 25z"/><g transform="translate(41 41)"><path fill="#000" fill-opacity=".05" d="M32 17c0 8.28417-6.71573 15-15 15S2 25.28417 2 17 8.71573 2 17 2s15 6.71583 15 15z"/><path fill="#FFF" fill-rule="nonzero" d="M17 0C7.6112 0 0 7.61123 0 17c0 9.38877 7.6112 17 17 17s17-7.61123 17-17c0-9.38877-7.6112-17-17-17zm0 2c8.28427 0 15 6.71583 15 15s-6.71573 15-15 15S2 25.28417 2 17 8.71573 2 17 2z"/><path fill="#000" fill-opacity=".15" fill-rule="nonzero" d="M17 2c8.28427 0 15 6.71583 15 15s-6.71573 15-15 15S2 25.28417 2 17 8.71573 2 17 2zm0 2C9.82034 4 4 9.82036 4 17s5.82034 13 13 13 13-5.82036 13-13S24.17966 4 17 4z"/></g><g transform="translate(48 32)"><path fill="#FFF" fill-rule="nonzero" d="M15.57685 0H4.42315C1.9511 0 0 2.16457 0 4.77222v10.79187c0 .98155.35408 1.9299.99573 2.64175l1.63947 1.81884c.03823.04242.03823.16153 0 .20394L.99573 22.04746C.35408 22.75932 0 23.70766 0 24.68921v22.53857C0 49.83543 1.9511 52 4.42315 52h11.1537C18.0489 52 20 49.83543 20 47.22778V36.43591c0-.98155-.35408-1.9299-.99573-2.64175l-1.63947-1.81884c-.03823-.04242-.03823-.16153 0-.20394l1.63947-1.81884c.64165-.71186.99573-1.6602.99573-2.64175V4.77222C20 2.16457 18.0489 0 15.57685 0zm-.12713 2.03774C16.8582 2.03774 18 3.33154 18 4.92754v22.37409c0 .51095-.17913 1.00097-.49797 1.36227l-1.59393 1.80613c-.66397.75237-.66397 1.97218 0 2.72455l1.59393 1.80613c.31884.3613.49797.85132.49797 1.36227v10.70947c0 1.596-1.1418 2.88981-2.55028 2.88981H4.55028C3.1418 49.96226 2 48.66846 2 47.07246V24.69836c0-.51095.17913-1.00097.49797-1.36227l1.59393-1.80613c.66397-.75237.66397-1.97218 0-2.72455L2.49797 16.9993C2.17913 16.638 2 16.14797 2 15.63702V4.92755c0-1.596 1.1418-2.88981 2.55028-2.88981h10.89944z"/><path fill="#0A2D4D" d="M2 15.6207V4.89436C2 3.29586 3.1418 2 4.55028 2h10.89944C16.8582 2 18 3.29585 18 4.89436v22.40932c0 .51176-.17913 1.00255-.49797 1.36442l-1.59393 1.80897c-.66397.75355-.66397 1.97529 0 2.72884l1.59393 1.80897c.31884.36187.49797.85266.49797 1.36442v10.72634C18 48.70414 16.8582 50 15.44972 50H4.55028C3.1418 50 2 48.70415 2 47.10564V24.69632c0-.51176.17913-1.00255.49797-1.36442l1.59393-1.80897c.66397-.75355.66397-1.97529 0-2.72884l-1.59393-1.80897C2.17913 16.62325 2 16.13246 2 15.6207z"/><path fill="#000" fill-opacity=".4" fill-rule="nonzero" d="M15.44972 2C16.8582 2 18 3.29585 18 4.89436v22.40932c0 .51176-.17913 1.00255-.49797 1.36442l-1.59393 1.80897c-.66397.75355-.66397 1.97529 0 2.72884l1.59393 1.80897c.31884.36187.49797.85266.49797 1.36442v10.72634C18 48.70414 16.8582 50 15.44972 50H4.55028C3.1418 50 2 48.70415 2 47.10564V24.69632c0-.51176.17913-1.00255.49797-1.36442l1.59393-1.80897c.66397-.75355.66397-1.97529 0-2.72884l-1.59393-1.80897C2.17913 16.62325 2 16.13246 2 15.6207V4.89436C2 3.29586 3.1418 2 4.55028 2h10.89944zm-.28811 2.05436L4.83839 4.04094c-.40439 0-.78425.3792-.8331.91643L4 5.07483v10.6306c0 .03127.00652.05861.01518.078l.01402.02259 1.66983 1.7942c1.3056 1.40286 1.35062 3.60097.13507 5.05867l-.13507.15328-1.66983 1.7942c-.00968.0104-.01943.0308-.02486.05714L4 24.70696v22.2182c0 .5587.3529.97513.75223 1.02817l.08616.00573 10.32322.0134c.40439 0 .78425-.37918.8331-.91642L16 46.93858v-10.6306c0-.03126-.00652-.05861-.01518-.078l-.01402-.02258-1.66983-1.79421c-1.3056-1.40285-1.35062-3.60097-.13507-5.05866l.13507-.15328 1.66983-1.79421c.00968-.0104.01943-.0308.02486-.05713L16 27.30645V5.08825c0-.55869-.3529-.97513-.75223-1.02817l-.08616-.00572z"/></g></g></g></svg>