<svg xmlns="http://www.w3.org/2000/svg" role="img" viewBox="-44.55 -27.05 2316.60 466.60"><title>Accuknox logo</title><path fill="#00095F" d="M427.365 356.641l100.8-245h58.8l99.4 245h-54.95l-24.85-64.4h-101.15l-25.2 64.4h-52.85zm93.8-105h70l-34.65-90.3-35.35 90.3zm287.848 67.8c11 0 21.3-2.3 30.9-6.9 9.6-4.6 18.1-11.2 25.5-19.8l28.5 28.2c-10 11.8-22.8 21.2-38.4 28.2-15.4 7-31.3 10.5-47.7 10.5-15.8 0-30.6-2.8-44.4-8.4-13.6-5.6-25.4-13.2-35.4-22.8-10-9.6-17.9-21-23.7-34.2-5.6-13.2-8.4-27.4-8.4-42.6 0-15.2 2.9-29.4 8.7-42.6 5.8-13.4 13.7-24.9 23.7-34.5 10-9.6 21.8-17.2 35.4-22.8 13.8-5.6 28.5-8.4 44.1-8.4 16.8 0 33.1 3.6 48.9 10.8 15.8 7 28.6 16.5 38.4 28.5l-29.4 29.1c-7.4-9.2-16.1-16.2-26.1-21-10-5-20.6-7.5-31.8-7.5-9.4 0-18.3 1.8-26.7 5.4-8.2 3.4-15.3 8.2-21.3 14.4-6 6-10.7 13.2-14.1 21.6-3.4 8.2-5.1 17.2-5.1 27 0 9.6 1.7 18.6 5.1 27 3.6 8.2 8.4 15.3 14.4 21.3 6.2 6 13.4 10.8 21.6 14.4 8.4 3.4 17.5 5.1 27.3 5.1zm209.477 0c11 0 21.3-2.3 30.9-6.9 9.6-4.6 18.1-11.2 25.5-19.8l28.5 28.2c-10 11.8-22.8 21.2-38.4 28.2-15.4 7-31.3 10.5-47.7 10.5-15.8 0-30.604-2.8-44.404-8.4-13.6-5.6-25.4-13.2-35.4-22.8-10-9.6-17.9-21-23.7-34.2-5.6-13.2-8.4-27.4-8.4-42.6 0-15.2 2.9-29.4 8.7-42.6 5.8-13.4 13.7-24.9 23.7-34.5 10-9.6 21.8-17.2 35.4-22.8 13.8-5.6 28.504-8.4 44.104-8.4 16.8 0 33.1 3.6 48.9 10.8 15.8 7 28.6 16.5 38.4 28.5l-29.4 29.1c-7.4-9.2-16.1-16.2-26.1-21-10-5-20.6-7.5-31.8-7.5-9.4 0-18.304 1.8-26.704 5.4-8.2 3.4-15.3 8.2-21.3 14.4-6 6-10.7 13.2-14.1 21.6-3.4 8.2-5.1 17.2-5.1 27 0 9.6 1.7 18.6 5.1 27 3.6 8.2 8.4 15.3 14.4 21.3 6.2 6 13.4 10.8 21.6 14.4 8.4 3.4 17.504 5.1 27.304 5.1zm293.03-53.7c0 14.2-2.2 27.2-6.6 39-4.4 11.6-10.7 21.5-18.9 29.7-8 8-17.8 14.2-29.4 18.6-11.4 4.4-24.1 6.6-38.1 6.6-14.2 0-27.1-2.2-38.7-6.6-11.4-4.4-21.1-10.6-29.1-18.6-8-8.2-14.2-18.1-18.6-29.7-4.4-11.6-6.6-24.6-6.6-39v-119.1h43.5v119.1c0 16.2 4.5 29.2 13.5 39 9.2 9.8 21.3 14.7 36.3 14.7 15 0 26.9-4.9 35.7-14.7 9-9.8 13.5-22.8 13.5-39v-119.1h43.5v119.1z"/><path fill="#0001A2" d="M1349.35 356.641v-245h50.75v109.9l107.1-109.9h61.95l-118.3 116.55 123.9 128.45h-67.9l-106.75-114.8v114.8h-50.75zm240.89-210h41.4l104.4 135.9v-135.9h40.8v210h-38.4l-107.1-140.4v140.4h-41.1v-210zm438.91 105c0 15-2.9 29.2-8.7 42.6-5.8 13.2-13.7 24.7-23.7 34.5-9.8 9.6-21.5 17.2-35.1 22.8-13.6 5.6-28.2 8.4-43.8 8.4-15.4 0-29.9-2.8-43.5-8.4-13.6-5.6-25.4-13.2-35.4-22.8-9.8-9.8-17.6-21.3-23.4-34.5-5.8-13.4-8.7-27.6-8.7-42.6s2.9-29.1 8.7-42.3c5.8-13.4 13.6-24.9 23.4-34.5 10-9.8 21.8-17.5 35.4-23.1 13.6-5.6 28.1-8.4 43.5-8.4 15.6 0 30.2 2.8 43.8 8.4 13.6 5.6 25.3 13.3 35.1 23.1 10 9.6 17.9 21.1 23.7 34.5 5.8 13.2 8.7 27.3 8.7 42.3zm-44.7 0c0-9.8-1.7-18.8-5.1-27-3.4-8.4-8.1-15.6-14.1-21.6-5.8-6.2-12.8-11-21-14.4-8.2-3.6-17-5.4-26.4-5.4-9.4 0-18.2 1.8-26.4 5.4-8 3.4-15 8.2-21 14.4-5.8 6-10.4 13.2-13.8 21.6-3.4 8.2-5.1 17.2-5.1 27 0 9.6 1.7 18.6 5.1 27 3.4 8.4 8 15.7 13.8 21.9 6 6 13 10.8 21 14.4 8.2 3.4 17 5.1 26.4 5.1 9.4 0 18.2-1.7 26.4-5.1 8.2-3.6 15.2-8.4 21-14.4 6-6.2 10.7-13.5 14.1-21.9 3.4-8.4 5.1-17.4 5.1-27zm83.75 105h-50.1l79.8-108.6-75.6-101.4h51.9l49.8 69 49.5-69h50.1l-74.7 101.4 81 108.6H2178l-54.9-76.5-54.9 76.5z"/><path stroke="url(#paint0_linear)" stroke-width="60" d="M68.0706 108.05L183.361 50.6878a10.00119 10.00119 0 0 1 4.455-1.0469h10.735c1.523 0 3.025.3476 4.393 1.0164l115.952 56.6967c2.411 1.179 4.247 3.278 5.095 5.824l2.874 8.631 25.689 123.007c.141.672.211 1.357.211 2.044v4.593c0 2.256-.762 4.445-2.163 6.212l-80.159 101.137c-.648.817-1.419 1.528-2.287 2.107l-4.57 3.05a9.99927 9.99927 0 0 1-5.551 1.682H130.312c-3.558 0-6.653-2.08-9.15-4.615-1.362-1.383-2.74-2.134-3.597-.99-1.639 2.187-55.8167-65.686-84.6779-102.399-1.3838-1.761-2.1217-3.918-2.1217-6.157v-4.541c0-.739.0818-1.476.244-2.196l28.0295-124.542c.2817-1.252.8016-2.437 1.5315-3.493l3.7303-5.393c.9608-1.389 2.2578-2.512 3.7699-3.265z"/><path fill="#06F" d="M186.661 124.668l-79.863 38.338-.033 96.239 79.863-37.038.033-97.539z" opacity=".2"/><path fill="#001CAC" fill-opacity=".66" d="M128.765 172.911l62.5-29.27 62.5 29.27v76.46l-62.5 29.27-62.5-29.27v-76.46z"/><path stroke="#fff" stroke-width="3" d="M128.765 172.911l62.5-29.27 62.5 29.27m-125 0l62.5 29.867m-62.5-29.867v76.46l62.5 29.27m0-75.863l62.5-29.867m-62.5 29.867v75.863m62.5-105.73v76.46l-62.5 29.27"/><path fill="#06F" d="M272.661 164.668l-79.863 38.664-.033 97.054 79.863-37.352.033-98.366z" opacity=".2"/><defs><linearGradient id="paint0_linear" x1="266.315" x2="-293.677" y1="3.047" y2="768.017" gradientUnits="userSpaceOnUse"><stop stop-color="#F90000"/><stop offset=".245" stop-color="#5300A7"/><stop offset=".245" stop-color="#0500F5"/><stop offset=".245" stop-color="#06046C"/><stop offset=".245" stop-color="#0320A9"/><stop offset="1" stop-color="#0500FF"/><stop offset="1" stop-color="#0045F5"/><stop offset="1" stop-color="#0500FF"/><stop offset="1" stop-color="#0C0C31"/></linearGradient></defs></svg>