<svg xmlns="http://www.w3.org/2000/svg" role="img" viewBox="-7.30 -7.30 379.34 114.34"><title>Airbyte logo</title><path fill="#1A194D" fill-rule="evenodd" d="M32.7479 12.1327C43.3713.11346 60.9635-3.41237 75.4265 3.52532 94.6425 12.744 101.653 36.2274 91.1907 54.3421L67.6555 95.0475c-1.3154 2.2746-3.4797 3.9342-6.0177 4.6144-2.538.6801-5.2421.3254-7.5187-.9864l28.4938-49.2906c7.5905-13.1472 2.5134-30.1887-11.4183-36.8984-10.4531-5.03421-23.2317-2.51935-30.9539 6.1383-4.2596 4.7529-6.6511 10.8892-6.7308 17.271-.0798 6.3818 2.1576 12.576 6.2971 17.4338a26.08104 26.08104 0 0 0 2.3964 2.4601L25.569 84.6166a9.90803 9.90803 0 0 1-2.5489 2.9069 9.90877 9.90877 0 0 1-3.4672 1.7103 9.91072 9.91072 0 0 1-3.8578.2532 9.90883 9.90883 0 0 1-3.6611-1.2425l18.0585-31.2958a36.07242 36.07242 0 0 1-5.4901-12.3686l-11.066 19.216c-1.3154 2.2745-3.4797 3.9341-6.01765 4.6143-2.53796.6802-5.24212.3255-7.51875-.9863l28.6167-49.5675a36.92225 36.92225 0 0 1 4.1312-5.7239zm33.0292 15.7774c6.8918 3.9803 9.272 12.8319 5.2843 19.7207L43.62 95.0416c-1.3154 2.2746-3.4797 3.9342-6.0177 4.6144-2.5379.68-5.2421.3254-7.5187-.9864L55.5637 54.53a14.4372 14.4372 0 0 1-5.647-2.5467 14.43742 14.43742 0 0 1-4.06-4.6788 14.43694 14.43694 0 0 1-1.7255-5.9495 14.43848 14.43848 0 0 1 .9266-6.1251 14.43806 14.43806 0 0 1 3.4081-5.1729 14.4398 14.4398 0 0 1 5.2623-3.2686 14.43947 14.43947 0 0 1 6.1477-.7624c2.0802.1937 4.0936.8365 5.9012 1.8841zm-9.9814 8.9101c-.4717.362-.8674.8135-1.1645 1.3285h-.0015a4.52803 4.52803 0 0 0-.5965 2.5601c.0587.8935.381 1.7497.9262 2.4601a4.52836 4.52836 0 0 0 2.1368 1.5309 4.52727 4.52727 0 0 0 2.6273.0858 4.52745 4.52745 0 0 0 2.2322-1.3882 4.52749 4.52749 0 0 0 1.0849-2.3944 4.528 4.528 0 0 0-.4282-2.5935 4.52833 4.52833 0 0 0-1.7969-1.9187 4.52698 4.52698 0 0 0-1.6728-.5679 4.5256 4.5256 0 0 0-1.7628.1157 4.52591 4.52591 0 0 0-1.5842.7816z" clip-rule="evenodd"/><path fill="#615EFF" fill-rule="evenodd" d="M32.7479 12.1327C43.3713.11346 60.9635-3.41237 75.4265 3.52532 94.6425 12.744 101.653 36.2274 91.1907 54.3421L67.6555 95.0475c-1.3154 2.2746-3.4797 3.9342-6.0177 4.6144-2.538.6801-5.2421.3254-7.5187-.9864l28.4938-49.2906c7.5905-13.1472 2.5134-30.1887-11.4183-36.8984-10.4531-5.03421-23.2317-2.51935-30.9539 6.1383-4.2596 4.7529-6.6511 10.8892-6.7308 17.271-.0798 6.3818 2.1576 12.576 6.2971 17.4338a26.08104 26.08104 0 0 0 2.3964 2.4601L25.569 84.6166a9.90803 9.90803 0 0 1-2.5489 2.9069 9.90877 9.90877 0 0 1-3.4672 1.7103 9.91072 9.91072 0 0 1-3.8578.2532 9.90883 9.90883 0 0 1-3.6611-1.2425l18.0585-31.2958a36.07242 36.07242 0 0 1-5.4901-12.3686l-11.066 19.216c-1.3154 2.2745-3.4797 3.9341-6.01765 4.6143-2.53796.6802-5.24212.3255-7.51875-.9863l28.6167-49.5675a36.92225 36.92225 0 0 1 4.1312-5.7239zm33.0292 15.7774c6.8918 3.9803 9.272 12.8319 5.2843 19.7207L43.62 95.0416c-1.3154 2.2746-3.4797 3.9342-6.0177 4.6144-2.5379.68-5.2421.3254-7.5187-.9864L55.5637 54.53a14.4372 14.4372 0 0 1-5.647-2.5467 14.43742 14.43742 0 0 1-4.06-4.6788 14.43694 14.43694 0 0 1-1.7255-5.9495 14.43848 14.43848 0 0 1 .9266-6.1251 14.43806 14.43806 0 0 1 3.4081-5.1729 14.4398 14.4398 0 0 1 5.2623-3.2686 14.43947 14.43947 0 0 1 6.1477-.7624c2.0802.1937 4.0936.8365 5.9012 1.8841zm-9.9814 8.9101c-.4717.362-.8674.8135-1.1645 1.3285h-.0015a4.52803 4.52803 0 0 0-.5965 2.5601c.0587.8935.381 1.7497.9262 2.4601a4.52836 4.52836 0 0 0 2.1368 1.5309 4.52727 4.52727 0 0 0 2.6273.0858 4.52745 4.52745 0 0 0 2.2322-1.3882 4.52749 4.52749 0 0 0 1.0849-2.3944 4.528 4.528 0 0 0-.4282-2.5935 4.52833 4.52833 0 0 0-1.7969-1.9187 4.52698 4.52698 0 0 0-1.6728-.5679 4.5256 4.5256 0 0 0-1.7628.1157 4.52591 4.52591 0 0 0-1.5842.7816z" clip-rule="evenodd"/><path fill="#1A194D" fill-rule="evenodd" d="M114 76l20.566-52.7344h12.059L167.191 76h-11.496l-4.429-11.8125h-21.34L125.496 76H114zm33.75-21.3047c-1.406-4.125-2.66-7.8164-3.762-11.0742-1.101-3.2578-2.226-6.6211-3.375-10.0899-1.148 3.4688-2.285 6.8321-3.41 10.0899-1.101 3.2578-2.355 6.9492-3.762 11.0742h14.309zm22.922-25.8047c0-1.6875.516-3.0468 1.547-4.0781 1.031-1.0313 2.39-1.5469 4.078-1.5469 1.687 0 3.047.5156 4.078 1.5469 1.031 1.0313 1.547 2.3906 1.547 4.0781s-.516 3.0469-1.547 4.0782c-1.031 1.0312-2.391 1.5468-4.078 1.5468-1.688 0-3.047-.5156-4.078-1.5468-1.031-1.0313-1.547-2.3907-1.547-4.0782zM171.234 76V40.8438h10.125V76h-10.125zm18.704-35.1562V76h10.124V60.4961c0-3.7031.833-6.5508 2.497-8.543 1.664-2.0156 3.855-3.0234 6.574-3.0234 1.312 0 2.648.2226 4.008.668l1.406-8.7539c-1.617-.4688-3.188-.7032-4.711-.7032-4.477 0-7.992 1.9102-10.547 5.7305v-5.0273h-9.351zM218.414 76V23.2656h10.125v21.0586c1.477-1.3125 3.164-2.332 5.063-3.0586 1.898-.75 3.949-1.125 6.152-1.125 3.305 0 6.246.7969 8.824 2.3906 2.578 1.5704 4.606 3.7383 6.082 6.504 1.477 2.7421 2.215 5.871 2.215 9.3867 0 3.5156-.738 6.6562-2.215 9.4219-1.476 2.7421-3.504 4.9101-6.082 6.5039-2.578 1.5703-5.519 2.3554-8.824 2.3554-2.274 0-4.395-.3867-6.363-1.1601-1.969-.7969-3.692-1.9102-5.168-3.3399L227.977 76h-9.563zm20.055-8.0859c2.578 0 4.711-.9024 6.398-2.7071 1.688-1.8047 2.531-4.0664 2.531-6.7851 0-2.7188-.843-4.9805-2.531-6.7852-1.687-1.8047-3.82-2.707-6.398-2.707s-4.711.9023-6.399 2.707c-1.687 1.8047-2.531 4.0664-2.531 6.7852 0 2.7187.844 4.9804 2.531 6.7851 1.688 1.8047 3.821 2.7071 6.399 2.7071zm35.324-9.8789l-8.227-17.1914h-10.582l16.383 33.3984-8.015 19.3359h10.652l21.867-52.7343h-10.687l-9.493 22.9218c-.234-1.1484-.515-2.2031-.843-3.164-.328-.961-.68-1.8164-1.055-2.5664zm23.449-17.1914h5.801v-8.7891h10.125v8.7891h8.543v8.789h-8.543v12.9375c0 1.6641.527 2.9766 1.582 3.9375 1.078.9375 2.438 1.4063 4.078 1.4063 1.219 0 2.473-.2696 3.762-.8086v8.2968c-2.227.8672-4.418 1.3008-6.574 1.3008-4.172 0-7.383-1.1133-9.633-3.3398-2.227-2.25-3.34-5.461-3.34-9.6328V49.6328h-5.801v-8.789zm43.664 25.3476c-1.687-1.2187-2.847-2.8008-3.48-4.7461h27.422v-3.0586c0-3.539-.797-6.6797-2.391-9.4219-1.594-2.7421-3.773-4.8984-6.539-6.4687-2.742-1.5703-5.883-2.3555-9.422-2.3555-3.562 0-6.75.7969-9.562 2.3906-2.789 1.5704-4.993 3.7266-6.61 6.4688-1.617 2.7188-2.426 5.8242-2.426 9.3164 0 3.5391.844 6.7031 2.532 9.4922 1.687 2.7656 4.019 4.9453 6.996 6.5391 2.976 1.5703 6.41 2.3554 10.301 2.3554 2.437 0 4.98-.3984 7.628-1.1953 2.672-.7969 5.368-2.2617 8.086-4.3945l-6.117-7.3125c-1.312 1.2422-2.777 2.2617-4.394 3.0586-1.594.7734-3.61 1.1601-6.047 1.1601-2.274 0-4.266-.6093-5.977-1.8281zM353.827 54c-.56-1.2453-1.363-2.3026-2.409-3.1719-1.523-1.2656-3.352-1.8984-5.484-1.8984-2.157 0-4.032.6445-5.625 1.9336-1.069.8773-1.888 1.9229-2.457 3.1367h15.975z" clip-rule="evenodd"/></svg>