<svg xmlns="http://www.w3.org/2000/svg" role="img" viewBox="-144.00 212.50 624.00 123.50"><title>Anaconda, Inc logo</title><style>svg {enable-background:new -153 -46 652 652}</style><path d="M32.5 253.5c-.2-.6-.8-.9-1.4-.9h-.8c-.6 0-1.1.3-1.4.9L3.8 307.8c-.5 1 .3 2.2 1.4 2.1h7c1 0 2-.6 2.3-1.6l4-8.8h24.1l4 8.8c.3 1 1.3 1.7 2.4 1.6h7c1.1.1 1.9-1.1 1.4-2.1l-24.9-54.3zm-10 37.1l8-17.8 8.1 17.9-16.1-.1zm87-37.2h-7.4c-.9 0-1.6.7-1.6 1.6v33.4l-33.7-35.8h-2c-.8 0-1.5.7-1.5 1.5v54.3c0 .8.7 1.5 1.5 1.6h7.4c.9 0 1.6-.7 1.6-1.6v-34.7l33.7 37.1h1.9c.8 0 1.6-.6 1.6-1.5V255c0-.9-.7-1.6-1.5-1.6zm36.3.1c-.2-.6-.8-.9-1.4-.9h-.8c-.6 0-1.1.3-1.4.9L117 307.8c-.5 1 .2 2.2 1.4 2.1h7c1 0 2-.6 2.3-1.6l4.2-8.8h23.9l4 8.8c.3 1 1.3 1.7 2.3 1.6h7c1.1.1 1.9-1.1 1.4-2.1l-24.7-54.3zm-10.1 37.1l7.9-17.9h.2l8.1 17.9h-16.2zm79.1 4.9c-.6-.5-1.5-.5-2 0-3.4 2.9-7.7 4.5-12.2 4.6-10.2-.1-18.3-8.5-18.1-18.6-.3-10.1 7.8-18.6 17.9-18.8 4.6.1 9 1.8 12.4 4.8.5.7 1.5.7 2 0l4.9-5.1c.7-.6.7-1.7 0-2.3-5.3-5-12.3-7.8-19.6-7.6-7.9-.3-15.5 2.7-21.2 8.2-5.7 5.5-8.9 13-8.9 20.9 0 7.9 3.2 15.4 8.9 20.9 5.7 5.5 13.3 8.4 21.2 8.2 7.3.1 14.4-2.7 19.6-7.8.6-.6.6-1.6 0-2.2l-4.9-5.2zm38.1-42.9c-7.7 0-15.1 3.1-20.6 8.5-5.4 5.5-8.5 12.9-8.4 20.6 0 16 13 29 29 29s29-13 29-29c0-7.7-3-15.2-8.5-20.6-5.3-5.5-12.7-8.6-20.5-8.5zm0 47.7c-16.6 0-24.9-20-13.1-31.7 11.7-11.7 31.8-3.3 31.7 13.3-.1 10.1-8.3 18.4-18.6 18.4zm84.1-46.9h-7.4c-.9 0-1.6.7-1.6 1.6v33.4l-33.7-35.8h-2c-.8 0-1.5.6-1.6 1.5v54.3c0 .9.7 1.5 1.6 1.6h7.3c.9 0 1.6-.7 1.6-1.6v-34.7l33.8 37.1h1.9c.8 0 1.5-.6 1.5-1.5V255c.1-.9-.5-1.6-1.4-1.6zm32.4 0h-19.2c-.8 0-1.5.7-1.5 1.6v53.4c0 .8.6 1.5 1.5 1.6h19.2c7.7.2 15.1-2.6 20.6-7.9 5.5-5.3 8.6-12.7 8.6-20.3 0-7.7-3.1-15-8.6-20.3-5.5-5.5-12.9-8.4-20.6-8.1zm-1 46.7h-9.2v-36.9h9.2c10.2-.2 18.4 8.2 18.2 18.4.3 10.2-7.9 18.6-18.2 18.5zm83.3 7.7l-24.8-54.4c-.2-.6-.8-.9-1.4-.9h-.8c-.6 0-1.1.3-1.4.9l-25.1 54.4c-.5 1 .3 2.2 1.4 2.1h7c1.1 0 2-.6 2.4-1.6l3.9-8.8h24.2l3.9 8.8c.3 1 1.3 1.7 2.4 1.6h7c1.1.1 1.9-1.1 1.3-2.1zm-34.8-17.2l7.9-17.9h.3l8.1 17.9h-16.3zm44.9 18.4h.5c.1 0 .2-.1.2-.2v-1.5h.8l.7 1.6c0 .1.1.2.2.2h.6c.2 0 .3-.2.2-.4-.2-.5-.4-1-.7-1.5.6-.2 1-.8 1-1.5 0-.9-.7-1.6-1.6-1.5h-2c-.1 0-.2.1-.2.2v4.4c.1.1.2.2.3.2zm.7-3.9h1.2c.4 0 .7.3.7.7 0 .4-.3.7-.7.6h-1.2v-1.3zm0 0"/><path d="M463.3 311.4c2.8.2 5.2-2 5.2-4.8s-2.4-5-5.2-4.8c-5.9.5-5.9 9.1 0 9.6zm0-8.6c2.3-.2 4.2 1.6 4.2 3.8 0 2.3-1.9 4-4.2 3.8-2.3.2-4.2-1.6-4.2-3.8 0-2.3 1.9-4 4.2-3.8zm0 0"/><path fill="#44a833" d="M-113.1 301v-.4c.1-2.9.3-5.7.7-8.6v-.3h-.3c-2.6-1.1-5.2-2.3-7.7-3.7l-.3-.2-.2.3c-1.6 3.3-3 6.8-4.1 10.3v.3h.4c3.7 1 7.4 1.7 11.2 2.1l.3.2zm7.8-50.5c-2.2 0-4.3.2-6.5.4.3 2.2.7 4.3 1.1 6.5 1.5-2.6 3.3-4.9 5.4-6.9zm-7.8 53.1v-.3h-.3c-3.2-.3-6.4-.8-9.6-1.6l-.8-.2.5.7c2.9 4.3 6.4 8.2 10.4 11.4l.7.5v-.8c-.5-3.2-.7-6.5-.9-9.7zm15.5-76.2c-3.8 1.3-7.5 3.1-10.9 5.3 2.5.4 5.1 1 7.5 1.8 1.1-2.4 2.2-4.8 3.4-7.1zm16.2-2.7c-1.9 0-3.8.1-5.7.3 2.6 1.8 5.2 3.8 7.5 6l2 1.8-1.9 1.9c-1.6 1.6-3.2 3.3-4.7 5l-.7.9c1.2-.1 2.4-.2 3.6-.2 10.6.1 20.5 5.2 26.8 13.6 6.3 8.5 8.3 19.4 5.5 29.6-2.9 10.2-10.3 18.4-20.1 22.3-9.8 3.9-20.9 3-30-2.4-2.5.3-5.1.4-7.7.4h-3.6c.1 4 .5 8 1.1 11.9 13.1 8.8 29.6 10.9 44.5 5.6 14.9-5.3 26.4-17.3 31-32.4 4.6-15.1 1.8-31.5-7.6-44.2-9.4-12.6-24.2-20.1-40-20.1zm-6.6 11.9c1-1.2 2-2.3 3-3.4-2.3-2-4.7-3.9-7.3-5.5-1.6 2.7-3 5.5-4.1 8.3 2.3.8 4.5 1.7 6.7 2.7.4-.7 1.1-1.4 1.7-2.1zm-33.8 28.3l.2.3.3-.2c2.3-1.6 4.7-3.2 7.2-4.5l.2-.2v-.2c-.8-2.9-1.3-5.8-1.7-8.7v-.4h-.4c-3.7.7-7.3 1.7-10.8 3h-.3v.3c1.4 3.7 3.2 7.2 5.3 10.6zm-.6 4.8l-.3.2c-2.7 2.2-5.2 4.6-7.6 7.2l-.2.3.3.2c2.6 2.3 5.4 4.3 8.3 6.2l.3.2.2-.3c1.3-2.4 2.8-4.6 4.4-6.8v-.2l-.2-.2c-1.8-2-3.4-4.2-5-6.4l-.2-.4zm19.5 31.5h.9l-.7-.5c-2.7-2.2-5-4.8-6.8-7.6l-.5-.2v.5c-.3 2.5-.5 5.1-.6 7.6v.3h3.9c1.1-.1 2.5-.1 3.8-.1zm-1.6-55.1c.5-2.5 1.2-4.9 2-7.3-3.1-.9-6.3-1.6-9.5-2-.3 3.2-.3 6.5 0 9.7 2.3-.2 4.9-.3 7.5-.4zm4.8-.2c2.2-1.4 4.5-2.5 6.9-3.3-1.8-.8-3.5-1.6-5.4-2.3-.6 1.9-1.1 3.7-1.5 5.6zm-23.2 40.5l-.3-.2c-2.6-1.6-5-3.4-7.4-5.3l-.7-.5v.8c.6 4.8 2 9.5 3.9 13.8l.3.8.3-.8c1-2.8 2.2-5.6 3.5-8.3l.4-.3zm6.4-47.3c-3 3-5.6 6.3-7.7 9.9 2.6-.8 5.2-1.4 7.8-1.8-.2-2.7-.2-5.4-.1-8.1zm1.5 35v-.9c.1-3 .6-6 1.5-8.9l.3-.8-.7.4c-1.9 1.1-3.9 2.4-5.7 3.7l-.3.2.2.3c1.3 1.8 2.7 3.6 4.1 5.3l.6.7zm.3 5.1v-.9l-.5.7c-1.4 1.9-2.7 3.9-3.8 6l-.2.3.3.2c2.1 1.2 4.3 2.2 6.5 3.2l.8.4-.4-.8c-1.3-2.9-2.2-5.9-2.7-9.1zm-9.7-11.9l.2-.2-.2-.3c-1.6-2.5-3-5.1-4.3-7.8l-.3-.8-.3.8c-1.5 4.5-2.3 9.2-2.4 14v.9l.6-.6c2.2-2.1 4.4-4.1 6.7-6zm0 0"/></svg>