<svg xmlns="http://www.w3.org/2000/svg" role="img" viewBox="-7.21 60.04 413.92 119.42"><title>Anchore, Inc logo</title><style>svg {enable-background:new 0 0 400 245}</style><path fill="#010101" d="M50.8 134.6c0 4.8.3 9.7 0 14.5-.7 12.4-7.3 20-19.7 22-10.3 1.5-19.7-.4-26.3-9.2-7.7-10-3.9-23.4 7.9-27.5 7.7-2.7 15.9-4.5 23.9-6.6 3.4-.8 5.1-2.3 4.8-6.1-.4-7.5-4.4-12.7-11.8-14.4-7-1.5-14.1 1.7-17.2 8.2-1.8 3.7-3.8 4.6-7.3 3.1-3-1-3.7-2.8-2.5-5.9 3.5-9 13.9-15.4 24.2-14.6 8.3.6 15.5 3.1 20.6 10.1 2.7 3.7 3.9 7.9 3.9 12.4v13.9h-.5zm297.8 1.8c.7-7.3-.1-13.1.7-18.9 1.5-10 7.5-16.2 17.2-18.6 7.7-1.8 15.4-1.1 22.4 3 7.9 4.5 11.5 13 9.6 21.7-1.3 5.9-5.2 9.3-10.6 11.3-6.9 2.7-14.2 3.8-21.3 5.9-.4.1-.8.1-1.3.3-6.9 1.8-8 3.9-6.2 10.8 1.7 5.9 6.5 9.7 13.5 10.3 6.3.6 12-2.7 14.8-8.5 1.8-3.9 4.4-4.8 7.9-2.8 2.3 1.1 3.1 2.8 2.1 5.5-3.7 9.6-13.9 15.5-26.1 14.8-11-.6-20-7.6-22.3-17.5-.7-2.8-.6-5.6-.6-8.6v-8.7h.2zm-170.3 19.5V73.5c0-4.1 1.5-5.6 5.6-5.4 3.2.1 4.5 1.5 4.5 4.8v29.3c4.2-2.1 8.2-3.5 12.5-4.1 16.3-1.8 28.5 9 28.5 25.5v37c0 1 .4 2.3-.7 2.7-.8.4-1.5-.6-2.3-1.1-4.5-3.5-7.5-7.7-7.3-13.9.3-8.9.3-17.7-.1-26.5-.6-9.4-6.9-15.1-15.6-14.8-8.6.3-14.5 6.6-14.8 15.9-.1 5.5-.4 11.1 0 16.6.6 8-3.8 12.4-10.3 16.4zM289 133.3c0 5.4.8 10.7-.1 15.9-2.8 13.4-15.9 21.5-30 18.9-13-2.5-20.7-11.5-20.6-24.8 0-8-.6-16.1.4-24.1 1.4-12.7 12-21.3 25.9-20.8 13.4.4 22.7 8.2 24.4 19.9.7 4.7 0 10 0 15zm-169.8-.8c.1-4.6-.6-10.3.6-15.6 2.5-11.5 13.7-19.6 25.8-18.7 12.1.8 21.1 7.5 23.9 17.5.8 3.2 0 4.9-3 5.9-3.4 1.1-6.2.1-6.9-3-2-7.9-9.9-12.3-17.2-11.3-7.9 1.3-12.8 6.9-13 15.5-.1 7.3-.3 14.5 0 21.8.3 8.2 5.6 13.9 13.2 14.8 7.6.8 14.4-3.5 16.8-11 1-3.2 3.5-4.4 7-3.2 2.8 1 3.8 2.7 2.8 5.9-3 11.1-14.5 18.5-27.2 17.3-14.2-1.3-23.1-11-23.1-25.2.3-3.3.3-6.5.3-10.7zm-8.5 22.9c-6.3-2.4-10.4-8-10.4-14.4s.1-12.5-.1-18.9c-.4-10.7-9.2-16.9-19.4-14.4-6.8 1.7-11 7.5-11 15.4-.1 8.5-.3 16.8 0 25.2.3 7.5-3.9 11.7-9.4 15.5-1-.7-.8-1.7-.8-2.5 0-13.5-.1-27.2.3-40.7.3-13.5 11.8-23.4 26.6-22.4 15.8 1 24.4 10.6 24.4 26.3-.2.1-.2 30.9-.2 30.9zm187.6-14.6c0-6.1-.1-12.1 0-18.2.3-10.3 4.6-18 14.2-22.3 9.3-4.1 22-2 28.9 4.5 3.1 3 3.8 5.5 2 7.7-2.4 3-5.5 3-8.2.1-5.1-5.4-11.1-6.8-17.3-4.4-5.8 2.3-9.2 7.7-9.3 15.1v26.9c0 6.1-3.9 9.9-8.6 13-2 1.3-1.5-.7-1.5-1.5-.2-7-.2-13.9-.2-20.9z"/><path fill="#fff" d="M41.1 135.7c-.3 5.4-.1 10.6-.8 15.6-1.3 9.4-12.3 14.1-21.8 9.7-1.7-.8-3.2-1.7-4.6-3.1-5.1-5.6-3.2-13.4 3.8-15.9l2.5-.8c6.8-1.8 13.7-3.7 20.9-5.5zm318.1-1.7c0-4.8-.3-9.4 0-13.9.4-6.5 3.9-10.7 9.9-12.3 7.2-1.8 14.5.4 17.9 5.4 3.9 5.8 1.8 12.4-4.9 14.5-7.6 2.4-15.3 4.2-22.9 6.3zm-110.5-1.2c0-3.7-.1-7.3 0-11 .4-8.2 5.9-13.9 13.9-14.5 8-.7 14.8 4.1 15.9 12.1 1.4 9.2 1.3 18.6 0 27.7-1.1 7.9-7.7 12.7-15.6 12.1-8-.6-13.7-5.9-14.2-13.9-.2-4.1 0-8.3 0-12.5z"/></svg>