<svg xmlns="http://www.w3.org/2000/svg" role="img" viewBox="-19.92 -19.92 1035.84 602.84"><title>Autodesk logo</title><path d="M996.65 440.99h-36.24l-43.4 48.46v-48.46h-30.42l.15 119.3h30.27v-45.33l41.16 45.33h38.48l-55.48-58.91 55.48-60.39z"/><path d="M837.52 490.05l-27.74-3.13c-16.25-1.79-20.28-5.81-20.28-11.33 0-6.12 8.35-11.63 24.61-11.63 15.66 0 23.86 5.81 25.35 14.61h29.86c-1.5-25.2-22.67-40.86-53.54-40.86-36.69 0-55.18 14.61-55.18 40.41 0 21 12.23 30.87 37.58 33.56l28.14 2.96c10.73 1.19 15.65 5.37 15.65 10.74 0 6.11-7.15 11.63-24.45 11.63-20 0-28-5.07-29.38-15.21h-29.21c1.34 27.44 19.24 41.46 57.56 41.46 35.05 0 54.59-15.36 54.59-38.48 0-20.14-11.64-32.14-33.56-34.73z"/><path d="M649.47 560.29h96.04v-25.8h-65.62v-21.62h52.79v-25.95h-52.79v-20.13h65.62v-25.8h-96.04v119.3z"/><path d="M577.88 440.99h-55.77v119.3h55.77c42.8 0 54.58-15.95 54.58-60.54 0-41.91-11.33-58.76-54.58-58.76zm-1.19 93.5h-24.16v-67.7h24.16c19.09 0 24.76 5.22 24.76 33 0 25.31-6.42 34.7-24.76 34.7zm-137.2-96.78c-43.4 0-65.92 26.69-65.92 62.63s22.52 62.94 65.92 62.94 66.06-26.85 66.06-62.94-22.52-62.63-66.06-62.63zm0 98.72c-22.52 0-34.9-13.72-34.9-36.09 0-21.92 12.38-35.79 34.9-35.79 22.67 0 34.9 13.87 34.9 35.79 0 22.37-12.23 36.09-34.9 36.09z"/><path d="M261.43 466.79h38.47v93.5h30.43v-93.5h38.32v-25.8H261.43v25.8z"/><path d="M217.13 514.64c0 15.51-9.54 21.77-25.8 21.77-15.81 0-26.1-6.56-26.1-21.77v-73.65h-30.42v77.1c0 34.45 30.72 45.19 56.52 45.19s56.22-10.74 56.22-45.19v-77.1h-30.42zM45.78 440.99L0 560.29h31.46l8-22.36h51.11l7.86 22.36h32.51l-46.38-119.3zm2.73 71.58l16.71-46.77 16.43 46.77zm212.81-177.73l299.81-186.49h155.52a9.08 9.08 0 0 1 9.09 9.09c0 4.31-1.91 6.22-4.3 7.66l-147.26 88.26c-9.57 5.74-12.92 17.23-12.92 25.84l-.15 55.64h187.12V11.49c0-6.22-4.78-11.49-12-11.49H557.78L258.7 185.64v149.2z"/></svg>