<svg xmlns="http://www.w3.org/2000/svg" role="img" viewBox="-3.70 -3.70 192.14 87.14"><title>Boost Security logo</title><path fill="#58A1F9" d="M.31836 73.82l1.34323-2.1411c.56171.365 1.09901.6812 1.56303.9002.48847.219.90363.3407 1.26998.3407.29307 0 .51287-.0731.70825-.1947.17096-.1217.26865-.2919.26865-.5109 0-.292-.17096-.5353-.48845-.73-.34192-.1947-.70825-.3649-1.14786-.5352-.46402-.1947-.92805-.4137-1.39208-.657-.46402-.2432-.85478-.5596-1.17227-.9245-.3175-.3893-.46403-.8759-.46403-1.4842 0-.8273.34191-1.5329 1.00132-2.0681.6594-.5354 1.61189-.803 2.80859-.803.58613 0 1.22111.0729 1.88052.219.6594.146 1.24554.3893 1.80726.7056l-1.24555 2.1654c-.29307-.1946-.6594-.365-1.12343-.5109-.46402-.146-.85478-.2189-1.17228-.2189-.19538 0-.39075.0486-.61056.1215-.2198.0731-.3419.219-.3419.438 0 .2433.14652.438.46402.6083.31749.146.6594.3162 1.09901.4866.46402.1703.92805.3893 1.4165.6326.48845.2433.87921.5597 1.22113.9489.3419.3893.48844.9247.48844 1.5572 0 .6326-.17097 1.1923-.5373 1.6545-.36633.4623-.83036.8273-1.4165 1.0706-.58614.2433-1.24554.3649-1.97822.3649-.68382 0-1.39207-.1216-2.12475-.3649-.73266-.2433-1.46534-.584-2.12475-1.0706zm20.63674-2.8223c.1709.5352.5129.9975.9769 1.3382.4884.3407 1.0257.5109 1.6851.5109.6839 0 1.2456-.1216 1.7097-.3406.4396-.219.8547-.5111 1.221-.8516l1.734 2.0438c-.7571.6083-1.5142.9976-2.2713 1.2409-.7571.2433-1.4653.3406-2.1491.3406-1.0991 0-2.0515-.219-2.9063-.657-.8304-.4379-1.4898-1.0461-1.9782-1.8248-.4641-.7785-.7083-1.6544-.7083-2.652 0-.9732.2198-1.8491.6838-2.6278.4641-.7542 1.0746-1.3625 1.8561-1.8248.7816-.438 1.6853-.6569 2.6865-.6569 1.0013 0 1.8805.2189 2.6621.6569.7815.438 1.392 1.0463 1.8316 1.8248.4396.7787.6839 1.6546.6839 2.6521v.8516h-7.7175v-.0243zm4.7868-1.5815c-.1466-.584-.4151-1.0463-.8547-1.4112-.4396-.365-.9526-.5353-1.5387-.5353-.6106 0-1.1235.1703-1.5875.5353-.4396.3649-.7327.8272-.8792 1.3869h4.8601v.0243zm22.0289 4.4039c-.4885.4622-1.0502.8271-1.734 1.0704-.6594.2678-1.3922.3893-2.1736.3893-1.0502 0-1.9782-.2189-2.8087-.6569-.8303-.438-1.4652-1.0461-1.9537-1.8248-.464-.7785-.7082-1.6544-.7082-2.6278 0-.9731.2442-1.8734.7082-2.6277.464-.7542 1.1234-1.3868 1.9537-1.8248.8305-.438 1.7585-.6569 2.8087-.6569.7814 0 1.5142.1217 2.1736.3893.6595.2676 1.2455.6083 1.734 1.0706l-2.0027 1.8734c-.464-.5839-1.099-.8759-1.9049-.8759-.7327 0-1.3188.2433-1.8073.7543-.4641.5109-.7082 1.1435-.7082 1.8977 0 .7544.2441 1.3869.7082 1.8979.4641.5109 1.0746.7542 1.8073.7542.7814 0 1.4166-.2919 1.9049-.8759l2.0027 1.8736zm10.2346-8.5891h2.8574v5.2799c0 .73.1466 1.3139.4641 1.7032s.7571.6083 1.3433.6083c.6105 0 1.1233-.219 1.5142-.6569.3907-.438.586-.9977.586-1.6546v-5.3042h2.8575v9.8541h-2.4911l-.1221-1.2166c-.3907.438-.8548.803-1.3921 1.0463-.5373.2433-1.1235.365-1.7829.365-1.2454 0-2.198-.4136-2.8574-1.2166-.635-.8028-.9769-1.9952-.9769-3.5766V65.231zm20.709 9.8298v-9.8539h2.491l.1466 1.4111c.7083-1.0706 1.7095-1.6058 2.9796-1.6058.4396 0 .8792.0729 1.3188.1947l-.3908 2.4574c-.3907-.1216-.7571-.1947-1.1235-.1947-.7571 0-1.392.2919-1.8559.8516-.4641.5597-.7084 1.3625-.7084 2.4088v4.3553h-2.8574v-.0245zm16.2414-13.2115c0-.4623.1466-.8517.4396-1.1436.293-.2921.6839-.4379 1.1478-.4379.4641 0 .8549.1458 1.1479.4379.2931.2919.4397.6813.4397 1.1436 0 .4622-.1466.8514-.4397 1.1435-.293.2919-.6838.4379-1.1479.4379-.4639 0-.8548-.146-1.1478-.4379-.293-.2921-.4396-.657-.4396-1.1435zm.1466 13.2116v-9.854h2.8573v9.854h-2.8573zm13.2136-9.854h1.636v-2.4574h2.857v2.4574h2.394v2.4574h-2.394v3.6253c0 .4624.147.8273.44 1.0949.293.2678.684.3893 1.148.3893.342 0 .684-.0729 1.05-.219v2.3359c-.635.2433-1.246.3648-1.856.3648-1.172 0-2.076-.3162-2.711-.9488-.635-.6326-.952-1.5329-.952-2.7007V67.64h-1.637v-2.4331h.025zm19.83-.0002l2.32 4.8176c.098.219.196.4623.293.7299.098.2677.171.5597.245.8759l2.662-6.4234h3.004L130.515 80h-3.004l2.247-5.4257-4.591-9.3676h2.979zm17.754 8.4917c0-.4623.146-.8516.44-1.1436.293-.2919.683-.4379 1.147-.4379.465 0 .855.146 1.148.4379.293.292.44.6813.44 1.1436 0 .4622-.147.8516-.44 1.1435-.293.2919-.683.438-1.148.438-.464 0-.854-.1461-1.147-.438-.294-.2919-.44-.6813-.44-1.1435zm13.97-11.8491c0-.4623.146-.8517.439-1.1436.293-.2921.683-.4379 1.147-.4379.465 0 .855.1458 1.148.4379.293.2919.441.6813.441 1.1436 0 .4622-.148.8514-.441 1.1435-.293.2919-.683.4379-1.148.4379-.464 0-.854-.146-1.147-.4379-.293-.2921-.439-.657-.439-1.1435zm.146 13.2116v-9.854h2.858v9.854h-2.858zm13.116-4.9148c0-.9975.219-1.8735.683-2.6278.464-.7785 1.074-1.3868 1.88-1.8248.806-.438 1.711-.6569 2.711-.6569 1.027 0 1.93.2189 2.712.6569.781.438 1.416 1.0463 1.88 1.8248.464.7787.684 1.6546.684 2.6278 0 .9731-.22 1.8735-.684 2.6277-.464.7785-1.074 1.3868-1.88 1.8248-.782.438-1.685.6569-2.712.6569-1.025 0-1.928-.2189-2.711-.6569-.806-.438-1.416-1.0463-1.88-1.8248-.464-.7787-.683-1.6546-.683-2.6277zm2.759 0c0 .7543.245 1.3868.709 1.8978.464.5109 1.074.7542 1.806.7542.734 0 1.32-.2433 1.808-.7542.464-.511.708-1.1435.708-1.8978 0-.7542-.244-1.3869-.708-1.8978-.464-.511-1.074-.7543-1.808-.7543-.732 0-1.319.2433-1.806.7543-.464.4866-.709 1.1192-.709 1.8978zM18.439 12.0438c-4.6159 0-8.86541 1.7032-12.08916 4.5256V3.16301C6.34984 1.41119 4.93334 0 3.17491 0 1.4165 0 0 1.41119 0 3.16301V30.4136c0 10.1216 8.2792 18.3699 18.439 18.3699 10.1596 0 18.4389-8.2483 18.4389-18.3699 0-10.1217-8.2793-18.3698-18.4389-18.3698zm0 30.4136c-6.6674 0-12.08916-5.4014-12.08916-12.0438 0-6.6423 5.42176-12.0437 12.08916-12.0437 6.6672 0 12.089 5.4014 12.089 12.0437 0 6.6424-5.4218 12.0438-12.089 12.0438zm130.416-13.1388c-3.174-1.3139-6.301-1.9708-6.447-1.9951-.025 0-2.418-.5109-4.909-1.4841-3.834-1.5329-4.274-2.7252-4.274-2.7252 0-1.2651 1.612-2.7736 3.932-3.6495 3.761-1.4355 9.696-1.4355 13.97 3.3333 1.172 1.2896 3.175 1.4111 4.469.2433 1.295-1.1679 1.416-3.163.244-4.4526-2.808-3.1143-6.423-5.1581-10.477-5.9124-3.492-.6569-7.205-.3406-10.477.9003-4.933 1.8978-8.011 5.5473-8.011 9.5621 0 3.4306 2.638 6.253 7.815 8.394 3.175 1.3139 6.301 1.9709 6.448 1.9952.024 0 2.418.511 4.909 1.4842 3.834 1.5086 4.274 2.725 4.298 2.725 0 1.2653-1.612 2.7738-3.932 3.6497-3.761 1.4355-9.696 1.4355-13.969-3.3333-1.173-1.2896-3.175-1.4113-4.47-.2433-1.294 1.1679-1.416 3.163-.244 4.4526 2.809 3.1143 6.423 5.1581 10.477 5.9123 1.197.219 2.394.3407 3.615.3407 2.344 0 4.713-.4137 6.862-1.241 4.934-1.8977 8.011-5.5474 8.011-9.562-.024-3.4306-2.662-6.253-7.84-8.3942zm32.97 13.2605c-3.615 0-7.328-1.9222-7.328-5.1095 0-2.871-.048-11.2166-.12-18.9781h4.516c1.759 0 3.175-1.4112 3.175-3.163 0-1.7519-1.416-3.1631-3.175-3.1631h-4.567c-.048-5.10943-.072-8.92938-.072-9.02672C174.229 1.41119 172.814 0 171.08 0h-.026c-1.759.02433-3.149 1.43552-3.149 3.18734 0 .09733.023 3.91729.072 8.97806h-2.027c-1.758 0-3.175 1.4112-3.175 3.1631 0 1.7518 1.417 3.163 3.175 3.163h2.075c.051 7.7615.123 16.1314.123 18.9781 0 3.4063 1.611 6.472 4.518 8.5888 2.491 1.8247 5.74 2.8224 9.134 2.8224 1.759 0 3.175-1.4112 3.175-3.163 0-1.7518-1.416-3.1387-3.15-3.1387zm-114.1994-3.747l-.122.0973c-2.2957 2.3602-5.373 3.6496-8.6701 3.6496-.4639 0-.928-.0243-1.3676-.073l.4396 3.3577-2.6621 2.7007c1.1724.219 2.3691.365 3.5901.365 4.9821 0 9.647-1.9465 13.1637-5.4988l6.6429-6.18-4.3227-4.6229-6.6918 6.2044z"/><path fill="#58A1F9" d="M56.4897 42.3357c-5.5438-1.0949-9.7201-5.9854-9.7201-11.8248 0-2.287.6349-4.4282 1.7584-6.253l-3.3703-.6326-1.6852-3.1873c-1.9293 2.8954-3.0528 6.3746-3.0528 10.0972 0 8.516 5.837 15.6692 13.7254 17.7616l2.7598-2.7979-.4152-3.1632z"/><path fill="#58A1F9" d="M49.113 23.4064c2.1981-2.9928 5.7393-4.915 9.7447-4.915 3.3458 0 6.4719 1.3382 8.792 3.7713l.0733.0731 2.3933 2.2142 1.0014-3.4794 3.1749-1.2653-2.1248-1.9708c-3.5167-3.6496-8.2303-5.669-13.3101-5.669-6.0324 0-11.381 2.8954-14.7513 7.3722l1.6853 3.2604 3.3213.6083z"/><path fill="#58A1F9" d="M79.0325 32.8466l9.5247 8.8565.9526-3.236 3.4191-1.3626-9.5736-8.8808-8.2793-7.6885-3.1749 1.2408-1.0012 3.5037 8.1326 7.5669zm15.6047-10.4621l.1466-.1461c2.3202-2.4331 5.4222-3.7713 8.7922-3.7713 1.587 0 3.126.3164 4.518.876l2.393-2.4088-.488-3.6009c-2.003-.7543-4.176-1.1679-6.448-1.1679-5.0794 0-9.793 2.0194-13.3097 5.669l-5.6905 5.2798 4.3227 4.6229 5.7637-5.3527z"/><path fill="#58A1F9" d="M111.026 13.7469l.464 3.5281-2.491 2.506c3.932 1.9952 6.642 6.0584 6.642 10.7542 0 2.9197-1.05 5.6206-2.808 7.6887l1.661 3.1872 3.394.6327c2.565-3.163 4.103-7.1533 4.103-11.5086 0-7.4695-4.518-13.9171-10.965-16.7883z"/><path fill="#58A1F9" d="M112.148 39.0024c-2.199 2.2141-5.227 3.5766-8.597 3.5766-3.297 0-6.3744-1.2894-8.6701-3.6496l-.0489-.0486-1.099-1.022-3.4191 1.3625-.9526 3.2361 1.0258.9489c3.4925 3.5523 8.1571 5.4988 13.1639 5.4988 5.373 0 10.233-2.3115 13.603-5.9854l-3.297-.6083-1.709-3.309z"/></svg>