<svg xmlns="http://www.w3.org/2000/svg" role="img" viewBox="-4.49 -4.49 233.74 233.74"><title>Carnegie Mellon University logo</title><path d="M40 54h1v1h-1zm-3 2h1v1h-1zm125 8h1v1h-1zm1 0h1v1h-1zm-10 2h1v1h-1zm27 0h1v1h-1zm-23 1h1v1h-1zm-74 1h1v1h-1zm69 0h1v1h-1zm-19 1h1v1h-1zM32 70h1v2h-1zm27 1h1v1h-1zm-35 1h1v1h-1zm8 0h1v1h-1zm38 0h1v11h-1zm117 1h1v1h-1zM57 75h1v1h-1zm81 1h1v1h-1zm1 1h1v1h-1zm7 0h1v2h-1zm-94 1h1v1h-1zm-26 1h1v1h-1zm120 0h1v1h-1zm23 1h1v1h-1zM58 82h1v1h-1zm-29 1h1v1h-1zm41 0h1v1h-1zm49 0h1v1h-1zm-45 1h1v2h-1zm10 0h1v2h-1zm1 0h1v2h-1zm8 0h1v1h-1zm10 0h1v1h-1zm3 0h1v1h-1zm10 0h1v1h-1zm4 0h1v1h-1zm10 0h1v1h-1zm27 0h2v1h-2zm2 0h1v1h-1zm8 0h1v1h-1zm1 0h1v1h-1zM34 86h1v1h-1zm27 0h1v1h-1zm13 0h11v1H74zm11 0h1v1h-1zm-26 8h1v1h-1zm82 1h1v1h-1zm6 0h1v1h-1zM30 99h1v1h-1zm39 6h1v1h-1zm5 0h1v1h-1zm-12 1h1v1h-1zm-19 3h1v1h-1zm66 0h1v9h-1zm0 9h1v1h-1zm6 2h1v1h-1zm-53 1h1v1h-1zm43 0h1v1h-1zm5 0h1v1h-1zm-70 2h1v1h-1zm7 0h1v1h-1zm12 0h1v1h-1zm57 0h1v1h-1zm-92 7h1v1h-1zm10 2h1v17h-1zm53 4h1v1h-1zm0 4h1v1h-1zm28 0h1v1h-1zm21 0h1v1h-1zm37 0h1v1h-1zm26 0h1v1h-1zm7 1h1v1h-1zm-138 2h1v1h-1zm37 0h1v1h-1zm15 2h1v1h-1zm17 0h1v1h-1zm-17 1h1v1h-1zm38 0h1v1h-1zm-12 2h1v1h-1zm13 0h1v1h-1zm-125 1h1v1h-1zm14 4h1v1h-1zm136 3h1v1h-1zm-143 2h1v1h-1zm1 0h1v1h-1zm76 0h1v1h-1zm9 0h1v1h-1zm70 0h1v1h-1zm-80 2h1v1h-1zm30 0h1v1h-1zm6 0h1v1h-1zm1 0h1v1h-1z" fill="#cf5161"/><path d="M43 55h1v1h-1zm6 0h1v1h-1zm-9 1h1v1h-1zm125 7h1v1h-1zM47 64h1v1h-1zm11 2h1v1h-1zm6 0h1v1h-1zm83 0h1v1h-1zm29 0h1v1h-1zM73 68h1v1h-1zm19 0h1v1h-1zm33 0h1v1h-1zm7 0h1v1h-1zm47 0h1v1h-1zM24 69h1v1h-1zm8 0h1v1h-1zm82 1h1v1h-1zm-55 7h1v1h-1zm-31 5h1v1h-1zm142 0h1v1h-1zm-95 2h1v1h-1zm8 0h1v1h-1zm3 0h1v2h-1zm8 0h1v1h-1zm8 0h1v1h-1zm5 0h1v1h-1zm8 0h1v1h-1zm-52 1h1v1h-1zm9 0h1v1h-1zm101 0h1v1h-1zm-87 1h1v1h-1zm65 2h1v1h-1zm0 4h1v1h-1zm-2 2h1v1h-1zm-12 1h1v1h-1zM37 97h1v1h-1zm1 3h1v1h-1zm-7 2h1v1h-1zm8 1h1v1h-1zm98 0h1v1h-1zm-74 2h1v1h-1zm5 0h1v1h-1zm44 0h1v1h-1zm-72 1h1v1h-1zm36 1h1v1h-1zm49 0h1v14h-1zm-82 8h1v1h-1zm16 0h1v1h-1zm-22 4h1v1h-1zm-8 1h1v1h-1zm75 0h1v1h-1zm21 1h1v1h-1zm-3 1h1v1h-1zm12 1h1v1h-1zm-110 6h1v1h-1zm10 2h1v1h-1zm14 0h1v1h-1zm3 0h1v1h-1zm128 4h1v1h-1zm-2 3h1v1h-1zm-124 2h8v1h-8zm8 0h1v1h-1zm28 0h10v1H89zm10 0h1v1h-1zm4 0h6v1h-6zm6 0h1v1h-1zm15 2h1v1h-1zm70 0h1v1h-1zm-130 1h1v1h-1zm85 1h1v1h-1zm8 0h1v1h-1zm46 0h1v1h-1zm-104 1h1v1h-1zm89 0h1v1h-1zm-36 1h1v1h-1zm-49 2h1v1h-1zm57 1h1v1h-1zm37 0h1v1h-1zm-103 1h1v1h-1zm-67 1h1v1h-1zm173 0h1v1h-1zm-73 1h1v1h-1zm-24 1h1v1h-1zm43 0h1v6h-1zm8 0h1v1h-1zm7 0h1v1h-1zm-126 1h1v1h-1zm75 2h1v1h-1zm-80 1h1v1h-1zm15 0h1v1h-1zm3 0h1v1h-1zm49 0h1v1h-1zm78 0h1v1h-1zm-97 1h1v1h-1zm83 0h1v1h-1zm-15 1h1v1h-1zm-110 1h1v1h-1zm6 0h1v1h-1zm113 0h1v1h-1zm24 0h2v1h-2zm2 0h1v1h-1zm9 10h1v1h-1z" fill="#cd4456"/><path d="M31 56h1v1h-1zm5 1h1v1h-1zm123 4h1v1h-1zM48 66h1v1h-1zm45 0h7v1h-7zm7 0h1v1h-1zm-40 2h1v1h-1zm85 0h1v1h-1zm33 0h1v1h-1zM53 69h1v1h-1zm61 0h1v1h-1zm14 1h1v1h-1zm9 0h1v1h-1zm39 0h1v1h-1zm10 0h1v1h-1zM83 73h1v1h-1zm53 1h1v1h-1zm1 1h1v1h-1zm9 1h1v1h-1zM33 79h1v1h-1zm-7 1h1v1h-1zm25 0h1v1h-1zm0 1h1v1h-1zm90 0h7v1h-7zm7 0h1v1h-1zm28 0h1v1h-1zM44 82h1v1h-1zm15 1h1v1h-1zm24 0h1v1h-1zm94 0h1v1h-1zm9 0h1v1h-1zm-59 1h2v1h-2zm2 0h1v1h-1zm50 0h1v1h-1zM64 85h1v1h-1zm-39 7h9v1h-9zm9 0h1v1h-1zm16 0h8v1h-8zm8 0h1v1h-1zm21 0h7v1h-7zm7 0h1v1h-1zm5 0h7v1h-7zm7 0h1v1h-1zm-11 1h1v1h-1zm66 0h1v1h-1zm-104 7h1v1h-1zm15 4h1v1h-1zm43 0h1v1h-1zm-63 1h1v1h-1zm23 1h1v1h-1zm67 1h1v1h-1zm-89 3h1v1h-1zm14 1h1v1h-1zm64 1h1v2h-1zm-88 2h1v1h-1zm88 0h1v1h-1zm-81 5h1v1h-1zm-16 1h1v1h-1zm109 2h1v1h-1zm-18 1h1v1h-1zm-91 8h1v1h-1zm9 0h1v1h-1zm12 0h1v1h-1zm5 0h1v1h-1zm31 0h1v1h-1zm1 7h1v1h-1zm83 0h1v1h-1zm-53 2h1v1h-1zm24 0h1v1h-1zm11 0h1v1h-1zm-32 2h1v1h-1zm-9 1h1v1h-1zm8 0h1v1h-1zm-17 1h1v1h-1zm27 0h1v1h-1zm69 0h1v1h-1zm-132 1h1v1h-1zm12 0h1v1h-1zm29 0h1v1h-1zm50 1h1v1h-1zm34 0h1v1h-1zm-71 1h1v1h-1zm1 0h1v1h-1zm28 2h1v1h-1zm-98 2h1v1h-1zm99 1h1v1h-1zm-112 1h1v1h-1zm117 0h1v1h-1zm39 0h1v1h-1zm-155 2h1v1h-1zm121 0h1v1h-1zm-35 2h1v1h-1zm7 0h1v1h-1zm27 0h1v1h-1zm26 0h1v1h-1zm-150 2h1v1h-1zm126 0h1v1h-1zm18 0h1v1h-1zm21 0h1v1h-1zm-5 5h1v1h-1zm-7 2h1v1h-1z" fill="#c0000b"/><path d="M44 59h1v1h-1zm-11 3h1v1h-1zm14 3h1v1h-1zm36 2h1v1h-1zm43 1h1v1h-1zm-63 1h1v1h-1zm44 0h1v1h-1zm36 0h1v1h-1zm-59 1h1v1h-1zm69 1h1v1h-1zm-51 1h1v1h-1zm26 1h1v1h-1zm48 0h1v1h-1zM63 74h1v1h-1zm113 2h1v1h-1zM60 77h1v1h-1zm3 0h1v1h-1zm81 0h1v1h-1zm1 0h1v1h-1zm-5 4h1v1h-1zM35 83h1v1h-1zm36 0h1v1h-1zm54 0h1v1h-1zm6 0h1v1h-1zm-84 2h1v1h-1zm40 9h1v27h-1zm-30 1h1v1h-1zm23 0h1v26h-1zm62 0h1v1h-1zm4 0h1v1h-1zm4 1h1v1h-1zM29 97h1v1h-1zm20 2h1v1h-1zm-10 3h1v1h-1zm93 3h1v1h-1zm-18 1h1v1h-1zm23 0h1v1h-1zm-5 4h1v1h-1zm-54 1h2v1h-2zm0 6h2v1h-2zm2 4h1v1h-1zm7 0h1v1h-1zm-39 11h1v1h-1zm3 0h1v1h-1zm128 2h1v1h-1zm-23 6h1v1h-1zm1 0h1v1h-1zm-69 1h1v1h-1zm49 0h1v1h-1zm23 0h1v1h-1zm-14 2h1v1h-1zm58 0h1v1h-1zm-66 1h1v1h-1zm8 0h1v1h-1zm-78 1h1v12h-1zm82 0h1v1h-1zm-75 1h1v11h-1zm41 1h1v1h-1zm3 0h1v1h-1zm-14 2h1v1h-1zm93 1h1v1h-1zm-103 3h1v1h-1zm7 3h1v1h-1zm48 0h1v1h-1zm-82 1h1v1h-1zm7 0h1v1h-1zm13 0h1v1h-1zm29 0h1v1h-1zm20 0h1v1h-1zm34 0h1v1h-1zm14 10h1v1h-1z" fill="#bf0000"/><path d="M30 58h1v1h-1zm-1 1h1v1h-1zm17 1h1v1h-1zm114 1h1v1h-1zM32 62h1v1h-1zm15 0h1v1h-1zm117 1h1v1h-1zM57 67h1v1h-1zm8 0h1v1h-1zm20 0h1v1h-1zm10 0h5v1h-5zm5 0h1v1h-1zm11 0h1v1h-1zm18 0h1v1h-1zm13 0h1v1h-1zm10 0h1v1h-1zm8 0h4v1h-4zm4 0h1v1h-1zM25 68h1v1h-1zm106 0h1v1h-1zm16 0h1v1h-1zm33 0h1v1h-1zm-78 1h1v1h-1zm11 0h1v1h-1zm47 0h1v15h-1zm12 0h1v1h-1zm-71 1h1v2h-1zm22 0h1v1h-1zm10 0h1v1h-1zm5 0h1v1h-1zm16 0h1v1h-1zm27 1h1v2h-1zM58 72h1v1h-1zm24 0h1v1h-1zm19 0h1v1h-1zm69 0h1v1h-1zm11 1h1v1h-1zM25 74h1v1h-1zm98 0h1v1h-1zm-59 1h1v1h-1zm111 0h1v1h-1zM56 76h1v1h-1zm86 0h1v1h-1zm27 0h1v1h-1zM58 77h1v1h-1zm83 1h1v1h-1zM32 79h1v1h-1zm20 1h1v1h-1zm66 0h1v1h-1zm5 0h1v1h-1zm-77 1h1v1h-1zm6 0h1v1h-1zm85 0h1v1h-1zM33 82h1v1h-1zm86 0h1v1h-1zm21 0h8v1h-8zm8 0h1v1h-1zm-15 1h1v1h-1zm-61 1h1v1h-1zm49 0h1v1h-1zm11 0h1v1h-1zm28 0h1v1h-1zm23 0h1v1h-1zM36 85h1v1h-1zm7 0h1v1h-1zm5 0h1v1h-1zm23 0h1v1h-1zm35 0h1v1h-1zm17 0h1v1h-1zm6 0h1v1h-1zm28 0h1v1h-1zm25 0h1v1h-1zm-44 1h1v1h-1zm1 2h1v1h-1zm13 0h1v1h-1zM27 93h7v1h-7zm7 0h1v1h-1zm16 0h6v1h-6zm6 0h1v1h-1zm22 0h1v1h-1zm3 0h4v1h-4zm4 0h1v1h-1zm9 0h4v1h-4zm4 0h1v1h-1zm40 0h1v2h-1zm-89 1h1v1h-1zm88 0h1v1h-1zm13 0h1v1h-1zM28 95h1v1h-1zm110 0h1v1h-1zM30 97h1v1h-1zm37 7h1v1h-1zm43 0h1v1h-1zm26 0h1v1h-1zm-63 1h1v1h-1zm34 0h1v1h-1zm2 1h1v1h-1zm-64 1h1v1h-1zm86 3h1v1h-1zm-96 1h1v1h-1zm6 0h2v1h-2zm2 0h1v1h-1zm29 1h4v1h-4zm4 0h1v1h-1zm46 1h1v1h-1zm0 1h1v1h-1zm-19 3h1v1h-1zm1 2h1v1h-1zm12 0h1v1h-1zm-54 1h1v1h-1zm4 0h1v1h-1zm-3 1h1v1h-1zm11 0h1v1h-1zm32 0h1v1h-1zm-38 1h1v1h-1zm11 0h1v1h-1zm1 0h1v1h-1zm7 0h1v1h-1zm1 0h1v1h-1zm12 0h1v1h-1zm1 0h1v1h-1zm23 0h1v1h-1zm1 0h1v1h-1zm12 0h1v1h-1zm1 0h1v1h-1zm7 0h1v1h-1zm1 0h1v1h-1zm-63 10h1v1h-1zm83 0h1v1h-1zm-84 1h1v1h-1zm98 1h1v1h-1zm-96 3h1v1h-1zm83 0h1v1h-1zm11 1h1v1h-1zm-1 1h1v1h-1zm-36 1h1v1h-1zm-88 1h1v1h-1zm66 0h1v1h-1zm54 0h1v1h-1zm-112 1h1v1h-1zm12 0h1v1h-1zm76 0h1v1h-1zm44 0h1v1h-1zm-132 1h1v1h-1zm63 0h1v1h-1zm70 1h1v1h-1zm-120 1h1v1h-1zm31 0h1v1h-1zm-12 1h1v1h-1zm43 0h1v1h-1zm-75 1h1v10h-1zm93 0h1v1h-1zm-54 2h1v1h-1zm4 0h1v1h-1zm5 0h1v2h-1zm38 0h1v1h-1zm-38 2h1v1h-1zm51 0h1v1h-1zm-132 1h1v1h-1zm74 0h1v1h-1zm50 0h1v1h-1zm-56 1h1v1h-1zm62 1h2v1h-2zm2 0h1v1h-1zm-112 2h1v1h-1zm53 0h1v1h-1zm-70 1h1v1h-1zm30 0h1v1h-1zm123 0h1v1h-1zm10 0h1v1h-1zm-81 1h1v1h-1zm-78 1h1v1h-1zm86 0h1v1h-1zm61 0h1v1h-1zm13 2h1v1h-1zm-1 1h1v1h-1zm-8 4h1v1h-1zm5 0h1v1h-1z" fill="#fdf8f8"/><path d="M44 58h1v1h-1zm121 1h1v1h-1zM26 63h1v1h-1zm21 0h1v1h-1zm60 3h2v1h-2zm2 0h1v1h-1zm-27 1h1v1h-1zm19 0h1v2h-1zm29 0h1v1h-1zm-39 1h1v1h-1zm52 0h1v1h-1zm-42 1h1v1h-1zm46 0h1v1h-1zm9 0h1v1h-1zm-22 10h1v1h-1zm51 2h1v1h-1zM58 83h1v1h-1zm118 0h1v1h-1zM41 86h1v1h-1zm84 0h1v1h-1zm3 0h1v1h-1zm-35 8h1v1h-1zm-43 2h1v1h-1zm-19 5h1v1h-1zm8 3h1v1h-1zm77 0h1v1h-1zm2 1h1v1h-1zm16 1h1v1h-1zm-90 1h1v1h-1zm65 0h1v1h-1zm-7 5h1v1h-1zm-59 2h1v1h-1zm60 4h1v1h-1zm10 4h1v1h-1zm2 1h1v1h-1zm-29 9h1v1h-1zm83 0h1v1h-1zm11 0h1v1h-1zm-114 8h1v1h-1zm5 0h1v1h-1zm45 0h1v1h-1zm71 2h1v1h-1zm-40 1h1v1h-1zm-42 1h1v1h-1zm40 0h1v1h-1zm4 1h1v1h-1zm-34 2h1v1h-1zm-15 1h1v1h-1zm15 2h1v1h-1zm41 3h1v1h-1zm-117 5h1v1h-1zm16 0h1v1h-1zm8 0h1v1h-1zm4 0h1v1h-1zm12 0h1v1h-1zm10 0h1v1h-1zm73 0h1v1h-1zm10 0h1v1h-1zm23 4h1v1h-1z" fill="#e3a2a9"/><path d="M166 61h1v1h-1zm-42 5h1v1h-1zm-57 1h1v1h-1zm104 2h1v1h-1zm-68 1h1v1h-1zm-33 1h1v1h-1zm-16 5h1v1h-1zm112 7h1v1h-1zm-74 1h1v1h-1zm25 0h1v1h-1zm-69 2h1v1h-1zm45 0h10v1H93zm10 0h1v1h-1zm3 0h10v1h-10zm10 0h1v1h-1zm41 0h11v1h-11zm11 0h1v1h-1zm7 0h1v1h-1zm-40 5h1v1h-1zm-45 3h1v1h-1zm57 3h1v1h-1zm-36 6h1v1h-1zm23 1h1v1h-1zm-90 2h1v1h-1zm32 10h2v1h-2zm2 0h1v1h-1zm-1 3h1v1h-1zm-16 1h1v1h-1zm-20 1h1v1h-1zm41 16h1v1h-1zm45 3h1v1h-1zm34 0h1v1h-1zm-81 2h1v1h-1zm83 0h1v1h-1zm10 0h1v1h-1zm9 0h1v1h-1zm17 0h1v1h-1zm1 0h1v1h-1zm-13 1h1v1h-1zm-87 4h1v1h-1zm-69 11h1v1h-1zm85 2h1v1h-1zm36 0h1v1h-1z" fill="#c82f44"/><path d="M66 67h1v1h-1zm38 0h1v1h-1zm-41 1h1v1h-1zm90 2h1v1h-1zm-45 1h1v12h-1zm44 0h1v1h-1zm-51 3h1v9h-1zm16 1h1v1h-1zm-70 3h1v1h-1zm122 1h1v1h-1zm18 0h1v1h-1zm-52 1h2v1h-2zm2 0h1v1h-1zM33 81h1v1h-1zm85 0h1v1h-1zm-17 2h1v1h-1zm7 0h1v1h-1zm-13 1h1v1h-1zm19 0h1v1h-1zm-76 1h1v1h-1zm1 0h1v1h-1zm83 0h1v1h-1zm-65 1h1v1h-1zm120 0h1v1h-1zm-25 4h1v1h-1zM50 97h1v1h-1zm-10 10h1v1h-1zm31 0h1v1h-1zm62 0h1v1h-1zm-92 3h2v1h-2zm2 0h1v1h-1zm59 3h1v1h-1zm0 1h1v1h-1zm-65 4h1v1h-1zm29 1h1v1h-1zm-38 10h5v1h-5zm5 0h1v1h-1zm15 0h3v1h-3zm3 0h1v1h-1zm130 11h1v1h-1zm-44 2h1v1h-1zm67 0h1v1h-1zm-89 2h1v2h-1zm-9 1h1v1h-1zm9 1h1v1h-1zm27 0h1v1h-1zm-27 5h1v2h-1zm0 2h1v1h-1zm35 4h1v1h-1zm26 1h1v1h-1z" fill="#e5aab0"/><path d="M37 54h1v1h-1zm10 2h1v1h-1zm81 10h1v1h-1zm-6 1h1v1h-1zm-90 1h1v1h-1zm92 1h1v1h-1zM24 70h1v1h-1zm29 0h1v1h-1zm32 1h1v1h-1zm6 0h1v1h-1zm27 0h1v1h-1zm19 0h1v1h-1zm-47 1h1v1h-1zm47 2h1v1h-1zm15 1h1v1h-1zM47 77h1v1h-1zm102 1h1v1h-1zm38 2h1v1h-1zm-54 1h1v1h-1zm33 3h1v1h-1zM42 86h1v1h-1zm112 0h1v1h-1zm-18 3h1v1h-1zm-56 5h1v1h-1zm59 9h1v1h-1zm-33 2h1v1h-1zm7 0h1v1h-1zm-38 1h1v1h-1zm-34 3h1v1h-1zm4 0h1v1h-1zm25 2h1v1h-1zm-26 1h1v1h-1zm-8 4h1v1h-1zm66 0h1v1h-1zm-29 5h1v1h-1zm-49 1h1v1h-1zm94 0h1v1h-1zm-91 9h1v1h-1zm153 0h1v1h-1zm1 0h1v1h-1zm-99 1h1v1h-1zm88 4h1v1h-1zm8 1h1v1h-1zm-2 2h1v1h-1zm-26 1h1v1h-1zm20 0h1v1h-1zm-97 1h1v1h-1zm40 0h1v1h-1zm83 0h1v1h-1zm-105 2h1v1h-1zm19 1h1v1h-1zm10 0h1v1h-1zm26 1h1v1h-1zm50 2h1v1h-1zm-91 1h1v1h-1zm-78 2h1v1h-1zm99 2h1v1h-1zm38 5h1v1h-1zm-98 1h1v1h-1zm46 0h1v1h-1zm43 0h1v1h-1zm-122 1h1v1h-1zm45 0h1v1h-1zm83 0h1v1h-1zm-62 1h1v1h-1zm20 0h1v1h-1zm75 5h1v1h-1zm-6 5h1v1h-1z" fill="#d15c6a"/><path d="M35 55h1v1h-1zm-4 2h1v1h-1zm44 10h1v1h-1zm1 0h1v1h-1zm5 0h1v1h-1zm-26 1h1v1h-1zm9 1h1v1h-1zm5 1h1v1h-1zm102 0h1v1h-1zm-84 2h2v1h-2zm2 0h1v1h-1zm-26 3h1v1h-1zm61 0h4v1h-4zm4 0h1v1h-1zm48 0h4v1h-4zm4 0h1v1h-1zm6 0h1v1h-1zM52 82h1v1h-1zm81 0h1v1h-1zm51 1h1v1h-1zM33 85h1v1h-1zm29 0h1v1h-1zm66 0h1v1h-1zm51 0h1v1h-1zm1 0h1v1h-1zm-40 2h1v1h-1zm10 0h1v1h-1zm-12 3h1v1h-1zm15 1h1v1h-1zm-13 4h1v1h-1zm0 1h1v1h-1zM37 99h1v1h-1zm34 5h1v2h-1zm44 0h1v1h-1zm26 0h1v1h-1zm-77 1h1v1h-1zm67 0h1v1h-1zm-60 1h1v1h-1zm5 2h1v1h-1zm56 0h1v1h-1zm-16 1h1v9h-1zm15 2h1v10h-1zm-9 4h1v1h-1zm-80 1h1v1h-1zm34 2h1v1h-1zm40 0h1v1h-1zm-78 2h1v1h-1zm93 1h1v1h-1zm-63 2h1v1h-1zm-19 10h1v17h-1zm19 7h1v1h-1zm1 0h1v1h-1zm34 1h1v1h-1zm11 0h1v1h-1zm-51 1h1v1h-1zm57 0h1v1h-1zm28 0h1v1h-1zm9 1h1v1h-1zm-32 1h1v1h-1zm-15 1h1v1h-1zm30 0h1v1h-1zm4 0h1v1h-1zm15 0h1v1h-1zm-23 2h1v1h-1zm-87 3h1v1h-1zm61 5h1v1h-1zm-63 1h1v1h-1zm111 0h1v1h-1zm-120 2h1v1h-1zm49 0h1v1h-1zm64 0h1v1h-1zm-97 1h1v1h-1zm1 0h1v1h-1zm7 0h1v1h-1zm6 0h1v1h-1zm7 0h1v1h-1zm1 0h1v1h-1zm4 0h1v1h-1zm1 0h1v1h-1zm7 0h1v1h-1zm27 0h1v1h-1zm14 0h1v1h-1zm1 0h1v1h-1zm7 0h2v1h-2zm2 0h1v1h-1zm12 0h1v1h-1zm12 0h1v1h-1zm1 0h1v1h-1zm7 0h1v1h-1z" fill="#f6e3e5"/><path d="M36 56h1v1h-1zm-4 8h1v1h-1zm55 2h1v1h-1zm64 3h1v1h-1zm-66 1h1v1h-1zm34 0h1v1h-1zm-18 3h1v1h-1zm-37 1h1v1h-1zm60 0h4v1h-4zm4 0h1v1h-1zm48 0h4v1h-4zm4 0h1v1h-1zM60 75h1v1h-1zm-5 1h1v1h-1zm-23 1h1v1h-1zm40 5h1v1h-1zM30 98h1v1h-1zm20 0h1v23h-1zm81 6h1v1h-1zm-87 7h1v1h-1zm33 7h1v1h-1zm-27 3h1v1h-1zm57 1h1v1h-1zm-81 7h1v1h-1zm1 0h1v1h-1zm7 0h2v1h-2zm2 0h1v1h-1zm11 0h1v1h-1zm5 0h1v1h-1zm101 12h1v1h-1zm-17 1h1v1h-1zm-29 1h1v1h-1zm30 1h1v1h-1zm19 3h1v1h-1zm-53 2h1v1h-1zm94 1h1v1h-1zm-147 2h1v1h-1zm-2 2h1v1h-1zm67 0h1v1h-1zm11 1h1v1h-1zm-10 2h1v1h-1zm13 1h1v1h-1zm8 0h1v1h-1zm1 0h1v1h-1zm56 0h1v1h-1zm-104 1h1v1h-1zm32 0h1v1h-1zm18 0h1v1h-1zm33 0h1v1h-1z" fill="#e7afb5"/><path d="M45 59h1v1h-1zm115 3h1v1h-1zm-19 5h1v1h-1zm10 0h1v1h-1zm-56 1h1v1h-1zm12 0h1v1h-1zm44 0h1v1h-1zm-60 2h1v1h-1zm51 0h1v1h-1zm-8 1h1v1h-1zm41 0h1v2h-1zm0 2h1v1h-1zM48 75h1v1h-1zm13 0h1v1h-1zm74 0h1v1h-1zm-18 1h1v1h-1zm30 0h1v1h-1zm28 0h1v1h-1zM52 79h1v1h-1zm-25 1h1v1h-1zm107 2h1v1h-1zm16 0h1v1h-1zM44 83h1v1h-1zm26 1h1v1h-1zm1 0h1v1h-1zm54 0h1v1h-1zm-88 1h1v1h-1zm3 0h1v1h-1zm-4 1h1v1h-1zm22 0h1v1h-1zm10 0h1v1h-1zm58 0h1v1h-1zm1 0h1v1h-1zm51 0h1v1h-1zm-37 1h8v1h-8zm8 0h1v1h-1zm-11 4h1v1h-1zm-39 2h1v28h-1zm-43 2h1v26h-1zm92 0h1v1h-1zm-22 9h4v1h-4zm4 0h1v1h-1zm5 0h1v1h-1zm-89 1h1v1h-1zm24 0h1v1h-1zm44 0h1v1h-1zm-69 3h1v1h-1zm99 0h1v1h-1zm-41 1h1v1h-1zm-68 3h1v1h-1zm87 4h1v1h-1zm-66 5h1v1h-1zm11 0h1v1h-1zm32 0h1v1h-1zm-35 1h1v1h-1zm5 0h1v1h-1zm33 0h1v1h-1zm34 0h1v1h-1zm-26 1h1v1h-1zm70 10h1v1h-1zm-93 1h1v1h-1zm83 0h1v1h-1zm0 1h1v1h-1zm9 1h1v1h-1zm-96 1h1v1h-1zm83 0h1v1h-1zm-47 3h1v1h-1zm40 0h1v1h-1zm-23 1h1v1h-1zm-49 1h1v15h-1zm4 0h1v1h-1zm54 0h1v1h-1zm30 0h1v1h-1zm13 2h1v1h-1zm-89 2h1v1h-1zm51 0h1v1h-1zm-41 1h1v1h-1zm-15 2h1v1h-1zm21 0h1v1h-1zm-87 4h1v1h-1zm81 0h1v1h-1zm-22 4h1v1h-1zm49 0h1v1h-1zm23 0h1v1h-1zm26 0h1v1h-1zm12 0h1v1h-1zm-116 1h1v1h-1zm36 0h1v1h-1zm13 0h1v1h-1zm-96 1h1v1h-1zm158 7h1v2h-1zm0 2h1v1h-1z" fill="#edc5ca"/><path d="M46 61h1v1h-1zm15 5h1v1h-1zm1 0h1v1h-1zm64 0h1v1h-1zm1 0h1v1h-1zm47 1h1v1h-1zm8 0h1v1h-1zM68 68h1v1h-1zm25 0h1v1h-1zm93 3h1v1h-1zm-69 3h1v1h-1zm30 1h1v1h-1zm-89 3h1v1h-1zm82 1h1v1h-1zm-94 1h1v1h-1zm140 2h1v1h-1zM62 84h1v1h-1zm110 0h1v1h-1zM65 85h1v1h-1zm5 1h1v1h-1zm106 0h1v1h-1zm-22 1h1v1h-1zm-1 5h1v1h-1zm-21 14h1v1h-1zm-28 1h1v1h-1zm-38 11h1v1h-1zm-39 1h1v1h-1zm12 4h1v1h-1zm135 17h1v1h-1zm-96 1h1v1h-1zm-13 1h1v1h-1zm16 0h1v1h-1zm24 0h1v1h-1zm3 0h1v1h-1zm-16 3h1v1h-1zm34 0h1v1h-1zm17 1h1v1h-1zm16 0h1v1h-1zm-13 1h1v1h-1zm-29 2h2v1h-2zm2 0h1v1h-1zm7 0h1v1h-1zm21 1h1v1h-1zm-45 1h1v1h-1zm23 3h1v1h-1zm-2 3h1v1h-1zm34 0h1v1h-1zm-5 1h1v1h-1zm-86 1h1v1h-1z" fill="#da828c"/><path d="M37 53h2v1h-2zm2 0h1v1h-1zm11 3h1v9h-1zm-21 1h1v1h-1zm8 0h1v1h-1zm124 0h1v1h-1zM34 59h1v1h-1zm11 1h1v1h-1zm121 2h1v1h-1zm-1 2h1v1h-1zM24 65h1v1h-1zm26 0h1v1h-1zm9 0h1v1h-1zm4 0h1v1h-1zm23 0h1v1h-1zm20 0h1v1h-1zm4 0h1v1h-1zm15 0h1v1h-1zm3 0h1v1h-1zm15 0h1v1h-1zm3 0h1v1h-1zm16 0h1v1h-1zm1 0h1v1h-1zm14 0h2v1h-2zm2 0h1v1h-1zM33 66h1v2h-1zm16 0h1v1h-1zm24 0h1v1h-1zm11 0h1v1h-1zm38 0h1v1h-1zm-67 1h1v1h-1zm17 0h1v1h-1zm60 0h1v1h-1zm-99 1h1v1h-1zm81 0h1v1h-1zm-44 1h1v1h-1zm67 0h1v1h-1zM23 70h1v1h-1zm29 0h1v1h-1zm23 0h1v12h-1zm-52 1h1v1h-1zm29 0h1v1h-1zm40 0h1v1h-1zm25 0h1v1h-1zm19 0h1v1h-1zm10 0h1v3h-1zm34 1h1v1h-1zM33 73h1v1h-1zm57 0h1v1h-1zm-57 1h1v1h-1zm16 0h1v1h-1zm5 0h1v1h-1zm92 0h1v1h-1zm-96 1h1v1h-1zm103 0h1v1h-1zm-16 1h1v1h-1zm-91 1h1v2h-1zm-21 2h1v1h-1zm21 0h1v1h-1zm70 0h1v1h-1zm25 0h1v1h-1zm8 0h1v1h-1zm-5 1h1v1h-1zm1 0h1v1h-1zm23 0h1v1h-1zm17 0h1v1h-1zm3 0h1v1h-1zM73 81h2v1h-2zm59 0h1v1h-1zm19 0h1v1h-1zM27 82h1v1h-1zm32 0h1v1h-1zm15 0h1v1h-1zm1 0h1v1h-1zm50 0h1v1h-1zm44 0h1v1h-1zM42 83h1v1h-1zm76 0h1v1h-1zm17 0h1v1h-1zm23 0h1v1h-1zm1 0h1v1h-1zm8 0h1v1h-1zm11 1h1v1h-1zM45 85h1v1h-1zm88 0h1v1h-1zm22 1h1v1h-1zm27 0h1v1h-1zM42 87h1v1h-1zm82 0h1v1h-1zm5 0h1v1h-1zm52 0h1v1h-1zm-46 2h1v1h-1zm20 0h1v1h-1zM24 92h1v1h-1zm66 0h1v1h-1zm60 0h1v1h-1zM23 93h1v1h-1zm66 0h1v1h-1zm60 0h1v1h-1zM48 94h1v1h-1zm29 0h1v1h-1zm64 0h1v1h-1zm6 0h1v1h-1zM47 95h1v1h-1zm31 0h1v1h-1zm1 0h1v1h-1zm12 0h1v1h-1zm46 1h1v1h-1zm12 1h1v1h-1zm-7 1h1v1h-1zm4 0h1v1h-1zm-98 3h1v1h-1zm-18 1h1v1h-1zm108 0h1v1h-1zm1 0h1v1h-1zm3 1h1v1h-1zm-68 1h1v1h-1zm32 0h1v1h-1zm-59 2h1v1h-1zm21 0h1v1h-1zm1 0h1v1h-1zm44 0h1v1h-1zm7 0h1v1h-1zm-53 2h1v1h-1zm43 0h1v1h-1zm27 0h1v13h-1zm-91 1h1v1h-1zm13 0h1v1h-1zm8 0h1v1h-1zm11 0h1v1h-1zm55 0h1v1h-1zm-65 1h1v1h-1zm1 0h1v1h-1zm32 1h1v1h-1zm-56 1h1v1h-1zm-11 1h1v1h-1zm24 0h1v1h-1zm0 1h1v1h-1zm9 0h1v3h-1zm-32 2h1v1h-1zm66 0h1v1h-1zm-34 1h1v1h-1zm56 0h1v1h-1zm-64 1h1v1h-1zm-30 1h1v1h-1zm81 0h1v1h-1zm12 0h1v1h-1zm-92 1h1v1h-1zm37 0h1v1h-1zm47 0h1v1h-1zm-46 1h1v1h-1zm24 0h1v1h-1zm45 0h1v1h-1zm-114 1h1v1h-1zm10 0h1v1h-1zm40 1h1v1h-1zm30 0h1v1h-1zm15 0h1v1h-1zm30 0h1v1h-1zm-46 1h1v1h-1zm34 0h1v1h-1zm11 0h1v1h-1zm-65 7h1v1h-1zm83 0h1v1h-1zm-139 1h1v18h-1zm138 0h1v1h-1zm-76 1h1v1h-1zm76 0h1v1h-1zm-84 1h1v1h-1zm83 0h1v1h-1zm-83 1h1v1h-1zm83 0h1v1h-1zm-75 1h1v1h-1zm83 0h1v1h-1zm-85 2h1v1h-1zm83 0h1v1h-1zm-90 1h7v1h-7zm7 0h1v1h-1zm42 0h7v1h-7zm7 0h1v1h-1zm4 0h1v1h-1zm11 0h1v1h-1zm5 0h1v1h-1zm3 0h1v1h-1zm4 0h7v1h-7zm7 0h1v1h-1zm14 0h12v1h-12zm12 0h1v1h-1zm5 0h5v1h-5zm5 0h1v1h-1zm-133 1h1v1h-1zm1 0h1v1h-1zm15 0h1v1h-1zm25 0h1v1h-1zm-51 1h1v1h-1zm62 0h2v1h-2zm22 0h1v1h-1zm-21 1h1v1h-1zm22 0h1v1h-1zm-57 1h1v1h-1zm14 0h1v1h-1zm82 0h1v1h-1zm14 0h1v1h-1zm-91 1h1v1h-1zm10 0h1v1h-1zm10 0h1v12h-1zm27 0h1v1h-1zm7 0h1v12h-1zm-25 1h1v1h-1zm-75 1h1v1h-1zm40 0h1v1h-1zm5 0h1v1h-1zm36 0h1v1h-1zm16 0h1v1h-1zm43 0h1v1h-1zm-15 1h1v1h-1zm9 0h1v1h-1zm-91 1h1v1h-1zm22 0h1v1h-1zm-27 1h1v1h-1zm-75 1h1v1h-1zm9 0h1v1h-1zm91 1h1v1h-1zm-1 1h1v1h-1zm-74 1h1v1h-1zm77 0h1v1h-1zm21 0h1v1h-1zm51 0h1v1h-1zm-173 1h1v1h-1zm81 0h1v1h-1zm47 0h1v1h-1zm36 0h1v1h-1zm-88 1h1v1h-1zm-58 1h1v1h-1zm1 0h1v1h-1zm83 0h1v1h-1zm32 0h2v1h-2zm2 0h1v1h-1zm-123 1h2v1h-2zm2 0h1v1h-1zm7 0h1v1h-1zm15 0h1v1h-1zm26 0h1v1h-1zm28 0h1v1h-1zm3 0h1v1h-1zm34 0h1v1h-1zm18 0h1v1h-1zm-82 1h1v1h-1zm83 0h1v1h-1zm24 0h1v1h-1zm-101 1h1v1h-1zm15 0h1v1h-1zm11 0h1v1h-1zm3 0h1v1h-1zm-93 1h1v1h-1zm12 0h1v1h-1zm21 0h1v1h-1zm12 0h1v1h-1zm20 0h1v1h-1zm23 0h1v1h-1zm6 0h1v1h-1zm22 0h1v1h-1zm-112 1h1v1h-1zm4 0h1v1h-1zm77 0h1v1h-1zm1 0h1v1h-1zm77 0h1v1h-1zm-6 2h2v1h-2zm2 0h1v1h-1zm3 2h1v1h-1zm-7 6h1v1h-1zm1 0h1v1h-1z" fill="#c30027"/><path d="M35 54h1v1h-1zm7 3h1v1h-1zm-7 1h1v1h-1zm8 0h1v1h-1zm116 2h1v1h-1zM57 66h1v1h-1zm17 0h7v1h-7zm7 0h1v1h-1zm42 0h1v1h-1zm18 0h1v1h-1zm34 0h1v1h-1zM24 67h1v1h-1zm37 1h1v1h-1zm59 0h1v1h-1zm-45 1h1v1h-1zm17 0h2v1h-2zm2 0h1v1h-1zm25 0h1v1h-1zm51 1h1v1h-1zm-42 1h1v1h-1zm7 0h1v1h-1zm20 0h1v1h-1zm-38 1h1v1h-1zm11 0h1v1h-1zm-71 2h1v1h-1zm86 1h1v1h-1zm25 0h1v2h-1zm-44 1h10v1h-10zm10 0h1v1h-1zm9 0h1v1h-1zm34 0h9v1h-9zm9 0h1v1h-1zm-18 1h1v1h-1zM33 78h1v1h-1zm117 0h1v1h-1zm35 1h1v1h-1zm-45 1h1v1h-1zm36 0h1v1h-1zm-27 1h1v1h-1zm-98 1h1v1h-1zm12 0h1v1h-1zm8 0h1v1h-1zm61 0h1v1h-1zm3 0h1v1h-1zm-92 1h1v1h-1zm-2 1h1v1h-1zm130 0h1v1h-1zm9 0h1v1h-1zm-24 1h1v1h-1zm-94 1h1v1h-1zm112 0h1v1h-1zM37 87h2v1h-2zm2 0h1v1h-1zm102 1h1v1h-1zm9 0h1v1h-1zm1 1h1v2h-1zm0 2h1v1h-1zM35 92h1v1h-1zm43 0h1v1h-1zm61 0h1v1h-1zM36 93h1v1h-1zm41 0h1v1h-1zm58 0h1v1h-1zM26 95h1v1h-1zm117 0h2v1h-2zm2 0h1v1h-1zm-7 1h1v1h-1zM29 98h1v1h-1zm9 1h1v1h-1zm-8 1h1v1h-1zm15 2h1v1h-1zm3 0h1v1h-1zm25 2h1v1h-1zm-41 2h1v1h-1zm72 0h1v1h-1zm20 0h1v1h-1zm11 0h1v1h-1zm-102 3h1v1h-1zm112 0h1v12h-1zm-75 1h1v1h-1zm62 1h1v8h-1zm-9 4h1v1h-1zm-64 2h1v1h-1zm16 1h1v1h-1zm57 1h1v2h-1zm-22 1h1v1h-1zm1 1h1v1h-1zm21 0h1v1h-1zm13 0h1v1h-1zm-104 1h1v1h-1zm34 0h2v1h-2zm2 0h1v1h-1zm-13 1h1v1h-1zm102 8h1v1h-1zm-79 1h1v1h-1zm-39 1h1v17h-1zm3 0h1v17h-1zm127 3h1v1h-1zm-93 2h1v1h-1zm83 0h1v1h-1zm-16 1h1v1h-1zm1 0h1v1h-1zm22 0h1v1h-1zm-73 2h1v1h-1zm69 0h1v15h-1zm-83 1h1v1h-1zm63 0h1v1h-1zm3 0h1v1h-1zm6 0h1v3h-1zm14 1h1v1h-1zm-99 1h1v1h-1zm85 1h1v1h-1zm40 0h1v1h-1zm3 0h1v1h-1zm-111 1h1v1h-1zm63 0h1v1h-1zm-49 1h1v1h-1zm31 0h1v1h-1zm-29 1h1v1h-1zm89 0h1v1h-1zm-104 1h1v1h-1zm-45 1h1v1h-1zm3 0h1v1h-1zm65 0h1v1h-1zm45 0h1v1h-1zm-53 2h1v1h-1zm92 0h1v1h-1zm-49 1h1v1h-1zm-35 2h1v1h-1zm45 0h1v1h-1zm-38 1h1v1h-1zm48 0h1v1h-1zm-127 1h1v1h-1zm36 0h1v1h-1zm83 0h1v1h-1zm-117 2h1v1h-1zm67 0h1v1h-1zm71 0h1v1h-1zm-130 1h9v1h-9zm9 0h1v1h-1zm4 0h9v1h-9zm9 0h1v1h-1zm3 0h10v1H79zm10 0h1v1h-1zm39 0h11v1h-11zm11 0h1v1h-1zm23 0h10v1h-10zm10 0h1v1h-1zm23 4h1v1h-1zm-1 2h1v1h-1zm-9 2h1v1h-1zm6 2h1v1h-1z" fill="#c00014"/><path d="M32 56h1v1h-1zm9 0h1v1h-1zm-7 2h1v1h-1zm-7 3h1v1h-1zm65 6h1v1h-1zm57 0h1v1h-1zm-92 1h1v1h-1zm18 0h1v1h-1zm83 0h1v1h-1zm1 0h1v1h-1zm-64 1h1v1h-1zm42 3h1v1h-1zm-2 1h2v1h-2zm2 0h1v1h-1zm50 1h1v1h-1zM59 75h1v1h-1zm128 0h1v1h-1zM32 76h1v1h-1zm17 0h1v1h-1zm122 7h1v1h-1zM46 84h1v1h-1zm131 0h1v1h-1zm6 1h1v1h-1zM35 86h1v1h-1zm25 0h1v1h-1zm7 0h1v1h-1zm-8 7h1v1h-1zm-34 1h1v1h-1zm33 0h1v1h-1zm-22 1h1v1h-1zm103 1h1v1h-1zm4 1h2v1h-2zm2 0h1v1h-1zm-100 7h1v1h-1zm88 1h1v1h-1zm-62 5h1v1h-1zm-5 1h1v1h-1zm36 4h1v1h-1zm-26 5h1v1h-1zm-29 2h1v1h-1zm27 0h1v1h-1zm38 0h1v1h-1zm-87 1h1v1h-1zm6 0h1v1h-1zm17 0h1v1h-1zm10 0h1v1h-1zm31 0h2v1h-2zm2 0h1v1h-1zm10 0h1v1h-1zm22 0h1v1h-1zm10 0h1v1h-1zm4 0h1v1h-1zm44 10h1v1h-1zm0 1h1v1h-1zm-61 6h1v1h-1zm19 2h1v2h-1zm42 0h1v1h-1zm-70 1h1v1h-1zm83 0h1v1h-1zm-55 1h1v1h-1zm62 4h1v1h-1zm-167 3h1v1h-1zm62 3h1v1h-1zm52 0h1v1h-1zm-24 2h1v1h-1zm61 0h1v1h-1zm-84 1h1v1h-1zm-48 1h1v1h-1zm15 0h1v1h-1zm7 0h2v1h-2zm2 0h1v1h-1zm11 0h1v1h-1zm83 0h1v1h-1zm-107 1h1v1h-1zm50 0h1v1h-1zm63 0h1v1h-1zm17 2h1v1h-1z" fill="#de929a"/><path d="M36 54h1v1h-1zm-6 3h1v1h-1zm136 3h1v1h-1zm-6 3h1v1h-1zm-8 3h1v1h-1zm-98 2h1v1h-1zm8 0h1v1h-1zm84 0h1v1h-1zm11 0h1v1h-1zm-98 2h1v1h-1zm75 0h1v1h-1zm46 1h1v1h-1zm-45 1h1v1h-1zm12 7h1v1h-1zm-23 2h1v1h-1zm11 0h1v1h-1zm41 1h1v1h-1zm8 0h1v1h-1zm-48 2h1v1h-1zm18 1h1v1h-1zm-99 1h1v1h-1zm18 0h1v1h-1zm19 0h1v1h-1zm25 0h1v1h-1zm13 0h1v1h-1zm7 0h1v1h-1zm2 7h1v1h-1zM36 94h1v1h-1zm116 0h1v1h-1zm-106 6h1v1h-1zm24 3h1v1h-1zm52 6h1v1h-1zm-20 1h1v1h-1zm-28 10h1v1h-1zm-44 1h1v1h-1zm8 1h1v1h-1zm27 1h1v1h-1zm57 0h1v1h-1zm-85 7h1v1h-1zm44 3h1v1h-1zm84 4h1v1h-1zm-23 2h1v1h-1zm-77 1h1v1h-1zm56 0h1v1h-1zm75 0h1v1h-1zm10 0h1v1h-1zm-106 1h1v1h-1zm-47 1h1v1h-1zm1 0h1v1h-1zm20 0h1v1h-1zm15 0h1v1h-1zm10 0h1v1h-1zm4 0h1v1h-1zm6 0h1v1h-1zm65 0h1v1h-1zm12 0h1v1h-1zm-131 1h1v13h-1zm70 0h1v1h-1zm76 0h1v1h-1zm-1 3h1v1h-1zm-107 2h1v1h-1zm56 4h1v1h-1zm-1 1h1v1h-1zm-52 2h1v1h-1zm-67 1h1v1h-1zm26 0h1v1h-1zm46 2h1v1h-1zm52 0h1v1h-1zm41 1h1v1h-1zm-94 1h1v1h-1z" fill="#c6253c"/><path d="M38 54h1v1h-1zm1 0h1v1h-1zm10 3h1v7h-1zm112 1h1v1h-1zM49 64h1v1h-1zm10 2h1v1h-1zm66 0h1v1h-1zm13 3h1v1h-1zm-62 1h1v13h-1zm-23 1h1v1h-1zm1 2h1v1h-1zm-5 2h1v1h-1zm96 4h1v1h-1zm-69 4h1v1h-1zm-3 2h1v1h-1zm51 1h1v1h-1zm-46 8h1v1h-1zm14 0h1v1h-1zm-44 1h1v1h-1zm101 1h1v1h-1zm-7 1h1v1h-1zm-4 6h1v1h-1zm4 1h1v1h-1zm-82 5h1v1h-1zm62 8h1v1h-1zm-47 2h1v1h-1zm34 0h1v1h-1zm-7 4h1v1h-1zm34 0h1v1h-1zm-55 12h1v1h-1zm-2 5h1v1h-1zm49 0h1v1h-1zm11 0h1v1h-1zm23 0h1v1h-1zm33 0h1v1h-1zm-34 1h1v1h-1zm-31 2h1v13h-1zm-67 1h1v1h-1zm136 9h1v1h-1zm-7 1h1v1h-1zm-156 2h1v1h-1zm94 0h1v1h-1zm-93 4h1v1h-1zm4 0h1v1h-1zm77 0h1v1h-1z" fill="#d56e7b"/><path d="M48 55h1v1h-1zm116 3h1v1h-1zM32 65h1v1h-1zm57 1h1v1h-1zm-33 1h1v1h-1zm46 4h1v1h-1zm12 0h1v1h-1zm-65 6h1v8h-1zm-2 7h2v1h-2zm12 0h1v1h-1zm17 0h1v1h-1zm-27 1h1v1h-1zm105 3h1v1h-1zM26 94h1v1h-1zm31 0h1v1h-1zm-8 3h1v1h-1zm-1 3h1v1h-1zm-2 1h1v1h-1zm26 3h1v1h-1zm71 1h1v1h-1zm-110 2h1v1h-1zm33 0h1v1h-1zm78 0h1v1h-1zm-22 3h1v1h-1zm-46 7h1v1h-1zm-35 3h1v1h-1zm18 2h1v1h-1zm-33 1h4v1h-4zm4 0h1v1h-1zm19 0h8v1h-8zm8 0h1v1h-1zm15 0h1v1h-1zm6 0h10v1H78zm10 0h1v1h-1zm4 0h8v1h-8zm8 0h1v1h-1zm9 0h1v1h-1zm15 0h8v1h-8zm8 0h1v1h-1zm6 0h8v1h-8zm8 0h1v1h-1zm35 12h1v4h-1zm0 4h1v1h-1zm20 3h1v1h-1zm-81 1h1v1h-1zm61 0h1v12h-1zm-40 3h1v1h-1zm5 0h1v1h-1zm5 0h1v1h-1zm48 3h1v1h-1zm-98 1h1v1h-1zm3 0h1v1h-1zm44 1h1v1h-1zm33 4h1v1h-1zm12 1h1v1h-1zm-156 1h1v1h-1zm6 1h1v1h-1zm97 0h1v1h-1zm17 1h1v1h-1zm-119 1h2v1h-2zm2 0h1v1h-1zm151 5h1v1h-1z" fill="#da8890"/><path d="M45 56h1v1h-1zm4 0h1v1h-1zm111 3h1v1h-1zM49 65h1v1h-1zm-17 1h1v1h-1zm28 0h1v1h-1zm26 0h1v1h-1zm20 0h1v2h-1zm4 0h1v1h-1zm34 0h2v1h-2zm2 0h1v1h-1zm31 0h2v1h-2zm2 0h1v1h-1zm-67 1h1v1h-1zm-18 1h1v1h-1zm12 0h1v1h-1zm33 0h1v1h-1zm-55 1h1v1h-1zm96 0h1v1h-1zm-33 1h1v1h-1zm-64 1h1v1h-1zm3 1h1v1h-1zm83 1h1v1h-1zM32 75h1v1h-1zm26 0h1v1h-1zm81 3h1v3h-1zm0 3h1v1h-1zm-66 1h1v1h-1zm78 0h1v1h-1zm-88 1h1v1h-1zm10 0h1v1h-1zm-41 2h1v1h-1zm24 1h1v1h-1zm73 0h1v1h-1zm8 2h1v1h-1zm-58 6h1v1h-1zm12 0h1v1h-1zm-64 1h1v23h-1zm66 0h1v26h-1zm-46 3h1v1h-1zm0 5h1v1h-1zm18 1h1v1h-1zm43 0h1v1h-1zm3 1h1v1h-1zm27 2h1v1h-1zm-61 2h1v1h-1zm-43 1h1v1h-1zm68 1h1v1h-1zm-75 7h1v1h-1zm33 0h1v1h-1zm-34 3h1v1h-1zm67 0h1v1h-1zm41 1h1v1h-1zm13 1h1v1h-1zm-60 10h1v1h-1zm83 0h1v1h-1zm-89 1h1v1h-1zm83 0h1v1h-1zm-20 6h1v1h-1zm14 0h1v1h-1zm-31 1h1v1h-1zm3 1h1v1h-1zm34 0h1v1h-1zm-83 1h1v14h-1zm68 0h1v1h-1zm52 1h1v1h-1zm-6 1h1v1h-1zm-6 2h1v1h-1zm-73 2h1v1h-1zm4 0h5v1h-5zm5 0h1v1h-1zm-30 3h1v1h-1zm-45 1h1v1h-1zm105 0h1v1h-1zm-74 4h1v1h-1zm30 0h1v1h-1zm-71 1h1v1h-1zm50 0h1v1h-1zm83 0h1v1h-1zm23 2h1v1h-1zm-9 4h1v1h-1zm3 0h1v1h-1zm3 3h1v1h-1zm-4 3h1v1h-1z" fill="#d87883"/><path d="M35 57h1v1h-1zm-10 8h1v1h-1zm38 1h1v1h-1zm80 0h1v1h-1zM32 67h1v1h-1zm41 0h1v1h-1zm11 0h1v1h-1zm29 1h1v1h-1zm-55 1h1v1h-1zm11 0h1v1h-1zm7 0h1v1h-1zm-52 2h1v1h-1zm123 0h1v3h-1zM32 73h1v1h-1zm26 0h1v1h-1zm-26 1h1v1h-1zm115 0h1v1h-1zm-94 3h1v1h-1zm64 2h1v1h-1zm27 0h1v1h-1zm-20 3h1v1h-1zm-82 2h1v1h-1zm140 0h1v1h-1zm-1 2h1v1h-1zm-42 3h1v1h-1zm15 0h1v1h-1zM24 93h1v1h-1zm66 0h1v1h-1zm56 4h1v1h-1zm-100 9h1v1h-1zm20 2h1v2h-1zm43 0h1v1h-1zm29 0h1v13h-1zm-6 1h1v1h-1zm-66 1h1v1h-1zm1 1h2v1h-2zm2 0h1v1h-1zm-34 2h1v1h-1zm24 0h1v1h-1zm7 0h1v4h-1zm-7 1h1v1h-1zm7 3h1v1h-1zm55 2h1v1h-1zm17 2h1v1h-1zm-106 1h1v1h-1zm-5 10h1v17h-1zm138 0h1v1h-1zm-1 3h1v1h-1zm-78 2h1v1h-1zm83 0h1v1h-1zm-89 3h6v1h-6zm6 0h1v1h-1zm43 0h6v1h-6zm6 0h1v1h-1zm20 0h1v1h-1zm8 0h6v1h-6zm6 0h1v1h-1zm13 0h12v1h-12zm12 0h1v1h-1zm6 0h5v1h-5zm5 0h1v1h-1zm-60 1h1v1h-1zm-29 1h1v1h-1zm-18 1h1v1h-1zm66 0h1v13h-1zm-102 3h1v1h-1zm42 0h1v1h-1zm5 0h1v1h-1zm93 0h1v1h-1zm-45 1h1v1h-1zm-130 2h1v1h-1zm7 1h1v1h-1zm93 3h1v1h-1zm-99 1h1v1h-1zm81 0h1v1h-1zm-7 1h1v1h-1zm58 1h1v1h-1zm4 0h1v1h-1zm-39 1h1v1h-1zm5 0h1v1h-1zm-66 1h1v1h-1zm57 0h1v1h-1zm3 0h1v1h-1zm-79 1h1v1h-1zm53 0h1v1h-1zm29 0h1v1h-1zm66 4h1v1h-1z" fill="#d46875"/><g fill="#c41230"><path d="M0 0h224v52H0zm224 0h1v224h-1zM0 52h224v1H0zm0 1h35v1H0zm35 0h1v1h-1zm7 0h182v1H42zM0 54h32v1H0zm32 0h1v1h-1zm12 0h3v1h-3zm3 0h1v1h-1zm3 0h174v1H50zM0 55h31v1H0zm31 0h2v1h-2zm2 0h1v1h-1zm18 0h173v1H51zM0 56h29v1H0zm29 0h1v1h-1zm9 0h1v27h-1zm8 0h1v1h-1zm5 0h173v1H51zM0 57h28v1H0zm28 0h1v2h-1zm23 0h109v1H51zm109 0h1v1h-1zm5 0h59v1h-59zM0 58h27v1H0zm27 0h1v1h-1z"/><path d="M36 58h5v24h-5zm5 0h1v25h-1zm10 0h108v6H51zm108 0h1v1h-1zm7 0h58v1h-58zM0 59h26v2H0zm26 0h2v1h-2zm2 0h1v1h-1zm14 0h1v23h-1zm1 0h1v22h-1zm124 0h57v1h-57z"/><path d="M35 60h8v21h-8zm133 0h56v4h-56zM0 61h25v2H0zm25 0h1v1h-1zm19 0h1v19h-1z"/><path d="M34 62h10v17H34zM0 63h24v4H0zm24 0h1v1h-1zm21 0h1v15h-1zm122 0h57v1h-57zM51 64h108v1H51zm115 0h58v1h-58zM46 65h1v10h-1zm5 0h6v1h-6zm6 0h1v1h-1zm8 0h19v1H65zm19 0h1v1h-1zm7 0h13v1H91zm13 0h1v1h-1zm8 0h11v1h-11zm11 0h1v1h-1zm7 0h11v1h-11zm11 0h1v1h-1zm7 0h3v1h-3zm3 0h1v1h-1zm4 0h2v1h-2zm2 0h1v1h-1zm9 0h9v1h-9zm9 0h1v1h-1zm6 0h43v1h-43zM47 66h1v8h-1zm3 0h4v1h-4zm4 0h1v1h-1zm14 0h4v1h-4zm4 0h1v1h-1zm11 0h1v1h-1zm19 0h1v1h-1zm3 0h1v1h-1zm8 0h8v1h-8zm8 0h1v1h-1zm11 0h7v1h-7zm7 0h1v1h-1zm3 0h1v1h-1zm25 0h5v1h-5zm5 0h1v2h-1zm12 0h40v1h-40zM0 67h23v157H0zm23 0h1v1h-1zm25 0h5v2h-5zm5 0h1v1h-1zm16 0h2v1h-2zm2 0h1v3h-1zm43 0h5v1h-5zm5 0h1v1h-1zm14 0h5v1h-5zm5 0h1v1h-1zm12 0h1v1h-1zm18 0h3v1h-3zm3 0h1v1h-1zm14 0h39v1h-39zM24 68h1v1h-1zm46 0h1v1h-1zm45 0h3v1h-3zm3 0h1v1h-1zm9 0h1v4h-1zm7 0h3v1h-3zm3 0h1v1h-1zm31 0h2v1h-2zm2 0h2v1h-2zm2 0h1v1h-1zm5 0h1v4h-1zm9 0h38v1h-38zM48 69h4v4h-4zm4 0h1v1h-1zm8 0h1v1h-1zm1 0h1v4h-1zm11 0h1v11h-1zm32 0h1v15h-1zm11 0h2v1h-2zm2 0h1v1h-1zm9 0h1v3h-1zm9 0h1v1h-1zm1 0h1v1h-1zm9 0h1v7h-1zm23 0h1v2h-1zm1 0h1v1h-1z"/><path d="M176 69h2v1h-2zm2 0h1v3h-1zm7 0h39v1h-39zM62 70h1v3h-1zm9 0h3v1h-3zm3 0h1v11h-1zm19 0h1v12h-1zm12 0h1v13h-1zm1 0h1v12h-1zm10 0h1v2h-1zm1 0h1v1h-1zm7 0h3v1h-3zm12 0h1v1h-1zm8 0h1v5h-1zm43 0h37v1h-37zM73 71h1v9h-1zm95 0h1v1h-1zm20 0h36v1h-36zM53 72h1v3h-1zm6 0h3v1h-3zm24 0h1v1h-1zm9 0h1v10h-1z"/><path d="M103 72h3v10h-3zm13 0h1v1h-1zm10 0h1v1h-1zm1 0h1v1h-1zm27 0h3v10h-3zm3 0h1v10h-1zm12 0h1v1h-1zm8 0h1v1h-1zm1 0h1v1h-1zm11 0h35v66h-35zM48 73h4v1h-4zm4 0h1v3h-1zm8 0h2v1h-2zm2 0h1v1h-1zm22 0h1v9h-1zm1 0h1v9h-1zm3 0h1v46h-1zm3 0h2v9h-2zm-44 1h1v1h-1z"/><path d="M50 74h3v1h-3zm36 0h1v8h-1zm1 0h6v8h-6zm-64 1h1v17h-1zm23 0h1v1h-1zm5 0h2v1h-2zm2 0h1v1h-1zm91 0h1v1h-1zm-93 1h1v1h-1zm1 0h1v1h-1zm84 0h1v1h-1zm9 0h1v1h-1zm8 0h4v5h-4zm35 0h36v1h-36zM51 77h1v1h-1zm73 0h10v1h-10zm10 0h3v1h-3zm3 0h1v1h-1zm40 0h8v2h-8zm8 0h1v1h-1zm3 0h36v1h-36zM24 78h1v13h-1zm21 0h1v1h-1zm15 0h2v4h-2zm2 0h1v4h-1zm64 0h7v2h-7zm7 0h2v1h-2zm2 0h1v1h-1z"/><path d="M152 78h5v2h-5zm35 0h37v1h-37zM34 79h10v1H34z"/><path d="M150 79h7v1h-7zm27 0h7v2h-7zm7 0h1v1h-1zM25 80h1v11h-1zm19 0h1v1h-1zm28 0h2v1h-2zm52 0h8v1h-8zm8 0h1v1h-1zm16 0h9v1h-9zM35 81h8v1h-8zm8 0h2v1h-2zm2 0h1v1h-1zm71 0h1v1h-1zm10 0h5v1h-5zm5 0h1v1h-1zm22 0h4v1h-4zm15 0h1v1h-1zm9 0h6v1h-6zm6 0h1v1h-1zM26 82h1v9h-1zm10 0h6v1h-6zm6 0h1v1h-1zm18 0h2v2h-2zm2 0h1v1h-1zm22 0h9v1h-9zm9 0h1v1h-1zm10 0h3v1h-3zm3 0h1v1h-1zm10 0h2v1h-2zm2 0h1v1h-1zm8 0h4v1h-4zm4 0h1v1h-1zm24 0h3v1h-3zm3 0h1v1h-1zm11 0h1v1h-1zm10 0h4v1h-4zm4 0h1v1h-1zm6 0h36v56h-36zM27 83h1v8h-1zm10 0h4v1h-4zm4 0h1v1h-1zm46 0h4v1h-4zm4 0h1v1h-1zm14 0h1v1h-1zm22 0h2v1h-2zm2 0h1v1h-1zm5 0h1v7h-1zm21 0h1v1h-1zm1 0h1v1h-1zm13 0h1v1h-1zm10 0h1v1h-1zm1 0h1v1h-1z"/><path d="M187 83h37v55h-37zM28 84h2v7h-2zm2 0h1v7h-1zm30 0h1v1h-1zm1 0h1v1h-1zm12 0h1v1h-1zm16 0h1v8h-1zm1 0h1v7h-1zm14 0h1v21h-1zm22 0h1v1h-1zm29 0h1v1h-1zm14 0h1v46h-1zm1 0h1v47h-1zM51 85h1v6h-1zm68 0h2v18h-2zm2 0h1v18h-1zm14 0h1v3h-1zm36 0h1v47h-1z"/><path d="M186 85h38v53h-38zM49 86h3v5h-3zm3 0h1v5h-1zm12 0h1v17h-1zm7 0h1v16h-1zm52 0h1v16h-1zm10 0h2v4h-2zm39 0h1v53h-1z"/><path d="M185 86h39v52h-39zM31 87h2v4h-2zm2 0h1v4h-1zm11 0h3v9h-3zm3 0h1v6h-1zm6 0h1v4h-1zm1 0h1v4h-1zm8 0h3v16h-3zm3 0h1v15h-1zm7 0h1v15h-1zm15 0h4v4h-4zm4 0h1v4h-1zm14 0h1v17h-1zm13 0h4v16h-4zm4 0h1v15h-1zm9 0h5v1h-5zm5 0h2v1h-2zm2 0h1v1h-1zm18 0h1v52h-1zm17 0h1v51h-1zm1 0h1v51h-1z"/><path d="M183 87h41v51h-41zM34 88h101v2H34zm101 0h1v1h-1zm5 0h1v4h-1z"/><path d="M157 88h67v41h-67zm-16 1h9v3h-9zm9 0h1v2h-1zM34 90h100v1H34zm100 0h1v1h-1zM24 91h109v1H24zm109 0h1v12h-1zm17 0h1v1h-1z"/><path d="M155 91h69v38h-69zM23 92h1v1h-1zm13 0h12v1H36zm12 0h1v1h-1zm12 0h17v1H60zm17 0h1v1h-1zm10 0h2v1h-2zm2 0h1v1h-1zm11 0h33v1h-33zm35 0h1v1h-1zm5 0h9v1h-9zm9 0h1v1h-1zM37 93h10v1H37zm10 0h1v1h-1zm14 0h15v8H61zm15 0h1v12h-1zm25 0h33v8h-33zm33 0h1v9h-1zm7 0h7v1h-7zm7 0h1v1h-1z"/><path d="M154 93h70v36h-70zM38 94h8v2h-8zm104 0h4v1h-4zm4 0h1v1h-1zM23 95h1v26h-1zm37 0h17v6H60zm17 0h1v11h-1zm12 0h1v24h-1zm46 0h1v7h-1z"/><path d="M151 95h73v34h-73zM24 96h1v24h-1zm1 0h1v23h-1zm13 0h8v1h-8zm8 0h1v1h-1zm12 0h21v5H58zm21 0h1v15h-1zm11 0h1v24h-1zm1 0h1v23h-1zm45 0h1v5h-1zm-97 1h6v2h-6zm6 0h1v2h-1zm92 0h1v4h-1z"/><path d="M150 97h74v32h-74zM49 98h1v1h-1zm89 0h2v3h-2zm2 0h1v3h-1z"/><path d="M148 98h76v22h-76zM39 99h6v1h-6zm6 0h1v1h-1z"/><path d="M141 99h83v2h-83zm-101 1h4v2h-4zm4 0h1v2h-1zm14 1h21v1H58zm43 0h123v1H101zm-61 1h4v1h-4zm4 0h1v1h-1zm14 0h8v1h-8zm8 0h1v1h-1zm5 0h8v1h-8zm30 0h8v1h-8zm8 0h1v1h-1zm6 0h20v1h-20zm20 0h1v1h-1zm7 0h82v1h-82zm-101 1h2v1h-2zm2 0h1v2h-1zm15 0h6v1h-6zm6 0h1v1h-1zm3 0h1v1h-1zm7 0h5v1h-5zm27 0h6v1h-6zm6 0h1v1h-1zm7 0h1v1h-1zm4 0h3v1h-3zm3 0h1v1h-1zm11 0h1v1h-1zm1 0h1v1h-1zm3 0h1v1h-1zm7 0h81v1h-81zm-102 1h2v1h-2zm6 0h1v1h-1zm11 0h4v1h-4zm4 0h1v1h-1zm13 0h4v1h-4zm26 0h4v1h-4zm4 0h1v1h-1zm12 0h1v1h-1zm27 0h80v1h-80zm-112 1h1v1h-1zm10 0h1v2h-1zm1 0h1v1h-1zm5 0h1v14h-1zm10 0h3v1h-3zm3 0h1v1h-1zm15 0h3v1h-3zm25 0h3v1h-3zm3 0h1v1h-1zm41 0h79v1h-79zm-114 1h1v13h-1zm27 0h2v2h-2zm2 0h1v1h-1zm17 0h2v1h-2zm24 0h2v1h-2zm2 0h1v1h-1zm7 0h1v1h-1zm36 0h78v13h-78zm-104 1h1v1h-1zm26 0h1v2h-1zm1 0h1v2h-1zm9 0h1v1h-1zm23 0h1v2h-1zm1 0h1v1h-1zm9 0h2v13h-2zm2 0h1v13h-1zm10 0h1v1h-1zm13 0h1v12h-1zm-103 1h1v1h-1zm14 0h1v13h-1zm11 0h1v3h-1zm1 0h1v1h-1zm64 0h1v1h-1zm12 0h1v12h-1zm-103 1h1v11h-1zm36 0h1v1h-1zm1 0h1v1h-1zm32 0h1v1h-1zm13 0h1v8h-1z"/><path d="M134 109h2v11h-2zm-88 1h2v11h-2z"/><path d="M133 110h3v9h-3zm-99 1h1v1h-1zm24 0h1v1h-1zm-25 1h1v9h-1zm45 0h1v2h-1zm-33 1h3v8h-3zm34 0h1v2h-1zm-45 1h1v13h-1zm44 0h1v1h-1zm-10 1h7v3h-7zm7 0h1v1h-1zm4 0h1v4h-1z"/><path d="M44 116h4v5h-4zm14 0h1v3h-1zm-23 1h1v10h-1zm79 0h1v1h-1z"/><path d="M42 118h6v1h-6zm26 0h6v1h-6zm6 0h1v1h-1zm27 0h1v1h-1zm-76 1h1v2h-1zm6 0h4v1h-4zm12 0h5v2h-5zm5 0h1v2h-1zm10 0h1v2h-1zm1 0h1v2h-1zm9 0h5v1h-5zm5 0h1v1h-1zm6 0h1v2h-1zm9 0h3v1h-3zm3 0h1v2h-1zm10 0h1v2h-1zm14 0h1v1h-1zm18 0h3v1h-3zm3 0h1v2h-1zm10 0h78v1h-78zm-122 1h1v1h-1zm8 0h4v1h-4zm4 0h1v7h-1zm33 0h3v1h-3zm3 0h1v1h-1zm39 0h2v1h-2zm2 0h1v1h-1zm9 0h1v1h-1zm12 0h1v1h-1zm1 0h1v1h-1zm13 0h76v1h-76zm-125 1h2v1h-2zm2 0h1v1h-1zm6 0h5v1h-5zm12 0h5v1h-5zm5 0h1v1h-1zm10 0h2v1h-2zm2 0h1v1h-1zm18 0h1v1h-1zm1 0h1v1h-1zm9 0h1v1h-1zm1 0h2v1h-2zm2 0h1v1h-1zm10 0h1v1h-1zm1 0h1v1h-1zm21 0h1v1h-1zm10 0h1v1h-1zm3 0h1v1h-1zm10 0h1v1h-1zm1 0h77v1h-77zm-105 1h3v34h-3zm3 0h1v6h-1zm16 0h2v16h-2zm2 0h1v17h-1zm41 0h2v16h-2zm2 0h1v16h-1zm14 0h1v16h-1zm29 0h75v7h-75zm-112 1h1v4h-1zm38 0h1v18h-1zm1 0h1v33h-1zm43 0h1v15h-1zm-96 1h1v4h-1z"/><path d="M33 124h5v3h-5zm5 0h1v4h-1zm3 0h5v4h-5zm5 0h1v3h-1zm14 0h4v14h-4zm4 0h1v15h-1zm10 0h3v16h-3zm3 0h1v15h-1zm26 0h4v14h-4zm4 0h1v14h-1zm10 0h4v14h-4zm4 0h1v14h-1zm14 0h1v14h-1zm13 0h76v5h-76z"/><path d="M24 125h200v2H24zm0 2h200v1H24zm-1 1h1v1h-1zm15 0h7v1h-7zm7 0h1v1h-1zm9 0h170v1H54zm-17 1h7v1h-7zm18 0h169v1H55zm-16 1h5v26h-5zm16 0h28v1H55zm28 0h83v1H83zm83 0h1v1h-1zm3 0h10v1h-10zm10 0h1v1h-1zm3 0h42v1h-42zm-159 1h1v93h-1z"/><path d="M38 131h7v24h-7zm7 0h1v24h-1zm9 0h27v1H54zm27 0h1v1h-1zm3 0h1v1h-1zm3 0h77v1H87zm77 0h1v1h-1zm3 0h1v1h-1zm3 0h8v1h-8zm8 0h1v3h-1zm-154 1h1v92h-1zm1 0h1v92h-1z"/><path d="M36 132h11v21H36zm11 0h1v19h-1zm5 0h28v6H52zm28 0h1v1h-1zm8 0h75v1H88zm75 0h1v1h-1zm8 0h7v1h-7zm-82 1h73v4H89zm73 0h1v5h-1zm13 0h3v3h-3zm3 1h1v1h-1zm-15 2h1v2h-1zm12 0h2v1h-2zm2 0h1v1h-1zm-97 1h1v1h-1z"/><path d="M88 137h75v1H88zm83 0h5v1h-5zm5 0h1v1h-1zm-124 1h29v1H52zm29 0h1v1h-1zm6 0h53v1H87zm53 0h1v1h-1zm4 0h20v1h-20zm20 0h1v1h-1zm6 0h5v1h-5zm5 0h1v1h-1zm8 0h41v1h-41zm-131 1h1v2h-1zm10 0h2v1h-2zm2 0h1v1h-1zm9 0h4v1h-4zm4 0h1v1h-1zm23 0h2v1h-2zm2 0h1v1h-1zm8 0h4v1h-4zm4 0h1v1h-1zm8 0h4v1h-4zm4 0h1v1h-1zm11 0h1v1h-1zm1 0h1v1h-1zm3 0h1v1h-1zm4 0h4v1h-4zm4 0h1v1h-1zm7 0h1v1h-1zm1 0h1v1h-1zm3 0h1v1h-1zm11 0h1v1h-1zm1 0h1v1h-1zm25 0h1v1h-1zm1 0h1v1h-1zm9 0h17v1h-17zm-133 1h2v1h-2zm26 0h1v1h-1zm1 0h1v6h-1zm10 0h1v1h-1zm1 0h1v1h-1zm12 0h1v1h-1zm1 0h1v1h-1zm21 0h1v1h-1zm1 0h1v1h-1zm61 0h16v84h-16zm-156 1h1v18h-1zm23 0h1v1h-1zm73 0h1v1h-1zm-82 1h1v14h-1zm12 0h1v14h-1zm26 0h1v1h-1zm23 0h2v2h-2zm2 0h1v1h-1zm26 0h1v3h-1zm6 0h1v6h-1zm35 0h1v2h-1z"/><path d="M206 142h18v82h-18zm-129 1h1v13h-1zm23 0h2v1h-2zm2 0h1v4h-1zm15 0h1v3h-1zm1 0h1v3h-1zm20 0h1v1h-1zm13 0h3v1h-3zm3 0h1v2h-1zm18 0h1v13h-1zm25 0h1v3h-1zm1 0h1v4h-1zm-145 1h1v12h-1zm12 0h1v13h-1zm14 0h1v12h-1zm10 0h1v12h-1zm1 0h1v12h-1z"/><path d="M100 144h3v1h-3zm3 0h1v1h-1zm4 0h1v1h-1zm20 0h1v1h-1zm1 0h1v2h-1zm23 0h4v1h-4zm11 0h1v6h-1zm11 0h1v12h-1zm10 0h3v10h-3zm3 0h1v11h-1zm10 0h3v1h-3zm3 0h1v1h-1zm6 0h19v80h-19zm-141 1h3v11h-3zm3 0h1v11h-1zm36 0h1v1h-1zm36 0h1v11h-1zm15 0h2v1h-2zm2 0h1v1h-1zm43 0h1v1h-1z"/><path d="M204 145h20v79h-20zm-113 1h1v11h-1zm10 0h1v1h-1zm16 0h1v1h-1zm1 0h1v1h-1zm10 0h1v1h-1zm59 0h1v16h-1zm10 0h1v1h-1zm-95 1h1v1h-1zm5 0h1v1h-1zm31 0h1v9h-1zm22 0h2v1h-2zm38 0h1v1h-1zm-91 1h1v1h-1zm33 0h4v8h-4zm4 0h1v76h-1zm17 0h1v1h-1zm38 0h1v1h-1z"/><path d="M203 148h21v76h-21zm-111 1h1v75h-1zm14 0h1v75h-1zm39 0h1v3h-1zm43 0h1v13h-1zm-60 1h1v1h-1zm34 0h1v1h-1zm28 0h1v1h-1z"/><path d="M202 150h22v74h-22zm-155 1h1v1h-1zm46 0h1v73h-1zm11 0h2v1h-2zm13 0h8v1h-8zm8 0h1v1h-1zm3 0h1v1h-1zm18 0h1v1h-1zm43 0h1v11h-1zm-84 1h2v72h-2zm2 0h1v72h-1zm10 0h7v2h-7zm7 0h1v1h-1zm21 0h1v1h-1z"/><path d="M201 152h23v72h-23zm-175 1h1v71h-1zm10 0h10v1H36zm10 0h1v1h-1zm48 0h1v71h-1zm96 0h1v9h-1zm-153 1h9v1h-9zm9 0h1v1h-1zm4 0h3v1h-3zm54 0h3v70h-3zm13 0h6v1h-6zm6 0h1v1h-1zm27 0h2v1h-2zm2 0h1v2h-1zm5 0h1v1h-1zm4 0h1v1h-1zm22 0h7v1h-7zm-156 1h1v69h-1zm10 0h8v1h-8zm8 0h2v1h-2zm2 0h1v1h-1zm4 0h2v3h-2zm66 0h5v1h-5zm5 0h1v1h-1zm6 0h1v1h-1z"/><path d="M151 155h5v1h-5zm5 0h1v1h-1zm6 0h1v1h-1zm21 0h1v1h-1zm3 0h4v1h-4zm14 0h24v69h-24zm-161 1h5v1h-5zm5 0h1v1h-1zm9 0h1v1h-1zm11 0h3v1h-3zm3 0h1v1h-1zm9 0h3v1h-3zm3 0h1v1h-1zm10 0h6v1h-6zm6 0h1v68h-1zm8 0h5v68h-5zm5 0h1v68h-1zm10 0h4v1h-4zm4 0h1v1h-1zm6 0h1v1h-1zm10 0h6v1h-6zm14 0h3v1h-3zm3 0h1v1h-1zm17 0h1v1h-1zm1 0h1v1h-1zm18 0h1v7h-1zm-163 1h1v67h-1zm22 0h2v1h-2zm5 0h1v1h-1zm10 0h1v1h-1zm26 0h4v1h-4zm18 0h1v67h-1zm32 0h3v1h-3zm52 0h1v1h-1z"/><path d="M199 157h25v67h-25zm-170 1h1v66h-1zm20 0h3v66h-3zm47 0h1v66h-1zm14 0h1v66h-1zm10 0h1v1h-1zm22 0h2v66h-2zm12 0h1v1h-1zm38 0h1v3h-1zm-162 1h1v65h-1z"/><path d="M48 159h2v65h-2zm4 0h1v65h-1zm50 0h9v65h-9zm9 0h1v65h-1zm14 0h1v65h-1zm50 0h1v65h-1zm11 0h6v3h-6zm12 0h26v65h-26zm-167 1h1v64h-1zm1 0h1v64h-1zm11 0h1v64h-1z"/><path d="M46 160h5v64h-5zm19 0h1v64h-1zm26 0h6v64h-6zm6 0h1v64h-1zm15 0h1v64h-1zm12 0h2v64h-2zm2 0h1v64h-1zm15 0h3v64h-3zm5 0h1v64h-1zm12 0h2v64h-2zm2 0h1v64h-1zm14 0h2v64h-2zm2 0h1v64h-1zm8 0h8v2h-8zm-151 1h1v63h-1zm1 0h1v63h-1z"/><path d="M44 161h54v63H44zm54 0h1v63h-1zm3 0h13v63h-13zm13 0h1v63h-1zm8 0h23v63h-23zm23 0h1v63h-1zm3 0h3v63h-3zm3 0h1v63h-1zm6 0h20v63h-20zm20 0h1v63h-1zm6 0h9v1h-9zm9 0h1v1h-1z"/><path d="M35 162h156v1H35zm162 0h27v62h-27zm-162 1h151v1H35zm151 0h1v1h-1z"/><path d="M195 163h29v1h-29zm-160 1h150v60H35zm150 0h1v1h-1zm11 0h28v60h-28z"/><path d="M195 166h29v58h-29z"/><path d="M194 168h30v56h-30zm-9 2h1v54h-1z"/><path d="M193 170h31v54h-31zm-7 1h1v53h-1z"/><path d="M191 171h33v53h-33z"/><path d="M187 172h37v52h-37zM0 224h224v1H0zm224 0h1v1h-1z"/></g><path d="M40 53h1v1h-1zm3 1h1v1h-1zm6 0h1v1h-1zm1 1h1v1h-1zm-20 1h1v1h-1zm9 0h1v1h-1zm1 1h1v1h-1zm-6 4h1v1h-1zm132 2h1v1h-1zM25 64h1v1h-1zm21 0h1v1h-1zm114 0h1v2h-1zm4 0h1v2h-1zM58 65h1v1h-1zm6 0h1v1h-1zm60 0h1v1h-1zm23 0h1v1h-1zm6 0h1v1h-1zm1 0h1v1h-1zm22 0h1v1h-1zm4 0h1v1h-1zM67 66h1v1h-1zm18 0h1v1h-1zm6 0h1v1h-1zm49 0h1v1h-1zm10 0h1v1h-1zm8 0h7v1h-7zm7 0h1v1h-1zM54 67h1v1h-1zm-1 1h1v1h-1zm6 0h1v1h-1zm13 0h1v1h-1zm95 0h1v14h-1zm17 0h1v1h-1zm1 0h1v1h-1zM23 69h1v1h-1zm10 0h1v3h-1zm29 0h1v1h-1zm11 0h1v1h-1zm97 0h1v1h-1zm-55 1h1v1h-1zm44 0h1v12h-1zm20 0h1v1h-1zM23 72h1v1h-1zm10 0h1v1h-1zm38 0h1v9h-1zm-48 1h1v1h-1zm93 0h1v1h-1zm72 0h1v1h-1zM56 74h1v1h-1zm-2 1h1v1h-1zm-30 2h1v1h-1zm27 1h1v1h-1zm135 0h1v1h-1zM59 79h1v2h-1zm-25 1h1v1h-1zm83 0h1v1h-1zm26 0h1v1h-1zm3 0h1v1h-1zm-87 1h1v1h-1zm12 0h1v1h-1zm88 1h1v1h-1zm8 0h1v1h-1zm16 0h1v1h-1zm-99 1h1v1h-1zm1 0h1v1h-1zm8 0h1v1h-1zm10 0h1v1h-1zm3 0h1v1h-1zm10 0h1v1h-1zm10 0h1v1h-1zm4 0h1v1h-1zm27 0h1v1h-1zm11 0h1v1h-1zm-12 1h1v1h-1zm-24 1h1v1h-1zm-69 1h1v1h-1zm73 0h1v1h-1zm37 0h1v1h-1zM34 87h1v1h-1zm27 0h1v1h-1zm5 0h1v1h-1zm8 0h11v1H74zm11 0h1v1h-1zm90 0h1v1h-1zm-20 3h1v1h-1zm-15 3h1v1h-1zm10 0h1v1h-1zm-90 1h1v1h-1zm75 0h1v1h-1zm-76 1h1v1h-1zm-21 2h1v1h-1zm103 1h1v1h-1zm-112 2h1v18h-1zm10 0h1v1h-1zm29 2h1v1h-1zm1 0h1v1h-1zm43 0h1v1h-1zm1 0h1v1h-1zm24 0h1v1h-1zm3 0h1v1h-1zm-100 1h1v1h-1zm4 0h1v1h-1zm90 0h1v1h-1zm-71 1h1v1h-1zm-22 2h2v1h-2zm2 0h1v1h-1zm69 0h1v1h-1zm32 0h1v1h-1zm-84 1h1v1h-1zm17 0h1v1h-1zm37 0h1v1h-1zm10 0h1v12h-1zm-22 1h1v1h-1zm13 0h1v1h-1zm-5 1h1v9h-1zm-52 3h1v1h-1zm10 1h9v1h-9zm9 0h1v1h-1zm-33 2h1v1h-1zm14 0h1v1h-1zm-29 3h1v1h-1zm81 0h1v1h-1zm-74 1h1v1h-1zm42 0h1v1h-1zm46 0h1v2h-1zm-64 1h1v1h-1zm8 0h1v1h-1zm-26 1h1v1h-1zm82 0h1v1h-1zm-83 2h1v1h-1zm5 0h1v1h-1zm14 0h1v1h-1zm-20 1h1v1h-1zm7 0h1v1h-1zm12 0h1v1h-1zm57 0h1v1h-1zm18 0h1v1h-1zm-110 4h1v1h-1zm-1 1h1v1h-1zm0 1h1v1h-1zm157 0h1v1h-1zm1 0h1v1h-1zm-157 1h1v1h-1zm155 0h1v1h-1zm3 0h1v1h-1zm-147 1h1v17h-1zm143 3h1v1h-1zm-97 1h1v1h-1zm0 1h1v1h-1zm83 0h1v1h-1zm-82 1h1v1h-1zm83 0h1v1h-1zm-112 1h8v1h-8zm8 0h1v1h-1zm26 0h12v1H87zm12 0h1v1h-1zm4 0h6v1h-6zm6 0h1v1h-1zm6 0h1v1h-1zm21 0h1v1h-1zm34 0h1v1h-1zm3 0h1v1h-1zm26 0h1v1h-1zm-97 1h1v1h-1zm35 0h1v1h-1zm34 0h1v1h-1zm1 0h1v1h-1zm26 0h1v1h-1zm-51 1h1v1h-1zm60 0h1v1h-1zm-109 1h1v1h-1zm-44 1h1v1h-1zm25 0h1v1h-1zm47 0h1v1h-1zm36 0h1v1h-1zm21 0h2v1h-2zm2 0h1v1h-1zm20 0h1v1h-1zm-55 1h1v1h-1zm54 0h1v1h-1zm-104 1h1v1h-1zm19 0h1v1h-1zm33 0h1v1h-1zm35 0h1v1h-1zm-80 1h1v1h-1zm12 0h1v1h-1zm21 0h1v1h-1zm59 0h1v1h-1zm-137 1h1v9h-1zm39 0h1v1h-1zm27 0h1v1h-1zm-36 1h1v1h-1zm10 0h1v1h-1zm43 0h1v1h-1zm-110 1h1v1h-1zm73 0h1v2h-1zm53 0h1v1h-1zm-68 1h1v1h-1zm-67 1h1v1h-1zm82 0h1v1h-1zm19 0h1v1h-1zm74 0h1v1h-1zm-73 1h1v1h-1zm18 0h1v1h-1zm16 0h1v1h-1zm28 0h1v1h-1zm-143 1h1v1h-1zm57 0h1v1h-1zm41 0h1v6h-1zm17 0h1v1h-1zm-126 1h1v1h-1zm118 0h1v1h-1zm30 1h1v1h-1zm-156 1h1v1h-1zm34 0h1v1h-1zm47 0h1v1h-1zm7 0h1v1h-1zm-50 1h1v1h-1zm12 0h1v1h-1zm18 0h1v1h-1zm31 0h1v1h-1zm26 0h1v1h-1zm8 0h1v1h-1zm13 0h1v1h-1zm-48 1h1v1h-1zm34 0h1v1h-1zm-129 1h1v1h-1zm16 0h1v1h-1zm98 0h1v1h-1zm15 0h1v1h-1zm33 0h1v1h-1zm-32 1h1v1h-1zm17 0h1v1h-1zm4 0h1v1h-1zm-146 1h1v1h-1zm6 0h1v1h-1zm57 0h1v1h-1zm18 0h1v1h-1zm3 0h1v1h-1zm27 0h1v1h-1zm6 0h2v1h-2zm2 0h1v1h-1zm24 0h2v1h-2zm2 0h1v1h-1zm4 8h1v1h-1zm1 1h1v1h-1zm4 1h1v1h-1z" fill="#c3062b"/><path d="M34 54h1v1h-1zm7 3h1v1h-1zm119 1h1v1h-1zM26 61h1v1h-1zm19 0h1v1h-1zm62 4h2v1h-2zm2 0h1v1h-1zm-53 1h1v1h-1zm26 0h1v1h-1zm19 0h1v1h-1zm48 0h1v1h-1zm-81 1h1v1h-1zm71 0h1v1h-1zm-6 1h1v1h-1zm11 0h1v1h-1zm-85 1h1v1h-1zm15 0h1v1h-1zm51 0h1v1h-1zm3 0h1v1h-1zm30 0h1v1h-1zm-88 1h1v1h-1zm24 0h1v12h-1zm21 2h1v10h-1zm-28 1h1v1h-1zm-63 1h1v2h-1zm35 0h1v1h-1zm-35 2h1v1h-1zm9 0h1v1h-1zm14 0h1v1h-1zm6 0h1v1h-1zm85 1h1v1h-1zm-22 1h1v1h-1zm17 1h1v1h-1zm55 0h1v1h-1zM45 80h1v1h-1zm49 2h1v1h-1zm21 0h1v1h-1zm37 0h1v1h-1zM28 83h1v1h-1zm23 0h1v1h-1zm23 0h1v1h-1zm1 0h1v1h-1zm-23 1h1v1h-1zm67 0h1v1h-1zm66 0h1v1h-1zm-13 1h1v1h-1zM43 86h1v1h-1zm1 0h1v1h-1zm139 0h1v1h-1zM35 87h1v1h-1zm6 0h1v1h-1zm26 0h1v1h-1zm58 0h1v1h-1zm3 0h1v1h-1zm52 0h1v1h-1zM37 95h1v1h-1zm102 2h1v1h-1zM38 98h1v1h-1zm1 3h1v1h-1zm33 2h1v1h-1zm69 0h1v1h-1zm-110 1h1v1h-1zm13 0h1v1h-1zm-4 1h1v1h-1zm104 0h1v1h-1zm-68 1h1v1h-1zm35 0h1v1h-1zm-68 2h1v1h-1zm27 0h1v1h-1zm-28 1h1v1h-1zm28 0h1v1h-1zm45 0h1v9h-1zm-14 3h1v1h-1zm0 3h1v1h-1zm-58 2h1v1h-1zm32 0h1v1h-1zm40 1h1v1h-1zm7 0h1v1h-1zm-48 1h1v1h-1zm-37 2h1v1h-1zm33 0h1v1h-1zm42 0h1v1h-1zm-74 2h1v1h-1zm36 0h1v1h-1zm-8 1h1v1h-1zm47 0h2v1h-2zm2 0h1v1h-1zm-79 4h1v1h-1zm17 0h1v1h-1zm1 1h1v1h-1zm125 3h1v1h-1zm-2 5h1v1h-1zm-1 1h1v1h-1zm-110 1h3v1h-3zm3 0h2v1h-2zm2 0h1v1h-1zm45 0h1v1h-1zm4 0h1v1h-1zm-57 2h1v1h-1zm12 2h1v1h-1zm5 0h1v1h-1zm39 0h1v1h-1zm31 0h1v1h-1zm7 3h1v1h-1zm32 2h1v1h-1zm13 0h1v1h-1zm-13 1h1v1h-1zm-154 2h1v1h-1zm90 2h1v1h-1zm25 0h1v1h-1zm-55 1h1v1h-1zm54 0h1v1h-1zm-40 1h1v1h-1zm65 1h1v1h-1zm18 0h1v1h-1zm-125 1h1v1h-1zm9 0h1v1h-1zm3 0h1v1h-1zm10 0h1v1h-1zm13 0h1v1h-1zm50 0h1v1h-1zm10 0h1v1h-1zm10 0h1v1h-1zm-107 1h1v1h-1zm26 1h1v1h-1zm50 0h1v1h-1zm33 0h1v1h-1zm-84 1h1v1h-1zm24 0h1v1h-1zm1 0h1v1h-1zm25 0h1v1h-1zm17 0h1v1h-1zm16 0h1v1h-1zm4 0h1v1h-1zm16 1h1v1h-1zm0 1h1v1h-1zm-8 3h1v1h-1z" fill="#c20021"/><path d="M33 59h1v1h-1zm127 1h1v1h-1zm5 2h1v1h-1zM26 64h1v1h-1zm-1 3h1v1h-1zm49 0h1v1h-1zm16 0h1v1h-1zm58 0h1v1h-1zm27 0h1v1h-1zm6 0h1v1h-1zm-78 1h1v1h-1zm21 0h1v1h-1zm-70 1h1v1h-1zm49 0h1v1h-1zm5 0h1v1h-1zm34 0h1v1h-1zm42 0h1v1h-1zm-55 1h1v1h-1zm-6 1h1v2h-1zm63 1h1v1h-1zM55 73h2v1h-2zm2 0h1v1h-1zm25 0h1v1h-1zm41 0h1v1h-1zm6 1h1v1h-1zm46 0h1v1h-1zm-37 1h1v1h-1zm-78 1h1v1h-1zm63 0h1v3h-1zm17 1h1v1h-1zm29 0h1v1h-1zm-27 1h1v1h-1zm-95 1h1v1h-1zm76 0h1v1h-1zm11 1h1v1h-1zM28 81h1v1h-1zm147 0h1v1h-1zm11 0h1v1h-1zM64 82h1v1h-1zm85 0h1v1h-1zM43 84h2v1h-2zm2 0h1v1h-1zm-4 1h1v1h-1zm86 0h1v1h-1zm12 2h1v1h-1zm-3 3h1v1h-1zm15 3h1v1h-1zm0 1h1v1h-1zm-120 6h1v1h-1zm7 2h1v1h-1zm1 3h1v1h-1zm6 0h1v1h-1zm65 0h1v1h-1zm25 0h1v1h-1zm-4 2h1v1h-1zm-91 1h1v1h-1zm4 0h1v1h-1zm72 0h1v1h-1zm6 4h1v1h-1zm-79 1h1v1h-1zm-6 4h1v1h-1zm84 1h1v1h-1zm-49 4h1v1h-1zm6 0h1v1h-1zm36 0h1v1h-1zm-45 1h1v1h-1zm1 0h1v1h-1zm41 0h2v1h-2zm2 0h1v1h-1zm-64 9h1v1h-1zm1 0h1v1h-1zm32 4h1v1h-1zm83 0h1v1h-1zm-22 4h1v1h-1zm-54 1h1v1h-1zm8 1h1v1h-1zm26 0h1v1h-1zm15 0h1v1h-1zm63 5h1v1h-1zm-92 1h1v1h-1zm49 0h1v1h-1zm32 0h1v1h-1zm9 2h1v1h-1zm-150 1h1v1h-1zm52 0h1v1h-1zm8 1h1v1h-1zm-75 1h1v1h-1zm123 0h1v1h-1zm41 1h1v1h-1zm-73 1h1v1h-1zm23 0h1v1h-1zm45 0h1v1h-1zm-147 2h1v1h-1zm90 1h1v1h-1zm34 0h1v1h-1zm-107 1h1v1h-1zm4 0h1v1h-1zm12 0h1v1h-1zm10 0h1v1h-1zm39 0h1v1h-1zm28 0h1v1h-1zm6 0h1v1h-1zm10 0h1v1h-1zm6 0h1v1h-1zm15 7h1v1h-1zm-6 3h1v1h-1z" fill="#f9eaec"/><path d="M36 53h1v1h-1zm5 0h1v1h-1zm-8 1h1v1h-1zm13 1h1v1h-1zm-7 2h1v1h-1zm3 1h1v1h-1zm-7 1h1v1h-1zm-9 1h1v1h-1zm18 0h1v1h-1zm123 0h1v2h-1zM25 62h1v1h-1zm20 0h1v1h-1zm122 0h1v1h-1zm-8 1h1v2h-1zM24 64h1v1h-1zm61 1h1v1h-1zm5 0h1v1h-1zm15 0h1v1h-1zm6 0h1v1h-1zm18 0h1v1h-1zm13 0h1v1h-1zm10 0h1v1h-1zm6 0h3v1h-3zm3 0h1v1h-1zm4 0h1v1h-1zM55 66h1v1h-1zm35 0h1v1h-1zm13 0h1v1h-1zm8 0h1v1h-1zm20 0h1v1h-1zm25 0h1v1h-1zm1 0h1v1h-1zm9 0h1v1h-1zm7 0h1v1h-1zm10 0h1v1h-1zm-92 1h1v1h-1zm12 0h1v1h-1zm17 0h1v1h-1zm11 0h1v1h-1zm36 0h1v1h-1zm17 0h1v1h-1zM23 68h1v1h-1zm79 0h1v1h-1zm17 0h1v1h-1zm-1 1h1v1h-1zm26 0h1v1h-1zm-84 1h1v2h-1zm75 0h1v1h-1zm21 0h2v1h-2zm2 0h1v12h-1zm11 0h1v1h-1zm-98 1h1v1h-1zm53 0h1v1h-1zm1 0h1v1h-1zm31 0h2v1h-2zm23 0h1v1h-1zM52 72h1v1h-1zm32 0h1v1h-1zm40 0h1v1h-1zm1 0h1v1h-1zm43 0h1v1h-1zm11 0h1v1h-1zm9 0h1v1h-1zM23 74h1v1h-1zm23 2h1v1h-1zm98 0h1v1h-1zm8 1h1v1h-1zm34 0h1v1h-1zm1 0h1v1h-1zm-63 1h1v1h-1zm1 0h1v3h-1zm11 0h1v1h-1zm1 0h1v1h-1zm14 0h1v1h-1zm34 0h1v1h-1zM45 79h1v1h-1zm79 0h1v1h-1zm-8 1h1v1h-1zm25 0h1v1h-1zm1 0h1v1h-1zm5 0h1v1h-1zm37 0h1v1h-1zM26 81h1v1h-1zm1 0h1v1h-1zm98 0h1v1h-1zm11 0h1v1h-1zm16 0h1v1h-1zm36 0h1v1h-1zM34 82h1v1h-1zm1 0h1v1h-1zm8 0h1v1h-1zm88 0h1v1h-1zm22 0h1v1h-1zm5 0h1v1h-1zm19 0h1v1h-1zM36 83h1v1h-1zm50 0h1v1h-1zm6 0h1v1h-1zm25 0h1v1h-1zm37 0h1v1h-1zm24 0h1v1h-1zm3 0h1v1h-1zM51 84h1v1h-1zm36 0h1v2h-1zm4 0h1v2h-1zm14 0h1v2h-1zm13 0h1v2h-1zm17 0h1v1h-1zm51 0h1v1h-1zM52 85h1v1h-1zm103 0h1v1h-1zm30 0h1v1h-1zM31 86h1v1h-1zm14 0h2v1h-2zm2 0h1v1h-1zm6 0h1v1h-1zm34 0h1v1h-1zm4 0h1v1h-1zm14 0h1v1h-1zm13 0h1v1h-1zm14 0h1v1h-1zm24 0h1v1h-1zm28 0h1v1h-1zM43 87h1v1h-1zm5 0h1v1h-1zm7 0h1v1h-1zm18 0h1v1h-1zm13 0h1v1h-1zm6 0h11v1H92zm11 0h1v1h-1zm3 0h11v1h-11zm11 0h1v1h-1zm13 0h1v1h-1zm27 0h11v1h-11zm11 0h1v1h-1zm14 0h1v1h-1zm-48 4h1v1h-1zm0 1h1v1h-1zM23 94h1v1h-1zm14 0h1v1h-1zm10 0h1v1h-1zm42 0h1v1h-1zm64 0h1v1h-1zM24 95h1v1h-1zm66 0h1v1h-1zm-44 2h1v1h-1zm92 0h1v1h-1zm9 1h1v1h-1zm-102 2h1v1h-1zm22 2h1v1h-1zm3 0h1v1h-1zm40 0h1v1h-1zm1 0h1v1h-1zm3 0h1v1h-1zm22 0h1v1h-1zm5 0h1v1h-1zm-111 1h1v16h-1zm43 0h1v1h-1zm37 0h1v1h-1zm7 0h1v1h-1zm5 0h1v1h-1zm-74 1h1v1h-1zm71 0h2v1h-2zm2 0h1v2h-1zm-90 1h1v1h-1zm10 0h1v1h-1zm79 0h1v1h-1zm1 1h1v1h-1zm1 0h1v1h-1zm23 0h1v1h-1zm-99 1h1v1h-1zm1 0h1v1h-1zm75 0h1v1h-1zm13 0h1v1h-1zm-103 1h1v1h-1zm10 0h1v1h-1zm36 0h1v1h-1zm36 0h1v1h-1zm20 0h1v1h-1zm-11 1h1v1h-1zm-22 1h1v1h-1zm-68 1h1v1h-1zm46 1h1v1h-1zm-11 2h9v1h-9zm9 0h1v1h-1zm-1 1h2v1h-2zm2 0h1v1h-1zm-3 1h1v1h-1zm26 1h1v1h-1zm13 1h1v1h-1zm9 0h1v2h-1zm-93 1h1v1h-1zm72 0h1v1h-1zm1 0h1v2h-1zm11 0h1v1h-1zm-83 1h1v1h-1zm47 0h1v1h-1zm10 0h1v1h-1zm1 0h2v1h-2zm13 0h1v1h-1zm21 0h1v1h-1zm10 0h1v1h-1zm13 0h1v1h-1zm1 0h1v1h-1zm-70 1h1v1h-1zm26 0h1v1h-1zm18 0h1v2h-1zm1 0h1v1h-1zm12 0h1v1h-1zm1 0h1v1h-1zm-98 1h1v1h-1zm-14 1h1v1h-1zm10 0h1v1h-1zm75 0h1v1h-1zm13 0h1v1h-1zm-97 1h1v1h-1zm8 0h1v1h-1zm33 0h1v1h-1zm8 0h1v1h-1zm35 0h1v1h-1zm14 0h1v1h-1zm-85 4h1v1h-1zm1 2h1v1h-1zm129 0h1v1h-1zm1 0h1v1h-1zm-131 1h1v1h-1zm43 2h1v1h-1zm83 0h1v1h-1zm-83 3h1v1h-1zm61 2h2v1h-2zm2 0h1v1h-1zm-78 1h1v1h-1zm7 0h1v1h-1zm6 0h1v1h-1zm43 0h1v1h-1zm6 0h1v1h-1zm34 0h1v1h-1zm35 0h1v1h-1zm10 0h1v1h-1zm-144 1h1v1h-1zm1 0h1v1h-1zm14 0h1v2h-1zm33 0h1v2h-1zm13 0h1v1h-1zm3 0h1v2h-1zm22 0h1v1h-1zm49 0h1v2h-1zm10 0h1v1h-1zm-96 1h1v1h-1zm12 0h1v1h-1zm-48 1h2v1h-2zm2 0h1v1h-1zm13 0h1v1h-1zm10 0h2v1h-2zm2 0h1v1h-1zm8 0h1v1h-1zm16 0h1v1h-1zm46 0h1v1h-1zm25 0h1v1h-1zm1 0h1v1h-1zm-145 1h1v1h-1zm36 0h1v1h-1zm14 0h1v1h-1zm6 0h1v1h-1zm64 0h1v1h-1zm26 0h1v1h-1zm-145 1h1v12h-1zm13 0h1v1h-1zm41 0h1v1h-1zm0 1h1v1h-1zm37 0h1v1h-1zm8 0h1v1h-1zm-15 1h1v1h-1zm-75 1h1v9h-1zm77 0h1v1h-1zm63 0h1v1h-1zm-15 1h1v1h-1zm10 0h1v1h-1zm-91 1h1v2h-1zm21 0h1v1h-1zm74 0h1v1h-1zm-75 1h1v1h-1zm62 0h1v1h-1zm-82 1h1v1h-1zm54 0h1v1h-1zm1 0h1v1h-1zm-136 1h1v1h-1zm21 0h1v1h-1zm77 1h1v1h-1zm3 1h1v2h-1zm1 0h1v1h-1zm25 0h1v1h-1zm9 0h1v1h-1zm38 0h1v1h-1zm-105 1h1v1h-1zm13 0h1v1h-1zm15 0h1v1h-1zm27 0h1v1h-1zm41 0h1v1h-1zm-153 1h1v1h-1zm11 0h1v1h-1zm1 0h1v1h-1zm4 0h1v1h-1zm9 0h1v1h-1zm54 0h1v1h-1zm10 0h1v1h-1zm24 0h1v1h-1zm5 0h1v1h-1zm43 0h1v1h-1zm-80 1h1v1h-1zm1 0h1v1h-1zm34 0h1v1h-1zm38 0h1v1h-1zm-90 1h1v1h-1zm17 0h1v1h-1zm67 0h1v1h-1zm-27 1h1v1h-1zm26 0h1v1h-1zm-150 1h1v1h-1zm66 0h1v1h-1zm12 0h1v1h-1zm10 0h1v1h-1zm22 0h1v1h-1zm48 0h1v1h-1zm-158 1h1v1h-1zm65 0h1v1h-1zm15 0h1v1h-1zm1 0h1v1h-1zm5 0h1v1h-1zm31 0h1v1h-1zm4 0h1v1h-1zm22 0h1v1h-1zm4 0h1v1h-1zm15 0h1v1h-1zm-5 1h1v1h-1zm1 7h1v1h-1zm-1 1h1v1h-1zm-5 1h1v1h-1z" fill="#c40e2e"/><path d="M41 54h1v1h-1zm7 0h1v1h-1zm-3 1h1v1h-1zm119 2h1v1h-1zm-5 2h1v1h-1zM26 62h1v1h-1zm20 0h1v1h-1zm115 2h1v1h-1zM33 65h1v1h-1zm27 0h2v1h-2zm2 0h1v1h-1zm27 0h1v1h-1zm37 0h1v1h-1zm1 0h1v1h-1zm17 0h1v1h-1zm1 0h1v1h-1zm-53 1h1v1h-1zm20 0h1v1h-1zm17 0h1v1h-1zm45 0h1v1h-1zm8 0h1v1h-1zm-76 3h1v1h-1zm28 0h1v1h-1zm12 1h1v1h-1zm-31 1h1v1h-1zm72 0h1v1h-1zm0 1h1v1h-1zM59 73h1v1h-1zm27 0h1v1h-1zm82 0h1v1h-1zm-52 1h1v1h-1zm72 0h1v1h-1zM33 75h1v1h-1zm113 0h1v1h-1zm42 0h1v1h-1zM50 76h1v9h-1zm137 0h1v1h-1zm-36 1h1v1h-1zm-9 2h1v1h-1zm45 2h1v1h-1zm0 1h1v1h-1zm-5 1h1v1h-1zM36 84h1v1h-1zm14 1h1v1h-1zm3 0h1v1h-1zm-21 1h1v1h-1zm40 0h1v1h-1zm-16 1h1v1h-1zm4 0h1v1h-1zm10 0h1v1h-1zm85 0h1v1h-1zm21 0h1v1h-1zm-21 1h1v1h-1zm-96 4h1v1h-1zm95 0h1v1h-1zm-94 1h1v1h-1zm-35 2h1v1h-1zm33 0h1v1h-1zm78 0h1v1h-1zM26 96h1v23h-1zm66 0h1v24h-1zm-46 2h1v1h-1zm97 0h2v1h-2zm2 0h1v1h-1zM29 99h1v1h-1zm16 2h1v1h-1zm3 2h1v1h-1zm17 0h1v1h-1zm43 0h1v1h-1zm-46 2h1v1h-1zm-1 1h1v1h-1zm-29 1h1v1h-1zm35 0h1v1h-1zm70 0h1v1h-1zm8 0h1v1h-1zm-112 3h1v1h-1zm90 0h1v1h-1zm-56 3h1v1h-1zm35 4h1v1h-1zm-35 1h1v1h-1zm-41 1h1v1h-1zm16 1h1v1h-1zm31 0h1v1h-1zm19 0h1v1h-1zm-31 1h1v1h-1zm43 0h1v1h-1zm-58 1h1v1h-1zm14 0h1v1h-1zm17 1h1v1h-1zm58 0h1v1h-1zm-110 1h6v1h-6zm6 0h1v1h-1zm8 0h1v1h-1zm9 0h10v1H48zm10 0h1v1h-1zm11 0h1v1h-1zm3 0h1v1h-1zm6 0h11v1H78zm11 0h12v1H89zm12 0h1v1h-1zm8 0h1v1h-1zm3 0h1v1h-1zm11 0h10v1h-10zm10 0h1v1h-1zm4 0h9v1h-9zm9 0h1v1h-1zm-100 4h1v1h-1zm-1 1h1v1h-1zm36 3h1v1h-1zm101 0h1v6h-1zm-11 1h1v1h-1zm11 5h1v1h-1zm-39 1h1v1h-1zm1 0h1v1h-1zm30 0h1v1h-1zm-100 2h1v1h-1zm98 0h1v1h-1zm-105 2h1v1h-1zm32 0h1v1h-1zm30 0h1v1h-1zm34 0h1v1h-1zm-83 1h1v12h-1zm102 0h1v11h-1zm18 0h1v1h-1zm-109 1h1v1h-1zm18 0h1v1h-1zm18 0h1v1h-1zm24 0h1v1h-1zm45 0h1v1h-1zm-59 1h1v1h-1zm4 1h2v1h-2zm2 0h2v1h-2zm2 0h1v1h-1zm15 1h1v1h-1zm-58 2h1v1h-1zm3 0h1v1h-1zm12 0h9v1h-9zm9 0h1v1h-1zm20 0h1v1h-1zm-119 2h1v1h-1zm21 0h1v1h-1zm46 0h1v1h-1zm59 1h1v1h-1zm-29 1h1v1h-1zm75 0h1v1h-1zm-17 1h1v1h-1zm3 0h1v1h-1zm-105 1h1v1h-1zm46 0h1v1h-1zm57 0h1v1h-1zm3 0h1v1h-1zm12 0h1v1h-1zm-169 1h1v1h-1zm14 0h1v1h-1zm10 0h1v1h-1zm24 0h1v1h-1zm49 0h1v1h-1zm14 0h1v1h-1zm-110 1h1v1h-1zm18 0h1v1h-1zm93 0h1v1h-1zm18 0h1v1h-1zm26 0h1v1h-1zm-61 1h1v1h-1zm-60 1h1v1h-1zm84 0h1v1h-1zm8 0h1v1h-1zm41 0h1v1h-1zm-159 1h2v1h-2zm2 0h1v1h-1zm147 2h1v1h-1zm7 4h1v1h-1zm-7 3h1v1h-1z" fill="#c20024"/><path d="M34 55h1v1h-1zm-1 5h1v1h-1zm41 8h1v1h-1zm31 0h1v1h-1zm51 0h1v1h-1zm-71 1h1v1h-1zm10 1h1v13h-1zm75 1h1v1h-1zm-56 1h1v11h-1zm-89 4h1v1h-1zm38 0h1v1h-1zm80 1h1v1h-1zm-26 1h1v1h-1zm-65 5h1v1h-1zm43 0h1v1h-1zm19 0h1v1h-1zm-70 2h1v1h-1zm48 0h1v1h-1zm25 0h1v1h-1zm63 1h1v1h-1zM37 98h1v1h-1zm1 3h1v1h-1zm-6 3h1v1h-1zm73 2h1v1h-1zm-34 2h1v1h-1zm50 0h1v1h-1zm-50 1h1v1h-1zm-29 8h1v1h-1zm78 3h1v1h-1zm-82 1h1v1h-1zm81 0h1v1h-1zm-49 1h1v1h-1zm-4 1h1v1h-1zm-20 6h1v1h-1zm7 0h1v1h-1zm128 3h1v1h-1zm-69 10h1v1h-1zm-38 1h1v1h-1zm19 4h1v1h-1zm97 2h1v1h-1zm-40 3h1v1h-1zm48 3h1v1h-1zm-23 1h1v1h-1zm6 0h1v1h-1zm-127 2h1v1h-1zm8 0h1v1h-1zm18 0h1v1h-1zm83 0h1v1h-1zm-15 1h2v1h-2zm2 0h1v1h-1zm33 0h1v1h-1zm3 6h1v1h-1z" fill="#e099a1"/><g fill="#fff"><path d="M36 55h5v1h-5zm5 0h1v1h-1zm-8 1h2v1h-2zm2 0h1v1h-1zm7 0h1v1h-1zm1 0h1v1h-1zm5 0h1v9h-1zm-16 1h2v1h-2zm2 0h1v1h-1zm10 0h4v1h-4zm-13 1h2v3h-2zm2 0h1v1h-1zm12 0h3v1h-3z"/><path d="M30 59h2v24h-2zm16 0h2v1h-2zm115 0h3v3h-3zm3 0h1v3h-1z"/><path d="M29 60h3v22h-3zm18 0h1v1h-1zm118 0h1v1h-1z"/><path d="M28 61h4v19h-4zm4 0h1v1h-1zm15 0h1v1h-1zm118 0h1v1h-1z"/><path d="M27 62h4v17h-4zm134 0h3v1h-3zm3 0h1v1h-1zm-2 1h1v1h-1zm1 0h1v1h-1z"/><path d="M26 65h5v12h-5zm22 0h1v1h-1zm10 2h6v1h-6zm6 0h1v1h-1zm22 0h3v4h-3zm3 0h1v4h-1zm4 0h1v1h-1zm1 0h1v1h-1zm11 0h5v1h-5zm5 0h1v18h-1zm14 0h4v1h-4zm4 0h1v1h-1zm15 0h4v1h-4zm4 0h1v1h-1zm6 0h1v2h-1zm1 0h1v2h-1zm4 0h1v1h-1zm1 0h1v1h-1zm6 0h1v18h-1zm11 0h4v1h-4zm4 0h1v1h-1zM56 68h1v4h-1zm8 0h3v1h-3zm3 0h1v17h-1zm10 0h4v17h-4zm4 0h1v17h-1z"/><path d="M84 68h6v1h-6zm6 0h1v3h-1zm6 0h4v17h-4zm4 0h1v17h-1zm4 0h1v1h-1zm4 0h4v1h-4zm4 0h1v17h-1zm10 0h1v16h-1zm1 0h1v1h-1zm6 0h1v1h-1zm1 0h1v6h-1zm10 0h2v8h-2zm2 0h1v1h-1zm6 0h2v9h-2zm2 0h1v8h-1zm5 0h1v1h-1zm5 0h5v1h-5zm14 0h1v16h-1zm1 0h1v1h-1zm6 0h1v2h-1zm1 0h1v6h-1zM25 69h6v4h-6zm30 0h1v3h-1zm10 0h3v15h-3zm3 0h1v16h-1zm15 0h1v1h-1zm26 0h3v16h-3z"/><path d="M121 69h2v14h-2zm2 0h1v1h-1zm6 0h3v1h-3zm3 0h1v5h-1zm7 0h2v7h-2zm14 0h2v1h-2zm2 0h1v1h-1zm6 0h4v16h-4zm12 0h2v15h-2zm2 0h1v1h-1zm8 0h1v5h-1zM54 70h4v2h-4zm4 0h1v1h-1zm24 0h1v1h-1zm20 0h1v1h-1zm11 0h1v15h-1z"/><path d="M120 70h2v13h-2zm11 0h1v4h-1zm20 0h1v5h-1zm21 0h2v13h-2zm9 0h3v1h-3zm3 0h1v4h-1zM58 71h1v1h-1zm11 0h1v14h-1zm13 0h1v1h-1zm4 0h4v1h-4zm4 0h1v1h-1z"/><path d="M119 71h3v10h-3zm14 0h1v3h-1zm5 0h3v3h-3zm33 0h3v11h-3zm14 0h1v3h-1zM54 72h3v1h-3zm3 0h1v1h-1zm77 0h1v2h-1zM25 73h6v1h-6z"/><path d="M118 73h4v6h-4zm52 0h4v7h-4zm16 0h1v1h-1zm-56 1h4v1h-4zm4 0h1v1h-1zm4 0h3v1h-3zm43 0h5v1h-5zm5 0h1v1h-1zm-63 1h1v1h-1zm28 0h1v1h-1zM48 76h1v8h-1zm9 0h2v1h-2zm2 0h1v1h-1zm80 0h2v1h-2zm2 0h1v1h-1zm9 0h1v1h-1zM26 77h5v1h-5zm28 0h3v7h-3zm3 0h1v8h-1zm84 0h1v1h-1zm1 0h1v1h-1zm5 0h2v1h-2zm2 0h1v1h-1z"/><path d="M53 78h4v5h-4zm90 0h4v1h-4zm4 0h1v1h-1zM27 79h4v1h-4zm91 0h4v1h-4zm-90 1h4v1h-4zm4 0h1v4h-1zm15 0h1v3h-1zm91 0h1v5h-1zm32 0h4v1h-4zm16 0h1v1h-1zm-67 1h4v1h-4zm4 0h1v3h-1zm11 0h1v1h-1zM29 82h3v1h-3z"/><path d="M46 82h2v1h-2zm91 0h2v2h-2zm2 0h1v4h-1zm32 0h4v1h-4zm4 0h1v3h-1zm10 0h1v1h-1zM30 83h3v1h-3zm3 0h1v1h-1zm12 0h3v1h-3zm8 0h4v1h-4zm11 0h5v1h-5zm8 0h1v1h-1zm48 0h3v1h-3zm20 0h11v3h-11zm11 0h1v4h-1zm21 0h3v1h-3zM32 84h2v1h-2zm2 0h1v1h-1zm20 0h4v1h-4zm4 0h1v1h-1zm5 0h6v1h-6zm59 0h2v1h-2zm2 0h1v1h-1z"/><path d="M137 84h15v1h-15zm15 0h1v3h-1zm21 0h3v1h-3zm3 0h1v1h-1zM34 85h1v1h-1zm1 0h1v1h-1zm7 0h1v1h-1zm13 0h6v1h-6zm6 0h1v1h-1zm5 0h4v1h-4zm4 0h1v1h-1zm5 0h10v1H75zm18 0h10v1H93zm10 0h1v1h-1zm4 0h9v1h-9zm9 0h1v1h-1zm8 0h2v1h-2zm2 0h1v1h-1zm4 0h1v1h-1z"/><path d="M138 85h15v1h-15zm15 0h1v5h-1zm5 0h10v1h-10zm10 0h1v1h-1zm7 0h3v1h-3zm3 0h1v1h-1zm3 0h1v1h-1zm-42 1h14v1h-14zm12 1h2v1h-2zm-13 1h1v1h-1zm-1 1h1v4h-1zm1 0h1v1h-1zm15 1h1v1h-1zm-17 1h1v1h-1zm0 1h1v1h-1zM25 93h1v1h-1zm1 0h1v1h-1zm31 0h1v1h-1zm1 0h1v1h-1zm21 0h1v1h-1zm1 0h1v1h-1zm6 0h1v29h-1zm5 0h2v1h-2zm2 0h1v1h-1zm44 0h1v1h-1zM28 94h7v1h-7zm7 0h1v16h-1zm15 0h5v1h-5zm5 0h1v28h-1zm26 0h5v28h-5zm13 0h4v28h-4zm4 0h1v28h-1zm-68 1h5v1h-5zm19 0h6v1h-6zm90 0h1v1h-1zm10 0h1v1h-1zM28 96h7v1h-7zm23 0h4v26h-4zm90 0h1v1h-1zm1 0h1v1h-1zm4 0h1v1h-1zm1 0h1v1h-1zM28 97h1v25h-1z"/><path d="M31 97h5v2h-5zm5 0h1v17h-1zm12 0h1v1h-1zm0 1h1v1h-1zm-17 1h5v1h-5z"/><path d="M32 100h5v2h-5zm5 0h1v16h-1zm10 0h1v1h-1zm0 1h1v1h-1zm-15 1h5v1h-5z"/><path d="M33 103h5v2h-5zm5 0h1v16h-1zm8 0h1v1h-1zm0 1h1v1h-1zm22 0h2v1h-2zm2 0h1v1h-1zm41 0h3v1h-3zm3 0h1v1h-1zm23 0h3v1h-3zm3 0h1v18h-1zm-107 1h5v1h-5zm32 0h1v17h-1zm7 0h1v6h-1zm36 0h1v17h-1zm1 0h1v1h-1zm6 0h2v1h-2zm2 0h1v16h-1zm9 0h4v17h-4zm4 0h1v17h-1zm4 0h1v1h-1z"/><path d="M138 105h4v1h-4zm4 0h1v17h-1zm-108 1h5v2h-5zm5 0h1v16h-1zm6 0h1v1h-1zm18 0h2v14h-2zm10 0h1v5h-1zm1 0h1v5h-1zm32 0h2v14h-2zm10 0h2v1h-2zm2 0h1v15h-1zm15 0h1v1h-1z"/><path d="M139 106h4v16h-4zm4 0h1v16h-1zm-81 1h3v12h-3zm13 0h1v4h-1zm30 0h3v13h-3zm11 0h3v1h-3zm3 0h1v13h-1zm13 0h1v1h-1zm-98 1h5v1h-5z"/><path d="M104 108h4v10h-4zm16 0h1v11h-1zm11 0h1v1h-1zm-91 1h1v12h-1zm4 0h1v1h-1zm17 0h4v9h-4zm15 0h1v2h-1zm45 0h1v8h-1zm10 0h1v1h-1zm-96 1h5v1h-5zm9 0h1v1h-1z"/><path d="M103 110h5v6h-5zm-43 1h5v5h-5zm12 0h5v1h-5zm5 0h1v1h-1zm-36 1h2v3h-2zm2 0h1v1h-1zm23 0h5v1h-5zm5 0h1v1h-1zm6 0h1v1h-1z"/><path d="M36 114h6v1h-6zm5 1h1v3h-1zm1 0h1v1h-1zm-5 1h4v1h-4zm23 0h5v1h-5zm43 0h5v1h-5zm-26 1h1v1h-1zm44 0h1v1h-1zm-80 1h1v1h-1zm20 0h4v1h-4zm43 0h4v1h-4zm-66 1h2v1h-2zm24 0h3v1h-3zm14 0h1v1h-1zm44 0h1v1h-1zm-57 1h2v1h-2zm12 0h1v1h-1zm30 0h3v1h-3zm11 0h3v1h-3zm3 0h1v1h-1zm-92 1h1v1h-1zm13 0h1v1h-1zm24 0h2v1h-2zm2 0h1v1h-1zm41 0h2v1h-2zm2 0h1v1h-1zm7 0h2v1h-2zm2 0h1v1h-1zm-93 1h6v1h-6zm6 0h1v1h-1zm8 0h1v1h-1zm9 0h8v1h-8zm8 0h2v1h-2zm2 0h1v1h-1zm7 0h2v1h-2zm2 0h1v1h-1zm6 0h1v1h-1zm8 0h5v1h-5zm5 0h1v1h-1zm3 0h2v1h-2zm2 0h8v1h-8zm8 0h1v1h-1zm9 0h2v1h-2zm2 0h1v1h-1zm5 0h1v1h-1zm1 0h1v1h-1zm7 0h1v1h-1zm3 0h5v1h-5zm5 0h2v1h-2zm2 0h1v1h-1zm6 0h5v1h-5zm5 0h1v1h-1zm-116 8h5v21h-5zm5 0h1v28h-1zm15 0h3v1h-3zm3 0h1v1h-1zm-2 1h1v1h-1zm1 0h1v1h-1zm34 1h1v4h-1zm1 0h1v4h-1zm82 0h1v4h-1zm1 0h1v4h-1z"/><path d="M83 133h3v3h-3zm3 0h1v3h-1zm79 0h4v2h-4zm4 0h1v3h-1z"/><path d="M82 134h4v1h-4zm0 1h4v1h-4zm83 0h4v1h-4zm15 0h1v24h-1zm-97 1h3v1h-3zm3 0h1v1h-1zm80 0h3v1h-3zm3 0h1v1h-1zm10 1h1v22h-1z"/><path d="M178 139h2v19h-2zm-36 1h1v5h-1z"/><path d="M176 140h4v17h-4zm-122 1h7v1h-7zm7 0h1v1h-1zm4 0h7v1h-7zm7 0h1v17h-1zm7 0h7v1h-7zm7 0h1v17h-1zm4 0h9v1h-9zm9 0h1v1h-1zm5 0h5v1h-5zm5 0h1v1h-1zm6 0h1v1h-1zm1 0h1v1h-1zm4 0h1v1h-1zm1 0h1v7h-1zm7 0h7v1h-7zm7 0h1v17h-1zm4 0h5v1h-5zm5 0h1v3h-1zm6 0h1v1h-1zm5 0h1v1h-1zm1 0h2v1h-2zm2 0h1v3h-1zm4 0h7v1h-7zm7 0h1v17h-1z"/><path d="M174 141h21v1h-21zm21 0h1v1h-1zm5 0h5v1h-5zm5 0h1v1h-1zm-149 1h4v16h-4zm4 0h1v16h-1zm4 0h1v1h-1zm5 0h3v16h-3zm13 0h4v16h-4zm10 0h4v1h-4zm4 0h1v10h-1zm10 0h1v2h-1zm1 0h1v1h-1zm6 0h2v15h-2zm2 0h1v1h-1zm7 0h1v6h-1zm9 0h4v16h-4zm9 0h4v2h-4zm17 0h1v1h-1zm8 0h4v16h-4zm23 0h4v1h-4zm4 0h1v10h-1zm10 0h1v2h-1zm1 0h1v1h-1zm-140 1h1v1h-1zm10 0h1v15h-1z"/><path d="M92 143h5v1h-5zm5 0h1v12h-1zm15 0h2v14h-2zm11 0h1v5h-1zm14 0h1v1h-1zm11 0h1v7h-1zm40 0h5v1h-5zm5 0h1v11h-1zm-132 1h1v2h-1zm1 0h1v1h-1zm31 0h4v1h-4zm13 0h1v1h-1z"/><path d="M111 144h3v12h-3zm13 0h1v4h-1zm12 0h1v1h-1zm4 0h4v1h-4zm4 0h1v1h-1zm3 0h1v4h-1zm11 0h1v1h-1zm31 0h4v1h-4zm13 0h1v1h-1zm-109 1h5v1h-5zm5 0h1v12h-1zm27 0h1v3h-1zm11 0h1v1h-1zm5 0h2v1h-2zm2 0h1v1h-1zm46 0h5v1h-5zm5 0h1v11h-1zm-133 1h1v1h-1zm13 0h1v12h-1zm20 0h4v2h-4zm11 0h1v1h-1z"/><path d="M110 146h4v8h-4zm39 0h1v5h-1zm41 0h4v1h-4zm11 0h1v1h-1zm-102 1h1v12h-1zm27 0h1v1h-1zm24 0h3v4h-3zm3 0h1v5h-1zm37 0h5v1h-5zm5 0h1v13h-1zm-101 1h5v1h-5zm10 0h1v1h-1zm11 0h11v1h-11zm11 0h1v1h-1z"/><path d="M147 148h10v1h-10zm10 0h1v4h-1zm34 0h4v2h-4zm9 0h1v1h-1zm-105 1h4v1h-4z"/><path d="M154 149h5v3h-5zm5 0h1v7h-1zm37 0h1v9h-1zm4 0h1v1h-1zm-105 1h5v1h-5zm5 0h1v8h-1zm3 0h1v1h-1z"/><path d="M148 150h11v1h-11zm43 0h5v1h-5zm-163 1h5v1h-5zm75 0h1v1h-1zm46 0h10v1h-10zm48 0h2v2h-2zm2 0h1v1h-1zm-170 1h4v2h-4zm20 0h1v2h-1zm47 0h5v1h-5zm5 0h1v3h-1zm52 0h7v1h-7zm7 0h1v1h-1zm32 0h5v1h-5zm-90 1h1v1h-1zm24 0h1v1h-1zm21 0h1v6h-1zm11 0h2v1h-2zm2 0h1v1h-1zm37 0h1v3h-1zm1 0h1v1h-1zm-169 1h5v1h-5zm5 0h1v4h-1zm15 0h1v1h-1zm61 0h4v1h-4zm16 0h1v1h-1zm67 0h4v1h-4zm-163 1h4v1h-4zm18 0h1v1h-1zm49 0h4v1h-4zm4 0h1v1h-1z"/><path d="M30 156h5v1h-5zm5 0h1v2h-1zm76 0h4v1h-4zm4 0h1v2h-1zm10 0h1v1h-1zm23 0h1v2h-1zm11 0h1v1h-1zm35 0h3v1h-3zm3 0h1v1h-1z"/><path d="M32 157h4v1h-4zm4 0h1v2h-1zm11 0h1v1h-1zm51 0h2v1h-2zm14 0h3v1h-3zm12 0h1v1h-1zm25 0h1v1h-1zm9 0h1v1h-1zm18 0h4v1h-4z"/><path d="M33 158h4v1h-4zm4 0h1v1h-1zm8 0h1v1h-1zm11 0h5v1h-5zm5 0h1v1h-1zm8 0h5v1h-5zm5 0h1v1h-1zm8 0h4v1h-4zm4 0h1v1h-1zm14 0h1v1h-1zm14 0h2v1h-2zm2 0h1v1h-1zm7 0h1v1h-1zm8 0h4v1h-4zm4 0h1v1h-1zm13 0h2v1h-2zm2 0h1v1h-1zm7 0h1v1h-1zm8 0h4v1h-4zm4 0h1v1h-1zm8 0h4v1h-4zm4 0h2v1h-2zm2 0h1v1h-1zm13 0h1v1h-1zm-160 1h7v1h-7zm7 0h1v1h-1zm56 0h1v1h-1zm17 0h4v1h-4zm4 0h1v1h-1zm27 0h1v1h-1zm5 0h3v1h-3zm3 0h1v1h-1zm24 0h2v1h-2zm2 0h1v1h-1zm14 1h1v1h-1zm-1 3h1v1h-1zm-7 2h3v3h-3zm3 0h1v4h-1zm3 0h1v1h-1z"/><path d="M186 167h6v1h-6zm1 1h4v1h-4zm4 0h1v1h-1zm-3 1h2v1h-2zm2 0h1v1h-1z"/></g><path d="M162 58h1v1h-1zm1 0h1v1h-1zM32 63h1v1h-1zm123 4h1v1h-1zm-27 1h1v1h-1zm48 0h1v1h-1zm7 0h1v1h-1zm-92 1h1v1h-1zm38 3h1v1h-1zm23 0h1v1h-1zm-23 1h1v1h-1zm23 0h1v1h-1zm-70 1h1v8h-1zm53 0h1v1h-1zM25 75h1v1h-1zm37 0h1v1h-1zm80 0h1v1h-1zm-81 1h1v1h-1zm3 0h1v1h-1zm111 1h1v1h-1zM26 78h1v1h-1zm6 0h1v1h-1zm108 0h1v1h-1zm8 0h1v1h-1zm21 0h1v1h-1zm6 0h1v2h-1zm-37 1h1v1h-1zm37 1h1v1h-1zM45 82h1v1h-1zm37 0h1v2h-1zm103 1h1v1h-1zM82 84h1v1h-1zm55 1h1v1h-1zm37 0h1v1h-1zM40 86h1v1h-1zm98 6h1v1h-1zm-2 1h1v1h-1zm3 1h1v1h-1zm-91 2h1v1h-1zm-1 3h1v1h-1zm0 3h1v1h-1zm19 2h1v2h-1zm43 0h1v1h-1zm14 0h2v1h-2zm2 0h1v1h-1zm-2 1h2v1h-2zm2 0h1v1h-1zm-59 1h1v1h-1zm72 0h1v1h-1zm-18 1h1v1h-1zm-86 2h1v1h-1zm26 1h1v1h-1zm17 0h1v1h-1zm45 1h1v1h-1zm-62 6h1v1h-1zm-31 4h1v1h-1zm38 2h1v1h-1zm4 0h1v1h-1zm-36 7h1v1h-1zm1 0h1v1h-1zm14 4h1v17h-1zm67 6h1v1h-1zm58 0h1v1h-1zm-88 1h1v1h-1zm30 0h1v1h-1zm21 0h1v1h-1zm11 0h1v1h-1zm5 0h1v1h-1zm16 1h1v15h-1zm-55 1h1v1h-1zm30 0h1v1h-1zm58 0h1v1h-1zm-141 2h1v1h-1zm96 0h1v1h-1zm43 0h1v1h-1zm1 0h1v1h-1zm-97 2h1v1h-1zm31 1h1v8h-1zm60 0h1v1h-1zm-36 2h1v1h-1zm-110 1h1v1h-1zm142 2h1v1h-1zm-90 1h1v1h-1zm13 1h1v1h-1zm21 1h1v1h-1zm34 1h1v1h-1zm11 0h1v1h-1zm-149 1h1v1h-1zm12 0h1v1h-1zm54 0h1v1h-1zm24 0h1v1h-1zm-78 1h1v1h-1zm144 5h1v1h-1zm1 0h1v1h-1zm5 0h1v1h-1zm-8 4h1v1h-1zm5 1h1v1h-1z" fill="#f1d1d5"/><path d="M166 59h1v1h-1zM34 60h1v1h-1zm12 3h1v1h-1zm-13 1h1v1h-1zm54 1h1v1h-1zm43 1h1v1h-1zm27 3h1v1h-1zm22 0h1v1h-1zm-72 2h1v11h-1zm47 0h1v1h-1zm15 0h1v1h-1zm-84 1h1v1h-1zm6 0h1v1h-1zm45 0h1v1h-1zm-12 1h1v1h-1zm-64 1h1v1h-1zm42 0h1v8h-1zm14 1h1v1h-1zm-64 2h1v1h-1zm116 2h1v1h-1zm-96 2h1v1h-1zm30 1h1v1h-1zm5 0h1v1h-1zm-69 2h1v1h-1zm1 0h1v1h-1zm7 1h1v1h-1zm138 0h1v1h-1zM65 86h1v1h-1zm-8 1h1v1h-1zm120 0h1v1h-1zm-41 1h1v1h-1zm18 3h1v1h-1zM47 97h1v1h-1zm93 0h1v1h-1zm-69 6h1v1h-1zm45 0h1v1h-1zm15 0h1v1h-1zm-91 1h1v1h-1zm92 0h1v1h-1zm-57 1h1v1h-1zm44 0h1v1h-1zm-76 2h1v1h-1zm60 0h1v1h-1zm-36 3h1v1h-1zm34 3h1v1h-1zm-57 1h1v1h-1zm57 0h1v1h-1zm-65 4h1v1h-1zm42 0h1v1h-1zm24 0h1v1h-1zm-53 3h1v1h-1zm65 0h1v1h-1zm-46 3h1v1h-1zm-43 4h10v1H25zm10 0h1v1h-1zm12 0h5v1h-5zm5 0h1v1h-1zm-7 2h1v1h-1zm9 0h1v1h-1zm-8 1h1v1h-1zm7 0h1v1h-1zm33 0h1v1h-1zm83 0h1v1h-1zm1 1h1v1h-1zm-83 5h1v1h-1zm83 0h1v1h-1zm-14 6h1v1h-1zm26 0h1v1h-1zm-118 1h1v1h-1zm40 0h1v1h-1zm12 0h1v2h-1zm0 2h1v1h-1zm11 0h1v1h-1zm18 0h1v1h-1zm8 0h1v1h-1zm3 0h1v1h-1zm-64 1h1v1h-1zm110 0h1v1h-1zm-1 2h1v1h-1zm-85 2h1v2h-1zm-65 1h1v1h-1zm65 1h1v1h-1zm83 2h1v1h-1zm-17 1h1v1h-1zm-143 1h1v1h-1zm24 0h1v1h-1zm47 0h1v1h-1zm65 1h1v1h-1zm-25 2h1v1h-1zm1 0h1v1h-1zm32 0h1v1h-1zm11 0h1v1h-1zm2 2h1v1h-1zm-4 7h1v1h-1z" fill="#c1001e"/><path d="M42 54h1v1h-1zm-17 9h1v1h-1zm63 2h1v1h-1zm-64 1h1v1h-1zm42 0h1v1h-1zm38 0h1v1h-1zm9 1h1v1h-1zm8 0h1v1h-1zm35 0h1v1h-1zm17 0h1v1h-1zm-68 2h1v1h-1zm54 0h1v1h-1zm-96 1h1v3h-1zm29 0h1v1h-1zm15 0h1v1h-1zm-23 1h1v1h-1zm19 0h1v1h-1zm40 0h1v3h-1zm-80 2h1v1h-1zm26 0h1v1h-1zm13 0h1v1h-1zm23 0h2v1h-2zm2 0h1v1h-1zm50 0h2v1h-2zm2 0h1v1h-1zM48 74h1v1h-1zm10 0h1v1h-1zm85 0h1v1h-1zm10 0h1v1h-1zm15 0h1v1h-1zM55 75h1v1h-1zm81 0h1v1h-1zm-20 1h1v1h-1zm19 0h1v1h-1zM33 77h1v1h-1zm29 0h1v1h-1zm54 0h1v1h-1zm-57 1h1v1h-1zm4 0h1v2h-1zm75 0h1v1h-1zm-2 1h1v1h-1zm1 0h1v1h-1zm-74 1h1v1h-1zm-29 1h1v1h-1zm83 0h1v1h-1zm52 0h1v1h-1zm15 0h1v1h-1zm-30 3h1v1h-1zm27 0h1v1h-1zM31 85h1v1h-1zm105 0h1v1h-1zm-14 1h1v1h-1zm-63 1h1v1h-1zm9 0h1v1h-1zm1 0h1v1h-1zm57 0h1v1h-1zm1 0h1v1h-1zm52 0h1v1h-1zM49 92h1v1h-1zm50 0h1v1h-1zm-51 1h1v1h-1zm52 0h1v1h-1zm40 1h1v1h-1zM37 96h1v1h-1zm111 1h1v1h-1zm-118 4h1v1h-1zm19 0h1v19h-1zm-18 2h1v1h-1zm84 0h1v1h-1zm3 1h1v1h-1zm15 0h1v1h-1zm-92 3h1v1h-1zm29 0h1v1h-1zm40 0h1v1h-1zm11 0h1v1h-1zm-44 1h1v1h-1zm45 0h1v1h-1zm-77 3h1v1h-1zm-10 4h1v1h-1zm8 1h1v1h-1zm80 0h1v1h-1zm-86 4h1v1h-1zm12 0h1v1h-1zm28 0h1v1h-1zm-20 1h1v1h-1zm14 0h1v1h-1zm5 0h1v1h-1zm37 0h1v1h-1zm-10 1h1v1h-1zm-33 2h1v1h-1zm98 7h1v1h-1zm11 2h1v1h-1zm-8 1h1v1h-1zm-83 1h1v1h-1zm83 0h1v1h-1zm-20 4h1v1h-1zm3 0h1v1h-1zm5 0h1v1h-1zm-14 1h1v1h-1zm-34 2h1v1h-1zm41 0h1v1h-1zm1 0h1v1h-1zm-88 1h1v1h-1zm130 0h1v1h-1zm-104 1h1v1h-1zm83 0h1v11h-1zm-67 1h1v1h-1zm89 1h1v1h-1zm-37 1h1v1h-1zm-58 1h1v1h-1zm97 1h1v1h-1zm3 1h1v1h-1zm-107 1h1v1h-1zm53 0h1v1h-1zm-112 1h1v1h-1zm73 1h1v1h-1zm8 1h1v1h-1zm-88 1h1v1h-1zm121 0h1v1h-1zm25 0h1v1h-1zm-136 2h1v1h-1zm16 0h1v1h-1zm8 0h1v1h-1zm66 0h1v1h-1zm10 0h1v1h-1zm1 0h1v1h-1zm12 0h1v1h-1zm9 0h1v1h-1zm26 0h1v1h-1zm-75 1h1v1h-1zm14 0h1v1h-1zm-3 2h1v1h-1z" fill="#c1001c"/><path d="M42 55h1v1h-1zm1 2h1v1h-1zm-18 9h1v1h-1zm63 0h1v1h-1zm-12 2h1v1h-1zm6 0h1v1h-1zm39 0h1v1h-1zm-39 1h1v1h-1zm-18 1h1v3h-1zm44 0h1v1h-1zm34 1h1v3h-1zm-78 2h1v1h-1zm78 1h1v1h-1zm10 0h1v1h-1zm17 0h1v1h-1zM62 76h1v1h-1zm89 0h1v1h-1zm-87 1h1v4h-1zm53 0h1v1h-1zm33 0h1v1h-1zm-86 4h1v1h-1zm-30 2h1v1h-1zm98 0h1v1h-1zm-97 1h1v1h-1zm66 0h1v1h-1zm7 0h1v1h-1zm45 0h1v1h-1zm-99 1h1v1h-1zm77 0h1v1h-1zm-72 1h1v1h-1zm10 0h1v1h-1zm110 0h1v1h-1zm-27 3h1v1h-1zM49 93h1v1h-1zm-22 1h1v1h-1zm2 1h1v1h-1zm38 10h1v1h-1zm69 0h1v1h-1zm-21 1h1v1h-1zm-44 5h1v1h-1zm-35 4h1v1h-1zm-9 5h1v1h-1zm82 0h1v1h-1zm-34 1h1v1h-1zm-4 1h1v1h-1zm40 0h1v1h-1zm-86 7h1v1h-1zm21 1h1v1h-1zm7 0h1v1h-1zm34 5h1v1h-1zm64 5h1v1h-1zm3 0h1v1h-1zm-90 1h1v1h-1zm54 0h1v1h-1zm4 0h1v1h-1zm30 0h1v1h-1zm-90 2h1v1h-1zm113 0h1v12h-1zm25 4h1v1h-1zm0 3h1v1h-1zm-9 1h1v1h-1zm-157 1h1v1h-1zm69 0h1v1h-1zm-68 3h1v1h-1zm14 0h1v1h-1zm126 0h1v1h-1zm-78 1h1v1h-1zm52 0h1v1h-1zm-21 2h1v1h-1zm11 0h1v1h-1zm17 0h1v1h-1zm8 0h1v1h-1zm-64 1h1v1h-1z" fill="#e9b6bc"/><path d="M44 55h1v1h-1zm3 0h1v1h-1zm115 2h1v1h-1zm1 0h1v1h-1zm2 1h1v1h-1zM27 60h1v1h-1zm132 2h1v1h-1zM33 63h1v1h-1zm32 3h1v1h-1zm83 0h1v1h-1zm3 0h1v1h-1zm4 0h1v1h-1zm26 0h1v1h-1zm-79 1h1v1h-1zm81 0h1v1h-1zM69 68h1v1h-1zm69 0h1v1h-1zm8 1h1v1h-1zm-28 1h1v1h-1zm25 0h1v1h-1zm33 1h1v1h-1zm-23 1h1v1h-1zm23 0h1v1h-1zm-23 1h1v1h-1zm27 0h1v1h-1zM55 74h1v1h-1zm6 0h1v1h-1zm1 0h1v1h-1zm21 0h1v8h-1zm-36 1h1v1h-1zm9 0h1v1h-1zm96 1h1v1h-1zm-91 1h1v1h-1zm115 0h1v2h-1zM25 78h1v1h-1zm143 0h1v1h-1zM51 79h1v1h-1zm97 0h1v1h-1zm28 0h1v1h-1zm-43 1h1v1h-1zm-70 1h1v1h-1zm87 0h1v1h-1zm-67 1h1v1h-1zm-21 1h1v1h-1zm32 0h1v1h-1zm8 0h1v1h-1zm5 0h1v1h-1zm8 0h1v1h-1zm38 0h1v1h-1zm17 0h1v1h-1zm13 0h1v1h-1zM37 84h1v1h-1zm3 0h1v1h-1zm-7 2h1v1h-1zm21 0h1v1h-1zm77 0h1v1h-1zm-95 1h1v1h-1zm4 0h1v1h-1zm18 0h1v1h-1zm120 0h1v1h-1zm-36 1h7v1h-7zm7 0h1v1h-1zm-14 2h1v1h-1zm4 0h1v1h-1zm0 1h1v1h-1zm-39 3h1v25h-1zm48 0h1v1h-1zm-56 1h1v1h-1zm-45 1h1v1h-1zm10 0h1v24h-1zm-11 3h1v1h-1zm20 4h1v1h-1zm43 0h1v1h-1zm14 0h7v1h-7zm7 0h1v1h-1zm5 0h1v1h-1zm8 1h1v1h-1zm-96 1h1v1h-1zm58 0h1v1h-1zm-35 1h1v1h-1zm53 0h1v1h-1zm13 0h1v1h-1zm-95 2h1v1h-1zm5 0h1v1h-1zm14 0h1v1h-1zm73 0h1v1h-1zm12 0h1v1h-1zm-43 1h1v1h-1zm-43 1h1v1h-1zm19 0h1v1h-1zm45 1h1v1h-1zm-89 1h1v1h-1zm10 1h1v1h-1zm15 3h1v1h-1zm-23 1h1v1h-1zm24 2h1v1h-1zm7 0h1v1h-1zm33 0h1v2h-1zm-43 1h1v1h-1zm64 0h1v1h-1zm-52 1h1v1h-1zm3 0h1v1h-1zm28 0h1v1h-1zm20 0h1v1h-1zm-1 1h1v1h-1zm29 0h1v1h-1zm-41 1h1v1h-1zm-40 1h1v1h-1zm4 0h1v1h-1zm39 0h1v1h-1zm1 0h1v1h-1zm-86 7h1v1h-1zm11 0h1v1h-1zm49 0h1v1h-1zm3 3h1v1h-1zm76 2h1v1h-1zm-81 2h1v1h-1zm83 0h1v1h-1zm-49 1h2v1h-2zm2 0h1v1h-1zm21 0h1v1h-1zm42 0h1v1h-1zm-118 1h1v1h-1zm58 0h1v1h-1zm38 0h1v1h-1zm-48 1h1v1h-1zm86 0h1v1h-1zm-136 1h1v1h-1zm56 0h1v1h-1zm1 0h1v1h-1zm27 0h1v1h-1zm-58 1h1v13h-1zm22 0h1v1h-1zm-42 1h1v1h-1zm119 0h1v1h-1zm-30 1h1v1h-1zm-57 1h1v1h-1zm3 1h1v1h-1zm5 0h1v1h-1zm50 0h1v1h-1zm41 0h1v1h-1zm-62 1h1v8h-1zm-35 1h1v1h-1zm-51 2h1v1h-1zm139 0h1v1h-1zm-86 1h1v1h-1zm44 0h1v1h-1zm-121 1h1v1h-1zm20 1h1v1h-1zm56 0h1v1h-1zm53 0h1v1h-1zm-106 1h1v1h-1zm74 0h1v1h-1zm68 0h1v1h-1zm-155 1h1v1h-1zm51 0h1v1h-1zm8 0h1v1h-1zm41 0h1v1h-1zm20 0h1v1h-1zm41 1h1v1h-1zm-101 1h1v1h-1zm96 0h1v1h-1zm-128 1h1v1h-1zm36 0h1v1h-1zm-67 1h1v1h-1zm10 0h1v1h-1zm9 0h1v1h-1zm24 0h1v1h-1zm111 3h1v1h-1zm1 0h1v1h-1zm-3 1h1v1h-1zm5 0h1v1h-1zm2 4h1v1h-1z" fill="#c10019"/><path d="M44 56h1v1h-1zm-16 4h1v1h-1zm133 3h1v1h-1zm-84 4h3v1h-3zm3 0h1v1h-1zm43 0h1v1h-1zm50 1h1v1h-1zM57 69h1v1h-1zm63 0h1v1h-1zm-37 1h1v1h-1zm72 0h1v1h-1zm20 0h1v1h-1zm10 0h1v1h-1zm-56 1h1v1h-1zm-11 1h1v1h-1zm11 3h5v1h-5zm5 0h1v1h-1zm35 0h1v1h-1zm12 0h4v1h-4zm4 0h1v1h-1zm-50 4h1v1h-1zm51 0h1v1h-1zm-16 2h1v1h-1zm-46 2h1v1h-1zm28 0h1v1h-1zM31 84h1v1h-1zm22 0h1v1h-1zm78 0h1v1h-1zm53 0h1v1h-1zM37 86h2v1h-2zm2 0h1v1h-1zm113 5h1v2h-1zM35 93h1v1h-1zm117 0h1v1h-1zm-96 1h1v1h-1zm94 1h1v1h-1zM36 96h1v1h-1zm13 0h1v1h-1zm94 0h2v1h-2zm2 0h1v1h-1zm3 0h1v1h-1zM48 99h1v1h-1zm-2 3h1v1h-1zm-14 1h1v1h-1zm105 2h1v1h-1zm-104 1h1v1h-1zm86 0h1v1h-1zm12 0h1v1h-1zm-70 2h1v1h-1zm83 1h1v12h-1zM41 119h1v1h-1zm20 0h1v1h-1zm54 2h1v1h-1zm29 0h1v1h-1zm-104 1h1v1h-1zm77 0h1v1h-1zm30 0h1v1h-1zm-33 1h1v1h-1zm-89 7h2v1h-2zm2 0h1v1h-1zm7 0h1v1h-1zm13 0h1v1h-1zm5 0h1v1h-1zm-2 3h1v1h-1zm35 4h1v1h-1zm83 0h1v1h-1zm-101 3h1v1h-1zm3 0h1v1h-1zm48 0h1v1h-1zm22 0h1v1h-1zm12 0h1v1h-1zm1 0h1v1h-1zm-2 1h1v1h-1zm8 0h1v3h-1zm11 0h1v1h-1zm29 0h1v1h-1zm-131 1h1v1h-1zm88 0h1v1h-1zm-20 1h1v1h-1zm-62 1h1v1h-1zm18 0h1v1h-1zm6 0h1v1h-1zm61 0h1v1h-1zm-33 2h1v1h-1zm63 0h1v1h-1zm6 0h1v1h-1zm-91 1h1v1h-1zm51 0h1v1h-1zm-60 4h1v1h-1zm56 1h1v1h-1zm48 0h1v1h-1zm-170 3h1v1h-1zm129 0h2v1h-2zm2 0h1v1h-1zm-114 3h1v1h-1zm112 0h1v1h-1zm26 0h1v1h-1zm-131 1h1v1h-1zm3 0h5v1h-5zm5 0h1v1h-1zm8 0h5v1h-5zm5 0h1v1h-1zm3 0h1v1h-1zm5 0h5v1h-5zm5 0h1v1h-1zm44 0h5v1h-5zm5 0h1v1h-1zm29 0h5v1h-5zm5 0h1v1h-1zm26 0h1v1h-1zm-3 5h1v1h-1z" fill="#f3dcde"/><path d="M29 58h1v1h-1zm4 3h1v1h-1zm121 5h1v1h-1zm-14 1h1v1h-1zm26 0h1v15h-1zM58 68h1v1h-1zm94 1h1v1h-1zm0 1h1v1h-1zm28 0h1v1h-1zM24 73h1v1h-1zm93 0h1v1h-1zm-92 4h1v1h-1zm33 2h1v2h-1zm85 0h1v1h-1zM33 80h1v1h-1zm25 1h1v1h-1zm78 1h1v1h-1zm30 0h1v1h-1zm-30 1h1v1h-1zm-3 1h1v1h-1zm-67 2h1v1h-1zm88 4h1v1h-1zM24 94h1v1h-1zm112 0h1v1h-1zm5 3h1v1h-1zm-96 6h1v1h-1zm23 0h1v1h-1zm1 0h1v1h-1zm43 0h1v1h-1zm1 0h1v1h-1zm27 0h1v1h-1zm-18 1h1v1h-1zm0 1h1v1h-1zm3 1h1v1h-1zm-64 1h1v1h-1zm54 0h1v1h-1zm-12 1h1v1h-1zm-44 4h1v1h-1zm-35 11h1v1h-1zm8 0h1v1h-1zm46 17h1v1h-1zm-23 2h1v1h-1zm12 0h1v1h-1zm12 0h1v1h-1zm71 0h1v1h-1zm12 0h1v1h-1zm21 0h2v1h-2zm2 0h1v1h-1zm10 0h1v1h-1zm10 0h1v1h-1zm-99 4h1v1h-1zm14 1h1v1h-1zm7 0h1v2h-1zm0 2h1v1h-1zm34 3h1v1h-1zm30 0h1v1h-1zm-8 5h1v1h-1zm-136 1h1v1h-1zm73 2h1v1h-1zm72 5h1v1h-1zm-6 4h1v1h-1z" fill="#c83548"/></svg>