<svg xmlns="http://www.w3.org/2000/svg" role="img" viewBox="186.51 182.01 805.48 417.98"><title>Catena cyber logo</title><defs><clipPath id="a" clipPathUnits="userSpaceOnUse"><path d="M0 0h841.89v595.281H0z"/></clipPath></defs><g clip-path="url(#a)" transform="matrix(1.33333 0 0 -1.33333 0 793.707)"><path fill="none" stroke="#66c430" stroke-dasharray="none" stroke-linecap="square" stroke-linejoin="miter" stroke-miterlimit="4" stroke-opacity="1" stroke-width="20" d="M627.845 229.912c-12.508-7.235-27.027-11.376-42.518-11.376-46.964 0-85.039 38.073-85.039 85.039s38.075 85.04 85.039 85.04c15.491 0 30.01-4.14 42.517-11.375"/><path fill="none" stroke="#231f20" stroke-dasharray="none" stroke-linecap="square" stroke-linejoin="miter" stroke-miterlimit="4" stroke-opacity="1" stroke-width="20" d="M463.462 203.675c-16.677-9.647-36.041-15.169-56.693-15.169-62.621 0-113.386 50.765-113.386 113.386 0 62.621 50.765 113.387 113.386 113.387 20.652 0 40.016-5.522 56.693-15.17"/><path fill="#fff" fill-opacity="1" fill-rule="nonzero" stroke="#231f20" stroke-dasharray="none" stroke-linecap="butt" stroke-linejoin="miter" stroke-miterlimit="4" stroke-opacity="1" stroke-width="1" d="M346.636 363.707c-11.07-11.07-29.018-11.069-40.088 0-11.07 11.07-11.07 29.018 0 40.088 11.069 11.07 29.018 11.07 40.088 0 11.069-11.07 11.069-29.018 0-40.088"/><path fill="none" stroke="#231f20" stroke-dasharray="none" stroke-linecap="butt" stroke-linejoin="miter" stroke-miterlimit="4" stroke-opacity="1" stroke-width="10" d="M346.636 363.707c-11.07-11.07-29.018-11.069-40.088 0-11.07 11.07-11.07 29.018 0 40.088 11.069 11.07 29.018 11.07 40.088 0 11.069-11.07 11.069-29.018 0-40.088z"/><path fill="#fff" fill-opacity="1" fill-rule="nonzero" stroke="#231f20" stroke-dasharray="none" stroke-linecap="butt" stroke-linejoin="miter" stroke-miterlimit="4" stroke-opacity="1" stroke-width="1" d="M321.73 303.575c-.001-15.655-12.691-28.346-28.348-28.347-15.655 0-28.345 12.692-28.345 28.347-.001 15.655 12.69 28.346 28.345 28.347 15.656-.001 28.347-12.692 28.348-28.347"/><path fill="none" stroke="#231f20" stroke-dasharray="none" stroke-linecap="butt" stroke-linejoin="miter" stroke-miterlimit="4" stroke-opacity="1" stroke-width="10" d="M321.73 303.575c-.001-15.655-12.691-28.346-28.348-28.347-15.655 0-28.345 12.692-28.345 28.347-.001 15.655 12.69 28.346 28.345 28.347 15.656-.001 28.347-12.692 28.348-28.347z"/><path fill="#66c430" fill-opacity="1" fill-rule="nonzero" stroke="none" d="M208.344 303.575c-.001-15.655-12.691-28.346-28.348-28.347-15.655 0-28.345 12.692-28.345 28.347-.001 15.655 12.69 28.346 28.345 28.347 15.656-.001 28.347-12.692 28.348-28.347"/><path fill="#231f20" fill-opacity="1" fill-rule="nonzero" stroke="none" d="M732.753 303.575c-.002-15.655-12.691-28.346-28.348-28.347-15.656 0-28.345 12.692-28.345 28.347 0 15.655 12.689 28.346 28.345 28.347 15.657-.001 28.346-12.692 28.348-28.347"/><path fill="#fff" fill-opacity="1" fill-rule="nonzero" stroke="#231f20" stroke-dasharray="none" stroke-linecap="butt" stroke-linejoin="miter" stroke-miterlimit="4" stroke-opacity="1" stroke-width="1" d="M346.636 243.443c11.069-11.07 11.069-29.018 0-40.09-11.07-11.07-29.019-11.068-40.088.002-11.07 11.068-11.07 29.016-.001 40.086 11.071 11.07 29.019 11.07 40.089.002"/><path fill="none" stroke="#231f20" stroke-dasharray="none" stroke-linecap="butt" stroke-linejoin="miter" stroke-miterlimit="4" stroke-opacity="1" stroke-width="10" d="M346.636 243.443c11.069-11.07 11.069-29.018 0-40.09-11.07-11.07-29.019-11.068-40.088.002-11.07 11.068-11.07 29.016-.001 40.086 11.071 11.07 29.019 11.07 40.089.002z"/><path fill="#fff" fill-opacity="1" fill-rule="nonzero" stroke="#231f20" stroke-dasharray="none" stroke-linecap="butt" stroke-linejoin="miter" stroke-miterlimit="4" stroke-opacity="1" stroke-width="1" d="M406.768 218.538c15.655-.002 28.347-12.691 28.349-28.349 0-15.655-12.694-28.345-28.348-28.345-15.655-.001-28.346 12.69-28.347 28.344.001 15.657 12.692 28.348 28.346 28.35"/><path fill="none" stroke="#231f20" stroke-dasharray="none" stroke-linecap="butt" stroke-linejoin="miter" stroke-miterlimit="4" stroke-opacity="1" stroke-width="10" d="M406.768 218.538c15.655-.002 28.347-12.691 28.349-28.349 0-15.655-12.694-28.345-28.348-28.345-15.655-.001-28.346 12.69-28.347 28.344.001 15.657 12.692 28.348 28.346 28.35z"/><path fill="#fff" fill-opacity="1" fill-rule="nonzero" stroke="#66c430" stroke-dasharray="none" stroke-linecap="butt" stroke-linejoin="miter" stroke-miterlimit="4" stroke-opacity="1" stroke-width="1" d="M585.325 358.584c-15.654 0-28.346 12.691-28.346 28.346s12.692 28.347 28.346 28.347c15.656 0 28.349-12.692 28.349-28.347 0-15.655-12.693-28.346-28.349-28.346"/><path fill="none" stroke="#66c430" stroke-dasharray="none" stroke-linecap="butt" stroke-linejoin="miter" stroke-miterlimit="4" stroke-opacity="1" stroke-width="10" d="M585.325 358.584c-15.654 0-28.346 12.691-28.346 28.346s12.692 28.347 28.346 28.347c15.656 0 28.349-12.692 28.349-28.347 0-15.655-12.693-28.346-28.349-28.346z"/><path fill="#fff" fill-opacity="1" fill-rule="nonzero" stroke="#231f20" stroke-dasharray="none" stroke-linecap="butt" stroke-linejoin="miter" stroke-miterlimit="4" stroke-opacity="1" stroke-width="1" d="M536.227 330.237c-7.826-13.559-25.163-18.203-38.721-10.375-13.557 7.828-18.205 25.163-10.376 38.721 7.827 13.558 25.163 18.203 38.722 10.376 13.558-7.827 18.204-25.164 10.375-38.722"/><path fill="none" stroke="#66c430" stroke-dasharray="none" stroke-linecap="butt" stroke-linejoin="miter" stroke-miterlimit="4" stroke-opacity="1" stroke-width="10" d="M536.227 330.237c-7.826-13.559-25.163-18.203-38.721-10.375-13.557 7.828-18.205 25.163-10.376 38.721 7.827 13.558 25.163 18.203 38.722 10.376 13.558-7.827 18.204-25.164 10.375-38.722z"/><path fill="#fff" fill-opacity="1" fill-rule="nonzero" stroke="#231f20" stroke-dasharray="none" stroke-linecap="butt" stroke-linejoin="miter" stroke-miterlimit="4" stroke-opacity="1" stroke-width="1" d="M536.227 273.545c7.829-13.561 3.183-30.895-10.375-38.721-13.559-7.828-30.895-3.184-38.722 10.374-7.829 13.557-3.181 30.894 10.375 38.722 13.556 7.827 30.896 3.182 38.722-10.375"/><path fill="none" stroke="#66c430" stroke-dasharray="none" stroke-linecap="butt" stroke-linejoin="miter" stroke-miterlimit="4" stroke-opacity="1" stroke-width="10" d="M536.227 273.545c7.829-13.561 3.183-30.895-10.375-38.721-13.559-7.828-30.895-3.184-38.722 10.374-7.829 13.557-3.181 30.894 10.375 38.722 13.556 7.827 30.896 3.182 38.722-10.375z"/><path fill="#fff" fill-opacity="1" fill-rule="nonzero" stroke="#231f20" stroke-dasharray="none" stroke-linecap="butt" stroke-linejoin="miter" stroke-miterlimit="4" stroke-opacity="1" stroke-width="1" d="M585.327 245.2c15.656 0 28.347-12.691 28.347-28.344 0-15.656-12.691-28.347-28.347-28.349-15.653 0-28.346 12.691-28.346 28.347 0 15.653 12.693 28.346 28.346 28.346"/><path fill="none" stroke="#66c430" stroke-dasharray="none" stroke-linecap="butt" stroke-linejoin="miter" stroke-miterlimit="4" stroke-opacity="1" stroke-width="10" d="M585.327 245.2c15.656 0 28.347-12.691 28.347-28.344 0-15.656-12.691-28.347-28.347-28.349-15.653 0-28.346 12.691-28.346 28.347 0 15.653 12.693 28.346 28.346 28.346z"/><path fill="#fff" fill-opacity="1" fill-rule="nonzero" stroke="#231f20" stroke-dasharray="none" stroke-linecap="butt" stroke-linejoin="miter" stroke-miterlimit="4" stroke-opacity="1" stroke-width="1" d="M406.768 385.248c-15.656 0-28.345 12.691-28.345 28.347 0 15.655 12.689 28.346 28.345 28.346 15.656 0 28.346-12.691 28.346-28.346 0-15.656-12.69-28.347-28.346-28.347"/><path fill="none" stroke="#231f20" stroke-dasharray="none" stroke-linecap="butt" stroke-linejoin="miter" stroke-miterlimit="4" stroke-opacity="1" stroke-width="10" d="M406.768 385.248c-15.656 0-28.345 12.691-28.345 28.347 0 15.655 12.689 28.346 28.345 28.346 15.656 0 28.346-12.691 28.346-28.346 0-15.656-12.69-28.347-28.346-28.347z"/></g></svg>