<svg xmlns="http://www.w3.org/2000/svg" role="img" viewBox="-14.42 -13.92 749.84 121.84"><title>Checkmarx logo</title><path fill="#1D2F7B" d="M.01605 49.2869c0-30.9 10.00005-44.49999 32.80005-44.49999 20.5 0 30.3 11.09999 31.2 34.29999h-16.9c-.6-12.9-5.1-18.8-14.3-18.8-10.8 0-15.2 8-15.2 29 0 21.6 4.1 29 15.2 29 9.5 0 13.8-5.3 14.5-19h17.1c-1 23.4-11.2 34.5-31.7 34.5-22.7 0-32.70005-13.6-32.70005-44.5zM79.3161.58691h16.6V22.1869l-1.5 10.6 3.5.9 3.5999-3.6c3.1-3.1 7.4-4.3 13.2-4.3 13.9 0 20.6 7.3 20.6 21.9v44.1h-16.6v-39.7c0-8-3.5-11.6-10.8-11.6-7.9 0-11.7999 3.9-11.7999 11.6v39.7h-16.8V.58691zM151.816 59.3869c0-22.8 10.7-33.6 31.1-33.6 21.1 0 30.8 11.3 28.5 36.5h-43.1c.6 12.8 5.2 18.2 14.8 18.2 7 0 11.7-2.8 12.8-8.6h15.3c-1.5 13.4-11.7 21.2-28.6 21.2-20.2-.1-30.8-11-30.8-33.7zm44.3-7.6c-.2-8.9-4.6-13.7-13.2-13.7-8.3 0-12.8 4.3-14.3 13.7h27.5zm30.2 7.6c0-22.8 10.6-33.6 30.8-33.6 18.5 0 28.2 9.1 28.7 26h-16.1c-.7-8.3-4.9-12-12.6-12-9.5 0-13.7 5.7-13.7 19.6 0 13.9 4.2 19.6 13.7 19.6 7.8 0 12.1-3.7 12.7-12.7h16.4c-.5 17.5-10.5 26.7-29.1 26.7-20.3 0-30.8-10.9-30.8-33.6zm100.8 5.2h-7.3v27.2h-16.6V.58691h16.6V49.7869h7.5l17-22.8h19l-22.1 30.2 22.8 34.6h-19.6l-17.3-27.2zm159.6 9.7c0-12.8 8.5-19.6 23.3-19.6h16.9v-4.8c0-8-3.6-11.3-11-11.3-6.3 0-10.7 2.5-11.2 8.5h-15c.5-13.4 9.9-21.3 27.6-21.3 17.7 0 26.2 7.6 26.2 23.4v42.6h-12.8l-1.6-6.7h-3.6l-3.6 3.6c-3 3-7.6 4.3-13.9 4.3-13.9 0-21.3-6.6-21.3-18.7zm26.8 6.3c8.5 0 13.3-4.4 13.3-12.2v-4.1h-12.7c-7 0-10.6 3-10.6 8.4.1 4.8 2.9 7.9 10 7.9zm46-2.8h17.9v-36.9h-15.8v-13.9h27.7l1.6 6.7h3.7l3.6-3.6c3-3.1 7.6-4.3 13.7-4.3h10.5v14.9h-16.4c-7.9 0-12 3.8-12 10.8v26.2h20.7v14h-55.2v-13.9zm-106.6-52c-5.9 0-10.6 1.2-13.7 4.3l-3.6 3.6h-4.5c-3.3-5.3-9.2-7.9-17.7-7.9-5.9 0-10.6 1.2-13.7 4.3l-3.6 3.6h-3.6l-1.7-6.7h-12.3v64.8h16.6v-39.7c0-7.6 3.9-11.6 11.8-11.6 7.4 0 10.8 3.6 10.8 11.6v39.7h16.6v-39.9l.1.1c0-7.6 4-11.5 11.8-11.5 7.4 0 10.8 3.6 10.8 11.6v39.7h16.6v-44.1c.3-14.7-6.6-21.9-20.7-21.9z"/><mask id="a" style="mask-type:alpha" width="88" height="89" x="634" y="6" maskUnits="userSpaceOnUse"><path fill="#231F20" d="M719.616 9.68697c-1.5-1.8-3.7-2.9-6-3-2.3-.1-4.6.8-6.3 2.5l-37 40.10003c-.8.8-2.2.8-2.9.1l-19-22.1-.1-.1c-1.6-1.6-3.9-2.5-6.2-2.4-2.3.1-4.5 1.2-6 3-1.3 1.6-2 3.7-1.8 5.8.2 2.1 1.1 4 2.6 5.5l21.9 18.8c.4.4.6.9.6 1.5s-.2 1.1-.5 1.4l-21.9 18.8-.1.1c-1.6 1.6-2.5 3.8-2.5 6 0 2.4.9 4.5 2.5 6.1.8.7 1.7 1.3 2.7 1.7 1.9.7 4.2.7 6.1-.1 1-.4 1.9-1 2.8-1.9l19-22.1c.8-.8 2.1-.8 2.8-.1l19 22.1.1.1c.8.8 1.7 1.4 2.7 1.8 1 .4 2 .6 3.1.6 1 0 2-.2 3-.6 1-.4 1.9-.9 2.7-1.7 1.7-1.6 2.6-3.7 2.5-6.1 0-2.2-1-4.4-2.6-6.1l-21.9-18.8c-.4-.4-.6-.9-.6-1.5s.2-1.1.5-1.4l40-37c1.5-1.5 2.4-3.4 2.5-5.5.3-1.8-.3-3.9-1.7-5.50003z"/></mask><g mask="url(#a)"><path fill="#E0617F" d="M639.003 58.7333h100.888l-6.45-77.0792L640.084-.74547 624.778 23.7419l14.225 34.9914z"/><path fill="url(#paint0_linear_3142:5749)" d="M636.109 101.326l69.009-6.2931-5.707-36.5163-59.434-.0007-15.215 29.1965 11.347 13.6136z"/></g><defs><linearGradient id="paint0_linear_3142:5749" x1="684.78" x2="682.623" y1="47.201" y2="128.542" gradientUnits="userSpaceOnUse"><stop stop-color="#797AB8"/><stop offset="1" stop-color="#409CEF"/></linearGradient></defs></svg>