<svg xmlns="http://www.w3.org/2000/svg" role="img" viewBox="7.85 9.35 734.30 813.80"><title>Cilium logo</title><path fill="#1E2322" d="M91.1271 663.001c6.4219-.03 12.8269.672 19.0909 2.093 5.449 1.18 10.696 3.159 15.571 5.872v18.742c-5.457-2.128-11.056-3.871-16.755-5.217-5.11-1.156-10.3324-1.743-15.5712-1.749-5.6572.014-11.2743.953-16.6302 2.78-5.5498 1.84-10.6013 4.94-14.7617 9.058-4.6759 4.721-8.259 10.416-10.4951 16.681-2.8654 8.225-4.2264 16.902-4.0174 25.613a68.91736 68.91736 0 0 0 2.9586 20.585c1.8189 5.988 4.8275 11.545 8.8445 16.336 3.9963 4.662 9.0176 8.33 14.6682 10.714 6.4577 2.697 13.4047 4.016 20.3985 3.873 5.6958-.015 11.3748-.632 16.9418-1.843a95.55862 95.55862 0 0 0 16.63-5.122v18.741c-2.06 1.155-4.217 2.127-6.447 2.905-2.86 1.029-5.783 1.874-8.751 2.53-3.342.754-6.72 1.337-10.121 1.75-3.5544.437-7.1321.656-10.7131.655a80.74506 80.74506 0 0 1-26.2533-4.216c-8.0428-2.697-15.4136-7.097-21.613-12.901-6.4295-6.193-11.4168-13.734-14.6059-22.084-3.8204-10.057-5.6811-20.756-5.4811-31.517-.0982-8.259.8435-16.498 2.8028-24.52 1.6787-6.715 4.289-13.161 7.7545-19.148 3.0659-5.274 6.9444-10.029 11.4917-14.087 8.3688-7.435 18.5214-12.558 29.461-14.869 5.1281-1.101 10.358-1.656 15.6025-1.655zM163 634v-25h23.288v25H163zm.615 170V666.094H187V804h-23.385zM233 804V594h22v210h-22zm69-170v-25h22.409v25H302zm.591 170V666.094H325V804h-22.409zm121.984 3.994c-6.554.081-13.09-.71-19.435-2.351-5.362-1.329-10.478-3.498-15.158-6.427-4.234-2.708-7.959-6.136-11.006-10.127-3.018-3.917-5.435-8.26-7.17-12.886-1.413-3.711-2.395-7.572-2.925-11.506-.601-4.532-.895-9.099-.88-13.67V666h22.642v84.651c-.165 6.546.902 13.065 3.145 19.219 2.203 5.675 6.17 10.499 11.321 13.764 6.017 3.565 12.944 5.308 19.938 5.016 7.296.359 14.522-1.57 20.661-5.518 5.19-3.674 9.103-8.868 11.195-14.861 1.773-5.701 2.602-11.653 2.453-17.62V666h22.642v85.027c.025 4.36-.238 8.717-.786 13.043-.479 3.795-1.333 7.533-2.547 11.161-1.756 4.717-4.193 9.153-7.233 13.168-3.154 4.085-6.982 7.605-11.321 10.409-4.853 3.066-10.159 5.351-15.724 6.772-6.469 1.67-13.13 2.482-19.812 2.414zM636.627 804h-22.512v-88.367c.11-5.153-.554-10.294-1.97-15.251-1.095-3.82-3.028-7.349-5.66-10.334-2.423-2.659-5.46-4.688-8.849-5.914-3.705-1.3-7.61-1.943-11.538-1.899-7.776-.058-15.394 2.184-21.887 6.443-6.988 4.716-12.997 10.73-17.698 17.711V804H524V666.641h17.416l4.347 19.08h.437c2.51-3.171 5.259-6.147 8.224-8.902 3-2.782 6.316-5.205 9.88-7.221 3.757-2.142 7.785-3.775 11.976-4.856 4.648-1.182 9.43-1.758 14.227-1.712 9.087-.343 18.043 2.232 25.546 7.346 6.951 5.163 12.357 12.115 15.634 20.108h.594c5.559-8.05 12.683-14.908 20.95-20.17 8.282-4.973 17.814-7.499 27.484-7.284 5.203.037 10.381.716 15.416 2.024 5.476 1.366 10.587 3.905 14.977 7.439 4.902 4.044 8.788 9.17 11.35 14.971 3.276 7.763 4.813 16.144 4.503 24.559V804h-22.513v-88.367c.103-5.15-.55-10.289-1.939-15.251-1.145-3.853-3.119-7.411-5.784-10.428-2.434-2.659-5.482-4.689-8.88-5.914-3.705-1.299-7.61-1.942-11.538-1.898-7.774-.042-15.387 2.199-21.888 6.443-7.033 4.694-13.076 10.71-17.792 17.711V804z"/><path fill="#CBDD72" d="M172.5 131h83l41.5 72-41.5 72h-83L131 203l41.5-72z"/><path fill="#98CA3F" d="M172.5 316h83l41.5 71.5-41.5 71.5h-83L131 387.5l41.5-71.5z"/><path fill="#6389C6" d="M334.5 407h83l41.5 71.5-41.5 71.5h-83L293 478.5l41.5-71.5z"/><path fill="#E8282B" d="M334.5 222h83l41.5 72-41.5 72h-83L293 294l41.5-72z"/><path fill="#F8C519" d="M334.5 38h83l41.5 71.5-41.5 71.5h-83L293 109.5 334.5 38z"/><path fill="#F07525" d="M495.25 131h84.5L622 203l-42.25 72h-84.5L453 203l42.25-72z"/><path fill="#8162AA" d="M495.25 316h84.5L622 387.5 579.75 459h-84.5L453 387.5l42.25-71.5z"/><path fill="#373737" d="M424.89 209h-99.156L276 294.797 325.734 380h99.156L475 294.765 424.89 209zm-12.966 148.146h-72.66l-36.956-62.225 36.768-63.067h72.848l36.737 63.067-36.737 62.225zM424.89 393h-99.156L276 478.719 325.734 564h99.156L475 478.719 424.89 393zm-12.966 148.102h-72.66l-36.956-62.227 36.768-63.102h72.848l36.737 63.102-36.737 62.227zM424.89 25h-99.156L276 110.828 325.734 196h99.156L475 110.828 424.89 25zm-12.966 148.225h-72.66l-36.956-62.397 36.768-63.0218h72.848l36.612 63.0218-36.612 62.397zM586.89 301h-99.187L438 386.796 487.703 472h99.187L637 386.796 586.89 301zm-13.123 148.123h-72.66l-36.768-62.202 36.768-63.169h72.66l36.769 63.044-36.769 62.327zM586.89 117h-99.187L438 203.267 487.703 289h99.187L637 203.267 586.89 117zm-13.123 149.044h-72.66l-36.768-62.589 36.768-63.436h72.66l36.769 63.436-36.769 62.589zM263.142 301h-98.658L115 386.796 164.484 472h98.658L313 386.796 263.142 301zm-13.026 148.123h-72.294l-36.584-62.202 36.584-63.169h72.294l36.584 63.169-36.584 62.202zM263.142 117h-98.658L115 203.267 164.484 289h98.658L313 203.267 263.142 117zm-13.026 149.044h-72.294l-36.584-62.651 36.584-63.437h72.294l36.584 63.437-36.584 62.651z"/></svg>