<svg xmlns="http://www.w3.org/2000/svg" role="img" viewBox="-18.96 -31.96 1609.92 1267.92"><title>Code Intelligence logo</title><path d="M825 96.4v96.8l8.8-8.4c4.9-4.5 23.3-22.3 41-39.3l32.2-31V61.8c0-29-.4-52.9-.8-53.2-3.4-2.1-46-7.4-66.4-8.3L825-.3v96.7zM723.2 3.1c-89.4 5-170.7 36.3-242.7 93.5-13.3 10.6-50.2 47.3-60.7 60.4-52.2 65.3-81.7 134.7-92.5 217.5-1.4 11.2-1.8 20.9-1.8 49s.4 37.8 1.8 49c10.8 83 41.5 154.7 93.3 218.3 10.2 12.6 37 39.9 50.4 51.5 61.6 53.4 139.8 88.3 220.5 98.7 17.2 2.2 52.6 4.3 53.8 3.1.4-.4.6-102 .5-225.8l-.3-225.1-40.2 39-40.3 39v140.9c0 116.4-.2 140.9-1.3 140.9-2.9 0-23.9-6.4-36.7-11.2-44.4-16.5-87.6-44.3-121.5-78.3-53.8-53.9-86.9-121.3-97.2-198-2.4-18.3-2.4-65.7 0-84 11.7-87.2 52.9-162.2 120.2-219.1 33.7-28.5 80.8-53.5 122.9-65.3 6-1.7 11.5-3.1 12.3-3.1 1.1 0 1.3 22.3 1.5 126.2l.3 126.2 40.3-38.9 40.2-38.8-.2-133.1-.3-133.1-4-.1c-2.2-.1-10.4.2-18.3.7zm318.3 107.3c-16 15.1-29.1 27.9-29.2 28.3-.1.4 3 3 7 5.8 4 2.7 12.8 9.5 19.7 15 72.1 57.8 117.2 143 125.1 236.4 1.5 17.6.6 54.9-1.6 71.1-12.7 92.7-59.6 172.7-134 228.5-17.2 12.9-30.2 21-50 31-21.7 11.1-51.5 22.4-68.2 26l-3.3.7-.2-256.8-.3-256.7-40.7 38.9-40.8 38.9v263.2c0 144.7.4 263.4.8 263.7 1.3.8 36.4-1.3 50.7-3 53.1-6.4 108.6-24.6 155-50.8 138.7-78.5 221.5-227.3 214.4-385.6-4.8-108.2-51.2-210.9-128.6-284.9-7-6.8-16.8-15.6-21.8-19.5C1086 93 1072.1 83 1071 83c-.3 0-13.6 12.4-29.5 27.4zM299 1020v28.1l-3.7-3.7c-2.1-2-6.3-4.9-9.3-6.3-4.8-2.3-6.8-2.6-16-2.6-9.4 0-11.1.3-16.5 2.8-10.4 4.9-16.2 12.4-19.5 25.2-1.8 6.9-2 11.1-2 35.4 0 20.9.4 29.1 1.5 33.9 5 21 19.2 32.2 39.4 31 9-.5 16.6-3.6 22.5-9.1 2.1-2 4-3.7 4.1-3.7.1 0 .5 2.2.9 5l.7 5H313V992h-14v28zm-15.4 30.3c4.3 2.2 9 7.3 11.3 12.2 3.5 7.6 4.3 16 3.9 41.7-.4 21.8-.6 24.8-2.5 29.6-3.1 7.7-6.6 11.7-12.8 14.8-4.8 2.3-6.4 2.6-12.3 2.2-11.6-.9-19.4-6.8-22.9-17.3-2.1-6.5-3.1-52.1-1.3-62.2 2.1-12.3 8-20 17.2-22.4 4.8-1.2 15.9-.4 19.4 1.4zm589.4 26.2v84.5h14V992h-14v84.5zm52 0v84.5h14V992h-14v84.5zm-409-81.7c-4 2-6 5.3-6 10 0 7.5 5.3 12 13.1 10.9 4.8-.6 6.8-2.1 8.6-6.5 2.7-6.6-1.1-14.2-7.8-15.6-4.2-.8-3.9-.8-7.9 1.2zm462 0c-4 2-6 5.3-6 10 0 7.5 5.3 12 13.1 10.9 4.8-.6 6.8-2.1 8.6-6.5 2.7-6.6-1.1-14.2-7.8-15.6-4.2-.8-3.9-.8-7.9 1.2zM690 1024v14h-19v13h18.9l.3 42.7c.3 42.5.3 42.8 2.7 48.7 3.5 8.7 10 14.9 18.6 17.5 4 1.3 9.4 2.1 13.6 2.1h6.9v-12.7l-7.4-.6c-8-.6-10.6-1.5-14.9-5.5-5.3-5-5.7-8.7-5.7-52.4V1051h25v-13h-25v-28h-14v14zm-652.1 12.9c-11.2 3.6-18.6 10.9-23.2 22.9-2.1 5.4-2.2 7.2-2.2 39.2 0 32.2.1 33.7 2.2 39.3 6.2 16.1 18.9 24.7 36.9 24.7 8.7 0 18.4-2.8 24.2-7 8.6-6.2 14.6-17.9 15.9-30.8l.6-6.2H78.2l-.7 5.2c-1.7 12-5.9 18.7-14.2 22.5-4.6 2.1-6.6 2.5-13.2 2.2-13.4-.7-20.5-7-23.1-20.8-1.3-7-1.3-51.2 0-58.2 2.6-13.8 9.7-20.1 23.1-20.8 6.6-.3 8.6.1 13.2 2.2 7.8 3.5 12.4 10.7 13.5 21l.7 6.2 7.4.3 7.4.3-.7-6c-2.8-24.4-17.4-38.2-40.5-38-4.4 0-9.9.8-13.2 1.8zm108.9 0c-13.7 4.5-21.8 13.5-25.3 28.3-2.1 9.1-2.1 59.6 0 68.7 3.1 12.9 11.2 22.8 22.3 27.3 4.8 1.9 7.6 2.2 17.2 2.2s12.4-.3 17.2-2.2c11.1-4.5 19.2-14.4 22.3-27.3 2.1-9.2 2.1-59.6 0-68.8-3.1-13-11.2-22.9-22.3-27.2-8-3.1-23.5-3.6-31.4-1zm27.3 14.8c7 3.6 11.3 9.8 12.8 18.6 1.4 8.3 1.4 50.1 0 58.4-2.4 13.8-11.5 21.3-25.9 21.3-14.4 0-23.5-7.5-25.9-21.3-1.4-8.3-1.4-50.1 0-58.4 2.4-13.8 11.5-21.3 25.9-21.3 6.4 0 8.6.5 13.1 2.7zm199.6-15.6c-13.8 3.2-24.5 15.1-27.7 30.6-.7 3.3-1 16.3-.8 35.5.3 28.2.5 30.7 2.5 36.1 6.5 17.3 20 25.5 40.2 24.4 13.4-.6 19.8-3.3 27.7-11.1 6.6-6.6 9.6-12.9 11.2-23.1l.9-5.5h-14.4l-.7 4.8c-.3 2.7-2 7.2-3.9 10.2-4.5 7.5-10.2 10.4-21.5 10.9-10.6.4-15.7-1.4-21-7.4-5.1-5.8-6.2-9.8-6.9-23.8l-.6-11.7h67.5l-.4-19.8c-.4-17-.8-20.5-2.7-25.7-6-16.5-19.9-25.7-38.6-25.4-3.8.1-8.7.5-10.8 1zm21.4 14.1c5.7 1.7 11.3 6.9 13.9 13 1.8 4.3 2.4 7.7 2.8 17.5l.5 12.3h-53.6l.5-12.3c.4-9.7.9-13.2 2.7-17.2 4.5-10.1 11.2-14.4 22.5-14.5 3.8 0 8.6.5 10.7 1.2zm203.2-13.3c-6.7 2.3-12.6 6.4-16.2 11.3l-2.9 3.9-1.2-7-1.2-7.1H565v123h13.9l.3-43.3c.4-47.5.6-48.5 6.8-57.9 7.3-11 23.3-15.1 33.2-8.5 4.4 2.9 8.5 11.5 9.8 20.2.5 3.8 1 25.6 1 48.2v41.3h14v-43.8c-.1-48.6-.7-55-6-65.8-5.5-11.3-14.3-16.4-27.9-16.4-3.7.1-8.9.9-11.8 1.9zm187.4-.8c-13.8 3.2-24.5 15.1-27.7 30.6-.7 3.3-1 16.3-.8 35.5.3 28.2.5 30.7 2.5 36.1 6.5 17.3 20 25.5 40.2 24.4 13.4-.6 19.8-3.3 27.7-11.1 6.6-6.6 9.6-12.9 11.2-23.1l.9-5.5h-14.4l-.7 4.8c-.3 2.7-2 7.2-3.9 10.2-4.5 7.5-10.2 10.4-21.5 10.9-10.6.4-15.7-1.4-21-7.4-5.1-5.8-6.2-9.8-6.9-23.8l-.6-11.7h67.5l-.4-19.8c-.4-17-.8-20.5-2.7-25.7-6-16.5-19.9-25.7-38.6-25.4-3.8.1-8.7.5-10.8 1zm21.4 14.1c5.7 1.7 11.3 6.9 13.9 13 1.8 4.3 2.4 7.7 2.8 17.5l.5 12.3h-53.6l.5-12.3c.4-9.7.9-13.2 2.7-17.2 4.5-10.1 11.2-14.4 22.5-14.5 3.8 0 8.6.5 10.7 1.2zm244.4-13.9c-15 5-23.1 14.8-26.5 32.2-.8 4-1 14.7-.8 32 .4 23.6.6 26.5 2.6 31.8 6.2 16.9 20 25.5 39.1 24.5 9.8-.5 16.6-3 21.9-8l3.2-3.2v13.3c0 15.4-1 20.5-5.2 25.5-5.1 6.2-9.9 8.1-20.3 8.1-9.9 0-14.5-1.7-19.7-7.2-2.7-2.9-5.8-10-5.8-13.4 0-1.7-.8-1.9-7.1-1.9h-7.1l.7 4.2c1.5 8.9 4.6 15.1 10.4 20.9 8.2 8.2 14.2 10.4 29.2 10.4 11.3 0 11.6-.1 19.2-3.8 9.5-4.7 14.7-10.7 17.7-20.4 1.9-6.3 2-9.1 2-74.9V1038h-5.9c-5.8 0-5.9.1-6.5 3.1-.3 1.7-.6 4.3-.6 5.7 0 2.4-.2 2.2-5-2.2-7.1-6.7-12.6-8.9-23-9.3-5.2-.2-10.1.2-12.5 1zm21 12.8c5.2 1.3 11.9 6.7 14.4 11.8 3.1 6.1 4.1 14.4 4.1 35.6 0 31.5-2.3 38.9-14 45.1-4.3 2.3-16.5 2.5-22.4.5-5.5-1.9-11-7.3-13.7-13.4-2.2-4.8-2.4-6.7-2.7-27.5-.4-24.5.4-32.6 4.3-40.3 5.2-10.1 17.5-15 30-11.8zm95.2-13c-13.8 3.2-24.5 15.1-27.7 30.6-.7 3.3-1 16.3-.8 35.5.3 28.2.5 30.7 2.5 36.1 6.5 17.3 20 25.5 40.2 24.4 13.4-.6 19.8-3.3 27.7-11.1 6.6-6.6 9.6-12.9 11.2-23.1l.9-5.5h-14.4l-.7 4.8c-.3 2.7-2 7.2-3.9 10.2-4.5 7.5-10.2 10.4-21.5 10.9-10.6.4-15.7-1.4-21-7.4-5.1-5.8-6.2-9.8-6.9-23.8l-.6-11.7h67.5l-.4-19.8c-.4-17-.8-20.5-2.7-25.7-6-16.5-19.9-25.7-38.6-25.4-3.8.1-8.7.5-10.8 1zm21.4 14.1c5.7 1.7 11.3 6.9 13.9 13 1.8 4.3 2.4 7.7 2.8 17.5l.5 12.3h-53.6l.5-12.3c.4-9.7.9-13.2 2.7-17.2 4.5-10.1 11.2-14.4 22.5-14.5 3.8 0 8.6.5 10.7 1.2zm99.2-13.3c-6.7 2.3-12.6 6.4-16.2 11.3l-2.9 3.9-1.2-7-1.2-7.1H1255v123h13.9l.3-43.3c.4-47.5.6-48.5 6.8-57.9 7.3-11 23.3-15.1 33.2-8.5 4.4 2.9 8.5 11.5 9.8 20.2.5 3.8 1 25.6 1 48.2v41.3h14v-43.8c-.1-48.6-.7-55-6-65.8-5.5-11.3-14.3-16.4-27.9-16.4-3.7.1-8.9.9-11.8 1.9zm104.6 0c-11.2 3.6-18.6 10.9-23.2 22.9-2.1 5.4-2.2 7.2-2.2 39.2 0 32.2.1 33.7 2.2 39.3 6.2 16.1 18.9 24.7 36.9 24.7 8.7 0 18.4-2.8 24.2-7 8.6-6.2 14.6-17.9 15.9-30.8l.6-6.2h-14.1l-.7 5.2c-1.7 12-5.9 18.7-14.2 22.5-4.6 2.1-6.6 2.5-13.2 2.2-13.4-.7-20.5-7-23.1-20.8-.5-2.9-1-16.1-1-29.1s.5-26.2 1-29.1c2.6-13.8 9.7-20.1 23.1-20.8 6.6-.3 8.6.1 13.2 2.2 7.8 3.5 12.4 10.7 13.5 21l.7 6.2 7.4.3 7.4.3-.7-6c-2.8-24.4-17.4-38.2-40.5-38-4.4 0-9.9.8-13.2 1.8zm113.8-.8c-13.8 3.2-24.5 15.1-27.7 30.6-.7 3.3-1 16.3-.8 35.5.3 28.2.5 30.7 2.5 36.1 6.5 17.3 20 25.5 40.2 24.4 13.4-.6 19.8-3.3 27.7-11.1 6.6-6.6 9.6-12.9 11.2-23.1l.9-5.5h-14.4l-.7 4.8c-.3 2.7-2 7.2-3.9 10.2-4.5 7.5-10.2 10.4-21.5 10.9-10.6.4-15.7-1.4-21-7.4-5.1-5.8-6.2-9.8-6.9-23.8l-.6-11.7h67.5l-.4-19.8c-.4-17-.8-20.5-2.7-25.7-6-16.5-19.9-25.7-38.6-25.4-3.8.1-8.7.5-10.8 1zm21.4 14.1c5.7 1.7 11.3 6.9 13.9 13 1.8 4.3 2.4 7.7 2.8 17.5l.5 12.3h-53.6l.5-12.3c.4-9.7.9-13.2 2.7-17.2 4.5-10.1 11.2-14.4 22.5-14.5 3.8 0 8.6.5 10.7 1.2zM514 1099.5v61.5h14v-123h-14v61.5zm462 0v61.5h14v-123h-14v61.5z"/></svg>