<svg xmlns="http://www.w3.org/2000/svg" role="img" viewBox="-5.91 72.09 411.58 100.58"><title>Codethink logo</title><style>svg {enable-background:new 0 0 400 245}</style><path fill="none" d="M-424.23 50.47H12.1v144.06h-436.33z"/><path fill="#64a800" d="M147.59 115.42c-4.72 4.71-7.45 10.73-8.21 16.89.77-6.17 3.5-12.19 8.23-16.91l-.02.02zm-8.58-33.11v53.58H139c-.02 13.54-10.99 24.51-24.53 24.53-5.44-.01-10.43-1.82-14.5-4.82 1.01-1.09 1.96-2.24 2.8-3.47 3.3 2.39 7.32 3.82 11.69 3.82 11.05-.01 20.06-9.01 20.07-20.07V82.31h-4.46v53.57c-.02 8.57-7.04 15.6-15.61 15.62-3.57-.01-6.82-1.31-9.45-3.37.65-1.4 1.2-2.85 1.63-4.36 2.02 2.01 4.79 3.26 7.82 3.27 6.09-.01 11.14-5.07 11.14-11.15V82.31h-4.45v25.39c-2.14-.51-4.38-.81-6.69-.81-6.76.02-12.96 2.34-17.87 6.21-4.92-3.86-11.07-6.19-17.81-6.21-16.03.04-28.96 12.97-29.01 28.99.01 2.31.31 4.54.82 6.69h-6.02c-5.36 0-10.34-2.25-14.09-6.04-3.73-3.79-6-8.91-5.99-14.33.02-10.92 8.85-19.76 19.77-19.77 5.48.01 10.34 2.19 13.96 5.77l3.15-3.16c-4.4-4.38-10.41-7.07-17.11-7.07-13.38.02-24.21 10.85-24.24 24.23-.01 6.67 2.77 12.89 7.28 17.47 4.52 4.57 10.63 7.36 17.26 7.36H52c.65 1.56 1.45 3.05 2.36 4.46h-9.81c-15.8-.03-28.97-13.46-29-29.29.03-15.84 12.85-28.67 28.7-28.69 7.92 0 15.07 3.19 20.26 8.38l1.58-1.58 1.58-1.58h.03c-5.99-5.98-14.28-9.68-23.41-9.68-18.32 0-33.16 14.84-33.16 33.16.03 18.32 15.09 33.72 33.47 33.75h13.32c1.64 1.7 3.49 3.2 5.5 4.46H44.59c-20.94-.09-37.86-17.41-37.92-38.21.01-20.78 16.84-37.62 37.62-37.62 10.34-.01 19.78 4.2 26.56 10.98l.01.01L74 92.41v-.01c-7.57-7.57-18.15-12.29-29.71-12.29-23.26.01-42.08 18.84-42.09 42.09.12 23.29 18.87 42.52 42.39 42.68h34.09l.11.01h-.01c6.75-.02 12.93-2.34 17.84-6.2 4.92 3.86 11.1 6.18 17.85 6.19 16.02-.05 28.95-12.97 28.99-29h.01V82.31h-4.46zm-24.53 60.26c-3.61-.01-6.69-3.09-6.7-6.7 0-3.6 3.08-6.68 6.7-6.69 3.6.01 6.68 3.09 6.68 6.69h.01c-.01 3.62-3.09 6.7-6.69 6.7zm6.68-30.26v4.68c-2.09-.75-4.34-1.18-6.69-1.18-11.06.01-20.07 9.02-20.08 20.07h.01c-.02 8.58-7.05 15.6-15.61 15.62v-.01c-8.58-.01-15.61-7.03-15.63-15.61.02-8.57 7.05-15.6 15.63-15.62 3.56.01 6.83 1.27 9.46 3.31-.66 1.42-1.22 2.9-1.65 4.42-2.03-2-4.79-3.26-7.82-3.27-6.1.01-11.15 5.07-11.16 11.15.01 6.1 5.07 11.14 11.16 11.16 6.08-.01 11.14-5.06 11.14-11.16v-.02c.04-13.53 11-24.48 24.54-24.52 2.34.02 4.58.37 6.7.98zm-35.68 23.57c-.01 3.61-3.09 6.69-6.69 6.7-3.61-.01-6.69-3.09-6.7-6.7.01-3.6 3.09-6.68 6.7-6.69 3.6.01 6.68 3.09 6.69 6.69zm-6.7 24.54c-13.54-.03-24.51-11-24.54-24.54.03-13.54 11-24.51 24.55-24.53 5.43.01 10.44 1.81 14.5 4.81-1.02 1.09-1.95 2.25-2.79 3.49-3.3-2.4-7.34-3.82-11.71-3.83-11.06.01-20.07 9.02-20.08 20.07.01 11.05 9.02 20.06 20.08 20.07 11.05-.01 20.06-9.02 20.06-20.08.02-8.57 7.04-15.6 15.62-15.61 2.4 0 4.66.57 6.69 1.55v5.24c-1.87-1.44-4.18-2.33-6.69-2.34-6.09.01-11.14 5.07-11.16 11.15v.04c-.03 13.53-11 24.48-24.53 24.51zm68.84-4c5.62 5.63 13.1 8.46 20.45 8.46h61.33v-35.69h4.46v35.69h4.46v-35.69h4.45v35.69h4.46v-35.69h2.95c3.57.01 6.57 2.96 6.57 6.69l-.01 28.99h4.46l.01-28.99c-.01-6.16-4.97-11.14-11.04-11.16H208.1v11.11c.02 6.09 5.07 11.14 11.16 11.15h5.68v4.46h-5.68c-8.58-.02-15.6-7.04-15.62-15.61v-15.57h46.55c8.57.01 15.49 7.02 15.49 15.62v28.99h4.46v-28.99c-.02-11.04-8.88-20.08-19.95-20.08h-46.55V82.3h-4.46v53.54c.01 11.06 9.02 20.07 20.08 20.08h5.68v4.46h-5.68c-13.54-.03-24.51-11-24.54-24.53V82.31h-4.46v34.75l-1.65-1.65c-5.64-5.64-13.13-8.48-20.5-8.47-7.37-.01-14.86 2.81-20.5 8.47-4.73 4.72-7.46 10.74-8.23 16.91-.15 1.2-.25 2.4-.25 3.6 0 7.36 2.83 14.85 8.49 20.5m3.14-3.17c-4.78-4.77-7.18-11.1-7.17-17.34-.01-6.25 2.39-12.58 7.17-17.35 4.77-4.78 11.1-7.17 17.35-7.17 6.25-.01 12.58 2.39 17.35 7.16l4.74 4.73-19.29 19.29h-2.79c-1.01-.01-1.97-.24-2.86-.65l18.63-18.64-1.58-1.57c-3.9-3.91-9.06-5.86-14.19-5.86-5.14 0-10.3 1.95-14.19 5.86-3.91 3.9-5.86 9.06-5.86 14.2 0 5.13 1.96 10.29 5.86 14.19h.01-.01c3.9 3.9 9.06 5.85 14.19 5.85h30.32c1.65 1.72 3.53 3.2 5.57 4.46h-35.89c-6.25.01-12.57-2.39-17.34-7.16m39.48-23.74v6.33c.01 2.33.32 4.57.83 6.73h-13.9c.01.01 13.07-13.06 13.07-13.06zm-22.14 21.99c-4.02-.01-8.01-1.51-11.03-4.55h-.01c-3.04-3.04-4.55-7.03-4.55-11.04 0-4.02 1.51-8.01 4.55-11.04 3.03-3.04 7.02-4.55 11.04-4.56 3.31.01 6.6 1.03 9.35 3.09l-15.33 15.35v.09l-.04-.08c-.42-.89-.64-1.85-.65-2.86.01-1.77.64-3.43 1.94-4.73l6.26-6.24c-.52-.07-1.01-.16-1.53-.16-2.91 0-5.73 1.08-7.88 3.24-2.17 2.17-3.24 4.99-3.25 7.88.01 2.89 1.08 5.71 3.25 7.88l.01.01c2.16 2.16 4.98 3.23 7.88 3.24h24.42c.66 1.57 1.46 3.05 2.37 4.46l-26.8.02zm51.15-8.97c-3.61 0-6.69-3.08-6.7-6.69v-6.65h12.38v13.34h-5.68zm59.8 7.85v-41.51h-4.46v11.61c-5.09-8.12-14.05-13.58-24.42-13.59h-2.95V82.35h-4.46v24.53h-4.45V82.35h-4.46v24.53h-4.46V82.35h-4.45v24.53h-12.38V82.35h-4.46v29h42.09c13.57.01 24.39 11.06 24.42 24.54V164.88h4.46l-.02-14.5zm4.46 14.5h4.46v-56.01h-4.46v56.01zm2.34-84.76c-7.39.02-13.34 5.97-13.35 13.36.01 7.37 5.96 13.34 13.35 13.35 7.39-.01 13.34-5.99 13.34-13.35.01-7.37-5.95-13.36-13.34-13.36zm0 22.24c-4.92-.01-8.88-3.98-8.89-8.89 0-4.91 3.97-8.88 8.89-8.89 4.92 0 8.89 3.99 8.89 8.89s-3.97 8.89-8.89 8.89zm0-13.31c-2.45 0-4.42 1.98-4.42 4.43 0 2.44 1.97 4.43 4.42 4.43s4.43-1.98 4.43-4.43c0-2.45-1.97-4.43-4.43-4.43zm46.73 75.83h-4.45m13.38 0h-4.47m-4.46 0v-29c-.01-6.08-5.07-11.14-11.15-11.15-6.09.01-11.15 5.06-11.16 11.15v29h4.46v-29c0-3.61 3.08-6.68 6.69-6.69 3.6.01 6.68 3.09 6.69 6.69v29h4.47zm-11.15-44.62c8.57.02 15.59 7.05 15.61 15.62v29h4.47l-.01-29c-.01-11.05-9.02-20.06-20.07-20.07-11.06.01-20.06 9.02-20.08 20.07v29h4.47v-29c.01-8.57 7.03-15.6 15.61-15.62zm29-37.91l-4.46-.01v38.17c-5.12-8.17-14.17-13.61-24.53-13.64-10.37.03-19.41 5.46-24.53 13.62v-11.63h-4.46v26.84l-.01.17v29h4.47v-29.06c.05-13.51 11.01-24.45 24.53-24.48 13.53.03 24.5 10.99 24.53 24.53v29h4.46V82.35zm8.92 82.53V82.35h-4.45v82.53h4.45zm32.23-29c3.85-4.92 6.18-11.1 6.2-17.84l-.01-9.16h-4.46v9.17c-.02 13.54-10.99 24.5-24.52 24.53v.01h-.51v-4.47h.51v.01c11.05-.02 20.06-9.03 20.07-20.07l-.01-9.17h-4.45v9.17c-.02 8.56-7.04 15.59-15.61 15.61h-.51v-4.46h.51c6.08-.01 11.14-5.07 11.14-11.14l.01-9.17h-4.46v9.16c-.01 3.6-3.09 6.69-6.69 6.69h-.51v-42.4l-4.46.01v82.53h4.46v-17.85h.51c3.6.01 6.68 3.09 6.69 6.69v11.16h4.45v-11.16c0-3.03-1.26-5.8-3.27-7.82 1.52-.43 3-.99 4.41-1.65 2.04 2.64 3.31 5.9 3.32 9.47v11.16h4.46l-.01-11.16c0-4.37-1.43-8.4-3.81-11.7 1.24-.84 2.38-1.79 3.47-2.8 3 4.07 4.79 9.07 4.8 14.51v11.16h4.47l-.01-11.16c0-6.76-2.33-12.94-6.18-17.86z"/></svg>