<svg xmlns="http://www.w3.org/2000/svg" role="img" viewBox="-2.65 -3.90 397.80 132.55"><title>Cosign logo</title><style>svg {enable-background:new 0 0 395 125}</style><style>.st0{fill:#fff}.st1{fill:#2e2f71}</style><path d="M82.83572 7.75109c.76501.39111 1.50793.81128 2.22076 1.271-.71277-.45972-1.45575-.87989-2.22076-1.271zM79.7142 6.35387c-.62122-.2395-1.24738-.45532-1.87671-.65576.96258.3064 1.9129.67139 2.85595 1.07129-.32641-.13843-.65039-.28858-.97924-.41553zm6.38787 3.38867c-.34033-.25097-.6892-.49048-1.04559-.72046.71277.45972 1.3955.95899 2.03998 1.50806-.32227-.27466-.65405-.53662-.99439-.7876zm1.93158 1.64966c.60437.60132 1.16657 1.25806 1.67853 1.97998-.51196-.72192-1.07416-1.37866-1.67853-1.97998zm-15.9903-7.02124zm1.96198.34424c.3985.08008.79517.16992 1.19104.26294-.39587-.09302-.79248-.18262-1.19104-.26294zm1.93085.43994c.43024.11035.85767.23486 1.28449.36182-.42682-.12696-.85425-.25147-1.28449-.36182zm34.2533 34.72437c.10998.20214.21728.406.32238.6106a28.80204 28.80204 0 0 0-.32238-.6106zm2.87689 7.92163zm-19.07361-26.3462c-.45374-.70165-.86731-1.43359-1.23724-2.19726a20.29972 20.29972 0 0 1-.52185-1.16992c.5614 1.37353 1.26495 2.64258 2.07824 3.83057-.10595-.15479-.21722-.30567-.31915-.46338zm19.8075 30.82618zm-2.69233-10.54908c.08576.18995.17548.37745.25708.56958-.0816-.19213-.17126-.37988-.25708-.56958zM70.03732 4.11437c.40966.04321.8186.09009 1.22607.14429-.40747-.0542-.8164-.10108-1.22607-.1443zm25.43566 19.36182c.35407.43017.7301.844 1.11579 1.25049-.38574-.4065-.76178-.82032-1.11579-1.2505zm13.70948 14.68237c.10992.17334.21246.35107.31878.52637-.10632-.1753-.2088-.35303-.31878-.52637zM30.42904 19.93053c.61316-.55078 1.23138-1.09619 1.85632-1.63476-.62494.53857-1.24322 1.08398-1.85632 1.63476zm-3.1883 2.99512c.79157-.78809 1.60517-1.55347 2.42835-2.3086-.82312.75538-1.63684 1.52051-2.42834 2.3086zm5.78974-5.27124c.82635-.7024 1.6579-1.39917 2.49554-2.08862-.83764.68945-1.66912 1.38623-2.49554 2.08862zM67.93777 3.93615c.45337.02905.9063.06079 1.35736.10132-.45105-.04053-.904-.07227-1.35736-.10132zM6.37154 41.2047a11.57903 11.57903 0 0 0 0 0zm-1.203 3.36646c-.06903.37744-.12.7622-.1529 1.1543.09876-1.17652.36024-2.28565.78266-3.33155-.28162.69727-.49176 1.4226-.62976 2.17725zM37.3395 14.0819c-.3014.24316-.59985.49023-.89947.73584.8988-.73682 1.80084-1.46875 2.72808-2.16602-.61816.46485-1.22583.9441-1.82861 1.43018zM5.7983 42.3939c.12671-.31397.27277-.62012.4284-.9226-.15563.30248-.30169.60863-.4284.9226zM60.79958 4.04577c.71137-.07813 1.42426-.14405 2.14032-.18164-.71606.03784-1.42895.10351-2.14032.18164zm4.52771-.22486c.66504.01319 1.32764.03882 1.9884.07349-.66076-.03467-1.32336-.0603-1.9884-.07349zM5.04122 48.44567c-.03833-.50513-.0658-1.01148-.06995-1.52124.00416.50976.03162 1.01611.06995 1.52124zM48.4609 7.37536c.19373-.08594.38666-.17408.58142-.25757-.19476.0835-.3877.17163-.58142.25757zm-1.88696.87841c.21087-.10302.42242-.20459.63433-.30517a61.71276 61.71276 0 0 0-.63433.30517zm6.48755-2.62524c.18481-.05762.37036-.11353.55633-.16846-.18597.05493-.37152.11084-.55633.16846zm-8.2754 3.52954c.1808-.09473.36292-.18652.54432-.27978-.1814.09326-.36359.18505-.54432.27978zM58.59493 4.3512c.52033-.0852 1.042-.1604 1.56476-.22632-.52283.06592-1.04443.14111-1.56476.22632zm3.41815 35.9724c-.70709-.94262-2.12127-1.17895-3.06414-.47167l-1.41413.94287c-.94287.70727-1.17865 2.12134-.47131 3.06445L70.73415 62.7152c.7071.94263 2.12128 1.1787 3.06415.47143l1.41419-.94262c.94287-.70728 1.1784-2.12134.47155-3.06397L62.01308 40.3236zM39.14974 72.37903c2.3573.94312 4.47858 1.4143 6.36408 1.4143h1.41412c2.12152-.23583 3.77148-.70702 5.65723-1.4143 4.00677-1.17822 7.30664-2.35669 12.25653.23584 1.1784.70728 2.82837.23584 3.53546-1.17847.47125-1.1787 0-2.82861-1.17865-3.2998-6.59961-3.53565-11.5492-1.88574-16.02777-.70728-1.64972.47144-3.06415.94312-4.71405 1.17847-1.41419.23608-3.29968-.23535-5.4212-.94287-1.41419-.47095-2.82837.23584-3.29993 1.4143-.47132 1.4148.23578 2.82838 1.41418 3.29981zm36.5343-1.885l4.2425 2.12084c.70709.47144 1.41418 0 1.41418-.94263l-.47131-4.7141c0-.94312-.7071-1.17896-1.41419-.70728l-3.77118 2.59301c-.70733.4712-.70733 1.17847 0 1.65015zM25.52761 88.35948c-.71582-.90991-1.36963-1.88257-2.1756-2.7063-1.7265-1.76392-2.97424-3.83789-4.10785-5.9956-.31634-.60254-.72857-1.15918-.91156-1.83057-.7401-2.71314-1.4472-5.4414-1.62341-8.25488-.13843-2.21094-.68683-4.34815-1.01422-6.52198-.31787-2.11304-.70886-4.20898-.84949-6.34863-.10864-1.65552-.08111-3.3003.10108-4.94483.17797-1.604.38946-3.20385.82598-4.7627.79798-2.8474 2.01594-5.52099 3.3465-8.1521 1.32807-2.6267 3.00952-5.00854 4.88751-7.26 1.16718-1.3999 2.41462-2.73193 3.51795-4.18604.3584-.47265.65478-.9746.92956-1.65356-.68054.2107-1.24145.375-1.6825.84204-2.19256 2.32178-4.3421 4.68799-6.61327 6.93017-2.64441 2.61109-4.2801 5.77344-5.43195 9.23707-1.05878 3.18432-1.5213 6.46899-1.5033 9.81298.0155 2.89087.45002 5.75074.81696 8.61182.23901 1.86255.51312 3.72876.67633 5.59107.1762 2.01391.43323 3.99731.86426 5.96509.79266 3.6184 2.0722 7.06323 3.79022 10.33715.72339 1.37867 1.70752 2.58106 2.80084 3.70997.67957.70141 1.42115 1.31005 2.16858 1.9204.2743.22364.61994.3628.9416.52393.13915.06958.30212.06616.4295-.04394.1444-.12427.08612-.28028.02752-.42041-.05829-.13916-.11938-.28345-.21124-.40015zm82.57208-12.20093c.21473-.8999.45691-1.79468.72858-2.6836.07227-.23632.16058-.46679.2378-.7014-.07722.23461-.16553.46508-.2378.7014-.27167.88892-.51386 1.78346-.72858 2.6836zM111.7678 65.88c.09399-.22827.19067-.45557.28308-.68433-.09241.22876-.1891.45606-.28309.68433zM62.61757 7.29943c.10809.02759.22625.02075.3399.01953.667-.00537 1.32703.07666 1.98432.17432 4.19299.62573 8.3291 1.53784 12.42175 2.62304 2.84784.75489 5.34784 2.26026 7.63476 4.094 1.59363 1.27783 2.82685 2.91382 4.18775 4.42163.18121.20068.33514.54419.68078.36597.33387-.17188.23652-.52271.20325-.82154-.01025-.09204-.05505-.18066-.08612-.27075-.73938-2.15015-1.79114-4.06445-3.5835-5.57422-2.00012-1.68555-4.1687-3.0752-6.59405-3.99316-3.87683-1.46729-7.95343-1.93238-12.07031-2.09351-.39948 0-.8017-.03198-1.1974.00562-1.31957.12548-2.66619.05102-3.9442.49755-.12714.04444-.34913.0376-.33637.23365.01148.18286.1897.2749.35944.31787zm46.69128 32.07666c-2.31274-4.21118-5.53455-7.6482-9.305-10.5896-.1372-.10718-.2661-.29834-.57568-.20679.3609.21729.55164.50366.75885.77442 1.82294 2.38476 3.64032 4.77368 5.46924 7.15454 2.10578 2.7412 3.86682 5.66064 4.97064 8.96752.99347 2.9751 1.55188 6.01612 1.72059 9.13794.02874.53052.05175 1.06324.04553 1.59424-.0205 1.71924.10663 3.43824-.22424 5.15283-.2801 1.4502-.57624 2.89527-.86103 4.35401.03449-.04248.08106-.08008.10163-.12866 1.92425-4.56836 2.55902-9.29053 1.84863-14.21582-.6117-4.24146-1.89221-8.24976-3.94916-11.99463z" class="st0"/><path d="M109.12515 63.73082c.95611-3.17187 1.12408-6.43164.90655-9.69848-.21875-3.2815-.88477-6.47559-2.64062-9.35718.74743 3.11768 1.41271 6.24756 1.63946 9.44434.22675 3.19726-.10736 6.4016.0946 9.61132zm-6.89118-17.40673c-.7536-2.33521-1.57538-4.63892-2.70044-6.81788-1.96509-3.80566-4.68555-7.0559-7.71216-10.04101-2.20831-2.17847-4.62744-4.11719-7.3219-5.69263-2.107-1.23144-4.3559-2.11303-6.63183-2.97851-2.29425-.87256-4.62476-1.61011-6.9643-2.33277-1.43591-.4436-2.90191-.78955-4.38891-.9812-7.16577-.92456-14.00934.20923-20.5321 3.30493l.49664.2273c.12109.22314.38067.52905.23223.71484-.31964.4004.0005.28931.17347.26783.18597-.02295.36541-.09913.54638-.15674 2.22016-.70386 4.4145-1.50928 6.73548-1.83667 1.25927-.17774 2.48596-.55762 3.75897-.63013 1.17438-.06714 2.35577-.02515 3.52795-.11426 3.57044-.27148 7.0423.37744 10.49317 1.13233 1.55285.33935 3.04657.91748 4.53686 1.49975 3.61627 1.41284 7.00427 3.2107 10.12146 5.53052 2.31226 1.7207 4.3822 3.70386 6.41211 5.73633.1687.16919.34119.2793.60523.34887.50885.1333 1.10931.1377 1.48028.60181 1.50824 1.88428 2.5625 4.03076 3.52442 6.22339.8385 1.91113 1.54309 3.87646 2.20611 5.85473 1.45093 4.32886 2.38056 8.75904 2.48468 13.33887.02802 1.23145.00403 2.46387.00403 3.69605l.16766-.00171c.1792-1.61133.41828-3.21875.5174-4.83447.07056-1.15137-.05457-2.31592-.10687-3.47168-.13318-2.93848-.76142-5.78638-1.66602-8.5879zm-1.44812 61.58154c.4524-.61377.87347-1.25781 1.2619-1.9336.00073-.00121.00135-.00268.00208-.0039a.0569.0569 0 0 0-.00208.0039c-.38843.67579-.80945 1.31959-1.2619 1.9336zm-35.73614-1.46777c-.92359-.08545-1.84821-.11157-2.77631-.13257-1.4024-.03198-2.80005-.24634-4.20276-.28491-2.7392-.07544-5.44568-.51099-8.16064-.79444-2.14106-.22314-4.31513-.67773-6.23285-1.8291-.12921-.07763-.27484-.13012-.41754-.18164-.37293-.13427-.58692-.00805-.62922.39453-.05108.48584.02729.95655.25428 1.38208.3219.60205.63073 1.2234 1.03973 1.7649.9386 1.24267 2.12628 2.10766 3.771 2.08252 1.13781-.0171 2.2757-.06543 3.41204-.12696.51032-.02807 1.02192-.07324 1.52155-.21338 1.35486-.3789 2.73895-.61474 4.12836-.82348.25055-.0376.49035-.0005.73614.0271 1.24396.13916 2.48895.27026 3.60724.39038 1.54938-.03858 2.92774-.2317 4.1369-1.06421.15271-.10523.39875-.1919.34845-.40308-.0631-.2627-.3399-.16968-.53637-.18774zm37.92517-20.82666c-1.07526 1.94531-2.04016 3.97436-3.4286 5.71045-2.4331 3.04297-4.5719 6.32324-7.32513 9.1101-1.01672 1.02881-2.09124 1.9773-3.27893 2.80933-.6958.4878-1.3866 1.0022-1.95703 1.64649-.53589.60522-.47381.85498.27808 1.17382.10309.0437.21924.0818.32885.08057 1.0052-.00781 2.00867.05615 3.01508-.09302 1.55487-.23071 3.01636-.75488 4.45227-1.34912 1.21747-.50366 2.30377-1.27759 3.29614-2.11304 1.018-.85693 1.80292-1.95727 2.33606-3.21972.5619-1.33057 1.00269-2.70117 1.4527-4.06885.52216-1.5879.7539-3.24683 1.1018-4.87769.31739-1.48584.55616-2.98364.69984-4.49194.04083-.42847.16296-.95068-.23877-1.38013-.35242.32007-.53162.69947-.73236 1.06275zm-69.2696 12.25415c-1.06-.53467-2.01489-1.19702-2.8651-2.03491-.75294-.74243-1.41694-.53223-1.7854.46997-.21021.57177-.04878 1.12231.0078 1.68554.15741 1.56421 1.02442 2.27564 2.57074 2.01685 1.44171-.24072 2.85889-.61865 4.31665-.77832.19873-.02148.41748-.05371.63874-.25586-.46003-.32397-.90753-.5476-1.42267-.64282-.50385-.09302-.99396-.22486-1.46076-.46045zm78.88642-52.01978c-.00019-.00073-.00025-.00147-.00043-.00195a26.40394 26.40394 0 0 0-.51025-1.6853c-.0003-.00074-.00067-.00172-.00098-.00245.18787.55323.35864 1.11548.51123 1.68775.00018.00073.00024.00122.00043.00195zM80.308 97.04137c-.7979.05005-1.41314.38892-2.03588.67676-3.96771 1.83252-8.15515 2.78028-12.49835 3.02051-3.44483.19043-6.87061-.0586-10.27363-.66382-6.7085-1.19336-12.73712-3.86987-17.97308-8.24414-5.18262-4.32959-8.9939-9.70654-11.79944-15.81372-1.39892-3.04565-2.34106-6.25098-3.20855-9.49976.07055 1.03833-.0766 2.07593-.01954 3.09205.05805 1.04443.44501 2.07006.6853 3.10424.28382 1.22095.73988 2.38135 1.18592 3.5503.97766 2.56298 2.16907 4.98486 3.86005 7.17846 1.47229 1.90967 2.92175 3.82056 4.59344 5.56958 1.96936 2.0603 4.16748 3.83301 6.4837 5.46436.79194.55737 1.46876 1.28052 2.35077 1.69897 1.43671.68091 2.86542 1.39136 4.3462 1.96436 1.83361.70947 3.67883 1.3833 5.61114 1.8357 1.68097.39355 3.38849.64086 5.0617 1.05785.2005.05005.41529.07154.62177.063 1.10602-.0464 2.1991.13134 3.29938.1748 1.58838.0625 3.16602.29882 4.7694-.01368.8788-.17114 1.79914-.2146 2.7157-.20312.88758.01147 1.79218-.05664 2.66267-.22583 3.17425-.6167 6.17535-1.72754 8.9942-3.31885.18744-.10571.3977-.1936.56714-.46802zm-70.187-60.2461c-.61.55909-1.20264 1.14063-1.77973 1.74268-.28265.29492-.54773.5962-.7951.90381-.22272.2771-.42634.56152-.62037.84937.40961-.60767.87836-1.19312 1.41547-1.75318.57709-.60205 1.16974-1.1836 1.77972-1.74267zm14.5551-11.17065c.2751-.30737.56996-.59448.85096-.896-.281.30152-.57587.58863-.85095.896-2.47992 2.77124-5.29553 5.03809-8.55066 6.82154-.7295.3999-1.43646.83007-2.12268 1.28808.68622-.458 1.39319-.88818 2.12268-1.28808 3.25513-1.78345 6.07074-4.0503 8.55066-6.82154zM5.27518 50.44713c.07776.49512.16461.98853.26807 1.4795.11547.54785.24597 1.0935.38916 1.63671.22161.84131.47076 1.67383.73712 2.5005-.26636-.82667-.5155-1.65919-.73712-2.5005-.27143-1.03003-.49274-2.06884-.65723-3.1162zm5.11127 16.92628c.0719.40234.12957.80786.15576 1.22021.01617.25488.02246.5122.0172.77197.01374-.67968-.05657-1.34082-.17296-1.99218zm74.00976 51.1372a34.50835 34.50835 0 0 0 1.75904-.58447c1.15863-.41968 2.2893-.89844 3.39471-1.4314 2.2107-1.06591 4.31989-2.34887 6.34656-3.80981.63067-.4546 1.23333-.93262 1.80688-1.43604-.57355.50342-1.1762.98145-1.80688 1.43604-3.5467 2.55664-7.34595 4.56811-11.5003 5.82568zm13.69837-92.31177c.33807.30347.67364.60938 1.01068.91382-.3371-.30444-.67255-.61035-1.01068-.91382-.42072-.37768-.82184-.77002-1.21369-1.16919.39185.39942.79297.7915 1.21369 1.1692zm-39.72095 87.45362c.50232.21216.98242.47778 1.45404.76416-1.17914-.71558-2.43591-1.24268-3.84699-1.3999.84668.09448 1.63947.31762 2.39295.63574zm47.5202-79.8567c.77704.88135 1.508 1.78931 2.18634 2.72706-.67834-.93775-1.4093-1.8457-2.18634-2.72706-.60156-.68212-1.22076-1.34643-1.85345-1.99706-.94898-.97583-1.93372-1.91504-2.92939-2.8435 1.65937 1.54735 3.27887 3.135 4.78284 4.84056zm-87.59515 63.271c.1231.04883.24304.1045.36853.14893.25097.08838.50488.1709.7547.26123-.3747-.13574-.75385-.26294-1.12323-.41016zm36.53839 15.99463c.15033-.02856.3014-.05444.45782-.06323-.15673.00757-.30713.03638-.45782.06323zm-22.92224.49244c.02655.05493.0531.1101.07947.16528.00598.0127.01171.02515.0177.03784-.00599-.0127-.01166-.02539-.0177-.03784-.02637-.05518-.05329-.1101-.07947-.16528zm2.98114 5.30883c.2027.23365.41205.44873.62799.64576.20343.18554.41382.35205.62878.50585-.44317-.31689-.86316-.69775-1.25677-1.1516zM19.7657 97.64586c.05096.03272.09662.0669.13464.10279-.03808-.03589-.08368-.07007-.13464-.10278zm.2857.32813c.01856.05957.02778.12158.0202.18726.00751-.06568-.00164-.12769-.0202-.18726zm5.43158 13.08545c.25208-.09253.50281-.20215.75098-.32935.4674-.23974.96185-.37329 1.45538-.40942-.49353.03613-.98797.16943-1.45538.40942-.24817.1272-.4989.23682-.75098.32935zM57.9717 4.45421c-.69897.12427-1.39648.2588-2.09112.41236-.00153.00048-.003.00073-.00452.00122.00153-.0005.003-.00074.00452-.00122.69464-.15357 1.39215-.28809 2.09112-.41236zm-19.71692 116.5249zm-.73687-.23095c-.14685-.05664-.29071-.12182-.4333-.19018.14265.06836.28645.13354.4333.19018zm-.70044-.32104c-.15229-.08252-.3003-.17652-.44745-.27295.14715.09643.29516.19043.44745.27295zm4.15191.69091c-.28045.03418-.55523.05323-.8258.06055.27057-.00732.54535-.02637.8258-.06055zM34.006 117.6676c-.24597-.38159-.46612-.77734-.67724-1.17797.21118.40088.43127.79638.67724 1.17797zm5.02942 3.4541c-.16028-.01952-.31945-.04247-.4757-.07324.15625.03077.31543.05372.4757.07325zm-19.43988-10.93261a6.1339 6.1339 0 0 1-.22705-.18066 6.23761 6.23761 0 0 0 .22705.18066zm3.38782 1.24145zm19.20526 9.4485c.13123-.03541.25604-.08839.38532-.12892-.32325.10157-.6543.1814-.99018.24805.20154-.0398.40802-.06616.60486-.11914zm-20.08667-9.56178c-.08447-.01684-.16998-.03027-.25348-.05078.08368.02051.16876.03394.25348.05078zm-1.8031-.66284c-.0747-.042-.14563-.09009-.21857-.135.07306.04491.14374.093.21857.135zm12.8335 5.45117c-.15296-.30395-.30323-.60962-.44812-.91797.1449.30835.29516.61402.44812.91797zm-2.71637-4.90454c-.37818-.31762-.81305-.55566-1.2768-.70556.46375.1499.89868.38794 1.2768.70556zm-6.56208.2185c-.09039.00806-.17993.00806-.26995.01197.09015-.0039.17944-.0039.26995-.01196zm.86988-.13305a6.44987 6.44987 0 0 0 .75921-.22705 6.41957 6.41957 0 0 1-.76312.22754c.00128-.00024.00263-.00024.0039-.00049zm15.15442 9.88867c-.1822-.00122-.36359-.00464-.54108-.01855.17749.01391.35889.01733.54108.01855zm36.85876-1.4707zm-27.25122-2.95679c.2102-.1604.41553-.32739.62402-.48999-.57098.44556-1.15283.87622-1.7401 1.29932.37286-.26856.75054-.53076 1.11608-.80933zm29.40485 2.86646c.41034-.03638.8216-.09863 1.23266-.15576-.96759.13427-1.93335.21997-2.89679.24243.55414-.01294 1.10865-.0376 1.66413-.08667zm24.02801-15.33838c-.0531.11426-.10742.22803-.16247.3418.05505-.11377.10937-.22754.16247-.3418zm-33.38629 14.54419c-.54187-.1311-1.08331-.27124-1.62402-.42798.5407.15674 1.08215.29688 1.62402.42798zm3.82544.69775c-.54541-.06445-1.08984-.14843-1.63397-.24243.54413.094 1.08868.17822 1.63397.24243zm-2.12408-.33374a33.76504 33.76504 0 0 1-1.21467-.25244 33.24226 33.24226 0 0 0 1.21467.25244zm3.78692.47656c-.54468-.03222-1.0888-.07568-1.6322-.13916.54333.06348 1.08759.10694 1.6322.13916zm38.75214-61.36133c-.10272.90161-.25104 1.79004-.44025 2.66773.18921-.87769.33746-1.76612.44025-2.66773zM54.67324 113.0885c-.18664.04248-.36829.10645-.54694.18067a3.4467 3.4467 0 0 1 .54694-.18067zm-1.13751.49512c.18274-.1189.36877-.219.5586-.302-.23981.10254-.47437.2329-.70277.396.04834-.0298.09613-.06275.14417-.094zm50.95434-13.58667a40.05008 40.05008 0 0 1-.12884.4358 41.4659 41.4659 0 0 0 .12884-.4358zm-.40124 1.29565c-.0429.13013-.08435.26075-.12885.39014.0445-.12964.08594-.26.12885-.39014zm.74664-2.55395c-.03326.1289-.0689.25708-.1032.38574.0343-.12866.06988-.25683.1032-.38574zm2.2887-17.11963c.11316-.91968.2497-1.83472.41156-2.74487.16192-.9104.34924-1.81568.56396-2.71558-.57263 2.3999-.9353 4.84058-1.1565 7.30786.0553-.6167.10554-1.23437.18098-1.8474zm-87.2124 16.91504c-.0467.0669-.10346.13599-.17023.20728.1336-.14283.22693-.27613.28021-.40064-.02661.06226-.06323.12671-.10998.19336zm.11468-.61377c-.0188-.04053-.04272-.07959-.07428-.11719.03162.03736.05554.07666.07428.1172zM5.21267 50.0072c-.05176-.36914-.09497-.73975-.13025-1.11157.03528.37182.0785.74243.13025 1.11157zm5.14496 17.19751c-.07349-.38159-.16431-.75952-.26624-1.135.10193.37548.19275.75341.26624 1.135zm8.64697 32.41773c.16907-.22656.3446-.45068.53162-.67114-.18708.22046-.3625.44482-.53162.67114zM9.926 78.578v.003-.003zm4.37615 15.79101c-.58558-.58789-1.1029-1.23071-1.55219-1.92895.44922.69824.96661 1.34106 1.55219 1.92895zm4.63446 15.24c-.06147-.06226-.12543-.12135-.18439-.18629.05908.06494.1228.12403.18439.18628zm-.43024-9.26173zm-6.56397-9.37622c-.17889-.38476-.34637-.7788-.49157-1.19116.1452.41235.31268.8064.49157 1.19116zm.61615 1.15381a12.19577 12.19577 0 0 0 0 0zm4.06324 4.07764c-.37146-.229-.72034-.47583-1.05774-.73218.3374.25635.68622.50317 1.05774.73218zm-1.35022-.96631zm2.11017 7.6167c.0526-.19531.11206-.38867.17883-.5791-.06677.19043-.12628.38379-.17883.5791zM9.25686 63.442c-.83386-2.46899-1.78827-4.89819-2.58734-7.37817.79907 2.47998 1.75348 4.90943 2.58734 7.37818zm7.90985 40.46632c.03516-.27759.08917-.54883.15228-.81665-.0631.26806-.11718.53906-.15228.81665zm.35608 3.49634c.18066.48828.41662.9414.69849 1.354-.35236-.51587-.62208-1.10107-.81269-1.7334.03809.12647.06903.25733.1142.3794zm.11902-5.35987c.09729-.2539.20294-.50512.3241-.75097-.12116.24585-.22675.49707-.3241.75097zM10.03274 65.8568c-.1051-.37109-.2182-.74072-.33838-1.10888.12012.36816.23327.73779.33838 1.10888zm7.93512 35.4331c.1217-.24657.25854-.48778.40259-.7268-.14405.23902-.28089.48023-.4026.7268zM9.61465 64.50696c-.11786-.35522-.23792-.70996-.3578-1.06494.11988.35498.23994.70972.3578 1.06494z" class="st0"/><path fill="#5a9ecc" d="M113.9548 54.80626c-.01032-.677-.05286-1.35083-.1089-2.02295a31.89078 31.89078 0 0 0-.04565-.5022c-.1328-1.33618-.34692-2.66332-.62597-3.9829a45.37045 45.37045 0 0 0-.10791-.49707c-.14606-.65332-.3014-1.30567-.47467-1.95557-.00019-.00073-.00025-.00122-.00043-.00195-.15259-.57227-.32336-1.13452-.51123-1.68775-.21436-.6311-.45703-1.24682-.71503-1.85425-.0816-.19213-.17132-.37963-.25708-.56958-.18945-.41894-.38672-.83374-.59607-1.24194-.1051-.20459-.2124-.40845-.32238-.6106-.21949-.40356-.44996-.80126-.68824-1.19457-.10632-.1753-.20886-.35303-.31878-.52637-.35126-.5542-.71564-1.10132-1.1023-1.63574-.67834-.93775-1.4093-1.8457-2.18634-2.72706-1.50397-1.70556-3.12347-3.2932-4.78284-4.84057-.66375-.6189-1.3316-1.23389-2.00573-1.84253-.33704-.30444-.67261-.61035-1.01068-.91382-.42072-.37768-.82184-.76977-1.21369-1.16919a26.7247 26.7247 0 0 1-.29211-.30298c-.38568-.40649-.76172-.8203-1.11579-1.25048-.4121-.50074-.7948-1.0232-1.16107-1.55786-.8133-1.188-1.51684-2.45704-2.07824-3.83057-.67505-1.65186-1.48127-3.2478-2.52149-4.71558-.51196-.72192-1.07416-1.37866-1.67853-1.97998-.30218-.30078-.61493-.58765-.9372-.86206-.64446-.54907-1.3272-1.04834-2.03997-1.50806-.71283-.45971-1.45575-.87988-2.22076-1.271-.38251-.19555-.77051-.38403-1.16309-.56615-.32391-.1504-.65277-.2771-.97919-.41553-.94305-.3999-1.89337-.7649-2.85595-1.07129-.2046-.06494-.41138-.12012-.61683-.18115-.42681-.12696-.85424-.25147-1.28448-.36182-.24573-.06323-.49298-.11914-.7398-.177-.39588-.09302-.79255-.18286-1.19105-.26294-.2583-.05225-.5174-.1001-.77673-.14697a42.03573 42.03573 0 0 0-1.18524-.19727c-.25965-.03906-.51941-.07788-.77997-.1123-.40747-.0542-.8164-.10108-1.22607-.1443-.24732-.02611-.49415-.05443-.7422-.0769-.45104-.04052-.90398-.07226-1.35735-.10131-.20746-.01319-.41413-.03077-.62207-.04175-.66077-.03467-1.32337-.0603-1.9884-.07349-.79877-.01391-1.59455.00147-2.3874.04322-.71606.0376-1.42895.10351-2.14032.18164-.21368.02368-.42663.052-.63989.0791-.52277.06592-1.04443.14111-1.56476.22632-.20782.03393-.41583.06616-.62323.10302-.69897.12427-1.39648.2588-2.09112.41236-.00153.00048-.003.00073-.00452.00122-.76398.16894-1.51404.37329-2.25824.59228-.18597.05493-.37152.11084-.55633.16846-1.36744.42676-2.706.92627-4.01917 1.48926-.19476.0835-.3877.17163-.58142.25757-.41956.18603-.83746.37646-1.25262.57324-.21192.10058-.42347.20215-.63434.30517-.41645.20362-.83075.41211-1.24353.62452-.1814.09326-.36353.18505-.54432.27978-.58245.3059-1.16271.61743-1.7395.93677-1.36395.75513-2.64215 1.6272-3.87848 2.55688-.92724.69727-1.82928 1.4292-2.72808 2.16602-.29963.2456-.60035.48974-.89954.73608-.00488.0039-.00958.00806-.01447.01197-.83764.68945-1.66919 1.38623-2.49554 2.08862-.24982.21216-.49683.42749-.74512.64136-.62494.53857-1.24316 1.08398-1.85632 1.63476-.2539.22827-.50848.45557-.75995.68653-.82318.75512-1.63678 1.5205-2.42834 2.30859-.5871.58472-1.14801 1.19629-1.71369 1.80298-.281.30151-.57586.58862-.85095.896-2.47992 2.77123-5.29553 5.03808-8.55066 6.82153-.7295.3999-1.43646.83007-2.12268 1.28808-1.37244.91602-2.66174 1.94312-3.88178 3.06104-.60998.55908-1.20263 1.14062-1.77972 1.74267-.5371.56006-1.00586 1.14551-1.41547 1.75318-.05719.08471-.11065.17114-.1654.25708a11.61557 11.61557 0 0 0-.38886.6565c-.04864.08861-.09869.17675-.14483.2666-.15564.30248-.3017.60863-.4284.9226-.42243 1.0459-.6839 2.15503-.78266 3.33154-.0329.3921-.04773.79175-.04437 1.19898.00415.50976.03161 1.01611.06994 1.52124.01142.15014.02692.2998.0412.44995.03528.37182.0785.74243.13025 1.11157.0205.14673.03949.2937.0625.43994.16449 1.04737.3858 2.08618.65723 3.11621.22161.84131.47076 1.67383.73712 2.5005C7.46859 58.5438 8.423 60.973 9.25686 63.442c.11987.35498.23993.70972.35779 1.06494.0266.08032.05346.16064.0797.24097.12019.36816.23328.73779.33839 1.10888.02002.0708.03943.14185.05865.2129.10193.37548.19275.75341.26624 1.135.0108.05591.0188.11255.0288.1687.1164.65137.18671 1.3125.17298 1.9922-.0401 1.97729-.16473 3.95214-.39899 5.91503-.13177 1.10327-.20886 2.2024-.23407 3.29785 0 .00074.00006.00147 0 .00245-.06268 2.73754.1988 5.45166.74176 8.14965.10865.5398.22852 1.07886.35932 1.61743.12011.49439.26135.97168.4234 1.43189.1452.41235.31268.8064.49158 1.19116.05297.11402.11053.22412.16644.3357.14056.28051.29046.55297.4497.81811.06336.10547.12513.21216.19141.31519.44928.69824.96662 1.34106 1.55219 1.92895.08667.08692.17791.17017.26757.25488.22455.21167.4585.41578.70185.6123.09704.07862.19244.15821.29248.23414.3374.25635.68628.50317 1.05774.73218.41492.25537.85089.4939 1.30835.71508.11902.05738.24536.09986.36853.14917.36938.14722.74853.27442 1.12323.41016a1.86308 1.86308 0 0 1 .2771.12573c.02472.01392.0445.02881.0667.04322.05097.03271.09657.0669.13465.10278a.67193.67193 0 0 1 .05182.05444c.03156.0376.05548.07666.07428.1172.0083.01806.01917.03515.02496.0537.01856.05957.02771.12158.0202.18726-.00658.05737-.02325.11743-.04986.17944-.05328.12451-.1466.25781-.28021.40064-.06488.06909-.13892.1311-.20001.20336-.0019.00196-.00342.0044-.00531.0066-.18701.22046-.36255.44458-.53162.67114-.0514.06885-.10004.13867-.14972.20825a11.46517 11.46517 0 0 0-.3485.5166c-.04566.07178-.09223.14331-.13593.21582-.14405.23902-.28089.48023-.4026.7268a.05818.05818 0 0 1-.00195.00392c-.12115.24585-.2268.49707-.3241.75097-.02898.07569-.0545.15259-.08123.229-.06677.19044-.12622.3838-.17883.5791-.0213.0796-.04383.1587-.06275.23878-.0631.26782-.11712.53906-.15228.81665-.03894.3086-.06018.62353-.06238.94531-.0022.32153.01453.64966.0514.9851.04565.41553.13848.80738.25286 1.18653.19062.63233.46033 1.21753.81269 1.7334.16131.23633.3413.45508.53094.66406.05896.06494.12293.12403.18439.18628.13855.14014.28143.27393.43188.39942a6.134 6.134 0 0 0 .22705.18066c.15631.1184.31824.2273.48474.33032.07294.04492.14386.09302.21857.13501a6.16087 6.16087 0 0 0 1.54962.61206c.0835.02051.16901.03394.25348.05078.19373.03907.38874.07032.58692.09058a5.89485 5.89485 0 0 0 .2945.0227c.19897.01075.39904.00977.60058.00098.09002-.0039.17956-.0039.26996-.01196.2879-.0254.57678-.06543.86596-.13257a6.41956 6.41956 0 0 0 .76312-.22754c.25208-.09253.50281-.20215.75098-.32934.4674-.24.96185-.3733 1.45538-.40943s.98609.02515 1.44983.1748c.46375.1499.89862.38795 1.2768.70557.18909.1587.36395.3374.52118.53491s.29675.41382.4151.64747c.19543.38598.37707.7793.56256 1.1704.02618.05518.0531.11011.07947.16529.00604.01245.01172.02515.0177.03784.2271.47534.44818.95386.67224 1.43066.1449.30835.29516.61402.44812.91797.06463.12842.1294.25684.1964.38404.21113.40063.43128.79638.67725 1.17798.26728.41455.56025.81494.88996 1.19506.39361.45386.8136.83472 1.25677 1.15161.07099.05054.14508.09253.21729.1399.14715.09643.29516.19043.44745.27295.0877.04736.1778.08789.26715.13086.14258.06836.28644.13354.43329.19018.09625.03711.1939.07056.29193.10278a6.26924 6.26924 0 0 0 .44494.12818c.10096.02515.20221.04907.30494.06933.15625.03077.31543.05372.4757.07325.10035.01245.19983.02685.3017.0349.1775.01392.35889.01734.54108.01856.08868.0005.1756.00586.26538.00342.27057-.00732.54535-.02637.8258-.06055.00324-.00048.0063-.00024.00953-.00073.20672-.02539.40332-.0791.60485-.11914.33588-.06665.66694-.14648.99018-.24805 1.03436-.3252 2.01501-.7981 2.96661-1.33935.98493-.56006 1.9154-1.19531 2.8291-1.85376.58728-.4231 1.16913-.85376 1.74011-1.29932 1.04249-.81323 2.07032-1.64648 3.10718-2.46655.057-.04517.117-.07251.17462-.11353.2284-.16308.46296-.29345.70276-.396.01056-.00439.02137-.00805.03199-.01244.17865-.07422.36029-.13819.54693-.18067.05365-.0122.10938-.01757.16382-.0271.1507-.02685.30109-.05566.45782-.06323.22254-.01074.44953-.00781.6858.01856 1.41107.15722 2.66784.68432 3.84698 1.3999.23584.14306.47314.28247.70294.44018 1.13684.78077 2.31592 1.47168 3.54242 2.06348.61322.29614 1.23828.56738 1.8758.8125s1.28747.4646 1.9505.65674c.00299.00098.00598.00146.00897.00244.5407.15674 1.08215.29688 1.62402.42798.16217.0393.32446.0747.4867.11157.40454.0918.80944.17603 1.21466.25244.16333.031.32666.063.4901.09131.54414.094 1.08857.17798 1.63398.24243l.03064.00366c.5434.06348 1.08752.10694 1.6322.13916.16284.00953.326.01465.48902.02149a27.0599 27.0599 0 0 0 1.22735.02246c.16315-.00073.32624 0 .4895-.00366.96344-.02246 1.9292-.10816 2.8968-.24243.82214-.11377 1.64526-.2544 2.47045-.45557a33.96162 33.96162 0 0 0 1.8025-.49219c4.15435-1.25757 7.9536-3.26904 11.5003-5.82568.63067-.4546 1.23334-.93262 1.80688-1.43604s1.11798-1.03222 1.63208-1.58862c.51416-.5564.99793-1.14062 1.45038-1.75464s.87348-1.25781 1.2619-1.9336a.0569.0569 0 0 1 .00208-.0039c.25476-.44336.48553-.89526.7063-1.35058.05505-.11377.10937-.22754.16247-.3418.39405-.8479.7389-1.7129 1.04138-2.59302.0445-.1294.08594-.26.12885-.39014.09406-.2854.18555-.57202.2724-.85986.0437-.14502.0868-.29028.12885-.43579a43.8508 43.8508 0 0 0 .24218-.87256c.0343-.12866.06995-.25683.10321-.38574.10694-.41406.2102-.82935.30847-1.24634 1.01471-4.30762 1.38385-8.70483 1.70874-13.10205.02283-.30933.06287-.61548.09052-.92383.2212-2.46728.58386-4.90796 1.1565-7.30786.21472-.90014.4569-1.79468.72857-2.6836.07227-.23632.16058-.46679.2378-.7014.7724-2.34498 1.76171-4.6106 2.70171-6.89356.094-.22827.19068-.45557.28309-.68433a25.69498 25.69498 0 0 0 .64538-1.78614c.25714-.8037.45886-1.62011.63623-2.44262.18921-.87769.33753-1.76612.44025-2.66773.01684-.14746.04364-.29199.05823-.44043.10077-1.02392.13922-2.04101.12384-3.05224v-.00025zM62.5945 6.74791c1.27802-.44653 2.62464-.37207 3.94422-.49755.39569-.0376.79791-.00562 1.19739-.00562 4.11688.16113 8.19348.62622 12.0703 2.0935 2.42536.91798 4.59394 2.30762 6.59406 3.99317 1.79236 1.50977 2.84412 3.42407 3.5835 5.57422.03107.09009.07587.17871.08612.27075.03327.29883.13062.64966-.20325.82154-.34564.17822-.49957-.16529-.68078-.36597-1.3609-1.50781-2.59412-3.1438-4.18775-4.42163-2.28692-1.83374-4.78692-3.33911-7.63476-4.094-4.09265-1.0852-8.22876-1.99731-12.42175-2.62304-.6573-.09766-1.31733-.1797-1.98432-.17432-.11365.00122-.23181.00806-.3399-.01953-.16974-.04297-.34796-.13501-.35944-.31787-.01276-.19605.20923-.18921.33637-.23365zm-24.85894 62.3313c.47156-1.17846 1.88574-1.88525 3.29992-1.4143 2.12153.70752 4.00702 1.17895 5.4212.94287 1.64991-.23535 3.06434-.70703 4.71406-1.17847 4.47857-1.17846 9.42816-2.82837 16.02777.70728 1.17865.4712 1.6499 2.1211 1.17865 3.2998-.7071 1.41431-2.35706 1.88575-3.53546 1.17847-4.9499-2.59253-8.24976-1.41406-12.25653-.23584-1.88575.70728-3.5357 1.17847-5.65723 1.4143h-1.41412c-1.8855 0-4.00678-.47118-6.36408-1.4143-1.1784-.47143-1.8855-1.885-1.41418-3.2998zm37.47693-6.8352l-1.41419.94262c-.94287.70728-2.35705.4712-3.06415-.47143L57.0635 43.85924c-.70734-.94311-.47156-2.35718.47131-3.06445l1.41413-.94287c.94287-.70728 2.35705-.47095 3.06414.47168l13.67096 18.85644c.70685.94263.47132 2.3567-.47155 3.06397zm4.24273 4.00684c.7071-.47168 1.41419-.23584 1.41419.70727l.47131 4.71411c0 .94263-.7071 1.41407-1.41418.94263l-4.2425-2.12085c-.70733-.47168-.70733-1.17895 0-1.65015l3.77118-2.59301zm-53.7439 22.9292c-.12737.1101-.29034.11352-.4295.04394-.32165-.16113-.6673-.3003-.94159-.52392-.74743-.61036-1.48901-1.219-2.16858-1.92041-1.09332-1.12891-2.07745-2.3313-2.80084-3.70997-1.71802-3.27392-2.99756-6.71875-3.79022-10.33715-.43103-1.96778-.68805-3.95118-.86426-5.9651-.1632-1.8623-.43732-3.72851-.67633-5.59106-.36694-2.86108-.80145-5.72095-.81696-8.61182-.018-3.34399.44452-6.62866 1.5033-9.81298 1.15186-3.46363 2.78754-6.62598 5.43195-9.23707 2.27118-2.24218 4.42071-4.6084 6.61328-6.93017.44104-.46704 1.00195-.63135 1.6825-.84204-.27479.67896-.57117 1.1809-.92957 1.65356-1.10333 1.4541-2.35077 2.78614-3.51795 4.18604-1.87799 2.25146-3.55944 4.6333-4.8875 7.26-1.33058 2.63111-2.54853 5.3047-3.3465 8.1521-.43653 1.55885-.64802 3.1587-.826 4.7627-.18218 1.64453-.20971 3.2893-.10107 4.94483.14063 2.13965.53162 4.2356.84949 6.34863.3274 2.17383.8758 4.31104 1.01422 6.52198.1762 2.81347.8833 5.54174 1.62341 8.25488.18299.67139.59522 1.22803.91156 1.83057 1.13361 2.15771 2.38135 4.23168 4.10785 5.9956.80597.82373 1.45978 1.79639 2.1756 2.7063.09186.1167.15295.26099.21124.40015.0586.14013.11689.29614-.02752.4204zm10.23865 10.04443c-1.45776.15967-2.87493.5376-4.31665.77832-1.54632.25879-2.41333-.45264-2.57074-2.01685-.05658-.56323-.21801-1.11377-.0078-1.68554.36846-1.0022 1.03246-1.2124 1.7854-.46997.85021.83789 1.8051 1.50024 2.8651 2.0349.4668.2356.95691.36744 1.46076.46046.51514.09521.96265.31885 1.42267.64282-.22126.20215-.44.23438-.63874.25586zm29.28766 7.8042c-1.20916.83252-2.58752 1.02563-4.1369 1.0642-1.11829-.1201-2.36328-.25121-3.60724-.39037-.24579-.0276-.4856-.0647-.73614-.0271-1.3894.20874-2.7735.44458-4.12836.82348-.49963.14014-1.01123.1853-1.52155.21338-1.13635.06153-2.27423.10987-3.41204.12696-1.64472.02514-2.8324-.83985-3.771-2.08252-.409-.5415-.71783-1.16285-1.03973-1.7649-.227-.42553-.30536-.89624-.25428-1.38208.0423-.40258.2563-.5288.62922-.39453.1427.05152.28833.104.41754.18164 1.91772 1.15137 4.0918 1.60596 6.23285 1.8291 2.71496.28345 5.42144.719 8.16064.79444 1.40271.03857 2.80035.25293 4.20276.28491.9281.021 1.85272.04712 2.7763.13257.19648.01806.47327-.07495.53638.18774.0503.21118-.19574.29785-.34845.40308zm5.50904-6.20044c-.87049.16919-1.77509.2373-2.66266.22583-.91657-.01148-1.83692.03198-2.7157.20312-1.6034.3125-3.18103.07618-4.76941.01368-1.10028-.04346-2.19336-.2212-3.29938-.1748-.20648.00854-.42126-.01295-.62176-.063-1.67322-.41699-3.38074-.6643-5.0617-1.05786-1.93232-.45239-3.77754-1.12622-5.61115-1.8357-1.48078-.57299-2.90949-1.28344-4.3462-1.96435-.88201-.41845-1.55883-1.1416-2.35076-1.69897-2.31623-1.63135-4.51435-3.40405-6.4837-5.46436-1.6717-1.74902-3.12116-3.6599-4.59345-5.56958-1.69098-2.1936-2.88239-4.61548-3.86005-7.17846-.44604-1.16895-.9021-2.32935-1.18591-3.5503-.2403-1.03418-.62726-2.05981-.6853-3.10424-.05707-1.01612.09008-2.05372.01953-3.09205.86749 3.24878 1.80963 6.4541 3.20855 9.49976 2.80555 6.10718 6.61682 11.48413 11.79944 15.81372 5.23596 4.37427 11.26459 7.05078 17.97309 8.24414 3.40301.60523 6.8288.85425 10.27362.66382 4.3432-.24023 8.53064-1.18799 12.49835-3.0205.62274-.28785 1.23797-.62672 2.03589-.67677-.16944.27442-.3797.3623-.56714.46802-2.81885 1.59131-5.81995 2.70215-8.9942 3.31885zM103.946 85.92858c-.14368 1.5083-.38245 3.0061-.69983 4.49194-.3479 1.63086-.57965 3.2898-1.1018 4.87769-.45002 1.36768-.89082 2.73828-1.4527 4.06885-.53315 1.26245-1.31806 2.3628-2.33607 3.21972-.99237.83545-2.07867 1.60938-3.29614 2.11304-1.43591.59424-2.8974 1.11841-4.45227 1.34912-1.0064.14917-2.00989.0852-3.01508.09302-.10961.00122-.22576-.03686-.32885-.08057-.7519-.31884-.81397-.5686-.27808-1.17382.57044-.6443 1.26123-1.1587 1.95703-1.64649 1.18769-.83203 2.26221-1.78052 3.27893-2.80932 2.75324-2.78687 4.89203-6.06714 7.32514-9.11011 1.38843-1.73609 2.35333-3.76514 3.42859-5.71045.20074-.36328.37994-.74268.73236-1.06275.40173.42945.2796.95166.23877 1.38013zm.06085-27.54492c-.09912 1.61572-.3382 3.22314-.5174 4.83447l-.16766.0017c0-1.23217.02399-2.4646-.00403-3.69604-.10412-4.57983-1.03375-9.01-2.48468-13.33886-.66302-1.97828-1.36761-3.9436-2.20611-5.85474-.96192-2.19263-2.01618-4.33911-3.52442-6.22339-.37097-.46411-.97143-.4685-1.48028-.6018-.26404-.06959-.43653-.1797-.60523-.34888-2.0299-2.03247-4.09985-4.01563-6.4121-5.73633-3.1172-2.31982-6.5052-4.11768-10.12147-5.53052-1.4903-.58227-2.984-1.1604-4.53686-1.49975-3.45087-.75489-6.92273-1.40381-10.49317-1.13233-1.17218.08911-2.35357.04712-3.52795.11426-1.27301.07251-2.4997.4524-3.75897.63013-2.32099.32739-4.51532 1.13281-6.73548 1.83667-.18097.05761-.3604.13379-.54638.15674-.17298.02148-.4931.13256-.17347-.26783.14844-.18579-.11114-.4917-.23223-.71484l-.49665-.2273c6.52277-3.0957 13.36634-4.22949 20.5321-3.30493 1.487.19165 2.95301.5376 4.38892.9812 2.33954.72266 4.67005 1.4602 6.9643 2.33277 2.27594.86548 4.52484 1.74707 6.63183 2.97851 2.69446 1.57544 5.11359 3.51416 7.3219 5.69263 3.02661 2.9851 5.74707 6.23535 7.71216 10.04101 1.12506 2.17896 1.94684 4.48267 2.70044 6.81788.9046 2.8015 1.53284 5.6494 1.66602 8.58789.0523 1.15576.17743 2.3203.10687 3.47168zm5.02368-4.26416c-.22675-3.19678-.89203-6.32666-1.63946-9.44434 1.75585 2.8816 2.42187 6.07568 2.64062 9.35718.21753 3.26684.04956 6.5266-.90655 9.69848-.20197-3.20971.13214-6.41406-.09461-9.61132zm2.37885 11.46704c-.02057.04858-.06714.08618-.10163.12866.2848-1.45874.58093-2.90381.86103-4.354.33087-1.7146.20373-3.4336.22424-5.15284.00622-.531-.01679-1.06372-.04553-1.59424-.1687-3.12182-.72712-6.16284-1.72058-9.13794-1.10383-3.30688-2.86487-6.22631-4.97065-8.96752-1.82892-2.38086-3.6463-4.76978-5.46924-7.15454-.20721-.27076-.39794-.55713-.75885-.77442.30957-.09155.43848.09961.57569.20679 3.77044 2.9414 6.99225 6.37842 9.305 10.5896 2.05694 3.74487 3.33745 7.75317 3.94915 11.99463.71039 4.92529.07562 9.64746-1.84863 14.21582z"/><g><path d="M168.60283 15.724c-2.85864 1.11032-3.80527 4.6475-1.83943 6.95424.28132.3304.32713.53864-.06258.81196-1.3456.94462-1.3576 2.948-.38745 4.0588.2608.29886.3001.40048-.07234.6638-2.09523 1.48125-1.79187 4.15091.56392 5.21918 1.96658.89206 4.0583.90807 6.14828.84 1.8437-.06008 3.65984-.31839 5.22444-1.4247 1.24147-.87804 1.75983-2.09548 1.58562-3.60126-.1697-1.46974-1.04423-2.3613-2.39433-2.83186-1.43344-.49909-2.92746-.32588-4.19647-.36493h-2.959c-.37946-.0005-.7529-.04255-1.08403-.24228-.43203-.25981-.4886-.66179-.34818-1.0993.15569-.48558.50261-.40549.90132-.31238 1.94055.45004 3.87334.42951 5.76659-.23628 2.22714-.78343 3.64757-2.85588 3.09466-4.95637-.32338-1.22795-.17346-1.96082.79595-2.73924.72485-.5817.71234-1.37864.22175-1.92228-.46003-.5091-1.30754-.55165-1.99986-.06358-.4588.32389-.89856.6788-1.31956 1.05075-.22477.19823-.39296.21125-.6813.11013-2.32526-.81597-4.6465-.81246-6.958.0856zm.8047 13.02493c.86702.03254 1.73555.00851 2.60358.00851v.02203c.86754 0 1.7353-.001 2.60309.0005.38044.0005.74588.0826 1.07977.2623.7509.40399.84451 1.4332.1622 1.9303-.2588.18822-.53563.36142-.86478.44502-1.75808.44803-3.53119.45604-5.29377.10262-1.25048-.2503-1.76659-1.0978-1.3546-2.03991.19998-.45755.49884-.7529 1.06451-.73137zm4.5559-10.94597c.88755.35693 1.38613 1.30855 1.29454 2.29422-.09162.98717-.83526 1.75458-1.97484 2.00538-.31864.07008-.65078.07809-1.02222.11914-.9336-.03504-1.89224-.1632-2.59708-.9286-.98466-1.06877-.56967-2.83786.81197-3.4666 1.14885-.52263 2.33476-.48709 3.48762-.02354zm74.14408 7.19352c.3384 1.71103 1.07703 3.21632 2.4957 4.26856 2.93098 2.17458 6.11224 2.29622 9.38263.90007 1.14185-.48758 2.04767-1.33258 2.46991-2.56104.20425-.5932.12567-1.17339-.38495-1.6029-.49359-.41549-1.05374-.32738-1.57938-.07709-.31237.14918-.63049.34641-.86102.59921-1.1621 1.27652-2.64563 1.52931-4.25003 1.3551-2.116-.23076-3.70187-1.57986-3.9792-3.2989-.05933-.36844-.03305-.52312.41048-.5151 1.55233.02852 3.10517.011 4.65777.011 1.55258 0 3.10517.01102 4.65778-.0035 1.14984-.01151 1.67547-.48307 1.7951-1.62342.09412-.89707-.03479-1.78862-.32037-2.63463-.93387-2.76427-2.90845-4.3061-5.77258-4.66852-3.05988-.38746-5.71828.41348-7.5377 3.0431-1.42117 2.05443-1.66296 4.3867-1.18414 6.80806zm3.374-4.4823c.59295-1.8482 2.25192-2.8609 4.40597-2.6907 1.8682.14818 3.16776 1.19392 3.581 2.84087.12338.49259.08435.70934-.51664.68431-1.1496-.04705-2.30246-.01351-3.45407-.01351-1.15162 0-2.30298.0025-3.4546-.001-.74514-.0025-.79795-.0836-.56166-.81997zm-29.38958-5.45547c-4.61145.02153-7.89834 3.38651-7.85455 8.04003.04431 4.70207 3.3377 7.95943 8.02727 7.9399 4.91682-.02052 8.14213-3.24534 8.12286-8.12112-.01877-4.7316-3.3442-7.88234-8.29558-7.8588zm.13767 12.84972c-2.67342-.02603-4.59995-2.12251-4.54663-4.94786.0528-2.7963 2.02365-4.82872 4.64625-4.79167 2.75277.03854 4.68555 2.1165 4.61246 4.95787-.07408 2.88141-1.97233 4.8077-4.71208 4.78166zm-37.67012 1.0858c1.5551 1.58587 3.5432 2.00537 5.07876 2.0379 1.81641-.001 3.01433-.1772 4.14242-.70733 2.84712-1.33809 3.55845-5.22169 1.32731-7.30115-.61122-.56918-1.3621-.89106-2.15906-1.12684-1.37613-.40798-2.82684-.48807-4.1852-.96564-.79494-.27933-1.21218-.82999-1.19567-1.54283.01552-.66579.45004-1.22695 1.2625-1.40917 1.38238-.30987 2.6937-.14917 3.85206.77542.49259.39347.91234.88755 1.5153 1.13735.53213.21976 1.03873.24279 1.50928-.15168.47307-.39697.55591-.91258.412-1.46924-.13041-.5046-.37896-.95563-.74363-1.3401-1.00395-1.05774-2.29247-1.5288-3.68663-1.73354-2.03941-.29936-4.04279-.23929-5.8229.97916-2.26243 1.54883-2.4146 4.87177-.31036 6.61233.92936.76841 2.06545 1.06726 3.21932 1.32106 1.00519.22127 2.04918.29585 3.00355.71735.82297.36344 1.2232 1.0137 1.1291 1.75759-.09737.77041-.60148 1.29803-1.49828 1.46173-1.74433.31837-3.31067-.04255-4.5997-1.32507-.35092-.34942-.70385-.69583-1.14586-.9266-.49158-.2573-1.01094-.2603-1.47725.02002-.48808.29285-.65152.78844-.5902 1.3436.0816.73336.4653 1.32757.96314 1.83567zm-37.27165-.97967c-1.5874.3369-3.0779.13516-4.35817-.96114-.40998-.35141-.80596-.71985-1.21994-1.06626-.52062-.43552-1.31781-.5086-1.83918-.14918-.5842.40148-.65779.99068-.49409 1.62342.13716.52963.41199.98768.78444 1.39566 1.58963 1.74156 3.67985 2.12001 5.88872 2.13703.30536 0 .61398.03004.91534-.0045 1.99486-.22978 3.75343-.86403 4.72008-2.81985.95614-1.93429.43753-4.25704-1.2705-5.48149-.93485-.6708-2.05093-.89656-3.155-1.13234-1.00593-.21526-2.04665-.27933-3.0028-.71385-.64977-.29535-.99017-.78192-.95512-1.49277.03654-.73286.49157-1.15486 1.15762-1.33658 1.17413-.32088 2.30498-.22276 3.391.38195.64702.35993 1.1181.9306 1.7263 1.32958.57418.37645 1.18691.47706 1.77761.07409.5882-.40098.6345-1.0157.45604-1.63544-.25905-.90157-.86577-1.54383-1.66647-2.00037-2.20562-1.25749-4.55915-1.40667-6.95124-.7549-2.6176.71385-3.99021 3.1963-3.16825 5.60865.56567 1.66097 1.92428 2.42087 3.5019 2.84287 1.29228.3454 2.61685.57017 3.90538.9271.81096.22476 1.22545.91959 1.1889 1.71252-.03454.74238-.5136 1.3416-1.33257 1.5158zm52.7665-9.55632c.60447.06858 1.2197.07509 1.82893.06007.39596-.00951.52836.10963.52085.51561-.02353 1.2695-.0085 2.5395-.0085 3.80951.00025 1.22295-.02003 2.4464.00576 3.66835.02827 1.3436.46129 2.54702 1.5203 3.41805 1.66172 1.36662 3.52042 1.3511 5.43969.63325.97516-.36493 1.78111-.94562 2.22014-1.92478.28433-.63475.23777-1.272-.29386-1.74657-.53413-.47706-1.15637-.43101-1.75308-.05707-.35591.22327-.6928.48157-1.06425.6733-1.46325.7559-2.68468.04906-2.69945-1.57837-.02052-2.2812.00976-4.5629-.01727-6.8436-.00602-.5026.19673-.57569.62048-.56568 1.01096.02203 2.0229.00801 3.03435.00651.45204-.0005.90957-.03804 1.27426-.32488.49658-.39047.7206-.91158.58143-1.55535-.14067-.65127-.55715-1.05625-1.19741-1.12133-.74588-.07659-1.50228-.04154-2.25393-.06908-.65327-.02352-1.49327.27183-1.90951-.11413-.4245-.39447-.0886-1.24498-.13666-1.89324-.02077-.28084-.00775-.56567-.0468-.8435-.13241-.94262-.84076-1.54684-1.72555-1.49177-.94712.05957-1.58237.73337-1.59664 1.71153-.01.70533-.02153 1.41217.00551 2.1165.01526.39147-.09462.54114-.5086.52613-.60923-.02103-1.22446-.01402-1.83017.04906-.77016.08009-1.34034.73787-1.33509 1.45272.00602.77291.52838 1.39765 1.32508 1.48876zm35.31835 12.19645c.55815.37244 1.14961.37694 1.73755.0891.64427-.31537.87804-.88504.87955-1.56485.0045-2.14054.0015-4.28157.00175-6.4221 0-.80396.08534-1.5954.36217-2.3558.27934-.7679.69482-1.44821 1.4437-1.83467 1.05126-.54264 1.88926-.32639 2.96153.69883.52511.50209 1.1053.73387 1.85469.49558.65928-.21075.93211-.6823 1.03824-1.29003.1364-.77992-.06208-1.48576-.56217-2.106-.69809-.86602-1.64395-1.20742-2.71323-1.29402-1.73954-.14067-3.16624.46905-4.29759 1.87171-.04704-.12915-.07509-.18271-.0866-.23978-.23276-1.14235-.83999-1.63394-1.88723-1.5268-.90282.0926-1.47825.78092-1.48 1.82666-.00726 4.02276-.00475 8.04553-.00126 12.0683.0005.64025.18573 1.20792.7489 1.58387zm-76.87933-15.49085c-.94112-.00851-1.68074.63925-1.68575 1.6079-.02252 4.16343-.01877 8.32687-.00125 12.4903.00375.8475.56342 1.49477 1.28478 1.62993 1.15687.21726 2.04992-.48157 2.06544-1.683.02603-2.04642.007-4.09284.007-6.13927-.00048-2.06995.02053-4.1404-.009-6.20985-.01501-1.06176-.6718-1.687-1.66122-1.69601zm.02028-6.01163c-1.1844-.011-2.13002.91459-2.12201 2.07747.008 1.1794.91133 2.06344 2.118 2.07245 1.15162.00901 2.07095-.88705 2.07797-2.0244.0075-1.1874-.89707-2.1145-2.07396-2.12552z" class="st1"/></g><g><path d="M135.99306 79.27526c0-12.1455 8.6704-20.78028 20.458-20.78028 6.4131 0 11.3213 1.9707 14.25928 5.05176 2.042 2.11426 3.36768 4.80079 3.36768 6.80762 0 2.18555-1.54053 3.79785-3.69043 3.79785-1.89844 0-3.08106-.78906-4.3706-2.47265-1.86329-3.04492-5.12354-5.0879-9.2793-5.0879-6.80762 0-11.75147 5.16016-11.75147 12.6836 0 7.48828 4.94385 12.68262 11.75147 12.68262 4.58593 0 7.70263-2.43653 9.52978-5.55274 1.18262-1.68457 2.22168-2.43652 4.08447-2.43652 2.11377 0 3.86963 1.6123 3.86963 3.86914 0 1.93457-1.36181 4.6582-3.29638 6.7002-3.08106 3.2246-8.24024 5.51757-14.47412 5.51757-11.7876 0-20.45801-8.63476-20.45801-20.78027zm46.7207 0c0-12.5039 8.77783-20.78028 20.99512-20.78028 12.25293 0 21.03076 8.27637 21.03076 20.78028 0 12.46777-8.77783 20.78027-21.03076 20.78027-12.21729 0-20.99512-8.3125-20.99512-20.78027zm20.99512 12.68262c7.02246 0 12.00244-5.12305 12.00244-12.68262s-4.97998-12.6836-12.00244-12.6836c-7.02198 0-12.00196 5.12403-12.00196 12.6836s4.97998 12.68262 12.00196 12.68262zm32.60449 3.18847c-1.75537-1.61132-2.97363-3.86914-2.97363-5.69628 0-2.07813 1.39746-3.54688 3.58252-3.54688 1.46923 0 2.5083.60938 4.26367 2.43652 2.79443 3.00977 5.91162 4.26368 9.78076 4.26368 4.15625 0 6.66408-1.6123 6.66408-4.55079 0-2.54296-1.68361-4.22753-5.12306-4.87207l-6.1626-1.2539c-7.70313-1.54102-11.67969-5.51758-11.67969-11.39356 0-7.48828 5.98291-12.03809 15.37012-12.03809 5.05127 0 9.56593 1.25391 12.50343 3.51075 2.18555 1.64843 3.583 3.90527 3.583 6.05566 0 2.00586-1.50487 3.47461-3.47509 3.47461-1.54053 0-2.83057-.93066-4.58594-2.54297-2.29298-2.36523-5.1592-3.29687-8.2046-3.29687-3.7622 0-6.1626 1.57715-6.1626 4.19238 0 2.4004 1.82715 3.94043 5.4458 4.58594l6.48486 1.28906c7.41652 1.50489 11.07082 5.30274 11.07082 11.42969 0 8.06055-6.09082 12.8623-16.0508 12.8623-6.09082 0-11.4292-1.89941-14.33105-4.90918zm47.03126-51.94922c3.15235 0 5.40967 2.32813 5.40967 5.37403 0 3.08105-2.25732 5.40918-5.40967 5.40918-3.15332 0-5.48193-2.32813-5.48193-5.40918 0-3.0459 2.32861-5.37403 5.48193-5.37403zm-4.44287 52.05665V63.29576c0-2.68652 1.82715-4.5498 4.40674-4.5498 2.54395 0 4.33496 1.86328 4.33496 4.5498v31.95802c0 2.65136-1.79101 4.55078-4.33496 4.55078-2.57959 0-4.40674-1.89942-4.40674-4.55078zm20.65528 3.7627c0-3.22462 1.9707-5.66114 4.87256-7.02247-1.7915-1.4336-2.83008-3.47558-2.83008-5.9121 0-2.75782 1.21777-4.90821 3.97656-6.5918-2.40039-2.11426-3.72607-5.01563-3.72607-8.45508 0-7.667 6.55664-12.54005 16.80322-12.54005 3.8335 0 7.16553.68067 9.78076 1.93457l3.54736-2.97363c1.00293-.82422 2.2212-1.36133 3.36768-1.36133 1.89893 0 3.33203 1.50489 3.33203 3.15332 0 1.25391-.7168 2.50782-1.93506 3.61817l-2.79443 2.43652c.96728 1.64747 1.46924 3.58204 1.46924 5.73243 0 7.70312-6.48487 12.53906-16.76758 12.53906-2.97363 0-5.66065-.39356-7.91797-1.18164-.78809.57324-1.18213 1.21777-1.18213 2.042 0 1.6123 1.28955 2.65136 3.51123 2.65136h12.68262c8.20459 0 12.6831 3.43945 12.6831 9.67285 0 7.55957-7.34472 11.78809-20.42187 11.78809-11.93066 0-18.45117-3.26075-18.45117-9.53028zm18.84521 2.90136c7.2373 0 10.99903-1.57617 10.99903-4.3711 0-2.25683-1.75538-3.40332-5.37403-3.40332h-12.21728c-.53711 0-1.03858-.03613-1.54053-.07128-1.32568.8955-2.00635 2.04199-2.00635 3.51074 0 2.93847 3.26026 4.33496 10.13916 4.33496zm.3584-24.792c4.87256 0 7.91797-2.36523 7.91797-6.16308 0-3.833-3.04541-6.19824-7.91797-6.19824-4.94434 0-8.06103 2.40137-8.06103 6.19824 0 3.79785 3.1167 6.16309 8.06103 6.16309zm31.6587 18.12794V63.29576c0-2.68652 1.82714-4.5498 4.40673-4.5498 2.54395 0 4.33496 1.86328 4.33496 4.5498v.7881c2.43652-3.61817 6.8789-5.58888 12.28906-5.58888 9.70948 0 16.08643 6.0547 16.08643 16.83887v19.91993c0 2.6162-1.82715 4.55078-4.3706 4.55078-2.5796 0-4.3711-1.9707-4.3711-4.55078V76.87487c0-6.98633-3.54687-10.3545-9.2793-10.3545-6.41308 0-10.35449 4.40723-10.35449 10.96388v17.76953c0 2.65136-1.79101 4.55078-4.33496 4.55078-2.57959 0-4.40674-1.89942-4.40674-4.55078z" class="st1"/></g></svg>