<svg xmlns="http://www.w3.org/2000/svg" role="img" viewBox="-8.37 -8.37 435.24 86.49"><title>DB Schenker logo</title><style>svg {enable-background:new 0 0 418.7999878 70}</style><style>.st0{fill:#ec0016}</style><path d="M141.77852 34.63569c.0083.00275-.62561-.26459-.62561-.26459-4.03766-1.7308-4.19754-1.79145-5.15389-2.46945-1.32292-.92897-1.76388-1.64829-1.76388-2.85546 0-2.12771 1.77768-3.2136 5.29718-3.2136 3.10885 0 5.38261.52917 8.9986 2.11667l.56501.24254v-8.12216l-.26733-.102c-3.47269-1.25676-6.38033-1.79694-9.71521-1.79694-8.97106 0-14.11114 4.305-14.11114 11.81254 0 5.65568 2.56319 8.89958 9.14193 11.57297 6.99493 2.90217 7.65639 3.62977 7.65639 5.7492 0 2.4722-2.08911 3.73172-6.19567 3.73172-3.54708 0-6.22873-.7028-10.23057-2.67614l-.58703-.28938v8.12766l.23425.113c3.72071 1.69774 6.96737 2.38678 11.21176 2.38678 9.81164 0 15.21907-4.30777 15.21907-12.12675 0-5.92559-2.44464-8.938-9.67386-11.93661zm42.99715 14.48871c-3.70144 1.37531-6.11303 1.85763-9.2329 1.85763-6.48505 0-9.01239-3.46164-9.01239-12.36104 0-9.28817 2.4529-12.73601 9.0675-12.73601 3.06476 0 5.74645.54292 8.9573 1.7997l.5512.22048v-8.04225l-.26182-.0992c-3.0124-1.09143-6.03032-1.593-9.50847-1.593-5.40193 0-9.99908 1.51581-13.29813 4.39318-4.1286 3.58843-6.04959 8.70371-6.04959 16.10945 0 6.28111 1.30913 10.77629 4.12035 14.12768 3.27145 3.86127 8.42534 5.89803 14.9104 5.89803 3.62976 0 7.1107-.73589 10.06522-2.13046l.23425-.10474v-7.54064l-.54292.2012zm31.08549-30.06075v15.06767h-13.84398V19.06365h-10.02113v38.85266h10.02113V41.90073h13.84398v16.01558h10.02145V19.06365h-10.02145zm28.50061 30.97304v-8.13596h13.34773v-7.50758h-13.34773v-7.45813h16.90306v-7.87137h-26.92415v38.85266h27.72893l.6973-7.87963h-18.40514zm49.38313-30.97304v21.23303c-1.3229-1.74184-16.13684-21.23303-16.13684-21.23303H269.202v38.85266h8.49978V34.42899c1.33667 1.75285 17.87317 23.48732 17.87317 23.48732h6.67249V19.06365h-8.50254zm35.52008 18.30332c.38306-.48232 14.6706-18.30332 14.6706-18.30332H333.5231s-11.50113 14.91332-12.7965 16.58627V19.06365H310.711v38.85266h10.0156V41.48456c1.29537 1.6895 12.58978 16.43175 12.58978 16.43175h11.90628s-15.57737-20.06152-15.95768-20.54934zm30.56183 12.66972v-8.13596h13.34769v-7.50758h-13.34769v-7.45813h16.90308v-7.87137h-26.91593v38.85266h27.72342l.70557-7.87963h-18.41614zm50.45526-6.12678c-1.10244-1.79144-2.24621-2.91317-3.50299-3.67662 5.09876-1.66466 7.38355-4.56682 7.38355-9.67124 0-7.73908-4.7763-11.4984-14.5907-11.4984h-14.90488v38.85266h10.02384V42.58699h1.27331c2.25727 0 3.07306.59807 4.83695 3.56913l6.97287 11.76019h10.93615l-8.4281-14.0064zM394.6909 26.56295h4.56686c3.89981 0 5.14835 1.10243 5.14835 4.52272 0 3.40121-1.3946 4.669-5.14835 4.669h-4.56686v-9.19172z"/><path d="M89.95067 0H10.04935C4.55097 0 0 4.34774 0 9.9667v49.9595C0 65.54514 4.55097 70 10.04935 70h79.90132C95.44904 70 100 65.54514 100 59.9262V9.9667C100 4.34774 95.44904 0 89.95067 0zm2.74916 59.9262c0 1.59161-1.16444 2.86632-2.74916 2.86632H10.04935c-1.58474 0-2.74918-1.2747-2.74918-2.86632V9.9667c0-1.59164 1.16444-2.86288 2.74918-2.86288h79.90132c1.58472 0 2.74916 1.27124 2.74916 2.86288v49.9595z" class="st0"/><path d="M30.5821 57.9108H13.75626V12.08887h16.82582c11.8511 0 18.39678 7.4249 18.39678 22.69738 0 13.26087-4.4304 23.01777-18.39678 23.12455zm7.30358-22.17025c0-9.22978-.95772-16.43694-10.90026-16.43694h-2.22553v31.1792h3.9136c5.8222 0 9.21219-4.665 9.21219-14.74226z" class="st0"/><path d="M78.04236 33.93874c3.2446-.85853 8.0126-4.56097 8.0126-10.66774 0-.9543-.19982-11.16558-13.0824-11.16558H53.79992V57.9108H69.9981c4.2898 0 17.65882 0 17.65882-12.88263 0-3.21875-1.31257-9.27592-9.61455-11.08944zM64.69676 19.1734h3.46784c4.92716 0 6.88398 1.7198 6.88398 5.51217 0 3.0134-2.15458 5.54246-5.98483 5.54246h-4.367V19.1734zm4.50895 31.30941h-4.50896v-11.7743h4.80867c5.7168 0 7.11203 3.33587 7.11203 5.88766 0 5.88664-5.66648 5.88664-7.41174 5.88664z" class="st0"/></svg>