<svg xmlns="http://www.w3.org/2000/svg" role="img" viewBox="-19.94 -19.94 1036.88 892.88"><title>Docker, Inc. logo</title><style>svg {enable-background:new 0 0 997 853.5}</style><style>.st0{fill:#2496ed}</style><path d="M153.2 611.8c-4.5 0-8.3 1.5-11.2 4.5-3 3-4.5 6.7-4.5 11.2v75.3c-15.3-12.4-33-18.6-53-18.6-23.3 0-43.3 8.2-59.8 24.8C8.2 725.5 0 745.4 0 768.8c0 23.3 8.2 43.3 24.8 59.8 16.5 16.5 36.4 24.8 59.8 24.8 23.1 0 43.1-8.2 59.8-24.8 16.5-16.3 24.8-36.2 24.8-59.8V627.5c0-4.5-1.5-8.3-4.6-11.2-3.2-3-7-4.5-11.4-4.5zm-19.8 177.4c-2.8 6.4-6.5 12-11.3 16.8-4.8 4.8-10.4 8.7-16.8 11.5-6.4 2.8-13.3 4.2-20.7 4.2-7.4 0-14.4-1.4-20.8-4.2-6.4-2.8-12-6.6-16.7-11.4-4.7-4.8-8.5-10.4-11.2-16.8-2.8-6.4-4.2-13.3-4.2-20.5 0-7.2 1.4-14.1 4.2-20.5 2.8-6.4 6.5-12 11.2-16.8 4.7-4.8 10.3-8.6 16.7-11.4 6.4-2.8 13.4-4.2 20.8-4.2 7.3 0 14.2 1.4 20.7 4.2 6.4 2.8 12 6.6 16.8 11.5 4.8 4.8 8.6 10.4 11.3 16.8 2.8 6.4 4.2 13.2 4.2 20.5-.1 7.1-1.5 14-4.2 20.3zM329.7 709c-16.7-16.5-36.6-24.8-59.8-24.8-23.3 0-43.3 8.2-59.8 24.8-16.5 16.5-24.8 36.4-24.8 59.8 0 23.3 8.2 43.3 24.8 59.8 16.5 16.5 36.4 24.8 59.8 24.8 23.1 0 43.1-8.2 59.8-24.8 16.5-16.3 24.8-36.2 24.8-59.8-.1-11.7-2.2-22.5-6.3-32.5-4.1-9.9-10.2-19-18.5-27.3zm-10.9 80.2c-2.8 6.4-6.5 12-11.3 16.8-4.8 4.8-10.4 8.7-16.8 11.5-6.4 2.8-13.3 4.2-20.7 4.2-7.4 0-14.4-1.4-20.8-4.2-6.4-2.8-12-6.6-16.8-11.4-4.7-4.8-8.5-10.4-11.2-16.8-2.8-6.4-4.2-13.3-4.2-20.5 0-7.2 1.4-14.1 4.2-20.5 2.8-6.4 6.5-12 11.2-16.8 4.7-4.8 10.3-8.6 16.8-11.4 6.4-2.8 13.4-4.2 20.8-4.2 7.3 0 14.2 1.4 20.7 4.2 6.4 2.8 12 6.6 16.8 11.5 4.8 4.8 8.6 10.4 11.3 16.8 2.8 6.4 4.1 13.2 4.1 20.5 0 7.1-1.3 14-4.1 20.3zM679.2 700c0-2.1-.4-4.1-1.3-6-.9-1.9-2-3.6-3.4-5.1-1.4-1.5-3.1-2.6-5-3.4-1.9-.8-4-1.2-6.2-1.2-3.1 0-5.9.8-8.5 2.4l-90.3 58.7V627.6c0-4.4-1.5-8.2-4.6-11.2-3.1-3.1-6.8-4.6-11.1-4.6-4.4 0-8.2 1.5-11.2 4.6-3.1 3.1-4.6 6.8-4.6 11.2v209.8c0 4.3 1.5 8.1 4.6 11.2 3.1 3.1 6.8 4.7 11.2 4.7 4.3 0 8-1.6 11.1-4.7 3.1-3.1 4.6-6.8 4.6-11.2V783l18.4-12.1 69.7 78.3c2.8 2.7 6.3 4.1 10.6 4.1 2.2 0 4.3-.4 6.2-1.2 1.9-.8 3.6-1.9 5-3.4s2.5-3.1 3.4-5.1c.9-1.9 1.3-3.9 1.3-6 0-4.1-1.5-7.8-4.4-11l-64.9-73.1 63.2-41.1c4.2-2.6 6.2-6.8 6.2-12.4zm-261.9 31.3c4.8-4.8 10.5-8.6 16.9-11.3 6.4-2.8 13.3-4.2 20.7-4.2 6.6 0 12.8 1.1 18.4 3.3 5.6 2.2 11 5.5 16.1 9.8 3 2.4 6.4 3.6 10.3 3.6 4.5 0 8.3-1.5 11.2-4.5 3-3 4.5-6.8 4.5-11.3 0-4.7-1.8-8.7-5.4-11.9-15.5-13.7-33.9-20.5-55.1-20.5-23.4 0-43.3 8.2-59.8 24.8-16.5 16.5-24.8 36.4-24.8 59.8 0 23.3 8.3 43.3 24.8 59.8s36.4 24.8 59.8 24.8c21.1 0 39.5-6.8 55.1-20.5 3.3-3.3 5-7.2 5-11.6 0-4.5-1.5-8.3-4.4-11.2-3-3-6.7-4.5-11.2-4.5-3.8.1-7.1 1.2-10 3.3-5 4.3-10.4 7.6-16 9.7-5.6 2.2-11.8 3.2-18.4 3.2-7.3 0-14.2-1.4-20.7-4.2-6.4-2.8-12.1-6.5-16.9-11.3-4.8-4.8-8.6-10.4-11.4-16.8-2.8-6.4-4.2-13.3-4.2-20.7 0-7.3 1.4-14.2 4.2-20.7 2.7-6.5 6.5-12.1 11.3-16.9zm575.5-36.5c-2.8-2.7-6.4-4.8-10.6-6.4-4.3-1.6-9-2.6-14-3.2-5.1-.6-9.8-.9-14.3-.9-10.1 0-19.5 1.6-28.4 4.8-8.9 3.2-17.1 7.8-24.6 13.9v-3c0-4.3-1.5-8-4.6-11.1-3.1-3.1-6.8-4.6-11.1-4.6-4.4 0-8.2 1.5-11.2 4.6-3.1 3.1-4.6 6.8-4.6 11.1v137.7c0 4.3 1.5 8 4.6 11.1 3.1 3.1 6.8 4.6 11.2 4.6 4.3 0 8-1.5 11.1-4.6 3.1-3.1 4.6-6.8 4.6-11.1v-68.8c0-7.3 1.4-14.2 4.2-20.7 2.8-6.4 6.5-12 11.3-16.8 4.8-4.8 10.4-8.6 16.8-11.3 6.4-2.8 13.3-4.2 20.7-4.2 7.4 0 14.3 1.3 20.7 3.8 2.5 1.1 4.7 1.7 6.6 1.7 2.2 0 4.3-.4 6.2-1.2 1.9-.8 3.6-1.9 5-3.4s2.5-3.1 3.4-5.1c.9-1.9 1.3-4 1.3-6.2-.1-4.4-1.5-8-4.3-10.7zm-146.7 41.7c-4.1-10-10.3-19.1-18.6-27.2-16.7-16.5-36.6-24.8-59.8-24.8-23.4 0-43.3 8.2-59.8 24.8-16.5 16.5-24.8 36.4-24.8 59.8 0 23.3 8.2 43.3 24.8 59.8 16.5 16.5 36.4 24.8 59.8 24.8 21.2 0 39.6-6.8 55.2-20.5.2-.2.6-.5.6-.6 1.4-1.1 2.5-2.4 3.6-3.9 5-7.5 3.2-17.5-4-22.4-6.1-4.1-14.1-3.2-19.5 1.7-.5.5-2 1.8-2.2 2.1l-.2.2c-4.7 3.9-9.7 6.9-15.2 8.9s-11.6 3-18.3 3c-5.8 0-11.5-.9-16.8-2.7-5.4-1.8-10.3-4.3-14.8-7.6s-8.4-7.2-11.7-11.8c-3.3-4.6-5.8-9.6-7.5-15.2h119.5c4.4 0 8.2-1.5 11.2-4.5 3.1-3 4.6-6.7 4.6-11.2.1-11.9-2-22.7-6.1-32.7zm-129.2 16.8c1.6-5.5 4.1-10.6 7.4-15.2 3.3-4.6 7.2-8.5 11.8-11.8 4.5-3.3 9.5-5.8 14.9-7.6 5.4-1.8 11-2.7 16.8-2.7 5.7 0 11.3.9 16.7 2.7 5.4 1.8 10.3 4.4 14.8 7.6 4.5 3.3 8.4 7.2 11.8 11.8 3.4 4.6 5.9 9.6 7.6 15.2H716.9z" class="st0"/><path d="M938.8 830.5c-6.2 0-11.2 4.8-11.2 10.9 0 6.2 5 11 11.2 11 6.3 0 11.1-4.8 11.1-11 .1-6.1-4.8-10.9-11.1-10.9zm.1 19.5c-4.9 0-8.5-3.8-8.5-8.7 0-4.8 3.6-8.7 8.4-8.7 4.8 0 8.3 3.9 8.3 8.7.1 4.9-3.4 8.7-8.2 8.7z" class="st0"/><path d="M941.4 841.7v-.1c1.3-.4 2.2-1.3 2.2-2.5 0-1.1-.5-1.9-1.1-2.4-.8-.5-1.7-.8-3.8-.8-1.8 0-3.2.1-4.2.3V847h2.5v-4.4h1.2c1.4 0 2.1.5 2.2 1.7.3 1.3.5 2.3.9 2.7h2.7c-.3-.4-.5-1.1-.8-2.7-.2-1.4-.8-2.2-1.8-2.6zm-3-.8h-1.2v-3.1c.3-.1.7-.1 1.4-.1 1.6 0 2.3.7 2.3 1.7s-1.1 1.5-2.5 1.5z" class="st0"/><path d="M913.9 206c-2.1-1.7-21.3-16.2-61.9-16.2-10.2 0-20.9.9-32 2.8-7.8-53.9-52.3-80.1-54.4-81.3l-10.9-6.3-7.2 10.3c-.5.8-13.2 19.2-19.4 45.3-7.3 30.7-2.9 59.6 12.8 84.3-18.9 10.5-49 13.2-55.2 13.3h-501c-13.1 0-23.7 10.6-23.8 23.7-.2 46.1 7.4 90.6 22 128.7 17.3 45.2 42.9 78.6 76.3 99 37.4 22.9 98.4 36.1 167.2 36.1 32.2 0 64.3-2.9 92.8-8.4 44.9-8.7 85.7-23.5 121.2-44 31-17.9 58.8-40.7 82.7-67.7 39.7-44.9 63.3-95 80.9-139.4 2.4.1 4.7.1 7 .1 43.5 0 70.2-17.4 84.9-31.9 16-15.8 21.7-31.6 22.3-33.3l3.1-9.1-7.4-6z" class="st0"/><path d="M231.2 243.6h67.1c3.2 0 5.9-2.6 5.9-5.9V178c0-3.2-2.6-5.9-5.9-5.9h-67.1c-3.2 0-5.9 2.6-5.9 5.9v59.8c0 3.2 2.6 5.8 5.9 5.8zm92.5 0h67.1c3.2 0 5.9-2.6 5.9-5.9V178c0-3.2-2.6-5.9-5.9-5.9h-67.1c-3.2 0-5.9 2.6-5.9 5.9v59.8c0 3.2 2.6 5.8 5.9 5.8zm93.9 0h67.1c3.2 0 5.9-2.6 5.9-5.9V178c0-3.2-2.6-5.9-5.9-5.9h-67.1c-3.2 0-5.9 2.6-5.9 5.9v59.8c0 3.2 2.6 5.8 5.9 5.8zm92.8 0h67.1c3.2 0 5.9-2.6 5.9-5.9V178c0-3.2-2.6-5.9-5.9-5.9h-67.1c-3.2 0-5.9 2.6-5.9 5.9v59.8c0 3.2 2.6 5.8 5.9 5.8zm-186.7-86h67.1c3.2 0 5.9-2.6 5.9-5.9V91.9c0-3.2-2.6-5.9-5.9-5.9h-67.1c-3.2 0-5.9 2.6-5.9 5.9v59.8c0 3.3 2.6 5.9 5.9 5.9zm93.9 0h67.1c3.2 0 5.9-2.6 5.9-5.9V91.9c0-3.2-2.6-5.9-5.9-5.9h-67.1c-3.2 0-5.9 2.6-5.9 5.9v59.8c0 3.3 2.6 5.9 5.9 5.9zm92.8 0h67.1c3.2 0 5.9-2.6 5.9-5.9V91.9c0-3.2-2.6-5.9-5.9-5.9h-67.1c-3.2 0-5.9 2.6-5.9 5.9v59.8c0 3.3 2.6 5.9 5.9 5.9zm0-86.1h67.1c3.2 0 5.9-2.6 5.9-5.9V5.9c0-3.2-2.6-5.9-5.9-5.9h-67.1c-3.2 0-5.9 2.6-5.9 5.9v59.8c0 3.2 2.6 5.8 5.9 5.8zM604 243.6h67.1c3.2 0 5.9-2.6 5.9-5.9V178c0-3.2-2.6-5.9-5.9-5.9H604c-3.2 0-5.9 2.6-5.9 5.9v59.8c0 3.2 2.7 5.8 5.9 5.8z" class="st0"/></svg>