<svg xmlns="http://www.w3.org/2000/svg" role="img" viewBox="-5.51 -5.51 286.52 121.27"><title>Endor Labs logo</title><defs><style>.a{fill:#005652}</style></defs><path d="M63.33 76.05h-4.02v34.41h26.52v-3.67h-22.5V76.05zm49.14 0l-17.83 34.41H99l5.13-9.9H125l5.12 9.9h4.52l-17.9-34.41zm-6.73 21.15l8.64-16.83h.2l8.69 16.83zm64.35-4.2v-.2c4-1.31 5.62-4.07 5.62-7.79a7.55 7.55 0 0 0-3.31-6.78c-3.22-2-7.49-2.16-14.27-2.16H146v34.41h13.81c7 0 11.65-.15 14.82-2.76a7.82 7.82 0 0 0 2.91-6.48c.03-5.15-2.98-7.41-7.45-8.24zm-20-13.56h9.49c7.28 0 12.15.5 12.15 6 0 5-3.81 6.22-12.15 6.22h-9.49zm11.35 27.67h-11.39V95h11.35c7 0 12.1.45 12.1 6 0 5.09-3.61 6.09-12.1 6.09zm43.63-15.74a60.22 60.22 0 0 1-7.83-1.64c-2.85-.87-3.67-2.42-3.67-4.89 0-2.17.72-3.91 3.67-4.83a25 25 0 0 1 6.38-.67c3 0 6.76.24 10.63.62v-3.48c-3.82-.29-7.25-.48-10.58-.48-2.81 0-6.38.24-9 1.45-3.77 1.69-4.79 4.83-4.79 7.83 0 5.94 3.72 7.88 10.83 9.09a75.39 75.39 0 0 1 8.12 1.69c2.9.92 3.77 2.56 3.77 5.07 0 2.27-.73 4.25-3.72 5.12a25.66 25.66 0 0 1-7 .73c-3.38 0-7.59-.24-11.94-.63V110c4.35.29 8.22.48 12 .48 3.18 0 6.71-.24 9.37-1.5 3.92-1.79 5-5 5-8.12.02-6.25-3.9-8.33-11.24-9.49zM17.85 29.76h15.81V17.9H17.85v-5.89h24.24V0H3.68v29.77h14.17v-.01zm.04 6.56h24.2v12.01h-24.2zm52.39-12.68a26.15 26.15 0 0 0 2.16 3.65l15.37 21h12.3V0H85.94v25.06a26 26 0 0 0-2.16-3.66L68.42 0H56.11v48.33h14.17zM195.43 0c-15 0-25 10.72-25 24s10 24.18 25 24.18 25-10.73 25-24.18-10.03-24-25-24zm0 35.84c-6.26 0-10.73-4.89-10.73-11.8s4.83-11.66 10.73-11.66c6.33 0 10.79 4.89 10.79 11.66s-4.46 11.8-10.79 11.8zm71.18-1.91a18 18 0 0 0 7.61-14.84C274.22 8.58 266.61 0 251.77 0h-21.33v12.05H252a7 7 0 0 1 7.24 7.08 7 7 0 0 1-7.31 7.09h-21.44v22.11h14.17V38.18h5.82a31.21 31.21 0 0 0 3.5-.22l5.52 10.37h16.19zM9.89 48.33h-.01.01z" class="a"/><path fill="#00f078" d="M14.2 42.32a7.1 7.1 0 1 0-7.1 7.1 7.1 7.1 0 0 0 7.1-7.1z"/><path d="M134.27 0h-20.14v29.86h14.17V12h5.44c7.24 0 11.86 5.22 11.86 12.15s-4.6 12.17-11.86 12.17h-19.61v12h20.14c16.18 0 26.32-11 26.32-24.17S150.45 0 134.27 0z" class="a"/></svg>