<svg xmlns="http://www.w3.org/2000/svg" role="img" viewBox="-7.22 72.78 414.18 93.18"><title>Facebook, Inc. logo</title><style>svg {enable-background:new 0 0 400 245}</style><path fill="#4666a9" d="M32.04 93.03c-4.69 0-6.04 2.08-6.04 6.67v7.61h12.5l-1.25 12.3H26v37.3H11v-37.3H.89v-12.3H11v-7.4c0-12.4 5-18.96 18.96-18.96 3.02 0 6.56.21 8.75.52v11.57h-6.67zm7.5 37.52c0-13.86 6.56-24.28 20.32-24.28 7.5 0 12.09 3.86 14.28 8.65v-7.61h14.38v49.6H74.14v-7.5c-2.08 4.79-6.77 8.54-14.28 8.54-13.75 0-20.32-10.42-20.32-24.28v-3.12zm15.01 3.33c0 7.4 2.71 12.3 9.69 12.3 6.15 0 9.27-4.48 9.27-11.57v-5c0-7.09-3.13-11.57-9.27-11.57-6.98 0-9.69 4.9-9.69 12.3v3.54zm65.22-27.61c5.84 0 11.36 1.25 14.38 3.33l-3.33 10.63c-2.29-1.15-6.04-2.29-10-2.29-8.13 0-11.67 4.69-11.67 12.71v2.92c0 8.02 3.54 12.71 11.67 12.71 3.96 0 7.71-1.15 10-2.29l3.33 10.63c-3.02 2.08-8.54 3.33-14.38 3.33-17.61 0-25.63-9.48-25.63-24.7v-2.29c0-15.21 8.02-24.69 25.63-24.69zm16.36 27.71v-4.38c0-14.07 8.02-23.34 24.38-23.34 15.42 0 22.19 9.38 22.19 23.13v7.92h-31.57c.31 6.77 3.33 9.8 11.67 9.8 5.63 0 11.57-1.15 15.94-3.02l2.71 10.31c-3.96 2.08-12.09 3.65-19.28 3.65-18.96 0-26.04-9.48-26.04-24.07zm15-6.46h18.13v-1.25c0-5.42-2.19-9.69-8.75-9.69-6.77 0-9.38 4.28-9.38 10.94zm87.22 6.15c0 13.86-6.67 24.28-20.42 24.28-7.5 0-12.71-3.75-14.8-8.54v7.5h-14.17V82.4l15-1.35v33.14c2.19-4.38 6.98-7.92 13.96-7.92 13.75 0 20.42 10.42 20.42 24.28v3.12zm-15.01-3.44c0-6.98-2.71-12.19-9.9-12.19-6.15 0-9.48 4.38-9.48 11.46v5.21c0 7.09 3.33 11.46 9.48 11.46 7.19 0 9.9-5.21 9.9-12.19v-3.75zm20 3.13v-2.5c0-14.28 8.13-24.59 24.7-24.59s24.7 10.32 24.7 24.59v2.5c0 14.28-8.13 24.59-24.7 24.59s-24.7-10.32-24.7-24.59zm34.39-3.54c0-6.56-2.71-11.77-9.69-11.77-6.98 0-9.69 5.21-9.69 11.77v4.58c0 6.56 2.71 11.77 9.69 11.77 6.98 0 9.69-5.21 9.69-11.77v-4.58zm20 3.54v-2.5c0-14.28 8.13-24.59 24.7-24.59s24.7 10.32 24.7 24.59v2.5c0 14.28-8.13 24.59-24.7 24.59s-24.7-10.32-24.7-24.59zm34.39-3.54c0-6.56-2.71-11.77-9.69-11.77s-9.69 5.21-9.69 11.77v4.58c0 6.56 2.71 11.77 9.69 11.77s9.69-5.21 9.69-11.77v-4.58zm35.63 1.14l14.8-23.65h15.94l-15.53 24.49 16.15 25.11h-15.94l-15.42-24.28v24.28h-15V82.4l15-1.35v49.91z"/></svg>