<svg xmlns="http://www.w3.org/2000/svg" role="img" viewBox="-4.91 33.59 294.06 239.81"><title>Fluent Bit logo</title><path fill="url(#paint0_linear_462_3774)" fill-rule="evenodd" d="M223.602 76.6358c21.614-4.4838 32.536-4.2538 37.48-3.564.69.115.805 1.1497-.115 1.3796-1.267.1454-2.797.2796-4.539.4323-7.898.6926-20.152 1.7671-32.021 6.006-2.414.9197-4.829 1.8395-7.128 2.9891-.127.1272-.465.2895-.917.5064-.365.1754-.805.3864-1.268.6433-3.104 1.6096-6.438 5.7485-8.277 8.9676l-20.695 35.1809c-.1.17-.209.356-.327.557-4.347 7.409-20.746 35.363-51.639 49.914-41.7332 19.545-79.7878 9.082-79.7878 9.082s14.3711-3.679 31.5014-15.635c13.2423-8.79 24.6454-20.076 33.5704-33.226 5.744-5.163 8.224-10.417 10.142-14.483 1.116-2.364 2.042-4.327 3.31-5.637 4.985-4.985 10.655-8.6 16.016-12.019.451-.287.899-.572 1.344-.857 8.192-3.13 14.615-13.1864 18.68-19.5503 1.013-1.585 1.879-2.9409 2.589-3.9037a24.78657 24.78657 0 0 1 8.508-7.588c5.748-2.9892 15.521-4.2538 27.363-.2299 2.727.8978 5.539 1.5142 8.392 1.8395 2.63.0742 5.259-.1964 7.818-.8048zm-23.384 8.9938c0 1.9049-1.544 3.4491-3.449 3.4491-1.905 0-3.45-1.5442-3.45-3.4491 0-1.905 1.545-3.4492 3.45-3.4492 1.905 0 3.449 1.5442 3.449 3.4492z" clip-rule="evenodd"/><path fill="url(#paint1_linear_462_3774)" fill-rule="evenodd" d="M223.601 76.6358c21.614-4.4838 32.536-4.2539 37.48-3.564.154.0186.296.0933.4.2098a.638.638 0 0 1 .16.4225.638.638 0 0 1-.16.4225c-.104.1165-.246.1911-.4.2098-.308.0353-.636.0726-.983.1121-7.568.8605-24.266 2.7591-38.337 7.7058-1.028.4114-1.597.5698-2.106.7118-.63.1754-1.17.3259-2.378.8978-.127.1271-.465.2894-.917.5063-.365.1754-.804.3864-1.267.6433-3.104 1.6096-6.438 5.7485-8.278 8.9676l-20.694 35.1809c-1.779 3.1-3.737 6.094-5.864 8.967-5.058 6.783-15.405 10.807-28.167 10.462-8.764.092-17.44-1.753-25.408-5.403-1.954-.805-5.059-2.3-7.358-3.564l-.002-.002c-1.15-.689-2.872-1.723-3.217-1.953-3.591-2.371-7.046-4.943-10.347-7.703-2.76-2.184-5.289-4.483-7.9331-7.013-12.7541-12.649-24.053-26.6863-33.6859-41.8484-2.0694-3.2191-4.0239-6.4383-5.7484-9.5424a165.64103 165.64103 0 0 1-11.267-23.5686c-1.1496-3.2191-.9197-5.0586-.6898-5.7484.4599-2.0695 1.9545-3.3341 4.5988-2.5294 6.0933 2.2994 11.6118 4.4838 16.9004 6.8982a264.12593 264.12593 0 0 1 35.41 20.9243c4.599 2.9892 10.003 7.128 15.521 11.4969 9.772 8.0478 19.89 17.1303 31.387 27.9378 8.192-3.13 14.615-13.1865 18.68-19.5504 1.012-1.5849 1.878-2.9408 2.589-3.9037a24.7873 24.7873 0 0 1 8.508-7.5879c5.863-3.2191 15.175-4.2538 27.362-.2299 2.728.8978 5.54 1.5142 8.393 1.8395 2.63.0742 5.258-.1964 7.818-.8048zm-23.386 8.9936c0 1.905-1.544 3.4492-3.449 3.4492-1.905 0-3.449-1.5442-3.449-3.4492 0-1.9049 1.544-3.4491 3.449-3.4491 1.905 0 3.449 1.5442 3.449 3.4491z" clip-rule="evenodd"/><path fill="url(#paint2_linear_462_3774)" d="M46.2051 43.4104c0-.3449.1149-.6898 0-.9198.1159.2957.1159.6242 0 .9198z" opacity=".8"/><path fill="url(#paint3_linear_462_3774)" d="M55.862 41.2261a1.03617 1.03617 0 0 0-.5749-.115c.3449.1149.6898.3449 1.0347.4599 0-.115-.2299-.23-.4598-.3449z" opacity=".8"/><path fill="url(#paint4_linear_462_3774)" d="M59.4257 42.7205c-.115 0-.3449-.1149-.4599-.1149.2938.1465.6021.2621.9198.3449-.23-.115-.3449-.23-.4599-.23z" opacity=".8"/><path fill="url(#paint5_linear_462_3774)" d="M126.913 108.943c7.812 1.175 15.794.385 23.224-2.3-6.898-6.438-13.452-12.3015-19.545-17.5901-3.104-2.6442-6.093-5.2885-8.968-7.7029-.114-.1149-.344-.2299-.344-.3449-.805-.6898-1.495-1.2646-2.185-1.8395-.23-.1149-.345-.3449-.46-.3449-5.518-4.3688-10.922-8.3927-15.291-11.4969C91.6176 59.391 79.8908 52.033 68.049 46.3995c-1.0347-.5748-2.0694-.9197-3.2191-1.4946a4.73968 4.73968 0 0 0-.9197-.3449c45.7578 24.7183 60.3588 47.1372 63.0028 64.383z"/><path fill="url(#paint6_linear_462_3774)" d="M47.9305 50.078c-.3449-.6899-.5749-1.4946-.9198-2.2994.3449.6898.5749 1.4946.9198 2.2994z" opacity=".8"/><path fill="url(#paint7_linear_462_3774)" d="M46.2051 43.7542c0-.1147 0-.1147.1146-.2293 0 .1146 0 .1146-.1146.2293z" opacity=".3"/><path fill="url(#paint8_linear_462_3774)" d="M51.1484 39.501c1.4946.5748 2.8743 1.0347 4.2539 1.6095-1.4946-.5748-2.8742-1.1496-4.2539-1.6095z" opacity=".3"/><path fill="url(#paint9_linear_462_3774)" d="M46.2051 43.7547z" opacity=".3"/><path fill="url(#paint10_linear_462_3774)" d="M63.2198 44.3299l.6898.3449c-1.2646-.5748-2.6442-1.1497-4.0239-1.7245.4599.2299.8048.3449 1.2647.5748.7083.218 1.4.487 2.0694.8048z" opacity=".3"/><path fill="url(#paint11_linear_462_3774)" d="M76.7868 84.7993c-12.3016-9.8874-23.9135-23.6836-28.8571-34.6056C59.4266 79.2808 89.3184 120.555 115.991 137.57c.46.345 2.07 1.265 3.334 1.954 3.449-5.288 9.773-16.21 7.588-30.581-16.44-2.185-34.1455-11.1523-50.1262-24.1437z"/><path fill="url(#paint12_linear_462_3774)" d="M58.9661 42.6051l-2.4143-1.0347c.1149 0 .2299.115.3449.115.5748.2299 1.2646.5748 2.0694.9197z" opacity=".3"/><path fill="url(#paint13_linear_462_3774)" d="M76.787 84.7988c15.9807 12.9915 33.686 21.8442 50.126 24.0282-2.644-17.13-17.245-39.6639-63.0025-64.1523a3.8282 3.8282 0 0 1-.6898-.3449c-.6898-.3449-1.3796-.5748-1.9545-.9197-.4598-.23-.8047-.3449-1.2646-.5749a4.73815 4.73815 0 0 0-.9198-.3449 12.26138 12.26138 0 0 0-2.1844-.8048c-.1149 0-.2299-.1149-.3449-.1149-.3449-.115-.6898-.3449-1.0347-.4599-1.3796-.4599-2.7592-1.1497-4.2538-1.6096-2.6443-.8047-4.1389.4599-4.7138 2.4144a4.0679 4.0679 0 0 0-.1149.6898c-.115.2299 0 .5748 0 .9197 0 .115 0 .115-.115.23a13.5358 13.5358 0 0 0 .8048 4.0239c.2561.8231.5633 1.6295.9197 2.4143 4.8287 10.9221 16.5555 24.7183 28.7422 34.6056z" opacity=".8"/><path fill="url(#paint14_linear_462_3774)" d="M76.787 84.7988c15.9807 12.9915 33.686 21.8442 50.126 24.0282-2.644-17.13-17.245-39.6639-63.0025-64.1523a3.8282 3.8282 0 0 1-.6898-.3449c-.6898-.3449-1.3796-.5748-1.9545-.9197-.4598-.23-.8047-.3449-1.2646-.5749a4.73815 4.73815 0 0 0-.9198-.3449 12.26138 12.26138 0 0 0-2.1844-.8048c-.1149 0-.2299-.1149-.3449-.1149-.3449-.115-.6898-.3449-1.0347-.4599-1.3796-.4599-2.7592-1.1497-4.2538-1.6096-2.6443-.8047-4.1389.4599-4.7138 2.4144a4.0679 4.0679 0 0 0-.1149.6898c-.115.2299 0 .5748 0 .9197 0 .115 0 .115-.115.23a13.5358 13.5358 0 0 0 .8048 4.0239c.2561.8231.5633 1.6295.9197 2.4143 4.8287 10.9221 16.5555 24.7183 28.7422 34.6056z"/><path fill="url(#paint15_linear_462_3774)" fill-rule="evenodd" d="M223.6 76.6359c21.614-4.4838 32.536-4.2539 37.48-3.5641.69.115.805 1.1497.23 1.6096-4.714.4599-24.488 3.1041-37.595 7.473-5.206 1.6344-9.913 4.5614-13.681 8.5077-2.67 3.0473-5.129 6.274-7.358 9.6569-2.184 3.22-9.083 13.107-20.234 16.786-11.612 3.794-24.029-2.529-32.077-10.117 8.192-3.13 14.616-13.1864 18.68-19.5503 1.013-1.585 1.879-2.9409 2.589-3.9037a24.97554 24.97554 0 0 1 6.899-6.6682c3.385-2.2783 7.31-3.6263 11.381-3.9089 5.943-.2714 11.88.627 17.476 2.6442a42.0734 42.0734 0 0 0 8.392 1.8395c2.63.0742 5.259-.1963 7.818-.8047zm-23.384 8.9937c0 1.9049-1.545 3.4492-3.45 3.4492-1.905 0-3.449-1.5443-3.449-3.4492 0-1.905 1.544-3.4492 3.449-3.4492 1.905 0 3.45 1.5442 3.45 3.4492z" clip-rule="evenodd"/><path fill="#191D1E" d="M112.482 227.378c-4.68.007-9.167 1.87-12.477 5.179-3.3094 3.31-5.1718 7.797-5.1788 12.477v5.258c.007 4.68 1.8694 9.167 5.1788 12.476 3.31 3.31 7.797 5.172 12.477 5.179h11.221v-6.434h-11.221c-2.868-.005-5.625-1.104-7.711-3.072-2.085-1.969-3.341-4.659-3.51-7.522h22.992c.763.002 1.519-.147 2.224-.438.705-.291 1.346-.719 1.885-1.259.54-.539.968-1.18 1.259-1.885.291-.706.44-1.461.438-2.224.014-2.32-.431-4.619-1.307-6.767-.877-2.147-2.169-4.1-3.801-5.748a17.64339 17.64339 0 0 0-5.715-3.852c-2.139-.896-4.434-1.361-6.754-1.368zm-11.221 17.028c.165-2.864 1.419-5.557 3.505-7.527 2.086-1.969 4.847-3.066 7.716-3.066 2.869 0 5.63 1.097 7.716 3.066 2.086 1.97 3.34 4.663 3.505 7.527h-22.442zm-83.2576-23.462h4.7082v-6.435h-4.7082c-1.7759.006-3.5324.37-5.164 1.071-1.6316.702-3.10469 1.725-4.33093 3.01-2.48039 2.574-3.88386 5.999-3.92353 9.573v.785H.81836v6.434h3.76658v32.409h6.43456v-32.409h8.6318v-6.356h-8.6318v-.784c.0785-3.924 3.2958-7.298 6.9839-7.298zm21.1861-6.356h-6.4346v53.36h6.4346v-53.36z"/><path fill="#30B99E" d="M253.258 227.378h-6.435v40.413h6.435v-40.413z"/><path fill="#191D1E" d="M77.9546 251.39c0 2.685-1.0664 5.26-2.9648 7.158-1.8984 1.898-4.4731 2.965-7.1578 2.965-2.6847 0-5.2595-1.067-7.1579-2.965-1.8983-1.898-2.9648-4.473-2.9648-7.158v-24.012h-6.2777v24.012c0 4.371 1.7362 8.562 4.8266 11.652 3.0903 3.091 7.2818 4.827 11.6522 4.827 4.3705 0 8.5619-1.736 11.6523-4.827 3.0904-3.09 4.8265-7.281 4.8265-11.652v-24.012h-6.4346v24.012zm75.0174-24.012c-4.367.013-8.551 1.753-11.638 4.841-3.088 3.088-4.828 7.272-4.841 11.638v24.012h6.435v-24.012c0-2.685 1.066-5.259 2.965-7.158 1.898-1.898 4.473-2.965 7.157-2.965 2.685 0 5.26 1.067 7.158 2.965 1.899 1.899 2.965 4.473 2.965 7.158v24.012h6.435v-24.012c-.075-4.374-1.857-8.546-4.965-11.625-3.108-3.078-7.296-4.82-11.671-4.854zm34.921 26.838v-20.403h8.631v-6.356h-8.631v-12.869h-6.356v12.869h-5.65v6.435h5.65v20.402c.01 3.535 1.419 6.922 3.918 9.421 2.5 2.5 5.887 3.909 9.422 3.919h2.824v-6.435h-2.824c-1.851-.004-3.625-.741-4.934-2.05-1.309-1.308-2.046-3.082-2.05-4.933z"/><path fill="#30B99E" d="M273.895 254.216v-20.403h8.632v-6.356h-8.632v-12.869h-6.435v12.869h-5.649v6.435h5.649v20.402c.011 3.535 1.419 6.922 3.919 9.421 2.499 2.5 5.887 3.909 9.421 3.919h2.825v-6.435H280.8c-1.838-.02-3.595-.765-4.887-2.072-1.293-1.308-2.018-3.073-2.018-4.911zm-62.697-39.628v16.4c2.883-2.269 6.454-3.488 10.123-3.452 4.366.012 8.55 1.753 11.638 4.84 3.087 3.088 4.828 7.272 4.84 11.638v7.455c0 4.371-1.736 8.562-4.826 11.652-3.091 3.091-7.282 4.827-11.652 4.827-4.371 0-8.562-1.736-11.653-4.827-3.09-3.09-4.826-7.281-4.826-11.652v-36.881h6.356zm0 32.879v3.924c0 2.684 1.066 5.259 2.965 7.158 1.898 1.898 4.473 2.964 7.158 2.964 2.684 0 5.259-1.066 7.157-2.964 1.899-1.899 2.965-4.474 2.965-7.158v-7.455c0-2.685-1.066-5.259-2.965-7.158-1.898-1.898-4.473-2.965-7.157-2.965-2.685 0-5.26 1.067-7.158 2.965a10.12117 10.12117 0 0 0-2.965 7.158v3.531z"/><defs><linearGradient id="paint0_linear_462_3774" x1="265.531" x2="50.386" y1="122.03" y2="139.4" gradientUnits="userSpaceOnUse"><stop offset=".299" stop-color="#0097CE"/><stop offset=".379" stop-color="#0999C5"/><stop offset=".512" stop-color="#229DAD"/><stop offset=".647" stop-color="#42A38F"/><stop offset=".735" stop-color="#5DAD82"/><stop offset=".924" stop-color="#A1C661"/><stop offset="1" stop-color="#BED153"/></linearGradient><linearGradient id="paint1_linear_462_3774" x1="39.841" x2="248.012" y1="66.08" y2="123.359" gradientUnits="userSpaceOnUse"><stop offset=".082" stop-color="#3D65AF"/><stop offset=".231" stop-color="#2372B8"/><stop offset=".506" stop-color="#00B8BB"/></linearGradient><linearGradient id="paint2_linear_462_3774" x1="46.121" x2="159.202" y1="42.927" y2="74.042" gradientUnits="userSpaceOnUse"><stop offset=".13"/><stop offset=".328" stop-color="#00334B"/><stop offset=".528" stop-color="#006190"/><stop offset=".672" stop-color="#007FBB"/><stop offset=".746" stop-color="#008ACC"/></linearGradient><linearGradient id="paint3_linear_462_3774" x1="47.217" x2="160.298" y1="38.944" y2="70.058" gradientUnits="userSpaceOnUse"><stop offset=".13"/><stop offset=".328" stop-color="#00334B"/><stop offset=".528" stop-color="#006190"/><stop offset=".672" stop-color="#007FBB"/><stop offset=".746" stop-color="#008ACC"/></linearGradient><linearGradient id="paint4_linear_462_3774" x1="47.095" x2="160.177" y1="39.384" y2="70.499" gradientUnits="userSpaceOnUse"><stop offset=".13"/><stop offset=".328" stop-color="#00334B"/><stop offset=".528" stop-color="#006190"/><stop offset=".672" stop-color="#007FBB"/><stop offset=".746" stop-color="#008ACC"/></linearGradient><linearGradient id="paint5_linear_462_3774" x1="57.895" x2="153.933" y1="66.42" y2="92.845" gradientUnits="userSpaceOnUse"><stop offset=".13" stop-color="#2483C5"/><stop offset=".167" stop-color="#2486C7"/><stop offset=".676" stop-color="#29B1DF"/><stop offset=".935" stop-color="#2BC2E8"/></linearGradient><linearGradient id="paint6_linear_462_3774" x1="44.682" x2="157.763" y1="48.161" y2="79.275" gradientUnits="userSpaceOnUse"><stop offset=".13"/><stop offset=".328" stop-color="#00334B"/><stop offset=".528" stop-color="#006190"/><stop offset=".672" stop-color="#007FBB"/><stop offset=".746" stop-color="#008ACC"/></linearGradient><linearGradient id="paint7_linear_462_3774" x1="46.276" x2="46.276" y1="43.643" y2="43.643" gradientUnits="userSpaceOnUse"><stop stop-color="#682C90"/><stop offset=".496" stop-color="#817CB9"/><stop offset="1" stop-color="#fff"/></linearGradient><linearGradient id="paint8_linear_462_3774" x1="143.476" x2="86.199" y1="65.124" y2="49.365" gradientUnits="userSpaceOnUse"><stop stop-color="#682C90"/><stop offset=".496" stop-color="#817CB9"/><stop offset="1" stop-color="#fff"/></linearGradient><linearGradient id="paint9_linear_462_3774" x1="141.61" x2="84.333" y1="71.907" y2="56.147" gradientUnits="userSpaceOnUse"><stop stop-color="#682C90"/><stop offset=".496" stop-color="#817CB9"/><stop offset="1" stop-color="#fff"/></linearGradient><linearGradient id="paint10_linear_462_3774" x1="143.186" x2="85.909" y1="66.179" y2="50.419" gradientUnits="userSpaceOnUse"><stop stop-color="#682C90"/><stop offset=".496" stop-color="#817CB9"/><stop offset="1" stop-color="#fff"/></linearGradient><linearGradient id="paint11_linear_462_3774" x1="39.017" x2="130.751" y1="82.585" y2="107.825" gradientUnits="userSpaceOnUse"><stop offset=".13" stop-color="#3B67AD"/><stop offset=".57" stop-color="#227CAA"/><stop offset=".935" stop-color="#118AA8"/></linearGradient><linearGradient id="paint12_linear_462_3774" x1="143.337" x2="86.06" y1="65.631" y2="49.871" gradientUnits="userSpaceOnUse"><stop stop-color="#682C90"/><stop offset=".496" stop-color="#817CB9"/><stop offset="1" stop-color="#fff"/></linearGradient><linearGradient id="paint13_linear_462_3774" x1="41.067" x2="154.148" y1="61.28" y2="92.394" gradientUnits="userSpaceOnUse"><stop offset=".13"/><stop offset=".328" stop-color="#00334B"/><stop offset=".528" stop-color="#006190"/><stop offset=".672" stop-color="#007FBB"/><stop offset=".746" stop-color="#008ACC"/></linearGradient><linearGradient id="paint14_linear_462_3774" x1="41.067" x2="133.073" y1="61.28" y2="86.595" gradientUnits="userSpaceOnUse"><stop offset=".13" stop-color="#3A67B0"/><stop offset=".562" stop-color="#357FBD"/><stop offset=".935" stop-color="#3290C6"/></linearGradient><linearGradient id="paint15_linear_462_3774" x1="157.736" x2="252.896" y1="79.53" y2="105.713" gradientUnits="userSpaceOnUse"><stop offset=".172" stop-color="#4E5CA8"/><stop offset=".994" stop-color="#1FC3F3"/></linearGradient></defs></svg>