<svg xmlns="http://www.w3.org/2000/svg" role="img" viewBox="-2.06 -3.31 367.12 131.37"><title>Fulcio logo</title><style>svg {enable-background:new 0 0 364 125}</style><style>.st0{fill:#fff}.st1{fill:#2e2f71}.st3{fill:#42bfb9}</style><path d="M20.01998 97.90983c-.00555-.0083-.01037-.0171-.01654-.02588.00507.00879.01215.01709.01654.02588zm31.39063-30.28711l3.22131 1.64453.33142.64893v16.354c0 .7832.41931 1.5039 1.09723 1.89307.67792.39404 1.51404.38916 2.18689-.00489l4.09009-2.3877 4.09002 2.3877c.339.19825.71808.2959 1.09974.2959.37658 0 .75073-.09521 1.08715-.29101.67792-.38916 1.09723-1.10987 1.09723-1.89307v-16.3545l.33142-.64843 3.22132-1.64453c.9541-.4873 1.41357-1.59961 1.08465-2.61914l-1.1148-3.4419 1.1148-3.44238c.32892-1.01953-.13055-2.13183-1.08465-2.61865l-3.22132-1.64453-1.6471-3.22168c-.48705-.9541-1.60686-1.40576-2.6187-1.08447l-3.43976 1.11474-3.44232-1.11474c-1.02436-.32129-2.13166.13037-2.61872 1.08447l-1.64459 3.22168-3.22131 1.64453c-.9541.48682-1.41358 1.59668-1.08466 2.61865l1.1148 3.44239-1.1148 3.44189c-.32892 1.02197.13055 2.13183 1.08466 2.61914zm13.9323 14.84326l-1.9057-1.11182c-.33892-.19873-.72057-.29638-1.09966-.29638-.37915 0-.7608.09765-1.09973.29638l-1.9057 1.11182v-9.03467l3.00543-.97314 3.00537.97412v9.0337zm-9.52837-21.57714l-.75824-2.34278 2.1944-1.11963c.40924-.2085.74316-.54248.9516-.95166l1.1198-2.19433 2.34253.76074c.4369.14062.90888.14062 1.34577 0l2.34259-.76074 1.11981 2.19433c.21088.40918.5423.74317.95154.95166l2.19446 1.11963-.7608 2.34278c-.14057.43652-.14057.90869 0 1.3457l.7608 2.34228-2.19446 1.12012c-.40924.208-.74066.54199-.95154.95166L65.353 68.84293l-2.3426-.7583c-.21844-.07031-.44689-.10547-.67284-.10547-.22602 0-.45447.03516-.67292.10547l-2.34252.7583-1.11982-2.19433c-.20843-.40967-.54235-.74365-.9516-.95166l-2.1944-1.12012.75825-2.34228c.14056-.43701.14056-.90918 0-1.3457z" class="st0"/><path d="M87.61098 72.4982V46.76043c0-3.36963-2.73925-6.10889-6.1087-6.10889H43.17275c-3.36944 0-6.1087 2.73926-6.1087 6.10889V72.4982c0 3.36963 2.73926 6.10888 6.1087 6.10888H46.949c1.20764 0 2.18432-.97656 2.18432-2.18408 0-1.208-.97668-2.18457-2.18432-2.18457h-3.77625c-.9591 0-1.73999-.78076-1.73999-1.74023V46.7604c0-.95898.78089-1.73974 1.74-1.73974h38.32952c.9591 0 1.74.78076 1.74 1.73975V72.4982c0 .95947-.7809 1.74023-1.74 1.74023h-3.9444c-1.2077 0-2.18438.97656-2.18438 2.18457 0 1.20752.97668 2.18408 2.18438 2.18408h3.9444c3.36945 0 6.1087-2.73925 6.1087-6.10888zm-53.74475 44.93262c-.17663-.2915-.35052-.58398-.50885-.88525.15961.30078.33039.59522.50885.88525z" class="st0"/><path d="M102.36935 46.30095c-.75446-2.3379-1.578-4.64502-2.7041-6.82666-1.96845-3.81153-4.69263-7.06592-7.72315-10.05567-2.21136-2.18115-4.6336-4.12256-7.3321-5.7002-2.10967-1.2334-4.36187-2.11572-6.64098-2.9829-2.29737-.87354-4.63117-1.61231-6.9737-2.33546-1.43805-.44433-2.90625-.79101-4.39514-.9829-7.17578-.92579-14.02893.20947-20.56073 3.30956l.49713.22754c.12116.22364.38098.53028.23285.71582-.32013.4004.00067.29004.17328.26807.1864-.02295.36658-.09912.5473-.15625 2.22333-.70557 4.4209-1.5122 6.74524-1.84033 1.26038-.17774 2.48944-.5581 3.76367-.63037 1.17627-.0669 2.3595-.0254 3.53327-.11475 3.57538-.27148 7.05212.37842 10.50763 1.13428 1.5548.33984 3.0506.91894 4.54321 1.50195 3.62122 1.41455 7.01386 3.21533 10.13538 5.53858 2.3156 1.72216 4.38885 3.70898 6.42132 5.74365.16889.16943.3415.2793.60572.34912.5097.13379 1.11102.13867 1.48266.60254 1.5102 1.8877 2.56598 4.03662 3.52887 6.23242.83984 1.91406 1.54541 3.88233 2.20947 5.8628 1.45313 4.33447 2.38337 8.77148 2.48822 13.35742.0276 1.2334.0044 2.46728.0044 3.70117l.16754-.00195c.17957-1.6128.4187-3.22217.51788-4.84131.07093-1.15283-.05462-2.31836-.10669-3.47608-.13372-2.94287-.7627-5.79443-1.66845-8.6001zM12.4319 91.91618c-.07276-.12745-.14441-.25586-.21296-.38721.06885.13086.13984.26025.21296.3872zm24.20093 7.10253c-.46076-.32421-.90894-.54736-1.42426-.64355-.5047-.09375-.99554-.22559-1.4632-.46094-1.0614-.53515-2.018-1.19873-2.86914-2.03808-.7539-.74317-1.41864-.53272-1.78772.4707-.21087.57275-.04895 1.12402.00757 1.68799.15753 1.5669 1.02564 2.2793 2.57477 2.02002 1.44312-.2417 2.8623-.62012 4.32233-.7793.19897-.02246.41803-.0542.63965-.25684zm-12.26581-10.2832c.27496.22461.6214.36426.9428.5254.13996.06982.30256.06591.43061-.04395.14435-.125.086-.28125.02759-.4209-.05896-.13965-.11987-.2837-.21216-.4004-.7168-.91161-1.37152-1.88573-2.1781-2.71044-1.72864-1.7666-2.9784-3.84326-4.1139-6.0039-.31634-.60352-.72936-1.16065-.91265-1.8335-.74133-2.7168-1.44934-5.44873-1.62573-8.26612-.13874-2.21386-.688-4.354-1.01563-6.53124-.31824-2.11621-.7099-4.21485-.85052-6.35742-.10859-1.65772-.0816-3.30518.10107-4.95118.17828-1.60644.38977-3.20898.82727-4.77002.79907-2.85058 2.01868-5.52832 3.35126-8.16308 1.33014-2.62988 3.01361-5.01514 4.89416-7.27051 1.16877-1.40137 2.41785-2.73535 3.52265-4.1919.359-.47314.65588-.97607.93085-1.65527-.68104.21094-1.24286.375-1.68476.84277-2.19568 2.32471-4.34802 4.69434-6.6228 6.94044-2.64758 2.61425-4.2859 5.78076-5.43897 9.2495-1.06018 3.18848-1.52337 6.47755-1.50586 9.82716.01575 2.89453.45069 5.7578.81855 8.62304.23913 1.86524.51342 3.73437.67663 5.59912.177 2.01611.43439 4.00293.86621 5.97314.79346 3.62305 2.07459 7.07373 3.79505 10.35157.72436 1.38086 1.70984 2.58496 2.80517 3.71533.68042.70215 1.42298 1.31201 2.1712 1.92236zm40.76623 17.76319c-.92523-.08594-1.8504-.11182-2.78003-.13282-1.40417-.03222-2.80395-.24658-4.20868-.28564-2.74304-.0752-5.45343-.51123-8.172-.79492-2.14416-.22315-4.32104-.6792-6.24175-1.83155-.12934-.07763-.27497-.13134-.41742-.18261-.37415-.13428-.5882-.0083-.63025.39502-.05145.48681.02704.9585.25427 1.38476.32196.60254.6314 1.22461 1.04132 1.76758.93964 1.24365 2.12915 2.10986 3.77619 2.08496 1.13928-.01709 2.27856-.06592 3.41717-.12744.51032-.02832 1.02313-.07324 1.52344-.21338 1.35644-.37988 2.74237-.61572 4.13397-.8247.25049-.0376.49085-.0005.73694.02685 1.24597.13965 2.49255.2705 3.61236.39111 1.5517-.03906 2.93195-.23144 4.14277-1.06592.1532-.10449.39923-.1919.349-.40332-.06336-.26318-.34083-.16992-.5373-.18798zM62.33755 6.90397c.0119.1831.19018.2754.36029.31787.10797.02783.22656.02149.3402.02051.66785-.00586 1.3288.07617 1.98725.17432 4.19867.62646 8.34082 1.53955 12.43903 2.62646 2.85162.75586 5.35486 2.26318 7.64532 4.09961 1.59625 1.2793 2.83093 2.91846 4.19367 4.42773.1814.20118.33514.54493.68164.3667.33392-.17187.23663-.52343.20337-.82275-.01001-.09229-.05524-.18164-.086-.2705-.74005-2.15382-1.79334-4.0708-3.5885-5.58302-2.003-1.687-4.1742-3.0791-6.60334-3.99804-3.88232-1.46973-7.96423-1.93555-12.08691-2.09668-.40045 0-.8028-.03223-1.19891.00586-1.3219.12549-2.67017.05078-3.9494.49804-.12806.04493-.35029.03711-.33771.2339zm51.0711 44.45117c-.61267-4.24755-1.89502-8.26171-3.95514-12.01123-2.31555-4.21728-5.54193-7.65869-9.3175-10.60449-.13745-.10742-.26611-.29883-.57623-.20703.36157.21777.55243.5044.75952.77588 1.82538 2.3877 3.64569 4.78027 5.4773 7.16357 2.1084 2.74512 3.87157 5.66895 4.9776 8.98047.99426 2.979 1.55352 6.02442 1.7224 9.1504.02887.53124.05207 1.06493.04578 1.59667-.02069 1.72168.10675 3.44239-.22467 5.16016-.28058 1.45166-.57684 2.8994-.86182 4.35986.03449-.04248.08094-.08057.10169-.1289 1.927-4.57471 2.56225-9.30323 1.85107-14.23536zM11.90315 90.89176c-.10216-.22558-.19543-.4585-.28618-.69336.09136.23438.1834.46826.28619.69336z" class="st0"/><path d="M110.17788 54.02018c-.21906-3.28564-.8863-6.48437-2.64447-9.37011.74884 3.12207 1.4148 6.25586 1.64203 9.45752.22723 3.20214-.10797 6.41064.09479 9.6245.95727-3.17626 1.12548-6.43993.90765-9.7119zm-6.33344 30.55908c-.35278.31983-.53228.7002-.73315 1.06348-1.07648 1.94824-2.04315 3.97998-3.43347 5.71924-2.4367 3.04687-4.57843 6.33203-7.33527 9.12207-1.01813 1.03027-2.094 1.98047-3.28345 2.81347-.69738.4878-1.3891 1.00391-1.95965 1.64893-.53668.60596-.47455.85644.27808 1.1753.1029.04394.21966.08154.32952.08056 1.00684-.00781 2.01178.05664 3.01923-.09326 1.55731-.23096 3.02045-.75586 4.4585-1.35108 1.21899-.5044 2.30743-1.2793 3.30041-2.11572 1.01935-.85791 1.80591-1.95947 2.34003-3.2246.56244-1.33204 1.00372-2.7046 1.45373-4.07374.5235-1.59033.75513-3.25195 1.10413-4.88477.31763-1.48828.55676-2.98828.7005-4.49853.04083-.42871.1632-.95166-.23914-1.38135zM80.41262 97.08903c-.79907.05029-1.41486.38965-2.03876.67773-3.97332 1.83496-8.16632 2.78467-12.51562 3.02442-3.44916.19091-6.88013-.0586-10.2879-.66407-6.7182-1.1953-12.75477-3.87548-17.99787-8.25586-5.18976-4.33593-9.00616-9.72021-11.81573-15.83642-1.401-3.04932-2.34442-6.25928-3.21381-9.5127.0716 1.03955-.07593 2.0796-.0188 3.09668.05774 1.04541.44568 2.07227.68604 3.10791.28436 1.22315.74133 2.38526 1.18762 3.55567.97858 2.5669 2.17181 4.9917 3.86536 7.18896 1.47442 1.9126 2.92565 3.82569 4.59973 5.57666 1.97223 2.06348 4.17352 3.83936 6.49286 5.47266.79278.55762 1.4707 1.28222 2.35388 1.70068 1.43927.68213 2.8698 1.39356 4.35241 1.96729 1.836.71045 3.68396 1.38476 5.61915 1.83789 1.6828.39453 3.39263.64209 5.0686 1.05957.20087.0503.41553.07178.62268.06299 1.10724-.0459 2.20196.13183 3.3042.1748 1.59057.06299 3.16986.2998 4.77551-.01318.88-.17188 1.80206-.21436 2.71979-.20313.8888.01123 1.79455-.05664 2.66644-.22607 3.17798-.61768 6.18402-1.72998 9.00678-3.32373.18707-.10596.39795-.19385.56744-.46875zm-60.8512 1.90576c.06147-.07227.13556-.13379.20087-.20361.29639-.31641.38764-.58692.28967-.81202.0174.05811.02698.11817.01966.18213-.01325.11475-.0664.23926-.15985.37256-.0467.0669-.10346.13623-.17023.20752-.06488.06885-.13892.13086-.20001.20313-1.26679 1.4912-2.14124 3.11425-2.37494 4.96435-.07788.6167-.0846 1.2588-.01087 1.92969.03241.29492.08582.57959.15345.85693a6.72677 6.72677 0 0 1-.13678-.79687c-.29499-2.68701.698-4.91309 2.38903-6.90381zm11.82764 13.45752c-.00409-.00781-.0102-.01416-.01434-.02197.10272.20556.20001.41308.29858.6206.10596.22315.21448.44531.32099.66797.40142.83838.78149 1.68799 1.20336 2.51416-.40686-.8042-.7757-1.6294-1.16522-2.44385-.21405-.44531-.42053-.8955-.64337-1.33691zM4.97127 46.92448c.00422.51807.03278 1.03272.07227 1.54639-.04028-.51758-.0672-1.03662-.07184-1.5586 0 .00391-.00049.00782-.00043.01221zm.25574 3.18408c-.06299-.43554-.11352-.87353-.15368-1.3125a25.1699 25.1699 0 0 0 .15368 1.3125zM6.54696 40.882c.00384-.00684.00775-.01318.0116-.02002-.00391.00684-.00776.01318-.0116.02002zm3.62036 34.41601c.23474-1.96582.35968-3.94336.39984-5.92383.04205-2.08056-.65216-3.9995-1.30432-5.93066-1.11353-3.29687-2.4411-6.52246-3.32928-9.89306-.27826-1.05616-.50599-2.12158-.67164-3.1963.08075.52589.17133 1.05079.28132 1.57227.11547.54786.24597 1.09375.38916 1.63672.88653 3.36573 2.21264 6.58692 3.32446 9.8789.56982 1.6875 1.17187 3.36622 1.28534 5.15137.01617.25488.02246.5122.0172.77197-.0401 1.97754-.16472 3.95215-.39898 5.91504-.13177 1.10352-.20886 2.20264-.23407 3.29786-.02514 1.09521.00153 2.187.07746 3.27539.15185 2.17675.50042 4.34033 1.02362 6.49414.00067.00293.00164.00537.00232.0078-1.04291-4.30517-1.38855-8.64745-.86243-13.0576z" class="st0"/><path d="M112.74075 45.81999c-1.22083-4.57715-3.59418-8.5337-6.70691-12.06494-2.40906-2.73194-5.10126-5.17627-7.80976-7.60694-2.53528-2.27539-4.56524-4.93213-5.86895-8.12207-.67603-1.65478-1.4839-3.25293-2.52521-4.72217-2.05066-2.89209-4.90546-4.73535-8.05084-6.19629-5.18976-2.41015-10.70594-3.25585-16.36774-3.36816-3.19934-.05615-6.35101.35938-9.45996 1.04639-4.57593 1.01123-8.77582 2.97851-12.85144 5.23584-2.73236 1.5127-5.12012 3.49365-7.51728 5.4663-3.82513 3.14795-7.57373 6.39063-10.8792 10.08545-2.48316 2.7749-5.30274 5.04493-8.56238 6.83106-2.92188 1.60108-5.48353 3.68897-7.7953 6.1001-.71197.74267-1.29925 1.53076-1.78722 2.35742-.00385.00684-.00776.01318-.0116.02002-1.05603 1.79688-1.59412 3.792-1.57569 6.0205 0 .00294.00043.00636.00043.00977.00464.52198.03156 1.04102.07184 1.5586.00848.1084.01984.2168.02979.3252.04016.43896.0907.87695.15368 1.3125.01184.08154.02234.16357.03491.2456.16565 1.0747.39338 2.14013.67164 3.19629.88818 3.3706 2.21575 6.59619 3.32928 9.89306.65216 1.93115 1.34637 3.8501 1.30432 5.93066-.04016 1.98047-.1651 3.95801-.39984 5.92383-.52612 4.41016-.18048 8.75244.86243 13.05762.00225.00976.00402.01904.00628.02832.1546.63672.35681 1.23437.58094 1.81445.09075.23487.18402.46778.28619.69336.09863.21778.20654.42822.3158.6372.06854.13136.1402.25977.21295.38722 1.23584 2.1709 3.06268 3.8623 5.5163 5.04882.47643.23047.99304.3794 1.49395.55957.27338.09864.45935.21924.56128.35938.00617.00879.01099.01758.01654.02588.01422.02246.02191.0459.03198.06933.09797.2251.00672.49561-.28967.81202-.0653.06982-.1394.13134-.20087.2036-1.69104 1.99073-2.68402 4.2168-2.38903 6.90382a6.72677 6.72677 0 0 0 .13678.79687c.91943 3.93067 5.22253 6.01563 8.9541 4.10108 1.86438-.95606 4.1554-.22217 5.11145 1.63379.00415.0078.01025.01416.01434.02197.22284.4414.42932.8916.64337 1.33691.38953.81446.75836 1.63965 1.16522 2.44385.05286.1045.10535.20898.15973.3125.15833.30127.33222.59375.50885.88525.31824.52442.66034 1.03565 1.07117 1.50977 1.62384 1.87207 3.6764 2.55518 6.0918 2.2583 1.65582-.20459 3.13843-.89648 4.56769-1.70947 2.77758-1.5796 5.19543-3.65625 7.68676-5.62696.83484-.66015 1.72992-.8916 2.76813-.77587 1.69544.18945 3.17554.89453 4.55585 1.84277 2.27722 1.56299 4.72339 2.76758 7.37915 3.5376 4.85461 1.40869 9.7569 1.82275 14.71503.61377 4.8728-1.1875 9.26226-3.40088 13.32092-6.32618 2.52649-1.82128 4.60419-4.01562 6.16022-6.72265 1.52716-2.65723 2.40533-5.54053 3.10015-8.4917 1.01624-4.3125 1.38599-8.71582 1.71112-13.12012.2749-3.7163.89008-7.36963 1.97852-10.92969.86871-2.84033 2.11658-5.5415 3.22693-8.2915.95477-2.36572 1.53284-4.80615 1.78265-7.34716.40363-4.10108-.1908-8.09229-1.24157-12.03174zm-1.28486 19.8994c.28498-1.46044.58124-2.9082.86182-4.35985.33142-1.71777.20398-3.43848.22467-5.16016.00629-.53174-.0169-1.06543-.04578-1.59668-.16888-3.12597-.72814-6.17138-1.7224-9.15039-1.10603-3.31152-2.8692-6.23535-4.9776-8.98047-1.83161-2.3833-3.65192-4.77588-5.4773-7.16357-.2071-.27149-.39795-.5581-.75952-.77588.31012-.0918.43878.0996.57623.20703 3.77557 2.9458 7.00195 6.3872 9.3175 10.6045 2.06012 3.7495 3.34247 7.76367 3.95514 12.01122.71118 4.93213.07593 9.66065-1.85107 14.23535-.02075.04834-.0672.08643-.10169.1289zm-2.28045-11.6118c-.22724-3.20166-.8932-6.33545-1.64203-9.45752 1.75818 2.88574 2.42541 6.08447 2.64447 9.37011.21783 3.27198.04962 6.53565-.90765 9.71192-.20276-3.21387.13244-6.42237-.0948-9.62451zm-6.89649 41.23632c-.45 1.36914-.8913 2.7417-1.45373 4.07373-.53412 1.26514-1.32068 2.3667-2.34003 3.22461-.99298.83643-2.08142 1.61133-3.30041 2.11572-1.43805.59522-2.90119 1.12012-4.4585 1.35108-1.00745.1499-2.01239.08545-3.01923.09326-.10986.00098-.22662-.03662-.32952-.08057-.75263-.31885-.81476-.56933-.27808-1.1753.57056-.64501 1.26227-1.16112 1.95965-1.64892 1.18946-.833 2.26532-1.7832 3.28345-2.81347 2.75684-2.79004 4.89856-6.0752 7.33527-9.12207 1.39032-1.73926 2.357-3.771 3.43347-5.71924.20087-.36328.38037-.74365.73315-1.06348.40235.42969.27997.95264.23914 1.38135-.14374 1.51025-.38287 3.01025-.7005 4.49853-.349 1.63282-.58063 3.29444-1.10413 4.88477zm-34.107 5.76367c-.91772-.01123-1.83977.03125-2.71978.20313-1.60565.31299-3.18494.07617-4.77551.01318-1.10224-.04297-2.19696-.2207-3.3042-.1748-.20715.00879-.42181-.0127-.62268-.063-1.67597-.41747-3.3858-.66503-5.0686-1.05956-1.93519-.45313-3.78315-1.12744-5.61915-1.8379-1.4826-.57372-2.91314-1.28515-4.35241-1.96728-.88318-.41846-1.5611-1.14306-2.35388-1.70068-2.31934-1.6333-4.52063-3.40918-6.49286-5.47266-1.67408-1.75097-3.1253-3.66406-4.59973-5.57666-1.69355-2.19726-2.88678-4.62207-3.86536-7.18896-.44629-1.17041-.90326-2.33252-1.18762-3.55567-.24036-1.03564-.6283-2.0625-.68604-3.1079-.05713-1.0171.0904-2.05714.0188-3.09669.86939 3.25342 1.8128 6.46338 3.2138 9.5127 2.80958 6.1162 6.62598 11.50049 11.81574 15.83642 5.2431 4.38037 11.27966 7.06055 17.99787 8.25586 3.40777.60547 6.83874.85498 10.2879.66407 4.3493-.23975 8.5423-1.18946 12.51562-3.02442.6239-.28808 1.23969-.62744 2.03876-.67773-.1695.2749-.38037.36279-.56744.46875-2.82276 1.59375-5.8288 2.70605-9.00678 3.32373-.87189.16943-1.77765.2373-2.66644.22607zm-2.8504 5.98242c-1.2108.83448-2.59106 1.02686-4.14276 1.06592-1.1198-.1206-2.36639-.25146-3.61236-.39111-.2461-.02735-.48645-.06445-.73694-.02686-1.3916.20899-2.77753.44483-4.13397.82471-.5003.14014-1.01312.18506-1.52344.21338-1.13861.06152-2.2779.11035-3.41717.12744-1.64704.0249-2.83655-.8413-3.77619-2.08496-.40991-.54297-.71936-1.16504-1.04132-1.76758-.22723-.42627-.30572-.89795-.25427-1.38476.04205-.40332.2561-.5293.63025-.39502.14245.05127.28808.10498.41742.18261 1.92071 1.15235 4.0976 1.6084 6.24176 1.83155 2.71856.28369 5.42895.71972 8.172.79492 1.40472.03906 2.8045.25342 4.20867.28564.92963.021 1.8548.04688 2.78003.13282.19647.01806.47394-.0752.5373.18798.05023.21143-.1958.29883-.349.40332zm-14.9956-48.9707c-.32892-1.02197.13055-2.13183 1.08466-2.61865l3.22131-1.64453 1.6446-3.22168c.48705-.9541 1.59435-1.40576 2.6187-1.08447l3.44233 1.11474 3.43976-1.11474c1.01184-.32129 2.13165.13037 2.6187 1.08447l1.6471 3.22168 3.22132 1.64453c.9541.48682 1.41357 1.59912 1.08465 2.61865l-1.1148 3.44239 1.1148 3.44189c.32892 1.01953-.13055 2.13183-1.08465 2.61914l-3.22132 1.64453-.33142.64844v16.35449c0 .7832-.4193 1.5039-1.09723 1.89307-.33642.1958-.71057.29101-1.08715.29101-.38166 0-.76075-.09765-1.09974-.2959l-4.09002-2.3877-4.09009 2.3877c-.67285.39405-1.50897.39893-2.18689.00489-.67792-.38916-1.09723-1.10987-1.09723-1.89307v-16.354l-.33142-.64893-3.22131-1.64453c-.9541-.4873-1.41358-1.59717-1.08466-2.61914l1.1148-3.4419-1.1148-3.44238zm27.23193 20.4878c-1.2077 0-2.18438-.97657-2.18438-2.18409 0-1.208.97668-2.18457 2.18438-2.18457h3.9444c.9591 0 1.74-.78076 1.74-1.74023V46.7604c0-.95898-.7809-1.73974-1.74-1.73974H43.17275c-.9591 0-1.73999.78076-1.73999 1.73975V72.4982c0 .95947.78089 1.74023 1.74 1.74023H46.949c1.20764 0 2.18432.97656 2.18432 2.18457 0 1.20752-.97668 2.18408-2.18432 2.18408h-3.77625c-3.36944 0-6.1087-2.73925-6.1087-6.10888V46.7604c0-3.36962 2.73926-6.10888 6.1087-6.10888h38.32953c3.36945 0 6.1087 2.73926 6.1087 6.10889V72.4982c0 3.36963-2.73925 6.10888-6.1087 6.10888h-3.9444zm26.58661-20.22998c-.09918 1.61914-.33831 3.22851-.51788 4.8413l-.16754.00196c0-1.23389.0232-2.46777-.0044-3.70117-.10485-4.58594-1.0351-9.02295-2.48822-13.35742-.66406-1.98047-1.36963-3.94874-2.20947-5.8628-.96289-2.1958-2.01868-4.34472-3.52887-6.23242-.37164-.46387-.97296-.46875-1.48266-.60254-.26423-.06982-.43683-.17969-.60572-.34912-2.03247-2.03467-4.10571-4.02149-6.42132-5.74365-3.12152-2.32325-6.51416-4.12403-10.13538-5.53858-1.49261-.583-2.9884-1.1621-4.54321-1.50195-3.4555-.75586-6.93225-1.40576-10.50763-1.13428-1.17377.08936-2.357.04785-3.53327.11475-1.27423.07226-2.5033.45263-3.76367.63037-2.32434.32812-4.5219 1.13476-6.74524 1.84033-.18072.05713-.3609.1333-.5473.15625-.1726.02197-.4934.13232-.17328-.26807.14813-.18554-.1117-.49218-.23285-.71582l-.49713-.22754c6.5318-3.1001 13.38495-4.23535 20.56073-3.30957 1.4889.1919 2.9571.53858 4.39514.98291 2.34253.72315 4.67633 1.46192 6.9737 2.33545 2.27911.8672 4.5313 1.74952 6.64099 2.98291 2.69848 1.57764 5.12073 3.51905 7.3321 5.7002 3.0305 2.98975 5.75469 6.24414 7.72314 10.05567 1.1261 2.18164 1.94964 4.48876 2.7041 6.82666.90576 2.80566 1.53473 5.65722 1.66845 8.6001.05207 1.1577.17762 2.32324.1067 3.47607zM67.82357 6.16618c4.12268.16113 8.20459.62695 12.08691 2.09668 2.42914.91894 4.60035 2.31103 6.60334 3.99804 1.79516 1.51221 2.84845 3.4292 3.5885 5.58301.03076.08887.07599.17822.086.27051.03326.29932.13055.65088-.20337.82275-.3465.17823-.50025-.16552-.68164-.3667-1.36274-1.50927-2.59742-3.14843-4.19367-4.42773-2.29046-1.83643-4.7937-3.34375-7.64532-4.0996-4.0982-1.08692-8.24036-2-12.43903-2.62647-.65845-.09815-1.3194-.18018-1.98724-.17432-.11365.00098-.23224.00732-.34021-.0205-.1701-.04249-.3484-.13477-.3603-.31788-.01257-.19678.20966-.18896.33771-.23389 1.27924-.44726 2.6275-.37255 3.9494-.49804.39612-.03809.79847-.00586 1.19892-.00586zM19.39065 83.09782c-1.72046-3.27784-3.00159-6.72852-3.79505-10.35157-.43182-1.97021-.6892-3.95703-.8662-5.97314-.16322-1.86475-.4375-3.73388-.67664-5.59912-.36786-2.86523-.8028-5.72851-.81855-8.62304-.01751-3.34961.44568-6.63868 1.50586-9.82715 1.15308-3.46875 2.79139-6.63526 5.43897-9.24951 2.27478-2.2461 4.42712-4.61573 6.6228-6.94044.4419-.46777 1.00372-.63183 1.68476-.84277-.27497.6792-.57184 1.18213-.93085 1.65527-1.1048 1.45655-2.35388 2.79053-3.52265 4.1919-1.88055 2.25537-3.56402 4.64062-4.89416 7.2705-1.33258 2.63477-2.55219 5.3125-3.35126 8.1631-.4375 1.56103-.64899 3.16357-.82727 4.77001-.18268 1.646-.20966 3.29346-.10107 4.95118.14062 2.14257.53228 4.2412.85052 6.35742.32764 2.17724.8769 4.31738 1.01563 6.53124.17639 2.81739.8844 5.54932 1.62573 8.26612.18329.67285.59631 1.22998.91266 1.8335 1.1355 2.16064 2.38525 4.2373 4.11389 6.0039.80658.8247 1.4613 1.79883 2.1781 2.71045.09229.1167.1532.26074.21216.40039.0584.13965.11676.2959-.02759.4209-.12805.10986-.29065.11377-.4306.04394-.32141-.16113-.66785-.30078-.94281-.52539-.74823-.61035-1.49079-1.22021-2.1712-1.92236-1.09534-1.13037-2.08082-2.33447-2.80518-3.71533zm12.28021 16.95703c-1.54913.25927-2.41724-.45313-2.57477-2.02002-.05652-.56397-.21844-1.11524-.00757-1.68799.36908-1.00342 1.03382-1.21387 1.78772-.4707.85114.83935 1.80774 1.50293 2.86914 2.03808.46766.23535.9585.36719 1.4632.46094.51532.0962.9635.31934 1.42426.64355-.22162.20264-.44068.23438-.63965.25684-1.46003.15918-2.87921.5376-4.32233.7793z" class="st3"/><path d="M59.33212 73.43131v9.03467l1.9057-1.11182c.33892-.19873.72058-.29638 1.09973-.29638.37909 0 .76074.09765 1.09967.29638l1.9057 1.11182v-9.0337l-3.00537-.97411-3.00543.97314zm-4.27582-8.85449l2.1944 1.12012c.40923.208.74316.54199.9516.95166l1.1198 2.19433 2.34253-.7583c.21845-.07031.4469-.10547.67292-.10547.22595 0 .4544.03516.67285.10547l2.34259.7583 1.11981-2.19433c.21088-.40967.5423-.74365.95154-.95166l2.19446-1.12012-.7608-2.34228c-.14057-.43701-.14057-.90918 0-1.3457l.7608-2.34278-2.19446-1.11963c-.40924-.2085-.74066-.54248-.95154-.95166L65.353 54.28044l-2.3426.76074c-.43688.14062-.90887.14062-1.34576 0l-2.34252-.76074-1.11982 2.19433c-.20843.40918-.54235.74317-.9516.95166l-2.1944 1.11963.75825 2.34278c.14056.43652.14056.90869 0 1.3457l-.75824 2.34228z" class="st3"/><g><path d="M168.60283 15.724c-2.85864 1.11032-3.80527 4.6475-1.83943 6.95424.28132.3304.32713.53864-.06258.81196-1.3456.94462-1.3576 2.948-.38745 4.0588.2608.29886.3001.40048-.07234.6638-2.09523 1.48125-1.79187 4.15091.56392 5.21918 1.96658.89206 4.0583.90807 6.14828.84 1.8437-.06008 3.65984-.31839 5.22444-1.4247 1.24147-.87804 1.75983-2.09548 1.58562-3.60126-.1697-1.46974-1.04423-2.3613-2.39433-2.83186-1.43344-.49909-2.92746-.32588-4.19647-.36493h-2.959c-.37946-.0005-.7529-.04255-1.08403-.24228-.43203-.25981-.4886-.66179-.34818-1.0993.15569-.48558.50261-.40549.90132-.31238 1.94055.45004 3.87334.42951 5.76659-.23628 2.22714-.78343 3.64757-2.85588 3.09466-4.95637-.32338-1.22795-.17346-1.96082.79595-2.73924.72485-.5817.71234-1.37864.22175-1.92228-.46003-.5091-1.30754-.55165-1.99986-.06358-.4588.32389-.89856.6788-1.31956 1.05075-.22477.19823-.39296.21125-.6813.11013-2.32526-.81597-4.6465-.81246-6.958.0856zm.8047 13.02493c.86702.03254 1.73555.00851 2.60358.00851v.02203c.86754 0 1.7353-.001 2.60309.0005.38044.0005.74588.0826 1.07977.2623.7509.40399.84451 1.4332.1622 1.9303-.2588.18822-.53563.36142-.86478.44502-1.75808.44803-3.53119.45604-5.29377.10262-1.25048-.2503-1.76659-1.0978-1.3546-2.03991.19998-.45755.49884-.7529 1.06451-.73137zm4.5559-10.94597c.88755.35693 1.38613 1.30855 1.29454 2.29422-.09162.98717-.83526 1.75458-1.97484 2.00538-.31864.07008-.65078.07809-1.02222.11914-.9336-.03504-1.89224-.1632-2.59708-.9286-.98466-1.06877-.56967-2.83786.81197-3.4666 1.14885-.52263 2.33476-.48709 3.48762-.02354zm74.14408 7.19352c.3384 1.71103 1.07703 3.21632 2.4957 4.26856 2.93098 2.17458 6.11224 2.29622 9.38263.90007 1.14185-.48758 2.04767-1.33258 2.46991-2.56104.20425-.5932.12567-1.17339-.38495-1.6029-.49359-.41549-1.05374-.32738-1.57938-.07709-.31237.14918-.63049.34641-.86102.59921-1.1621 1.27652-2.64563 1.52931-4.25003 1.3551-2.116-.23076-3.70187-1.57986-3.9792-3.2989-.05933-.36844-.03305-.52312.41048-.5151 1.55233.02852 3.10517.011 4.65777.011 1.55258 0 3.10517.01102 4.65778-.0035 1.14984-.01151 1.67547-.48307 1.7951-1.62342.09412-.89707-.03479-1.78862-.32037-2.63463-.93387-2.76427-2.90845-4.3061-5.77258-4.66852-3.05988-.38746-5.71828.41348-7.5377 3.0431-1.42117 2.05443-1.66296 4.3867-1.18414 6.80806zm3.374-4.4823c.59295-1.8482 2.25192-2.8609 4.40597-2.6907 1.8682.14818 3.16776 1.19392 3.581 2.84087.12338.49259.08435.70934-.51664.68431-1.1496-.04705-2.30246-.01351-3.45407-.01351-1.15162 0-2.30298.0025-3.4546-.001-.74514-.0025-.79795-.0836-.56166-.81997zm-29.38958-5.45547c-4.61145.02153-7.89834 3.38651-7.85455 8.04003.04431 4.70207 3.3377 7.95943 8.02727 7.9399 4.91682-.02052 8.14213-3.24534 8.12286-8.12112-.01877-4.7316-3.3442-7.88234-8.29558-7.8588zm.13767 12.84972c-2.67342-.02603-4.59995-2.12251-4.54663-4.94786.0528-2.7963 2.02365-4.82872 4.64625-4.79167 2.75277.03854 4.68555 2.1165 4.61246 4.95787-.07408 2.88141-1.97233 4.8077-4.71208 4.78166zm-37.67012 1.0858c1.5551 1.58587 3.5432 2.00537 5.07876 2.0379 1.81641-.001 3.01433-.1772 4.14242-.70733 2.84712-1.33809 3.55845-5.22169 1.32731-7.30115-.61122-.56918-1.3621-.89106-2.15906-1.12684-1.37613-.40798-2.82684-.48807-4.1852-.96564-.79494-.27933-1.21218-.82999-1.19567-1.54283.01552-.66579.45004-1.22695 1.2625-1.40917 1.38238-.30987 2.6937-.14917 3.85206.77542.49259.39347.91234.88755 1.5153 1.13735.53213.21976 1.03873.24279 1.50928-.15168.47307-.39697.55591-.91258.412-1.46924-.13041-.5046-.37896-.95563-.74363-1.3401-1.00395-1.05774-2.29247-1.5288-3.68663-1.73354-2.03941-.29936-4.04279-.23929-5.8229.97916-2.26243 1.54883-2.4146 4.87177-.31036 6.61233.92936.76841 2.06545 1.06726 3.21932 1.32106 1.00519.22127 2.04918.29585 3.00355.71735.82297.36344 1.2232 1.0137 1.1291 1.75759-.09737.77041-.60148 1.29803-1.49828 1.46173-1.74433.31837-3.31067-.04255-4.5997-1.32507-.35092-.34942-.70385-.69583-1.14586-.9266-.49158-.2573-1.01094-.2603-1.47725.02002-.48808.29285-.65152.78844-.5902 1.3436.0816.73336.4653 1.32757.96314 1.83567zm-37.27165-.97967c-1.5874.3369-3.0779.13516-4.35817-.96114-.40998-.35141-.80596-.71985-1.21994-1.06626-.52062-.43552-1.31781-.5086-1.83918-.14918-.5842.40148-.65779.99068-.49409 1.62342.13716.52963.41199.98768.78444 1.39566 1.58963 1.74156 3.67985 2.12001 5.88872 2.13703.30536 0 .61398.03004.91534-.0045 1.99486-.22978 3.75343-.86403 4.72008-2.81985.95614-1.93429.43753-4.25704-1.2705-5.48149-.93485-.6708-2.05093-.89656-3.155-1.13234-1.00593-.21526-2.04665-.27933-3.0028-.71385-.64977-.29535-.99017-.78192-.95512-1.49277.03654-.73286.49157-1.15486 1.15762-1.33658 1.17413-.32088 2.30498-.22276 3.391.38195.64702.35993 1.1181.9306 1.7263 1.32958.57418.37645 1.18691.47706 1.77761.07409.5882-.40098.6345-1.0157.45604-1.63544-.25905-.90157-.86577-1.54383-1.66647-2.00037-2.20562-1.25749-4.55915-1.40667-6.95124-.7549-2.6176.71385-3.99021 3.1963-3.16825 5.60865.56567 1.66097 1.92428 2.42087 3.5019 2.84287 1.29228.3454 2.61685.57017 3.90538.9271.81096.22476 1.22545.91959 1.1889 1.71252-.03454.74238-.5136 1.3416-1.33257 1.5158zm52.7665-9.55632c.60447.06858 1.2197.07509 1.82893.06007.39596-.00951.52836.10963.52085.51561-.02353 1.2695-.0085 2.5395-.0085 3.80951.00025 1.22295-.02003 2.4464.00576 3.66835.02827 1.3436.46129 2.54702 1.5203 3.41805 1.66172 1.36662 3.52042 1.3511 5.43969.63325.97516-.36493 1.78111-.94562 2.22014-1.92478.28433-.63475.23777-1.272-.29386-1.74657-.53413-.47706-1.15637-.43101-1.75308-.05707-.35591.22327-.6928.48157-1.06425.6733-1.46325.7559-2.68468.04906-2.69945-1.57837-.02052-2.2812.00976-4.5629-.01727-6.8436-.00602-.5026.19673-.57569.62048-.56568 1.01096.02203 2.0229.00801 3.03435.00651.45204-.0005.90957-.03804 1.27426-.32488.49658-.39047.7206-.91158.58143-1.55535-.14067-.65127-.55715-1.05625-1.19741-1.12133-.74588-.07659-1.50228-.04154-2.25393-.06908-.65327-.02352-1.49327.27183-1.90951-.11413-.4245-.39447-.0886-1.24498-.13666-1.89324-.02077-.28084-.00775-.56567-.0468-.8435-.13241-.94262-.84076-1.54684-1.72555-1.49177-.94712.05957-1.58237.73337-1.59664 1.71153-.01.70533-.02153 1.41217.00551 2.1165.01526.39147-.09462.54114-.5086.52613-.60923-.02103-1.22446-.01402-1.83017.04906-.77016.08009-1.34034.73787-1.33509 1.45272.00602.77291.52838 1.39765 1.32508 1.48876zm35.31835 12.19645c.55815.37244 1.14961.37694 1.73755.0891.64427-.31537.87804-.88504.87955-1.56485.0045-2.14054.0015-4.28157.00175-6.4221 0-.80396.08534-1.5954.36217-2.3558.27934-.7679.69482-1.44821 1.4437-1.83467 1.05126-.54264 1.88926-.32639 2.96153.69883.52511.50209 1.1053.73387 1.85469.49558.65928-.21075.93211-.6823 1.03824-1.29003.1364-.77992-.06208-1.48576-.56217-2.106-.69809-.86602-1.64395-1.20742-2.71323-1.29402-1.73954-.14067-3.16624.46905-4.29759 1.87171-.04704-.12915-.07509-.18271-.0866-.23978-.23276-1.14235-.83999-1.63394-1.88723-1.5268-.90282.0926-1.47825.78092-1.48 1.82666-.00726 4.02276-.00475 8.04553-.00126 12.0683.0005.64025.18573 1.20792.7489 1.58387zm-76.87933-15.49085c-.94112-.00851-1.68074.63925-1.68575 1.6079-.02252 4.16343-.01877 8.32687-.00125 12.4903.00375.8475.56342 1.49477 1.28478 1.62993 1.15687.21726 2.04992-.48157 2.06544-1.683.02603-2.04642.007-4.09284.007-6.13927-.00048-2.06995.02053-4.1404-.009-6.20985-.01501-1.06176-.6718-1.687-1.66122-1.69601zm.02028-6.01163c-1.1844-.011-2.13002.91459-2.12201 2.07747.008 1.1794.91133 2.06344 2.118 2.07245 1.15162.00901 2.07095-.88705 2.07797-2.0244.0075-1.1874-.89707-2.1145-2.07396-2.12552z" class="st1"/><path d="M142.80067 95.25407V67.48844h-5.48193c-2.40039 0-4.12012-1.64844-4.12012-3.97753 0-2.29297 1.71973-3.94043 4.12012-3.94043h5.48193v-1.00391c0-7.63086 4.94434-12.25293 13.00538-12.25293 3.4038 0 6.30566.78809 8.02539 2.11426 1.0747.82422 1.7915 2.07812 1.7915 3.40332 0 1.9707-1.32568 3.33203-3.26074 3.33203-.60889 0-1.21778-.21484-1.8628-.46582-.93164-.42969-2.11376-.9668-3.97705-.9668-3.33203 0-4.97998 1.71973-4.97998 4.9795v.86035h9.35108c2.40039 0 4.08447 1.64746 4.08447 3.94043 0 2.3291-1.68408 3.97753-4.08447 3.97753h-9.35108v27.76563c0 2.65136-1.7915 4.55078-4.40673 4.55078-2.54395 0-4.33497-1.89942-4.33497-4.55078zm68.94434-31.958v31.958c0 2.65136-1.82715 4.55078-4.40674 4.55078-2.54394 0-4.33545-1.89942-4.33545-4.55078v-.82325c-2.43603 3.6543-6.8789 5.625-12.28857 5.625-9.70947 0-16.08692-6.05566-16.08692-16.875V63.26091c0-2.58008 1.82764-4.51465 4.3711-4.51465 2.57959 0 4.3711 1.9707 4.3711 4.51465v18.41503c0 6.98633 3.54687 10.3545 9.27929 10.3545 6.41309 0 10.354-4.44337 10.354-10.96387v-17.7705c0-2.68653 1.7915-4.54981 4.33545-4.54981 2.5796 0 4.40674 1.89844 4.40674 4.5498zm14.41992 31.958v-44.1748c0-2.65137 1.82715-4.51465 4.40674-4.51465 2.54395 0 4.33496 1.86328 4.33496 4.51465v44.1748c0 2.65136-1.79101 4.55078-4.33496 4.55078-2.57959 0-4.40674-1.89942-4.40674-4.55078zm20.31934-15.97852c0-12.1455 8.6704-20.78027 20.45802-20.78027 6.41309 0 11.32129 1.9707 14.25928 5.05176 2.042 2.11425 3.36767 4.80078 3.36767 6.80761 0 2.18555-1.54052 3.79785-3.69043 3.79785-1.89843 0-3.08105-.78906-4.3706-2.47265-1.86328-3.04492-5.12354-5.0879-9.2793-5.0879-6.80761 0-11.75148 5.16016-11.75148 12.6836 0 7.48828 4.94387 12.68262 11.75148 12.68262 4.58594 0 7.70264-2.43653 9.52979-5.55274 1.18261-1.68457 2.22168-2.43652 4.08447-2.43652 2.11377 0 3.86963 1.6123 3.86963 3.86914 0 1.93457-1.36182 4.6582-3.29639 6.7002-3.08105 3.2246-8.24023 5.51757-14.47412 5.51757-11.78761 0-20.45802-8.63476-20.45802-20.78027zm54.1592-36.07812c3.15234 0 5.40966 2.32812 5.40966 5.37402 0 3.08106-2.25732 5.40918-5.40967 5.40918-3.15332 0-5.48193-2.32812-5.48193-5.40918 0-3.0459 2.32861-5.37402 5.48193-5.37402zm-4.44288 52.05664v-31.958c0-2.68653 1.82715-4.54981 4.40674-4.54981 2.54395 0 4.33496 1.86328 4.33496 4.5498v31.958c0 2.65137-1.79101 4.55079-4.33496 4.55079-2.57959 0-4.40674-1.89942-4.40674-4.55078zm20.02881-15.97852c0-12.5039 8.77783-20.78027 20.99512-20.78027 12.25293 0 21.03076 8.27636 21.03076 20.78027 0 12.46777-8.77783 20.78027-21.03076 20.78027-12.21729 0-20.99512-8.3125-20.99512-20.78027zm20.99512 12.68262c7.02246 0 12.00244-5.12305 12.00244-12.68262s-4.97998-12.6836-12.00244-12.6836c-7.02197 0-12.00196 5.12403-12.00196 12.6836s4.97999 12.68262 12.00196 12.68262z" class="st1"/></g></svg>