<svg xmlns="http://www.w3.org/2000/svg" role="img" viewBox="-2.95 -4.45 413.40 133.65"><title>Gitsign logo</title><style>svg {enable-background:new 0 0 410 125}</style><style>.st0{fill:#fff}.st1{fill:#2e2f71}</style><path d="M10.17489 75.31589c.23498-1.96826.3601-3.94849.4002-5.93164.04212-2.08374-.65307-4.00537-1.30627-5.9397-1.11499-3.30103-2.44476-6.5315-3.33386-9.9065-.28467-1.08056-.51862-2.17016-.68524-3.27002.08337.55518.17761 1.10864.29352 1.6587.11547.54785.24597 1.09326.38916 1.63671.88653 3.36524 2.21264 6.58692 3.32446 9.87842.56982 1.688 1.17187 3.36622 1.28534 5.15186.01617.25488.02246.5122.0172.77197-.0401 1.97705-.16472 3.95215-.39898 5.91504-.13177 1.10303-.20886 2.20215-.23407 3.29785-.02514 1.09522.00153 2.18653.07746 3.2749.15185 2.17676.50042 4.34034 1.02362 6.49463.0011.0044.00287.0088.00396.01319-1.0385-4.30103-1.38263-8.63965-.8565-13.04541zm-5.20362-28.3916c.00428.5249.03364 1.04613.07404 1.56591-.04193-.52759-.0683-1.05737-.07312-1.58984.00006.00805-.00098.01587-.00092.02392zM19.58212 99.0461c.06164-.07226.1355-.13403.2008-.20386.31671-.33789.40204-.62377.2696-.8579.01617.05664.02624.11474.0191.17675-.01325.11524-.0664.23975-.15985.37305-.0467.0669-.10346.13574-.17023.20703-.06488.06934-.13892.13135-.20001.20361-1.26679 1.49121-2.14124 3.11377-2.37494 4.96436-.07788.6167-.0846 1.25879-.01087 1.92969.03461.3142.0951.61596.16956.9099-.05939-.2556-.10565-.5183-.13544-.78905-.29584-2.69092.69861-4.91944 2.39228-6.91358zm11.84387 13.47705c-.00745-.01465-.01844-.02612-.026-.04052.09314.18847.18304.37841.27331.5686.10596.22314.21448.44531.32099.66797.41961.87597.81518 1.76513 1.2608 2.62646-.41492-.81665-.78888-1.65625-1.18494-2.48388-.21393-.44654-.42053-.89698-.64416-1.33863zm33.7918-5.9624c-.92626-.08594-1.85333-.11206-2.78399-.13306-1.40619-.03222-2.80798-.24682-4.21448-.28564-2.74707-.07617-5.46112-.51245-8.18365-.79639-2.14691-.22412-4.32715-.67968-6.2503-1.83423-.12946-.07788-.27552-.1311-.41846-.18261-.37403-.13477-.58869-.00806-.6311.3955-.05122.48755.02734.95972.25487 1.386.32282.604.63245 1.2268 1.04273 1.77001.94116 1.2461 2.13226 2.11353 3.78162 2.08838 1.14105-.01709 2.2821-.06543 3.42169-.12769.51153-.02807 1.02453-.073 1.52557-.21362 1.35864-.37988 2.74664-.6167 4.13995-.82568.25129-.03784.49183-.0005.7381.0271 1.24744.13965 2.49585.271 3.61762.3916 1.55365-.03882 2.93573-.23242 4.14843-1.06738.1532-.10523.3996-.19263.349-.40381-.06292-.26367-.34063-.17041-.5376-.18848zm37.2884-60.28223c-.7558-2.34155-1.58002-4.6521-2.7082-6.83667-1.9707-3.81665-4.69854-7.07568-7.73358-10.06934-2.21466-2.18457-4.64056-4.1289-7.34234-5.7085-2.1128-1.23534-4.3681-2.11889-6.65033-2.9868-2.30097-.875-4.63776-1.61451-6.98364-2.33912-1.44019-.44482-2.91016-.79175-4.4015-.98413-7.1856-.92725-14.04852.20972-20.5896 3.3142l.498.22755c.1214.2246.3819.531.2329.71728-.32043.40137.00092.29029.17414.2688.18628-.02344.3664-.0996.54785-.15722 2.2265-.70606 4.42676-1.51392 6.75409-1.84229 1.26306-.17822 2.49322-.55884 3.76965-.63184 1.17761-.0669 2.36255-.02514 3.53784-.11425 3.58057-.27246 7.06195.37841 10.52253 1.135 1.55737.34058 3.05499.92042 4.54986 1.50464 3.6261 1.4165 7.02362 3.21924 10.14972 5.54566 2.31866 1.72534 4.3944 3.71435 6.42981 5.75244.16913.16943.3421.28003.60693.34937.51038.13403 1.11237.13867 1.48432.60351 1.51245 1.8899 2.56976 4.04248 3.53436 6.24097.84076 1.91675 1.54736 3.88745 2.21228 5.87134 1.4552 4.34106 2.38715 8.78344 2.49152 13.37597.02807 1.23487.0044 2.47095.0044 3.70655l.16796-.00196c.17969-1.61523.41937-3.2273.51886-4.8479.0708-1.15478-.05475-2.32226-.10742-3.48144-.13343-2.94654-.7635-5.8025-1.67041-8.61182zm-68.7204 51.68555c-1.06305-.53638-2.02057-1.20044-2.87323-2.04077-.75488-.74414-1.42065-.5332-1.79047.47168-.21081.57324-.04882 1.12524.00794 1.68994.15771 1.56885 1.02704 2.28223 2.57812 2.02295 1.44538-.2417 2.86664-.6211 4.32825-.78076.19958-.02197.41895-.05396.64093-.25684-.46149-.3247-.91016-.54858-1.4267-.64429-.50537-.0935-.99676-.22558-1.46484-.4619zM62.77883 7.14474c.10828.02759.2268.021.34064.02026.669-.00585 1.331.07593 1.99005.17432 4.20477.62695 8.35254 1.542 12.45636 2.63013 2.85602.75708 5.36298 2.26684 7.65631 4.10547 1.5982 1.2815 2.83496 2.92212 4.19959 4.43432.1814.20118.33593.54517.68255.36695.33466-.17237.23725-.52442.20386-.82373-.01025-.09278-.0553-.1814-.0863-.27173-.74134-2.15625-1.79602-4.07569-3.59351-5.58985-2.00592-1.68994-4.18048-3.08398-6.61273-4.0044-3.88758-1.47143-7.97559-1.93798-12.104-2.09936-.40034 0-.8039-.03198-1.20075.00562-1.32336.12573-2.67352.05127-3.9549.49902-.12756.04468-.35046.0376-.3377.23438.01172.1831.19049.27563.36053.3186zM25.58517 88.43161c-.71802-.9126-1.3736-1.88818-2.18158-2.71362-1.73133-1.76929-2.98273-3.84888-4.11939-6.01245-.3172-.60425-.73071-1.1626-.91424-1.8357-.74213-2.7207-1.45136-5.45678-1.628-8.27807-.13873-2.21729-.6889-4.36036-1.01696-6.5403-.31885-2.11889-.711-4.22094-.85187-6.3662-.10889-1.6604-.08136-3.30982.1015-4.95874.17822-1.60816.39026-3.2129.82825-4.77612.8001-2.85523 2.0216-5.53663 3.35577-8.17505 1.33191-2.6338 3.01783-5.02222 4.90119-7.28077 1.17047-1.40332 2.42157-2.739 3.52777-4.19702.35937-.47412.65668-.97754.93207-1.6582-.68244.21167-1.24463.37573-1.68714.84424-2.19867 2.32812-4.3543 4.70093-6.6319 6.9497-2.65154 2.61841-4.29187 5.78907-5.44696 9.26294-1.0617 3.19288-1.52557 6.48682-1.50756 9.84058.0155 2.89917.45141 5.76636.8194 8.6355.23956 1.86767.51434 3.7395.67791 5.6067.17706 2.01952.43463 4.00878.86688 5.98217.7948 3.62793 2.07782 7.083 3.80066 10.36572.72547 1.38257 1.7124 2.58863 2.80884 3.72022.68158.70361 1.42523 1.31372 2.17468 1.92578.27478.22436.62159.36426.94422.52588.13977.06982.30291.0664.43097-.0442.14453-.125.08618-.28149.02722-.42211-.0583-.13892-.1197-.2837-.21173-.40088zm84.01544-49.1206c-2.31897-4.22267-5.54999-7.66895-9.33087-10.61915-.13758-.10718-.26679-.29932-.57709-.20728.36182.21802.55292.50513.76074.77662 1.82819 2.3916 3.65064 4.7871 5.48456 7.17431 2.11188 2.74903 3.87762 5.67676 4.98486 8.99317.99585 2.9834 1.55603 6.03247 1.72516 9.16284.02869.53247.05182 1.06616.04553 1.59912-.02063 1.72388.10694 3.448-.22491 5.167-.28064 1.45434-.57788 2.90356-.86316 4.3667.03449-.04297.08118-.08082.10169-.1294 1.92974-4.58106 2.56622-9.31617 1.85394-14.25562-.6134-4.25342-1.8977-8.2727-3.96045-12.02832z" class="st0"/><path d="M107.67757 44.62545c.74982 3.12622 1.41675 6.2644 1.6441 9.4707.22743 3.20606-.10766 6.41944.09486 9.63746.95898-3.18042 1.12726-6.44898.909-9.72534-.21924-3.29029-.88703-6.49366-2.64796-9.38282zm-41.7337 56.21973c-3.45447.19117-6.8899-.05835-10.30237-.66528-6.72741-1.19678-12.77258-3.88086-18.02331-8.26733-5.19715-4.3418-9.01892-9.73365-11.83246-15.8584-1.40296-3.05396-2.3476-6.26807-3.21765-9.52637.0711 1.0415-.07654 2.08228-.01966 3.10108.05854 1.04711.4466 2.07544.68744 3.11279.28449 1.2246.74207 2.38818 1.18909 3.56055.98035 2.5703 2.1751 4.99853 3.87103 7.19848 1.47614 1.9148 2.92987 3.8313 4.60633 5.5852 1.97491 2.06617 4.17889 3.84376 6.50195 5.4795.79364.55884 1.4726 1.28442 2.3573 1.70361 1.44073.6831 2.87341 1.39527 4.35815 1.96997 1.83887.71167 3.68915 1.38721 5.62677 1.84082 1.68567.39478 3.39801.64283 5.07605 1.06104.20087.05005.41645.07153.62335.06299 1.10914-.04663 2.20527.13159 3.30872.17529 1.5929.06274 3.1748.29956 4.78278-.01392.88116-.17163 1.8042-.21484 2.72339-.20312.88983.01099 1.79687-.05689 2.66998-.22656 3.18304-.61866 6.19262-1.73243 9.01935-3.32837.18792-.1062.39874-.19434.56866-.46973-.8001.05054-1.41687.39038-2.04169.67896-3.97876 1.83789-8.17767 2.78833-12.5332 3.0288zm37.30505-15.16943c-1.078 1.95068-2.04565 3.9851-3.43804 5.72656-2.43989 3.05152-4.58484 6.34131-7.34583 9.1355-1.01935 1.0315-2.09686 1.98291-3.28796 2.81714-.69782.48877-1.3905 1.00513-1.96253 1.65088-.5373.60742-.47522.8579.27893 1.17749.10327.0437.21979.08179.32984.0808 1.00817-.0083 2.01428.0564 3.0235-.0935 1.5592-.23144 3.02465-.75708 4.46484-1.35278 1.22088-.50513 2.31018-1.281 3.30517-2.1189 1.02076-.85962 1.80811-1.96264 2.34284-3.22876.56335-1.33422 1.00537-2.70898 1.45636-4.08007.5238-1.59229.75604-3.25635 1.10535-4.89185.31811-1.4895.5575-2.99194.70147-4.5044.04096-.42968.16358-.95288-.23926-1.38354-.35339.32056-.5332.70117-.73468 1.06543z" class="st0"/><path fill="#a9cb38" d="M112.89236 45.79708c-1.22242-4.5835-3.5993-8.54663-6.71637-12.08178-2.4129-2.73682-5.10877-5.18408-7.8208-7.61817-2.5387-2.27856-4.5716-4.93945-5.87726-8.13403-.67694-1.6565-1.48566-3.25684-2.52881-4.72827-2.05353-2.89649-4.9126-4.74219-8.06195-6.20484-5.19702-2.41357-10.72125-3.2605-16.39093-3.37304-3.2041-.0564-6.36005.3601-9.47327 1.0481-4.58215 1.01293-8.78796 2.98242-12.86987 5.24291-2.73554 1.5149-5.12677 3.49878-7.52728 5.47412-3.83075 3.1526-7.5846 6.39966-10.89466 10.09913-2.48675 2.7793-5.31024 5.05224-8.57452 6.84106-2.92621 1.60327-5.49115 3.69385-7.80585 6.1084-2.26745 2.36474-3.40643 5.14307-3.37951 8.41015.00006.0066.00085.01294.00091.01954.00482.53247.03119 1.06225.07312 1.58984.0058.073.01349.146.02002.219.04425.49877.10101.9956.17456 1.48998.00342.02295.00635.0459.00983.06885.16662 1.09986.40057 2.18946.68524 3.27002.8891 3.375 2.21887 6.60547 3.33386 9.9065.6532 1.93433 1.34839 3.85596 1.30628 5.9397-.0401 1.98315-.16523 3.96338-.40021 5.93164-.52613 4.40576-.182 8.74438.8565 13.0454.00476.01978.00837.03956.01313.05909.18994.78174.44738 1.5083.74194 2.20508.026.06128.0498.12475.0766.18554 1.2074 2.7378 3.2298 4.81324 6.10333 6.20264.47736.23096.99475.37988 1.49591.56055.3056.11035.49854.24829.59021.41015.13245.23414.04712.52002-.26959.85791-.0653.06983-.13916.1316-.2008.20386-1.69367 1.99414-2.68812 4.22266-2.39228 6.91358.02979.27075.07605.53344.13544.78906.9162 3.94214 5.22864 6.03393 8.9682 4.11597 1.86041-.9541 4.14362-.22632 5.1065 1.61792.00757.0144.01856.02587.026.04052.22364.44165.43024.8921.64417 1.33863.39606.82763.77002 1.66723 1.18494 2.48388.04462.08765.08868.17578.1344.2627.09918.1892.21344.36987.31921.55517.37.64844.77075 1.27979 1.27094 1.85645 1.62597 1.87475 3.68158 2.55908 6.10003 2.26123 1.65845-.20435 3.14307-.89746 4.5744-1.71118 2.78168-1.58179 5.20246-3.66162 7.69776-5.6355.83551-.66064 1.73236-.89258 2.77167-.77661 1.69781.18945 3.1798.8955 4.56262 1.84521 2.28003 1.56568 4.7298 2.77149 7.38928 3.54273 4.86163 1.41064 9.77039 1.82544 14.73535.61499 4.87995-1.18994 9.27558-3.40552 13.34021-6.3357 2.52967-1.82373 4.61011-4.0205 6.16852-6.73193 1.52905-2.66064 2.40875-5.54883 3.10468-8.50342 1.01745-4.31933 1.38775-8.72851 1.71362-13.13867.27496-3.72217.891-7.37988 1.98114-10.94556.86945-2.84399 2.11981-5.54834 3.23157-8.30249.95623-2.36914 1.53479-4.81348 1.78503-7.35742.40411-4.10767-.1911-8.10425-1.24316-12.04859zM62.756 6.59176c1.28138-.44775 2.63154-.37329 3.9549-.49902.39685-.0376.80041-.00562 1.20074-.00562 4.12842.16138 8.21643.62793 12.104 2.09937 2.43226.9204 4.60682 2.31445 6.61274 4.0044 1.79749 1.51415 2.85217 3.43359 3.5935 5.58984.03101.09033.07606.17895.0863.27173.0334.29931.1308.65136-.20385.82373-.34662.17822-.50116-.16578-.68255-.36695-1.36463-1.5122-2.60138-3.15283-4.19959-4.43432-2.29333-1.83863-4.8003-3.3484-7.65631-4.10547-4.10382-1.08814-8.25159-2.00318-12.45636-2.63013-.65906-.09839-1.32104-.18017-1.99005-.17432-.11383.00074-.23236.00733-.34064-.02026-.17004-.04297-.34881-.1355-.36053-.3186-.01276-.19678.21014-.1897.3377-.23438zM51.14132 70.19724c.63702-.23609 1.32257-.37159 2.04071-.37159 1.10205 0 2.13068.30957 3.01398.83814l20.7705-20.76807c-.4334-.82031-.68158-1.75318-.68158-2.74365 0-3.25074 2.6446-5.89527 5.89545-5.89527 3.2508 0 5.89539 2.64453 5.89539 5.89527 0 3.25097-2.6446 5.8955-5.89539 5.8955-.8606 0-1.67627-.1897-2.41406-.5227L58.67965 73.61032c.25287.6565.39728 1.36621.39728 2.11084 0 3.25073-2.6446 5.89526-5.8949 5.89526-3.2508 0-5.89545-2.64453-5.89545-5.89526 0-1.13061.3255-2.18408.87946-3.08227l-5.31934-7.5022c-.52612.15454-1.081.2412-1.65637.2412-3.25085 0-5.89545-2.64453-5.89545-5.8955 0-3.25074 2.6446-5.89551 5.89545-5.89551 3.2508 0 5.89539 2.64477 5.89539 5.8955 0 1.28028-.41462 2.4629-1.11036 3.43043l5.16596 7.28443zM25.76968 89.2546c-.12806.1106-.2912.11401-.43097.04419-.32263-.16162-.66944-.30152-.94422-.52588-.74945-.61206-1.4931-1.22217-2.17468-1.92578-1.09644-1.1316-2.08337-2.33765-2.80884-3.72022-1.72284-3.28271-3.00586-6.73779-3.80066-10.36572-.43225-1.97339-.68982-3.96265-.86688-5.98218-.16357-1.86719-.43835-3.73902-.67792-5.6067-.36798-2.86913-.8039-5.73632-.8194-8.63549-.018-3.35376.44587-6.6477 1.50757-9.84058 1.1551-3.47387 2.79542-6.64453 5.44697-9.26293 2.27758-2.24878 4.43322-4.62159 6.6319-6.94971.4425-.4685 1.0047-.63257 1.68713-.84424-.2754.68066-.5727 1.18408-.93207 1.6582-1.1062 1.45801-2.3573 2.7937-3.52777 4.19702-1.88336 2.25855-3.56928 4.64698-4.90119 7.28077-1.33416 2.63842-2.55566 5.31982-3.35577 8.17505-.43799 1.56323-.65003 3.16796-.82825 4.77612-.18286 1.64892-.21039 3.29834-.1015 4.95874.14087 2.14526.53302 4.24731.85187 6.3662.32806 2.17994.87823 4.32301 1.01697 6.5403.17663 2.82129.88586 5.55737 1.62799 8.27807.18353.6731.59704 1.23145.91424 1.8357 1.13666 2.16357 2.38806 4.24316 4.11939 6.01245.80798.82544 1.46356 1.80102 2.18158 2.71362.09204.11719.15344.26196.21173.40088.05896.14062.1173.29712-.02722.42212zM36.0364 99.3271c-1.4616.15968-2.88287.53907-4.32825.78077-1.55108.25928-2.4204-.4541-2.57812-2.02295-.05677-.5647-.21875-1.1167-.00794-1.68994.36982-1.00488 1.03559-1.21582 1.79047-.47168.85266.84033 1.81018 1.5044 2.87323 2.04077.46808.23633.95947.3684 1.46484.46191.51654.0957.96521.31959 1.4267.6443-.22198.20287-.44135.23486-.64093.25683zm29.37 7.82594c-1.21271.83496-2.5948 1.02856-4.14844 1.06738-1.12177-.1206-2.37018-.25195-3.61762-.3916-.24627-.0276-.48681-.06494-.7381-.0271-1.3933.20898-2.7813.4458-4.13995.82568-.50104.14063-1.01404.18555-1.52557.21362-1.13959.06226-2.28064.1106-3.4217.12769-1.64935.02515-2.84045-.84229-3.78161-2.08838-.41028-.54321-.71991-1.16602-1.04273-1.77002-.22753-.42627-.30609-.89844-.25488-1.38599.04242-.40356.25708-.53027.6311-.3955.14295.05151.289.10473.41846.18261 1.92316 1.15455 4.1034 1.61011 6.2503 1.83423 2.72254.28394 5.4366.72022 8.18366.79639 1.4065.03882 2.8083.25342 4.21448.28564.93066.021 1.85773.04712 2.784.13306.19696.01807.47467-.0752.5376.18848.0506.21118-.1958.29858-.349.4038zm14.5437-9.5459c-2.82673 1.59594-5.8363 2.70971-9.01935 3.32837-.87311.16967-1.78015.23755-2.66998.22656-.9192-.01172-1.84223.0315-2.7234.20312-1.60796.31348-3.18987.07666-4.78277.01392-1.10345-.0437-2.19958-.22192-3.30872-.1753-.2069.00855-.42248-.01293-.62335-.06298-1.67804-.41821-3.39038-.66626-5.07605-1.06104-1.93762-.45361-3.7879-1.12915-5.62677-1.84082-1.48474-.5747-2.91742-1.28686-4.35815-1.96997-.8847-.41919-1.56366-1.14477-2.3573-1.70361-2.32306-1.63574-4.52704-3.41333-6.50195-5.4795-1.67646-1.7539-3.1302-3.6704-4.60633-5.5852-1.69592-2.19995-2.89068-4.62817-3.87103-7.19848-.44702-1.17237-.9046-2.33594-1.18909-3.56055-.24084-1.03736-.6289-2.06568-.68744-3.1128-.05688-1.0188.09076-2.05956.01966-3.10107.87005 3.2583 1.8147 6.47241 3.21765 9.52637 2.81354 6.12475 6.63531 11.5166 11.83246 15.8584 5.25073 4.38647 11.2959 7.07055 18.02331 8.26733 3.41248.60693 6.8479.85645 10.30237.66528 4.35553-.24047 8.55444-1.19091 12.5332-3.0288.62482-.28858 1.24158-.62842 2.0417-.67896-.16993.2754-.38075.36353-.56867.46973zm24.27276-11.61328c-.14398 1.51245-.38336 3.01489-.70147 4.50439-.3493 1.6355-.58155 3.29956-1.10535 4.89185-.45099 1.37109-.893 2.74585-1.45636 4.08007-.53473 1.26612-1.32208 2.36914-2.34284 3.22876-.995.8379-2.08429 1.61377-3.30517 2.1189-1.44019.5957-2.90564 1.12134-4.46485 1.35278-1.00921.1499-2.01532.0852-3.0235.09351-.11004.00098-.22656-.03711-.32983-.08081-.75415-.31958-.81622-.57007-.27893-1.1775.57202-.64574 1.26471-1.1621 1.96253-1.65087 1.1911-.83423 2.26861-1.78564 3.28796-2.81714 2.76099-2.79419 4.90594-6.08398 7.34582-9.1355 1.3924-1.74145 2.36005-3.77588 3.43805-5.72656.20148-.36426.3813-.74487.73468-1.06543.40284.43067.28022.95386.23926 1.38355zm.06116-27.62208c-.09949 1.6206-.33917 3.23267-.51886 4.8479l-.16797.00196c0-1.2356.02368-2.47168-.0044-3.70655-.10436-4.59253-1.03631-9.03491-2.49151-13.37597-.66492-1.9839-1.37152-3.9546-2.21228-5.87134-.9646-2.19849-2.02191-4.35108-3.53436-6.24097-.37195-.46484-.97394-.46948-1.48432-.60351-.26483-.06934-.4378-.17994-.60693-.34937-2.0354-2.03809-4.11115-4.0271-6.42981-5.75244-3.1261-2.32642-6.52362-4.12915-10.14972-5.54566-1.49487-.58422-2.9925-1.16406-4.54986-1.50463-3.46058-.7566-6.94196-1.40747-10.52253-1.13501-1.17529.0891-2.36023.04736-3.53784.11425-1.27643.073-2.5066.45362-3.76965.63184-2.32733.32837-4.52759 1.13623-6.7541 1.84228-.18145.05762-.36156.1338-.54784.15723-.17322.02149-.49457.13257-.17414-.2688.14899-.18628-.1115-.49267-.2329-.71728l-.498-.22754c6.54108-3.1045 13.404-4.24146 20.5896-3.31421 1.49134.19238 2.96131.5393 4.4015.98413 2.34588.72461 4.68267 1.46411 6.98364 2.33911 2.28223.86792 4.53754 1.75147 6.65033 2.98682 2.70178 1.57959 5.12768 3.52392 7.34234 5.7085 3.03504 2.99365 5.76288 6.25268 7.73359 10.06933 1.12817 2.18457 1.95239 4.49512 2.70819 6.83667.90692 2.80933 1.53698 5.66528 1.6704 8.61182.05268 1.15918.17823 2.32666.10743 3.48144zm5.1325 5.36182c-.2025-3.21802.13258-6.4314-.09484-9.63745-.22736-3.2063-.89429-6.34449-1.6441-9.4707 1.76092 2.88915 2.4287 6.09252 2.64794 9.3828.21827 3.27637.05 6.54493-.909 9.72535zm2.2906 1.86133c-.02051.04858-.0672.08643-.10169.1294.28528-1.46314.58252-2.91236.86316-4.3667.33185-1.719.20428-3.44312.22491-5.167.0063-.53296-.01684-1.06665-.04553-1.59912-.16913-3.13037-.7293-6.17945-1.72516-9.16284-1.10724-3.31641-2.87298-6.24414-4.98486-8.99317-1.83392-2.3872-3.65637-4.78271-5.48456-7.17431-.20782-.27149-.39892-.5586-.76074-.77662.3103-.09204.43951.1001.57709.20728 3.78088 2.9502 7.0119 6.39648 9.33087 10.61914 2.06274 3.75562 3.34704 7.7749 3.96045 12.02832.71228 4.93945.0758 9.67456-1.85394 14.25562z"/><path d="M41.19033 53.58688c-3.25085 0-5.89545 2.64478-5.89545 5.8955 0 3.25098 2.6446 5.89552 5.89545 5.89552.57538 0 1.13025-.08667 1.65637-.24121l5.31934 7.5022c-.55396.89819-.87946 1.95166-.87946 3.08227 0 3.25073 2.64466 5.89526 5.89545 5.89526 3.2503 0 5.8949-2.64453 5.8949-5.89526 0-.74463-.14441-1.45434-.39728-2.11084l21.08667-21.08545c.7378.333 1.55347.5227 2.41406.5227 3.2508 0 5.89539-2.64453 5.89539-5.8955 0-3.25074-2.6446-5.89527-5.89539-5.89527-3.25085 0-5.89544 2.64453-5.89544 5.89527 0 .99047.24816 1.92334.68157 2.74365l-20.7705 20.76807c-.8833-.52857-1.91193-.83814-3.01398-.83814-.71814 0-1.40369.1355-2.04071.37158l-5.16596-7.28442c.69574-.96753 1.11036-2.15015 1.11036-3.43042 0-3.25073-2.6446-5.89551-5.89539-5.89551z" class="st0"/><g><path d="M168.60283 15.724c-2.85864 1.11032-3.80527 4.6475-1.83943 6.95424.28132.3304.32713.53864-.06258.81196-1.3456.94462-1.3576 2.948-.38745 4.0588.2608.29886.3001.40048-.07234.6638-2.09523 1.48125-1.79187 4.15091.56392 5.21918 1.96658.89206 4.0583.90807 6.14828.84 1.8437-.06008 3.65984-.31839 5.22444-1.4247 1.24147-.87804 1.75983-2.09548 1.58562-3.60126-.1697-1.46974-1.04423-2.3613-2.39433-2.83186-1.43344-.49909-2.92746-.32588-4.19647-.36493h-2.959c-.37946-.0005-.7529-.04255-1.08403-.24228-.43203-.25981-.4886-.66179-.34818-1.0993.15569-.48558.50261-.40549.90132-.31238 1.94055.45004 3.87334.42951 5.76659-.23628 2.22714-.78343 3.64757-2.85588 3.09466-4.95637-.32338-1.22795-.17346-1.96082.79595-2.73924.72485-.5817.71234-1.37864.22175-1.92228-.46003-.5091-1.30754-.55165-1.99986-.06358-.4588.32389-.89856.6788-1.31956 1.05075-.22477.19823-.39296.21125-.6813.11013-2.32526-.81597-4.6465-.81246-6.958.0856zm.8047 13.02493c.86702.03254 1.73555.00851 2.60358.00851v.02203c.86754 0 1.7353-.001 2.60309.0005.38044.0005.74588.0826 1.07977.2623.7509.40399.84451 1.4332.1622 1.9303-.2588.18822-.53563.36142-.86478.44502-1.75808.44803-3.53119.45604-5.29377.10262-1.25048-.2503-1.76659-1.0978-1.3546-2.03991.19998-.45755.49884-.7529 1.06451-.73137zm4.5559-10.94597c.88755.35693 1.38613 1.30855 1.29454 2.29422-.09162.98717-.83526 1.75458-1.97484 2.00538-.31864.07008-.65078.07809-1.02222.11914-.9336-.03504-1.89224-.1632-2.59708-.9286-.98466-1.06877-.56967-2.83786.81197-3.4666 1.14885-.52263 2.33476-.48709 3.48762-.02354zm74.14408 7.19352c.3384 1.71103 1.07703 3.21632 2.4957 4.26856 2.93098 2.17458 6.11224 2.29622 9.38263.90007 1.14185-.48758 2.04767-1.33258 2.46991-2.56104.20425-.5932.12567-1.17339-.38495-1.6029-.49359-.41549-1.05374-.32738-1.57938-.07709-.31237.14918-.63049.34641-.86102.59921-1.1621 1.27652-2.64563 1.52931-4.25003 1.3551-2.116-.23076-3.70187-1.57986-3.9792-3.2989-.05933-.36844-.03305-.52312.41048-.5151 1.55233.02852 3.10517.011 4.65777.011 1.55258 0 3.10517.01102 4.65778-.0035 1.14984-.01151 1.67547-.48307 1.7951-1.62342.09412-.89707-.03479-1.78862-.32037-2.63463-.93387-2.76427-2.90845-4.3061-5.77258-4.66852-3.05988-.38746-5.71828.41348-7.5377 3.0431-1.42117 2.05443-1.66296 4.3867-1.18414 6.80806zm3.374-4.4823c.59295-1.8482 2.25192-2.8609 4.40597-2.6907 1.8682.14818 3.16776 1.19392 3.581 2.84087.12338.49259.08435.70934-.51664.68431-1.1496-.04705-2.30246-.01351-3.45407-.01351-1.15162 0-2.30298.0025-3.4546-.001-.74514-.0025-.79795-.0836-.56166-.81997zm-29.38958-5.45547c-4.61145.02153-7.89834 3.38651-7.85455 8.04003.04431 4.70207 3.3377 7.95943 8.02727 7.9399 4.91682-.02052 8.14213-3.24534 8.12286-8.12112-.01877-4.7316-3.3442-7.88234-8.29558-7.8588zm.13767 12.84972c-2.67342-.02603-4.59995-2.12251-4.54663-4.94786.0528-2.7963 2.02365-4.82872 4.64625-4.79167 2.75277.03854 4.68555 2.1165 4.61246 4.95787-.07408 2.88141-1.97233 4.8077-4.71208 4.78166zm-37.67012 1.0858c1.5551 1.58587 3.5432 2.00537 5.07876 2.0379 1.81641-.001 3.01433-.1772 4.14242-.70733 2.84712-1.33809 3.55845-5.22169 1.32731-7.30115-.61122-.56918-1.3621-.89106-2.15906-1.12684-1.37613-.40798-2.82684-.48807-4.1852-.96564-.79494-.27933-1.21218-.82999-1.19567-1.54283.01552-.66579.45004-1.22695 1.2625-1.40917 1.38238-.30987 2.6937-.14917 3.85206.77542.49259.39347.91234.88755 1.5153 1.13735.53213.21976 1.03873.24279 1.50928-.15168.47307-.39697.55591-.91258.412-1.46924-.13041-.5046-.37896-.95563-.74363-1.3401-1.00395-1.05774-2.29247-1.5288-3.68663-1.73354-2.03941-.29936-4.04279-.23929-5.8229.97916-2.26243 1.54883-2.4146 4.87177-.31036 6.61233.92936.76841 2.06545 1.06726 3.21932 1.32106 1.00519.22127 2.04918.29585 3.00355.71735.82297.36344 1.2232 1.0137 1.1291 1.75759-.09737.77041-.60148 1.29803-1.49828 1.46173-1.74433.31837-3.31067-.04255-4.5997-1.32507-.35092-.34942-.70385-.69583-1.14586-.9266-.49158-.2573-1.01094-.2603-1.47725.02002-.48808.29285-.65152.78844-.5902 1.3436.0816.73336.4653 1.32757.96314 1.83567zm-37.27165-.97967c-1.5874.3369-3.0779.13516-4.35817-.96114-.40998-.35141-.80596-.71985-1.21994-1.06626-.52062-.43552-1.31781-.5086-1.83918-.14918-.5842.40148-.65779.99068-.49409 1.62342.13716.52963.41199.98768.78444 1.39566 1.58963 1.74156 3.67985 2.12001 5.88872 2.13703.30536 0 .61398.03004.91534-.0045 1.99486-.22978 3.75343-.86403 4.72008-2.81985.95614-1.93429.43753-4.25704-1.2705-5.48149-.93485-.6708-2.05093-.89656-3.155-1.13234-1.00593-.21526-2.04665-.27933-3.0028-.71385-.64977-.29535-.99017-.78192-.95512-1.49277.03654-.73286.49157-1.15486 1.15762-1.33658 1.17413-.32088 2.30498-.22276 3.391.38195.64702.35993 1.1181.9306 1.7263 1.32958.57418.37645 1.18691.47706 1.77761.07409.5882-.40098.6345-1.0157.45604-1.63544-.25905-.90157-.86577-1.54383-1.66647-2.00037-2.20562-1.25749-4.55915-1.40667-6.95124-.7549-2.6176.71385-3.99021 3.1963-3.16825 5.60865.56567 1.66097 1.92428 2.42087 3.5019 2.84287 1.29228.3454 2.61685.57017 3.90538.9271.81096.22476 1.22545.91959 1.1889 1.71252-.03454.74238-.5136 1.3416-1.33257 1.5158zm52.7665-9.55632c.60447.06858 1.2197.07509 1.82893.06007.39596-.00951.52836.10963.52085.51561-.02353 1.2695-.0085 2.5395-.0085 3.80951.00025 1.22295-.02003 2.4464.00576 3.66835.02827 1.3436.46129 2.54702 1.5203 3.41805 1.66172 1.36662 3.52042 1.3511 5.43969.63325.97516-.36493 1.78111-.94562 2.22014-1.92478.28433-.63475.23777-1.272-.29386-1.74657-.53413-.47706-1.15637-.43101-1.75308-.05707-.35591.22327-.6928.48157-1.06425.6733-1.46325.7559-2.68468.04906-2.69945-1.57837-.02052-2.2812.00976-4.5629-.01727-6.8436-.00602-.5026.19673-.57569.62048-.56568 1.01096.02203 2.0229.00801 3.03435.00651.45204-.0005.90957-.03804 1.27426-.32488.49658-.39047.7206-.91158.58143-1.55535-.14067-.65127-.55715-1.05625-1.19741-1.12133-.74588-.07659-1.50228-.04154-2.25393-.06908-.65327-.02352-1.49327.27183-1.90951-.11413-.4245-.39447-.0886-1.24498-.13666-1.89324-.02077-.28084-.00775-.56567-.0468-.8435-.13241-.94262-.84076-1.54684-1.72555-1.49177-.94712.05957-1.58237.73337-1.59664 1.71153-.01.70533-.02153 1.41217.00551 2.1165.01526.39147-.09462.54114-.5086.52613-.60923-.02103-1.22446-.01402-1.83017.04906-.77016.08009-1.34034.73787-1.33509 1.45272.00602.77291.52838 1.39765 1.32508 1.48876zm35.31835 12.19645c.55815.37244 1.14961.37694 1.73755.0891.64427-.31537.87804-.88504.87955-1.56485.0045-2.14054.0015-4.28157.00175-6.4221 0-.80396.08534-1.5954.36217-2.3558.27934-.7679.69482-1.44821 1.4437-1.83467 1.05126-.54264 1.88926-.32639 2.96153.69883.52511.50209 1.1053.73387 1.85469.49558.65928-.21075.93211-.6823 1.03824-1.29003.1364-.77992-.06208-1.48576-.56217-2.106-.69809-.86602-1.64395-1.20742-2.71323-1.29402-1.73954-.14067-3.16624.46905-4.29759 1.87171-.04704-.12915-.07509-.18271-.0866-.23978-.23276-1.14235-.83999-1.63394-1.88723-1.5268-.90282.0926-1.47825.78092-1.48 1.82666-.00726 4.02276-.00475 8.04553-.00126 12.0683.0005.64025.18573 1.20792.7489 1.58387zm-76.87933-15.49085c-.94112-.00851-1.68074.63925-1.68575 1.6079-.02252 4.16343-.01877 8.32687-.00125 12.4903.00375.8475.56342 1.49477 1.28478 1.62993 1.15687.21726 2.04992-.48157 2.06544-1.683.02603-2.04642.007-4.09284.007-6.13927-.00048-2.06995.02053-4.1404-.009-6.20985-.01501-1.06176-.6718-1.687-1.66122-1.69601zm.02028-6.01163c-1.1844-.011-2.13002.91459-2.12201 2.07747.008 1.1794.91133 2.06344 2.118 2.07245 1.15162.00901 2.07095-.88705 2.07797-2.0244.0075-1.1874-.89707-2.1145-2.07396-2.12552z" class="st1"/><path d="M137.39052 99.01657c0-3.2246 1.9707-5.66113 4.87256-7.02246-1.7915-1.4336-2.83057-3.47559-2.83057-5.9121 0-2.75782 1.21826-4.90821 3.97705-6.5918-2.40039-2.11426-3.72607-5.01563-3.72607-8.45508 0-7.667 6.55664-12.54005 16.80322-12.54005 3.8335 0 7.16553.68067 9.78076 1.93457l3.54688-2.97363c1.00341-.82422 2.22168-1.36133 3.36816-1.36133 1.89893 0 3.33203 1.50488 3.33203 3.15332 0 1.2539-.7168 2.50781-1.93506 3.61817l-2.79443 2.43652c.96728 1.64746 1.46875 3.58204 1.46875 5.73243 0 7.70312-6.48438 12.53906-16.76709 12.53906-2.97363 0-5.66064-.39356-7.91797-1.18164-.78809.57324-1.18213 1.21777-1.18213 2.04199 0 1.6123 1.28955 2.65137 3.51074 2.65137h12.68311c8.20459 0 12.6831 3.43945 12.6831 9.67285 0 7.55957-7.34472 11.78808-20.42187 11.78808-11.93066 0-18.45117-3.26074-18.45117-9.53027zm18.84521 2.90137c7.2373 0 10.99951-1.57617 10.99951-4.3711 0-2.25683-1.75585-3.40332-5.3745-3.40332h-12.2173c-.5371 0-1.03905-.03613-1.54052-.07129-1.32568.89551-2.00635 2.042-2.00635 3.51075 0 2.93847 3.26026 4.33496 10.13916 4.33496zm.3584-24.792c4.87256 0 7.91797-2.36523 7.91797-6.16308 0-3.833-3.04541-6.19824-7.91797-6.19824-4.94433 0-8.06103 2.40137-8.06103 6.19824 0 3.79785 3.1167 6.16309 8.06103 6.16309zm35.89307-33.9287c3.15234 0 5.40967 2.32812 5.40967 5.37401 0 3.08106-2.25733 5.40918-5.40967 5.40918-3.15332 0-5.48194-2.32812-5.48194-5.40918 0-3.0459 2.32862-5.37402 5.48194-5.37402zm-4.44287 52.05664V63.29586c0-2.68652 1.82715-4.5498 4.40674-4.5498 2.54394 0 4.33496 1.86328 4.33496 4.5498v31.95802c0 2.65136-1.79102 4.55078-4.33496 4.55078-2.5796 0-4.40674-1.89942-4.40674-4.55078zm27.27197-7.4873V67.48824h-5.37451c-2.4004 0-4.12012-1.64844-4.12012-3.97754 0-2.29297 1.71973-3.94043 4.12012-3.94043h5.3745v-6.77149c0-2.65136 1.82716-4.51464 4.40675-4.51464 2.54345 0 4.33496 1.86328 4.33496 4.51464v6.77149h10.39014c2.36474 0 4.08447 1.64746 4.08447 3.94043 0 2.3291-1.71973 3.97754-4.08447 3.97754H224.058v19.05957c0 3.4043 1.75537 5.12402 4.44287 5.12402 1.79102 0 3.15283-.8955 4.5498-2.00683.82422-.64453 1.82715-1.29004 3.15284-1.29004 2.00634 0 3.43945 1.46973 3.43945 3.54785 0 1.6123-.78809 3.18848-2.32861 4.58594-2.25733 2.07715-6.01905 3.54687-9.88868 3.54687-6.9502 0-12.10937-4.69336-12.10937-12.28906zm35.96826 7.37987c-1.75537-1.61132-2.97363-3.86914-2.97363-5.69629 0-2.07812 1.39697-3.54687 3.58252-3.54687 1.46924 0 2.5083.60937 4.26369 2.43652 2.79443 3.00977 5.91162 4.26368 9.78076 4.26368 4.15625 0 6.66406-1.61231 6.66406-4.55079 0-2.54296-1.68408-4.22754-5.12354-4.87207l-6.1621-1.2539c-7.70315-1.54102-11.6797-5.51758-11.6797-11.39356 0-7.48828 5.9829-12.03809 15.37012-12.03809 5.05176 0 9.56592 1.2539 12.50391 3.51075 2.18506 1.64843 3.58252 3.90527 3.58252 6.05566 0 2.00586-1.50488 3.47461-3.4751 3.47461-1.54101 0-2.83056-.93066-4.58594-2.54297-2.29296-2.36523-5.15917-3.29687-8.20459-3.29687-3.7622 0-6.1626 1.57715-6.1626 4.19238 0 2.4004 1.82716 3.94043 5.4458 4.58594l6.48487 1.28906c7.4165 1.50488 11.0708 5.30274 11.0708 11.42969 0 8.06055-6.09082 12.8623-16.05078 12.8623-6.09082 0-11.42921-1.89941-14.33107-4.90918zm47.03078-51.94922c3.15332 0 5.41015 2.32813 5.41015 5.37402 0 3.08106-2.25683 5.40918-5.41015 5.40918-3.15235 0-5.48145-2.32812-5.48145-5.40918 0-3.0459 2.3291-5.37402 5.48145-5.37402zm-4.44238 52.05665V63.29586c0-2.68652 1.82714-4.5498 4.40673-4.5498 2.54395 0 4.33545 1.86328 4.33545 4.5498v31.95802c0 2.65136-1.7915 4.55078-4.33545 4.55078-2.57959 0-4.40673-1.89942-4.40673-4.55078zm20.65576 3.7627c0-3.22462 1.9707-5.66114 4.87256-7.02247-1.7915-1.4336-2.83008-3.47559-2.83008-5.9121 0-2.75782 1.21777-4.90821 3.97656-6.5918-2.4004-2.11426-3.72607-5.01563-3.72607-8.45508 0-7.667 6.55664-12.54005 16.80322-12.54005 3.8335 0 7.16553.68067 9.78076 1.93457l3.54736-2.97363c1.00293-.82422 2.2212-1.36133 3.36768-1.36133 1.89893 0 3.33203 1.50488 3.33203 3.15332 0 1.2539-.7168 2.50781-1.93506 3.61817l-2.79443 2.43652c.96728 1.64746 1.46924 3.58204 1.46924 5.73243 0 7.70312-6.48487 12.53906-16.76758 12.53906-2.97363 0-5.66065-.39356-7.91797-1.18164-.78809.57324-1.18213 1.21777-1.18213 2.04199 0 1.6123 1.28955 2.65137 3.51123 2.65137h12.68262c8.20459 0 12.6831 3.43945 12.6831 9.67285 0 7.55957-7.34472 11.78808-20.42187 11.78808-11.93067 0-18.45117-3.26074-18.45117-9.53027zm18.84521 2.90136c7.2373 0 10.99903-1.57617 10.99903-4.3711 0-2.25683-1.75538-3.40332-5.37403-3.40332h-12.21728c-.53711 0-1.03858-.03613-1.54053-.07129-1.32568.89551-2.00635 2.042-2.00635 3.51075 0 2.93847 3.26026 4.33496 10.13916 4.33496zm.3584-24.792c4.87256 0 7.91797-2.36523 7.91797-6.16308 0-3.833-3.04541-6.19824-7.91797-6.19824-4.94434 0-8.06103 2.40137-8.06103 6.19824 0 3.79785 3.1167 6.16309 8.06103 6.16309zm31.6582 18.12794V63.29586c0-2.68652 1.82715-4.5498 4.40674-4.5498 2.54395 0 4.33496 1.86328 4.33496 4.5498v.7881c2.43653-3.61817 6.8789-5.58888 12.28907-5.58888 9.70947 0 16.08642 6.0547 16.08642 16.83887v19.91993c0 2.6162-1.82715 4.55078-4.3706 4.55078-2.5796 0-4.3711-1.9707-4.3711-4.55078V76.87497c0-6.98633-3.54687-10.3545-9.2793-10.3545-6.41308 0-10.35449 4.40723-10.35449 10.96387v17.76954c0 2.65136-1.79101 4.55078-4.33496 4.55078-2.57959 0-4.40674-1.89942-4.40674-4.55078z" class="st1"/></g></svg>