<svg xmlns="http://www.w3.org/2000/svg" role="img" viewBox="-3.76 -3.76 195.52 88.02"><title>Goldman Sachs &amp; Co. LLC logo</title><path d="M15.39 18.92h11.39v18.64a47.74 47.74 0 0 1-9.9 1.16C4.4 38.72 0 31.57 0 19.8 0 7.15 6.1 0 18.25 0a55.89 55.89 0 0 1 8.09.66V12.6H23.7l-1.49-4.57c-1.43-4.31-3.13-6.49-5.82-6.49-4.68 0-7.15 6.33-7.15 18.15s1 17.49 7.09 17.49a9.91 9.91 0 0 0 2.75-.39V22.93l-3.69-2.53zm11.17 50c0 7.52-5.08 11.8-14.08 11.8a66.43 66.43 0 0 1-9.52-.93V65.17h2.59l1.1 3.46c2.48 8 4.24 10.62 7.37 10.62 3.3 0 5.67-2.92 5.67-6.77 0-3.13-1.49-5.33-4.68-7l-5.5-3c-4.23-2.26-6.54-5.76-6.54-10.07 0-6.49 5.33-10.39 14.08-10.39a58.28 58.28 0 0 1 8 .66v11.93h-2.67l-1.49-4.56c-1.48-4.84-3.08-6.6-6-6.6a4.81 4.81 0 0 0-5.17 5.11c0 2.7 1.49 4.62 4.4 6.27l5.56 3.13c4.68 2.64 6.88 6.16 6.88 11zm24.31 8.64l1.1 1.65v.82h-8.42l-.38-3.19c-.88 2.46-3.19 3.88-6.16 3.88-4.4 0-7.15-2.75-7.15-7.26s2.47-7.31 10.06-10.28l3.25-1.27V57.8c0-3.63-.69-5.08-2.69-5.08-1.65 0-2.58.88-4.18 4.9l-1.82 4.47H32v-9a32.85 32.85 0 0 1 9.3-1.65c6.21 0 9.57 3 9.57 8.35zm3.19-53.51c0 9.35-5 14.63-11.44 14.63s-11.44-5.24-11.44-14.59 5-14.63 11.44-14.63 11.44 5.26 11.44 14.63zM43.17 72.98v-9.52l-1 .44c-3.24 1.32-4.45 4.29-4.45 8.64 0 3.24.77 5.11 2.58 5.11s2.87-1.76 2.87-4.67zm2.8-48.89c0-10.56-.88-13.36-3.35-13.36s-3.36 2.8-3.36 13.36.88 13.36 3.36 13.36 3.35-2.8 3.35-13.36zm27.61 49.16l1 .5c-1.76 5.06-4 7-8.36 7-7.1 0-11.06-5.33-11.06-14.63S59.78 51.5 67.32 51.5a19.59 19.59 0 0 1 7 1.26v9.35h-2.56l-1-3.52c-1.42-4.7-2.19-5.87-3.56-5.87-2.2 0-4 2.87-4 13.75 0 8.75 1.32 11.94 4.67 11.94 2.3-.04 4.22-1.47 5.71-5.16zm-6.1-35.19h-9.9v-.83l1.1-1.65V4.9l-1.1-1.65v-.83l8.79-.7v33.86l1.11 1.65zm13.52.66c-6 0-9.68-5.5-9.68-14.91s3.8-14.35 9.63-14.35c3 0 4.62 1.16 5.33 3.47v-8l-1.1-1.68v-.83l8.8-.7v33.86l1.1 1.65v.83h-7.81l-.6-4.18c-.88 3.57-2.53 4.84-5.67 4.84zm19.3 38.88l1.1 1.65v.82h-9.92v-.82l1.1-1.65V57.8c0-2.37-.72-3.79-2.42-3.79-2 0-3.52 1.7-3.52 5.05V77.6l1.1 1.65v.82h-9.9v-.82l1.1-1.65V46.91l-1.1-1.65v-.82l8.8-.66v11.38c1-2.36 3.24-3.68 6.43-3.68 4.51 0 7.2 2.86 7.2 8.41zM79.41 23.92c0 9.9.88 12.93 3.3 12.93 3 0 3.57-4.35 3.57-13 0-8.41-.6-12.59-3.52-12.59-2.47-.04-3.35 2.93-3.35 12.66zm55.21 11.66l1.1 1.65v.83h-9.9v-.83l1.1-1.65v-20.4c0-2-.66-3.19-2.2-3.19-1.92 0-3.46 1.71-3.46 5v18.59l1.1 1.65v.83h-9.88v-.83l1.1-1.65v-20.4c0-2-.66-3.19-2.2-3.19-1.93 0-3.47 1.71-3.47 5v18.59l1.1 1.65v.83h-9.9v-.83l1.1-1.65V13.2l-1.1-1.32v-.82l7.92-.94h.66l.22 3.08c.94-2.42 3.25-3.74 6.38-3.74a6.36 6.36 0 0 1 6.55 4.62c.82-2.86 3.41-4.62 6.71-4.62 4.34 0 7.09 2.86 7.09 8.42zm-10.28 36.41c0 4.78-3.08 8.74-10.51 8.74a49.39 49.39 0 0 1-8.52-.93V69.57h2.25l.72 2.2c1.76 5.61 3.46 7.7 6.16 7.7 2.53 0 4.18-1.82 4.18-4.62 0-2.31-1.16-3.91-3.91-5.39l-4.73-2.53a8.23 8.23 0 0 1-4.67-7.43c0-5 3.9-8 10.39-8a35.42 35.42 0 0 1 6.93.82v8h-2.25l-1.16-2.92c-1.32-3.52-2.58-4.67-4.67-4.67a3.26 3.26 0 0 0-3.58 3.52c0 1.87 1.1 3.13 3.8 4.67l4.71 2.65a8.91 8.91 0 0 1 4.86 8.42zm35.58-36.41l1.1 1.65v.83h-8.42l-.38-3.19c-.88 2.42-3.19 3.85-6.16 3.85-4.4 0-7.15-2.75-7.15-7.26s2.47-7.32 10.06-10.29l3.25-1.26v-4.12c0-3.63-.66-5.12-2.7-5.12-1.65 0-2.58.88-4.18 4.89l-1.81 4.51h-2.48v-9a33.21 33.21 0 0 1 9.3-1.65c6.21 0 9.57 3 9.57 8.36zm-7.7-4.62v-9.51l-1.05.44c-3.24 1.32-4.45 4.29-4.45 8.63 0 3.25.77 5.12 2.58 5.12s2.92-1.76 2.92-4.68zm36 6.27v.83h-9.9v-.83l1.1-1.65V15.79c0-2.37-.71-3.8-2.42-3.8-2 0-3.52 1.71-3.52 5.06v18.53l1.1 1.65v.83h-9.89v-.83l1.1-1.65V13.2l-1.1-1.32v-.82l7.91-.94h.66l.22 3.08c.94-2.42 3.19-3.74 6.44-3.74 4.51 0 7.2 2.86 7.2 8.42v17.7z"/></svg>