<svg xmlns="http://www.w3.org/2000/svg" role="img" viewBox="-8.00 75.50 416.00 93.75"><title>HackerOne logo</title><style>svg {enable-background:new 0 0 400 245}</style><path fill="#050605" fill-rule="evenodd" d="M9.1 84.6c-1.1-.6-2.2-1-3.7-1-1.6 0-2.9.3-3.9 1-1 .6-1.5 1.5-1.5 2.6v70.5c0 .9.5 1.7 1.5 2.5 1.1.7 2.2 1.2 3.7 1.2 1.4 0 2.7-.4 3.7-1.2s1.6-1.6 1.6-2.5V87.2c.2-1.1-.3-1.9-1.4-2.6m8.9 37c-.6.6-1 1.5-.7 2.8.1 1.3.6 2.5 1.7 3.5 1 1.1 2.1 1.8 3.4 2.1 1.3.3 2.2.1 2.9-.4l5.7-3.5v31.6c0 .9.5 1.7 1.5 2.5 1 .7 2.2 1.2 3.7 1.2s2.8-.4 3.9-1.2c1.1-.7 1.6-1.6 1.6-2.5v-42.6c0-1.1-.5-1.8-1.6-2.5s-2.4-1-4-1-2.8.3-3.7 1l-14.4 9zm42.2 25c0 2.1.6 3.9 1.8 4.9s2.8 1.7 4.7 1.7c2.6 0 5-1.1 7.3-3.2 2.4-2.1 3.5-4.5 3.5-7v-3.7H75c-3 0-5.5.1-7.4.4-1.9.3-3.6 1-5.1 2.1-1.5 1.1-2.3 2.7-2.3 4.8zm-10.7 1.2c0-5.5 2-9.2 6.1-11.3s9.8-3.2 17.5-3.2h4.4v-1.9c0-3.1-.9-5.7-2.5-7.9s-4.2-3.3-7.5-3.3c-2.9 0-5.5.5-7.6 1.7-2.1 1.1-3.4 1.7-3.6 1.7-1.2 0-2-.5-2.8-1.7-.7-1.1-1.1-2.4-1.1-3.7 0-1.7 1.6-3.3 4.9-4.6 3.2-1.3 6.7-1.9 10.4-1.9 7 0 12.1 1.9 15.4 5.7 3.3 3.7 5 8.4 5 14.1V157c0 1-.5 1.8-1.5 2.5s-2.2 1.1-3.6 1.1-2.5-.3-3.4-1.1c-1-.7-1.4-1.5-1.4-2.5v-3.5c-4.5 5.2-9.6 7.9-15.2 7.9-4 0-7.2-1.2-9.6-3.4-2.6-2.5-3.9-5.8-3.9-10.2zm47.8-6.7v-9.2c0-6 1.7-10.9 5.2-14.7 3.5-3.7 8.7-5.6 15.6-5.6 4.4 0 8 .7 11 2.2 3 1.5 4.5 3.2 4.5 5.1 0 1.2-.4 2.4-1.3 3.4-.9 1.2-1.8 1.7-3 1.7-.3 0-1.5-.5-3.6-1.5-2-1-4.3-1.5-6.8-1.5-7.4 0-11.1 3.5-11.1 10.7v9.1c0 7.2 3.7 10.7 11.2 10.7 2.6 0 4.8-.5 7-1.6 2-1.1 3.3-1.6 3.6-1.6 1.4 0 2.5.5 3.3 1.6.9 1.1 1.3 2.2 1.3 3.4 0 1.9-1.5 3.6-4.6 5.2s-6.8 2.5-11.3 2.5c-7 0-12.2-1.8-15.7-5.6-3.5-3.3-5.3-8.2-5.3-14.3m44.7 15.8V87.1c0-1.1.4-1.8 1.4-2.5 1-.6 2.1-1 3.7-1 1.5 0 2.9.3 3.9 1 1.1.6 1.6 1.5 1.6 2.5v45.2l21.1-19.5c.6-.6 1.4-1 2.2-1 1.2 0 2.2.5 3.4 1.6 1.2 1.1 1.7 2.2 1.7 3.4 0 .9-.3 1.6-.9 2.2l-13 11.7 15.8 23c.4.6.6 1.2.6 1.8 0 1.2-.6 2.5-2 3.6-1.4 1.2-2.7 1.8-4 1.8-1.2 0-2-.5-2.8-1.5l-14.9-22-7.4 6.7V157c0 .9-.5 1.7-1.6 2.5s-2.4 1.1-3.9 1.1-2.7-.3-3.6-1.1c-.7-.9-1.3-1.7-1.3-2.6m56.2-24.5H215c1.5 0 2.5-.2 3-.6s.7-1.2.7-2.5c0-2.7-1-4.9-2.9-6.8-1.9-1.8-4.4-2.8-7.3-2.8-2.8 0-5.2.9-7.3 2.7-2 1.8-3 4.1-3 6.7v3.3zm-10.6 8.7v-9.6c0-5.3 2-9.9 6.2-13.9 4.1-3.9 9.1-5.9 14.9-5.9 5.6 0 10.3 1.8 14.2 5.2 4 3.5 5.9 7.9 5.9 13.4 0 2-.2 3.7-.7 5-.4 1.3-1.2 2.1-2.2 2.7-1 .5-1.9.9-2.8 1-.9.1-2 .2-3.4.2h-21.3v2.4c0 3.4 1.2 6.1 3.6 8.1 2.5 2 5.6 3 9.5 3 2.8 0 5.3-.6 7.8-1.9 2.5-1.3 4-1.9 4.5-1.9 1.2 0 2.1.5 2.9 1.6.9 1.1 1.2 2.1 1.2 3.2 0 1.7-1.6 3.3-4.8 5.1-3.2 1.7-7.2 2.6-11.9 2.6-6.8 0-12.5-1.8-16.9-5.6-4.6-3.8-6.7-8.7-6.7-14.7zm49.6 15.8v-41.2c0-1.1.5-1.8 1.5-2.5 1-.6 2.2-1 3.7-1 1.3 0 2.5.3 3.4 1 1 .6 1.4 1.5 1.4 2.6v4.5c1.2-2.4 2.9-4.4 5.2-6.1 2.4-1.7 4.8-2.6 7.6-2.6h3.2c1.1 0 2 .4 2.8 1.4.9 1 1.2 2 1.2 3.3s-.4 2.5-1.2 3.4c-.9 1-1.7 1.4-2.8 1.4H260c-3.2 0-6.1 1.4-8.6 4.2-2.5 2.8-3.6 6.3-3.6 10.7v20.7c0 .9-.5 1.7-1.6 2.5-1.1.7-2.4 1.1-3.9 1.1s-2.7-.3-3.7-1.1c-1-.6-1.4-1.4-1.4-2.3m39.6-15c0 3.4 1.2 6.5 3.6 9.2 2.5 2.7 5.5 4 8.9 4 3.5 0 6.5-1.3 9-4s3.7-5.7 3.7-9.2v-11c0-3.3-1.3-6.3-3.7-8.9-2.6-2.7-5.5-4-8.9-4-3.4 0-6.4 1.3-8.9 4s-3.6 5.6-3.6 8.9v11h-.1zm-6.5 0v-11c0-5.1 1.9-9.6 5.7-13.4 3.7-3.7 8.2-5.7 13.5-5.7 5.1 0 9.7 1.8 13.5 5.6 3.9 3.7 5.8 8.2 5.8 13.4v11c0 5-1.9 9.5-5.8 13.5-3.9 3.9-8.3 5.9-13.5 5.9-5 0-9.5-1.9-13.4-5.9-3.9-3.8-5.8-8.3-5.8-13.4zm46.3 15.9v-42.9c0-.7.3-1.3.9-1.8.6-.4 1.4-.6 2.4-.6.9 0 1.5.2 2.1.7s.9 1.1.9 1.7v4.7c1.2-2.2 2.9-4.1 5.2-5.6 2.4-1.5 5.1-2.2 8.2-2.2 4.8 0 9.1 1.8 12.6 5.6 3.5 3.7 5.3 8.2 5.3 13.4v27.1c0 .9-.3 1.5-1 1.9s-1.5.7-2.4.7c-.9 0-1.5-.2-2.2-.7-.6-.4-1-1.1-1-1.9v-27c0-3.3-1.3-6.3-3.7-8.9-2.5-2.7-5.5-4-8.9-4-3.2 0-6 1.2-8.3 3.5-2.5 2.4-3.6 5.5-3.6 9.3v27c0 .6-.3 1.3-1.1 1.8-.6.5-1.4.9-2.4.9s-1.7-.3-2.4-.9c-.3-.4-.6-1.1-.6-1.8m51.8-24.3h20.2c2 0 3.3-.2 4.1-.6.6-.4 1-1.4 1-2.8 0-3.3-1.2-6.3-3.6-8.9-2.4-2.6-5.3-3.9-9-3.9-3.5 0-6.5 1.2-9 3.6-2.5 2.5-3.6 5.3-3.6 8.7v3.9zm-6.5 8.4v-11.3c0-5.1 1.9-9.5 5.7-13.2s8.3-5.6 13.6-5.6c5.1 0 9.5 1.8 13.3 5.2 3.7 3.5 5.6 7.9 5.6 13.3 0 1.9-.2 3.4-.6 4.6s-1.2 1.9-2.1 2.5c-1 .4-1.8.7-2.7 1-.9.1-1.9.2-3.3.2h-22.8v3.7c0 4 1.4 7.2 4.3 9.6 2.9 2.4 6.5 3.6 11 3.6 2.2 0 4.3-.3 6-1.1 1.7-.6 3-1.4 4-2s1.6-1.1 2.1-1.1c.7 0 1.4.3 1.9 1.1.5.7.9 1.4.9 2 0 1.4-1.5 2.9-4.4 4.4-2.9 1.5-6.5 2.2-10.8 2.2-6.4 0-11.6-1.8-15.6-5.3-4-3.4-6.1-8.1-6.1-13.8z" clip-rule="evenodd"/></svg>