<svg xmlns="http://www.w3.org/2000/svg" role="img" viewBox="-1.80 -1.55 127.61 132.73"><title>Helm plugin for Sigstore logo</title><style>svg {enable-background:new 0 0 124 129.1199951}</style><path fill="#27799f" d="M66.89094 12.85312c.05057 2.18176-.16373 4.3395-.71285 6.45008-.14843.57045-.01362.6639.51824.72497 6.94163.79712 13.3947 3.01243 19.29468 6.77145.69383.44205.82933.19725 1.08306-.42827 1.71176-4.21977 4.26462-7.85306 7.75386-10.79693 1.17025-.98735 2.42723-1.86123 3.98387-2.14573 1.5676-.2865 2.55575.4742 2.71567 2.0734.15581 1.55816-.1953 3.039-.74692 4.47293-1.66242 4.32143-4.22808 8.02354-7.73792 11.04808-.53048.45715-.6237.67797-.05655 1.206 2.79406 2.60137 5.17759 5.5497 7.23745 8.76556.3285.51286.33957.77225-.22606 1.09947-1.64283.95039-3.26494 1.93844-4.86839 2.954-.5305.336-.80334.33635-1.16711-.24725-2.35652-3.78051-5.3196-7.02469-8.84986-9.73988-5.72293-4.40164-12.15777-7.11637-19.36084-7.75906-14.16456-1.2638-25.6829 3.76356-34.58008 14.8373-.16985.2114-.33448.4275-.49182.64834-1.25421 1.76032-1.25333 1.76058-3.03295.61072-1.19614-.77285-2.38067-1.5647-3.59492-2.308-.52606-.32204-.69765-.55615-.28472-1.15946 2.0797-3.03853 4.44623-5.82487 7.17987-8.28757.55958-.50411.62059-.72824.037-1.29411-3.58986-3.48084-6.3401-7.49344-7.56696-12.42251-.22418-.90066-.2571-1.81839-.11545-2.72853.2036-1.30833 1.16885-1.99898 2.47713-1.80587 1.64413.24268 2.95696 1.1547 4.18389 2.1829 3.28181 2.75023 5.72063 6.14383 7.43643 10.04974.31968.72773.5511.78008 1.21417.38928 5.8713-3.46043 12.20428-5.50992 19.00559-6.0474.89437-.07067.99958-.36593.83045-1.2-.92316-4.55274-.9012-9.08974.46237-13.57111.3276-1.07668.78096-2.09892 1.4858-2.98675 1.24887-1.5731 2.72037-1.57026 3.96178.03536 1.23778 1.60093 1.72155 3.51037 2.10478 5.44792.33685 1.70303.46097 3.42647.4273 5.16093zm-9.0675 104.12566c.07917-1.72626.05098-3.46278.45314-5.16068.1486-.6274.16722-.9952-.73202-1.07382-6.9295-.60578-13.39008-2.7137-19.35474-6.29532-.62143-.37315-.79267-.23275-1.07193.35183-1.73167 3.62495-4.04985 6.81896-7.1496 9.40434-1.17647.98121-2.42814 1.86172-3.98422 2.1488-1.56974.2896-2.56024-.4687-2.72214-2.06604-.15797-1.55858.20202-3.03662.74254-4.47528 1.40557-3.74102 3.56935-7.00546 6.3994-9.8062.68152-.67446.57369-.9712-.05936-1.53988-2.12766-1.91132-3.95376-4.09766-5.6563-6.39377-.3835-.5172-.42475-.78814.1598-1.17283 1.5581-1.02537 3.09288-2.08906 4.59757-3.19126.56326-.4126.84552-.38022 1.26635.20231 3.37244 4.66828 7.5978 8.39003 12.67263 11.10944 7.6346 4.0911 15.7523 5.52926 24.3132 4.13012 10.3701-1.69485 18.65936-6.8464 24.91633-15.27278.39298-.52923.6649-.68926 1.26493-.2453 1.49905 1.10918 3.03954 2.16482 4.59602 3.19253.54545.36016.62903.5927.21198 1.15612-1.59939 2.16061-3.31185 4.2197-5.27167 6.05862-.49615.46554-.39615.6577.0478 1.07548 3.77547 3.55288 6.6454 7.67915 7.91922 12.78562.216.86586.23946 1.7511.11325 2.62932-.19618 1.36524-1.16434 2.0635-2.5309 1.85292-1.60634-.24751-2.8933-1.13745-4.0967-2.13992-3.3466-2.78786-5.80222-6.25182-7.54866-10.22027-.2791-.6342-.46588-.6853-1.03314-.3183-5.90463 3.82009-12.36167 6.1227-19.3484 6.9121-.66383.075-.62614.30335-.53115.83555.74194 4.15653.7389 8.30171-.35467 12.40651-.3682 1.38204-.86996 2.71632-1.81196 3.83003-1.20153 1.42054-2.59914 1.42942-3.76488-.03124-1.49171-1.86912-1.94631-4.13855-2.35182-6.41806-.2509-1.4104-.21386-2.83985-.2999-4.26069zm39.99159-55.70062c1.2383 6.8138 1.25077 13.58078 1.21513 20.3543-.00484.92064-.25187 1.13316-1.13156 1.10325-2.00042-.068-4.0053-.048-6.00715-.00609-.64008.0134-.78816-.18446-.78708-.80186.0184-10.5907.0191-21.18144-.0008-31.77213-.00125-.66348.1756-.86088.84614-.85087 2.54528.038 5.09229.05116 7.63682-.00658.76464-.01735 1.0507.27466 1.28612.93878 2.12672 5.9996 4.56225 11.89284 6.18897 18.06413.0496.18822.14678.36392.25429.62413.44955-.59184.51463-1.24666.6811-1.84526 1.61716-5.81454 3.8225-11.43009 5.75798-17.13675.17315-.51049.45038-.63995.96318-.63494 2.61349.02554 5.2277.03465 7.84087-.00401.66262-.0098.77512.23269.77429.82277-.01493 10.5907-.01448 21.18144-.00076 31.77215.00074.57288-.0779.84642-.75866.83185-2.13753-.04576-4.27723-.04414-6.41485-.0008-.67412.01367-.76716-.25255-.76955-.83357-.02615-6.34623-.10409-12.69345.93407-18.98764.06582-.39908.05355-.81169.066-1.21836.00251-.08224-.04747-.16607-.14-.46428-.33523 1.0022-.61063 1.81767-.8809 2.63483-1.7131 5.1793-3.71549 10.25377-5.56063 15.38515-.22253.61887-.54199.82877-1.18587.79649-1.04966-.05263-2.10475-.03984-3.15574-.00301-.48875.01713-.7267-.16018-.88936-.60821-2.1033-5.79313-4.4161-11.51225-6.14152-17.43875-.07012-.24085-.08372-.54199-.62053-.71472zm-69.4481 4.74217c0 5.2261-.01346 10.4523.01514 15.67825.00408.7461-.11153 1.06366-.97205 1.03837-2.30564-.06771-4.6151-.05052-6.9219-.00655-.70144.01337-.91872-.15996-.9114-.8896.03782-3.76648-.00175-7.53374.03358-11.30028.00718-.76566-.14603-1.05933-.9928-1.04045-2.64568.05897-5.2944.0607-7.93998-.0002-.88846-.02047-1.04577.28925-1.03682 1.09715.04134 3.73246-.00715 7.46596.03869 11.19834.00969.78891-.23057.95096-.9685.93602-2.34062-.04737-4.68302-.03557-7.0242-.00503-.59579.00776-.81548-.11428-.81412-.77342.02182-10.62184.02151-21.24376.00063-31.8656-.00129-.65277.21062-.78774.8132-.77963 2.34114.0315 4.6836.04343 7.02416-.00505.74531-.01543.97843.16053.9681.94285-.04566 3.46085.00504 6.92296-.0381 10.38388-.01007.80864.15005 1.11526 1.0368 1.09483 2.64558-.06094 5.29432-.0597 7.93996.0001.84668.01914 1.00108-.2717.99303-1.03794-.0367-3.495.00449-6.99082-.03286-10.4858-.00772-.72267.20399-.91001.91054-.89655 2.3068.04397 4.61626.06114 6.9219-.00653.86546-.0254.9756.30225.97167 1.0446-.02763 5.22596-.01467 10.45213-.01467 15.67824zm7.14654.04313c0-5.26119.01364-10.52245-.0159-15.78348-.00407-.72253.12293-.98455.9275-.98003 6.51689.0366 13.03412.03188 19.55109.0047.72848-.00304 1.008.13552.98089.9351-.06322 1.86473-.05057 3.73382-.00435 5.59955.01705.68826-.22075.8425-.86594.83757-3.59777-.02751-7.19609.00839-10.79365-.0303-.77471-.00833-1.0463.15425-1.02752.99555.0403 1.80494.05206 1.452.00301 3.25625-.02134.7849.1681 1.04376.99838 1.02864 2.95208-.05375 5.90634.01223 8.8584-.04218.8343-.01537 1.01235.25747.99129 1.0295-.0518 1.8994-.04515 3.8018-.0019 5.70164.01532.6733-.19128.86125-.85677.8539-2.98664-.03294-5.97414.00881-8.96063-.03033-.7582-.00992-1.04853.1322-1.03368.9839.02397 1.3747-.01851 2.73963.0039 4.07123.01238.73495.21941.89893.91658.89288 3.7674-.03268 7.53547.00675 11.30273-.0335.78694-.00842 1.04639.18052 1.01724 1.00085-.06506 1.83062-.04309 3.66558-.00784 5.49783.01207.62778-.1144.8803-.8222.87745-6.78851-.02732-13.57724-.02842-20.36575.0012-.72622.00318-.80812-.27564-.8059-.88438.01916-5.26112.01103-10.52235.01102-15.78354zm28.51514-.07294c0-5.22713.01757-10.4544-.0187-15.68127-.00553-.79598.1952-1.0291 1.00326-1.00875 2.2727.05725 4.54901.06288 6.8213-.00223.8475-.02428.98291.27604.98055 1.0327-.02491 7.9764-.00227 15.95295-.03447 23.9293-.00346.85536.14493 1.1564 1.09134 1.13849 3.52874-.06679 7.05986-.00105 10.58928-.04642.78592-.0101.96386.22911.94284.9725-.0527 1.86536-.04297 3.73373-.00315 5.59972.01335.62478-.16259.80504-.79445.80291-6.58477-.02214-13.16967-.0238-19.7544.00167-.67806.00262-.84058-.19964-.83748-.85361.02512-5.29491.0141-10.58998.01408-15.885z"/></svg>