<svg xmlns="http://www.w3.org/2000/svg" role="img" viewBox="-6.17 57.58 412.10 129.60"><title>Hitachi, Ltd. logo</title><style>svg {enable-background:new 0 0 400 245}</style><g fill-rule="evenodd" clip-rule="evenodd"><path d="M307.48 67.02v21.56h28.75s-.22-21.56 0-21.56h14.15v53.68h-14.15V97.12h-28.75v23.58H293.1s.22-53.68 0-53.68h14.38zm-134.99 0v9.21H150.7v44.47h-14.15V76.23h-21.79v-9.21h57.73zm55.25 53.68h-15.72l-4.72-11.45h-26.73l-4.49 11.45h-15.95l25.16-53.68h17.3l25.15 53.68zm-33.69-44.47l-9.88 24.26h19.77l-9.89-24.26zm167.56-9.21h14.16v53.68h-14.16V67.02zm-320.3 0v21.56h28.75V67.02h14.15v53.68H70.06V97.12H41.31v23.58H27.15V67.02h14.16zm54.13 0h14.38v53.68H95.44V67.02zm131.85 38.86c-1.35-3.59-2.02-7.41-2.02-11.46 0-5.62 1.12-11.01 3.82-15.72 2.69-4.49 6.96-8.09 12.13-10.11 4.94-1.8 10.33-2.92 15.72-2.92 6.51 0 12.58 1.57 17.97 3.82 5.17 2.25 8.98 6.74 10.11 12.35.22 1.12.45 2.25.67 3.37h-15.05c0-1.35-.22-2.7-.67-4.04-1.12-2.92-3.59-5.17-6.74-6.29-2.02-.45-4.04-.9-6.29-.9-2.47 0-4.72.45-6.96 1.35-3.59 1.12-6.51 4.04-7.86 7.86-1.12 3.37-1.8 7.19-1.8 11.23 0 3.14.45 6.29 1.35 9.43 1.12 3.82 4.04 6.96 7.64 8.54 2.47.67 4.94 1.35 7.64 1.35 2.25 0 4.49-.45 6.51-1.12 2.92-.9 5.17-2.92 6.29-5.61.9-1.57 1.12-3.6 1.12-5.62h15.05c0 1.8-.22 3.37-.67 5.17-1.35 5.17-4.94 9.66-9.88 11.68-5.62 2.47-11.91 3.82-18.42 3.82-4.94 0-9.88-.9-14.38-2.24-6.97-2.26-13.03-7.2-15.28-13.94zM14.35 135.75l-12.58 1.12v1.79h.45c4.94.67 4.94.67 4.94 4.27v26.5h7.64v-33.92l-.45.24zm26.96 9.88c-4.72 0-7.64 3.14-8.99 5.17v-5.17h-.45l-10.33 1.57v1.8h.45c3.37.22 4.04.9 4.04 3.82v16.62h6.29v-12.13c0-3.14 3.14-7.41 6.29-7.41s3.37 2.47 3.37 6.74v12.8h6.29v-16.62c0-4.49-2.47-7.19-6.96-7.19zm24.93 9.22c-2.47-1.12-4.72-2.25-4.72-4.04 0-1.8 2.47-2.02 3.37-2.02 2.7 0 5.17 1.35 6.06 2.02l1.12.67v-4.93h-.9c-1.12-.45-3.37-.9-5.84-.9-6.06 0-9.66 2.69-9.66 6.96 0 3.82 3.82 5.62 7.19 7.41 2.47 1.12 4.94 2.47 4.94 4.27 0 1.79-1.57 2.69-4.27 2.69-2.92 0-5.62-1.57-6.96-2.47l-.9-.45V169l.67.22c1.12.22 3.59.89 6.96.89 6.51 0 10.33-2.69 10.33-7.19.02-4.48-3.8-6.28-7.39-8.07zm28.3-9.22c-2.47 0-4.72 1.12-6.96 3.37v-3.37h-.45l-10.11 1.57v1.8h.45c3.15.22 3.82.9 3.82 3.82v26.51h6.29V167.2c1.12 1.57 3.15 2.92 6.74 2.92 6.51 0 10.11-4.49 10.11-12.58-.01-7.64-3.6-11.91-9.89-11.91zm-2.02 3.6c4.49 0 4.94 4.72 4.94 8.31 0 6.06-1.57 8.98-4.72 8.98-4.27 0-5.17-3.82-5.17-7.19v-2.02c.01-2.46.46-8.08 4.95-8.08zm16.4-2.02V149h.45c3.14.22 3.82.9 3.82 3.82v16.62h6.29v-23.81h-.45l-10.11 1.58zm7.41-4.5c2.25 0 4.04-1.57 4.04-3.37 0-2.02-1.8-3.59-3.82-3.59-2.25 0-4.04 1.57-4.04 3.59 0 1.81 1.8 3.37 3.82 3.37zm30.1 8.32v-4.94l-.45-.22c-1.12 0-2.02-.22-2.92-.22-3.82 0-5.61 2.69-6.51 4.72v-4.72h-.67l-10.11 1.57V149h.45c3.14.22 3.82.9 3.82 3.82v16.62h6.51v-11.9c0-2.02.45-6.74 6.51-6.74.67 0 1.57.22 2.25.45l1.12.22v-.44zm25.38 4.26c0-6.29-3.59-9.66-10.78-9.66-7.86 0-11.9 3.82-11.9 11.46 0 8.09 5.17 13.03 13.93 13.03 3.82 0 6.74-1.12 7.86-1.34l.22-.22v-2.92l-.45.22c-1.12.22-2.92.67-5.17.67-6.74 0-9.21-5.61-9.43-10.78h15.72v-.46zm-11.01-6.96c3.59 0 4.49 2.47 4.49 4.72h-9.21c.23-1.8 1.13-4.72 4.72-4.72zm69.41-2.7c-4.72 0-7.41 2.92-8.99 5.17v-15.95h-.45l-10.11 1.35v1.8h.45c3.14.22 3.82.9 3.82 3.82v27.63h6.29v-11.9c0-4.27 3.37-7.64 6.07-7.64 3.59 0 3.59 2.69 3.59 4.94v14.6h6.51v-15.27c.01-2.48.01-8.55-7.18-8.55zm35.94 9.66c0-6.29-3.59-9.66-10.56-9.66-8.09 0-12.13 3.82-12.13 11.46 0 8.09 5.17 13.03 13.93 13.03 3.82 0 6.74-1.12 7.86-1.34l.45-.22v-2.92l-.67.22c-1.12.22-2.92.67-4.94.67-6.96 0-9.43-5.61-9.66-10.78h15.72v-.46zm-10.78-6.96c3.37 0 4.27 2.47 4.27 4.72h-9.21c.22-1.8 1.35-4.72 4.94-4.72zm-61.1-9.43v7.41H190V149h4.27v14.38c0 6.29 3.82 6.74 8.76 6.74 1.12 0 2.47-.22 3.82-.45h.22v-2.92h-.45c-.67.22-1.12.22-2.02.22-3.82 0-4.04-1.12-4.04-4.27V149h7.19v-2.69h-7.19v-7.41h-6.29zm126.01-2.7h-6.51v25.38c-1.35-2.02-16.62-25.38-16.62-25.38h-14.82v1.8l1.35.22c3.82.67 4.04.9 4.04 4.49v26.73h6.96v-26.5c1.35 2.02 17.52 26.5 17.52 26.5h8.54V136.2h-.46zm28.98 19.09c0-6.29-3.37-9.66-10.56-9.66-7.86 0-11.9 3.82-11.9 11.46 0 8.09 5.17 13.03 13.93 13.03 3.82 0 6.74-.89 7.86-1.34l.22-.22v-2.92l-.45.22c-1.12.22-3.14.67-5.17.67-6.74 0-9.43-5.61-9.43-10.78h15.5v-.46zm-10.78-6.96c3.37 0 4.27 2.47 4.49 4.72h-9.21c.23-1.8 1.12-4.72 4.72-4.72zm46.27-9.43v7.41h-4.27V149h4.27v14.38c0 6.29 3.82 6.74 8.76 6.74 1.12 0 2.47-.22 3.82-.45h.22v-2.92h-.45c-.67.22-1.12.22-2.02.22-3.82 0-4.04-1.12-4.04-4.27V149h7.19v-2.69h-7.19v-7.41h-6.29zm-13.03 14.82l6.74-7.41h-6.96l-6.06 7.19-5.62-7.19h-9.88v1.79h.45c3.37.22 4.27.9 6.29 3.6l4.04 5.16-6.74 7.64h6.96l2.92-3.37 6.29 8.31h7.64l-12.13-15.72h6.06z"/><path fill="#e82d3c" d="M384.53 138.9h-6.74l8.31-9.44h6.74l-8.31 9.44z"/></g></svg>