<svg xmlns="http://www.w3.org/2000/svg" role="img" viewBox="-5.68 -5.93 295.36 132.61"><title>Institute of Software Chinese Academy of Sciences logo</title><defs><style>.cls-1{fill:#ed6f00}</style></defs><path d="M1.35 65.88h23.1l2.42-11.13Q14.2 59.7 1.47 65.32zm207.88-52.36c-10.44.92-21.63 2.13-33.45 3.73l-29.8 48.84h21.54l4.67-8.58h22.59l.66 8.67h22.12zm-29.8 30.55l12.3-22.88 2.19 22.88z" class="cls-1"/><path d="M228.51 12.08c-3.56 4.7-10.5 16.72 4.06 24.8a42.32 42.32 0 0 0 13.12 4.88c12.25 2.53 11.68 5.94 11.68 5.94s.54 5-10.43 5.25c-10.26.39-8.93-6.7-8.93-6.7h-21.35s-4.42 20.62 25.84 20.74c0 0 26.15.67 34.57-16.17 0 0 3.7-6.43 1.71-11.75 0 0-1.85-8.64-19.43-12.57 0 0-17.89-3.29-12.81-9.36a8.07 8.07 0 0 1 5.64-2.27s9.83-.75 9.44 5.67h21a17.33 17.33 0 0 0-1.3-9.57c-10.07-.27-28.55-.37-52.81 1.11zM70.15 47.7s.53 5-10.44 5.25c-10.26.39-8.92-6.7-8.92-6.7h-.42Q40.14 49.7 29.85 53.6c1.67 5.93 7.39 13.29 25.43 13.36 0 0 26.15.67 34.56-16.17 0 0 3.7-6.43 1.72-11.75a10.62 10.62 0 0 0-2.78-4.45q-13.39 3.58-27.11 7.92c8.94 2.4 8.48 5.19 8.48 5.19zm71.93-21.9h19.91a21.85 21.85 0 0 0 .19-6.59q-9.85 1.49-20.1 3.39a19.12 19.12 0 0 1 0 3.2z" class="cls-1"/><path fill="#aaaaa0" d="M38.36 2.19H16.44L4.99 50.5q12.28-4.8 24.74-8.8zm169.19-.06l-22.4-.09-6 9.65c10.31-1 20.17-1.76 29.46-2.35zm71.71 5.73a6.24 6.24 0 0 0-.72-.92c-2.46-2.54-6.31-4.68-12.27-5.58 0 0-20.86-3.22-33.35 6.32l-.56.5c20.65-.74 36.94-.58 46.9-.32zM72.13 26.47s-17.9-3.29-12.82-9.36a8.15 8.15 0 0 1 5.65-2.27s11.25-1.47 9.43 5.67h21a17.24 17.24 0 0 0-1.55-10.06 15.53 15.53 0 0 0-2.54-3.56c-2.47-2.54-6.32-4.68-12.27-5.58 0 0-20.86-3.22-33.35 6.32a30.52 30.52 0 0 0-2.75 2.42s-.13.12-.33.35-.56.63-.8.94c-3.26 4.13-11.72 16.97 3.45 25.49 10.94-3.24 21.88-6.12 32.75-8.7a53.6 53.6 0 0 0-5.87-1.66zm52.39-7.67a14.6 14.6 0 0 1 6.67-2.51 11.52 11.52 0 0 1 5.94.55c8.08-1.21 16-2.26 23.74-3.18a16.89 16.89 0 0 0-5-7.26 28.38 28.38 0 0 0-8.25-4.77 32 32 0 0 0-12-1.62 48.22 48.22 0 0 0-12.45 2.12 44.55 44.55 0 0 0-13.43 7.1q-6.49 4.8-11.09 14.37c8.72-1.77 17.36-3.36 25.86-4.77z"/><path d="M94.25 38.27a33.22 33.22 0 0 0 .52 12.43 21.34 21.34 0 0 0 5.69 10 24.47 24.47 0 0 0 11.7 6.2 37.93 37.93 0 0 0 18.52-.09c6.71-1.56 11.92-4 15.53-7.37a48.14 48.14 0 0 0 12-17.8h-19.6l-2.09 3.42a11.69 11.69 0 0 1-4.18 3.77 12.61 12.61 0 0 1-8.55 1.87c-2.86-.45-4.93-1.51-6.24-3.19a10.83 10.83 0 0 1-2.16-6.07 28.12 28.12 0 0 1 .81-7.95 35 35 0 0 1 1.84-6q-11.22 2.46-22.76 5.43a44.56 44.56 0 0 0-1.03 5.35z" class="cls-1"/><path fill="#231815" d="M7.08 90.77v3.76h-4.2v-3.76zm-4.2 7.61v-1.54h4.2v7.42h3.08v-7.42h4.27v1.28h3.17v-9.75h-7.41v-2.14a3.64 3.64 0 0 1 .28-1.64c.06-.12.08-.21.06-.24s-.17-.14-.58-.15H7.03v4.19h-7v10zm7.28-3.85v-3.76h4.27v3.76zm34.18 6.26H32.01V87.02h12.33zm-12.33 3.4v-1.11h12.33v.94h2.82V84.7H29.28v19.48zm1.12-9.73h3.5v2.83h-4v2.22h11.13v-2.22h-1.68l1.29-.86c-.11-.14-.5-.8-1.2-2h1V92.3h-3.8v-1.89h4.19V88.3H32.79v2.14h3.84v1.89h-3.5zm8 2.83h-1.76v-2.83h1.71l-1.29.86a23.07 23.07 0 0 1 1.29 1.97zm31.19-8.41l-2 1.54c-.1-.12-.26-.33-.47-.62-.52-.73-1.25-1.66-2.19-2.8l2.14-1.54a18.29 18.29 0 0 1 2.52 3.42zm.26-4.62h1.8c.77 0 1.14.11 1.11.35a2.36 2.36 0 0 1 0 .24 6.91 6.91 0 0 0-.14 1.38v9.58l2.31-.34.17 2.23-2.48.42v6h-2.77v-5.54l-6.24.94-.26-1.88-.34.26a1.33 1.33 0 0 1-.26-.33 17.26 17.26 0 0 0-1.4-1.87v8.19h-2.57v-7.34l-.58 1.07a29.67 29.67 0 0 1-1.81 3 12.29 12.29 0 0 0-1.42-1.8 1.44 1.44 0 0 1-.29-.34 21.79 21.79 0 0 0 3.68-6.42h-3.17v-2.22h3.59v-2.4l-2.73.26a6 6 0 0 0-.94-2.14 40.82 40.82 0 0 0 7.95-1.2c.12.24.3.58.56 1s.44.79.56 1a.73.73 0 0 1 .09.34c0 .11 0 .17-.09.17l-2.83.26v2.65h2.91V92h-2.91v2l1.2-.85a35.58 35.58 0 0 1 2.48 3.08l-.94.77 5.73-.86zm-.85 10.44l-2.31 1.11a19.49 19.49 0 0 0-2.14-3.76l2.31-1.37q1.17 2.02 2.14 4.02zm24.26-6.65c-.22-.91-.57-2-1-3.43.21 0 .42-.07.63-.09 1.07-.18 1.91-.29 2.53-.33 0 .19.09.39.14.57a26.23 26.23 0 0 1 .55 2.85c-1.09.19-2.03.34-2.85.43zm-3.25.77h6.25a26.1 26.1 0 0 0 2.74-4.79 18.37 18.37 0 0 1 3.25 1.28c0 .06-.12.24-.44.53l-.5.49-.75.92c-.4.52-.81 1-1.22 1.48h4.19v4.62h-2.91v-2.22H90.43v2.22h-2.74v-4.53h4.2a16 16 0 0 0-2.23-2.83c.86-.46 1.8-.92 2.83-1.37a33.33 33.33 0 0 1 2.14 3.09c-.17.13-.67.42-1.47.87zm5.05 6.07h-6.71v-2.31h11.72a7.57 7.57 0 0 1-3.85 4.19v.18h7.62v2.39h-7.7v2.8q.07 1.44-.75 1.77a11.05 11.05 0 0 1-3.87.46 10 10 0 0 0-.86-2.81 2.16 2.16 0 0 1 .39-.05 2.41 2.41 0 0 0 2.18-.89v-1.28h-8.38v-2.39h8.38v-.69c0-.31.09-.5.37-.54a5.21 5.21 0 0 0 1.46-.83zm21.44-2.49a4 4 0 0 1 1.63 3.25q.14 1.73-1.71 1.71V87.27h1.28a17.37 17.37 0 0 1-1.2 5.13zm4.11-1.62h1.29v1.71h9.15v-1.71h1.37V86.5h-4.36a8.44 8.44 0 0 0-.69-2.4 22.63 22.63 0 0 0-2.82.26 2 2 0 0 0 .19.58 14.32 14.32 0 0 1 .57 1.56h-4.7zm-6.67 13.32h2.48v-6.14a5 5 0 0 1 .6 1.88q3.54-.21 3.34-3.5h2.9c.15 2.91-1.53 4.79-5 5.62a6.14 6.14 0 0 1 1.79 2.14q3.5-1.5 4.59-3.08c.76-.94 1.11-2.5 1.06-4.68h.77v6.05c0 .91.57 1.37 1.71 1.37h2.65a2.18 2.18 0 0 0 2-.71 5.26 5.26 0 0 0 .7-2.78 6.57 6.57 0 0 1-2.4-.94c0 1.48-.25 2.2-.77 2.14h-.86c-.24 0-.38-.23-.43-.6v-4.53h3.77v-2.31h-12.49v1.67a8.63 8.63 0 0 0-1.37-3.77c.06-.35.19-1.06.4-2.13.34-1.61.63-3.18.88-4.71h-6.33zm9.24-13.75v-1.72h6.42v1.72zm19.99-1.38v-2.13h2.82l.09-.29c.35-1.16.58-2 .68-2.45a12.93 12.93 0 0 1 2.82.86 19.38 19.38 0 0 0-.94 1.88h3.77v2.13h-4.53l-.49 1.21c-.62 1.5-1 2.47-1.14 2.9h1.37V90h.51a13.45 13.45 0 0 1 1.55.06c.3 0 .47.1.5.2a.73.73 0 0 1 0 .4 6.78 6.78 0 0 0-.14 1.4v1h2.48v2.14h-2.48V97c1.37-.1 2.42-.21 3.17-.34v2.22l-3.17.34v4.69h-2.39V99.7a23.54 23.54 0 0 0-3.94.86c-.39-1.86-.59-2.82-.6-2.91 2-.11 3.5-.23 4.54-.34v-2h-.3q-2.28.16-3.45.33a9.69 9.69 0 0 1-.69-2.48c0-.06.08-.16.27-.29a1 1 0 0 0 .25-.22 4.91 4.91 0 0 0 1.11-2.39 11 11 0 0 1 .43-1.3zm12.23 4.54v-2.65h1.46c1 0 1.53.14 1.54.43a1.16 1.16 0 0 1 0 .27A6.25 6.25 0 0 0 161 93v.51a9.93 9.93 0 0 0 4.87 8.22 19.35 19.35 0 0 0-2.31 2.37 11.68 11.68 0 0 1-3.67-5.2 13 13 0 0 1-4.2 5.46 8.65 8.65 0 0 0-2.31-1.88q4.96-2.78 4.75-8.97zm.52-5.81h6.93a40.62 40.62 0 0 1-1 4.61c-1.09-.11-2-.17-2.74-.17.24-.88.41-1.57.52-2.05h-4.54a18.08 18.08 0 0 1-1.28 2.57 23.08 23.08 0 0 0-2.57-1 19.75 19.75 0 0 0 2.91-7.61c.69.23 1.42.44 2.18.62a3.84 3.84 0 0 1 1.07.32 12.66 12.66 0 0 0-1.48 2.71zm22.3 1.81v14.44h-2.66v-9.57a8.34 8.34 0 0 1-1.36 1.8h-.07a8.06 8.06 0 0 0-1.8-1.63v-.08q3.1-3.5 4.2-10.27a17.25 17.25 0 0 1 2.9.69c.26.09.34.23.26.42l-.2.57c-.66 1.82-1.07 2.98-1.27 3.63zm4.7-.86h1.71v-4.36h.94a13.51 13.51 0 0 1 1.61.06c.27 0 .41.14.45.28a.81.81 0 0 1-.06.57 2.24 2.24 0 0 0-.2.88v2.62h4.19v2.31h-4.21v3.69h5.31v2.39h-5.31v7.08h-2.65v-7.08h-5.82V94.7h5.82v-3.77h-2.35a18.39 18.39 0 0 1-1.28 3.08 8.12 8.12 0 0 0-2.23-.85 23.84 23.84 0 0 0 2.06-7.19 14.13 14.13 0 0 1 2.39.51c.15 0 .23 0 .25.1s0 .18-.07.33-.13.4-.23.76a9.38 9.38 0 0 1-.32 1.03zm32.43 3.9v-5.39h1.71v5.39zm-13.26-4.79h2.65a14.27 14.27 0 0 1-3.08 7.27c.18.25.45.65.8 1.2s.56.86.74 1.11l.77-.85v5.45h2.38v-2h1.62v.76h2.57v-5.82h2.13v.52a7.35 7.35 0 0 1-3.67 7 18.52 18.52 0 0 1 2.56 1.8 11.89 11.89 0 0 0 3.68-9v-.35h1.8v9.22h2.74v-9.22h2.39v-2.39h-2.39v-5.22h1.57v-2.31h-10.57v.51h-8.72zm5.22.79c.07-.35.12-.61.17-.79h3.51v-.51h1.7v5.3h-2.13v-1.54h-3.94a12.77 12.77 0 0 0 .66-2.46zm.68 4.69v4.7h-1.64v-4.7zm34.59-6.76h7.19v4.11h-2.74v-1.8H237.7v2h-2.62v-4.28h7.36c-.22-.89-.42-1.6-.6-2.14a9.27 9.27 0 0 1 1.67-.1h1.67c0 .17 0 .4.07.7a13 13 0 0 1 .06 1.51zm-8.3 8.22l-2.05-1.72a20.87 20.87 0 0 0 5.65-4c.63.34 1.43.82 2.39 1.46.19.15.13.31-.17.48l-.17.12a47.19 47.19 0 0 1-5.65 3.66zm15.15-1.72l-2.08 2.06a40.12 40.12 0 0 0-5.12-3.66l-.7-.45a12.23 12.23 0 0 0 2-1.71 43.56 43.56 0 0 1 5.9 3.76zm-8 1.8h4.53v5.74a1.48 1.48 0 0 0 .08.62c.05.1.16.15.34.14h.86c.45 0 .72-.09.8-.33a5.35 5.35 0 0 0 .23-1.81 18.29 18.29 0 0 0 2.82.86 6.32 6.32 0 0 1-.59 3.06c-.28.48-.9.71-1.89.68h-3.08a3.71 3.71 0 0 1-1.93-.3.83.83 0 0 1-.31-.42 2.74 2.74 0 0 1-.07-.82v-5.11h-2.22c-.49 3.43-3 5.81-7.62 7.17a21.51 21.51 0 0 0-1.83-2.56q5.82-1.08 6.5-4.53h-4.8v-2.31h5.22c0-.23.08-.69.13-1.37s.1-1.14.13-1.37a13.7 13.7 0 0 1 3.25.25 1.84 1.84 0 0 1-.14.55 11.75 11.75 0 0 0-.49 1.86zm25.92-2.73v3.08h-2.31v-3.08zm3.42-5a14.67 14.67 0 0 0-1.24-2.18l-.38-.64a27.23 27.23 0 0 1-6.8 1.47v10.2a11.57 11.57 0 0 1-.36 3.17 16.49 16.49 0 0 1-1.36 3.4 7.5 7.5 0 0 1 2.15 1.62 16.17 16.17 0 0 0 2.13-6.82h2.44v.77h2.74V89.7h-5v-2c2.36-.29 4.26-.51 5.65-.7zm7.4.38l2.44-.12a19.21 19.21 0 0 0-1.71-2.91 23 23 0 0 1-7.53 1.19v8.22a11.83 11.83 0 0 1-.86 4.94 10.87 10.87 0 0 1-3.07 3.77 9 9 0 0 1 2.73 1.45q4.17-4.28 3.85-8.79v-2.14h1.8v10.93h2.83V92.99h2.13v-2.4h-6.67v-3zM2.08 109.48v8.87H.42v-8.87zm1.77 4.37c0-.74 0-1.35-.06-1.91h1.42l.08 1a2.33 2.33 0 0 1 2-1.1c1.12 0 2.27.72 2.27 2.74v3.81H8.08v-3.69c0-.91-.34-1.62-1.23-1.62a1.35 1.35 0 0 0-1.26 1 1.57 1.57 0 0 0-.07.51v3.77H3.85zm7.44 3.01a3.6 3.6 0 0 0 1.64.47c.71 0 1-.3 1-.72s-.26-.66-1-.94c-1.26-.43-1.78-1.11-1.78-1.87 0-1.12.94-2 2.44-2a3.69 3.69 0 0 1 1.7.38l-.33 1.14a2.76 2.76 0 0 0-1.35-.37c-.58 0-.9.28-.9.68s.31.6 1.12.89c1.17.42 1.71 1 1.71 2 0 1.17-.91 2-2.6 2a4.23 4.23 0 0 1-2-.45zm7.42-6.56v1.64h1.55v1.21h-1.55v2.83c0 .78.21 1.18.83 1.18a2.1 2.1 0 0 0 .63-.07v1.23a3.69 3.69 0 0 1-1.18.17 1.91 1.91 0 0 1-1.4-.53 2.6 2.6 0 0 1-.5-1.8v-3h-.92v-1.21h.92v-1.19zm2.77 8.05v-6.41h1.6v6.41zm.79-7.4a.92.92 0 1 1 0-1.84.92.92 0 1 1 0 1.84zm4.43-.65v1.64h1.54v1.21H26.7v2.83c0 .78.21 1.18.83 1.18a2.15 2.15 0 0 0 .63-.07v1.23a3.64 3.64 0 0 1-1.18.17 1.9 1.9 0 0 1-1.39-.53 2.55 2.55 0 0 1-.5-1.8v-3h-.92v-1.21h.91v-1.19zm8.5 6.13v1.92h-1.37l-.07-1a2.33 2.33 0 0 1-2 1.11c-1.17 0-2.23-.7-2.23-2.79v-3.76h1.55v3.49c0 1.06.33 1.75 1.19 1.75a1.36 1.36 0 0 0 1.24-.87 1.49 1.49 0 0 0 .09-.5v-3.87h1.62zm3.6-6.13v1.64h1.54v1.21H38.8v2.83c0 .78.21 1.18.83 1.18a2.19 2.19 0 0 0 .63-.07v1.23a3.64 3.64 0 0 1-1.18.17 1.9 1.9 0 0 1-1.39-.53 2.55 2.55 0 0 1-.51-1.8v-3h-.91v-1.21h.91v-1.19zm3.83 4.17a1.59 1.59 0 0 1 1.45-1.57 1.38 1.38 0 0 1 1.33 1.57zm4.29 1.13a3.44 3.44 0 0 0 .06-.68c0-1.41-.68-3.12-2.76-3.12a3.16 3.16 0 0 0-3.14 3.44 3 3 0 0 0 3.29 3.25 5.85 5.85 0 0 0 2.24-.41l-.24-1.11a4.86 4.86 0 0 1-1.76.29 1.75 1.75 0 0 1-2-1.66zm6.9 1.72c-1 0-1.58-.93-1.58-2.17 0-1.06.47-2.17 1.61-2.17s1.56 1.15 1.56 2.15c0 1.29-.65 2.19-1.57 2.19zm0 1.17a3.17 3.17 0 0 0 3.28-3.41 3.07 3.07 0 0 0-3.19-3.28 3.16 3.16 0 0 0-3.31 3.39 3.09 3.09 0 0 0 3.2 3.3zm4.78-.14v-5.2h-.87v-1.21h.87v-.24a3 3 0 0 1 .78-2.19 2.42 2.42 0 0 1 1.68-.62 3 3 0 0 1 1 .16l-.11 1.24a2.07 2.07 0 0 0-.69-.11c-.8 0-1.07.67-1.07 1.46v.33h1.4v1.21H60.2v5.2zm6.77-1.76a4.5 4.5 0 0 0 2.14.56c1 0 1.61-.49 1.61-1.21s-.44-1.07-1.57-1.47c-1.46-.53-2.4-1.31-2.4-2.58 0-1.45 1.22-2.55 3.14-2.55a4.78 4.78 0 0 1 2.13.44l-.39 1.31a3.81 3.81 0 0 0-1.77-.42c-1 0-1.47.54-1.47 1.07 0 .68.52 1 1.7 1.45 1.54.58 2.28 1.36 2.28 2.63 0 1.43-1.07 2.67-3.36 2.67a5.24 5.24 0 0 1-2.4-.56zm9.71.73c-1 0-1.58-.93-1.58-2.17 0-1.06.47-2.17 1.6-2.17s1.57 1.15 1.57 2.15c0 1.29-.64 2.19-1.58 2.19zm0 1.17a3.17 3.17 0 0 0 3.28-3.41 3.07 3.07 0 0 0-3.28-3.28 3.17 3.17 0 0 0-3.31 3.39 3.09 3.09 0 0 0 3.21 3.3zm4.74-.14v-5.2h-.87v-1.21h.87v-.24a3 3 0 0 1 .78-2.19 2.42 2.42 0 0 1 1.68-.62 3 3 0 0 1 1 .16l-.11 1.24a2 2 0 0 0-.69-.11c-.8 0-1.07.67-1.07 1.46v.33h1.4v1.21h-1.39v5.2zm6.05-8.05v1.64h1.54v1.21h-1.54v2.83c0 .78.21 1.18.83 1.18a2.19 2.19 0 0 0 .63-.07v1.23a3.64 3.64 0 0 1-1.18.17 1.88 1.88 0 0 1-1.39-.53 2.55 2.55 0 0 1-.51-1.8v-3h-.92v-1.21h.92v-1.19zm3.77 1.64l.67 2.91c.16.68.3 1.38.42 2.08.13-.7.33-1.41.51-2.07l.84-2.92h1.31l.8 2.85c.2.74.38 1.44.52 2.14.1-.7.25-1.4.42-2.14l.71-2.85h1.59l-2 6.41h-1.5l-.77-2.61a20 20 0 0 1-.48-2 17.23 17.23 0 0 1-.49 2l-.82 2.61h-1.49l-1.89-6.41zm12.21 4.16a1.06 1.06 0 0 1-.05.35 1.31 1.31 0 0 1-1.26.89.86.86 0 0 1-.93-.93c0-1 1.1-1.21 2.24-1.2zm1.57-1.6a2.39 2.39 0 0 0-2.64-2.7 4.72 4.72 0 0 0-2.32.56l.32 1.06a3.4 3.4 0 0 1 1.72-.48c1.14 0 1.3.7 1.3 1.12v.1c-2.35 0-3.79.81-3.79 2.43a1.88 1.88 0 0 0 2 1.9 2.34 2.34 0 0 0 1.89-.85l.11.71h1.46a11 11 0 0 1-.1-1.54zm1.71-.5v-2.06h1.4l.06 1.22a1.92 1.92 0 0 1 1.76-1.36 2.17 2.17 0 0 1 .38 0v1.53a2.14 2.14 0 0 0-.48 0 1.43 1.43 0 0 0-1.45 1.23 2.43 2.43 0 0 0 0 .49v3.32h-1.63zm5.75.47a1.59 1.59 0 0 1 1.48-1.57 1.38 1.38 0 0 1 1.34 1.57zm4.29 1.13a3.44 3.44 0 0 0 .06-.68c0-1.41-.69-3.12-2.77-3.12a3.16 3.16 0 0 0-3.13 3.44 3 3 0 0 0 3.3 3.25 5.85 5.85 0 0 0 2.24-.41l-.24-1.11a4.88 4.88 0 0 1-1.77.29 1.74 1.74 0 0 1-2-1.66zm10.5 2.49a5.75 5.75 0 0 1-2.3.4 4.2 4.2 0 0 1-4.53-4.47 4.47 4.47 0 0 1 4.75-4.68 5.07 5.07 0 0 1 2.15.39l-.35 1.29a4.41 4.41 0 0 0-1.73-.34 3 3 0 0 0-3.11 3.26 2.9 2.9 0 0 0 3.09 3.19 4.73 4.73 0 0 0 1.76-.32zm1.28-9.08h1.62v3.81a2.27 2.27 0 0 1 .8-.74 2.43 2.43 0 0 1 1.11-.28c1.09 0 2.24.72 2.24 2.78v3.77h-1.62v-3.59c0-.93-.34-1.64-1.23-1.64a1.34 1.34 0 0 0-1.26.91 1.49 1.49 0 0 0-.07.49v3.83h-1.62zm7.53 9.34v-6.41h1.6v6.41zm.79-7.4a.9.9 0 0 1-.94-.92 1 1 0 1 1 .95.92zm2.57 2.9v-1.91h1.42l.08 1a2.33 2.33 0 0 1 2-1.1c1.11 0 2.27.72 2.27 2.74v3.81h-1.62v-3.69c0-.91-.34-1.62-1.22-1.62a1.34 1.34 0 0 0-1.26 1 1.56 1.56 0 0 0-.08.51v3.77h-1.62zm8.67.62a1.58 1.58 0 0 1 1.48-1.57 1.39 1.39 0 0 1 1.34 1.57zm4.28 1.13a3.44 3.44 0 0 0 .06-.68c0-1.41-.68-3.12-2.76-3.12a3.16 3.16 0 0 0-3.13 3.44 3 3 0 0 0 3.3 3.25 5.85 5.85 0 0 0 2.24-.41l-.24-1.11a4.92 4.92 0 0 1-1.77.29 1.74 1.74 0 0 1-2-1.66zm1.29 1.26a3.52 3.52 0 0 0 1.63.47c.72 0 1-.3 1-.72s-.26-.66-1-.94c-1.25-.43-1.77-1.11-1.77-1.87 0-1.12.94-2 2.43-2a3.62 3.62 0 0 1 1.7.38l-.32 1.14a2.84 2.84 0 0 0-1.36-.37c-.57 0-.89.28-.89.68s.31.6 1.12.89c1.16.42 1.7 1 1.71 2 0 1.17-.91 2-2.61 2a4.19 4.19 0 0 1-2-.45zm6.71-2.39a1.58 1.58 0 0 1 1.48-1.57 1.39 1.39 0 0 1 1.34 1.57zm4.29 1.13a3.44 3.44 0 0 0 .06-.68c0-1.41-.68-3.12-2.76-3.12a3.16 3.16 0 0 0-3.13 3.44 3 3 0 0 0 3.3 3.25 5.84 5.84 0 0 0 2.23-.41l-.24-1.11a4.88 4.88 0 0 1-1.77.29 1.74 1.74 0 0 1-2-1.66zm6.17-.98l.69-2.19c.15-.53.29-1.15.42-1.66.13.51.28 1.11.45 1.66l.7 2.19zm2.55 1.22l.81 2.51h1.74l-2.89-8.87h-2.06l-2.85 8.87h1.68l.76-2.51zm8.28 2.32a4.51 4.51 0 0 1-1.8.33 3.09 3.09 0 0 1-3.31-3.28 3.31 3.31 0 0 1 3.57-3.41 4.21 4.21 0 0 1 1.56.29l-.28 1.22a2.88 2.88 0 0 0-1.23-.25 2.08 2.08 0 0 0 0 4.15 3.07 3.07 0 0 0 1.28-.26zm4.61-2.06a1.06 1.06 0 0 1-.05.35 1.32 1.32 0 0 1-1.27.89.86.86 0 0 1-.92-.93c0-1 1.09-1.21 2.24-1.2zm1.57-1.6a2.39 2.39 0 0 0-2.64-2.7 4.66 4.66 0 0 0-2.32.56l.32 1.06a3.34 3.34 0 0 1 1.72-.48c1.13 0 1.3.7 1.3 1.12v.1c-2.36 0-3.8.81-3.8 2.43a1.89 1.89 0 0 0 2 1.9 2.36 2.36 0 0 0 1.89-.85l.11.71h1.46a9.68 9.68 0 0 1-.1-1.54zm6 1.07a1.74 1.74 0 0 1-.05.47 1.43 1.43 0 0 1-1.4 1.16c-1 0-1.6-.86-1.6-2s.58-2.11 1.62-2.11a1.41 1.41 0 0 1 1.39 1.14 2 2 0 0 1 0 .42zm0-6.56v3.62a2 2 0 0 0-1.79-.83c-1.54 0-2.88 1.27-2.88 3.42 0 2 1.22 3.27 2.74 3.27a2.3 2.3 0 0 0 2.09-1.15l.07 1h1.44V109zm4.5 5.46a1.6 1.6 0 0 1 1.49-1.57 1.38 1.38 0 0 1 1.33 1.57zm4.32 1.13a3.44 3.44 0 0 0 .06-.68c0-1.41-.68-3.12-2.76-3.12a3.17 3.17 0 0 0-3.14 3.44 3 3 0 0 0 3.3 3.25 5.81 5.81 0 0 0 2.24-.41l-.24-1.11a4.88 4.88 0 0 1-1.77.29 1.74 1.74 0 0 1-2-1.66zm1.33-1.75c0-.74 0-1.35-.05-1.91h1.38l.08.94a2.2 2.2 0 0 1 2-1.08 1.82 1.82 0 0 1 1.77 1.18 2.52 2.52 0 0 1 .79-.8 2.15 2.15 0 0 1 1.3-.38c1.06 0 2.13.72 2.13 2.78v3.77h-1.53v-3.54c0-1.07-.37-1.7-1.15-1.7a1.21 1.21 0 0 0-1.12.85 1.92 1.92 0 0 0-.09.55v3.84h-1.58v-3.65c0-.91-.36-1.54-1.1-1.54a1.3 1.3 0 0 0-1.17.92 1.84 1.84 0 0 0-.08.53v3.79h-1.58zm11.96-1.91l1.16 3.44c.13.39.27.88.36 1.24.1-.36.22-.84.34-1.26l1-3.42h1.73l-1.61 4.38c-.88 2.39-1.47 3.45-2.22 4.11a3.43 3.43 0 0 1-1.7.83l-.37-1.37a3 3 0 0 0 .94-.44 2.83 2.83 0 0 0 .89-1 .67.67 0 0 0 .1-.29.82.82 0 0 0-.09-.32l-2.35-5.88zm11.11 5.38c-1 0-1.58-.93-1.58-2.17 0-1.06.46-2.17 1.6-2.17s1.56 1.15 1.56 2.15c0 1.29-.64 2.19-1.57 2.19zm0 1.17a3.17 3.17 0 0 0 3.28-3.41 3.07 3.07 0 0 0-3.18-3.28 3.17 3.17 0 0 0-3.32 3.39 3.09 3.09 0 0 0 3.21 3.3zm4.78-.14v-5.2h-.87v-1.21h.87v-.24a3 3 0 0 1 .78-2.19 2.42 2.42 0 0 1 1.67-.62 3.09 3.09 0 0 1 1 .16l-.11 1.24a2.07 2.07 0 0 0-.69-.11c-.81 0-1.07.67-1.07 1.46v.33h1.4v1.21h-1.36v5.2zm6.82-1.76a4.47 4.47 0 0 0 2.14.56c1 0 1.61-.49 1.61-1.21s-.45-1.07-1.57-1.47c-1.47-.53-2.4-1.31-2.4-2.58 0-1.45 1.21-2.55 3.14-2.55a4.73 4.73 0 0 1 2.12.44l-.38 1.31a3.86 3.86 0 0 0-1.78-.42c-1 0-1.46.54-1.46 1.07 0 .68.51 1 1.7 1.45 1.54.58 2.28 1.36 2.28 2.63 0 1.43-1.08 2.67-3.37 2.67a5.27 5.27 0 0 1-2.4-.56zm11.45 1.57a4.61 4.61 0 0 1-1.81.33 3.08 3.08 0 0 1-3.3-3.28 3.3 3.3 0 0 1 3.56-3.41 4.21 4.21 0 0 1 1.56.29l-.28 1.22a2.85 2.85 0 0 0-1.23-.25 2.08 2.08 0 0 0 0 4.15 3.05 3.05 0 0 0 1.27-.26zm1.21.19v-6.41h1.62v6.41zm.79-7.4a.92.92 0 1 1 1-.92.9.9 0 0 1-1 .92zm3.71 3.52a1.6 1.6 0 0 1 1.49-1.57 1.37 1.37 0 0 1 1.33 1.57zm4.29 1.13a3.44 3.44 0 0 0 .06-.68c0-1.41-.68-3.12-2.76-3.12a3.16 3.16 0 0 0-3.13 3.44 3 3 0 0 0 3.3 3.25 5.8 5.8 0 0 0 2.23-.41l-.24-1.11a4.86 4.86 0 0 1-1.76.29 1.74 1.74 0 0 1-2-1.66zm1.36-1.75c0-.74 0-1.35-.05-1.91h1.42l.08 1a2.36 2.36 0 0 1 2-1.1c1.11 0 2.27.72 2.27 2.74v3.81h-1.53v-3.69c0-.91-.33-1.62-1.22-1.62a1.35 1.35 0 0 0-1.26 1 1.56 1.56 0 0 0-.08.51v3.77h-1.62zm12.19 4.31a4.57 4.57 0 0 1-1.81.33 3.08 3.08 0 0 1-3.3-3.28 3.3 3.3 0 0 1 3.56-3.41 4.27 4.27 0 0 1 1.57.29l-.29 1.22a2.85 2.85 0 0 0-1.23-.25 2.08 2.08 0 0 0 0 4.15 3.05 3.05 0 0 0 1.27-.26zm2.28-3.69a1.58 1.58 0 0 1 1.48-1.57 1.39 1.39 0 0 1 1.34 1.57zm4.28 1.13a3.44 3.44 0 0 0 .06-.68c0-1.41-.68-3.12-2.76-3.12a3.16 3.16 0 0 0-3.13 3.44 3 3 0 0 0 3.3 3.25 5.8 5.8 0 0 0 2.23-.41l-.23-1.11a4.92 4.92 0 0 1-1.77.29 1.74 1.74 0 0 1-2-1.66zm1.29 1.26a3.56 3.56 0 0 0 1.63.47c.72 0 1-.3 1-.72s-.26-.66-1.05-.94c-1.25-.43-1.78-1.11-1.77-1.87 0-1.12.94-2 2.43-2a3.65 3.65 0 0 1 1.7.38l-.32 1.14a2.84 2.84 0 0 0-1.36-.37c-.57 0-.89.28-.89.68s.3.6 1.12.89c1.16.42 1.7 1 1.71 2 0 1.17-.91 2-2.61 2a4.19 4.19 0 0 1-2-.45z"/></svg>