<svg xmlns="http://www.w3.org/2000/svg" role="img" viewBox="-17.44 -17.94 634.38 906.88"><title>item-service-1 logo</title><defs><clipPath id="clip-path"><path d="M63.34553-.53393h473.30894A63.34553 63.34553 0 0 1 600 62.8116v252.976H0V62.8116A63.34553 63.34553 0 0 1 63.34553-.53393z" class="cls-1"/></clipPath><clipPath id="clip-path-2"><path d="M63.34553 555.37193h473.30894A63.34553 63.34553 0 0 1 600 618.71746v252.976H0v-252.976a63.34553 63.34553 0 0 1 63.34553-63.34553z" class="cls-1"/></clipPath><style>.cls-1{fill:none}.cls-2{fill:#fff}.cls-3{fill:#488eff}.cls-5{opacity:.9}.cls-6{fill:#3274f9}</style></defs><path d="M1.8 334.782h596.4v107.371H1.8z" class="cls-2"/><path d="M596.3999 336.58248v103.77039H3.6001V336.58248h592.7998m3.6001-3.6H0v110.97036h600V332.9825zM63.34553-.53393h473.30894A63.34553 63.34553 0 0 1 600 62.8116v252.976H0V62.8116A63.34553 63.34553 0 0 1 63.34553-.53393z" class="cls-3"/><g class="cls-5" clip-path="url(#clip-path)"><path d="M355.52881-141.53393L-11.41262 111.52465 241.646 478.46607 608.58738 225.4075zm-100.966 456.06736L280.15384 74.4075 154.625 160.97769l13.9624-37.51162-45.2933-7.91884L315.45693-16.97666l27.15349 39.3733-25.589 240.12454 129.56639-89.35462 31.33229 45.43254-196.20244 135.30953z" class="cls-6"/></g><path d="M156.25047 216.006q-6.98292 0-11.02442 4.65039-4.04149 4.64941-4.042 12.7334 0 8.31592 3.89746 12.84961 3.89649 4.53516 11.11133 4.53418a37.93339 37.93339 0 0 0 10.11133-1.59375v4.31836a31.17533 31.17533 0 0 1-10.86524 1.65039q-9.35888 0-14.44336-5.67773-5.08446-5.67921-5.084-16.13868a25.46476 25.46476 0 0 1 2.44824-11.47363 17.57144 17.57144 0 0 1 7.06934-7.59082 21.39111 21.39111 0 0 1 10.8789-2.666 26.258 26.258 0 0 1 11.64746 2.43359l-2.08593 4.23047a22.46058 22.46058 0 0 0-9.61911-2.25978zm45.98047 22.6572q0 7.76514-3.91114 12.125-3.91113 4.36085-10.80664 4.36035a14.31233 14.31233 0 0 1-7.5625-1.999 13.20111 13.20111 0 0 1-5.09961-5.73633 19.9954 19.9954 0 0 1-1.7959-8.75q0-7.76514 3.88282-12.09668 3.88183-4.33008 10.77734-4.332a13.43482 13.43482 0 0 1 10.58984 4.43359q3.92579 4.43257 3.92579 11.99507zm-24.19239 0q0 6.08349 2.4336 9.27148a9.66028 9.66028 0 0 0 14.32714.01465q2.44776-3.17284 2.44825-9.28613 0-6.05566-2.44825-9.19922-2.44775-3.14355-7.22851-3.14355-4.72266 0-7.12793 3.0996-2.40528 3.10108-2.4043 9.24317zm54.35352 15.90625v-20.542q0-3.88183-1.76758-5.79493-1.76659-1.91308-5.5332-1.9121-4.9834 0-7.30176 2.69433-2.31738 2.69385-2.31738 8.89551v16.65918h-4.80957v-31.75487h3.91113l.78223 4.3457h.23144a9.82639 9.82639 0 0 1 4.14356-3.63574 13.465 13.465 0 0 1 5.93945-1.29q5.73633 0 8.63379 2.76758 2.89746 2.76708 2.89746 8.85156v20.71582zm29.00293-28.0166h-8.084v28.0166h-4.80957v-28.0166h-5.67871V224.379l5.67871-1.73828v-1.76758q0-11.7041 10.22852-11.70508a21.05475 21.05475 0 0 1 5.91016 1.01367l-1.2461 3.85352a15.95051 15.95051 0 0 0-4.751-.89844 4.62866 4.62866 0 0 0-4.02734 1.81153q-1.30518 1.812-1.30469 5.80957v2.05664h8.084zm33.20312 12.11035q0 7.76514-3.91113 12.125-3.91113 4.36085-10.80664 4.36035a14.31233 14.31233 0 0 1-7.5625-1.999 13.20111 13.20111 0 0 1-5.09961-5.73633 19.99525 19.99525 0 0 1-1.7959-8.75q0-7.76514 3.88281-12.09668 3.88183-4.33008 10.77735-4.332a13.43483 13.43483 0 0 1 10.58984 4.43359q3.92579 4.43257 3.92578 11.99507zm-24.19238 0q0 6.08349 2.43359 9.27148a9.6603 9.6603 0 0 0 14.32715.01465q2.44776-3.17284 2.44824-9.28613 0-6.05566-2.44824-9.19922-2.44774-3.14355-7.22851-3.14355-4.72266 0-7.12793 3.0996-2.40528 3.10108-2.4043 9.24317zm47.11035-16.42871a18.925 18.925 0 0 1 3.7959.34765l-.667 4.46289a16.373 16.373 0 0 0-3.47656-.43554 8.46585 8.46585 0 0 0-6.5918 3.12988 11.41077 11.41077 0 0 0-2.73731 7.79395v17.03613h-4.80957v-31.75488h3.96875l.55078 5.88183h.23145a13.94667 13.94667 0 0 1 4.25977-4.78027 9.58228 9.58228 0 0 1 5.47559-1.68164zm50.21091 32.33496v-20.6582q0-3.79542-1.62305-5.69239a6.27286 6.27286 0 0 0-5.041-1.89843q-4.49121 0-6.63477 2.57812-2.14453 2.57959-2.14453 7.93945v17.73145h-4.80955v-20.6582q0-3.79542-1.62207-5.69239-1.623-1.89843-5.07031-1.89843-4.52052 0-6.62012 2.709-2.10206 2.71-2.10059 8.88086v16.65918h-4.80957v-31.7549h3.91114l.78222 4.3457h.23145a9.4556 9.4556 0 0 1 3.83887-3.62109 11.73252 11.73252 0 0 1 5.54882-1.30469q7.4458 0 9.73535 5.38965h.23145a10.13409 10.13409 0 0 1 4.11426-3.94043 12.77568 12.77568 0 0 1 6.14258-1.44922q5.38916 0 8.06933 2.76758 2.67919 2.76708 2.67969 8.85156v20.71582zm34.24612 0l-.95605-4.52051h-.23145a13.3614 13.3614 0 0 1-4.7373 4.043 14.43939 14.43939 0 0 1-5.89551 1.05664 10.60245 10.60245 0 0 1-7.40332-2.43359 8.87246 8.87246 0 0 1-2.67969-6.92383q0-9.61964 15.38477-10.084l5.38867-.17382v-1.96973q0-3.73682-1.60742-5.51856-1.60841-1.7827-5.14258-1.7832a20.9621 20.9621 0 0 0-8.98242 2.43457l-1.47754-3.67969a22.58261 22.58261 0 0 1 5.14258-1.999 22.29568 22.29568 0 0 1 5.60644-.72461q5.67921 0 8.417 2.52051 2.7378 2.521 2.73829 8.084v21.67188zm-10.86425-3.38965a9.7586 9.7586 0 0 0 7.05468-2.46289 9.112 9.112 0 0 0 2.56446-6.89551v-2.86816l-4.80957.20215q-5.7378.20361-8.27247 1.78222a5.37155 5.37155 0 0 0-2.53515 4.91016 4.95718 4.95718 0 0 0 1.5791 3.9707 6.55274 6.55274 0 0 0 4.41895 1.36133zm46.06738 3.38965v-20.542q0-3.88183-1.76758-5.79493-1.76659-1.91308-5.5332-1.9121-4.98341 0-7.30176 2.69433-2.31738 2.69385-2.31738 8.89551v16.65918h-4.80957v-31.75487h3.91113l.78223 4.3457h.23144a9.82639 9.82639 0 0 1 4.14356-3.63574 13.465 13.465 0 0 1 5.93945-1.29q5.73633 0 8.63379 2.76758 2.89746 2.76708 2.89746 8.85156v20.71582zm24.94531-3.38965a15.65534 15.65534 0 0 0 2.46289-.18848 15.92754 15.92754 0 0 0 1.88379-.3916v3.67969a8.7609 8.7609 0 0 1-2.30371.623 17.3069 17.3069 0 0 1-2.73828.24609q-9.2124 0-9.21289-9.70508v-18.89057h-4.54883v-2.31836l4.54883-2 2.02832-6.7793h2.78125v7.35938h9.21289v3.73828h-9.21289v18.6875a6.42928 6.42928 0 0 0 1.36133 4.40429 4.73924 4.73924 0 0 0 3.7373 1.53516zM142.368 102.68h.002l-.001-.001-.001.001z" class="cls-2"/><path d="M380.17556 59.04015a1.61835 1.61835 0 0 0 .65225-1.44776v-.04629a1.62148 1.62148 0 0 0-.74008-1.53559 4.731 4.731 0 0 0-2.36365-.44868h-1.013v3.87149h1.03148a5.41649 5.41649 0 0 0 2.433-.39317zm92.05244-.14799a2.72575 2.72575 0 0 0 .31912-3.83912l-.333-.33305a4.63391 4.63391 0 0 0-2.82617-.754h-2.36356v5.66623h2.39136a4.66025 4.66025 0 0 0 2.81225-.74006zm-12.29258.10175a2.8973 2.8973 0 0 0 .20945-4.09207l-.00134-.00148a.26093.26093 0 0 1-.0324-.037l-.1434-.15728a4.01286 4.01286 0 0 0-2.64113-.78166l-2.82612.04159v5.79575h2.68272a4.20056 4.20056 0 0 0 2.75222-.76785zm-125.05836 61.49575c-11.02579 0-17.61567 8.49088-17.61567 18.50257v.253c0 10.01168 7.22379 18.75627 17.86938 18.75627 11.02505 0 17.61493-8.49088 17.61493-18.50255v-.25372c-.00002-10.01135-7.22377-18.75557-17.86864-18.75557zM397.465 56.678l-2.363 5.796h4.713l-2.35-5.796zm-154.11757 3.259a3.273 3.273 0 0 0 .17576-4.62081.67353.67353 0 0 0-.1619-.1619 4.32067 4.32067 0 0 0-2.89553-.88344h-3.20541v6.5219h3.01577a4.83815 4.83815 0 0 0 3.07131-.85575zm275.66824 59.41207c-7.98419 0-13.17976 5.70262-14.70056 14.44721H533.336c-1.14057-8.61772-6.20965-14.44721-14.32033-14.44721zM314.978 56.678l-2.373 5.796h4.722l-2.349-5.796zm-95.68894 9.73836a7.36937 7.36937 0 0 0 10.21763 0 7.24576 7.24576 0 0 0 0-10.14359 7.37218 7.37218 0 0 0-10.21763 0 7.15507 7.15507 0 0 0-.02475 10.11877l.00627.00629zm271.7506-1.60736a6.46626 6.46626 0 0 0 0-9.0751 6.56 6.56 0 0 0-9.14455 0 6.40692 6.40692 0 0 0-.00051 9.06073l.00051.0005a6.25562 6.25562 0 0 0 4.57922 1.84092v.01388a6.20623 6.20623 0 0 0 4.56533-1.84093z" class="cls-1"/><path d="M454.50052 60.73308h2.75213a5.382 5.382 0 0 0 3.60785-1.04072 3.52056 3.52056 0 0 0 1.22112-2.82612 3.40661 3.40661 0 0 0-1.22112-2.7984 5.18576 5.18576 0 0 0-3.48761-1.03149h-3.98714v14.46839h1.11477zm0-6.76707l2.82613-.04159a4.01288 4.01288 0 0 1 2.64113.78166l.1434.15729a.26077.26077 0 0 0 .0324.037 2.89728 2.89728 0 0 1-.20665 4.09221l-.00147.00134a4.20045 4.20045 0 0 1-2.75217.76785h-2.68272zm12.48219 6.62371h1.99821a3.64831 3.64831 0 0 1 2.05833.49488 9.42062 9.42062 0 0 1 1.95652 2.47925l2.52089 3.94089h1.33676l-3.27481-5.00014a6.69491 6.69491 0 0 0-1.9288-2.22021 3.5937 3.5937 0 0 0 2.75213-3.50609 3.3396 3.3396 0 0 0-1.23037-2.72437 5.48663 5.48663 0 0 0-3.56621-1.0176h-3.69577L465.868 67.5325h1.11472zm.04165-6.62371h2.36356a4.634 4.634 0 0 1 2.82617.754l.333.333a2.72576 2.72576 0 0 1-.31912 3.83913 4.66024 4.66024 0 0 1-2.81229.74008h-2.39136zm24.88482 11.56456l.1758-.18505c.02776-.03238.05548-.06011.08324-.08783a7.2496 7.2496 0 0 0-.25813-10.24919l-.00091-.00085a7.91226 7.91226 0 0 0-10.85591 0l-.14336.14805-.00924.00464a7.33878 7.33878 0 0 0 .1526 10.37023 7.906 7.906 0 0 0 10.85591 0zm-10.01407-.73545a6.40692 6.40692 0 0 1-.00051-9.06073l.00051-.00049a6.56 6.56 0 0 1 9.14455 0 6.46627 6.46627 0 0 1 0 9.07511 6.20622 6.20622 0 0 1-4.56533 1.84092v-.01388a6.25555 6.25555 0 0 1-4.57922-1.84093zm14.84129 6.92941a2.89942 2.89942 0 0 0 2.13238-.91585 4.6903 4.6903 0 0 0 .89736-3.2748V53.03772h-1.11481V67.853c0 1.94269-.666 2.90012-2.03052 2.90012a3.47583 3.47583 0 0 1-.65225-.074l.10181 1.04536q.33306.01388.66603.00005zM512.751 66.563h-6.924v-5.87h6.592v-.944h-6.592v-5.782h6.767v-.929h-7.886v14.464h8.043v-.939zm16.062-12.49522v.00252c.01967.00943.04045.01572.06007.02523zm-4.97244 13.64048a10.74714 10.74714 0 0 0 5.11578-1.35064v-1.15637a10.92685 10.92685 0 0 1-5.1435 1.44776 6.38116 6.38116 0 0 1-4.65321-1.7854 6.13285 6.13285 0 0 1-1.81317-4.607 6.20854 6.20854 0 0 1 1.81317-4.57917 6.0764 6.0764 0 0 1 4.49129-1.84092 11.06819 11.06819 0 0 1 5.16206 1.44771V54.0703a12.15119 12.15119 0 0 0-5.0279-1.19125 7.54571 7.54571 0 0 0-5.35161 2.13233.53072.53072 0 0 1-.10181.10176l-.00441.00464h-.00025a7.4064 7.4064 0 0 0 .00464 10.472 7.58229 7.58229 0 0 0 5.50892 2.11848zM536.652 67.502h1.134V53.967h5.421v-.929h-11.989v.929h5.434v13.535zm-233.6 1.016V52.491h-4.395l-4.94 6.013-4.926-6.013h-4.38v16.027h4.694V59.23l4.367 5.375h.389l4.347-5.375v9.288h4.844zm8.41942-3.24551h6.9567l1.31824 3.2471h4.94464l-6.9983-16.03182h-5.40718l-7.09082 16.03181h4.94466zm3.50618-8.59406l2.34973 5.79565h-4.72267zM326.837 52.491h4.824v16.027h-4.824zm13.667 7.099l8.317 8.928h4.292V52.491h-4.815v8.88l-8.288-8.88h-4.288v16.027h4.782V59.59zm21.467 2.435h6.651V58.81h-6.651v-3.104h6.651v-3.219h-11.48v16.031h4.829v-6.493zm16.64116.39172a2.68936 2.68936 0 0 1 1.08236.92509 12.41737 12.41737 0 0 1 1.24884 2.28031l1.25813 2.89554h5.18978l-1.57727-3.50605a12.79066 12.79066 0 0 0-1.42005-2.47925 4.44893 4.44893 0 0 0-1.2766-1.07309 10.9972 10.9972 0 0 0 1.17484-.72621 3.75973 3.75973 0 0 0 .98525-1.21648 4.07662 4.07662 0 0 0 .46256-2.05832 5.0654 5.0654 0 0 0-.55049-2.20169A4.86741 4.86741 0 0 0 383.34857 53.3a5.9251 5.9251 0 0 0-3.26093-.80944h-8.21938v15.98553h4.84286v-6.26286h.53656a3.927 3.927 0 0 1 1.36448.20349zm-1.90109-6.85489h1.013a4.731 4.731 0 0 1 2.36365.44867 1.62151 1.62151 0 0 1 .74009 1.5356v.0463a1.61837 1.61837 0 0 1-.65225 1.44776 5.41669 5.41669 0 0 1-2.433.39317h-1.03148zm17.26222 9.71066h6.95661l1.30436 3.2471h4.94462l-7.06306-16.03182h-5.347l-7.08613 16.03181h4.95849zm3.49221-8.59406l2.34972 5.79565h-4.71329zM414.002 59.23l4.38 5.375h.374l4.367-5.375v9.288h4.824V52.491h-4.376l-4.958 6.013-4.912-6.013h-4.395v16.027h4.696V59.23zm30.078 6.055h-7.248v-3.419h6.725v-3.233h-6.725v-2.928h7.044v-3.214h-11.883v16.027h12.087v-3.233zm-213.602 1.94079l.20352-.19888a.142.142 0 0 1 .037-.037 8.17581 8.17581 0 0 0-.24052-11.559 8.30713 8.30713 0 0 0-6.07317-2.40523v.04164a8.34406 8.34406 0 0 0-6.04551 2.40523l-.15723.1619a8.2013 8.2013 0 0 0 .15723 11.59135 8.83813 8.83813 0 0 0 12.11868-.00001zm-11.189-10.953a7.37218 7.37218 0 0 1 10.21763 0 7.24576 7.24576 0 0 1 0 10.14359 7.36937 7.36937 0 0 1-10.21763 0l-.01848-.01852a7.15509 7.15509 0 0 1 .0122-10.1188l.00628-.00625zm17.89733 5.56528h3.08974a6.06378 6.06378 0 0 0 4.01494-1.17484 4.22676 4.22676 0 0 0 .08784-6.29063 5.99462 5.99462 0 0 0-3.91314-1.14711h-4.45426l-.06936 16.13356h1.24424zm.074-7.56722h3.20541a4.32068 4.32068 0 0 1 2.89552.88344.67375.67375 0 0 1 .16191.1619 3.273 3.273 0 0 1-.17576 4.62081 4.83815 4.83815 0 0 1-3.07134.85573h-3.01576zM257.133 68.344h-7.757V61.78h7.369v-1.045h-7.369v-6.462h7.567v-1.045h-8.811v16.161h9.001v-1.045zm3.814-13.091l12.272 14.136h1.032V53.228h-1.25v14.116l-12.243-14.116h-1.059v16.161h1.248V55.253zm-45.069 46.227h47.27l-48.791 56.775v14.827h73.883v-17.108h-48.79l48.79-56.775V84.372h-72.362v17.108zm119.25275 2.40811c-21.16395 0-36.87862 15.84117-36.87862 35.35708v.25371c0 19.51668 15.58745 35.10411 36.62491 35.10411 21.164 0 36.87788-15.84116 36.87788-35.35782v-.253c.00002-19.51664-15.58745-35.10408-36.62417-35.10408zm17.61493 35.61081c0 10.01167-6.5899 18.50255-17.61493 18.50255-10.64559 0-17.86938-8.74459-17.86938-18.75627v-.253c0-10.01169 6.5899-18.50255 17.61567-18.50255 10.64485 0 17.86864 8.74422 17.86864 18.75552zM449.82 146.469l-12.926-41.567h-16.601l-12.8 41.441-10.899-41.188h-19.516l20.91 68.434h17.236l13.305-41.694 13.054 41.694h17.362l21.164-68.434h-19.137l-11.152 41.314zm102.27229-5.703c0-19.26258-10.39187-36.87788-33.07662-36.87788-19.76964 0-33.58331 15.96765-33.58331 35.35708v.25371c0 20.78375 15.08076 35.10411 35.48431 35.10411 12.29287 0 21.41692-4.8161 27.75383-12.67307l-11.02579-9.75795c-5.32279 4.94259-10.01167 6.97008-16.47438 6.97008-8.6181 0-14.70129-4.5624-16.60155-13.307h47.26976c.12653-1.77378.25375-3.54828.25375-5.06908zm-47.77718-6.96971c1.5208-8.74459 6.71637-14.44721 14.70056-14.44721 8.11068 0 13.17976 5.82949 14.32036 14.44721zM129.49268 43.46607l-90.9053 62.69221 62.6922 90.9053 90.90531-62.6922zm-25.01311 112.98518l6.33988-59.4883-31.09826 21.44672-7.76185-11.25485 47.606-32.83119 6.727 9.75426-6.33936 59.488 32.09851-22.13652 7.76219 11.25536-48.60682 33.52127z" class="cls-2"/><g class="cls-5" clip-path="url(#clip-path-2)"><path d="M355.52881 414.37193L-11.41262 667.4305 241.646 1034.37193l366.94138-253.05857zm-100.966 456.06735l25.59106-240.12593L154.625 716.88354l13.9624-37.51161-45.2933-7.91884L315.45693 538.9292l27.15349 39.37329L317.02144 818.427l129.56639-89.35461 31.33229 45.43261-196.20246 135.30949z" class="cls-6"/></g><path d="M89.07176 396.08117l-1.39649-4.58789h-7.02734l-1.39746 4.58789h-4.40332l6.80273-19.35352H86.646l6.83008 19.35352zm-2.373-8.01563q-1.93653-6.23583-2.18164-7.05273-.24316-.81738-.34961-1.293-.43359 1.689-2.49121 8.3457zm25.75776-5.24707a5.89011 5.89011 0 0 1-1.94433 4.75879 8.31449 8.31449 0 0 1-5.53125 1.64844H103.228v6.85547h-4.08691v-19.27442h6.15625a8.1861 8.1861 0 0 1 5.333 1.50977 5.50157 5.50157 0 0 1 1.82618 4.50195zm-9.22851 3.0586h1.34472a4.47521 4.47521 0 0 0 2.82129-.74512 2.60514 2.60514 0 0 0 .93652-2.168 2.6728 2.6728 0 0 0-.78515-2.123 3.67539 3.67539 0 0 0-2.459-.68554H103.228zm29.42285-3.0586a5.89008 5.89008 0 0 1-1.94434 4.75879 8.31445 8.31445 0 0 1-5.53125 1.64844h-1.75293v6.85547h-4.08691v-19.27442h6.15625a8.1861 8.1861 0 0 1 5.333 1.50977 5.50157 5.50157 0 0 1 1.82618 4.50195zm-9.22852 3.0586h1.34473a4.47525 4.47525 0 0 0 2.82129-.74512 2.60514 2.60514 0 0 0 .93652-2.168 2.67281 2.67281 0 0 0-.78516-2.123 3.67537 3.67537 0 0 0-2.459-.68554h-1.8584zm30.38281 10.2041h-4.02148v-19.27442h11.04785v3.34864h-7.02637v4.9707h6.53907v3.335h-6.53907zm18.12305-7.39649v7.39649h-4.08691v-19.27442h5.61621q3.92871 0 5.81347 1.43067a5.70079 5.70079 0 0 1 .94922 7.36914 6.18042 6.18042 0 0 1-2.64941 2.07617q4.35058 6.501 5.66894 8.39844h-4.53515l-4.60156-7.39649zm0-3.32226h1.31836a5.04225 5.04225 0 0 0 2.86035-.64551 2.30644 2.30644 0 0 0 .92383-2.03027 2.10858 2.10858 0 0 0-.94336-1.95118 5.71788 5.71788 0 0 0-2.91992-.58007h-1.23926zm28.77637 10.71875l-1.39649-4.58789h-7.02734l-1.39746 4.58789H186.48l6.80273-19.35352h4.9961l6.83008 19.35352zm-2.373-8.01563q-1.93651-6.23583-2.18164-7.05273-.24316-.81738-.34961-1.293-.43359 1.689-2.49121 8.3457zm20.60249 8.01563l-4.64062-15.1211h-.11817q.25048 4.61427.251 6.15625v8.96485h-3.65237v-19.27442h5.56348l4.56152 14.73925h.07911l4.83886-14.73926h5.5625v19.27442h-3.80957v-9.123q0-.646.01953-1.49023.02052-.8423.17871-4.48243h-.11914l-4.9707 15.09571zm31.63867 0h-11.10058v-19.27442h11.10058v3.34864h-7.01367v4.23242h6.52637v3.34765h-6.52637v4.97071h7.01367zm26.03418 0h-4.65429l-2.60938-10.125q-.14649-.54052-.49512-2.23438-.34863-1.69482-.40136-2.27441-.07911.71191-.39649 2.28711-.31641 1.57617-.4873 2.248l-2.59668 10.09864h-4.64063l-4.918-19.27442h4.02149l2.46484 10.52051q.646 2.91357.93555 5.04883.07909-.75.36328-2.32617.28272-1.57617.5332-2.44531l2.8086-10.79786h3.86328l2.80761 10.79786q.18458.72509.46192 2.21484.27538 1.48974.42187 2.55664.13038-1.02832.42188-2.56348.28857-1.53661.52734-2.48535l2.45117-10.52051h4.02149zm28.06446-9.66406q0 4.7871-2.37305 7.35742a10.28742 10.28742 0 0 1-13.60547 0q-2.373-2.57227-2.37305-7.38282 0-4.812 2.37989-7.35058a8.90159 8.90159 0 0 1 6.82324-2.53809q4.44141 0 6.7959 2.5586 2.35254 2.55761 2.35254 7.35547zm-14.06641 0a8.04407 8.04407 0 0 0 1.22656 4.86523 4.28693 4.28693 0 0 0 3.66406 1.63477q4.89112 0 4.89161-6.5 0-6.51124-4.86426-6.51172a4.31962 4.31962 0 0 0-3.67871 1.64062 8.01949 8.01949 0 0 0-1.23922 4.8711zm25.38769 2.26757v7.39649h-4.08691v-19.27442h5.61626q3.92871 0 5.81348 1.43067a5.70082 5.70082 0 0 1 .94922 7.36914 6.18051 6.18051 0 0 1-2.64942 2.07617q4.35059 6.501 5.66895 8.39844H322.769l-4.60156-7.39649zm0-3.32226h1.31835a5.04228 5.04228 0 0 0 2.86036-.64551 2.30646 2.30646 0 0 0 .92382-2.03027 2.10858 2.10858 0 0 0-.94336-1.95118 5.71788 5.71788 0 0 0-2.91992-.58007h-1.23926zm32.48145 10.71875h-4.64063l-5.04882-8.1211-1.72754 1.23926v6.88184h-4.08692v-19.27442h4.08692v8.81934l1.6084-2.26758 5.2207-6.55176h4.53516l-6.72364 8.53028zm14.29883-5.58985v-3.29589h7.0791v3.29589zm36.36719 5.58985h-14.34375v-2.65039l9.24121-13.249h-8.99121v-3.375h13.84277v2.63672l-9.22852 13.2627h9.4795zm23.80468-9.66406q0 4.7871-2.373 7.35742a10.28742 10.28742 0 0 1-13.60547 0q-2.373-2.57227-2.37305-7.38282 0-4.812 2.37988-7.35058a8.90162 8.90162 0 0 1 6.82325-2.53809q4.44139 0 6.79589 2.5586 2.3525 2.55761 2.3525 7.35547zm-14.0664 0a8.04407 8.04407 0 0 0 1.22656 4.86523 4.28692 4.28692 0 0 0 3.66406 1.63477q4.89111 0 4.8916-6.5 0-6.51124-4.86425-6.51172a4.31965 4.31965 0 0 0-3.67872 1.64062 8.01956 8.01956 0 0 0-1.23925 4.8711zm40.07519 9.66406h-4.6543l-2.60937-10.125q-.14649-.54052-.49512-2.23438-.34863-1.69482-.40136-2.27441-.07911.71191-.39649 2.28711-.31641 1.57617-.4873 2.248l-2.59665 10.09868h-4.64063l-4.918-19.27442h4.02149l2.46484 10.52051q.646 2.91357.93555 5.04883.07909-.75.36328-2.32617.28272-1.57617.5332-2.44531l2.8086-10.79786h3.86328l2.80761 10.79786q.18458.72509.46192 2.21484.27538 1.48974.42187 2.55664.13038-1.02832.42188-2.56348.28857-1.53661.52734-2.48535l2.45117-10.52051h4.02149zm21.6709 0H459.5239v-19.27442h11.10059v3.34864h-7.01367v4.23242h6.52637v3.34765h-6.52637v4.97071h7.01367zm28.50977-19.27442h4.126l-6.55176 19.27442h-4.45605l-6.53906-19.27442h4.12695l3.625 11.46973q.30323 1.01514.626 2.36621.32373 1.35205.40234 1.87891a33.61682 33.61682 0 0 1 .98926-4.24512zm18.51953 19.27442h-4.07325v-11.15332l.03907-1.833.0664-2.00391q-1.01659 1.01661-1.41113 1.332l-2.21484 1.7793-1.96387-2.45117 6.209-4.94434h3.34864z" class="cls-3"/></svg>