<svg xmlns="http://www.w3.org/2000/svg" role="img" viewBox="74.90 77.15 226.20 58.45"><title>Karpenter logo</title><g fill-rule="evenodd" stroke="none"><path fill="#FFF" d="M0 100v100h400V0H0v100m111.228-17.644c4.915 1.653 8.651 5.561 10.208 10.678.434 1.428.449 1.783.555 13.609.101 11.305.134 12.168.466 12.5.337.337 1.502.363 20.3.457l19.943.1 1 .495c2.782 1.378 3.572 2.965 3.665 7.364.079 3.701.034 3.841-1.243 3.841-1.782 0-3.011-1.447-3.323-3.911-.213-1.678-.5-2.284-1.343-2.836-.508-.333-2.571-.359-36.247-.459-33.691-.1-35.777-.126-36.909-.467-3.948-1.19-6.922-4.036-8.353-7.994-.514-1.421-.801-17.896-.361-20.729 1.03-6.64 6.018-11.851 12.627-13.192.488-.099 4.532-.163 8.987-.142l8.1.038 1.928.648m-17.783 4.148c-4.063.883-7.315 3.851-8.786 8.018l-.557 1.578-.069 7.9c-.1 11.46.486 13.258 4.898 15.025 1.309.525 18.471.845 21.65.404 2.855-.395 5.284-2.172 6.25-4.57.633-1.569.837-16.408.263-19.052-1.015-4.674-4.651-8.341-9.231-9.311-1.866-.396-12.587-.389-14.418.008m40.547 2.45c.419.339.439.512.483 4.303.07 5.964-.132 5.99 5.272-.677 3.221-3.974 3.229-3.98 5.638-3.98 3.166 0 3.126.133-1.802 6.043-4.07 4.88-4.27 5.166-4.066 5.815.077.243 1.912 2.558 4.078 5.144 5.406 6.452 5.335 6.198 1.744 6.198h-2.213l-.913-.955c-.502-.525-2.159-2.482-3.683-4.35-3.997-4.9-3.928-4.899-3.935-.051-.007 5.293-.033 5.348-2.54 5.353-2.472.005-2.275 1.053-2.21-11.786.064-12.548-.163-11.411 2.271-11.411 1.079 0 1.549.089 1.876.354m124.182.196c.338.282.445.671.552 2.009.16 2.001.387 2.241 2.119 2.241 1.576 0 1.955.381 1.955 1.969 0 1.508-.275 1.761-2.029 1.867-2.058.124-1.971-.1-1.971 5.098 0 5.324.004 5.333 2.186 5.58 1.508.171 1.814.519 1.814 2.065 0 1.654-.24 1.821-2.606 1.821-5.121 0-6.039-1.3-6.191-8.768-.11-5.424-.202-5.832-1.314-5.832-.877 0-1.256-2.633-.489-3.4.22-.22.535-.4.7-.4.745 0 1.1-.742 1.1-2.3 0-2.04.257-2.3 2.278-2.3 1.114 0 1.581.086 1.896.35m-95.079 5.047l1.745.897.37-.497c.877-1.18.913-1.197 2.49-1.197 2.48 0 2.3-.725 2.3 9.286 0 9.938.208 9.114-2.3 9.114-1.59 0-1.691-.027-2.083-.55-.227-.303-.506-.661-.62-.798-.161-.191-.559-.064-1.753.559-5.573 2.907-11.375-.288-12.277-6.761-1.106-7.948 5.529-13.448 12.128-10.053m39.16-.234c5.622 2.767 6.638 11.524 1.856 15.997-2.642 2.471-6.027 2.881-9.268 1.122-2.222-1.206-2.243-1.164-2.243 4.36 0 5.311.067 5.158-2.246 5.158-2.607 0-2.354 1.453-2.354-13.531 0-15.042-.232-13.669 2.31-13.669 1.467 0 2.49.496 2.49 1.208 0 .42.735.319 1.716-.234 2.515-1.42 5.381-1.572 7.739-.411m20.374.082c3.17 1.567 5.168 4.899 4.928 8.22-.13 1.795.094 1.735-6.482 1.735-6.884 0-7.256.1-6.562 1.761.705 1.689 2.232 2.549 4.264 2.402 1.181-.086 1.55-.267 3.249-1.594.615-.481 2.677-.715 3.774-.429 2.549.666-1.171 4.846-5.146 5.783-8.412 1.982-14.635-7.657-9.721-15.059 2.316-3.49 7.709-4.789 11.696-2.819m21.221-.446c3.903 1.206 4.744 3.284 4.748 11.737.002 6.917.163 6.464-2.288 6.464-2.336 0-2.191.389-2.311-6.18-.133-7.243-.717-8.431-4.143-8.416-3.39.016-4.056 1.424-4.056 8.577 0 6.297.105 6.019-2.273 6.019-2.659 0-2.427.871-2.427-9.102v-8.533l.472-.383c.924-.748 3.539-.467 4.189.45.357.502.865.463 2.056-.16 1.85-.967 3.909-1.129 6.033-.473m33.379.004c3.395 1.075 5.671 4.121 5.918 7.92.169 2.596.478 2.477-6.434 2.477-6.363 0-6.713.055-6.713 1.065 0 2.909 4.763 4.195 7.113 1.922 1.327-1.285 4.903-1.385 5.049-.142.221 1.881-3.331 4.709-6.538 5.206-7.074 1.095-12.601-5.825-10.237-12.817 1.63-4.82 6.736-7.248 11.842-5.631m-98.603.047c.166.138.455.498.643.8.435.704.536.695 1.943-.174 2.573-1.587 3.588-1.215 3.588 1.317 0 2.062-.16 2.292-1.744 2.503-3.331.446-3.726 1.256-3.856 7.924-.119 6.117.015 5.78-2.31 5.78-2.497 0-2.29.833-2.29-9.203v-8.574l.445-.312c.554-.388 3.132-.432 3.581-.061m112.235.155c.284.223.572.583.641.8.178.563.577.494 1.91-.329 2.559-1.579 3.588-1.188 3.588 1.362 0 1.906-.256 2.251-1.828 2.464-3.32.449-3.772 1.431-3.772 8.19 0 5.724.09 5.508-2.297 5.508-2.689 0-2.544.574-2.464-9.768l.061-7.868.472-.382c.688-.557 2.97-.542 3.689.023m-187.909 1.864c2.961.769 3.891 2.27 4.639 7.491.961 6.715.656 7.032-6.778 7.037-7.688.005-8.003-.331-6.94-7.4.601-4 1.02-4.944 2.791-6.287 1.381-1.047 4.094-1.41 6.288-.841M216.9 97.244c-.995.353-1.608.888-2.116 1.845-.851 1.603-.377 1.85 3.616 1.886 3.302.03 4-.159 4-1.084 0-1.915-3.208-3.459-5.5-2.647m55.4.135c-1.431.663-2.526 2.225-2.108 3.007.524.978 7.599.833 7.859-.161.528-2.016-3.373-3.947-5.751-2.846m-112.7.019c-5.424 1.012-5.127 9.885.353 10.534 2.086.247 4.261-1.11 4.931-3.075 1.412-4.145-1.443-8.176-5.284-7.459m37.065.029c-5.058.891-5.36 9.053-.384 10.395 3.066.827 5.917-1.544 5.972-4.968.058-3.646-2.361-5.996-5.588-5.427"/><path fill="#00F" d="M92.213 81.812c-6.609 1.341-11.597 6.552-12.627 13.192-.44 2.833-.153 19.308.361 20.729 1.431 3.958 4.405 6.804 8.353 7.994 1.132.341 3.218.367 36.909.467 33.676.1 35.739.126 36.247.459.843.552 1.13 1.158 1.343 2.836.312 2.464 1.541 3.911 3.323 3.911 1.277 0 1.322-.14 1.243-3.841-.093-4.399-.883-5.986-3.665-7.364l-1-.495-19.943-.1c-18.798-.094-19.963-.12-20.3-.457-.332-.332-.365-1.195-.466-12.5-.106-11.826-.121-12.181-.555-13.609-1.557-5.117-5.293-9.025-10.208-10.678l-1.928-.648-8.1-.038c-4.455-.021-8.499.043-8.987.142m15.65 4.684c4.58.97 8.216 4.637 9.231 9.311.574 2.644.37 17.483-.263 19.052-.966 2.398-3.395 4.175-6.25 4.57-3.179.441-20.341.121-21.65-.404-4.412-1.767-4.998-3.565-4.898-15.025l.069-7.9.557-1.578c1.471-4.167 4.723-7.135 8.786-8.018 1.831-.397 12.552-.404 14.418-.008m22.425 2.388c-.375.274-.39.658-.443 11.127-.065 12.839-.262 11.791 2.21 11.786 2.507-.005 2.533-.06 2.54-5.353.007-4.848-.062-4.849 3.935.051 1.524 1.868 3.181 3.825 3.683 4.35l.913.955h2.213c3.591 0 3.662.254-1.744-6.198-2.166-2.586-4.001-4.901-4.078-5.144-.204-.649-.004-.935 4.066-5.815 4.928-5.91 4.968-6.043 1.802-6.043-2.409 0-2.417.006-5.638 3.98-5.404 6.667-5.202 6.641-5.272.677-.044-3.791-.064-3.964-.483-4.303-.56-.454-3.113-.502-3.704-.07M254.4 89.2c-.329.329-.4.667-.4 1.9 0 1.558-.355 2.3-1.1 2.3-.165 0-.48.18-.7.4-.767.767-.388 3.4.489 3.4 1.112 0 1.204.408 1.314 5.832.152 7.468 1.07 8.768 6.191 8.768 2.366 0 2.606-.167 2.606-1.821 0-1.546-.306-1.894-1.814-2.065-2.182-.247-2.186-.256-2.186-5.58 0-5.198-.087-4.974 1.971-5.098 1.754-.106 2.029-.359 2.029-1.867 0-1.588-.379-1.969-1.955-1.969-1.732 0-1.959-.24-2.119-2.241-.172-2.148-.391-2.359-2.448-2.359-1.211 0-1.55.072-1.878.4m-97.5 4.271c-8.513 2.797-7.894 16.757.822 18.547 1.737.356 3.538.028 5.522-1.007 1.194-.623 1.592-.75 1.753-.559.114.137.393.495.62.798.392.523.493.55 2.083.55 2.508 0 2.3.824 2.3-9.114 0-10.011.18-9.286-2.3-9.286-1.577 0-1.613.017-2.49 1.197l-.37.497-1.745-.897c-1.958-1.007-4.45-1.299-6.195-.726m39.557.008c-.463.151-1.337.554-1.941.895-.981.553-1.716.654-1.716.234 0-.712-1.023-1.208-2.49-1.208-2.542 0-2.31-1.373-2.31 13.669 0 14.984-.253 13.531 2.354 13.531 2.313 0 2.246.153 2.246-5.158 0-5.524.021-5.566 2.243-4.36 6.38 3.464 13.194-2.092 12.202-9.948-.7-5.55-5.779-9.222-10.588-7.655m19.148.031c-9.635 2.68-7.859 17.877 2.176 18.62 4.019.297 9.079-2.722 8.785-5.243-.119-1.015-3.358-1.242-4.54-.318-1.699 1.327-2.068 1.508-3.249 1.594-2.032.147-3.559-.713-4.264-2.402-.694-1.661-.322-1.761 6.562-1.761 6.576 0 6.352.06 6.482-1.735.432-5.972-5.73-10.485-11.952-8.755m23.859-.118c-.351.084-1.091.39-1.647.68-1.191.623-1.699.662-2.056.16-.65-.917-3.265-1.198-4.189-.45l-.472.383v8.533c0 9.973-.232 9.102 2.427 9.102 2.378 0 2.273.278 2.273-6.019 0-7.153.666-8.561 4.056-8.577 3.426-.015 4.01 1.173 4.143 8.416.078 4.268.163 5.595.375 5.85.387.465 3.45.477 3.912.016.438-.438.463-11.41.029-13.039-1.017-3.819-4.849-6.007-8.851-5.055m31.741.129c-9.179 2.466-8.041 17.061 1.444 18.513 4.248.651 9.84-2.4 9.513-5.189-.146-1.243-3.722-1.143-5.049.142-2.35 2.273-7.113.987-7.113-1.922 0-1.01.35-1.065 6.713-1.065 6.912 0 6.603.119 6.434-2.477-.39-5.995-5.835-9.644-11.942-8.002m-96.16.19l-.445.312v8.574c0 10.036-.207 9.203 2.29 9.203 2.325 0 2.191.337 2.31-5.78.13-6.668.525-7.478 3.856-7.924 1.584-.211 1.744-.441 1.744-2.503 0-2.532-1.015-2.904-3.588-1.317-1.407.869-1.508.878-1.943.174-.188-.302-.477-.662-.643-.8-.449-.371-3.027-.327-3.581.061m112.127.071l-.472.382-.061 7.868c-.08 10.342-.225 9.768 2.464 9.768 2.387 0 2.297.216 2.297-5.508 0-6.759.452-7.741 3.772-8.19 1.572-.213 1.828-.558 1.828-2.464 0-2.55-1.029-2.941-3.588-1.362-1.333.823-1.732.892-1.91.329-.375-1.181-3.22-1.721-4.33-.823M98.364 95.679c-2.705.728-3.789 2.445-4.491 7.118-1.063 7.069-.748 7.405 6.94 7.4 7.434-.005 7.739-.322 6.778-7.037-.507-3.54-.638-4.041-1.351-5.163-1.383-2.177-4.735-3.164-7.876-2.318m121.691 1.637c1.242.423 2.345 1.634 2.345 2.575 0 .925-.698 1.114-4 1.084-3.993-.036-4.467-.283-3.616-1.886.977-1.842 3.036-2.535 5.271-1.773m55.567-.008c1.45.511 2.674 1.981 2.429 2.917-.26.994-7.335 1.139-7.859.161-.977-1.826 2.843-3.991 5.43-3.078m-113.322.388c4.085 1.654 3.85 8.626-.337 10.016-2.789.927-5.536-.792-6.173-3.861-.887-4.272 2.725-7.687 6.51-6.155m37.462.184c2.867 1.483 3.413 6.229 1.001 8.695-3.006 3.075-7.951.844-8.031-3.624-.077-4.278 3.531-6.88 7.03-5.071"/></g></svg>