<svg xmlns="http://www.w3.org/2000/svg" role="img" viewBox="-0.98 -0.98 154.83 43.83"><title>NCC Group logo</title><path d="M138 15h1v1h-1zM24 17h1v1h-1zm58 0h1v1h-1zm33 0h1v8h-1zm-64 3h1v1h-1zm5 1h1v1h-1zm80 2h1v1h-1zm-21 2h1v1h-1zm-22 5h1v1h-1zm-16 1h1v1h-1zm-33 1h1v1h-1zm19 0h1v1h-1zm1 0h1v1h-1z" fill="#ce304c"/><path d="M140 3h1v1h-1zm-2 1h1v1h-1zm8 7h1v1h-1zM7 16h1v1H7zm6 0h1v1h-1zm36 0h1v1h-1zm12 0h1v1h-1zm5 0h1v1h-1zm22 0h1v1h-1zm15 0h1v1h-1zm-76 2h1v1h-1zm32 1h1v1h-1zm61 3h1v1h-1zm-21 3h1v1h-1zm-64 5h1v1h-1z" fill="#ca374b"/><path d="M142 3h1v1h-1zm6 6h1v1h-1zm-12 2h1v1h-1zm-45 5h1v1h-1zm1 0h1v1h-1zm11 1h1v1h-1zm-34 1h1v1h-1zm54 0h1v1h-1zm-38 1h1v1h-1zm37 0h1v1h-1zM3 22h1v1H3zm37 0h1v1h-1zm16 0h1v2h-1zm15 0h1v1h-1zm6 0h1v1h-1zm21 0h1v1h-1zm37 1h1v3h-1zm-79 1h1v1h-1zm-18 1h1v1h-1zm60 0h1v1h-1zm-41 1h1v1h-1zm78 0h1v1h-1zm-20 1h1v1h-1zm-56 2h1v1h-1zm-28 1h1v1h-1zm13 0h1v1h-1zm1 0h1v1h-1zm43 0h1v1h-1zm-27 1h1v1h-1zm1 0h1v1h-1zm3 0h1v1h-1zm1 0h1v1h-1zm24 0h3v1h-3zm3 0h1v1h-1zm33 0h1v1h-1zm4 0h1v1h-1zm-59 1h1v1h-1zm-2 3h1v1h-1zm-1 1h1v1h-1zm-8 1h1v1h-1zm1 0h1v1h-1zm6 0h1v1h-1zm-2 1h1v1h-1z" fill="#c1001c"/><path d="M145 3h1v1h-1zm-1 3h1v1h-1zM33 16h1v1h-1zm58 1h1v1h-1zm32 0h1v1h-1zm-95 1h1v1h-1zm97 0h1v1h-1zm-46 1h1v1h-1zm20 2h1v1h-1zm-84 1h1v1h-1zm55 1h2v1h-2zm2 0h1v1h-1zm3 1h1v6h-1zm29 2h1v1h-1zm-62 2h1v1h-1zm16 2h1v1h-1zm17 0h1v1h-1zm36 0h1v1h-1zm-96 1h1v1h-1zm3 0h1v1h-1zM3 32h1v1H3zm13 0h1v1h-1zm1 0h1v1h-1z" fill="#d45c6d"/><path d="M148 10h1v1h-1zm-97 6h1v1h-1zm67 1h1v5h-1zm-51 2h1v1h-1zm66 2h1v1h-1zM14 22h1v9h-1zm23 0h1v1h-1zm81 0h1v1h-1zm-49 1h1v1h-1zm68 0h1v1h-1zm-63 1h1v7h-1zm-37 2h1v1h-1zm18 0h1v1h-1zm50 0h1v1h-1zm19 2h1v1h-1zm-96 1h1v1h-1zm-14 2h1v1h-1zm60 0h1v1h-1zm-5 1h1v1h-1zm-7 1h1v1h-1zm-3 1h1v1h-1zm-3 1h1v1h-1zm6 1h1v1h-1zm3 0h1v1h-1zm-4 3h1v1h-1z" fill="#f8e2e6"/><path d="M149 9h1v1h-1zm-34 7h1v1h-1zM56 27h1v1h-1zm28 1h1v1h-1zm39 0h1v1h-1zm-20 1h1v1h-1zm-13 1h1v1h-1zm18 0h1v1h-1zm12 8h1v1h-1z" fill="#d6576d"/><path d="M135 10h1v1h-1zm13 4h1v1h-1zM9 15h2v1H9zm2 0h1v1h-1zm17 0h2v1h-2zm2 0h1v1h-1zm15 0h2v1h-2zm2 0h1v1h-1zM3 19h1v1H3zm133 2h1v1h-1zm-61 1h1v1h-1zm47 1h1v1h-1zm12 2h1v1h-1zm-65 2h1v1h-1zm48 0h1v1h-1zm-66 4h1v1h-1zm-25 1h1v1h-1zm50 0h1v1h-1zm-8 3h1v1h-1z" fill="#db8891"/><path d="M140 4h1v1h-1zm4 0h1v1h-1zm-7 3h1v1h-1zm1 2h1v1h-1zm8 3h1v2h-1zm1 1h1v1h-1zm-1 1h1v1h-1zm-6 1h1v1h-1zM12 16h1v1h-1zm19 0h1v1h-1zm32 0h1v1h-1zm1 0h1v1h-1zm25 0h1v1h-1zm38 0h1v1h-1zm1 0h1v1h-1zM7 17h2v1H7zm2 0h1v1H9zm3 0h1v1h-1zm1 0h1v1h-1zm30 0h1v1h-1zm19 0h3v1h-3zm3 0h1v1h-1zm24 0h1v1h-1zm7 0h1v1h-1zm31 0h2v1h-2zm2 0h1v1h-1zM7 18h1v1H7zm8 0h1v1h-1zm10 0h1v1h-1zm1 0h1v1h-1zm8 0h1v1h-1zm8 0h1v1h-1zm7 0h1v1h-1zm1 0h1v1h-1zm29 0h1v1h-1zM6 19h1v1H6zm18 0h1v1h-1zm17 0h1v1h-1zM4 20h1v1H4zm1 0h1v1H5zm18 0h1v1h-1zm1 0h1v1h-1zm60 0h1v1h-1zm1 0h1v1h-1zm37 0h1v1h-1zM16 21h1v1h-1zm7 0h1v1h-1zm47 0h1v1h-1zm6 0h1v1h-1zm-37 1h1v1h-1zm82 2h1v1h-1zm-82 2h1v1h-1zm-17 1h1v1h-1zm18 0h1v1h-1zm44 0h1v1h-1zm1 0h1v1h-1zm-61 1h1v1h-1zm16 0h1v1h-1zm30 0h1v1h-1zm51 0h1v1h-1zm-97 1h1v1h-1zm1 0h1v1h-1zm10 0h1v1h-1zm16 0h1v1h-1zm17 0h1v1h-1zm53 0h1v1h-1zm1 0h1v1h-1zm-97 1h1v1h-1zm1 0h1v1h-1zm7 0h1v1h-1zm10 0h1v1h-1zm6 0h2v1h-2zm2 0h1v1h-1zm-24 1h2v1h-2zm2 0h2v1h-2zm2 0h1v1h-1zm13 0h4v1h-4zm4 0h1v1h-1zm19 0h1v1h-1zm-22 1h2v1h-2zm2 0h1v1h-1zm74 0h1v4h-1zm0 4h1v1h-1zm-59 2h1v1h-1z" fill="#c30c2d"/><path d="M136 8h1v1h-1zm-46 8h1v1h-1zm26 1h1v1h-1zm-59 3h1v1h-1zm40 0h1v1h-1zm37 0h1v1h-1zM5 21h1v1H5zm72 0h1v1h-1zm58 0h1v1h-1zm0 1h1v1h-1zM3 23h1v7H3zm20 1h1v1h-1zm34 4h1v1h-1zM3 30h1v1H3zm45 0h1v1h-1zm46 0h1v1h-1zm31 0h1v1h-1zM17 31h1v1h-1zm92 0h1v1h-1zm1 0h1v1h-1zm21 0h1v1h-1zm-61 4h1v1h-1z" fill="#c1001e"/><path d="M145 8h1v1h-1zM8 15h1v1H8zm40 0h1v1h-1zm81 0h1v1h-1zm-5 1h1v1h-1zm-89 1h1v1h-1zm-3 2h1v1h-1zm55 0h1v1h-1zm10 3h1v1h-1zm0 3h1v1h-1zm-76 2h1v1h-1zm1 2h1v1h-1zm26 0h1v1h-1zm17 1h1v1h-1zm12 2h1v1h-1zm48 0h1v1h-1zm6 0h1v1h-1z" fill="#e59fa9"/><path d="M146 8h1v2h-1zm-3 2h1v1h-1zm3 0h1v1h-1zm-85 5h1v1h-1zm27 0h1v1h-1zm-73 1h1v1h-1zm126 1h1v1h-1zM17 18h1v1h-1zm45 0h1v1h-1zm-6 1h1v1h-1zm24 0h1v1h-1zm15 0h1v1h-1zm4 0h1v1h-1zM2 20h1v1H2zm5 0h1v1H7zm68 0h1v1h-1zm8 0h1v1h-1zm-32 1h1v1h-1zm4 1h1v1h-1zm3 1h1v2h-1zm0 2h1v1h-1zm42 0h1v1h-1zm-17 2h1v1h-1zm-62 1h1v1h-1zm78 0h1v1h-1zm37 0h1v1h-1zM35 31h1v1h-1zm80 0h1v1h-1zm9 1h1v1h-1zm-96 1h2v1h-2zm2 0h1v1h-1zm15 0h2v1h-2zm2 0h1v1h-1zm62 0h1v1h-1zm1 0h1v1h-1zm-51 5h1v1h-1zm4 1h2v1h-2zm2 0h1v1h-1z" fill="#f3d2d7"/><path d="M135 9h1v1h-1zm7 0h1v1h-1zm-3 3h1v1h-1zm-49 3h2v1h-2zm2 0h1v1h-1zm55 0h1v1h-1zM25 16h1v1h-1zm62 0h1v1h-1zm17 0h1v1h-1zm-43 2h1v1h-1zm-12 1h1v1h-1zm86 0h1v1h-1zm-12 1h1v1h-1zM18 21h1v1h-1zm65 0h1v1h-1zm-11 1h1v1h-1zm50 3h1v1h-1zm-36 2h1v1h-1zm-34 1h1v1h-1zm7 0h1v1h-1zm-32 1h1v1h-1zm12 0h1v1h-1zm49 0h1v1h-1zm-65 1h1v1h-1zm39 0h1v1h-1zm-13 2h1v1h-1zm12 0h1v1h-1zm29 0h1v1h-1z" fill="#dc818e"/><path d="M8 19h1v1H8zm67 2h1v1h-1zM2 23h1v8H2zm56 3h1v1h-1zm78 1h1v1h-1zm-19 1h1v1h-1zm-50 1h1v1h-1zm68 0h1v1h-1zM2 31h1v1H2zm31 1h1v1h-1z" fill="#e5acb2"/><path d="M144 3h1v1h-1zm-8 4h1v1h-1zm1 3h1v1h-1zm0 1h3v1h-3zM27 16h1v1h-1zm35 0h1v1h-1zm3 0h1v1h-1zm-50 1h1v1h-1zm-7 1h1v1H8zm24 0h1v1h-1zm26 0h1v1h-1zm29 0h1v1h-1zm37 0h1v1h-1zm-82 1h1v1h-1zm8 0h1v1h-1zm73 0h1v1h-1zm11 2h1v1h-1zm-77 2h1v1h-1zm42 1h1v1h-1zm16 2h1v1h-1zm-74 1h1v1h-1zm28 1h1v1h-1zm17 0h1v1h-1zm30 0h1v1h-1zm-90 1h1v1h-1zm23 0h1v1h-1zm36 0h1v1h-1zm12 0h1v1h-1zm37 0h1v1h-1zm-38 1h1v1h-1zm37 0h1v1h-1zm-27 1h1v1h-1zm-78 1h1v1h-1zm81 0h1v1h-1zm-49 4h1v1h-1zm2 1h1v1h-1zm58 0h1v1h-1z" fill="#c71b39"/><path d="M147 3h1v1h-1zm-1 4h1v1h-1zm1 3h1v1h-1zm-12 3h1v1h-1zm-18 2h1v1h-1zm8 0h1v1h-1zm6 0h1v1h-1zm17 0h1v1h-1zm-62 1h1v1h-1zm19 1h1v8h-1zm-83 1h1v1h-1zm62 0h1v1h-1zm-58 2h1v1h-1zm11 1h1v1h-1zm13 0h1v1h-1zM6 22h1v1H6zm35 1h1v1h-1zm33 0h1v1h-1zm-33 1h1v1h-1zm64 1h1v1h-1zm-85 1h1v1h-1zm98 0h1v1h-1zm5 0h1v1h-1zm14 0h1v1h-1zM33 27h1v1h-1zm1 0h1v1h-1zm3 0h1v1h-1zm5 0h1v1h-1zm10 0h1v1h-1zm3 0h1v1h-1zm4 0h1v1h-1zm-10 1h1v1h-1zm57 0h1v1h-1zm-70 1h1v1h-1zm9 0h1v1h-1zm11 0h1v1h-1zm33 0h1v1h-1zm14 1h1v1h-1zm-51 1h1v1h-1zm-38 1h1v1h-1zm20 0h1v1h-1zm34 0h1v2h-1zm6 0h1v1h-1zm31 0h1v1h-1zm9 0h1v1h-1zm-99 1h1v1h-1zm3 0h1v1h-1zm14 0h1v1h-1zm11 0h1v1h-1zm23 0h1v1h-1zm25 0h1v1h-1zm1 0h1v1h-1zm15 0h1v1h-1zm5 0h1v1h-1zm-44 1h1v1h-1zm1 4h1v1h-1zm50 0h1v1h-1zm-52 1h1v1h-1zm55 0h1v1h-1z" fill="#fbeef1"/><path d="M147 5h1v1h-1zm-6 11h2v1h-2zm2 0h1v1h-1zm-22 4h1v1h-1zm-50 1h1v1h-1zM5 22h1v1H5zm33 1h2v1h-2zm2 0h1v2h-1zm58 0h1v1h-1zm-60 1h1v1h-1zm60 0h1v1h-1zm-58 1h1v1h-1zm16 0h1v1h-1zm-4 4h1v1h-1zm-24 1h2v1h-2zm2 0h1v1h-1zm17 0h1v1h-1zm20 0h1v1h-1zM3 31h1v1H3zm60 0h1v1h-1zm1 0h1v1h-1zm12 0h1v1h-1zm51 0h2v1h-2zm2 0h1v1h-1zm-71 4h1v1h-1zm8 2h1v1h-1zm-3 1h1v1h-1z" fill="#c00015"/><path d="M144 8h1v1h-1zm-1 1h1v1h-1zm-5 1h1v1h-1zm-1 4h1v1h-1zm-55 2h1v1h-1zm34 0h1v1h-1zM5 17h1v1H5zm81 0h1v1h-1zm4 0h1v1h-1zm12 0h1v9h-1zm-79 1h1v1h-1zm25 0h1v1h-1zm19 0h1v1h-1zm13 0h1v1h-1zm-63 1h1v1h-1zm79 0h1v1h-1zM3 20h1v1H3zm3 0h1v1H6zm65 0h1v1h-1zm51 1h1v1h-1zm-52 1h1v1h-1zm7 2h1v6h-1zm25 2h1v1h-1zm-77 2h1v1h-1zm71 0h1v1h-1zm36 1h1v2h-1zm-63 1h1v1h-1zm8 0h1v1h-1zm9 0h1v1h-1zm46 1h1v1h-1zm-84 1h1v1h-1zm60 0h1v1h-1zm3 0h1v1h-1zm16 0h2v1h-2zm2 0h1v1h-1z" fill="#cd3d54"/><path d="M145 5h1v1h-1zm-8 1h1v1h-1zm4 2h1v1h-1zm-5 1h1v1h-1zm0 1h1v1h-1zm1 3h1v1h-1zm3 0h1v1h-1zM11 16h1v1h-1zm18 0h1v1h-1zm1 0h1v1h-1zm30 1h1v1h-1zm7 0h1v1h-1zm14 0h1v1h-1zm14 0h1v1h-1zm30 0h1v1h-1zm6 0h1v1h-1zM16 18h1v1h-1zm70 0h1v1h-1zm17 0h1v9h-1zm13 0h1v8h-1zm-46 1h1v1h-1zm27 0h1v1h-1zm36 0h1v1h-1zm-63 1h1v1h-1zm-53 1h1v1h-1zm59 1h1v8h-1zm8 0h1v3h-1zm37 0h1v1h-1zm-98 3h1v1h-1zm48 0h1v1h-1zm13 0h1v1h-1zm32 1h1v1h-1zm-77 1h1v1h-1zm58 0h1v1h-1zm6 0h1v1h-1zm32 0h1v1h-1zm-38 1h1v1h-1zm37 0h1v1h-1zm-76 1h1v1h-1zm38 0h1v1h-1zm8 0h1v1h-1zm1 0h1v1h-1zm18 0h1v1h-1zm10 0h1v1h-1zM27 30h1v1h-1zm49 0h1v1h-1zm38 0h1v1h-1zm-65 1h1v1h-1zm58 0h1v1h-1zm1 0h1v1h-1zm3 0h1v1h-1zm1 0h1v1h-1zm13 0h1v1h-1zm-96 1h1v1h-1zm41 2h1v1h-1zm-11 2h1v1h-1z" fill="#c20023"/><path d="M140 9h1v1h-1zm7 3h1v1h-1zm-8 1h1v1h-1zM9 16h1v1H9zm1 0h1v1h-1zm18 0h1v1h-1zm17 0h2v1h-2zm2 0h1v1h-1zm46 0h1v1h-1zM6 17h1v1H6zm36 0h1v1h-1zm19 0h1v1h-1zm5 0h1v1h-1zm13 0h1v1h-1zm1 0h1v1h-1zm7 0h1v1h-1zm1 0h1v1h-1zm36 0h1v1h-1zm8 0h1v1h-1zM5 18h1v1H5zm19 0h1v1h-1zm10 1h1v1h-1zm6 0h1v1h-1zm11 0h1v1h-1zm18 0h1v1h-1zm65 0h1v1h-1zm-95 1h1v1h-1zm38 0h1v1h-1zm21 0h1v1h-1zm-76 1h1v1h-1zm99 4h1v1h-1zm-99 1h1v1h-1zm99 0h1v1h-1zm-23 1h1v1h-1zm36 0h1v1h-1zm-93 1h1v1h-1zm17 0h1v1h-1zm57 0h1v1h-1zm-82 1h1v1h-1zm7 0h1v1h-1zm46 0h1v1h-1zm29 0h1v1h-1zm-81 1h1v1h-1zm12 0h1v1h-1zm25 0h1v1h-1zm16 0h1v1h-1zm19 0h1v1h-1zm7 0h1v1h-1zm-81 1h1v1h-1zm11 0h1v1h-1zm78 6h1v1h-1z" fill="#c20025"/><path d="M141 9h1v1h-1zm-5 3h1v1h-1zm9 4h1v1h-1zm-53 1h1v1h-1zm41 0h1v1h-1zm-11 1h1v1h-1zm-84 3h1v1h-1zm3 0h1v1h-1zm56 0h1v1h-1zm39 1h1v1h-1zM21 23h1v1h-1zm51 1h1v5h-1zm-48 2h1v1h-1zm73 0h1v1h-1zm37 0h1v1h-1zm-76 1h1v1h-1zm-8 1h1v1h-1zm64 0h1v1h-1zm-42 1h1v1h-1zm34 0h1v1h-1zm7 0h1v1h-1zM5 32h1v1H5zm57 0h1v1h-1zm-5 3h1v1h-1zm10 1h1v1h-1zm-4 1h1v1h-1zm1 0h1v1h-1zm57 1h1v1h-1z" fill="#d35065"/><path d="M139 10h1v1h-1zm2 1h1v1h-1zm-3 1h1v1h-1zm3 0h1v1h-1zm-5 1h1v1h-1zM6 16h1v1H6zm8 0h1v1h-1zm46 0h1v1h-1zm79 0h1v1h-1zM29 18h1v1h-1zm-3 1h1v1h-1zm58 0h1v1h-1zm37 0h1v1h-1zM14 20h1v1h-1zm11 0h1v1h-1zm95 1h1v1h-1zm14 1h1v1h-1zm-59 1h1v1h-1zm42 3h1v1h-1zm-15 1h1v1h-1zm-42 2h1v1h-1zm56 0h1v1h-1zm-64 1h1v1h-1zm40 0h1v1h-1zm38 0h1v1h-1zm-62 1h2v1h-2zm2 0h2v1h-2zm2 0h1v1h-1zm33 0h1v1h-1zm-73 1h1v1h-1zm11 0h1v1h-1zm48 0h1v1h-1zm-21 4h1v1h-1zm-3 2h1v1h-1z" fill="#d96c7d"/><path d="M141 2h2v1h-2zm2 0h1v1h-1zm4 6h1v1h-1zm1 0h1v1h-1zM2 22h1v1H2zm39 0h1v1h-1zm15 6h1v1h-1zm-25 1h1v1h-1zm36 3h1v1h-1zm27 0h1v1h-1zm12 0h1v1h-1zm-38 6h1v1h-1z" fill="#e7b5ba"/><path d="M145 2h1v1h-1zm3 4h1v1h-1zm-4 1h1v1h-1zM26 15h1v1h-1zm90 0h1v1h-1zm-75 1h1v1h-1zM4 17h1v1H4zm-1 1h1v1H3zm50 0h1v1h-1zm29 0h1v1h-1zm-44 1h1v1h-1zm10 0h1v1h-1zm20 1h1v1h-1zm11 0h1v1h-1zm-54 1h1v1h-1zm75 0h1v1h-1zm-80 2h1v2h-1zm17 0h1v2h-1zm100 1h1v1h-1zM20 25h1v1h-1zm17 0h1v1h-1zm4 0h1v1h-1zm28 0h1v1h-1zm-19 2h1v1h-1zm64 0h1v1h-1zm-7 2h1v1h-1zm5 0h1v1h-1zm13 0h1v1h-1zm6 0h1v1h-1zm-95 1h1v1h-1zm3 0h1v1h-1zm18 0h1v1h-1zm28 0h1v1h-1zm31 0h1v1h-1zm-76 1h1v1h-1zm18 0h1v1h-1zm28 0h1v1h-1zm18 0h1v1h-1zm-77 2h1v1h-1zm4 0h1v1h-1zm13 0h1v1h-1zm4 0h1v1h-1zm15 0h2v1h-2zm2 0h1v1h-1zm43 0h1v1h-1zm3 0h1v1h-1zm16 0h2v1h-2zm2 0h1v1h-1zm-67 6h1v1h-1zm4 0h1v1h-1z" fill="#f5dce0"/><path d="M139 3h1v1h-1zm8 1h1v1h-1zm1 1h1v1h-1zm-1 6h1v1h-1zm-97 5h1v1h-1zm67 0h1v1h-1zm-29 2h1v1h-1zm-66 1h1v1h-1zm13 0h1v1h-1zm51 1h1v1h-1zm47 0h1v1h-1zm-75 1h1v1h-1zm64 1h1v1h-1zM21 26h1v1h-1zm115 0h1v1h-1zm-98 1h1v1h-1zm19 2h1v1h-1zm34 1h1v1h-1zm-50 1h1v1h-1zm18 0h1v1h-1zm28 0h1v1h-1zm35 0h1v1h-1zm-56 1h1v1h-1zm26 0h1v1h-1zm15 0h1v1h-1zm5 0h1v1h-1zm-43 2h1v1h-1zm0 3h1v1h-1z" fill="#da7886"/><path d="M137 4h1v1h-1zm9 2h1v1h-1zm1 0h1v1h-1zm-4 2h1v1h-1zm1 2h1v1h-1zm1 0h1v1h-1zm3 1h1v1h-1zm-54 4h1v1h-1zm-36 2h1v1h-1zm-1 1h1v1h-1zm69 0h1v1h-1zM12 19h1v1h-1zm40 1h1v1h-1zm3 4h1v1h-1zm-30 3h1v1h-1zm62 1h1v1h-1zm-34 1h1v1h-1zm74 1h2v1h-2zm2 0h1v1h-1zm-33 1h1v1h-1zm-54 1h1v1h-1zm71 0h1v1h-1zm-56 2h1v1h-1zm4 2h1v1h-1z" fill="#eab1ba"/><path d="M137 12h1v1h-1zM26 16h1v1h-1zM4 18h1v1H4zm5 0h1v1H9zm35 0h1v1h-1zm51 0h1v1h-1zm-62 1h1v1h-1zm24 0h1v1h-1zm41 0h1v1h-1zm-22 1h1v1h-1zm-55 4h1v1h-1zm115 1h1v1h-1zM22 28h1v1h-1zm12 0h1v1h-1zm64 0h1v1h-1zm37 0h1v1h-1zM32 29h1v1h-1zm92 0h1v2h-1zm-58 1h1v1h-1zm38 0h1v1h-1zm20 1h1v1h-1zm-97 1h1v1h-1zm38 0h1v1h-1zm-6 5h1v1h-1zm2 1h1v1h-1z" fill="#cc4456"/><path d="M12 15h1v1h-1zm19 0h1v1h-1zm13 0h1v1h-1zm19 0h1v1h-1zm1 0h1v1h-1zm25 0h1v1h-1zm38 0h1v1h-1zm1 0h1v1h-1zm-59 2h1v1h-1zm28 0h1v1h-1zm-27 1h1v1h-1zm-27 1h1v1h-1zm33 0h1v1h-1zm56 0h1v1h-1zm-98 1h1v1h-1zm65 0h1v1h-1zm-21 1h1v1h-1zm-54 2h1v1h-1zm110 0h1v1h-1zm-83 4h1v1h-1zm48 0h1v1h-1zm-2 3h1v1h-1zm12 0h1v1h-1zm1 0h1v1h-1zm24 0h1v1h-1zm-41 2h1v1h-1zm-33 6h1v1h-1z" fill="#e297a2"/><path d="M81 16h1v1h-1zm13 0h1v1h-1zm32 0h1v1h-1zm-33 1h1v1h-1zm-81 1h1v1h-1zm28 0h1v1h-1zm46 1h1v1h-1zm-8 1h1v1h-1zm57 0h1v1h-1zM24 21h1v1h-1zm96 2h1v13h-1zm-50 3h1v1h-1zm52 1h1v1h-1zm1 3h1v1h-1zm-73 1h1v1h-1zm20 2h1v1h-1zm50 3h1v1h-1z" fill="#c6263d"/><path d="M67 16h1v1h-1zm37 2h1v7h-1zm-83 4h1v1h-1zm83 3h1v1h-1zm18 1h1v1h-1zm-17 2h1v1h-1zm-65 2h1v1h-1zm-6 1h1v1h-1zm80 0h1v1h-1zm12 1h1v1h-1z" fill="#d36471"/><path d="M140 2h1v1h-1zm-2 1h1v1h-1zm7 4h1v1h-1zm4 1h1v1h-1zm-7 2h1v1h-1zm-7 2h1v1h-1zm14 1h1v1h-1zm-13 1h1v1h-1zM7 15h1v1H7zm6 0h1v1h-1zm36 0h1v1h-1zm17 0h1v1h-1zm71 0h1v1h-1zM34 16h1v1h-1zm18 1h1v1h-1zm-16 1h1v1h-1zm-9 1h1v1h-1zm-9 1h1v1h-1zm78 0h1v1h-1zm24 0h1v1h-1zM14 21h1v1h-1zm58 0h1v1h-1zm51 0h1v1h-1zm-54 1h1v1h-1zm31 0h1v2h-1zm-3 1h1v1h-1zm0 1h1v1h-1zm3 0h1v1h-1zm-45 1h1v1h-1zm31 1h1v1h-1zm10 1h1v1h-1zm-70 1h1v1h-1zm62 4h1v1h-1zm44 0h1v1h-1zm-60 1h1v1h-1zm-6 3h1v1h-1z" fill="#f2ccd2"/><path d="M141 3h1v1h-1zm4 1h1v1h-1zm-7 1h1v1h-1zm6 0h1v1h-1zm-2 2h1v1h-1zm-3 2h1v1h-1zm3 3h1v1h-1zm1 0h1v1h-1zm-5 1h1v1h-1zm3 0h1v1h-1zm-3 1h1v1h-1zm9 0h1v1h-1zm-2 1h1v1h-1zm1 0h1v1h-1zm-6 1h1v1h-1zM10 17h1v1h-1zm1 0h1v1h-1zm3 0h1v2h-1zm11 0h1v1h-1zm1 0h5v1h-5zm5 0h3v1h-3zm3 0h1v1h-1zm10 0h4v1h-4zm4 0h2v1h-2zm2 0h1v1h-1zm44 0h1v1h-1zm32 0h1v1h-1zm4 0h1v1h-1zM13 18h1v1h-1zm20 0h1v1h-1zm8 0h1v1h-1zm10 0h1v1h-1zm1 0h1v1h-1zm16 0h1v1h-1zm28 0h1v1h-1zM4 19h1v1H4zm10 0h2v1h-2zm2 0h1v1h-1zm7 0h1v1h-1zm55 0h1v1h-1zm-63 1h1v1h-1zM3 21h1v1H3zm36 0h1v1h-1zm1 0h1v1h-1zm44 0h1v1h-1zm-68 1h1v8h-1zm1 0h1v8h-1zm5 0h1v1h-1zm1 0h1v1h-1zm-1 1h1v2h-1zm99 0h1v1h-1zm-99 2h1v1h-1zm1 1h1v2h-1zm33 0h1v1h-1zm15 0h1v3h-1zm13 0h1v1h-1zm-14 1h1v1h-1zm51 0h1v1h-1zm-98 1h1v1h-1zm16 0h1v1h-1zm12 0h1v1h-1zm53 0h1v1h-1zm18 0h1v1h-1zm-88 1h1v1h-1zm8 0h1v2h-1zm8 0h1v1h-1zm19 0h2v1h-2zm2 0h1v1h-1zm16 0h1v1h-1zm27 0h1v1h-1zm-98 1h1v1h-1zm1 0h1v1h-1zm7 0h1v1h-1zm8 0h1v1h-1zm9 0h1v1h-1zm18 0h1v1h-1zm9 0h1v1h-1zm21 0h1v1h-1zm16 0h1v1h-1zm7 0h1v1h-1zm19 0h1v1h-1zM4 31h1v1H4zm38 0h1v1h-1zm-12 1h1v1h-1zm39 4h1v1h-1z" fill="#c30029"/><path d="M143 3h1v1h-1zm-4 1h1v1h-1zm7 1h1v1h-1zm-7 10h1v1h-1zm-80 3h1v1h-1zm19 0h1v1h-1zm55 0h1v1h-1zm-75 1h1v1h-1zm-17 1h1v1h-1zm16 1h1v1h-1zm41 0h1v1h-1zm23 0h1v1h-1zm-64 1h1v1h-1zm-34 1h1v1h-1zm48 1h1v1h-1zm-31 2h1v1h-1zm58 0h1v1h-1zm-41 1h1v1h-1zm59 0h1v1h-1zm-31 1h1v1h-1zm-25 2h1v1h-1zm35 0h1v1h-1zm12 0h1v1h-1zm-91 1h1v1h-1zm10 0h1v1h-1zm63 0h1v1h-1z" fill="#c10020"/><path d="M148 4h1v1h-1zm-13 2h1v1h-1zm14 4h1v1h-1zm-47 5h2v1h-2zm2 0h1v1h-1zm11 0h1v1h-1zm-56 1h1v1h-1zm24 0h1v1h-1zm35 0h1v1h-1zm20 0h1v1h-1zm-55 1h2v1h-2zm2 0h1v1h-1zm37 0h1v1h-1zm12 0h1v1h-1zm-69 1h1v1h-1zm24 0h1v1h-1zm32 0h1v1h-1zm14 0h1v1h-1zM9 19h1v1H9zm35 0h1v1h-1zm-31 1h1v1h-1zm42 1h1v1h-1zm-35 1h1v1h-1zm117 0h1v1h-1zm-19 1h1v2h-1zm-49 1h1v1h-1zm50 0h1v13h-1zm-1 1h1v1h-1zm19 0h1v1h-1zm-37 1h1v1h-1zm-65 2h1v1h-1zm60 0h1v1h-1zm0 4h1v1h-1zM3 33h2v1H3zm2 0h1v1H5zm11 0h1v1h-1zm1 0h1v1h-1zm109 0h1v1h-1zm4 0h1v1h-1zm-74 1h1v1h-1zm4 1h1v1h-1zm3 1h1v1h-1zm1 0h1v1h-1zm6 1h1v1h-1zm49 0h1v1h-1zm1 2h1v1h-1zm1 0h1v1h-1z" fill="#f9e5e9"/><path d="M147 9h1v1h-1zm-62 9h1v1h-1zm14 4h1v1h-1zm-22 1h1v1h-1zm-20 1h1v1h-1zm-19 2h1v1h-1zm23 4h1v1h-1zm49 2h1v1h-1zm-45 5h1v1h-1zm1 1h1v1h-1z" fill="#cc2243"/><path d="M10 18h1v1h-1zm29 1h1v1h-1zm44 4h1v1h-1zm0 1h1v1h-1zm-62 1h1v1h-1zm94 5h1v1h-1zm-40 1h1v1h-1zm-5 1h1v1h-1z" fill="#ce5563"/><path d="M139 2h1v1h-1zm-5 7h1v1h-1zm11 0h1v1h-1zm-11 1h1v1h-1zm15 4h1v1h-1zm-69 1h1v1h-1zm3 0h1v1h-1zm12 0h1v1h-1zM5 16h1v1H5zm19 0h1v1h-1zm81 0h1v1h-1zm18 0h1v1h-1zM23 17h1v1h-1zm121 0h1v1h-1zm-17 1h2v1h-2zm2 0h1v1h-1zm-98 1h1v1h-1zm105 0h1v1h-1zM35 20h1v1h-1zm20 0h1v1h-1zm69 0h1v1h-1zm13 1h1v1h-1zm-63 1h1v1h-1zm4 0h1v1h-1zm41 1h1v1h-1zm14 3h1v1h-1zm-65 1h1v1h-1zm-30 2h1v1h-1zm46 0h1v1h-1zm33 0h1v1h-1zm-64 1h1v1h-1zm-12 2h1v1h-1zm10 0h1v1h-1zm8 0h1v1h-1zm28 0h1v1h-1zM2 33h1v1H2zm24 0h1v1h-1zm23 0h1v1h-1zm12 0h1v1h-1zm29 0h1v1h-1zm-23 2h1v1h-1zm4 1h1v1h-1z" fill="#fcf3f5"/><path d="M144 2h1v1h-1zm-8 3h1v1h-1zm-1 2h1v1h-1zm14 4h1v1h-1zM32 15h1v1h-1zm11 0h1v1h-1zm38 0h1v1h-1zm45 0h1v1h-1zm4 0h1v1h-1zm-62 1h1v1h-1zm28 0h1v1h-1zm50 0h1v1h-1zM16 17h1v1h-1zm24 0h1v1h-1zm102 0h1v1h-1zm1 0h1v1h-1zM39 18h1v1h-1zm91 0h1v1h-1zm-77 1h1v1h-1zm7 0h1v1h-1zm11 0h1v1h-1zm-50 1h1v1h-1zm12 0h1v1h-1zm26 0h1v1h-1zm77 0h1v1h-1zM2 21h1v1H2zm84 0h1v1h-1zm-28 1h1v1h-1zm-3 1h1v1h-1zm14 3h1v1h-1zm36 1h1v1h-1zm18 0h1v1h-1zm10 0h1v1h-1zm-95 1h1v1h-1zm30 0h1v1h-1zm34 0h1v1h-1zm-8 1h1v1h-1zm-31 1h1v1h-1zm1 0h1v1h-1zM2 32h1v1H2zm23 0h1v1h-1zm25 0h1v1h-1zm10 0h1v1h-1zm9 1h1v1h-1zm-12 3h1v1h-1zm1 1h1v1h-1z" fill="#eebdc5"/><path d="M137 5h1v1h-1zM32 16h1v1h-1zm11 0h1v1h-1zm87 0h1v1h-1zm-89 1h1v1h-1zm10 0h1v1h-1zm8 0h1v1h-1zm1 1h1v1h-1zm-8 1h1v1h-1zm-30 1h1v1h-1zm-7 1h1v1h-1zm70 0h1v1h-1zm51 3h1v1h-1zm-51 2h1v1h-1zm19 1h1v1h-1zm29 1h1v1h-1zm-90 1h1v1h-1zm52 0h1v1h-1zm-25 1h1v1h-1zm52 0h1v1h-1zm-97 1h1v1h-1zm63 0h1v1h-1zm-57 1h1v1h-1zm27 4h1v1h-1z" fill="#c82d44"/><path d="M145 6h1v1h-1zm-4 4h1v1h-1zm1 1h1v1h-1zm-80 4h1v1h-1zm17 1h1v1h-1zm15 2h1v1h-1zM6 21h1v1H6zm18 3h1v1h-1zm20 5h1v1h-1zm14 5h1v1h-1z" fill="#eaa8b5"/><g fill="#fff"><path d="M0 0h150v1H0zm150 0h1v8h-1zM0 1h150v1H0zm0 1h138v1H0zm138 0h1v1h-1zm8 0h4v1h-4zM0 3h137v1H0zm137 0h1v1h-1zm11 0h2v1h-2zM0 4h136v1H0zm136 0h1v1h-1zm13 0h1v3h-1zM0 5h135v3H0zm135 0h1v1h-1zm12 2h3v1h-3zM0 8h134v5H0zm134 0h1v1h-1zm16 0h1v2h-1zm0 2h1v1h-1zm-16 1h1v5h-1zM0 13h134v1H0zm150 0h1v27h-1zM0 14h9v1H0zm9 0h81v1H9z"/><path d="M90 14h45v1H90zm45 0h1v3h-1zM0 15h6v1H0zm6 0h1v1H6zm8 0h11v1H14zm11 0h1v1h-1zm9 0h8v1h-8zm8 0h1v1h-1zm8 0h10v1H50zm10 0h1v1h-1zm7 0h12v1H67zm12 0h1v1h-1zm5 0h3v1h-3zm3 0h1v1h-1zm9 0h5v1h-5zm5 0h1v25h-1zm4 0h9v1h-9zm9 0h1v11h-1zm4 0h6v1h-6zm6 0h1v1h-1z"/><path d="M132 15h4v1h-4zm4 0h1v3h-1zm13 0h1v25h-1zM0 16h4v1H0zm4 0h1v1H4zm12 0h7v1h-7zm7 0h1v1h-1zm12 0h5v1h-5zm5 0h1v1h-1zm12 0h6v1h-6zm6 0h1v1h-1zm11 0h9v1h-9zm9 0h1v1h-1zm6 0h1v1h-1zm1 0h1v1h-1zm12 0h4v1h-4zm9 0h8v11h-8zm13 0h3v1h-3zm3 0h1v1h-1z"/><path d="M133 16h4v1h-4zm4 0h1v4h-1zm11 0h2v24h-2zM0 17h3v1H0zm3 0h1v1H3zm14 0h5v1h-5zm5 0h1v1h-1zm14 0h3v1h-3zm3 0h1v1h-1zm14 0h4v1h-4zm4 0h1v1h-1zm14 0h6v1h-6zm6 0h1v1h-1zm21 0h3v1h-3zm21 0h2v2h-2zm2 0h1v1h-1z"/><path d="M135 17h4v1h-4zm4 0h1v23h-1zm6 0h5v23h-5zM0 18h2v22H0zm2 0h1v1H2zm16 0h3v1h-3zm3 0h1v1h-1zm16 0h1v1h-1zm1 0h1v1h-1zm16 0h2v1h-2zm2 0h1v1h-1zm7 0h1v11h-1zm1 0h1v11h-1zm8 0h3v2h-3zm3 0h1v1h-1zm8 0h1v1h-1zm7 0h2v11h-2zm2 0h1v11h-1zm7 0h2v1h-2z"/><path d="M136 18h14v1h-14zM10 19h1v21h-1zm8 0h2v1h-2zm2 0h1v2h-1zm8 0h2v9h-2zm2 0h1v9h-1zm6 0h1v9h-1zm1 0h1v1h-1zm8 0h2v9h-2zm2 0h1v9h-1zm7 0h1v21h-1zm1 0h1v1h-1zm6 0h5v9h-5zm5 0h1v9h-1zm9 0h1v1h-1zm6 0h2v4h-2zm2 0h1v1h-1zm6 0h5v9h-5zm5 0h1v9h-1zm6 0h1v1h-1zm19 0h1v3h-1zm1 0h1v1h-1zm6 0h4v10h-4zm4 0h1v10h-1zm8 0h12v21h-12z"/><path d="M8 20h4v20H8zm4 0h1v20h-1zm7 0h1v20h-1zm8 0h5v8h-5zm5 0h1v7h-1zm11 0h5v7h-5zm5 0h1v8h-1zm5 0h1v7h-1zm7 0h7v8h-7zm7 0h1v8h-1zm5 0h2v1h-2zm2 0h1v1h-1zm6 0h2v20h-2zm8 0h7v8h-7zm7 0h1v7h-1zm30 0h7v8h-7zm7 0h1v7h-1zm5 0h13v1h-13z"/><path d="M7 21h6v19H7zm6 0h1v19h-1zm7 0h1v1h-1zm6 0h6v6h-6zm9 0h1v6h-1zm14 0h1v6h-1zm19 0h1v5h-1zm5 0h1v19h-1zm1 0h1v1h-1zm5 0h3v19h-3zm8 0h9v5h-9zm9 0h1v5h-1zm28 0h8v6h-8z"/><path d="M25 22h11v4H25zm17 0h12v4H42zm17 0h9v4h-9zm27 0h10v2H86zm33 0h1v1h-1zm4 0h9v3h-9zm-45 1h4v17h-4zm4 0h1v17h-1zm4 1h10v1H86zm37 1h9v1h-9zm-98 1h11v1H25zm17 0h12v1H42zm17 0h9v1h-9zm9 0h1v1h-1zm19 0h9v1h-9zm9 0h1v1h-1zm18 0h1v1h-1zm-94 1h1v13h-1zm6 0h6v1h-6zm6 0h1v1h-1zm3 0h1v1h-1zm8 0h6v1h-6zm6 0h1v1h-1zm4 0h1v1h-1zm42 0h1v1h-1zm5 0h1v13h-1zm6 0h7v1h-7zm7 0h1v1h-1zm11 0h8v1h-8zm8 0h1v1h-1zm5 0h13v13h-13zM27 28h4v1h-4zm4 0h1v1h-1zm5 0h1v1h-1zm1 0h1v12h-1zm7 0h4v1h-4zm4 0h1v1h-1zm7 0h1v12h-1zm5 0h7v1h-7zm7 0h1v1h-1zm16 0h1v12h-1zm5 0h6v1h-6zm6 0h1v1h-1zm13 0h6v1h-6zm6 0h1v1h-1zm5 0h1v12h-1zm7 0h6v1h-6zm6 0h1v1h-1zM21 29h1v11h-1zm41 0h3v1h-3zm3 0h1v1h-1zm25 0h2v1h-2zm2 0h1v1h-1z"/><path d="M99 29h3v11h-3zm3 0h1v11h-1zm6 0h3v1h-3zm3 0h1v1h-1zm15 0h4v1h-4zm4 0h1v1h-1zm6 0h14v11h-14zM22 30h1v10h-1zm16 0h1v10h-1zm18 0h1v3h-1zm28 0h1v10h-1z"/><path d="M98 30h4v10h-4zm19 0h1v10h-1zm18 0h15v10h-15zM23 31h1v9h-1zm13 0h3v9h-3zm3 0h1v9h-1zm14 0h4v2h-4zm4 0h1v2h-1zm28 0h1v9h-1z"/><path d="M97 31h6v9h-6zm6 0h1v9h-1zm13 0h2v9h-2zm18 0h16v9h-16zM6 32h7v8H6zm18 0h1v8h-1zm11 0h5v8h-5zm5 0h1v8h-1zm12 0h6v1h-6zm6 0h1v1h-1zm28 0h1v8h-1z"/><path d="M96 32h8v8h-8zm8 0h1v8h-1zm11 0h3v8h-3zm8 0h1v8h-1zm10 0h17v8h-17zM14 33h1v7h-1zm11 0h1v7h-1zm8 0h9v7h-9zm9 0h1v7h-1zm8 0h10v1H50zm10 0h1v1h-1zm7 0h1v1h-1zm7 0h1v7h-1zm13 0h2v7h-2zm2 0h1v7h-1z"/><path d="M94 33h12v7H94zm12 0h1v7h-1zm7 0h5v7h-5zm11 0h1v7h-1zm1 0h1v7h-1zm6 0h19v7h-19zM2 34h53v6H2zm58 0h7v1h-7zm7 0h1v1h-1z"/><path d="M72 34h46v6H72zm54 0h24v6h-24zm-65 1h5v1h-5zm5 0h1v1h-1zm-10 1h1v4h-1zm1 1h1v3h-1z"/><path d="M71 37h47v3H71zm-13 1h1v2h-1z"/><path d="M70 38h48v2H70zm-11 1h1v1h-1z"/><path d="M68 39h51v1H68zm51 0h1v1h-1zM0 40h150v1H0zm150 0h1v1h-1z"/></g><path d="M143 7h1v1h-1zm-3 3h1v2h-1zm0 2h1v1h-1zm-47 3h1v1h-1zm39 1h1v1h-1zm-66 2h1v1h-1zm15 0h1v1h-1zm43 1h1v1h-1zm-74 1h1v1h-1zm6 0h1v1h-1zm-35 1h1v1h-1zm101 3h1v1h-1zm-98 1h1v1h-1zm17 1h1v1h-1zm42 0h1v1h-1zm-50 2h1v1h-1zm-9 3h1v1h-1zm-9 1h1v1h-1zm3 0h1v1h-1zm54 0h1v1h-1zm50 0h1v5h-1zm0 5h1v1h-1z" fill="#e18f9b"/><path d="M143 11h1v1h-1zm-63 5h1v1h-1zm15 0h1v1h-1zm30 0h1v1h-1zm6 0h1v1h-1zM11 18h1v1h-1zm20 0h1v1h-1zm103 0h1v1h-1zM7 19h1v1H7zm62 1h1v1h-1zm16 2h1v1h-1zm-15 3h1v1h-1zm15 0h1v1h-1z" fill="#cd4e5d"/><path d="M150 11h1v1h-1zm0 1h1v1h-1zM33 15h1v1h-1zm114 1h1v1h-1zm-77 1h1v1h-1zm70 0h1v1h-1zm-69 1h1v1h-1zm5 0h1v1h-1zm17 0h1v1h-1zM2 19h1v1H2zm9 0h1v1h-1zm10 0h1v1h-1zm67 0h1v1h-1zm37 0h1v1h-1zm6 0h1v1h-1zm-94 1h1v1h-1zm12 0h1v1h-1zm38 0h1v1h-1zm13 0h1v1h-1zm-67 1h1v1h-1zm1 0h1v1h-1zm8 0h1v1h-1zm10 0h1v1h-1zm7 0h1v1h-1zm74 1h1v3h-1zM6 23h1v8H6zm80 2h1v1h-1zm47 0h1v1h-1zm-46 2h1v1h-1zm31 0h1v1h-1zm-86 1h1v1h-1zm11 0h1v1h-1zm10 0h1v1h-1zm79 0h1v1h-1zM29 29h1v1h-1zm1 0h1v1h-1zm16 0h1v1h-1zm1 0h1v1h-1zm14 0h1v1h-1zm5 0h1v1h-1zm27 0h1v1h-1zM6 31h1v1H6zm69 2h2v1h-2zm2 0h1v1h-1zm16 0h1v1h-1zm-33 6h1v1h-1z" fill="#fef9fa"/><path d="M144 16h1v1h-1zM35 18h1v1h-1zM5 31h1v1H5z" fill="#bf0000"/><path d="M146 3h1v1h-1zm-11 5h1v1h-1zm9 1h1v1h-1zm-9 2h1v1h-1zM27 15h1v1h-1zm38 0h1v1h-1zm17 0h1v1h-1zm16 3h1v1h-1zm-60 2h1v1h-1zm4 0h1v1h-1zm27 1h1v1h-1zm65 3h1v1h-1zm-36 5h1v1h-1zm25 2h1v1h-1zm10 0h1v1h-1zm-58 1h1v1h-1zm14 0h1v1h-1zm-18 3h1v1h-1zm51 3h1v1h-1z" fill="#e5a5ad"/><g fill="#c41230"><path d="M141 4h2v1h-2zm2 0h1v2h-1zm3 0h1v1h-1zm-7 1h4v1h-4zm-1 1h3v2h-3zm3 0h2v1h-2zm2 0h1v1h-1zm-2 1h1v1h-1zm-4 1h3v1h-3zm3 0h1v1h-1zm-3 1h1v1h-1zm7 2h1v4h-1zm1 0h1v3h-1z"/><path d="M142 13h4v1h-4zm6 0h1v1h-1zm-9 1h6v1h-6zm6 0h1v1h-1zm-4 1h3v1h-3zm3 0h1v1h-1zM8 16h1v1H8zm36 0h1v1h-1zm4 0h1v1h-1zm81 0h1v1h-1zm-61 1h1v1h-1zM6 18h1v1H6zm37 0h1v1h-1zm54 0h1v1h-1zm35 0h1v1h-1zM5 19h1v1H5zm20 0h1v1h-1zm52 0h1v1h-1zm-61 1h1v1h-1zm24 0h1v1h-1zm18 0h1v1h-1zM4 21h1v9H4zm34 1h1v1h-1zm61 1h1v1h-1zm-60 1h1v1h-1zm0 1h1v1h-1zm18 0h1v1h-1zm-33 2h1v1h-1zm-1 2h1v1h-1zm18 0h1v1h-1zM4 30h1v1H4zm117 0h1v1h-1zm-88 1h1v1h-1zm27 0h1v1h-1zm34 0h1v1h-1zm19 0h1v1h-1zm8 0h1v1h-1zm-50 3h1v1h-1zm-12 1h1v1h-1zm9 2h1v1h-1z"/></g><path d="M136 6h1v1h-1zm6 2h1v1h-1zm7 4h1v1h-1zM42 16h1v1h-1zm60 0h1v1h-1zm-24 1h1v1h-1zm26 0h1v1h-1zm13 0h1v8h-1zm-87 1h1v1h-1zm15 0h2v1h-2zm2 0h1v1h-1zm30 0h1v1h-1zm54 0h1v1h-1zM13 19h1v1h-1zm55 0h1v1h-1zm-50 3h1v8h-1zm6 0h1v1h-1zm59 0h1v1h-1zm-68 1h1v7h-1zm70 0h1v1h-1zm-15 1h1v1h-1zm15 0h1v1h-1zm-2 1h1v1h-1zm34 0h1v1h-1zm-18 1h1v1h-1zm-84 4h1v1h-1zm3 0h1v1h-1zm54 0h1v1h-1zm54 0h1v1h-1zm-31 1h1v1h-1zM4 32h1v1H4zm126 0h1v1h-1z" fill="#d46171"/><path d="M148 12h1v1h-1zM17 20h1v1h-1zM5 23h1v7H5zm98 5h1v1h-1zM5 30h1v1H5zm66 3h1v1h-1zm-7 5h1v1h-1z" fill="#bf0009"/></svg>