<svg xmlns="http://www.w3.org/2000/svg" role="img" viewBox="-7.99 90.00 415.74 64.74"><title>Nutanix, Inc. logo</title><style>svg {enable-background:new 0 0 400 245}</style><style>.st0{fill:#264ca4}</style><path d="M308.65 98.55h-9.99c-.61 0-1.1.49-1.1 1.1v45.77c0 .61.49 1.1 1.1 1.1h9.99c.61 0 1.1-.5 1.1-1.1V99.65c.01-.61-.49-1.1-1.1-1.1m-191.39 0h-8.5c-1.02 0-1.85.83-1.85 1.85v31.2c0 3.29-4.57 4.35-10.18 4.35H84.15c-5.61 0-10.18-1.06-10.18-4.35v-31.2c0-1.02-.83-1.85-1.85-1.85h-8.49c-1.02 0-1.85.83-1.85 1.85v31.82c0 5.49 2.39 8.96 6.94 11.69 4.55 2.73 15.14 2.61 18.29 2.61h6.87c3.14 0 13.74.12 18.29-2.6s6.94-6.2 6.94-11.69v-31.82c0-1.04-.83-1.86-1.85-1.86m249.32.32c.2-.2.48-.32.79-.32h13.88c.51 0 .99.31 1.13.8.13.45-.03.93-.4 1.22l-20.45 17.8c-.44.44-1.15.44-1.59 0l-.04-.04-6.96-6.06c-.42-.46-.38-1.17.07-1.59.01-.01.02-.02.04-.03l13.53-11.78m0 47.32c.2.2.48.32.79.32h13.88c.51 0 .99-.32 1.13-.8.13-.45-.03-.93-.4-1.22l-20.45-17.8c-.44-.44-1.15-.44-1.59 0-.01.01-.02.02-.03.04l-6.96 6.06c-.42.46-.38 1.17.08 1.59l.03.03 13.52 11.78" class="st0"/><path fill="#a3d71e" d="M329.42 146.22c-.2.18-.47.29-.76.29h-13.85c-.54 0-1.05-.36-1.15-.89-.08-.37.04-.75.3-1.02l24.37-21.21c.47-.4.54-1.1.14-1.58-.03-.04-.07-.07-.1-.11l-24.34-21.18c-.3-.25-.45-.65-.38-1.04.09-.56.61-.94 1.17-.94h13.85c.29 0 .56.11.76.3l26.24 22.84c.47.4.52 1.11.12 1.58l-.12.12-26.25 22.84"/><path d="M155.72 110.24c0-.62.51-1.12 1.13-1.12h17.32c1.02 0 1.85-.83 1.85-1.85v-6.86c0-1.02-.83-1.85-1.85-1.85h-49.14c-1.02 0-1.85.83-1.85 1.85v6.86c0 1.02.83 1.85 1.85 1.85h17.35c.62 0 1.12.5 1.12 1.12v34.42c0 1.02.83 1.85 1.85 1.85h8.48c1.03 0 1.86-.83 1.86-1.85l.03-34.42M44.2 128.31c.28.24.67.39 1.18-.05.09-.08.15-.19.15-.31V99.43c0-.49.39-.88.88-.88h10.57c.41 0 .74.33.74.74v40.76c0 4.05-1.59 5.81-3.14 6.49-1.55.68-6.26.41-9.08-2.03L15.04 118.1s-1.63-1.42-1.75-1.51c-.25-.2-.65-.22-1.01.12-.06.05-.09.13-.09.21v28.87c0 .41-.33.74-.74.74H.88c-.49 0-.88-.39-.88-.88v-40.59c0-4.05 1.59-5.81 3.14-6.49 1.55-.68 6.27-.41 9.08 2.03l30.47 26.42c0-.03 1.41 1.21 1.51 1.29m235.77 0c.29.23.67.39 1.18-.05.09-.08.15-.19.15-.32V99.42c0-.48.39-.88.88-.88h10.58c.41 0 .74.33.74.74v40.76c0 4.05-1.59 5.82-3.14 6.49-1.55.68-6.27.41-9.08-2.03l-30.47-26.42s-1.63-1.42-1.74-1.51c-.25-.2-.64-.22-1.01.11-.06.05-.09.13-.09.21v28.87c0 .41-.33.74-.74.74h-10.58c-.48 0-.88-.39-.88-.88v-40.59c0-4.05 1.59-5.82 3.14-6.49 1.55-.68 6.26-.41 9.08 2.03l30.47 26.42s1.41 1.24 1.51 1.32m19.45-29.76h8.49c1.02 0 1.85.83 1.85 1.85v44.26c0 1.02-.83 1.85-1.85 1.85h-8.49c-1.02 0-1.85-.83-1.85-1.85V100.4c-.01-1.02.82-1.85 1.85-1.85m-97.56 24.79h-12.37c-.31 0-.62-.19-.69-.5-.06-.23 0-.48.18-.66l6.11-8.83c.03-.06.09-.09.14-.14.04-.04.07-.08.11-.1.09-.04.18-.07.27-.07.02 0 .03-.01.05-.01.02 0 .04.01.05.01.1 0 .19.03.27.07.04.03.07.07.11.1.05.04.1.08.14.14l6.11 8.83c.18.19.26.48.13.78-.09.25-.35.38-.61.38zm29.76 21.32l-30.06-43.41c-1.34-1.95-3.54-3.11-5.9-3.11-2.36 0-4.57 1.16-5.9 3.11l-30.06 43.41c-.24.28-.32.67-.23 1.03.13.5.62.83 1.13.83h10.64c.42 0 .79-.23.99-.57l7.88-11.38c.19-.4.59-.65 1.03-.65h29.04c.45 0 .85.26 1.03.65l7.88 11.38c.2.34.57.57.99.57h10.64c.52 0 1.01-.32 1.13-.83.1-.36.01-.75-.23-1.03" class="st0"/><path fill="#274ca3" d="M387.31 140.07h-1.85c-.34 0-.62-.28-.62-.62s.28-.62.62-.62h5.07c.34 0 .61.28.61.62 0 .34-.27.62-.61.62h-1.86v5.78c0 .37-.31.67-.68.67-.37 0-.67-.3-.68-.67v-5.78m5.19-.61c0-.37.3-.68.68-.68h.14c.3 0 .49.15.62.36l2.31 3.62 2.32-3.63c.12-.22.36-.36.61-.35h.14c.38 0 .68.31.68.68v6.39c0 .37-.3.67-.68.67-.37-.01-.66-.3-.67-.67v-4.58l-1.86 2.8c-.14.22-.32.35-.57.35-.24 0-.42-.13-.56-.35l-1.85-2.78v4.57c0 .37-.29.65-.66.65-.36.01-.65-.28-.65-.63v-6.42"/></svg>