<svg xmlns="http://www.w3.org/2000/svg" role="img" viewBox="-3.50 -3.50 181.87 56.87"><title>Ockam logo</title><path fill="#0A1A2B" d="M93.5912 27.2032c1.2638-1.2269 2.9664-1.9105 4.7216-1.893 1.5096-.035 2.9842.4557 4.1772 1.4022l.229.1929 1.93-2.2962-.228-.1753c-.842-.6835-1.79-1.2094-2.808-1.5599-1.053-.3681-2.1768-.5609-3.3002-.5609-1.2988 0-2.5977.2454-3.7913.7537-1.1409.4908-2.1941 1.1743-3.0893 2.0507-1.8079 1.7879-2.8259 4.2417-2.8259 6.8008 0 1.2795.2457 2.5415.7547 3.7159.4915 1.1393 1.1936 2.1559 2.0712 3.0147.8952.8589 1.9308 1.56 3.0717 2.0332 1.1936.5083 2.4925.7713 3.7914.7537 1.1234 0 2.2287-.1752 3.2827-.5608 1.018-.3506 1.948-.894 2.773-1.56l.228-.1928-1.896-2.2786-.228.1753c-1.158.9289-2.5624 1.4022-4.1773 1.4022-.8951 0-1.7903-.1578-2.6153-.5083-1.5797-.6486-2.8435-1.9106-3.5105-3.4881-.3511-.8062-.509-1.6651-.509-2.5415 0-.8939.1579-1.7878.509-2.6116.3686-.7712.8425-1.4723 1.4393-2.0683zm24.9598.1578c1.018-.999 2.106-2.0156 3.212-3.0322l.228-.2104-1.895-1.9456-.211.2104c-1.668 1.5775-3.265 3.0673-4.81 4.5046-1.386 1.2795-2.808 2.6116-4.3 3.9963V8.41357h-3.054V41.1028h3.054v-6.4853l2.545-2.3487 6.53 8.834h3.598l-7.934-10.8847c1.053-.9641 2.072-1.9281 3.037-2.8571zm20.747-1.7177c-.14-.1928-.28-.3857-.456-.5785-.456-.5433-1-.999-1.597-1.3846-.667-.4382-1.387-.7713-2.142-.9991-.842-.2454-1.702-.3681-2.58-.3681-1.281 0-2.545.2454-3.721.7537-1.141.4908-2.177 1.2094-3.054 2.0858-.878.8939-1.58 1.9456-2.071 3.0849-.509 1.1743-.773 2.4538-.755 3.7334 0 1.262.246 2.4889.737 3.6457.474 1.1218 1.159 2.1384 2.001 2.9973.86.8764 1.896 1.5599 3.037 2.0507 1.211.5083 2.51.7712 3.826.7537.878 0 1.773-.1052 2.615-.3505.755-.2104 1.475-.5259 2.142-.9465.597-.3681 1.123-.8063 1.597-1.3146.123-.1402.246-.298.369-.4382v2.6993h3.054V22.7161h-2.879l-.123 2.9272zm-1.965 1.5775c.596.5959 1.07 1.3145 1.404 2.0858.333.8062.509 1.6651.509 2.5415.017.8939-.158 1.7703-.509 2.5941-.667 1.5775-1.931 2.8395-3.511 3.488-1.685.6661-3.563.6661-5.23 0-3.353-1.4373-4.915-5.3109-3.511-8.6587.334-.7712.807-1.4723 1.404-2.0507 1.966-1.858 4.845-2.4013 7.337-1.3847.79.3155 1.492.7887 2.107 1.3847zm35.947-3.3654c-1.071-1.0166-2.563-1.5424-4.423-1.5424-1.808.035-3.335.4908-4.564 1.3847-1.001.7361-1.843 1.6826-2.457 2.7694-.281-1.0692-.878-2.0508-1.721-2.7694-1.053-.9115-2.475-1.3847-4.212-1.3847-1.843.035-3.405.5258-4.652 1.4548-.948.7186-1.737 1.6125-2.334 2.6291-.018-.3155-.035-.666-.053-1.0166-.035-.4557-.052-.8939-.07-1.3145-.018-.4207-.035-.7888-.07-1.0692l-.035-.2629h-2.651v18.369h3.054v-9.7279c0-.8238.158-1.6476.474-2.4188.299-.7186.737-1.3672 1.317-1.893.579-.5434 1.246-.964 1.983-1.2445.79-.2979 1.633-.4557 2.475-.4382 1.194.0526 2.089.4207 2.686 1.0517.596.6485.947 1.4899.983 2.3662v12.3045h3.054v-9.8506c.017-.8062.193-1.6125.509-2.3487.298-.7011.737-1.3321 1.281-1.8579.562-.5259 1.229-.9465 1.948-1.227.773-.2979 1.598-.4557 2.44-.4382 1.211.0526 2.142.4207 2.721 1.0517.597.6485.948 1.4899.983 2.3838v12.3044H175V27.9569c-.07-1.7002-.649-3.0673-1.72-4.1015zM70.6676 11.4634c7.4423 0 13.4804 6.0295 13.4804 13.4613S78.1099 38.386 70.6676 38.386c-7.4423 0-13.4804-6.0295-13.4804-13.4613.0176-7.4318 6.0381-13.4438 13.4804-13.4613zm0-3.04983c-9.1273 0-16.5345 7.39673-16.5345 16.51113 0 9.1144 7.4072 16.5111 16.5345 16.5111 9.1274 0 16.5345-7.3967 16.5345-16.5111S79.795 8.41357 70.6676 8.41357z"/><path fill="#EC432D" d="M12.9409 7.92781c.5817 0 1.0532-.47085 1.0532-1.05167 0-.58083-.4715-1.05168-1.0532-1.05168-.5816 0-1.0531.47085-1.0531 1.05168 0 .58082.4715 1.05167 1.0531 1.05167zm.0172 12.07669c.5817 0 1.0532-.4709 1.0532-1.0517 0-.5808-.4715-1.0517-1.0532-1.0517-.5816 0-1.0531.4709-1.0531 1.0517 0 .5808.4715 1.0517 1.0531 1.0517zm20.9408 24.1711c.5816 0 1.0531-.4708 1.0531-1.0517 0-.5808-.4715-1.0516-1.0531-1.0516-.5817 0-1.0532.4708-1.0532 1.0516 0 .5809.4715 1.0517 1.0532 1.0517zM2.47968 26.0516c.58165 0 1.05316-.4709 1.05316-1.0517 0-.5808-.47151-1.0517-1.05316-1.0517-.58165 0-1.05317.4709-1.05317 1.0517 0 .5808.47152 1.0517 1.05317 1.0517zm41.89802 0c.5816 0 1.0532-.4709 1.0532-1.0517 0-.5808-.4716-1.0517-1.0532-1.0517-.5817 0-1.0532.4709-1.0532 1.0517 0 .5808.4715 1.0517 1.0532 1.0517zM33.8989 7.92781c.5816 0 1.0531-.47085 1.0531-1.05167 0-.58083-.4715-1.05168-1.0531-1.05168-.5817 0-1.0532.47085-1.0532 1.05168 0 .58082.4715 1.05167 1.0532 1.05167zm0 24.17089c.5816 0 1.0531-.4708 1.0531-1.0517 0-.5808-.4715-1.0516-1.0531-1.0516-.5817 0-1.0532.4708-1.0532 1.0516 0 .5809.4715 1.0517 1.0532 1.0517zm-20.9408-.0173c.5817 0 1.0532-.4709 1.0532-1.0517 0-.5808-.4715-1.0517-1.0532-1.0517-.5816 0-1.0531.4709-1.0531 1.0517 0 .5808.4715 1.0517 1.0531 1.0517zM33.8989 20.022c.5816 0 1.0531-.4708 1.0531-1.0516 0-.5808-.4715-1.0517-1.0531-1.0517-.5817 0-1.0532.4709-1.0532 1.0517 0 .5808.4715 1.0516 1.0532 1.0516zM23.4197 38.1285c.5817 0 1.0532-.4709 1.0532-1.0517 0-.5808-.4715-1.0517-1.0532-1.0517-.5816 0-1.0531.4709-1.0531 1.0517 0 .5808.4715 1.0517 1.0531 1.0517zm.0176-24.1536c.5816 0 1.0531-.4708 1.0531-1.0516 0-.5809-.4715-1.0517-1.0531-1.0517-.5817 0-1.0532.4708-1.0532 1.0517 0 .5808.4715 1.0516 1.0532 1.0516zM12.9409 44.1756c.5817 0 1.0532-.4708 1.0532-1.0517 0-.5808-.4715-1.0516-1.0532-1.0516-.5816 0-1.0531.4708-1.0531 1.0516 0 .5809.4715 1.0517 1.0531 1.0517z"/><path fill="#52C7EA" d="M14.7134 5.82449C18.6101 1.02185 25.6487.26815 30.4757 4.15934c.6144.49078 1.1761 1.05167 1.6676 1.66515.1755-.29797.4212-.56089.7372-.73617.2106-.1227.4212-.19281.667-.22786-4.4409-5.57387-12.5678-6.48532-18.132-2.05076-.7548.61347-1.4569 1.29706-2.0537 2.05076.5442.12269 1.0532.47325 1.3516.96403zm10.4795 6.04721c1.7202-2.13839 4.1776-3.55815 6.8982-3.99635-.2808-.50831-.3335-1.12178-.1228-1.66514-3.2122.47325-6.1259 2.15592-8.1445 4.71499.5792.0876 1.0707.4382 1.3691.9465zM18.575 9.225c1.1936.68359 2.2292 1.595 3.0893 2.6642.1755-.2979.4212-.5609.7372-.7361.1931-.1052.4037-.1928.6319-.2279-2.001-2.55907-4.9324-4.25927-8.1445-4.71499.0878.21033.1229.45572.1229.68358 0 .35056-.0878.68359-.2633.98156 1.3515.21034 2.6504.66606 3.8265 1.34965zm15.3416 7.6946c.5968 0 1.1585.2629 1.5447.7187 1.2111-3.0324 1.2111-6.3977.0175-9.43005-.158.17528-.3335.33303-.5441.45573-.2984.17528-.6319.26291-.983.26291 1.0005 2.57661.983 5.41611-.0351 7.99271zm-1.7732.9817c.2984-.5084.8074-.8414 1.3867-.9466-2.0186-2.5415-4.9323-4.2242-8.1445-4.715.1931.5609.1404 1.1744-.1404 1.6827 2.7031.4382 5.1605 1.858 6.8982 3.9789zm4.6688-9.79818c6.0031 1.59503 9.5487 7.74728 7.9514 13.72428-.1053.3857-.2282.7537-.3686 1.1218.3511 0 .7021.0877 1.0005.2629.2106.1227.3862.2805.5442.4558.1755-.4558.3335-.9115.4563-1.3672 1.8431-6.8885-2.2467-13.96972-9.145-15.82768-.4739-.12269-.9303-.22786-1.4217-.29797.193.56089.1404 1.17437-.1405 1.68268.3862.07011.7548.14022 1.1234.24539zm3.5632 11.74368c-1.4042-.8063-2.9488-1.3497-4.5461-1.5775.193.5609.1579 1.1744-.1405 1.6827 2.7207.4206 5.1781 1.8229 6.9158 3.9613.2984-.4908.8075-.8414 1.3867-.9465-1.0005-1.2445-2.2292-2.3137-3.6159-3.12zm-4.4229 11.2003c0 .2278-.0351.4557-.1228.6835 3.2297-.4557 6.1434-2.1559 8.162-4.6974-.5792-.0877-1.0883-.4382-1.3867-.9465-1.7377 2.1384-4.2126 3.5581-6.9333 3.9788.1931.2804.2808.631.2808.9816zm-2.0187-2.0508c.5968.0175 1.141.2805 1.5271.7362 1.1936-3.0323 1.1936-6.3977 0-9.43-.3861.4382-.9303.7011-1.5095.7186.9829 2.5591.9654 5.3986-.0176 7.9752zm.0176 12.0767c.5967.0175 1.1409.2804 1.527.7362 1.2112-3.0324 1.1936-6.3977 0-9.43-.3861.4557-.9303.7186-1.527.7361.9829 2.5416.9829 5.3811 0 7.9577zM46.396 27.6992c-.1228-.4732-.2808-.929-.4563-1.3672-.3862.4558-.9479.7187-1.5271.7187.1404.3505.2633.7186.3686 1.0867 1.6148 5.9945-1.9484 12.1644-7.9514 13.7769-.3686.0877-.7372.1753-1.1234.2279.2984.5083.3511 1.1393.1404 1.6827.474-.0702.9479-.1753 1.4218-.298 6.8807-1.858 10.988-8.9392 9.1274-15.8277zM25.3505 37.7604c3.2297-.4732 6.1435-2.1559 8.1796-4.6974-.5792-.1052-1.0883-.4558-1.3867-.9465-1.7377 2.1208-4.1951 3.5406-6.9157 3.9788.2808.5083.3159 1.1218.1228 1.6651zm2.9317 3.0147c-1.1936-.6836-2.2292-1.5951-3.0893-2.6643-.1755.298-.4213.5609-.7372.7362-.1931.1052-.4037.1928-.6319.2279 2.001 2.559 4.9148 4.2592 8.1445 4.715-.2107-.5434-.158-1.1569.1404-1.6652-1.3516-.2103-2.6505-.666-3.8265-1.3496zm-9.7072 0c-1.1761.6836-2.475 1.1393-3.8265 1.3672.2808.5083.3159 1.1218.1228 1.6652 3.2298-.4733 6.1435-2.1735 8.1445-4.7326-.5792-.1051-1.0707-.4557-1.3691-.9465-.8601 1.0692-1.8957 1.9631-3.0717 2.6467zm13.569 3.4004c-3.8967 4.8027-10.9529 5.5564-15.7624 1.6652-.6143-.4908-1.176-1.0517-1.6675-1.6652-.1755.298-.4212.5609-.7372.7362-.2106.1227-.4213.1928-.6494.2279 4.4408 5.5738 12.5502 6.4853 18.1319 2.0507.7548-.6134 1.4569-1.297 2.0537-2.0507-.5617-.1052-1.0707-.4558-1.3691-.9641zM12.9234 33.0803c-.351 0-.7021-.0877-1.0005-.263-.1931-.1226-.3861-.2629-.5266-.4381-1.2111 3.0323-1.2111 6.3976-.0175 9.43.1404-.1753.3335-.3331.5266-.4558.2984-.1753.6494-.2629.9829-.2629-.9829-2.5941-.9829-5.4512.0351-8.0102zm1.7907-.9814c-.2984.5083-.8074.8413-1.3866.9465 2.0185 2.5415 4.9323 4.2417 8.162 4.7325-.1931-.5609-.158-1.1744.1404-1.6827-2.7207-.4557-5.1781-1.8754-6.9158-3.9963zM.89937 23.6679c.38616-.4557.94785-.7011 1.52709-.7186-.14042-.3506-.26329-.7187-.36861-1.0867C.443 15.868 4.0062 9.6982 10.0092 8.10317c.3687-.08764.7373-.17528 1.1234-.22787-.2984-.50831-.351-1.13931-.1404-1.68267-.4739.07011-.9478.17528-1.40422.29797C2.68975 8.33103-1.40004 15.4298.443 22.3183c.14042.4557.28084.8939.45637 1.3496zm5.58271 6.4852c1.40422.8063 2.94886 1.3497 4.54612 1.5775-.193-.5608-.1579-1.1743.1229-1.6826-2.72067-.4207-5.17805-1.8405-6.91577-3.9613-.2984.4908-.80743.8413-1.36912.9465.98295 1.2445 2.21165 2.3137 3.61587 3.1199zm3.54482 11.7437c-6.003-1.6126-9.56621-7.7649-7.96891-13.7594.10532-.3681.22819-.7362.36861-1.0867-.35106 0-.70211-.0877-1.00051-.2629-.19308-.1227-.38616-.2805-.52658-.4558-.17553.4382-.3335.9115-.45637 1.3672-1.84304 6.8885 2.2292 13.9522 9.12743 15.8102.47393.1227.94783.2278 1.42173.2979-.193-.5609-.1404-1.1568.1405-1.6651-.3511-.0701-.7373-.1402-1.1059-.2454zm2.8965-24.9947c-1.0005-2.559-1.0005-5.3986-.0175-7.95763-.5793-.01752-1.141-.28044-1.5271-.71864-1.1936 3.03237-1.1936 6.39767.0175 9.41247.3686-.4557.9303-.7362 1.5271-.7362zm-2.018 2.0508c0-.2278.0526-.4557.1228-.666-3.22967.4732-6.14342 2.1559-8.16199 4.6974.22819.0351.45637.1227.64945.2279.2984.1753.54414.4207.71967.7186 1.73772-2.1384 4.21266-3.5581 6.95087-3.9788-.1931-.298-.2808-.6485-.2808-.9991zm10.6009-6.7307c-3.2121.4907-6.1259 2.1734-8.162 4.715.5792.1051 1.0707.4557 1.3691.964 1.7377-2.1209 4.1951-3.5406 6.9158-3.9788-.2808-.5259-.3335-1.1393-.1229-1.7002zm-8.6004 8.7815c-.5793-.0175-1.141-.2804-1.5096-.7361-1.1936 3.0323-1.2111 6.3977-.0175 9.43.3861-.4382.9303-.7187 1.5095-.7187-.9654-2.5766-.9654-5.4161.0176-7.9752z"/></svg>