<svg xmlns="http://www.w3.org/2000/svg" role="img" viewBox="-3.50 -3.50 181.87 56.87"><title>Ockam logo</title><path fill="#0A1A2B" d="M93.5912 27.2032C94.855 25.9763 96.5576 25.2927 98.3128 25.3102 99.8224 25.2752 101.297 25.7659 102.49 26.7124L102.719 26.9053 104.649 24.6091 104.421 24.4338C103.579 23.7503 102.631 23.2244 101.613 22.8739 100.56 22.5058 99.4362 22.313 98.3128 22.313 97.014 22.313 95.7151 22.5584 94.5215 23.0667 93.3806 23.5575 92.3274 24.241 91.4322 25.1174 89.6243 26.9053 88.6063 29.3591 88.6063 31.9182 88.6063 33.1977 88.852 34.4597 89.361 35.6341 89.8525 36.7734 90.5546 37.79 91.4322 38.6488 92.3274 39.5077 93.363 40.2088 94.5039 40.682 95.6975 41.1903 96.9964 41.4533 98.2953 41.4357 99.4187 41.4357 100.524 41.2605 101.578 40.8749 102.596 40.5243 103.526 39.9809 104.351 39.3149L104.579 39.1221 102.683 36.8435 102.455 37.0188C101.297 37.9477 99.8926 38.421 98.2777 38.421 97.3826 38.421 96.4874 38.2632 95.6624 37.9127 94.0827 37.2641 92.8189 36.0021 92.1519 34.4246 91.8008 33.6184 91.6429 32.7595 91.6429 31.8831 91.6429 30.9892 91.8008 30.0953 92.1519 29.2715 92.5205 28.5003 92.9944 27.7992 93.5912 27.2032zM118.551 27.361C119.569 26.362 120.657 25.3454 121.763 24.3288L121.991 24.1184 120.096 22.1728 119.885 22.3832C118.217 23.9607 116.62 25.4505 115.075 26.8878 113.689 28.1673 112.267 29.4994 110.775 30.8841V8.41357H107.721V41.1028H110.775V34.6175L113.32 32.2688 119.85 41.1028H123.448L115.514 30.2181C116.567 29.254 117.586 28.29 118.551 27.361zM139.298 25.6433C139.158 25.4505 139.018 25.2576 138.842 25.0648 138.386 24.5215 137.842 24.0658 137.245 23.6802 136.578 23.242 135.858 22.9089 135.103 22.6811 134.261 22.4357 133.401 22.313 132.523 22.313 131.242 22.313 129.978 22.5584 128.802 23.0667 127.661 23.5575 126.625 24.2761 125.748 25.1525 124.87 26.0464 124.168 27.0981 123.677 28.2374 123.168 29.4117 122.904 30.6912 122.922 31.9708 122.922 33.2328 123.168 34.4597 123.659 35.6165 124.133 36.7383 124.818 37.7549 125.66 38.6138 126.52 39.4902 127.556 40.1737 128.697 40.6645 129.908 41.1728 131.207 41.4357 132.523 41.4182 133.401 41.4182 134.296 41.313 135.138 41.0677 135.893 40.8573 136.613 40.5418 137.28 40.1212 137.877 39.7531 138.403 39.3149 138.877 38.8066 139 38.6664 139.123 38.5086 139.246 38.3684 139.246 38.5612 139.246 38.754 139.246 38.9468V41.0677H142.3V22.7161H139.421L139.298 25.6433zM137.333 27.2208C137.929 27.8167 138.403 28.5353 138.737 29.3066 139.07 30.1128 139.246 30.9717 139.246 31.8481 139.263 32.742 139.088 33.6184 138.737 34.4422 138.07 36.0197 136.806 37.2817 135.226 37.9302 133.541 38.5963 131.663 38.5963 129.996 37.9302 126.643 36.4929 125.081 32.6193 126.485 29.2715 126.819 28.5003 127.292 27.7992 127.889 27.2208 129.855 25.3628 132.734 24.8195 135.226 25.8361 136.016 26.1516 136.718 26.6248 137.333 27.2208zM173.28 23.8554C172.209 22.8388 170.717 22.313 168.857 22.313 167.049 22.348 165.522 22.8038 164.293 23.6977 163.292 24.4338 162.45 25.3803 161.836 26.4671 161.555 25.3979 160.958 24.4163 160.115 23.6977 159.062 22.7862 157.64 22.313 155.903 22.313 154.06 22.348 152.498 22.8388 151.251 23.7678 150.303 24.4864 149.514 25.3803 148.917 26.3969 148.899 26.0814 148.882 25.7309 148.864 25.3803 148.829 24.9246 148.812 24.4864 148.794 24.0658 148.776 23.6451 148.759 23.277 148.724 22.9966L148.689 22.7337H146.038V41.1027H149.092V31.3748C149.092 30.551 149.25 29.7272 149.566 28.956 149.865 28.2374 150.303 27.5888 150.883 27.063 151.462 26.5196 152.129 26.099 152.866 25.8185 153.656 25.5206 154.499 25.3628 155.341 25.3803 156.535 25.4329 157.43 25.801 158.027 26.432 158.623 27.0805 158.974 27.9219 159.01 28.7982V41.1027H162.064V31.2521C162.081 30.4459 162.257 29.6396 162.573 28.9034 162.871 28.2023 163.31 27.5713 163.854 27.0455 164.416 26.5196 165.083 26.099 165.802 25.8185 166.575 25.5206 167.4 25.3628 168.242 25.3803 169.453 25.4329 170.384 25.801 170.963 26.432 171.56 27.0805 171.911 27.9219 171.946 28.8158V41.1202H175V27.9569C174.93 26.2567 174.351 24.8896 173.28 23.8554zM70.6676 11.4634C78.1099 11.4634 84.148 17.4929 84.148 24.9247 84.148 32.3565 78.1099 38.386 70.6676 38.386 63.2253 38.386 57.1872 32.3565 57.1872 24.9247 57.2048 17.4929 63.2253 11.4809 70.6676 11.4634zM70.6676 8.41357C61.5403 8.41357 54.1331 15.8103 54.1331 24.9247 54.1331 34.0391 61.5403 41.4358 70.6676 41.4358 79.795 41.4358 87.2021 34.0391 87.2021 24.9247 87.2021 15.8103 79.795 8.41357 70.6676 8.41357z"/><path fill="#EC432D" d="M12.9409 7.92781C13.5226 7.92781 13.9941 7.45696 13.9941 6.87614 13.9941 6.29531 13.5226 5.82446 12.9409 5.82446 12.3593 5.82446 11.8878 6.29531 11.8878 6.87614 11.8878 7.45696 12.3593 7.92781 12.9409 7.92781zM12.9581 20.0045C13.5398 20.0045 14.0113 19.5336 14.0113 18.9528 14.0113 18.372 13.5398 17.9011 12.9581 17.9011 12.3765 17.9011 11.905 18.372 11.905 18.9528 11.905 19.5336 12.3765 20.0045 12.9581 20.0045zM33.8989 44.1756C34.4805 44.1756 34.952 43.7048 34.952 43.1239 34.952 42.5431 34.4805 42.0723 33.8989 42.0723 33.3172 42.0723 32.8457 42.5431 32.8457 43.1239 32.8457 43.7048 33.3172 44.1756 33.8989 44.1756zM2.47968 26.0516C3.06133 26.0516 3.53284 25.5807 3.53284 24.9999 3.53284 24.4191 3.06133 23.9482 2.47968 23.9482 1.89803 23.9482 1.42651 24.4191 1.42651 24.9999 1.42651 25.5807 1.89803 26.0516 2.47968 26.0516zM44.3777 26.0516C44.9593 26.0516 45.4309 25.5807 45.4309 24.9999 45.4309 24.4191 44.9593 23.9482 44.3777 23.9482 43.796 23.9482 43.3245 24.4191 43.3245 24.9999 43.3245 25.5807 43.796 26.0516 44.3777 26.0516zM33.8989 7.92781C34.4805 7.92781 34.952 7.45696 34.952 6.87614 34.952 6.29531 34.4805 5.82446 33.8989 5.82446 33.3172 5.82446 32.8457 6.29531 32.8457 6.87614 32.8457 7.45696 33.3172 7.92781 33.8989 7.92781zM33.8989 32.0987C34.4805 32.0987 34.952 31.6279 34.952 31.047 34.952 30.4662 34.4805 29.9954 33.8989 29.9954 33.3172 29.9954 32.8457 30.4662 32.8457 31.047 32.8457 31.6279 33.3172 32.0987 33.8989 32.0987zM12.9581 32.0814C13.5398 32.0814 14.0113 31.6105 14.0113 31.0297 14.0113 30.4489 13.5398 29.978 12.9581 29.978 12.3765 29.978 11.905 30.4489 11.905 31.0297 11.905 31.6105 12.3765 32.0814 12.9581 32.0814zM33.8989 20.022C34.4805 20.022 34.952 19.5512 34.952 18.9704 34.952 18.3896 34.4805 17.9187 33.8989 17.9187 33.3172 17.9187 32.8457 18.3896 32.8457 18.9704 32.8457 19.5512 33.3172 20.022 33.8989 20.022zM23.4197 38.1285C24.0014 38.1285 24.4729 37.6576 24.4729 37.0768 24.4729 36.496 24.0014 36.0251 23.4197 36.0251 22.8381 36.0251 22.3666 36.496 22.3666 37.0768 22.3666 37.6576 22.8381 38.1285 23.4197 38.1285zM23.4373 13.9749C24.0189 13.9749 24.4904 13.5041 24.4904 12.9233 24.4904 12.3424 24.0189 11.8716 23.4373 11.8716 22.8556 11.8716 22.3841 12.3424 22.3841 12.9233 22.3841 13.5041 22.8556 13.9749 23.4373 13.9749zM12.9409 44.1756C13.5226 44.1756 13.9941 43.7048 13.9941 43.1239 13.9941 42.5431 13.5226 42.0723 12.9409 42.0723 12.3593 42.0723 11.8878 42.5431 11.8878 43.1239 11.8878 43.7048 12.3593 44.1756 12.9409 44.1756z"/><path fill="#52C7EA" d="M14.7134 5.82449C18.6101 1.02185 25.6487.268153 30.4757 4.15934 31.0901 4.65012 31.6518 5.21101 32.1433 5.82449 32.3188 5.52652 32.5645 5.2636 32.8805 5.08832 33.0911 4.96562 33.3017 4.89551 33.5475 4.86046 29.1066-.713409 20.9797-1.62486 15.4155 2.8097 14.6607 3.42317 13.9586 4.10676 13.3618 4.86046 13.906 4.98315 14.415 5.33371 14.7134 5.82449zM25.1929 11.8717C26.9131 9.73331 29.3705 8.31355 32.0911 7.87535 31.8103 7.36704 31.7576 6.75357 31.9683 6.21021 28.7561 6.68346 25.8424 8.36613 23.8238 10.9252 24.403 11.0128 24.8945 11.3634 25.1929 11.8717zM18.575 9.225C19.7686 9.90859 20.8042 10.82 21.6643 11.8892 21.8398 11.5913 22.0855 11.3283 22.4015 11.1531 22.5946 11.0479 22.8052 10.9603 23.0334 10.9252 21.0324 8.36613 18.101 6.66593 14.8889 6.21021 14.9767 6.42054 15.0118 6.66593 15.0118 6.89379 15.0118 7.24435 14.924 7.57738 14.7485 7.87535 16.1 8.08569 17.3989 8.54141 18.575 9.225zM33.9166 16.9196C34.5134 16.9196 35.0751 17.1825 35.4613 17.6383 36.6724 14.6059 36.6724 11.2406 35.4788 8.20825 35.3208 8.38353 35.1453 8.54128 34.9347 8.66398 34.6363 8.83926 34.3028 8.92689 33.9517 8.92689 34.9522 11.5035 34.9347 14.343 33.9166 16.9196zM32.1434 17.9013C32.4418 17.3929 32.9508 17.0599 33.5301 16.9547 31.5115 14.4132 28.5978 12.7305 25.3856 12.2397 25.5787 12.8006 25.526 13.4141 25.2452 13.9224 27.9483 14.3606 30.4057 15.7804 32.1434 17.9013zM36.8122 8.10312C42.8153 9.69815 46.3609 15.8504 44.7636 21.8274 44.6583 22.2131 44.5354 22.5811 44.395 22.9492 44.7461 22.9492 45.0971 23.0369 45.3955 23.2121 45.6061 23.3348 45.7817 23.4926 45.9397 23.6679 46.1152 23.2121 46.2732 22.7564 46.396 22.3007 48.2391 15.4122 44.1493 8.33098 37.251 6.47302 36.7771 6.35033 36.3207 6.24516 35.8293 6.17505 36.0223 6.73594 35.9697 7.34942 35.6888 7.85773 36.075 7.92784 36.4436 7.99795 36.8122 8.10312zM40.3754 19.8468C38.9712 19.0405 37.4266 18.4971 35.8293 18.2693 36.0223 18.8302 35.9872 19.4437 35.6888 19.952 38.4095 20.3726 40.8669 21.7749 42.6046 23.9133 42.903 23.4225 43.4121 23.0719 43.9913 22.9668 42.9908 21.7223 41.7621 20.6531 40.3754 19.8468zM35.9525 31.0471C35.9525 31.2749 35.9174 31.5028 35.8297 31.7306 39.0594 31.2749 41.9731 29.5747 43.9917 27.0332 43.4125 26.9455 42.9034 26.595 42.605 26.0867 40.8673 28.2251 38.3924 29.6448 35.6717 30.0655 35.8648 30.3459 35.9525 30.6965 35.9525 31.0471zM33.9338 28.9963C34.5306 29.0138 35.0748 29.2768 35.4609 29.7325 36.6545 26.7002 36.6545 23.3348 35.4609 20.3025 35.0748 20.7407 34.5306 21.0036 33.9514 21.0211 34.9343 23.5802 34.9168 26.4197 33.9338 28.9963zM33.9514 41.073C34.5481 41.0905 35.0923 41.3534 35.4784 41.8092 36.6896 38.7768 36.672 35.4115 35.4784 32.3792 35.0923 32.8349 34.5481 33.0978 33.9514 33.1153 34.9343 35.6569 34.9343 38.4964 33.9514 41.073zM46.396 27.6992C46.2732 27.226 46.1152 26.7702 45.9397 26.332 45.5535 26.7878 44.9918 27.0507 44.4126 27.0507 44.553 27.4012 44.6759 27.7693 44.7812 28.1374 46.396 34.1319 42.8328 40.3018 36.8298 41.9143 36.4612 42.002 36.0926 42.0896 35.7064 42.1422 36.0048 42.6505 36.0575 43.2815 35.8468 43.8249 36.3208 43.7547 36.7947 43.6496 37.2686 43.5269 44.1493 41.6689 48.2566 34.5877 46.396 27.6992zM25.3505 37.7604C28.5802 37.2872 31.494 35.6045 33.5301 33.063 32.9509 32.9578 32.4418 32.6072 32.1434 32.1165 30.4057 34.2373 27.9483 35.6571 25.2277 36.0953 25.5085 36.6036 25.5436 37.2171 25.3505 37.7604zM28.2822 40.7751C27.0886 40.0915 26.053 39.18 25.1929 38.1108 25.0174 38.4088 24.7716 38.6717 24.4557 38.847 24.2626 38.9522 24.052 39.0398 23.8238 39.0749 25.8248 41.6339 28.7386 43.3341 31.9683 43.7899 31.7576 43.2465 31.8103 42.633 32.1087 42.1247 30.7571 41.9144 29.4582 41.4587 28.2822 40.7751zM18.575 40.7751C17.3989 41.4587 16.1 41.9144 14.7485 42.1423 15.0293 42.6506 15.0644 43.2641 14.8713 43.8075 18.1011 43.3342 21.0148 41.634 23.0158 39.0749 22.4366 38.9698 21.9451 38.6192 21.6467 38.1284 20.7866 39.1976 19.751 40.0915 18.575 40.7751zM32.144 44.1755C28.2473 48.9782 21.1911 49.7319 16.3816 45.8407 15.7673 45.3499 15.2056 44.789 14.7141 44.1755 14.5386 44.4735 14.2929 44.7364 13.9769 44.9117 13.7663 45.0344 13.5556 45.1045 13.3275 45.1396 17.7683 50.7134 25.8777 51.6249 31.4594 47.1903 32.2142 46.5769 32.9163 45.8933 33.5131 45.1396 32.9514 45.0344 32.4424 44.6838 32.144 44.1755zM12.9234 33.0803C12.5724 33.0803 12.2213 32.9926 11.9229 32.8173 11.7298 32.6947 11.5368 32.5544 11.3963 32.3792 10.1852 35.4115 10.1852 38.7768 11.3788 41.8092 11.5192 41.6339 11.7123 41.4761 11.9054 41.3534 12.2038 41.1781 12.5548 41.0905 12.8883 41.0905 11.9054 38.4964 11.9054 35.6393 12.9234 33.0803zM14.7141 32.0989C14.4157 32.6072 13.9067 32.9402 13.3275 33.0454 15.346 35.5869 18.2598 37.2871 21.4895 37.7779 21.2964 37.217 21.3315 36.6035 21.6299 36.0952 18.9092 35.6395 16.4518 34.2198 14.7141 32.0989zM.899368 23.6679C1.28553 23.2122 1.84722 22.9668 2.42646 22.9493 2.28604 22.5987 2.16317 22.2306 2.05785 21.8626.442997 15.868 4.0062 9.6982 10.0092 8.10317 10.3779 8.01553 10.7465 7.92789 11.1326 7.8753 10.8342 7.36699 10.7816 6.73599 10.9922 6.19263 10.5183 6.26274 10.0444 6.36791 9.58798 6.4906 2.68975 8.33103-1.40004 15.4298.442996 22.3183.583418 22.774.72384 23.2122.899368 23.6679zM6.48208 30.1531C7.8863 30.9594 9.43094 31.5028 11.0282 31.7306 10.8352 31.1698 10.8703 30.5563 11.1511 30.048 8.43043 29.6273 5.97305 28.2075 4.23533 26.0867 3.93693 26.5775 3.4279 26.928 2.86621 27.0332 3.84916 28.2777 5.07786 29.3469 6.48208 30.1531zM10.0269 41.8968C4.0239 40.2842.46069 34.1319 2.05799 28.1374 2.16331 27.7693 2.28618 27.4012 2.4266 27.0507 2.07554 27.0507 1.72449 26.963 1.42609 26.7878 1.23301 26.6651 1.03993 26.5073.899509 26.332.723981 26.7702.566007 27.2435.443137 27.6992-1.3999 34.5877 2.67234 41.6514 9.57057 43.5094 10.0445 43.6321 10.5184 43.7372 10.9923 43.8073 10.7993 43.2464 10.8519 42.6505 11.1328 42.1422 10.7817 42.0721 10.3955 42.002 10.0269 41.8968zM12.9234 16.9021C11.9229 14.3431 11.9229 11.5035 12.9059 8.94447 12.3266 8.92695 11.7649 8.66403 11.3788 8.22583 10.1852 11.2582 10.1852 14.6235 11.3963 17.6383 11.7649 17.1826 12.3266 16.9021 12.9234 16.9021zM10.9054 18.9529C10.9054 18.7251 10.958 18.4972 11.0282 18.2869 7.79853 18.7601 4.88478 20.4428 2.86621 22.9843 3.0944 23.0194 3.32258 23.107 3.51566 23.2122 3.81406 23.3875 4.0598 23.6329 4.23533 23.9308 5.97305 21.7924 8.44799 20.3727 11.1862 19.952 10.9931 19.654 10.9054 19.3035 10.9054 18.9529zM21.5063 12.2222C18.2942 12.7129 15.3804 14.3956 13.3443 16.9372 13.9235 17.0423 14.415 17.3929 14.7134 17.9012 16.4511 15.7803 18.9085 14.3606 21.6292 13.9224 21.3484 13.3965 21.2957 12.7831 21.5063 12.2222zM12.9059 21.0037C12.3266 20.9862 11.7649 20.7233 11.3963 20.2676 10.2027 23.2999 10.1852 26.6653 11.3788 29.6976 11.7649 29.2594 12.3091 28.9789 12.8883 28.9789 11.9229 26.4023 11.9229 23.5628 12.9059 21.0037z"/></svg>