<svg xmlns="http://www.w3.org/2000/svg" role="img" viewBox="410.65 327.40 369.20 186.95"><title>Open Source Business Alliance - Bundesverband für digitale Souveränität e.V. logo</title><g><path fill="#B1C900" d="M574.342 475.938c-.173.52-.434 1.129-.434 1.391 0 .521.521.869.956.869h4.778c.957 0 1.913-.957 2.175-1.74l5.735-17.643h25.033l5.91 17.643c.261.783 1.217 1.74 2.173 1.74h4.78c.437 0 .958-.348.958-.869 0-.262-.263-.871-.437-1.391l-19.556-59.453c-.608-1.824-2.437-3.041-4.608-3.301-2.433-.262-3.475 0-3.475 0-2.088.26-3.911 1.477-4.521 3.301L574.342 475.938 574.342 475.938zM610.327 452.122h-20.514l9.127-27.553 1.13-5.475 1.13 5.475L610.327 452.122 610.327 452.122zM418.191 475.938c-.175.52-.436 1.129-.436 1.391 0 .521.521.869.956.869h4.78c.956 0 1.912-.957 2.173-1.74l5.736-17.643h25.032l5.91 17.643c.262.783 1.218 1.74 2.173 1.74h4.781c.436 0 .956-.348.956-.869 0-.262-.261-.871-.435-1.391l-19.557-59.453c-.607-1.824-2.435-3.041-4.606-3.301-2.435-.262-3.477 0-3.477 0-2.086.26-3.911 1.477-4.52 3.301L418.191 475.938 418.191 475.938zM454.173 452.122h-20.513l9.126-27.553 1.13-5.475 1.13 5.475L454.173 452.122 454.173 452.122zM484.226 471.507c-.521 0-.868-.35-.868-.871v-56.148c0-.521-.436-.869-.868-.869h-6.085c-.522 0-.869.436-.869.869v55.889c0 4.605 2.781 7.822 7.822 7.822h25.118.869c.436 0 .87-.348.87-.869v-4.955c0-.436-.347-.867-.87-.867H484.226L484.226 471.507zM525.493 471.507c-.522 0-.869-.35-.869-.871v-56.148c0-.521-.436-.869-.869-.869h-6.085c-.521 0-.868.436-.868.869v55.889c0 4.605 2.781 7.822 7.822 7.822h25.119.869c.435 0 .87-.348.87-.869v-4.955c0-.436-.349-.867-.87-.867H525.493L525.493 471.507zM566.499 414.487c0-.434-.348-.869-.871-.869h-6.083c-.435 0-.869.348-.869.869v62.842c0 .521.435.869.869.869h6.083c.523 0 .871-.436.871-.869V414.487L566.499 414.487zM669.903 470.202l-.174 3.824-1.563-3.824-21.382-53.455c-.957-2.867-3.824-3.736-7.477-3.736h-1.303c-3.909 0-6.43 3.215-6.43 6.432v57.887c0 .434.346.869.867.869h6.085c.435 0 .955-.348.955-.869v-54.322l-.261-4.521 2.086 4.607 20.513 51.629c.957 2.955 4.085 3.912 7.909 3.912h1.391c4 0 6.693-3.305 6.693-6.695v-57.451c0-.521-.521-.869-.956-.869h-6.085c-.521 0-.869.436-.869.869V470.202L669.903 470.202zM724.733 478.198c.436 0 .87-.348.87-.869v-4.955c0-.436-.349-.867-.87-.867h-23.988c-3.304 0-5.477-2.781-5.477-5.477v-40.244c0-2.693 2.173-5.475 5.477-5.475h23.988c.436 0 .87-.348.87-.869v-4.955c0-.434-.349-.869-.87-.869h-3.65-21.033c-7.996 0-12.604 6.346-12.604 12.604v39.373c0 6.258 4.607 12.604 12.604 12.604h16.166H724.733L724.733 478.198zM771.301 478.198c.434 0 .869-.348.869-.869v-4.955c0-.436-.35-.867-.869-.867h-28.51c-.434 0-.869-.35-.869-.871v-22.512h23.295c.435 0 .869-.348.869-.869v-4.953c0-.436-.348-.869-.869-.869h-1.391-21.904v-20.252c0-.436.348-.869.869-.869h28.51c.434 0 .869-.348.869-.869v-4.955c0-.434-.35-.869-.869-.869h-29.379c-4.952 0-7.822 3.912-7.822 7.822v48.936c0 4.346 3.565 7.822 7.822 7.822H771.301L771.301 478.198z"/><path fill="#008AC1" d="M586.56 385.296v-9.551h7.861c1.396 0 2.313 1.176 2.313 2.315v4.04c0 1.58-1.248 3.196-3.195 3.196H586.56L586.56 385.296zM594.495 388.125c1.689 0 2.792 1.433 2.792 2.791v4.151c0 1.139-.919 2.315-2.314 2.315h-8.412v-9.257H594.495L594.495 388.125zM595.266 400.21c3.379 0 5.326-2.681 5.326-5.326v-3.968c0-1.616-1.029-3.526-3.048-4.187 1.542-.735 2.497-2.167 2.497-4.519v-3.967c0-2.644-1.946-5.326-5.326-5.326h-11.094c-.185 0-.367.147-.367.367v26.559c0 .183.147.367.367.367H595.266L595.266 400.21zM609.334 397.382c-.734 0-1.213-.625-1.213-1.213v-15.795c0-.184-.146-.368-.367-.368h-2.572c-.182 0-.366.147-.366.368v15.795c0 2.021 1.471 4.041 4.041 4.041 7.86 0 3.415 0 6.575 0 2.571 0 4.042-2.02 4.042-4.041v-15.795c0-.184-.147-.368-.37-.368h-2.607c-.184 0-.367.147-.367.368v15.795c0 .588-.477 1.213-1.21 1.213H609.334L609.334 397.382zM635.965 382.835c.184 0 .367-.147.367-.367v-2.094c0-.184-.146-.368-.367-.368h-8.337c-1.874 0-3.749 1.066-3.749 3.306v2.608c0 1.139.221 2.756 3.232 4.115l5.842 3.196c1.029.441 1.029 1.285 1.029 1.763v1.249c0 .588-.479 1.139-1.176 1.139h-8.449c-.184 0-.367.147-.367.367v2.094c0 .183.146.367.367.367h9.074c1.322 0 3.783-.588 3.783-3.6v-2.094c0-1.322-.221-2.571-3.232-4.114l-5.805-3.232c-1.066-.551-1.066-1.25-1.066-1.727v-1.432c0-.588.479-1.176 1.179-1.176H635.965L635.965 382.835zM645.261 376.554c.181 0 .367-.147.367-.368v-2.902c0-.184-.149-.367-.367-.367h-2.794c-.221 0-.367.183-.367.367v2.902c0 .221.184.368.367.368H645.261L645.261 376.554zM642.209 399.843c0 .22.184.367.369.367h2.57c.221 0 .367-.184.367-.367v-19.469c0-.184-.146-.368-.367-.368h-2.57c-.186 0-.369.147-.369.368V399.843L642.209 399.843zM661.018 382.835c.735 0 1.211.625 1.211 1.212v15.796c0 .183.149.367.37.367h2.57c.184 0 .368-.147.368-.367v-15.796c0-2.02-1.471-4.041-4.041-4.041-7.86 0-3.418 0-6.576 0-2.571 0-4.041 2.021-4.041 4.041v15.796c0 .183.147.367.367.367h2.607c.187 0 .37-.147.37-.367v-15.796c0-.587.438-1.212 1.173-1.212H661.018L661.018 382.835zM673.618 393.488c0-.478.073-.845.698-1.066l8.448-1.91c1.947-.771 1.947-2.461 1.947-3.673v-3.6c0-2.24-1.763-3.233-3.416-3.233h-7.678c-2.131 0-3.306 1.36-3.306 3.306v12.674.918c0 2.241 1.726 3.306 3.416 3.306h9.661c.147 0 .256-.147.256-.257v-2.315c0-.146-.108-.256-.256-.256h-8.377c-.696 0-1.395-.404-1.395-1.249V393.488L673.618 393.488zM674.941 389.337l-1.323.588v-5.988c0-.698.441-1.102 1.14-1.102h5.767c.551 0 1.139.33 1.139 1.028v2.499c0 .293.037 1.395-.771 1.579L674.941 389.337 674.941 389.337zM700.836 382.835c.184 0 .367-.147.367-.367v-2.094c0-.184-.146-.368-.367-.368H692.5c-1.874 0-3.749 1.066-3.749 3.306v2.608c0 1.139.221 2.756 3.232 4.115l5.842 3.196c1.028.441 1.028 1.285 1.028 1.763v1.249c0 .588-.478 1.139-1.175 1.139h-8.449c-.184 0-.367.147-.367.367v2.094c0 .183.146.367.367.367h9.072c1.324 0 3.785-.588 3.785-3.6v-2.094c0-1.322-.221-2.571-3.233-4.114l-5.804-3.232c-1.066-.551-1.066-1.25-1.066-1.727v-1.432c0-.588.479-1.176 1.179-1.176H700.836L700.836 382.835zM718.211 382.835c.184 0 .367-.147.367-.367v-2.094c0-.184-.146-.368-.367-.368h-8.337c-1.874 0-3.749 1.066-3.749 3.306v2.608c0 1.139.221 2.756 3.232 4.115l5.842 3.196c1.028.441 1.028 1.285 1.028 1.763v1.249c0 .588-.478 1.139-1.175 1.139h-8.449c-.184 0-.367.147-.367.367v2.094c0 .183.146.367.367.367h9.072c1.323 0 3.785-.588 3.785-3.6v-2.094c0-1.322-.221-2.571-3.233-4.114l-5.804-3.232c-1.066-.551-1.066-1.25-1.066-1.727v-1.432c0-.588.479-1.176 1.176-1.176H718.211L718.211 382.835zM595.472 361.884c3.381 0 5.327-2.681 5.327-5.326v-16.641c0-2.644-1.946-5.326-5.327-5.326h-7.235c-3.38 0-5.327 2.682-5.327 5.326v16.641c0 2.645 1.947 5.326 5.327 5.326H595.472L595.472 361.884zM588.531 359.056c-1.396 0-2.315-1.175-2.315-2.314v-17.008c0-1.139.919-2.314 2.315-2.314h6.648c1.395 0 2.312 1.175 2.312 2.314v17.008c0 1.139-.918 2.314-2.312 2.314H588.531L588.531 359.056zM605.758 368.717c0 .22.184.367.367.367h2.57c.221 0 .367-.184.367-.367v-6.833c.589 0 1.323 0 7.569 0 2.497 0 3.967-1.983 3.967-3.967v-12.195c0-2.241-1.837-4.041-4.042-4.041h-6.832c-2.572 0-3.967 1.616-3.967 3.967V368.717L605.758 368.717zM609.1 345.648c0-.587.441-1.139 1.139-1.139h5.842c.589 0 1.211.478 1.211 1.213v12.159c0 .587-.479 1.175-1.174 1.175H609.1V345.648L609.1 345.648zM628.128 355.162c0-.477.073-.844.698-1.065l8.447-1.911c1.947-.771 1.947-2.46 1.947-3.673v-3.6c0-2.24-1.762-3.232-3.416-3.232h-7.677c-2.129 0-3.308 1.359-3.308 3.306v12.673.919c0 2.24 1.729 3.305 3.418 3.305h9.66c.148 0 .256-.146.256-.257v-2.314c0-.147-.107-.257-.256-.257h-8.375c-.697 0-1.396-.404-1.396-1.249V355.162L628.128 355.162zM629.452 351.011l-1.323.588v-5.987c0-.699.441-1.103 1.138-1.103h5.768c.551 0 1.139.331 1.139 1.029v2.498c0 .294.037 1.396-.771 1.579L629.452 351.011 629.452 351.011zM653.768 344.509c.735 0 1.211.625 1.211 1.213v15.795c0 .184.149.367.37.367h2.57c.184 0 .368-.146.368-.367v-15.795c0-2.021-1.471-4.041-4.041-4.041-7.86 0-3.416 0-6.576 0-2.571 0-4.041 2.02-4.041 4.041v15.795c0 .184.147.367.367.367h2.607c.187 0 .37-.146.37-.367v-15.795c0-.588.438-1.213 1.173-1.213H653.768L653.768 344.509zM681.283 361.884c2.239 0 4.592-1.359 4.592-4.371v-3.453c0-1.653 0-3.931-2.646-4.996l-9.845-3.93c-1.026-.404-.918-1.983-.918-2.461v-3.563c0-1.139.955-1.69 1.91-1.69h10.507c.184 0 .367-.147.367-.367v-2.094c0-.184-.146-.368-.367-.368h-10.985c-2.239 0-4.59 1.433-4.59 4.445v3.82c0 1.653.035 4.042 2.976 5.107l9.513 3.893c.992.404.92 1.984.92 2.462v3.048c0 1.139-.957 1.69-1.912 1.69h-10.836c-.184 0-.367.147-.367.367v2.094c0 .184.149.367.367.367H681.283L681.283 361.884zM704.643 345.722c0-2.094-2.094-4.041-4.04-4.041h-6.684c-2.169 0-4.004 1.763-4.004 4.004v12.232c0 1.984 1.284 3.967 3.967 3.967h6.942c2.533 0 3.818-1.983 3.818-3.967V345.722L704.643 345.722zM701.338 357.881c0 .587-.478 1.175-1.176 1.175h-5.73c-.699 0-1.175-.588-1.175-1.175v-12.159c0-.735.588-1.213 1.21-1.213h5.695c.698 0 1.176.588 1.176 1.176V357.881L701.338 357.881zM713.937 359.056c-.733 0-1.212-.624-1.212-1.212v-15.795c0-.184-.146-.368-.367-.368h-2.571c-.184 0-.367.147-.367.368v15.795c0 2.02 1.468 4.04 4.04 4.04 7.861 0 3.416 0 6.577 0 2.569 0 4.04-2.02 4.04-4.04v-15.795c0-.184-.148-.368-.369-.368H721.1c-.184 0-.367.147-.367.368v15.795c0 .588-.479 1.212-1.213 1.212H713.937L713.937 359.056zM738.034 344.693c.184 0 .368-.147.368-.367v-2.277c0-.184-.147-.368-.368-.368h-5.143c-2.571 0-4.041 2.02-4.041 4.041l.037 15.795c0 .184.149.367.367.367h2.607c.184 0 .367-.146.367-.367l.037-15.942c0-.662.625-.882.809-.882H738.034L738.034 344.693zM752.838 361.884c.182 0 .367-.146.367-.367v-2.094c0-.184-.148-.367-.367-.367h-7.677c-.588 0-1.14-.441-1.14-1.139v-12.232c0-.588.478-1.176 1.174-1.176h7.643c.182 0 .367-.147.367-.367v-2.093c0-.184-.148-.368-.367-.368h-.588-7.53c-2.536 0-4.005 2.02-4.005 4.004v12.196c0 2.24 1.838 4.003 4.005 4.003h5.472H752.838L752.838 361.884zM760.184 355.162c0-.477.074-.844.698-1.065l8.448-1.911c1.947-.771 1.947-2.46 1.947-3.673v-3.6c0-2.24-1.764-3.232-3.417-3.232h-7.677c-2.131 0-3.306 1.359-3.306 3.306v12.673.919c0 2.24 1.726 3.305 3.417 3.305h9.66c.147 0 .256-.146.256-.257v-2.314c0-.147-.108-.257-.256-.257h-8.375c-.698 0-1.396-.404-1.396-1.249V355.162L760.184 355.162zM761.507 351.011l-1.323.588v-5.987c0-.699.441-1.103 1.14-1.103h5.767c.551 0 1.139.331 1.139 1.029v2.498c0 .294.037 1.396-.771 1.579L761.507 351.011 761.507 351.011z"/><g fill="#008AC1"><path d="M417.938 503.717c-.109 0-.183-.092-.183-.183v-13.213c0-.11.092-.184.183-.184h5.52c1.681 0 2.649 1.335 2.649 2.65v1.975c0 1.169-.476 1.881-1.242 2.247 1.005.329 1.517 1.279 1.517 2.083v1.974c0 1.316-.969 2.65-2.65 2.65H417.938zM422.873 496.297c.969 0 1.59-.804 1.59-1.59v-2.01c0-.566-.457-1.151-1.151-1.151H419.4v4.751H422.873zM419.4 497.704v4.605h4.185c.695 0 1.151-.585 1.151-1.151v-2.065c0-.676-.548-1.389-1.389-1.389H419.4zM433.603 502.31c.366 0 .604-.311.604-.604v-7.857c0-.11.091-.184.183-.184h1.297c.109 0 .183.092.183.184v7.857c0 1.005-.73 2.011-2.01 2.011-1.571 0 .64 0-3.271 0-1.278 0-2.01-1.006-2.01-2.011v-7.857c0-.11.092-.184.183-.184h1.279c.109 0 .184.092.184.184v7.857c0 .293.237.604.602.604H433.603zM440.587 495.073c-.365 0-.585.31-.585.603v7.858c0 .109-.091.183-.183.183h-1.297c-.11 0-.184-.092-.184-.183v-7.858c0-1.005.731-2.011 2.01-2.011 1.572 0-.64 0 3.271 0 1.279 0 2.01 1.006 2.01 2.011v7.858c0 .109-.091.183-.183.183h-1.279c-.108 0-.183-.092-.183-.183v-7.858c0-.293-.237-.603-.603-.603H440.587zM455.21 501.743c0 1.169-.695 1.974-1.974 1.974h-3.399c-1.097 0-2.011-.896-2.011-2.011v-6.066c0-.987.731-1.975 1.974-1.975h3.765v-3.344c0-.092.073-.184.184-.184h1.278c.092 0 .184.074.184.184V501.743zM450.056 495.073c-.347 0-.585.292-.585.585v6.048c0 .366.311.604.604.604h2.905c.348 0 .567-.274.567-.566v-6.67h-.184H450.056zM459.325 501.688c0 .42.348.622.694.622h4.166c.073 0 .129.055.129.127v1.151c0 .055-.056.129-.129.129h-4.806c-.84 0-1.699-.53-1.699-1.645v-.458-6.304c0-.969.585-1.646 1.645-1.646h3.819c.822 0 1.699.494 1.699 1.608v1.791c0 .604 0 1.444-.969 1.827l-4.202.95c-.311.11-.348.293-.348.53V501.688zM462.944 497.613c.401-.092.383-.641.383-.786v-1.243c0-.347-.292-.511-.566-.511h-2.869c-.348 0-.566.2-.566.548v2.979l.658-.293L462.944 497.613zM469.141 495.073c-.347 0-.584.292-.584.585v.712c0 .237 0 .585.529.858l2.888 1.609c1.498.767 1.608 1.388 1.608 2.046v1.042c0 1.498-1.225 1.791-1.883 1.791h-4.514c-.109 0-.183-.092-.183-.183v-1.042c0-.109.092-.183.183-.183h4.203c.348 0 .585-.274.585-.566v-.622c0-.237 0-.657-.512-.877l-2.905-1.59c-1.499-.676-1.609-1.48-1.609-2.047v-1.297c0-1.114.933-1.646 1.864-1.646h4.149c.108 0 .182.092.182.184v1.041c0 .11-.092.184-.182.184H469.141zM481.004 503.168c-.164.512-.695.677-1.353.677-.658 0-1.188-.165-1.353-.677l-3.052-9.265c-.055-.165.037-.238.238-.238h1.041c.273 0 .494.22.549.439l2.411 7.675.221.896.182-.896 2.34-7.675c.055-.22.273-.439.548-.439h1.041c.202 0 .293.073.238.238L481.004 503.168zM487.367 501.688c0 .42.347.622.694.622h4.167c.073 0 .127.055.127.127v1.151c0 .055-.054.129-.127.129h-4.807c-.841 0-1.699-.53-1.699-1.645v-.458-6.304c0-.969.585-1.646 1.645-1.646h3.819c.822 0 1.7.494 1.7 1.608v1.791c0 .604 0 1.444-.969 1.827l-4.204.95c-.311.11-.347.293-.347.53V501.688zM490.985 497.613c.402-.092.384-.641.384-.786v-1.243c0-.347-.292-.511-.566-.511h-2.869c-.347 0-.566.2-.566.548v2.979l.657-.293L490.985 497.613zM497.275 495.164c-.092 0-.402.109-.402.438l-.019 7.932c0 .109-.091.183-.183.183h-1.298c-.109 0-.183-.092-.183-.183l-.018-7.858c0-1.005.73-2.011 2.01-2.011h2.559c.109 0 .183.092.183.184v1.133c0 .11-.092.183-.183.183H497.275zM501.461 490.321c0-.11.092-.184.184-.184h1.278c.11 0 .184.092.184.184v3.344c.292 0 .657 0 3.765 0 1.242 0 1.973.987 1.973 1.975v6.066c0 1.115-.913 2.011-2.01 2.011h-3.399c-1.278 0-1.974-.805-1.974-1.974V490.321zM503.125 501.743c0 .292.22.566.567.566h2.905c.292 0 .604-.237.604-.604v-6.048c0-.293-.238-.585-.585-.585h-3.491V501.743zM516.194 495.693c0-.42-.347-.62-.694-.62h-3.91c-.073 0-.128-.056-.128-.129v-1.151c0-.055.055-.128.128-.128h4.55c.841 0 1.699.531 1.699 1.646v.456 6.306c0 .968-.585 1.645-1.645 1.645h-3.637c-.822 0-1.699-.493-1.699-1.608v-1.846c0-.604 0-1.443.969-1.828l4.021-1.077c.311-.129.347-.256.347-.494V495.693zM512.758 499.604c-.384.165-.384.64-.384.785v1.408c0 .347.293.512.566.512h2.687c.348 0 .566-.201.566-.548v-3.145l-.529.274L512.758 499.604zM522.556 495.073c-.365 0-.585.31-.585.603v7.858c0 .109-.091.183-.182.183h-1.298c-.109 0-.183-.092-.183-.183v-7.858c0-1.005.731-2.011 2.01-2.011 1.571 0-.64 0 3.271 0 1.279 0 2.01 1.006 2.01 2.011v7.858c0 .109-.091.183-.183.183h-1.279c-.109 0-.183-.092-.183-.183v-7.858c0-.293-.237-.603-.603-.603H522.556zM537.179 501.743c0 1.169-.694 1.974-1.974 1.974h-3.398c-1.097 0-2.011-.896-2.011-2.011v-6.066c0-.987.731-1.975 1.974-1.975h3.765v-3.344c0-.092.073-.184.183-.184h1.279c.092 0 .183.074.183.184V501.743zM532.026 495.073c-.347 0-.585.292-.585.585v6.048c0 .366.311.604.604.604h2.905c.348 0 .567-.274.567-.566v-6.67h-.184H532.026zM550.542 495.511c.11 0 .184.092.184.183v1.042c0 .11-.092.183-.184.183h-2.924v6.616c0 .109-.091.183-.182.183h-1.298c-.11 0-.183-.092-.183-.183v-11.403c0-.987.73-1.993 1.991-1.993h3.327c.109 0 .182.092.182.184v1.041c0 .11-.091.184-.182.184h-3.071c-.347 0-.585.292-.585.585v3.38H550.542zM557.929 502.31c.365 0 .603-.311.603-.604v-7.857c0-.11.092-.184.183-.184h1.297c.11 0 .184.092.184.184v7.857c0 1.005-.731 2.011-2.01 2.011-1.572 0 .639 0-3.271 0-1.279 0-2.01-1.006-2.01-2.011v-7.857c0-.11.091-.184.183-.184h1.279c.109 0 .183.092.183.184v7.857c0 .293.237.604.603.604H557.929zM554.438 491.947c-.091 0-.183-.073-.183-.183v-1.443c0-.092.073-.184.183-.184h1.279c.11 0 .183.092.183.184v1.443c0 .109-.091.183-.183.183H554.438zM557.399 491.947c-.092 0-.183-.073-.183-.183v-1.443c0-.092.183-.184.183-.184h1.279c.109 0 .183.092.183.184v1.443c0 .109-.092.183-.183.183H557.399zM564.767 495.164c-.092 0-.402.109-.402.438l-.019 7.932c0 .109-.092.183-.183.183h-1.298c-.109 0-.183-.092-.183-.183l-.018-7.858c0-1.005.73-2.011 2.01-2.011h2.559c.109 0 .182.092.182.184v1.133c0 .11-.091.183-.182.183H564.767zM581.961 501.743c0 1.169-.694 1.974-1.974 1.974h-3.398c-1.097 0-2.011-.896-2.011-2.011v-6.066c0-.987.73-1.975 1.974-1.975h3.765v-3.344c0-.092.073-.184.183-.184h1.279c.092 0 .183.074.183.184V501.743zM576.808 495.073c-.348 0-.585.292-.585.585v6.048c0 .366.311.604.604.604h2.905c.348 0 .566-.274.566-.566v-6.67h-.183H576.808zM584.852 491.947c-.091 0-.183-.073-.183-.183v-1.443c0-.092.073-.184.183-.184h1.39c.109 0 .183.092.183.184v1.443c0 .109-.092.183-.183.183H584.852zM584.725 493.849c0-.11.091-.184.182-.184h1.28c.108 0 .182.092.182.184v9.686c0 .091-.073.183-.182.183h-1.28c-.091 0-.182-.074-.182-.183V493.849zM596.219 505.215c0 1.225-.747 2.084-2.082 2.084h-4.148c-.072 0-.127-.056-.127-.129v-1.151c0-.055.055-.127.127-.127h3.894c.329 0 .675-.274.675-.677v-1.498h-3.454c-1.241 0-1.973-.987-1.973-1.974v-6.067c0-1.115.913-2.011 2.01-2.011h3.088c1.263 0 1.991 1.006 1.991 1.993V505.215zM594.557 495.676c0-.365-.311-.603-.603-.603h-2.576c-.293 0-.604.237-.604.603v6.049c0 .292.237.585.585.585h3.197V495.676zM599.11 491.947c-.09 0-.182-.073-.182-.183v-1.443c0-.092.072-.184.182-.184h1.391c.107 0 .182.092.182.184v1.443c0 .109-.092.183-.182.183H599.11zM598.983 493.849c0-.11.092-.184.182-.184h1.279c.111 0 .184.092.184.184v9.686c0 .091-.072.183-.184.183h-1.279c-.09 0-.182-.074-.182-.183V493.849zM605.051 494.944v6.762c0 .311.236.604.604.604h1.699.184c.109 0 .182.091.182.183v1.042c0 .109-.092.183-.182.183h-2.176c-.949 0-1.973-.749-1.973-1.974v-10.929c0-.11.055-.219.182-.256l1.299-.402c.145-.054.182.092.182.184v3.198h2.266c.109 0 .184.09.184.182v1.043c0 .108-.092.182-.184.182H605.051zM615.104 495.693c0-.42-.348-.62-.695-.62h-3.91c-.072 0-.129-.056-.129-.129v-1.151c0-.055.057-.128.129-.128h4.551c.84 0 1.699.531 1.699 1.646v.456 6.306c0 .968-.584 1.645-1.645 1.645h-3.637c-.82 0-1.699-.493-1.699-1.608v-1.846c0-.604 0-1.443.969-1.828l4.02-1.077c.311-.129.348-.256.348-.494V495.693zM611.668 499.604c-.383.165-.383.64-.383.785v1.408c0 .347.291.512.564.512h2.688c.348 0 .566-.201.566-.548v-3.145l-.531.274L611.668 499.604zM622.491 502.31c.109 0 .184.091.184.183v1.042c0 .109-.094.183-.184.183h-.184-1.352c-1.059 0-1.645-.677-1.645-1.645v-11.751c0-.092.072-.184.182-.184h1.279c.092 0 .184.074.184.184v11.805c0 .11.074.184.182.184H622.491zM626.182 501.688c0 .42.348.622.695.622h4.166c.074 0 .127.055.127.127v1.151c0 .055-.053.129-.127.129h-4.805c-.842 0-1.701-.53-1.701-1.645v-.458-6.304c0-.969.586-1.646 1.645-1.646h3.82c.822 0 1.699.494 1.699 1.608v1.791c0 .604 0 1.444-.969 1.827l-4.203.95c-.311.11-.348.293-.348.53V501.688zM629.801 497.613c.402-.092.385-.641.385-.786v-1.243c0-.347-.293-.511-.566-.511h-2.869c-.348 0-.568.2-.568.548v2.979l.658-.293L629.801 497.613zM640.12 503.717c-.109 0-.182-.092-.182-.183v-1.042c0-.109.09-.183.182-.183h5.391c.477 0 .951-.274.951-.841v-1.517c0-.237.035-1.024-.457-1.225l-4.734-1.937c-1.461-.53-1.479-1.718-1.479-2.541v-1.9c0-1.498 1.168-2.212 2.283-2.212h5.465c.109 0 .184.092.184.184v1.041c0 .11-.094.184-.184.184h-5.227c-.475 0-.949.274-.949.841v1.772c0 .237-.057 1.022.455 1.224l4.898 1.956c1.316.529 1.316 1.663 1.316 2.484v1.718c0 1.499-1.17 2.176-2.285 2.176H640.12zM657.465 501.743c0 .986-.639 1.974-1.9 1.974h-3.453c-1.334 0-1.975-.987-1.975-1.974v-6.085c0-1.116.914-1.993 1.992-1.993h3.326c.967 0 2.01.969 2.01 2.011V501.743zM655.821 495.658c0-.293-.238-.585-.586-.585h-2.832c-.311 0-.602.237-.602.603v6.049c0 .292.236.585.584.585h2.85c.348 0 .586-.293.586-.585V495.658zM664.961 502.31c.365 0 .604-.311.604-.604v-7.857c0-.11.09-.184.182-.184h1.299c.107 0 .182.092.182.184v7.857c0 1.005-.73 2.011-2.01 2.011-1.572 0 .639 0-3.271 0-1.279 0-2.01-1.006-2.01-2.011v-7.857c0-.11.092-.184.182-.184h1.281c.109 0 .182.092.182.184v7.857c0 .293.238.604.604.604H664.961zM674.833 503.168c-.164.512-.693.677-1.352.677s-1.188-.165-1.352-.677l-3.053-9.265c-.055-.165.035-.238.236-.238h1.043c.273 0 .492.22.547.439l2.414 7.675.219.896.182-.896 2.34-7.675c.055-.22.273-.439.547-.439h1.043c.201 0 .293.073.238.238L674.833 503.168zM681.196 501.688c0 .42.348.622.695.622h4.166c.072 0 .127.055.127.127v1.151c0 .055-.055.129-.127.129h-4.807c-.84 0-1.699-.53-1.699-1.645v-.458-6.304c0-.969.584-1.646 1.645-1.646h3.818c.822 0 1.699.494 1.699 1.608v1.791c0 .604 0 1.444-.967 1.827l-4.203.95c-.311.11-.348.293-.348.53V501.688zM684.815 497.613c.402-.092.383-.641.383-.786v-1.243c0-.347-.293-.511-.566-.511h-2.869c-.346 0-.566.2-.566.548v2.979l.658-.293L684.815 497.613zM691.102 495.164c-.09 0-.402.109-.402.438l-.018 7.932c0 .109-.092.183-.182.183h-1.299c-.109 0-.182-.092-.182-.183l-.02-7.858c0-1.005.73-2.011 2.012-2.011h2.557c.111 0 .184.092.184.184v1.133c0 .11-.092.183-.184.183H691.102zM700.735 495.693c0-.42-.346-.62-.693-.62h-3.91c-.074 0-.129-.056-.129-.129v-1.151c0-.055.055-.128.129-.128h4.549c.842 0 1.701.531 1.701 1.646v.456 6.306c0 .968-.586 1.645-1.646 1.645H697.1c-.822 0-1.699-.493-1.699-1.608v-1.846c0-.604 0-1.443.967-1.828l4.021-1.077c.309-.129.346-.256.346-.494V495.693zM696.897 491.947c-.09 0-.182-.073-.182-.183v-1.443c0-.092.072-.184.182-.184h1.281c.109 0 .182.092.182.184v1.443c0 .109-.092.183-.182.183H696.897zM697.299 499.604c-.383.165-.383.64-.383.785v1.408c0 .347.291.512.566.512h2.686c.348 0 .566-.201.566-.548v-3.145l-.529.274L697.299 499.604zM699.858 491.947c-.09 0-.182-.073-.182-.183v-1.443c0-.092.072-.184.182-.184h1.279c.111 0 .184.092.184.184v1.443c0 .109-.092.183-.184.183H699.858zM707.098 495.073c-.365 0-.584.31-.584.603v7.858c0 .109-.092.183-.184.183h-1.297c-.109 0-.182-.092-.182-.183v-7.858c0-1.005.729-2.011 2.01-2.011 1.572 0-.641 0 3.271 0 1.277 0 2.01 1.006 2.01 2.011v7.858c0 .109-.092.183-.184.183h-1.279c-.109 0-.182-.092-.182-.183v-7.858c0-.293-.238-.603-.604-.603H707.098zM715.034 491.947c-.092 0-.184-.073-.184-.183v-1.443c0-.092.074-.184.184-.184h1.389c.109 0 .182.092.182.184v1.443c0 .109-.092.183-.182.183H715.034zM714.905 493.849c0-.11.092-.184.184-.184h1.279c.109 0 .182.092.182.184v9.686c0 .091-.072.183-.182.183h-1.279c-.092 0-.184-.074-.184-.183V493.849zM720.973 494.944v6.762c0 .311.236.604.604.604h1.699.184c.107 0 .182.091.182.183v1.042c0 .109-.092.183-.182.183h-2.176c-.951 0-1.973-.749-1.973-1.974v-10.929c0-.11.055-.219.182-.256l1.299-.402c.145-.054.182.092.182.184v3.198h2.266c.109 0 .184.09.184.182v1.043c0 .108-.092.182-.184.182H720.973zM731.026 495.693c0-.42-.346-.62-.693-.62h-3.912c-.072 0-.127-.056-.127-.129v-1.151c0-.055.055-.128.127-.128h4.551c.842 0 1.701.531 1.701 1.646v.456 6.306c0 .968-.586 1.645-1.646 1.645h-3.635c-.822 0-1.701-.493-1.701-1.608v-1.846c0-.604 0-1.443.969-1.828l4.021-1.077c.309-.129.346-.256.346-.494V495.693zM727.188 491.947c-.09 0-.182-.073-.182-.183v-1.443c0-.092.072-.184.182-.184h1.279c.111 0 .184.092.184.184v1.443c0 .109-.092.183-.184.183H727.188zM727.59 499.604c-.383.165-.383.64-.383.785v1.408c0 .347.291.512.566.512h2.686c.348 0 .566-.201.566-.548v-3.145l-.529.274L727.59 499.604zM730.149 491.947c-.09 0-.182-.073-.182-.183v-1.443c0-.092.072-.184.182-.184h1.279c.111 0 .184.092.184.184v1.443c0 .109-.092.183-.184.183H730.149zM736.803 494.944v6.762c0 .311.238.604.604.604h1.699.184c.109 0 .182.091.182.183v1.042c0 .109-.092.183-.182.183h-2.176c-.949 0-1.973-.749-1.973-1.974v-10.929c0-.11.055-.219.182-.256l1.299-.402c.145-.054.182.092.182.184v3.198h2.266c.111 0 .184.09.184.182v1.043c0 .108-.092.182-.184.182H736.803zM748.676 501.688c0 .42.348.622.695.622h4.166c.072 0 .127.055.127.127v1.151c0 .055-.055.129-.127.129h-4.807c-.84 0-1.699-.53-1.699-1.645v-.458-6.304c0-.969.584-1.646 1.645-1.646h3.818c.822 0 1.699.494 1.699 1.608v1.791c0 .604 0 1.444-.967 1.827l-4.203.95c-.311.11-.348.293-.348.53V501.688zM752.295 497.613c.4-.092.383-.641.383-.786v-1.243c0-.347-.293-.511-.566-.511h-2.869c-.348 0-.566.2-.566.548v2.979l.658-.293L752.295 497.613zM756.665 503.717c-.09 0-.182-.074-.182-.183v-1.443c0-.092.072-.184.182-.184h1.391c.107 0 .182.092.182.184v1.443c0 .109-.092.183-.182.183H756.665zM765.735 503.826c-.438-.055-.822-.329-.949-.713-4.148-12.609-4.203-12.737-4.203-12.792 0-.11.109-.184.201-.184h1.061c.201 0 .4.202.455.366.037.092.111.201 3.656 10.91l.164.969.164-.969c3.545-10.709 3.619-10.818 3.654-10.91.057-.164.258-.366.457-.366h1.061c.092 0 .201.074.201.184 0 .055-.055.183-4.203 12.792-.127.384-.512.658-.949.713 0 0-.129.019-.385.019C765.881 503.845 765.735 503.826 765.735 503.826zM771.223 503.717c-.092 0-.184-.074-.184-.183v-1.443c0-.092.074-.184.184-.184h1.389c.109 0 .184.092.184.184v1.443c0 .109-.094.183-.184.183H771.223z"/></g><path fill="#008AC1" d="M430.893 400.283c-6.969 0-10.729-5.527-10.729-10.728v-43.916c0-5.201 3.76-10.728 10.729-10.728h26.228c6.969 0 10.728 5.527 10.728 10.728v43.916c0 5.201-3.759 10.728-10.728 10.728H430.893zM434.088 343.87c-2.527 0-4.091 2.123-4.091 4.089v39.186c0 1.966 1.563 4.089 4.091 4.089h19.838c2.526 0 4.09-2.123 4.09-4.089v-39.186c0-1.966-1.563-4.089-4.09-4.089H434.088zM479.887 400.283c-1.291 0-2.158-1.069-2.158-2.069v-4.91c0-1.295 1.098-2.069 2.158-2.069h25.564c1.497 0 3.108-.833 3.108-2.661v-7.23c0-1.819-.159-3.745-1.336-4.236l-22.326-8.99.01-.032c-7.66-2.786-7.66-8.681-7.66-12.985v-8.747c0-7.923 6.115-11.531 11.797-11.531h25.78c1.277 0 2.068 1.074 2.068 2.069v4.91c0 1.278-1.074 2.069-2.068 2.069h-24.619c-1.591 0-3.197.823-3.197 2.661v8.569c0 1.172 0 3.612 1.365 4.068l23.079 9.097c6.958 2.749 6.958 8.513 6.958 12.722v7.944c0 7.799-6.162 11.352-11.888 11.352H479.887zM529.979 400.283c-1.352 0-2.159-1.052-2.159-2.069v-61.323c0-1.295 1.098-2.069 2.159-2.069h26.672c8.823 0 13.584 6.999 13.584 13.583v9.104c0 4.772-2.053 8.587-5.357 9.958l-1.098.455 1.135.353c4.114 1.28 6.57 4.763 6.57 9.319v9.104c0 6.585-4.761 13.583-13.584 13.583H529.979zM537.939 391.235h19.337c2.446 0 4.09-2.114 4.09-4.089v-9.551c0-2.482-2.007-5.162-5.25-5.162h-18.177V391.235zM537.939 363.386h16.034c3.789 0 6.054-3.124 6.054-6.143v-9.283c0-1.975-1.607-4.089-4-4.089h-18.088V363.386z"/></g></svg>