<svg xmlns="http://www.w3.org/2000/svg" role="img" viewBox="-10.61 -10.61 551.72 115.72"><title>Purdue University logo</title><path d="M154 0h1v1h-1zm75 1h1v1h-1zm107 0h1v1h-1zm115 0h1v1h-1zM163 2h1v1h-1zm235 0h1v1h-1zM270 5h1v1h-1zm29 1h1v1h-1zm120 0h1v1h-1zm-85 1h1v1h-1zm158 0h1v1h-1zM379 8h1v1h-1zM231 9h1v1h-1zM34 13h1v1h-1zm366 2h1v1h-1zm13 8h1v1h-1zm89 0h1v1h-1zm-326 2h1v1h-1zm54 1h1v1h-1zm11 2h1v1h-1zm158 16h1v1h-1zm-104 1h1v1h-1zM39 46h1v1h-1zm246 1h1v1h-1zm177 2h1v1h-1zm-151 2h1v1h-1zm43 0h1v1h-1zm-191 1h1v1h-1zm59 0h1v1h-1zm141 0h1v1h-1zm113 0h1v1h-1zM36 53h1v1h-1zm362 2h1v1h-1zm-239 1h1v1h-1zm294 0h1v1h-1zm65 0h1v1h-1zm-246 1h1v1h-1zm175 0h1v1h-1zm-304 7h1v1h-1zm-37 2h23v1h-23zm23 0h1v1h-1zm-25 3h1v1h-1zm159 0h1v1h-1zm146 0h1v1h-1zm11 0h1v1h-1zm-157 1h1v1h-1zm219 0h1v4h-1zm-157 1h1v1h-1zm47 1h1v1h-1zm66 0h1v1h-1zm-229 1h1v12h-1zm196 0h1v1h-1zm-157 1h1v1h-1zm230 0h1v1h-1zm4 0h1v1h-1zm-381 2h1v1h-1zm151 3h1v1h-1zm259 0h1v1h-1zM5 81h1v1H5zm239 0h1v9h-1zm75 1h1v1h-1zm206 2h1v1h-1zm-316 1h1v1h-1zm42 2h1v1h-1zm131 0h1v1h-1zM2 88h1v1H2zm354 1h1v1h-1zm-112 1h1v1h-1zm94 0h1v1h-1zm18 0h1v1h-1zm-134 1h1v1h-1zm64 0h1v1h-1zm129 0h1v1h-1zm51 0h1v1h-1zm54 0h1v1h-1zm-265 1h1v1h-1zM1 94h92v1H1zm92 0h1v1h-1zm117 0h1v1h-1zm7 0h1v1h-1zm21 0h7v1h-7zm7 0h1v1h-1zm12 0h1v1h-1zm1 0h1v1h-1zm18 0h10v1h-10zm10 0h1v1h-1zm25 0h2v1h-2zm2 0h1v1h-1zm24 0h17v1h-17zm17 0h1v1h-1zm17 0h9v1h-9zm9 0h1v1h-1zm7 0h6v1h-6zm6 0h1v1h-1zm44 0h9v1h-9zm9 0h1v1h-1zm20 0h10v1h-10zm10 0h1v1h-1zm25 0h8v1h-8zm8 0h1v1h-1z" fill="#8d8d8d"/><path d="M39 1h1v1h-1zm355 0h1v1h-1zm-50 2h1v1h-1zm-94 3h1v1h-1zm183 1h1v1h-1zM206 9h1v40h-1zm37 0h1v1h-1zm-10 4h1v1h-1zm-65 2h1v1h-1zm343 1h1v1h-1zm-98 6h1v1h-1zm-185 5h1v1h-1zm4 6h1v1h-1zm282 7h1v1h-1zm4 0h1v1h-1zm1 3h1v1h-1zm-56 4h1v1h-1zM38 48h1v1h-1zm168 1h1v1h-1zm50 0h1v1h-1zm14 0h1v1h-1zm124 0h1v1h-1zm98 1h1v1h-1zm-273 1h1v1h-1zm260 0h1v1h-1zm-256 2h1v1h-1zm40 2h1v1h-1zm131 1h1v1h-1zM15 59h1v1h-1zm18 0h1v1h-1zm97 7h1v1h-1zm71 2h1v1h-1zm10 0h1v1h-1zm6 0h1v1h-1zm37 0h1v1h-1zm8 0h1v1h-1zm37 0h1v1h-1zm26 0h1v1h-1zm11 0h1v1h-1zm34 0h1v1h-1zm47 0h1v1h-1zm19 0h1v1h-1zm45 0h1v1h-1zm23 0h1v1h-1zm13 0h1v1h-1zm-82 1h1v1h-1zm0 1h1v1h-1zm-209 1h1v1h-1zm50 0h1v1h-1zm114 1h1v1h-1zm-18 1h1v1h-1zm-270 1h1v1h-1zm288 5h1v1h-1zm116 0h1v1h-1zm-260 2h1v1h-1zm264 0h1v1h-1zm-192 4h1v1h-1zm184 0h1v5h-1zm25 4h1v1h-1zm-155 1h1v1h-1zm38 0h1v1h-1zm92 0h1v1h-1zm-146 2h1v1h-1zm79 1h1v1h-1zm-26 1h1v1h-1zm38 0h1v1h-1z" fill="#a9a9a9"/><path d="M201 1h1v1h-1zm82 0h1v1h-1zm18 0h1v1h-1zm62 0h1v1h-1zm113 0h1v1h-1zM162 2h1v1h-1zm86 3h1v1h-1zm-83 5h1v1h-1zm3 3h1v1h-1zm2 5h1v1h-1zm6 1h1v3h-1zm174 1h1v1h-1zm-174 2h1v1h-1zm226 2h1v1h-1zm0 1h1v1h-1zm-55 1h1v1h-1zm-178 1h1v1h-1zM35 28h1v1h-1zm18 1h1v1h-1zm115 1h1v1h-1zm6 1h1v1h-1zm-45 2h1v1h-1zm88 0h1v1h-1zM26 34h1v1h-1zm481 1h1v1h-1zM92 36h1v1h-1zm-51 6h1v1h-1zm223 0h1v1h-1zm248 2h1v1h-1zm-72 6h1v1h-1zm9 0h1v1h-1zm69 1h1v1h-1zm-256 3h1v1h-1zm-61 2h1v1h-1zm142 0h1v1h-1zm133 0h1v1h-1zm41 0h1v1h-1zM80 64h1v1h-1zm25 2h1v1h-1zm97 5h1v1h-1zm59 0h1v1h-1zm76 0h1v1h-1zm75 0h1v1h-1zm91 0h1v1h-1zm13 0h1v1h-1zm-207 6h1v1h-1zm104 1h1v1h-1zM93 79h1v1h-1zm286 2h1v1h-1zm-64 1h1v1h-1zm72 2h1v1h-1zm1 2h1v1h-1zm29 3h1v1h-1zm-102 3h1v1h-1zm150 0h1v1h-1zm-58 1h1v1h-1zm58 0h1v1h-1zm-250 1h1v1h-1z" fill="#363636"/><path d="M233 2h1v1h-1zm110 1h1v1h-1zm127 2h1v1h-1zm47 1h1v1h-1zM158 7h1v1h-1zm155 1h1v1h-1zM36 9h1v1h-1zm304 6h1v1h-1zM33 16h1v1h-1zm470 4h1v1h-1zM37 22h1v1h-1zm133 0h1v1h-1zm-74 6h1v1h-1zm31 0h1v1h-1zm198 0h1v1h-1zM94 31h1v1h-1zm124 2h10v1h-10zm10 0h1v1h-1zM27 34h15v1H27zm15 0h1v1h-1zm464 2h1v1h-1zm-42 4h1v1h-1zm-301 1h1v1h-1zM45 48h1v1h-1zm120 1h1v1h-1zm104 0h1v1h-1zm71 2h1v1h-1zm-186 1h1v1h-1zm67 0h1v1h-1zm256 0h1v1h-1zM42 55h1v1h-1zm160 1h19v1h-19zm19 0h1v1h-1zm87 0h19v1h-19zm19 0h1v1h-1zm17 0h12v1h-12zm12 0h1v1h-1zm8 0h26v1h-26zm26 0h1v1h-1zm87 0h39v1h-39zm39 0h1v1h-1zm-360 2h1v1h-1zm-20 1h1v1h-1zm-97 3h1v1h-1zm-26 1h1v1h-1zm123 2h1v1h-1zm250 4h1v1h-1zm2 1h1v1h-1zm-170 1h1v1h-1zm153 0h1v1h-1zm66 0h1v1h-1zm-197 4h1v15h-1zM14 76h1v1h-1zm407 0h1v1h-1zm-118 1h1v1h-1zm106 5h1v1h-1zm-161 1h1v1h-1zm63 0h1v1h-1zm3 2h1v1h-1zM96 87h1v1h-1zm211 1h1v1h-1zm-67 2h1v1h-1zm290 0h1v1h-1zM1 91h1v1H1zm466 0h1v1h-1zm54 1h1v1h-1z" fill="#424242"/><path d="M155 7h1v1h-1zM41 14h1v1h-1zm127 0h1v1h-1zm1 2h1v1h-1zM38 21h1v1h-1zm131 4h1v1h-1zm-40 9h1v1h-1zm-78 1h1v1h-1zm77 0h1v1h-1zm37 1h1v1h-1zm-74 2h29v1H91zm29 0h1v1h-1zm44 0h1v1h-1zm-1 2h1v1h-1zM48 42h1v1h-1zm114 0h1v1h-1zm-2 3h1v1h-1zM43 54h1v1h-1zm107 0h1v1h-1zm-4 2h1v1h-1zm-3 1h1v1h-1zm-12 2h1v1h-1zm-91 2h1v1h-1zm39 4h1v1h-1zm-60 1h18v1H19zm18 0h1v1h-1zm42 0h18v1H79zm18 0h1v1h-1zm-79 2h1v1h-1zm-1 2h1v1h-1zm78 3h1v1h-1zm-83 9h1v1h-1zm77 5h1v1h-1z" fill="#928c8a"/><path d="M47 10h103v1H47zm103 0h1v1h-1zm4 1h3v1h-3zm3 0h1v1h-1zm2 1h1v1h-1zm1 0h1v1h-1zm1 1h1v1h-1zm1 0h1v1h-1zM45 14h1v1h-1zm118 0h1v1h-1zM45 15h1v1h-1zm119 0h1v1h-1zM44 16h1v1h-1zm121 0h1v1h-1zM44 17h1v1h-1zm121 0h1v1h-1zM42 21h1v1h-1zm0 1h1v1h-1zm-1 1h1v1h-1zm0 1h1v1h-1zm89 0h1v1h-1zm1 0h1v1h-1zm34 0h1v2h-1zm-73 1h1v1h-1zm40 0h1v1h-1zm-73 1h1v1h-1zm106 0h1v1h-1zM59 27h1v1h-1zm75 0h1v1h-1zm30 0h1v1h-1zM58 28h1v1h-1zm77 0h1v3h-1zm29 0h1v1h-1zM58 29h1v1h-1zm32 0h1v1h-1zm-33 1h1v1h-1zm33 0h1v1h-1zm-33 1h1v1h-1zm32 0h1v1h-1zm46 0h1v1h-1zm-46 1h1v1h-1zm-33 1h1v1h-1zm78 0h1v1h-1zm28 0h1v1h-1zM56 34h1v1h-1zm32 0h1v1h-1zm74 0h1v1h-1zM55 35h1v1h-1zm33 0h1v1h-1zm73 0h1v1h-1zM55 36h1v1h-1zm32 0h1v1h-1zm45 0h1v1h-1zm29 0h1v1h-1zm-74 1h1v1h-1zm44 0h1v1h-1zm-45 1h1v1h-1zm44 0h1v1h-1zm-44 1h1v1h-1zm43 0h1v1h-1zm-44 1h1v1h-1zm42 0h1v1h-1zm1 0h1v1h-1zm-43 1h1v1h-1zm39 0h2v1h-2zm2 0h1v1h-1zm32 0h1v1h-1zM52 42h1v1h-1zm35 0h35v1H87zm35 0h1v1h-1zm35 0h1v1h-1zM52 43h1v1h-1zm105 0h1v1h-1zm-1 1h1v1h-1zM51 45h1v1h-1zm104 0h1v1h-1zm-1 1h1v1h-1zM50 47h1v1h-1zm103 0h1v1h-1zM50 48h1v1h-1zm102 0h1v1h-1zm-1 1h1v1h-1zM49 50h1v1h-1zm98 1h1v1h-1zm1 0h1v1h-1zM48 52h1v1h-1zm97 0h1v1h-1zm1 0h1v1h-1zm-4 1h1v1h-1zm1 0h1v1h-1zm-96 1h1v1h-1zm90 0h2v1h-2zm2 0h1v1h-1zm-92 1h1v1h-1zm33 0h55v1H80zm55 0h1v1h-1zm-89 1h1v1h-1zm0 1h1v1h-1zm32 0h1v1h-1zm0 1h1v1h-1zm-33 1h1v1h-1zm0 1h1v1h-1zm-1 1h1v1h-1zm0 1h1v1h-1zm-1 1h1v1h-1zm0 1h1v1h-1zm32 0h1v1h-1zm0 1h1v1h-1zm-1 1h1v1h-1zm0 1h1v1h-1zm-33 1h1v1h-1zm0 1h1v1h-1zm-20 1h18v1H21zm18 0h1v1h-1zm36 0h17v1H75zm17 0h1v1h-1zm-71 1h1v1h-1zm70 1h1v1h-1zm0 1h1v1h-1zm-1 1h1v1h-1zm-71 1h1v1h-1zm71 0h1v1h-1zm-71 1h1v1h-1zm70 1h1v1h-1zm0 1h1v1h-1zm-1 1h1v1h-1zm0 1h1v1h-1zm-1 1h1v1h-1zm-71 1h1v1h-1zm71 0h1v1h-1zm-71 1h70v1H16zm70 0h1v1h-1z" fill="#d2bb91"/><path d="M40 0h1v1h-1zm111 0h1v1h-1zm85 3h1v1h-1zm-83 3h1v1h-1zm158 0h1v1h-1zm146 1h1v1h-1zM337 8h1v1h-1zm1 1h1v1h-1zM34 14h1v1h-1zm306 0h1v1h-1zM39 17h1v1h-1zm362 0h1v1h-1zm111 0h3v1h-3zm3 0h2v1h-2zm2 0h1v1h-1zm-347 6h1v1h-1zm72 3h1v1h-1zM28 28h1v1h-1zm195 0h1v1h-1zm103 0h1v1h-1zm-196 1h1v1h-1zm272 5h1v1h-1zM50 36h1v1h-1zm414 2h1v1h-1zm-210 3h1v1h-1zM47 43h1v1h-1zm115 0h1v1h-1zm261 1h1v1h-1zm10 0h1v1h-1zm23 0h1v1h-1zm-169 1h1v1h-1zm-127 1h1v1h-1zM44 50h1v1h-1zm349 0h1v1h-1zm88 1h1v1h-1zm-279 1h1v1h-1zm20 4h1v1h-1zm135 0h1v1h-1zm6 0h1v1h-1zM38 64h1v1h-1zm-28 6h1v1h-1zm411 0h1v1h-1zM16 71h1v1h-1zm239 0h1v1h-1zm159 0h1v1h-1zm31 0h1v1h-1zM96 72h1v1h-1zm206 2h1v1h-1zm118 2h1v1h-1zm-30 1h1v1h-1zM13 78h1v1h-1zm368 6h1v1h-1zM90 86h1v1h-1zm435 0h1v1h-1zm-302 1h1v1h-1zM10 88h1v1h-1zm209 0h1v1h-1zM2 89h1v1H2zm276 2h1v1h-1zm67 0h5v1h-5zm5 0h1v1h-1zm41 0h1v1h-1zm83 0h1v1h-1zm-237 1h1v1h-1z" fill="#303030"/><path d="M160 1h1v1h-1zm256 0h1v1h-1zM302 2h1v2h-1zm-65 1h1v1h-1zm65 1h1v1h-1zm114 1h1v1h-1zm35 0h1v1h-1zM203 6h1v1h-1zm275 0h1v1h-1zM288 7h1v1h-1zm102 0h1v1h-1zm32 1h1v32h-1zM296 9h1v29h-1zm213 0h1v1h-1zm-112 1h1v1h-1zM31 20h1v1h-1zm308 2h1v1h-1zm-1 2h1v1h-1zM28 27h1v1h-1zm317 1h1v1h-1zm-170 1h1v1h-1zm317 2h1v1h-1zm-149 3h1v1h-1zm70 0h1v1h-1zm-69 2h1v1h-1zm-48 2h1v1h-1zm126 2h1v1h-1zm34 3h1v1h-1zm8 0h1v1h-1zm-210 1h1v1h-1zm-86 1h1v1h-1zm87 2h1v1h-1zm39 1h1v1h-1zm130 0h1v1h-1zm-142 1h1v1h-1zm-8 1h1v1h-1zm173 0h1v1h-1zm-21 1h1v1h-1zm1 1h1v1h-1zm-227 1h1v1h-1zm275 0h1v1h-1zm-209 3h1v1h-1zm13 1h1v1h-1zm-124 2h1v1h-1zm257 9h1v1h-1zm-212 1h1v1h-1zm135 0h1v1h-1zm-135 1h1v1h-1zm135 0h1v1h-1zm-98 1h1v1h-1zm79 0h1v1h-1zm-97 1h1v1h-1zm296 0h1v1h-1zm-206 4h1v1h-1zm-6 2h1v1h-1zm7 1h1v1h-1zm-66 1h1v1h-1zm176 1h1v1h-1zm-109 1h1v1h-1zm3 2h1v1h-1zm188 0h1v1h-1zm-121 1h1v1h-1zm149 1h1v1h-1zm-1 1h1v1h-1zm-4 1h1v1h-1zm-218 1h1v1h-1zm-69 2h1v1h-1zm176 0h1v1h-1zm110 0h1v1h-1zm-189 1h1v1h-1zm0 1h1v1h-1zm-98 1h1v1h-1zm50 0h1v1h-1zm178 0h1v1h-1zm60 0h1v1h-1z" fill="#969696"/><path d="M200 1h1v1h-1zm275 0h1v1h-1zM362 2h1v2h-1zm0 2h1v1h-1zm77 0h1v1h-1zM200 5h1v1h-1zm275 0h1v1h-1zm-57 1h1v1h-1zm-94 1h1v1h-1zm56 0h1v1h-1zm113 0h1v1h-1zM288 8h1v1h-1zm48 0h1v1h-1zm32 0h1v41h-1zM35 10h1v1h-1zm141 5h1v1h-1zm175 0h1v1h-1zm0 1h1v1h-1zM32 17h1v1h-1zm318 5h1v1h-1zm-174 4h1v1h-1zm155 1h1v1h-1zm-7 6h5v1h-5zm5 0h1v1h-1zm-112 1h1v1h-1zm302 6h1v1h-1zm-223 1h1v1h-1zm40 3h1v1h-1zm183 1h1v1h-1zm-352 2h1v1h-1zm201 2h1v1h-1zm82 0h1v1h-1zM37 50h1v1h-1zm180 0h1v1h-1zm208 0h1v1h-1zm84 0h1v1h-1zm-183 1h1v1h-1zm135 0h1v1h-1zm-99 2h1v2h-1zm0 2h1v1h-1zm-4 1h1v1h-1zm80 1h1v1h-1zm-294 7h1v1h-1zm-4 1h1v1h-1zm158 3h1v1h-1zm149 0h1v1h-1zm-40 2h1v1h-1zM9 71h1v1H9zm289 0h1v1h-1zm108 0h1v1h-1zm-303 1h1v1h-1zm205 0h1v1h-1zm170 3h1v1h-1zm-126 1h1v1h-1zm32 0h1v1h-1zm114 1h1v1h-1zM6 78h1v1H6zm94 1h1v1h-1zm220 1h1v1h-1zm69 7h1v1h-1zm-186 1h1v1h-1zm326 0h1v1h-1zm-139 1h1v1h-1zm139 0h1v1h-1zm-108 2h1v1h-1zm55 0h1v1h-1zm47 1h1v1h-1zm-188 2h1v1h-1z" fill="#c9c9c9"/><path d="M228 1h1v1h-1zm188 1h1v2h-1zm0 2h1v1h-1zM310 6h1v1h-1zM171 7h1v1h-1zm125 0h1v1h-1zm95 0h1v1h-1zM264 8h1v1h-1zM35 11h1v1h-1zm7 0h1v1h-1zm132 0h1v1h-1zm336 1h1v1h-1zM232 24h1v1h-1zM29 25h1v1h-1zm66 3h1v1h-1zm122 0h1v1h-1zm-49 1h1v1h-1zm175 0h1v1h-1zm-213 3h1v1h-1zm283 0h1v1h-1zM92 35h1v1h-1zm-42 2h1v1h-1zm214 2h1v1h-1zm148 0h1v1h-1zm-242 2h1v1h-1zm294 1h1v1h-1zM47 44h1v1h-1zm239 2h1v1h-1zm111 1h1v1h-1zm41 2h1v1h-1zm-165 1h1v1h-1zm119 0h1v1h-1zm12 2h1v1h-1zm26 2h1v1h-1zm2 1h1v1h-1zm-159 2h1v1h-1zm-140 2h1v1h-1zm20 1h1v1h-1zm-55 6h1v1h-1zm103 5h1v1h-1zm8 1h1v1h-1zm202 0h1v1h-1zm-67 1h1v4h-1zm0 4h1v1h-1zm168 0h1v1h-1zm-268 2h1v1h-1zm76 0h1v1h-1zm180 1h1v1h-1zm26 3h1v1h-1zm-182 1h1v6h-1zM90 85h1v1h-1zM3 86h1v1H3zm206 0h1v1h-1zm318 1h1v1h-1zm-183 3h1v1h-1zm183 0h1v1h-1zm-321 2h1v1h-1zm15 0h1v1h-1zM0 93h1v1H0z" fill="#737373"/><path d="M283 5h1v1h-1zm155 0h1v1h-1zm-89 4h1v1h-1zm1 4h1v1h-1zm60 0h1v1h-1zm101 1h1v1h-1zM29 26h1v1h-1zm313 7h1v1h-1zm60 2h1v1h-1zm-57 4h1v1h-1zm-50 4h1v1h-1zm223 5h1v1h-1zm-138 3h8v1h-8zm8 0h1v1h-1zm105 0h15v1h-15zm15 0h1v1h-1zm-201 2h1v1h-1zm22 0h1v1h-1zM36 54h1v1h-1zm306 1h1v1h-1zm-74 1h1v1h-1zm183 0h1v1h-1zM41 57h1v1h-1zm-7 2h1v1h-1zm6 0h1v1h-1zm89 1h1v1h-1zM14 61h1v1h-1zm84 4h1v1h-1zm321 4h1v1h-1zm41 1h1v4h-1zm35 1h1v1h-1zm-78 1h1v1h-1zm61 1h1v1h-1zm-18 1h1v1h-1zm3 0h1v1h-1zm-45 1h1v1h-1zM94 77h1v1h-1zm223 0h1v1h-1zm193 3h1v1h-1zm-257 1h1v1h-1zm248 0h1v1h-1zM92 82h1v1h-1zm253 0h4v1h-4zm4 0h1v1h-1zm160 0h1v1h-1zm-192 4h1v1h-1zm91 1h1v1h-1zm116 2h1v1h-1zm-309 2h1v1h-1zm129 0h1v1h-1zm7 0h1v1h-1zm68 1h1v1h-1zm-200 1h1v1h-1z" fill="#141414"/><path d="M47 9h103v1H47zm103 0h1v1h-1zm10 2h1v1h-1zM43 16h1v1h-1zm123 0h1v1h-1zm1 3h1v2h-1zM41 21h1v1h-1zm126 0h1v1h-1zM40 23h1v1h-1zm88 2h1v1h-1zm4 1h1v1h-1zm34 0h1v1h-1zm-33 1h1v1h-1zm-76 1h1v1h-1zm108 1h1v1h-1zm-74 1h1v1h-1zm-1 2h1v1h-1zm-36 3h1v1h-1zm108 1h1v1h-1zm-74 1h1v1h-1zm73 1h1v1h-1zm-1 2h1v1h-1zM51 42h1v1h-1zm107 1h1v1h-1zM48 49h1v1h-1zm100 3h1v1h-1zm-8 3h1v1h-1zm-95 1h1v1h-1zm90 0h1v1h-1zm-56 2h1v1h-1zm-2 5h1v1h-1zm-37 5h1v1h-1zm-20 2h1v1h-1zm72 3h1v1h-1zm-75 4h1v1h-1zm72 3h1v1h-1z" fill="#a39b94"/><g fill="#fff"><path d="M0 0h38v4H0zm38 0h1v1h-1zm121 0h371v1H159zm371 0h1v84h-1zM38 1h1v1h-1zm125 0h36v1h-36zm36 0h1v93h-1zm35 0h12v1h-12zm12 0h1v69h-1zm25 0h10v47h-10zm10 0h1v47h-1zm22 0h2v66h-2zm2 0h1v66h-1zm36 0h20v1h-20zm20 0h1v93h-1zm36 0h18v1h-18zm18 0h1v66h-1zm25 0h10v47h-10zm10 0h1v47h-1zm22 0h2v66h-2zm2 0h1v66h-1zm44 0h12v1h-12zM165 2h34v1h-34zm72 0h9v1h-9zm107 0h17v1h-17zm57 0h14v1h-14zm118 0h11v37h-11zM167 3h32v1h-32zm72 0h7v1h-7zm107 0h15v1h-15zm57 0h12v1h-12zM0 4h37v2H0zm37 0h1v1h-1zm132 0h30v1h-30zm71 0h6v1h-6zm107 0h14v1h-14zm57 0h11v1h-11zM170 5h29v1h-29zm71 0h5v1h-5zm107 0h13v1h-13zm57 0h10v1h-10zM0 6h36v3H0zm36 0h1v1h-1z"/><path d="M171 6h30v1h-30zm30 0h1v45h-1zm41 0h6v1h-6zm6 0h1v67h-1zm22 0h13v42h-13zm13 0h1v41h-1zm19 0h5v45h-5zm5 0h1v45h-1zm42 0h14v1h-14zm14 0h1v45h-1zm44 0h9v1h-9zm9 0h1v61h-1zm22 0h13v42h-13zm13 0h1v42h-1zm19 0h6v45h-6zm6 0h1v45h-1z"/><path d="M172 7h31v1h-31zm31 0h1v43h-1zm40 0h8v1h-8zm8 0h1v69h-1zm16 0h18v39h-18zm18 0h1v39h-1zm14 0h11v43h-11zm11 0h1v43h-1zm40 0h15v1h-15zm15 0h1v43h-1zm43 0h11v1h-11zm11 0h1v61h-1zm17 0h18v39h-18zm18 0h1v38h-1zm13 0h11v44h-11zm11 0h1v43h-1z"/><path d="M173 8h32v1h-32zm32 0h1v42h-1zm13 0h9v18h-9zm9 0h1v18h-1zm17 0h8v1h-8zm8 0h1v70h-1zm13 0h22v32h-22zm22 0h1v34h-1zm10 0h14v42h-14zm14 0h1v42h-1zm13 0h11v1h-11zm11 0h1v18h-1zm15 0h17v1h-17zm17 0h1v42h-1zm13 0h11v41h-11zm11 0h1v41h-1zm18 0h12v1h-12zm12 0h1v60h-1zm13 0h22v35h-22zm22 0h1v33h-1zm10 0h14v42h-14zm14 0h1v42h-1zm13 0h15v10h-15zm15 0h1v11h-1zM0 9h35v2H0zm35 0h1v1h-1zm139 0h31v1h-31zm54 0h2v16h-2zm2 0h1v16h-1zm14 0h8v1h-8z"/><path d="M325 9h11v17h-11zm11 0h1v16h-1zm15 0h16v2h-16zm41 0h2v39h-2zm2 0h1v39h-1zm15 0h12v1h-12zm-234 1h30v1h-30zm56 0h1v14h-1zm14 0h7v5h-7zm92 0h1v14h-1zm58 0h1v37h-1zm1 0h1v37h-1zm14 0h11v1h-11zM0 11h34v2H0zm34 0h1v1h-1zm141 0h30v1h-30zm163 0h1v11h-1zm13 0h16v1h-16zm46 0h1v34h-1zm13 0h11v1h-11zm99 0h1v38h-1zm-333 1h29v1h-29zm56 0h1v10h-1zm120 0h15v37h-15zm59 0h10v1h-10zM0 13h33v3H0zm33 0h1v1h-1zm143 0h29v1h-29zm222 0h1v31h-1zm14 0h9v1h-9zm-235 1h28v3h-28zm222 0h1v28h-1zm13 0h9v1h-9zm-167 1h7v1h-7zm168 0h8v3h-8zm97 0h1v31h-1zM0 16h32v2H0zm32 0h1v1h-1zm215 0h5v55h-5zm-70 1h28v1h-28zM0 18h31v2H0zm31 0h1v1h-1zm147 0h27v32h-27zm222 0h1v21h-1zm13 0h8v1h-8z"/><path d="M493 18h18v1h-18zm18 0h1v25h-1zm-266 1h7v50h-7zm169 0h7v48h-7zm79 0h9v4h-9zm9 0h1v1h-1z"/><path d="M508 19h22v1h-22zM0 20h30v2H0zm30 0h1v1h-1zm321 0h16v28h-16zm161 0h18v19h-18zM0 22h29v3H0zm29 0h1v1h-1zm203 0h1v1h-1zm106 0h1v1h-1zm-161 1h28v27h-28zm316 0h8v1h-8zm8 0h1v1h-1zm-270 1h1v1h-1zm106 0h1v1h-1z"/><path d="M350 24h17v22h-17zm143 0h1v1h-1zM0 25h28v2H0zm28 0h1v1h-1zm200 0h2v1h-2zm2 0h1v1h-1zm14 0h8v42h-8zm92 0h1v1h-1z"/><path d="M349 25h18v19h-18zm-131 1h10v1h-10zm10 0h1v1h-1zm97 0h10v1h-10zm10 0h1v1h-1zM0 27h27v3H0zm27 0h1v1h-1zm191 0h3v1h-3zm3 0h1v1h-1zm22 0h9v40h-9zm81 0h1v1h-1zm1 0h1v1h-1z"/><path d="M348 27h19v15h-19zm-106 1h10v39h-10z"/><path d="M346 28h21v10h-21zm-170 1h29v21h-29zm65 0h11v38h-11z"/><path d="M345 29h22v7h-22zM0 30h26v2H0zm26 0h1v1h-1zm214 0h12v37h-12z"/><path d="M343 30h24v2h-24zm-104 1h13v36h-13z"/><path d="M342 31h25v1h-25zM0 32h25v26H0zm25 0h1v1h-1zm150 0h30v18h-30zm62 0h15v35h-15zm106 0h24v1h-24zm150 0h8v17h-8zm8 0h1v17h-1z"/><path d="M235 33h17v34h-17zm109 0h23v1h-23zm-170 1h31v16h-31z"/><path d="M230 34h22v33h-22zm94 0h6v1h-6zm6 0h1v18h-1zm14 0h23v1h-23z"/><path d="M218 35h34v15h-34zm107 0h6v15h-6zm6 0h1v59h-1zM25 36h17v3H25zm17 0h1v1h-1zm131 0h32v14h-32zm172 0h22v1h-22zM42 37h1v1h-1zm290 0h1v57h-1zm170 0h28v2h-28zm-156 1h21v1h-21zM25 39h16v3H25zm16 0h1v1h-1z"/><path d="M172 39h33v11h-33zm161 0h1v55h-1zm14 0h20v1h-20zm53 0h1v1h-1zm13 0h8v28h-8zm89 0h28v1h-28zm-237 1h22v1h-22zm82 0h20v1h-20zm155 0h10v3h-10zm10 0h1v1h-1zm8 0h10v41h-10z"/><path d="M171 41h34v9h-34zm95 0h21v3h-21zm68 0h1v53h-1zm122 0h1v1h-1zM25 42h15v2H25zm15 0h1v1h-1zm213 0h1v25h-1zm34 0h1v1h-1zm61 0h19v1h-19zm51 0h1v1h-1zm13 0h9v25h-9zm53 0h15v8h-15z"/><path d="M170 43h35v7h-35zm165 0h1v24h-1zm99 0h21v1h-21zm21 0h1v1h-1zm47 0h9v3h-9zm9 0h1v1h-1zM25 44h14v2H25zm14 0h1v1h-1zm227 0h20v1h-20zm20 0h1v1h-1zm63 0h18v1h-18zm49 0h1v1h-1zm37 0h19v1h-19z"/><path d="M169 45h36v5h-36zm127 0h15v5h-15zm40 0h1v22h-1zm61 0h1v1h-1zm14 0h11v22h-11zm11 0h1v24h-1zm13 0h19v1h-19zm19 0h1v1h-1zM25 46h13v3H25zm13 0h1v1h-1z"/><path d="M168 46h37v4h-37zm99 0h18v1h-18zm18 0h1v1h-1zm65 0h17v1h-17zm60 0h12v21h-12zm26 0h17v1h-17zm17 0h1v1h-1zm49 0h8v3h-8zm8 0h1v1h-1zm-256 1h1v20h-1zm14 0h16v1h-16zm16 0h1v1h-1zm11 0h16v3h-16zm42 0h1v20h-1zm58 0h1v1h-1zm1 0h1v1h-1zm41 0h15v1h-15zm15 0h1v1h-1zm12 0h16v3h-16z"/><path d="M167 48h38v2h-38zm102 0h13v1h-13zm13 0h1v1h-1zm69 0h16v1h-16zm41 0h2v1h-2zm2 0h1v1h-1zm15 0h14v19h-14zm14 0h1v36h-1zm15 0h13v1h-13zm13 0h1v1h-1zM25 49h12v2H25zm12 0h1v1h-1zm218 0h1v18h-1zm18 0h7v1h-7zm7 0h1v1h-1zm44 0h13v1h-13zm28 0h15v1h-15zm28 0h12v1h-12zm12 0h1v1h-1zm49 0h7v1h-7zm7 0h1v1h-1zm15 0h17v1h-17zm30 0h16v1h-16zm16 0h1v1h-1zm-343 1h39v1h-39zm39 0h1v1h-1z"/><path d="M218 50h38v1h-38zm38 0h1v17h-1zm38 0h17v1h-17zm17 0h1v1h-1zm14 0h13v1h-13zm13 0h1v17h-1zm16 0h13v1h-13zm13 0h1v1h-1zm41 0h16v17h-16zm16 0h1v44h-1zm39 0h17v1h-17zm17 0h1v1h-1zM25 51h11v2H25zm11 0h1v1h-1zm129 0h37v1h-37zm37 0h1v1h-1zm19 0h35v1h-35zm72 0h15v1h-15zm15 0h1v1h-1zm20 0h10v1h-10zm28 0h8v1h-8zm8 0h1v1h-1z"/><path d="M407 51h18v16h-18zm18 0h1v43h-1zm37 0h15v1h-15zm15 0h1v1h-1zm-313 1h35v42h-35zm60 0h33v15h-33zm33 0h1v15h-1zm36 0h12v15h-12zm37 0h9v1h-9zm9 0h1v15h-1zm20 0h2v42h-2z"/><path d="M405 52h21v15h-21zm21 0h1v42h-1zm35 0h13v15h-13zm58 0h11v29h-11zM25 53h10v2H25zm10 0h1v1h-1zm128 0h36v41h-36zm95 0h1v14h-1zm34 0h13v14h-13zm48 0h1v14h-1z"/><path d="M404 53h23v14h-23zm23 0h1v41h-1zm33 0h14v14h-14zm-298 1h37v40h-37zm97 0h1v13h-1zm1 0h1v13h-1zm30 0h15v13h-15z"/><path d="M403 54h25v13h-25zm25 0h1v40h-1zm31 0h15v13h-15zM25 55h9v3h-9zm9 0h1v1h-1zm127 0h38v39h-38zm100 0h1v12h-1zm28 0h16v12h-16zm52 0h1v12h-1z"/><path d="M401 55h29v12h-29zm29 0h1v39h-1zm28 0h16v12h-16zm-298 1h39v38h-39zm102 0h1v11h-1zm1 0h1v11h-1zm24 0h18v11h-18z"/><path d="M397 56h35v11h-35zm35 0h1v38h-1zm23 0h19v11h-19zm-296 1h108v10H159zm108 0h1v37h-1z"/><path d="M284 57h152v10H284zm152 0h1v10h-1zm16 0h78v10h-78zM0 58h33v1H0zm33 0h1v1h-1z"/><path d="M158 58h372v9H158zM0 59h13v3H0zm13 0h1v1h-1z"/><path d="M157 59h373v8H157zM13 60h1v1h-1z"/><path d="M155 60h375v7H155z"/><path d="M153 61h377v6H153zM0 62h12v3H0zm12 0h1v1h-1z"/><path d="M151 62h379v5H151z"/><path d="M149 63h381v4H149z"/><path d="M146 64h384v3H146zM0 65h11v2H0zm11 0h1v1h-1z"/><path d="M143 65h387v2H143z"/><path d="M137 66h393v1H137zM0 67h10v3H0zm10 0h1v1h-1zm96 0h424v1H106zm0 1h93v26h-93zm107 0h2v21h-2zm2 0h1v21h-1zm12 0h9v1h-9zm9 0h1v26h-1zm28 0h10v26h-10zm10 0h1v26h-1zm14 0h9v1h-9zm9 0h1v26h-1zm14 0h3v1h-3zm3 0h1v14h-1zm13 0h7v26h-7zm30 0h11v26h-11zm11 0h1v26h-1zm18 0h23v1h-23zm23 0h1v1h-1zm10 0h15v1h-15zm15 0h1v26h-1zm14 0h10v26h-10zm10 0h1v26h-1zm25 0h8v26h-8zm8 0h1v26h-1zm15 0h1v10h-1zm1 0h1v1h-1z"/><path d="M105 69h94v25h-94zm123 0h8v25h-8zm17 0h7v1h-7zm44 0h8v25h-8zm23 0h2v13h-2zm77 0h18v1h-18zm18 0h1v1h-1zm15 0h12v1h-12zM0 70h9v2H0zm9 0h1v1H9zm237 0h6v1h-6zm144 0h16v1h-16zm16 0h1v1h-1zm23 0h5v24h-5z"/><path d="M104 71h95v23h-95zm123 0h9v23h-9zm20 0h5v1h-5zm41 0h9v20h-9zm23 0h4v9h-4zm4 0h1v8h-1zm76 0h14v1h-14zm14 0h1v1h-1zm102 0h1v6h-1zM0 72h8v2H0zm8 0h1v1H8zm192 0h1v22h-1zm1 0h1v22h-1zm10 0h7v17h-7zm7 0h1v15h-1z"/><path d="M225 72h13v18h-13zm13 0h1v18h-1zm11 0h5v2h-5zm5 0h1v8h-1zm8 0h15v18h-15zm15 0h1v18h-1zm9 0h13v18h-13zm13 0h1v22h-1zm10 0h8v2h-8zm8 0h1v1h-1zm7 0h12v18h-12zm12 0h1v18h-1zm33 0h2v18h-2zm2 0h1v18h-1zm20 0h13v1h-13zm13 0h1v2h-1zm31 0h2v18h-2zm2 0h1v18h-1zm9 0h12v18h-12zm46 0h2v22h-2zm2 0h1v22h-1zm10 0h5v2h-5zm5 0h1v1h-1zm8 0h13v9h-13zm-315 1h1v21h-1zm8 0h8v14h-8z"/><path d="M248 73h7v1h-7zm7 0h1v8h-1zm6 0h16v17h-16zm39 0h1v21h-1zm17 0h1v1h-1zm20 0h1v17h-1zm8 0h5v5h-5zm5 0h1v5h-1zm29 0h4v6h-4zm4 0h1v5h-1zm9 0h12v17h-12zm20 0h4v3h-4zm4 0h1v5h-1zm29 0h13v17h-13zm20 0h2v17h-2zm2 0h1v17h-1zm8 0h2v17h-2zm2 0h1v17h-1zm18 0h1v21h-1zm14 0h1v1h-1zm6 0h15v8h-15zM0 74h7v3H0zm7 0h1v1H7zm96 0h99v20h-99zm146 0h6v1h-6zm60 0h7v1h-7zm7 0h1v2h-1zm7 0h14v16h-14zm28 0h1v4h-1zm53 0h1v1h-1z"/><path d="M411 74h5v1h-5zm93 0h4v1h-4zm4 0h1v1h-1zm-258 1h5v1h-5zm51 0h1v19h-1zm9 0h6v2h-6zm101 0h5v1h-5zm53 0h3v15h-3zm32 0h1v19h-1zm9 0h3v1h-3zm3 0h1v1h-1zm6 0h16v6h-16zm-412 1h100v18H102zm149 0h4v1h-4zm65 0h1v1h-1zm6 0h15v14h-15zm90 0h4v1h-4zm93 0h2v1h-2zM0 77h6v2H0zm6 0h1v1H6zm247 0h2v2h-2zm57 0h5v1h-5zm42 0h19v8h-19zm62 0h3v1h-3zm3 0h1v1h-1zm5 0h15v5h-15zm37 0h1v17h-1z"/><path d="M463 77h4v13h-4zm15 0h1v17h-1zm19 0h1v17h-1zm10 0h1v1h-1zm6 0h17v4h-17zm-412 1h101v16H101zm151 0h3v1h-3zm50 0h1v16h-1zm43 0h26v1h-26zm38 0h1v1h-1zm21 0h1v7h-1zm12 0h21v1h-21z"/><path d="M460 78h7v12h-7zm19 0h19v16h-19zm19 0h1v16h-1zm8 0h1v1h-1zM0 79h5v3H0zm5 0h1v1H5zm248 0h2v1h-2zm62 0h1v1h-1zm6 0h16v11h-16zm58 0h3v1h-3zm3 0h1v1h-1zm9 0h13v10h-13zm27 0h19v1h-19zm94 0h18v2h-18zm-412 1h102v14H100zm154 0h1v1h-1zm49 0h1v14h-1zm8 0h3v1h-3zm94 0h1v5h-1zm15 0h17v1h-17zm79 0h1v10h-1zm-254 1h1v9h-1zm10 0h1v1h-1z"/><path d="M320 81h17v9h-17zm70 0h15v4h-15zm31 0h16v1h-16zm90 0h19v1h-19zM0 82h4v1H0zm4 0h1v1H4zm242 0h1v8h-1zm66 0h2v1h-2zm2 0h1v1h-1z"/><path d="M389 82h18v3h-18zm18 0h1v3h-1zm15 0h15v1h-15zm78 0h1v8h-1zm10 0h14v1h-14zm14 0h6v1h-6zM0 83h3v3H0zm3 0h1v1H3zm96 0h103v11H99zm205 0h1v11h-1zm9 0h1v2h-1z"/><path d="M388 83h21v1h-21zm21 0h1v3h-1zm101 0h11v1h-11zm11 0h1v1h-1zm7 0h2v1h-2zm-281 1h1v6h-1zm72 0h18v6h-18zm26 0h26v1h-26zm34 0h1v6h-1z"/><path d="M388 84h23v1h-23zm23 0h1v5h-1zm12 0h14v1h-14zm78 0h1v6h-1zm8 0h11v3h-11zm11 0h1v1h-1zm10 0h1v1h-1zM98 85h104v9H98zm150 0h1v9h-1zm65 0h1v1h-1zm32 0h26v1h-26zm35 0h1v5h-1z"/><path d="M389 85h25v1h-25zm25 0h1v5h-1zm110 0h2v1h-2zm2 0h1v1h-1zM0 86h2v2H0zm2 0h1v1H2zm247 0h1v8h-1zm56 0h1v8h-1zm40 0h7v3h-7zm7 0h1v1h-1zm37 0h14v1h-14z"/><path d="M409 86h6v1h-6zm6 0h1v4h-1zm-205 1h8v1h-8zm8 0h1v1h-1zm32 0h1v7h-1zm68 0h19v3h-19zm63 0h1v3h-1zm9 0h13v1h-13zm20 0h5v2h-5zm99 0h10v3h-10zm10 0h1v1h-1zm3 0h1v3h-1zm6 0h1v3h-1zM0 88h1v3H0zm1 0h1v1H1zm96 0h105v6H97zm154 0h1v6h-1zm139 0h13v1h-13zm26 0h1v1h-1zm-205 1h6v1h-6zm6 0h1v1h-1zm7 0h14v1h-14zm82 0h1v5h-1zm39 0h6v1h-6zm6 0h1v1h-1zm31 0h1v5h-1zm9 0h12v1h-12zm19 0h5v1h-5zm13 0h14v1h-14z"/><path d="M96 90h107v4H96zm107 0h1v4h-1zm21 0h14v1h-14zm14 0h1v1h-1zm7 0h7v1h-7zm7 0h1v4h-1zm9 0h16v1h-16zm16 0h1v1h-1zm9 0h20v1h-20zm31 0h20v1h-20zm20 0h1v1h-1zm8 0h1v1h-1zm5 0h1v1h-1zm19 0h2v1h-2zm2 0h1v1h-1zm8 0h3v1h-3zm13 0h11v1h-11zm11 0h1v4h-1zm9 0h3v1h-3zm3 0h1v1h-1zm8 0h14v1h-14zm14 0h1v1h-1zm8 0h22v1h-22zm22 0h1v1h-1zm8 0h26v1h-26zm26 0h1v1h-1zm8 0h10v1h-10zm10 0h1v4h-1zm6 0h1v1h-1zm3 0h1v1h-1zM0 91h1v1H0zm204 0h1v3h-1zm19 0h13v3h-13zm30 0h1v3h-1zm8 0h13v3h-13zm27 0h19v1h-19zm19 0h1v3h-1zm10 0h17v3h-17zm66 0h1v3h-1zm12 0h8v3h-8zm27 0h12v3h-12zm38 0h4v3h-4zm4 0h1v1h-1zm48 0h7v3h-7zm13 0h1v1h-1z"/><path d="M95 92h109v2H95zm159 0h1v2h-1zm44 0h9v2h-9zm18 0h18v2h-18zm88 0h1v2h-1zm17 0h13v2h-13zm109 0h1v2h-1zm-325 1h1v1h-1zm1 0h1v1h-1zm15 0h15v1h-15zm163 0h1v1h-1z"/><path d="M420 93h14v1h-14zm100 0h1v1h-1zM95 94h112v1H95zm112 0h1v1h-1zm13 0h16v1h-16zm16 0h1v1h-1zm12 0h7v1h-7zm7 0h1v1h-1zm6 0h13v1h-13zm13 0h1v1h-1zm15 0h19v1h-19zm19 0h1v1h-1zm8 0h18v1h-18zm18 0h1v1h-1zm23 0h11v1h-11zm11 0h1v1h-1zm14 0h2v1h-2zm2 0h1v1h-1zm11 0h12v1h-12zm12 0h1v1h-1zm11 0h16v1h-16zm16 0h1v1h-1zm14 0h15v1h-15zm15 0h1v1h-1zm15 0h20v1h-20zm20 0h1v1h-1zm14 0h10v1h-10zm10 0h1v1h-1zm6 0h2v1h-2zm2 0h1v1h-1z"/></g><path d="M42 0h107v1H42zm107 0h1v1h-1zm285 6h1v1h-1zM254 7h1v1h-1zm210 0h1v1h-1zM162 8h1v1h-1zm348 3h1v1h-1zm-160 7h1v1h-1zm62 2h1v1h-1zM31 21h1v1h-1zm202 2h1v1h-1zm269 2h1v1h-1zm-327 2h1v1h-1zm50 1h1v1h-1zm119 0h1v1h-1zm-2 1h1v1h-1zM52 31h1v1h-1zm120 5h1v1h-1zm-50 1h1v1h-1zm43 1h1v1h-1zm5 2h1v1h-1zM46 45h1v1h-1zm115 0h1v1h-1zm133 2h1v1h-1zm-38 1h1v1h-1zm181 1h1v1h-1zm-166 1h1v1h-1zm10 0h1v1h-1zm98 1h1v1h-1zm113 0h1v1h-1zm-63 2h1v1h-1zm-141 1h1v1h-1zm-138 1h1v1h-1zm-2 1h1v1h-1zm134 0h1v1h-1zm155 0h1v1h-1zm-299 3h1v1h-1zm-8 1h1v1h-1zM19 65h17v1H19zm17 0h1v1h-1zm45 0h16v1H81zm16 0h1v1h-1zm-80 3h1v1h-1zm202 3h1v1h-1zm26 0h1v1h-1zm193 0h1v1h-1zm-215 1h1v13h-1zm132 2h1v1h-1zm35 1h1v1h-1zm21 2h1v1h-1zm95 3h1v1h-1zm-128 1h1v1h-1zm3 0h1v1h-1zM98 82h1v1h-1zm246 0h1v1h-1zm-121 3h1v1h-1zM9 87h1v1H9zm0 1h1v1H9zm515 0h1v1h-1zm-271 1h1v1h-1zm273 0h1v1h-1zm-313 2h1v1h-1zm231 0h1v1h-1zm64 0h1v1h-1zm-32 2h1v1h-1z" fill="#0a0a0a"/><path d="M339 2h1v1h-1zM154 6h1v1h-1zm98 0h1v1h-1zm-93 1h1v1h-1zm236 1h1v1h-1zm-162 3h1v1h-1zm167 3h1v1h-1zM38 19h1v1h-1zm312 0h1v1h-1zm-10 1h1v1h-1zM36 24h1v1h-1zm287 4h1v1h-1zm5 0h1v1h-1zM93 34h1v1h-1zm371 3h1v1h-1zm-54 7h1v1h-1zm-243 2h1v1h-1zm116 3h1v1h-1zm-77 2h1v1h-1zM43 52h1v1h-1zm353 3h1v1h-1zM83 60h45v1H83zm45 0h1v1h-1zm159 9h1v1h-1zm68 0h1v1h-1zm-68 1h1v1h-1zm-63 1h1v1h-1zm94 0h1v1h-1zm37 2h1v1h-1zm-106 3h1v1h-1zm141 0h1v1h-1zm132 8h1v1h-1zm-299 2h1v1h-1zm306 0h1v1h-1zm-217 1h1v1h-1zM89 88h1v1h-1zm263 1h1v1h-1zm-138 2h1v1h-1zm30 0h1v1h-1zm167 0h1v1h-1zm115 2h1v1h-1z" fill="#1b1a1a"/><path d="M44 7h1v1h-1zm3 1h102v1H47zm102 0h1v1h-1zm3 1h1v1h-1zm3 0h1v1h-1zm1 0h1v1h-1zm6 0h1v2h-1zm-2 1h1v1h-1zm2 1h1v1h-1zM44 13h1v1h-1zm120 0h1v1h-1zM43 14h1v1h-1zm122 0h1v1h-1zM42 16h1v1h-1zm125 0h1v2h-1zm0 2h1v1h-1zM41 19h1v1h-1zm-1 2h1v1h-1zm0 1h1v1h-1zm127 1h1v1h-1zM57 26h1v1h-1zm73 0h1v1h-1zm37 0h1v1h-1zm-1 1h1v1h-1zm-74 2h1v1h-1zm41 0h1v2h-1zm-41 1h1v1h-1zm73 0h1v1h-1zm-32 1h1v1h-1zm32 0h1v1h-1zM55 32h1v1h-1zm36 0h2v1h-2zm2 0h1v1h-1zm71 0h1v1h-1zM54 33h1v1h-1zm36 0h1v1h-1zm74 0h1v1h-1zM54 34h1v1h-1zm36 0h1v1h-1zm-37 1h1v1h-1zm36 0h1v1h-1zm38 3h1v1h-1zm1 0h1v1h-1zm34 0h1v1h-1zm-74 1h1v1h-1zm37 0h1v1h-1zm-76 1h2v1h-2zm2 0h1v1h-1zm37 0h32v1H88zm32 0h3v1h-3zm3 0h1v1h-1zm36 3h1v1h-1zm-3 3h1v1h-1zM46 47h2v1h-2zm2 0h1v1h-1zm106 1h1v1h-1zM47 49h1v1h-1zm106 0h1v1h-1zM46 52h1v1h-1zm-1 2h1v1h-1zm0 1h1v1h-1zm96 0h2v1h-2zm2 0h1v1h-1zm5 0h1v1h-1zM44 56h1v1h-1zm93 0h3v1h-3zm3 0h1v1h-1zm-7 1h1v1h-1zm1 0h1v1h-1zm-91 2h1v1h-1zm36 1h1v1h-1zm-37 1h1v1h-1zm36 0h1v1h-1zm-1 4h1v1h-1zm-37 1h1v1h-1zm36 0h1v1h-1zm-36 1h1v1h-1zm36 0h1v1h-1zm17 1h1v1h-1zm4 0h1v1h-1zm-78 2h1v1h-1zm75 0h1v1h-1zm-1 3h1v1h-1zm-1 1h1v1h-1zm-75 1h1v1h-1zm75 0h2v1h-2zm2 0h1v1h-1zm-3 1h1v1h-1zm0 1h1v1h-1zm-1 3h1v1h-1zm-76 2h1v1h-1zm75 0h2v1h-2zm2 0h1v1h-1zm-3 1h1v1h-1zm-1 2h1v1h-1z" fill="#9b9595"/><path d="M45 7h108v1H45zm108 0h1v1h-1zM44 8h1v1h-1zm113 0h1v1h-1zm1 0h1v1h-1zM44 9h1v1h-1zm116 0h1v1h-1zm1 0h1v1h-1zM43 10h1v1h-1zm120 0h1v1h-1zM43 11h1v1h-1zm122 0h1v1h-1zM42 12h1v1h-1zm124 0h1v1h-1zM42 13h1v1h-1zm125 0h1v1h-1zM41 15h1v1h-1zm0 1h1v1h-1zm128 2h1v5h-1zM38 22h1v1h-1zm0 1h1v1h-1zm131 0h1v1h-1zM37 24h1v1h-1zm0 1h1v2h-1zm131 1h1v1h-1zM37 27h16v1H37zm16 0h1v1h-1zm42 0h34v1H95zm34 0h1v1h-1zm39 0h1v1h-1zm-74 1h1v1h-1zm0 1h1v1h-1zm37 0h1v3h-1zm-78 2h1v1h-1zm40 0h1v1h-1zm-40 1h1v1h-1zm78 0h1v1h-1zm-39 1h1v1h-1zm38 0h1v1h-1zm35 1h1v1h-1zm-74 1h1v1h-1zm38 0h1v1h-1zm36 0h1v1h-1zM51 36h1v1h-1zm40 0h1v1h-1zm36 0h1v1h-1zm37 0h1v1h-1zM51 37h1v1h-1zm113 0h1v1h-1zm-41 1h1v1h-1zm1 0h1v1h-1zm39 1h1v1h-1zM49 41h1v1h-1zm113 0h1v1h-1zM48 43h1v1h-1zm113 0h1v1h-1zM48 44h1v1h-1zm112 0h1v1h-1zM47 45h1v1h-1zm0 1h1v1h-1zm112 0h1v1h-1zm-1 1h1v1h-1zM46 48h1v1h-1zm111 0h1v1h-1zm-1 1h1v1h-1zM45 50h1v1h-1zm110 0h1v1h-1zM45 51h1v1h-1zm109 0h1v1h-1zm-2 1h1v1h-1zm1 0h1v1h-1zm-2 1h1v1h-1zm-2 1h1v1h-1zM43 55h1v1h-1zm104 0h1v1h-1zM43 56h1v1h-1zm101 0h1v1h-1zm1 0h1v1h-1zM42 57h1v1h-1zm98 0h2v1h-2zm2 0h1v1h-1zM42 58h1v1h-1zm90 0h5v1h-5zm5 0h1v1h-1zm-57 3h1v1h-1zm-40 1h1v1h-1zm40 0h1v1h-1zm-40 1h1v1h-1zm39 0h1v1h-1zm-40 1h1v1h-1zm40 0h1v1h-1zm-40 1h1v1h-1zm-20 2h1v1h-1zm78 0h1v1h-1zm-79 2h1v1h-1zm0 1h1v1h-1zm-1 1h1v1h-1zm78 0h1v1h-1zm0 1h1v1h-1zm-79 1h1v1h-1zm0 1h1v1h-1zm78 0h1v1h-1zm-1 2h1v1h-1zm0 1h1v1h-1zm-79 1h1v1h-1zm78 0h1v1h-1zm-78 1h1v1h-1zm78 0h1v1h-1zm-79 2h1v1h-1zm78 0h1v1h-1zm-78 1h1v1h-1zm-1 1h1v1h-1zm78 0h1v1h-1zm0 1h1v1h-1zm-79 1h1v1h-1zm78 0h1v1h-1zm-78 1h1v1h-1zm78 0h1v1h-1zm-79 1h1v1h-1z" fill="#a59f9c"/><path d="M152 0h1v1h-1zm7 1h1v1h-1zm67 0h1v1h-1zm171 1h1v1h-1zm120 1h1v1h-1zM402 4h1v1h-1zm115 0h1v1h-1zM298 6h1v1h-1zm122 0h1v1h-1zM264 7h1v1h-1zm128 0h1v1h-1zm-69 1h1v18h-1zm186 0h1v1h-1zm-266 2h1v1h-1zm1 6h1v2h-1zm0 2h1v1h-1zm96 0h1v1h-1zm-170 1h1v1h-1zm153 7h1v1h-1zm79 0h1v6h-1zm-67 1h1v1h-1zm-114 1h1v1h-1zM27 30h1v1h-1zm375 2h1v1h-1zM43 34h1v1h-1zm280 0h1v15h-1zm89 4h1v1h-1zm-248 1h1v1h-1zm293 0h1v1h-1zm-298 8h1v1h-1zm164 2h1v1h-1zm16 0h1v1h-1zm-48 3h1v1h-1zm73 0h1v1h-1zm154 1h1v1h-1zm-371 3h1v1h-1zm120 0h1v1h-1zm-125 8h1v1h-1zm-44 3h1v1h-1zm-81 2h1v1h-1zm491 0h1v1h-1zm-14 2h1v1h-1zm-116 1h1v1h-1zm5 0h1v1h-1zm61 0h1v1h-1zm-122 1h1v1h-1zm31 3h1v1h-1zm107 0h1v1h-1zm19 0h1v1h-1zm19 0h1v1h-1zm-80 4h1v1h-1zm-30 1h1v1h-1zm34 4h1v1h-1zm-211 5h1v1h-1zm6 0h1v1h-1zm173 0h1v1h-1zm55 1h1v1h-1zm64 0h1v1h-1z" fill="#4b4b4b"/><path d="M202 1h23v1h-23zm23 0h1v1h-1zm23 0h20v1h-20zm20 0h1v1h-1zm16 0h16v1h-16zm16 0h1v1h-1zm8 0h25v1h-25zm25 0h1v1h-1zm31 0h26v1h-26zm26 0h1v1h-1zm28 0h19v1h-19zm19 0h1v1h-1zm16 0h16v1h-16zm16 0h1v1h-1zm8 0h38v1h-38zm38 0h1v1h-1zM39 2h1v1h-1zm301 0h1v1h-1zm177 0h1v1h-1zM44 6h1v1h-1zm107 0h1v1h-1zm77 1h1v1h-1zM43 8h1v1h-1zm118 0h1v1h-1zm8 7h1v1h-1zm7 3h1v1h-1zm237 9h1v2h-1zM36 28h16v1H36zm16 0h1v1h-1zm45 0h29v1H97zm29 0h1v1h-1zm287 1h1v1h-1zm89 2h1v1h-1zM51 34h1v1h-1zm-7 1h1v1h-1zm461 1h1v1h-1zm-340 1h1v1h-1zM48 41h1v1h-1zm206 1h1v1h-1zm84 5h1v1h-1zm97 0h1v1h-1zm-112 3h1v1h-1zm83 0h1v1h-1zm-94 1h1v1h-1zm12 0h1v1h-1zm81 0h1v1h-1zm-3 2h1v1h-1zm-251 1h1v1h-1zm113 1h1v1h-1zm188 1h1v1h-1zm56 14h1v1h-1zm-184 1h1v1h-1zm65 0h1v1h-1zm-287 2h1v1h-1zm138 1h1v1h-1zm221 2h1v1h-1zm19 0h1v1h-1zM7 77h1v1H7zm309 2h1v1h-1zm34 0h1v1h-1zm-96 3h1v1h-1zM11 83h1v1h-1zm-7 1h1v1H4zm308 2h1v1h-1zm110 0h1v1h-1zm-213 1h1v1h-1zm104 0h1v1h-1zm109 0h1v1h-1zm104 0h1v1h-1zm-303 1h1v1h-1zm29 0h1v1h-1zm-13 3h1v1h-1zm172 3h1v1h-1zm3 0h1v1h-1z" fill="#484848"/><path d="M270 1h1v1h-1zm123 0h1v1h-1zm-52 1h1v1h-1zm63 3h1v1h-1zM37 6h1v1h-1zm133 0h1v1h-1zm284 0h1v1h-1zM172 8h1v1h-1zm222 0h1v1h-1zM43 9h1v1h-1zm336 0h1v39h-1zm29 0h1v1h-1zm-164 4h1v1h-1zM40 16h1v1h-1zm136 0h1v1h-1zm225 3h1v1h-1zm-157 2h1v1h-1zM37 23h1v1h-1zm57 7h1v1h-1zm137 3h1v1h-1zm182 0h1v1h-1zm90 3h1v1h-1zm-158 2h1v1h-1zm56 0h1v1h-1zm-230 1h1v1h-1zm175 1h1v1h-1zm173 1h1v1h-1zm-172 1h1v1h-1zm165 1h1v1h-1zm-164 1h1v1h-1zm-182 4h1v1h-1zm213 0h1v2h-1zM45 49h1v1h-1zm234 1h1v1h-1zm100 0h1v1h-1zm63 0h1v1h-1zm-117 1h1v1h-1zm42 0h1v1h-1zm-166 1h1v1h-1zm156 0h1v1h-1zm-70 3h1v1h-1zM42 56h1v1h-1zm351 0h1v1h-1zm48 1h1v1h-1zm-302 1h1v1h-1zm-7 1h1v1h-1zM14 60h1v1h-1zm135 2h1v1h-1zM11 67h1v1h-1zm405 1h1v1h-1zm-172 1h1v1h-1zm9 0h1v1h-1zm229 0h1v1h-1zm23 0h1v1h-1zm-252 1h1v1h-1zm252 0h1v1h-1zm-288 1h1v1h-1zm219 0h1v1h-1zm-233 2h1v1h-1zm135 0h1v16h-1zM8 74h1v1H8zm474 1h1v1h-1zM92 80h1v1h-1zm409 2h1v1h-1zM11 84h1v1h-1zm411 0h1v1h-1zm-110 1h1v1h-1zm-109 1h1v1h-1zm202 0h2v1h-2zm2 0h1v1h-1zm-184 3h1v1h-1zm115 0h1v1h-1zM95 90h1v1h-1zm221 0h1v1h-1zm-39 1h1v1h-1zm198 0h1v1h-1zM0 94h1v1H0zm246 0h1v1h-1zm13 0h1v1h-1zm51 0h1v1h-1zm4 0h1v1h-1zm22 0h1v1h-1zm19 0h1v1h-1zm15 0h1v1h-1zm16 0h1v1h-1zm50 0h1v1h-1zm64 0h1v1h-1zm10 0h1v1h-1z" fill="#848484"/><path d="M153 9h1v1h-1zm1 0h1v1h-1zm4 1h1v1h-1zm1 0h1v1h-1zm2 1h1v1h-1zM44 12h1v1h-1zm119 0h1v1h-1zM43 15h1v1h-1zm123 0h1v1h-1zM42 17h1v1h-1zm-1 3h1v1h-1zm126 4h1v1h-1zm0 1h1v1h-1zm-74 1h1v1h-1zm38 0h1v1h-1zm-74 1h1v1h-1zm36 0h1v1h-1zm39 0h1v1h-1zm1 1h1v1h-1zm33 0h1v1h-1zM55 31h1v1h-1zm36 0h1v1h-1zm40 4h1v1h-1zm-78 1h1v1h-1zm36 0h1v1h-1zm41 0h1v1h-1zm-1 1h1v1h-1zm33 0h1v1h-1zM52 38h1v1h-1zm36 0h1v1h-1zm-36 1h1v1h-1zm74 0h1v1h-1zm35 0h1v1h-1zm-74 1h1v1h-1zm-36 1h1v1h-1zm109 0h1v1h-1zm-1 1h1v1h-1zm-1 2h1v1h-1zm-1 1h1v1h-1zM48 48h1v1h-1zm-1 2h1v1h-1zm105 0h1v1h-1zm-3 2h1v1h-1zM46 53h1v1h-1zm-2 4h1v1h-1zm36 0h52v1H80zm52 0h1v1h-1zm-53 2h1v1h-1zm-36 1h1v1h-1zm-1 2h1v1h-1zm36 0h1v1h-1zm-37 2h1v1h-1zm36 0h1v1h-1zm-36 1h1v1h-1zm-20 3h18v1H21zm18 0h1v1h-1zm36 0h17v1H75zm17 0h1v1h-1zm-72 1h1v1h-1zm74 0h1v1h-1zm-75 2h1v1h-1zm74 1h1v1h-1zm-76 4h1v1h-1zm73 3h1v1h-1zm-75 1h1v1h-1zm0 1h1v1h-1zm74 0h1v1h-1zm-75 2h1v1h-1zm74 1h1v1h-1zm-73 1h71v1H15zm71 0h1v1h-1z" fill="#989495"/><path d="M154 10h1v1h-1zm10 4h1v1h-1zM44 15h1v1h-1zm-3 7h1v1h-1zm125 2h1v1h-1zm-32 4h1v1h-1zm30 2h1v1h-1zm-74 1h1v1h-1zm44 0h1v1h-1zm28 4h1v1h-1zm-74 1h1v1h-1zm73 1h1v1h-1zm-74 1h1v1h-1zm73 1h1v1h-1zm-39 2h1v1h-1zm1 0h1v1h-1zm34 4h1v1h-1zm-3 3h1v1h-1zm-4 3h1v1h-1zM46 55h1v1h-1zm34 1h50v1H80zm50 0h1v1h-1zm-51 1h1v1h-1zm-36 5h1v1h-1zm33 2h1v1h-1zm16 8h1v1h-1zm-1 2h1v1h-1zm-73 2h1v1h-1z" fill="#c0ae92"/><path d="M45 12h1v1h-1zm-3 7h1v1h-1zm-2 5h1v1h-1zm90 1h1v1h-1zm36 0h1v1h-1zm-74 2h1v1h-1zm73 1h1v1h-1zM56 31h1v1h-1zm77 2h1v1h-1zm30 0h1v1h-1zm-74 1h1v1h-1zm-36 4h1v1h-1zm76 0h1v1h-1zm-42 3h1v1h-1zm70 3h1v1h-1zM50 45h1v1h-1zm-3 7h1v1h-1zm92 3h1v1h-1zm-7 1h1v1h-1zm-88 3h1v1h-1zm49 10h1v1h-1zm0 1h1v1h-1zm-74 3h1v1h-1zm71 4h1v1h-1zm-74 3h1v1h-1zm71 4h1v1h-1z" fill="#b3a693"/><path d="M157 0h1v1h-1zm125 1h1v2h-1zm80 0h1v1h-1zM164 2h1v1h-1zm235 0h1v1h-1zM282 3h1v1h-1zm64 1h1v1h-1zM37 5h1v1h-1zm325 0h1v1h-1zm77 0h1v1h-1zM284 6h1v1h-1zm80 0h1v1h-1zm73 0h1v1h-1zm-44 2h1v1h-1zm116 2h1v1h-1zm-334 2h1v1h-1zm176 2h1v1h-1zm-118 1h1v1h-1zm0 1h1v2h-1zm285 0h1v1h-1zm-285 2h1v1h-1zm118 0h1v1h-1zm50 4h1v1h-1zm-169 1h1v1h-1zm-7 4h1v1h-1zm104 0h1v1h-1zm15 2h1v1h-1zm-106 2h1v1h-1zm255 0h5v1h-5zm5 0h3v1h-3zm3 0h1v1h-1zm-265 1h1v1h-1zm266 2h1v1h-1zm-101 2h1v1h-1zm12 0h1v1h-1zM42 38h1v1h-1zm129 2h1v1h-1zm163 0h1v1h-1zm178 2h1v1h-1zm-247 1h1v1h-1zm157 0h1v1h-1zm32 3h1v1h-1zm-104 1h1v1h-1zm169 1h1v1h-1zm-168 1h1v1h-1zm-186 1h1v1h-1zm187 0h1v1h-1zm47 5h1v1h-1zm32 0h1v1h-1zm-69 1h1v1h-1zm-212 6h1v1h-1zM11 66h1v1h-1zm123 0h1v1h-1zm66 2h1v1h-1zm63 0h1v1h-1zm72 0h1v1h-1zm183 0h1v1h-1zm-318 3h1v1h-1zm46 0h1v1h-1zm17 0h1v1h-1zm72 0h1v1h-1zm170 0h1v1h-1zm13 0h1v1h-1zm-233 1h1v1h-1zm60 0h1v1h-1zm122 0h1v1h-1zm7 1h1v1h-1zm-250 1h1v11h-1zm132 0h1v1h-1zm153 0h1v1h-1zm-200 1h1v1h-1zm47 0h1v1h-1zm-106 1h1v1h-1zm262 2h1v1h-1zm-13 1h1v1h-1zm-118 1h1v1h-1zm-70 1h1v1h-1zm8 2h1v1h-1zm27 0h4v1h-4zm4 0h1v1h-1zm72 0h1v1h-1zM98 84h1v1h-1zm423 0h1v1h-1zm-297 1h1v1h-1zm89 1h1v1h-1zm96 2h1v1h-1zm110 0h1v1h-1zm-306 2h1v1h-1zm10 0h1v1h-1zm30 0h1v1h-1zm221 0h1v1h-1zM95 91h1v1h-1zm142 0h1v1h-1zm10 3h1v1h-1zm109 0h1v1h-1zm13 0h1v1h-1zm16 0h1v1h-1zm23 0h1v1h-1z" fill="#dcdcdc"/><path d="M158 0h1v1h-1zm75 1h1v1h-1zm73 0h1v2h-1zm34 0h1v1h-1zM38 2h1v1h-1zm362 0h1v1h-1zm118 0h1v3h-1zM306 3h1v2h-1zm39 0h1v1h-1zm57 0h1v1h-1zm-96 2h1v1h-1zm212 0h1v1h-1zM301 6h1v1h-1zm116 0h1v1h-1zm35 0h1v1h-1zM36 7h1v1h-1zm168 0h1v1h-1zm82 0h1v1h-1zm12 0h1v1h-1zm68 0h1v1h-1zm54 0h1v1h-1zm15 0h1v1h-1zm44 0h1v1h-1zm-87 1h1v1h-1zm16 0h1v1h-1zm-84 1h1v17h-1zm-80 1h1v1h-1zm154 2h1v1h-1zm13 1h1v1h-1zm1 2h1v1h-1zm-167 1h1v2h-1zm94 0h1v2h-1zm-162 2h1v1h-1zm68 0h1v1h-1zm94 0h1v1h-1zm179 0h1v1h-1zm-16 2h1v1h-1zM30 21h1v1h-1zm-1 2h1v1h-1zm215 1h1v1h-1zm250 0h7v1h-7zm7 0h1v1h-1zm-272 2h1v1h-1zm14 0h1v1h-1zm81 0h1v1h-1zm77 0h1v6h-1zm-179 1h1v1h-1zm125 0h1v1h-1zm-171 1h1v1h-1zm-1 3h1v1h-1zm226 1h1v1h-1zm-172 2h1v1h-1zM25 35h18v1H25zm18 0h1v1h-1zm281 0h1v13h-1zm178 1h1v1h-1zm6 0h1v1h-1zm-95 2h1v1h-1zM41 40h1v1h-1zm224 1h1v1h-1zm200 0h1v1h-1zm47 0h1v1h-1zm-216 3h1v1h-1zm115 0h1v1h-1zm-14 2h1v1h-1zm67 0h1v1h-1zm-28 1h1v1h-1zm-112 1h1v1h-1zm-52 1h1v1h-1zm66 0h1v1h-1zm86 0h1v1h-1zm38 1h1v1h-1zm-153 1h1v1h-1zm18 0h1v1h-1zm12 0h1v1h-1zm180 0h1v1h-1zm-227 1h1v1h-1zm14 0h1v1h-1zm-47 1h1v1h-1zm32 0h1v1h-1zm39 0h1v3h-1zM35 54h1v1h-1zm367 0h1v1h-1zm-2 1h1v1h-1zm57 0h1v1h-1zM34 56h1v1h-1zm230 0h1v1h-1zm66 0h1v1h-1zm-47 1h1v1h-1zm-127 2h1v1h-1zm-8 4h1v1h-1zm-3 1h1v1h-1zm-3 1h1v1h-1zM10 68h1v1h-1zm95 0h1v1h-1zm139 0h1v1h-1zm71 0h1v1h-1zm41 0h1v1h-1zm54 0h1v1h-1zm82 0h1v1h-1zm-265 1h1v1h-1zm61 0h1v1h-1zm23 0h1v1h-1zm77 0h1v1h-1zm119 0h1v1h-1zm-280 1h1v1h-1zm61 0h1v1h-1zm23 0h1v1h-1zm196 0h1v1h-1zm-232 1h1v1h-1zm115 0h1v1h-1zm102 0h1v1h-1zm-282 1h1v1h-1zm37 0h1v1h-1zm14 0h1v1h-1zm76 0h1v1h-1zm76 0h1v1h-1zm103 0h1v1h-1zm-413 1h1v1h-1zm220 0h1v1h-1zm68 0h1v1h-1zm20 0h1v1h-1zm6 3h1v1h-1zm61 0h1v1h-1zm19 0h1v1h-1zm-195 1h1v1h-1zm102 0h1v1h-1zm9 0h1v1h-1zm47 0h2v1h-2zm2 0h1v1h-1zm17 0h3v1h-3zm3 0h1v1h-1zm-161 1h1v1h-1zm70 0h1v1h-1zm24 0h1v1h-1zm-36 2h1v1h-1zm11 0h1v1h-1zm-2 2h1v1h-1zm-141 1h1v1h-1zm275 0h1v1h-1zM3 84h1v1H3zm302 1h1v1h-1zm118 0h1v1h-1zm100 0h1v1h-1zm7 0h1v1h-1zm-126 1h1v5h-1zm118 0h1v1h-1zm-113 1h1v1h-1zm7 0h1v1h-1zm-192 1h1v1h-1zm82 0h1v1h-1zm117 0h1v1h-1zm-220 1h1v1h-1zm36 1h1v1h-1zm107 0h3v1h-3zm3 0h1v1h-1zm42 0h1v1h-1zm31 0h1v1h-1zm-147 1h1v1h-1zm129 0h1v1h-1zm73 0h1v1h-1zm22 0h1v1h-1zm-294 1h1v1h-1zm17 0h1v1h-1zm66 0h1v2h-1zm232 0h1v1h-1zm4 0h2v1h-2zm2 0h1v1h-1zm-271 1h1v1h-1zm150 0h1v1h-1zm124 0h1v1h-1zM94 94h1v1h-1zm114 0h1v1h-1zm80 0h1v1h-1zm176 0h1v1h-1z" fill="#fcfcfc"/><path d="M391 1h1v1h-1zm79 0h1v1h-1zm47 4h1v1h-1zM405 6h1v1h-1zm1 1h1v1h-1zm51 2h1v29h-1zM170 20h1v1h-1zm0 1h1v1h-1zM30 23h1v1h-1zm146 0h1v1h-1zm147 4h1v1h-1zm23 0h1v1h-1zm-218 1h1v1h-1zm196 0h1v1h-1zm-95 5h1v1h-1zm228 5h1v1h-1zm56 3h1v1h-1zm-177 2h1v1h-1zm127 3h1v1h-1zm-56 3h1v1h-1zm-150 1h1v1h-1zm15 0h1v1h-1zm125 5h1v1h-1zm58 0h1v1h-1zM35 56h1v1h-1zm272 0h1v1h-1zm22 0h1v1h-1zM225 71h1v1h-1zm92 0h1v1h-1zm-16 1h1v1h-1zm109 3h1v1h-1zm-64 4h3v1h-3zm3 0h1v1h-1zm-45 1h1v1h-1zM92 81h1v1h-1zm433 2h1v1h-1zm-207 1h1v1h-1zm208 0h1v1h-1zm-137 4h1v1h-1zm-10 3h1v1h-1zm33 0h1v1h-1zM94 92h1v1h-1zm431 1h1v1h-1zm-314 1h1v1h-1z" fill="#535353"/><g fill="#9d9795"><path d="M154 7h1v1h-1zM45 8h1v1h-1zm1 0h1v1h-1zm104 0h6v1h-6zm6 0h1v1h-1zm3 0h1v1h-1zM45 9h1v2h-1zm1 0h1v1h-1zm105 0h1v1h-1zm6 0h2v1h-2zm2 0h1v1h-1zM44 10h1v1h-1zm113 0h1v1h-1zm4 0h1v1h-1zm3 0h1v2h-1zM44 11h1v1h-1zm1 0h1v1h-1zm118 0h1v1h-1zM43 12h1v1h-1zm121 0h1v1h-1zm1 0h1v1h-1zM43 13h1v1h-1zm122 0h1v1h-1zm1 0h1v1h-1zM42 14h1v1h-1zm124 0h1v1h-1zm1 0h1v1h-1zM42 15h1v1h-1zm125 0h1v1h-1zm1 1h1v9h-1zM40 17h1v3h-1zm1 0h1v1h-1zm128 0h1v1h-1zM41 18h1v1h-1zm1 0h1v1h-1zm-3 1h1v4h-1zm1 1h1v1h-1zm127 2h1v1h-1zM39 23h1v3h-1zm-1 1h1v2h-1zm131 0h1v1h-1zM40 25h18v1H40zm18 0h1v1h-1zm36 0h33v1H94zm33 0h1v1h-1zm41 0h1v1h-1zM36 26h20v1H36zm20 0h1v2h-1zm38 0h35v1H94zm35 0h1v1h-1zm-75 1h2v2h-2zm40 0h1v1h-1zm36 0h1v1h-1zm1 0h1v1h-1zm36 0h1v2h-1zM56 28h1v2h-1zm36 0h1v1h-1zm1 0h1v2h-1zm37 0h2v1h-2zm2 0h1v4h-1zm36 0h1v1h-1zM54 29h1v3h-1zm1 0h1v1h-1zm111 0h1v2h-1zm1 0h1v2h-1zM55 30h1v1h-1zm1 0h1v1h-1zm37 0h1v1h-1zm-1 1h1v1h-1zm74 0h1v2h-1zm1 0h1v1h-1zM54 32h1v1h-1zm78 0h1v2h-1zm1 0h1v1h-1zm32 0h1v1h-1zM52 33h1v4h-1zm1 0h1v1h-1zm38 0h1v1h-1zm40 0h1v1h-1zm34 0h1v1h-1zm1 0h1v1h-1zM53 34h1v1h-1zm38 0h1v1h-1zm1 0h1v1h-1zm38 0h2v1h-2zm2 0h1v1h-1zm31 0h1v4h-1zm1 0h1v1h-1zm-74 1h1v1h-1zm40 0h1v1h-1zm34 0h1v1h-1zm-74 1h1v3h-1zm38 0h1v1h-1zm1 0h1v1h-1zm-77 1h1v1h-1zm1 0h1v1h-1zm36 0h1v2h-1zm36 0h3v1h-3zm3 0h1v1h-1zm-78 1h1v4h-1zm1 0h1v1h-1zm70 0h1v1h-1zm1 0h1v1h-1zm3 0h1v1h-1zm1 0h1v1h-1zm37 0h1v1h-1zM51 39h1v1h-1zm38 0h35v1H89zm35 0h1v1h-1zm38 0h1v1h-1zm-38 1h1v1h-1zm37 0h1v2h-1zm1 0h1v1h-1zM49 42h1v2h-1zm1 0h1v2h-1zm110 0h1v1h-1zm1 0h1v1h-1zm-1 1h1v1h-1zM49 44h1v2h-1zm1 0h1v1h-1zm109 0h1v1h-1zM48 45h1v1h-1zm110 0h1v1h-1zm1 0h1v1h-1zM48 46h1v1h-1zm1 0h1v1h-1zm108 0h1v1h-1zm1 0h1v1h-1zm-3 1h2v1h-2zm2 0h1v1h-1zM47 48h1v1h-1zm108 0h1v1h-1zm1 0h1v1h-1zM46 49h1v2h-1zm108 0h1v1h-1zm1 0h1v1h-1zm-2 1h1v1h-1zm1 0h1v1h-1zM46 51h1v1h-1zm1 0h1v1h-1zm103 0h3v1h-3zm3 0h1v1h-1zM44 52h1v3h-1zm1 0h1v1h-1zm105 0h1v1h-1zm1 0h1v1h-1zM45 53h1v1h-1zm101 0h4v1h-4zm4 0h1v1h-1zm-6 1h4v1h-4zm4 0h1v1h-1zM44 55h1v1h-1zm100 0h2v1h-2zm2 0h1v1h-1zm-10 1h1v1h-1zm5 0h2v1h-2zm2 0h1v1h-1zM43 57h1v1h-1zm92 0h4v1h-4zm4 0h1v1h-1zm-96 1h1v1h-1zm1 0h1v1h-1zm36 0h51v1H80zm51 0h1v1h-1zm7 0h1v1h-1zm-97 1h1v4h-1zm1 0h1v1h-1zm38 0h50v1H80zm50 0h1v1h-1zm-88 1h1v1h-1zm38 0h1v1h-1zm1 0h1v1h-1zm-2 1h1v1h-1zm0 1h1v1h-1zm-38 1h1v1h-1zm1 0h1v1h-1zm36 0h1v4h-1zm-38 1h1v1h-1zm0 1h1v1h-1zm-2 1h1v1h-1zm1 0h1v1h-1zm38 0h1v1h-1zm-57 1h19v1H20zm19 0h1v1h-1zm38 0h19v1H77zm19 0h1v1h-1zm-77 1h1v1h-1zm1 0h1v1h-1zm74 0h2v1h-2zm2 0h1v2h-1zm-77 1h1v1h-1zm76 0h1v1h-1zm0 1h1v1h-1zm1 0h1v1h-1zm-78 1h1v1h-1zm75 0h1v1h-1zm1 0h1v2h-1zm-77 1h2v2h-2zm2 0h1v1h-1zm75 1h1v1h-1zm-77 1h1v1h-1zm1 0h1v1h-1zm75 0h1v1h-1zm-78 1h1v4h-1zm1 0h1v2h-1zm76 1h1v1h-1zm-76 1h1v2h-1zm76 0h1v1h-1zm-2 1h1v1h-1zm1 0h1v2h-1zm-76 1h1v1h-1zm1 0h1v1h-1zm-3 1h1v1h-1zm1 0h1v1h-1zm77 0h1v1h-1zm-77 1h1v1h-1zm76 0h1v1h-1zm-77 2h1v4h-1zm76 0h1v1h-1z"/><path d="M12 84h2v3h-2zm2 0h1v3h-1zm75 0h1v1h-1zm-1 1h1v2h-1zm-73 1h73v1H15zm-4 1h77v1H11zm77 0h1v1h-1z"/></g><g fill="#cfb991"><path d="M151 10h1v38h-1zm1 0h1v37h-1z"/><path d="M46 11h107v12H46zm107 0h1v35h-1zm1 1h4v29h-4zm4 0h1v28h-1zm1 1h1v25h-1zm1 0h1v23h-1zm1 1h1v20h-1zm1 0h1v18h-1zm1 1h1v15h-1z"/><path d="M45 16h119v7H45zm119 0h1v10h-1z"/><path d="M43 18h122v5H43zm122 0h1v5h-1zm1 1h1v3h-1z"/><path d="M42 20h124v1H42zm124 2h1v1h-1zM42 23h123v1H42zm123 0h1v1h-1zM42 24h87v1H42zm87 0h1v1h-1zm3 0h32v1h-32zm-73 1h32v1H59zm32 0h1v1h-1zm42 0h31v1h-31zm-73 1h31v2H60zm31 0h1v2h-1zm42 0h31v1h-31zm31 0h1v1h-1zm-29 1h28v1h-28zm-76 1h32v1H59zm32 0h1v1h-1zm45 0h27v4h-27zm-77 1h30v4H59zm30 0h1v1h-1zm75 0h1v1h-1z"/><path d="M58 30h31v3H58zm31 0h1v1h-1zm74 0h1v2h-1z"/><path d="M57 32h31v3H57zm77 0h29v1h-29zm29 0h1v1h-1zm-75 1h1v1h-1zm47 0h26v3h-26z"/><path d="M133 34h28v2h-28zm28 0h1v1h-1zM56 35h31v2H56zm31 0h1v1h-1zm46 1h27v2h-27zm27 0h1v2h-1zM54 37h32v2H54zm32 0h1v1h-1z"/><path d="M132 37h27v3h-27z"/><path d="M131 38h29v2h-29zm29 0h1v1h-1zM53 39h32v15H53zm32 0h1v1h-1z"/><path d="M130 39h28v2h-28z"/><path d="M129 40h30v1h-30zm30 0h1v1h-1zm-32 1h30v2h-30zm30 0h1v1h-1zm-72 1h1v12h-1zm1 0h1v12h-1z"/><path d="M123 42h33v2h-33z"/><path d="M87 43h69v1H87zm69 0h1v1h-1zM51 44h104v1H51zm104 0h1v1h-1zM52 45h102v1H52zm102 0h1v1h-1zM51 46h102v1H51zm102 0h1v1h-1zM51 47h101v1H51zm101 0h1v1h-1zM51 48h100v1H51zm100 0h1v1h-1zM49 49h101v1H49zm101 0h1v1h-1zM50 50h98v1H50zm98 0h2v1h-2zm2 0h1v1h-1zM48 51h98v1H48zm98 0h1v1h-1zm-97 1h95v1H49zm95 0h1v1h-1zm-97 1h94v1H47zm94 0h1v1h-1zm3 0h1v1h-1zm-96 1h88v1H48zm88 0h1v1h-1zm4 0h1v1h-1zm1 0h1v1h-1zm-93 1h31v1H48zm31 0h1v1h-1zm57 0h1v1h-1zm-89 1h32v1H47zm32 0h1v1h-1zm-32 1h30v4H47zm30 0h1v2h-1z"/><path d="M45 58h32v1H45zm1 1h31v2H46zm31 0h1v2h-1zm-32 2h32v2H45zm32 0h1v1h-1zm-33 2h32v1H44zm32 0h1v1h-1zm-32 1h30v18H44zm30 0h1v1h-1z"/><path d="M42 65h32v17H42zm32 0h1v1h-1zm0 3h1v14h-1z"/><path d="M40 70h34v12H40z"/><path d="M22 71h70v1H22zm70 0h1v1h-1zm-72 1h70v4H20zm70 0h1v1h-1zm0 1h1v1h-1zm-70 3h69v2H20zm69 0h1v1h-1z"/><path d="M18 77h70v3H18zm70 1h1v1h-1z"/><path d="M17 79h70v3H17zm70 1h1v1h-1z"/><path d="M16 81h70v1H16zm1 1h69v1H17zm69 0h1v1h-1zm1 1h1v1h-1z"/></g><path d="M302 1h1v1h-1zm0 4h1v1h-1zm166 1h1v1h-1zM36 8h1v1h-1zm170 0h1v1h-1zm38 4h1v1h-1zm167 2h1v1h-1zM33 15h1v1h-1zm379 2h1v1h-1zm-63 7h1v1h-1zm143 0h1v1h-1zM36 27h1v1h-1zm297 0h1v1h-1zm169 6h1v1h-1zm13 7h2v1h-2zm2 0h1v1h-1zM41 41h1v1h-1zm370 2h1v1h-1zm23 2h1v1h-1zm-11 1h1v1h-1zm-147 4h1v1h-1zm31 2h1v1h-1zm22 0h1v1h-1zm11 0h1v1h-1zm120 0h1v1h-1zm-237 2h1v1h-1zm118 0h1v1h-1zM35 55h1v1h-1zm188 0h1v1h-1zm-23 1h1v1h-1zm142 0h1v1h-1zm133 0h1v1h-1zm-204 1h1v1h-1zm9 0h1v1h-1zM16 59h16v1H16zm16 0h1v1h-1zm99 7h1v1h-1zm-26 1h1v1h-1zm97 1h8v1h-8zm8 0h1v1h-1zm8 0h8v1h-8zm8 0h1v1h-1zm12 0h5v1h-5zm5 0h1v1h-1zm12 0h6v1h-6zm6 0h1v1h-1zm15 0h10v1h-10zm10 0h1v1h-1zm14 0h10v1h-10zm10 0h1v1h-1zm6 0h8v1h-8zm8 0h1v1h-1zm13 0h17v1h-17zm17 0h1v1h-1zm17 0h11v1h-11zm11 0h1v1h-1zm55 0h9v1h-9zm9 0h1v1h-1zm14 0h20v1h-20zm20 0h1v1h-1zm13 0h10v1h-10zm10 0h1v1h-1zm6 0h7v1h-7zm7 0h1v1h-1zm-229 3h1v1h-1zm23 0h1v1h-1zm164 1h1v1h-1zm3 0h1v1h-1zm27 3h1v1h-1zM7 76h1v1H7zm377 1h1v1h-1zm-68 1h1v1h-1zm89 1h1v1h-1zm-54 1h1v2h-1zm-47 1h1v1h-1zm47 1h1v1h-1zm36 0h1v1h-1zM4 83h1v1H4zm519 0h1v1h-1zm-110 1h1v1h-1zm-194 1h1v1h-1zm31 1h1v1h-1zm106 0h1v1h-1zm60 0h1v1h-1zm-162 5h1v1h-1zm181 1h1v1h-1zm-228 1h1v1h-1zm53 1h1v1h-1zm49 0h1v1h-1zm72 0h1v1h-1zm13 0h1v1h-1zm22 0h1v1h-1zm95 0h1v1h-1zm13 0h1v1h-1z" fill="#afafaf"/><path d="M307 1h1v1h-1zm27 0h1v1h-1zm66 2h1v1h-1zM38 4h1v1h-1zm269 1h1v1h-1zM149 6h1v1h-1zm55 0h1v1h-1zm82 0h1v1h-1zm80 0h1v1h-1zm69 0h1v1h-1zM157 7h1v1h-1zm73 1h1v1h-1zm166 1h1v1h-1zm-230 2h1v1h-1zm1 1h1v1h-1zm244 3h1v1h-1zm-71 1h1v1h-1zm0 1h1v1h-1zm61 1h1v1h-1zm-158 6h1v1h-1zm259 0h1v1h-1zm-89 1h1v1h-1zm80 0h1v1h-1zM35 27h1v1h-1zm306 3h1v1h-1zm72 1h1v1h-1zM93 33h1v1h-1zm80 1h1v1h-1zm162 7h1v1h-1zm129 0h1v1h-1zm-176 1h1v1h-1zM46 46h1v1h-1zm465 0h1v1h-1zm-353 2h1v1h-1zm126 0h1v1h-1zm112 0h1v1h-1zm55 1h1v1h-1zM37 51h1v1h-1zm6 2h1v1h-1zm106 2h1v1h-1zm369 0h1v1h-1zm-374 2h1v1h-1zm133 0h1v1h-1zm165 0h1v1h-1zm-307 2h1v1h-1zm16 2h1v1h-1zM12 65h1v1h-1zm125 0h1v1h-1zM18 67h1v1h-1zm396 1h1v1h-1zM97 69h1v1h-1zm350 0h1v1h-1zm0 1h1v1h-1zm-344 1h1v1h-1zm183 0h1v1h-1zm23 0h1v1h-1zm200 0h1v1h-1zm-253 1h1v1h-1zm88 0h1v1h-1zm120 0h1v1h-1zm-217 1h1v1h-1zm143 0h1v1h-1zm54 0h1v17h-1zM15 74h1v1h-1zm302 2h1v1h-1zm4 0h1v1h-1zm-221 2h1v1h-1zm151 0h1v1h-1zm139 0h1v1h-1zM6 79h1v1H6zm400 1h1v1h-1zM12 81h1v1h-1zm293 2h1v1h-1zm219 1h1v1h-1zM97 85h1v1h-1zm425 0h1v1h-1zm4 1h1v1h-1zm-109 2h1v1h-1zm5 0h1v1h-1zm22 2h1v1h-1zm82 0h1v1h-1zm-270 3h1v1h-1zm4 0h1v1h-1zm121 0h1v1h-1zm66 0h1v1h-1z" fill="#5d5d5d"/><path d="M517 1h1v1h-1zM234 2h1v1h-1zm6 3h1v1h-1zm1 1h1v1h-1zm26 0h1v1h-1zM156 7h1v1h-1zm50 0h1v1h-1zm21 0h1v1h-1zm254 0h1v1h-1zM160 8h1v1h-1zm189 0h1v1h-1zm49 3h1v1h-1zm-223 2h1v1h-1zm238 11h1v1h-1zm-195 4h1v1h-1zm22 1h1v1h-1zM53 30h1v1h-1zm182 2h1v1h-1zm267 0h1v1h-1zm-336 2h1v1h-1zm-75 3h1v1h-1zm-49 2h1v1h-1zm127 4h1v1h-1zm180 3h1v1h-1zm59 2h1v1h-1zm72 3h1v1h-1zm-328 2h1v1h-1zm8 2h1v1h-1zm118 2h1v1h-1zM39 63h1v1h-1zm41 0h1v1h-1zm58 2h1v1h-1zm275 3h1v1h-1zm-202 3h1v1h-1zm159 0h1v1h-1zm147 0h1v1h-1zm-314 3h1v11h-1zm99 1h1v1h-1zM14 77h1v1h-1zm79 1h1v1h-1zm251 0h1v1h-1zm63 3h1v1h-1zM98 83h1v1h-1zm157 0h1v1h-1zm1 0h1v1h-1zm-53 2h1v1h-1zm103 1h1v1h-1zm-87 1h1v1h-1zm-1 2h1v1h-1zm165 0h1v1h-1zm146 1h1v1h-1zm-192 1h1v1h-1zm55 0h1v1h-1zm21 0h1v1h-1zm-19 1h1v1h-1zm134 1h1v1h-1z" fill="#7c7c7c"/><path d="M39 0h1v1h-1zm432 1h1v1h-1zM247 2h1v2h-1zm0 2h1v1h-1zm224 1h1v1h-1zM308 6h1v1h-1zM205 7h1v1h-1zm92 0h1v1h-1zm110 0h1v1h-1zm14 0h1v1h-1zm59 0h1v1h-1zm-15 1h1v1h-1zm-291 2h1v1h-1zm2 4h1v1h-1zm334 0h1v1h-1zm2 4h5v1h-5zm5 0h1v1h-1zm-166 1h1v1h-1zm152 0h1v1h-1zm-1 2h1v1h-1zm-101 3h1v1h-1zm0 1h1v1h-1zm-178 2h1v1h-1zM25 33h1v1h-1zm318 0h1v1h-1zm58 1h1v1h-1zm-57 1h1v1h-1zm1 2h1v1h-1zm-173 1h1v1h-1zm293 0h1v1h-1zm-119 1h1v1h-1zm54 1h1v1h-1zm-113 3h1v1h-1zm-118 1h1v1h-1zm253 0h1v1h-1zm12 0h1v1h-1zm-148 1h1v1h-1zM38 47h1v1h-1zm217 1h1v1h-1zm28 0h1v1h-1zm110 1h1v1h-1zm47 0h1v1h-1zm-128 1h1v1h-1zm69 0h7v1h-7zm7 0h1v1h-1zm106 0h13v1h-13zm13 0h1v1h-1zm12 0h1v1h-1zm-299 1h1v1h-1zm186 0h1v1h-1zm72 0h1v1h-1zM36 52h1v1h-1zm222 0h1v1h-1zm100 0h1v1h-1zm-72 4h1v1h-1zm20 0h1v1h-1zm145 1h1v1h-1zM14 59h1v1h-1zm-1 2h1v1h-1zm128 4h1v1h-1zm185 3h1v1h-1zm30 1h1v1h-1zm52 0h1v1h-1zm-192 2h1v1h-1zm39 1h1v1h-1zm45 0h1v1h-1zm105 0h1v1h-1zm9 0h1v1h-1zm89 0h1v1h-1zm-202 2h1v1h-1zm16 0h1v1h-1zm74 0h1v2h-1zM7 75h1v1H7zm95 0h1v1h-1zm302 0h1v1h-1zm-13 1h1v1h-1zm28 1h2v1h-2zm2 0h1v1h-1zm-32 4h1v1h-1zM99 82h1v1h-1zm402 1h1v1h-1zm-253 1h1v1h-1zm132 0h1v1h-1zm149 0h1v1h-1zm-9 1h1v1h-1zm-139 1h1v1h-1zm147 0h1v1h-1zm-304 1h1v1h-1zm158 1h1v1h-1zM96 89h1v1h-1zm315 1h1v1h-1zm-76 1h1v1h-1zm-60 3h1v1h-1zm40 0h1v1h-1z" fill="#eee"/><path d="M41 0h1v12h-1z"/><path d="M40 1h117v4H40zm117 0h1v5h-1zm1 1h3v4h-3zm3 0h1v5h-1zm40 0h30v3h-30zm30 0h1v6h-1zm17 0h21v2h-21zm21 0h1v3h-1zm14 0h18v2h-18zm18 0h1v3h-1zm7 0h30v3h-30zm30 0h1v6h-1zm25 0h32v3h-32zm32 0h1v5h-1zm22 0h21v3h-21zm21 0h1v2h-1zm14 0h17v3h-17zm17 0h1v3h-1zm7 0h40v3h-40zm40 0h1v14h-1z"/><path d="M39 3h125v2H39zm125 0h1v6h-1zm68 0h3v6h-3zm3 0h1v28h-1zm104 0h3v7h-3zm3 0h1v25h-1zm54 0h3v5h-3zm3 0h1v8h-1zM165 4h1v5h-1zm1 0h1v6h-1zm70 0h1v27h-1zm1 0h1v26h-1zm11 0h21v1h-21zm35 0h18v1h-18zm60 0h1v24h-1zm1 0h1v23h-1zm56 0h1v9h-1zm1 0h1v12h-1zm37 0h1v1h-1z"/><path d="M38 5h130v1H38zm130 0h1v7h-1zm33 0h38v1h-38zm38 0h1v24h-1zm10 0h20v1h-20zm20 0h1v1h-1zm15 0h17v1h-17zm17 0h1v1h-1zm7 0h38v1h-38zm38 0h1v21h-1zm17 0h40v1h-40zm40 0h1v47h-1zm14 0h20v1h-20zm20 0h1v1h-1zm15 0h17v1h-17zm17 0h1v1h-1zm7 0h40v1h-40zM38 6h5v3h-5zm5 0h1v1h-1z"/><path d="M155 6h14v1h-14zm14 0h1v8h-1zm36 0h35v1h-35zm35 0h1v22h-1zm13 0h12v1h-12zm12 0h1v1h-1zm22 0h10v1h-10zm10 0h1v1h-1zm15 0h35v1h-35zm35 0h1v19h-1zm20 0h37v1h-37zm37 0h1v45h-1zm17 0h12v1h-12zm12 0h1v1h-1zm23 0h9v1h-9zm9 0h1v1h-1zm15 0h36v1h-36zM37 7h6v2h-6zm6 0h1v1h-1z"/><path d="M160 7h10v1h-10zm10 0h1v9h-1zm37 0h9v48h-9zm9 0h1v48h-1zm13 0h12v1h-12zm12 0h1v20h-1zm14 0h8v38h-8zm8 0h1v47h-1zm26 0h6v39h-6zm6 0h1v35h-1zm19 0h8v48h-8zm8 0h1v48h-1zm14 0h11v1h-11zm33 0h9v48h-9zm9 0h1v48h-1zm15 0h12v1h-12zm12 0h1v43h-1zm18 0h9v36h-9zm9 0h1v47h-1zm26 0h5v41h-5zm5 0h1v38h-1zm19 0h9v48h-9zm9 0h1v48h-1zm18 0h7v1h-7z"/><path d="M163 8h8v1h-8zm8 0h1v29h-1zm60 0h10v1h-10zm107 0h10v1h-10zm10 0h1v16h-1zm48 0h10v1h-10zm10 0h1v41h-1zm104 0h6v2h-6zM37 9h5v3h-5zm5 0h1v1h-1z"/><path d="M164 9h8v1h-8zm8 0h1v26h-1zm60 0h10v1h-10zm10 0h1v16h-1zm103 0h3v16h-3zm52 0h10v1h-10zm10 0h1v39h-1zM36 10h5v4h-5z"/><path d="M166 10h7v1h-7zm7 0h1v23h-1zm60 0h9v1h-9zm106 0h10v1h-10zm10 0h1v12h-1zm49 0h10v1h-10zm10 0h1v37h-1zm102 0h6v1h-6zm-343 1h6v1h-6zm67 0h9v5h-9zm9 0h1v12h-1zm97 0h9v2h-9z"/><path d="M399 11h10v1h-10zm10 0h1v35h-1zm102 0h5v2h-5zM35 12h6v2h-6zm6 0h1v1h-1zm127 0h6v1h-6zm6 0h1v18h-1zm228 0h7v10h-7zm-62 1h9v1h-9z"/><path d="M400 13h9v1h-9zm111 0h5v1h-5zM35 14h5v2h-5zm5 0h1v1h-1zm129 0h5v1h-5zm172 0h9v8h-9zm9 0h1v3h-1zm60 0h1v29h-1zm102 0h4v2h-4z"/><path d="M34 15h5v3h-5zm141 0h1v11h-1zM39 16h1v1h-1zm131 0h5v1h-5zm64 0h9v9h-9zm167 0h10v1h-10zm10 0h1v25h-1zm101 0h5v1h-5zm5 0h1v1h-1z"/><path d="M33 17h5v4h-5zm317 0h1v1h-1zM38 18h1v1h-1z"/><path d="M32 19h5v4h-5zm472 1h2v15h-2zm2 0h1v15h-1zM37 21h1v1h-1zm303 0h9v3h-9zm72 0h1v15h-1z"/><path d="M503 21h3v13h-3zM31 22h5v4h-5zm318 0h1v1h-1zm53 0h10v1h-10zM36 23h1v1h-1zm207 0h1v1h-1z"/><path d="M30 24h5v9h-5zm203 0h9v3h-9zm106 0h9v1h-9zm9 0h1v1h-1zm-178 1h5v5h-5z"/><path d="M232 25h10v2h-10zm10 0h1v1h-1zm96 0h9v1h-9zm9 0h1v1h-1zM35 26h1v1h-1zm140 0h1v1h-1z"/><path d="M231 26h10v2h-10zm106 0h9v1h-9zm9 0h1v1h-1zm146 0h14v4h-14zM29 27h5v6h-5z"/><path d="M230 27h11v1h-11zm11 0h1v1h-1zm95 0h9v1h-9zm9 0h1v1h-1zm-176 1h5v5h-5zm57 0h14v1h-14zm14 0h1v1h-1zm89 0h14v1h-14zm14 0h1v1h-1zM28 29h24v4H28zm24 0h1v1h-1zm44 0h33v4H96zm33 0h1v3h-1zm88 0h22v1h-22zm22 0h1v1h-1zm84 0h18v3h-18zm18 0h1v1h-1zM52 30h1v1h-1z"/><path d="M95 30h35v2H95zm35 0h1v1h-1zm44 0h1v1h-1zm43 0h21v1h-21zm21 0h1v1h-1zm254 0h14v1h-14zM27 31h24v2H27zm141 0h5v4h-5zm49 0h19v1h-19zm19 0h1v1h-1zM94 32h35v1H94zm35 0h1v1h-1zm88 0h16v1h-16zm16 0h1v1h-1zm90 0h18v1h-18zm18 0h1v20h-1zM26 33h25v1H26zm25 0h1v1h-1zm43 0h34v1H94zm34 0h1v1h-1zm45 0h1v1h-1zm159 0h9v1h-9zM45 34h5v3h-5zm5 0h1v1h-1zm44 0h33v1H94zm33 0h1v1h-1z"/><path d="M167 34h5v3h-5zm165 0h10v1h-10zm10 0h1v20h-1zm161 0h3v1h-3zM50 35h1v1h-1zm43 0h33v1H93zm33 0h1v1h-1zm46 0h1v1h-1zm161 0h9v1h-9zm171 0h2v1h-2zm2 0h1v1h-1zM44 36h5v4h-5zm49 0h32v1H93zm32 0h1v1h-1z"/><path d="M166 36h5v3h-5zm167 0h10v1h-10zm10 0h1v19h-1zm59 0h10v5h-10zm10 0h1v1h-1zM49 37h1v1h-1zm43 0h29v1H92zm29 0h1v1h-1zm50 0h1v1h-1zm163 0h9v1h-9zM43 38h5v4h-5z"/><path d="M334 38h10v1h-10zm10 0h1v17h-1zm-179 1h5v3h-5zm5 0h1v1h-1zm165 0h9v1h-9zM42 40h6v2h-6zm6 0h1v1h-1z"/><path d="M164 40h5v4h-5zm171 0h10v1h-10zm10 0h1v15h-1z"/><path d="M336 41h10v1h-10zm10 0h1v14h-1zm55 0h10v2h-10zm10 0h1v1h-1zm46 0h6v7h-6zm57 0h4v14h-4zm4 0h1v6h-1zM42 42h5v2h-5zm5 0h1v1h-1zm116 0h6v2h-6zm6 0h1v1h-1zm126 0h1v1h-1zm41 0h10v1h-10z"/><path d="M513 42h5v13h-5zM41 43h5v4h-5zm223 0h1v11h-1zm24 0h6v6h-6zm49 0h10v1h-10zm10 0h1v12h-1zm53 0h10v3h-10zm10 0h1v1h-1zm13 0h9v1h-9zM46 44h1v1h-1zm116 0h6v1h-6zm6 0h1v1h-1zm169 0h10v1h-10zm87 0h8v2h-8z"/><path d="M40 45h5v4h-5zm122 0h5v2h-5zm5 0h1v1h-1zm88 0h9v1h-9zm83 0h10v1h-10zm10 0h1v10h-1zm51 0h10v2h-10zm34 0h1v9h-1zm23 0h7v3h-7zm7 0h1v1h-1zm49 0h6v10h-6z"/><path d="M161 46h5v2h-5zm95 0h9v1h-9zm9 0h1v9h-1zm22 0h7v3h-7zm7 0h1v1h-1zm44 0h10v1h-10zm71 0h1v1h-1zm15 0h9v1h-9zm31 0h7v3h-7zM45 47h1v1h-1z"/><path d="M160 47h6v1h-6zm6 0h1v1h-1zm90 0h10v1h-10zm10 0h1v8h-1zm20 0h7v3h-7zm53 0h10v1h-10zm10 0h1v8h-1zm49 0h10v1h-10zm10 0h1v1h-1zm17 0h9v1h-9zm9 0h1v8h-1zm77 0h7v8h-7zm7 0h1v1h-1zM39 48h5v3h-5zm120 0h6v2h-6zm6 0h1v1h-1z"/><path d="M257 48h10v1h-10zm10 0h1v7h-1zm18 0h8v2h-8zm54 0h10v1h-10zm58 0h10v1h-10zm10 0h1v1h-1zm18 0h10v1h-10zm10 0h1v7h-1zm18 0h9v1h-9zm9 0h1v1h-1zM44 49h1v1h-1zm114 0h6v2h-6z"/><path d="M257 49h11v1h-11zm11 0h1v6h-1zm16 0h9v1h-9zm9 0h1v1h-1zm47 0h10v1h-10zm10 0h1v6h-1zm46 0h10v1h-10zm10 0h1v1h-1zm20 0h10v1h-10zm10 0h1v6h-1zm16 0h9v2h-9zm9 0h1v1h-1zM38 50h5v4h-5zm119 0h7v1h-7zm7 0h1v1h-1z"/><path d="M258 50h12v1h-12zm12 0h1v6h-1zm12 0h10v1h-10zm10 0h1v1h-1zm48 0h10v1h-10zm54 0h11v1h-11zm11 0h1v1h-1zm21 0h13v1h-13zm13 0h1v6h-1zm11 0h10v2h-10zm60 0h7v5h-7zM43 51h1v1h-1zm113 0h7v1h-7zm7 0h1v1h-1z"/><path d="M259 51h32v1h-32zm32 0h1v1h-1zm22 0h10v4h-10zm10 0h1v4h-1zm28 0h1v4h-1zm1 0h1v4h-1zm37 0h15v1h-15zm15 0h1v1h-1zm23 0h33v1h-33zm33 0h1v1h-1zm49 0h8v4h-8zM37 52h5v4h-5zm118 0h7v1h-7zm7 0h1v1h-1zm41 0h17v3h-17zm17 0h1v3h-1zm40 0h30v1h-30zm30 0h1v1h-1z"/><path d="M309 52h18v3h-18zm18 0h1v3h-1zm14 0h14v1h-14zm14 0h1v3h-1zm10 0h38v1h-38zm38 0h1v1h-1zm25 0h31v1h-31zm31 0h1v1h-1zm19 0h39v3h-39zm-325 1h8v1h-8zm8 0h1v1h-1zm40 0h21v2h-21zm21 0h1v2h-1zm39 0h28v1h-28zm28 0h1v1h-1z"/><path d="M308 53h20v2h-20zm20 0h1v2h-1zm25 0h4v2h-4zm4 0h1v2h-1zm6 0h38v1h-38zm38 0h1v1h-1zm29 0h28v1h-28zm28 0h1v1h-1zm18 0h41v2h-41zM42 54h1v1h-1zm110 0h8v1h-8zm8 0h1v1h-1zm103 0h24v1h-24zm24 0h1v1h-1z"/><path d="M342 54h15v1h-15zm21 0h36v1h-36zm36 0h1v1h-1zm32 0h25v1h-25zm25 0h1v1h-1zM36 55h5v3h-5zm115 0h8v1h-8zm8 0h1v1h-1zm42 0h21v1h-21zm21 0h1v1h-1zm43 0h20v1h-20zm20 0h1v1h-1zm23 0h20v1h-20zm20 0h1v1h-1zm15 0h14v1h-14zm14 0h1v1h-1zm6 0h32v1h-32zm32 0h1v1h-1zm39 0h20v1h-20zm20 0h1v1h-1zm22 0h41v1h-41zm41 0h1v1h-1zM41 56h1v1h-1zm108 0h9v1h-9zm9 0h1v1h-1zm111 0h12v1h-12zm12 0h1v1h-1zm157 0h12v1h-12zm12 0h1v1h-1z"/><path d="M35 57h5v4h-5zm111 0h11v1h-11zm11 0h1v1h-1zM40 58h1v1h-1zm102 0h13v1h-13zm13 0h1v1h-1zm-16 1h15v1h-15zm15 0h1v1h-1z"/><path d="M15 60h24v3H15zm116 0h21v1h-21zm21 0h1v1h-1zM39 61h1v1h-1zm43 0h68v1H82zm68 0h1v1h-1z"/><path d="M14 62h24v2H14zm68 0h66v1H82zm66 0h1v1h-1zM38 63h1v1h-1zm43 0h64v1H81zm64 0h1v1h-1zM13 64h24v1H13zm24 0h1v1h-1zm44 0h60v1H81zm60 0h1v1h-1zM13 65h5v2h-5zm5 0h1v1h-1zm19 0h1v1h-1zm43 0h1v1h-1zm19 0h35v1H99zm35 0h1v1h-1z"/><path d="M12 66h5v4h-5zm87 0h5v4h-5zm5 0h1v2h-1zm-87 1h1v1h-1z"/><path d="M11 68h5v5h-5zm87 0h6v2h-6zm6 0h1v1h-1zm97 1h10v1h-10zm10 0h1v1h-1zm6 0h9v1h-9zm9 0h1v1h-1zm12 0h5v1h-5zm5 0h1v24h-1zm11 0h8v1h-8zm8 0h1v1h-1zm14 0h10v1h-10zm10 0h1v1h-1zm13 0h11v1h-11zm11 0h1v1h-1zm6 0h9v1h-9zm9 0h1v1h-1zm11 0h18v1h-18zm18 0h1v6h-1zm16 0h15v1h-15zm15 0h1v23h-1zm25 0h8v1h-8zm8 0h1v5h-1zm18 0h10v1h-10zm10 0h1v1h-1zm14 0h21v1h-21zm21 0h1v6h-1zm12 0h11v1h-11zm11 0h1v1h-1zm5 0h8v1h-8zm8 0h1v1h-1zM16 70h1v1h-1zm82 0h5v2h-5zm5 0h1v1h-1zm98 0h10v1h-10zm10 0h1v1h-1zm6 0h9v1h-9zm9 0h1v1h-1z"/><path d="M238 70h6v1h-6zm6 0h1v8h-1zm10 0h8v1h-8zm8 0h1v1h-1zm14 0h10v1h-10zm10 0h1v1h-1zm13 0h11v1h-11zm11 0h1v1h-1zm6 0h9v1h-9zm9 0h1v1h-1zm11 0h18v1h-18zm34 0h17v1h-17zm17 0h1v11h-1zm22 0h11v1h-11zm11 0h1v5h-1zm16 0h10v1h-10zm10 0h1v1h-1zm15 0h20v1h-20zm32 0h11v1h-11zm11 0h1v1h-1zm5 0h8v1h-8zm8 0h1v1h-1zM10 71h5v4h-5zm87 0h5v3h-5zm106 0h6v1h-6zm6 0h1v1h-1zm11 0h3v19h-3zm3 0h1v1h-1zm16 0h5v1h-5zm17 0h4v1h-4zm4 0h1v1h-1zm19 0h5v22h-5zm5 0h1v22h-1zm17 0h6v1h-6zm6 0h1v16h-1zm12 0h4v1h-4zm4 0h1v1h-1zm15 0h16v1h-16z"/><path d="M372 71h16v1h-16zm16 0h1v9h-1zm19 0h4v2h-4zm4 0h1v1h-1zm4 0h5v1h-5zm24 0h5v22h-5zm5 0h1v1h-1zm17 0h20v1h-20zm35 0h6v1h-6zm6 0h1v11h-1zm9 0h4v1h-4zm4 0h1v1h-1zm-413 1h1v1h-1zm102 0h4v16h-4zm4 0h1v20h-1zm32 0h5v1h-5zm5 0h1v6h-1zm12 0h2v21h-2zm2 0h1v21h-1zm43 0h4v1h-4zm4 0h1v12h-1zm13 0h3v3h-3zm3 0h1v1h-1zm17 0h4v21h-4zm4 0h1v21h-1zm9 0h2v2h-2zm21 0h4v21h-4zm4 0h1v21h-1z"/><path d="M384 72h5v1h-5zm5 0h1v7h-1zm30 0h1v3h-1zm42 0h2v3h-2zm2 0h1v1h-1zm5 0h5v21h-5zm5 0h1v21h-1zm5 0h3v1h-3zm19 0h4v1h-4zm4 0h1v8h-1zm10 0h3v2h-3zm3 0h1v1h-1zM9 73h6v2H9zm6 0h1v1h-1zm81 0h5v4h-5zm145 0h5v5h-5zm5 0h1v7h-1zm56 0h5v1h-5zm84 0h3v7h-3zm20 0h4v6h-4zm4 0h1v1h-1zm53 0h1v1h-1zm16 0h2v2h-2z"/><path d="M497 73h5v1h-5zm-396 1h1v1h-1zm146 0h1v7h-1zm56 0h4v2h-4zm49 0h2v1h-2zm53 0h4v3h-4zm13 0h2v1h-2zm80 0h4v1h-4zm12 0h3v2h-3zm3 0h1v1h-1zM9 75h5v2H9zm5 0h1v1h-1zm81 0h5v4h-5zm153 0h1v7h-1zm60 0h1v15h-1zm10 0h3v3h-3zm3 0h1v1h-1zm32 0h2v1h-2zm2 0h1v1h-1zm64 0h1v1h-1zm1 0h1v1h-1zm40 0h2v1h-2zm2 0h1v1h-1zm17 0h2v1h-2zm2 0h1v1h-1zm17 0h5v1h-5zm5 0h1v18h-1z"/><path d="M8 76h5v3H8zm295 0h5v1h-5zm107 0h1v6h-1zm89 0h4v1h-4zm10 0h3v2h-3zm3 0h1v1h-1zM13 77h1v1h-1zm87 0h1v1h-1zm149 0h1v6h-1zm55 0h4v2h-4zm101 0h5v1h-5zm94 0h5v1h-5zm5 0h1v16h-1z"/><path d="M7 78h5v4H7zm87 0h5v3h-5zm147 0h9v1h-9zm9 0h1v7h-1zm59 0h1v15h-1zm8 0h3v2h-3zm3 0h1v1h-1zm91 0h1v4h-1zm1 0h1v5h-1zm88 0h4v1h-4zm8 0h3v1h-3zm3 0h1v1h-1zM12 79h1v1h-1zm87 0h1v1h-1zm142 0h2v14h-2zm10 0h1v7h-1zm53 0h5v1h-5zm80 0h5v1h-5zm5 0h1v1h-1z"/><path d="M406 79h9v1h-9zm9 0h1v5h-1zm85 0h5v1h-5zm5 0h1v14h-1zm3 0h2v2h-2zm2 0h1v1h-1zM6 80h5v4H6zm87 0h5v4h-5zm153 0h6v1h-6zm6 0h1v7h-1zm53 0h4v2h-4zm11 0h3v3h-3zm3 0h1v1h-1zm25 0h6v1h-6zm6 0h1v2h-1zm34 0h4v1h-4zm4 0h1v1h-1z"/><path d="M407 80h10v1h-10zm10 0h1v6h-1zm84 0h4v1h-4zm6 0h2v3h-2zM98 81h1v1h-1zm149 0h5v1h-5zm63 0h1v12h-1zm34 0h6v1h-6zm38 0h5v4h-5zm5 0h1v1h-1z"/><path d="M408 81h11v1h-11zm11 0h1v10h-1zm87 0h3v2h-3zm3 0h1v1h-1zM5 82h6v2H5zm6 0h1v1h-1zm237 0h5v1h-5zm5 0h1v6h-1zm52 0h5v1h-5zm45 0h1v1h-1zm28 0h7v1h-7z"/><path d="M410 82h10v1h-10zm10 0h1v9h-1zm82 0h6v1h-6zM92 83h5v3h-5zm157 0h5v1h-5zm5 0h1v7h-1zm61 0h3v2h-3zm3 0h1v1h-1zm60 0h8v1h-8z"/><path d="M412 83h9v1h-9zm9 0h1v6h-1zm85 0h2v10h-2zm2 0h1v1h-1zM5 84h5v2H5zm5 0h1v1h-1zm87 0h1v1h-1zm158 0h4v7h-4zm51 0h5v1h-5zm5 0h1v9h-1zm104 0h6v1h-6zm108 0h1v1h-1zm4 0h1v1h-1z"/><path d="M4 85h5v8H4zm87 0h5v4h-5zm159 0h9v1h-9zm65 0h2v3h-2zm2 0h1v1h-1zm65 0h5v1h-5zm5 0h1v8h-1zm29 0h5v1h-5zm105 0h1v1h-1zM9 86h1v1H9zm87 0h1v1h-1zm155 0h8v1h-8z"/><path d="M314 86h2v5h-2zm69 0h4v2h-4zm34 0h4v1h-4zM3 87h5v6H3zm87 0h5v4h-5zm162 0h7v1h-7zm55 0h4v1h-4zm46 0h2v6h-2zm2 0h1v6h-1zm33 0h1v6h-1zm17 0h2v4h-2zm2 0h1v5h-1zm11 0h3v4h-3zm102 0h1v3h-1zm-316 1h5v1h-5zm5 0h1v5h-1zm44 0h6v1h-6z"/><path d="M312 88h4v3h-4zm4 0h1v1h-1zm67 0h5v1h-5zm25 0h1v5h-1zm122 0h1v1h-1zM9 89h86v2H9zm86 0h1v1h-1zm110 0h4v1h-4zm14 0h3v2h-3zm165 0h5v1h-5zm5 0h1v4h-1zm32 0h1v1h-1zm109 0h1v1h-1z"/><path d="M2 90h92v3H2zm203 0h5v1h-5zm5 0h1v3h-1zm8 0h4v1h-4zm4 0h1v1h-1zm32 0h5v1h-5zm54 0h7v1h-7zm44 0h3v3h-3zm32 0h5v1h-5zm25 0h1v3h-1zm8 0h3v1h-3zm103 0h1v1h-1zM94 91h1v1h-1z"/><path d="M206 91h6v1h-6zm6 0h1v2h-1zm4 0h5v1h-5zm5 0h1v1h-1zm19 0h3v2h-3zm15 0h4v1h-4zm57 0h3v2h-3zm3 0h1v1h-1zm63 0h1v2h-1zm8 0h4v2h-4zm4 0h1v2h-1zm15 0h5v1h-5zm5 0h1v2h-1zm6 0h4v1h-4zm4 0h1v1h-1zm101 0h1v1h-1zm8 0h1v1h-1zM1 92h92v1H1z"/><path d="M207 92h13v1h-13zm13 0h1v1h-1zm18 0h8v1h-8zm8 0h1v1h-1zm10 0h3v1h-3zm20 0h10v1h-10zm10 0h1v1h-1zm50 0h19v1h-19zm34 0h10v1h-10zm10 0h1v1h-1zm5 0h8v1h-8zm8 0h1v1h-1zm13 0h12v1h-12zm12 0h1v1h-1zm18 0h10v1h-10zm10 0h1v1h-1zm20 0h10v1h-10zm10 0h1v1h-1zm24 0h10v1h-10zm10 0h1v1h-1zm18 0h1v1h-1zM1 93h92v1H1zm92 0h1v1h-1zm116 0h9v1h-9zm9 0h1v1h-1zm20 0h8v1h-8zm8 0h1v1h-1zm11 0h2v1h-2zm2 0h1v1h-1zm17 0h10v1h-10zm10 0h1v1h-1zm23 0h5v1h-5zm5 0h1v1h-1zm22 0h19v1h-19zm19 0h1v1h-1zm15 0h10v1h-10zm10 0h1v1h-1zm6 0h7v1h-7zm7 0h1v1h-1zm15 0h9v1h-9zm9 0h1v1h-1zm19 0h10v1h-10zm10 0h1v1h-1zm20 0h9v1h-9zm9 0h1v1h-1zm25 0h10v1h-10zm10 0h1v1h-1zm13 0h1v1h-1zm4 0h1v1h-1z"/><g fill="#282726"><path d="M150 0h1v1h-1zm163 7h1v1h-1zM42 10h1v1h-1zm475 1h1v3h-1zm-167 1h1v1h-1zm-175 2h1v1h-1zm342 0h1v1h-1zm-10 6h1v1h-1zm-278 7h1v1h-1zM95 29h1v1h-1zm32 6h1v1h-1zm216 0h1v1h-1zm160 0h1v1h-1zM49 38h1v1h-1zm352 2h1v1h-1zm56 0h1v1h-1zm-23 6h1v1h-1zM39 47h1v1h-1zm356 2h1v1h-1zm30 0h1v1h-1zm85 0h1v1h-1zm-49 1h1v1h-1zm57 0h1v1h-1zm-301 1h1v1h-1zm41 0h1v1h-1zm1 1h1v1h-1zm97 0h1v1h-1zm-15 1h1v1h-1zm-34 1h1v1h-1zm22 0h1v1h-1zm-43 1h1v1h-1zm21 0h1v1h-1zm129 1h1v1h-1zm-291 1h1v1h-1zm-8 2h1v1h-1zm-56 3h1v1h-1zm54 3h1v1h-1zm102 4h1v1h-1zm0 1h1v1h-1zm171 0h1v1h-1zm-108 1h1v1h-1zm121 0h1v3h-1zm89 0h1v1h-1zm-264 1h1v1h-1zm-6 1h1v1h-1zm144 0h1v1h-1zm-66 1h1v1h-1zm72 0h1v1h-1zm31 0h1v1h-1zm82 0h1v1h-1zM8 75h1v1H8zm93 0h1v1h-1zm318 1h1v1h-1zm85 0h1v1h-1zm-99 2h1v1h-1zm-61 1h1v1h-1zm-34 1h1v1h-1zm73 0h1v1h-1zm-64 1h1v1h-1zm95 3h1v1h-1zM10 85h1v1h-1zm520 2h1v1h-1zM11 88h77v1H11zm77 0h1v1h-1zm438 0h1v1h-1zm-210 1h1v1h-1zm208 1h1v1h-1zm-2 2h1v1h-1zm-314 1h1v1h-1zm29 0h1v1h-1zm287 0h1v1h-1zm-312 1h2v1h-2zm2 0h1v1h-1zm198 0h1v1h-1zm1 0h1v1h-1z"/></g><g fill="#1f1f1f"><path d="M158 1h1v1h-1zm74 1h1v1h-1zm164 0h1v1h-1zm74 0h1v2h-1zM238 4h1v1h-1zm232 0h1v1h-1zm-4 2h1v1h-1zM348 7h1v1h-1zM242 8h1v1h-1zm12 0h1v32h-1zm210 0h1v28h-1zm-65 4h1v1h-1zm118 3h1v1h-1zm-347 2h1v1h-1zm232 6h1v1h-1zm-232 1h1v1h-1zm54 4h1v1h-1zm103 0h1v1h-1zm-197 3h1v1h-1zm211 0h1v1h-1zm-107 1h1v1h-1zm-67 1h1v1h-1zM44 34h1v1h-1zm84 0h1v1h-1zm336 2h1v1h-1zm-120 1h1v1h-1zm68 0h1v1h-1zm-241 1h1v1h-1zm83 2h1v1h-1zm170 7h1v1h-1zm30 0h1v1h-1zm64 2h1v1h-1zm-189 6h1v1h-1zm104 0h1v1h-1zm-150 1h1v1h-1zM82 60h1v1h-1zm-64 6h1v1h-1zm79 4h1v1h-1zm258 0h1v2h-1zm-77 1h1v1h-1zm7 0h1v1h-1zm23 0h1v1h-1zm47 1h1v1h-1zm51 0h1v1h-1zm90 0h1v1h-1zm18 1h1v1h-1zm-93 2h1v1h-1zM12 80h1v1h-1zm87 0h1v1h-1zm281 1h1v1h-1zm122 2h1v1h-1zM91 84h1v1h-1zm158 0h1v1h-1zm57 1h1v1h-1zm223 0h1v1h-1zm-147 1h1v1h-1zm142 1h1v1h-1zm-320 2h1v1h-1zm217 1h1v1h-1zm-83 1h1v1h-1zm34 0h1v1h-1zm66 0h1v1h-1zm64 0h1v1h-1zm-215 1h1v1h-1zm0 1h1v1h-1z"/></g><g fill="#3d3d3d"><path d="M269 1h1v1h-1zm148 0h1v1h-1zm21 0h1v1h-1zm14 0h1v1h-1zm64 0h1v1h-1zM307 2h1v2h-1zm0 2h1v1h-1zm38 0h1v1h-1zM152 6h1v1h-1zm114 0h1v1h-1zm189 0h1v1h-1zM323 7h1v1h-1zm194 0h1v3h-1zM313 9h1v39h-1zm204 1h1v1h-1zM40 15h1v1h-1zm300 4h1v1h-1zm72 0h1v1h-1zm95 2h1v13h-1zm-168 2h1v1h-1zm10 0h1v1h-1zm143 2h1v1h-1zM53 28h1v1h-1zm169 0h1v1h-1zm101 5h1v1h-1zm79 0h1v1h-1zm105 1h1v1h-1zm-341 1h1v1h-1zm338 1h1v1h-1zm-381 1h1v1h-1zm341 2h1v1h-1zm-199 6h1v1h-1zm72 0h1v1h-1zm-82 1h1v1h-1zm58 2h1v2h-1zm123 0h1v1h-1zM38 49h1v1h-1zm275 1h1v1h-1zm40 1h1v1h-1zm15 0h1v1h-1zm150 1h1v1h-1zm-190 4h1v1h-1zm-187 2h1v1h-1zm69 13h1v1h-1zm28 0h1v1h-1zm175 0h1v1h-1zM95 74h1v1h-1zm213 0h1v1h-1zm189 0h1v1h-1zm-35 2h1v1h-1zm19 0h1v1h-1zm-231 1h1v1h-1zm255 1h1v1h-1zm-260 1h1v1h-1zm144 1h1v1h-1zm119 4h1v1h-1zm20 0h1v1h-1zm0 1h1v1h-1zm-7 1h1v1h-1zm3 0h1v1h-1zm-107 1h1v1h-1zm-132 4h1v1h-1zm120 1h1v1h-1z"/></g><g fill="#696563"><path d="M46 6h102v1H46zm102 0h1v1h-1zm28 11h1v1h-1zM39 18h1v1h-1zm-3 7h1v1h-1zm133 1h1v1h-1zM52 32h1v1h-1zm115 0h1v1h-1zm63 1h1v1h-1zm-106 4h1v1h-1zm-75 2h1v1h-1zm205 4h1v1h-1zm-93 1h1v1h-1zm-6 7h1v1h-1zm119 6h1v1h-1zm-140 2h1v1h-1zm-53 2h1v1h-1zm13 15h1v1h-1zm-3 7h1v1h-1zm217 8h1v1h-1zm221 1h1v1h-1z"/></g><g fill="#bbab93"><path d="M46 10h1v1h-1zm109 0h1v1h-1zm4 1h1v1h-1zm4 2h1v1h-1zm2 2h1v1h-1zM43 17h1v1h-1zm123 0h1v1h-1zM57 29h1v1h-1zm34 0h1v1h-1zm43 0h1v1h-1zm0 1h1v1h-1zm-2 5h1v1h-1zm-78 1h1v1h-1zm34 5h32v1H88zm32 0h1v1h-1zm39 0h1v1h-1zM51 43h1v1h-1zm101 6h1v1h-1zM48 50h1v1h-1zm97 3h1v1h-1zm-3 1h1v1h-1zm-4 1h1v1h-1zm-7 1h1v1h-1zm-86 1h1v1h-1zm32 5h1v1h-1zm-35 2h1v1h-1zm-21 5h18v1H21zm18 0h1v1h-1zm36 0h17v1H75zm17 0h1v1h-1zm-72 2h1v1h-1zm-3 7h1v1h-1zm72 1h1v1h-1z"/></g><g fill="#e5e5e5"><path d="M232 1h1v1h-1zm164 0h1v1h-1zm75 1h1v2h-1zm0 2h1v1h-1zM282 5h1v1h-1zm-33 1h1v1h-1zm220 0h1v1h-1zM218 7h1v1h-1zm5 0h1v1h-1zm42 0h1v1h-1zm84 0h1v1h-1zm107 0h1v1h-1zM253 8h1v32h-1zm97 1h1v1h-1zm45 0h1v1h-1zm70 0h1v28h-1zm-233 2h1v1h-1zm286 0h1v4h-1zM34 12h1v1h-1zm305 1h1v1h-1zm12 0h1v1h-1zm167 2h1v1h-1zM31 19h1v1h-1zm473 0h3v1h-3zm3 0h1v1h-1zm-263 4h1v1h-1zm157 0h1v1h-1zM28 26h1v1h-1zm148 1h1v1h-1zm48 0h1v1h-1zm103 0h1v1h-1zm15 3h1v1h-1zm-168 3h1v1h-1zm239 4h1v1h-1zm52 0h1v1h-1zm-212 3h1v1h-1zm159 1h1v1h-1zm-242 1h1v1h-1zm126 0h1v1h-1zm52 1h1v1h-1zm50 2h1v1h-1zm66 0h1v1h-1zm46 2h1v1h-1zm-239 2h1v1h-1zm248 0h1v1h-1zm-130 1h1v1h-1zm18 0h1v1h-1zm-204 1h1v1h-1zm20 1h1v1h-1zm83 1h1v2h-1zm123 1h1v1h-1zm-141 1h1v1h-1zm18 0h1v1h-1zm90 1h1v1h-1zm37 0h1v1h-1zm4 1h1v1h-1zm-280 1h1v1h-1zm-22 8h1v1h-1zm81 2h1v1h-1zm153 0h1v1h-1zm66 0h1v1h-1zm-14 1h1v1h-1zm-65 1h1v3h-1zm103 0h1v4h-1zm-90 1h1v1h-1zm66 0h1v1h-1zM8 73h1v1H8zm270 0h1v17h-1zm78 0h1v1h-1zm103 1h1v2h-1zm-137 1h1v1h-1zm95 0h1v1h-1zm-61 1h1v1h-1zm103 0h1v1h-1zm-149 2h1v1h-1zm-7 1h1v1h-1zm80 0h1v1h-1zM5 80h1v1H5zm310 0h1v1h-1zm65 0h1v1h-1zm120 1h1v1h-1zm-186 2h1v1h-1zm31 0h1v1h-1zm182 2h1v1h-1zm-209 1h1v1h-1zm209 0h1v1h-1zM2 87h1v1H2zm523 0h1v1h-1zm-4 1h1v1h-1zm-307 2h1v1h-1zm64 0h1v1h-1zm29 0h1v1h-1zm76 0h1v1h-1zm-2 1h1v1h-1zm66 0h1v1h-1zm64 0h1v1h-1zm11 0h1v1h-1zm-247 1h1v1h-1zm202 0h1v1h-1zm-58 1h1v1h-1zm58 0h1v1h-1zm-60 1h1v1h-1zm110 0h1v1h-1z"/></g><g fill="#dfdfdf"><path d="M339 1h1v1h-1zM219 7h3v1h-3zm3 0h1v1h-1zm22 4h1v1h-1zm168 5h1v1h-1zm99 1h1v1h-1zm7 0h1v1h-1zm-105 3h1v1h-1zm-85 7h1v1h-1zm3 7h1v1h-1zm70 1h1v1h-1zM39 45h1v1h-1zm310 0h1v1h-1zm104 2h1v1h-1zm-16 1h1v1h-1zm-156 1h1v1h-1zm-81 3h1v1h-1zm275 0h1v1h-1zm-17 2h1v1h-1zm-176 3h1v1h-1zm-128 3h1v1h-1zm58 8h1v1h-1zm63 1h1v1h-1zm184 0h1v1h-1zm-355 1h1v1h-1zm171 0h1v1h-1zm-63 1h1v1h-1zm12 2h1v1h-1zm180 3h1v1h-1zm-303 1h1v1h-1zm215 0h1v1h-1zm-62 4h1v1h-1zm-30 5h1v1h-1zm295 3h2v1h-2zm2 0h1v1h-1zm-306 1h1v1h-1zm60 3h1v1h-1zm224 1h1v1h-1zm24 0h1v1h-1z"/></g><g fill="#717171"><path d="M451 2h1v2h-1zm0 2h1v1h-1zM251 6h1v1h-1zm216 0h1v1h-1zM264 9h1v29h-1zm-32 1h1v1h-1zm107 1h1v1h-1zm73 7h1v1h-1zm-62 3h1v1h-1zm-221 7h1v1h-1zM26 32h1v1h-1zm305 1h1v1h-1zm2 4h1v1h-1zm-69 1h1v1h-1zm136 4h1v1h-1zm33 1h1v1h-1zm-277 7h1v1h-1zm292 0h1v1h-1zM44 51h1v1h-1zm174 0h1v1h-1zm-56 2h1v1h-1zm273 3h1v1h-1zM34 58h1v1h-1zm7 0h1v1h-1zm99 0h1v1h-1zM38 65h1v1h-1zm58 6h1v1h-1zm240 0h1v1h-1zm110 0h1v1h-1zm58 0h1v1h-1zM16 72h1v1h-1zm187 0h1v1h-1zm135 0h1v1h-1zm-20 1h1v1h-1zm34 2h1v1h-1zm111 0h1v1h-1zM13 79h1v1h-1zm403 0h1v1h-1zm-169 3h1v1h-1zm9 0h1v1h-1zm268 1h1v1h-1zM10 86h1v1h-1zm510 0h1v1h-1zm-203 1h1v1h-1zm184 4h1v1h-1zm10 1h1v1h-1zm-101 2h1v1h-1zm5 0h1v1h-1z"/></g><g fill="#696969"><path d="M153 0h1v1h-1zm74 1h1v1h-1zm108 0h1v1h-1zm57 0h1v1h-1zM270 2h1v2h-1zM165 3h1v1h-1zm2 1h1v1h-1zm103 0h1v1h-1zM45 6h1v1h-1zm334 1h1v1h-1zm43 0h1v1h-1zm-189 5h1v1h-1zm11 2h1v1h-1zM32 18h1v1h-1zm212 2h1v1h-1zm-68 4h1v1h-1zm172 1h1v1h-1zm65 1h1v1h-1zm-194 2h1v1h-1zm194 2h1v1h-1zm-81 5h1v1h-1zm175 1h1v1h-1zm-173 3h1v1h-1zm-70 1h1v1h-1zm147 2h1v1h-1zM40 44h1v1h-1zm383 1h1v1h-1zm-73 3h1v1h-1zm-193 1h1v1h-1zm284 1h1v1h-1zm-236 1h1v1h-1zm87 0h1v1h-1zm16 1h1v1h-1zm20 0h1v1h-1zm-68 1h1v1h-1zm30 0h1v1h-1zm-129 1h1v1h-1zm123 2h1v1h-1zm108 0h1v1h-1zm-117 1h1v1h-1zm1 0h1v1h-1zm167 0h3v1h-3zm3 0h1v1h-1zm-300 6h1v1h-1zm269 5h1v1h-1zm-117 1h1v1h-1zm0 1h1v1h-1zm-44 1h1v1h-1zm8 0h1v1h-1zm37 0h1v1h-1zM9 72h1v1H9zm230 0h1v1h-1zm112 0h1v1h-1zm-95 1h1v8h-1zm4 0h1v19h-1zm157 0h1v1h-1zm93 0h1v1h-1zm-100 1h1v1h-1zm99 1h1v1h-1zm-91 1h1v1h-1zm90 1h1v1h-1zm-124 1h1v1h-1zm123 1h1v1h-1zm-251 2h1v1h-1zm88 2h1v1h-1zm67 0h1v1h-1zm-55 5h1v1h-1zm-146 1h1v1h-1zm-5 2h1v1h-1zm40 0h1v1h-1zm126 0h1v1h-1zm13 0h1v1h-1zm53 0h1v1h-1zm-177 1h1v1h-1zm121 0h1v1h-1zm66 0h1v1h-1zm-53 1h1v1h-1zm24 0h1v1h-1zm93 0h1v1h-1zm11 0h1v1h-1z"/></g><g fill="#a2a2a2"><path d="M155 0h1v1h-1zm130 6h1v1h-1zm80 0h1v1h-1zm71 0h1v1h-1zM226 7h1v1h-1zm142 0h1v1h-1zm-72 1h1v1h-1zm185 0h1v42h-1zm-131 2h1v1h-1zm60 2h1v1h-1zm-177 9h1v1h-1zm-2 4h1v1h-1zm105 1h1v1h-1zm-2 1h1v1h-1zm-95 3h1v1h-1zm-65 2h1v1h-1zm168 0h1v1h-1zm-170 5h1v1h-1zm124 2h1v1h-1zm-8 2h1v1h-1zm134 0h1v1h-1zm11 1h1v1h-1zm86 0h1v1h-1zm-254 2h1v1h-1zm22 0h1v1h-1zm123 1h1v1h-1zm45 0h1v1h-1zm-189 1h1v1h-1zm2 2h1v1h-1zm242 0h1v1h-1zm-304 2h1v1h-1zm69 0h1v1h-1zm3 0h1v1h-1zm15 0h1v1h-1zm150 0h1v1h-1zm1 0h2v1h-2zm2 0h1v1h-1zm35 0h1v1h-1zm-277 1h1v1h-1zm-4 3h1v1h-1zm89 0h1v1h-1zm186 0h1v1h-1zm-275 1h1v1h-1zm275 0h1v1h-1zm-35 2h1v1h-1zm8 0h1v1h-1zM13 62h1v1h-1zm126 3h1v1h-1zM10 69h1v1h-1zm202 0h1v1h-1zm306 0h1v1h-1zm-306 1h1v1h-1zm306 0h1v1h-1zm-25 1h1v1h-1zm-175 1h1v1h-1zm98 0h1v1h-1zm-108 1h1v1h-1zm130 0h1v17h-1zm58 0h1v1h-1zm-174 1h1v1h-1zm50 0h1v15h-1zm12 0h1v1h-1zm98 2h1v1h-1zm-70 1h1v1h-1zm2 1h1v1h-1zM99 81h1v1h-1zm216 0h1v1h-1zm106 1h1v1h-1zm-6 3h1v1h-1zm-196 1h1v1h-1zm135 0h1v1h-1zm1 0h1v1h-1zm53 0h1v1h-1zm-205 1h1v1h-1zm320 0h1v3h-1zM96 88h1v1h-1zm256 0h1v1h-1zm175 0h1v1h-1zm-155 1h1v1h-1zm50 0h1v1h-1zm-6 1h1v1h-1zm22 0h1v1h-1zm83 0h2v1h-2zm2 0h1v1h-1zm-167 1h1v1h-1zm24 0h1v1h-1zm66 0h1v1h-1zm64 0h1v1h-1zm-290 2h1v1h-1zm95 0h1v1h-1zm91 0h1v1h-1z"/></g><g fill="#c3c3c3"><path d="M156 0h1v1h-1zm79 2h1v1h-1zM38 3h1v1h-1zm363 0h1v1h-1zm-54 2h1v1h-1zm-79 1h1v1h-1zm80 0h1v1h-1zM225 7h1v1h-1zm28 0h1v1h-1zm72 0h7v1h-7zm7 0h1v1h-1zm49 0h7v1h-7zm7 0h1v1h-1zm77 0h1v1h-1zm29 0h14v1h-14zm14 0h1v1h-1zM288 9h1v30h-1zm121 1h1v1h-1zm101 3h1v1h-1zm-277 1h1v1h-1zm0 6h1v1h-1zm269 2h1v1h-1zM43 36h1v1h-1zm245 3h1v1h-1zm112 2h1v1h-1zm33 0h1v1h-1zm-11 1h1v1h-1zM40 43h1v1h-1zm424 1h1v1h-1zm55 0h1v1h-1zm-224 2h1v1h-1zm42 0h1v1h-1zm1 2h1v1h-1zm30 2h1v1h-1zm-58 1h1v1h-1zm118 2h1v1h-1zm31 0h1v1h-1zm-58 1h1v1h-1zm-131 3h1v1h-1zm11 0h1v1h-1zM12 64h1v1h-1zm371 4h1v1h-1zm28 0h1v1h-1zm-195 1h1v1h-1zm0 1h1v1h-1zm8 2h1v1h-1zm158 0h1v1h-1zm128 0h1v1h-1zm4 2h1v1h-1zm-130 1h1v1h-1zm27 1h1v1h-1zm52 0h1v1h-1zm-112 3h1v1h-1zm-98 1h1v1h-1zm134 3h1v1h-1zm23 0h1v1h-1zM97 86h1v1h-1zm256 0h1v1h-1zm170 0h1v1h-1zm-206 2h1v1h-1zm-105 2h1v1h-1zm4 0h1v1h-1zm177 1h1v1h-1zm134 0h1v1h-1zm-107 1h1v1h-1zm79 0h1v1h-1zm0 1h1v1h-1zm-290 1h1v1h-1zm9 0h1v1h-1z"/></g><g fill="#f2f2f2"><path d="M162 1h1v1h-1zm85 0h1v1h-1zm-11 1h1v1h-1zm107 0h1v1h-1zM238 3h1v1h-1zm-70 1h1v1h-1zm79 1h1v1h-1zm22 1h1v1h-1zm137 0h1v1h-1zm112 0h1v4h-1zM252 7h1v1h-1zm14 0h1v1h-1zm21 0h1v1h-1zm24 0h1v1h-1zm56 0h1v1h-1zm67 0h1v1h-1zm21 0h1v1h-1zm11 0h1v1h-1zM228 8h1v1h-1zm15 0h1v1h-1zm69 0h1v41h-1zm25 1h1v1h-1zm181 1h1v1h-1zm-167 2h1v1h-1zM33 14h1v1h-1zm306 0h1v1h-1zm0 1h1v1h-1zm61 2h1v1h-1zm-223 2h1v3h-1zm162 0h1v1h-1zm74 0h1v1h-1zm-74 1h1v1h-1zm169 0h1v15h-1zm-331 2h1v1h-1zm161 1h1v1h-1zm12 0h1v1h-1zm-2 3h1v1h-1zm-22 1h1v1h-1zM27 28h1v1h-1zm207 5h1v1h-1zm167 0h1v1h-1zm-183 1h10v1h-10zm10 0h1v1h-1zm274 1h1v1h-1zm6 0h1v1h-1zm-43 4h1v1h-1zm0 1h1v1h-1zm-212 1h1v1h-1zm94 0h1v1h-1zm-82 1h1v1h-1zm31 1h1v1h-1zm103 0h1v1h-1zm56 1h1v1h-1zm56 0h1v1h-1zm-245 1h1v1h-1zm-12 1h1v1h-1zm181 0h1v1h-1zm-12 1h1v1h-1zm-28 1h1v1h-1zm68 0h1v1h-1zm-297 1h1v1h-1zm128 0h1v1h-1zm18 0h1v1h-1zm96 0h1v1h-1zm41 0h1v1h-1zm-125 1h1v1h-1zm29 0h1v1h-1zm27 0h1v1h-1zm113 0h1v1h-1zm15 0h1v1h-1zm-251 1h1v1h-1zm108 0h1v1h-1zm-3 1h1v1h-1zm-100 3h1v1h-1zm6 2h1v1h-1zM12 63h1v1h-1zm124 3h1v1h-1zm139 2h1v1h-1zm110 0h1v1h-1zm74 0h1v1h-1zm-144 1h1v1h-1zm177 0h1v1h-1zm-177 1h1v1h-1zm74 0h1v1h-1zm33 0h1v6h-1zm70 0h1v1h-1zm-166 1h1v1h-1zm-124 1h1v1h-1zm210 0h1v1h-1zm33 0h1v1h-1zm-206 1h1v16h-1zm46 0h1v17h-1zm179 1h1v1h-1zm32 0h1v1h-1zm-74 2h1v1h-1zm-171 1h1v1h-1zm140 0h1v1h-1zm27 0h1v1h-1zm93 3h1v1h-1zm-105 1h1v1h-1zm-151 1h1v1h-1zm49 0h1v1h-1zm8 1h1v1h-1zm39 0h1v1h-1zm61 1h1v1h-1zm11 2h1v1h-1zM97 87h1v1h-1zm255 0h1v1h-1zm71 0h1v1h-1zm-213 1h1v1h-1zm8 0h1v1h-1zM1 89h1v1H1zm238 0h1v1h-1zm13 0h1v1h-1zm65 0h1v1h-1zm99 0h1v1h-1zm-131 1h1v1h-1zm-38 1h1v1h-1zm122 0h1v1h-1zm25 0h1v1h-1zm41 0h1v1h-1zm29 1h1v1h-1zm-156 1h1v1h-1zm156 0h1v1h-1zm57 0h1v1h-1zm-302 1h1v1h-1zm37 0h1v1h-1zm221 0h1v1h-1z"/></g><g fill="#b7b7b7"><path d="M230 1h1v1h-1zm107 0h1v1h-1zM200 2h1v2h-1zm275 0h1v2h-1zM200 4h1v1h-1zm39 0h1v1h-1zm236 0h1v1h-1zM169 5h1v1h-1zm140 1h1v1h-1zm144 0h1v1h-1zM217 7h1v1h-1zm25 0h1v1h-1zm91 0h1v1h-1zm56 0h1v1h-1zm103 1h1v15h-1zM173 9h1v1h-1zm166 3h1v1h-1zm60 1h1v1h-1zm2 7h1v1h-1zM30 22h1v1h-1zm214 0h1v1h-1zm248 1h1v1h-1zm-249 2h1v1h-1zm94 0h1v1h-1zm-5 2h1v1h-1zM27 29h1v1h-1zm465 3h1v17h-1zM25 34h1v1h-1zm148 1h1v1h-1zm240 0h1v1h-1zm-12 2h1v1h-1zm-113 3h1v1h-1zm8 0h1v1h-1zm116 0h1v1h-1zm99 5h1v1h-1zm-244 2h1v1h-1zm142 0h1v1h-1zm43 1h1v1h-1zm40 1h1v1h-1zm-215 1h1v1h-1zm62 0h1v1h-1zm52 0h1v1h-1zm-227 1h1v1h-1zm202 0h1v1h-1zm-8 2h1v2h-1zm-97 1h1v1h-1zm97 1h1v1h-1zm98 0h1v1h-1zm-233 1h1v1h-1zm62 0h1v1h-1zm149 0h1v1h-1zm-276 1h1v1h-1zm281 0h1v1h-1zm10 0h1v1h-1zm-302 6h1v1h-1zm90 5h1v1h-1zm50 0h1v1h-1zm68 0h1v1h-1zm153 0h1v1h-1zm-139 1h1v1h-1zm18 0h1v1h-1zm-142 1h1v1h-1zm124 0h1v1h-1zm139 1h1v1h-1zm-185 1h1v1h-1zm-104 1h1v11h-1zm82 0h1v1h-1zm50 0h1v1h-1zm113 0h1v1h-1zm39 0h1v1h-1zm-86 1h1v1h-1zm-168 1h1v1h-1zm68 0h1v1h-1zm180 0h1v1h-1zm-176 2h1v1h-1zm184 0h1v1h-1zm-97 5h1v1h-1zm101 1h1v1h-1zm18 0h1v1h-1zm-308 1h1v1h-1zm86 0h1v1h-1zm83 1h1v1h-1zm133 2h1v1h-1zm-112 2h1v1h-1zm116 0h1v1h-1zM1 90h1v1H1zm203 0h1v1h-1zm147 0h1v1h-1zm-105 1h1v1h-1zm90 0h1v1h-1zm34 0h1v1h-1zm66 0h1v1h-1zm64 0h1v1h-1zm26 0h1v1h-1zm4 0h1v1h-1zm-283 1h1v1h-1zm61 0h1v1h-1zm61 0h1v1h-1zm158 0h1v1h-1zM94 93h1v1h-1zm153 0h1v1h-1zm109 0h1v1h-1zm13 0h1v1h-1zm157 1h1v1h-1z"/></g><g fill="#aba194"><path d="M156 10h1v1h-1zm6 2h1v1h-1zM44 14h1v1h-1zm49 11h1v1h-1zm36 0h1v1h-1zm-71 1h1v1h-1zm106 5h1v1h-1zM55 33h1v1h-1zm76 3h1v1h-1zm-1 1h1v1h-1zm-43 2h1v1h-1zm40 0h1v1h-1zm-75 1h1v1h-1zm73 0h1v1h-1zm-76 7h1v1h-1zm102 3h1v1h-1zM46 54h1v1h-1zm97 0h1v1h-1zm-10 2h1v1h-1zm1 0h1v1h-1zm-56 4h1v1h-1zm-35 1h1v1h-1zm33 4h1v1h-1zm-35 1h1v1h-1zm34 1h1v1h-1zm-57 8h1v1h-1zm73 0h1v1h-1zm-76 7h1v1h-1zm73 0h1v1h-1z"/></g><g fill="#d0d0d0"><path d="M161 1h1v1h-1zm70 0h1v1h-1zm107 0h1v1h-1zm57 0h1v1h-1zm44 0h1v2h-1zm-97 1h1v1h-1zM166 3h1v1h-1zm273 0h1v1h-1zM282 4h1v1h-1zm121 0h1v1h-1zM202 6h1v1h-1zm98 0h1v1h-1zm177 0h1v1h-1zM224 7h1v1h-1zm88 0h1v1h-1zm-95 1h1v19h-1zm12 0h1v1h-1zm204 0h1v32h-1zm-95 2h1v1h-1zm62 6h1v1h-1zm-49 1h1v1h-1zm-118 2h1v1h-1zm106 2h1v1h-1zm62 0h1v1h-1zm12 0h1v1h-1zM29 24h1v1h-1zm188 3h1v1h-1zm9 0h1v1h-1zm1 0h1v1h-1zm15 0h1v1h-1zm88 0h1v1h-1zm-155 3h1v1h-1zM26 31h1v1h-1zm207 2h1v1h-1zm97 0h1v1h-1zm-113 2h1v14h-1zm115 1h1v1h-1zm1 2h1v1h-1zm100 2h1v1h-1zm80 0h1v1h-1zm-178 2h1v1h-1zm121 0h1v1h-1zm-202 3h1v1h-1zm265 1h1v1h-1zm0 1h1v1h-1zm-302 2h1v1h-1zm222 0h1v1h-1zm-49 1h1v1h-1zm-35 1h1v1h-1zm48 2h1v1h-1zm-138 3h1v1h-1zm130 0h1v1h-1zm59 0h1v1h-1zM34 57h1v1h-1zm235 0h1v1h-1zm181 0h1v1h-1zm-298 4h1v1h-1zm-20 5h1v1h-1zm1 0h1v1h-1zm120 2h1v1h-1zm131 0h1v1h-1zm34 0h1v1h-1zm64 0h1v1h-1zm23 0h1v1h-1zm-179 1h1v1h-1zm0 1h1v1h-1zm-73 1h1v1h-1zm194 0h1v1h-1zm-169 1h1v1h-1zm68 0h4v1h-4zm4 0h1v1h-1zm29 0h2v1h-2zm2 0h1v1h-1zm34 0h1v1h-1zm50 0h1v1h-1zm1 0h1v1h-1zm9 0h1v1h-1zm1 0h1v1h-1zm19 0h1v1h-1zm-21 2h1v15h-1zm-172 2h1v1h-1zm206 0h1v1h-1zm5 0h1v1h-1zm-6 2h1v1h-1zm-90 1h1v1h-1zm-172 1h1v1h-1zm137 0h1v1h-1zm37 0h1v1h-1zm-107 4h1v1h-1zM3 85h1v1H3zm246 0h1v1h-1zm57 2h1v1h-1zm168 2h1v1h-1zm-198 2h1v1h-1zm11 0h1v1h-1zm29 0h1v1h-1zm149 0h1v1h-1zm58 0h1v1h-1zm5 0h1v1h-1zM0 92h1v1H0zm384 0h1v1h-1zm51 2h1v1h-1z"/></g><g fill="#545454"><path d="M150 6h1v1h-1zm329 0h1v1h-1zM335 7h1v1h-1zm72 1h1v1h-1zm50 0h1v1h-1zM163 9h1v1h-1zm187 2h1v1h-1zM41 13h1v1h-1zm203 2h1v1h-1zm267 0h1v1h-1zm-267 4h1v1h-1zM38 20h1v1h-1zm195 2h1v1h-1zm261 3h7v1h-7zm7 0h1v1h-1zm-326 3h1v1h-1zm45 0h1v1h-1zm17 3h1v1h-1zm-111 5h1v1h-1zm-83 1h1v1h-1zm358 2h1v1h-1zm-137 2h1v1h-1zm31 3h1v1h-1zm103 2h1v1h-1zm-118 4h1v1h-1zm71 0h1v1h-1zm49 4h1v1h-1zm57 0h1v1h-1zm61 0h1v1h-1zm-127 2h1v1h-1zM40 60h1v1h-1zm237 11h1v1h-1zm-17 1h1v1h-1zm118 1h1v7h-1zm135 2h1v1h-1zm-159 1h1v1h-1zm1 0h1v1h-1zm144 2h1v1h-1zm-154 1h1v1h-1zm33 1h1v1h-1zm0 4h1v6h-1zm130 1h1v5h-1zm-152 2h1v1h-1zm22 3h1v1h-1zm130 0h1v1h-1zm-123 3h1v1h-1zm-169 1h1v1h-1z"/></g><g fill="#c6b392"><path d="M153 10h1v1h-1zm5 1h1v1h-1zm3 1h1v1h-1zM45 13h1v1h-1zm121 5h1v1h-1zm0 5h1v1h-1zm-35 2h1v1h-1zm-39 1h1v1h-1zm-34 1h1v1h-1zm107 0h1v1h-1zM56 32h1v1h-1zm33 1h1v1h-1zm-34 1h1v1h-1zm73 5h1v1h-1zm-42 1h1v1h-1zm40 0h1v1h-1zm-74 1h1v1h-1zm34 0h1v1h-1zm37 0h1v1h-1zm35 1h1v1h-1zM50 46h1v1h-1zm105 0h1v1h-1zm-1 1h1v1h-1zM49 48h1v1h-1zm98 4h1v1h-1zm-10 3h1v1h-1zm-59 4h1v1h-1zm-34 1h1v1h-1zm31 6h1v1h-1zm-34 1h1v1h-1zm-1 2h1v1h-1zm-21 5h1v1h-1zm71 2h1v1h-1zm-2 5h1v1h-1zm-73 2h1v1h-1zm0 1h71v1H15zm71 0h1v1h-1z"/></g></svg>