<svg xmlns="http://www.w3.org/2000/svg" role="img" viewBox="204.30 146.80 3676.40 1281.40"><title>Python Software Foundation logo</title><defs><marker markerHeight="1" markerUnits="strokeWidth" markerWidth="1" orient="auto" overflow="visible" viewBox="0 0 1 1"><path d="M-.08334.50004V-.50004L1.08342 0z"/></marker><marker markerHeight="1" markerUnits="strokeWidth" markerWidth="1" orient="auto" overflow="visible" viewBox="0 0 1 1"><path d="M-.25002.50004L-.08334 0l-.16668-.50004L1.2501 0z"/></marker><marker markerHeight="1" markerUnits="strokeWidth" markerWidth="1" orient="auto" overflow="visible" viewBox="0 0 1 1"><path d="M-.08334 0v-.4167c0-.06212.10934-.10723.16668-.08334l1.00008.4167c.03626.0151.08334.04406.08334.08334 0 .03928-.04708.06824-.08334.08334L.08334.50004C.026.52394-.08334.47882-.08334.4167z"/></marker><marker markerHeight="1" markerUnits="strokeWidth" markerWidth="1" orient="auto" overflow="visible" viewBox="0 0 1 1"><path d="M-.50004 0c0 .27601.22403.50004.50004.50004C.27601.50004.50004.27601.50004 0 .50004-.27601.27601-.50004 0-.50004c-.27601 0-.50004.22403-.50004.50004z"/></marker><marker markerHeight="1" markerUnits="strokeWidth" markerWidth="1" orient="auto" overflow="visible" viewBox="0 0 1 1"><path d="M-.58338 0L0 .58338.58338 0 0-.58338z"/></marker><marker markerHeight="1" markerUnits="strokeWidth" markerWidth="1" orient="auto" overflow="visible" viewBox="0 0 1 1"><path d="M.16668-.50004h.8334L.58338 0l.4167.50004h-.8334L-.33336 0z"/></marker><marker markerHeight="1" markerUnits="strokeWidth" markerWidth="1" orient="auto" overflow="visible" viewBox="0 0 1 1"><path d="M-.33336 0l.50004-.50004h.33336l-.33336.33336h.08334l.33336-.33336h.33336l-.33336.33336h.08334l.33336-.33336h.33336L.8334 0l.50004.50004h-.33336L.66672.16668H.58338l.33336.33336H.58338L.25002.16668H.16668l.33336.33336H.16668z"/></marker><marker markerHeight="1" markerUnits="strokeWidth" markerWidth="1" orient="auto" overflow="visible" viewBox="0 0 1 1"><path d="M0 .4167L-.4167 0 0-.4167.4167 0zm0 .16668L-.58338 0 0-.58338.58338 0z"/></marker><linearGradient id="a" x1="0" x2="673.559" y1="0" y2="0" gradientTransform="rotate(-40.977 1931.585 302.018)" gradientUnits="userSpaceOnUse"><stop offset="0" stop-color="#5a9fd4"/><stop offset="1" stop-color="#306998"/></linearGradient><linearGradient id="b" x1="0" x2="316.622" y1="0" y2="0" gradientTransform="rotate(124.996 289.107 488.52)" gradientUnits="userSpaceOnUse"><stop offset="0" stop-color="#ffd43b"/><stop offset="1" stop-color="#ffe873"/></linearGradient><linearGradient id="c" x1="0" x2="742.276" y1="0" y2="0" gradientTransform="rotate(-90 .004 .013) skewX(.009)" gradientUnits="userSpaceOnUse"><stop offset="0" stop-color="#4c8cbf"/><stop offset="1" stop-color="#306898"/></linearGradient><filter><feBlend in="SourceGraphic" in2="BackgroundImage" mode="multiply" result="blend"/><feComposite in="blend" in2="SourceAlpha" operator="in" result="comp"/></filter><filter><feBlend in="SourceGraphic" in2="BackgroundImage" mode="screen" result="blend"/><feComposite in="blend" in2="SourceAlpha" operator="in" result="comp"/></filter><filter><feComponentTransfer><feFuncR amplitude="1.055" exponent=".417" offset="-.055" type="gamma"/><feFuncG amplitude="1.055" exponent=".417" offset="-.055" type="gamma"/><feFuncB amplitude="1.055" exponent=".417" offset="-.055" type="gamma"/></feComponentTransfer><feComponentTransfer><feFuncR intercept="1" slope="-1" type="linear"/><feFuncG intercept="1" slope="-1" type="linear"/><feFuncB intercept="1" slope="-1" type="linear"/><feFuncA type="linear"/></feComponentTransfer><feComponentTransfer><feFuncR exponent="2.4" type="gamma"/><feFuncG exponent="2.4" type="gamma"/><feFuncB exponent="2.4" type="gamma"/></feComponentTransfer></filter></defs><g stroke="none" transform="scale(1 -1) translate(0 -1559.06)" fill="none"><g fill-rule="nonzero"><path fill="url(#a)" d="M730.634 1340.65c-38.008-.17-74.307-3.41-106.245-9.06-94.083-16.62-111.159-51.41-111.159-115.57v-84.71h222.326v-28.25H429.791c-64.609 0-121.198-38.83-138.89-112.713-20.416-84.676-21.314-137.519 0-225.942 15.795-65.809 53.539-112.697 118.154-112.697h76.444v101.547c0 73.391 63.488 138.115 138.89 138.115h222.06c61.832 0 111.168 50.895 111.168 112.98v211.67c0 60.25-50.832 105.51-111.168 115.57-38.196 6.36-77.805 9.24-115.815 9.06zm-120.244-68.14c22.968 0 41.72-19.06 41.72-42.5 0-23.34-18.752-42.23-41.72-42.23-23.049 0-41.71 18.89-41.71 42.23 0 23.44 18.661 42.5 41.71 42.5z"/><path fill="url(#b)" d="M985.349 1103.06v-98.71c0-76.538-64.902-140.967-138.9-140.967h-222.06c-60.836 0-111.159-52.06-111.159-112.966V538.741c0-60.266 52.379-95.694 111.159-112.992 70.372-20.673 137.865-24.42 222.06 0 55.977 16.212 111.168 48.82 111.168 112.992v84.721H735.556v28.246H1068.79c64.6 0 88.69 45.056 111.16 112.697 23.2 69.638 22.23 136.611 0 225.942-15.97 64.333-46.46 112.713-111.16 112.713h-83.441zM860.446 566.971c23.051 0 41.721-18.886 41.721-42.238 0-23.432-18.67-42.494-41.721-42.494-22.967 0-41.708 19.062-41.708 42.494 0 23.352 18.741 42.238 41.708 42.238z"/></g><path d="M1760.51 867.579c0-59.145-13.98-108.217-41.91-147.214-31.19-44.196-74.4-66.944-129.62-68.244-41.59-1.3-84.46 11.699-128.63 39.01V438.626l-70.23 25.348v560.556c11.73 14.3 26.72 26.65 44.96 37.05 42.35 24.69 93.82 37.37 154.4 38.02l.99-.98c55.37.65 98.04-22.1 128.02-68.24 28-42.249 42.02-96.506 42.02-162.801zm-81.89 4.834c0 116.314-33.31 176.097-99.92 179.347-26.51 1.3-52.38-2.93-77.6-12.67-20.06-7.14-33.64-14.29-40.75-21.44V739.864c42.68-26.634 80.52-38.984 113.5-37.047 69.85 4.563 104.77 61.095 104.77 169.596zm517.95-170.585c.02-79.307-7.95-134.228-23.87-164.775-15.93-30.548-46.31-54.921-91.15-73.133-36.4-14.286-75.71-22.085-117.95-23.399l-11.68 44.861c42.86 5.849 73.05 11.699 90.59 17.548 34.42 11.699 58.13 29.573 71.12 53.635 10.39 19.498 15.59 56.884 15.59 112.143.04 12.349.04 18.524 0 18.524-48.73-22.139-99.72-33.202-152.99-33.202-35.09 0-65.95 11.049-92.59 33.147-29.88 24.049-44.83 54.596-44.82 91.657v296.386l72.12 24.38V801.284c0-31.834 10.23-56.369 30.7-73.607 20.48-17.21 46.96-25.497 79.46-24.86 32.49.663 67.26 13.337 104.31 38.035V1088.9h71.16V701.828zm278.02-45.875c-8.45-.65-16.25-.975-23.4-.975-40.31 0-71.67 9.587-94.1 28.76-22.44 19.174-33.65 45.659-33.65 79.443v279.779h-48.79v45.93h48.79v118.9l71.18 25.35v-144.25h79.97v-45.93h-79.97V765.131c0-26.635 7.14-45.483 21.46-56.532 12.35-9.1 31.85-14.299 58.51-15.599v-37.047zm444.17 5.931h-72.12v274.833c0 27.948-6.5 51.983-19.5 72.123-14.95 22.74-35.75 34.12-62.38 34.12-32.52 0-73.14-17.23-121.87-51.66V661.884h-71.18v657.126l71.18 22.42V1042.1c45.48 33.1 95.2 49.64 149.14 49.64 37.7 0 68.23-12.67 91.64-38 23.4-25.35 35.09-56.862 35.09-94.559V661.884zm468.93 221.28c0-63.708-16.26-116.679-48.76-158.912-35.76-47.46-85.18-71.183-148.24-71.17-62.43-.013-111.19 23.71-146.3 71.17-31.86 42.233-47.79 95.204-47.79 158.912 0 59.796 17.23 110.167 51.69 151.116 36.41 43.54 84.2 65.32 143.38 65.32 59.16 0 107.27-21.78 144.33-65.32 34.45-40.949 51.69-91.32 51.69-151.116zm-78.08-.067c.02 44.86-8.43 81.907-25.33 111.155-20.15 35.748-51.35 54.598-93.59 56.558-77.99-4.55-116.97-60.418-116.97-167.619 0-49.423 8.15-90.722 24.47-123.883 20.88-42.274 52.22-63.085 93.98-62.436 78.31.65 117.46 62.734 117.44 186.225zm500.11-221.213h-71.16v290.432c0 31.848-9.58 56.694-28.77 74.564-19.18 17.86-44.7 26.48-76.55 25.83-33.8-.65-65.98-11.7-96.54-33.14V661.884h-71.16v366.556c40.95 29.9 78.65 49.38 113.1 58.48 32.5 8.45 61.11 12.68 85.81 12.68 16.9 0 32.83-1.63 47.78-4.88 27.96-6.5 50.71-18.52 68.24-36.07 19.52-19.5 29.27-42.88 29.25-70.18V661.884z" fill="#333" fill-rule="nonzero" stroke-miterlimit="79.84" stroke-width=".25"/><path d="M1496.3 248.019c0-15.55-7.44-28.367-22.33-38.447v-.256c-10.25-6.496-22.21-9.742-35.88-9.742-9.05 0-18.36 2.05-27.93 6.154-8.89 3.591-16.23 8.122-22.04 13.593l7.95 13.076c13.5-11.289 27.6-16.849 42.3-16.682 10.09.175 18.12 2.392 24.11 6.656 8.03 5.972 12.05 13.568 12.05 22.783 0 6.997-2.23 12.67-6.68 17.023-4.46 4.35-11.65 8.147-21.58 11.39l-16.12 5.481c-14.02 4.613-23.68 9.738-28.98 15.376-6.32 6.663-9.49 15.29-9.49 25.883 0 13.667 4.75 24.772 14.23 33.314 9.49 8.542 22.01 12.813 37.55 12.813 13.85 0 27.44-4.873 40.76-14.611l-7.94-12.307c-10.42 7.684-21.02 11.528-31.78 11.528-9.92 0-17.69-2.392-23.33-7.175-5.64-4.784-8.54-11.276-8.71-19.476-.17-10.931 9.06-19.388 27.68-25.367l18.2-5.894c12.99-4.271 22.57-9.994 28.73-17.173 6.15-7.176 9.23-16.49 9.23-27.94zm154.29 36.656c0-21.871-5.89-41.091-17.68-57.663-13.33-18.625-30.58-27.94-51.77-27.936-21.19-.004-38.44 9.311-51.77 27.936-11.78 16.576-17.68 35.795-17.68 57.663 0 21.701 6.05 40.412 18.16 56.129 13.13 17.088 30.19 25.63 51.16 25.63 21.15 0 38.29-8.542 51.42-25.63 12.11-15.717 18.16-34.428 18.16-56.129zm-21.52 0c0 17.433-3.93 32.56-11.79 45.384-9.05 14.696-21.1 22.046-36.13 22.049-15.21-.003-27.34-7.353-36.39-22.049-8.03-12.824-12.05-27.951-12.05-45.384 0-18.632 4.1-34.784 12.3-48.459 9.23-15.041 21.19-22.565 35.88-22.565 14.69 0 26.65 7.524 35.88 22.565 8.2 13.675 12.3 29.827 12.3 48.459zm134.49 78.132l-6.66-13.076h-64.57v-55.058h54.06l-6.95-12.827h-47.11V201.39h-18.46v161.417h89.69zm119.66-12.514h-47.43V201.39h-18.95v148.903h-48.18l5.89 12.571 108.67.253v-12.824zm202.13 13.568l-42.29-159.66-14.52-5.185-39.36 139.56-35.06-134.375-14.59-5.125-45.11 160.428 18.09 6.642 36.23-130.72 34.36 124.078 18.45 6.681 36.19-130.962 36.57 130.965 11.04-2.327zm132.02-162.471h-19.74l-17.4 50.238h-62.3l-18.48-50.238h-14.07l58.44 158.883 18.19 5.912 55.36-164.795zm-40.93 62.314l-25.69 76.456-28.39-76.456h54.08zm156.58-62.314h-22.57l-42.8 75.576h-13.59V201.39h-18.7v161.727h50.99c12.81 0 23.65-4.232 32.54-12.696 8.88-8.464 13.32-18.764 13.32-30.905 0-12.311-4.11-22.487-12.32-30.523-8.21-8.037-18.48-12.056-30.8-12.056l43.93-75.547zm-19.77 118.657c0 7.695-2.9 14.575-8.71 20.643-5.81 6.069-12.64 9.101-20.5 9.101h-29.98v-59.748h29.73c8.71 0 15.8 2.861 21.26 8.591 5.47 5.727 8.2 12.867 8.2 21.413zm132.82 43.07l-6.41-13.073h-64.84v-55.371h53.82l-6.66-12.827h-47.16v-67.629h69.71V201.39h-88.16v161.474l89.7.253zm191.2-.31l-6.66-13.076h-64.58v-55.058h54.07l-6.95-12.827h-47.12V201.39h-18.46v161.417h89.7zm144.06-78.132c0-21.871-5.9-41.091-17.68-57.663-13.33-18.625-30.59-27.94-51.77-27.936-21.19-.004-38.44 9.311-51.77 27.936-11.79 16.576-17.68 35.795-17.68 57.663 0 21.701 6.05 40.412 18.16 56.129 13.13 17.088 30.18 25.63 51.16 25.63 21.15 0 38.29-8.542 51.42-25.63 12.11-15.717 18.16-34.428 18.16-56.129zm-21.53 0c.01 17.433-3.92 32.56-11.78 45.384-9.06 14.696-21.1 22.046-36.14 22.049-15.2-.003-27.33-7.353-36.38-22.049-8.03-12.824-12.05-27.951-12.05-45.384 0-18.632 4.1-34.784 12.3-48.459 9.22-15.041 21.18-22.565 35.88-22.565 14.69 0 26.65 7.524 35.88 22.565 8.2 13.675 12.3 29.827 12.29 48.459zm160.12-28.452c0-16.743-5.6-30.453-16.79-41.131-11.2-10.681-25.25-16.02-42.16-16.016-16.41-.004-30.12 5.293-41.14 15.888-11.03 10.593-16.54 24.264-16.54 41.01v103.801l19.21 6.41V259.06c0-29.901 13.34-44.765 40.01-44.594 13.34 0 23.81 4.1 31.42 12.301 7.6 8.2 11.41 19.131 11.41 32.798v103.271h14.58V256.223zm151.48-54.833h-18.47l-90.46 132.239V201.39h-13.08v159.663l14.84 5.125 94.34-137.913v134.571h12.83V201.39zm146.09 78.135c0-21.01-5.81-39.29-17.42-54.837-12.47-16.742-28.1-25.114-46.89-25.114-17.6 0-34.6 6.667-51 19.996v143.547l51.77-.31c20.67-.174 36.81-9.058 48.43-26.651 10.07-15.547 15.11-34.421 15.11-56.631zm-21.27-2.054c0 48.338-18.28 72.509-54.84 72.509h-20.24V223.923c8.2-7.517 17.6-11.272 28.19-11.272 14.69 0 26.48 7.086 35.36 21.266 7.69 12.468 11.53 26.986 11.53 43.554zm163.52-76.081h-19.73l-17.41 50.238h-62.3l-18.48-50.238h-14.06l58.43 158.883 18.2 5.912 55.35-164.795zm-40.93 62.314l-25.68 76.456-28.39-76.456h54.07zm145.26 86.589h-47.42V201.39h-18.96v148.903h-48.17l5.89 12.571 108.66.253v-12.824zm39.42-148.903h-18.95v158.136l18.95 6.406V201.39zm162.06 83.285c0-21.871-5.9-41.091-17.69-57.663-13.32-18.625-30.58-27.94-51.77-27.936-21.18-.004-38.43 9.311-51.76 27.936-11.79 16.576-17.68 35.795-17.68 57.663 0 21.701 6.05 40.412 18.16 56.129 13.13 17.088 30.18 25.63 51.16 25.63 21.14 0 38.29-8.542 51.42-25.63 12.1-15.717 18.16-34.428 18.16-56.129zm-21.53 0c.01 17.433-3.92 32.56-11.79 45.384-9.05 14.696-21.09 22.046-36.13 22.049-15.2-.003-27.34-7.353-36.39-22.049-8.03-12.824-12.04-27.951-12.04-45.384 0-18.632 4.1-34.784 12.3-48.459 9.22-15.041 21.18-22.565 35.88-22.565 14.69 0 26.65 7.524 35.87 22.565 8.21 13.675 12.31 29.827 12.3 48.459zm166.81-83.285h-18.47l-90.46 132.239V201.39h-13.08v159.663l14.84 5.125L3798 228.265v134.571h12.83V201.39z" fill="#333" fill-rule="nonzero" stroke-miterlimit="79.84" stroke-width=".214"/><rect width="71.355" height="1484.55" x="-35.677" y="-742.275" fill="url(#c)" stroke-miterlimit="79.84" stroke-width=".5" rx="25.227" transform="rotate(90.009 1278.14 1788.967)"/></g></svg>