<svg xmlns="http://www.w3.org/2000/svg" role="img" viewBox="-1.97 -3.22 362.44 131.19"><title>Rekor logo</title><style>svg {enable-background:new 0 0 360 125}</style><style>.st0{fill:#fff}.st1{fill:#2e2f71}.st2{fill:#8c5ca6}</style><path d="M78.88985 119.61432c-.55389.04883-1.1068.07324-1.65936.08642.5525-.01318 1.10547-.0376 1.65936-.08642zm24.02631-15.333a21.60753 21.60753 0 0 1-.1574.33105 22.19793 22.19793 0 0 0 .1574-.33106zm1.16815-2.97462c-.0407.12354-.07995.24707-.12213.37012.04218-.12305.08142-.24658.12213-.37012zm-27.35443 18.39795zm27.75757-19.69824a38.2313 38.2313 0 0 0 0 0zm.34753-1.26611c-.03234.12548-.06695.25-.10028.375.03333-.125.06794-.24952.10028-.375zm-89.27423-3.27247c.33936.25782.69025.50635 1.06409.73682.41394.25488.849.49268 1.3053.7129.1662.08056.341.14306.51452.208-.17352-.06494-.34832-.12793-.51452-.2085-.86835-.41992-1.65436-.90576-2.36939-1.44922zm97.50562-47.6665c.03692.16504.0727.33057.10766.49561-.03497-.16504-.07074-.33057-.10766-.4956zm-.47327-1.9502c-.00067-.00243-.00116-.00487-.00183-.00732a26.45896 26.45896 0 0 0-.51025-1.68554c-.00165-.00488-.00379-.00928-.00544-.01416.18958.55762.36213 1.12402.51587 1.70068a.11643.11643 0 0 1 .00165.00635zm-1.48523-4.11913c.08588.18994.17566.37793.25733.57031-.08167-.19238-.17145-.38037-.25733-.57031zm2.69287 10.55322c.01636.16455.0312.3296.04499.49463a30.9369 30.9369 0 0 0-.04499-.49463zm-3.61041-12.4043c.1095.20142.21637.4043.32105.6084-.10474-.2041-.2115-.40698-.32105-.6084zm-1.00653-1.72045c.1087.17163.21008.34716.31519.52075-.10517-.17359-.20649-.34912-.31519-.52075zM86.72298 10.23419c-.20562-.16552-.40838-.33496-.6209-.4917-1.36133-1.00341-2.8592-1.82836-4.42945-2.55761a31.96314 31.96314 0 0 0-1.95843-.83106c-.62311-.24023-1.25123-.45654-1.88251-.65722 1.29773.4126 2.57947.90259 3.84112 1.48852 1.81525.84326 3.52747 1.82227 5.05017 3.04907zm-45.93713 1.26832c-1.18756.80664-2.32806 1.67749-3.44635 2.57934-.60278.48633-1.20062.97925-1.79901 1.47192-.84668.69678-1.68683 1.40113-2.52197 2.11085.83508-.70972 1.67535-1.41382 2.52197-2.1106 1.70862-1.4065 3.41778-2.80982 5.24536-4.05151zm26.5398-7.60743c-.66407-.03515-1.32996-.06079-1.99836-.07422-.79876-.01391-1.59454.00147-2.38739.04322-.71734.03784-1.43152.10376-2.1441.18237 1.5003-.16553 3.01013-.25195 4.5315-.22534.66833.01343 1.33428.03882 1.99835.07397zm27.16137 18.27735c-.16748-.2373-.33642-.47315-.49426-.71753-.45374-.70166-.86731-1.4336-1.23724-2.19727a20.29972 20.29972 0 0 1-.52185-1.16992c-.14301-.34985-.29548-.6958-.45124-1.04004.15576.34448.3083.69019.4513 1.04029.6015 1.47168 1.36401 2.8252 2.2533 4.08447zm3.60773 4.02685c2.60394 2.33667 5.18622 4.6919 7.52277 7.29883-.51624-.57593-1.03876-1.14575-1.57715-1.69946-1.26532-1.30103-2.5846-2.54688-3.9245-3.77246-.66999-.6128-1.3451-1.22046-2.0213-1.8274-.42145-.37817-.8233-.77123-1.21582-1.17138.39257.40039.79443.79346 1.216 1.17187zm-2.62378-2.72534c-.08795-.10669-.16864-.219-.25458-.3274.43292.5459.89118 1.07325 1.37403 1.58204-.38703-.40771-.76429-.823-1.11945-1.25464zM72.0245 4.36823zm-18.96204 1.26zM50.885 6.37l-.004.002.006-.002zm25.04087-1.21735c.44372.11377.88452.2417 1.32464.37305-.44012-.13135-.88092-.25928-1.32464-.37305zm-20.04322-.28637c.6941-.15357 1.39105-.2881 2.08948-.41211-.69843.12402-1.39532.25878-2.08948.4121zm-7.42376 2.51c.19488-.08642.38897-.17504.58483-.25903-.19586.08399-.38995.1726-.58483.25904zm-1.88593.87793c.2113-.10327.4234-.20507.63574-.3059a62.60184 62.60184 0 0 0-.63574.3059zM16.12563 32.44635c3.25489-1.7832 6.07068-4.05029 8.5506-6.82129 1.5769-1.7627 3.2591-3.41748 4.99799-5.0127-.82886.7605-1.64838 1.53077-2.4452 2.32447-.87481.87134-1.72765 1.76538-2.55291 2.68775-2.47992 2.77124-5.29553 5.03808-8.55066 6.82153-.7295.3999-1.43646.83008-2.12268 1.28809-1.37244.91601-2.66174 1.94311-3.88178 3.06103-.60998.55908-1.20263 1.14063-1.77972 1.74268-.28265.29492-.54773.59619-.7951.9038-.22278.2771-.42646.56153-.62055.84961.40967-.60766.87854-1.19311 1.41571-1.75317 2.30817-2.40771 4.86621-4.49267 7.7843-6.0918zm57.8667-27.73364c.41107.08276.8202.17505 1.22846.27124-.40827-.09619-.81739-.18848-1.22846-.27124zm-3.98529-.60156c.42517.04468.84943.0935 1.27222.14966-.42273-.05616-.8471-.10498-1.27222-.14966zm-11.41388.24023c.52277-.08545 1.04688-.16089 1.57209-.2273-.52527.06641-1.04932.14185-1.57209.2273zm9.3006-.41821c.47296.03003.94525.06323 1.41565.10596-.4704-.04273-.94269-.07593-1.41565-.10596zm34.34052 42.39111c-.75379-2.33496-1.57557-4.63891-2.70081-6.81787-1.96503-3.80566-4.68536-7.05566-7.71234-10.04126-2.20795-2.17798-4.62726-4.11718-7.32153-5.69262-2.10712-1.2317-4.35596-2.11329-6.6319-2.97828-2.2942-.87255-4.62476-1.6101-6.96423-2.333-1.43555-.44312-2.90204-.78882-4.38886-.9812-7.1654-.92408-14.00934.20898-20.53223 3.30493l.49665.22754c.12115.22314.38061.52905.23236.7146-.31983.40063.00042.28955.17322.26806.18597-.0232.3656-.09912.54644-.15674 2.22028-.7041 4.41468-1.51 6.73554-1.83691 1.25928-.17773 2.48602-.55762 3.7589-.62988 1.17463-.06714 2.35603-.02515 3.52809-.11402 3.57043-.27173 7.04217.3772 10.49316 1.13208 1.55286.33936 3.04645.91724 4.53705 1.5 3.6162 1.41236 7.00409 3.21094 10.12127 5.53028 2.31238 1.7207 4.38227 3.7041 6.41211 5.73632.16877.1687.34076.2793.6051.34815.50916.13403 1.10938.13818 1.48041.60205 1.50818 1.88452 2.5625 4.03125 3.5243 6.22388.83868 1.91089 1.54315 3.8767 2.20623 5.85473 1.45105 4.32862 2.38062 8.75928 2.48456 13.33887.0282 1.23193.00427 2.46387.00427 3.6958l.16755-.00098c.17938-1.61181.41827-3.21923.5174-4.83496.07055-1.15185-.05464-2.31591-.10694-3.47168-.13324-2.93847-.76142-5.78662-1.66577-8.58789zM80.308 97.04108c-.79786.05029-1.41315.38965-2.03583.67724-3.96771 1.83252-8.15515 2.78028-12.49841 3.02051-3.44465.18994-6.87061-.0586-10.27356-.66357-6.70856-1.19336-12.73713-3.8711-17.97309-8.24463-5.18261-4.3296-8.99365-9.70655-11.79956-15.81397-1.3991-3.0454-2.3407-6.25-3.20868-9.49902.07074 1.0376-.07599 2.07568-.01922 3.0918.05822 1.04394.44494 2.06982.68536 3.10449.28375 1.2207.73975 2.38037 1.1858 3.5498.97765 2.56348 2.16924 4.98438 3.86016 7.17871 1.47223 1.90967 2.9215 3.8208 4.59344 5.56934 1.96924 2.06055 4.16724 3.83398 6.48365 5.46436.79193.55712 1.4688 1.28076 2.3507 1.69921 1.43683.68067 2.8656 1.39063 4.34607 1.96436 1.83368.70947 3.6789 1.38281 5.61127 1.83545 1.68103.39404 3.38855.64111 5.0619 1.0581.20037.0498.41515.07178.62163.063 1.10602-.0464 2.19886.13085 3.29932.1748 1.5885.0625 3.16614.29883 4.76941-.01319.87897-.17187 1.7992-.21533 2.71564-.20361.88763.01172 1.79223-.05664 2.66272-.22559 3.17437-.6167 6.17547-1.72802 8.99426-3.31884.18744-.10596.39758-.19385.56702-.46875zm-.2707-44.01172c-1.97436 0-3.5747 1.60059-3.5747 3.5747 0 1.97462 1.60034 3.57472 3.5747 3.57472s3.57508-1.6001 3.57508-3.57471c0-1.97412-1.6007-3.5747-3.57507-3.5747zm-14.98748 53.40869c-.92359-.08545-1.84809-.11182-2.77619-.13281-1.40252-.03223-2.80035-.2461-4.20288-.28467-2.73932-.07617-5.44604-.51074-8.16064-.79395-2.14105-.22363-4.31513-.67773-6.23291-1.82959-.12921-.07714-.2749-.13037-.41742-.18164-.37299-.13427-.58692-.00879-.62927.39453-.05103.48584.0271.95704.25415 1.38233.32171.60156.63073 1.22314 1.03991 1.76465.93866 1.24267 2.12622 2.10742 3.77082 2.08252 1.13794-.0171 2.27594-.06543 3.41198-.12744.51044-.02784 1.02216-.07276 1.52155-.2124 1.35504-.37891 2.73913-.61524 4.12854-.82471.25055-.03711.4903 0 .7362.02783 1.24384.13916 2.48877.27002 3.60706.39062 1.5495-.03955 2.92786-.23193 4.1372-1.06445.15247-.10498.39857-.1914.34797-.40283-.06287-.26319-.33948-.16992-.53607-.188zm-31.34436-8.57227c-1.06-.53466-2.01502-1.19726-2.86518-2.03564-.75293-.74219-1.41687-.53125-1.7854.4707-.21008.5713-.0487 1.12158.00763 1.68506.1576 1.56494 1.02466 2.27588 2.57099 2.0171 1.44165-.24073 2.85876-.61866 4.31634-.77833.19892-.02148.41767-.05371.63898-.25586-.45996-.32373-.90772-.54736-1.4228-.64258-.50365-.09326-.9942-.22558-1.46056-.46045zm46.33185-32.58007c-1.97437 0-3.57471 1.60107-3.57471 3.57568 0 1.97412 1.60034 3.57422 3.5747 3.57422s3.57508-1.6001 3.57508-3.57422c0-1.97461-1.6007-3.57568-3.57507-3.57568z" class="st0"/><path d="M24.34035 88.69977c.27424.22412.62012.36328.94166.5249.1391.06934.302.06592.42968-.04443.14423-.12451.08582-.28028.02735-.42041-.05848-.13965-.11945-.2832-.21137-.3999-.71588-.91065-1.3695-1.88282-2.1756-2.70655-1.7265-1.76416-2.97418-3.83789-4.10772-5.99512-.3164-.60302-.72882-1.15966-.9118-1.83105-.74-2.71338-1.44697-5.44092-1.62318-8.25537-.13873-2.21045-.68682-4.34766-1.01428-6.52148-.31793-2.11328-.70886-4.20899-.84955-6.34864-.10864-1.65576-.08111-3.30029.10126-4.94482.17792-1.604.38928-3.2041.82599-4.7627.79785-2.84716 2.01587-5.52148 3.34637-8.15234 1.32795-2.62646 3.00959-5.0083 4.8874-7.26 1.16741-1.39942 2.41485-2.7317 3.51788-4.1858.35858-.47241.6549-.9746.9298-1.65332-.68072.21045-1.24114.37451-1.68249.84204-2.1925 2.3208-4.34222 4.6875-6.61352 6.92993-2.64423 2.6106-4.27997 5.77344-5.4317 9.23682-1.05897 3.18457-1.52155 6.46924-1.5033 9.81348.01544 2.89062.44983 5.75048.8169 8.61084.23913 1.86328.51318 3.73046.67626 5.59179.17621 2.01367.43329 3.99707.86432 5.96533.79273 3.61817 2.0722 7.06299 3.79004 10.33692.72351 1.3789 1.7077 2.58105 2.80103 3.70996.67962.70166 1.42114 1.31005 2.16857 1.91992zm85.69135-34.66699c-.21857-3.28174-.88464-6.47607-2.64044-9.35742.74743 3.11767 1.41266 6.24756 1.63952 9.44433.22657 3.19727-.1076 6.40137.09443 9.61084.95605-3.17138 1.1242-6.43115.90649-9.69775z" class="st0"/><path d="M110.62704 45.47663c.99353 2.9746 1.55182 6.01611 1.7204 9.1377.0288.53075.05194 1.06298.04577 1.59374-.02075 1.71973.1065 3.43897-.2243 5.15283-.28022 1.45069-.5763 2.896-.86096 4.3545.03436-.04249.08093-.0796.1015-.12843 1.92431-4.56835 2.55908-9.29052 1.84875-14.21679-.6117-4.24072-1.89264-8.24902-3.94916-11.9939-2.3128-4.21118-5.5346-7.64819-9.30499-10.5896-.1372-.10717-.26599-.29833-.57562-.20727.36084.21777.55151.50415.7586.7749 1.82312 2.38477 3.64032 4.77368 5.46943 7.1543 2.10565 2.74145 3.86694 5.66089 4.97058 8.96802zM44.79128 9.15533c.17731-.09301.3559-.18285.53382-.2744-.17792.09155-.35651.18139-.53382.2744zM81.56966 43.8365h-6.63934V37.9632c0-1.27612-1.0213-2.04248-2.04278-2.04248h-25.2796c-3.3197 0-6.12855 2.80884-6.12855 6.12842v34.21655c0 3.3203 2.80908 6.1289 6.12854 6.1289h33.96173c1.2765 0 2.04273-1.02197 2.04273-2.04248 0-1.53271-1.02167-2.5542-2.04273-2.5542H47.60793c-1.02148 0-2.04297-.76611-2.04297-2.04297V47.66706c.51062.25537 1.27686.25537 2.04297.25537h33.96173c1.2765 0 2.04273-1.02197 2.04273-2.04297 0-1.27686-1.02167-2.04297-2.04273-2.04297zM70.845 43.58112H47.60793c-1.02148 0-2.04297-.76611-2.04297-2.04273 0-.76586 1.02149-1.7876 2.04297-1.7876H70.845v3.83033zm32.13013 42.03027c-1.0755 1.94531-2.04047 3.9746-3.42877 5.70996-2.4331 3.04395-4.57202 6.32422-7.32514 9.11084-1.01678 1.02832-2.09124 1.97705-3.2788 2.80908-.69593.4873-1.38678 1.00196-1.95716 1.64649-.53583.60498-.47381.85498.27808 1.17431.1029.04346.21942.08155.32892.08008 1.00518-.0083 2.00866.05615 3.01513-.09277 1.55475-.23145 3.01612-.75537 4.4521-1.34864 1.2174-.50439 2.30395-1.27783 3.29638-2.11376 1.01788-.85694 1.8028-1.95704 2.33587-3.21973.5619-1.33057 1.00287-2.70166 1.45252-4.06836.52252-1.58838.75421-3.24756 1.10199-4.87842.31744-1.48584.55615-2.9834.69977-4.49219.04107-.42822.16308-.9497-.23853-1.3794-.35242.31983-.5318.69923-.73236 1.0625zm2.16596 11.89258c.00091-.0039.00195-.00782.00286-.01172.05896-.25049.10865-.50195.1634-.75293-.05475.25098-.10444.50293-.16346.75293-.00091.0039-.00189.00781-.0028.01172zm-85.39942 1.23779c.2768-.2959.37726-.55176.30975-.76807.01868.06006.02778.12159.0202.1875-.01324.11524-.0664.23975-.15984.37305-.0467.0669-.10346.13574-.17023.20703-.06488.06934-.13892.13135-.20001.20362-.19013.22363-.3681.45166-.53974.68164.17151-.22998.34961-.45801.53968-.68164.06121-.07178.13537-.13428.2002-.20313zm-2.42206 4.34766c-.06347.26904-.1178.54101-.15301.81982-.07788.6167-.0846 1.25879-.01087 1.92969.06092.5537.18634 1.07715.36707 1.56592.18066.48828.41662.9414.69849 1.354.00024 0 .00067.00049.00091.00098-.56409-.82569-.94452-1.813-1.06634-2.9209-.10706-.97412-.0401-1.88623.16375-2.74951zm10.36994 7.23144c.98694-.07226 1.97021.24512 2.72644.88037.32824.2754.6023.62158.82678 1.01123-.7417-1.2876-2.13788-1.9956-3.55322-1.8916zm-8.64759-12.97558c.12696.04345.25415.08642.37995.13183.10675.03809.1969.08057.27746.12549-.08062-.04492-.17059-.0874-.27734-.12598-.1258-.0454-.25305-.08789-.38007-.13134zm.7234.30029c.0512.03271.09692.0669.13512.10303-.0382-.03614-.08398-.07032-.13513-.10303zm62.42742 21.43896c.1338-.03027.2671-.04931.40094-.08154 1.21655-.29687 2.40296-.65723 3.56153-1.07666 1.15863-.41992 2.2893-.89844 3.39471-1.43164 2.2107-1.06592 4.31988-2.34863 6.34656-3.80957-4.05335 2.92139-8.4364 5.13086-13.30262 6.31787-.1339.03223-.26727.05127-.40112.08154zm-50.84033-6.70068c.11145.22021.2149.44434.32086.66748s.21448.44531.32099.66797c.03924.08203.07702.16455.11584.24707-.03882-.08252-.07642-.16553-.11572-.24756-.2129-.44531-.41913-.89453-.64197-1.33496zM62.61758 7.29914c.10827.02758.2262.02124.33972.02002.66717-.00562 1.32733.07666 1.98456.17456 4.19311.625 8.32904 1.5376 12.42175 2.6228 2.84778.75488 5.34784 2.26025 7.63476 4.094 1.59357 1.27782 2.82703 2.9143 4.18763 4.42187.18127.20068.33526.54346.6809.36597.33399-.17212.23658-.5227.20331-.82178-.01037-.09229-.05505-.18042-.08618-.27075-.73938-2.15015-1.79095-4.06421-3.58356-5.57398-2-1.68579-4.16857-3.0752-6.59399-3.99365-3.8767-1.46729-7.95337-1.93189-12.07019-2.09326-.39948 0-.80188-.03223-1.19751.00537-1.31989.12573-2.66608.05127-3.94403.4978-.12708.04443-.34949.03735-.3368.23389.0119.18262.19001.27441.35963.31714zM10.16067 75.28082c.23425-1.96289.35876-3.93799.3988-5.91552.01386-.68165-.05676-1.34424-.1737-1.99707.07238.4043.13012.81152.15643 1.22558.01617.25488.02246.5122.0172.77197-.0401 1.97705-.16472 3.95215-.39898 5.91504-.13177 1.10303-.20886 2.20215-.23407 3.29785-.02514 1.09522.00153 2.18653.07746 3.2749s.20105 2.17383.37262 3.25587c-.51453-3.24659-.61127-6.51856-.21576-9.82862zm29.97937 45.89795c.27484-.00781.55383-.02637.83886-.06152.41346-.05078.81604-.13184 1.20972-.23828.13117-.03516.25586-.08838.38507-.1289-.51709.16259-1.04364.2993-1.59472.36669-.28504.03516-.5641.0542-.83893.06201zm14.70807-8.11914c.14636-.02685.29315-.05273.4453-.06152-.15246.00781-.29858.03613-.4453.06152zM5.54299 51.92536c-.10333-.49072-.19012-.9834-.26776-1.47803.07764.49463.16449.9873.26776 1.47803zm28.46088 65.73876c-.24475-.37988-.46405-.77392-.67426-1.17285.2102.39893.42945.79297.67426 1.17285zm-15.06763-8.05517c-.06134-.06201-.12512-.12158-.18396-.18604.05896.06446.1225.12354.18396.18604zm5.78754 1.67773c.01312-.00342.02612-.00879.03924-.01172-.01373.00293-.0274.0088-.04113.01172h.00189zm10.17218 7.57617h.00006c-.04553-.05273-.07874-.11181-.12293-.16504.04413.05323.07734.11231.12287.16504zm.62799.64551c-.0188-.01709-.03595-.03857-.05463-.05615.01868.01758.03583.03906.05463.05615zm-15.22547-8.854c-.07434-.042-.1449-.08985-.21746-.13477.07269.04492.143.09278.21746.13477zm3.55475.76513c-.08966.00782-.17852.0083-.26782.01221.08948-.0039.17798-.0039.26782-.0122zm12.29962 8.59473c-.21405-.15283-.42352-.31885-.62615-.50342.20263.18457.41204.35059.62615.50342zm-16.55767-9.8252a5.94389 5.94389 0 0 1-.2262-.18017 6.3585 6.3585 0 0 0 .2262.18018zm2.5053 1.12842c-.08373-.01709-.16845-.03027-.25121-.05078.08288.02051.16735.0337.25122.05078zm.8822.11329c-.09814-.00538-.1958-.0127-.29314-.02295.09753.01025.19476.01757.29315.02295zm10.14845 4.67236c-.15302-.3042-.30335-.60986-.4483-.91846.14495.3086.29528.61426.4483.91846zm21.54016-3.01416c-.18408.04199-.36316.10547-.5395.1787.1761-.0747.35572-.13427.5395-.1787zm7.59692 2.8706c1.18036.68848 2.40558 1.28272 3.6806 1.77344.20307.07764.41565.13623.62128.20899-1.56921-.55616-3.06872-1.25733-4.4975-2.10694.06617.03955.12915.08545.19562.12451zm7.25745 2.85889c-.52759-.12793-1.05493-.26465-1.58142-.417.52655.15235 1.05383.28907 1.58142.417zm-32.70783 1.60889c-.1524-.08252-.3006-.17676-.44793-.27295.14733.09619.29547.19043.44793.27295zm36.5094-.91407c-.53296-.06347-1.06518-.14501-1.59698-.23681.5318.0918 1.06396.17383 1.59698.23681zm-2.10467-.33154zm-32.96564 1.79785zm15.83514-7.69629c-.18829.08008-.37323.18164-.55426.29932.18134-.11816.36597-.21728.55426-.29932zm-16.5736 7.46485c-.14722-.05664-.29139-.12207-.4344-.19043.14295.06836.28718.13379.4344.19043zm1.52154.37402c-.1626-.01953-.32391-.04297-.48236-.07422.15839.03125.31976.05469.48236.07422zm.8515.05322c-.18762-.00097-.37427-.00488-.55688-.01904.18261.01416.36926.01807.55688.01904zM9.22958 63.36432c-.77735-2.29443-1.64978-4.55761-2.409-6.85742.75915 2.3003 1.63153 4.56348 2.409 6.85742zm21.18878-43.42407c.62127-.55835 1.24792-1.11108 1.88135-1.65674-.63343.54566-1.26008 1.0984-1.88135 1.65674zm44.59778 99.71997c-.53357-.03174-1.0666-.07471-1.59894-.13623.53229.06152 1.06537.10449 1.59894.13623zM10.35848 67.20856c-.07403-.38526-.16559-.7666-.26861-1.14551.10296.3789.19458.76025.26861 1.1455zM5.21267 50.00739c-.05176-.36963-.09503-.74072-.13037-1.1128.03534.37208.07855.74317.13037 1.1128zm4.82275 15.8584c-.10632-.37598-.221-.7505-.34283-1.12354.12182.37305.2365.74756.34283 1.12353zm-.41205-1.33301c-.12054-.36377-.24359-.72705-.36639-1.09033.12268.36328.24591.72656.3664 1.09033zm7.7572 38.3247c.05323-.19824.11347-.39404.18128-.5874a8.19394 8.19394 0 0 0-.18127.5874zM6.37155 41.20465zm-1.203 3.3667c-.02747.1499-.03906.30616-.0608.4585.10377-.72705.27302-1.42725.50624-2.10254-.18445.5337-.34192 1.07764-.44544 1.64404zm-.19727 2.35303v.00049c-.00054-.07031.00715-.1372.00763-.20654-.00048.06933-.00817.13623-.00763.20605zm.07007 1.52197c-.03827-.5044-.0658-1.01074-.07-1.5205.0042.50976.03167 1.0161.07 1.5205zm.75782-6.0542c.12652-.31347.27221-.6189.42755-.9209-.15534.302-.30103.60792-.42755.9209zm9.47723 52.84815c-.24646-.19922-.48328-.40577-.71045-.62012.22717.21435.46399.4209.71045.62012zm-.9723-.86963c-.58642-.5879-1.10436-1.23194-1.55419-1.93067.44983.69922.96783 1.34278 1.5542 1.93067zm4.19807 5.9834zm-.86127 1.69335c.19617-.5127.44202-1.0078.73175-1.48779-.2898.47998-.53558.9751-.73175 1.4878zm2.38574-4.12695a.51824.51824 0 0 1 0 0zm-8.57708-8.14355h.00012c-.146-.41455-.26935-.84766-.38129-1.29004.11182.44238.23523.875.38117 1.29004zm-.42212-1.42871h.00012c-.25122-1.03418-.45966-2.07032-.62787-3.10938.16821 1.03857.37659 2.0752.62775 3.10938zm.91528 2.62353c-.17932-.38574-.34723-.78076-.49268-1.19385.14545.41309.31336.8081.49268 1.19385zm.61609 1.15332c-.15942-.26514-.30945-.53808-.45014-.81836.14069.28028.29078.55322.45014.81836z" class="st0"/><path d="M113.84573 52.77985c-.0138-.16504-.02863-.33008-.04499-.49463-.1328-1.33789-.34716-2.667-.6267-3.98828-.03498-.16504-.07075-.33057-.10767-.4956-.14563-.65137-.30042-1.30176-.47327-1.9502-.00055-.00244-.0011-.0044-.00165-.00635-.15374-.57666-.32629-1.14307-.51587-1.70068-.21325-.62647-.4541-1.23877-.71038-1.8418-.08167-.19238-.17145-.38037-.25733-.57031-.18957-.41944-.38696-.83447-.5965-1.24268a28.58865 28.58865 0 0 0-.32104-.6084c-.22046-.40551-.4519-.80468-.69134-1.1997-.1051-.17359-.20649-.34912-.31519-.52075-.96783-1.52735-2.06934-2.98023-3.28973-4.3645-.08979-.10181-.18604-.19678-.27655-.29786-2.33655-2.60693-4.91883-4.96216-7.52277-7.29883-.42157-.37841-.82343-.77148-1.216-1.17187a24.61881 24.61881 0 0 1-.28833-.29883c-.48285-.50879-.9411-1.03613-1.37403-1.58203-.25201-.31812-.49536-.64258-.72937-.97412-.88928-1.25928-1.6518-2.6128-2.2533-4.08447-.143-.3501-.29553-.6958-.45129-1.04029-.57946-1.28076-1.25042-2.51904-2.07013-3.67554-.86413-1.2185-1.87774-2.24218-2.98932-3.13794-1.5227-1.2268-3.23492-2.2058-5.05017-3.04907-1.26165-.58593-2.5434-1.07592-3.84112-1.48852-.19287-.06128-.38764-.11304-.58118-.1709-.44012-.13135-.88092-.25928-1.32464-.37305-.23426-.0603-.46985-.11328-.70508-.1687-.40827-.09619-.81739-.18848-1.22846-.27124-.2481-.0498-.49695-.0962-.74603-.14136a42.756 42.756 0 0 0-1.2218-.20312c-.24811-.03711-.49628-.07422-.74524-.10742-.4228-.05616-.84705-.10498-1.27222-.14966-.23242-.02442-.46454-.05103-.69763-.07202-.4704-.04273-.94269-.07593-1.41565-.10596-.18951-.01172-.37823-.02783-.56811-.03809-.66407-.03515-1.33002-.06054-1.99836-.07397-1.52136-.02661-3.03119.05981-4.5315.22534-.2105.02295-.4204.05127-.63054.07764-.52521.0664-1.04932.14184-1.57209.2273-.20709.03393-.41437.06615-.62103.10278-.69843.12402-1.39539.25854-2.08948.4121-.0006 0-.00122 0-.00183.00025-.76587.16919-1.51776.37402-2.26373.594a35.64378 35.64378 0 0 0-.55463.16772c-.7326.22876-1.45965.47119-2.17566.74145-.00207.00074-.00415.00147-.00622.00244-.61823.2334-1.22937.48487-1.83686.74512-.19586.08399-.38995.1726-.58483.25903-.4187.1858-.83576.37574-1.25019.57203-.21234.10083-.42444.20263-.63574.3059a66.71199 66.71199 0 0 0-1.24786.62671c-.17792.09156-.35651.1814-.53382.27442-.58416.30664-1.16607.6189-1.74457.9392-.7807.43238-1.52813.91016-2.26086 1.40797-1.82758 1.2417-3.53674 2.64501-5.24536 4.0515-.84662.69679-1.6869 1.40089-2.52197 2.1106-.24097.20484-.47925.4126-.71881.6189-.63343.54566-1.26008 1.0984-1.88135 1.65674-.2486.22339-.49787.44629-.74414.67212-1.7389 1.59521-3.42108 3.25-4.99799 5.0127-2.47992 2.771-5.29571 5.03808-8.5506 6.82128-2.91809 1.59913-5.47613 3.68409-7.7843 6.0918-.53717.56006-1.00604 1.1455-1.41571 1.75317-.05707.08472-.11029.1709-.16492.2566a11.627 11.627 0 0 0-.38916.65673c-.04864.08887-.0987.177-.14483.2666-.15534.302-.30103.60743-.42755.9209-.07074.1748-.12354.35694-.18519.53516-.23321.6753-.40246 1.37549-.50622 2.10254-.07825.54834-.1247 1.10938-.12885 1.68848-.00048.06933-.00817.13623-.00763.20654 0 .00049.00007.00049.00007.00098.0042.50976.03173 1.01611.07 1.5205.01142.1499.0268.29883.04096.44825.03534.37207.07861.74316.13037 1.11279.02057.14697.03955.29394.06256.43994.07764.49463.16443.9873.26776 1.47803.11554.54834.2461 1.09424.3894 1.63818.26148.99268.56702 1.9707.88819 2.94336.75922 2.2998 1.63165 4.56299 2.409 6.85742.00884.02637.01855.05176.02734.07813h.00006c.1228.36328.24585.72656.3664 1.09033.02313.06982.04644.13964.0692.20947.12183.37305.23652.74756.34284 1.12353a21.5696 21.5696 0 0 1 .05445.19727c.10302.3789.19458.76025.26861 1.1455.0102.05274.01776.10645.02728.15968.11695.65283.18756 1.31543.17371 1.99707-.04004 1.97753-.16455 3.95263-.3988 5.91552-.39551 3.31006-.29877 6.58203.21576 9.82862.00683.04297.01623.08642.02325.1294.16821 1.03905.37665 2.07519.62787 3.10937v.00048c.0116.04737.02887.09082.04083.13819.11194.44238.2353.87549.38129 1.29004.00006.00049.0003.00049.00036.00097.14545.41309.31336.8081.49268 1.19385.05286.11377.11017.22363.16595.33496.14069.28028.29071.55322.45014.81836.06323.10547.12488.21192.1911.31494.44983.69873.96777 1.34278 1.5542 1.93067.08484.08545.17413.1665.26184.2495.22717.21436.46399.4209.71045.62013.09436.07617.18713.15332.28436.22753.71503.54346 1.50104 1.0293 2.36939 1.44922.1662.08057.341.14356.51452.2085.19843.0747.39594.15137.5973.21973.127.04345.25427.08593.38006.13134.10675.03858.19672.08106.27734.12598.02442.01367.04395.0288.06598.04297.05115.03271.09693.0669.13513.10303.0188.01806.03608.03613.05176.05468a.51612.51612 0 0 1 .0744.1172c.00824.01806.01905.03515.02478.05321.0675.21631-.03295.47217-.30975.76807-.06482.06885-.13898.13135-.2002.20313-.19006.22363-.36816.45166-.53967.68164-.049.06543-.09533.13232-.14276.19824a11.56426 11.56426 0 0 0-.35687.5293c-.04346.06836-.08783.13671-.12952.20556-.28973.47998-.53558.9751-.73175 1.4878-.02814.07373-.05298.14843-.07904.22265-.0678.19336-.12805.38916-.18127.5874-.0207.07715-.04254.15381-.06098.23194-.20385.86328-.27081 1.77539-.16375 2.7495.12182 1.10792.50225 2.09522 1.06634 2.9209.16107.23585.34076.4546.5301.6631.05883.06445.12261.12402.18395.18603.1388.14014.28198.27441.43274.3999a5.94389 5.94389 0 0 0 .2262.18018c.15667.11865.31897.22802.48584.33056.07257.04492.14312.09278.21746.13477.48542.27246 1.0063.479 1.55079.6123.08276.02051.16748.0337.25122.05078.1944.03907.3902.07032.58905.09034.09735.01025.195.01757.29315.02295.19964.01074.40045.00976.60272.00097.0893-.0039.17816-.0044.26782-.0122.28882-.0249.57862-.06543.86866-.13282.01373-.00293.0274-.00879.04113-.01172.49427-.11865.98755-.29687 1.4712-.54492.4674-.23974.96185-.37304 1.45532-.40918 1.41534-.104 2.81152.604 3.55322 1.8916.03418.05957.07843.10938.10968.1714.22284.44042.42908.88964.64197 1.33495.0393.08203.0769.16504.11572.24756.19159.40576.38196.81201.5727 1.21826.14495.3086.29528.61426.4483.91846.0653.12988.13073.25976.19848.38818.2102.39893.4295.79297.67426 1.17285.23108.3584.49267.7002.76922 1.0337.0442.05322.0774.1123.12293.16503h.00018c.18494.21338.37708.40674.57312.58936.01868.01758.03583.03906.05463.05615.00085.00098.0019.00147.00275.00244.20263.18457.4121.35059.62616.50342.07092.05078.1449.09278.21704.14014.14734.09619.29553.19043.44793.27295.0874.04736.17719.08789.26624.13037.143.06836.28717.13379.43439.19043.09576.0371.19293.07031.29046.10254a6.32647 6.32647 0 0 0 .448.1289c.09955.0249.1994.04883.30072.06836.15845.03125.31976.0547.48236.07422.09796.0122.19513.02637.29462.03418.18261.01416.36926.01807.55688.01904.08313 0 .1645.00538.24854.00342.27484-.00781.5539-.02685.83893-.062.55108-.0674 1.07763-.20411 1.59472-.3667 1.03455-.3252 2.01526-.79786 2.96686-1.33888 2.77393-1.57763 5.18817-3.65136 7.67651-5.62011.1048-.08252.21387-.13916.32074-.2085.18103-.11767.36597-.21924.55426-.29932.01319-.00585.02655-.01025.03974-.01562.17633-.07324.3554-.13672.53949-.17871.05792-.0127.11804-.01904.17682-.0293.14673-.02539.29284-.0537.4453-.06152.22303-.01074.45057-.00733.68739.01904 1.6933.18848 3.17138.89307 4.5498 1.83985.50446.34619 1.0205.66796 1.542.97802 1.42877.84961 2.92828 1.55078 4.4975 2.10694.43987.15576.87737.3169 1.32922.44775.01495.0044.02996.00781.04492.01172.52649.15234 1.05383.28906 1.58142.417.16803.041.33612.07763.5042.11571a34.19092 34.19092 0 0 0 1.1927.24756c.16925.03223.33832.06543.50769.09473.5318.0918 1.06402.17334 1.59698.23682.02997.0039.06.00732.08997.01074.53235.06152 1.06537.10449 1.59894.13623.16674.00976.33368.01513.50055.02197.40399.0166.80847.02393 1.2132.02246.16686-.00097.33367 0 .5006-.0039.55255-.01319 1.10547-.0376 1.65936-.08643 1.09809-.09717 2.19935-.27979 3.30292-.52979.13385-.03027.26721-.04931.40113-.08154 4.8662-1.18701 9.24926-3.39648 13.3026-6.31787 2.5229-1.81885 4.59766-4.00928 6.15137-6.71289.25654-.44629.48877-.90137.71088-1.35986a21.60803 21.60803 0 0 0 .15741-.33106c.396-.85156.74237-1.7207 1.04602-2.60449.04218-.12305.08142-.24658.12213-.37012.09662-.29248.19037-.58642.27936-.88183.042-.13916.08331-.27881.12378-.41846a43.62914 43.62914 0 0 0 .24725-.89111c.03333-.125.06794-.24952.10028-.375.10608-.41065.20856-.82227.3061-1.23633.00091-.0039.00189-.00781.0028-.01172.05902-.25.1087-.50195.16346-.75293.88714-4.0664 1.2395-8.20703 1.54553-12.34912.27405-3.71143.88891-7.35938 1.9754-10.91504.86713-2.83643 2.11414-5.5332 3.22266-8.2793.95373-2.3623 1.53064-4.7998 1.78015-7.3374.1684-1.71093.15472-3.40185.01465-5.07861zM62.59475 6.74811c1.27795-.44653 2.62415-.37207 3.94403-.4978.39563-.0376.79803-.00537 1.19751-.00537 4.11682.16137 8.19348.62597 12.0702 2.09326 2.4254.91846 4.59398 2.30786 6.59398 3.99365 1.7926 1.50977 2.84418 3.42383 3.58356 5.57398.03113.09033.0758.17846.08618.27075.03327.29907.13068.64966-.2033.82178-.34565.17749-.49964-.16529-.68091-.36597-1.3606-1.50757-2.59406-3.14404-4.18763-4.42188-2.28692-1.83374-4.78698-3.3391-7.63476-4.094-4.09271-1.0852-8.22864-1.9978-12.42175-2.6228-.65723-.0979-1.31739-.18017-1.98456-.17455-.11353.00122-.23145.00756-.33972-.02002-.16962-.04273-.34772-.13452-.35962-.31714-.0127-.19654.20971-.18946.33679-.23389zm-43.224 76.32178c-1.71783-3.27393-2.99731-6.71875-3.79004-10.33692-.43103-1.96826-.68811-3.95166-.86432-5.96533-.16308-1.86133-.43713-3.72851-.67627-5.5918-.36706-2.86035-.80145-5.7202-.8169-8.61083-.01824-3.34424.44434-6.62891 1.5033-9.81348 1.15174-3.46338 2.78748-6.62622 5.4317-9.23682 2.2713-2.24243 4.42103-4.60913 6.61353-6.92993.44135-.46753 1.00177-.63159 1.6825-.84204-.2749.67871-.57123 1.1809-.92981 1.65332-1.10303 1.4541-2.35047 2.78638-3.51789 4.1858-1.8778 2.2517-3.55944 4.63354-4.88739 7.26-1.3305 2.63086-2.54852 5.30518-3.34637 8.15235-.4367 1.55859-.64807 3.15869-.826 4.7627-.18236 1.64452-.2099 3.28905-.10125 4.94482.14069 2.13964.53162 4.23535.84955 6.34863.32745 2.17382.87555 4.31103 1.01428 6.52148.17621 2.81445.88318 5.542 1.62317 8.25537.18299.67139.5954 1.22803.9118 1.83105 1.13355 2.15723 2.38123 4.23096 4.10773 5.99512.8061.82373 1.45972 1.7959 2.1756 2.70654.09192.1167.1529.26026.21137.3999.05847.14014.11688.2959-.02735.42042-.12768.11035-.29059.11377-.42968.04443-.32154-.16162-.66742-.30078-.94166-.5249-.74743-.60986-1.48895-1.21826-2.16857-1.91992-1.09333-1.12891-2.07752-2.33106-2.80103-3.70996zm16.5791 16.15478c-1.45758.15967-2.8747.5376-4.31634.77832-1.54633.25879-2.4134-.45215-2.57099-2.01709-.05633-.56348-.21771-1.11377-.00763-1.68506.36853-1.00195 1.03247-1.21289 1.7854-.4707.85016.83838 1.80518 1.50098 2.86518 2.03564.46637.23487.9569.3672 1.46057.46045.51507.09522.96283.31885 1.42279.64258-.22131.20215-.44006.23438-.63898.25586zm29.28809 7.8042c-1.20935.83252-2.58771 1.0249-4.1372 1.06445-1.1183-.1206-2.36323-.25146-3.60706-.39062-.24592-.02783-.48566-.06494-.73621-.02783-1.3894.20947-2.7735.4458-4.12854.8247-.49939.13965-1.0111.18457-1.52155.2124-1.13604.06202-2.27404.11036-3.41198.12745-1.6446.0249-2.83216-.83985-3.77082-2.08252-.40918-.5415-.7182-1.16309-1.03991-1.76465-.22705-.4253-.30518-.89649-.25415-1.38233.04235-.40332.25628-.5288.62927-.39453.14252.05127.2882.1045.41742.18164 1.91778 1.15186 4.09186 1.60596 6.2329 1.8296 2.7146.2832 5.42133.71777 8.16065.79394 1.40253.03857 2.80036.25244 4.20288.28467.9281.021 1.8526.04736 2.77619.1328.1966.01808.4732-.07519.53607.188.0506.21142-.1955.29785-.34796.40283zm2.84607-5.97461c-.91645-.01172-1.83667.03174-2.71564.20361-1.60327.31202-3.1809.07569-4.7694.01319-1.10047-.04395-2.1933-.2212-3.29933-.1748-.20648.00878-.42126-.0132-.62164-.063-1.67334-.41699-3.38086-.66406-5.06189-1.0581-1.93237-.45264-3.77759-1.12598-5.61127-1.83545-1.48046-.57373-2.90924-1.2837-4.34606-1.96436-.8819-.41845-1.55878-1.14209-2.35071-1.69921-2.3164-1.63038-4.5144-3.40381-6.48365-5.46436-1.67193-1.74854-3.12121-3.65967-4.59344-5.56934-1.69092-2.19433-2.8825-4.61523-3.86017-7.1787-.44604-1.16944-.90204-2.3291-1.18579-3.54981-.24042-1.03467-.62714-2.06055-.68536-3.1045-.05677-1.0161.08996-2.0542.01922-3.0918.86798 3.24903 1.80957 6.45362 3.20868 9.49903 2.80591 6.10742 6.61695 11.48438 11.79956 15.81397 5.23596 4.37353 11.26453 7.05127 17.97309 8.24463 3.40295.60498 6.82891.85351 10.27356.66357 4.34326-.24023 8.5307-1.18799 12.4984-3.0205.62269-.2876 1.23798-.62696 2.03584-.67725-.16944.2749-.37958.36279-.56702.46875-2.81879 1.59082-5.81989 2.70214-8.99426 3.31884-.87049.16895-1.77509.2373-2.66272.22559zm11.9533-40.87548c-1.97436 0-3.5747-1.6001-3.5747-3.57471 0-1.97412 1.60034-3.5747 3.5747-3.5747s3.57508 1.60058 3.57508 3.5747c0 1.9746-1.6007 3.5747-3.57507 3.5747zm3.57508 8.6826c0 1.97413-1.6007 3.57423-3.57507 3.57423s-3.57471-1.6001-3.57471-3.57422c0-1.97461 1.60034-3.57568 3.5747-3.57568s3.57508 1.60107 3.57508 3.57568zm-2.04273-20.93895H47.60793c-.76611 0-1.53235 0-2.04297-.25537v28.08788c0 1.27686 1.02149 2.04297 2.04297 2.04297h33.96173c1.02106 0 2.04273 1.02149 2.04273 2.5542 0 1.02051-.76624 2.04248-2.04273 2.04248H47.60793c-3.31946 0-6.12854-2.8086-6.12854-6.1289V42.04914c0-3.31958 2.80884-6.12842 6.12854-6.12842h25.2796c1.02149 0 2.0428.76636 2.0428 2.04248v5.8733h6.63933c1.02106 0 2.04273.7661 2.04273 2.04296 0 1.021-.76624 2.04297-2.04273 2.04297zm22.37635 38.00585c-.14362 1.5088-.38233 3.00635-.69977 4.4922-.34778 1.63085-.57947 3.29003-1.102 4.8784-.44964 1.3667-.89062 2.7378-1.4525 4.06837-.53309 1.2627-1.318 2.3628-2.33588 3.21973-.99243.83593-2.07898 1.60937-3.29639 2.11376-1.43597.59327-2.89734 1.1172-4.45209 1.34864-1.00647.14892-2.00994.08447-3.01513.09277-.1095.00147-.22602-.03662-.32892-.08008-.7519-.31933-.8139-.56933-.27808-1.17431.57038-.64453 1.26123-1.15918 1.95716-1.64649 1.18756-.83203 2.26202-1.78076 3.2788-2.80908 2.75312-2.78662 4.89203-6.0669 7.32514-9.11084 1.3883-1.73535 2.35327-3.76465 3.42877-5.70996.20056-.36328.37994-.74268.73236-1.0625.40161.42969.2796.95117.23853 1.3794zm.06097-27.54443c-.09912 1.61573-.33801 3.22315-.5174 4.83496l-.16754.00098c0-1.23193.02393-2.46387-.00427-3.6958-.10394-4.57959-1.0335-9.01025-2.48456-13.33887-.66308-1.97802-1.36755-3.94384-2.20623-5.85473-.9618-2.19263-2.01612-4.33936-3.5243-6.22388-.37103-.46387-.97125-.46802-1.4804-.60205-.26435-.06885-.43634-.17944-.6051-.34815-2.02985-2.03222-4.09974-4.01562-6.41212-5.73632C83.48788 25.10065 80.1 23.30207 76.4838 21.8897c-1.4906-.58276-2.9842-1.16064-4.53705-1.5-3.45099-.75488-6.92273-1.4038-10.49316-1.13208-1.17206.08887-2.35346.04688-3.52808.11402-1.27289.07226-2.49963.45215-3.75891.62988-2.32086.3269-4.51526 1.13281-6.73554 1.83691-.18084.05762-.36047.13355-.54644.15674-.1728.02149-.49305.13257-.17322-.26806.14825-.18555-.1112-.49146-.23236-.7146l-.49665-.22754c6.5229-3.09595 13.36682-4.229 20.53223-3.30493 1.48682.19238 2.9533.53808 4.38886.9812 2.33947.7229 4.67004 1.46045 6.96423 2.333 2.27594.865 4.52478 1.74659 6.6319 2.97828 2.69427 1.57544 5.11358 3.51464 7.32153 5.69262 3.02698 2.9856 5.74731 6.2356 7.71234 10.04126 1.12524 2.17896 1.94702 4.48291 2.7008 6.81787.90436 2.80127 1.53254 5.64942 1.66578 8.5879.0523 1.15576.17749 2.31982.10693 3.47167zm-3.81995-29.02954c-.20709-.27075-.39776-.55713-.7586-.7749.30963-.09106.43841.1001.57562.20728 3.77039 2.9414 6.99219 6.37841 9.305 10.5896 2.05651 3.74487 3.33746 7.75317 3.94915 11.9939.71033 4.92626.07556 9.64843-1.84875 14.21679-.02057.04882-.06714.08593-.1015.12841.28466-1.4585.58074-2.9038.86096-4.35449.3308-1.71386.20355-3.4331.2243-5.15283.00617-.53076-.01697-1.06299-.04578-1.59375-.16857-3.12158-.72686-6.16308-1.7204-9.1377-1.10363-3.30712-2.86492-6.22656-4.97057-8.96801-1.8291-2.38062-3.6463-4.76953-5.46943-7.1543zm8.84375 24.76538c-.22686-3.19677-.89209-6.32666-1.63952-9.44433 1.7558 2.88135 2.42187 6.07568 2.64044 9.35742.21771 3.2666.04956 6.52637-.9065 9.69775-.20202-3.20947.13215-6.41357-.09442-9.61084z" class="st2"/><path d="M45.56496 41.5384c0 1.2766 1.02149 2.04272 2.04297 2.04272H70.845V39.7508H47.60793c-1.02148 0-2.04297 1.02173-2.04297 1.7876z" class="st2"/><g><path d="M168.60283 15.724c-2.85864 1.11032-3.80527 4.6475-1.83943 6.95424.28132.3304.32713.53864-.06258.81196-1.3456.94462-1.3576 2.948-.38745 4.0588.2608.29886.3001.40048-.07234.6638-2.09523 1.48125-1.79187 4.15091.56392 5.21918 1.96658.89206 4.0583.90807 6.14828.84 1.8437-.06008 3.65984-.31839 5.22444-1.4247 1.24147-.87804 1.75983-2.09548 1.58562-3.60126-.1697-1.46974-1.04423-2.3613-2.39433-2.83186-1.43344-.49909-2.92746-.32588-4.19647-.36493h-2.959c-.37946-.0005-.7529-.04255-1.08403-.24228-.43203-.25981-.4886-.66179-.34818-1.0993.15569-.48558.50261-.40549.90132-.31238 1.94055.45004 3.87334.42951 5.76659-.23628 2.22714-.78343 3.64757-2.85588 3.09466-4.95637-.32338-1.22795-.17346-1.96082.79595-2.73924.72485-.5817.71234-1.37864.22175-1.92228-.46003-.5091-1.30754-.55165-1.99986-.06358-.4588.32389-.89856.6788-1.31956 1.05075-.22477.19823-.39296.21125-.6813.11013-2.32526-.81597-4.6465-.81246-6.958.0856zm.8047 13.02493c.86702.03254 1.73555.00851 2.60358.00851v.02203c.86754 0 1.7353-.001 2.60309.0005.38044.0005.74588.0826 1.07977.2623.7509.40399.84451 1.4332.1622 1.9303-.2588.18822-.53563.36142-.86478.44502-1.75808.44803-3.53119.45604-5.29377.10262-1.25048-.2503-1.76659-1.0978-1.3546-2.03991.19998-.45755.49884-.7529 1.06451-.73137zm4.5559-10.94597c.88755.35693 1.38613 1.30855 1.29454 2.29422-.09162.98717-.83526 1.75458-1.97484 2.00538-.31864.07008-.65078.07809-1.02222.11914-.9336-.03504-1.89224-.1632-2.59708-.9286-.98466-1.06877-.56967-2.83786.81197-3.4666 1.14885-.52263 2.33476-.48709 3.48762-.02354zm74.14408 7.19352c.3384 1.71103 1.07703 3.21632 2.4957 4.26856 2.93098 2.17458 6.11224 2.29622 9.38263.90007 1.14185-.48758 2.04767-1.33258 2.46991-2.56104.20425-.5932.12567-1.17339-.38495-1.6029-.49359-.41549-1.05374-.32738-1.57938-.07709-.31237.14918-.63049.34641-.86102.59921-1.1621 1.27652-2.64563 1.52931-4.25003 1.3551-2.116-.23076-3.70187-1.57986-3.9792-3.2989-.05933-.36844-.03305-.52312.41048-.5151 1.55233.02852 3.10517.011 4.65777.011 1.55258 0 3.10517.01102 4.65778-.0035 1.14984-.01151 1.67547-.48307 1.7951-1.62342.09412-.89707-.03479-1.78862-.32037-2.63463-.93387-2.76427-2.90845-4.3061-5.77258-4.66852-3.05988-.38746-5.71828.41348-7.5377 3.0431-1.42117 2.05443-1.66296 4.3867-1.18414 6.80806zm3.374-4.4823c.59295-1.8482 2.25192-2.8609 4.40597-2.6907 1.8682.14818 3.16776 1.19392 3.581 2.84087.12338.49259.08435.70934-.51664.68431-1.1496-.04705-2.30246-.01351-3.45407-.01351-1.15162 0-2.30298.0025-3.4546-.001-.74514-.0025-.79795-.0836-.56166-.81997zm-29.38958-5.45547c-4.61145.02153-7.89834 3.38651-7.85455 8.04003.04431 4.70207 3.3377 7.95943 8.02727 7.9399 4.91682-.02052 8.14213-3.24534 8.12286-8.12112-.01877-4.7316-3.3442-7.88234-8.29558-7.8588zm.13767 12.84972c-2.67342-.02603-4.59995-2.12251-4.54663-4.94786.0528-2.7963 2.02365-4.82872 4.64625-4.79167 2.75277.03854 4.68555 2.1165 4.61246 4.95787-.07408 2.88141-1.97233 4.8077-4.71208 4.78166zm-37.67012 1.0858c1.5551 1.58587 3.5432 2.00537 5.07876 2.0379 1.81641-.001 3.01433-.1772 4.14242-.70733 2.84712-1.33809 3.55845-5.22169 1.32731-7.30115-.61122-.56918-1.3621-.89106-2.15906-1.12684-1.37613-.40798-2.82684-.48807-4.1852-.96564-.79494-.27933-1.21218-.82999-1.19567-1.54283.01552-.66579.45004-1.22695 1.2625-1.40917 1.38238-.30987 2.6937-.14917 3.85206.77542.49259.39347.91234.88755 1.5153 1.13735.53213.21976 1.03873.24279 1.50928-.15168.47307-.39697.55591-.91258.412-1.46924-.13041-.5046-.37896-.95563-.74363-1.3401-1.00395-1.05774-2.29247-1.5288-3.68663-1.73354-2.03941-.29936-4.04279-.23929-5.8229.97916-2.26243 1.54883-2.4146 4.87177-.31036 6.61233.92936.76841 2.06545 1.06726 3.21932 1.32106 1.00519.22127 2.04918.29585 3.00355.71735.82297.36344 1.2232 1.0137 1.1291 1.75759-.09737.77041-.60148 1.29803-1.49828 1.46173-1.74433.31837-3.31067-.04255-4.5997-1.32507-.35092-.34942-.70385-.69583-1.14586-.9266-.49158-.2573-1.01094-.2603-1.47725.02002-.48808.29285-.65152.78844-.5902 1.3436.0816.73336.4653 1.32757.96314 1.83567zm-37.27165-.97967c-1.5874.3369-3.0779.13516-4.35817-.96114-.40998-.35141-.80596-.71985-1.21994-1.06626-.52062-.43552-1.31781-.5086-1.83918-.14918-.5842.40148-.65779.99068-.49409 1.62342.13716.52963.41199.98768.78444 1.39566 1.58963 1.74156 3.67985 2.12001 5.88872 2.13703.30536 0 .61398.03004.91534-.0045 1.99486-.22978 3.75343-.86403 4.72008-2.81985.95614-1.93429.43753-4.25704-1.2705-5.48149-.93485-.6708-2.05093-.89656-3.155-1.13234-1.00593-.21526-2.04665-.27933-3.0028-.71385-.64977-.29535-.99017-.78192-.95512-1.49277.03654-.73286.49157-1.15486 1.15762-1.33658 1.17413-.32088 2.30498-.22276 3.391.38195.64702.35993 1.1181.9306 1.7263 1.32958.57418.37645 1.18691.47706 1.77761.07409.5882-.40098.6345-1.0157.45604-1.63544-.25905-.90157-.86577-1.54383-1.66647-2.00037-2.20562-1.25749-4.55915-1.40667-6.95124-.7549-2.6176.71385-3.99021 3.1963-3.16825 5.60865.56567 1.66097 1.92428 2.42087 3.5019 2.84287 1.29228.3454 2.61685.57017 3.90538.9271.81096.22476 1.22545.91959 1.1889 1.71252-.03454.74238-.5136 1.3416-1.33257 1.5158zm52.7665-9.55632c.60447.06858 1.2197.07509 1.82893.06007.39596-.00951.52836.10963.52085.51561-.02353 1.2695-.0085 2.5395-.0085 3.80951.00025 1.22295-.02003 2.4464.00576 3.66835.02827 1.3436.46129 2.54702 1.5203 3.41805 1.66172 1.36662 3.52042 1.3511 5.43969.63325.97516-.36493 1.78111-.94562 2.22014-1.92478.28433-.63475.23777-1.272-.29386-1.74657-.53413-.47706-1.15637-.43101-1.75308-.05707-.35591.22327-.6928.48157-1.06425.6733-1.46325.7559-2.68468.04906-2.69945-1.57837-.02052-2.2812.00976-4.5629-.01727-6.8436-.00602-.5026.19673-.57569.62048-.56568 1.01096.02203 2.0229.00801 3.03435.00651.45204-.0005.90957-.03804 1.27426-.32488.49658-.39047.7206-.91158.58143-1.55535-.14067-.65127-.55715-1.05625-1.19741-1.12133-.74588-.07659-1.50228-.04154-2.25393-.06908-.65327-.02352-1.49327.27183-1.90951-.11413-.4245-.39447-.0886-1.24498-.13666-1.89324-.02077-.28084-.00775-.56567-.0468-.8435-.13241-.94262-.84076-1.54684-1.72555-1.49177-.94712.05957-1.58237.73337-1.59664 1.71153-.01.70533-.02153 1.41217.00551 2.1165.01526.39147-.09462.54114-.5086.52613-.60923-.02103-1.22446-.01402-1.83017.04906-.77016.08009-1.34034.73787-1.33509 1.45272.00602.77291.52838 1.39765 1.32508 1.48876zm35.31835 12.19645c.55815.37244 1.14961.37694 1.73755.0891.64427-.31537.87804-.88504.87955-1.56485.0045-2.14054.0015-4.28157.00175-6.4221 0-.80396.08534-1.5954.36217-2.3558.27934-.7679.69482-1.44821 1.4437-1.83467 1.05126-.54264 1.88926-.32639 2.96153.69883.52511.50209 1.1053.73387 1.85469.49558.65928-.21075.93211-.6823 1.03824-1.29003.1364-.77992-.06208-1.48576-.56217-2.106-.69809-.86602-1.64395-1.20742-2.71323-1.29402-1.73954-.14067-3.16624.46905-4.29759 1.87171-.04704-.12915-.07509-.18271-.0866-.23978-.23276-1.14235-.83999-1.63394-1.88723-1.5268-.90282.0926-1.47825.78092-1.48 1.82666-.00726 4.02276-.00475 8.04553-.00126 12.0683.0005.64025.18573 1.20792.7489 1.58387zm-76.87933-15.49085c-.94112-.00851-1.68074.63925-1.68575 1.6079-.02252 4.16343-.01877 8.32687-.00125 12.4903.00375.8475.56342 1.49477 1.28478 1.62993 1.15687.21726 2.04992-.48157 2.06544-1.683.02603-2.04642.007-4.09284.007-6.13927-.00048-2.06995.02053-4.1404-.009-6.20985-.01501-1.06176-.6718-1.687-1.66122-1.69601zm.02028-6.01163c-1.1844-.011-2.13002.91459-2.12201 2.07747.008 1.1794.91133 2.06344 2.118 2.07245 1.15162.00901 2.07095-.88705 2.07797-2.0244.0075-1.1874-.89707-2.1145-2.07396-2.12552z" class="st1"/><path d="M148.21034 95.25397c0 2.65136-1.79101 4.55078-4.33496 4.55078-2.57959 0-4.40674-1.89942-4.40674-4.55078v-31.958c0-2.68653 1.82715-4.54981 4.40674-4.54981 2.54395 0 4.33496 1.86328 4.33496 4.5498v.50196c2.22168-3.40332 5.94776-5.30274 10.31836-5.30274 3.18897 0 5.73242 1.03906 7.34473 2.54395 1.54053 1.46875 2.36474 3.25976 2.36474 5.1953 0 2.83008-1.6123 4.80079-4.44238 4.80079-1.50488 0-2.75879-1.0039-3.54736-1.93457-1.0747-1.21875-2.5796-2.18555-4.58594-2.18555-4.12012 0-7.45215 4.12012-7.45215 11.03418v17.30469zm27.29102-16.08594c0-12.3252 8.16894-20.67285 19.9204-20.67285 11.71534 0 19.16749 7.70312 19.16749 18.4873 0 3.3672-1.57617 4.94434-4.65772 4.94434h-25.58056c.64502 6.1621 5.51709 10.06738 12.61133 10.06738 4.08447 0 7.0581-1.21777 9.35107-4.0127 1.18213-1.07519 2.36426-1.75585 3.86914-1.75585 2.3291 0 3.36768 1.39746 3.36768 3.54687 0 1.18262-.53711 2.4004-1.25391 3.47559-3.04541 4.58594-9.42236 6.80762-15.65674 6.80762-12.79004 0-21.13818-8.13282-21.13818-20.8877zm30.38183-4.2998c-.64502-5.83985-4.729-9.24317-10.78418-9.24317-5.94726 0-10.13916 3.54688-10.74804 9.24317h21.53222zm49.43604 22.7871L242.92274 81.8194l-7.81054 6.73535v6.69922c0 2.65136-1.79102 4.55078-4.33496 4.55078-2.5796 0-4.40674-1.89942-4.40674-4.55078v-44.1748c0-2.65137 1.82715-4.51465 4.40674-4.51465 2.54394 0 4.33496 1.86328 4.33496 4.51465v26.62011l19.02441-16.5166c2.32912-2.04199 3.4756-2.54394 5.12355-2.54394 2.25733 0 3.94092 1.43261 3.94092 3.72558 0 1.21875-.50146 2.47266-2.32861 4.0127l-11.17824 9.60253 12.32472 15.8711c1.50488 2.00683 1.68408 2.79492 1.68408 4.0127 0 1.8994-1.7915 3.83398-4.29931 3.83398-1.32569 0-2.83057-.3584-4.0845-2.042zm16.01857-18.37988c0-12.5039 8.77734-20.78027 20.99463-20.78027 12.25342 0 21.03076 8.27637 21.03076 20.78027 0 12.46778-8.77734 20.78028-21.03076 20.78028-12.21729 0-20.99463-8.3125-20.99463-20.78028zm20.99463 12.68262c7.02246 0 12.00244-5.12305 12.00244-12.68262s-4.97998-12.6836-12.00244-12.6836c-7.02197 0-12.00196 5.12403-12.00196 12.6836s4.97999 12.68262 12.00196 12.68262zm41.30469 3.2959c0 2.65136-1.79102 4.55078-4.33497 4.55078-2.57959 0-4.40673-1.89942-4.40673-4.55078v-31.958c0-2.68653 1.82714-4.54981 4.40673-4.54981 2.54395 0 4.33497 1.86328 4.33497 4.5498v.50196c2.22168-3.40332 5.94775-5.30274 10.31835-5.30274 3.18897 0 5.73243 1.03906 7.34473 2.54395 1.54053 1.46875 2.36475 3.25976 2.36475 5.1953 0 2.83008-1.6123 4.80079-4.44239 4.80079-1.50488 0-2.75878-1.0039-3.54736-1.93457-1.0747-1.21875-2.57959-2.18555-4.58594-2.18555-4.12011 0-7.45214 4.12012-7.45214 11.03418v17.30469z" class="st1"/></g></svg>