<svg xmlns="http://www.w3.org/2000/svg" role="img" viewBox="-6.17 82.83 412.10 79.10"><title>Renesas Electronics Corporation logo</title><style>svg {enable-background:new 0 0 400 245}</style><style>.st20{fill-rule:evenodd;clip-rule:evenodd;fill:#2c348a}</style><path d="M5.23 121.53h18.52v18.52H5.23v-18.52z" class="st20"/><path d="M131.52 102.57c8.58-.32 10.45.98 13.99 4.42l20.62 24.31c-.05.5.12.59.74.74v-29.46h7.36v39.04h-8.1c-5.75.26-8.09-.18-11.78-4.42l-21.36-25.04c.08-.05-.11-.15-.74 0v29.46h-7.37v-39.04h6.64v-.01zm-39.03 5.15h19.89c1.01.18 1.72-.11 2.21-.74l2.21-4.42H88.07c-12.74-.32-18.97 4.33-19.15 13.99v11.05c.18 9.94 6.59 14.26 19.15 13.99h25.04c.99.27 1.7-.02 2.21-.74l2.21-4.42H92.49c-6.88-.22-9.25-2.49-9.57-6.63v-5.89h26.52c1.08.17 1.79-.11 2.21-.74l2.21-4.42H82.91v-3.68c.32-3.68 1.18-7.17 9.58-7.35zm114.16 0h19.88c1.28.18 1.99-.11 2.21-.74l2.95-4.42h-29.46c-12.47-.32-18.7 4.33-18.41 13.99v11.05c-.29 9.94 6.13 14.26 18.41 13.99h25.04c1.26.27 1.97-.02 2.21-.74l2.95-4.42h-25.78c-6.61-.22-8.99-2.49-8.84-6.63v-5.89h26.51c.62.17 1.33-.11 1.47-.74l2.95-4.42h-30.93v-3.68c-.15-3.68.71-7.17 8.84-7.35zm58.18 20.63c5.09 1.9 6.75 2.66 6.63 4.42.12 2.1-.96 3.46-8.1 3.68h-22.83c-1.09-.23-1.79.06-2.21.74l-2.21 4.42h33.14c12.99.27 17.98-3.91 17.68-9.57.3-3.47-1.6-7.92-13.99-11.79l-13.26-4.42c-5.46-1.92-7.11-2.71-7.37-4.42.25-2 1.18-3.5 8.1-3.68h19.89c.81.18 1.52-.11 2.21-.74l2.21-4.42h-29.46c-13.36-.31-18.35 3.86-18.41 9.58.06 3.43 1.97 7.89 14.73 11.78l13.25 4.42zm118.58-8.11l-13.26-4.42c-5.11-1.92-6.77-2.71-6.63-4.42-.14-2 .92-3.5 7.36-3.68h19.89c1.16.18 1.87-.11 2.21-.74l2.21-4.42h-29.46c-13.02-.31-18.01 3.86-17.68 9.58-.33 3.43 1.57 7.89 13.99 11.78l13.26 4.42c5.43 1.9 7.09 2.66 7.37 4.42-.27 1.94-1.35 3.46-8.1 3.68h-26.52l-21.36-33.88h-7.37c-6.41-.32-9.55 1.38-12.52 5.89l-19.88 33.14h13.26l16.94-29.46c.46-.63.78-.62 1.47-.74l13.99 25.04h-15.47c-1.05-.23-1.76.06-2.21.74l-2.21 4.42h67.02c13.34.27 18.33-3.91 18.41-9.57-.06-3.46-1.97-7.91-14.71-11.78z" class="st20"/><path d="M63.76 101.1c1.84 8.43-5.56 13.48-12.52 16.94-2.09.78-3.03 1.62-2.95 2.95-.3.8.16 2.2 1.47 4.42 6.48 9.06 19.36 20.96 33.14 27.99.07.18-.14.33 0 .74-.67-.13-1.11-.02-2.21 0-19.96-5.46-40.58-20.42-47.87-30.93-.84-1.49-1.11-2.69-.74-3.68-.17-.75.49-1.58 2.21-2.21 5.12-2.64 13.96-7.82 11.78-13.99-3.06-9.18-20.61-9.04-34.62-5.16-2.75 1.17-5.95 2.73-8.84 4.42-.25.22-.94.35-.74 0-.08-.41.21-2.28 0-2.21.4-1 1.43-1.75 2.21-2.21 21.8-10.98 56.19-9.2 59.68 2.93z" class="st20"/></svg>