<svg xmlns="http://www.w3.org/2000/svg" role="img" viewBox="6.83 5.96 132.21 45.59"><title>ReversingLabs logo</title><g data-name="Layer 2"><g data-name="Layer 1"><path fill="#fff" d="M0 0h149.17v57.58H0z"/><path fill="#f51440" d="M48.63 29.8h-5.32l-4.82 15.91h-8V29.8h-3.61v18.92h14.34l1.68-5.3H49l1.63 5.3h3.74zm-5.07 10.7l1.61-5.22c.28-.94.46-2 .66-3h.23a27.37 27.37 0 0 0 .66 3l1.58 5.22zM65.59 43c0-1.66-.79-2.7-3.69-2.7h-3.24v5.68h1c3.87 0 6 0 6-2.7zm-.07-8.05c0-2.17-1.71-2.35-4.74-2.35h-2.12v5.12h3.21c2.93 0 3.64-1 3.64-2.55zm-4.84 14c-2.17 0-3.08-.05-5.48-.15v-19c2.5-.1 3.41-.15 5.58-.15 5.07 0 8.2.89 8.2 5.15v.2a4.16 4.16 0 0 1-2.39 4 4.1 4.1 0 0 1 2.5 4v.26c0 4.74-3.52 5.63-8.41 5.63m16.74.24a28.71 28.71 0 0 1-6-.59v-2.72a54.63 54.63 0 0 0 5.68.31c2.29 0 3.39-.64 3.39-2.34 0-1.22-.48-1.91-2.37-2.7l-2.85-1.17C72.5 38.76 71 37.16 71 34.4c0-3.67 2.29-5 6.78-5a25.34 25.34 0 0 1 5.53.61v2.7c-1.45-.13-3.39-.33-5.38-.33-2.22 0-3.41.38-3.41 1.91 0 1.15.53 1.73 2.42 2.5l2.57 1c3.31 1.35 4.64 2.7 4.64 5.91 0 3.44-2.47 5.38-6.72 5.38"/><path d="M14.09 15c0 2.45 1.45 3.13 4.71 3.13h2v-6.28c-4.64 0-6.68 0-6.68 3zM9.4 27.9l4.46-7.72c-2-.86-3.26-2.37-3.26-5.25v-.18c0-5 3.77-5.91 8.33-5.91 1.91 0 3.62.05 5.3.13V27.9h-3.46v-7h-3.42l-4.18 7zM50.62 9l-3.9 13.12c-.33 1.1-.56 2.37-.76 3.39h-.05c-.25-1-.43-2.29-.76-3.39L41.24 9H26.59v18.9h12V25h-8.44v-5.4h7.95v-2.85h-7.95v-4.82h8.31l4.82 16h5.2L54.21 9zm4.57 18.9V8.98h12.06v2.95h-8.49v4.82h7.95v2.85h-7.95v5.37h8.49v2.93H55.19zm24.26-13.09c0-2.93-2-3-6.67-3v6.22h2c3.26 0 4.71-.69 4.71-3.13zm.92 13.09l-4.18-7h-3.41v7h-3.46V9c1.68-.08 3.39-.13 5.3-.13 4.56 0 8.33.92 8.33 5.91v.18c0 2.88-1.25 4.38-3.26 5.25l4.46 7.72zm10.63.41a28.74 28.74 0 0 1-6-.59V25a54.35 54.35 0 0 0 5.68.3c2.29 0 3.39-.64 3.39-2.35 0-1.22-.49-1.91-2.37-2.7l-2.85-1.17c-2.8-1.15-4.3-2.75-4.3-5.5 0-3.67 2.29-5 6.77-5a25.25 25.25 0 0 1 5.53.61v2.7c-1.45-.12-3.39-.33-5.38-.33-2.22 0-3.41.38-3.41 1.91 0 1.14.54 1.73 2.42 2.5l2.57 1c3.31 1.35 4.63 2.7 4.63 5.91 0 3.44-2.47 5.38-6.72 5.38m8.28-19.28h3.57v18.93h-3.57zm17.02 18.92l-6.06-11.23c-.46-.87-1-1.89-1.43-2.83h-.05c.05 1.07.11 2.24.11 3.39V27.9h-3.26V9h4.13l6 11c.46.87 1 2 1.45 2.88h.05c-.08-1.12-.1-2.45-.1-3.59V9h3.28v18.9zm14.11.41c-4.33 0-7.92-1.68-7.92-8.54V17.1c0-7.23 4.07-8.51 8-8.51a28.7 28.7 0 0 1 6.09.64V12c-1.22-.1-4.18-.26-5.48-.26-3.08 0-5.07.69-5.07 5.4v2.67c0 4.33 1.58 5.43 4.64 5.43.94 0 1.88 0 2.55-.08v-4.6h-1.45v-2.74h4.83v9.91a32 32 0 0 1-6.19.59"/></g></g></svg>