<svg xmlns="http://www.w3.org/2000/svg" role="img" viewBox="-2.58 -4.08 211.90 36.90"><title>Scotiabank logo</title><g id="surface1" fill="#ec111a"><path d="M51.140625 8.828125C45.570312 8.820312 41.050781 13.335938 41.046875 18.910156 41.042969 24.488281 45.558594 29.007812 51.128906 29.011719 56.699219 29.011719 61.214844 24.492188 61.214844 18.917969 61.214844 13.347656 56.707031 8.832031 51.140625 8.828125zM51.140625 23.363281C48.6875 23.347656 46.710938 21.34375 46.722656 18.886719 46.734375 16.433594 48.730469 14.449219 51.183594 14.453125 53.636719 14.460938 55.625 16.453125 55.625 18.910156 55.625 20.09375 55.152344 21.234375 54.308594 22.070312 53.46875 22.90625 52.328125 23.371094 51.140625 23.363281zM74.0625 9.304688L71.3125 9.304688 71.3125 3.355469 65.28125 3.355469 65.28125 9.304688 62.53125 9.304688 62.53125 14.769531 65.28125 14.769531 65.28125 28.519531 71.3125 28.519531 71.3125 14.769531 74.0625 14.769531zM76.820312 9.304688L82.84375 9.304688 82.84375 28.511719 76.820312 28.511719zM79.835938 0C78.476562-.00390625 77.246094.8125 76.722656 2.070312 76.199219 3.324219 76.484375 4.773438 77.445312 5.738281 78.40625 6.703125 79.855469 6.992188 81.109375 6.472656 82.367188 5.953125 83.1875 4.726562 83.1875 3.363281 83.1875 1.511719 81.691406.00390625 79.835938 0zM166.21875 14.484375C168.195312 14.492188 169.796875 16.09375 169.800781 18.074219L169.800781 28.542969 175.824219 28.542969 175.824219 17.328125C175.824219 12.230469 172.878906 8.910156 168.222656 8.910156 166.308594 8.910156 164.292969 9.746094 162.632812 12.4375L162.632812 9.378906 156.601562 9.378906 156.601562 28.542969 162.582031 28.542969 162.582031 18.074219C162.582031 17.113281 162.96875 16.195312 163.652344 15.519531 164.335938 14.847656 165.257812 14.472656 166.21875 14.484375zM197.773438 28.519531L190.378906 18.917969 197.253906 9.304688 190.214844 9.304688 184.683594 17.085938 184.683594.480469 178.664062.480469 178.664062 28.519531 184.683594 28.519531 184.683594 20.601562 190.753906 28.519531zM20.339844 23.34375C20.800781 22.222656 21.023438 21.015625 20.992188 19.804688 21.035156 18.023438 20.421875 16.285156 19.269531 14.921875 17.984375 13.507812 15.785156 12.332031 12.738281 11.4375 12.148438 11.285156 11.574219 11.078125 11.019531 10.824219 10.539062 10.589844 10.109375 10.269531 9.746094 9.878906 9.367188 9.449219 9.167969 8.890625 9.195312 8.316406 9.207031 7.480469 9.675781 6.714844 10.417969 6.328125 11.9375 5.660156 13.667969 5.660156 15.183594 6.328125 15.859375 6.574219 16.507812 6.878906 17.128906 7.238281L19.6875 2.140625C18.542969 1.433594 17.3125.890625 16.019531.519531 14.6875.175781 13.320312 0 11.945312 0 10.636719-.0234375 9.335938.191406 8.105469.632812 7.011719 1.058594 6.015625 1.710938 5.183594 2.539062 4.347656 3.375 3.683594 4.371094 3.238281 5.464844 2.796875 6.589844 2.578125 7.792969 2.585938 9 2.65625 10.929688 3.472656 12.753906 4.855469 14.097656 6.175781 15.253906 7.722656 16.121094 9.398438 16.636719 10.195312 16.941406 11.078125 17.214844 11.640625 17.429688 12.21875 17.648438 12.773438 17.925781 13.289062 18.265625 13.660156 18.53125 13.960938 18.878906 14.167969 19.285156 14.347656 19.671875 14.414062 20.097656 14.359375 20.519531 14.300781 21.160156 13.992188 21.753906 13.503906 22.171875 12.703125 22.753906 11.71875 23.023438 10.734375 22.933594 9.570312 22.902344 8.425781 22.628906 7.371094 22.128906 6.449219 21.6875 5.554688 21.191406 4.691406 20.640625L1.636719 25.890625C4.046875 27.871094 7.058594 28.96875 10.171875 29 11.714844 29 13.25 28.757812 14.714844 28.277344 15.976562 27.855469 17.144531 27.203125 18.160156 26.351562 19.089844 25.511719 19.832031 24.488281 20.339844 23.34375zM202.023438 21.804688C200.660156 21.796875 199.429688 22.609375 198.902344 23.863281 198.375 25.117188 198.65625 26.566406 199.613281 27.535156 200.570312 28.503906 202.015625 28.796875 203.277344 28.28125 204.535156 27.761719 205.359375 26.539062 205.363281 25.175781 205.367188 23.324219 203.875 21.816406 202.023438 21.804688zM202.023438 27.847656C200.933594 27.851562 199.949219 27.199219 199.53125 26.195312 199.109375 25.1875 199.339844 24.03125 200.105469 23.257812 200.875 22.484375 202.03125 22.253906 203.039062 22.671875 204.042969 23.085938 204.699219 24.066406 204.699219 25.15625 204.703125 25.871094 204.421875 26.554688 203.917969 27.058594 203.417969 27.5625 202.734375 27.847656 202.023438 27.847656zM202.023438 27.847656"/><path d="M202.011719 25.71875L201.472656 25.71875 201.472656 26.992188 200.820312 26.992188 200.820312 23.324219 202.214844 23.324219C202.890625 23.324219 203.4375 23.871094 203.4375 24.546875 203.425781 25.007812 203.152344 25.421875 202.734375 25.617188L203.507812 26.992188 202.714844 26.992188zM201.472656 25.105469L202.246094 25.105469C202.554688 25.105469 202.804688 24.855469 202.804688 24.546875 202.804688 24.234375 202.554688 23.984375 202.246094 23.984375L201.472656 23.984375zM36.832031 21.703125C35.296875 23.617188 32.503906 23.925781 30.589844 22.394531 28.675781 20.859375 28.363281 18.0625 29.894531 16.148438 31.429688 14.230469 34.222656 13.921875 36.136719 15.453125 36.390625 15.65625 36.625 15.886719 36.832031 16.136719L40.8125 12.140625C38.910156 10.039062 36.203125 8.84375 33.367188 8.847656 27.816406 8.828125 23.027344 12.792969 23.027344 18.910156 23.027344 25.023438 27.867188 29 33.417969 29 36.257812 29 38.964844 27.800781 40.875 25.699219zM106.402344 28.542969L106.402344 9.304688 100.535156 9.304688 100.535156 11.34375 99.984375 10.867188C98.617188 9.554688 96.789062 8.820312 94.894531 8.828125 89.707031 8.828125 85.328125 13.445312 85.328125 18.910156 85.328125 24.371094 89.71875 29 94.894531 29 96.789062 29.003906 98.617188 28.273438 99.984375 26.960938L100.535156 26.480469 100.535156 28.519531zM95.871094 23.445312C93.363281 23.429688 91.34375 21.382812 91.359375 18.875 91.371094 16.367188 93.410156 14.34375 95.917969 14.351562 98.425781 14.363281 100.449219 16.402344 100.445312 18.910156 100.441406 20.117188 99.957031 21.277344 99.097656 22.128906 98.242188 22.980469 97.078125 23.453125 95.871094 23.445312zM153.71875 28.542969L153.71875 9.304688 147.851562 9.304688 147.851562 11.34375 147.300781 10.867188C145.929688 9.554688 144.105469 8.824219 142.207031 8.828125 137.023438 8.828125 132.644531 13.445312 132.644531 18.910156 132.644531 24.371094 137.035156 29 142.207031 29 144.105469 29.003906 145.929688 28.273438 147.300781 26.960938L147.851562 26.480469 147.851562 28.519531zM143.226562 23.445312C140.714844 23.449219 138.675781 21.417969 138.671875 18.90625 138.667969 16.394531 140.703125 14.355469 143.214844 14.351562 145.722656 14.351562 147.757812 16.386719 147.757812 18.898438 147.757812 21.40625 145.730469 23.4375 143.226562 23.445312zM115.398438 28.542969L115.398438 26.503906 115.9375 26.980469C117.308594 28.292969 119.132812 29.023438 121.03125 29.019531 126.214844 29.019531 130.59375 24.402344 130.59375 18.929688 130.59375 13.457031 126.214844 8.847656 121.03125 8.847656 119.132812 8.84375 117.308594 9.574219 115.9375 10.886719L115.398438 11.367188 115.398438.480469 109.519531.480469 109.519531 28.542969zM115.519531 18.929688C115.507812 17.085938 116.605469 15.421875 118.304688 14.707031 120 13.992188 121.957031 14.375 123.265625 15.671875 124.570312 16.96875 124.964844 18.929688 124.261719 20.632812 123.5625 22.332031 121.902344 23.445312 120.0625 23.445312 117.558594 23.445312 115.527344 21.414062 115.519531 18.910156zM115.519531 18.929688"/></g></svg>