<svg xmlns="http://www.w3.org/2000/svg" role="img" viewBox="-18.50 -18.00 936.00 162.50"><title>Shanghai Sectrend Information Technology Co.,Ltd logo</title><defs><style>.cls-1{fill:#d22a4c}.cls-2{fill:#7ac2d2}</style></defs><g id="图层_2" data-name="图层 2"><g id="图层_1-2" data-name="图层 1"><rect width="36.21" height="22.18" y="26.21" class="cls-1" rx="1.56"/><rect width="36.21" height="22.18" x="40.55" y="26.21" class="cls-1" rx="1.56"/><rect width="36.21" height="22.18" x="81.11" y="26.21" class="cls-1" rx="1.56"/><rect width="36.21" height="22.18" x="121.66" y="26.21" class="cls-1" rx="1.56"/><rect width="36.21" height="22.18" x="162.21" y="26.21" class="cls-1" rx="1.56"/><rect width="36.21" height="22.18" y="52.43" class="cls-1" rx="1.56"/><rect width="36.21" height="22.18" x="121.66" y="52.43" class="cls-1" rx="1.56"/><rect width="36.21" height="22.18" x="40.55" y="78.64" class="cls-1" rx="1.56"/><rect width="36.21" height="22.18" x="121.66" y="78.64" class="cls-1" rx="1.56"/><rect width="36.21" height="22.18" y="104.86" class="cls-1" rx="1.56"/><rect width="36.21" height="22.18" x="40.55" y="104.86" class="cls-1" rx="1.56"/><rect width="36.21" height="22.18" x="121.66" y="104.86" class="cls-1" rx="1.56"/><rect width="36.21" height="22.18" class="cls-2" rx="1.56"/><rect width="36.21" height="22.18" x="81.11" class="cls-2" rx="1.56"/><rect width="36.21" height="22.18" x="162.21" class="cls-2" rx="1.56"/><rect width="36.21" height="22.18" x="40.55" y="52.43" class="cls-2" rx="1.56"/><rect width="36.21" height="22.18" x="81.11" y="52.43" class="cls-2" rx="1.56"/><rect width="36.21" height="22.18" x="162.21" y="52.43" class="cls-2" rx="1.56"/><rect width="36.21" height="22.18" y="78.64" class="cls-2" rx="1.56"/><rect width="36.21" height="22.18" x="81.11" y="78.64" class="cls-2" rx="1.56"/><rect width="36.21" height="22.18" x="162.21" y="78.64" class="cls-2" rx="1.56"/><rect width="36.21" height="22.18" x="81.11" y="104.86" class="cls-2" rx="1.56"/><rect width="36.21" height="22.18" x="162.21" y="104.86" class="cls-2" rx="1.56"/><path fill="#0b1530" d="M270 68h-14.45a7.64 7.64 0 0 1-7.63-7.63V52a7.64 7.64 0 0 1 7.63-7.63h37.32V26.21h-37.32A25.76 25.76 0 0 0 229.82 52v8.46a25.76 25.76 0 0 0 25.73 25.74H270a7.64 7.64 0 0 1 7.63 7.63v7.52a7.64 7.64 0 0 1-7.63 7.63h-40.18V127H270a25.77 25.77 0 0 0 25.74-25.74v-7.48A25.77 25.77 0 0 0 270 68zm369.71-7.59V52A25.76 25.76 0 0 0 614 26.21h-40.2v18.11H614a7.64 7.64 0 0 1 7.61 7.68v8.46A7.64 7.64 0 0 1 614 68h-40.2v59h18.11V86.15h11.73l21.47 40.66h20.47l-22.4-42.39a25.75 25.75 0 0 0 16.53-24.01zM401.74 52v49.3a25.76 25.76 0 0 0 25.73 25.7h40.2v-18.07h-40.2a7.64 7.64 0 0 1-7.63-7.63V52a7.64 7.64 0 0 1 7.63-7.63h40.2V26.21h-40.2A25.76 25.76 0 0 0 401.74 52zm472.53-25.79h-40.2v18.11h40.2a7.63 7.63 0 0 1 7.62 7.68v49.3a7.63 7.63 0 0 1-7.62 7.63h-40.2V127h40.2A25.76 25.76 0 0 0 900 101.3V52a25.76 25.76 0 0 0-25.73-25.79zm-558.55 82.72h65.93v18.11h-65.93zm0-40.89h65.93v18.11h-65.93zm0-41.83h65.93v18.11h-65.93zm346.3 82.72h65.93v18.11h-65.93zm0-40.89h65.93v18.11h-65.93zm0-41.83h65.93v18.11h-65.93zm-150.34 0h-23.92v18.11h23.92v82.72h18.1V44.32h23.91V26.21H511.68zm284.93 58.56l-34.46-58.55h-14.24v100.81h18.11V68.48l34.34 58.33h14.36V26.22h-18.11v58.55z"/></g></g></svg>