<svg xmlns="http://www.w3.org/2000/svg" role="img" xmlns:xlink="http://www.w3.org/1999/xlink" viewBox="-1.60 -1.60 109.07 109.07"><title>Sigstore client for Rust logo</title><g transform="translate(53 53)"><path stroke="#000" stroke-linejoin="round" stroke-width="1" d="M-8.5-14.5h13c8 0 8 8 0 8h-13zm-31 37h40v-11h-9v-8h10c11 0 5 19 14 19h25v-19h-6v2c0 8-9 7-10 2s-5-9-6-9c15-8 6-24-6-24h-47v11h10v26h-15z"/><g mask="url(#a)"><circle r="43" fill="none" stroke="#000" stroke-width="9"/><path id="b" stroke="#000" stroke-linejoin="round" stroke-width="3" d="M46 3l5-3-5-3z"/><use transform="rotate(11.25)" xlink:href="#b"/><use transform="rotate(22.5)" xlink:href="#b"/><use transform="rotate(33.75)" xlink:href="#b"/><use transform="rotate(45)" xlink:href="#b"/><use transform="rotate(56.25)" xlink:href="#b"/><use transform="rotate(67.5)" xlink:href="#b"/><use transform="rotate(78.75)" xlink:href="#b"/><use transform="rotate(90)" xlink:href="#b"/><use transform="rotate(101.25)" xlink:href="#b"/><use transform="rotate(112.5)" xlink:href="#b"/><use transform="rotate(123.75)" xlink:href="#b"/><use transform="rotate(135)" xlink:href="#b"/><use transform="rotate(146.25)" xlink:href="#b"/><use transform="rotate(157.5)" xlink:href="#b"/><use transform="rotate(168.75)" xlink:href="#b"/><use transform="rotate(180)" xlink:href="#b"/><use transform="rotate(191.25)" xlink:href="#b"/><use transform="rotate(202.5)" xlink:href="#b"/><use transform="rotate(213.75)" xlink:href="#b"/><use transform="rotate(225)" xlink:href="#b"/><use transform="rotate(236.25)" xlink:href="#b"/><use transform="rotate(247.5)" xlink:href="#b"/><use transform="rotate(258.75)" xlink:href="#b"/><use transform="rotate(270)" xlink:href="#b"/><use transform="rotate(281.25)" xlink:href="#b"/><use transform="rotate(292.5)" xlink:href="#b"/><use transform="rotate(303.75)" xlink:href="#b"/><use transform="rotate(315)" xlink:href="#b"/><use transform="rotate(326.25)" xlink:href="#b"/><use transform="rotate(337.5)" xlink:href="#b"/><use transform="rotate(348.75)" xlink:href="#b"/><g><path id="c" stroke="#000" stroke-linejoin="round" stroke-width="6" d="M-7-42l7 7 7-7z"/><use transform="rotate(72)" xlink:href="#c"/><use transform="rotate(144)" xlink:href="#c"/><use transform="rotate(216)" xlink:href="#c"/><use transform="rotate(288)" xlink:href="#c"/></g></g><mask id="a"><path fill="#fff" d="M-60-60H60V60H-60z"/><circle id="d" cy="-40" r="3"/><use transform="rotate(72)" xlink:href="#d"/><use transform="rotate(144)" xlink:href="#d"/><use transform="rotate(216)" xlink:href="#d"/><use transform="rotate(288)" xlink:href="#d"/></mask></g></svg>