<svg xmlns="http://www.w3.org/2000/svg" role="img" xmlns:xlink="http://www.w3.org/1999/xlink" viewBox="-3.99 -6.49 493.48 156.48"><title>Sigstore client for Python logo</title><defs><linearGradient id="c"><stop offset="0" stop-color="#b8b8b8" stop-opacity=".498"/><stop offset="1" stop-color="#7f7f7f" stop-opacity="0"/></linearGradient><linearGradient><stop offset="0" stop-color="#7f7f7f" stop-opacity=".5"/><stop offset="1" stop-color="#7f7f7f" stop-opacity="0"/></linearGradient><linearGradient><stop offset="0" stop-color="#b2b2b2" stop-opacity=".5"/><stop offset="1" stop-color="#b3b3b3" stop-opacity="0"/></linearGradient><linearGradient><stop offset="0" stop-color="#f4f4f4" stop-opacity="1"/><stop offset="1" stop-color="#fff" stop-opacity="1"/></linearGradient><linearGradient id="a"><stop offset="0" stop-color="#ffd43b" stop-opacity="1"/><stop offset="1" stop-color="#ffe873" stop-opacity="1"/></linearGradient><linearGradient id="b"><stop offset="0" stop-color="#5a9fd4" stop-opacity="1"/><stop offset="1" stop-color="#306998" stop-opacity="1"/></linearGradient><linearGradient x1="224.24" x2="-65.309" y1="144.757" y2="144.757" gradientTransform="translate(100.27 99.611)" gradientUnits="userSpaceOnUse" xlink:href="#a"/><linearGradient x1="172.942" x2="26.67" y1="77.476" y2="76.313" gradientTransform="translate(100.27 99.611)" gradientUnits="userSpaceOnUse" xlink:href="#b"/><linearGradient x1="172.942" x2="26.67" y1="77.476" y2="76.313" gradientTransform="translate(100.27 99.611)" gradientUnits="userSpaceOnUse" xlink:href="#b"/><linearGradient x1="224.24" x2="-65.309" y1="144.757" y2="144.757" gradientTransform="translate(100.27 99.611)" gradientUnits="userSpaceOnUse" xlink:href="#a"/><linearGradient x1="172.942" x2="26.67" y1="77.476" y2="76.313" gradientTransform="translate(100.27 99.611)" gradientUnits="userSpaceOnUse" xlink:href="#b"/><linearGradient x1="224.24" x2="-65.309" y1="144.757" y2="144.757" gradientTransform="translate(100.27 99.611)" gradientUnits="userSpaceOnUse" xlink:href="#a"/><linearGradient x1="224.24" x2="-65.309" y1="144.757" y2="144.757" gradientTransform="matrix(.56254 0 0 .56797 -11.597 -7.61)" gradientUnits="userSpaceOnUse" xlink:href="#a"/><linearGradient x1="172.942" x2="26.67" y1="76.176" y2="76.313" gradientTransform="matrix(.56254 0 0 .56797 -11.597 -7.61)" gradientUnits="userSpaceOnUse" xlink:href="#b"/><linearGradient id="e" x1="150.961" x2="112.031" y1="192.352" y2="137.273" gradientTransform="matrix(.56254 0 0 .56797 -9.4 -5.305)" gradientUnits="userSpaceOnUse" xlink:href="#a"/><linearGradient id="d" x1="26.649" x2="135.665" y1="20.604" y2="114.398" gradientTransform="matrix(.56254 0 0 .56797 -9.4 -5.305)" gradientUnits="userSpaceOnUse" xlink:href="#b"/><radialGradient cx="61.519" cy="132.286" r="29.037" fx="61.519" fy="132.286" gradientTransform="matrix(1 0 0 .17797 0 108.743)" gradientUnits="userSpaceOnUse" xlink:href="#c"/><radialGradient id="f" cx="61.519" cy="132.286" r="29.037" fx="61.519" fy="132.286" gradientTransform="matrix(0 -.2964 1.43676 0 -128.544 150.52)" gradientUnits="userSpaceOnUse" xlink:href="#c"/></defs><g fill-opacity="1"><path fill="#646464" d="M184.61344 61.92936c0-14.56215-4.15226-22.03817-12.45678-22.44755-3.30427-.15595-6.53055.3704-9.66912 1.58878-2.505.89673-4.19124 1.78372-5.07823 2.68045v34.75812c5.31216 3.33351 10.02976 4.8833 14.14303 4.63962 8.70415-.57508 13.0611-7.64172 13.0611-21.21942zm10.24419.60432c0 7.39804-1.73498 13.53871-5.22444 18.422-3.88909 5.5266-9.27923 8.37275-16.17042 8.52871-5.1952.1657-10.54635-1.46207-16.05346-4.87355v31.59032l-8.90884-3.17755V42.90304c1.46206-1.79346 3.34325-3.3335 5.62407-4.6396 5.30242-3.08984 11.74524-4.67862 19.32848-4.75659l.12671.12671c6.93018-.08773 12.27159 2.75843 16.02422 8.5287 3.4992 5.29267 5.25368 12.07665 5.25368 20.37142z"/><path fill="#646464" d="M249.30487 83.26574c0 9.92254-.9942 16.79424-2.9826 20.6151-1.99816 3.82086-5.79952 6.8717-11.41385 9.14277-4.55189 1.79346-9.47417 2.76817-14.75709 2.93387l-1.47181-5.61432c5.37064-.73103 9.15252-1.46207 11.34561-2.1931 4.31796-1.46206 7.28108-3.70389 8.90884-6.706 1.30611-2.44652 1.94942-7.11537 1.94942-14.02606v-2.3198c-6.09193 2.76817-12.47628 4.14251-19.15303 4.14251-4.38619 0-8.25579-1.37434-11.58929-4.1425-3.74289-3.01187-5.61433-6.83273-5.61433-11.46259V36.5577l8.90884-3.05084v37.3216c0 3.98656 1.28662 7.0569 3.85985 9.21101 2.57323 2.1541 5.90674 3.1873 9.99077 3.10932 4.08403-.08773 8.46047-1.66676 13.10983-4.75658V34.85195h8.90884v48.4138z"/><path fill="#646464" d="M284.08249 88.99703c-1.06243.08772-2.03714.12671-2.93387.12671-5.03925 0-8.96733-1.19889-11.77449-3.60642-2.79742-2.40753-4.20099-5.73129-4.20099-9.97127V40.45652h-6.10168v-5.60457h6.10168v-14.8838l8.89909-3.16782v18.05162h10.01026v5.60457h-10.01026v34.84585c0 3.34325.89673 5.7118 2.6902 7.09588 1.54004 1.14041 3.98656 1.79347 7.32006 1.95917v4.63961z"/><path fill="#646464" d="M338.02288 88.266h-8.90884V53.87827c0-3.4992-.81876-6.51106-2.44651-9.0258-1.88119-2.84616-4.49342-4.26924-7.84641-4.26924-4.08404 0-9.19152 2.15411-15.32242 6.46233V88.266h-8.90885V6.0688l8.90885-2.80717V40.7002c5.6923-4.1425 11.91093-6.21864 18.66566-6.21864 4.7176 0 8.53846 1.58877 11.46258 4.75658 2.93388 3.1678 4.39594 7.11537 4.39594 11.83296V88.266z"/><path fill="#646464" d="M385.37424 60.52578c0-5.59483-1.06242-10.21495-3.17755-13.8701-2.51474-4.45443-6.42332-6.80348-11.70625-7.04716-9.76658.56534-14.64012 7.56375-14.64012 20.97574 0 6.15042 1.01369 11.28713 3.06057 15.41015 2.61223 5.25368 6.53056 7.84641 11.755 7.7587 9.80557-.07799 14.70835-7.81718 14.70835-23.22733zm9.75685.05848c0 7.96338-2.03714 14.5914-6.10168 19.88407-4.47391 5.92623-10.65357 8.8991-18.53897 8.8991-7.81716 0-13.90909-2.97287-18.30503-8.8991-3.98656-5.29267-5.97497-11.92069-5.97497-19.88407 0-7.48576 2.15411-13.78238 6.46232-18.90935 4.5519-5.43888 10.53661-8.16806 17.93464-8.16806 7.39805 0 13.42174 2.72918 18.06137 8.16806 4.3082 5.12697 6.46232 11.4236 6.46232 18.90935z"/><path fill="#646464" d="M446.20583 88.266h-8.90884V51.92885c0-3.98656-1.19889-7.09588-3.59667-9.33772-2.39779-2.23208-5.59483-3.314-9.58139-3.22628-4.23023.07798-8.25579 1.46206-12.07664 4.14251V88.266h-8.90884V42.40594c5.12697-3.73313 9.84456-6.1699 14.15276-7.31032 4.06455-1.06243 7.65148-1.58877 10.74131-1.58877 2.11512 0 4.10352.2047 5.97496.61406 3.49921.80901 6.34535 2.31006 8.53845 4.51291 2.44651 2.43677 3.6649 5.3609 3.6649 8.78212V88.266z"/><path fill="url(#d)" d="M60.51016 6.39797c-4.58366.0213-8.96094.41222-12.8125 1.09375-11.34622 2.0045-13.40625 6.2001-13.40625 13.9375v10.21875h26.8125v3.40625h-36.875c-7.79246 0-14.61576 4.68372-16.75 13.59375-2.46182 10.21297-2.57102 16.58603 0 27.25 1.90592 7.93785 6.45754 13.59375 14.25 13.59375h9.21875v-12.25c0-8.8499 7.65714-16.65624 16.75-16.65625H74.4789c7.45495 0 13.40625-6.13816 13.40625-13.625V21.42922c0-7.26634-6.12998-12.72477-13.40625-13.9375-4.606-.76672-9.3851-1.11505-13.96875-1.09375zm-14.5 8.21875c2.76954 0 5.03125 2.29865 5.03125 5.125 0 2.81634-2.2617 5.09375-5.03125 5.09375-2.77948 0-5.03125-2.27741-5.03125-5.09375 0-2.82635 2.25177-5.125 5.03125-5.125z"/><path fill="url(#e)" d="M91.2289 35.05422v11.90625c0 9.23076-7.82589 17-16.75 17H47.69767c-7.33584 0-13.40625 6.27849-13.40625 13.625v25.53125c0 7.26634 6.31858 11.54032 13.40625 13.625 8.48733 2.49561 16.62623 2.94663 26.78125 0 6.75015-1.95439 13.40625-5.88761 13.40625-13.625V92.89797H61.1039v-3.40625h40.1875c7.79246 0 10.69625-5.4354 13.40624-13.59375 2.79933-8.39888 2.68022-16.47577 0-27.25-1.92578-7.75744-5.60387-13.59375-13.40624-13.59375h-10.0625zM76.1664 99.71047c2.77948 0 5.03126 2.27742 5.03126 5.09375 0 2.82635-2.25178 5.125-5.03125 5.125-2.76955 0-5.03125-2.29865-5.03125-5.125 0-2.81633 2.2617-5.09375 5.03125-5.09375z"/><path fill="#646464" stroke="none" stroke-linecap="butt" stroke-linejoin="miter" stroke-opacity="1" stroke-width="1" d="M463.5544 26.90938h1.56195v-9.79624h3.70013v-1.16766h-8.96221v1.16766h3.70013v9.79624m6.64702 0h1.33447v-8.94703l2.89641 8.9459h1.48569l3.01816-8.91557v8.9167h1.45579v-10.9639h-1.92589l-3.29831 9.39286-2.81297-9.39286h-2.15335v10.9639"/><path fill="url(#f)" fill-rule="nonzero" stroke="none" stroke-dasharray="none" stroke-miterlimit="4" stroke-opacity="1" stroke-width="20" d="M110.46717 132.28575a48.94828 8.60668 0 1 1-97.89657 0 48.94828 8.60668 0 1 1 97.89657 0z" opacity=".444" transform="matrix(.73406 0 0 .80952 16.25 27.01)"/></g></svg>