<svg xmlns="http://www.w3.org/2000/svg" role="img" viewBox="-5.22 -8.22 1259.44 1115.44"><title>Sigstore Public Service logo</title><defs><style>.cls-1{fill:#2e2f71}</style></defs><path d="M287.43304 1014.62992c-7.5369 0-13.74377 2.80738-17.88169 8.07838v-1.47787c0-3.6944-2.4631-6.25573-5.96056-6.25573-3.54657 0-6.05903 2.56133-6.05903 6.25573v55.9107c0 3.6453 2.51246 6.20713 6.05903 6.20713 3.49746 0 5.96056-2.56183 5.96056-6.20712v-12.95548c4.28575 5.22188 10.19695 7.58626 17.88169 7.58626 15.17201 0 26.5514-11.52723 26.5514-28.571 0-17.09339-11.37939-28.571-26.5514-28.571zm-2.0196 46.00917c-9.70458 0-16.1084-7.7341-16.1084-17.48779 0-9.70407 6.40382-17.38855 16.1084-17.38855 9.11298 0 16.15726 6.65013 16.15726 17.43817 0 10.73843-7.04428 17.43817-16.15726 17.43817zm86.39194-45.66439c-3.49746 0-5.96056 2.56133-5.96056 6.25573v24.4336c0 8.9654-5.41883 15.07328-14.2364 15.07328-7.88142 0-12.75852-4.63053-12.75852-14.23588v-25.3201c0-3.49746-2.46285-6.20663-6.00967-6.20663-3.49746 0-6.00967 2.66006-6.00967 6.20662v27.38881c0 14.87685 8.76845 23.2018 22.11782 23.2018 7.43842 0 13.54682-2.70917 16.89644-7.7341v1.13307c0 3.6453 2.4631 6.25624 5.96056 6.25624 3.54657 0 6.05878-2.61094 6.05878-6.25624v-43.94047c0-3.64529-2.51221-6.25573-6.05878-6.25573zm53.25622-.34478c-7.43843 0-13.79288 2.75827-17.88168 7.93054v-18.07863c0-3.6944-2.46286-6.25573-5.96057-6.25573-3.54656 0-6.05878 2.56132-6.05878 6.25573v60.68907c0 3.6453 2.51222 6.25624 6.05878 6.25624 3.49771 0 5.96057-2.61094 5.96057-6.25624v-1.03435c4.23664 5.22138 10.2463 7.63537 17.88168 7.63537 15.17227 0 26.5514-11.52723 26.5514-28.571 0-17.09339-11.37913-28.571-26.5514-28.571zm-2.0196 46.00917c-9.70432 0-16.10814-7.68448-16.10814-17.43817s6.40382-17.43817 16.10814-17.43817c9.11324 0 16.15726 6.65013 16.15726 17.43817 0 10.73843-7.04402 17.43817-16.15726 17.43817zm48.13813-62.41299c-3.54707 0-6.05929 2.56132-6.05929 6.20662v60.73818c0 3.6453 2.51222 6.25624 6.0593 6.25624 3.49745 0 5.9603-2.61094 5.9603-6.25624v-60.73818c0-3.6453-2.46285-6.20662-5.9603-6.20662zm29.27728-4.63054c-4.33512 0-7.53715 3.20179-7.53715 7.38881 0 4.23664 3.20203 7.43843 7.53715 7.43843 4.33486 0 7.43817-3.20179 7.43817-7.43843 0-4.18702-3.10331-7.3888-7.43817-7.3888zm-.04937 21.37914c-3.54682 0-6.05903 2.56133-6.05903 6.25573v43.94047c0 3.6453 2.51221 6.25624 6.05903 6.25624 3.49746 0 5.96031-2.61094 5.96031-6.25624v-43.94047c0-3.6944-2.46285-6.25573-5.9603-6.25573zm66.19423 34.6794c-2.56183 0-3.99008 1.03436-5.61578 3.34962-2.51221 4.28575-6.79796 7.63537-13.1033 7.63537-9.35955 0-16.15752-7.14275-16.15752-17.43817 0-10.34504 6.79797-17.43817 16.15751-17.43817 5.71425 0 10.19695 2.80789 12.75853 6.99491 1.77328 2.31527 3.39873 3.39873 6.00967 3.39873 2.95573 0 5.07405-2.21654 5.07405-5.22138 0-2.75877-1.82265-6.45318-4.63054-9.3598-4.03944-4.23613-10.78804-6.94529-19.60586-6.94529-16.20662 0-28.12774 11.8715-28.12774 28.571 0 16.69899 11.92112 28.571 28.12774 28.571 8.57125 0 15.6649-3.15267 19.90128-7.58626 2.66005-2.80789 4.53206-6.5514 4.53206-9.21145 0-3.10357-2.41399-5.3201-5.3201-5.3201zm79.65916-11.28066l-8.91629-1.77354c-4.97532-.88651-7.48753-3.00483-7.48753-6.30534 0-3.59619 3.30038-5.76362 8.47277-5.76362 4.18715 0 8.128 1.28092 11.28067 4.53232 2.41374 2.21654 4.18702 3.49745 6.30534 3.49745 2.70942 0 4.77812-2.0201 4.77812-4.77837 0-2.95572-1.92112-6.05929-4.92595-8.32494-4.03945-3.10356-10.24606-4.82748-17.19187-4.82748-12.90623 0-21.13283 6.25573-21.13283 16.55115 0 8.07888 5.46794 13.54682 16.05904 15.66514l8.47278 1.72392c4.729.88652 7.04427 3.20179 7.04427 6.69924 0 4.0397-3.44834 6.25624-9.16247 6.25624-5.32023 0-9.60585-1.72392-13.44822-5.86184-2.41374-2.51221-3.84224-3.34961-5.86196-3.34961-3.00484 0-4.92608 2.01959-4.92608 4.87659 0 2.51221 1.67493 5.61578 4.08867 7.83232 3.99008 4.13791 11.3299 6.74885 19.7042 6.74885 13.69441 0 22.06872-6.60102 22.06872-17.68473 0-8.42316-5.02469-13.64505-15.22138-15.71375zm79.11147 1.6748c0-14.82773-10.24606-25.41832-26.3542-25.41832-16.15751 0-27.38881 11.47761-27.38881 28.42316 0 17.5369 11.4776 28.71884 29.06362 28.71884 8.57125 0 17.3397-3.05445 21.52672-9.3598.98524-1.47735 1.72417-3.15216 1.72417-4.77786 0-2.95573-1.4285-4.8771-4.63053-4.8771-2.06896 0-3.6944.93613-5.3201 2.414-3.15268 3.84223-7.24123 5.51704-12.857 5.51704-9.75344 0-16.45294-5.3692-17.3397-13.84199h35.17202c4.23638 0 6.40381-2.16743 6.40381-6.79796zm-41.57583-2.9066c.8374-7.83232 6.60101-12.70892 14.77812-12.70892 8.32519 0 13.94071 4.67965 14.82748 12.70891h-29.6056zm81.45155-22.51172c-6.00993 0-11.13308 2.61044-14.18703 7.29008v-.68957c0-3.6944-2.4631-6.25573-5.96056-6.25573-3.54682 0-6.05903 2.56133-6.05903 6.25573v43.94047c0 3.6453 2.51221 6.25624 6.05903 6.25624 3.49746 0 5.96056-2.61094 5.96056-6.25624v-23.79263c0-9.50763 4.58117-15.17252 10.24606-15.17252 2.75853 0 4.82748 1.33003 6.30535 3.00484 1.08371 1.28091 2.80788 2.66005 4.87684 2.66005 3.8916 0 6.10815-2.70916 6.10815-6.60051 0-2.66005-1.13283-5.12316-3.25115-7.14275-2.21654-2.06921-5.71425-3.49746-10.09822-3.49746zm69.66358.09822c-2.70941 0-4.63053 1.57659-5.71425 4.43359l-15.17227 38.66948-15.17227-38.66948c-1.08371-2.857-3.00483-4.43359-5.71425-4.43359-3.1033 0-5.96056 2.06921-5.96056 5.51705 0 .54224.04937 1.5766.44351 2.61094l16.5514 41.03386c1.7733 4.4827 4.53207 7.88193 9.85217 7.88193s8.07863-3.39923 9.85217-7.88193l16.5514-41.03386c.39415-1.03435.44326-2.0687.44326-2.61094 0-3.44784-2.857-5.51705-5.9603-5.51705zm23.18407.24656c-3.54682 0-6.05904 2.56133-6.05904 6.25573v43.94047c0 3.6453 2.51222 6.25624 6.05904 6.25624 3.49746 0 5.96056-2.61094 5.96056-6.25624v-43.94047c0-3.6944-2.4631-6.25573-5.96056-6.25573zm.04911-21.37914c-4.33486 0-7.53664 3.20179-7.53664 7.38881 0 4.23664 3.20178 7.43843 7.53664 7.43843 4.33511 0 7.43842-3.20179 7.43842-7.43843 0-4.18702-3.1033-7.3888-7.43842-7.3888zm66.14512 56.05854c-2.56158 0-3.99033 1.03436-5.61578 3.34962-2.51222 4.28575-6.79797 7.63537-13.10331 7.63537-9.35955 0-16.15751-7.14275-16.15751-17.43817 0-10.34504 6.79796-17.43817 16.1575-17.43817 5.71426 0 10.19696 2.80789 12.75854 6.99491 1.77328 2.31527 3.39898 3.39873 6.00967 3.39873 2.95572 0 5.07379-2.21654 5.07379-5.22138 0-2.75877-1.82265-6.45318-4.63054-9.3598-4.03918-4.23613-10.78804-6.94529-19.6056-6.94529-16.20662 0-28.12774 11.8715-28.12774 28.571 0 16.69899 11.92112 28.571 28.12774 28.571 8.57125 0 15.66489-3.15267 19.90128-7.58626 2.66005-2.80789 4.53206-6.5514 4.53206-9.21145 0-3.10357-2.41374-5.3201-5.3201-5.3201zm68.16142-9.60585c0-14.82774-10.24606-25.41833-26.35421-25.41833-16.15751 0-27.38881 11.47761-27.38881 28.42316 0 17.5369 11.47761 28.71884 29.06362 28.71884 8.57125 0 17.3397-3.05445 21.52672-9.3598.98525-1.47735 1.72418-3.15216 1.72418-4.77786 0-2.95573-1.4285-4.8771-4.63054-4.8771-2.06896 0-3.6944.93613-5.3201 2.414-3.15267 3.84223-7.24123 5.51704-12.857 5.51704-9.75344 0-16.45293-5.3692-17.3397-13.84199h35.17202c4.23639 0 6.40382-2.16743 6.40382-6.79796zm-41.57584-2.90662c.8374-7.83231 6.60102-12.7089 14.77812-12.7089 8.3252 0 13.94072 4.67964 14.82748 12.7089h-29.6056zM282.99438 892.9242c-20.54198 14.5194-17.56677 40.69388 5.5292 51.16802 19.27855 8.74289 39.78357 8.90338 60.27342 8.23432 18.07685-.59008 35.88234-3.12103 51.2189-13.96654 12.17174-8.60745 17.25338-20.54325 15.54692-35.30593-1.66544-14.40828-10.23998-23.1509-23.47645-27.7622-14.05159-4.89508-28.69883-3.19926-41.13941-3.5805-11.01132 0-20.01038.00229-29.0092-.001-3.7182-.00127-7.38045-.41618-10.62704-2.37096-4.23538-2.54994-4.79027-6.49293-3.41442-10.77666 1.529-4.76166 4.92696-3.9754 8.8378-3.06812 19.02262 4.41334 37.9741 4.21335 56.5332-2.3145 21.83378-7.67968 35.75931-27.99611 30.3387-48.5895-3.16912-12.03883-1.70037-19.22613 7.80473-26.85467 7.10554-5.7031 6.98353-13.5167 2.172-18.84515-4.50752-4.99127-12.81803-5.40795-19.6041-.62122-4.49915 3.17343-8.81047 6.65165-12.93724 10.29745-2.20211 1.94567-3.85389 2.07377-6.68127 1.08144-22.7927-8.00016-45.55148-7.96649-68.21255.8379-28.02446 10.8883-37.30325 45.56643-18.0318 68.17788 2.75852 3.23697 3.20583 5.28036-.61413 7.96142-13.19293 9.25955-13.30937 28.89883-3.79794 39.79218 2.55778 2.9294 2.9413 3.92603-.70932 6.50634zm41.51635-101.82267c11.26396-5.1272 22.88688-4.77837 34.1921-.23188 8.6996 3.49847 13.58732 12.82815 12.69043 22.48817-.89841 9.67927-8.18875 17.2025-19.3631 19.66484-3.12178.6878-6.37875.76273-10.01873 1.16827-9.155-.34403-18.5515-1.60418-25.46237-9.10615-9.65142-10.47718-5.58262-27.81814 7.96167-33.98325zm-20.91006 114.2473c1.96137-4.48396 4.89254-7.3807 10.4382-7.1706 8.49657.32175 17.0144.08455 25.52313.08455l.00025.21695c8.5062 0 17.01213-.00962 25.51807.0043 3.72959.00633 7.31312.81007 10.58553 2.56968 7.3645 3.95945 8.28013 14.05312 1.58975 18.92515-2.53576 1.84644-5.25125 3.54226-8.47581 4.36372-17.23667 4.39131-34.6184 4.47004-51.89835 1.00727-12.25958-2.45703-17.3197-10.76678-13.28077-20.00102zm909.62187-53.0246c11.2742-.10884 16.4252-4.73204 17.59904-15.91372.9226-8.79174-.33972-17.53488-3.13988-25.82463-9.155-27.10402-28.51493-42.22085-56.5928-45.7735-29.99938-3.79566-56.06006 4.0559-73.89618 29.83496-13.93439 20.14-16.30332 43.00662-11.60874 66.74482 3.31734 16.77417 10.55958 31.53052 24.466 41.84721 28.73579 21.31763 59.9233 22.51171 91.98467 8.8211 11.19409-4.78014 20.07367-13.05977 24.2155-25.1019 2.00138-5.81905 1.23017-11.50798-3.77414-15.72007-4.83963-4.07336-10.33301-3.2071-15.48338-.74981-3.06546 1.46242-6.18333 3.39088-8.44139 5.87069-11.3942 12.5145-25.93778 14.99633-41.66735 13.28254-20.744-2.25983-36.29054-15.48516-39.00995-32.33983-.58224-3.60884-.3263-5.1267 4.02526-5.04747 15.21581.2767 30.43997.10734 45.66085.10658l-.00026.00025c15.22113-.0005 30.44301.10987 45.66275-.03721zm-55.18722-26.8286c-11.28914 0-22.57866.02456-33.86781-.00885-7.30388-.02152-7.82346-.81893-5.50692-8.03737 5.81462-18.11939 22.07567-28.04901 43.19432-26.37673 18.3171 1.45052 31.05512 11.70113 35.10696 27.8503 1.21105 4.82697.8288 6.9506-5.06405 6.70758-11.2704-.46452-22.5731-.13492-33.8625-.13492zm-404.50303 17.2911c.4349 46.09651 32.72259 78.03257 78.69569 77.83892 48.20546-.20277 79.82433-31.8148 79.63548-79.61802-.18302-46.38687-32.78739-77.27364-81.3275-77.04328-45.20836.21441-77.43402 33.20153-77.00367 78.82238zm79.33032-48.33153c26.98707.38073 45.93589 20.74805 45.21961 48.60468-.72627 28.25052-19.3365 47.1349-46.19637 46.8772-26.20915-.25111-45.09658-20.80399-44.5741-48.50442.51693-27.4116 19.84053-47.34047 45.55086-46.97746zm-266.86915 47.59817c-5.9917-5.58312-13.35241-8.73731-21.16321-11.05106-13.49113-3.99615-27.71486-4.78445-41.03158-9.46536-7.79333-2.73954-11.88568-8.13913-11.7229-15.12797.15213-6.52735 4.41156-12.02415 12.3783-13.81212 13.55112-3.04078 26.40635-1.46318 37.76245 7.6017 4.82875 3.8544 8.9449 8.70188 14.85508 11.14701 5.21834 2.15882 10.18581 2.38362 14.7961-1.48343 4.64066-3.89237 5.45199-8.94616 4.04146-14.40397-1.27864-4.94672-3.71643-9.37018-7.29059-13.13673-9.84305-10.37289-22.475-14.99-36.14232-16.99542-19.99342-2.9337-39.63447-2.3464-57.08631 9.60003-22.17908 15.1824-23.67213 47.76195-3.0418 64.82269 9.1102 7.53386 20.2496 10.46275 31.55888 12.95117 9.85621 2.16844 20.09038 2.90079 29.44815 7.0339 8.06698 3.56302 11.9915 9.93899 11.06878 17.23033-.95562 7.55184-5.89778 12.72689-14.68927 14.33082-17.10174 3.12027-32.45729-.41896-45.09253-12.99092-3.44202-3.42455-6.90074-6.8215-11.23611-9.08741-4.81685-2.51778-9.90963-2.5512-14.48144.19619-4.78267 2.87446-6.3871 7.7308-5.7836 13.17242.7974 7.19186 4.5594 13.01926 9.44155 17.99889 15.24417 15.54895 34.7361 19.66079 49.7894 19.97773 17.80574-.01089 29.55017-1.7376 40.6111-6.93467 27.9108-13.11445 34.88622-51.18903 13.0104-71.57382zm-438.15593-3.2924c-9.1664-6.57445-20.10734-8.78618-30.93184-11.1017-9.86077-2.1092-20.06405-2.73549-29.43675-6.99542-6.37015-2.89548-9.7094-7.66372-9.36335-14.6323.35694-7.18605 4.81812-11.32472 11.3475-13.10762 11.51179-3.1433 22.59576-2.18363 33.24432 3.74579 6.34205 3.53163 10.96246 9.12285 16.92403 13.03319 5.63046 3.69314 11.63456 4.6799 17.42552.72931 5.76715-3.93413 6.22155-9.95773 4.47333-16.036-2.54158-8.83553-8.48847-15.13556-16.34028-19.61244-21.62064-12.32792-44.69434-13.78857-68.14446-7.3969-25.66337 6.99516-39.11856 31.33408-31.06271 54.98444 5.54616 16.28206 18.86667 23.73617 34.33233 27.8703 12.66715 3.38606 25.65376 5.59248 38.28597 9.08968 7.95079 2.20136 12.01377 9.01679 11.6548 16.7876-.33617 7.27893-5.03252 13.1557-13.06052 14.85937-15.56287 3.30304-30.17594 1.3275-42.7269-9.42384-4.02095-3.4443-7.90142-7.0544-11.96086-10.45136-5.1024-4.26955-12.91978-4.98342-18.03205-1.4647-5.72615 3.94147-6.4466 9.71724-4.84065 15.9193 1.34395 5.1905 4.03843 9.68003 7.68904 13.67998 15.58338 17.0749 36.07373 20.785 57.73031 20.95461h-.00025c2.99395 0 6.02132.29315 8.97578-.04759 19.55472-2.25426 36.79468-8.46847 46.27219-27.64246 9.37498-18.96667 4.28879-41.73254-12.4545-53.74125zm596.77898 41.21155c-5.23809-4.6756-11.33877-4.22828-17.1882-.55945-3.48821 2.18769-6.79113 4.72116-10.43389 6.60305-14.34372 7.40931-26.32104.47642-26.4647-15.47731-.20138-22.36261.09708-44.73003-.16847-67.09112-.05848-4.9257 1.92808-5.6411 6.0822-5.54844 9.91165.22125 19.83178.07948 29.7485.06607 4.43232-.00582 8.9178-.37162 12.49133-3.18305 4.86888-3.83085 7.06377-8.93806 5.70033-15.24872-1.37964-6.38509-5.46288-10.35491-11.73835-10.99588-7.3116-.74678-14.72952-.40857-22.09643-.67564-6.4052-.23239-14.63977 2.66587-18.71883-1.12017-4.16437-3.86502-.8717-12.20211-1.34167-18.56037-.20353-2.75346-.0762-5.5454-.45896-8.26924-1.29838-9.24057-8.24254-15.16645-16.91618-14.6232-9.28538.58173-15.51326 7.18806-15.65148 16.78025-.09974 6.91542-.21163 13.84047.05392 20.74703.14759 3.8382-.9303 5.3034-4.98721 5.16139-5.97183-.2091-12.00441-.14075-17.9413.47793-7.55222.78703-13.14217 7.23363-13.08977 14.24146.05721 7.57664 5.17935 13.70402 12.98902 14.59408 5.92664.6754 11.95782.7359 17.93092.59135 3.88236-.09392 5.18036 1.07384 5.1067 5.05227-.231 12.4459-.0848 24.89888-.08303 37.34907l.00025.00026c.00202 11.98896-.19745 23.98223.05556 35.96613.27821 13.17192 4.52118 24.96647 14.90432 33.50557 16.29244 13.39898 34.51485 13.24558 53.32735 6.2089 9.56004-3.57568 17.46438-9.26791 21.76696-18.8692 2.78941-6.22435 2.33122-12.47223-2.8789-17.12302zm304.7816-115.88995c-17.05251-1.37889-31.04006 4.60016-42.13074 18.35228-.46389-1.26522-.7369-1.79354-.8512-2.35425-2.28223-11.19764-8.23343-16.01854-18.50214-14.9657-8.84984.90727-14.48941 7.65562-14.50776 17.9075-.07088 39.43676-.0462 78.87377-.01203 118.31078.00544 6.27801 1.8191 11.84468 7.34198 15.52896 5.47123 3.6501 11.26952 3.69592 17.03516.87436 6.31585-3.0904 8.60593-8.67453 8.62036-15.34213.04595-20.98676.01722-41.97378.01823-62.9608.00038-7.87915.8374-15.64185 3.54884-23.09218 2.7403-7.53006 6.81518-14.2012 14.15374-17.98825 10.30745-5.3196 18.52404-3.20001 29.03514 6.85062 5.14772 4.92216 10.835 7.19819 18.18103 4.85608 6.46597-2.06136 9.14108-6.68506 10.18189-12.64284 1.33597-7.64853-.6111-14.5675-5.5116-20.6473-6.8448-8.49175-16.1198-11.8396-26.6009-12.68713zm-805.9863 78.41836c-.00279-20.29314.201-40.58933-.08708-60.87817-.14759-10.40934-6.58634-16.53976-16.28586-16.6271-9.22614-.08328-16.47723 6.26788-16.52862 15.76413-.22049 40.81614-.18201 81.63457-.01038 122.45097.03493 8.30748 5.52211 14.65282 12.59651 15.9798 11.33915 2.12668 20.09646-4.72445 20.24733-16.5028.2567-20.05923.07063-40.1243.0681-60.18683zm-16.1732-136.4398c-11.6123-.10884-20.88324 8.9654-20.80552 20.36429.07873 11.56393 8.93553 20.23113 20.76526 20.32074 11.29003.08556 20.301-8.69479 20.37162-19.8509.07367-11.63861-8.79401-20.72577-20.33137-20.83412zm615.69653-251.25008c4.79229 0 8.67719-3.88527 8.67719-8.67731s-3.8849-8.67732-8.6772-8.67732H427.065c-4.79255 0-8.67732 3.88528-8.67732 8.67732s3.88477 8.67731 8.67732 8.67731h395.87015zM591.63329 515.9201l-3.21115-29.67067c-.88475-8.1571-8.59378-13.9302-16.84607-12.22363-6.5033 1.34408-10.8569 7.36957-11.06043 13.9144l31.11765 27.9799z" class="cls-1"/><path d="M759.86118 582.52974l-14.93672-12.0434c5.18024-9.86963 2.16376-27.25768 2.16376-27.25768.10354-.966.37757-1.9272.82108-2.79118l21.65456-41.9786c3.75984-7.29311.51173-16.35977-7.31476-19.48611-1.5876-.63438-3.22824-.93158-4.85255-.93158-5.33162 0-10.49629 3.19875-13.10445 8.1685l-18.9292 36.08942s-34.23386 34.30677-69.13046 36.40357c-.21935.01215-.3887.05012-.6007.06708l-45.11355-9.34815c-5.38871-1.11612-10.32302-4.22398-13.92427-8.7611l-.0572-.00988.00961-.04607c-.03417-.04278-.0681-.08177-.10227-.1243l-.25593-.33136-52.655-47.34553c-11.74265-9.8071-26.5504-15.10038-41.67532-15.10038-3.0185-.00012-6.04967.21075-9.07172.63869-2.93497.4192-9.68585 6.39141-4.13386 12.857l121.87203 117.13999 95.25038 19.73825 11.4218 8.7439c6.27813 4.80722 13.6534 7.11642 20.95575 7.11642 11.07283 0 21.98226-5.30416 28.67783-15.24999 10.00494-14.86368 6.97732-34.91128-6.96884-46.15751zM445.19223 217.14475c2.19072 6.48635 4.52143 12.93041 4.38017 19.91697-.13442 6.64988-.55388 13.28963-1.34192 19.88938-1.77202 14.84116-.6035 29.45499 2.91598 43.94123 3.22355 13.26887 10.93563 22.87928 23.20963 28.81453 1.6009.774 3.33595 1.2732 5.01633 1.8796 2.50488.90411 2.87219 2.33375 1.07486 4.25272-.21847.23327-.46655.44035-.67286.68324-5.67932 6.68607-9.01375 14.1583-8.02167 23.1814 1.6381 14.89964 17.17338 23.29672 30.52528 16.44788 6.28762-3.22495 14.02704-.73134 17.21034 5.56059.74956 1.48128 1.44268 2.99129 2.15958 4.48902 2.86384 5.98373 5.32163 12.183 9.75648 17.29604 5.452 6.28598 12.34464 8.5801 20.45415 7.5812 5.56059-.68502 10.53895-3.00826 15.33858-5.73767 9.3269-5.30416 17.4445-12.27755 25.81147-18.89528 2.80156-2.2159 5.80867-2.99344 9.29372-2.60487 5.69324.63477 10.66274 3.00332 15.29897 6.18688 7.64512 5.24973 15.85994 9.29322 24.77736 11.88024 16.30143 4.729 32.76145 6.12017 49.41006 2.06123 16.36294-3.98944 31.10182-11.41939 44.73091-21.24421 8.48265-6.11498 15.4587-13.48176 20.68363-22.57285 5.12758-8.92147 8.0771-18.60606 10.41073-28.51278 3.41164-14.48308 4.6537-29.26866 5.74615-44.05615.92195-12.48007 2.98787-24.74598 6.64316-36.7019 2.91535-9.53625 7.10782-18.60493 10.83564-27.83954 3.20646-7.94307 5.14644-16.14017 5.98575-24.67067 1.35496-13.77338-.64122-27.17376-4.1688-40.39997-4.09906-15.36897-12.06883-28.65783-22.5207-40.51238-8.09053-9.17627-17.13035-17.38185-26.22422-25.54414-8.51264-7.64056-15.32934-16.5628-19.7075-27.2744-2.26995-5.554-4.98151-10.92144-8.47948-15.85512-6.88542-9.71154-16.47242-15.90095-27.03263-20.80539-17.42628-8.09305-35.95006-10.93258-54.96103-11.31078-10.74349-.1891-21.32573 1.20775-31.76544 3.51517-15.36415 3.39595-29.46663 10.00051-43.15395 17.57956-9.17272 5.07923-17.19085 11.73164-25.23986 18.3557-12.8451 10.57122-25.432 21.45862-36.5314 33.86363-8.33836 9.31942-17.80625 16.94075-28.75176 22.93865-9.81166 5.37668-18.41227 12.3869-26.17422 20.48262-7.60296 7.9299-11.42191 17.24528-11.3318 28.20052.06253 7.58804 1.30674 15.01671 3.2314 22.32262 2.98155 11.31775 7.4402 22.1487 11.1789 33.21748zm89.75573 120.31874c-4.9014.53629-9.66661 1.80758-14.51384 2.6184-5.20036.87007-8.11584-1.52228-8.64466-6.78302-.19037-1.89416-.7331-3.7444-.02633-5.66628 1.2394-3.37038 3.47215-4.07691 6.00335-1.58204 2.85953 2.81814 6.06992 5.04532 9.6347 6.84366 1.569.79159 3.21723 1.2346 4.91179 1.54824 1.73177.32036 3.23621 1.07144 4.78369 2.16085-.74425.67995-1.48014.78703-2.1487.86019zm98.48127 26.24231c-4.0664 2.79941-8.70073 3.44772-13.91046 3.5786-3.76123-.40453-7.94725-.84513-12.13022-1.3127-.82601-.0924-1.63279-.21808-2.47475-.09163-4.6723.70197-9.32638 1.49558-13.88173 2.76992-1.68013.46996-3.4005.62223-5.11582.71564-3.82123.20796-7.64727.37098-11.4733.42857-5.53073.08341-9.52435-2.82434-12.68057-7.00301-1.37533-1.82126-2.41399-3.9097-3.49593-5.93537-.76324-1.42939-1.0265-3.01193-.85488-4.64725.14227-1.35331.86196-1.77758 2.11605-1.3261.4797.17265.9693.35086 1.40318.61135 6.44863 3.87223 13.75921 5.4001 20.95841 6.15105 9.12919.9522 18.229 2.41551 27.44071 2.67018 4.71585.13024 9.41625.85019 14.13159.95765 3.12052.07113 6.22978.1586 9.33511.4463.6602.06113 1.59153-.25201 1.80303.63197.16974.70944-.65704 1.00144-1.17042 1.35483zm50.10355-144.71334c-8.21722-.05354-14.90229-6.74835-14.94773-14.96963-.04594-8.3181 6.90429-15.2596 15.18404-15.16492 8.24406.0943 14.87546 6.77708 14.90191 15.0176.02709 8.42227-6.7319 15.1715-15.13822 15.11695zM632.5755 175.2154c-.01822 25.6745.02582 51.34902-.0205 77.02353-.02848 15.6545-8.27241 27.44336-22.91017 31.29155-12.6322 3.32102-24.87229 2.11744-35.10924-7.17199-3.06938-2.78523-3.5534-6.78227-1.7505-9.6404 1.94188-3.07838 4.92064-3.94566 8.59176-2.35084 4.01564 1.74455 7.67157 4.36727 12.1406 4.99633 13.21267 1.85986 22.48095-3.87996 22.45374-18.25077-.02911-15.29808-.00658-30.59616-.00658-45.89437l.22175-.00025c0-14.67117.21695-29.34614-.04506-44.01262-.5435-30.4196 25.50668-40.08063 47.14555-32.93307 4.226 1.39584 8.18748 3.29304 11.27003 6.63532 2.86054 3.10166 3.24355 6.8796 1.06372 9.9576-2.1006 2.96623-4.86546 3.53492-9.0535 1.72176-3.12343-1.35243-6.11384-3.04382-9.29942-4.21449-7.937-2.91674-16.94833-.38326-21.44369 5.77754-1.9372 2.65499-2.45424 5.75222-2.81485 8.8816-.6964 6.04448-.42933 12.11985-.43364 18.18357zm131.01071 117.54084c-.48275 5.07113-1.2856 10.10847-2.3526 15.1043-1.17105 5.4835-1.94948 11.06309-3.70593 16.40217-1.51241 4.597-2.9947 9.20678-4.8838 13.68074-1.79278 4.24588-4.43258 7.94497-7.85561 10.82703-3.33633 2.80915-6.9891 5.41098-11.08309 7.1049-4.8285 1.9977-9.74242 3.75997-14.97089 4.53612-3.3843.50236-6.75797.28529-10.13847.31352-.36896.00316-.75944-.12417-1.106-.27112-2.52815-1.0722-2.73624-1.91226-.93473-3.94755 1.9177-2.16667 4.24056-3.89743 6.58039-5.5363 3.99362-2.79737 7.60714-5.98764 11.02524-9.44687 9.25778-9.3693 16.4499-20.40023 24.63104-30.63211 4.66902-5.83956 7.91396-12.66056 11.52875-19.20146.6754-1.22193 1.278-2.49766 2.46336-3.5729 1.35028 1.4442.93955 3.19913.80234 4.63953zm17.41489-74.64118c-.6792-10.79134.44477-21.56609-.3177-32.3168-.7626-10.7507-2.9994-21.27345-5.51288-31.75607 5.90411 9.68762 8.1437 20.42908 8.87857 31.46255.73172 10.98474.16733 21.94543-3.048 32.61032zM750.33038 100.6151c12.67803 9.89115 23.51214 21.4485 31.28801 35.60705 6.91644 12.5931 11.22295 26.0708 13.27975 40.33238 2.38856 16.56204.2539 32.4402-6.21636 47.8012-.06873.1634-.22543.28972-.34099.43325.95651-4.90532 1.9529-9.76483 2.89421-14.6418 1.11258-5.76425.68502-11.5452.754-17.32552.02139-1.78645-.05595-3.57657-.1524-5.3615-.56742-10.49667-2.4455-20.72172-5.78513-30.72488-3.71263-11.11992-9.63332-20.93753-16.71455-30.15506-6.14916-8.0042-12.26047-16.03727-18.39064-24.05603-.69653-.91094-1.33736-1.8734-2.55094-2.60486 1.0408-.30846 1.47381.33605 1.93504.69577zM624.54181 26.51008c4.29676-1.5014 8.82414-1.25155 13.26165-1.67317 1.33066-.12632 2.68334-.0195 4.0259-.0195 13.84338.54187 27.5512 2.10593 40.5868 7.03986 8.1557 3.08685 15.44693 7.7603 22.173 13.42708 6.02714 5.07759 9.56383 11.5142 12.0496 18.74428.10379.30175.25504.59982.2896.91018.11188 1.00448.4387 2.1849-.68375 2.7622-1.16194.59793-1.68013-.55604-2.28894-1.23042-4.57586-5.06974-8.72263-10.57122-14.08134-14.86798-7.68993-6.16587-16.09663-11.22801-25.67236-13.7668-13.76136-3.6486-27.6693-6.71659-41.76823-8.81884-2.21034-.32959-4.42928-.60501-6.67279-.58565-.38187.00342-.77905.02494-1.1427-.06695-.56982-.14404-1.16915-.4544-1.20876-1.06942-.04253-.65893.70475-.6354 1.13232-.78487zm13.18014 36.08688c5.00038.64527 9.92963 1.80797 14.75837 3.2995 7.86624 2.43007 15.7021 4.90937 23.41734 7.84346 7.65246 2.9104 15.21493 5.87373 22.2997 10.01595 9.05957 5.29668 17.19364 11.81606 24.61954 19.1407 10.17707 10.03835 19.3241 20.96702 25.93208 33.76415 3.783 7.32603 6.54634 15.07316 9.08083 22.9246 3.04079 9.4203 5.15354 18.99564 5.60135 28.87629.17619 3.88704.59704 7.80156.3596 11.6738-.33327 5.43389-1.13714 10.83892-1.73975 16.25623l-.56337.00595c0-4.14297.08-8.28772-.01418-12.42855-.3501-15.3996-3.47505-30.29543-8.35443-44.85129-2.2297-6.6514-4.5989-13.26051-7.4183-19.68686-3.23418-7.37185-6.77948-14.5908-11.85075-20.92728-1.24775-1.559-3.2662-1.5743-4.97772-2.02339-.88778-.23289-1.46761-.60375-2.03478-1.17168-6.82506-6.83391-13.78529-13.50328-21.5604-19.28905-10.48224-7.8003-21.87454-13.84553-34.0335-18.59593-5.0119-1.9582-10.03392-3.90223-15.25567-5.0443-11.60394-2.53766-23.27735-4.7199-35.28353-3.80705-3.94122.2996-7.91421.15948-11.86328.38452-4.27968.24378-8.40494 1.52065-12.63955 2.11832-7.80397 1.10131-15.18214 3.80972-22.64765 6.17726-.60831.1929-1.21257.44832-1.83708.52641-.58122.07278-1.65836.4449-.5835-.90043.49895-.62451-.3739-1.65292-.78146-2.40476l-1.66975-.76374c21.93303-10.40972 44.94546-14.22196 69.03984-11.11283zm-71.2979 126.26373c8.16243.06341 14.90824 6.82189 14.97178 15.00013.0648 8.33646-6.80328 15.18404-15.1753 15.13012-8.38114-.05417-15.06266-6.9196-14.9252-15.33618.13391-8.20609 6.93593-14.85774 15.12873-14.79407zm-26.17244 123.741c17.606 14.70852 37.87662 23.70885 60.4344 27.72145 11.44269 2.03555 22.96232 2.87232 34.54511 2.23211 14.60447-.80728 28.68429-3.99476 42.02568-10.15657 2.09503-.96752 4.16298-2.10706 6.84594-2.27666-.56958.92322-1.27623 1.2189-1.90631 1.57469-9.4784 5.35137-19.5703 9.0864-30.2434 11.16055-2.92738.56894-5.96905.79715-8.953.75943-3.08205-.03898-6.17687.10632-9.13146.68223-5.392 1.05106-10.69679.25606-16.03777.04544-3.69972-.14594-7.3754-.74336-11.0941-.58768-.69413.02911-1.4166-.04265-2.09048-.21062-5.62666-1.40242-11.36825-2.23426-17.02022-3.55795-6.49723-1.52153-12.70157-3.78655-18.86794-6.17295-4.97836-1.92644-9.78255-4.31487-14.61358-6.60457-2.96636-1.40597-5.24239-3.83895-7.90421-5.71324-7.78928-5.48452-15.17986-11.4452-21.8019-18.37341-5.62134-5.88133-10.4959-12.30654-15.44566-18.72783-5.68666-7.37716-9.69243-15.51945-12.97978-24.13817-1.49912-3.93071-3.03318-7.83206-3.98678-11.93795-.80804-3.47822-2.10946-6.92657-2.30565-10.4377-.19062-3.41645.30403-6.90694.06582-10.3982 2.91724 10.92487 6.08485 21.70254 10.7893 31.94353 9.43397 20.53642 22.2492 38.6153 39.67599 53.17408zm-76.66736-165.02914c3.87287-11.64734 9.3727-22.2797 18.26393-31.05891 7.63715-7.5407 14.8652-15.4968 22.23781-23.30355 1.48369-1.57128 3.36886-2.12136 5.6573-2.8308-.92398 2.28223-1.92062 3.97046-3.12584 5.55932-3.70909 4.88976-7.90396 9.36828-11.82898 14.07476-6.31471 7.57209-11.9682 15.58186-16.43395 24.41246-4.47434 8.8473-8.56998 17.83827-11.25281 27.41235-1.4685 5.241-2.17908 10.6221-2.77726 16.01474-.61312 5.52857-.70552 11.06068-.33998 16.62735.47212 7.19312 1.78696 14.24145 2.8565 21.34724 1.10017 7.30995 2.94433 14.49561 3.40986 21.92986.59211 9.46093 2.97016 18.63454 5.45858 27.75739.61565 2.25704 2.00187 4.12994 3.0661 6.1556 3.8111 7.25414 8.00673 14.22804 13.81237 20.1605 2.70941 2.76853 4.90747 6.03892 7.31514 9.09932.30884.39263.51439.87803.71032 1.34483.19746.4706.39314.99588-.09189 1.4147-.42883.37036-.97638.38213-1.4447.14772-1.08143-.54148-2.24438-1.01005-3.16634-1.7629-2.51272-2.05175-5.00671-4.09793-7.2916-6.45648-3.67668-3.79503-6.98605-7.83903-9.41853-12.47437-5.77703-11.00841-10.07923-22.5936-12.7441-34.7594-1.4495-6.61658-2.3135-13.28633-2.90661-20.05772-.54857-6.26092-1.46976-12.53753-2.27325-18.80047-1.23408-9.6199-2.69574-19.23576-2.74764-28.95578-.06024-11.24573 1.49533-22.29097 5.05557-32.99776z" class="cls-1"/></svg>