<svg xmlns="http://www.w3.org/2000/svg" role="img" viewBox="49.10 -15.90 2906.80 1029.30"><title>Socket logo</title><style>svg {fill-rule:evenodd;clip-rule:evenodd;stroke-linejoin:round;stroke-miterlimit:2}</style><path fill="#202020" fill-rule="nonzero" d="M1034.61832 647.07866c31.91906 48.81738 91.37612 79.4847 162.09874 79.4847 92.00198 0 155.21423-54.45015 155.84009-133.93485 0-66.96743-40.68115-108.27445-105.77099-132.05727l-35.67424-13.14314c-46.93978-16.89833-68.84502-28.78974-68.84502-55.70188 0-26.28628 28.78974-39.42942 59.45707-39.42942 30.66732 0 58.20533 12.51727 79.4847 38.17769l60.08293-61.96052c-38.1777-42.55874-85.74334-61.33466-140.1935-61.33466-86.3692 0-150.20732 49.44325-150.20732 133.309 0 60.7088 38.1777 102.0158 109.52617 127.05036l37.55183 13.14314c43.81047 15.02073 61.96052 32.54492 61.96052 57.57947 0 25.66042-23.78282 43.1846-59.45706 43.1846-36.3001 0-74.4778-19.40177-96.38303-52.57256l-69.47089 58.20534z"/><path fill="#202020" fill-rule="nonzero" d="M1699.90688 562.58704c0-91.37612-73.85193-163.35046-164.60219-163.35046-90.75025 0-164.60218 71.97434-164.60218 163.35046s73.85193 163.35046 164.60218 163.35046c90.75026 0 164.6022-71.97434 164.6022-163.35046zm-242.83517 0c0-48.19151 33.17079-83.23989 78.23298-83.23989 45.0622 0 77.60712 35.04838 77.60712 83.2399 0 48.1915-32.54492 83.23988-77.60712 83.23988s-78.23298-35.04837-78.23298-83.23989z"/><path fill="#202020" fill-rule="nonzero" d="M2030.99101 635.81311l-74.4778-40.05528c-12.51727 28.78973-39.42941 50.0691-73.85192 50.0691-45.0622 0-79.48471-35.04837-79.48471-83.23989 0-48.19151 34.4225-83.23989 79.4847-83.23989 34.42252 0 61.33466 21.27937 73.85194 50.06911l74.4778-40.05529c-26.91215-53.82428-83.2399-90.12439-148.32973-90.12439-92.62785 0-165.85392 68.84502-165.85392 163.35046s73.22607 163.35046 165.85392 163.35046c65.08983 0 121.41758-36.3001 148.32972-90.12439z"/><path fill="#202020" fill-rule="nonzero" d="M2061.03601 719.053h85.74335V575.10432L2274.45558 719.053h105.77099l-152.71078-172.11255 123.92104-140.81937H2248.1693l-101.38994 115.15895v-271.6249H2061.036V719.053z"/><path fill="#202020" fill-rule="nonzero" d="M2344.54637 562.58704c0 98.88649 72.6002 163.35046 165.85392 163.35046 65.7157 0 116.41067-28.16387 145.2004-70.09675l-63.8381-47.56565c-13.76901 21.27937-41.93288 39.42942-80.73644 39.42942-41.30701 0-78.23298-23.15696-83.23989-65.08983h234.07307c1.25173-13.14315 1.25173-21.90524 1.25173-29.4156 0-101.38995-71.97434-153.9625-153.9625-153.9625-95.1313 0-164.60219 70.7226-164.60219 163.35045zm162.09873-92.62784c31.91906 0 63.21225 17.52418 70.72261 54.45015h-146.45213c8.13623-38.1777 43.81047-54.45015 75.72952-54.45015z"/><path fill="#202020" fill-rule="nonzero" d="M2901.56721 715.92368v-75.72952c-10.01382 3.75518-21.27937 5.63277-35.04837 5.63277-36.92597 0-53.19843-15.02073-53.19843-53.19842V481.22474h88.2468v-75.10366h-88.2468v-86.99507h-85.74334v86.99507h-63.21225v75.10366h63.21225v128.30209c0 76.35539 53.19842 113.28135 119.53999 113.28135 23.78283 0 40.68115-2.50345 54.45015-6.8845z"/><g><path fill="#fff" d="M264.18711 170.34181h355.43064v653.6457H264.18711z"/><path fill="url(#_Linear1)" fill-rule="nonzero" d="M0 30.721C0 47.001 10.39 60.852 24.926 66c7.249-2.56 13.494-7.315 17.911-13.448 4.445-6.151 7.052-13.682 7.052-21.831V9.003L24.935 0 .009 9.003v21.718H0zm20.603-16.748h11.572L28.63 26.042h6.302L17.705 52.018l4.089-18.859h-6.846l5.655-19.186z" transform="matrix(13.9389 0 0 13.9394 106.58 40)"/></g><defs><linearGradient id="_Linear1" x1="0" x2="1" y1="0" y2="0" gradientTransform="matrix(49.889 0 0 66 0 33)" gradientUnits="userSpaceOnUse"><stop offset="0" stop-color="#f0a"/><stop offset="1" stop-color="#8c50ff"/></linearGradient></defs></svg>