<svg xmlns="http://www.w3.org/2000/svg" role="img" viewBox="-11.40 -11.40 592.80 338.30"><title>Technology Innovation Institute logo</title><defs><style>.cls-1{fill:#6400ff}</style></defs><path d="M83.5 99.6H0v29.1h23.3v87.7h36.9v-87.7h23.3V99.6zm11.9 0h36.9v116.8H95.4zm60.8 0h36.9v116.8h-36.9z" class="cls-1"/><path d="M95.4 315.9V302c39.6 0 73.8-14.2 101.8-42.2s42.2-62.2 42.2-101.8-14.2-73.8-42.2-101.8S134.9 14 95.4 14V.1c43.3 0 80.9 15.6 111.6 46.3s46.3 68.3 46.3 111.6-15.6 81-46.3 111.6-68.2 46.3-111.6 46.3zm187.5-231H270v-4h30.2v4h-12.9v34.5h-4.4V84.9zm14.9 20.4v-.1c0-8.2 5.8-14.8 13.6-14.8 8.4 0 13.2 6.7 13.2 15a6.6 6.6 0 0 1-.1 1.4H302c.6 6.2 5 9.6 10 9.6a12 12 0 0 0 9-4l2.6 2.4a14.4 14.4 0 0 1-11.7 5.3c-7.7 0-14.1-6-14.1-14.8zm22.6-1.7c-.4-5.2-3.4-9.7-9.1-9.7-5 0-8.7 4.1-9.2 9.7zm8.8 1.7v-.1A14.77 14.77 0 0 1 344 90.4a14.61 14.61 0 0 1 11.2 5.1l-2.8 3c-2.2-2.4-4.8-4.3-8.6-4.3-5.8 0-10.2 4.9-10.2 11v.1c0 6.2 4.5 11.1 10.5 11.1 3.6 0 6.4-1.8 8.7-4.2l2.7 2.5c-2.9 3.2-6.3 5.5-11.6 5.5a14.62 14.62 0 0 1-14.6-14.6c-.1-.2-.1-.2-.1-.3zm32.1-26h4.2V96a10.81 10.81 0 0 1 9.7-5.6c6.9 0 10.9 4.6 10.9 11.4v17.7h-4.2v-16.6c0-5.3-2.9-8.6-7.9-8.6s-8.5 3.6-8.5 8.9v16.3h-4.2zM394.1 91h4.2v5a10.81 10.81 0 0 1 9.7-5.6c6.9 0 10.9 4.6 10.9 11.4v17.6h-4.2v-16.6c0-5.3-2.9-8.6-7.9-8.6s-8.5 3.6-8.5 8.9v16.3h-4.2zm31 14.3v-.1a14.85 14.85 0 0 1 29.7-.1v.1a14.77 14.77 0 0 1-14.7 14.9h-.2a14.6 14.6 0 0 1-14.7-14.4.6.6 0 0 1-.1-.4zm25.3 0v-.1a10.78 10.78 0 0 0-10.6-11.1c-6.2 0-10.4 5-10.4 11v.1c0 6.1 4.5 11.1 10.5 11.1 6.2 0 10.5-5 10.5-11zm11.3-26h4.2v40.1h-4.2zm11.2 26v-.1a14.85 14.85 0 1 1 29.7-.1v.1a14.83 14.83 0 0 1-14.7 14.9h-.2a14.53 14.53 0 0 1-14.7-14.4.6.6 0 0 1-.1-.4zm25.3 0v-.1a10.78 10.78 0 0 0-10.6-11.1c-6.1 0-10.4 5-10.4 11v.1c0 6.1 4.5 11.1 10.5 11.1 6.2 0 10.5-5 10.5-11zm10.6 19l1.9-3.3a18 18 0 0 0 10.9 3.6c6.3 0 10.3-3.5 10.3-10.1v-3.3c-2.5 3.3-5.9 6-11.2 6a13.11 13.11 0 0 1-13.4-12.9v-.5a13.19 13.19 0 0 1 13-13.4h.4a13.26 13.26 0 0 1 11.1 5.7V91h4.2v23.5c0 4.4-1.3 7.8-3.6 10.1-2.5 2.5-6.3 3.8-10.8 3.8a21.69 21.69 0 0 1-12.8-4.1zm23.3-20.5v-.1c0-5.8-5.1-9.6-10.5-9.6s-9.8 3.7-9.8 9.6v.1a9.75 9.75 0 0 0 9.6 9.7h.3c5.3 0 10.4-3.9 10.4-9.7zM565.8 91h4.5l-11.9 29.3c-2.4 5.9-5.2 8-9.5 8a13.9 13.9 0 0 1-6-1.4l1.4-3.4a8.75 8.75 0 0 0 4.5 1c2.5 0 4.1-1.3 5.8-5.3l-13-28.2h4.7l10.3 23.7zM283 134.3h4.4v38.5H283zm13.8 10.1h4.2v4.9a10.81 10.81 0 0 1 9.7-5.6c6.9 0 10.9 4.6 10.9 11.4v17.7h-4.2v-16.6c0-5.3-2.9-8.6-7.9-8.6s-8.5 3.6-8.5 8.9v16.3h-4.2zm32.8 0h4.2v4.9a10.81 10.81 0 0 1 9.7-5.6c6.9 0 10.9 4.6 10.9 11.4v17.7h-4.2v-16.6c0-5.3-2.9-8.6-7.9-8.6s-8.5 3.6-8.5 8.9v16.3h-4.2zm31 14.3v-.1a14.85 14.85 0 1 1 29.7-.1v.1a14.77 14.77 0 0 1-14.7 14.9h-.2a14.53 14.53 0 0 1-14.7-14.4.6.6 0 0 1-.1-.4zm25.3 0v-.1a10.78 10.78 0 0 0-10.6-11.1c-6.2 0-10.4 5-10.4 11v.1c0 6.1 4.5 11.1 10.5 11.1 6.2 0 10.5-5 10.5-11zm6.5-14.3h4.6l9.6 23.6 9.6-23.6h4.6L408.4 173h-3.7zm30.4 20.2v-.1c0-6 5-9.2 12.2-9.2a31.51 31.51 0 0 1 8.7 1.2v-1c0-5.1-3.1-7.8-8.5-7.8a18.52 18.52 0 0 0-8.6 2.1l-1.3-3.5a21.85 21.85 0 0 1 10.3-2.3c4 0 7.1 1.1 9.2 3.1 1.9 1.9 2.9 4.7 2.9 8.3v17.4h-4.1v-4.3a12.51 12.51 0 0 1-10.3 4.9c-5.1 0-10.5-3-10.5-8.8zm21-2.2v-2.8a29.41 29.41 0 0 0-8.4-1.2c-5.3 0-8.3 2.3-8.3 5.9v.1c0 3.6 3.3 5.7 7.1 5.7 5.3 0 9.6-3.2 9.6-7.7zm13.1 2.9v-17.2h-4v-3.7h4v-8.6h4.2v8.6h9v3.7h-9v16.6c0 3.5 1.9 4.7 4.8 4.7a8.3 8.3 0 0 0 4.1-1v3.6a11.25 11.25 0 0 1-5.1 1.2c-4.5.1-8-2.2-8-7.9zm19.8-31.8h4.8v4.7h-4.8zm.2 10.9h4.2v28.4h-4.2zm11.3 14.3v-.1a14.85 14.85 0 1 1 29.7-.1v.1a14.77 14.77 0 0 1-14.7 14.9h-.2a14.6 14.6 0 0 1-14.7-14.4.76.76 0 0 1-.1-.4zm25.3 0v-.1a10.78 10.78 0 0 0-10.6-11.1c-6.2 0-10.4 5-10.4 11v.1c0 6.1 4.5 11.1 10.5 11.1 6.2 0 10.5-5 10.5-11zm10.8-14.3h4.2v4.9a10.81 10.81 0 0 1 9.7-5.6c6.9 0 10.9 4.6 10.9 11.4v17.7H545v-16.6c0-5.3-2.8-8.6-7.9-8.6s-8.5 3.6-8.5 8.9v16.3h-4.2zM283 188.3h4.4v38.5H283zm13.8 10.1h4.2v4.9a10.81 10.81 0 0 1 9.7-5.6c6.9 0 10.9 4.6 10.9 11.4v17.7h-4.2v-16.6c0-5.3-2.9-8.6-7.9-8.6s-8.5 3.6-8.5 8.9v16.3h-4.2zm30.4 24.8l2.1-3a16.84 16.84 0 0 0 9.8 3.6c3.4 0 5.9-1.8 5.9-4.5v-.1c0-2.9-3.4-4-7.1-5-4.5-1.3-9.4-2.8-9.4-8v-.2c0-4.9 4.1-8.1 9.7-8.1a20.33 20.33 0 0 1 10.2 3.1l-1.9 3.2a16.82 16.82 0 0 0-8.4-2.8c-3.4 0-5.5 1.8-5.5 4.1v.1c0 2.7 3.5 3.7 7.3 4.9 4.4 1.3 9.1 3 9.1 8.1v.1c0 5.4-4.5 8.5-10.1 8.5a18.64 18.64 0 0 1-11.7-4zm29.6-3.9v-17.2h-4v-3.7h4v-8.6h4.2v8.6h9v3.7h-9v16.6c0 3.5 1.9 4.7 4.8 4.7a8.3 8.3 0 0 0 4.1-1v3.6a11.25 11.25 0 0 1-5.1 1.2c-4.5.1-8-2.2-8-7.9zm19.8-31.8h4.8v4.7h-4.8zm.2 10.9h4.2v28.4h-4.2zm14.5 20.9v-17.2h-4v-3.7h4v-8.6h4.2v8.6h9v3.7h-9v16.6c0 3.5 1.9 4.7 4.8 4.7a8.57 8.57 0 0 0 4.1-1v3.6a11.25 11.25 0 0 1-5.1 1.2c-4.5.1-8-2.2-8-7.9zm19.2-3.3v-17.6h4.2V215c0 5.3 2.9 8.6 7.9 8.6 4.8 0 8.5-3.6 8.5-8.9v-16.3h4.2v28.4h-4.2v-5a10.93 10.93 0 0 1-9.7 5.6c-6.9 0-10.9-4.6-10.9-11.4zm34.7 3.3v-17.2h-4v-3.7h4v-8.6h4.2v8.6h9v3.7h-9v16.6c0 3.5 1.9 4.7 4.8 4.7a8.57 8.57 0 0 0 4.1-1v3.6a11.25 11.25 0 0 1-5.1 1.2c-4.5.1-8-2.2-8-7.9zm17.1-6.6v-.1c0-8.2 5.8-14.8 13.6-14.8 8.4 0 13.3 6.7 13.3 15a6.6 6.6 0 0 1-.1 1.4h-22.5c.6 6.2 5 9.6 10 9.6a12 12 0 0 0 9-4l2.6 2.4a14.4 14.4 0 0 1-11.7 5.3c-7.9 0-14.2-6-14.2-14.8zm22.6-1.7c-.4-5.2-3.4-9.7-9.1-9.7-5 0-8.7 4.1-9.2 9.7z" class="cls-1"/></svg>