<svg xmlns="http://www.w3.org/2000/svg" role="img" viewBox="-7.88 -7.88 409.76 123.51"><title>Telefonica logo</title><style>svg {enable-background:new 0 0 394.2 107.9}</style><path fill="#003245" d="M115.6 47.9c-5.9 8.5-14.1 16.3-21.2 16.3-3 .1-4.3-1.6-4.3-5.1 0-2.1.5-5 .9-6.5 6.7-3.4 13.5-7.2 19.6-13.4 3.4-3.6 5.6-7.3 5.8-11 .1-3.5-2.2-5.4-6.6-5.4-6.4-.1-14.1 4.3-19.1 9.6-6.6 7.2-11.6 17.3-11.7 26.3-.1 6.4 3 11.4 11.2 11.1 8.8-.2 17.4-7 21.8-11.9-.5 2.1-.9 4.1-.9 5.7 0 5.7 2.8 9.7 8.4 11.4l1.1-.5c-.5-1.5-.6-3.1-.5-4.9.4-5.5 2.6-11.7 5.8-19.9 6.1-15.4 15.1-33.1 19-43.5L135.5 8c-1.5.3-2.4 1.4-2.9 2.5-4.5 9.6-9.2 19.8-14.9 33.2-.7 1.2-1.3 2.7-2.1 4.2zm-8.7-20.6c1.5 0 2 1 2 2.3 0 6-7.4 13.7-16.9 19.3 2.3-9.3 9-21.6 14.9-21.6zm159.9 35.9c0 4.3 2.7 6.9 7.9 6.8 5.3-.1 10.8-3.3 15.3-7.6.9 4.6 4.2 7.9 10.9 7.7 7-.3 13.8-4.7 18.5-9.8v1.5c0 4.7 2.4 8.3 7.8 8.3 5.8 0 12.5-4.4 17.8-11.9l.2.1c-.5 1.8-1.1 4.8-1.1 6.8-.1 5.7 3.3 9 8 9.9l1.1-.5c-1.7-4.1.7-14.4 1.7-17.8 3.5-11.2 9-24.1 12.2-30.7-1.5-1.2-4.9-2.1-8.5-2.3-12.1-.5-24.3 4.6-33.2 20.3-1.5 2.7-3.2 5.9-4.4 9.2-1.3 1.7-2.6 3.2-3.1 3.7-3.2 3.1-7.8 7.1-12.4 7.1-2.6.1-4.1-1.8-4-5.1.1-12.6 11.2-31.7 18.7-31.7 2.1 0 3 .9 3 2.7 0 2.1-1.4 5-3.5 6.8l.9.8c5.1-1.9 9.8-5.5 9.8-9.2 0-4.3-4.9-5.1-9.3-5-5.9.1-13.2 3-19.1 9.4-7.4 8-11.2 17.7-11.9 24.6-3.4 3.9-7.1 6.6-9.6 6.6-1.4.1-2.4-.7-2.4-2.2 0-1.3.7-4 2.1-7.5 3.2-8.1 8-18.2 13.7-30.2 0 0-8.8 1.5-10.1 1.9-1.3.3-2.4 1.2-3 2.4-3.8 8-8.2 17.2-11 24.1-1.9 4.3-3 8.4-3 10.8zm82.5-34.4c2.8-1.3 5.2-1.4 7.1-1-.7 1.6-4.1 8.4-6.8 14.5-4.2 9.6-10.4 19.4-16.3 20.7-2 .6-3.2-.3-3.1-2.3.2-8.4 9.6-27.4 19.1-31.9zM143 32.4c-6.6 7.2-11.6 17.3-11.8 26.3-.1 6.2 3.2 11.4 11.6 11.1 9-.2 17.2-5.5 24.3-12.9-1.8 4.8-3.3 8.9-4.2 11.1-2.6 6.6-4.6 11.9-8.6 15l.4.8c11.9.7 16.3-7.7 21.2-21.3s9-25.5 12.2-33.7c5.2 0 12.6.2 16.7-.7-10.8 4.8-19.9 22-18.8 33.3.5 5 3.5 8.5 9.8 8.5 12.4 0 22.8-14.6 26.7-24.3 2.3-5.5 3.8-10.2 4-15 3-.5 5.8-1 7.2-1.2 2.7-.4 2.2 2.6 1.3 4.9-5 14.1-13.8 34.6-13.8 34.9h9.7c4.2-8.7 6.8-14.3 10.1-20.2 4-7 13-18.4 16.6-18.5 1.3 0 1.6.8 1.3 2-.6 4.7-12.2 22.8-12 31.8.1 5.8 3.2 9.4 8.6 10.7l1.1-.6c-.7-1.3-.8-2.9-.8-4.7-.1-6 4.8-16.4 6.6-20.5 3-6.3 8.3-15.6 8-20.7-.2-2.5-2-4.7-6.3-4.7-7.9 0-15.7 7.6-22.3 17.9h-.2c2.6-6 4.7-11.5 4.6-14.2-.1-2.5-1.5-3.4-4.4-3.4-2.1.1-4.9.8-7.7 1.6-3.9 1-8 2.1-12.5 3-2.7.4-3.7.9-3.6 1.9.6 15.7-10.1 34.1-17.2 34.1-3.1 0-3.7-2.2-3.7-5.3 0-10.8 8.9-29 17.6-31.9.8-.2 1.5-.4 2-.5l1.1-2.9c-1.8.4-6.2.5-8.5.5h-19.1c5-12 12.1-19.8 22.5-20.3 6.4-.2 10.8 2.2 11.2 5.9.3 3.1-.6 5.7-3.1 8.3l.7.7c5.7-2.7 9.6-7.2 9.6-10.3.1-4.8-5.7-7.8-15-7.7-11.8.1-26.3 2.7-36.4 23.8-3 .5-5.8 1.6-8.1 4.1l.4.9c1.7-.6 3.6-.7 5.8-.7-1.4 3.4-4.2 10.9-7 18.6-8.5 11.3-17.1 16.7-23.4 16.7-3.4.1-4.8-1.8-4.8-5.1 0-2.1.5-5 .9-6.5 6.7-3.4 13.5-7.2 19.6-13.4 3.3-3.6 5.7-7.3 5.8-11 0-3.5-2.1-5.4-6.6-5.4-6.6-.5-14.3 3.8-19.3 9.2zm16.1-5.1c1.5 0 2.1 1 2.1 2.3-.1 6-7.4 13.7-17 19.3 2.4-9.3 9.1-21.6 14.9-21.6zm134.7-10.7c2.7 0 5.4-2.5 6-5.5.7-3-1.1-5.4-3.8-5.3-2.7 0-5.3 2.5-6 5.5-.6 3 1.1 5.4 3.8 5.3zm-96.7 86C99.3 102.6 0 103.8 0 105.2c0 1.4 99.4 2.7 197.1 2.7 97.8 0 197.1-1.3 197.1-2.7 0-1.4-99.3-2.6-197.1-2.6zM39.2 32.9l.6-.5c-.9-1.4-1.2-4-1.2-5.5.3-12.7 13.8-20 34.8-20H85c-6.8 3.9-12.4 9.2-16.8 19-1.9 4.2-10.8 27-14.4 37.2-4.5 12.2-7.4 17.7-11 19.7l.6 1.1c10.1.6 16.1-4.5 19.9-14 3.7-9 8.6-23.3 10.9-29.7 7.7-20.5 11.1-29.1 17.3-33.3h16.9c9.2-.2 13.2-2.5 16.1-6.1l-.7-.8c-2.3 1.3-7.3 1.5-11.6 1.5H70.7c-23.5 0-37.9 7.7-40.2 19.2-1.2 5.5 1.9 11.5 8.7 12.2z"/></svg>