<svg xmlns="http://www.w3.org/2000/svg" role="img" viewBox="-6.70 78.06 413.14 88.64"><title>Timesys Corporation logo</title><style>svg {enable-background:new 0 0 400 245}</style><style>.st0{fill:#80bc00}.st2{fill:#f18a00}</style><path d="M64.36 108.04h1.02v-5.58c0-1.49.04-2.67.12-3.52.08-.85.3-1.58.67-2.19.36-.63.88-1.15 1.56-1.55.68-.39 1.44-.59 2.28-.59 1.18 0 2.24.44 3.2 1.33.63.58 1.04 1.31 1.21 2.16.17.85.26 2.06.26 3.62v6.33h3.41c1.32 0 2.32.31 3.02.94.69.62 1.04 1.42 1.04 2.4 0 1.25-.49 2.13-1.48 2.63s-2.41.75-4.25.75h-1.74v17.12c0 1.46.05 2.58.15 3.36.1.78.38 1.42.82 1.91.44.49 1.17.73 2.16.73.55 0 1.29-.09 2.22-.29.93-.19 1.66-.29 2.18-.29.75 0 1.42.3 2.03.91.6.6.9 1.35.9 2.24 0 1.5-.82 2.66-2.46 3.45-1.63.8-3.99 1.2-7.06 1.2-2.91 0-5.11-.49-6.61-1.47s-2.48-2.33-2.94-4.06c-.47-1.73-.7-4.04-.7-6.93v-17.89h-1.23c-1.34 0-2.37-.32-3.07-.95-.7-.64-1.06-1.44-1.06-2.42s.37-1.78 1.11-2.4c.75-.64 1.82-.95 3.24-.95zm47.46 4.49v26.9c0 1.86-.44 3.27-1.33 4.22-.89.96-2 1.43-3.37 1.43-1.36 0-2.47-.49-3.32-1.46-.85-.98-1.28-2.38-1.28-4.19v-26.62c0-1.84.42-3.23 1.28-4.16.85-.93 1.96-1.4 3.32-1.4 1.36 0 2.48.46 3.37 1.4.89.93 1.33 2.23 1.33 3.88zm54.57 14.33v12.37c0 1.96-.44 3.42-1.33 4.4-.89.97-2.06 1.46-3.51 1.46-1.41 0-2.55-.49-3.42-1.46-.88-.98-1.31-2.44-1.31-4.4v-14.82c0-2.34-.08-4.15-.24-5.45-.16-1.3-.59-2.36-1.3-3.19-.71-.83-1.83-1.24-3.35-1.24-3.06 0-5.06 1.05-6.03 3.14-.97 2.09-1.46 5.09-1.46 9v12.57c0 1.93-.44 3.39-1.31 4.38-.87.99-2.03 1.48-3.46 1.48-1.41 0-2.56-.49-3.46-1.48-.9-.99-1.34-2.45-1.34-4.38v-26.63c0-1.75.4-3.08 1.21-3.99.8-.91 1.87-1.37 3.19-1.37 1.27 0 2.33.43 3.18 1.28.85.86 1.28 2.04 1.28 3.55v.89c1.61-1.94 3.34-3.37 5.18-4.28 1.84-.91 3.89-1.37 6.14-1.37 2.34 0 4.35.47 6.04 1.4 1.68.93 3.07 2.35 4.16 4.24 1.57-1.92 3.26-3.34 5.05-4.26 1.8-.92 3.79-1.39 5.98-1.39 2.55 0 4.75.5 6.59 1.51 1.84 1 3.22 2.44 4.13 4.31.8 1.68 1.2 4.33 1.2 7.94v18.16c0 1.96-.44 3.42-1.34 4.4-.89.97-2.06 1.46-3.52 1.46-1.42 0-2.58-.49-3.48-1.48-.9-.99-1.35-2.45-1.35-4.38v-15.64c0-2-.09-3.6-.26-4.8-.17-1.2-.63-2.22-1.38-3.04-.75-.81-1.89-1.23-3.41-1.23-1.23 0-2.39.37-3.5 1.09-1.1.73-1.96 1.71-2.57 2.93-.66 1.58-1 4.35-1 8.32zm70.85 1.61h-18.21c.02 2.11.45 3.98 1.28 5.59.83 1.62 1.94 2.83 3.31 3.65 1.37.82 2.89 1.23 4.55 1.23 1.11 0 2.13-.13 3.05-.39.92-.26 1.81-.67 2.67-1.23.87-.55 1.66-1.15 2.39-1.79.73-.64 1.67-1.5 2.83-2.59.48-.41 1.16-.61 2.04-.61.96 0 1.73.26 2.32.79.59.52.89 1.26.89 2.21 0 .84-.33 1.82-.99 2.94-.66 1.12-1.65 2.2-2.99 3.24-1.33 1.03-3 1.89-5.01 2.57-2.01.68-4.33 1.02-6.94 1.02-5.98 0-10.63-1.7-13.95-5.11-3.32-3.4-4.98-8.03-4.98-13.87 0-2.75.41-5.3 1.23-7.65.82-2.35 2.01-4.37 3.58-6.05 1.57-1.68 3.5-2.97 5.8-3.87 2.3-.89 4.84-1.35 7.64-1.35 3.64 0 6.76.77 9.36 2.3 2.6 1.53 4.55 3.52 5.85 5.95 1.3 2.43 1.95 4.91 1.95 7.43 0 2.34-.67 3.86-2.01 4.55-1.34.69-3.23 1.04-5.66 1.04zm-18.22-5.27h16.88c-.22-3.18-1.09-5.56-2.58-7.14s-3.45-2.37-5.88-2.37c-2.32 0-4.23.8-5.71 2.4-1.49 1.6-2.39 3.98-2.71 7.11z" class="st0"/><path fill="#003a5d" d="M296.75 132.91c0 2.57-.63 4.78-1.88 6.6-1.25 1.83-3.1 3.22-5.55 4.16-2.45.94-5.43 1.42-8.93 1.42-3.35 0-6.22-.51-8.61-1.53-2.39-1.03-4.16-2.3-5.29-3.84-1.14-1.53-1.71-3.08-1.71-4.62 0-1.02.36-1.9 1.09-2.63.73-.73 1.65-1.09 2.77-1.09.98 0 1.73.24 2.26.71.52.48 1.03 1.15 1.5 2.01.96 1.66 2.1 2.9 3.44 3.72 1.33.81 3.15 1.23 5.45 1.23 1.87 0 3.4-.42 4.6-1.24 1.2-.83 1.8-1.78 1.8-2.85 0-1.64-.62-2.83-1.87-3.57-1.24-.75-3.29-1.47-6.14-2.15-3.21-.79-5.83-1.63-7.85-2.5-2.02-.88-3.63-2.03-4.84-3.46-1.21-1.43-1.82-3.19-1.82-5.28 0-1.86.56-3.63 1.67-5.28 1.12-1.65 2.77-2.98 4.94-3.97 2.18-.99 4.8-1.48 7.88-1.48 2.41 0 4.58.25 6.51.75 1.93.5 3.53 1.17 4.82 2.01 1.29.84 2.27 1.77 2.94 2.8.67 1.02 1.01 2.02 1.01 3 0 1.07-.36 1.94-1.08 2.63-.72.68-1.73 1.03-3.05 1.03-.96 0-1.77-.27-2.44-.82-.67-.55-1.44-1.36-2.3-2.46-.71-.91-1.54-1.64-2.49-2.18-.96-.54-2.26-.82-3.9-.82-1.69 0-3.09.36-4.21 1.07-1.11.72-1.67 1.61-1.67 2.67 0 .98.41 1.78 1.23 2.41.82.62 1.93 1.14 3.32 1.55 1.39.41 3.3.9 5.74 1.49 2.89.71 5.25 1.55 7.08 2.52 1.83.98 3.22 2.13 4.16 3.46.94 1.31 1.42 2.83 1.42 4.53zm30.42 13.36l.86-2.08-11.46-28.86c-.71-1.66-1.06-2.86-1.06-3.61 0-.8.2-1.53.61-2.22.41-.69.97-1.23 1.69-1.64.72-.41 1.46-.61 2.23-.61 1.34 0 2.35.42 3.03 1.28.69.85 1.29 2.08 1.81 3.67l7.87 22.93 7.47-21.32c.59-1.73 1.12-3.08 1.6-4.06.48-.98.98-1.64 1.52-1.98.53-.34 1.29-.51 2.27-.51.7 0 1.38.19 2.03.56.65.37 1.15.88 1.5 1.52.35.63.53 1.31.53 2.01-.09.43-.24 1.04-.44 1.84-.21.8-.45 1.6-.75 2.42l-12.13 31.78c-1.05 2.8-2.07 4.99-3.07 6.58-.99 1.59-2.32 2.81-3.97 3.67-1.65.85-3.87 1.28-6.66 1.28-2.72 0-4.77-.29-6.13-.89-1.37-.59-2.05-1.66-2.05-3.24 0-1.07.32-1.89.97-2.47.65-.58 1.61-.87 2.88-.87.5 0 .99.07 1.46.21.59.14 1.1.2 1.53.2 1.07 0 1.91-.16 2.52-.48.61-.32 1.16-.87 1.65-1.66.49-.77 1.05-1.93 1.69-3.45zm71.46-13.36c0 2.57-.63 4.78-1.88 6.6-1.26 1.83-3.1 3.22-5.55 4.16-2.45.94-5.43 1.42-8.93 1.42-3.35 0-6.22-.51-8.61-1.53-2.39-1.03-4.15-2.3-5.29-3.84-1.14-1.53-1.71-3.08-1.71-4.62 0-1.02.36-1.9 1.09-2.63.73-.73 1.66-1.09 2.78-1.09.98 0 1.73.24 2.25.71.52.48 1.03 1.15 1.5 2.01.96 1.66 2.1 2.9 3.44 3.72 1.33.81 3.15 1.23 5.45 1.23 1.87 0 3.4-.42 4.6-1.24 1.2-.83 1.79-1.78 1.79-2.85 0-1.64-.62-2.83-1.86-3.57-1.24-.75-3.29-1.47-6.14-2.15-3.22-.79-5.83-1.63-7.85-2.5-2.02-.88-3.63-2.03-4.85-3.46-1.21-1.43-1.81-3.19-1.81-5.28 0-1.86.56-3.63 1.68-5.28 1.12-1.65 2.76-2.98 4.94-3.97 2.17-.99 4.8-1.48 7.87-1.48 2.42 0 4.59.25 6.51.75 1.93.5 3.53 1.17 4.82 2.01 1.29.84 2.27 1.77 2.94 2.8.68 1.02 1.01 2.02 1.01 3 0 1.07-.36 1.94-1.07 2.63-.72.68-1.74 1.03-3.06 1.03-.96 0-1.76-.27-2.44-.82-.67-.55-1.43-1.36-2.3-2.46-.71-.91-1.54-1.64-2.5-2.18-.96-.54-2.26-.82-3.9-.82-1.69 0-3.09.36-4.21 1.07-1.12.72-1.67 1.61-1.67 2.67 0 .98.41 1.78 1.23 2.41.82.62 1.93 1.14 3.32 1.55 1.39.41 3.3.9 5.74 1.49 2.89.71 5.25 1.55 7.08 2.52 1.83.98 3.22 2.13 4.16 3.46.96 1.31 1.43 2.83 1.43 4.53z"/><path d="M112.91 94.88c0 2.3-1.7 4.17-3.78 4.17h-4.2c-2.09 0-3.78-1.86-3.78-4.17v-4.63c0-2.3 1.69-4.17 3.78-4.17h4.2c2.09 0 3.78 1.87 3.78 4.17v4.63zm-2.11-3.81c0-1.48-1.09-2.67-2.43-2.67h-2.7c-1.34 0-2.43 1.2-2.43 2.67v2.98c0 1.48 1.09 2.68 2.43 2.68h2.7c1.34 0 2.43-1.2 2.43-2.68v-2.98z" class="st2"/><path d="M14.92 110.29c0 2.41-1.95 4.36-4.35 4.36H5.73c-2.41 0-4.36-1.95-4.36-4.36v-4.84c0-2.4 1.95-4.36 4.36-4.36h4.84c2.41 0 4.35 1.95 4.35 4.36v4.84zm-2.42-3.97c0-1.55-1.26-2.8-2.8-2.8H6.59c-1.55 0-2.8 1.25-2.8 2.8v3.11c0 1.55 1.26 2.8 2.8 2.8H9.7c1.54 0 2.8-1.26 2.8-2.8v-3.11zm17.85 3.97c0 2.41-1.95 4.36-4.36 4.36h-4.84c-2.41 0-4.35-1.95-4.35-4.36v-4.84c0-2.4 1.95-4.36 4.35-4.36h4.84c2.41 0 4.36 1.95 4.36 4.36v4.84zm-2.42-3.97c0-1.55-1.25-2.8-2.8-2.8h-3.11c-1.55 0-2.8 1.25-2.8 2.8v3.11c0 1.55 1.25 2.8 2.8 2.8h3.11c1.55 0 2.8-1.26 2.8-2.8v-3.11z" class="st2"/><path d="M14.92 125.53c0 2.41-1.95 4.35-4.35 4.35H5.73c-2.41 0-4.36-1.95-4.36-4.35v-4.84c0-2.4 1.95-4.36 4.36-4.36h4.84c2.41 0 4.35 1.95 4.35 4.36v4.84zm-2.42-3.98c0-1.55-1.26-2.8-2.8-2.8H6.59c-1.55 0-2.8 1.26-2.8 2.8v3.11c0 1.55 1.26 2.8 2.8 2.8H9.7c1.54 0 2.8-1.25 2.8-2.8v-3.11zm17.85 3.98c0 2.41-1.95 4.35-4.36 4.35h-4.84c-2.41 0-4.35-1.95-4.35-4.35v-4.84c0-2.4 1.95-4.36 4.35-4.36h4.84c2.41 0 4.36 1.95 4.36 4.36v4.84zm-2.42-3.98c0-1.55-1.25-2.8-2.8-2.8h-3.11c-1.55 0-2.8 1.26-2.8 2.8v3.11c0 1.55 1.25 2.8 2.8 2.8h3.11c1.55 0 2.8-1.25 2.8-2.8v-3.11z" class="st0"/><path d="M14.98 140.84c0 2.41-1.95 4.36-4.35 4.36H5.78c-2.41 0-4.36-1.95-4.36-4.36V136c0-2.41 1.95-4.36 4.36-4.36h4.84c2.4 0 4.35 1.95 4.35 4.36v4.84zm-2.42-3.97c0-1.55-1.25-2.8-2.8-2.8H6.64c-1.55 0-2.8 1.25-2.8 2.8v3.11c0 1.55 1.26 2.8 2.8 2.8h3.11c1.55 0 2.8-1.25 2.8-2.8v-3.11z" class="st2"/><path d="M30.41 140.84c0 2.41-1.95 4.36-4.36 4.36h-4.84c-2.4 0-4.36-1.95-4.36-4.36V136c0-2.41 1.96-4.36 4.36-4.36h4.84c2.41 0 4.36 1.95 4.36 4.36v4.84zm-2.42-3.97c0-1.55-1.25-2.8-2.8-2.8h-3.12c-1.54 0-2.8 1.25-2.8 2.8v3.11c0 1.55 1.26 2.8 2.8 2.8h3.12c1.55 0 2.8-1.25 2.8-2.8v-3.11zm17.76-11.34c0 2.41-1.95 4.35-4.36 4.35h-4.84c-2.41 0-4.36-1.95-4.36-4.35v-4.84c0-2.4 1.95-4.36 4.36-4.36h4.84c2.41 0 4.36 1.95 4.36 4.36v4.84zm-2.42-3.98c0-1.55-1.26-2.8-2.8-2.8h-3.11c-1.54 0-2.8 1.26-2.8 2.8v3.11c0 1.55 1.25 2.8 2.8 2.8h3.11c1.54 0 2.8-1.25 2.8-2.8v-3.11z" class="st0"/><path d="M45.81 140.84c0 2.41-1.95 4.36-4.36 4.36h-4.84c-2.41 0-4.35-1.95-4.35-4.36V136c0-2.41 1.95-4.36 4.35-4.36h4.84c2.41 0 4.36 1.95 4.36 4.36v4.84zm-2.42-3.97c0-1.55-1.25-2.8-2.8-2.8h-3.11c-1.55 0-2.8 1.25-2.8 2.8v3.11c0 1.55 1.25 2.8 2.8 2.8h3.11c1.55 0 2.8-1.25 2.8-2.8v-3.11z" class="st2"/></svg>