<svg xmlns="http://www.w3.org/2000/svg" role="img" viewBox="159.95 160.45 470.60 290.10"><title>Trail of Bits logo</title><style>svg {enable-background:new 0 0 792 612}</style><style>.st0{fill:#a7a9ac}</style><path d="M287.5 442l45.5-6.5c.7 0-.7 0 0 0l-36.7-20.2-8.8 26.7z" class="st0"/><path d="M472.6 380.3l-13.3 42.2 29.5-8.8 11.1-35.3zm46.5-150.8l10.4-33.3-22.6-14.7-12.6 40.5z" class="st0"/><path d="M398.6 193.2l21.7 6.5.4-30.1-38.2 7.7-5.2 9.5s15.3 4.7 21.3 6.4" class="st0"/><path d="M252.5 299.4l9.6-30.2-24.4-6.5c-2.6 8.3-9.3 28.4-12 36.7h26.8z" class="st0"/><path d="M207.3 254.9l-24.6-6.6-7 22.9 20.1 21.1z" class="st0"/><path d="M175.6 172.4l-6.6 20.8h30.8l-15.2 48.5 24.6 6.5 17.1-55 26.8-.1 6.5-20.8z"/><path d="M285.8 191.9h8.9c6.6 0 13.2 1.6 13.2 9.4 0 9.6-6.9 25.8-18.3 25.8H275l10.8-35.2zm-17 55c3-.2 6.1-.2 9.1-.2 5 0 12.5.3 12.5 7.3 0 4.8-1.8 10.9-3.2 15.5-2.7 9.4-5.9 18.9-6.4 28.5h27.6c-.7-15.5 8.9-29 8.9-44.3 0-10.3-7.8-14.4-16.9-16l2.7-.4c19.8-2.7 30.8-18.2 30.8-37.6 0-21.6-18-27.6-36.4-27.6h-31.7c-9 28-17.6 56.1-26.3 84.2l24.4 6.5 4.9-15.9z"/><path d="M393.3 251.4h-25.8c9.2-17.5 18.1-35 26-53.1l-18.4-5.6-59.4 105.5h27.8l14.2-26.9h34l-1 27.1h26.7l2.1-92.1-23-7c-2 17.3-3.2 34.8-3.2 52.1"/><path d="M469.9 298.2l62.7-.1 6.8-20.5-35.8.1 13.2-41.9-24.8-7.5z"/><path d="M350.2 358h-10l10.5-32.6c7.8.4 22.6-2.1 22.6 10 .3 14.3-8.8 22.6-23.1 22.6m2.2 47c-5 7.5-10.3 8-18.7 8h-10.9l11.9-37c8.7.3 24.2-1.8 24.2 11 0 5.8-3.3 13.4-6.5 18m45.9-73.9c0-19.1-14.8-24.9-31.5-24.9h-35.1l-32.9 103 41.9 22.8c25.1-1 42.7-19.5 42.7-45 0-9.8-6.1-17.5-15.5-20.1 18.5-4.2 30.4-16.2 30.4-35.8"/><path d="M451.7 216.2l-26.6 89-23.5 72.2 28.2-2.2 20.4-64.2 27.5-87c-3.8-1.1-19-6-26-7.8"/><path d="M515.7 327.2h26.7l6.6-20.8h-84.1l-6.6 20.8h30.9l-14.5 46.3 26.9-1.8z"/><g><path d="M617.9 346.1c1.6-3.7 4.1-12.3 4.1-16.2 0-19.4-18.9-24.7-34.9-24.7-27.6 0-44 19.2-44 45.9 0 3.9 3.5 13.5 10.6 16.6l33.2-2.2c-5.6-4.8-15.6-16-15.6-22 0-8.2 4.6-18.9 14-18.9 6.4 0 10.3 1.8 10.3 8.7 0 4.5-2.1 8.6-3.4 12.8h25.7z"/><path d="M574.6 396c1.3 10.4-10 22.5-20.8 22.5-6.1 0-9.1-4.8-9.1-10.3.2-4.1 1.6-9.4 3.7-13H521c-2.1 5.5-3.9 11.8-3.9 17.6 0 20.1 17.6 25.3 34.4 25.3 17.4 0 31.9-3.4 41-19.6 4.1-7.3 8.7-17.8 8.4-26.4-.4-10.6-3.3-14.1-9.5-20.6l-32.3 2.2c8.9 5.7 14.4 12.8 15.5 22.3" class="st0"/><path d="M286.3 316.1c0 1.6-1.8 6.8-2.4 8.6l-2.8 8.7c-1.1 3.3-2.4 7-6.6 7-2.3 0-3.9-1.4-3.9-3.8 0-3.2 2.5-9.1 3.5-12.3 1-3.3 2.4-9.8 6-11 .8-.3 1.7-.4 2.6-.4 1.7-.1 3.6 1.4 3.6 3.2zm-3.5-9.2c-12.6 0-14.4 9.3-17.5 19.1-1 3.5-3 7.9-3 11.6 0 7.2 6.3 8.5 12.2 8.5 7.2 0 11-2.4 13.6-9.1 1.7-4.6 6.3-17.4 6.3-21.8 0-6.3-6.4-8.3-11.6-8.3"/></g><path d="M320.1 313.4l2.1-6.3h-19.9l-12 38.6h8.4l5.2-16.6h10.8l1.9-6.3h-10.9l3-9.4z"/></svg>