<svg xmlns="http://www.w3.org/2000/svg" role="img" viewBox="107.18 34.68 286.14 484.64"><title>Trivy logo</title><path d="M186.351 471.553v8.229c-5.606 0-10.656-2.019-14.639-5.363-5.005-4.199-8.182-10.502-8.182-17.544v-41.21h8.182v18.699h14.639v8.282h-14.639v14.43c.112 8.013 6.604 14.477 14.639 14.477zm29.182-37.19v8.175c-7.762.016-14.08 6.172-14.361 13.86v23.384h-8.202v-45.419h8.202v5.185c3.897-3.235 8.902-5.177 14.361-5.185zm5.27-10.531v-8.191h8.186v8.191h-8.186zm0 55.95v-45.419h8.186v45.419h-8.186zm58.388-45.419l-22.694 45.419-22.716-45.419h9.3l13.417 26.82 13.39-26.82h9.303zm49.095 0v52.938c0 12.682-10.402 22.805-22.725 22.798-5.771 0-11.118-2.188-15.178-5.824l5.887-5.887c2.512 2.126 5.751 3.42 9.291 3.413 7.975 0 14.431-6.519 14.431-14.5v-12.689c-3.956 3.275-9.006 5.17-14.431 5.17-12.346.007-22.743-9.954-22.743-22.728v-22.69h8.291s.004 22.082.004 22.69c0 7.944 6.468 14.508 14.45 14.5 7.975 0 14.431-6.526 14.431-14.5v-22.691h8.292z" fill="#07242D"/><path fill="#FFF" d="M250.554 44.159l-133.678 77.237.001 155.714 133.66 77.852 133.692-77.808V121.392z"/><path fill="#1904DA" d="M246.902 255.524v-32.282c-14.609-6.898-23.783-21.236-23.594-36.882l-30.086-17.374c-1.892 17.15 2.057 34.896 11.198 50.171 10.087 16.852 24.373 29.08 42.482 36.367z"/><path fill="#1904DA" d="M246.902 299.761v-37.468c-20.381-7.638-36.445-21.086-47.752-39.981-10.325-17.249-14.466-37.337-11.695-56.657l-27.931-16.129c-16.042 61.826 21.227 125.916 87.378 150.235z"/><path fill="#08B1D5" d="M253.779 261.938v37.797c64.918-24.892 103.171-90.209 87.852-149.994l-27.747 16.165c3.578 20.856.191 40.77-9.818 57.644-10.02 16.896-27.396 30.157-50.287 38.388z"/><path fill="#08B1D5" d="M253.779 223.185v32.371c20.424-7.774 35.964-19.9 45.004-35.138 8.877-14.969 12.116-32.637 9.411-51.205l-30.06 17.33c-.149 14.852-8.978 28.142-24.355 36.642z"/><path fill="#FFC900" d="M282.1 131.138c12.628 6.157 22.948 15.961 29.885 28.378l27.012-15.598c-.182-.255-.351-.51-.509-.764-10.628-17.188-24.658-30.12-41.707-38.435-47.439-23.13-106.339-5.896-134.71 39.2l27.117 15.654c20.308-31.555 60.881-44.055 92.912-28.435z"/><path fill="#FFC900" d="M251.284 165.445c4.256 0 8.519.931 12.516 2.881h.002c5.253 2.564 9.549 6.643 12.458 11.821l30.404-17.558c-6.323-11.352-15.738-20.312-27.257-25.93-29.172-14.223-66.203-2.802-84.893 25.99l30.251 17.46c6.291-9.374 16.376-14.664 26.519-14.664z"/><path fill="#08B1D5" d="M253.779 347.086l125.184-72.957V127.993l-31.828 18.542c17.491 64.215-23.319 134.084-93.356 159.757v40.794z"/><path fill="#1904DA" d="M154.014 146.345l-31.873-18.406V274.09l124.761 72.993v-40.779c-70.179-24.705-110.793-94.661-92.888-159.959z"/><path fill="#FFC900" d="M299.471 99.198c18.111 8.832 32.995 22.533 44.241 40.722.179.289.397.592.636.908l31.536-18.21-125.33-72.378-125.358 72.395 31.548 18.211c29.978-47.866 92.425-66.179 142.727-41.648z"/><path fill="#FF0036" d="M271.797 187.57c.002-.035.052-1.226-.036-3.143-.251-.783-3.208-6.558-10.592-10.586-5.045-2.751-11.518-3.068-17.769-.874-6.124 2.152-11.322 6.434-14.303 11.769-.036.464-.105 1.563-.052 2.832.404 9.974 6.573 23.534 19.156 29.736l1.938.925 1.682-.899c12.225-6.843 19.507-17.689 19.976-29.76z"/><g fill="#07242D"><path d="M186.846 398.474H175.2c-6.421 0-11.646-5.224-11.646-11.646 0-6.422 5.224-11.646 11.646-11.646s11.646 5.224 11.646 11.646v11.646zM175.2 379.912c-3.814 0-6.916 3.103-6.916 6.916 0 3.814 3.103 6.916 6.916 6.916h6.916v-6.916c.001-3.813-3.102-6.916-6.916-6.916zm89.791 18.562h-11.646c-6.421 0-11.646-5.224-11.646-11.646 0-6.422 5.224-11.646 11.646-11.646 6.421 0 11.646 5.224 11.646 11.646v11.646zm-11.646-18.562c-3.814 0-6.916 3.103-6.916 6.916 0 3.814 3.103 6.916 6.916 6.916h6.916v-6.916c0-3.813-3.102-6.916-6.916-6.916zm-26.05 18.567c-6.424 0-11.651-5.226-11.651-11.651V375.9h4.731v10.928c0 3.815 3.104 6.919 6.919 6.919 3.815 0 6.919-3.104 6.919-6.919V375.9h4.731v10.928c.002 6.425-5.225 11.651-11.649 11.651zm-26.05-23.296c-6.421 0-11.645 5.224-11.645 11.646 0 6.421 5.224 11.646 11.645 11.646l4.729-4.729h-4.729c-3.814 0-6.916-3.103-6.916-6.916 0-3.814 3.103-6.916 6.916-6.916 3.814 0 6.916 3.103 6.916 6.916v22.76h4.729v-22.76c.001-6.423-5.224-11.647-11.645-11.647z"/></g></svg>