<svg xmlns="http://www.w3.org/2000/svg" role="img" viewBox="-7.22 45.03 414.44 154.44"><title>Uber Technologies Inc. logo</title><style>svg {enable-background:new 0 0 400 245}</style><path fill="#040404" d="M23.6 152.1c1.7 4.5 4 8.3 7 11.5 3 3.2 6.5 5.6 10.6 7.3 4.1 1.7 8.5 2.5 13.3 2.5 4.7 0 9-.9 13.1-2.6s7.6-4.2 10.7-7.4c3-3.2 5.4-7 7.1-11.4 1.7-4.4 2.5-9.3 2.5-14.8v-84h20.4v136H88.2v-12.6c-4.5 4.8-9.9 8.5-16 11.1-6.2 2.6-12.8 3.9-19.9 3.9-7.3 0-14-1.3-20.3-3.8-6.3-2.5-11.7-6.1-16.3-10.8s-8.2-10.3-10.9-16.8c-2.7-6.5-4-13.8-4-21.9v-85h20.4v84c-.1 5.4.7 10.4 2.4 14.8zm119.9-98.8v49.6c4.5-4.5 9.8-8.1 15.7-10.8s12.4-4 19.4-4c7.3 0 14.1 1.4 20.4 4.1 6.3 2.7 11.9 6.4 16.5 11.1 4.7 4.7 8.4 10.2 11.1 16.5 2.7 6.3 4.1 13.1 4.1 20.2s-1.4 13.8-4.1 20.1c-2.7 6.3-6.4 11.8-11.1 16.4-4.7 4.7-10.2 8.4-16.5 11.1-6.3 2.7-13.2 4.1-20.4 4.1-7 0-13.5-1.3-19.5-4s-11.3-6.3-15.8-10.8v12.4h-19.4v-136h19.6zm2.3 100.1c1.7 4.1 4.2 7.8 7.3 10.9s6.7 5.6 10.9 7.4c4.1 1.8 8.6 2.7 13.4 2.7 4.7 0 9.1-.9 13.2-2.7 4.1-1.8 7.7-4.3 10.8-7.4 3-3.1 5.5-6.7 7.3-10.9 1.8-4.1 2.7-8.6 2.7-13.4s-.9-9.3-2.7-13.5-4.2-7.9-7.3-11c-3-3.1-6.6-5.5-10.8-7.3-4.1-1.7-8.6-2.6-13.2-2.6-4.7 0-9.1.9-13.2 2.6-4.1 1.7-7.8 4.2-10.9 7.3-3.1 3.1-5.6 6.8-7.4 11-1.8 4.2-2.7 8.7-2.7 13.5 0 4.8.8 9.3 2.6 13.4zm96.1-33.4c2.6-6.2 6.2-11.7 10.7-16.4 4.5-4.7 9.9-8.5 16.1-11.2 6.2-2.7 13-4.1 20.2-4.1 7.1 0 13.7 1.3 19.8 3.9 6.1 2.6 11.3 6.2 15.7 10.8 4.4 4.6 7.8 10 10.3 16.3 2.5 6.3 3.7 13.1 3.7 20.5v6.4h-80.7c.6 4 1.9 7.7 3.9 11.2 1.9 3.4 4.4 6.4 7.3 8.9 2.9 2.5 6.2 4.5 9.9 5.9 3.7 1.4 7.6 2.1 11.8 2.1 11.8 0 21.3-4.9 28.6-14.6l14.2 10.5c-4.9 6.6-11 11.8-18.3 15.5-7.3 3.8-15.4 5.6-24.5 5.6-7.4 0-14.3-1.3-20.7-3.9s-12-6.2-16.7-10.9c-4.7-4.7-8.5-10.1-11.2-16.4-2.7-6.3-4.1-13.1-4.1-20.5.1-6.8 1.4-13.4 4-19.6zm27.3-7.7c-5.5 4.6-9.2 10.7-11 18.4h60.4c-1.7-7.6-5.3-13.8-10.8-18.4-5.5-4.6-12-6.9-19.3-6.9-7.4 0-13.8 2.3-19.3 6.9zm106 2.2c-4.1 4.5-6.2 10.7-6.2 18.5v56.4h-19.6V90.2h19.4v12.2c2.5-4 5.7-7.2 9.6-9.5 4-2.3 8.6-3.5 14.1-3.5h6.8v18.3h-8.2c-6.4 0-11.7 2.3-15.9 6.8z"/></svg>