<svg xmlns="http://www.w3.org/2000/svg" role="img" viewBox="-8.25 -8.00 416.00 135.25"><title>urllib3 logo</title><path d="M23.05 31v51.88q0 7.35 1.73 11.05 3.06 6.55 12 6.56 11.48 0 15.71-9.32 2.2-5.06 2.2-13.34V31h22.82v86H55.65v-12.09c-.21.26-.74 1-1.57 2.36a15.9 15.9 0 0 1-3 3.48 31.44 31.44 0 0 1-10.2 6.47A34.57 34.57 0 0 1 29.36 119q-19 0-25.66-13.74Q0 97.65 0 82.88V31zm117.39-2c.29 0 .93.07 1.93.12v23.06c-1.42-.16-2.68-.27-3.79-.32s-2-.08-2.68-.08q-13.58 0-18.23 8.84-2.61 5-2.61 15.32v41.12H92.41V31h21.47v15q5.2-8.61 9.08-11.76 6.3-5.24 16.41-5.24z"/><path fill="#e32400" d="M177.56 86h-22.81V0h22.81zm-22.81 10.3h22.81v20.76h-22.81z"/><path fill="#ff9300" d="M210.13 86h-22.82V0h22.82zm-22.82 10.3h22.82v20.76h-22.82z"/><path fill="#4f7a28" d="M242.69 20.76h-22.81V0h22.81zM219.88 31h22.81v86h-22.81z"/><path d="M333.45 41.36q9.66 12.24 9.66 31.58 0 20-9.53 33.23T307 119.35q-10.71 0-17.21-4.26-3.89-2.53-8.41-8.84v10.81H259.2V.87h22.49v41.36a32.94 32.94 0 0 1 9.46-9.16q6.11-3.94 15.57-3.94 17.07 0 26.73 12.23zm-18.8 52.41q4.86-7 4.85-18.47 0-9.15-2.38-15.15-4.55-11.37-16.72-11.37-12.33 0-16.95 11.13-2.38 5.93-2.39 15.32 0 11 4.94 18.31t15 7.26a15.6 15.6 0 0 0 13.65-7.03zM363 49.73q.31 5.06 1.74 7.42 2.59 4.34 9.47 4.34a11.79 11.79 0 0 0 5.6-1.42q5.06-2.68 5-9.24t-5-8.6q-3.07-1.33-11.6-1.66V31q7-.15 9.87-1.34 5-2.13 5-8.21a7.91 7.91 0 0 0-2.81-6.45 10.56 10.56 0 0 0-6.87-2.25 8.91 8.91 0 0 0-7.3 3.12 12.32 12.32 0 0 0-2.57 8.09H350a20.75 20.75 0 0 1 7.42-17.37q5.96-4.78 16.58-4.77 10.89 0 17.33 5.17a16.55 16.55 0 0 1 6.43 13.53 14.06 14.06 0 0 1-2.42 8.48 17.71 17.71 0 0 1-6.55 5.41 13 13 0 0 1 7.78 4.34Q400 42.47 400 50.2q0 10.59-7.3 16.38a27.25 27.25 0 0 1-17.49 5.8q-12.07 0-19.37-5.32t-7.31-17.33z"/></svg>