<svg xmlns="http://www.w3.org/2000/svg" role="img" viewBox="-44.78 -44.78 1288.56 1288.56"><title>VicOne Inc. logo</title><path fill="#1A212B" d="M-20-20h1240v1240H-20z"/><path d="M353.94 897.435c-5.371-11.327-10.664-23.083-15.886-35.269-5.225-12.182-10.184-24.235-14.883-36.162-4.701-11.924-9.019-23.339-12.96-34.243-3.941-10.905-7.347-20.636-10.212-29.197h33.475c2.524 7.809 5.331 16.217 8.42 25.219 3.09 9.004 6.241 17.978 9.446 26.918 3.205 8.944 6.276 17.51 9.214 25.703 2.938 8.192 5.751 15.265 8.439 21.222 2.533-5.918 5.304-12.973 8.308-21.165 3.005-8.19 6.113-16.756 9.318-25.699 3.205-8.941 6.349-17.913 9.439-26.918 3.09-9.001 5.903-17.427 8.439-25.28h32.322c-3.023 8.603-6.498 18.346-10.43 29.227-3.932 10.883-8.231 22.293-12.903 34.228-4.67 11.939-9.597 24.005-14.784 36.203-5.189 12.196-10.458 23.934-15.804 35.213H353.94zm117.517 0h-28.999V795.066h28.999v102.369zm12.647-51.185c0-7.395 1.198-14.368 3.601-20.921 2.399-6.55 5.869-12.262 10.412-17.127 4.539-4.865 10.053-8.724 16.542-11.58 6.487-2.852 13.882-4.281 22.187-4.281 5.45 0 10.443.486 14.986 1.46 4.54.972 8.953 2.369 13.234 4.183l-6.033 23.16c-2.725-1.037-5.711-1.946-8.953-2.725-3.244-.778-6.878-1.167-10.898-1.167-8.564 0-14.956 2.661-19.17 7.978-4.218 5.322-6.325 12.329-6.325 21.019 0 9.214 1.977 16.348 5.936 21.409 3.956 5.061 10.865 7.589 20.726 7.589 3.503 0 7.265-.322 11.288-.972 4.02-.648 7.717-1.685 11.093-3.114l4.086 23.743c-3.375 1.429-7.589 2.658-12.65 3.698-5.061 1.036-10.64 1.556-16.737 1.556-9.342 0-17.388-1.395-24.133-4.183-6.747-2.789-12.294-6.584-16.639-11.385-4.349-4.799-7.526-10.477-9.537-17.029-2.012-6.549-3.016-13.653-3.016-21.311zm217.39-16.348c0 11.549-1.688 21.734-5.061 30.555-3.375 8.825-7.948 16.187-13.72 22.089-5.775 5.906-12.489 10.349-20.143 13.332-7.657 2.983-15.764 4.476-24.327 4.476s-16.673-1.493-24.327-4.476c-7.657-2.983-14.371-7.426-20.143-13.332-5.775-5.902-10.348-13.264-13.72-22.089-3.376-8.822-5.061-19.006-5.061-30.555 0-11.545 1.685-21.701 5.061-30.457 3.372-8.759 7.945-16.087 13.72-21.993 5.772-5.902 12.486-10.345 20.143-13.331 7.654-2.984 15.764-4.476 24.327-4.476s16.67 1.492 24.327 4.476c7.654 2.986 14.368 7.429 20.143 13.331 5.772 5.906 10.345 13.234 13.72 21.993 3.373 8.757 5.061 18.912 5.061 30.457zm-14.012 0c0-9.081-1.168-17.223-3.503-24.424-2.336-7.201-5.645-13.331-9.926-18.392-4.281-5.061-9.439-8.92-15.473-11.581-6.033-2.657-12.814-3.989-20.337-3.989-7.526 0-14.304 1.332-20.338 3.989-6.033 2.661-11.19 6.52-15.472 11.581s-7.59 11.19-9.926 18.392c-2.335 7.201-3.503 15.344-3.503 24.424 0 9.083 1.168 17.223 3.503 24.425 2.336 7.2 5.645 13.331 9.926 18.392 4.281 5.06 9.439 8.952 15.472 11.677 6.034 2.725 12.812 4.086 20.338 4.086 7.523 0 14.304-1.361 20.337-4.086 6.034-2.725 11.191-6.617 15.473-11.677 4.281-5.061 7.59-11.191 9.926-18.392 2.334-7.201 3.503-15.342 3.503-24.425zm31.817-29.582c3.762-1.037 8.822-2.205 15.181-3.503 6.356-1.295 14.14-1.946 23.354-1.946 7.654 0 14.043 1.103 19.17 3.308 5.125 2.208 9.212 5.353 12.262 9.439 3.047 4.087 5.221 8.986 6.519 14.693 1.296 5.712 1.947 12.003 1.947 18.878v56.245h-12.65v-52.158c0-7.134-.487-13.167-1.46-18.099-.972-4.93-2.597-8.953-4.865-12.066-2.271-3.115-5.255-5.353-8.952-6.714-3.698-1.362-8.339-2.045-13.915-2.045-5.97 0-11.127.326-15.473.973-4.348.651-7.17 1.235-8.466 1.752v88.357H719.3V800.32zm96.236 46.71c0-8.823 1.264-16.509 3.794-23.063 2.531-6.55 5.839-12.033 9.926-16.445 4.087-4.409 8.758-7.688 14.012-9.829 5.255-2.141 10.671-3.211 16.251-3.211 12.325 0 22.154 4.023 29.485 12.067 7.328 8.046 10.996 20.435 10.996 37.172 0 1.04-.034 2.077-.098 3.114-.067 1.039-.164 2.014-.292 2.92h-70.646c.389 12.328 3.436 21.797 9.148 28.414 5.708 6.617 14.791 9.926 27.246 9.926 6.875 0 12.325-.648 16.348-1.947 4.02-1.295 6.939-2.399 8.758-3.309l2.336 10.899c-1.819 1.04-5.225 2.271-10.218 3.697-4.995 1.426-10.867 2.141-17.612 2.141-8.825 0-16.348-1.298-22.576-3.891-6.228-2.595-11.355-6.228-15.375-10.899-4.023-4.671-6.943-10.217-8.759-16.64-1.818-6.424-2.724-13.46-2.724-21.116zm71.425-7.981c-.261-10.509-2.725-18.684-7.395-24.521-4.671-5.839-11.288-8.759-19.851-8.759-4.543 0-8.597.91-12.164 2.725-3.57 1.819-6.684 4.251-9.342 7.298-2.661 3.051-4.738 6.587-6.228 10.607-1.493 4.023-2.369 8.24-2.628 12.65h57.608z" fill="#FFF"/><linearGradient id="a" x1="675.116" x2="675.116" y1="379.645" y2="652.309" gradientUnits="userSpaceOnUse"><stop offset="0" stop-color="#ff0037"/><stop offset="1" stop-color="#9e1f63"/></linearGradient><path fill="url(#a)" d="M650 379.645v161.603c0 11.677-5.103 22.771-13.968 30.37L600 599.643l80.916 62.936 22.148-16.913c29.727-22.702 47.169-57.967 47.169-95.371v-170.65H650z"/><linearGradient id="b" x1="565.342" x2="565.342" y1="722.607" y2="387.591" gradientUnits="userSpaceOnUse"><stop offset="0" stop-color="#ff0037"/><stop offset="1" stop-color="#9e1f63"/></linearGradient><path fill="url(#b)" d="M563.968 571.618c-8.866-7.599-13.968-18.693-13.968-30.37V419.645h-50v-40h-50.233v170.65c0 37.404 17.442 72.669 47.169 95.371l22.148 16.913L600 724.372l80.916-61.792L600 599.643l-36.032-28.025z"/><path fill="#9E1F63" d="M520 339.645h40v40h-40zm60-20h20v20h-20zm-30-20h10v10h-10z"/></svg>