<svg xmlns="http://www.w3.org/2000/svg" role="img" viewBox="-5.24 -5.24 272.74 220.49"><title>Wingtecher Technology Co., Ltd. logo</title><path fill="#2b2b2b" d="M43.637 179.785c-1.7058 0-2.55826-.64022-2.55826-1.91978 0-1.27957.85246-1.91891 2.55826-1.91891l2.1329.05219c.81767 0 1.34132-.00783 1.5727-.0261.23052-.01826.43493-.10699.61325-.26617.17746-.16006.26618-.4706.26618-.93336v-40.94692c0-1.7058.62195-2.55913 1.86672-2.55913 1.2439 0 1.86585.85333 1.86585 2.55913v9.17093c0 .67501.1244 1.33263.37317 1.97284 1.03079 2.41734 2.38168 5.04693 4.0518 7.8905.10613.14266.23052.15919.37318.05306 4.01614-3.80302 6.91278-6.9841 8.69077-9.54323.99512-1.42135 2.00764-1.72406 3.0393-.9064 1.0299.81768.97771 1.86586-.16006 3.14542-3.19935 3.6969-6.45088 6.9841-9.75722 9.86334-.17832.14266-.19572.30184-.05306.48017 4.83294 7.00237 9.4371 11.53434 13.80902 13.59504 1.56314.7472 2.0433 1.72493 1.43962 2.93317-.60455 1.20823-1.671 1.40395-3.19934.58541-2.77225-1.4918-5.98986-4.31798-9.65023-8.47678-3.44726-3.94569-6.39782-8.40546-8.84996-13.3828-.07132-.14179-.10699-.12352-.10699.05393v23.51232c0 1.20823-.16005 2.13202-.4793 2.77224-.3201.64022-.66717 1.04818-1.04034 1.2265-.37317.17745-.96903.42623-1.78583.74634-.39143.17745-2.06156.26705-5.01213.26705m-13.22187-6.6118c-1.42222.96032-2.48867.90639-3.19935-.15919-.71154-1.06732-.33837-2.06157 1.11951-2.98623 1.8128-1.17257 3.99875-3.71343 6.55788-7.62345 2.66612-4.05355 4.60243-8.63771 5.81153-13.75684.0348-.17658-.03566-.26618-.21311-.26618h-10.5027c-1.70666 0-2.56-.58628-2.56-1.75972 0-1.17257.85334-1.75886 2.56-1.75886l11.14204-.16005c1.06732 0 1.99024.14265 2.77312.42623.74634.3201.97685 1.26216.69328 2.82617-.996 5.11826-2.96884 10.20172-5.91853 15.24865-2.80878 4.76335-5.56363 8.08622-8.26367 9.96946M104.951 179.731c-1.24477 0-1.86672-.85246-1.86672-2.55913V151.8459c0-.17745-.03566-.19398-.10612-.0522-2.52434 4.54937-5.56276 8.7795-9.117 12.68865-3.66125 4.01702-6.7362 6.78926-9.224 8.3176-1.49181.85334-2.55913.72895-3.19848-.37316-.64021-1.10125-.19571-2.06157 1.33263-2.87924 2.27381-1.2439 5.36704-4.01614 9.27706-8.3176 3.76736-4.1588 6.85971-8.54812 9.27705-13.16881.07046-.14179.01827-.21312-.16005-.21312H84.63716c-1.7058 0-2.55913-.58628-2.55913-1.75973 0-1.17257.85333-1.75885 2.55913-1.75885h18.18094c.17745 0 .26618-.08873.26618-.26705v-10.29044c0-1.7058.62195-2.55826 1.86672-2.55826 1.20824 0 1.81279.85246 1.81279 2.55826v10.29044c0 .17832.08872.26705.26705.26705h18.39318c1.70667 0 2.56.58628 2.56 1.75885 0 1.17345-.85333 1.75973-2.56 1.75973h-16.79438c-.17832 0-.23138.07133-.16006.21312 2.41647 4.47804 5.58016 8.83256 9.49018 13.06181 3.91002 4.231 6.94844 6.95019 9.11787 8.15755 1.52747.85333 1.95457 1.84845 1.2787 2.98623-.71068 1.13778-1.79453 1.26217-3.25154.37317-2.34602-1.49268-5.34964-4.2658-9.01001-8.3176-3.55512-3.94482-6.6118-8.13841-9.17094-12.58252-.10612-.1418-.16005-.12353-.16005.05393v25.37816c0 1.70667-.60455 2.55913-1.81279 2.55913m65.953-26.871c-.99599.67501-1.97284.30271-2.9323-1.11951-.99599-1.45702-2.59479-3.34113-4.79902-5.65148-1.17257-1.20824-1.36829-2.18683-.58628-2.9323.7472-.7472 1.72406-.51496 2.93317.69328 2.8427 2.91403 4.61982 4.86948 5.3305 5.8646.99512 1.38655 1.01426 2.43473.05393 3.14541m.107 26.49768c-1.74234 0-2.5948-.62195-2.55914-1.86585.0348-1.20824.9064-1.778 2.6122-1.70667 1.67013.07133 3.48291.05393 5.43836-.0522.49756-.03653.84376-.15135 1.03948-.34707.19485-.19484.29314-.54192.29314-1.03948v-14.5023c0-.17746-.07132-.21312-.21311-.107l-14.28832 8.21148c-1.49355.85246-2.52434.7646-3.09322-.26705-.60456-1.06644-.1418-2.00763 1.38655-2.8253l15.67488-8.47766c.3549-.17745.53322-.46102.53322-.85333V137.5583c0-.17745-.0896-.26617-.26617-.26617h-14.5023c-1.70667 0-2.55914-.5689-2.55914-1.70667 0-1.10124.85247-1.65273 2.55913-1.65273h15.78187c1.7058 0 2.55913.85333 2.55913 2.55912v37.85457c0 1.31523-.17832 2.29208-.53322 2.9323-.35578.64022-.96903 1.11081-1.83889 1.41265-.8716.30184-1.73363.4706-2.58696.50626a33.29008 33.29008 0 0 1-2.66525.107zm-23.77937-26.07145c-.95946.64022-1.90151.24878-2.82618-1.17257-.95858-1.42135-2.52346-3.28807-4.69115-5.59842-1.17344-1.2439-1.36916-2.23902-.58629-2.98623.74547-.7098 1.7058-.46102 2.87837.74721 2.63046 2.66525 4.37279 4.6381 5.22525 5.91853.99512 1.38482.99512 2.41734 0 3.09148m.53322 26.01838c-1.7058 0-2.55912-.60455-2.55912-1.81278.03479-1.20824.90639-1.778 2.61219-1.70667 1.42135.07133 2.98622.05393 4.69202-.0522.49756-.03653.84376-.14178 1.03948-.3201.19485-.17745.29402-.51496.29402-1.01339v-13.38192c0-.17745-.0722-.23139-.21312-.16093l-14.39618 8.05143c-1.49268.85333-2.52434.7646-3.09236-.26618-.53322-.99512-.05306-1.90151 1.43962-2.71918l15.72794-8.37067c.35577-.17832.5341-.4619.5341-.85333v-19.1404c0-.17745-.0896-.26617-.26705-.26617h-14.12914c-1.7058 0-2.55826-.5689-2.55826-1.70667 0-1.10124.85247-1.65273 2.55826-1.65273h15.30258c1.7058 0 2.55826.85333 2.55826 2.55912v37.90763c0 1.24477-.16875 2.18596-.50626 2.82618-.33838.63935-.71937 1.03948-1.1456 1.19954-.42798.15918-1.04906.381-1.86673.6663-.42623.14093-2.4356.21312-6.02465.21312m78.21515.31939c-1.17257 0-1.75886-.85246-1.75886-2.55826v-24.20646c0-.17745-.03566-.17745-.10699 0-1.38569 3.7317-3.05756 7.25115-5.01126 10.55662-1.99111 3.44812-3.3594 5.54536-4.10574 6.2917-1.2091 1.20823-2.23902 1.36829-3.09235.47929-.889-.88726-.71155-1.93631.53322-3.14541 1.45702-1.42136 3.34026-4.1936 5.65148-8.31674 2.31035-4.124 4.0518-8.28193 5.22525-12.4764.0348-.17745-.03567-.26705-.21399-.26705h-6.02378c-1.70666 0-2.56-.56801-2.56-1.7058 0-1.10123.85334-1.65272 2.56-1.65272h6.87712c.17745 0 .26704-.08873.26704-.26705v-8.6899c0-1.70667.58629-2.55913 1.75886-2.55913 1.17344 0 1.75973.85246 1.75973 2.55913v8.6899c0 .17832.08872.26705.26617.26705h7.41208c1.7058 0 2.55826.55149 2.55826 1.65273 0 1.13778-.85246 1.7058-2.55826 1.7058h-6.45175c-.17832 0-.24965.08959-.21312.26704 1.24303 4.30059 2.80704 8.38893 4.69116 12.26329 1.99024 4.12313 3.46552 6.69966 4.42585 7.73044 1.17257 1.24477 1.27956 2.29208.31923 3.14542-.92379.81854-1.93717.56889-3.03842-.74634-2.16856-2.55913-4.60416-7.8731-7.30421-15.94106-.0722-.17745-.107-.17745-.107 0v24.36565c0 1.7058-.58628 2.55826-1.75972 2.55826m-23.29833 0c-1.13865 0-1.70667-.85246-1.70667-2.55826v-24.20646c0-.17745-.03566-.17745-.10612 0-2.59566 7.32248-4.906 12.1563-6.93191 14.5023-1.13778 1.27957-2.15117 1.52835-3.03842.74634-.88987-.782-.76548-1.81278.37317-3.09235 1.1369-1.2439 2.66525-3.77606 4.58503-7.59736 1.9189-3.82042 3.37592-7.5443 4.37191-11.16987.03567-.17745-.03653-.26705-.21398-.26705h-6.23777c-1.70492 0-2.55913-.56801-2.55913-1.7058 0-1.10123.8542-1.65272 2.55913-1.65272h6.93105c.17745 0 .26704-.08873.26704-.26705v-8.6899c0-1.70667.56802-2.55913 1.70667-2.55913 1.13604 0 1.7058.85246 1.7058 2.55913v8.6899c0 .17832.08785.26705.26617.26705h4.90514c1.70667 0 2.55913.55149 2.55913 1.65273 0 1.13778-.85246 1.7058-2.55913 1.7058h-4.90514c-.17832 0-.26617.08959-.26617.26704 0 .63935.17745 1.15518.53322 1.54574l6.77099 7.62433c1.1369 1.3161 1.20824 2.32948.21312 3.03929-.99512.74634-1.65274.83593-1.97285.26704-.31924-.56888-2.1155-2.9149-5.3853-7.03803-.10612-.1418-.15918-.1244-.15918.05306v25.32597c0 1.7058-.56976 2.55826-1.7058 2.55826"/><path fill="#ff8000" d="M131.749 106.568c3.22196-.6002 11.13682-10.4505 10.04253-13.33321-1.09428-2.88272-10.04253-3.36288-10.04253-3.36288s-8.94912.48016-10.0434 3.36288c-1.09429 2.88271 6.82057 12.733 10.0434 13.33321"/><path fill="#2b2b2b" d="M72.924 56.733c13.0044.86986 22.9643 10.39483 22.24232 21.27678-.0522.79157-.16527 1.57444-.32185 2.33992-.6611-.5741-1.51355-.91335-2.453-.91335-2.07897 0-3.7665 1.67883-3.7665 3.7578 0 1.91368 1.43527 3.48813 3.28807 3.723-4.3493 6.04552-12.51728 9.82941-21.60732 9.2292-13.0044-.86985-22.9643-10.39482-22.23362-21.27677.72198-10.88195 11.8475-18.99774 24.8519-18.13658"/><path fill="#2691bc" d="M101.116 78.404c-.42797 6.42827-3.89262 12.27981-9.75461 16.47689-5.88721 4.21621-13.46717 6.2543-21.3542 5.72194-7.98444-.53236-15.29561-3.61166-20.58523-8.6725-5.13391-4.9121-7.7287-11.1116-7.30508-17.45636.42275-6.34476 3.81607-12.14498 9.55628-16.33336 3.50727-2.55913 7.573-4.32407 12.0841-5.24525 3.0645-.62543 6.24994-.83507 9.46842-.61934 7.98531.53148 15.29562 3.61165 20.5861 8.6725 5.13305 4.91123 7.72697 11.11072 7.30422 17.45548M73.65278 45.86863c-9.48321-.6324-18.63501 1.88324-25.76351 7.085-7.30335 5.3279-11.62916 12.81913-12.17891 21.09324-.5515 8.27411 2.7418 16.27334 9.2727 22.52242 6.37608 6.10032 15.11121 9.80854 24.59704 10.44093.94466.06263 1.8876.09394 2.82878.09394 2.79573 0 5.56623-.27661 8.26889-.8281 15.16949-3.09758 25.95836-14.12653 26.84475-27.44496.55149-8.27498-2.7418-16.27334-9.2727-22.52241-6.37608-6.10033-15.11122-9.80768-24.59704-10.44006M213.084 91.93c-5.29049 5.06085-12.6008 8.14015-20.58524 8.6725-7.88528.5254-15.4661-1.5066-21.35419-5.72193-5.86286-4.19708-9.3275-10.04863-9.75548-16.4769-.42275-6.34475 2.17117-12.54424 7.30595-17.45547 5.28875-5.06085 12.59906-8.14102 20.58437-8.6725a36.57404 36.57404 0 0 1 2.44518-.08177c2.38428 0 4.73813.23486 7.02412.7011 4.51022.92118 8.57595 2.68613 12.08322 5.24526 5.7402 4.1875 9.13353 9.9886 9.55628 16.33336.42363 6.34476-2.17117 12.54425-7.30421 17.45635m13.7116-17.88345c-.55062-8.27411-4.87643-15.76534-12.17804-21.09324-7.12937-5.20089-16.2716-7.71652-25.76438-7.085-9.4867.63238-18.22183 4.33972-24.5979 10.44005-6.53091 6.24908-9.8242 14.24744-9.2727 22.52242.88725 13.31842 11.67525 24.34825 26.84474 27.44495 2.70266.5515 5.47229.8281 8.26889.8281.94032 0 1.88412-.0313 2.82878-.09394 9.48583-.63239 18.22096-4.33973 24.5979-10.44093 6.53004-6.2482 9.82333-14.24656 9.27271-22.52241"/><path fill="#2b2b2b" d="M214.433 74.87c.12265 1.818-.0522 3.60122-.50452 5.31484-.635-.46972-1.41787-.74807-2.26163-.74807-2.0781 0-3.7578 1.67882-3.7578 3.75779 0 1.73102 1.15691 3.17499 2.74876 3.61862-3.94917 5.17566-10.65579 8.81168-18.45843 9.3336-13.0044.86116-24.12992-7.25464-24.8606-18.13659-.72198-10.88194 9.23008-20.40691 22.23362-21.27677 13.0044-.86116 24.13862 7.25463 24.8606 18.13658"/><path fill="#3ea6e3" d="M132.139 58.55c14.49883-30.038 61.30251-49.06793 61.30251-49.06793C176.521 4.03065 154.86148.75824 131.25261.75824c-23.60887 0-45.26838 3.27241-62.18803 8.72383 0 0 46.80282 19.02992 61.30252 49.06793l.88551 2.25903z"/><path fill="#3ea6e3" d="M229.155 10.467c-6.49872 17.44417-11.53 18.6524-11.53 18.6524l5.08173-17.7373c-55.54665 15.5844-78.04993 44.88912-84.23637 54.69331-1.38482 2.19292-3.4777 3.83956-5.92636 4.69202l-.22269.07742a3.24993 3.24993 0 0 1-2.13724 0l-.22269-.07828c-2.4504-.8516-4.54327-2.49824-5.92722-4.69116-6.18645-9.80332-28.68972-39.10804-84.23724-54.69332l5.08172 17.73732S39.84824 27.91117 33.3495 10.467L-.00005-.00003S11.7422 40.28841 95.68368 63.16573l29.29167 10.2339-7.0189 2.44257c-1.02557.35664-1.70406 1.41874-1.45267 2.47475.28966 1.21432 1.55444 1.88586 2.70527 1.48398l12.0432-4.20751 11.93362 4.16924c1.02556.35838 2.21814-.0548 2.67395-1.04123.5254-1.1343-.04959-2.44082-1.1978-2.84009l-7.13285-2.4817 29.29253-10.23391C250.7632 40.2884 262.50456-.00003 262.50456-.00003z"/><path d="M55.06176 192.09473l-4.60245 17.70813h-2.65206l-3.7224-14.6993-3.63914 14.6993h-2.5926l-4.6857-17.70813h2.4142l3.7224 14.7231 3.66294-14.7231h2.39042l3.6986 14.86581 3.69862-14.8658zm15.24978 17.70813h-6.99288v-1.80766h2.31907v-14.0928h-2.31907v-1.80767h6.99288v1.80767h-2.31907v14.0928h2.31907zm23.08702 0h-2.9137l-8.3962-15.84099v15.841h-2.20014v-17.70814h3.65104l7.65886 14.46145v-14.46145h2.20014zm25.02554-1.30818q-1.45093.66598-3.17535 1.16549-1.71254.4876-3.31805.4876-2.06932 0-3.79375-.57087-1.72443-.57085-2.93749-1.71254-1.22494-1.15357-1.89092-2.87802-.666-1.7363-.666-4.05537 0-4.24568 2.47368-6.69557 2.48556-2.46178 6.81448-2.46178 1.51037 0 3.0802.36868 1.58171.35677 3.40129 1.22493v2.79478h-.21403q-.36868-.28543-1.07036-.74924-.70165-.4638-1.37954-.77301-.8206-.36868-1.86714-.60653-1.03466-.24975-2.35474-.24975-2.97316 0-4.70949 1.91472-1.72443 1.90282-1.72443 5.16141 0 3.43696 1.80768 5.35169 1.80768 1.90282 4.92355 1.90282 1.1417 0 2.2715-.22586 1.1417-.22587 1.99796-.58274v-4.34082h-4.74516v-2.06931h7.07613zm22.2902-14.30685h-6.32689v15.61503h-2.35474v-15.61503h-6.32687v-2.0931h15.0085zm19.61438 15.61503h-11.6667v-17.70813h11.6667v2.0931h-9.31193v4.8522h9.31193v2.0931h-9.31193v6.57663h9.31193zm22.96809-1.28438q-.65409.2854-1.18926.53516-.52328.24973-1.37956.52326-.72545.22586-1.5817.38056-.8444.16644-1.86717.16644-1.92659 0-3.50832-.53516-1.56982-.54708-2.7353-1.70066-1.1417-1.1298-1.7839-2.86614-.6422-1.74821-.6422-4.05537 0-2.18825.6184-3.9127.61842-1.72442 1.7839-2.91367 1.12981-1.1536 2.72342-1.76013 1.6055-.60653 3.55591-.60653 1.4271 0 2.84235.34489 1.4271.34488 3.16343 1.21305v2.79478h-.17852q-1.46278-1.22494-2.9018-1.7839-1.439-.55896-3.08018-.55896-1.34389 0-2.4261.44004-1.07036.42813-1.91473 1.34386-.82058.89196-1.28441 2.25961-.45193 1.35574-.45193 3.13966 0 1.86714.49952 3.211.51137 1.34389 1.30818 2.18826.83248.88005 1.9385 1.30818 1.11792.41624 2.35474.41624 1.70065 0 3.18722-.58273 1.48658-.58273 2.7829-1.74822h.16644zm22.44483 1.28438h-2.35476v-8.66972h-8.83621v8.66972h-2.35477v-17.70813h2.35477v6.9453h8.8362v-6.9453h2.35477zm21.981 0h-11.66669v-17.70813h11.6667v2.0931h-9.31193v4.8522h9.31193v2.0931h-9.31193v6.57663h9.31193zm23.9433 0h-3.05642l-5.92253-7.04043h-3.31804v7.04043h-2.35474v-17.70813h4.95921q1.60553 0 2.67586.21403 1.07033.2022 1.92661.73736.9633.60652 1.49847 1.53414.54705.91573.54705 2.33097 0 1.9147-.9633 3.211-.9633 1.2844-2.65206 1.9385zm-5.50629-12.72512q0-.76113-.27355-1.34386-.26164-.59464-.88005-.999-.51137-.34488-1.21305-.47569-.70165-.14276-1.65306-.14276h-2.77099v6.68366h2.37851q1.11792 0 1.95041-.19036.83249-.20219 1.41522-.73733.53516-.49949.78492-1.1417.26164-.6541.26164-1.65308z"/></svg>