<svg xmlns="http://www.w3.org/2000/svg" role="img" viewBox="-5.13 76.37 410.02 92.02"><title>Xilinx Inc logo</title><style>svg {enable-background:new 0 0 400 245}</style><style>.st0{fill:#ee3a25}.st1{fill:#b31e3b}</style><path d="M2.85 103.37l16.67-19.11h24.41l-16.6 19.11z" class="st0"/><path d="M2.85 103.37l16.67 19.12h24.41l-16.6-19.12z" class="st1"/><path d="M2.85 141.61l16.67-19.12h24.41l-16.6 19.12z" class="st0"/><path d="M2.85 141.61l16.67 19.12h24.41l-16.6-19.12z" class="st1"/><path d="M77.17 84.26H43.93l16.62 19.11z" class="st0"/><path d="M77.17 160.74H43.93l16.62-19.13z" class="st1"/><path fill="#231f20" d="M155.38 160.73l-17.97-31.07-18.08 31.07h-10.45l23.42-39.2-21.92-37.27h10.65l16.38 29.11 16.38-29.11h10.65l-22.02 37.27 23.61 39.2zm16.26-76.47h9.19v76.47h-9.19zm21.9 76.47V84.26h9.19v68.13h31.39v8.34zm48.22-76.47h9.19v76.47h-9.19zm70.2 76.47l-39.11-59.08v59.08h-9.19V84.26h8.5l39.11 58.85V84.26h9.19v76.47zm60.6 0l-17.97-31.07-18.09 31.07h-10.44l23.41-39.2-21.92-37.27h10.65l16.39 29.11 16.37-29.11h10.65l-22.02 37.27 23.62 39.2zm18.88-11.51c3.18 0 5.71 2.45 5.71 5.61 0 3.14-2.53 5.64-5.74 5.64-3.21 0-5.78-2.5-5.78-5.64 0-3.16 2.57-5.61 5.78-5.61h.03zm-.06 1.12c-2.43 0-4.31 2.01-4.31 4.49 0 2.5 1.88 4.47 4.38 4.47 2.42.04 4.27-1.97 4.27-4.44 0-2.5-1.85-4.51-4.3-4.51h-.04zm-.86 7.38h-1.3v-5.59c.51-.09 1.23-.18 2.15-.18 1.06 0 1.54.18 1.91.44.34.24.58.64.58 1.19 0 .69-.51 1.13-1.16 1.33v.09c.55.16.82.6.99 1.35.17.86.31 1.17.41 1.37h-1.37c-.17-.2-.27-.69-.44-1.37-.11-.57-.45-.84-1.17-.84h-.61v2.21zm.03-3.13h.62c.71 0 1.3-.24 1.3-.82 0-.51-.38-.86-1.19-.86-.35 0-.59.04-.72.07v1.61z"/></svg>