<svg xmlns="http://www.w3.org/2000/svg" role="img" viewBox="31.11 101.49 156.65 51.52"><path d="M53.6238 137.09957l2.10365 7.76096.9369-.25396-2.10366-7.76095zm39.15355-10.61284l2.10366 7.76095.9369-.25395-1.12772-4.16042c.20286-.26558.4272-.49819.67225-.70026.24506-.20206.49541-.33866.75145-.40806.24938-.0676.46228-.08697.6375-.05948.1743.02414.32098.09495.44197.21208.11405.10472.21774.26487.30896.48285.09031.21467.16863.45044.23803.70648l.85996 3.17262.93878-.25446-.98004-3.61562c-.18476-.68164-.48553-1.16095-.89966-1.43776-.41412-.2768-.92144-.33303-1.52328-.1699-.32919.08923-.6306.24314-.90622.46419-.2756.22104-.52749.49354-.7543.81558l-.76135-2.8088zm31.92985-8.6548l.65455 2.4148c-.28454-.06209-.5474-.09294-.78973-.0915-.24324-.00193-.5115.03742-.8041.11674-.32254.08742-.6167.23689-.88325.45189-.2632.21412-.4735.4783-.6311.7923-.15913.32155-.2568.6852-.29308 1.09125-.03296.40514.01454.84501.14253 1.31718.24605.90775.63206 1.56567 1.15989 1.97228.53116.4057 1.1302.51725 1.79522.337.34249-.09284.6419-.2432.89935-.4522.25745-.209.48872-.46745.69496-.77321l.1584.58438.93879-.25446-2.10366-7.76096zm-38.74651 10.80806l.26366.97271 1.05754-.28665-.26366-.97271zm-51.73274 14.07515l2.01322 7.4273.98779-.26775-.80018-2.95207 1.3912-.3771 3.28286 2.27913 1.28187-.34746-3.67172-2.4894c.42259-.31086.71947-.68372.89147-1.11584.1711-.43543.18368-.91997.03858-1.4553-.10726-.3957-.27282-.70146-.49518-.91603-.21993-.2188-.48668-.3761-.80198-.47267-.27996-.08471-.57792-.1145-.8925-.08995-.31548.02127-.69727.09192-1.14615.21359zm68.7685-18.64017l2.01321 7.4273 4.69956-1.27385-.2381-.87845-3.71177 1.0061-1.77511-6.54885zm57.49747-15.58509l2.01322 7.4273 4.69955-1.27385-.2381-.87845-3.71177 1.0061-1.7751-6.54885zm-71.56864 19.67236l.43432 1.60234-.63339.17168.21358.78797.6334-.17169.80273 2.9615c.18297.675.4651 1.12599.84395 1.35167.37886.2257.85253.26066 1.42112.10654.16293-.04417.34202-.10918.54006-.19498.20137-.0867.38445-.1757.54807-.26998l-.22891-.84453-.04902.01329c-.06504.04975-.17525.12096-.32888.21258-.15453.0883-.30797.15435-.46092.1958-.26268.07121-.46677.09368-.61267.069-.14346-.02888-.27023-.09966-.37944-.21284-.11855-.12134-.2062-.26093-.26366-.42027-.05837-.16264-.12655-.39222-.20587-.68483l-.68776-2.53735 1.93411-.52426-.21358-.78796-1.93412.52425-.43432-1.60234zm-53.4796 15.13344l1.16122-.31475c.266-.0721.50308-.1144.71006-.12772.2061-.0166.39403.0042.56315.06187.20354.06618.36281.17243.48103.31885.12064.1422.21008.31967.26777.53247.0757.27931.10228.52065.0787.72335-.02116.1985-.08833.38803-.2001.56825-.12239.19376-.2907.34994-.50813.4696-.21834.11627-.48412.21618-.79668.3009l-.99722.2703zm8.58435-1.41015c-.81133.21992-1.39295.66495-1.7466 1.33548-.35034.66964-.40156 1.46-.1546 2.37108.24965.92105.70026 1.56193 1.35507 1.92342.65391.35816 1.44446.41184 2.36884.16128.36243-.09824.69517-.23775 1.00001-.41677a8.00108 8.00108 0 0 0 .87662-.59578l-.27695-1.02173-.049.01329c-.12328.19046-.35793.41444-.70219.67194-.34183.25328-.7025.43123-1.08156.53398-.28596.0775-.55964.10786-.82068.09294-.25772-.01583-.49357-.07937-.70974-.1921-.22373-.1143-.4217-.28426-.59328-.50903-.17248-.22808-.30497-.51292-.3978-.8554l4.10575-1.1129-.13797-.50898c-.219-.808-.59346-1.37539-1.12142-1.70344-.52463-.32896-1.16303-.39099-1.9145-.1873zm6.54507-1.77409c-.35246.09554-.66755.25617-.94136.48383-.27138.22348-.50234.47385-.69494.75093l-.15789-.58249-.9369.25395 2.06688 7.62524.9369-.25395-.63259-2.33376c.27878.0672.5424.10083.79228.10093.25322-.00077.52425-.04088.81354-.11929.3325-.09013.6285-.24206.88838-.4553.26231-.21745.47045-.47857.62322-.7841.16578-.32336.2628-.68934.29154-1.0969.02784-.41088-.01947-.8408-.14205-1.29303-.24425-.9011-.6232-1.55496-1.13593-1.95853-.5103-.4078-1.0994-.51954-1.77107-.33748zm20.18944-5.47248c-.81133.21991-1.39484.66546-1.7485 1.336-.35032.66963-.40155 1.46-.1546 2.37107.24966.92105.70216 1.56141 1.35697 1.9229.6539.35817 1.44257.41236 2.36695.1618.36244-.09824.69705-.23826 1.0019-.41728a8.001 8.001 0 0 0 .87662-.59579l-.27695-1.02172-.0509.0138c-.12327.19046-.35603.41393-.70029.67143-.34182.25328-.7025.43123-1.08156.53397-.28596.07751-.55963.10787-.82068.09294-.25771-.01583-.49357-.07936-.70974-.1921-.22372-.11427-.4217-.28423-.59328-.509-.17247-.22809-.30496-.51292-.3978-.8554l4.10387-1.11239-.13796-.50898c-.21902-.808-.59159-1.3759-1.11954-1.70396-.52464-.32895-1.16304-.39098-1.91451-.1873zm47.2576-12.8095c-.32918.08923-.63249.24366-.9081.4647-.2756.22104-.5256.49303-.75242.81507l-.1676-.6183-.9369.25395 1.50992 5.57047.9369-.25396-1.12771-4.16042c.20285-.26558.42718-.49819.67224-.70026.24506-.20206.49542-.33866.75145-.40806.24938-.0676.46229-.08697.6375-.05948.1743.02414.32099.09495.44197.21208.11405.10472.21774.26487.30896.48286.09031.21466.16863.45044.23803.70647l.85996 3.17262.93878-.25446-.98003-3.61562c-.18477-.68164-.48554-1.16095-.89967-1.43776-.41412-.2768-.92144-.33303-1.52328-.1699zm29.59233-8.0212c-.35247.09553-.66567.25565-.93948.48331-.27139.22349-.50423.47437-.69682.75144l-.15789-.58249-.9369.25396 2.06687 7.62523.9369-.25395-.63258-2.33376c.27878.0672.5424.10083.79228.10093.25322-.00077.52614-.04138.81542-.1198.33251-.09013.6285-.24205.88839-.4553.2623-.21745.46856-.47805.62132-.7836.16578-.32334.26282-.68933.29154-1.09689.02785-.41088-.01758-.84132-.14016-1.29354-.24425-.9011-.6232-1.55496-1.13593-1.95853-.5103-.40779-1.10128-.51903-1.77295-.33696zm5.90414-1.60036c-.81133.21991-1.39296.66495-1.74661 1.33548-.35033.66964-.40156 1.46-.1546 2.37108.24966.92105.70215 1.56141 1.35696 1.9229.6539.35817 1.44257.41236 2.36696.1618.36243-.09824.69516-.23775 1.00001-.41677a8.00162 8.00162 0 0 0 .87661-.59579l-.27694-1.02172-.04903.0133c-.12328.19046-.35792.41444-.70218.67194-.34183.25328-.70062.43071-1.07969.53346-.28595.07751-.5615.10838-.82256.09345-.25771-.01583-.49357-.07937-.70973-.1921-.22373-.11427-.4217-.28424-.59329-.509-.17247-.22809-.30496-.51293-.39779-.8554l4.10574-1.1129-.13796-.50898c-.21901-.808-.59347-1.3754-1.12143-1.70345-.52463-.32895-1.16303-.39098-1.9145-.1873zm15.22784-4.12761c-.78804.2136-1.34262.64631-1.66484 1.30118-.31978.65064-.35676 1.43118-.1107 2.33894.24605.90775.67163 1.56089 1.27622 1.96097.60793.3992 1.305.49215 2.09304.27854.7814-.2118 1.33332-.6433 1.65643-1.29486.3231-.65154.36292-1.43083.11687-2.33858-.24605-.90775-.67448-1.56215-1.2824-1.96133-.6088-.4025-1.30322-.49667-2.08462-.28486zm6.10584-1.65503c-.3059.08291-.59686.2315-.87004.4483-.27408.2135-.48663.46938-.63878.76404-.16425.3158-.26828.66522-.30996 1.05131-.03928.38186.00798.81334.13777 1.29216.23704.8745.6141 1.49945 1.13382 1.87614.52215.37246 1.11691.46824 1.78194.28798.399-.10815.7114-.25106.93768-.43022.22872-.18335.45318-.42649.67452-.7292l.13796.50898c.0613.2261.09092.4367.09069.63308-.00033.1964-.04037.37561-.1216.53684-.07943.16788-.21314.31767-.40189.45093-.18876.13322-.44325.24358-.76245.3301-.33251.09013-.67664.13616-1.0335.13647-.35595.00364-.61826-.00495-.78743-.02333l-.05087.01379.25957.95763c.29341.00263.58497-.01319.87508-.049.29436-.03337.59047-.09126.88641-.17147.89113-.24155 1.49043-.64157 1.7995-1.20008.30907-.5585.33518-1.30917.07921-2.2535l-1.33823-4.93708-.87657.2376.00457.25575c-.27878-.0672-.53684-.10234-.77342-.10603-.23416-.00792-.51137.03135-.83391.11878zm6.46402-1.75212c-.78805.2136-1.34452.64683-1.66673 1.30169-.31979.65064-.35675 1.43119-.1107 2.33894.24606.90775.67163 1.5609 1.27623 1.96098.60791.39919 1.30686.49163 2.09491.27803.7814-.2118 1.33332-.6433 1.65644-1.29486.3231-.65155.36103-1.43032.11498-2.33807-.24606-.90776-.67259-1.56267-1.2805-1.96185-.60883-.4025-1.30324-.49666-2.08463-.28486zM58.88973 137.87791c-.33584.09103-.66948.21442-.9991.3679-.32959.15357-.57792.27917-.74729.3786l.25856.95387.049-.01328c.2892-.21045.57531-.38963.86077-.53484.28456-.14852.55065-.25651.7967-.3232a4.24763 4.24763 0 0 1 .59375-.1164c.19343-.02383.36698-.01565.52072.0248.16129.04197.29837.12132.40937.24114.11434.11893.2009.28574.25858.49855l.03883.14327c-.53812.17435-1.03881.354-1.49989.53606-.46107.18207-.84067.39305-1.13928.6346-.29527.24067-.49926.5171-.61094.82936-.10926.30802-.1047.67388.00977 1.09616.1397.51539.4273.89115.86657 1.12902.43926.23788.91141.28921 1.4135.15312.27266-.0739.5027-.16413.69112-.2723.1893-.10487.35197-.2177.48753-.33653.11678-.0959.23156-.21268.34417-.3503.11503-.14185.20661-.25234.27443-.33137l.16095.5938.93124-.25241-1.0245-3.77963c-.09733-.3591-.23322-.64552-.40875-.8585-.17552-.213-.38883-.36786-.63977-.46403-.25517-.09858-.5375-.14061-.84723-.12448-.30731.01191-.65645.07068-1.04881.17703zm52.091-14.11962c-.33583.09103-.66947.21441-.9991.36789-.32958.15357-.5798.27969-.74916.37912l.25855.95387.0509-.0138c.28918-.21044.5753-.38963.86075-.53483.28456-.14852.55065-.25652.7967-.32321a4.24766 4.24766 0 0 1 .59375-.11639c.19343-.02383.36698-.01565.52072.0248.16129.04196.29837.12131.40937.24114.11434.11893.2009.28573.25858.49854l.03883.14327c-.53812.17436-1.0388.354-1.49988.53607-.46108.18206-.84068.39304-1.13928.6346-.29528.24067-.49927.5171-.61095.82935-.10926.30802-.1047.67388.00977 1.09616.1397.5154.4273.89115.86657 1.12903.43926.23787.91141.2892 1.4135.15311.27266-.0739.5027-.16413.69112-.27229.1893-.10488.35198-.2177.48753-.33653.11678-.0959.23156-.21268.34417-.3503.11504-.14185.20662-.25235.27443-.33137l.16095.5938.93124-.25242-1.02449-3.77962c-.09734-.35911-.23324-.64552-.40876-.85851-.17552-.213-.38883-.36785-.63977-.46403-.25516-.09858-.5375-.1406-.84723-.12447-.3073.0119-.65644.07067-1.0488.17703zm18.9679-5.14138c-.35579.09644-.66708.23065-.93114.40213-.26162.16727-.46291.35435-.60676.5611-.1496.21188-.24685.43197-.2883.66095-.03812.22805-.0259.45685.03628.68628.09914.36576.28596.64884.5573.84658.27375.1935.67232.28765 1.19626.28484.18884-.00124.39412-.01006.61775-.0278.22694-.01873.41157-.03034.55267-.0365.38075-.01752.64883.01239.80583.0912.157.0788.26632.22849.3258.44794.07751.28596.01812.52617-.17859.72226-.1967.1961-.50247.3507-.91478.46246-.3325.09013-.6975.11985-1.09509.0884-.39849-.03476-.7742-.12368-1.13051-.26625l-.0509.0138.28513 1.05189c.2643.05329.58173.08329.95126.09022.37195.00268.76324-.0531 1.17555-.16486.7282-.19738 1.25812-.51533 1.58876-.95476.33396-.44032.432-.91465.2941-1.42338-.10995-.40567-.3163-.69836-.61908-.88043-.30187-.17873-.6835-.26009-1.14613-.24177-.152.00546-.34185.01806-.56878.0368a14.78686 14.78686 0 0 1-.61143.03623c-.33239.01156-.5846-.02219-.75579-.10071-.17453-.07763-.29323-.23072-.35542-.46016-.0703-.25936-.00442-.48489.19651-.67855.20003-.197.47239-.34254.81487-.43538.32919-.08922.68088-.11835 1.05672-.08812.37493.02688.7057.09509.99288.20643l.0509-.0138-.27184-1.00287c-.25765-.0551-.56955-.07564-.93366-.06261-.36169.00883-.70786.0583-1.04037.14844zm10.65835-2.88902c-.33583.09103-.66948.21441-.99908.36789-.3296.15357-.57794.27918-.7473.3786l.25855.95388.04903-.0133c.28919-.21044.57719-.39013.86264-.53534.28456-.14851.54877-.256.79482-.3227a4.2754 4.2754 0 0 1 .59563-.1169c.19342-.02382.36698-.01564.52073.0248.16128.04197.29647.12183.40749.24165.1143.11894.20089.28574.25857.49855l.03883.14327c-.53812.17435-1.03693.35349-1.498.53555-.46107.18207-.84256.39356-1.14117.63512-.29527.24066-.49738.51659-.60906.82884-.10925.30802-.10657.67439.0079 1.09667.1397.5154.42918.89064.86844 1.12851.43927.23788.90953.28973 1.41162.15363.27266-.0739.5027-.16413.69112-.27229.1893-.10488.35198-.2177.48752-.33654.1168-.09589.23157-.21267.34418-.35029.11503-.14185.20661-.25235.27443-.33138l.16096.5938.93311-.25292-1.02449-3.77962c-.09734-.35912-.23513-.64501-.41064-.858-.17552-.213-.38883-.36785-.63978-.46403-.25515-.09858-.5375-.14061-.84722-.12448-.30732.01192-.65645.07068-1.04881.17703zm-75.14233 20.37406c-.8213.22262-1.4125.6618-1.77399 1.3166-.35816.6539-.41436 1.43514-.1674 2.34621.13249.4888.31513.89801.54727 1.22771.23215.32971.50231.58223.80994.75584.3043.17451.63934.27695 1.00763.30563.36737.02534.7531-.01797 1.15544-.12702.31589-.08563.60115-.2073.85793-.36611.26011-.15971.527-.3566.79901-.59095l-.28001-1.03303-.04901.01328c-.0545.0755-.13088.17039-.22896.28264-.09898.10888-.20788.21613-.32529.3229-.13464.12218-.29253.2342-.4752.33725-.18265.10307-.36876.18087-.55829.23225-.54531.1478-1.01865.08285-1.41858-.19423-.3975-.28133-.68712-.75816-.86918-1.42984-.18747-.69161-.17703-1.25574.03244-1.69445.2119-.44292.58487-.73728 1.11688-.88149.28929-.0784.6014-.09929.93643-.06159.33835.0368.68103.1287 1.02738.27398l.049-.01329-.28256-1.04246c-.29118-.06027-.60414-.094-.93771-.09996-.33024-.00684-.65397.03359-.97318.12011zm70.24642-19.04078c-.8213.22262-1.4125.6618-1.77399 1.3166-.35816.6539-.41436 1.43514-.16741 2.34622.1325.4888.31325.89852.5454 1.22822.23214.3297.5023.58222.80993.75584.3043.1745.64123.27643 1.00951.30511.36738.02534.75312-.01796 1.15546-.12702.31588-.08562.60114-.20729.85792-.3661.2601-.15972.527-.3566.799-.59095l-.28-1.03303-.05087.01378c-.05455.0755-.129.16988-.22707.28213-.09898.10888-.20788.21613-.3253.3229-.13464.12218-.2944.23471-.47707.33776-.18265.10307-.36877.18087-.5583.23224-.54531.14782-1.01677.08235-1.41669-.19474-.3975-.28132-.68712-.75815-.86918-1.42983-.18747-.69162-.17703-1.25574.03244-1.69445.2119-.44293.58298-.73677 1.115-.88098.28928-.07841.60138-.09929.93642-.06159.33835.0368.68104.1287 1.02738.27398l.05086-.0138-.28256-1.04245c-.29118-.06028-.60415-.094-.93771-.09997-.33025-.00684-.65397.0336-.97318.12012zm-58.03718 15.87101l2.97652 5.17294.86338-.23402.25738-4.67954 2.59478 3.90644.86903-.23556-.05839-5.96392-.94443.256.20204 4.57524-2.59424-3.92682-.77477.21001-.2221 4.6902-2.19083-4.03616zm8.86375-2.40258l1.50991 5.57048.9369-.25396-1.50992-5.57047zm-42.3471 12.14221c.49877-.1352.90582-.1016 1.22156.10194.31906.20264.54618.54999.6829 1.0412l-3.19148.86507c-.07907-.44972-.01131-.86306.2044-1.2392.21905-.37706.58053-.63291 1.08262-.769zm26.73262-7.24606c.49877-.1352.90583-.1016 1.22156.10194.31904.20264.54805.54948.68478 1.04069l-3.19147.86507c-.07907-.44972-.01131-.86306.2044-1.2392.21905-.37706.57864-.6324 1.08073-.7685zm82.75595-22.43157c.49877-.1352.90583-.1016 1.22156.10194.31918.2026.54629.54996.6829 1.0412l-3.19147.86507c-.07911-.4497-.01132-.86306.2044-1.2392.21903-.37706.58053-.63291 1.08261-.769zm15.28608-4.10692c.50209-.1361.9436-.0655 1.32176.21036.37728.27252.66203.7701.85761 1.49164.19107.70492.19298 1.27416.00436 1.71079-.1862.43239-.52915.71611-1.02792.8513-.50541.137-.94762.06563-1.32759-.21687-.38087-.28583-.66613-.77778-.8554-1.47606-.19558-.72155-.20153-1.2947-.01686-1.71954.1871-.42907.5353-.71373 1.04404-.85162zm12.56985-3.40715c.50209-.1361.94171-.06498 1.31989.21087.37727.27252.6639.76959.8595 1.49114.19106.70491.1911 1.27467.00247 1.7113-.1862.43238-.52728.7156-1.02604.8508-.50542.13699-.94762.06561-1.32759-.21688-.38088-.28583-.66614-.77779-.85541-1.47606-.19558-.72155-.20152-1.2947-.01685-1.71954.1871-.42907.5353-.71373 1.04403-.85163zm-6.2903 1.74347c.2128-.05768.43265-.09189.65898-.09967.22874-.01206.48236.00489.76239.05035l.82368 3.03878c-.18166.23843-.3957.44835-.64285.62956-.2447.17699-.50357.30243-.77623.37633-.50874.1379-.9159.07443-1.22279-.18861-.30689-.26305-.54572-.70683-.71517-1.33195-.17845-.65837-.16747-1.20025.03473-1.62627.20221-.42603.56188-.7088 1.07726-.84849zm-51.08405 13.86285c.23608-.064.45839-.10187.66961-.11271.21123-.01084.45865.00524.742.0498l.8666 3.19714c-.1856.25019-.39857.47329-.63878.6669-.24112.19028-.49381.32003-.75982.39213-.49876.1352-.90775.06327-1.22669-.21792-.31984-.28452-.56976-.75819-.74911-1.41988-.18206-.67167-.1758-1.2292.01768-1.67427.19346-.44507.55314-.7388 1.0785-.8812zm-73.58327 19.98172c.4755-.12889.87339-.05744 1.19295.2129.31956.2703.5693.74153.75135 1.41319.18747.69162.18246 1.2538-.0146 1.68558-.19708.43177-.55644.71744-1.07848.85894-.24273.0658-.46693.10418-.6715.11322-.20125.00813-.45038-.0125-.74884-.0601l-.85587-3.15754c.19801-.25713.41704-.47984.65815-.67013.24111-.19029.49751-.32305.76685-.39605zm97.03937-26.30319c.47549-.12888.87338-.05743 1.19295.2129.31955.27031.56929.74153.75134 1.4132.18747.69162.18246 1.2538-.0146 1.68557-.19707.43178-.55644.71744-1.07848.85894-.24273.0658-.46503.10367-.66961.11271-.20125.00813-.45227-.01199-.75072-.05959l-.85587-3.15754c.198-.25712.41892-.48035.66004-.67064.2411-.19028.49562-.32254.76495-.39554zm-86.4812 25.49326l.42002 1.54955c-.18408.24264-.3946.46556-.63211.66914-.2384.20026-.52217.34592-.85135.43515-.3957.10725-.7129.10755-.94901.00023-.23702-.11065-.39811-.32648-.48463-.6457-.07661-.28263-.05402-.52633.06897-.731.12209-.208.30844-.386.55704-.53547.209-.12441.50201-.25618.8787-.394.38002-.13875.71091-.25382.99237-.34793zm52.09101-14.11963l.42002 1.54956c-.18409.24264-.3946.46555-.63211.66913-.23841.20027-.52217.34593-.85136.43516-.39568.10725-.7129.10755-.949.00023-.23702-.11066-.39811-.32649-.48464-.6457-.0766-.28263-.05402-.52634.06897-.731.1221-.208.30845-.386.55705-.53548.209-.1244.502-.25617.8787-.394.38001-.13874.7109-.25382.99237-.34793zm29.62626-8.0304l.42002 1.54955c-.1841.24265-.3946.46556-.63212.66914-.2384.20027-.52217.34593-.85136.43516-.39568.10725-.711.10703-.94712-.00028-.23701-.11066-.39999-.32598-.48651-.6452-.07661-.28262-.05398-.52634.06897-.731.12208-.20799.30844-.386.55705-.53547.209-.1244.502-.25617.8787-.394.38001-.13874.7109-.25382.99236-.34793z" stroke-width=".265"/></svg>