<?xml version="1.0" encoding="UTF-8" standalone="no"?>
<svg
   id="Layer_1"
   data-name="Layer 1"
   viewBox="0 0 627.47991 212.57944"
   version="1.1"
   sodipodi:docname="left-logo.svg"
   inkscape:version="1.1 (c4e8f9e, 2021-05-24)"
   xmlns:inkscape="http://www.inkscape.org/namespaces/inkscape"
   xmlns:sodipodi="http://sodipodi.sourceforge.net/DTD/sodipodi-0.dtd"
   xmlns="http://www.w3.org/2000/svg"
   xmlns:svg="http://www.w3.org/2000/svg"
   xmlns:rdf="http://www.w3.org/1999/02/22-rdf-syntax-ns#"
   xmlns:cc="http://creativecommons.org/ns#"
   xmlns:dc="http://purl.org/dc/elements/1.1/">
  <sodipodi:namedview
     id="namedview911"
     pagecolor="#ffffff"
     bordercolor="#666666"
     borderopacity="1.0"
     inkscape:pageshadow="2"
     inkscape:pageopacity="0.0"
     inkscape:pagecheckerboard="0"
     showgrid="false"
     inkscape:zoom="0.67178375"
     inkscape:cx="285.06197"
     inkscape:cy="-19.351465"
     inkscape:window-width="1398"
     inkscape:window-height="820"
     inkscape:window-x="53"
     inkscape:window-y="25"
     inkscape:window-maximized="0"
     inkscape:current-layer="g1305" />
  <defs
     id="defs832">
    <style
       id="style824">.cls-1{fill:none;}.cls-2{clip-path:url(#clip-path);}.cls-3{clip-path:url(#clip-path-2);}.cls-4{fill:#d2e4f4;}.cls-5{fill:#ffcd05;}.cls-6{fill:#44af59;}.cls-7{fill:#676767;}.cls-8{fill:#333;}</style>
    <clipPath
       id="clip-path">
      <circle
         class="cls-1"
         cx="103.94547"
         cy="103.50587"
         r="90.4732"
         id="circle826" />
    </clipPath>
    <clipPath
       id="clip-path-2">
      <rect
         class="cls-1"
         x="5.33214"
         y="5.1027"
         width="199.26745"
         height="199.26745"
         id="rect829" />
    </clipPath>
  </defs>
  <title
     id="title834">ASWF_Logo_landscape</title>
  <g
     class="cls-2"
     clip-path="url(#clip-path)"
     id="g844">
    <g
       class="cls-3"
       clip-path="url(#clip-path-2)"
       id="g842">
      <path
         class="cls-4"
         d="M-2.81131,9.00152v44.513H-46.15739v29.6601H-2.728v71.30978c16.6311-13.43429,33.24263-26.86368,49.77076-40.45,4.4127-3.59554,7.35455-3.59554,11.44034.65371,16.18,16.67032,33.01381,32.85035,49.35729,49.35728,3.43208,3.59555,6.21047,3.59555,9.96948.6537,8.98893-7.19109,18.30471-13.89194,27.13018-21.24649,4.73955-3.92246,8.33516-3.75894,13.07478-.16339,15.54423,11.65931,31.24212,23.0214,47.08389,34.37029V9.00152Z"
         id="path836" />
      <path
         class="cls-5"
         d="M136.64266,99.65237a28.19737,28.19737,0,1,0-.2788.00137Q136.50326,99.65374,136.64266,99.65237Z"
         id="path838" />
      <path
         class="cls-6"
         d="M164.98373,193.68749h44.719v-39.0478c-15.8417-11.34889-31.53961-22.70925-47.08389-34.36866-4.73959-3.59554-8.33516-3.759-13.07476.16342-8.82549,7.35456-18.14126,14.05539-27.13015,21.24651-3.75894,2.94182-6.53739,2.94182-9.96951-.65373C96.10093,124.52035,79.26718,108.34028,63.08714,91.67c-4.08586-4.24929-7.02769-4.24929-11.44036-.65373C35.117,104.60257,18.50715,118.032,1.87605,131.4663v62.22281H135.37759v40.772h29.60618V193.68909Z"
         id="path840" />
    </g>
  </g>
  <path
     class="cls-7"
     d="M223.55815,117.58622h-7.64421v57.66892h34.9732V169.037H223.55736V117.58622Zm67.49058,27.924q-.15871-6.49566-4.3573-10.19892-4.19778-3.70326-11.6043-3.70326a20.78869,20.78869,0,0,0-8.575,1.74275,15.54922,15.54922,0,0,0-6.179,4.73217,10.1111,10.1111,0,0,0-2.27716,6.19895h7.36663a5.83685,5.83685,0,0,1,2.65442-4.79358,10.68467,10.68467,0,0,1,6.57383-1.97885q4.47613,0,6.77323,2.278a8.232,8.232,0,0,1,2.29709,6.1184v3.36667h-7.12975q-9.22826,0-14.31694,3.70326a12.11536,12.11536,0,0,0-5.09028,10.39673,11.59548,11.59548,0,0,0,4.05978,9.09026,15.12449,15.12449,0,0,0,10.39673,3.58361,16.346,16.346,0,0,0,12.19851-5.30724,15.3678,15.3678,0,0,0,1.0305,4.516H292.553v-.63568a24.11744,24.11744,0,0,1-1.50426-9.38617Zm-7.32757,17.74343a10.78369,10.78369,0,0,1-4.47452,4.63326,12.87954,12.87954,0,0,1-6.53635,1.78344,8.82461,8.82461,0,0,1-5.90066-1.94136,6.66875,6.66875,0,0,1-2.29789-5.3862q0-7.88109,13.46669-7.8819h5.74273ZM322.53641,131.608a15.61463,15.61463,0,0,0-12.83339,6.17822l-.23769-5.3862H302.535v42.85509h7.32676V144.7174a12.90843,12.90843,0,0,1,4.19858-4.99059,10.57614,10.57614,0,0,1,6.258-1.90148q4.39636,0,6.47651,2.21892,2.07933,2.21893,2.11844,6.85139v28.3587h7.32756V146.93552q-.11964-15.32829-13.70357-15.32829Zm51.80576,5.14852Q369.945,131.608,362.41963,131.608a14.77794,14.77794,0,0,0-12.23838,6.00036q-4.67391,5.99955-4.67393,15.86269v.55353q0,9.82406,4.69467,15.9225a14.63518,14.63518,0,0,0,12.13868,6.09926q7.84281,0,12.23918-5.387l.35575,4.59577h6.73333v-60.837h-7.32676Zm0,26.81374a10.68518,10.68518,0,0,1-10.17818,6.258,9.72835,9.72835,0,0,1-8.319-4.118q-3.00934-4.1196-3.00936-11.40729,0-8.15944,3.00936-12.31815a9.77461,9.77461,0,0,1,8.39715-4.15868,10.77237,10.77237,0,0,1,10.09921,6.06017Zm44.2812-10.13911A39.54969,39.54969,0,0,0,409.73093,150.5q-5.48666-1.22672-7.58519-2.57387a4.44268,4.44268,0,0,1-2.0977-4.00076,5.48591,5.48591,0,0,1,2.25642-4.5543,10.02468,10.02468,0,0,1,6.25879-1.74275,9.57442,9.57442,0,0,1,6.43584,2.179,6.61451,6.61451,0,0,1,2.55391,5.1876h7.36744a11.952,11.952,0,0,0-4.53436-9.62465q-4.53674-3.76228-11.82364-3.76229a17.39586,17.39586,0,0,0-11.38654,3.645,11.11692,11.11692,0,0,0-4.4562,8.91079,9.47071,9.47071,0,0,0,1.56489,5.466,12.56227,12.56227,0,0,0,4.83188,3.96009,36.90192,36.90192,0,0,0,8.83263,2.85142q5.5641,1.18842,7.80214,2.83148a5.3965,5.3965,0,0,1,2.23727,4.61491,5.17245,5.17245,0,0,1-2.514,4.49528,11.81235,11.81235,0,0,1-6.67433,1.68374,11.44782,11.44782,0,0,1-7.26773-2.1583,7.58352,7.58352,0,0,1-2.95033-5.84242h-7.32835a12.26382,12.26382,0,0,0,2.23807,7.06914,14.80738,14.80738,0,0,0,6.19815,5.08949,21.58559,21.58559,0,0,0,9.11019,1.82252q7.32675,0,11.92173-3.46558a10.967,10.967,0,0,0,4.59419-9.2091,10.08332,10.08332,0,0,0-1.64305-5.84163,12.9722,12.9722,0,0,0-5.05041-4.09967Zm24.7336-11.783a10.25346,10.25346,0,0,1,8.654-4.0199,9.7961,9.7961,0,0,1,6.991,2.67355,10.101,10.101,0,0,1,3.14815,6.83225h6.93115a15.43348,15.43348,0,0,0-5.08947-11.20868,17.18667,17.18667,0,0,0-11.98-4.31742,18.73233,18.73233,0,0,0-10.159,2.6935,17.49306,17.49306,0,0,0-6.59537,7.56444,25.79835,25.79835,0,0,0-2.2971,11.12973v1.2283q0,10.13829,5.16847,15.98152,5.16846,5.84242,13.92213,5.84083a18.00642,18.00642,0,0,0,8.25836-1.97964,16.70022,16.70022,0,0,0,6.23724-5.30724,13.29375,13.29375,0,0,0,2.53559-7.0109h-6.93115a8.36278,8.36278,0,0,1-3.24785,5.94133,10.55546,10.55546,0,0,1-6.85219,2.37684,10.30345,10.30345,0,0,1-8.71378-4.00077q-3.05081-3.99994-3.05-11.40648v-1.387q0-7.60432,3.07-11.62423Zm66.59966,3.862q-.15875-6.49566-4.3573-10.19892T493.99425,131.608a20.78879,20.78879,0,0,0-8.57421,1.74275,15.54354,15.54354,0,0,0-6.179,4.73217,10.11191,10.11191,0,0,0-2.278,6.19895h7.36744a5.83683,5.83683,0,0,1,2.65363-4.79358,10.68547,10.68547,0,0,1,6.57461-1.97885q4.47613,0,6.77323,2.278a8.23125,8.23125,0,0,1,2.29709,6.1176v3.36747H495.5009q-9.229,0-14.31933,3.70326a12.11675,12.11675,0,0,0-5.0887,10.39673,11.59544,11.59544,0,0,0,4.05981,9.09026,15.11968,15.11968,0,0,0,10.39593,3.58361,16.34755,16.34755,0,0,0,12.20011-5.30724,15.31809,15.31809,0,0,0,1.02889,4.516h7.68489v-.63568a24.08642,24.08642,0,0,1-1.50665-9.38617Zm-7.32674,17.74343a10.78827,10.78827,0,0,1-4.47613,4.63326,12.87954,12.87954,0,0,1-6.53557,1.78344,8.82463,8.82463,0,0,1-5.90143-1.94136,6.66877,6.66877,0,0,1-2.29632-5.3862q0-7.88109,13.46589-7.8819h5.74351Zm38.3-31.64561q-7.96084,0-12.437,5.54493l-.35654-4.75291h-6.69349v59.33113h7.32757V171.09726q4.47453,4.9507,12.27747,4.94912A14.34643,14.34643,0,0,0,553.1682,170.066q4.47453-5.98042,4.47535-15.763v-.67317q0-10.37679-4.49526-16.20007a14.6154,14.6154,0,0,0-12.21925-5.82168Zm6.27711,34.28088a9.90385,9.90385,0,0,1-8.37719,4.17784,10.79156,10.79156,0,0,1-10.05934-5.86237V143.72758a10.7724,10.7724,0,0,1,9.98037-5.90225,9.95166,9.95166,0,0,1,8.47612,4.19857q3.08915,4.19857,3.08909,11.44637,0,8.23923-3.10983,12.417ZM583.824,131.608a17.12689,17.12689,0,0,0-9.48587,2.83149,18.99373,18.99373,0,0,0-6.81232,7.84281,25.71794,25.71794,0,0,0-2.43667,11.38654V155.016q0,9.58478,5.466,15.30756,5.466,5.72438,14.17976,5.72278,10.77316,0,16.1594-8.2775l-4.47453-3.48472a16.51078,16.51078,0,0,1-4.7138,4.19777,12.763,12.763,0,0,1-6.57461,1.58483,11.64016,11.64016,0,0,1-9.0121-3.90186,15.23126,15.23126,0,0,1-3.70165-10.238H601.4487v-3.05q0-10.25714-4.63406-15.76378-4.63409-5.505-12.99052-5.505Zm10.297,18.29856H572.6544q.71307-5.82249,3.724-9.05037a9.77455,9.77455,0,0,1,7.44562-3.22789,9.2035,9.2035,0,0,1,7.28687,3.06916q2.6935,3.07077,3.01013,8.654Z"
     id="path846" />
  <g
     id="g1305"
     transform="translate(-291.34362,-240.62257)">
    <g
       id="g1009"
       transform="matrix(0.38343078,0,0,0.38343078,465.48703,230.3892)"
       style="fill:#0c3555;fill-opacity:1">
      <path
         class="st0"
         d="m 360.2,234.3 c 0,11.7 -5.8,17.5 -17.4,17.5 h -62.1 c -11.3,0 -17,-5.8 -17,-17.5 V 77.9 c 0,-11.7 5.7,-17.6 17,-17.6 h 62.1 c 11.6,0 17.4,5.9 17.4,17.6 z m -28.6,-7.1 V 84.9 h -39.3 v 142.3 z"
         id="path995"
         style="fill:#0c3555;fill-opacity:1" />
      <path
         class="st0"
         d="m 464.2,226.9 c 0,10 -3.6,17 -10.8,21 -5.2,2.9 -13.1,4.3 -23.7,4.3 -2.4,0 -5.9,-0.1 -10.3,-0.2 -4.4,-0.2 -7.6,-0.2 -9.6,-0.2 v 45.1 h -28 V 128.2 h 28 v 4.5 c 6.5,-1 13,-2 19.6,-3.1 8.2,-1.3 14.8,-2 19.6,-2 10.2,0 15.3,5 15.3,15 v 84.3 z m -28.1,-7.7 v -67.6 l -26.3,0.5 v 76.4 h 17.4 c 5.9,0 8.9,-3.1 8.9,-9.3 z"
         id="path997"
         style="fill:#0c3555;fill-opacity:1" />
      <path
         class="st0"
         d="m 563.9,236.5 c 0,10.2 -5.3,15.3 -15.8,15.3 h -48.3 c -10.5,0 -15.8,-5.1 -15.8,-15.3 v -93 c 0,-10.2 5.3,-15.3 15.8,-15.3 h 48.3 c 10.5,0 15.8,5.1 15.8,15.3 v 45.4 l -7.7,7.7 h -45.4 v 34.6 h 26.3 v -20.5 h 26.8 z m -26.8,-58.1 v -29.6 h -26.3 v 29.6 z"
         id="path999"
         style="fill:#0c3555;fill-opacity:1" />
      <path
         class="st0"
         d="M 666.6,251.7 H 638.5 V 151.6 l -26.3,0.5 v 99.7 h -28 V 128.2 h 28 v 4.5 c 6.5,-1.1 13,-2.1 19.4,-3.1 8,-1.3 14.6,-2 19.7,-2 10.2,0 15.3,5 15.3,15 z"
         id="path1001"
         style="fill:#0c3555;fill-opacity:1" />
      <path
         class="st0"
         d="m 779.9,234.3 c 0,11.7 -5.8,17.5 -17.4,17.5 h -57.6 c -11.5,0 -17.2,-5.8 -17.2,-17.5 v -45.6 h 28.6 v 39 h 35 v -37.6 l -57.4,-54.3 c -4.2,-4 -6.2,-9.1 -6.2,-15.3 V 77.9 c 0,-11.7 5.7,-17.6 17.2,-17.6 h 57.6 c 11.6,0 17.4,5.8 17.4,17.4 v 42.8 H 751.3 V 84.4 h -35 V 119 l 57.4,54.1 c 4.2,3.9 6.2,9.1 6.2,15.5 z"
         id="path1003"
         style="fill:#0c3555;fill-opacity:1" />
      <path
         class="st0"
         d="m 894.4,234.3 c 0,11.7 -5.8,17.5 -17.4,17.5 h -57.6 c -11.5,0 -17.2,-5.8 -17.2,-17.5 v -45.6 h 28.6 v 39 h 35 v -37.6 l -57.4,-54.3 c -4.2,-4 -6.2,-9.1 -6.2,-15.3 V 77.9 c 0,-11.7 5.7,-17.6 17.2,-17.6 H 877 c 11.6,0 17.4,5.8 17.4,17.4 v 42.8 H 865.8 V 84.4 h -35 V 119 l 57.4,54.1 c 4.2,3.9 6.2,9.1 6.2,15.5 z"
         id="path1005"
         style="fill:#0c3555;fill-opacity:1" />
      <path
         class="st0"
         d="m 995.3,85.6 h -49.5 v 56.6 h 42.3 V 167 h -42.3 v 84.6 H 917.2 V 60.3 h 78.2 v 25.3 z"
         id="path1007"
         style="fill:#0c3555;fill-opacity:1" />
    </g>
  </g>
  <metadata
     id="metadata5696">
    <rdf:RDF>
      <cc:Work
         rdf:about="">
        <dc:title>ASWF_Logo_landscape</dc:title>
      </cc:Work>
    </rdf:RDF>
  </metadata>
</svg>
