<?xml version="1.0" encoding="UTF-8" standalone="no"?>
<svg
   xmlns:dc="http://purl.org/dc/elements/1.1/"
   xmlns:cc="http://creativecommons.org/ns#"
   xmlns:rdf="http://www.w3.org/1999/02/22-rdf-syntax-ns#"
   xmlns:svg="http://www.w3.org/2000/svg"
   xmlns="http://www.w3.org/2000/svg"
   xmlns:sodipodi="http://sodipodi.sourceforge.net/DTD/sodipodi-0.dtd"
   xmlns:inkscape="http://www.inkscape.org/namespaces/inkscape"
   width="234.9048mm"
   height="34.659271mm"
   viewBox="0 0 234.9048 34.659271"
   version="1.1"
   id="svg114"
   inkscape:version="1.0.2 (e86c8708, 2021-01-15)"
   sodipodi:docname="qr.svg">
  <defs
     id="defs108" />
  <sodipodi:namedview
     id="base"
     pagecolor="#ffffff"
     bordercolor="#666666"
     borderopacity="1.0"
     inkscape:pageopacity="0.0"
     inkscape:pageshadow="2"
     inkscape:zoom="0.35"
     inkscape:cx="393.18269"
     inkscape:cy="458.96194"
     inkscape:document-units="mm"
     inkscape:current-layer="layer1"
     inkscape:document-rotation="0"
     showgrid="false"
     inkscape:window-width="1252"
     inkscape:window-height="943"
     inkscape:window-x="47"
     inkscape:window-y="25"
     inkscape:window-maximized="0" />
  <metadata
     id="metadata111">
    <rdf:RDF>
      <cc:Work
         rdf:about="">
        <dc:format>image/svg+xml</dc:format>
        <dc:type
           rdf:resource="http://purl.org/dc/dcmitype/StillImage" />
        <dc:title></dc:title>
      </cc:Work>
    </rdf:RDF>
  </metadata>
  <g
     inkscape:label="Layer 1"
     inkscape:groupmode="layer"
     id="layer1"
     transform="translate(-15.788867,-56.971082)">
    <g
       aria-label="Goto https://www.qrcode-monkey.com/
Generate a QR code, setting colors to black. 
Save as SVG and overwrite this file"
       id="text118"
       style="font-style:normal;font-variant:normal;font-weight:normal;font-stretch:normal;font-size:10.5833px;line-height:1.25;font-family:sans-serif;-inkscape-font-specification:'sans-serif, Normal';font-variant-ligatures:normal;font-variant-caps:normal;font-variant-numeric:normal;font-variant-east-asian:normal;fill:#f9f9f9;fill-opacity:1;stroke:none;stroke-width:0.264583">
      <path
         id="path334"
         style="fill:#000000"
         d="m 202.65541,88.684808 h -4.25295 q 0,0.532265 0.16019,0.930173 0.1602,0.392739 0.43925,0.645953 0.26872,0.248046 0.63562,0.372069 0.37207,0.124023 0.81648,0.124023 0.58911,0 1.18339,-0.232543 0.59944,-0.237711 0.85266,-0.465087 h 0.0517 v 1.059364 q -0.49092,0.206705 -1.00252,0.346231 -0.51159,0.139526 -1.07486,0.139526 -1.4366,0 -2.24275,-0.775144 -0.80615,-0.780312 -0.80615,-2.211744 0,-1.41593 0.76997,-2.247918 0.77515,-0.831988 2.03605,-0.831988 1.16788,0 1.79833,0.682127 0.63562,0.682127 0.63562,1.93786 z m -0.94567,-0.744139 q -0.005,-0.764808 -0.38758,-1.183386 -0.37723,-0.418578 -1.15238,-0.418578 -0.78031,0 -1.24539,0.459919 -0.45992,0.459919 -0.52193,1.142045 z m -5.81875,3.52949 h -0.97151 v -8.040828 h 0.97151 z m -2.85253,-6.738586 h -1.09554 v -1.007687 h 1.09554 z m -0.062,6.738586 h -0.97151 v -5.77224 h 0.97151 z m -1.59681,-7.10032 h -0.0517 q -0.16019,-0.04651 -0.41857,-0.09302 -0.25838,-0.05168 -0.45475,-0.05168 -0.62529,0 -0.90951,0.279052 -0.27905,0.273884 -0.27905,0.997352 v 0.196369 h 1.75183 v 0.816485 h -1.72082 v 4.955755 h -0.97152 v -4.955755 h -0.65629 v -0.816485 h 0.65629 V 85.50671 q 0,-1.028357 0.5116,-1.576126 0.51159,-0.552936 1.47794,-0.552936 0.32556,0 0.58394,0.03101 0.26355,0.03101 0.48059,0.07235 z m -8.22169,5.436344 q 0,0.790647 -0.65629,1.297074 -0.65112,0.506427 -1.78283,0.506427 -0.64079,0 -1.17822,-0.149861 -0.53227,-0.155028 -0.894,-0.335895 v -1.09037 h 0.0517 q 0.45991,0.346231 1.02319,0.552936 0.56327,0.201538 1.08003,0.201538 0.64079,0 1.00252,-0.206705 0.36173,-0.206705 0.36173,-0.651121 0,-0.341064 -0.19637,-0.516763 -0.19637,-0.175699 -0.75447,-0.299722 -0.20671,-0.04651 -0.5426,-0.10852 -0.33073,-0.06201 -0.60461,-0.134359 -0.75964,-0.201537 -1.08004,-0.589109 -0.31522,-0.39274 -0.31522,-0.961179 0,-0.356566 0.14469,-0.671791 0.14986,-0.315225 0.44958,-0.563272 0.28939,-0.242878 0.73381,-0.382404 0.44958,-0.144693 1.00252,-0.144693 0.51676,0 1.04386,0.12919 0.53226,0.124023 0.88366,0.30489 v 1.038693 h -0.0517 q -0.37207,-0.273884 -0.90434,-0.459919 -0.53226,-0.191202 -1.04386,-0.191202 -0.53227,0 -0.89917,0.206705 -0.3669,0.201538 -0.3669,0.604613 0,0.356566 0.22221,0.537433 0.21704,0.180867 0.7028,0.294555 0.26871,0.06201 0.59944,0.124023 0.3359,0.06201 0.55811,0.113687 0.67695,0.155029 1.04386,0.532266 0.3669,0.382404 0.3669,1.012855 z m -5.99444,-5.07461 h -1.09554 v -1.007687 h 1.09554 z m -0.062,6.738586 h -0.97151 v -5.77224 h 0.97151 z m -2.85255,0 h -0.97152 v -3.286611 q 0,-0.397907 -0.0465,-0.744138 -0.0465,-0.351399 -0.17054,-0.547769 -0.12919,-0.21704 -0.37206,-0.320393 -0.24288,-0.10852 -0.63045,-0.10852 -0.39791,0 -0.83199,0.19637 -0.43408,0.19637 -0.83199,0.50126 v 4.309801 h -0.97151 v -8.040828 h 0.97151 v 2.909374 q 0.45475,-0.377237 0.94051,-0.589109 0.48575,-0.211873 0.99735,-0.211873 0.93534,0 1.42626,0.563271 0.49093,0.563272 0.49093,1.622635 z m -6.00479,-0.05168 q -0.27388,0.07235 -0.59944,0.118856 -0.32039,0.04651 -0.57361,0.04651 -0.88366,0 -1.34358,-0.475421 -0.45992,-0.475422 -0.45992,-1.52445 v -3.069571 h -0.65629 v -0.816485 h 0.65629 v -1.658808 h 0.97151 v 1.658808 h 2.00504 v 0.816485 h -2.00504 v 2.630323 q 0,0.454751 0.0207,0.713132 0.0207,0.253214 0.1447,0.475422 0.11369,0.206705 0.31006,0.30489 0.20153,0.09302 0.60978,0.09302 0.23771,0 0.49609,-0.06718 0.25838,-0.07235 0.37207,-0.118856 h 0.0517 z m -8.19068,-2.733674 h -4.25296 q 0,0.532265 0.1602,0.930173 0.16019,0.392739 0.43925,0.645953 0.26871,0.248046 0.63561,0.372069 0.37207,0.124023 0.81649,0.124023 0.58911,0 1.18339,-0.232543 0.59944,-0.237711 0.85265,-0.465087 h 0.0517 v 1.059364 q -0.49092,0.206705 -1.00252,0.346231 -0.51159,0.139526 -1.07487,0.139526 -1.4366,0 -2.24275,-0.775144 -0.80614,-0.780312 -0.80614,-2.211744 0,-1.41593 0.76997,-2.247918 0.77515,-0.831988 2.03605,-0.831988 1.16788,0 1.79833,0.682127 0.63562,0.682127 0.63562,1.93786 z m -0.94568,-0.744139 q -0.005,-0.764808 -0.38757,-1.183386 -0.37724,-0.418578 -1.15238,-0.418578 -0.78031,0 -1.2454,0.459919 -0.45992,0.459919 -0.52193,1.142045 z m -5.06427,3.477813 q -0.27389,0.07235 -0.59945,0.118856 -0.32039,0.04651 -0.57361,0.04651 -0.88366,0 -1.34358,-0.475421 -0.45992,-0.475422 -0.45992,-1.52445 v -3.069571 h -0.65629 v -0.816485 h 0.65629 v -1.658808 h 0.97152 v 1.658808 h 2.00504 v 0.816485 h -2.00504 v 2.630323 q 0,0.454751 0.0207,0.713132 0.0207,0.253214 0.14469,0.475422 0.11369,0.206705 0.31006,0.30489 0.20154,0.09302 0.60978,0.09302 0.23771,0 0.49609,-0.06718 0.25838,-0.07235 0.37207,-0.118856 h 0.0517 z m -4.8679,-6.686909 h -1.09554 v -1.007687 h 1.09554 z m -0.062,6.738586 h -0.97152 v -5.77224 h 0.97152 z m -1.90687,-4.712876 h -0.0517 q -0.21704,-0.05168 -0.42375,-0.07235 -0.20154,-0.02584 -0.48059,-0.02584 -0.44958,0 -0.86816,0.201537 -0.41858,0.19637 -0.80615,0.511596 v 4.097928 h -0.97151 v -5.77224 h 0.97151 v 0.852659 q 0.57877,-0.465087 1.01802,-0.656289 0.44442,-0.19637 0.90434,-0.19637 0.25321,0 0.3669,0.0155 0.11369,0.01034 0.34106,0.04651 z m -5.00226,-1.059364 -1.50378,5.77224 h -0.89917 l -1.48311,-4.449327 -1.47277,4.449327 h -0.894 l -1.51928,-5.77224 h 1.01285 l 1.05937,4.469998 1.44177,-4.469998 h 0.80098 l 1.47794,4.469998 1.00252,-4.469998 z m -8.18552,1.059364 h -0.0517 q -0.21704,-0.05168 -0.42374,-0.07235 -0.20154,-0.02584 -0.48059,-0.02584 -0.44958,0 -0.86816,0.201537 -0.41858,0.19637 -0.80615,0.511596 v 4.097928 h -0.97152 v -5.77224 h 0.97152 v 0.852659 q 0.57877,-0.465087 1.01802,-0.656289 0.44442,-0.19637 0.90433,-0.19637 0.25322,0 0.36691,0.0155 0.11368,0.01034 0.34106,0.04651 z m -5.07461,1.927525 h -4.25296 q 0,0.532265 0.1602,0.930173 0.1602,0.392739 0.43925,0.645953 0.26872,0.248046 0.63562,0.372069 0.37207,0.124023 0.81648,0.124023 0.58911,0 1.18339,-0.232543 0.59944,-0.237711 0.85266,-0.465087 h 0.0517 v 1.059364 q -0.49092,0.206705 -1.00252,0.346231 -0.51159,0.139526 -1.07486,0.139526 -1.4366,0 -2.24275,-0.775144 -0.80615,-0.780312 -0.80615,-2.211744 0,-1.41593 0.76997,-2.247918 0.77515,-0.831988 2.03605,-0.831988 1.16788,0 1.79833,0.682127 0.63562,0.682127 0.63562,1.93786 z m -0.94568,-0.744139 q -0.005,-0.764808 -0.38757,-1.183386 -0.37723,-0.418578 -1.15238,-0.418578 -0.78031,0 -1.2454,0.459919 -0.45991,0.459919 -0.52193,1.142045 z m -5.15729,-2.24275 -2.33577,5.77224 h -0.97668 l -2.32026,-5.77224 h 1.05419 l 1.788,4.594021 1.7725,-4.594021 z m -6.50088,2.888704 q 0,1.410762 -0.72346,2.227247 -0.72347,0.816485 -1.93786,0.816485 -1.22473,0 -1.9482,-0.816485 -0.7183,-0.816485 -0.7183,-2.227247 0,-1.410762 0.7183,-2.227247 0.72347,-0.821653 1.9482,-0.821653 1.21439,0 1.93786,0.821653 0.72346,0.816485 0.72346,2.227247 z m -1.00252,0 q 0,-1.121375 -0.43924,-1.663976 -0.43925,-0.547768 -1.21956,-0.547768 -0.79065,0 -1.2299,0.547768 -0.43408,0.542601 -0.43408,1.663976 0,1.085201 0.43925,1.648473 0.43925,0.558103 1.22473,0.558103 0.77514,0 1.21439,-0.552936 0.44441,-0.558103 0.44441,-1.65364 z m -9.54977,2.883536 h -0.97151 v -0.604613 q -0.41858,0.361734 -0.87333,0.563272 -0.45475,0.201537 -0.98702,0.201537 -1.03352,0 -1.6433,-0.795815 -0.60462,-0.795814 -0.60462,-2.206576 0,-0.733803 0.20671,-1.30741 0.21187,-0.573606 0.56844,-0.976681 0.3514,-0.39274 0.81648,-0.599445 0.47026,-0.206705 0.97152,-0.206705 0.45475,0 0.80615,0.09819 0.35139,0.09302 0.73897,0.294555 v -2.501132 h 0.97151 z m -0.97151,-1.421098 v -3.312449 q -0.39274,-0.175699 -0.7028,-0.242878 -0.31006,-0.06718 -0.67696,-0.06718 -0.81648,0 -1.27124,0.568439 -0.45475,0.568439 -0.45475,1.612299 0,1.028358 0.3514,1.565791 0.3514,0.532266 1.12654,0.532266 0.41341,0 0.83716,-0.180867 0.42375,-0.186035 0.79065,-0.475421 z m -5.581039,1.421098 h -0.971514 v -3.286611 q 0,-0.397907 -0.04651,-0.744138 -0.04651,-0.351399 -0.170532,-0.547769 -0.129191,-0.21704 -0.372069,-0.320393 -0.242878,-0.10852 -0.63045,-0.10852 -0.397908,0 -0.831988,0.19637 -0.434081,0.19637 -0.831988,0.50126 v 4.309801 h -0.971514 v -5.77224 h 0.971514 v 0.640786 q 0.454751,-0.377237 0.940508,-0.589109 0.485757,-0.211873 0.997352,-0.211873 0.93534,0 1.426265,0.563271 0.490924,0.563272 0.490924,1.622635 z m -6.707579,0 h -0.966346 v -0.614948 q -0.129191,0.08785 -0.351399,0.248046 -0.21704,0.155029 -0.423745,0.248046 -0.242879,0.118856 -0.558104,0.19637 -0.315225,0.08268 -0.738971,0.08268 -0.780311,0 -1.322912,-0.516763 -0.542601,-0.516762 -0.542601,-1.317744 0,-0.656289 0.279052,-1.059364 0.284219,-0.408243 0.80615,-0.640786 0.527098,-0.232543 1.266068,-0.315225 0.738971,-0.08268 1.586462,-0.124023 v -0.149861 q 0,-0.330728 -0.118856,-0.547769 -0.113688,-0.21704 -0.330728,-0.341063 -0.206705,-0.118855 -0.496092,-0.160196 -0.289387,-0.04134 -0.604612,-0.04134 -0.382405,0 -0.852659,0.103352 -0.470254,0.09819 -0.971514,0.289387 h -0.05168 v -0.987016 q 0.28422,-0.07752 0.821653,-0.170532 0.537433,-0.09302 1.059363,-0.09302 0.60978,0 1.059364,0.103352 0.454751,0.09819 0.785479,0.341063 0.32556,0.237711 0.496092,0.614948 0.170532,0.377237 0.170532,0.93534 z m -0.966346,-1.421098 v -1.607132 q -0.444416,0.02584 -1.049029,0.07751 -0.599444,0.05168 -0.950843,0.149861 -0.418578,0.118855 -0.676959,0.372069 -0.258381,0.248046 -0.258381,0.687294 0,0.496093 0.299722,0.749306 0.299722,0.248046 0.91467,0.248046 0.511595,0 0.93534,-0.196369 0.423746,-0.201538 0.78548,-0.48059 z m -8.950327,0.852659 q -0.630451,0.289387 -1.379757,0.506427 -0.744138,0.211873 -1.441767,0.211873 -0.899168,0 -1.648473,-0.248046 -0.749306,-0.248046 -1.276404,-0.744139 -0.532266,-0.501259 -0.821653,-1.250565 -0.289387,-0.754474 -0.289387,-1.762161 0,-1.844843 1.074866,-2.909374 1.080034,-1.069699 2.961051,-1.069699 0.656288,0 1.338415,0.160197 0.687294,0.155029 1.477941,0.532265 v 1.214393 h -0.09302 q -0.160197,-0.124023 -0.465087,-0.325561 -0.30489,-0.201537 -0.599444,-0.335896 -0.356567,-0.160196 -0.811318,-0.263549 -0.449583,-0.10852 -1.02319,-0.10852 -1.291907,0 -2.04638,0.831988 -0.749306,0.826821 -0.749306,2.24275 0,1.493444 0.785479,2.325432 0.78548,0.826821 2.139398,0.826821 0.496092,0 0.987017,-0.09819 0.496092,-0.09819 0.868161,-0.253214 v -1.886184 h -2.061883 v -0.899167 h 3.074738 z m -7.586079,-7.126158 -2.800854,7.694597 h -1.364253 l -2.800854,-7.694597 h 1.095537 l 2.413282,6.769591 2.413281,-6.769591 z m -7.710098,5.498355 q 0,0.449584 -0.211873,0.888832 -0.206705,0.439248 -0.583942,0.744138 -0.41341,0.330728 -0.966346,0.516763 -0.547768,0.186034 -1.322912,0.186034 -0.831988,0 -1.498612,-0.155028 -0.661456,-0.155029 -1.348751,-0.459919 v -1.281572 h 0.07235 q 0.583942,0.485757 1.348751,0.749306 0.764808,0.263549 1.4366,0.263549 0.950843,0 1.477941,-0.356566 0.532266,-0.356566 0.532266,-0.950843 0,-0.511595 -0.253214,-0.754474 -0.248046,-0.242878 -0.759641,-0.377237 -0.387572,-0.103352 -0.842323,-0.170531 -0.449584,-0.06718 -0.956011,-0.170532 -1.02319,-0.21704 -1.519282,-0.738971 -0.490925,-0.527097 -0.490925,-1.369421 0,-0.966346 0.816485,-1.581293 0.816485,-0.620116 2.072218,-0.620116 0.811318,0 1.488277,0.155029 0.676959,0.155029 1.198889,0.382405 v 1.209224 h -0.07235 q -0.439249,-0.372069 -1.157549,-0.614947 -0.713132,-0.248046 -1.462438,-0.248046 -0.821653,0 -1.322913,0.341063 -0.496092,0.341063 -0.496092,0.878496 0,0.48059 0.248046,0.754474 0.248046,0.273884 0.873329,0.418578 0.330728,0.07235 0.940508,0.175699 0.60978,0.103353 1.033526,0.211873 0.857826,0.227375 1.291906,0.687294 0.434081,0.459919 0.434082,1.286739 z m -10.784836,0.532266 q 0,0.790647 -0.656289,1.297074 -0.651121,0.506427 -1.782831,0.506427 -0.640786,0 -1.178219,-0.149861 -0.532265,-0.155028 -0.893999,-0.335895 v -1.09037 h 0.05168 q 0.459919,0.346231 1.02319,0.552936 0.563271,0.201538 1.080034,0.201538 0.640786,0 1.00252,-0.206705 0.361734,-0.206705 0.361734,-0.651121 0,-0.341064 -0.19637,-0.516763 -0.19637,-0.175699 -0.754474,-0.299722 -0.206705,-0.04651 -0.542601,-0.10852 -0.330728,-0.06201 -0.604612,-0.134359 -0.759641,-0.201537 -1.080034,-0.589109 -0.315225,-0.39274 -0.315225,-0.961179 0,-0.356566 0.144693,-0.671791 0.149862,-0.315225 0.449584,-0.563272 0.289387,-0.242878 0.733803,-0.382404 0.449583,-0.144693 1.00252,-0.144693 0.516762,0 1.04386,0.12919 0.532266,0.124023 0.883664,0.30489 v 1.038693 h -0.05168 q -0.372069,-0.273884 -0.904335,-0.459919 -0.532265,-0.191202 -1.04386,-0.191202 -0.532266,0 -0.899167,0.206705 -0.366902,0.201538 -0.366902,0.604613 0,0.356566 0.222208,0.537433 0.21704,0.180867 0.702797,0.294555 0.268717,0.06201 0.599445,0.124023 0.335896,0.06201 0.558104,0.113687 0.676959,0.155029 1.04386,0.532266 0.366902,0.382404 0.366902,1.012855 z m -6.004782,1.663976 h -0.966347 v -0.614948 q -0.12919,0.08785 -0.351398,0.248046 -0.21704,0.155029 -0.423746,0.248046 -0.242878,0.118856 -0.558103,0.19637 -0.315225,0.08268 -0.738971,0.08268 -0.780312,0 -1.322912,-0.516763 -0.542601,-0.516762 -0.542601,-1.317744 0,-0.656289 0.279052,-1.059364 0.284219,-0.408243 0.806149,-0.640786 0.527098,-0.232543 1.266069,-0.315225 0.738971,-0.08268 1.586461,-0.124023 v -0.149861 q 0,-0.330728 -0.118855,-0.547769 -0.113688,-0.21704 -0.330728,-0.341063 -0.206705,-0.118855 -0.496092,-0.160196 -0.289387,-0.04134 -0.604613,-0.04134 -0.382404,0 -0.852658,0.103352 -0.470254,0.09819 -0.971514,0.289387 h -0.05168 v -0.987016 q 0.284219,-0.07752 0.821653,-0.170532 0.537433,-0.09302 1.059363,-0.09302 0.60978,0 1.059364,0.103352 0.454751,0.09819 0.785479,0.341063 0.32556,0.237711 0.496092,0.614948 0.170532,0.377237 0.170532,0.93534 z m -0.966347,-1.421098 v -1.607132 q -0.444415,0.02584 -1.049028,0.07751 -0.599444,0.05168 -0.950843,0.149861 -0.418578,0.118855 -0.676959,0.372069 -0.258382,0.248046 -0.258382,0.687294 0,0.496093 0.299723,0.749306 0.299722,0.248046 0.91467,0.248046 0.511595,0 0.93534,-0.196369 0.423746,-0.201538 0.785479,-0.48059 z m -8.712618,-1.364253 h -4.252957 q 0,0.532265 0.160196,0.930173 0.160197,0.392739 0.439248,0.645953 0.268717,0.248046 0.635619,0.372069 0.372069,0.124023 0.816485,0.124023 0.589109,0 1.183386,-0.232543 0.599445,-0.237711 0.852659,-0.465087 h 0.05168 v 1.059364 q -0.490925,0.206705 -1.00252,0.346231 -0.511595,0.139526 -1.074866,0.139526 -1.4366,0 -2.24275,-0.775144 -0.80615,-0.780312 -0.80615,-2.211744 0,-1.41593 0.769976,-2.247918 0.775144,-0.831988 2.036045,-0.831988 1.167884,0 1.798335,0.682127 0.635618,0.682127 0.635618,1.93786 z m -0.945676,-0.744139 q -0.0052,-0.764808 -0.387572,-1.183386 -0.377237,-0.418578 -1.152381,-0.418578 -0.780312,0 -1.245398,0.459919 -0.459919,0.459919 -0.52193,1.142045 z m -5.157292,-2.24275 -2.335767,5.77224 h -0.976681 l -2.320265,-5.77224 h 1.054196 l 1.787999,4.594021 1.772496,-4.594021 z m -6.872943,5.77224 h -0.966346 v -0.614948 q -0.129191,0.08785 -0.351399,0.248046 -0.21704,0.155029 -0.423745,0.248046 -0.242879,0.118856 -0.558104,0.19637 -0.315225,0.08268 -0.738971,0.08268 -0.780311,0 -1.322912,-0.516763 -0.542601,-0.51676 -0.542601,-1.317742 0,-0.656289 0.279052,-1.059364 0.284219,-0.408243 0.80615,-0.640786 0.527098,-0.232543 1.266068,-0.315225 0.738971,-0.08268 1.586462,-0.124023 v -0.149861 q 0,-0.330728 -0.118856,-0.547769 -0.113687,-0.21704 -0.330728,-0.341063 -0.206705,-0.118855 -0.496092,-0.160196 -0.289387,-0.04134 -0.604612,-0.04134 -0.382405,0 -0.852659,0.103352 -0.470254,0.09819 -0.971514,0.289387 h -0.05168 v -0.987016 q 0.28422,-0.07752 0.821653,-0.170532 0.537433,-0.09302 1.059363,-0.09302 0.60978,0 1.059364,0.103352 0.454751,0.09819 0.785479,0.341063 0.325561,0.237711 0.496092,0.614948 0.170532,0.377237 0.170532,0.93534 z m -0.966346,-1.421098 v -1.607132 q -0.444416,0.02584 -1.049029,0.07751 -0.599444,0.05168 -0.950843,0.149861 -0.418578,0.118855 -0.676959,0.372069 -0.258381,0.248046 -0.258381,0.687294 0,0.496093 0.299722,0.749306 0.299722,0.248046 0.91467,0.248046 0.511595,0 0.93534,-0.196369 0.423746,-0.201538 0.78548,-0.48059 z m -5.084945,-0.775144 q 0,0.449584 -0.211873,0.888832 -0.206705,0.439248 -0.583941,0.744138 -0.413411,0.330728 -0.966347,0.516763 -0.547768,0.186034 -1.322912,0.186034 -0.831988,0 -1.498612,-0.155028 -0.661456,-0.155029 -1.34875,-0.459919 v -1.281572 h 0.07235 q 0.583942,0.485757 1.348751,0.749306 0.764809,0.263549 1.4366,0.263549 0.950844,0 1.477941,-0.356566 0.532266,-0.356566 0.532266,-0.950843 0,-0.511595 -0.253214,-0.754474 -0.248046,-0.242878 -0.759641,-0.377237 -0.387572,-0.103352 -0.842323,-0.170531 -0.449584,-0.06718 -0.956011,-0.170532 -1.02319,-0.21704 -1.519282,-0.738971 -0.490925,-0.527097 -0.490925,-1.369421 0,-0.966346 0.816485,-1.581293 0.816485,-0.620116 2.072219,-0.620116 0.811317,0 1.488276,0.155029 0.676959,0.155029 1.19889,0.382405 v 1.209224 h -0.07235 q -0.439249,-0.372069 -1.157549,-0.614947 -0.713132,-0.248046 -1.462438,-0.248046 -0.821653,0 -1.322912,0.341063 -0.496093,0.341063 -0.496093,0.878496 0,0.48059 0.248046,0.754474 0.248047,0.273884 0.873329,0.418578 0.330728,0.07235 0.940508,0.175699 0.60978,0.103353 1.033526,0.211873 0.857826,0.227375 1.291906,0.687294 0.434081,0.459919 0.434081,1.286739 z M 249.39144,78.241034 h -1.23507 V 76.76826 h 1.23507 z m -2.60966,0 h -1.28157 l -2.3151,-2.526969 -0.63045,0.599444 v 1.927525 h -0.97151 v -8.040827 h 0.97151 v 5.157291 l 2.80602,-2.888703 h 1.22473 l -2.682,2.666495 z M 240.29124,77.8793 q -0.48576,0.232543 -0.92501,0.361734 -0.43408,0.129191 -0.925,0.129191 -0.62529,0 -1.14722,-0.180867 -0.52193,-0.186035 -0.894,-0.558104 -0.37723,-0.372069 -0.58394,-0.940508 -0.2067,-0.568439 -0.2067,-1.32808 0,-1.41593 0.77514,-2.22208 0.78031,-0.806149 2.05672,-0.806149 0.49609,0 0.97151,0.139526 0.48059,0.139525 0.8785,0.341063 v 1.080034 h -0.0517 q -0.44441,-0.346231 -0.91984,-0.532266 -0.47025,-0.186034 -0.91983,-0.186034 -0.82682,0 -1.30741,0.558103 -0.47543,0.552937 -0.47543,1.627803 0,1.043861 0.46509,1.607132 0.47026,0.558104 1.31775,0.558104 0.29455,0 0.59944,-0.07751 0.30489,-0.07751 0.54777,-0.201537 0.21187,-0.10852 0.39791,-0.227376 0.18603,-0.124023 0.29455,-0.211873 h 0.0517 z m -6.14948,0.361734 h -0.96634 v -0.614948 q -0.1292,0.08785 -0.3514,0.248047 -0.21704,0.155028 -0.42375,0.248046 -0.24288,0.118855 -0.5581,0.196369 -0.31523,0.08268 -0.73897,0.08268 -0.78031,0 -1.32292,-0.516762 -0.5426,-0.516763 -0.5426,-1.317745 0,-0.656289 0.27906,-1.059364 0.28422,-0.408242 0.80615,-0.640785 0.52709,-0.232543 1.26606,-0.315225 0.73897,-0.08268 1.58647,-0.124024 v -0.149861 q 0,-0.330728 -0.11886,-0.547768 -0.11369,-0.21704 -0.33073,-0.341064 -0.2067,-0.118855 -0.49609,-0.160196 -0.28939,-0.04134 -0.60461,-0.04134 -0.38241,0 -0.85266,0.103353 -0.47026,0.09818 -0.97151,0.289387 h -0.0517 v -0.987017 q 0.28422,-0.07751 0.82165,-0.170532 0.53743,-0.09302 1.05937,-0.09302 0.60977,0 1.05936,0.103353 0.45475,0.09818 0.78548,0.341063 0.32556,0.237711 0.49609,0.614947 0.17053,0.377237 0.17053,0.935341 z m -0.96634,-1.421097 v -1.607132 q -0.44442,0.02584 -1.04903,0.07751 -0.59945,0.05168 -0.95085,0.149861 -0.41857,0.118856 -0.67696,0.372069 -0.25838,0.248047 -0.25838,0.687295 0,0.496092 0.29973,0.749306 0.29972,0.248046 0.91467,0.248046 0.51159,0 0.93534,-0.19637 0.42374,-0.201537 0.78548,-0.480589 z m -5.45184,1.421097 h -0.97152 v -8.040827 h 0.97152 z m -2.49596,-2.930044 q 0,0.723467 -0.20671,1.302242 -0.20154,0.578774 -0.54777,0.971513 -0.3669,0.408243 -0.80615,0.614948 -0.43925,0.201537 -0.96634,0.201537 -0.49093,0 -0.85783,-0.118855 -0.3669,-0.113688 -0.72347,-0.310058 l -0.062,0.268717 h -0.9095 v -8.040827 h 0.97151 v 2.8732 q 0.40825,-0.335895 0.86816,-0.547768 0.45992,-0.217041 1.03353,-0.217041 1.02319,0 1.6123,0.78548 0.59428,0.785479 0.59428,2.216912 z m -1.00252,0.02584 q 0,-1.033526 -0.34107,-1.565791 -0.34106,-0.537433 -1.1007,-0.537433 -0.42375,0 -0.85783,0.186034 -0.43408,0.180867 -0.80615,0.470254 v 3.307281 q 0.41341,0.186035 0.70797,0.258382 0.29972,0.07235 0.67696,0.07235 0.80615,0 1.2609,-0.527098 0.45992,-0.532266 0.45992,-1.663976 z m -9.3069,0.02067 q 0,1.410762 -0.72346,2.227247 -0.72347,0.816485 -1.93786,0.816485 -1.22473,0 -1.9482,-0.816485 -0.7183,-0.816485 -0.7183,-2.227247 0,-1.410762 0.7183,-2.227247 0.72347,-0.821653 1.9482,-0.821653 1.21439,0 1.93786,0.821653 0.72346,0.816485 0.72346,2.227247 z m -1.00252,0 q 0,-1.121375 -0.43924,-1.663976 -0.43925,-0.547768 -1.21956,-0.547768 -0.79065,0 -1.2299,0.547768 -0.43408,0.542601 -0.43408,1.663976 0,1.085202 0.43925,1.648473 0.43925,0.558104 1.22473,0.558104 0.77514,0 1.21439,-0.552936 0.44441,-0.558104 0.44441,-1.653641 z m -5.09528,2.83186 q -0.27388,0.07235 -0.59944,0.118855 -0.3204,0.04651 -0.57361,0.04651 -0.88366,0 -1.34358,-0.475422 -0.45992,-0.475422 -0.45992,-1.52445 v -3.06957 h -0.65629 v -0.816485 h 0.65629 v -1.658808 h 0.97151 v 1.658808 h 2.00504 v 0.816485 h -2.00504 v 2.630322 q 0,0.454751 0.0207,0.713132 0.0207,0.253214 0.1447,0.475422 0.11368,0.206705 0.31005,0.30489 0.20154,0.09302 0.60978,0.09302 0.23771,0 0.4961,-0.06718 0.25838,-0.07235 0.37206,-0.118855 h 0.0517 z m -8.11317,-1.6123 q 0,0.790647 -0.65629,1.297075 -0.65112,0.506427 -1.78283,0.506427 -0.64079,0 -1.17822,-0.149861 -0.53227,-0.155029 -0.894,-0.335896 v -1.090369 h 0.0517 q 0.45991,0.346231 1.02319,0.552936 0.56327,0.201537 1.08003,0.201537 0.64079,0 1.00252,-0.206705 0.36173,-0.206705 0.36173,-0.651121 0,-0.341063 -0.19637,-0.516762 -0.19637,-0.1757 -0.75447,-0.299723 -0.2067,-0.04651 -0.5426,-0.10852 -0.33073,-0.06201 -0.60461,-0.134358 -0.75964,-0.201538 -1.08004,-0.58911 -0.31522,-0.392739 -0.31522,-0.961178 0,-0.356567 0.14469,-0.671792 0.14986,-0.315225 0.44959,-0.563271 0.28938,-0.242879 0.7338,-0.382404 0.44958,-0.144694 1.00252,-0.144694 0.51676,0 1.04386,0.129191 0.53226,0.124023 0.88366,0.30489 v 1.038693 h -0.0517 q -0.37207,-0.273885 -0.90434,-0.459919 -0.53226,-0.191202 -1.04386,-0.191202 -0.53226,0 -0.89917,0.206705 -0.3669,0.201537 -0.3669,0.604612 0,0.356566 0.22221,0.537433 0.21704,0.180867 0.7028,0.294555 0.26871,0.06201 0.59944,0.124023 0.3359,0.06201 0.55811,0.113688 0.67696,0.155029 1.04386,0.532265 0.3669,0.382405 0.3669,1.012855 z m -5.04877,-3.0489 h -0.0517 q -0.21704,-0.05168 -0.42374,-0.07235 -0.20154,-0.02584 -0.48059,-0.02584 -0.44959,0 -0.86816,0.201537 -0.41858,0.19637 -0.80615,0.511595 v 4.097928 h -0.97152 v -5.772239 h 0.97152 v 0.852658 q 0.57877,-0.465086 1.01802,-0.656288 0.44441,-0.19637 0.90433,-0.19637 0.25322,0 0.3669,0.0155 0.11369,0.01033 0.34107,0.04651 z m -5.11079,1.82934 q 0,1.410762 -0.72346,2.227247 -0.72347,0.816485 -1.93786,0.816485 -1.22473,0 -1.9482,-0.816485 -0.7183,-0.816485 -0.7183,-2.227247 0,-1.410762 0.7183,-2.227247 0.72347,-0.821653 1.9482,-0.821653 1.21439,0 1.93786,0.821653 0.72346,0.816485 0.72346,2.227247 z m -1.00252,0 q 0,-1.121375 -0.43924,-1.663976 -0.43925,-0.547768 -1.21956,-0.547768 -0.79065,0 -1.2299,0.547768 -0.43408,0.542601 -0.43408,1.663976 0,1.085202 0.43925,1.648473 0.43925,0.558104 1.22473,0.558104 0.77514,0 1.21439,-0.552936 0.44441,-0.558104 0.44441,-1.653641 z m -5.84976,2.883536 h -0.97151 v -8.040827 h 0.97151 z m -2.49079,-2.883536 q 0,1.410762 -0.72347,2.227247 -0.72347,0.816485 -1.93786,0.816485 -1.22473,0 -1.9482,-0.816485 -0.7183,-0.816485 -0.7183,-2.227247 0,-1.410762 0.7183,-2.227247 0.72347,-0.821653 1.9482,-0.821653 1.21439,0 1.93786,0.821653 0.72347,0.816485 0.72347,2.227247 z m -1.00252,0 q 0,-1.121375 -0.43925,-1.663976 -0.43925,-0.547768 -1.21956,-0.547768 -0.79065,0 -1.2299,0.547768 -0.43408,0.542601 -0.43408,1.663976 0,1.085202 0.43925,1.648473 0.43925,0.558104 1.22473,0.558104 0.77514,0 1.21439,-0.552936 0.44442,-0.558104 0.44442,-1.653641 z m -5.16763,2.521802 q -0.48576,0.232543 -0.92501,0.361734 -0.43408,0.129191 -0.925,0.129191 -0.62529,0 -1.14722,-0.180867 -0.52193,-0.186035 -0.894,-0.558104 -0.37723,-0.372069 -0.58394,-0.940508 -0.2067,-0.568439 -0.2067,-1.32808 0,-1.41593 0.77514,-2.22208 0.78031,-0.806149 2.05672,-0.806149 0.49609,0 0.97151,0.139526 0.48059,0.139525 0.8785,0.341063 v 1.080034 h -0.0517 q -0.44441,-0.346231 -0.91984,-0.532266 -0.47025,-0.186034 -0.91983,-0.186034 -0.82682,0 -1.30741,0.558103 -0.47543,0.552937 -0.47543,1.627803 0,1.043861 0.46509,1.607132 0.47026,0.558104 1.31775,0.558104 0.29455,0 0.59944,-0.07751 0.30489,-0.07751 0.54777,-0.201537 0.21187,-0.10852 0.39791,-0.227376 0.18603,-0.124023 0.29455,-0.211873 h 0.0517 z m -9.90117,-0.294555 q 0,1.467606 -0.66662,2.154901 -0.66663,0.687294 -2.05155,0.687294 -0.45992,0 -0.89917,-0.06718 -0.43408,-0.06201 -0.85782,-0.180867 V 79.18671 h 0.0517 q 0.23771,0.09302 0.75448,0.227375 0.51676,0.139526 1.03352,0.139526 0.49609,0 0.82166,-0.118855 0.32556,-0.118856 0.50642,-0.330728 0.18087,-0.201538 0.25838,-0.485757 0.0775,-0.28422 0.0775,-0.635618 v -0.527098 q -0.43925,0.351398 -0.84232,0.527098 -0.39791,0.170531 -1.01803,0.170531 -1.03352,0 -1.6433,-0.744138 -0.60461,-0.749306 -0.60461,-2.108392 0,-0.744138 0.2067,-1.281571 0.21187,-0.542601 0.57361,-0.93534 0.33589,-0.366902 0.81648,-0.568439 0.48059,-0.206706 0.95601,-0.206706 0.50126,0 0.83716,0.103353 0.34106,0.09819 0.7183,0.30489 l 0.062,-0.248046 h 0.9095 z m -0.97151,-0.930172 v -3.147085 q -0.38757,-0.175699 -0.72347,-0.248046 -0.33073,-0.07752 -0.66146,-0.07752 -0.80098,0 -1.2609,0.537434 -0.45992,0.537433 -0.45992,1.560623 0,0.971514 0.34107,1.472774 0.34106,0.501259 1.13171,0.501259 0.42374,0 0.84749,-0.160196 0.42891,-0.165364 0.78548,-0.439248 z m -5.58104,1.586461 h -0.97152 v -3.286611 q 0,-0.397907 -0.0465,-0.744138 -0.0465,-0.351398 -0.17053,-0.547768 -0.12919,-0.217041 -0.37207,-0.320393 -0.24288,-0.10852 -0.63045,-0.10852 -0.39791,0 -0.83199,0.19637 -0.43408,0.196369 -0.83198,0.501259 v 4.309801 h -0.97152 v -5.772239 h 0.97152 v 0.640786 q 0.45475,-0.377237 0.9405,-0.58911 0.48576,-0.211873 0.99736,-0.211873 0.93534,0 1.42626,0.563272 0.49093,0.563271 0.49093,1.622635 z m -6.69724,-6.738585 h -1.09554 v -1.007688 h 1.09554 z m -0.062,6.738585 h -0.97152 v -5.772239 h 0.97152 z m -2.16009,-0.05168 q -0.27388,0.07235 -0.59944,0.118855 -0.32039,0.04651 -0.57361,0.04651 -0.88366,0 -1.34358,-0.475422 -0.45992,-0.475422 -0.45992,-1.52445 v -3.06957 h -0.65629 v -0.816485 h 0.65629 v -1.658808 h 0.97152 v 1.658808 h 2.00503 v 0.816485 h -2.00503 v 2.630322 q 0,0.454751 0.0207,0.713132 0.0207,0.253214 0.14469,0.475422 0.11369,0.206705 0.31006,0.30489 0.20153,0.09302 0.60978,0.09302 0.23771,0 0.49609,-0.06718 0.25838,-0.07235 0.37207,-0.118855 h 0.0517 z m -4.17543,0 q -0.27389,0.07235 -0.59945,0.118855 -0.32039,0.04651 -0.5736,0.04651 -0.88367,0 -1.34359,-0.475422 -0.45992,-0.475422 -0.45992,-1.52445 v -3.06957 h -0.65629 v -0.816485 h 0.65629 v -1.658808 h 0.97152 v 1.658808 h 2.00504 v 0.816485 h -2.00504 v 2.630322 q 0,0.454751 0.0207,0.713132 0.0207,0.253214 0.14469,0.475422 0.11369,0.206705 0.31006,0.30489 0.20154,0.09302 0.60978,0.09302 0.23771,0 0.49609,-0.06718 0.25838,-0.07235 0.37207,-0.118855 h 0.0517 z m -4.47,-2.733675 h -4.25296 q 0,0.532266 0.1602,0.930173 0.1602,0.39274 0.43925,0.645953 0.26871,0.248046 0.63562,0.372069 0.37206,0.124024 0.81648,0.124024 0.58911,0 1.18339,-0.232544 0.59944,-0.237711 0.85266,-0.465086 h 0.0517 v 1.059363 q -0.49092,0.206705 -1.00252,0.346231 -0.51159,0.139526 -1.07486,0.139526 -1.4366,0 -2.24275,-0.775144 -0.80615,-0.780311 -0.80615,-2.211744 0,-1.41593 0.76997,-2.247918 0.77515,-0.831988 2.03605,-0.831988 1.16788,0 1.79833,0.682127 0.63562,0.682127 0.63562,1.93786 z m -0.94568,-0.744138 q -0.005,-0.764809 -0.38757,-1.183387 -0.37723,-0.418577 -1.15238,-0.418577 -0.78031,0 -1.2454,0.459918 -0.45992,0.459919 -0.52193,1.142046 z m -5.28131,1.865513 q 0,0.790647 -0.65629,1.297075 -0.65112,0.506427 -1.78283,0.506427 -0.64079,0 -1.17822,-0.149861 -0.53227,-0.155029 -0.894,-0.335896 v -1.090369 h 0.0517 q 0.45991,0.346231 1.02319,0.552936 0.56327,0.201537 1.08003,0.201537 0.64078,0 1.00252,-0.206705 0.36173,-0.206705 0.36173,-0.651121 0,-0.341063 -0.19637,-0.516762 -0.19637,-0.1757 -0.75447,-0.299723 -0.20671,-0.04651 -0.5426,-0.10852 -0.33073,-0.06201 -0.60461,-0.134358 -0.75964,-0.201538 -1.08004,-0.58911 -0.31522,-0.392739 -0.31522,-0.961178 0,-0.356567 0.14469,-0.671792 0.14986,-0.315225 0.44958,-0.563271 0.28939,-0.242879 0.73381,-0.382404 0.44958,-0.144694 1.00252,-0.144694 0.51676,0 1.04386,0.129191 0.53226,0.124023 0.88366,0.30489 v 1.038693 h -0.0517 q -0.37207,-0.273885 -0.90434,-0.459919 -0.53227,-0.191202 -1.04386,-0.191202 -0.53227,0 -0.89917,0.206705 -0.3669,0.201537 -0.3669,0.604612 0,0.356566 0.22221,0.537433 0.21704,0.180867 0.7028,0.294555 0.26871,0.06201 0.59944,0.124023 0.3359,0.06201 0.5581,0.113688 0.67696,0.155029 1.04387,0.532265 0.3669,0.382405 0.3669,1.012855 z m -9.6738,0.191202 -1.45727,3.384796 h -0.75448 l 0.89917,-3.384796 z m -3.48815,-1.312577 h -4.25296 q 0,0.532266 0.1602,0.930173 0.1602,0.39274 0.43925,0.645953 0.26872,0.248046 0.63562,0.372069 0.37207,0.124024 0.81648,0.124024 0.58911,0 1.18339,-0.232544 0.59944,-0.237711 0.85266,-0.465086 h 0.0517 v 1.059363 q -0.49092,0.206705 -1.00252,0.346231 -0.51159,0.139526 -1.07486,0.139526 -1.4366,0 -2.24275,-0.775144 -0.80615,-0.780311 -0.80615,-2.211744 0,-1.41593 0.76997,-2.247918 0.77515,-0.831988 2.03605,-0.831988 1.16788,0 1.79833,0.682127 0.63562,0.682127 0.63562,1.93786 z m -0.94567,-0.744138 q -0.005,-0.764809 -0.38758,-1.183387 -0.37723,-0.418577 -1.15238,-0.418577 -0.78031,0 -1.2454,0.459918 -0.45991,0.459919 -0.52193,1.142046 z m -5.79809,3.529489 h -0.97151 v -0.604612 q -0.41858,0.361734 -0.87333,0.563271 -0.45475,0.201537 -0.98701,0.201537 -1.03353,0 -1.64331,-0.795814 -0.60461,-0.795815 -0.60461,-2.206577 0,-0.733803 0.2067,-1.307409 0.21188,-0.573607 0.56844,-0.976682 0.3514,-0.392739 0.81649,-0.599444 0.47025,-0.206706 0.97151,-0.206706 0.45475,0 0.80615,0.09819 0.3514,0.09302 0.73897,0.294555 v -2.501131 h 0.97151 z m -0.97151,-1.421097 v -3.312449 q -0.39274,-0.175699 -0.7028,-0.242879 -0.31005,-0.06718 -0.67696,-0.06718 -0.81648,0 -1.27123,0.568439 -0.45475,0.568439 -0.45475,1.6123 0,1.028358 0.3514,1.565791 0.35139,0.532265 1.12654,0.532265 0.41341,0 0.83715,-0.180867 0.42375,-0.186034 0.79065,-0.47542 z m -5.2193,-1.462439 q 0,1.410762 -0.72347,2.227247 -0.72347,0.816485 -1.93786,0.816485 -1.22473,0 -1.9482,-0.816485 -0.7183,-0.816485 -0.7183,-2.227247 0,-1.410762 0.7183,-2.227247 0.72347,-0.821653 1.9482,-0.821653 1.21439,0 1.93786,0.821653 0.72347,0.816485 0.72347,2.227247 z m -1.00252,0 q 0,-1.121375 -0.43925,-1.663976 -0.43925,-0.547768 -1.21956,-0.547768 -0.79065,0 -1.2299,0.547768 -0.43408,0.542601 -0.43408,1.663976 0,1.085202 0.43925,1.648473 0.43925,0.558104 1.22473,0.558104 0.77514,0 1.21439,-0.552936 0.44442,-0.558104 0.44442,-1.653641 z m -5.16762,2.521802 q -0.48576,0.232543 -0.92501,0.361734 -0.43408,0.129191 -0.925,0.129191 -0.62529,0 -1.147217,-0.180867 -0.52193,-0.186035 -0.893999,-0.558104 -0.377237,-0.372069 -0.583942,-0.940508 -0.206705,-0.568439 -0.206705,-1.32808 0,-1.41593 0.775144,-2.22208 0.780311,-0.806149 2.056719,-0.806149 0.49609,0 0.97151,0.139526 0.48059,0.139525 0.8785,0.341063 v 1.080034 h -0.0517 q -0.44442,-0.346231 -0.91984,-0.532266 -0.47025,-0.186034 -0.91983,-0.186034 -0.826825,0 -1.307414,0.558103 -0.475422,0.552937 -0.475422,1.627803 0,1.043861 0.465086,1.607132 0.470254,0.558104 1.31775,0.558104 0.29455,0 0.59944,-0.07751 0.30489,-0.07751 0.54777,-0.201537 0.21187,-0.10852 0.39791,-0.227376 0.18603,-0.124023 0.29455,-0.211873 h 0.0517 z m -8.903824,0.361734 h -1.32808 L 89.716938,75.181799 H 88.27517 v 3.059235 h -1.02319 v -7.694596 h 2.1549 q 0.69763,0 1.162716,0.09302 0.465087,0.08785 0.837156,0.320393 0.418577,0.263549 0.651121,0.666624 0.23771,0.397907 0.23771,1.012855 0,0.831988 -0.418577,1.395259 -0.418578,0.558104 -1.152381,0.842323 z m -2.392611,-5.529361 q 0,-0.330728 -0.118856,-0.583941 -0.113687,-0.258382 -0.382404,-0.434081 -0.222208,-0.149861 -0.527098,-0.206705 -0.30489,-0.06201 -0.7183,-0.06201 H 88.27517 v 2.904207 h 1.033525 q 0.485757,0 0.847491,-0.08268 0.361734,-0.08785 0.614948,-0.320393 0.232543,-0.217041 0.341063,-0.496092 0.113688,-0.28422 0.113688,-0.718301 z m -5.441512,7.415545 q -0.310058,0.07751 -0.614948,0.10852 -0.299722,0.03617 -0.614948,0.03617 -0.899167,0 -1.446935,-0.496092 -0.542601,-0.490924 -0.58911,-1.410762 -0.124023,0.02067 -0.242878,0.02584 -0.113688,0.01033 -0.222208,0.01033 -0.811317,0 -1.477941,-0.268716 -0.661456,-0.268717 -1.126543,-0.780312 -0.465086,-0.511595 -0.7183,-1.255733 -0.248046,-0.744138 -0.248046,-1.700149 0,-0.940508 0.248046,-1.684647 0.248046,-0.749306 0.723468,-1.281571 0.454751,-0.506427 1.126542,-0.775144 0.67696,-0.268717 1.472774,-0.268717 0.82682,0 1.483109,0.273885 0.661456,0.268716 1.121375,0.769976 0.470254,0.516763 0.7183,1.266069 0.253214,0.749305 0.253214,1.700149 0,1.410762 -0.578774,2.377108 -0.573607,0.966346 -1.545121,1.353918 0.02067,0.58911 0.279052,0.91467 0.258381,0.325561 0.940508,0.325561 0.211873,0 0.50126,-0.06718 0.294555,-0.06201 0.418578,-0.113688 h 0.139526 z m -1.21956,-5.730898 q 0,-1.498612 -0.671792,-2.309929 -0.671791,-0.816485 -1.834507,-0.816485 -1.173052,0 -1.844843,0.816485 -0.666624,0.811317 -0.666624,2.309929 0,1.514114 0.682127,2.320264 0.682127,0.800982 1.82934,0.800982 1.147213,0 1.824172,-0.800982 0.682127,-0.80615 0.682127,-2.320264 z m -11.322271,3.844714 h -0.966346 v -0.614948 q -0.129191,0.08785 -0.351399,0.248047 -0.21704,0.155028 -0.423745,0.248046 -0.242879,0.118855 -0.558104,0.196369 -0.315225,0.08268 -0.73897,0.08268 -0.780312,0 -1.322913,-0.516762 -0.542601,-0.516763 -0.542601,-1.317745 0,-0.656289 0.279052,-1.059364 0.28422,-0.408242 0.80615,-0.640785 0.527098,-0.232543 1.266068,-0.315225 0.738971,-0.08268 1.586462,-0.124024 v -0.149861 q 0,-0.330728 -0.118856,-0.547768 -0.113687,-0.21704 -0.330728,-0.341064 -0.206705,-0.118855 -0.496092,-0.160196 -0.289387,-0.04134 -0.604612,-0.04134 -0.382405,0 -0.852659,0.103353 -0.470254,0.09818 -0.971513,0.289387 h -0.05168 v -0.987017 q 0.28422,-0.07751 0.821653,-0.170532 0.537433,-0.09302 1.059363,-0.09302 0.60978,0 1.059364,0.103353 0.454751,0.09818 0.785479,0.341063 0.325561,0.237711 0.496092,0.614947 0.170532,0.377237 0.170532,0.935341 z m -0.966346,-1.421097 v -1.607132 q -0.444416,0.02584 -1.049028,0.07751 -0.599445,0.05168 -0.950844,0.149861 -0.418577,0.118856 -0.676959,0.372069 -0.258381,0.248047 -0.258381,0.687295 0,0.496092 0.299722,0.749306 0.299723,0.248046 0.91467,0.248046 0.511595,0 0.935341,-0.19637 0.423745,-0.201537 0.785479,-0.480589 z M 63.563577,75.455683 H 59.31062 q 0,0.532266 0.160197,0.930173 0.160196,0.39274 0.439248,0.645953 0.268716,0.248046 0.635618,0.372069 0.372069,0.124024 0.816485,0.124024 0.589109,0 1.183387,-0.232544 0.599444,-0.237711 0.852658,-0.465086 h 0.05168 v 1.059363 q -0.490924,0.206705 -1.002519,0.346231 -0.511595,0.139526 -1.074867,0.139526 -1.4366,0 -2.24275,-0.775144 -0.80615,-0.780311 -0.80615,-2.211744 0,-1.41593 0.769977,-2.247918 0.775144,-0.831988 2.036045,-0.831988 1.167883,0 1.798334,0.682127 0.635618,0.682127 0.635618,1.93786 z m -0.945676,-0.744138 q -0.0052,-0.764809 -0.387572,-1.183387 -0.377236,-0.418577 -1.15238,-0.418577 -0.780312,0 -1.245399,0.459918 -0.459918,0.459919 -0.52193,1.142046 z m -5.064273,3.477813 q -0.273884,0.07235 -0.599445,0.118855 -0.320393,0.04651 -0.573606,0.04651 -0.883665,0 -1.343583,-0.475422 -0.459919,-0.475422 -0.459919,-1.52445 v -3.06957 h -0.656289 v -0.816485 h 0.656289 v -1.658808 h 0.971514 v 1.658808 h 2.005039 v 0.816485 h -2.005039 v 2.630322 q 0,0.454751 0.02067,0.713132 0.02067,0.253214 0.144694,0.475422 0.113687,0.206705 0.310057,0.30489 0.201538,0.09302 0.60978,0.09302 0.237711,0 0.496092,-0.06718 0.258382,-0.07235 0.37207,-0.118855 h 0.05168 z m -4.87824,0.05168 h -0.966346 v -0.614948 q -0.129191,0.08785 -0.351399,0.248047 -0.21704,0.155028 -0.423745,0.248046 -0.242879,0.118855 -0.558104,0.196369 -0.315225,0.08268 -0.73897,0.08268 -0.780312,0 -1.322913,-0.516762 -0.542601,-0.516763 -0.542601,-1.317745 0,-0.656289 0.279052,-1.059364 0.28422,-0.408242 0.80615,-0.640785 0.527098,-0.232543 1.266069,-0.315225 0.73897,-0.08268 1.586461,-0.124024 v -0.149861 q 0,-0.330728 -0.118855,-0.547768 -0.113688,-0.21704 -0.330729,-0.341064 -0.206705,-0.118855 -0.496092,-0.160196 -0.289387,-0.04134 -0.604612,-0.04134 -0.382404,0 -0.852658,0.103353 -0.470255,0.09818 -0.971514,0.289387 h -0.05168 v -0.987017 q 0.28422,-0.07751 0.821653,-0.170532 0.537433,-0.09302 1.059364,-0.09302 0.60978,0 1.059363,0.103353 0.454751,0.09818 0.785479,0.341063 0.325561,0.237711 0.496092,0.614947 0.170532,0.377237 0.170532,0.935341 z m -0.966346,-1.421097 v -1.607132 q -0.444416,0.02584 -1.049028,0.07751 -0.599445,0.05168 -0.950844,0.149861 -0.418577,0.118856 -0.676959,0.372069 -0.258381,0.248047 -0.258381,0.687295 0,0.496092 0.299722,0.749306 0.299723,0.248046 0.91467,0.248046 0.511595,0 0.935341,-0.19637 0.423745,-0.201537 0.785479,-0.480589 z m -4.44416,-3.291779 h -0.05168 q -0.217041,-0.05168 -0.423746,-0.07235 -0.201537,-0.02584 -0.480589,-0.02584 -0.449584,0 -0.868161,0.201537 -0.418578,0.19637 -0.80615,0.511595 v 4.097928 h -0.971514 v -5.772239 h 0.971514 v 0.852658 q 0.578774,-0.465086 1.018022,-0.656288 0.444416,-0.19637 0.904335,-0.19637 0.253214,0 0.366902,0.0155 0.113687,0.01033 0.341063,0.04651 z m -5.074611,1.927525 h -4.252957 q 0,0.532266 0.160196,0.930173 0.160197,0.39274 0.439249,0.645953 0.268716,0.248046 0.635618,0.372069 0.372069,0.124024 0.816485,0.124024 0.589109,0 1.183386,-0.232544 0.599445,-0.237711 0.852659,-0.465086 h 0.05168 v 1.059363 q -0.490925,0.206705 -1.00252,0.346231 -0.511595,0.139526 -1.074866,0.139526 -1.4366,0 -2.24275,-0.775144 -0.80615,-0.780311 -0.80615,-2.211744 0,-1.41593 0.769977,-2.247918 0.775144,-0.831988 2.036045,-0.831988 1.167883,0 1.798334,0.682127 0.635618,0.682127 0.635618,1.93786 z m -0.945676,-0.744138 q -0.0052,-0.764809 -0.387572,-1.183387 -0.377237,-0.418577 -1.152381,-0.418577 -0.780311,0 -1.245398,0.459918 -0.459919,0.459919 -0.52193,1.142046 z m -5.756735,3.529489 h -0.971513 v -3.286611 q 0,-0.397907 -0.04651,-0.744138 -0.04651,-0.351398 -0.170532,-0.547768 -0.12919,-0.217041 -0.372069,-0.320393 -0.242878,-0.10852 -0.63045,-0.10852 -0.397908,0 -0.831988,0.19637 -0.434081,0.196369 -0.831988,0.501259 v 4.309801 h -0.971514 v -5.772239 h 0.971514 v 0.640786 q 0.454751,-0.377237 0.940508,-0.58911 0.485757,-0.211873 0.997352,-0.211873 0.93534,0 1.426265,0.563272 0.490924,0.563271 0.490924,1.622635 z m -6.299337,-2.785351 h -4.252957 q 0,0.532266 0.160196,0.930173 0.160197,0.39274 0.439249,0.645953 0.268716,0.248046 0.635618,0.372069 0.372069,0.124024 0.816485,0.124024 0.589109,0 1.183386,-0.232544 0.599445,-0.237711 0.852659,-0.465086 h 0.05168 v 1.059363 q -0.490925,0.206705 -1.00252,0.346231 -0.511595,0.139526 -1.074866,0.139526 -1.4366,0 -2.24275,-0.775144 -0.80615,-0.780311 -0.80615,-2.211744 0,-1.41593 0.769977,-2.247918 0.775144,-0.831988 2.036044,-0.831988 1.167884,0 1.798335,0.682127 0.635618,0.682127 0.635618,1.93786 z m -0.945676,-0.744138 q -0.0052,-0.764809 -0.387572,-1.183387 -0.377237,-0.418577 -1.152381,-0.418577 -0.780311,0 -1.245398,0.459918 -0.459919,0.459919 -0.52193,1.142046 z m -5.59654,2.96105 q -0.63045,0.289387 -1.379756,0.506428 -0.744138,0.211872 -1.441768,0.211872 -0.899167,0 -1.648473,-0.248046 -0.749306,-0.248046 -1.276404,-0.744138 -0.532265,-0.50126 -0.821652,-1.250566 -0.289387,-0.754473 -0.289387,-1.762161 0,-1.844842 1.074866,-2.909373 1.080034,-1.069699 2.96105,-1.069699 0.656289,0 1.338416,0.160196 0.687294,0.155029 1.477941,0.532266 v 1.214392 h -0.09302 q -0.160197,-0.124023 -0.465087,-0.32556 -0.30489,-0.201538 -0.599445,-0.335896 -0.356566,-0.160197 -0.811317,-0.263549 -0.449584,-0.10852 -1.02319,-0.10852 -1.291907,0 -2.04638,0.831988 -0.749306,0.82682 -0.749306,2.24275 0,1.493444 0.785479,2.325432 0.785479,0.82682 2.139398,0.82682 0.496092,0 0.987016,-0.09819 0.496092,-0.09819 0.868162,-0.253214 v -1.886183 h -2.061884 v -0.899167 h 3.074738 z m 206.508703,-20.701513 -3.70518,9.611786 h -0.894 l 3.68968,-9.611786 z m -5.35883,8.040827 h -0.97151 v -3.28661 q 0,-0.372069 -0.0362,-0.7183 -0.031,-0.346231 -0.13953,-0.552936 -0.11886,-0.222208 -0.34106,-0.335896 -0.22221,-0.113688 -0.64079,-0.113688 -0.40824,0 -0.81648,0.206705 -0.40825,0.201538 -0.81649,0.516763 0.0155,0.118855 0.0258,0.279052 0.0103,0.155029 0.0103,0.310057 v 3.694853 h -0.97151 v -3.28661 q 0,-0.382405 -0.0362,-0.723468 -0.031,-0.346231 -0.13953,-0.552936 -0.11885,-0.222208 -0.34106,-0.330728 -0.22221,-0.113688 -0.64079,-0.113688 -0.39791,0 -0.80098,0.19637 -0.39791,0.19637 -0.79581,0.50126 v 4.3098 h -0.97152 V 59.23967 h 0.97152 v 0.640786 q 0.45475,-0.377237 0.90433,-0.589109 0.45475,-0.211873 0.96635,-0.211873 0.58911,0 0.99735,0.248046 0.41341,0.248046 0.61495,0.687294 0.58911,-0.496092 1.07486,-0.713132 0.48576,-0.222208 1.0387,-0.222208 0.95084,0 1.40042,0.578774 0.45475,0.573607 0.45475,1.607132 z M 213.864,62.128374 q 0,1.410762 -0.72346,2.227247 -0.72347,0.816485 -1.93786,0.816485 -1.22473,0 -1.9482,-0.816485 -0.7183,-0.816485 -0.7183,-2.227247 0,-1.410762 0.7183,-2.227247 0.72347,-0.821653 1.9482,-0.821653 1.21439,0 1.93786,0.821653 0.72346,0.816485 0.72346,2.227247 z m -1.00252,0 q 0,-1.121375 -0.43924,-1.663976 -0.43925,-0.547769 -1.21956,-0.547769 -0.79065,0 -1.2299,0.547769 -0.43408,0.542601 -0.43408,1.663976 0,1.085201 0.43925,1.648473 0.43925,0.558103 1.22473,0.558103 0.77514,0 1.21439,-0.552936 0.44441,-0.558103 0.44441,-1.65364 z m -5.16762,2.521802 q -0.48576,0.232543 -0.92501,0.361733 -0.43408,0.129191 -0.925,0.129191 -0.62529,0 -1.14722,-0.180867 -0.52193,-0.186034 -0.894,-0.558103 -0.37723,-0.37207 -0.58394,-0.940509 -0.2067,-0.568438 -0.2067,-1.32808 0,-1.415929 0.77514,-2.222079 0.78031,-0.80615 2.05672,-0.80615 0.49609,0 0.97151,0.139526 0.48059,0.139526 0.8785,0.341063 v 1.080034 h -0.0517 q -0.44442,-0.346231 -0.91984,-0.532265 -0.47025,-0.186035 -0.91984,-0.186035 -0.82682,0 -1.30741,0.558104 -0.47542,0.552936 -0.47542,1.627802 0,1.043861 0.46509,1.607132 0.47025,0.558104 1.31774,0.558104 0.29456,0 0.59945,-0.07751 0.30489,-0.07751 0.54777,-0.201538 0.21187,-0.10852 0.3979,-0.227375 0.18604,-0.124023 0.29456,-0.211873 h 0.0517 z m -6.52671,0.361733 h -1.23507 v -1.472773 h 1.23507 z m -2.85771,-5.772239 -3.36929,7.901302 h -1.03869 l 1.07486,-2.408114 -2.29959,-5.493188 h 1.0542 l 1.77249,4.278795 1.788,-4.278795 z m -6.4647,2.986889 h -4.25295 q 0,0.532265 0.16019,0.930172 0.1602,0.39274 0.43925,0.645954 0.26872,0.248046 0.63562,0.372069 0.37207,0.124023 0.81648,0.124023 0.58911,0 1.18339,-0.232543 0.59945,-0.237711 0.85266,-0.465087 h 0.0517 v 1.059364 q -0.49093,0.206705 -1.00252,0.346231 -0.5116,0.139526 -1.07487,0.139526 -1.4366,0 -2.24275,-0.775144 -0.80615,-0.780312 -0.80615,-2.211744 0,-1.41593 0.76998,-2.247918 0.77514,-0.831988 2.03604,-0.831988 1.16788,0 1.79834,0.682127 0.63561,0.682126 0.63561,1.93786 z m -0.94567,-0.744139 q -0.005,-0.764808 -0.38757,-1.183386 -0.37724,-0.418578 -1.15239,-0.418578 -0.78031,0 -1.24539,0.459919 -0.45992,0.459919 -0.52193,1.142045 z m -4.90925,3.529489 h -1.28157 l -2.3151,-2.526969 -0.63045,0.599445 v 1.927524 h -0.97152 v -8.040827 h 0.97152 v 5.157292 l 2.80602,-2.888704 h 1.22473 l -2.682,2.666496 z m -7.11065,0 h -0.97151 v -3.28661 q 0,-0.397907 -0.0465,-0.744138 -0.0465,-0.351399 -0.17053,-0.547769 -0.12919,-0.21704 -0.37207,-0.320393 -0.24288,-0.10852 -0.63045,-0.10852 -0.39791,0 -0.83199,0.19637 -0.43408,0.19637 -0.83199,0.50126 v 4.3098 h -0.97151 V 59.23967 h 0.97151 v 0.640786 q 0.45475,-0.377237 0.94051,-0.589109 0.48576,-0.211873 0.99735,-0.211873 0.93534,0 1.42627,0.563271 0.49092,0.563272 0.49092,1.622635 z m -6.33551,-2.883535 q 0,1.410762 -0.72347,2.227247 -0.72346,0.816485 -1.93786,0.816485 -1.22472,0 -1.94819,-0.816485 -0.7183,-0.816485 -0.7183,-2.227247 0,-1.410762 0.7183,-2.227247 0.72347,-0.821653 1.94819,-0.821653 1.2144,0 1.93786,0.821653 0.72347,0.816485 0.72347,2.227247 z m -1.00252,0 q 0,-1.121375 -0.43925,-1.663976 -0.43924,-0.547769 -1.21956,-0.547769 -0.79064,0 -1.22989,0.547769 -0.43408,0.542601 -0.43408,1.663976 0,1.085201 0.43925,1.648473 0.43924,0.558103 1.22472,0.558103 0.77515,0 1.2144,-0.552936 0.44441,-0.558103 0.44441,-1.65364 z m -5.78774,2.883535 h -0.97152 v -3.28661 q 0,-0.372069 -0.0362,-0.7183 -0.031,-0.346231 -0.13953,-0.552936 -0.11885,-0.222208 -0.34106,-0.335896 -0.22221,-0.113688 -0.64078,-0.113688 -0.40825,0 -0.81649,0.206705 -0.40824,0.201538 -0.81648,0.516763 0.0155,0.118855 0.0258,0.279052 0.0103,0.155029 0.0103,0.310057 v 3.694853 h -0.97152 v -3.28661 q 0,-0.382405 -0.0362,-0.723468 -0.031,-0.346231 -0.13952,-0.552936 -0.11886,-0.222208 -0.34107,-0.330728 -0.22221,-0.113688 -0.64078,-0.113688 -0.39791,0 -0.80099,0.19637 -0.3979,0.19637 -0.79581,0.50126 v 4.3098 h -0.97151 V 59.23967 h 0.97151 v 0.640786 q 0.45475,-0.377237 0.90433,-0.589109 0.45476,-0.211873 0.96635,-0.211873 0.58911,0 0.99735,0.248046 0.41341,0.248046 0.61495,0.687294 0.58911,-0.496092 1.07487,-0.713132 0.48575,-0.222208 1.03869,-0.222208 0.95084,0 1.40043,0.578774 0.45475,0.573607 0.45475,1.607132 z m -10.18024,-2.899038 h -3.2246 V 61.17753 h 3.2246 z m -4.53201,0.113688 h -4.25295 q 0,0.532265 0.16019,0.930172 0.1602,0.39274 0.43925,0.645954 0.26872,0.248046 0.63562,0.372069 0.37207,0.124023 0.81649,0.124023 0.5891,0 1.18338,-0.232543 0.59945,-0.237711 0.85266,-0.465087 h 0.0517 v 1.059364 q -0.49093,0.206705 -1.00252,0.346231 -0.5116,0.139526 -1.07487,0.139526 -1.4366,0 -2.24275,-0.775144 -0.80615,-0.780312 -0.80615,-2.211744 0,-1.41593 0.76998,-2.247918 0.77514,-0.831988 2.03604,-0.831988 1.16789,0 1.79834,0.682127 0.63561,0.682126 0.63561,1.93786 z m -0.94567,-0.744139 q -0.005,-0.764808 -0.38757,-1.183386 -0.37724,-0.418578 -1.15238,-0.418578 -0.78032,0 -1.2454,0.459919 -0.45992,0.459919 -0.52193,1.142045 z m -5.79807,3.529489 h -0.97152 v -0.604612 q -0.41858,0.361734 -0.87333,0.563271 -0.45475,0.201538 -0.98701,0.201538 -1.03353,0 -1.64331,-0.795815 -0.60461,-0.795814 -0.60461,-2.206576 0,-0.733803 0.2067,-1.30741 0.21188,-0.573606 0.56844,-0.976681 0.3514,-0.39274 0.81649,-0.599445 0.47025,-0.206705 0.97151,-0.206705 0.45475,0 0.80615,0.09819 0.3514,0.09302 0.73897,0.294555 v -2.501132 h 0.97152 z m -0.97152,-1.421097 v -3.312449 q -0.39274,-0.175699 -0.7028,-0.242878 -0.31005,-0.06718 -0.67695,-0.06718 -0.81649,0 -1.27124,0.568439 -0.45475,0.568439 -0.45475,1.612299 0,1.028358 0.3514,1.565791 0.3514,0.532266 1.12654,0.532266 0.41341,0 0.83715,-0.180867 0.42375,-0.186035 0.79065,-0.475422 z m -5.2193,-1.462438 q 0,1.410762 -0.72347,2.227247 -0.72347,0.816485 -1.93786,0.816485 -1.22473,0 -1.94819,-0.816485 -0.7183,-0.816485 -0.7183,-2.227247 0,-1.410762 0.7183,-2.227247 0.72346,-0.821653 1.94819,-0.821653 1.21439,0 1.93786,0.821653 0.72347,0.816485 0.72347,2.227247 z m -1.00252,0 q 0,-1.121375 -0.43925,-1.663976 -0.43925,-0.547769 -1.21956,-0.547769 -0.79065,0 -1.22989,0.547769 -0.43408,0.542601 -0.43408,1.663976 0,1.085201 0.43924,1.648473 0.43925,0.558103 1.22473,0.558103 0.77514,0 1.21439,-0.552936 0.44442,-0.558103 0.44442,-1.65364 z m -5.16762,2.521802 q -0.48576,0.232543 -0.92501,0.361733 -0.43408,0.129191 -0.925,0.129191 -0.62529,0 -1.14722,-0.180867 -0.52193,-0.186034 -0.894,-0.558103 -0.37723,-0.37207 -0.58394,-0.940509 -0.2067,-0.568438 -0.2067,-1.32808 0,-1.415929 0.77514,-2.222079 0.78031,-0.80615 2.05672,-0.80615 0.49609,0 0.97151,0.139526 0.48059,0.139526 0.8785,0.341063 v 1.080034 h -0.0517 q -0.44441,-0.346231 -0.91984,-0.532265 -0.47025,-0.186035 -0.91983,-0.186035 -0.82682,0 -1.30741,0.558104 -0.47542,0.552936 -0.47542,1.627802 0,1.043861 0.46508,1.607132 0.47026,0.558104 1.31775,0.558104 0.29455,0 0.59944,-0.07751 0.30489,-0.07751 0.54777,-0.201538 0.21187,-0.10852 0.39791,-0.227375 0.18603,-0.124023 0.29455,-0.211873 h 0.0517 z m -5.19347,-4.351142 h -0.0517 q -0.21704,-0.05168 -0.42375,-0.07235 -0.20153,-0.02584 -0.48058,-0.02584 -0.44959,0 -0.86817,0.201537 -0.41857,0.19637 -0.80615,0.511595 v 4.097928 h -0.97151 V 59.23967 h 0.97151 v 0.852659 q 0.57878,-0.465087 1.01803,-0.656289 0.44441,-0.19637 0.90433,-0.19637 0.25321,0 0.3669,0.0155 0.11369,0.01034 0.34107,0.04651 z m -5.51386,6.841938 h -0.97151 v -2.780183 q -0.44958,0.387572 -0.894,0.578774 -0.44442,0.186034 -0.96118,0.186034 -1.02836,0 -1.6433,-0.790647 -0.60978,-0.795814 -0.60978,-2.191073 0,-0.744139 0.21187,-1.312578 0.21704,-0.573606 0.56844,-0.961178 0.34106,-0.377237 0.80098,-0.583942 0.45992,-0.206705 0.97151,-0.206705 0.46509,0 0.82166,0.103352 0.36173,0.103353 0.7338,0.30489 l 0.062,-0.248046 h 0.9095 z m -0.97151,-3.596669 v -3.26594 q -0.40308,-0.180867 -0.71313,-0.253213 -0.31006,-0.07235 -0.6718,-0.07235 -0.84232,0 -1.28157,0.573606 -0.43924,0.568439 -0.43924,1.570959 0,1.012855 0.35139,1.560623 0.35657,0.542601 1.11621,0.542601 0.42375,0 0.84749,-0.180867 0.42375,-0.186034 0.79065,-0.475422 z m -5.96861,1.467606 h -1.23506 v -1.472773 h 1.23506 z m -2.98689,-5.772239 -1.50378,5.772239 h -0.89917 l -1.48311,-4.449326 -1.47277,4.449326 h -0.894 L 103.53,59.23967 h 1.01285 l 1.05937,4.469998 1.44176,-4.469998 h 0.80099 l 1.47794,4.469998 1.00252,-4.469998 z m -8.66094,0 -1.50378,5.772239 h -0.89916 l -1.483112,-4.449326 -1.472774,4.449326 H 96.388345 L 94.869062,59.23967 h 1.012855 l 1.059364,4.469998 1.441767,-4.469998 h 0.800983 l 1.477939,4.469998 1.00252,-4.469998 z m -8.660947,0 -1.503779,5.772239 h -0.899167 l -1.483109,-4.449326 -1.472774,4.449326 H 87.727395 L 86.208113,59.23967 h 1.012854 l 1.059364,4.469998 1.441768,-4.469998 h 0.800982 l 1.477941,4.469998 1.00252,-4.469998 z m -8.58859,-2.268588 -3.705189,9.611786 h -0.893999 l 3.689685,-9.611786 z m -4.816231,0 -3.705189,9.611786 h -0.893999 l 3.689685,-9.611786 z m -6.237325,3.741362 H 73.103015 V 59.23967 h 1.235062 z m 0,4.299465 h -1.235062 v -1.472773 h 1.235062 z m -3.462308,-1.663975 q 0,0.790647 -0.656289,1.297074 -0.651121,0.506427 -1.782831,0.506427 -0.640786,0 -1.178219,-0.149861 -0.532265,-0.155029 -0.893999,-0.335896 v -1.090369 h 0.05168 q 0.459919,0.346231 1.02319,0.552936 0.563272,0.201538 1.080034,0.201538 0.640786,0 1.00252,-0.206705 0.361734,-0.206705 0.361734,-0.651121 0,-0.341064 -0.19637,-0.516763 -0.19637,-0.175699 -0.754474,-0.299722 -0.206705,-0.04651 -0.5426,-0.10852 -0.330729,-0.06201 -0.604613,-0.134359 -0.759641,-0.201537 -1.080034,-0.589109 -0.315225,-0.39274 -0.315225,-0.961179 0,-0.356566 0.144694,-0.671791 0.149861,-0.315226 0.449583,-0.563272 0.289387,-0.242878 0.733803,-0.382404 0.449584,-0.144694 1.00252,-0.144694 0.516762,0 1.04386,0.129191 0.532266,0.124023 0.883664,0.30489 v 1.038693 h -0.05168 q -0.372069,-0.273884 -0.904335,-0.459919 -0.532265,-0.191202 -1.04386,-0.191202 -0.532266,0 -0.899167,0.206705 -0.366902,0.201538 -0.366902,0.604613 0,0.356566 0.222208,0.537433 0.217041,0.180867 0.702798,0.294554 0.268716,0.06201 0.599444,0.124023 0.335896,0.06201 0.558104,0.113688 0.676959,0.155029 1.043861,0.532266 0.366901,0.382404 0.366901,1.012855 z m -5.637884,-1.291907 q 0,0.702797 -0.201537,1.286739 -0.201538,0.578774 -0.568439,0.981849 -0.341064,0.382405 -0.80615,0.594277 -0.459919,0.206705 -0.976682,0.206705 -0.449583,0 -0.816485,-0.09819 -0.361734,-0.09819 -0.73897,-0.30489 v 2.41845 H 60.158108 V 59.23967 h 0.971514 v 0.604613 q 0.387572,-0.325561 0.868161,-0.542601 0.485757,-0.222208 1.033525,-0.222208 1.043861,0 1.622635,0.790647 0.583942,0.785479 0.583942,2.185906 z m -1.00252,0.02584 q 0,-1.043861 -0.356566,-1.560623 -0.356566,-0.516763 -1.095537,-0.516763 -0.418577,0 -0.842323,0.180867 -0.423745,0.180867 -0.811317,0.475422 v 3.271107 q 0.41341,0.186035 0.707965,0.253214 0.299722,0.06718 0.676959,0.06718 0.811317,0 1.266068,-0.547768 0.454751,-0.547769 0.454751,-1.622635 z m -5.255475,2.878366 q -0.273885,0.07235 -0.599445,0.118856 -0.320393,0.04651 -0.573607,0.04651 -0.883664,0 -1.343583,-0.475421 -0.459918,-0.475422 -0.459918,-1.52445 V 60.056155 H 55.347048 V 59.23967 h 0.656289 v -1.658808 h 0.971513 v 1.658808 h 2.00504 v 0.816485 h -2.00504 v 2.630322 q 0,0.454752 0.02067,0.713133 0.02067,0.253214 0.144694,0.475422 0.113687,0.206705 0.310057,0.30489 0.201538,0.09302 0.60978,0.09302 0.237711,0 0.496092,-0.06718 0.258382,-0.07235 0.372069,-0.118856 h 0.05168 z m -4.175442,0 q -0.273884,0.07235 -0.599445,0.118856 -0.320393,0.04651 -0.573606,0.04651 -0.883665,0 -1.343583,-0.475421 -0.459919,-0.475422 -0.459919,-1.52445 V 60.056155 H 51.171606 V 59.23967 h 0.656289 v -1.658808 h 0.971514 v 1.658808 h 2.005039 v 0.816485 h -2.005039 v 2.630322 q 0,0.454752 0.02067,0.713133 0.02067,0.253214 0.144694,0.475422 0.113688,0.206705 0.310057,0.30489 0.201538,0.09302 0.60978,0.09302 0.237711,0 0.496093,-0.06718 0.258381,-0.07235 0.372069,-0.118856 h 0.05168 z m -4.867903,0.05168 h -0.971514 v -3.28661 q 0,-0.397907 -0.04651,-0.744138 -0.04651,-0.351399 -0.170532,-0.547769 -0.129191,-0.21704 -0.372069,-0.320393 -0.242879,-0.10852 -0.630451,-0.10852 -0.397907,0 -0.831988,0.19637 -0.43408,0.19637 -0.831987,0.50126 v 4.3098 H 45.10998 v -8.040827 h 0.971514 v 2.909374 q 0.454751,-0.377237 0.940508,-0.589109 0.485756,-0.211873 0.997352,-0.211873 0.93534,0 1.426265,0.563271 0.490924,0.563272 0.490924,1.622635 z M 39.880343,62.128374 q 0,1.410762 -0.723468,2.227247 -0.723468,0.816485 -1.93786,0.816485 -1.224727,0 -1.948195,-0.816485 -0.7183,-0.816485 -0.7183,-2.227247 0,-1.410762 0.7183,-2.227247 0.723468,-0.821653 1.948195,-0.821653 1.214392,0 1.93786,0.821653 0.723468,0.816485 0.723468,2.227247 z m -1.00252,0 q 0,-1.121375 -0.439248,-1.663976 -0.439248,-0.547769 -1.21956,-0.547769 -0.790647,0 -1.229895,0.547769 -0.434081,0.542601 -0.434081,1.663976 0,1.085201 0.439249,1.648473 0.439248,0.558103 1.224727,0.558103 0.775144,0 1.214392,-0.552936 0.444416,-0.558103 0.444416,-1.65364 z m -5.09528,2.831859 q -0.273884,0.07235 -0.599445,0.118856 -0.320393,0.04651 -0.573606,0.04651 -0.883664,0 -1.343583,-0.475421 -0.459919,-0.475422 -0.459919,-1.52445 V 60.056155 H 30.149701 V 59.23967 h 0.656289 v -1.658808 h 0.971514 v 1.658808 h 2.005039 v 0.816485 h -2.005039 v 2.630322 q 0,0.454752 0.02067,0.713133 0.02067,0.253214 0.144694,0.475422 0.113688,0.206705 0.310057,0.30489 0.201538,0.09302 0.60978,0.09302 0.237711,0 0.496093,-0.06718 0.258381,-0.07235 0.372069,-0.118856 h 0.05168 z m -4.506171,-2.831859 q 0,1.410762 -0.723467,2.227247 -0.723468,0.816485 -1.93786,0.816485 -1.224728,0 -1.948196,-0.816485 -0.7183,-0.816485 -0.7183,-2.227247 0,-1.410762 0.7183,-2.227247 0.723468,-0.821653 1.948196,-0.821653 1.214392,0 1.93786,0.821653 0.723467,0.816485 0.723467,2.227247 z m -1.002519,0 q 0,-1.121375 -0.439249,-1.663976 -0.439248,-0.547769 -1.219559,-0.547769 -0.790647,0 -1.229896,0.547769 -0.43408,0.542601 -0.43408,1.663976 0,1.085201 0.439248,1.648473 0.439248,0.558103 1.224728,0.558103 0.775144,0 1.214392,-0.552936 0.444416,-0.558103 0.444416,-1.65364 z m -5.627546,2.315097 q -0.63045,0.289387 -1.379756,0.506427 -0.744138,0.211873 -1.441768,0.211873 -0.899167,0 -1.648473,-0.248046 -0.749306,-0.248047 -1.276404,-0.744139 -0.532265,-0.501259 -0.821652,-1.250565 -0.289387,-0.754474 -0.289387,-1.762161 0,-1.844843 1.074866,-2.909374 1.080034,-1.069699 2.96105,-1.069699 0.656289,0 1.338416,0.160197 0.687294,0.155029 1.477941,0.532265 v 1.214393 h -0.09302 q -0.160197,-0.124023 -0.465087,-0.325561 -0.30489,-0.201537 -0.599445,-0.335896 -0.356566,-0.160196 -0.811317,-0.263549 -0.449584,-0.10852 -1.02319,-0.10852 -1.291907,0 -2.04638,0.831988 -0.749306,0.82682 -0.749306,2.24275 0,1.493444 0.785479,2.325432 0.785479,0.82682 2.139398,0.82682 0.496092,0 0.987016,-0.09818 0.496092,-0.09819 0.868162,-0.253214 v -1.886184 h -2.061884 v -0.899167 h 3.074738 z" />
    </g>
  </g>
</svg>
