<svg xmlns="http://www.w3.org/2000/svg" role="img" viewBox="36.21 103.59 138.58 41.20"><path d="M172.03646 108.78288c1.2279 6.51967-8.824 2.38-4.30601-1.92012 1.65875-1.27474 4.07098-.10656 4.306 1.92012zm-.97659.22654c-2.2489-5.81877-5.56763 4.11855-.47522 2.23351.67869-.51482.66283-1.49909.47522-2.2335zm-5.17501 3.48685c2.43178 4.55685-7.7788 3.15796-2.1224 2.51345 2.18643-.46387 1.40989-3.88855-.50775-1.31982-5.95073-.14013-1.20403-8.30948 1.59897-5.63894l1.03118 4.4453zm-1.15657-.68659c.70536-3.86327-4.735-3.9834-3.06.17539.5623 1.42764 2.38836.75658 3.06-.17539zm-5.3774-.0841c1.2279 6.51966-8.824 2.37998-4.30601-1.92013 1.65874-1.27473 4.07097-.10657 4.306 1.92012zm-.9766.22653c-2.2489-5.81877-5.56764 4.11855-.47521 2.23351.67867-.51483.66283-1.49908.47522-2.2335zm-4.08534 3.9078c-1.52745.15818-3.62376 1.22889-4.80444.83083l-1.67632-7.2264c1.8973-.7409 1.22954 2.63273 1.93332 3.80632.05463 2.1967.94352 3.05523 3.01916 2.0101.835-.15007 1.5563-.69603 1.52828.57914zm-9.60138 2.17417c-3.3532 2.25954-3.28573-2.76057-4.27693-4.04219-.34133-.01813-.66893-2.65977.65622-2.69324-.74213 2.83365 3.10153.23086 2.24335 2.02063-2.7772-.25486-1.05131 2.5995-.65994 4.07337.8526 1.03096 2.09896-1.28043 2.0373.64143zm-4.208.65784c-5.41767 4.82896-7.31677-7.4807-1.08193-4.6641.7366 1.68389-4.66268-.48194-3.06592 3.04283.4638 4.51112 4.22513-1.0646 4.14786 1.62127zm-6.14039-1.06358c-1.69197.42513-6.33917.83175-2.4996 2.57977 1.44368-.27443 4.2966-1.92958 2.04053.38073-5.26453 3.38316-6.62472-7.61446-.71709-5.21806.77723.51256.99505 1.41815 1.17616 2.25756zm-1.08936-.51119c-2.42192-3.41473-4.65504 2.46133-.26088.06052zm-6.3028-1.83224c-2.77073.9968-.27127-2.69174 0 0zm1.49385 6.71421c.89881 3.68503-5.4256 2.08875-.94972 1.00552-.08194-1.9487-.78325-3.83166-1.14803-5.74938-3.16139.95168.74683-2.42327.94921-.20736l1.14855 4.95125zm-3.84445-2.21152c1.22791 6.51966-8.824 2.37999-4.30601-1.92012 1.65875-1.27475 4.07098-.10658 4.306 1.92012zm-.97659.22654c-2.2489-5.81877-5.56764 4.11855-.47522 2.2335.67868-.51482.66283-1.49907.47522-2.2335zm-5.1302-.68786c-3.3903-.14277-2.01692 3.00452-1.54918 4.96177-1.39285 1.4052-1.27834-2.26046-1.76867-3.32526-.97464-3.36802 1.07425-.47087 2.74972-2.57631.6042-.3117.37284.66137.56813.9398zm-4.90036.46303c.79808 3.55613-5.11118 2.23555-2.77922 5.76512-1.04472 1.83067-1.43512-1.81364-1.7223-2.89665.10081-1.38363-1.99341-4.13567.14963-4.24613 1.5688-.47595 3.94394-.7816 4.35189 1.37766zm-1.03117.26569c-2.01668-2.74058-4.1205-.15178-2.51532 2.19183 1.11558-.1301 2.95251-.58717 2.51532-2.19183zm-8.18089 7.38298c-2.2331.70747-.71488-3.82283-2.62727-4.41954-3.37988.07207-1.35125 3.35964-1.12806 5.29067-1.84798.68482-1.1787-2.66823-1.88298-3.818.14384-1.26232-1.9171-3.89912.06598-4.01484.36057 2.7471.64687 3.00497 3.1989 1.56688 2.06334.78807 1.69428 3.61477 2.37343 5.39483zm-5.86114 1.30655c-3.3532 2.25954-3.28572-2.76058-4.27692-4.04219-.34133-.01814-.66893-2.65978.65621-2.69324-.74213 2.83365 3.10153.23086 2.24335 2.02063-2.77721-.25485-1.0513 2.59949-.65996 4.07337.8526 1.03096 2.0989-1.2804 2.03732.64143zm-6.25304-5.41394c-2.77074.9968-.27128-2.69175 0 0zm1.46232 6.5783c-1.84798.68481-1.1787-2.66823-1.88298-3.818-.94708-2.75647 1.39327-1.52788 1.14057.61758l.7424 3.20042zm-3.62502-5.0846l-.16052 5.96274c-1.7222.58144-1.96706-2.36495-3.04122-3.33098-.68224-.50512-.41647 3.05713-.71412 4.2021-1.72865.58194-1.80052-2.4604-2.80431-3.46413-1.7985-2.27492.8244-2.09107 1.11838.13778.98862 2.72302 1.27302 1.75018 1.29144-.61854-.37274-2.78157 1.61225-2.0775 2.23666.01588 1.22877 2.69856 1.29264 1.30423 1.13557-.86633.1161-.93066-.50952-2.14681.93812-2.03853zm-11.4569 5.72386c-1.69196.42513-6.33917.83174-2.4996 2.57976 1.44368-.27443 4.29658-1.92957 2.04051.38074-5.26454 3.38317-6.62473-7.61446-.71709-5.21807.77724.51257.99502 1.41817 1.17618 2.25757zm-1.08936-.5112c-2.422-3.4147-4.65498 2.46134-.26088.06052zm-4.28794 4.24655c-5.41768 4.82897-7.31678-7.4807-1.08194-4.6641.73661 1.68388-4.66266-.48193-3.0659 3.04283.4638 4.51112 4.22512-1.0646 4.14784 1.62127zm-5.90867 1.74199c-1.41134-.4966-5.36494 2.62424-5.12312-1.61783.83624-1.39658 5.4876-2.46295 1.52955-2.73664-5.62225 1.3972 4.12139-3.34762 3.08308 2.15381l.51049 2.20066zm-1.26248-1.16598c-.23987-4.34227-5.61275 2.72903-.65656.64565l.65656-.64566zm-4.9897 2.6163c-1.84797.68482-1.1787-2.66823-1.88298-3.818.14384-1.26232-1.91709-3.89912.06598-4.01484l1.817 7.83285zm-3.09935-2.31541c1.46442 4.16327-5.07142 2.29783-2.85295 5.88175-1.84797.68481-1.1787-2.66823-1.88297-3.818-.09124-1.12747-1.6434-4.43437.15995-3.60975 1.15141-1.10928 4.1683-1.54324 4.57597 1.546zm-.97076.25167c-1.63992-4.74753-5.0222 1.6647-1.86048 2.59066 1.46746.10915 2.34418-1.2466 1.86048-2.59066zm-5.37376 1.39514c-1.69196.42513-6.33917.83174-2.4996 2.57976 1.44368-.27443 4.29657-1.92957 2.0405.38074-5.26454 3.38316-6.62473-7.61446-.71709-5.21807.77725.51257.99503 1.41817 1.17619 2.25757zm-1.08937-.5112c-2.422-3.4147-4.65498 2.46134-.26088.06053zm-3.87899 4.52303c-1.94774 1.03237-3.08124-1.79766-4.7611-2.03599-2.59655-.29181.60398 3.03037-.98234 3.36835-1.19088-.39225-.91057-3.14438-1.51986-4.46954-.58923-1.79836-1.1233-3.56233 1.42187-3.40665 4.1653-1.43045 2.81732 3.33036 2.93083 4.41069l2.9106 2.13314zm-3.5802-4.84567c-1.81465-2.3545-4.1654-.16386-2.54076 2.10501.91557.19517 3.13988-.54049 2.54076-2.10501z" stroke-width=".265"/></svg>